<svg xmlns="http://www.w3.org/2000/svg" xmlns:xlink="http://www.w3.org/1999/xlink" width="24" height="24" fill="none"><defs><linearGradient id="d" x1="23" x2="1" y1="1" y2="12" gradientUnits="userSpaceOnUse"><stop stop-color="#444"/><stop offset="1"/></linearGradient><linearGradient id="f" x1="21" x2="3" y1="4" y2="4" gradientUnits="userSpaceOnUse"><stop stop-opacity=".5"/><stop offset=".89"/><stop offset="1" stop-opacity="0"/></linearGradient><linearGradient id="h" x1="12" x2="11.5" y1="3" y2="8" gradientUnits="userSpaceOnUse"><stop stop-color="#DDD"/><stop offset="1" stop-color="#CCC" stop-opacity="0"/></linearGradient><linearGradient id="j" x1="23" x2="1.012" y1="9" y2="9.521" gradientUnits="userSpaceOnUse"><stop stop-opacity=".5"/><stop offset="1"/></linearGradient><linearGradient id="l" x1="23" x2="1.429" y1="5.4" y2="23.512" gradientUnits="userSpaceOnUse"><stop stop-color="#555"/><stop offset="1" stop-color="#181818"/></linearGradient><linearGradient id="n" x1="15" x2="5.5" y1="5.5" y2="19.5" gradientUnits="userSpaceOnUse"><stop stop-color="#999"/><stop offset="1"/></linearGradient><linearGradient id="e" x1="23" x2="1" y1="1" y2="12" gradientUnits="userSpaceOnUse"><stop stop-color="#444"/><stop offset="1"/></linearGradient><linearGradient id="g" x1="21" x2="3" y1="4" y2="4" gradientUnits="userSpaceOnUse"><stop stop-opacity=".5"/><stop offset=".89"/><stop offset="1" stop-opacity="0"/></linearGradient><linearGradient id="i" x1="12" x2="11.5" y1="3" y2="8" gradientUnits="userSpaceOnUse"><stop stop-color="#DDD"/><stop offset="1" stop-color="#CCC" stop-opacity="0"/></linearGradient><linearGradient id="k" x1="23" x2="1.012" y1="9" y2="9.521" gradientUnits="userSpaceOnUse"><stop stop-opacity=".5"/><stop offset="1"/></linearGradient><linearGradient id="m" x1="23" x2="1.429" y1="5.4" y2="23.511" gradientUnits="userSpaceOnUse"><stop stop-color="#555"/><stop offset="1" stop-color="#181818"/></linearGradient><linearGradient id="o" x1="15" x2="5.5" y1="5.5" y2="19.5" gradientUnits="userSpaceOnUse"><stop stop-color="#999"/><stop offset="1"/></linearGradient><linearGradient id="b"><stop offset=".523" style="stop-color:#50bbde;stop-opacity:1"/><stop offset="1" style="stop-color:#237bc3;stop-opacity:1"/></linearGradient><radialGradient xlink:href="#a" id="p" cx="0" cy="0" r="1" gradientTransform="matrix(0 10.9836 -10.9836 0 12 8.693)" gradientUnits="userSpaceOnUse"/><radialGradient id="a" cx="0" cy="0" r="1" gradientTransform="matrix(0 22 -22 0 32 1)" gradientUnits="userSpaceOnUse"><stop stop-color="#C5FFFE"/><stop offset="1" stop-color="#0FF"/></radialGradient><radialGradient xlink:href="#c" id="q" cx="0" cy="0" r="1" gradientTransform="rotate(90 1.653 10.347) scale(10.9836)" gradientUnits="userSpaceOnUse"/><radialGradient id="c" cx="0" cy="0" r="1" gradientTransform="rotate(90 -4.5 -3.5) scale(22)" gradientUnits="userSpaceOnUse"><stop stop-color="#58C6E3"/><stop offset="1" stop-color="#034DB0"/></radialGradient></defs><rect width="22" height="22" x="1" y="1" fill="url(#d)" opacity=".813" rx="6.6" style="fill:url(#e);stroke-width:1"/><rect width="18" height="18" x="3" y="2.25" fill="url(#f)" fill-opacity=".875" opacity=".125" rx="4.4" style="fill:url(#g);stroke-width:1"/><rect width="17.5" height="17.5" x="3.25" y="3.25" fill="#ccc" stroke="url(#h)" stroke-width=".5" rx="4.15" style="stroke:url(#i)"/><path fill="url(#j)" fill-opacity=".875" d="M1 7.508A3.008 3.008 0 0 1 4.008 4.5H8.19c1.075 0 2.117.37 2.95 1.048a4.678 4.678 0 0 0 2.95 1.047h5.902A3.008 3.008 0 0 1 23 9.603V15.5a6.6 6.6 0 0 1-6.6 6.6H7.6A6.6 6.6 0 0 1 1 15.5z" opacity=".125" style="fill:url(#k);stroke-width:1"/><path fill="url(#l)" d="M1 8.408A3.008 3.008 0 0 1 4.008 5.4H8.19c1.075 0 2.117.37 2.95 1.048a4.678 4.678 0 0 0 2.95 1.047h5.902A3.008 3.008 0 0 1 23 10.503V16.4a6.6 6.6 0 0 1-6.6 6.6H7.6A6.6 6.6 0 0 1 1 16.4z" style="opacity:.875;fill:url(#m);stroke-width:1"/><path stroke="url(#n)" stroke-linejoin="round" stroke-opacity=".375" stroke-width=".75" d="M22.625 10.503V16.4a6.225 6.225 0 0 1-6.225 6.225H7.6A6.225 6.225 0 0 1 1.375 16.4V8.408a2.633 2.633 0 0 1 2.633-2.633H8.19c.989 0 1.947.34 2.714.964a5.053 5.053 0 0 0 3.187 1.131h5.901a2.633 2.633 0 0 1 2.633 2.633z" style="opacity:.875;fill:none;stroke:url(#o)"/><path d="M11.5 9.2a5.477 5.477 0 0 0-5.477 5.478 5.477 5.477 0 0 0 5.477 5.477 5.477 5.477 0 0 0 5.477-5.477A5.477 5.477 0 0 0 11.5 9.2z" style="opacity:.15;fill:#1a1a1a;stroke:#1a1a1a;stroke-width:.0456432;stroke-dasharray:none;stroke-opacity:1"/><path d="M12 8.708a5.477 5.477 0 0 0-5.477 5.477A5.477 5.477 0 0 0 12 19.662a5.477 5.477 0 0 0 5.477-5.477A5.477 5.477 0 0 0 12 8.708z" style="fill:url(#p);stroke:url(#radialGradient22-0);stroke-width:.0456432;stroke-dasharray:none;stroke-opacity:1"/><path d="M12 8.708a5.477 5.477 0 0 0-4.548 2.437c.123.026.26.065.417.111l.142.042.096.028c.084.025.172.05.26.083l.39.14c.102.034.202.074.305.118a.518.518 0 0 1 .66-.149l.054-.048.093-.09.056-.055.295-.291.163-.168.122-.126.08-.083.059-.061.131-.148c.081-.093.164-.182.244-.27l.015-.017.144-.17.095-.113.114-.135.027-.033.03-.035.053-.066.204-.257c.096-.119.181-.234.26-.34a16.895 16.895 0 0 1 .16-.215l.064-.084A5.477 5.477 0 0 0 12 8.708zm.294.009-.018.035c-.028.054-.06.111-.095.172l-.022.04c-.027.044-.053.092-.081.14a5.05 5.05 0 0 1-.218.36l-.074.114c-.094.147-.194.304-.312.458l-.08.11c-.046.063-.093.129-.142.193a21.281 21.281 0 0 1-.374.465l-.063.07-.073.083-.102.116-.176.196-.072.073-.226.228-.048.049c-.034.035-.068.07-.103.102l-.058.054a.515.515 0 0 1 .03.31l.018.008.072.035c.103.052.206.11.31.168l.161.087c.145.077.285.163.427.25l.049.031.239.15c.059.037.117.078.174.118a.518.518 0 0 1 .412-.097l.056-.098c.02-.032.038-.064.056-.096.035-.062.07-.124.11-.184l.363-.539.09-.133c.02-.03.043-.058.064-.086l.034-.045.198-.257.08-.1c.105-.138.212-.274.33-.402l.06-.067.032-.037a.519.519 0 0 1 .083-.713l-.044-.094a23.23 23.23 0 0 1-.233-.569c-.05-.136-.096-.274-.142-.411l-.058-.17-.012-.047a5.477 5.477 0 0 0-.622-.07Zm.729.089.1.208c.054.111.108.222.16.334l.088.171c.064.123.127.245.188.368l.049.088a.524.524 0 0 1 .417.07l.353-.329.259-.22.078-.066a5.477 5.477 0 0 0-1.692-.624zm1.756.66-.096.103-.22.233-.317.355a.516.516 0 0 1-.037.687l.152.253.218.332.076.116c.046.072.093.143.143.213l.143.197.088.125.115.16.015.022c.033.047.067.094.103.138l.248.31.12.157.062.078.065.075.26.3.089.104c.056.066.111.132.172.194l.272.29.136.146c.03.032.061.063.093.093l.047.047.284.279.14.142.148.134.03.027.016.014a.52.52 0 0 1 .095-.074 5.477 5.477 0 0 0 .038-.53 5.477 5.477 0 0 0-2.698-4.72Zm-1.273 1.478-.036.045-.047.061a5.73 5.73 0 0 0-.31.419l-.066.096a20.701 20.701 0 0 1-.274.39l-.085.136-.338.538c-.071.123-.14.247-.21.372a.516.516 0 0 1 .1.52l.031.024.148.116.112.09a2.333 2.333 0 0 1 .11.095l.137.122.081.071.031.028.186.165.046.041c.057.05.113.1.163.154l.14.143.256.262.035.036.063.063c.032.033.065.067.094.102l.085.098.095.108.013.016.017.02a.52.52 0 0 1 .683.212l.246-.06.063-.015c.09-.018.18-.034.268-.05l.158-.028c.108-.02.216-.037.32-.055l.083-.014c.086-.014.17-.022.253-.03l.129-.013c.122-.014.24-.026.35-.036l.042-.004c.096-.01.188-.019.275-.02.085-.003.164-.006.24-.007 0-.106.032-.204.086-.285l-.05-.037-.163-.12-.156-.126-.31-.257-.055-.045c-.034-.028-.067-.055-.1-.085l-.147-.139-.292-.277a4.163 4.163 0 0 1-.25-.251l-.033-.036-.275-.297-.07-.074-.065-.077-.13-.155-.255-.313c-.042-.05-.08-.103-.118-.155l-.005-.006-.119-.163-.088-.12-.15-.206c-.05-.074-.098-.15-.146-.227l-.073-.114-.216-.34a7.723 7.723 0 0 1-.125-.225l-.024-.042a.504.504 0 0 1-.358-.04zm-6.099.26a5.477 5.477 0 0 0-.866 2.72l.015-.008c.051-.032.105-.067.163-.102.11-.068.23-.146.358-.23l.126-.083.054-.036.08-.053c.023-.015.045-.03.067-.047l.07-.049.103-.07.185-.128.298-.22c.088-.06.174-.127.261-.195l.047-.037.085-.065c.076-.059.153-.118.227-.182l.169-.138.144-.117a.521.521 0 0 1-.024-.296l-.006-.003a4.065 4.065 0 0 0-.281-.133l-.212-.095c-.179-.08-.347-.155-.503-.214l-.12-.048-.181-.073c-.076-.032-.148-.058-.215-.082l-.044-.017Zm2.455 1.126a.516.516 0 0 1-.646.097c-.22.174-.44.346-.661.495-.191.14-.386.26-.572.377l-.073.045-.163.095a6.48 6.48 0 0 1-.438.242l-.153.08-.12.06c-.055.03-.11.054-.164.078l-.086.039c-.092.042-.175.078-.253.112a5.477 5.477 0 0 0-.01.135 5.477 5.477 0 0 0 .128 1.109l.153.115c.099.075.198.15.299.222l.273.193c.03.02.06.042.089.063.06.043.122.087.186.126l.278.183.028.018c.083.056.166.11.253.16l.093.057.191.115.143.087.144.08.29.163.053.029c.031.017.062.035.093.05l.148.076c.051.025.102.052.152.078.127.065.254.13.384.19a.52.52 0 0 1 .353-.164c.02-.119.045-.237.07-.355l.028-.135c.028-.151.068-.3.107-.45l.048-.18c.018-.074.04-.146.063-.219l.028-.092.094-.312c.07-.204.141-.41.219-.612l.122-.301.004-.011c.038-.097.077-.193.122-.289l.067-.146c.049-.11.098-.22.15-.327a.52.52 0 0 1-.122-.513 4.714 4.714 0 0 0-.31-.207l-.088-.058-.098-.064a6.558 6.558 0 0 0-.358-.223l-.168-.1a8.28 8.28 0 0 0-.282-.164l-.088-.047zm2.179 1.449a.52.52 0 0 1-.356.082c-.045.093-.088.186-.13.278l-.084.18c-.04.082-.075.167-.11.252l-.016.038-.122.293c-.025.06-.048.122-.07.183a6.502 6.502 0 0 1-.043.114l-.112.298-.103.301-.031.09c-.024.07-.048.14-.067.211l-.09.306-.047.152-.04.154-.031.113c-.032.12-.062.239-.09.359a.508.508 0 0 1 .13.086l.031-.02.04-.026.145-.091.238-.15c.265-.156.54-.314.83-.457l.219-.11.123-.057.098-.045.064-.03c.128-.057.256-.116.387-.166l.165-.066c.097-.04.195-.078.294-.114l.158-.056c.101-.037.203-.073.304-.107l.031-.01.036-.01V15.74c0-.103.031-.2.083-.28l-.012-.012a.444.444 0 0 1-.018-.02l-.182-.199a1.609 1.609 0 0 0-.095-.096l-.099-.095-.096-.092-.302-.293a3.238 3.238 0 0 0-.19-.175l-.017-.013-.207-.18-.004-.004-.055-.05-.157-.136-.041-.035-.067-.056-.113-.088a19.202 19.202 0 0 0-.094-.073l-.085-.066zm5.16 1.464-.24.031c-.092.01-.189.029-.29.048l-.02.004c-.108.021-.223.042-.342.063a5.69 5.69 0 0 1-.136.025c-.077.013-.155.026-.235.045-.126.03-.257.063-.392.093l-.136.032c-.092.02-.186.042-.28.066l-.14.04-.157.048v.003a.516.516 0 0 1-.113.324c.152.191.282.39.405.58l.113.172c.04.06.08.119.117.177.025.037.047.075.068.113l.035.062.07.123.115.202.049.087c.04.069.078.134.11.198l.107.223a5.477 5.477 0 0 0 1.4-2.522.514.514 0 0 1-.109-.237zm-10.51.235a5.477 5.477 0 0 0 2.196 3.2c.06-.06.125-.122.2-.19l.114-.106c.103-.1.224-.2.353-.308l.156-.129.059-.049.036-.028a.517.517 0 0 1-.042-.276 9.026 9.026 0 0 1-.39-.2l-.157-.082-.15-.08-.092-.055-.053-.032-.29-.175-.145-.088-.14-.094c-.066-.043-.13-.086-.194-.13l-.087-.06a5.492 5.492 0 0 1-.264-.19l-.011-.008-.27-.204a3.368 3.368 0 0 1-.188-.151l-.074-.064-.26-.216a3.604 3.604 0 0 1-.161-.147l-.087-.082-.06-.056zm7.19.554-.067.023-.275.102-.17.062c-.098.036-.193.076-.289.116l-.158.066c-.095.037-.189.08-.282.123-.053.024-.105.048-.158.07l-.148.067-.07.032-.142.07-.072.035-.068.033c-.12.058-.237.116-.352.18l-.176.094c-.078.04-.154.08-.228.124l-.122.069a54.7 54.7 0 0 0-.33.192.54.54 0 0 1 .025.19l-.001.013c.128.054.257.106.386.15l.31.113c.1.04.204.073.307.105l.006.002.316.103.043.013c.038.013.077.026.116.037l.16.044c.107.028.214.059.32.089l.16.045.161.039.325.075.081.018c.081.02.163.039.245.053.077.014.153.03.23.045.141.028.283.055.425.078l.576.088a5.477 5.477 0 0 0 .897-.741l-.047-.077-.09-.147a5.952 5.952 0 0 0-.098-.145c-.028-.04-.058-.082-.086-.125l-.105-.152-.103-.153-.042-.06c-.023-.034-.047-.07-.073-.104l-.126-.166-.006-.007-.261-.347a20.84 20.84 0 0 0-.29-.356.517.517 0 0 1-.654-.178zm-3.207 1.961a.518.518 0 0 1-.382.181 20.68 20.68 0 0 0-.048.283l-.02.126-.026.158-.02.159-.042.318-.011.098a5.477 5.477 0 0 0 1.875.346 5.477 5.477 0 0 0 2.8-.782 6.994 6.994 0 0 0-.092-.005l-.338-.018c-.075-.002-.148-.011-.223-.02-.037-.005-.075-.01-.112-.013l-.336-.04a3.89 3.89 0 0 1-.335-.049l-.333-.057-.167-.03-.165-.038c-.11-.024-.22-.05-.33-.076l-.165-.039a2.707 2.707 0 0 1-.097-.026l-.066-.02-.326-.093a5.979 5.979 0 0 1-.484-.157l-.162-.057a5.782 5.782 0 0 1-.395-.149zm-.754.038a50.104 50.104 0 0 0-.516.358l-.04.03-.083.062-.08.06-.142.104-.1.073-.01.007a5.477 5.477 0 0 0 1.107.565c0-.026-.002-.051-.001-.077l.007-.323.006-.162.011-.162.023-.322.007-.075.003-.022a.53.53 0 0 1-.192-.116z" style="fill:url(#q);stroke:url(#radialGradient23-8);stroke-width:.0456432;stroke-dasharray:none;stroke-opacity:1"/></svg>