<svg xmlns="http://www.w3.org/2000/svg" xmlns:xlink="http://www.w3.org/1999/xlink" xml:space="preserve" width="64" height="64" viewBox="0 0 16.933 16.933"><defs><linearGradient id="o" x1="23" x2="1.429" y1="5.4" y2="23.511" gradientUnits="userSpaceOnUse"><stop stop-color="#555"/><stop offset="1" stop-color="#181818"/></linearGradient><linearGradient id="q" x1="15" x2="5.5" y1="5.5" y2="19.5" gradientUnits="userSpaceOnUse"><stop stop-color="#999"/><stop offset="1"/></linearGradient><linearGradient id="m" x1="23" x2="1.012" y1="9" y2="9.521" gradientUnits="userSpaceOnUse"><stop stop-opacity=".5"/><stop offset="1"/></linearGradient><linearGradient id="k" x1="12" x2="11.5" y1="3" y2="8" gradientUnits="userSpaceOnUse"><stop stop-color="#DDD"/><stop offset="1" stop-color="#CCC" stop-opacity="0"/></linearGradient><linearGradient id="i" x1="21" x2="3" y1="4" y2="4" gradientUnits="userSpaceOnUse"><stop stop-opacity=".5"/><stop offset=".89"/><stop offset="1" stop-opacity="0"/></linearGradient><linearGradient id="g" x1="23" x2="1" y1="1" y2="12" gradientUnits="userSpaceOnUse"><stop stop-color="#444"/><stop offset="1"/></linearGradient><linearGradient xlink:href="#a" id="s" x1="23" x2="1" y1="1" y2="12" gradientTransform="translate(5.509 .895) scale(.42307)" gradientUnits="userSpaceOnUse"/><linearGradient id="a" x1="23" x2="1" y1="1" y2="12" gradientTransform="matrix(.26458 0 0 .26458 -8.018 1.587)" gradientUnits="userSpaceOnUse"><stop stop-color="#444"/><stop offset="1"/></linearGradient><linearGradient xlink:href="#b" id="t" x1="21" x2="3" y1="4" y2="4" gradientTransform="translate(5.509 .895) scale(.42307)" gradientUnits="userSpaceOnUse"/><linearGradient id="b" x1="21" x2="3" y1="4" y2="4" gradientTransform="matrix(.26458 0 0 .26458 -8.018 1.587)" gradientUnits="userSpaceOnUse"><stop stop-opacity=".5"/><stop offset=".89"/><stop offset="1" stop-opacity="0"/></linearGradient><linearGradient xlink:href="#c" id="u" x1="12" x2="11.5" y1="3" y2="8" gradientTransform="translate(5.509 .895) scale(.42307)" gradientUnits="userSpaceOnUse"/><linearGradient id="c" x1="12" x2="11.5" y1="3" y2="8" gradientTransform="matrix(.26458 0 0 .26458 -8.018 1.587)" gradientUnits="userSpaceOnUse"><stop stop-color="#DDD"/><stop offset="1" stop-color="#CCC" stop-opacity="0"/></linearGradient><linearGradient xlink:href="#d" id="v" x1="23" x2="1.012" y1="9" y2="9.521" gradientTransform="translate(5.509 .895) scale(.42307)" gradientUnits="userSpaceOnUse"/><linearGradient id="d" x1="23" x2="1.012" y1="9" y2="9.521" gradientTransform="matrix(.26458 0 0 .26458 -8.018 1.587)" gradientUnits="userSpaceOnUse"><stop stop-opacity=".5"/><stop offset="1"/></linearGradient><linearGradient xlink:href="#e" id="w" x1="23" x2="1.429" y1="5.4" y2="23.511" gradientTransform="translate(5.509 .895) scale(.42307)" gradientUnits="userSpaceOnUse"/><linearGradient id="e" x1="23" x2="1.429" y1="5.4" y2="23.511" gradientTransform="matrix(.26458 0 0 .26458 -8.018 1.587)" gradientUnits="userSpaceOnUse"><stop stop-color="#555"/><stop offset="1" stop-color="#181818"/></linearGradient><linearGradient xlink:href="#f" id="x" x1="15" x2="5.5" y1="5.5" y2="19.5" gradientTransform="translate(5.509 .895) scale(.42307)" gradientUnits="userSpaceOnUse"/><linearGradient id="f" x1="15" x2="5.5" y1="5.5" y2="19.5" gradientTransform="matrix(.26458 0 0 .26458 -8.018 1.587)" gradientUnits="userSpaceOnUse"><stop stop-color="#999"/><stop offset="1"/></linearGradient><linearGradient xlink:href="#a" id="h" x1="23" x2="1" y1="1" y2="12" gradientTransform="translate(1.27 5.885) scale(.42307)" gradientUnits="userSpaceOnUse"/><linearGradient xlink:href="#b" id="j" x1="21" x2="3" y1="4" y2="4" gradientTransform="translate(1.27 5.885) scale(.42307)" gradientUnits="userSpaceOnUse"/><linearGradient xlink:href="#c" id="l" x1="12" x2="11.5" y1="3" y2="8" gradientTransform="translate(1.27 5.885) scale(.42307)" gradientUnits="userSpaceOnUse"/><linearGradient xlink:href="#d" id="n" x1="23" x2="1.012" y1="9" y2="9.521" gradientTransform="translate(1.27 5.885) scale(.42307)" gradientUnits="userSpaceOnUse"/><linearGradient xlink:href="#e" id="p" x1="23" x2="1.429" y1="5.4" y2="23.511" gradientTransform="translate(1.27 5.885) scale(.42307)" gradientUnits="userSpaceOnUse"/><linearGradient xlink:href="#f" id="r" x1="15" x2="5.5" y1="5.5" y2="19.5" gradientTransform="translate(1.27 5.885) scale(.42307)" gradientUnits="userSpaceOnUse"/></defs><rect width="9.308" height="9.308" x="1.694" y="6.308" fill="url(#g)" opacity=".813" rx="2.792" style="fill:url(#h);stroke-width:.264578"/><rect width="7.615" height="7.615" x="2.54" y="6.837" fill="url(#i)" fill-opacity=".875" opacity=".125" rx="1.862" style="fill:url(#j);stroke-width:.264578"/><rect width="7.404" height="7.404" x="2.645" y="7.26" fill="#ccc" stroke="url(#k)" stroke-width=".132" rx="1.756" style="stroke:url(#l)"/><path fill="url(#m)" fill-opacity=".875" d="M1.694 9.061c0-.703.57-1.272 1.272-1.272h1.77c.454 0 .895.156 1.248.443.353.286.793.443 1.248.443h2.497c.702 0 1.272.57 1.272 1.273v2.494a2.792 2.792 0 0 1-2.792 2.793H4.486a2.792 2.792 0 0 1-2.792-2.793z" opacity=".125" style="fill:url(#n);stroke-width:.264578"/><path fill="url(#o)" d="M1.694 9.442c0-.703.57-1.273 1.272-1.273h1.77c.454 0 .895.157 1.248.444.353.286.793.443 1.248.443h2.497c.702 0 1.272.57 1.272 1.272v2.495a2.792 2.792 0 0 1-2.792 2.792H4.486a2.792 2.792 0 0 1-2.792-2.792z" style="opacity:.875;fill:url(#p);stroke-width:.264578"/><path stroke="url(#q)" stroke-linejoin="round" stroke-opacity=".375" stroke-width=".198" d="M10.843 10.328v2.495a2.634 2.634 0 0 1-2.634 2.634H4.486a2.634 2.634 0 0 1-2.634-2.634V9.442c0-.615.499-1.114 1.114-1.114h1.77c.418 0 .823.144 1.148.408.38.31.857.478 1.348.478h2.497c.615 0 1.114.5 1.114 1.114z" style="opacity:.875;fill:none;stroke:url(#r)"/><rect width="9.308" height="9.308" x="5.932" y="1.318" fill="url(#g)" opacity=".813" rx="2.792" style="fill:url(#s);stroke-width:.264578"/><rect width="7.615" height="7.615" x="6.778" y="1.846" fill="url(#i)" fill-opacity=".875" opacity=".125" rx="1.862" style="fill:url(#t);stroke-width:.264578"/><rect width="7.404" height="7.404" x="6.884" y="2.27" fill="#ccc" stroke="url(#k)" stroke-width=".132" rx="1.756" style="stroke:url(#u)"/><path fill="url(#m)" fill-opacity=".875" d="M5.932 4.07c0-.702.57-1.272 1.272-1.272h1.77c.455 0 .895.157 1.248.444.353.286.794.443 1.248.443h2.497c.703 0 1.272.57 1.272 1.272v2.495a2.792 2.792 0 0 1-2.792 2.792H8.724a2.792 2.792 0 0 1-2.792-2.792z" opacity=".125" style="fill:url(#v);stroke-width:.264578"/><path fill="url(#o)" d="M5.932 4.452c0-.703.57-1.273 1.272-1.273h1.77c.455 0 .895.157 1.248.443.353.287.794.444 1.248.444h2.497c.703 0 1.272.57 1.272 1.272v2.495a2.792 2.792 0 0 1-2.792 2.792H8.724a2.792 2.792 0 0 1-2.792-2.792z" style="opacity:.875;fill:url(#w);stroke-width:.264578"/><path stroke="url(#q)" stroke-linejoin="round" stroke-opacity=".375" stroke-width=".198" d="M15.08 5.338v2.495a2.634 2.634 0 0 1-2.633 2.634H8.724A2.634 2.634 0 0 1 6.09 7.833V4.452c0-.616.5-1.114 1.114-1.114h1.77c.418 0 .823.144 1.148.407.381.31.857.48 1.348.48h2.497c.615 0 1.114.498 1.114 1.113z" style="opacity:.875;fill:none;stroke:url(#x)"/></svg>