<svg xmlns="http://www.w3.org/2000/svg" width="24" height="24" fill="none"><defs><linearGradient id="a" x1="23" x2="1" y1="1" y2="12" gradientUnits="userSpaceOnUse"><stop stop-color="#444"/><stop offset="1"/></linearGradient><linearGradient id="c" x1="21" x2="3" y1="4" y2="4" gradientUnits="userSpaceOnUse"><stop stop-opacity=".5"/><stop offset=".89"/><stop offset="1" stop-opacity="0"/></linearGradient><linearGradient id="e" x1="12" x2="11.5" y1="3" y2="8" gradientUnits="userSpaceOnUse"><stop stop-color="#DDD"/><stop offset="1" stop-color="#CCC" stop-opacity="0"/></linearGradient><linearGradient id="g" x1="23" x2="1.012" y1="9" y2="9.521" gradientUnits="userSpaceOnUse"><stop stop-opacity=".5"/><stop offset="1"/></linearGradient><linearGradient id="i" x1="23" x2="1.429" y1="5.4" y2="23.512" gradientUnits="userSpaceOnUse"><stop stop-color="#555"/><stop offset="1" stop-color="#181818"/></linearGradient><linearGradient id="k" x1="15" x2="5.5" y1="5.5" y2="19.5" gradientUnits="userSpaceOnUse"><stop stop-color="#999"/><stop offset="1"/></linearGradient><linearGradient id="b" x1="23" x2="1" y1="1" y2="12" gradientUnits="userSpaceOnUse"><stop stop-color="#444"/><stop offset="1"/></linearGradient><linearGradient id="d" x1="21" x2="3" y1="4" y2="4" gradientUnits="userSpaceOnUse"><stop stop-opacity=".5"/><stop offset=".89"/><stop offset="1" stop-opacity="0"/></linearGradient><linearGradient id="f" x1="12" x2="11.5" y1="3" y2="8" gradientUnits="userSpaceOnUse"><stop stop-color="#DDD"/><stop offset="1" stop-color="#CCC" stop-opacity="0"/></linearGradient><linearGradient id="h" x1="23" x2="1.012" y1="9" y2="9.521" gradientUnits="userSpaceOnUse"><stop stop-opacity=".5"/><stop offset="1"/></linearGradient><linearGradient id="j" x1="23" x2="1.429" y1="5.4" y2="23.511" gradientUnits="userSpaceOnUse"><stop stop-color="#555"/><stop offset="1" stop-color="#181818"/></linearGradient><linearGradient id="l" x1="15" x2="5.5" y1="5.5" y2="19.5" gradientUnits="userSpaceOnUse"><stop stop-color="#999"/><stop offset="1"/></linearGradient></defs><rect width="22" height="22" x="1" y="1" fill="url(#a)" opacity=".813" rx="6.6" style="fill:url(#b);stroke-width:1"/><rect width="18" height="18" x="3" y="2.25" fill="url(#c)" fill-opacity=".875" opacity=".125" rx="4.4" style="fill:url(#d);stroke-width:1"/><rect width="17.5" height="17.5" x="3.25" y="3.25" fill="#ccc" stroke="url(#e)" stroke-width=".5" rx="4.15" style="stroke:url(#f)"/><path fill="url(#g)" fill-opacity=".875" d="M1 7.508A3.008 3.008 0 0 1 4.008 4.5H8.19c1.075 0 2.117.37 2.95 1.048a4.678 4.678 0 0 0 2.95 1.047h5.902A3.008 3.008 0 0 1 23 9.603V15.5a6.6 6.6 0 0 1-6.6 6.6H7.6A6.6 6.6 0 0 1 1 15.5z" opacity=".125" style="fill:url(#h);stroke-width:1"/><path fill="url(#i)" d="M1 8.408A3.008 3.008 0 0 1 4.008 5.4H8.19c1.075 0 2.117.37 2.95 1.048a4.678 4.678 0 0 0 2.95 1.047h5.902A3.008 3.008 0 0 1 23 10.503V16.4a6.6 6.6 0 0 1-6.6 6.6H7.6A6.6 6.6 0 0 1 1 16.4z" style="opacity:.875;fill:url(#j);stroke-width:1"/><path stroke="url(#k)" stroke-linejoin="round" stroke-opacity=".375" stroke-width=".75" d="M22.625 10.503V16.4a6.225 6.225 0 0 1-6.225 6.225H7.6A6.225 6.225 0 0 1 1.375 16.4V8.408a2.633 2.633 0 0 1 2.633-2.633H8.19c.989 0 1.947.34 2.714.964a5.053 5.053 0 0 0 3.187 1.131h5.901a2.633 2.633 0 0 1 2.633 2.633z" style="opacity:.875;fill:none;stroke:url(#l)"/><path d="M12.54 9.558a.5.5 0 1 0-.043.998 4.509 4.509 0 0 0-4.656 3.967l-.134-.135-.035-.037a.515.515 0 0 0-.165-.11h-.002a.493.493 0 0 0-.54.111L5.36 15.954a.501.501 0 0 0 .707.709l.797-.797a5.502 5.502 0 0 0 4.012 4.502 5.5 5.5 0 0 0 4.558-.791l.01-.008c.056-.039.11-.078.164-.119l.016-.012.025-.02c.05-.038.1-.076.149-.116l.066-.057.08-.068c.054-.048.108-.097.16-.147l.022-.021.134-.133.02-.022c.044-.046.087-.093.129-.14l.017-.02a5.58 5.58 0 0 0 .127-.148l.014-.018c.042-.051.083-.103.123-.156l.01-.014.033-.047c.045-.06.089-.122.131-.185.027-.04.056-.08.082-.121v-.002a5.56 5.56 0 0 0 .486-.953 5.505 5.505 0 0 0 .188-3.42h.002a5.511 5.511 0 0 0-5.08-4.073ZM7.905 16l.006.006a4.486 4.486 0 0 0 .55 1.388A4.48 4.48 0 0 1 7.905 16Z" style="opacity:.15;fill:#1a1a1a;fill-opacity:1;fill-rule:nonzero;stroke:none;stroke-width:1.52988"/><path d="M17.31 14.561a4.508 4.508 0 0 1-4.505 4.506 4.508 4.508 0 0 1-4.506-4.506 4.508 4.508 0 0 1 4.506-4.505 4.508 4.508 0 0 1 4.505 4.505z" style="fill:#cc5e55;fill-opacity:1;fill-rule:nonzero;stroke:none;stroke-width:1.52988"/><path d="M12.714 11.933c.138 0 .251.113.251.251v2.342c0 .138-.113.251-.25.251a.253.253 0 0 1-.252-.25v-2.343c0-.138.115-.25.251-.25z" style="fill:#fff;fill-opacity:1;fill-rule:nonzero;stroke:none;stroke-width:1.52988"/><path d="M12.578 14.395a.24.24 0 0 1 .352 0l1.655 1.655a.242.242 0 0 1 0 .352.24.24 0 0 1-.352 0l-1.655-1.655a.25.25 0 0 1 0-.352z" style="fill:#fff;fill-opacity:1;fill-rule:nonzero;stroke:none;stroke-width:1.52988"/><path d="M8.502 17.999a5.495 5.495 0 0 1-1.204-3.204.5.5 0 1 1 1.002-.043 4.497 4.497 0 0 0 8.289 2.223.501.501 0 0 1 .847.533 5.502 5.502 0 0 1-6.07 2.365 5.506 5.506 0 0 1-2.864-1.874z" style="fill:#fafafa;fill-opacity:1;fill-rule:nonzero;stroke:none;stroke-width:.922526"/><path d="M7.81 13.706c-.13 0-.256.051-.353.148a.494.494 0 0 0 0 .707l1.603 1.607a.5.5 0 1 0 .71-.706l-1.607-1.608a.505.505 0 0 0-.353-.148Z" style="fill:#fafafa;fill-opacity:1;fill-rule:nonzero;stroke:none;stroke-width:.922526"/><path d="M8.31 14.207a.505.505 0 0 0-.147-.353.496.496 0 0 0-.706 0L5.85 15.458a.5.5 0 1 0 .707.71l1.606-1.607a.497.497 0 0 0 .148-.354zM17.922 16.553a5.544 5.544 0 0 1-2.174 2.645.5.5 0 1 1-.537-.847 4.496 4.496 0 0 0 1.932-4.958 4.497 4.497 0 0 0-4.155-3.333.499.499 0 1 1 .043-.998 5.512 5.512 0 0 1 5.082 4.072h-.004a5.505 5.505 0 0 1-.187 3.42z" style="fill:#fafafa;fill-opacity:1;fill-rule:nonzero;stroke:none;stroke-width:.922526"/></svg>