<svg xmlns="http://www.w3.org/2000/svg" xmlns:xlink="http://www.w3.org/1999/xlink" xml:space="preserve" width="64" height="64" viewBox="0 0 16.933 16.933"><defs><linearGradient id="e" x1="23" x2="1.429" y1="5.4" y2="23.511" gradientTransform="matrix(.26458 0 0 .26458 17.991 7.673)" gradientUnits="userSpaceOnUse"><stop stop-color="#198CFF"/><stop offset="1" stop-color="#3F8AE8"/></linearGradient><linearGradient id="f" x1="15" x2="5.5" y1="5.5" y2="19.5" gradientTransform="matrix(.26458 0 0 .26458 17.991 7.673)" gradientUnits="userSpaceOnUse"><stop stop-color="#85F8FF"/><stop offset="1" stop-color="#105BF6"/></linearGradient><linearGradient id="d" x1="23" x2="1.012" y1="9" y2="9.521" gradientTransform="matrix(.26458 0 0 .26458 17.991 7.673)" gradientUnits="userSpaceOnUse"><stop stop-opacity=".5"/><stop offset="1"/></linearGradient><linearGradient id="c" x1="12" x2="11.5" y1="3" y2="8" gradientTransform="matrix(.26458 0 0 .26458 17.991 7.673)" gradientUnits="userSpaceOnUse"><stop stop-color="#DDD"/><stop offset="1" stop-color="#CCC" stop-opacity="0"/></linearGradient><linearGradient id="b" x1="21" x2="3" y1="4" y2="4" gradientTransform="matrix(.26458 0 0 .26458 17.991 7.673)" gradientUnits="userSpaceOnUse"><stop stop-opacity=".5"/><stop offset=".89"/><stop offset="1" stop-opacity="0"/></linearGradient><linearGradient id="a" x1="23" x2="1" y1="1" y2="12" gradientTransform="matrix(.26458 0 0 .26458 17.991 7.673)" gradientUnits="userSpaceOnUse"><stop stop-color="#198CFF"/><stop offset="1" stop-color="#1964FF"/></linearGradient><linearGradient xlink:href="#a" id="g" x1="23" x2="1" y1="1" y2="12" gradientTransform="matrix(.26458 0 0 .26458 17.991 7.673)" gradientUnits="userSpaceOnUse"/><linearGradient xlink:href="#b" id="h" x1="21" x2="3" y1="4" y2="4" gradientTransform="matrix(.26458 0 0 .26458 17.991 7.673)" gradientUnits="userSpaceOnUse"/><linearGradient xlink:href="#c" id="i" x1="12" x2="11.5" y1="3" y2="8" gradientTransform="matrix(.26458 0 0 .26458 17.991 7.673)" gradientUnits="userSpaceOnUse"/><linearGradient xlink:href="#d" id="j" x1="23" x2="1.012" y1="9" y2="9.521" gradientTransform="matrix(.26458 0 0 .26458 17.991 7.673)" gradientUnits="userSpaceOnUse"/><linearGradient xlink:href="#e" id="k" x1="23" x2="1.429" y1="5.4" y2="23.511" gradientTransform="matrix(.26458 0 0 .26458 17.991 7.673)" gradientUnits="userSpaceOnUse"/><linearGradient xlink:href="#f" id="l" x1="15" x2="5.5" y1="5.5" y2="19.5" gradientTransform="matrix(.26458 0 0 .26458 17.991 7.673)" gradientUnits="userSpaceOnUse"/><linearGradient xlink:href="#a" id="m" x1="23" x2="1" y1="1" y2="12" gradientTransform="matrix(.26458 0 0 .26458 17.991 7.673)" gradientUnits="userSpaceOnUse"/><linearGradient xlink:href="#b" id="n" x1="21" x2="3" y1="4" y2="4" gradientTransform="matrix(.26458 0 0 .26458 17.991 7.673)" gradientUnits="userSpaceOnUse"/><linearGradient xlink:href="#c" id="o" x1="12" x2="11.5" y1="3" y2="8" gradientTransform="matrix(.26458 0 0 .26458 17.991 7.673)" gradientUnits="userSpaceOnUse"/><linearGradient xlink:href="#d" id="p" x1="23" x2="1.012" y1="9" y2="9.521" gradientTransform="matrix(.26458 0 0 .26458 17.991 7.673)" gradientUnits="userSpaceOnUse"/><linearGradient xlink:href="#e" id="q" x1="23" x2="1.429" y1="5.4" y2="23.511" gradientTransform="matrix(.26458 0 0 .26458 17.991 7.673)" gradientUnits="userSpaceOnUse"/><linearGradient xlink:href="#f" id="r" x1="15" x2="5.5" y1="5.5" y2="19.5" gradientTransform="matrix(.26458 0 0 .26458 17.991 7.673)" gradientUnits="userSpaceOnUse"/></defs><g transform="matrix(1.59905 0 0 1.59905 -27.498 -6.384)"><rect width="5.821" height="5.821" x="18.256" y="7.937" fill="url(#a)" opacity=".813" rx="1.746" style="fill:url(#g);stroke-width:.264578"/><rect width="4.762" height="4.762" x="18.785" y="8.268" fill="url(#b)" fill-opacity=".875" opacity=".125" rx="1.164" style="fill:url(#h);stroke-width:.264578"/><rect width="4.63" height="4.63" x="18.851" y="8.533" fill="#ccc" stroke="url(#c)" stroke-width=".132" rx="1.098" style="stroke:url(#i)"/><path fill="url(#d)" fill-opacity=".875" d="M18.256 9.66c0-.44.356-.797.796-.797h1.106c.285 0 .56.098.78.278.222.179.497.277.781.277h1.562c.44 0 .796.356.796.796v1.56c0 .964-.782 1.746-1.747 1.746h-2.328a1.746 1.746 0 0 1-1.746-1.746z" opacity=".125" style="fill:url(#j);stroke-width:.264578"/><path fill="url(#e)" d="M18.256 9.897c0-.44.356-.796.796-.796h1.106c.285 0 .56.098.78.278.222.179.497.277.781.277h1.562c.44 0 .796.356.796.796v1.56c0 .964-.782 1.746-1.747 1.746h-2.328a1.746 1.746 0 0 1-1.746-1.746z" style="opacity:.875;fill:url(#k);stroke-width:.264578"/><path stroke="url(#f)" stroke-linejoin="round" stroke-opacity=".375" stroke-width=".198" d="M23.977 10.452v1.56c0 .91-.737 1.647-1.647 1.647h-2.328c-.91 0-1.647-.738-1.647-1.647V9.897c0-.384.312-.696.697-.696h1.106c.262 0 .515.09.718.255.239.193.536.3.843.3h1.562c.385 0 .696.31.696.696z" style="opacity:.875;fill:none;stroke:url(#l)"/></g><g transform="matrix(1.59905 0 0 1.59905 -23.26 -11.375)"><rect width="5.821" height="5.821" x="18.256" y="7.937" fill="url(#a)" opacity=".813" rx="1.746" style="fill:url(#m);stroke-width:.264578"/><rect width="4.762" height="4.762" x="18.785" y="8.268" fill="url(#b)" fill-opacity=".875" opacity=".125" rx="1.164" style="fill:url(#n);stroke-width:.264578"/><rect width="4.63" height="4.63" x="18.851" y="8.533" fill="#ccc" stroke="url(#c)" stroke-width=".132" rx="1.098" style="stroke:url(#o)"/><path fill="url(#d)" fill-opacity=".875" d="M18.256 9.66c0-.44.356-.797.796-.797h1.106c.285 0 .56.098.78.278.222.179.497.277.781.277h1.562c.44 0 .796.356.796.796v1.56c0 .964-.782 1.746-1.747 1.746h-2.328a1.746 1.746 0 0 1-1.746-1.746z" opacity=".125" style="fill:url(#p);stroke-width:.264578"/><path fill="url(#e)" d="M18.256 9.897c0-.44.356-.796.796-.796h1.106c.285 0 .56.098.78.278.222.179.497.277.781.277h1.562c.44 0 .796.356.796.796v1.56c0 .964-.782 1.746-1.747 1.746h-2.328a1.746 1.746 0 0 1-1.746-1.746z" style="opacity:.875;fill:url(#q);stroke-width:.264578"/><path stroke="url(#f)" stroke-linejoin="round" stroke-opacity=".375" stroke-width=".198" d="M23.977 10.452v1.56c0 .91-.737 1.647-1.647 1.647h-2.328c-.91 0-1.647-.738-1.647-1.647V9.897c0-.384.312-.696.697-.696h1.106c.262 0 .515.09.718.255.239.193.536.3.843.3h1.562c.385 0 .696.31.696.696z" style="opacity:.875;fill:none;stroke:url(#r)"/></g></svg>