<svg xmlns="http://www.w3.org/2000/svg" width="24" height="24" fill="none"><defs><linearGradient id="b" x1="21" x2="3" y1="4" y2="4" gradientUnits="userSpaceOnUse"><stop stop-opacity=".5"/><stop offset=".89"/><stop offset="1" stop-opacity="0"/></linearGradient><linearGradient id="c" x1="12" x2="11.5" y1="3" y2="8" gradientUnits="userSpaceOnUse"><stop stop-color="#DDD"/><stop offset="1" stop-color="#CCC" stop-opacity="0"/></linearGradient><linearGradient id="d" x1="23" x2="1.012" y1="9" y2="9.521" gradientUnits="userSpaceOnUse"><stop stop-opacity=".5"/><stop offset="1"/></linearGradient><linearGradient id="a" x1="23" x2="1" y1="1" y2="12" gradientUnits="userSpaceOnUse"><stop stop-color="#198CFF"/><stop offset="1" stop-color="#1964FF"/></linearGradient><linearGradient id="e" x1="23" x2="1.429" y1="5.4" y2="23.511" gradientUnits="userSpaceOnUse"><stop stop-color="#198CFF"/><stop offset="1" stop-color="#3F8AE8"/></linearGradient><linearGradient id="f" x1="15" x2="5.5" y1="5.5" y2="19.5" gradientUnits="userSpaceOnUse"><stop stop-color="#85F8FF"/><stop offset="1" stop-color="#105BF6"/></linearGradient></defs><rect width="22" height="22" x="1" y="1" fill="url(#a)" opacity=".813" rx="6.6" style="fill:url(#a)"/><rect width="18" height="18" x="3" y="2.25" fill="url(#paint1_linear_201_118)" fill-opacity=".875" opacity=".125" rx="4.4" style="fill:url(#b)"/><rect width="17.5" height="17.5" x="3.25" y="3.25" fill="#ccc" stroke="url(#paint2_linear_201_118)" stroke-width=".5" rx="4.15" style="stroke:url(#c)"/><path fill="url(#paint3_linear_201_118)" fill-opacity=".875" d="M1 7.508A3.008 3.008 0 0 1 4.008 4.5H8.19c1.075 0 2.117.37 2.95 1.048a4.678 4.678 0 0 0 2.95 1.047h5.902A3.008 3.008 0 0 1 23 9.603V15.5a6.6 6.6 0 0 1-6.6 6.6H7.6A6.6 6.6 0 0 1 1 15.5Z" opacity=".125" style="fill:url(#d)"/><g opacity=".875"><path fill="url(#e)" d="M1 8.408A3.008 3.008 0 0 1 4.008 5.4H8.19c1.075 0 2.117.37 2.95 1.048a4.678 4.678 0 0 0 2.95 1.047h5.902A3.008 3.008 0 0 1 23 10.503V16.4a6.6 6.6 0 0 1-6.6 6.6H7.6A6.6 6.6 0 0 1 1 16.4Z" style="fill:url(#e)"/><path stroke="url(#f)" stroke-linejoin="round" stroke-opacity=".375" stroke-width=".75" d="M22.625 10.503V16.4a6.225 6.225 0 0 1-6.225 6.225H7.6A6.225 6.225 0 0 1 1.375 16.4V8.408a2.633 2.633 0 0 1 2.633-2.633H8.19c.989 0 1.947.34 2.714.964a5.053 5.053 0 0 0 3.187 1.131h5.901a2.633 2.633 0 0 1 2.633 2.633z" style="stroke:url(#f)"/></g><path d="M12.54 9.558a.5.5 0 1 0-.043.998 4.509 4.509 0 0 0-4.656 3.967l-.134-.135-.035-.037a.515.515 0 0 0-.165-.11h-.002a.493.493 0 0 0-.54.111L5.36 15.954a.501.501 0 0 0 .707.709l.797-.797a5.502 5.502 0 0 0 4.012 4.502 5.5 5.5 0 0 0 4.558-.791l.01-.008c.056-.039.11-.078.164-.119l.016-.012.025-.02c.05-.038.1-.076.149-.116l.066-.057.08-.068c.054-.048.108-.097.16-.147l.022-.021.134-.133.02-.022c.044-.046.087-.093.129-.14l.017-.02a5.58 5.58 0 0 0 .127-.148l.014-.018c.042-.051.083-.103.123-.156l.01-.014.033-.047c.045-.06.089-.122.131-.185.027-.04.056-.08.082-.121v-.002a5.56 5.56 0 0 0 .486-.953 5.505 5.505 0 0 0 .188-3.42h.002a5.511 5.511 0 0 0-5.08-4.073ZM7.905 16l.006.006a4.486 4.486 0 0 0 .55 1.388A4.48 4.48 0 0 1 7.905 16Z" style="opacity:.15;fill:#1a1a1a;fill-opacity:1;fill-rule:nonzero;stroke:none;stroke-width:1.52988"/><path d="M-16.046 10.086a6.516 6.516 0 0 1-6.512 6.512 6.516 6.516 0 0 1-6.512-6.512 6.516 6.516 0 0 1 6.512-6.512 6.516 6.516 0 0 1 6.512 6.512z" style="fill:#cc5e55;fill-opacity:1;fill-rule:nonzero;stroke:none;stroke-width:2.21114" transform="matrix(.6919 0 0 .6919 28.412 7.583)"/><path d="M-22.689 6.287c.2 0 .363.164.363.363v3.385a.364.364 0 0 1-.363.363.366.366 0 0 1-.362-.363V6.65c0-.2.166-.363.362-.363z" style="fill:#fff;fill-opacity:1;fill-rule:nonzero;stroke:none;stroke-width:2.21114" transform="matrix(.6919 0 0 .6919 28.412 7.583)"/><path d="M-22.885 9.845a.347.347 0 0 1 .508 0l2.393 2.392a.35.35 0 0 1 0 .51.347.347 0 0 1-.509 0l-2.392-2.393a.362.362 0 0 1 0-.509z" style="fill:#fff;fill-opacity:1;fill-rule:nonzero;stroke:none;stroke-width:2.21114" transform="matrix(.6919 0 0 .6919 28.412 7.583)"/><path d="M-28.777 15.054a7.942 7.942 0 0 1-1.74-4.63.724.724 0 0 1 1.448-.063 6.5 6.5 0 0 0 11.98 3.213.725.725 0 0 1 1-.224.72.72 0 0 1 .224.995 7.953 7.953 0 0 1-8.772 3.417 7.957 7.957 0 0 1-4.14-2.708z" style="fill:#fafafa;fill-opacity:1;fill-rule:nonzero;stroke:none;stroke-width:1.33333" transform="matrix(.6919 0 0 .6919 28.412 7.583)"/><path d="M-29.777 8.85a.721.721 0 0 0-.51.214.714.714 0 0 0 0 1.02l2.317 2.324a.73.73 0 0 0 1.027 0 .722.722 0 0 0 0-1.02l-2.323-2.324a.73.73 0 0 0-.51-.214z" style="fill:#fafafa;fill-opacity:1;fill-rule:nonzero;stroke:none;stroke-width:1.33333" transform="matrix(.6919 0 0 .6919 28.412 7.583)"/><path d="M-29.053 9.574a.73.73 0 0 0-.213-.51.716.716 0 0 0-1.021 0l-2.323 2.318a.723.723 0 1 0 1.021 1.025l2.323-2.322a.719.719 0 0 0 .213-.51zM-15.162 12.965a8.013 8.013 0 0 1-3.141 3.823.724.724 0 1 1-.776-1.224 6.499 6.499 0 0 0 2.792-7.167 6.5 6.5 0 0 0-6.006-4.817.721.721 0 1 1 .063-1.443 7.967 7.967 0 0 1 7.344 5.885h-.005a7.956 7.956 0 0 1-.271 4.943z" style="fill:#fafafa;fill-opacity:1;fill-rule:nonzero;stroke:none;stroke-width:1.33333" transform="matrix(.6919 0 0 .6919 28.412 7.583)"/></svg>