<svg xmlns="http://www.w3.org/2000/svg" xmlns:xlink="http://www.w3.org/1999/xlink" width="24" height="24" fill="none"><defs><linearGradient id="e" x1="21" x2="3" y1="4" y2="4" gradientUnits="userSpaceOnUse"><stop stop-opacity=".5"/><stop offset=".89"/><stop offset="1" stop-opacity="0"/></linearGradient><linearGradient id="f" x1="12" x2="11.5" y1="3" y2="8" gradientUnits="userSpaceOnUse"><stop stop-color="#DDD"/><stop offset="1" stop-color="#CCC" stop-opacity="0"/></linearGradient><linearGradient id="g" x1="23" x2="1.012" y1="9" y2="9.521" gradientUnits="userSpaceOnUse"><stop stop-opacity=".5"/><stop offset="1"/></linearGradient><linearGradient xlink:href="#a" id="j" x1="-240.47" x2="-240.47" y1="-60.605" y2="-29.026" gradientTransform="matrix(.17157 0 0 .16861 52.902 20.057)" gradientUnits="userSpaceOnUse"/><linearGradient id="a" x1="-240.47" x2="-240.47" y1="-60.605" y2="-29.026" gradientTransform="matrix(.96667 0 0 .95 262.45 67.575)" gradientUnits="userSpaceOnUse"><stop offset="0" stop-color="#4285db"/><stop offset="1" stop-color="#42b9db"/></linearGradient><linearGradient xlink:href="#b" id="k" x1="10.583" x2="225.69" y1="-184.68" y2="-184.68" gradientTransform="translate(12.078 102.06) scale(.11417)" gradientUnits="userSpaceOnUse"/><linearGradient id="b" x1="10.583" x2="225.69" y1="-184.68" y2="-184.68" gradientTransform="translate(18.557 59.5) scale(.11417)" gradientUnits="userSpaceOnUse"><stop offset="0" stop-color="#fafbfb"/><stop offset="1" stop-color="#fafbfb" stop-opacity="0"/></linearGradient><linearGradient xlink:href="#c" id="l" x1="520" x2="410" y1="-620" y2="-620" gradientTransform="translate(12.078 102.06) scale(.0302)" gradientUnits="userSpaceOnUse"/><linearGradient id="c" x1="520" x2="410" y1="-620" y2="-620" gradientTransform="translate(18.557 59.5) scale(.0302)" gradientUnits="userSpaceOnUse"><stop offset="0"/><stop offset="1" stop-opacity="0"/></linearGradient><linearGradient id="h" x1="23" x2="1.429" y1="5.4" y2="23.511" gradientUnits="userSpaceOnUse"><stop stop-color="#198CFF"/><stop offset="1" stop-color="#3F8AE8"/></linearGradient><linearGradient id="i" x1="15" x2="5.5" y1="5.5" y2="19.5" gradientUnits="userSpaceOnUse"><stop stop-color="#85F8FF"/><stop offset="1" stop-color="#105BF6"/></linearGradient><linearGradient id="d" x1="23" x2="1" y1="1" y2="12" gradientUnits="userSpaceOnUse"><stop stop-color="#198CFF"/><stop offset="1" stop-color="#1964FF"/></linearGradient></defs><rect width="22" height="22" x="1" y="1" fill="url(#d)" opacity=".813" rx="6.6" style="fill:url(#d)"/><rect width="18" height="18" x="3" y="2.25" fill="url(#paint1_linear_201_118)" fill-opacity=".875" opacity=".125" rx="4.4" style="fill:url(#e)"/><rect width="17.5" height="17.5" x="3.25" y="3.25" fill="#ccc" stroke="url(#paint2_linear_201_118)" stroke-width=".5" rx="4.15" style="stroke:url(#f)"/><path fill="url(#paint3_linear_201_118)" fill-opacity=".875" d="M1 7.508A3.008 3.008 0 0 1 4.008 4.5H8.19c1.075 0 2.117.37 2.95 1.048a4.678 4.678 0 0 0 2.95 1.047h5.902A3.008 3.008 0 0 1 23 9.603V15.5a6.6 6.6 0 0 1-6.6 6.6H7.6A6.6 6.6 0 0 1 1 15.5Z" opacity=".125" style="fill:url(#g)"/><g opacity=".875"><path fill="url(#h)" d="M1 8.408A3.008 3.008 0 0 1 4.008 5.4H8.19c1.075 0 2.117.37 2.95 1.048a4.678 4.678 0 0 0 2.95 1.047h5.902A3.008 3.008 0 0 1 23 10.503V16.4a6.6 6.6 0 0 1-6.6 6.6H7.6A6.6 6.6 0 0 1 1 16.4Z" style="fill:url(#h)"/><path stroke="url(#i)" stroke-linejoin="round" stroke-opacity=".375" stroke-width=".75" d="M22.625 10.503V16.4a6.225 6.225 0 0 1-6.225 6.225H7.6A6.225 6.225 0 0 1 1.375 16.4V8.408a2.633 2.633 0 0 1 2.633-2.633H8.19c.989 0 1.947.34 2.714.964a5.053 5.053 0 0 0 3.187 1.131h5.901a2.633 2.633 0 0 1 2.633 2.633z" style="stroke:url(#i)"/></g><path d="M6.961 9.387a.86.86 0 0 0-.861.861v5.639a.86.86 0 0 0 .861.861h2.946c-.001 1.473-.213 1.474-1.268 2.108v.424h5.922v-.424c-1.055-.633-1.269-.635-1.27-2.108h2.948a.86.86 0 0 0 .861-.861v-5.639a.86.86 0 0 0-.861-.861Z" style="opacity:.146;fill:#1a1a1a;stroke-width:.360396"/><path fill="#b3b3b3" d="m12 15.083-1.692 1.269c0 1.48-.212 1.48-1.27 2.115L12 18.68l2.961-.212c-1.057-.634-1.269-.634-1.269-2.115Z" style="stroke-width:.360396"/><path fill="#ccc" d="M9.039 18.467v.423h5.923v-.423z" style="stroke-width:.360396"/><rect width="11" height="7.36" x="6.5" y="8.998" fill="#303030" rx=".861" ry=".861" style="stroke-width:.354309"/><g transform="translate(0 -.001)"><rect width="10.294" height="6.745" x="6.853" y="9.306" fill="url(#a)" rx=".71" ry=".698" style="fill:url(#j);stroke-width:.177488"/><path fill="#1a1a1a" d="m10.688 15.41 2.573-2.787 2.144 2.787z"/><path fill="#e6e6e6" d="M10.495 13.716 7.112 15.89c.123.101.28.164.453.164h6.623l-3.693-2.337z" opacity=".9"/><path fill="#fafbfb" d="m9.83 16.053.665-2.337 3.693 2.337z"/><path fill="#b0b2b5" d="m13.26 12.409-.857.91v2.734h4.034c.194 0 .369-.076.497-.2z"/><path fill="#fff" d="m13.26 12.408 1.073 3.645h2.104c.194 0 .369-.076.497-.2l-3.673-3.445z"/><path fill="url(#b)" d="m13.287 87.56 3.746-13.172L37.847 87.56z" style="fill:url(#k)" transform="matrix(.17744 0 0 .17744 7.473 .517)"/><path fill="url(#c)" d="M26.578 80.43v7.13h1.208v-6.366z" opacity=".35" style="fill:url(#l)" transform="matrix(.17744 0 0 .17744 7.473 .517)"/></g></svg>