<svg xmlns="http://www.w3.org/2000/svg" xmlns:xlink="http://www.w3.org/1999/xlink" xml:space="preserve" width="24" height="24" fill="none"><rect width="22" height="22" x="1" y="1" fill="url(#a)" opacity=".813" rx="6.6" style="fill:url(#a)"/><rect width="18" height="18" x="3" y="2.25" fill="url(#b)" fill-opacity=".875" opacity=".125" rx="4.4" style="fill:url(#b)"/><rect width="17.5" height="17.5" x="3.25" y="3.25" fill="#ccc" stroke="url(#c)" stroke-width=".5" rx="4.15" style="stroke:url(#c)"/><path fill="url(#d)" fill-opacity=".875" d="M1 7.508A3.008 3.008 0 0 1 4.008 4.5H8.19c1.075 0 2.117.37 2.95 1.048a4.678 4.678 0 0 0 2.95 1.047h5.902A3.008 3.008 0 0 1 23 9.603V15.5a6.6 6.6 0 0 1-6.6 6.6H7.6A6.6 6.6 0 0 1 1 15.5Z" opacity=".125" style="fill:url(#d)"/><path fill="url(#e)" d="M1 8.408A3.008 3.008 0 0 1 4.008 5.4H8.19c1.075 0 2.117.37 2.95 1.048a4.678 4.678 0 0 0 2.95 1.047h5.902A3.008 3.008 0 0 1 23 10.503V16.4a6.6 6.6 0 0 1-6.6 6.6H7.6A6.6 6.6 0 0 1 1 16.4Z" style="opacity:.875;fill:url(#e)"/><path stroke="url(#f)" stroke-linejoin="round" stroke-opacity=".375" stroke-width=".75" d="M22.625 10.503V16.4a6.225 6.225 0 0 1-6.225 6.225H7.6A6.225 6.225 0 0 1 1.375 16.4V8.408a2.633 2.633 0 0 1 2.633-2.633H8.19c.989 0 1.947.34 2.714.964a5.053 5.053 0 0 0 3.187 1.131h5.901a2.633 2.633 0 0 1 2.633 2.633z" style="opacity:.875;stroke:url(#f)"/><defs><linearGradient id="a" x1="23" x2="1" y1="1" y2="12" gradientUnits="userSpaceOnUse"><stop stop-color="#E3C880"/><stop offset="1" stop-color="#6F5C38"/></linearGradient><linearGradient id="b" x1="21" x2="3" y1="4" y2="4" gradientUnits="userSpaceOnUse"><stop stop-opacity=".5"/><stop offset=".89"/><stop offset="1" stop-opacity="0"/></linearGradient><linearGradient id="c" x1="12" x2="11.5" y1="3" y2="8" gradientUnits="userSpaceOnUse"><stop stop-color="#DDD"/><stop offset="1" stop-color="#CCC" stop-opacity="0"/></linearGradient><linearGradient id="d" x1="23" x2="1.012" y1="9" y2="9.521" gradientUnits="userSpaceOnUse"><stop stop-opacity=".5"/><stop offset="1"/></linearGradient><linearGradient id="e" x1="23" x2="1.429" y1="5.4" y2="23.511" gradientUnits="userSpaceOnUse"><stop stop-color="#FFE795"/><stop offset="1" stop-color="#7A653E"/></linearGradient><linearGradient id="f" x1="15" x2="5.5" y1="5.5" y2="19.5" gradientUnits="userSpaceOnUse"><stop stop-color="#FFE795"/><stop offset="1" stop-color="#7A653E"/></linearGradient><linearGradient id="g" x1="12" x2="11.5" y1="3" y2="8" gradientTransform="matrix(.75 0 0 -.75 0 18)" gradientUnits="userSpaceOnUse" spreadMethod="pad"><stop offset="0" style="stop-opacity:1;stop-color:#fff"/><stop offset="1" style="stop-opacity:0;stop-color:#fff"/></linearGradient><linearGradient id="i" x1="15" x2="5.5" y1="5.5" y2="19.5" gradientTransform="matrix(.75 0 0 -.75 0 18)" gradientUnits="userSpaceOnUse" spreadMethod="pad"><stop offset="0" style="stop-opacity:.37500572;stop-color:#fff"/><stop offset="1" style="stop-opacity:.37500572;stop-color:#fff"/></linearGradient><linearGradient id="k" x1="5.273" x2="18.698" y1="19.797" y2="9.262" gradientTransform="translate(.333 .253) scale(.72222)" gradientUnits="userSpaceOnUse" spreadMethod="pad"><stop offset="0" style="stop-opacity:1;stop-color:#121212"/><stop offset="1" style="stop-opacity:1;stop-color:#3b3b3b"/></linearGradient><linearGradient xlink:href="#k" id="l" x1="5.273" x2="18.698" y1="19.797" y2="9.262" gradientTransform="translate(.442 .335) scale(.96296)" gradientUnits="userSpaceOnUse" spreadMethod="pad"/><clipPath id="h" clipPathUnits="userSpaceOnUse"><path d="M1 1h16v16H1Z"/></clipPath><clipPath id="j" clipPathUnits="userSpaceOnUse"><path d="M0 4h18v14H0Z"/></clipPath><clipPath id="m" clipPathUnits="userSpaceOnUse"><path d="M0 0h19v19H0Z"/></clipPath></defs><path d="M8.685 10.866h-.12v.661h-.208a1.116 1.116 0 0 0 0 2.23h.208v.422H7.252l.057.162a1.12 1.12 0 0 0 1.048.738h.208v.663h.905v-.663h.21a1.115 1.115 0 0 0 0-2.228h-.21v-.417h1.314l-.058-.161a1.117 1.117 0 0 0-1.046-.746h-.21v-.661zm-.12 1.568v.417h-.208a.208.208 0 1 1-.01-.417zm1.12 1.745H9.47v-.422h.21c.12 0 .213.089.213.209a.21.21 0 0 1-.208.213zm1.65.662h-.12v.901h2.886v-.901Zm-5.838-3.855c0-1.03.833-1.864 1.864-1.864h9.272c1.03 0 1.864.833 1.864 1.864v6.62c0 1.036-.833 1.87-1.864 1.87H7.361a1.864 1.864 0 0 1-1.864-1.87z" style="fill:url(#l);stroke:none;stroke-width:1.33333"/><path d="M6.141 8.527h-.09v.496h-.156a.837.837 0 0 0 0 1.672h.156v.317h-.985l.043.121a.84.84 0 0 0 .786.555h.156v.496h.679v-.496h.157a.837.837 0 0 0 0-1.672H6.73v-.313h.985l-.043-.121a.838.838 0 0 0-.785-.559H6.73v-.496Zm-.09 1.176v.313h-.156a.156.156 0 1 1-.008-.313zm.84 1.309H6.73v-.317h.157c.09 0 .16.067.16.157 0 .093-.074.16-.156.16zm1.238.496h-.09v.676h2.164v-.676ZM3.75 8.617c0-.773.625-1.398 1.398-1.398h6.954c.773 0 1.398.625 1.398 1.398v4.965c0 .777-.625 1.402-1.398 1.402H5.148a1.398 1.398 0 0 1-1.398-1.402z" clip-path="url(#m)" opacity=".15" style="fill:#1a1a1a;fill-opacity:1;fill-rule:nonzero;stroke:none" transform="matrix(1.33333 0 0 1.33333 -.003 -.003)"/></svg>