<svg xmlns="http://www.w3.org/2000/svg" xml:space="preserve" width="24" height="24" fill="none"><rect width="22" height="22" x="1" y="1" fill="url(#a)" opacity=".813" rx="6.6" style="fill:url(#a)"/><rect width="18" height="18" x="3" y="2.25" fill="#777" fill-opacity=".875" opacity=".625" rx="4.4"/><rect width="18" height="18" x="3" y="3" fill="#ccc" rx="4.4"/><path fill="url(#b)" fill-opacity=".875" d="M1 7.508A3.008 3.008 0 0 1 4.008 4.5H8.19c1.075 0 2.117.37 2.95 1.048a4.678 4.678 0 0 0 2.95 1.047h5.902A3.008 3.008 0 0 1 23 9.603V15.5a6.6 6.6 0 0 1-6.6 6.6H7.6A6.6 6.6 0 0 1 1 15.5Z" opacity=".125" style="fill:url(#b)"/><path fill="url(#c)" d="M1 8.408A3.008 3.008 0 0 1 4.008 5.4H8.19c1.075 0 2.117.37 2.95 1.048a4.678 4.678 0 0 0 2.95 1.047h5.902A3.008 3.008 0 0 1 23 10.503V16.4a6.6 6.6 0 0 1-6.6 6.6H7.6A6.6 6.6 0 0 1 1 16.4Z" opacity=".875" style="fill:url(#c)"/><defs><linearGradient id="a" x1="23" x2="1" y1="1" y2="12" gradientUnits="userSpaceOnUse"><stop stop-color="#E3C880"/><stop offset="1" stop-color="#6F5C38"/></linearGradient><linearGradient id="b" x1="23" x2="1.012" y1="9" y2="9.521" gradientUnits="userSpaceOnUse"><stop stop-opacity=".5"/><stop offset="1"/></linearGradient><linearGradient id="c" x1="23" x2="1.429" y1="5.4" y2="23.511" gradientUnits="userSpaceOnUse"><stop stop-color="#FFE795"/><stop offset="1" stop-color="#7A653E"/></linearGradient><clipPath id="d" clipPathUnits="userSpaceOnUse"><path d="M0 0h19v19H0Z"/></clipPath></defs><path d="M10.336 6.781a2.058 2.058 0 0 0-1.25.543c-.274.27-.516.696-.449 1.106.472.031.961-.203 1.258-.508.296-.301.496-.719.441-1.141Zm-.281 1.657c-.567.042-1.082.398-1.375.398-.332 0-.844-.387-1.391-.375-.719.012-1.379.426-1.746 1.09-.746 1.328-.191 3.301.531 4.379.356.531.789 1.101 1.336 1.101.543 0 .738-.355 1.383-.355s.824.355 1.395.355c.57 0 .937-.547 1.289-1.078a4.791 4.791 0 0 0 .585-1.238 1.909 1.909 0 0 1-1.132-1.758c-.012-1.102.875-1.629.914-1.656-.496-.746-1.27-.852-1.547-.863a1.223 1.223 0 0 0-.242 0Z" clip-path="url(#d)" opacity=".15" style="fill:#1a1a1a;fill-opacity:1;fill-rule:nonzero;stroke:none" transform="matrix(1.33333 0 0 1.33333 .249 0)"/><path d="M48.281 8.541c-.568.022-1.26.323-1.666.724-.364.36-.688.928-.599 1.475.63.041 1.281-.27 1.677-.677.395-.402.662-.959.588-1.522zm-.374 2.208c-.756.058-1.443.532-1.834.532-.442 0-1.13-.516-1.854-.5-.959.016-1.839.568-2.328 1.454-.995 1.77-.26 4.401.708 5.838.474.708 1.052 1.468 1.781 1.468.724 0 .98-.473 1.844-.473.859 0 1.099.473 1.859.473.761 0 1.25-.729 1.72-1.437.541-.817.765-1.61.781-1.65-.016-.006-1.496-.59-1.51-2.345-.017-1.469 1.166-2.172 1.218-2.208-.661-.994-1.693-1.136-2.063-1.152-.109-.009-.218-.009-.322 0z" style="fill:#ede8db;fill-opacity:1;fill-rule:nonzero;stroke:none;stroke-width:1.33333" transform="translate(-33.751)"/></svg>