<svg xmlns="http://www.w3.org/2000/svg" xml:space="preserve" width="24" height="24" fill="none"><rect width="22" height="22" x="1" y="1" fill="url(#a)" opacity=".813" rx="6.6" style="fill:url(#a)"/><rect width="18" height="18" x="3" y="2.25" fill="url(#b)" fill-opacity=".875" opacity=".125" rx="4.4" style="fill:url(#b)"/><rect width="17.5" height="17.5" x="3.25" y="3.25" fill="#ccc" stroke="url(#c)" stroke-width=".5" rx="4.15" style="stroke:url(#c)"/><path fill="url(#d)" fill-opacity=".875" d="M1 7.508A3.008 3.008 0 0 1 4.008 4.5H8.19c1.075 0 2.117.37 2.95 1.048a4.678 4.678 0 0 0 2.95 1.047h5.902A3.008 3.008 0 0 1 23 9.603V15.5a6.6 6.6 0 0 1-6.6 6.6H7.6A6.6 6.6 0 0 1 1 15.5Z" opacity=".125" style="fill:url(#d)"/><g opacity=".875"><path fill="url(#e)" d="M1 8.408A3.008 3.008 0 0 1 4.008 5.4H8.19c1.075 0 2.117.37 2.95 1.048a4.678 4.678 0 0 0 2.95 1.047h5.902A3.008 3.008 0 0 1 23 10.503V16.4a6.6 6.6 0 0 1-6.6 6.6H7.6A6.6 6.6 0 0 1 1 16.4Z" style="fill:url(#e)"/><path stroke="url(#f)" stroke-linejoin="round" stroke-opacity=".375" stroke-width=".75" d="M22.625 10.503V16.4a6.225 6.225 0 0 1-6.225 6.225H7.6A6.225 6.225 0 0 1 1.375 16.4V8.408a2.633 2.633 0 0 1 2.633-2.633H8.19c.989 0 1.947.34 2.714.964a5.053 5.053 0 0 0 3.187 1.131h5.901a2.633 2.633 0 0 1 2.633 2.633z" style="stroke:url(#f)"/></g><defs><linearGradient id="a" x1="23" x2="1" y1="1" y2="12" gradientUnits="userSpaceOnUse"><stop stop-color="#E3C880"/><stop offset="1" stop-color="#6F5C38"/></linearGradient><linearGradient id="b" x1="21" x2="3" y1="4" y2="4" gradientUnits="userSpaceOnUse"><stop stop-opacity=".5"/><stop offset=".89"/><stop offset="1" stop-opacity="0"/></linearGradient><linearGradient id="c" x1="12" x2="11.5" y1="3" y2="8" gradientUnits="userSpaceOnUse"><stop stop-color="#DDD"/><stop offset="1" stop-color="#CCC" stop-opacity="0"/></linearGradient><linearGradient id="d" x1="23" x2="1.012" y1="9" y2="9.521" gradientUnits="userSpaceOnUse"><stop stop-opacity=".5"/><stop offset="1"/></linearGradient><linearGradient id="e" x1="23" x2="1.429" y1="5.4" y2="23.511" gradientUnits="userSpaceOnUse"><stop stop-color="#FFE795"/><stop offset="1" stop-color="#7A653E"/></linearGradient><linearGradient id="f" x1="15" x2="5.5" y1="5.5" y2="19.5" gradientUnits="userSpaceOnUse"><stop stop-color="#FFE795"/><stop offset="1" stop-color="#7A653E"/></linearGradient><linearGradient id="g" x1="12" x2="11.5" y1="3" y2="8" gradientTransform="matrix(.75 0 0 -.75 0 18)" gradientUnits="userSpaceOnUse" spreadMethod="pad"><stop offset="0" style="stop-opacity:1;stop-color:#fff"/><stop offset="1" style="stop-opacity:0;stop-color:#fff"/></linearGradient><linearGradient id="i" x1="15" x2="5.5" y1="5.5" y2="19.5" gradientTransform="matrix(.75 0 0 -.75 0 18)" gradientUnits="userSpaceOnUse" spreadMethod="pad"><stop offset="0" style="stop-opacity:.37500572;stop-color:#fff"/><stop offset="1" style="stop-opacity:.37500572;stop-color:#fff"/></linearGradient><linearGradient id="l" x1="18.036" x2="5.933" y1="8.03" y2="19.941" gradientTransform="matrix(.91668 0 0 .91668 1.004 1.314)" gradientUnits="userSpaceOnUse" spreadMethod="pad"><stop offset="0" style="stop-opacity:1;stop-color:#777"/><stop offset="1" style="stop-opacity:1;stop-color:#222"/></linearGradient><clipPath id="h" clipPathUnits="userSpaceOnUse"><path d="M1 1h16v16H1Z"/></clipPath><clipPath id="j" clipPathUnits="userSpaceOnUse"><path d="M0 4h18v14H0Z"/></clipPath><clipPath id="k" clipPathUnits="userSpaceOnUse"><path d="M0 0h19v19H0Z"/></clipPath></defs><path d="M8.625 6.863a4.182 4.182 0 0 0-4.191 4.192c0 1.875 1.238 3.449 2.925 3.992v-.703c-1.058.234-1.308-.469-1.308-.469-.172-.445-.422-.48-.422-.48-.348-.243.023-.239.023-.239.383.028.586.403.586.403.34.589.918.421 1.137.32.031-.25.105-.672.215-.77-.848-.097-1.481-.64-1.481-2.125 0-.425.25-.98.493-1.25a1.954 1.954 0 0 1 .039-1.199s.019-.008.062-.008c.121-.007.402.192.949.571.328-.098.711-.141.973-.145.297 0 .598.051.91.145.547-.379.895-.578 1.02-.575a.3.3 0 0 1 .062.012c.207.531.078 1.102.039 1.199.242.27.485.825.485 1.25 0 1.489-.953 2.028-1.805 2.121.137.122.172.356.172.719 0 .438 0 .719-.004.903v.386c1.812-.465 3.312-2.097 3.312-4.058a4.182 4.182 0 0 0-4.191-4.192z" clip-path="url(#k)" opacity=".15" style="fill:#1a1a1a;fill-opacity:1;fill-rule:nonzero;stroke:none" transform="matrix(1.33333 0 0 1.33333 .003 -.004)"/><path d="M12.003 8.647a5.576 5.576 0 0 0-5.588 5.59c0 2.5 1.65 4.598 3.9 5.322v-.937c-1.41.312-1.744-.626-1.744-.626-.23-.593-.562-.64-.562-.64-.464-.324.03-.318.03-.318.511.037.782.537.782.537.453.785 1.224.561 1.516.427.04-.334.14-.896.286-1.027-1.13-.13-1.974-.853-1.974-2.833 0-.567.333-1.307.657-1.667-.052-.13-.224-.885.052-1.599 0 0 .025-.01.083-.01.161-.01.536.256 1.265.761.437-.13.948-.188 1.297-.193.396 0 .798.068 1.214.193.729-.505 1.193-.77 1.36-.761.057 0 .082.01.082.01.276.708.104 1.47.052 1.599.323.36.647 1.1.647 1.667 0 1.985-1.272 2.704-2.407 2.828.183.162.23.48.23.958 0 .584 0 .964-.006 1.204v.515c2.416-.62 4.416-2.796 4.416-5.41 0-3.095-2.489-5.59-5.588-5.59z" style="fill:url(#l);stroke:none;stroke-width:1.33333"/></svg>