<svg xmlns="http://www.w3.org/2000/svg" xml:space="preserve" width="24" height="24" fill="none"><rect width="22" height="22" x="1" y="1" fill="url(#a)" opacity=".813" rx="6.6" style="fill:url(#a)"/><rect width="18" height="18" x="3" y="2.25" fill="url(#b)" fill-opacity=".875" opacity=".125" rx="4.4" style="fill:url(#b)"/><rect width="17.5" height="17.5" x="3.25" y="3.25" fill="#ccc" stroke="url(#c)" stroke-width=".5" rx="4.15" style="stroke:url(#c)"/><path fill="url(#d)" fill-opacity=".875" d="M1 7.508A3.008 3.008 0 0 1 4.008 4.5H8.19c1.075 0 2.117.37 2.95 1.048a4.678 4.678 0 0 0 2.95 1.047h5.902A3.008 3.008 0 0 1 23 9.603V15.5a6.6 6.6 0 0 1-6.6 6.6H7.6A6.6 6.6 0 0 1 1 15.5Z" opacity=".125" style="fill:url(#d)"/><g opacity=".875"><path fill="url(#e)" d="M1 8.408A3.008 3.008 0 0 1 4.008 5.4H8.19c1.075 0 2.117.37 2.95 1.048a4.678 4.678 0 0 0 2.95 1.047h5.902A3.008 3.008 0 0 1 23 10.503V16.4a6.6 6.6 0 0 1-6.6 6.6H7.6A6.6 6.6 0 0 1 1 16.4Z" style="fill:url(#e)"/><path stroke="url(#f)" stroke-linejoin="round" stroke-opacity=".375" stroke-width=".75" d="M22.625 10.503V16.4a6.225 6.225 0 0 1-6.225 6.225H7.6A6.225 6.225 0 0 1 1.375 16.4V8.408a2.633 2.633 0 0 1 2.633-2.633H8.19c.989 0 1.947.34 2.714.964a5.053 5.053 0 0 0 3.187 1.131h5.901a2.633 2.633 0 0 1 2.633 2.633z" style="stroke:url(#f)"/></g><defs><linearGradient id="a" x1="23" x2="1" y1="1" y2="12" gradientUnits="userSpaceOnUse"><stop stop-color="#E3C880"/><stop offset="1" stop-color="#6F5C38"/></linearGradient><linearGradient id="b" x1="21" x2="3" y1="4" y2="4" gradientUnits="userSpaceOnUse"><stop stop-opacity=".5"/><stop offset=".89"/><stop offset="1" stop-opacity="0"/></linearGradient><linearGradient id="c" x1="12" x2="11.5" y1="3" y2="8" gradientUnits="userSpaceOnUse"><stop stop-color="#DDD"/><stop offset="1" stop-color="#CCC" stop-opacity="0"/></linearGradient><linearGradient id="d" x1="23" x2="1.012" y1="9" y2="9.521" gradientUnits="userSpaceOnUse"><stop stop-opacity=".5"/><stop offset="1"/></linearGradient><linearGradient id="e" x1="23" x2="1.429" y1="5.4" y2="23.511" gradientUnits="userSpaceOnUse"><stop stop-color="#FFE795"/><stop offset="1" stop-color="#7A653E"/></linearGradient><linearGradient id="f" x1="15" x2="5.5" y1="5.5" y2="19.5" gradientUnits="userSpaceOnUse"><stop stop-color="#FFE795"/><stop offset="1" stop-color="#7A653E"/></linearGradient><linearGradient id="g" x1="12" x2="11.5" y1="3" y2="8" gradientTransform="matrix(.75 0 0 -.75 0 18)" gradientUnits="userSpaceOnUse" spreadMethod="pad"><stop offset="0" style="stop-opacity:1;stop-color:#fff"/><stop offset="1" style="stop-opacity:0;stop-color:#fff"/></linearGradient><linearGradient id="i" x1="15" x2="5.5" y1="5.5" y2="19.5" gradientTransform="matrix(.75 0 0 -.75 0 18)" gradientUnits="userSpaceOnUse" spreadMethod="pad"><stop offset="0" style="stop-opacity:.37500572;stop-color:#fff"/><stop offset="1" style="stop-opacity:.37500572;stop-color:#fff"/></linearGradient><clipPath id="h" clipPathUnits="userSpaceOnUse"><path d="M1 1h16v16H1Z"/></clipPath><clipPath id="j" clipPathUnits="userSpaceOnUse"><path d="M0 4h18v14H0Z"/></clipPath><clipPath id="k" clipPathUnits="userSpaceOnUse"><path d="M0 0h19v19H0Z"/></clipPath></defs><path d="M8.625 7.125c-2.07 0-3.75 1.68-3.75 3.75v.055a.933.933 0 0 0-.625.882c0 .25.098.489.273.665a.942.942 0 0 0 .844.253 3.744 3.744 0 0 0 3.258 1.895c.863 0 1.66-.293 2.293-.781a.947.947 0 0 0 1.184-.117.942.942 0 0 0-.036-1.36 3.709 3.709 0 0 0 .25-2.152.934.934 0 0 0 .684-.903.94.94 0 0 0-.273-.664.942.942 0 0 0-1.176-.121 3.745 3.745 0 0 0-2.926-1.402Zm0 .625c1.047 0 1.969.512 2.539 1.301a.86.86 0 0 0-.039.261c0 .094.016.192.043.282l-1.086.812a.947.947 0 0 0-1.113.055.957.957 0 0 0-.324.543l-2.625.375a.934.934 0 0 0-.52-.449v-.055A3.124 3.124 0 0 1 8.625 7.75Zm2.918 2.344a.767.767 0 0 0 .125.07 3.102 3.102 0 0 1-.18 1.961h-.05a.942.942 0 0 0-.665.273.94.94 0 0 0-.23.946A3.118 3.118 0 0 1 8.625 14a3.118 3.118 0 0 1-2.719-1.586.917.917 0 0 0 .199-.418l2.629-.375a.895.895 0 0 0 .344.367.942.942 0 0 0 1.149-.136.94.94 0 0 0 .23-.946z" clip-path="url(#k)" opacity=".15" style="fill:#333;fill-opacity:1;fill-rule:nonzero;stroke:none" transform="matrix(1.33333 0 0 1.33333 0 -.002)"/><path d="M12 8.998c-2.76 0-5 2.24-5 5v.074a1.245 1.245 0 0 0-.833 1.177c0 .333.13.65.363.885.235.234.552.364.886.364.078 0 .162-.01.24-.026A4.993 4.993 0 0 0 12 18.998c1.15 0 2.213-.39 3.057-1.04a1.262 1.262 0 0 0 1.579-.157 1.253 1.253 0 0 0-.048-1.813c.266-.61.412-1.282.412-1.99 0-.302-.027-.593-.079-.88.261-.073.495-.229.657-.448a1.256 1.256 0 0 0-.11-1.641 1.253 1.253 0 0 0-1.567-.161A4.993 4.993 0 0 0 12 8.998zm0 .834c1.396 0 2.625.682 3.385 1.734a1.15 1.15 0 0 0-.052.35c0 .124.021.254.057.374l-1.448 1.083a1.256 1.256 0 0 0-1.484.073 1.27 1.27 0 0 0-.432.724l-3.5.5a1.246 1.246 0 0 0-.693-.598v-.074A4.165 4.165 0 0 1 12 9.832zm3.89 3.125c.052.036.11.068.167.093a4.136 4.136 0 0 1-.24 2.615h-.068c-.333 0-.65.13-.885.364a1.256 1.256 0 0 0-.307 1.261 4.169 4.169 0 0 1-6.183-1.24c.136-.156.224-.349.266-.557l3.505-.5c.105.203.261.375.459.49a1.253 1.253 0 0 0 1.532-.181 1.256 1.256 0 0 0 .306-1.262z" style="fill:#2f7dc7;fill-opacity:1;fill-rule:nonzero;stroke:none;stroke-width:1.33333"/></svg>