<svg xmlns="http://www.w3.org/2000/svg" xml:space="preserve" width="24" height="24" fill="none"><rect width="22" height="22" x="1" y="1" fill="url(#a)" opacity=".813" rx="6.6" style="fill:url(#a)"/><rect width="18" height="18" x="3" y="2.25" fill="#777" fill-opacity=".875" opacity=".625" rx="4.4"/><rect width="18" height="18" x="3" y="3" fill="#ccc" rx="4.4"/><path fill="url(#b)" fill-opacity=".875" d="M1 7.508A3.008 3.008 0 0 1 4.008 4.5H8.19c1.075 0 2.117.37 2.95 1.048a4.678 4.678 0 0 0 2.95 1.047h5.902A3.008 3.008 0 0 1 23 9.603V15.5a6.6 6.6 0 0 1-6.6 6.6H7.6A6.6 6.6 0 0 1 1 15.5Z" opacity=".125" style="fill:url(#b)"/><path fill="url(#c)" d="M1 8.408A3.008 3.008 0 0 1 4.008 5.4H8.19c1.075 0 2.117.37 2.95 1.048a4.678 4.678 0 0 0 2.95 1.047h5.902A3.008 3.008 0 0 1 23 10.503V16.4a6.6 6.6 0 0 1-6.6 6.6H7.6A6.6 6.6 0 0 1 1 16.4Z" opacity=".875" style="fill:url(#c)"/><defs><linearGradient id="a" x1="23" x2="1" y1="1" y2="12" gradientUnits="userSpaceOnUse"><stop stop-color="#E3C880"/><stop offset="1" stop-color="#6F5C38"/></linearGradient><linearGradient id="b" x1="23" x2="1.012" y1="9" y2="9.521" gradientUnits="userSpaceOnUse"><stop stop-opacity=".5"/><stop offset="1"/></linearGradient><linearGradient id="c" x1="23" x2="1.429" y1="5.4" y2="23.511" gradientUnits="userSpaceOnUse"><stop stop-color="#FFE795"/><stop offset="1" stop-color="#7A653E"/></linearGradient><clipPath id="d" clipPathUnits="userSpaceOnUse"><path d="M0 0h19v19H0Z"/></clipPath></defs><path d="M4.703 7.875a.504.504 0 0 0-.25.074.457.457 0 0 0-.219.434.424.424 0 0 0 .094.23l1.035 1.379A4.54 4.54 0 0 0 3.75 13c-.023.445.473.445.473.445h8.793s.507 0 .484-.468c-.125-1.184-.723-2.235-1.609-2.989l1.031-1.375a.425.425 0 0 0 .094-.234.452.452 0 0 0-.051-.246.441.441 0 0 0-.18-.188.476.476 0 0 0-.254-.07.565.565 0 0 0-.226.051.463.463 0 0 0-.176.148l-1.031 1.371a5.1 5.1 0 0 0-2.473-.636 5.1 5.1 0 0 0-2.473.636L5.121 8.074a.508.508 0 0 0-.418-.199Zm1.973 2.789c.129 0 .254.047.344.137a.458.458 0 0 1 .144.328.473.473 0 0 1-.488.461.499.499 0 0 1-.344-.133.452.452 0 0 1-.144-.328.44.44 0 0 1 .144-.328.485.485 0 0 1 .344-.137zm3.898 0c.129 0 .254.047.344.137a.44.44 0 0 1 .144.328c0 .121-.05.238-.144.328a.499.499 0 0 1-.344.133.473.473 0 0 1-.488-.461c0-.125.055-.242.144-.328a.485.485 0 0 1 .344-.137z" clip-path="url(#d)" opacity=".15" style="fill:#1a1a1a;fill-opacity:1;fill-rule:nonzero;stroke:none" transform="matrix(1.33333 0 0 1.33333 .005 .005)"/><path d="M6.775 10.005a.671.671 0 0 0-.333.099.666.666 0 0 0-.23.25.609.609 0 0 0-.062.328c.01.11.052.22.125.307l1.38 1.839c-1.192 1.005-1.989 2.422-2.15 4.01-.03.594.63.594.63.594H17.86s.676 0 .646-.624c-.167-1.579-.964-2.98-2.146-3.986l1.375-1.833a.566.566 0 0 0 .125-.312.603.603 0 0 0-.068-.328.588.588 0 0 0-.24-.25.635.635 0 0 0-.338-.094.754.754 0 0 0-.302.068.617.617 0 0 0-.234.197l-1.375 1.828a6.8 6.8 0 0 0-3.297-.848 6.8 6.8 0 0 0-3.298.848L7.333 10.27a.678.678 0 0 0-.558-.265zm2.631 3.719c.172 0 .339.062.459.182.118.115.192.271.192.438a.63.63 0 0 1-.192.437.665.665 0 0 1-.459.177.665.665 0 0 1-.459-.177.605.605 0 0 1-.193-.437c0-.167.068-.323.193-.438a.646.646 0 0 1 .46-.182zm5.197 0c.172 0 .34.062.46.182.124.115.192.271.192.438a.605.605 0 0 1-.193.437.665.665 0 0 1-.459.177.665.665 0 0 1-.458-.177.63.63 0 0 1-.192-.437c0-.167.073-.323.192-.438a.646.646 0 0 1 .458-.182z" style="fill:#98c425;fill-opacity:1;fill-rule:nonzero;stroke:none;stroke-width:1.33333"/></svg>