<svg xmlns="http://www.w3.org/2000/svg" xmlns:xlink="http://www.w3.org/1999/xlink" xml:space="preserve" width="24" height="24" fill="none"><rect width="22" height="22" x="1" y="1" fill="url(#a)" opacity=".813" rx="6.6"/><rect width="18" height="18" x="3" y="2.25" fill="url(#b)" fill-opacity=".875" opacity=".125" rx="4.4"/><rect width="17.5" height="17.5" x="3.25" y="3.25" fill="#CCC" stroke="url(#c)" stroke-width=".5" rx="4.15"/><path fill="url(#d)" fill-opacity=".875" d="M1 7.508A3.008 3.008 0 0 1 4.008 4.5H8.19c1.075 0 2.117.37 2.95 1.048a4.678 4.678 0 0 0 2.95 1.047h5.902A3.008 3.008 0 0 1 23 9.603V15.5a6.6 6.6 0 0 1-6.6 6.6H7.6A6.6 6.6 0 0 1 1 15.5V7.508Z" opacity=".125"/><g opacity=".875"><path fill="url(#e)" d="M1 8.408A3.008 3.008 0 0 1 4.008 5.4H8.19c1.075 0 2.117.37 2.95 1.048a4.678 4.678 0 0 0 2.95 1.047h5.902A3.008 3.008 0 0 1 23 10.503V16.4a6.6 6.6 0 0 1-6.6 6.6H7.6A6.6 6.6 0 0 1 1 16.4V8.408Z"/><path stroke="url(#f)" stroke-linejoin="round" stroke-opacity=".375" stroke-width=".75" d="M22.625 10.503V16.4a6.225 6.225 0 0 1-6.225 6.225H7.6A6.225 6.225 0 0 1 1.375 16.4V8.408a2.633 2.633 0 0 1 2.633-2.633H8.19c.989 0 1.947.34 2.714.964a5.053 5.053 0 0 0 3.187 1.131h5.901a2.633 2.633 0 0 1 2.633 2.633Z"/></g><defs><linearGradient id="a" x1="23" x2="1" y1="1" y2="12" gradientUnits="userSpaceOnUse"><stop stop-color="#E3C880"/><stop offset="1" stop-color="#6F5C38"/></linearGradient><linearGradient id="b" x1="21" x2="3" y1="4" y2="4" gradientUnits="userSpaceOnUse"><stop stop-opacity=".5"/><stop offset=".89"/><stop offset="1" stop-opacity="0"/></linearGradient><linearGradient id="c" x1="12" x2="11.5" y1="3" y2="8" gradientUnits="userSpaceOnUse"><stop stop-color="#DDD"/><stop offset="1" stop-color="#CCC" stop-opacity="0"/></linearGradient><linearGradient id="d" x1="23" x2="1.012" y1="9" y2="9.521" gradientUnits="userSpaceOnUse"><stop stop-opacity=".5"/><stop offset="1"/></linearGradient><linearGradient id="e" x1="23" x2="1.429" y1="5.4" y2="23.512" gradientUnits="userSpaceOnUse"><stop stop-color="#FFE795"/><stop offset="1" stop-color="#7A653E"/></linearGradient><linearGradient id="f" x1="15" x2="5.5" y1="5.5" y2="19.5" gradientUnits="userSpaceOnUse"><stop stop-color="#FFE795"/><stop offset="1" stop-color="#7A653E"/></linearGradient><linearGradient id="g" x1="164.16" x2="285.89" y1="95.23" y2="95.23" gradientTransform="matrix(.02885 0 0 .02885 5.509 7.941)" gradientUnits="userSpaceOnUse"><stop offset="0" stop-color="#13bccd"/><stop offset="1" stop-color="#2e87c8"/></linearGradient><radialGradient xlink:href="#g" id="h" cx="12.858" cy="9.956" r="1.756" fx="12.858" fy="9.956" gradientUnits="userSpaceOnUse"/></defs><path d="M11.454 9.2a1.756 1.756 0 0 0-1.756 1.754 1.756 1.756 0 0 0 1.37 1.709v.058L6.1 15.184v2.346l5.354 2.67 5.355-2.682v-2.312l-4.97-2.49v-.053a1.756 1.756 0 0 0 1.37-1.71A1.756 1.756 0 0 0 11.454 9.2Z" class="cls-2" style="opacity:.15;fill:#1a1a1a;stroke-width:.0288472"/><path d="M225.31 335.51 39.43 241.84l185.88-92.12 185.32 92.9z" class="cls-2" style="fill:#2b91c9" transform="matrix(.02885 0 0 .02885 5.509 7.941)"/><path d="M225.31 364.42 39.43 269.6v-27.76l185.88 93.67 185.32-92.89v27.75z" class="cls-3" style="fill:#02679a" transform="matrix(.02885 0 0 .02885 5.509 7.941)"/><path d="M39.43 323.18V269.6l185.88 94.82 185.32-94.05v52.42l-185.6 92.9z" class="cls-4" style="fill:#37474f" transform="matrix(.02885 0 0 .02885 5.509 7.941)"/><ellipse cx="12" cy="14.882" class="cls-5" rx="1.892" ry="1.008" style="fill:#2a2c2b;stroke-width:.023316"/><path d="M12.385 11.817h-.77v3.123h.002c.021.112.183.2.379.2s.357-.087.378-.2h.011z" class="cls-6" style="fill:#afbec3;stroke-width:.0288472"/><ellipse cx="8.522" cy="15.008" class="cls-7" rx=".788" ry=".38" style="fill:#b11f24;stroke-width:.0288472"/><path d="M7.733 14.584H9.31v.425H7.733z" class="cls-7" style="fill:#b11f24;stroke-width:.0288472"/><ellipse cx="8.522" cy="14.593" class="cls-8" rx=".788" ry=".38" style="fill:#e81e28;stroke-width:.0288472"/><circle cx="12" cy="10.688" r="1.756" class="cls-9" style="fill:url(#h);stroke-width:.0288472"/></svg>