<svg xmlns="http://www.w3.org/2000/svg" xml:space="preserve" width="24" height="24" fill="none"><rect width="22" height="22" x="1" y="1" fill="url(#a)" opacity=".813" rx="6.6" style="fill:url(#a)"/><rect width="18" height="18" x="3" y="2.25" fill="url(#b)" fill-opacity=".875" opacity=".125" rx="4.4" style="fill:url(#b)"/><rect width="17.5" height="17.5" x="3.25" y="3.25" fill="#ccc" stroke="url(#c)" stroke-width=".5" rx="4.15" style="stroke:url(#c)"/><path fill="url(#d)" fill-opacity=".875" d="M1 7.508A3.008 3.008 0 0 1 4.008 4.5H8.19c1.075 0 2.117.37 2.95 1.048a4.678 4.678 0 0 0 2.95 1.047h5.902A3.008 3.008 0 0 1 23 9.603V15.5a6.6 6.6 0 0 1-6.6 6.6H7.6A6.6 6.6 0 0 1 1 15.5Z" opacity=".125" style="fill:url(#d)"/><g opacity=".875"><path fill="url(#e)" d="M1 8.408A3.008 3.008 0 0 1 4.008 5.4H8.19c1.075 0 2.117.37 2.95 1.048a4.678 4.678 0 0 0 2.95 1.047h5.902A3.008 3.008 0 0 1 23 10.503V16.4a6.6 6.6 0 0 1-6.6 6.6H7.6A6.6 6.6 0 0 1 1 16.4Z" style="fill:url(#e)"/><path stroke="url(#f)" stroke-linejoin="round" stroke-opacity=".375" stroke-width=".75" d="M22.625 10.503V16.4a6.225 6.225 0 0 1-6.225 6.225H7.6A6.225 6.225 0 0 1 1.375 16.4V8.408a2.633 2.633 0 0 1 2.633-2.633H8.19c.989 0 1.947.34 2.714.964a5.053 5.053 0 0 0 3.187 1.131h5.901a2.633 2.633 0 0 1 2.633 2.633z" style="stroke:url(#f)"/></g><defs><linearGradient id="a" x1="23" x2="1" y1="1" y2="12" gradientUnits="userSpaceOnUse"><stop stop-color="#E3C880"/><stop offset="1" stop-color="#6F5C38"/></linearGradient><linearGradient id="b" x1="21" x2="3" y1="4" y2="4" gradientUnits="userSpaceOnUse"><stop stop-opacity=".5"/><stop offset=".89"/><stop offset="1" stop-opacity="0"/></linearGradient><linearGradient id="c" x1="12" x2="11.5" y1="3" y2="8" gradientUnits="userSpaceOnUse"><stop stop-color="#DDD"/><stop offset="1" stop-color="#CCC" stop-opacity="0"/></linearGradient><linearGradient id="d" x1="23" x2="1.012" y1="9" y2="9.521" gradientUnits="userSpaceOnUse"><stop stop-opacity=".5"/><stop offset="1"/></linearGradient><linearGradient id="e" x1="23" x2="1.429" y1="5.4" y2="23.511" gradientUnits="userSpaceOnUse"><stop stop-color="#FFE795"/><stop offset="1" stop-color="#7A653E"/></linearGradient><linearGradient id="f" x1="15" x2="5.5" y1="5.5" y2="19.5" gradientUnits="userSpaceOnUse"><stop stop-color="#FFE795"/><stop offset="1" stop-color="#7A653E"/></linearGradient><linearGradient id="g" x1="12" x2="11.5" y1="3" y2="8" gradientTransform="matrix(.75 0 0 -.75 0 18)" gradientUnits="userSpaceOnUse" spreadMethod="pad"><stop offset="0" style="stop-opacity:1;stop-color:#fff"/><stop offset="1" style="stop-opacity:0;stop-color:#fff"/></linearGradient><linearGradient id="i" x1="15" x2="5.5" y1="5.5" y2="19.5" gradientTransform="matrix(.75 0 0 -.75 0 18)" gradientUnits="userSpaceOnUse" spreadMethod="pad"><stop offset="0" style="stop-opacity:.37500572;stop-color:#fff"/><stop offset="1" style="stop-opacity:.37500572;stop-color:#fff"/></linearGradient><clipPath id="h" clipPathUnits="userSpaceOnUse"><path d="M1 1h16v16H1Z"/></clipPath><clipPath id="j" clipPathUnits="userSpaceOnUse"><path d="M0 4h18v14H0Z"/></clipPath><clipPath id="k" clipPathUnits="userSpaceOnUse"><path d="M0 0h19v19H0Z"/></clipPath></defs><path d="M8.461 7.125A4.039 4.039 0 0 0 5.66 8.242a3.728 3.728 0 0 0-1.16 2.692 3.74 3.74 0 0 0 1.16 2.691 4.039 4.039 0 0 0 2.801 1.117h4.289v-.637H8.461a3.383 3.383 0 0 1-2.336-.929 3.117 3.117 0 0 1-.965-2.242c0-.844.348-1.649.965-2.246a3.384 3.384 0 0 1 2.336-.93Zm0 .953c-1.641 0-2.973 1.277-2.973 2.856 0 1.578 1.332 2.855 2.973 2.855h4.289v-.637H8.461c-1.277 0-2.313-.992-2.313-2.218 0-1.227 1.036-2.223 2.313-2.223.34 0 .68.074.988.219v-.688a3.038 3.038 0 0 0-.988-.164Zm0 .949c-.527 0-1.031.203-1.402.559a1.877 1.877 0 0 0-.579 1.348c0 .504.208.988.579 1.343.371.36.875.559 1.402.559h4.289v-.633H8.461a1.36 1.36 0 0 1-.934-.371 1.237 1.237 0 0 1 0-1.797c.246-.238.582-.371.934-.371a1.32 1.32 0 0 1 1.141.633h.722a1.911 1.911 0 0 0-.722-.918 2.067 2.067 0 0 0-1.141-.352Z" clip-path="url(#k)" opacity=".15" style="fill:#1a1a1a;fill-opacity:1;fill-rule:nonzero;stroke:none" transform="matrix(1.33333 0 0 1.33333 -.003 .001)"/><path d="M11.778 9.001a5.385 5.385 0 0 0-3.735 1.49 4.97 4.97 0 0 0-1.546 3.589c0 1.343.557 2.635 1.546 3.588a5.385 5.385 0 0 0 3.735 1.49h5.719v-.85h-5.719a4.51 4.51 0 0 1-3.115-1.239 4.156 4.156 0 0 1-1.286-2.99c0-1.124.464-2.198 1.286-2.995a4.517 4.517 0 0 1 3.115-1.239zm0 1.27c-2.188 0-3.964 1.704-3.964 3.809 0 2.104 1.776 3.807 3.964 3.807h5.719v-.85h-5.719c-1.703 0-3.084-1.322-3.084-2.957 0-1.636 1.381-2.964 3.084-2.964.453 0 .907.099 1.317.292v-.917a4.051 4.051 0 0 0-1.317-.22zm0 1.266c-.703 0-1.375.27-1.87.746a2.497 2.497 0 0 0-.771 1.797c0 .67.276 1.317.772 1.79a2.68 2.68 0 0 0 1.87.746h5.718v-.844h-5.719c-.47 0-.917-.183-1.245-.495a1.65 1.65 0 0 1 0-2.396 1.79 1.79 0 0 1 1.245-.494c.307 0 .61.078.875.224.27.15.49.364.646.62h.963a2.556 2.556 0 0 0-.963-1.224 2.756 2.756 0 0 0-1.52-.47z" style="fill:#6fa54a;fill-opacity:1;fill-rule:nonzero;stroke:none;stroke-width:1.33333"/></svg>