<?xml version="1.0" encoding="UTF-8" standalone="no"?>
<svg
   width="24"
   height="24"
   fill="none"
   version="1.1"
   id="svg19"
   sodipodi:docname="brown-folder-mega.svg"
   inkscape:export-filename="brown-folder-mega.pdf"
   inkscape:export-xdpi="96"
   inkscape:export-ydpi="96"
   xml:space="preserve"
   inkscape:version="1.3 (0e150ed6c4, 2023-07-21)"
   xmlns:inkscape="http://www.inkscape.org/namespaces/inkscape"
   xmlns:sodipodi="http://sodipodi.sourceforge.net/DTD/sodipodi-0.dtd"
   xmlns="http://www.w3.org/2000/svg"
   xmlns:svg="http://www.w3.org/2000/svg"><sodipodi:namedview
     id="namedview19"
     pagecolor="#ffffff"
     bordercolor="#000000"
     borderopacity="0.25"
     inkscape:showpageshadow="2"
     inkscape:pageopacity="0.0"
     inkscape:pagecheckerboard="0"
     inkscape:deskcolor="#d1d1d1"
     inkscape:zoom="16.985294"
     inkscape:cx="-2.9142857"
     inkscape:cy="4.3861472"
     inkscape:window-width="3440"
     inkscape:window-height="1358"
     inkscape:window-x="2560"
     inkscape:window-y="0"
     inkscape:window-maximized="1"
     inkscape:current-layer="g1"><inkscape:page
       x="0"
       y="0"
       width="24"
       height="24"
       id="page19"
       margin="0"
       bleed="0" /></sodipodi:namedview><rect
     width="22"
     height="22"
     x="1"
     y="1"
     fill="url(#a)"
     opacity="0.813"
     rx="6.5999999"
     id="rect1"
     style="fill:url(#a)" /><rect
     width="18"
     height="18"
     x="3"
     y="2.25"
     fill="url(#b)"
     fill-opacity="0.875"
     opacity="0.125"
     rx="4.4000001"
     id="rect2"
     style="fill:url(#b)" /><rect
     width="17.5"
     height="17.5"
     x="3.25"
     y="3.25"
     fill="#cccccc"
     stroke="url(#c)"
     stroke-width="0.5"
     rx="4.1500001"
     id="rect3"
     style="stroke:url(#c)" /><path
     fill="url(#d)"
     fill-opacity="0.875"
     d="M 1,7.508 A 3.008,3.008 0 0 1 4.008,4.5 H 8.19 c 1.075,0 2.117,0.37 2.95,1.048 a 4.678,4.678 0 0 0 2.95,1.047 h 5.902 A 3.008,3.008 0 0 1 23,9.603 V 15.5 a 6.6,6.6 0 0 1 -6.6,6.6 H 7.6 A 6.6,6.6 0 0 1 1,15.5 Z"
     opacity="0.125"
     id="path3"
     style="fill:url(#d)" /><g
     opacity="0.875"
     id="g5"><path
       fill="url(#e)"
       d="M 1,8.408 A 3.008,3.008 0 0 1 4.008,5.4 H 8.19 c 1.075,0 2.117,0.37 2.95,1.048 a 4.678,4.678 0 0 0 2.95,1.047 h 5.902 A 3.008,3.008 0 0 1 23,10.503 V 16.4 A 6.6,6.6 0 0 1 16.4,23 H 7.6 A 6.6,6.6 0 0 1 1,16.4 Z"
       id="path4"
       style="fill:url(#e)" /><path
       stroke="url(#f)"
       stroke-linejoin="round"
       stroke-opacity="0.375"
       stroke-width="0.75"
       d="M 22.625,10.503 V 16.4 A 6.225,6.225 0 0 1 16.4,22.625 H 7.6 A 6.225,6.225 0 0 1 1.375,16.4 V 8.408 A 2.633,2.633 0 0 1 4.008,5.775 H 8.19 c 0.989,0 1.947,0.34 2.714,0.964 a 5.053,5.053 0 0 0 3.187,1.131 h 5.901 a 2.633,2.633 0 0 1 2.633,2.633 z"
       id="path5"
       style="stroke:url(#f)" /></g><defs
     id="defs19"><linearGradient
       id="a"
       x1="23"
       x2="1"
       y1="1"
       y2="12"
       gradientUnits="userSpaceOnUse"><stop
         stop-color="#E3C880"
         id="stop7" /><stop
         offset="1"
         stop-color="#6F5C38"
         id="stop8" /></linearGradient><linearGradient
       id="b"
       x1="21"
       x2="3"
       y1="4"
       y2="4"
       gradientUnits="userSpaceOnUse"><stop
         stop-opacity=".5"
         id="stop9" /><stop
         offset=".89"
         id="stop10" /><stop
         offset="1"
         stop-opacity="0"
         id="stop11" /></linearGradient><linearGradient
       id="c"
       x1="12"
       x2="11.5"
       y1="3"
       y2="8"
       gradientUnits="userSpaceOnUse"><stop
         stop-color="#DDD"
         id="stop12" /><stop
         offset="1"
         stop-color="#CCC"
         stop-opacity="0"
         id="stop13" /></linearGradient><linearGradient
       id="d"
       x1="23"
       x2="1.012"
       y1="9"
       y2="9.5209999"
       gradientUnits="userSpaceOnUse"><stop
         stop-opacity=".5"
         id="stop14" /><stop
         offset="1"
         id="stop15" /></linearGradient><linearGradient
       id="e"
       x1="23"
       x2="1.429"
       y1="5.4000001"
       y2="23.511999"
       gradientUnits="userSpaceOnUse"><stop
         stop-color="#FFE795"
         id="stop16" /><stop
         offset="1"
         stop-color="#7A653E"
         id="stop17" /></linearGradient><linearGradient
       id="f"
       x1="15"
       x2="5.5"
       y1="5.5"
       y2="19.5"
       gradientUnits="userSpaceOnUse"><stop
         stop-color="#FFE795"
         id="stop18" /><stop
         offset="1"
         stop-color="#7A653E"
         id="stop19" /></linearGradient><linearGradient
       x1="23"
       y1="1"
       x2="1"
       y2="12"
       gradientUnits="userSpaceOnUse"
       gradientTransform="scale(0.75)"
       spreadMethod="pad"
       id="linearGradient2"><stop
         style="stop-opacity:1;stop-color:#e3c880"
         offset="0"
         id="stop1" /><stop
         style="stop-opacity:1;stop-color:#6f5c38"
         offset="1"
         id="stop2" /></linearGradient><linearGradient
       x1="21"
       y1="4"
       x2="3"
       y2="4"
       gradientUnits="userSpaceOnUse"
       gradientTransform="scale(0.75)"
       spreadMethod="pad"
       id="linearGradient8"><stop
         style="stop-opacity:0.43750668;stop-color:#000000"
         offset="0"
         id="stop6" /><stop
         style="stop-opacity:0.87501335;stop-color:#000000"
         offset="0.89"
         id="stop7-3" /><stop
         style="stop-opacity:0;stop-color:#000000"
         offset="1"
         id="stop8-6" /></linearGradient><clipPath
       clipPathUnits="userSpaceOnUse"
       id="clipPath8"><path
         d="M 0,0 H 19 V 19 H 0 Z"
         id="path8" /></clipPath><mask
       maskUnits="userSpaceOnUse"
       x="0"
       y="0"
       width="1"
       height="1"
       id="mask10"><path
         id="path11"
         d="M 0,0 H 18 V 18 H 0 Z"
         style="fill:url(#linearGradient12);fill-opacity:1;fill-rule:nonzero;stroke:none"
         transform="scale(1.3333333)"
         clip-path="url(#clipPath12)" /></mask><linearGradient
       x1="12"
       y1="3"
       x2="11.5"
       y2="8"
       gradientUnits="userSpaceOnUse"
       gradientTransform="matrix(0.75,0,0,-0.75,0,18)"
       spreadMethod="pad"
       id="linearGradient12"><stop
         style="stop-opacity:1;stop-color:#ffffff"
         offset="0"
         id="stop11-7" /><stop
         style="stop-opacity:0;stop-color:#ffffff"
         offset="1"
         id="stop12-5" /></linearGradient><clipPath
       clipPathUnits="userSpaceOnUse"
       id="clipPath12"><path
         d="M 1,1 H 17 V 17 H 1 Z"
         id="path12" /></clipPath><linearGradient
       x1="12"
       y1="3"
       x2="11.5"
       y2="8"
       gradientUnits="userSpaceOnUse"
       gradientTransform="matrix(0.75,0,0,-0.75,0,18)"
       spreadMethod="pad"
       id="linearGradient14"><stop
         style="stop-opacity:1;stop-color:#dddddd"
         offset="0"
         id="stop13-3" /><stop
         style="stop-opacity:1;stop-color:#cccccc"
         offset="1"
         id="stop14-5" /></linearGradient><clipPath
       clipPathUnits="userSpaceOnUse"
       id="clipPath14"><path
         d="M 1,1 H 17 V 17 H 1 Z"
         id="path14" /></clipPath><linearGradient
       x1="23"
       y1="9"
       x2="1.012"
       y2="9.5209999"
       gradientUnits="userSpaceOnUse"
       gradientTransform="scale(0.75)"
       spreadMethod="pad"
       id="linearGradient18"><stop
         style="stop-opacity:0.43750668;stop-color:#000000"
         offset="0"
         id="stop17-6" /><stop
         style="stop-opacity:0.87501335;stop-color:#000000"
         offset="1"
         id="stop18-2" /></linearGradient><clipPath
       clipPathUnits="userSpaceOnUse"
       id="clipPath18"><path
         d="M 0,0 H 19 V 19 H 0 Z"
         id="path18" /></clipPath><linearGradient
       x1="23"
       y1="5.4000001"
       x2="1.429"
       y2="23.511999"
       gradientUnits="userSpaceOnUse"
       gradientTransform="scale(0.75)"
       spreadMethod="pad"
       id="linearGradient20"><stop
         style="stop-opacity:1;stop-color:#ffe795"
         offset="0"
         id="stop19-9" /><stop
         style="stop-opacity:1;stop-color:#7a653e"
         offset="1"
         id="stop20" /></linearGradient><mask
       maskUnits="userSpaceOnUse"
       x="0"
       y="0"
       width="1"
       height="1"
       id="mask20"><path
         id="path20"
         d="M 0,0 H 18 V 18 H 0 Z"
         style="fill:url(#linearGradient22);fill-opacity:1;fill-rule:nonzero;stroke:none"
         transform="scale(1.3333333)"
         clip-path="url(#clipPath22)" /></mask><linearGradient
       x1="15"
       y1="5.5"
       x2="5.5"
       y2="19.5"
       gradientUnits="userSpaceOnUse"
       gradientTransform="matrix(0.75,0,0,-0.75,0,18)"
       spreadMethod="pad"
       id="linearGradient22"><stop
         style="stop-opacity:0.37500572;stop-color:#ffffff"
         offset="0"
         id="stop21" /><stop
         style="stop-opacity:0.37500572;stop-color:#ffffff"
         offset="1"
         id="stop22" /></linearGradient><clipPath
       clipPathUnits="userSpaceOnUse"
       id="clipPath22"><path
         d="M 0,4 H 18 V 18 H 0 Z"
         id="path22" /></clipPath><linearGradient
       x1="15"
       y1="5.5"
       x2="5.5"
       y2="19.5"
       gradientUnits="userSpaceOnUse"
       gradientTransform="matrix(0.75,0,0,-0.75,0,18)"
       spreadMethod="pad"
       id="linearGradient24"><stop
         style="stop-opacity:1;stop-color:#ffe795"
         offset="0"
         id="stop23" /><stop
         style="stop-opacity:1;stop-color:#7a653e"
         offset="1"
         id="stop24" /></linearGradient><clipPath
       clipPathUnits="userSpaceOnUse"
       id="clipPath24"><path
         d="M 0,4 H 18 V 18 H 0 Z"
         id="path24" /></clipPath><clipPath
       clipPathUnits="userSpaceOnUse"
       id="clipPath25"><path
         d="M 0,0 H 19 V 19 H 0 Z"
         transform="scale(1.3333333)"
         id="path25" /></clipPath><clipPath
       clipPathUnits="userSpaceOnUse"
       id="clipPath28"><path
         d="M 0,0 H 19 V 19 H 0 Z"
         id="path28" /></clipPath></defs><g
     id="g1"
     inkscape:groupmode="layer"
     inkscape:label="1"
     transform="translate(34)"><g
       id="g20"
       transform="translate(26.25)"><g
         opacity="0.15"
         id="g29"
         transform="translate(-60)"><path
           d="M 8.625,6.945 C 6.348,6.945 4.5,8.793 4.5,11.07 c 0,2.282 1.848,4.125 4.125,4.125 5.5,0 5.5,-8.25 0,-8.25 z M 6.562,9.008 H 7.938 L 8.625,9.699 9.312,9.008 h 1.376 v 4.125 H 9.312 V 11.07 L 8.625,11.762 7.938,11.07 v 2.063 H 6.562 Z"
           style="fill:#1a1a1a;fill-opacity:1;fill-rule:nonzero;stroke:none"
           transform="scale(1.3333333)"
           clip-path="url(#clipPath28)"
           id="path29" /></g><path
         id="path30"
         d="m -48,8.7599998 c -3.036,0 -5.5,2.4640002 -5.5,5.5000002 0,3.042666 2.464,5.5 5.5,5.5 7.333333,0 7.333333,-11.0000002 0,-11.0000002 z m -2.749334,2.7506662 h 1.832 L -48,12.432 l 0.917333,-0.921334 h 1.832 v 5.5 h -1.832 V 14.26 L -48,15.182666 -48.917334,14.26 v 2.750666 h -1.832 z"
         style="fill:#b60b19;fill-opacity:1;fill-rule:nonzero;stroke:none;stroke-width:1.33333" /></g></g></svg>
