<svg xmlns="http://www.w3.org/2000/svg" xml:space="preserve" id="svg20" width="24" height="24" fill="none" version="1.1"><rect id="rect1" width="22" height="22" x="1" y="1" fill="url(#paint0_linear_207_267)" opacity=".813" rx="6.6"/><rect id="rect2" width="18" height="18" x="3" y="2.25" fill="url(#paint1_linear_207_267)" fill-opacity=".875" opacity=".125" rx="4.4"/><rect id="rect3" width="17.5" height="17.5" x="3.25" y="3.25" fill="#CCC" stroke="url(#paint2_linear_207_267)" stroke-width=".5" rx="4.15"/><path id="path3" fill="url(#paint3_linear_207_267)" fill-opacity=".875" d="M1 7.508A3.008 3.008 0 0 1 4.008 4.5H8.19c1.075 0 2.117.37 2.95 1.048a4.678 4.678 0 0 0 2.95 1.047h5.902A3.008 3.008 0 0 1 23 9.603V15.5a6.6 6.6 0 0 1-6.6 6.6H7.6A6.6 6.6 0 0 1 1 15.5V7.508Z" opacity=".125"/><g id="g5" opacity=".875"><path id="path4" fill="url(#paint4_linear_207_267)" d="M1 8.408A3.008 3.008 0 0 1 4.008 5.4H8.19c1.075 0 2.117.37 2.95 1.048a4.678 4.678 0 0 0 2.95 1.047h5.902A3.008 3.008 0 0 1 23 10.503V16.4a6.6 6.6 0 0 1-6.6 6.6H7.6A6.6 6.6 0 0 1 1 16.4V8.408Z"/><path id="path5" stroke="url(#paint5_linear_207_267)" stroke-linejoin="round" stroke-opacity=".375" stroke-width=".75" d="M22.625 10.503V16.4a6.225 6.225 0 0 1-6.225 6.225H7.6A6.225 6.225 0 0 1 1.375 16.4V8.408a2.633 2.633 0 0 1 2.633-2.633H8.19c.989 0 1.947.34 2.714.964a5.053 5.053 0 0 0 3.187 1.131h5.901a2.633 2.633 0 0 1 2.633 2.633Z"/></g><defs id="defs20"><linearGradient id="paint0_linear_207_267" x1="23" x2="1" y1="1" y2="12" gradientUnits="userSpaceOnUse"><stop id="stop8" stop-color="#E3C880"/><stop id="stop9" offset="1" stop-color="#6F5C38"/></linearGradient><linearGradient id="paint1_linear_207_267" x1="21" x2="3" y1="4" y2="4" gradientUnits="userSpaceOnUse"><stop id="stop10" stop-opacity=".5"/><stop id="stop11" offset=".89"/><stop id="stop12" offset="1" stop-opacity="0"/></linearGradient><linearGradient id="paint2_linear_207_267" x1="12" x2="11.5" y1="3" y2="8" gradientUnits="userSpaceOnUse"><stop id="stop13" stop-color="#DDD"/><stop id="stop14" offset="1" stop-color="#CCC" stop-opacity="0"/></linearGradient><linearGradient id="paint3_linear_207_267" x1="23" x2="1.012" y1="9" y2="9.521" gradientUnits="userSpaceOnUse"><stop id="stop15" stop-opacity=".5"/><stop id="stop16" offset="1"/></linearGradient><linearGradient id="paint4_linear_207_267" x1="23" x2="1.429" y1="5.4" y2="23.512" gradientUnits="userSpaceOnUse"><stop id="stop17" stop-color="#FFE795"/><stop id="stop18" offset="1" stop-color="#7A653E"/></linearGradient><linearGradient id="paint5_linear_207_267" x1="15" x2="5.5" y1="5.5" y2="19.5" gradientUnits="userSpaceOnUse"><stop id="stop19" stop-color="#FFE795"/><stop id="stop20" offset="1" stop-color="#7A653E"/></linearGradient><radialGradient id="paint0_radial_29_23" cx="0" cy="0" r="1" gradientTransform="matrix(0 22 -22 0 12 1)" gradientUnits="userSpaceOnUse"><stop id="stop11537" stop-color="#8FC8FF"/><stop id="stop11539" offset="1" stop-color="#0056A8" style="stop-color:#069;stop-opacity:1"/></radialGradient><radialGradient id="paint0_radial_1_40" cx="0" cy="0" r="1" gradientTransform="matrix(0 24 -24 0 -2.29 44.737)" gradientUnits="userSpaceOnUse"><stop id="stop11601" stop-color="#C2E5FF"/><stop id="stop11603" offset="1" stop-color="#3276AA"/></radialGradient><radialGradient id="radialGradient16463" cx="0" cy="0" r="1" fx="0" fy="0" gradientTransform="matrix(0 16.5 -16.5 0 9 .75)" gradientUnits="userSpaceOnUse" spreadMethod="pad"><stop id="stop16459" offset="0" style="stop-opacity:1;stop-color:#8fc8ff"/><stop id="stop16461" offset="1" style="stop-opacity:1;stop-color:#069"/></radialGradient><radialGradient id="radialGradient16463-5" cx="0" cy="0" r="1" fx="0" fy="0" gradientTransform="matrix(0 16.5 -16.5 0 9 .75)" gradientUnits="userSpaceOnUse" spreadMethod="pad"><stop id="stop16459-9" offset="0" style="stop-opacity:1;stop-color:#8fc8ff"/><stop id="stop16461-4" offset="1" style="stop-opacity:1;stop-color:#069"/></radialGradient><clipPath id="clipPath16473" clipPathUnits="userSpaceOnUse"><path id="path16471" d="M0 0h151v116H0Z"/></clipPath><clipPath id="clipPath16473-9" clipPathUnits="userSpaceOnUse"><path id="path16471-0" d="M0 0h151v116H0Z"/></clipPath><style id="style11382">.cls-1{fill:#069}.cls-2{fill:#2991c9}.cls-3{fill:#fff}.cls-4{fill:#002a44}.cls-5{fill:#3380cc}.cls-6{fill:#cc5e55}</style></defs><path id="path20" d="M12.54 9.558a.5.5 0 1 0-.043.998 4.509 4.509 0 0 0-4.656 3.967l-.134-.135-.035-.037a.515.515 0 0 0-.165-.11h-.002a.493.493 0 0 0-.54.111L5.36 15.954a.501.501 0 0 0 .707.709l.797-.797a5.502 5.502 0 0 0 4.012 4.502 5.5 5.5 0 0 0 4.558-.791l.01-.008c.056-.039.11-.078.164-.119l.016-.012.025-.02c.05-.038.1-.076.149-.116l.066-.057.08-.068c.054-.048.108-.097.16-.147l.022-.021.134-.133.02-.022c.044-.046.087-.093.129-.14l.017-.02a5.58 5.58 0 0 0 .127-.148l.014-.018c.042-.051.083-.103.123-.156l.01-.014.033-.047c.045-.06.089-.122.131-.185.027-.04.056-.08.082-.121v-.002a5.56 5.56 0 0 0 .486-.953 5.505 5.505 0 0 0 .188-3.42h.002a5.511 5.511 0 0 0-5.08-4.073ZM7.905 16l.006.006a4.486 4.486 0 0 0 .55 1.388A4.48 4.48 0 0 1 7.905 16Z" style="opacity:.15;fill:#1a1a1a;fill-opacity:1;fill-rule:nonzero;stroke:none;stroke-width:1.52988"/><g id="g20" transform="matrix(.6919 0 0 .6919 28.412 7.583)"><path id="path16483" d="M-16.046 10.086a6.516 6.516 0 0 1-6.512 6.512 6.516 6.516 0 0 1-6.512-6.512 6.516 6.516 0 0 1 6.512-6.512 6.516 6.516 0 0 1 6.512 6.512z" style="fill:#cc5e55;fill-opacity:1;fill-rule:nonzero;stroke:none;stroke-width:2.21114"/><path id="path16485" d="M-22.689 6.287c.2 0 .363.164.363.363v3.385a.364.364 0 0 1-.363.363.366.366 0 0 1-.362-.363V6.65c0-.2.166-.363.362-.363z" style="fill:#fff;fill-opacity:1;fill-rule:nonzero;stroke:none;stroke-width:2.21114"/><path id="path16487" d="M-22.885 9.845a.347.347 0 0 1 .508 0l2.393 2.392a.35.35 0 0 1 0 .51.347.347 0 0 1-.509 0l-2.392-2.393a.362.362 0 0 1 0-.509z" style="fill:#fff;fill-opacity:1;fill-rule:nonzero;stroke:none;stroke-width:2.21114"/><path id="path16489" d="M-28.777 15.054a7.942 7.942 0 0 1-1.74-4.63.724.724 0 0 1 1.448-.063 6.5 6.5 0 0 0 11.98 3.213.725.725 0 0 1 1-.224.72.72 0 0 1 .224.995 7.953 7.953 0 0 1-8.772 3.417 7.957 7.957 0 0 1-4.14-2.708z" style="fill:#fafafa;fill-opacity:1;fill-rule:nonzero;stroke:none;stroke-width:1.33333"/><path id="path16491" d="M-29.777 8.85a.721.721 0 0 0-.51.214.714.714 0 0 0 0 1.02l2.317 2.324a.73.73 0 0 0 1.027 0 .722.722 0 0 0 0-1.02l-2.323-2.324a.73.73 0 0 0-.51-.214z" style="fill:#fafafa;fill-opacity:1;fill-rule:nonzero;stroke:none;stroke-width:1.33333"/><path id="path16493" d="M-29.053 9.574a.73.73 0 0 0-.213-.51.716.716 0 0 0-1.021 0l-2.323 2.318a.723.723 0 1 0 1.021 1.025l2.323-2.322a.719.719 0 0 0 .213-.51z" style="fill:#fafafa;fill-opacity:1;fill-rule:nonzero;stroke:none;stroke-width:1.33333"/><path id="path16495" d="M-15.162 12.965a8.013 8.013 0 0 1-3.141 3.823.724.724 0 1 1-.776-1.224 6.499 6.499 0 0 0 2.792-7.167 6.5 6.5 0 0 0-6.006-4.817.721.721 0 1 1 .063-1.443 7.967 7.967 0 0 1 7.344 5.885h-.005a7.956 7.956 0 0 1-.271 4.943z" style="fill:#fafafa;fill-opacity:1;fill-rule:nonzero;stroke:none;stroke-width:1.33333"/></g></svg>