<svg xmlns="http://www.w3.org/2000/svg" width="24" height="24" fill="none"><rect width="22" height="22" x="1" y="1" fill="url(#a)" opacity=".813" rx="6.6"/><rect width="18" height="18" x="3" y="2.25" fill="#777" fill-opacity=".875" opacity=".625" rx="4.4"/><rect width="18" height="18" x="3" y="3" fill="#CCC" rx="4.4"/><path fill="url(#b)" fill-opacity=".875" d="M1.414 7.92A3.008 3.008 0 0 1 4.421 5h3.797c1.058 0 2.09.358 2.923 1.012a4.741 4.741 0 0 0 2.922 1.012h5.93A3.008 3.008 0 0 1 23 10.032V15.4a6.6 6.6 0 0 1-6.6 6.6H7.797A6.6 6.6 0 0 1 1.2 15.206l.214-7.287Z" opacity=".125"/><path fill="url(#c)" d="M.597 10.102A3.008 3.008 0 0 1 3.603 7h4.692c1.011 0 1.995.324 2.809.925l.074.055c.813.6 1.797.925 2.808.925h5.611a3.008 3.008 0 0 1 3.006 2.9l.155 4.361A6.6 6.6 0 0 1 16.162 23H7.397A6.6 6.6 0 0 1 .8 16.606l-.203-6.504Z" opacity=".875"/><defs><linearGradient id="a" x1="23" x2="1" y1="1" y2="12" gradientUnits="userSpaceOnUse"><stop stop-color="#E3C880"/><stop offset="1" stop-color="#6F5C38"/></linearGradient><linearGradient id="b" x1="23" x2="1.013" y1="9.347" y2="9.886" gradientUnits="userSpaceOnUse"><stop stop-opacity=".5"/><stop offset="1"/></linearGradient><linearGradient id="c" x1="23" x2="3.153" y1="7" y2="25.331" gradientUnits="userSpaceOnUse"><stop stop-color="#FFE795"/><stop offset="1" stop-color="#7A653E"/></linearGradient></defs></svg>