<svg xmlns="http://www.w3.org/2000/svg" xml:space="preserve" id="svg18" width="24" height="24" fill="none" version="1.1"><rect id="rect1" width="22" height="22" x="1" y="1" fill="url(#paint0_linear_211_262)" opacity=".813" rx="6.6"/><rect id="rect2" width="18" height="18" x="3" y="2.25" fill="url(#paint1_linear_211_262)" fill-opacity=".875" opacity=".125" rx="4.4"/><rect id="rect3" width="17.5" height="17.5" x="3.25" y="3.25" fill="#CCC" stroke="url(#paint2_linear_211_262)" stroke-width=".5" rx="4.15"/><path id="path3" fill="url(#paint3_linear_211_262)" fill-opacity=".875" d="M1 7.508A3.008 3.008 0 0 1 4.008 4.5H8.19c1.075 0 2.117.37 2.95 1.048a4.678 4.678 0 0 0 2.95 1.047h5.902A3.008 3.008 0 0 1 23 9.603V15.5a6.6 6.6 0 0 1-6.6 6.6H7.6A6.6 6.6 0 0 1 1 15.5V7.508Z" opacity=".125"/><g id="g5" opacity=".875"><path id="path4" fill="url(#paint4_linear_211_262)" d="M1 8.408A3.008 3.008 0 0 1 4.008 5.4H8.19c1.075 0 2.117.37 2.95 1.048a4.678 4.678 0 0 0 2.95 1.047h5.902A3.008 3.008 0 0 1 23 10.503V16.4a6.6 6.6 0 0 1-6.6 6.6H7.6A6.6 6.6 0 0 1 1 16.4V8.408Z"/><path id="path5" stroke="url(#paint5_linear_211_262)" stroke-linejoin="round" stroke-opacity=".375" stroke-width=".75" d="M22.625 10.503V16.4a6.225 6.225 0 0 1-6.225 6.225H7.6A6.225 6.225 0 0 1 1.375 16.4V8.408a2.633 2.633 0 0 1 2.633-2.633H8.19c.989 0 1.947.34 2.714.964a5.053 5.053 0 0 0 3.187 1.131h5.901a2.633 2.633 0 0 1 2.633 2.633Z"/></g><defs id="defs18"><linearGradient id="paint0_linear_211_262" x1="23" x2="1" y1="1" y2="12" gradientUnits="userSpaceOnUse"><stop id="stop6" stop-color="#E3C880"/><stop id="stop7" offset="1" stop-color="#6F5C38"/></linearGradient><linearGradient id="paint1_linear_211_262" x1="21" x2="3" y1="4" y2="4" gradientUnits="userSpaceOnUse"><stop id="stop8" stop-opacity=".5"/><stop id="stop9" offset=".89"/><stop id="stop10" offset="1" stop-opacity="0"/></linearGradient><linearGradient id="paint2_linear_211_262" x1="12" x2="11.5" y1="3" y2="8" gradientUnits="userSpaceOnUse"><stop id="stop11" stop-color="#DDD"/><stop id="stop12" offset="1" stop-color="#CCC" stop-opacity="0"/></linearGradient><linearGradient id="paint3_linear_211_262" x1="23" x2="1.012" y1="9" y2="9.521" gradientUnits="userSpaceOnUse"><stop id="stop13" stop-opacity=".5"/><stop id="stop14" offset="1"/></linearGradient><linearGradient id="paint4_linear_211_262" x1="23" x2="1.429" y1="5.4" y2="23.512" gradientUnits="userSpaceOnUse"><stop id="stop15" stop-color="#FFE795"/><stop id="stop16" offset="1" stop-color="#7A653E"/></linearGradient><linearGradient id="paint5_linear_211_262" x1="15" x2="5.5" y1="5.5" y2="19.5" gradientUnits="userSpaceOnUse"><stop id="stop17" stop-color="#FFE795"/><stop id="stop18" offset="1" stop-color="#7A653E"/></linearGradient><clipPath id="clipPath18" clipPathUnits="userSpaceOnUse"/><clipPath id="clipPath19" clipPathUnits="userSpaceOnUse"/><clipPath id="clipPath20" clipPathUnits="userSpaceOnUse"/><clipPath id="clipPath21" clipPathUnits="userSpaceOnUse"/><clipPath id="clipPath22" clipPathUnits="userSpaceOnUse"/><path id="SVGID_1_" d="M124.12 110.1h934.48v611.52H124.12z"/><defs id="defs1"><path id="rect18" d="M124.12 110.1h934.48v611.52H124.12z"/></defs></defs><style id="style1" type="text/css">.st1{fill:#5582a1}.st2{fill:#f49734}</style><g id="g27" transform="matrix(1.03155 0 0 1.03155 -.37 -.03)"><path id="path1" d="M39.81 1.707c.806 3.177-2.845 4.14-4.163 6.12-.897 1.348.441 2.796 2.266 4.442-.712-1.608-3.125-3.015 0-5.484 3.896-3.076 1.896-5.078 1.896-5.078zm2.412 3.933c0-.001-6.592 1.643-3.445 5.27.93 1.068-.242 2.033-.242 2.033s2.356-1.217 1.274-2.741c-1.011-1.421-1.786-2.128 2.413-4.562zm1.066 6.482c-.202.01-.416.05-.632.127-.202.072-.308.236-.308.236s.128-.05.414-.11c1.165-.242 2.835 1.56-.776 3.434-.017.045-.07.096-.072.1 4.37-1.15 3.325-3.886 1.374-3.787zm-7.815.178c-.46.012-1.54.113-2.792.718-1.977.955 4.888 1.389 8.44.454.37-.25.882-.468.882-.468s-1.457.258-2.905.38c-1.772.148-3.672.178-4.626.05-2.26-.3 1.24-1.13 1.24-1.13s-.086-.008-.24-.004zm-.578 2.187c-3.259 1.082 1.816 2.308 6.37.977-.485-.172-.793-.481-.793-.481-2.226.427-3.513.411-5.143.242-1.259-.13-.434-.738-.434-.738zm.462 2.105c-2.961.828 1.799 2.536 5.57.92-.619-.24-1.06-.517-1.06-.517-1.68.318-2.46.345-3.984.171-1.26-.144-.526-.574-.526-.574zm-1.914 1.398c-1.272-.05-4.16 1.22-1.695 1.62 7.683 1.246 14.007-.56 12.015-1.46 0 0 .542.45-.602.796-2.175.66-9.05.859-10.962.028-.687-.299.6-.713 1.005-.8.423-.092.666-.078.666-.078-.095-.068-.245-.1-.427-.106zm11.54 1.14s-.243.621-2.864 1.115c-2.959.557-6.611.494-8.775.137-.002.002.443.365 2.72.512 3.466.221 8.792-.122 8.919-1.763z" class="st1" clip-path="url(#clipPath22)" style="opacity:.15;fill:#1a1a1a;fill-opacity:1;stroke-width:.0314712" transform="matrix(.57157 0 0 .57157 -10.096 7.724)"/><path id="path2" d="M38.778 10.91c.93 1.07-.244 2.032-.244 2.032s2.357-1.217 1.276-2.741c-1.012-1.421-1.787-2.126 2.411-4.56 0-.002-6.59 1.643-3.443 5.27z" class="st2" clip-path="url(#clipPath21)" style="fill:#db380e;fill-opacity:1;stroke-width:.0314712" transform="matrix(.57157 0 0 .57157 -9.787 7.47)"/><path id="path4-7" d="M39.81 1.708s2 2.001-1.897 5.077c-3.125 2.469-.713 3.875-.002 5.483-1.825-1.646-3.162-3.095-2.265-4.442 1.318-1.98 4.97-2.941 4.163-6.118Z" class="st2" clip-path="url(#clipPath19)" style="fill:#db380e;fill-opacity:1;stroke-width:.0314712" transform="matrix(.57157 0 0 .57157 -9.787 7.47)"/><path id="path27" d="M43.288 12.122c-.202.01-.416.05-.632.127-.202.072-.308.236-.308.236s.128-.05.414-.11c1.165-.242 2.835 1.56-.776 3.434-.017.045-.07.096-.072.1 4.37-1.15 3.325-3.886 1.374-3.787zm-7.815.178c-.46.012-1.54.113-2.792.718-1.977.955 4.888 1.389 8.44.454.37-.25.882-.468.882-.468s-1.457.258-2.905.38c-1.772.148-3.672.178-4.626.05-2.26-.3 1.24-1.13 1.24-1.13s-.086-.008-.24-.004zm-.578 2.187c-3.259 1.082 1.816 2.308 6.37.977-.485-.172-.793-.481-.793-.481-2.226.427-3.513.411-5.143.242-1.259-.13-.434-.738-.434-.738zm.462 2.105c-2.961.828 1.799 2.536 5.57.92-.619-.24-1.06-.517-1.06-.517-1.68.318-2.46.345-3.984.171-1.26-.144-.526-.574-.526-.574zm-1.914 1.398c-1.272-.05-4.16 1.22-1.695 1.62 7.683 1.246 14.007-.56 12.015-1.46 0 0 .542.45-.602.796-2.175.66-9.05.859-10.962.028-.687-.299.6-.713 1.005-.8.423-.092.666-.078.666-.078-.095-.068-.245-.1-.427-.106zm11.54 1.14s-.243.621-2.864 1.115c-2.959.557-6.611.494-8.775.137-.002.002.443.365 2.72.512 3.466.221 8.792-.122 8.919-1.763z" class="st1" clip-path="url(#clipPath22)" style="fill:#296790;fill-opacity:1;stroke-width:.0314712" transform="matrix(.57157 0 0 .57157 -9.787 7.47)"/></g></svg>