<svg xmlns="http://www.w3.org/2000/svg" xml:space="preserve" width="24" height="24" fill="none"><rect width="22" height="22" x="1" y="1" fill="url(#a)" opacity=".813" rx="6.6" style="fill:url(#a)"/><rect width="18" height="18" x="3" y="2.25" fill="#777" fill-opacity=".875" opacity=".625" rx="4.4"/><rect width="18" height="18" x="3" y="3" fill="#ccc" rx="4.4"/><path fill="url(#b)" fill-opacity=".875" d="M1 7.508A3.008 3.008 0 0 1 4.008 4.5H8.19c1.075 0 2.117.37 2.95 1.048a4.678 4.678 0 0 0 2.95 1.047h5.902A3.008 3.008 0 0 1 23 9.603V15.5a6.6 6.6 0 0 1-6.6 6.6H7.6A6.6 6.6 0 0 1 1 15.5Z" opacity=".125" style="fill:url(#b)"/><path fill="url(#c)" d="M1 8.408A3.008 3.008 0 0 1 4.008 5.4H8.19c1.075 0 2.117.37 2.95 1.048a4.678 4.678 0 0 0 2.95 1.047h5.902A3.008 3.008 0 0 1 23 10.503V16.4a6.6 6.6 0 0 1-6.6 6.6H7.6A6.6 6.6 0 0 1 1 16.4Z" opacity=".875" style="fill:url(#c)"/><defs><linearGradient id="a" x1="23" x2="1" y1="1" y2="12" gradientUnits="userSpaceOnUse"><stop stop-color="#E3C880"/><stop offset="1" stop-color="#6F5C38"/></linearGradient><linearGradient id="b" x1="23" x2="1.012" y1="9" y2="9.521" gradientUnits="userSpaceOnUse"><stop stop-opacity=".5"/><stop offset="1"/></linearGradient><linearGradient id="c" x1="23" x2="1.429" y1="5.4" y2="23.511" gradientUnits="userSpaceOnUse"><stop stop-color="#FFE795"/><stop offset="1" stop-color="#7A653E"/></linearGradient><clipPath id="d" clipPathUnits="userSpaceOnUse"><path d="M0 0h19v19H0Z"/></clipPath></defs><path d="M10.734 6.375a.913.913 0 0 0-.652.273L8.773 7.957a.923.923 0 0 0 0 1.309l1.309 1.308c.359.36.945.36 1.309 0l1.308-1.308a.928.928 0 0 0 0-1.309l-1.308-1.309a.923.923 0 0 0-.657-.273Zm-5.089.383a.925.925 0 0 0-.926.926v1.851c0 .512.414.926.926.926h1.851a.925.925 0 0 0 .926-.926V7.684a.925.925 0 0 0-.926-.926Zm5.089.078c.118 0 .239.047.328.137l1.309 1.308c.18.184.18.473 0 .657l-1.309 1.308a.466.466 0 0 1-.656 0L9.098 8.938a.467.467 0 0 1 0-.657l1.308-1.308a.475.475 0 0 1 .328-.137Zm-5.089 4.086a.925.925 0 0 0-.926.926v1.851c0 .512.414.926.926.926h1.851a.925.925 0 0 0 .926-.926v-1.851a.925.925 0 0 0-.926-.926zm4.164 0a.925.925 0 0 0-.926.926v1.851c0 .512.414.926.926.926h1.851a.925.925 0 0 0 .926-.926v-1.851a.925.925 0 0 0-.926-.926z" clip-path="url(#d)" opacity=".15" style="fill:#1a1a1a;fill-opacity:1;fill-rule:nonzero;stroke:none" transform="matrix(1.33333 0 0 1.33333 -.005 -.016)"/><path d="M14.807 7.984c-.312 0-.629.12-.869.364l-1.745 1.745a1.23 1.23 0 0 0 0 1.746l1.745 1.744c.479.48 1.26.48 1.745 0l1.744-1.744c.48-.486.48-1.267 0-1.746l-1.744-1.745a1.23 1.23 0 0 0-.876-.364zm-6.785.51c-.683 0-1.235.553-1.235 1.235v2.468c0 .683.552 1.235 1.235 1.235h2.468c.683 0 1.235-.552 1.235-1.235V9.73c0-.682-.552-1.234-1.235-1.234zm6.785.105c.158 0 .319.062.439.182l1.744 1.744c.24.246.24.631 0 .875l-1.744 1.745a.623.623 0 0 1-.876 0L12.626 11.4a.621.621 0 0 1 0-.875l1.744-1.744a.634.634 0 0 1 .437-.182zm-6.785 5.448c-.683 0-1.235.552-1.235 1.234v2.468c0 .683.552 1.235 1.235 1.235h2.468c.683 0 1.235-.552 1.235-1.235v-2.468c0-.682-.552-1.234-1.235-1.234zm5.552 0c-.683 0-1.235.552-1.235 1.234v2.468c0 .683.552 1.235 1.235 1.235h2.468c.683 0 1.235-.552 1.235-1.235v-2.468c0-.682-.552-1.234-1.235-1.234z" style="fill:#f1ecde;fill-opacity:1;fill-rule:nonzero;stroke:none;stroke-width:1.33333"/></svg>