<svg xmlns="http://www.w3.org/2000/svg" xmlns:xlink="http://www.w3.org/1999/xlink" width="24" height="24" fill="none"><rect width="22" height="22" x="1" y="1" fill="url(#a)" opacity=".813" rx="6.6"/><rect width="18" height="18" x="3" y="2.25" fill="url(#b)" fill-opacity=".875" opacity=".125" rx="4.4"/><rect width="17.5" height="17.5" x="3.25" y="3.25" fill="#CCC" stroke="url(#c)" stroke-width=".5" rx="4.15"/><path fill="url(#d)" fill-opacity=".875" d="M1 7.508A3.008 3.008 0 0 1 4.008 4.5H8.19c1.075 0 2.117.37 2.95 1.048a4.678 4.678 0 0 0 2.95 1.047h5.902A3.008 3.008 0 0 1 23 9.603V15.5a6.6 6.6 0 0 1-6.6 6.6H7.6A6.6 6.6 0 0 1 1 15.5V7.508Z" opacity=".125"/><g opacity=".875"><path fill="url(#e)" d="M1 8.408A3.008 3.008 0 0 1 4.008 5.4H8.19c1.075 0 2.117.37 2.95 1.048a4.678 4.678 0 0 0 2.95 1.047h5.902A3.008 3.008 0 0 1 23 10.503V16.4a6.6 6.6 0 0 1-6.6 6.6H7.6A6.6 6.6 0 0 1 1 16.4V8.408Z"/><path stroke="url(#f)" stroke-linejoin="round" stroke-opacity=".375" stroke-width=".75" d="M22.625 10.503V16.4a6.225 6.225 0 0 1-6.225 6.225H7.6A6.225 6.225 0 0 1 1.375 16.4V8.408a2.633 2.633 0 0 1 2.633-2.633H8.19c.989 0 1.947.34 2.714.964a5.053 5.053 0 0 0 3.187 1.131h5.901a2.633 2.633 0 0 1 2.633 2.633Z"/></g><path fill="url(#g)" d="M14.09 14.558c1.025 0 1.907-.915 1.907-2.107 0-1.178-.887-2.051-1.908-2.051-1.02 0-1.907.892-1.907 2.06 0 1.183.882 2.098 1.907 2.098zm-5.49.11c.887 0 1.66-.801 1.66-1.836 0-1.025-.777-1.783-1.66-1.783-.887 0-1.669.777-1.664 1.793 0 1.025.773 1.826 1.664 1.826zm-2.66 4.306h3.624c-.496-.72.11-2.17 1.135-2.961-.53-.353-1.212-.615-2.103-.615-2.151 0-3.496 1.588-3.496 2.909 0 .429.238.667.84.667zm5.15 0h5.994c.749 0 1.016-.214 1.016-.634 0-1.23-1.54-2.928-4.015-2.928-2.47 0-4.011 1.698-4.011 2.928 0 .42.267.634 1.016.634z" style="opacity:.15;fill:#1a1a1a;stroke-width:.984852"/><defs><linearGradient id="h"><stop offset="0" style="stop-color:#715f3c;stop-opacity:1"/><stop offset="1" style="stop-color:#8f794c;stop-opacity:1"/></linearGradient><linearGradient id="a" x1="23" x2="1" y1="1" y2="12" gradientUnits="userSpaceOnUse"><stop stop-color="#E3C880"/><stop offset="1" stop-color="#6F5C38"/></linearGradient><linearGradient id="b" x1="21" x2="3" y1="4" y2="4" gradientUnits="userSpaceOnUse"><stop stop-opacity=".5"/><stop offset=".89"/><stop offset="1" stop-opacity="0"/></linearGradient><linearGradient id="c" x1="12" x2="11.5" y1="3" y2="8" gradientUnits="userSpaceOnUse"><stop stop-color="#DDD"/><stop offset="1" stop-color="#CCC" stop-opacity="0"/></linearGradient><linearGradient id="d" x1="23" x2="1.012" y1="9" y2="9.521" gradientUnits="userSpaceOnUse"><stop stop-opacity=".5"/><stop offset="1"/></linearGradient><linearGradient id="e" x1="23" x2="1.429" y1="5.4" y2="23.512" gradientUnits="userSpaceOnUse"><stop stop-color="#FFE795"/><stop offset="1" stop-color="#7A653E"/></linearGradient><linearGradient id="f" x1="15" x2="5.5" y1="5.5" y2="19.5" gradientUnits="userSpaceOnUse"><stop stop-color="#FFE795"/><stop offset="1" stop-color="#7A653E"/></linearGradient><linearGradient id="g" x1="5.4" x2="18.6" y1="18.8" y2="10" gradientUnits="userSpaceOnUse"><stop stop-color="#54452A"/><stop offset="1" stop-color="#7A653E" stop-opacity=".65"/></linearGradient><linearGradient xlink:href="#h" id="i" x1="4.225" x2="9.056" y1="9.773" y2="6.577" gradientTransform="translate(-5.684 -7.446) scale(2.66609)" gradientUnits="userSpaceOnUse"/></defs><path fill="url(#g)" d="M14.49 14.22c1.025 0 1.907-.916 1.907-2.108 0-1.178-.887-2.05-1.908-2.05-1.02 0-1.907.891-1.907 2.06 0 1.182.882 2.098 1.907 2.098zM9 14.33c.887 0 1.66-.802 1.66-1.837 0-1.025-.777-1.783-1.66-1.783-.887 0-1.669.777-1.664 1.793 0 1.025.773 1.826 1.664 1.826zm-2.66 4.306h3.624c-.496-.72.11-2.17 1.135-2.962-.53-.353-1.212-.615-2.103-.615-2.151 0-3.496 1.588-3.496 2.91 0 .428.238.667.84.667zm5.15 0h5.994c.749 0 1.016-.215 1.016-.635 0-1.23-1.54-2.928-4.015-2.928-2.47 0-4.011 1.698-4.011 2.928 0 .42.267.635 1.016.635z" style="opacity:1;fill:url(#i);stroke-width:.984852"/></svg>