<svg xmlns="http://www.w3.org/2000/svg" width="24" height="24" fill="none"><rect width="22" height="22" x="1" y="1" fill="url(#a)" opacity=".813" rx="6.6"/><rect width="18" height="18" x="3" y="2.25" fill="url(#b)" fill-opacity=".875" opacity=".125" rx="4.4"/><rect width="17.5" height="17.5" x="3.25" y="3.25" fill="#CCC" stroke="url(#c)" stroke-width=".5" rx="4.15"/><path fill="url(#d)" fill-opacity=".875" d="M1 7.508A3.008 3.008 0 0 1 4.008 4.5H8.19c1.075 0 2.117.37 2.95 1.048a4.678 4.678 0 0 0 2.95 1.047h5.902A3.008 3.008 0 0 1 23 9.603V15.5a6.6 6.6 0 0 1-6.6 6.6H7.6A6.6 6.6 0 0 1 1 15.5V7.508Z" opacity=".125"/><g opacity=".875"><path fill="url(#e)" d="M1 8.408A3.008 3.008 0 0 1 4.008 5.4H8.19c1.075 0 2.117.37 2.95 1.048a4.678 4.678 0 0 0 2.95 1.047h5.902A3.008 3.008 0 0 1 23 10.503V16.4a6.6 6.6 0 0 1-6.6 6.6H7.6A6.6 6.6 0 0 1 1 16.4V8.408Z"/><path stroke="url(#f)" stroke-linejoin="round" stroke-opacity=".375" stroke-width=".75" d="M22.625 10.503V16.4a6.225 6.225 0 0 1-6.225 6.225H7.6A6.225 6.225 0 0 1 1.375 16.4V8.408a2.633 2.633 0 0 1 2.633-2.633H8.19c.989 0 1.947.34 2.714.964a5.053 5.053 0 0 0 3.187 1.131h5.901a2.633 2.633 0 0 1 2.633 2.633Z"/></g><g fill-rule="evenodd" clip-rule="evenodd" style="opacity:.15;fill:#1a1a1a"><path fill="#01ac3c" d="M10.238 10.346a.458.458 0 0 0-.797-.029L6.11 15.732a.458.458 0 0 0-.02.444l1.323 2.67c.164.329.628.342.81.022l3.238-5.715c.076-.135.08-.3.008-.437z" style="fill:#1a1a1a" transform="matrix(.9232 0 0 .9232 .522 1.291)"/><path fill="#0083ff" d="M10.627 16.851a.458.458 0 0 0-.388.215l-1.4 2.232a.458.458 0 0 0 .388.702h6.822a.459.459 0 0 0 .388-.215l1.401-2.232a.458.458 0 0 0-.388-.702Z" style="fill:#1a1a1a" transform="matrix(.9232 0 0 .9232 .522 1.291)"/><path fill="#ffb902" d="M11.238 9a.458.458 0 0 0-.402.68l3.4 6.166c.081.146.235.237.402.237h2.86c.349 0 .57-.374.401-.68l-3.401-6.166A.458.458 0 0 0 14.096 9Z" style="fill:#1a1a1a" transform="matrix(.9232 0 0 .9232 .522 1.291)"/></g><g fill-rule="evenodd" clip-rule="evenodd"><path fill="#01ac3c" d="M10.374 10.243a.423.423 0 0 0-.736-.027l-3.075 5a.423.423 0 0 0-.019.409l1.222 2.464c.151.304.58.316.747.021l2.99-5.276a.423.423 0 0 0 .007-.403z"/><path fill="#0083ff" d="M10.734 16.248a.423.423 0 0 0-.359.198l-1.293 2.061a.423.423 0 0 0 .359.648h6.297c.146 0 .281-.075.359-.198l1.294-2.06a.423.423 0 0 0-.359-.649Z"/><path fill="#ffb902" d="M11.297 9a.423.423 0 0 0-.37.627l3.138 5.693a.423.423 0 0 0 .37.219h2.641a.423.423 0 0 0 .37-.628l-3.14-5.692a.423.423 0 0 0-.37-.219Z"/></g><defs><linearGradient id="a" x1="23" x2="1" y1="1" y2="12" gradientUnits="userSpaceOnUse"><stop stop-color="#E3C880"/><stop offset="1" stop-color="#6F5C38"/></linearGradient><linearGradient id="b" x1="21" x2="3" y1="4" y2="4" gradientUnits="userSpaceOnUse"><stop stop-opacity=".5"/><stop offset=".89"/><stop offset="1" stop-opacity="0"/></linearGradient><linearGradient id="c" x1="12" x2="11.5" y1="3" y2="8" gradientUnits="userSpaceOnUse"><stop stop-color="#DDD"/><stop offset="1" stop-color="#CCC" stop-opacity="0"/></linearGradient><linearGradient id="d" x1="23" x2="1.012" y1="9" y2="9.521" gradientUnits="userSpaceOnUse"><stop stop-opacity=".5"/><stop offset="1"/></linearGradient><linearGradient id="e" x1="23" x2="1.429" y1="5.4" y2="23.512" gradientUnits="userSpaceOnUse"><stop stop-color="#FFE795"/><stop offset="1" stop-color="#7A653E"/></linearGradient><linearGradient id="f" x1="15" x2="5.5" y1="5.5" y2="19.5" gradientUnits="userSpaceOnUse"><stop stop-color="#FFE795"/><stop offset="1" stop-color="#7A653E"/></linearGradient></defs></svg>