<svg xmlns="http://www.w3.org/2000/svg" width="24" height="24" fill="none"><rect width="22" height="22" x="1" y="1" fill="url(#a)" opacity=".813" rx="6.6"/><rect width="18" height="18" x="3" y="2.25" fill="url(#b)" fill-opacity=".875" opacity=".125" rx="4.4"/><rect width="17.5" height="17.5" x="3.25" y="3.25" fill="#CCC" stroke="url(#c)" stroke-width=".5" rx="4.15"/><path fill="url(#d)" fill-opacity=".875" d="M1 7.508A3.008 3.008 0 0 1 4.008 4.5H8.19c1.075 0 2.117.37 2.95 1.048a4.678 4.678 0 0 0 2.95 1.047h5.902A3.008 3.008 0 0 1 23 9.603V15.5a6.6 6.6 0 0 1-6.6 6.6H7.6A6.6 6.6 0 0 1 1 15.5V7.508Z" opacity=".125"/><g opacity=".875"><path fill="url(#e)" d="M1 8.408A3.008 3.008 0 0 1 4.008 5.4H8.19c1.075 0 2.117.37 2.95 1.048a4.678 4.678 0 0 0 2.95 1.047h5.902A3.008 3.008 0 0 1 23 10.503V16.4a6.6 6.6 0 0 1-6.6 6.6H7.6A6.6 6.6 0 0 1 1 16.4V8.408Z"/><path stroke="url(#f)" stroke-linejoin="round" stroke-opacity=".375" stroke-width=".75" d="M22.625 10.503V16.4a6.225 6.225 0 0 1-6.225 6.225H7.6A6.225 6.225 0 0 1 1.375 16.4V8.408a2.633 2.633 0 0 1 2.633-2.633H8.19c.989 0 1.947.34 2.714.964a5.053 5.053 0 0 0 3.187 1.131h5.901a2.633 2.633 0 0 1 2.633 2.633Z"/></g><path fill="url(#g)" d="M14.502 17.016a1.824 1.824 0 0 1-1.825 1.824H6.943a1.824 1.824 0 0 1-1.824-1.824v-4.691c0-1.008.817-1.825 1.824-1.825h5.734c1.008 0 1.825.817 1.825 1.825zm2.531-5.736c.452 0 .82.353.846.799l.001.048v5.124a.847.847 0 0 1-1.352.68l-.04-.032-1.158-.974a.86.86 0 0 1-.307-.657v-3.143c0-.251.11-.49.302-.653l1.158-.99a.847.847 0 0 1 .49-.2z" style="opacity:.15;fill:#1a1a1a"/><path fill="url(#g)" d="M15.002 16.516a1.824 1.824 0 0 1-1.824 1.824H7.444a1.824 1.824 0 0 1-1.825-1.824v-4.691c0-1.008.817-1.825 1.825-1.825h5.734c1.008 0 1.824.817 1.824 1.825zm2.531-5.736c.452 0 .821.353.846.799l.002.048v5.124a.847.847 0 0 1-1.352.68l-.04-.032-1.159-.974a.86.86 0 0 1-.306-.657v-3.143c0-.251.11-.49.301-.653l1.158-.99a.847.847 0 0 1 .49-.2z" style="fill:url(#g)"/><defs><linearGradient id="a" x1="23" x2="1" y1="1" y2="12" gradientUnits="userSpaceOnUse"><stop stop-color="#E3C880"/><stop offset="1" stop-color="#6F5C38"/></linearGradient><linearGradient id="b" x1="21" x2="3" y1="4" y2="4" gradientUnits="userSpaceOnUse"><stop stop-opacity=".5"/><stop offset=".89"/><stop offset="1" stop-opacity="0"/></linearGradient><linearGradient id="c" x1="12" x2="11.5" y1="3" y2="8" gradientUnits="userSpaceOnUse"><stop stop-color="#DDD"/><stop offset="1" stop-color="#CCC" stop-opacity="0"/></linearGradient><linearGradient id="d" x1="23" x2="1.012" y1="9" y2="9.521" gradientUnits="userSpaceOnUse"><stop stop-opacity=".5"/><stop offset="1"/></linearGradient><linearGradient id="e" x1="23" x2="1.429" y1="5.4" y2="23.512" gradientUnits="userSpaceOnUse"><stop stop-color="#FFE795"/><stop offset="1" stop-color="#7A653E"/></linearGradient><linearGradient id="f" x1="15" x2="5.5" y1="5.5" y2="19.5" gradientUnits="userSpaceOnUse"><stop stop-color="#FFE795"/><stop offset="1" stop-color="#7A653E"/></linearGradient><linearGradient id="g" x1="18.83" x2="6.18" y1="10" y2="18.25" gradientTransform="translate(-.471)" gradientUnits="userSpaceOnUse"><stop stop-color="#967CCC"/><stop offset="1" stop-color="#5E35B1"/></linearGradient></defs></svg>