<svg xmlns="http://www.w3.org/2000/svg" xmlns:xlink="http://www.w3.org/1999/xlink" width="24" height="24" fill="none"><defs><linearGradient id="c" x1="21" x2="3" y1="4" y2="4" gradientUnits="userSpaceOnUse"><stop stop-opacity=".5"/><stop offset=".89"/><stop offset="1" stop-opacity="0"/></linearGradient><linearGradient id="d" x1="12" x2="11.5" y1="3" y2="8" gradientUnits="userSpaceOnUse"><stop stop-color="#DDD"/><stop offset="1" stop-color="#CCC" stop-opacity="0"/></linearGradient><linearGradient id="e" x1="23" x2="1.012" y1="9" y2="9.521" gradientUnits="userSpaceOnUse"><stop stop-opacity=".5"/><stop offset="1"/></linearGradient><linearGradient xlink:href="#a" id="h" x1="-2.244" x2="-9.265" y1="8.997" y2="18.241" gradientTransform="matrix(1.08314 0 0 1.08314 18.319 -.746)" gradientUnits="userSpaceOnUse"/><linearGradient id="a"><stop offset="0" style="stop-color:#54bf54;stop-opacity:1"/><stop offset="1" style="stop-color:#237523;stop-opacity:1"/></linearGradient><linearGradient id="b" x1="23" x2="1" y1="1" y2="12" gradientUnits="userSpaceOnUse"><stop stop-color="#04BACC"/><stop offset="1" stop-color="#2D85C6"/></linearGradient><linearGradient id="f" x1="23" x2="1.429" y1="5.4" y2="23.511" gradientUnits="userSpaceOnUse"><stop stop-color="#04BACC"/><stop offset="1" stop-color="#2D85C6"/></linearGradient><linearGradient id="g" x1="15" x2="5.5" y1="5.5" y2="19.5" gradientUnits="userSpaceOnUse"><stop stop-color="#42F8FF"/><stop offset="1" stop-color="#0060F0"/></linearGradient></defs><rect width="22" height="22" x="1" y="1" fill="url(#b)" opacity=".813" rx="6.6" style="fill:url(#b)"/><rect width="18" height="18" x="3" y="2.25" fill="url(#paint1_linear_201_48)" fill-opacity=".875" opacity=".125" rx="4.4" style="fill:url(#c)"/><rect width="17.5" height="17.5" x="3.25" y="3.25" fill="#ccc" stroke="url(#paint2_linear_201_48)" stroke-width=".5" rx="4.15" style="stroke:url(#d)"/><path fill="url(#paint3_linear_201_48)" fill-opacity=".875" d="M1 7.508A3.008 3.008 0 0 1 4.008 4.5H8.19c1.075 0 2.117.37 2.95 1.048a4.678 4.678 0 0 0 2.95 1.047h5.902A3.008 3.008 0 0 1 23 9.603V15.5a6.6 6.6 0 0 1-6.6 6.6H7.6A6.6 6.6 0 0 1 1 15.5Z" opacity=".125" style="fill:url(#e)"/><g opacity=".875"><path fill="url(#f)" d="M1 8.408A3.008 3.008 0 0 1 4.008 5.4H8.19c1.075 0 2.117.37 2.95 1.048a4.678 4.678 0 0 0 2.95 1.047h5.902A3.008 3.008 0 0 1 23 10.503V16.4a6.6 6.6 0 0 1-6.6 6.6H7.6A6.6 6.6 0 0 1 1 16.4Z" style="fill:url(#f)"/><path stroke="url(#g)" stroke-linejoin="round" stroke-opacity=".375" stroke-width=".75" d="M22.625 10.503V16.4a6.225 6.225 0 0 1-6.225 6.225H7.6A6.225 6.225 0 0 1 1.375 16.4V8.408a2.633 2.633 0 0 1 2.633-2.633H8.19c.989 0 1.947.34 2.714.964a5.053 5.053 0 0 0 3.187 1.131h5.901a2.633 2.633 0 0 1 2.633 2.633z" style="stroke:url(#g)"/></g><path d="M11.318 9.5a.962.962 0 0 0-.962.965v3.387l-.874-.874a.961.961 0 0 0-1.362 0 .961.961 0 0 0 0 1.362l2.517 2.516v.002a.946.946 0 0 0 .068.061l.004.002a.959.959 0 0 0 .07.053l.008.007h.003c.022.014.046.03.07.042l.01.006h.002l.013.007c.002 0 .004 0 .006.002.018.009.035.018.053.025l.013.005c.025.01.05.019.076.027l.002.002h.005l.004.002h.002l.017.005.004.002c.041.011.084.02.127.025l.032.004h.002c.06.006.121.006.182 0h.004l.005-.002a.487.487 0 0 0 .019-.002l.017-.002a.953.953 0 0 0 .12-.026l.02-.004.008-.002.004-.002a.974.974 0 0 0 .158-.066h.003l.002-.002.046-.025.032-.021h.002l.007-.007h.002a.964.964 0 0 0 .142-.118l2.517-2.516a.961.961 0 0 0 0-1.362.961.961 0 0 0-1.362 0l-.872.872v-3.385a.964.964 0 0 0-.965-.965Zm-2.855 8.075a.96.96 0 0 0-.963.962.96.96 0 0 0 .963.963h5.711a.96.96 0 0 0 .963-.963.96.96 0 0 0-.963-.962z" style="opacity:.15;fill:#1a1a1a;stroke-width:2.16628;stroke-linecap:round;stroke-linejoin:round;paint-order:stroke markers fill"/><path d="M12 8.977a.962.962 0 0 0-.963.964v3.387l-.873-.874a.961.961 0 0 0-1.363 0 .961.961 0 0 0 0 1.363l2.518 2.515v.002a.946.946 0 0 0 .068.062s.003 0 .004.002a.959.959 0 0 0 .07.053l.008.006h.002c.023.015.046.03.07.043.004.001.007.004.01.006h.003l.012.006c.002.001.005.001.007.003l.053.025.012.004c.025.01.05.02.077.028l.002.002h.004l.004.002h.003l.016.004.005.002c.04.012.083.02.127.026l.031.004h.003c.06.006.12.006.182 0h.004l.004-.002a.487.487 0 0 0 .02-.002l.016-.003a.953.953 0 0 0 .12-.025l.02-.004.008-.002c.002 0 .003-.002.004-.003a.974.974 0 0 0 .159-.065h.002l.002-.002.047-.026c.01-.006.02-.014.032-.02h.002l.006-.007h.002a.964.964 0 0 0 .142-.119l2.518-2.515a.961.961 0 0 0 0-1.362.961.961 0 0 0-1.363 0l-.872.871V9.941a.964.964 0 0 0-.964-.964zM9.144 17.05a.96.96 0 0 0-.962.963.96.96 0 0 0 .962.963h5.712a.96.96 0 0 0 .962-.963.96.96 0 0 0-.962-.963z" style="fill:url(#h);stroke-width:2.16628;stroke-linecap:round;stroke-linejoin:round;paint-order:stroke markers fill"/></svg>