<svg width="256" height="256" viewBox="0 0 256 256" fill="none" xmlns="http://www.w3.org/2000/svg">
<rect width="256" height="256" rx="65" fill="#006699"/>
<rect x="28" y="28" width="200" height="200" rx="45" fill="#F9F9F9"/>
<path d="M0 81C0 61.67 15.67 46 35 46H83.4744C96.0907 46 108.308 50.4232 118 58.5V58.5C127.692 66.5768 139.909 71 152.526 71H221C240.33 71 256 86.67 256 106V191C256 226.899 226.899 256 191 256H65C29.1015 256 0 226.899 0 191V81Z" fill="#2991C9"/>
<path d="M185.68 116.729L195.188 107.409C199.989 102.607 200.272 97.524 195.941 93.0996L192.835 89.9928C188.504 85.6624 183.326 86.1332 178.619 90.7459L169.017 100.16L185.68 116.729ZM186.057 222.071C188.881 224.896 193.493 224.896 196.318 222.071C199.142 219.247 199.142 214.634 196.318 211.81L77.0421 92.5345C74.218 89.7104 69.4169 89.6164 66.6872 92.5345C63.8627 95.2646 63.8627 100.066 66.6872 102.796L186.057 222.071ZM151.319 150.902L177.49 124.825L160.921 108.256L134.844 134.427L151.319 150.902ZM74.6888 227.437L125.242 176.884L108.768 160.316L58.2141 210.963L49.1767 231.862C48.3296 234.121 50.6833 236.757 52.9423 235.816L74.6888 227.437Z" fill="#F9F9F9"/>
</svg>
