<?xml version="1.0" encoding="UTF-8" standalone="no"?>
<svg
   width="64"
   height="64"
   fill="none"
   version="1.1"
   id="svg9"
   sodipodi:docname="default-cut.svg"
   inkscape:version="1.3 (0e150ed6c4, 2023-07-21)"
   xmlns:inkscape="http://www.inkscape.org/namespaces/inkscape"
   xmlns:sodipodi="http://sodipodi.sourceforge.net/DTD/sodipodi-0.dtd"
   xmlns:xlink="http://www.w3.org/1999/xlink"
   xmlns="http://www.w3.org/2000/svg"
   xmlns:svg="http://www.w3.org/2000/svg">
  <sodipodi:namedview
     id="namedview9"
     pagecolor="#ffffff"
     bordercolor="#000000"
     borderopacity="0.25"
     inkscape:showpageshadow="2"
     inkscape:pageopacity="0.0"
     inkscape:pagecheckerboard="0"
     inkscape:deskcolor="#d1d1d1"
     showguides="true"
     inkscape:zoom="8.62523"
     inkscape:cx="38.549697"
     inkscape:cy="27.30362"
     inkscape:window-width="1920"
     inkscape:window-height="998"
     inkscape:window-x="6000"
     inkscape:window-y="360"
     inkscape:window-maximized="1"
     inkscape:current-layer="svg9" />
  <defs
     id="defs9">
    <linearGradient
       id="a"
       x1="23"
       x2="1"
       y1="1"
       y2="12"
       gradientUnits="userSpaceOnUse"
       gradientTransform="translate(40)">
      <stop
         stop-color="#E3C880"
         id="stop4" />
      <stop
         offset="1"
         stop-color="#6F5C38"
         id="stop5" />
    </linearGradient>
    <linearGradient
       id="b"
       x1="23"
       x2="1.013"
       y1="9.3470001"
       y2="9.8859997"
       gradientUnits="userSpaceOnUse"
       gradientTransform="translate(40)">
      <stop
         stop-opacity=".5"
         id="stop6" />
      <stop
         offset="1"
         id="stop7" />
    </linearGradient>
    <linearGradient
       id="c"
       x1="23"
       x2="3.1530001"
       y1="7"
       y2="25.330999"
       gradientUnits="userSpaceOnUse"
       gradientTransform="translate(40)">
      <stop
         stop-color="#FFE795"
         id="stop8" />
      <stop
         offset="1"
         stop-color="#7A653E"
         id="stop9" />
    </linearGradient>
    <linearGradient
       x1="23"
       y1="1"
       x2="1"
       y2="12"
       gradientUnits="userSpaceOnUse"
       gradientTransform="scale(0.75)"
       spreadMethod="pad"
       id="linearGradient2">
      <stop
         style="stop-opacity:1;stop-color:#2675a7"
         offset="0"
         id="stop1-9" />
      <stop
         style="stop-opacity:1;stop-color:#1d5e8c"
         offset="1"
         id="stop2-8" />
    </linearGradient>
    <linearGradient
       x1="21"
       y1="4"
       x2="3"
       y2="4"
       gradientUnits="userSpaceOnUse"
       gradientTransform="scale(0.75)"
       spreadMethod="pad"
       id="linearGradient8">
      <stop
         style="stop-opacity:0.43750668;stop-color:#000000"
         offset="0"
         id="stop6-2" />
      <stop
         style="stop-opacity:0.87501335;stop-color:#000000"
         offset="0.89"
         id="stop7-6" />
      <stop
         style="stop-opacity:0;stop-color:#000000"
         offset="1"
         id="stop8-7" />
    </linearGradient>
    <clipPath
       clipPathUnits="userSpaceOnUse"
       id="clipPath8-6">
      <path
         d="M 0,0 H 19 V 19 H 0 Z"
         id="path8-4" />
    </clipPath>
    <mask
       maskUnits="userSpaceOnUse"
       x="0"
       y="0"
       width="1"
       height="1"
       id="mask10-2">
      <path
         id="path11-2"
         d="M 0,0 H 18 V 18 H 0 Z"
         style="fill:url(#linearGradient12);fill-opacity:1;fill-rule:nonzero;stroke:none"
         transform="scale(1.3333333)"
         clip-path="url(#clipPath12-1)" />
    </mask>
    <linearGradient
       x1="12"
       y1="3"
       x2="11.5"
       y2="8"
       gradientUnits="userSpaceOnUse"
       gradientTransform="matrix(0.75,0,0,-0.75,0,18)"
       spreadMethod="pad"
       id="linearGradient12">
      <stop
         style="stop-opacity:1;stop-color:#ffffff"
         offset="0"
         id="stop11-5" />
      <stop
         style="stop-opacity:0;stop-color:#ffffff"
         offset="1"
         id="stop12-9" />
    </linearGradient>
    <clipPath
       clipPathUnits="userSpaceOnUse"
       id="clipPath12-1">
      <path
         d="M 1,1 H 17 V 17 H 1 Z"
         id="path12-8" />
    </clipPath>
    <linearGradient
       x1="12"
       y1="3"
       x2="11.5"
       y2="8"
       gradientUnits="userSpaceOnUse"
       gradientTransform="matrix(0.75,0,0,-0.75,0,18)"
       spreadMethod="pad"
       id="linearGradient14">
      <stop
         style="stop-opacity:1;stop-color:#ffffff"
         offset="0"
         id="stop13-3" />
      <stop
         style="stop-opacity:1;stop-color:#cccccc"
         offset="1"
         id="stop14-9" />
    </linearGradient>
    <clipPath
       clipPathUnits="userSpaceOnUse"
       id="clipPath14-1">
      <path
         d="M 1,1 H 17 V 17 H 1 Z"
         id="path14-3" />
    </clipPath>
    <linearGradient
       x1="23"
       y1="9"
       x2="1.012"
       y2="9.5209999"
       gradientUnits="userSpaceOnUse"
       gradientTransform="scale(0.75)"
       spreadMethod="pad"
       id="linearGradient18">
      <stop
         style="stop-opacity:0.43750668;stop-color:#000000"
         offset="0"
         id="stop17-9" />
      <stop
         style="stop-opacity:0.87501335;stop-color:#000000"
         offset="1"
         id="stop18-7" />
    </linearGradient>
    <clipPath
       clipPathUnits="userSpaceOnUse"
       id="clipPath18-4">
      <path
         d="M 0,0 H 19 V 19 H 0 Z"
         id="path18-4" />
    </clipPath>
    <linearGradient
       x1="23"
       y1="5.4000001"
       x2="1.429"
       y2="23.511999"
       gradientUnits="userSpaceOnUse"
       gradientTransform="scale(0.75)"
       spreadMethod="pad"
       id="linearGradient20">
      <stop
         style="stop-opacity:1;stop-color:#64b4f4"
         offset="0"
         id="stop19-9" />
      <stop
         style="stop-opacity:1;stop-color:#127bdc"
         offset="1"
         id="stop20-7" />
    </linearGradient>
    <linearGradient
       id="l"
       x1="15"
       x2="5.5"
       y1="5.5"
       y2="19.5"
       gradientUnits="userSpaceOnUse"
       gradientTransform="matrix(1,0,0.02551356,0.90453931,39.412259,2.1959323)">
      <stop
         offset="0"
         stop-color="#85F8FF"
         style="stop-color:#f2f2f2;stop-opacity:1"
         id="stop10" />
      <stop
         offset="1"
         stop-color="#105BF6"
         style="stop-color:#11599c;stop-opacity:1"
         id="stop11" />
    </linearGradient>
    <clipPath
       clipPathUnits="userSpaceOnUse"
       id="clipPath8-6-2">
      <path
         d="M 0,0 H 19 V 19 H 0 Z"
         id="path8-4-7" />
    </clipPath>
    <linearGradient
       x1="23"
       y1="9"
       x2="1.012"
       y2="9.5209999"
       gradientUnits="userSpaceOnUse"
       gradientTransform="scale(0.75)"
       spreadMethod="pad"
       id="linearGradient13">
      <stop
         style="stop-opacity:0.43750668;stop-color:#000000"
         offset="0"
         id="stop12" />
      <stop
         style="stop-color:#000000;stop-opacity:0.87450981;"
         offset="1"
         id="stop13" />
    </linearGradient>
    <clipPath
       clipPathUnits="userSpaceOnUse"
       id="clipPath18-4-3">
      <path
         d="M 0,0 H 19 V 19 H 0 Z"
         id="path18-4-6" />
    </clipPath>
    <linearGradient
       x1="23"
       y1="5.4000001"
       x2="1.429"
       y2="23.511999"
       gradientUnits="userSpaceOnUse"
       gradientTransform="scale(0.75)"
       spreadMethod="pad"
       id="linearGradient15">
      <stop
         style="stop-color:#127bdc;stop-opacity:1;"
         offset="0"
         id="stop14" />
      <stop
         style="stop-color:#64b4f4;stop-opacity:1;"
         offset="1"
         id="stop15" />
    </linearGradient>
    <linearGradient
       id="paint4_linear_0_1"
       x1="1"
       y1="23"
       x2="21.931101"
       y2="4.7725801"
       gradientUnits="userSpaceOnUse">
      <stop
         stop-color="#318CDE"
         id="stop15-4" />
      <stop
         offset="1"
         stop-color="#70B7F1"
         id="stop16" />
    </linearGradient>
    <linearGradient
       id="paint5_linear_0_1"
       x1="1"
       y1="22.955799"
       x2="21.934299"
       y2="4.7730298"
       gradientUnits="userSpaceOnUse">
      <stop
         stop-color="#1E71BD"
         id="stop17" />
      <stop
         offset="1"
         stop-color="#559CD9"
         id="stop18" />
    </linearGradient>
    <linearGradient
       id="paint3_linear_0_1"
       x1="23"
       y1="8.6026201"
       x2="1.0114599"
       y2="9.1120195"
       gradientUnits="userSpaceOnUse"
       gradientTransform="matrix(1.5909091,0,0,1.5909091,-0.59090909,-0.59090909)">
      <stop
         stop-opacity="0.437507"
         id="stop13-5" />
      <stop
         offset="1"
         stop-opacity="0.87451"
         id="stop14-2" />
    </linearGradient>
    <linearGradient
       id="paint2_linear_0_1"
       x1="21"
       y1="3"
       x2="20.5"
       y2="6"
       gradientUnits="userSpaceOnUse"
       gradientTransform="matrix(1.5909091,0,0,1.5909091,-0.59090909,-0.59090909)">
      <stop
         stop-color="#FAFAFA"
         id="stop11-54" />
      <stop
         offset="1"
         stop-color="#FAFAFA"
         stop-opacity="0"
         id="stop12-7" />
    </linearGradient>
    <linearGradient
       id="paint1_linear_0_1"
       x1="21"
       y1="3.75"
       x2="3"
       y2="3.75"
       gradientUnits="userSpaceOnUse"
       gradientTransform="matrix(1.5909091,0,0,1.5909091,-0.59090909,-0.59090909)">
      <stop
         stop-opacity="0.5"
         id="stop8-4" />
      <stop
         offset="0.890123"
         id="stop9-4" />
      <stop
         offset="1"
         stop-opacity="0"
         id="stop10-3" />
    </linearGradient>
    <linearGradient
       id="paint0_linear_0_1"
       x1="24.062401"
       y1="-0.504188"
       x2="-0.065581299"
       y2="11.5558"
       gradientUnits="userSpaceOnUse"
       gradientTransform="matrix(1.5909091,0,0,1.5909091,-0.59090909,-0.59090909)">
      <stop
         stop-color="#2675A7"
         id="stop6-0" />
      <stop
         offset="1"
         stop-color="#1D5E8C"
         id="stop7-7" />
    </linearGradient>
    <linearGradient
       inkscape:collect="always"
       xlink:href="#paint0_linear_0_1"
       id="linearGradient16"
       gradientUnits="userSpaceOnUse"
       gradientTransform="matrix(1.5909091,0,0,1.5909091,-0.59090909,-0.59090909)"
       x1="24.062401"
       y1="-0.504188"
       x2="-0.065581299"
       y2="11.5558" />
    <linearGradient
       inkscape:collect="always"
       xlink:href="#paint1_linear_0_1"
       id="linearGradient17"
       gradientUnits="userSpaceOnUse"
       gradientTransform="matrix(1.5909091,0,0,1.5909091,-0.59090909,-0.59090909)"
       x1="21"
       y1="3.75"
       x2="3"
       y2="3.75" />
    <linearGradient
       inkscape:collect="always"
       xlink:href="#paint2_linear_0_1"
       id="linearGradient19"
       gradientUnits="userSpaceOnUse"
       gradientTransform="matrix(1.5909091,0,0,1.5909091,-0.59090909,-0.59090909)"
       x1="21"
       y1="3"
       x2="20.5"
       y2="6" />
    <linearGradient
       inkscape:collect="always"
       xlink:href="#paint3_linear_0_1"
       id="linearGradient21"
       gradientUnits="userSpaceOnUse"
       gradientTransform="matrix(1.5909091,0,0,1.5909091,-0.59090909,-0.59090909)"
       x1="23"
       y1="8.6026201"
       x2="1.0114599"
       y2="9.1120195" />
    <linearGradient
       inkscape:collect="always"
       xlink:href="#paint4_linear_0_1"
       id="linearGradient22"
       gradientUnits="userSpaceOnUse"
       x1="1"
       y1="23"
       x2="21.931101"
       y2="4.7725801" />
    <linearGradient
       inkscape:collect="always"
       xlink:href="#paint5_linear_0_1"
       id="linearGradient23"
       gradientUnits="userSpaceOnUse"
       x1="1"
       y1="22.955799"
       x2="21.934299"
       y2="4.7730298" />
  </defs>
  <g
     id="g13"
     transform="translate(5.531,22.815)"
     style="opacity:0.5">
    <path
       opacity="0.875"
       d="M 11.49938,1 C 5.6830159,1 1,5.6799137 1,11.496277 v 14.00436 C 1,31.317 5.6830159,36 11.49938,36 H 25.500637 C 31.317,36 36,31.317 36,25.500637 V 11.496277 C 36,5.6799137 31.317,1 25.500637,1 H 18.5 Z"
       fill="url(#paint0_linear_0_1)"
       id="path7"
       style="fill:url(#linearGradient16);stroke-width:0.999999" />
    <rect
       opacity="0.125"
       x="4.181818"
       y="2.590909"
       width="28.636364"
       height="28.636364"
       rx="7"
       fill="url(#paint1_linear_0_1)"
       fill-opacity="0.875"
       id="rect7"
       style="fill:url(#linearGradient17);stroke-width:0.999999" />
    <path
       d="m 10.959155,4.1481546 h 15.081754 c 3.775864,0 6.806228,3.0313341 6.806228,6.8084864 v 15.086655 c 0,3.777136 -3.030364,6.808613 -6.806228,6.808613 H 10.959155 c -3.77588,0 -6.8062277,-3.031477 -6.8062277,-6.808613 V 10.956641 c 0,-3.7771523 3.0303477,-6.8084864 6.8062277,-6.8084864 z"
       fill="#cccccc"
       id="path8"
       style="stroke-width:0.999999" />
    <path
       fill-rule="evenodd"
       clip-rule="evenodd"
       d="M 26.040909,7.3299728 H 10.959155 c -2.0176231,0 -3.6244095,1.6057841 -3.6244095,3.6266682 v 15.086655 c 0,2.020931 1.6067864,3.626795 3.6244095,3.626795 h 15.081754 c 2.017591,0 3.624409,-1.605864 3.624409,-3.626795 V 10.956641 c 0,-2.0208841 -1.606818,-3.6266682 -3.624409,-3.6266682 z m 0,-3.1818182 H 10.959155 c -3.77588,0 -6.8062277,3.0313341 -6.8062277,6.8084864 v 15.086655 c 0,3.777136 3.0303477,6.808613 6.8062277,6.808613 h 15.081754 c 3.775864,0 6.806228,-3.031477 6.806228,-6.808613 V 10.956641 c 0,-3.7771523 -3.030364,-6.8084864 -6.806228,-6.8084864 z"
       fill="url(#paint2_linear_0_1)"
       id="path9"
       style="fill:url(#linearGradient19);stroke-width:0.999999" />
    <path
       opacity="0.25"
       d="M 1,10.671646 C 1,7.968341 3.1466614,5.7727273 5.7897023,5.7727273 h 6.6457527 c 1.713934,0 3.370659,0.6009818 4.696363,1.7031318 1.325705,1.10215 2.984546,1.703116 4.69,1.703116 H 31.21025 C 33.853387,9.1789751 36,11.374605 36,14.077909 v 9.593978 c 0,5.931545 -4.698432,10.737204 -10.497932,10.737204 H 11.497884 C 5.6984796,34.409091 1,29.603432 1,23.671887 Z"
       fill="url(#paint3_linear_0_1)"
       fill-opacity="0.75"
       id="path10"
       style="fill:url(#linearGradient21);stroke-width:0.999999" />
    <g
       opacity="0.875"
       id="g12"
       transform="matrix(1.5909091,0,0,1.5909091,-0.59090909,-0.59090909)"
       style="stroke-width:0.628571">
      <path
         d="M 23,11.0316 C 23,9.37045 21.6534,8.02381 19.9922,8.02381 h -5.9289 c -1.0584,0 -2.0902,-0.35842 -2.9227,-1.01191 C 10.3082,6.35842 9.27633,6 8.218,6 H 4.00781 C 2.34664,6 1,7.34664 1,9.00781 V 16.4004 C 1,20.0564 3.94361,23 7.59961,23 H 16.4004 C 20.0547,23 22.9973,20.0591 23,16.4055 Z"
         fill="url(#paint4_linear_0_1)"
         id="path11"
         style="fill:url(#linearGradient22);stroke-width:0.628571" />
      <path
         d="M 19.9922,9.02381 C 21.1011,9.02381 22,9.92274 22,11.0316 v 5.3731 C 21.9977,19.5064 19.5027,22 16.4004,22 H 7.59961 C 4.4959,22 2,19.5041 2,16.4004 V 9.00781 C 2,7.89893 2.89893,7 4.00781,7 H 8.218 c 0.83327,0 1.6479,0.28256 2.3052,0.7985 1.0077,0.79103 2.2567,1.22531 3.5401,1.22531 z"
         stroke="url(#paint5_linear_0_1)"
         stroke-opacity="0.375"
         stroke-width="1.25714"
         id="path12"
         style="stroke:url(#linearGradient23)" />
    </g>
  </g>
  <g
     id="g1"
     transform="translate(21.469,4.189)">
    <path
       opacity="0.875"
       d="M 11.49938,1 C 5.6830159,1 1,5.6799137 1,11.496277 v 14.00436 C 1,31.317 5.6830159,36 11.49938,36 H 25.500637 C 31.317,36 36,31.317 36,25.500637 V 11.496277 C 36,5.6799137 31.317,1 25.500637,1 H 18.5 Z"
       fill="url(#paint0_linear_0_1)"
       id="path1"
       style="fill:url(#paint0_linear_0_1);stroke-width:0.999999" />
    <rect
       opacity="0.125"
       x="4.181818"
       y="2.590909"
       width="28.636364"
       height="28.636364"
       rx="7"
       fill="url(#paint1_linear_0_1)"
       fill-opacity="0.875"
       id="rect1"
       style="fill:url(#paint1_linear_0_1);stroke-width:0.999999" />
    <path
       d="m 10.959155,4.1481546 h 15.081754 c 3.775864,0 6.806228,3.0313341 6.806228,6.8084864 v 15.086655 c 0,3.777136 -3.030364,6.808613 -6.806228,6.808613 H 10.959155 c -3.77588,0 -6.8062277,-3.031477 -6.8062277,-6.808613 V 10.956641 c 0,-3.7771523 3.0303477,-6.8084864 6.8062277,-6.8084864 z"
       fill="#cccccc"
       id="path2"
       style="stroke-width:0.999999" />
    <path
       fill-rule="evenodd"
       clip-rule="evenodd"
       d="M 26.040909,7.3299728 H 10.959155 c -2.0176231,0 -3.6244095,1.6057841 -3.6244095,3.6266682 v 15.086655 c 0,2.020931 1.6067864,3.626795 3.6244095,3.626795 h 15.081754 c 2.017591,0 3.624409,-1.605864 3.624409,-3.626795 V 10.956641 c 0,-2.0208841 -1.606818,-3.6266682 -3.624409,-3.6266682 z m 0,-3.1818182 H 10.959155 c -3.77588,0 -6.8062277,3.0313341 -6.8062277,6.8084864 v 15.086655 c 0,3.777136 3.0303477,6.808613 6.8062277,6.808613 h 15.081754 c 3.775864,0 6.806228,-3.031477 6.806228,-6.808613 V 10.956641 c 0,-3.7771523 -3.030364,-6.8084864 -6.806228,-6.8084864 z"
       fill="url(#paint2_linear_0_1)"
       id="path3"
       style="fill:url(#paint2_linear_0_1);stroke-width:0.999999" />
    <path
       opacity="0.25"
       d="M 1,10.671646 C 1,7.968341 3.1466614,5.7727273 5.7897023,5.7727273 h 6.6457527 c 1.713934,0 3.370659,0.6009818 4.696363,1.7031318 1.325705,1.10215 2.984546,1.703116 4.69,1.703116 H 31.21025 C 33.853387,9.1789751 36,11.374605 36,14.077909 v 9.593978 c 0,5.931545 -4.698432,10.737204 -10.497932,10.737204 H 11.497884 C 5.6984796,34.409091 1,29.603432 1,23.671887 Z"
       fill="url(#paint3_linear_0_1)"
       fill-opacity="0.75"
       id="path4"
       style="fill:url(#paint3_linear_0_1);stroke-width:0.999999" />
    <g
       opacity="0.875"
       id="g6"
       transform="matrix(1.5909091,0,0,1.5909091,-0.59090909,-0.59090909)"
       style="stroke-width:0.628571">
      <path
         d="M 23,11.0316 C 23,9.37045 21.6534,8.02381 19.9922,8.02381 h -5.9289 c -1.0584,0 -2.0902,-0.35842 -2.9227,-1.01191 C 10.3082,6.35842 9.27633,6 8.218,6 H 4.00781 C 2.34664,6 1,7.34664 1,9.00781 V 16.4004 C 1,20.0564 3.94361,23 7.59961,23 H 16.4004 C 20.0547,23 22.9973,20.0591 23,16.4055 Z"
         fill="url(#paint4_linear_0_1)"
         id="path5"
         style="fill:url(#paint4_linear_0_1);stroke-width:0.628571" />
      <path
         d="M 19.9922,9.02381 C 21.1011,9.02381 22,9.92274 22,11.0316 v 5.3731 C 21.9977,19.5064 19.5027,22 16.4004,22 H 7.59961 C 4.4959,22 2,19.5041 2,16.4004 V 9.00781 C 2,7.89893 2.89893,7 4.00781,7 H 8.218 c 0.83327,0 1.6479,0.28256 2.3052,0.7985 1.0077,0.79103 2.2567,1.22531 3.5401,1.22531 z"
         stroke="url(#paint5_linear_0_1)"
         stroke-opacity="0.375"
         stroke-width="1.25714"
         id="path6"
         style="stroke:url(#paint5_linear_0_1)" />
    </g>
  </g>
</svg>
