<svg width="256" height="256" viewBox="0 0 256 256" fill="none" xmlns="http://www.w3.org/2000/svg">
<rect width="256" height="256" rx="65" fill="#006699"/>
<rect x="28" y="28" width="200" height="200" rx="45" fill="#F9F9F9"/>
<path d="M0 81C0 61.67 15.67 46 35 46H83.4744C96.0907 46 108.308 50.4232 118 58.5V58.5C127.692 66.5768 139.909 71 152.526 71H221C240.33 71 256 86.67 256 106V191C256 226.899 226.899 256 191 256H65C29.1015 256 0 226.899 0 191V81Z" fill="#2991C9"/>
<path d="M200.656 187.878L178.029 134.96C173.908 125.273 167.763 119.779 160.751 119.417C153.811 119.056 147.088 123.899 141.955 133.153L128.219 157.805C125.328 163.01 121.207 166.118 116.725 166.48C112.17 166.913 107.616 164.528 103.929 159.829L102.339 157.805C97.2059 151.371 90.8443 148.262 84.338 148.913C77.8317 149.563 72.2652 154.045 68.5783 161.347L56.0718 186.288C51.5898 195.324 52.0235 205.806 57.3008 214.337C62.5781 222.867 71.7592 228 81.8078 228H174.052C183.74 228 192.776 223.156 198.126 215.06C203.62 206.963 204.487 196.77 200.656 187.878Z" fill="#F9F9F9"/>
<path d="M91.8648 126.869C105.36 126.869 116.299 115.93 116.299 102.435C116.299 88.9398 105.36 78 91.8648 78C78.3699 78 67.4301 88.9398 67.4301 102.435C67.4301 115.93 78.3699 126.869 91.8648 126.869Z" fill="#F9F9F9"/>
</svg>
