<svg width="24" height="24" viewBox="0 0 24 24" fill="none" xmlns="http://www.w3.org/2000/svg">
<path opacity="0.8125" d="M7.59961 1C3.94361 1 1 3.94166 1 7.59766V16.4004C1 20.0564 3.94361 23 7.59961 23H16.4004C20.0564 23 23 20.0564 23 16.4004V7.59766C23 3.94166 20.0564 1 16.4004 1H12H7.59961Z" fill="url(#paint0_linear_175_2)"/>
<path fill-rule="evenodd" clip-rule="evenodd" d="M7.2782 3H16.7581C19.1315 3 21.0363 4.90541 21.0363 7.27962V8.22449C20.8086 8.14187 20.5681 8.08597 20.3185 8.06057C20.2326 8.04359 20.1454 8.03041 20.057 8.02123C19.9788 8.00633 19.8995 7.9947 19.8192 7.9865C19.7411 7.97146 19.6619 7.95983 19.5816 7.95178C19.5036 7.93659 19.4244 7.92497 19.3441 7.91708C19.1907 7.88688 19.0325 7.8711 18.8709 7.8711H13.7757C12.8662 7.8711 11.9794 7.54348 11.264 6.94613C10.5486 6.34879 9.66189 6.02116 8.75239 6.02116H8.64704H8.54169H8.43635H8.331H8.23616H5.13425H4.91219H4.69013H4.46806H4.246H4.02597C3.7303 6.02116 3.44459 6.06383 3.17466 6.14333C3.07264 6.51111 3.01816 6.89924 3.01816 7.30078V16.7839C3.01816 17.8482 3.40098 18.8184 4.03724 19.5649C3.39012 18.8156 3 17.8372 3 16.7627V7.27962C3 4.90541 4.90478 3 7.2782 3Z" fill="#AAAAAA"/>
<path fill-rule="evenodd" clip-rule="evenodd" d="M16.74 4.97884H7.26004C5.99182 4.97884 4.98184 5.98819 4.98184 7.25846V16.7415C4.98184 18.0118 5.99182 19.0212 7.26004 19.0212H16.74C18.0082 19.0212 19.0182 18.0118 19.0182 16.7415V7.25846C19.0182 5.98819 18.0082 4.97884 16.74 4.97884ZM16.74 2.97884H7.26004C4.88663 2.97884 2.98184 4.88425 2.98184 7.25846V16.7415C2.98184 19.1157 4.88663 21.0212 7.26004 21.0212H16.74C19.1134 21.0212 21.0182 19.1157 21.0182 16.7415V7.25846C21.0182 4.88425 19.1134 2.97884 16.74 2.97884Z" fill="url(#paint1_linear_175_2)"/>
<path opacity="0.15" d="M1 7.2504C1 5.45678 2.34933 4 4.01067 4H8.188C9.26533 4 10.3067 4.39874 11.14 5.13001C11.9733 5.86128 13.016 6.26002 14.088 6.26002H19.9893C21.6507 6.26002 23 7.7168 23 9.51042V15.8759C23 19.8115 20.0467 23 16.4013 23H7.59867C3.95333 23 1 19.8115 1 15.8759V7.2504Z" fill="url(#paint2_linear_175_2)"/>
<path d="M21.5182 8.32806V17.3378C21.5182 19.8388 19.5116 21.846 17.0114 21.846H7.02494C4.52472 21.846 2.51816 19.8388 2.51816 17.3378V7.34799C2.51816 6.92499 2.57556 6.51612 2.68303 6.1287C2.96737 6.04494 3.26835 6 3.57982 6H8.01496C9.12983 6 10.2168 6.37757 11.0937 7.06597C11.9707 7.75437 13.0576 8.13194 14.1725 8.13194H20.4182C20.805 8.13194 21.1755 8.20123 21.5182 8.32806Z" fill="white" fill-opacity="0.05"/>
<path d="M21.2165 8.28282V17.1174C21.2165 19.5699 19.2697 21.5381 16.8438 21.5381H7.15429C4.72841 21.5381 2.78152 19.5699 2.78152 17.1174V7.32179C2.78152 6.90702 2.83721 6.50609 2.94148 6.12619C3.21737 6.04407 3.5094 6 3.81161 6H8.11486C9.19659 6 10.2512 6.37023 11.1021 7.04526C11.953 7.72028 13.0076 8.09051 14.0893 8.09051H20.1493C20.5246 8.09051 20.8841 8.15845 21.2165 8.28282Z" fill="white" fill-opacity="0.05"/>
<path d="M20.9532 8.24413V16.929C20.9532 19.3399 19.0619 21.2747 16.7054 21.2747H7.29271C4.93614 21.2747 3.04487 19.3399 3.04487 16.929V7.29939C3.04487 6.89164 3.09897 6.49751 3.20027 6.12406C3.46828 6.04332 3.75196 6 4.04553 6H8.22584C9.27666 6 10.3012 6.36396 11.1277 7.02754C11.9543 7.69112 12.9788 8.05508 14.0296 8.05508H19.9165C20.281 8.05508 20.6302 8.12187 20.9532 8.24413Z" fill="white" fill-opacity="0.05"/>
<path d="M20.6898 8.20544V16.7406C20.6898 19.1099 18.8542 21.0114 16.5669 21.0114H7.43113C5.14387 21.0114 3.30823 19.1099 3.30823 16.7406V7.27699C3.30823 6.87627 3.36074 6.48894 3.45906 6.12192C3.71918 6.04257 3.99452 6 4.27946 6H8.33682C9.35673 6 10.3511 6.35768 11.1533 7.00982C11.9556 7.66197 12.95 8.01965 13.9699 8.01965H19.6836C20.0374 8.01965 20.3764 8.08528 20.6898 8.20544Z" fill="white" fill-opacity="0.05"/>
<path d="M20.4265 8.16675V16.5521C20.4265 18.8799 18.6465 20.748 16.4285 20.748H7.56955C5.3516 20.748 3.57159 18.8799 3.57159 16.5521V7.25458C3.57159 6.8609 3.62251 6.48036 3.71784 6.11978C3.97009 6.04183 4.23708 6 4.51339 6H8.44779C9.4368 6 10.401 6.35141 11.179 6.99211C11.9569 7.63281 12.9212 7.98421 13.9102 7.98421H19.4507C19.7938 7.98421 20.1225 8.0487 20.4265 8.16675Z" fill="white" fill-opacity="0.05"/>
<path d="M20.1631 8.12805V16.3637C20.1631 18.6499 18.4387 20.4847 16.2901 20.4847H7.70797C5.55934 20.4847 3.83495 18.6499 3.83495 16.3637V7.23218C3.83495 6.84552 3.88427 6.47178 3.97663 6.11764C4.22099 6.04108 4.47964 6 4.74731 6H8.55877C9.51687 6 10.451 6.34513 11.2046 6.97439C11.9582 7.60365 12.8923 7.94878 13.8504 7.94878H19.2179C19.5502 7.94878 19.8687 8.01211 20.1631 8.12805Z" fill="white" fill-opacity="0.05"/>
<path d="M21.4282 8.38107V17.3054C21.4282 19.7828 19.4406 21.771 16.9641 21.771H7.07225C4.59571 21.771 2.60816 19.7828 2.60816 17.3054V7.41028C2.60816 6.99129 2.66501 6.58629 2.77147 6.20254C3.05312 6.11958 3.35124 6.07506 3.65976 6.07506H8.05288C9.1572 6.07506 10.2339 6.44905 11.1025 7.13093C11.9711 7.81281 13.0478 8.1868 14.1521 8.1868H20.3387C20.7217 8.1868 21.0888 8.25543 21.4282 8.38107Z" fill="white" fill-opacity="0.05"/>
<path d="M21.1294 8.33625V17.0872C21.1294 19.5164 19.201 21.4659 16.7981 21.4659H7.20037C4.79747 21.4659 2.86902 19.5164 2.86902 17.0872V7.38433C2.86902 6.97348 2.92418 6.57636 3.02747 6.20006C3.30075 6.11871 3.59001 6.07506 3.88935 6.07506H8.15184C9.22332 6.07506 10.268 6.44178 11.1108 7.11041C11.9536 7.77904 12.9982 8.14577 14.0697 8.14577H20.0723C20.444 8.14577 20.8001 8.21306 21.1294 8.33625Z" fill="white" fill-opacity="0.05"/>
<path d="M20.8685 8.29793V16.9005C20.8685 19.2886 18.9952 21.2051 16.661 21.2051H7.33748C5.00323 21.2051 3.12989 19.2886 3.12989 16.9005V7.36214C3.12989 6.95826 3.18347 6.56786 3.28381 6.19794C3.54928 6.11797 3.83027 6.07506 4.12106 6.07506H8.26177C9.30263 6.07506 10.3174 6.43557 11.1362 7.09286C11.9549 7.75016 12.9697 8.11067 14.0105 8.11067H19.8416C20.2027 8.11067 20.5487 8.17682 20.8685 8.29793Z" fill="white" fill-opacity="0.05"/>
<path d="M20.6077 8.2596V16.7139C20.6077 19.0607 18.7894 20.9442 16.5238 20.9442H7.47459C5.209 20.9442 3.39075 19.0607 3.39075 16.7139V7.33995C3.39075 6.94303 3.44276 6.55936 3.54014 6.19582C3.79781 6.11723 4.07053 6.07506 4.35278 6.07506H8.37169C9.38194 6.07506 10.3669 6.42935 11.1615 7.07532C11.9562 7.72128 12.9411 8.07557 13.9514 8.07557H19.611C19.9614 8.07557 20.2972 8.14059 20.6077 8.2596Z" fill="white" fill-opacity="0.05"/>
<path d="M20.3468 8.22128V16.5272C20.3468 18.8329 18.5837 20.6834 16.3867 20.6834H7.6117C5.41476 20.6834 3.65161 18.8329 3.65161 16.5272V7.31776C3.65161 6.9278 3.70204 6.55087 3.79648 6.1937C4.04633 6.11649 4.3108 6.07506 4.58449 6.07506H8.48162C9.46125 6.07506 10.4164 6.42314 11.1869 7.05777C11.9575 7.6924 12.9126 8.04048 13.8922 8.04048H19.3803C19.7201 8.04048 20.0457 8.10435 20.3468 8.22128Z" fill="white" fill-opacity="0.05"/>
<path d="M20.0859 8.18295V16.3406C20.0859 18.6051 18.3779 20.4225 16.2496 20.4225H7.74881C5.62052 20.4225 3.91247 18.6051 3.91247 16.3406V7.29557C3.91247 6.91257 3.96133 6.54237 4.05281 6.19158C4.29486 6.11575 4.55106 6.07506 4.8162 6.07506H8.59154C9.54056 6.07506 10.4658 6.41692 11.2123 7.04022C11.9588 7.66352 12.8841 8.00538 13.8331 8.00538H19.1497C19.4789 8.00538 19.7943 8.06811 20.0859 8.18295Z" fill="white" fill-opacity="0.05"/>
<path d="M21.3282 8.43996V17.2695C21.3282 19.7205 19.3617 21.6876 16.9115 21.6876H7.12481C4.67458 21.6876 2.70816 19.7205 2.70816 17.2695V7.47949C2.70816 7.06495 2.76441 6.66426 2.86973 6.28458C3.14839 6.2025 3.44334 6.15846 3.74859 6.15846H8.09502C9.1876 6.15846 10.2528 6.52848 11.1122 7.20311C11.9716 7.87775 13.0369 8.24776 14.1294 8.24776H20.2502C20.6292 8.24776 20.9924 8.31566 21.3282 8.43996Z" fill="white" fill-opacity="0.05"/>
<path d="M21.0326 8.39563V17.0535C21.0326 19.4569 19.1246 21.3858 16.7473 21.3858H7.25156C4.8742 21.3858 2.96625 19.4569 2.96625 17.0535V7.45382C2.96625 7.04734 3.02082 6.65443 3.12302 6.28213C3.39339 6.20165 3.67957 6.15846 3.97574 6.15846H8.19293C9.25302 6.15846 10.2866 6.52129 11.1204 7.18281C11.9543 7.84434 12.9878 8.20716 14.0479 8.20716H19.9867C20.3544 8.20716 20.7068 8.27374 21.0326 8.39563Z" fill="white" fill-opacity="0.05"/>
<path d="M20.7745 8.35771V16.8689C20.7745 19.2315 18.921 21.1277 16.6116 21.1277H7.38722C5.07778 21.1277 3.22434 19.2315 3.22434 16.8689V7.43186C3.22434 7.03227 3.27736 6.64602 3.37663 6.28003C3.63928 6.20092 3.91728 6.15846 4.20499 6.15846H8.30169C9.33149 6.15846 10.3355 6.51514 11.1455 7.16545C11.9556 7.81576 12.9596 8.17244 13.9894 8.17244H19.7585C20.1157 8.17244 20.458 8.23789 20.7745 8.35771Z" fill="white" fill-opacity="0.05"/>
<path d="M20.5164 8.31979V16.6842C20.5164 19.0061 18.7175 20.8696 16.476 20.8696H7.52287C5.28136 20.8696 3.48243 19.0061 3.48243 16.6842V7.40991C3.48243 7.01721 3.53389 6.63762 3.63024 6.27794C3.88516 6.20018 4.15499 6.15846 4.43423 6.15846H8.41044C9.40996 6.15846 10.3844 6.50899 11.1706 7.14809C11.9569 7.78719 12.9313 8.13771 13.9308 8.13771H19.5303C19.877 8.13771 20.2092 8.20204 20.5164 8.31979Z" fill="white" fill-opacity="0.05"/>
<path d="M20.2583 8.28187V16.4995C20.2583 18.7807 18.5139 20.6115 16.3403 20.6115H7.65852C5.48493 20.6115 3.74052 18.7807 3.74052 16.4995V7.38795C3.74052 7.00214 3.79042 6.62921 3.88385 6.27584C4.13105 6.19945 4.3927 6.15846 4.66348 6.15846H8.5192C9.48842 6.15846 10.4334 6.50284 11.1958 7.13072C11.9581 7.75861 12.9031 8.10299 13.8723 8.10299H19.3021C19.6383 8.10299 19.9604 8.16618 20.2583 8.28187Z" fill="white" fill-opacity="0.05"/>
<path d="M20.0002 8.24395V16.3149C20.0002 18.5553 18.3103 20.3534 16.2047 20.3534H7.79418C5.68851 20.3534 3.99861 18.5553 3.99861 16.3149V7.366C3.99861 6.98707 4.04695 6.6208 4.13746 6.27375C4.37693 6.19872 4.63041 6.15846 4.89273 6.15846H8.62796C9.56689 6.15846 10.4823 6.49669 11.2209 7.11336C11.9594 7.73004 12.8749 8.06827 13.8138 8.06827H19.0739C19.3996 8.06827 19.7116 8.13033 20.0002 8.24395Z" fill="white" fill-opacity="0.05"/>
<path opacity="0.625" d="M23 10.926C23 9.25019 21.6534 7.89167 19.9922 7.89167H14.0633C13.0049 7.89167 11.9731 7.53009 11.1406 6.87083C10.3082 6.21158 9.27633 5.85 8.218 5.85H4.00781C2.34664 5.85 1 7.20853 1 8.88435V16.3422C1 20.0304 3.94361 23 7.59961 23H16.4004C20.0547 23 22.9973 20.0332 23 16.3473V10.926Z" fill="url(#paint3_linear_175_2)"/>
<path opacity="0.2375" d="M14.5001 1.4997H9.50012C9.22345 1.4997 8.99917 1.72356 8.99917 1.9997C8.99917 2.27585 9.22345 2.4997 9.50012 2.4997H14.5001C14.7768 2.4997 15.0011 2.27585 15.0011 1.9997C15.0011 1.72356 14.7768 1.4997 14.5001 1.4997Z" fill="black"/>
<path opacity="0.5" d="M10.5333 8.5V9.96667H9.8C9.39667 9.96667 9.06667 10.2967 9.06667 10.7V13.6333L9.46266 14.0293L6.962 18.4L6.86667 20.2333L8.238 19.1333L8.766 18.202C9.55067 18.5687 10.4013 18.7667 11.2667 18.7667C12.132 18.7667 12.9827 18.5687 13.7673 18.202L14.2953 19.1333L15.6667 20.2333L15.5713 18.4L15.0067 17.4173C16.356 16.3027 17.1333 14.6453 17.1333 12.9H15.6667C15.6667 14.1173 15.1607 15.2833 14.266 16.112L13.0707 14.0293L13.4667 13.6333V10.7C13.4667 10.2967 13.1367 9.96667 12.7333 9.96667H12V8.5H10.5333ZM11.2667 11.4333C11.67 11.4333 12 11.7633 12 12.1667C12 12.57 11.67 12.9 11.2667 12.9C10.8633 12.9 10.5333 12.57 10.5333 12.1667C10.5333 11.7633 10.8633 11.4333 11.2667 11.4333ZM10.5407 15.1C11.0027 15.3273 11.4647 15.496 11.9927 15.1L13.034 16.926C12.4767 17.168 11.8753 17.3 11.2667 17.3C10.658 17.3 10.0567 17.168 9.49933 16.926L10.5407 15.1Z" fill="white"/>
<defs>
<linearGradient id="paint0_linear_175_2" x1="23" y1="1" x2="-0.00292419" y2="11.9939" gradientUnits="userSpaceOnUse">
<stop stop-color="#4190C2"/>
<stop offset="1" stop-color="#014270"/>
</linearGradient>
<linearGradient id="paint1_linear_175_2" x1="21" y1="3" x2="20.5" y2="6" gradientUnits="userSpaceOnUse">
<stop stop-color="#FAFAFA"/>
<stop offset="1" stop-color="#FAFAFA" stop-opacity="0"/>
</linearGradient>
<linearGradient id="paint2_linear_175_2" x1="23" y1="8.85832" x2="1.01025" y2="9.34093" gradientUnits="userSpaceOnUse">
<stop stop-opacity="0.437507"/>
<stop offset="1" stop-opacity="0.87451"/>
</linearGradient>
<linearGradient id="paint3_linear_175_2" x1="1" y1="23" x2="11.1245" y2="5.49365" gradientUnits="userSpaceOnUse">
<stop stop-color="#0378D0"/>
<stop offset="1" stop-color="#32A7FF"/>
</linearGradient>
</defs>
</svg>
