<?xml version="1.0" encoding="UTF-8" standalone="no"?>
<svg
   width="24"
   height="24"
   fill="none"
   version="1.1"
   id="svg21"
   sodipodi:docname="default-folder-system.svg"
   inkscape:version="1.3 (0e150ed6c4, 2023-07-21)"
   xmlns:inkscape="http://www.inkscape.org/namespaces/inkscape"
   xmlns:sodipodi="http://sodipodi.sourceforge.net/DTD/sodipodi-0.dtd"
   xmlns="http://www.w3.org/2000/svg"
   xmlns:svg="http://www.w3.org/2000/svg">
  <sodipodi:namedview
     id="namedview21"
     pagecolor="#ffffff"
     bordercolor="#000000"
     borderopacity="0.25"
     inkscape:showpageshadow="2"
     inkscape:pageopacity="0.0"
     inkscape:pagecheckerboard="0"
     inkscape:deskcolor="#d1d1d1"
     inkscape:zoom="24.395833"
     inkscape:cx="2.1929975"
     inkscape:cy="13.711358"
     inkscape:window-width="3440"
     inkscape:window-height="1358"
     inkscape:window-x="2560"
     inkscape:window-y="0"
     inkscape:window-maximized="1"
     inkscape:current-layer="svg21" />
  <defs
     id="defs21">
    <linearGradient
       id="a"
       x1="23"
       x2="1"
       y1="1"
       y2="12"
       gradientUnits="userSpaceOnUse">
      <stop
         stop-color="#E3C880"
         id="stop7" />
      <stop
         offset="1"
         stop-color="#6F5C38"
         id="stop8" />
    </linearGradient>
    <linearGradient
       id="b"
       x1="21"
       x2="3"
       y1="4"
       y2="4"
       gradientUnits="userSpaceOnUse">
      <stop
         stop-opacity=".5"
         id="stop9" />
      <stop
         offset=".89"
         id="stop10" />
      <stop
         offset="1"
         stop-opacity="0"
         id="stop11" />
    </linearGradient>
    <linearGradient
       id="c"
       x1="12"
       x2="11.5"
       y1="3"
       y2="8"
       gradientUnits="userSpaceOnUse">
      <stop
         stop-color="#DDD"
         id="stop12" />
      <stop
         offset="1"
         stop-color="#CCC"
         stop-opacity="0"
         id="stop13" />
    </linearGradient>
    <linearGradient
       id="d"
       x1="23"
       x2="1.012"
       y1="9"
       y2="9.521"
       gradientUnits="userSpaceOnUse">
      <stop
         stop-opacity=".5"
         id="stop14" />
      <stop
         offset="1"
         id="stop15" />
    </linearGradient>
    <linearGradient
       id="e"
       x1="23"
       x2="1.429"
       y1="5.4"
       y2="23.512"
       gradientUnits="userSpaceOnUse">
      <stop
         stop-color="#FFE795"
         id="stop16" />
      <stop
         offset="1"
         stop-color="#7A653E"
         id="stop17" />
    </linearGradient>
    <linearGradient
       id="f"
       x1="15"
       x2="5.5"
       y1="5.5"
       y2="19.5"
       gradientUnits="userSpaceOnUse">
      <stop
         stop-color="#FFE795"
         id="stop18" />
      <stop
         offset="1"
         stop-color="#7A653E"
         id="stop19" />
    </linearGradient>
    <linearGradient
       id="g"
       x1="18"
       x2="6"
       y1="9"
       y2="21"
       gradientTransform="matrix(0.87496,0,0,0.94072,1.489,0.504)"
       gradientUnits="userSpaceOnUse">
      <stop
         stop-color="#999"
         id="stop20" />
      <stop
         offset="1"
         stop-color="#333"
         id="stop21" />
    </linearGradient>
    <linearGradient
       x1="23"
       y1="1"
       x2="1"
       y2="12"
       gradientUnits="userSpaceOnUse"
       gradientTransform="scale(0.75)"
       spreadMethod="pad"
       id="linearGradient2">
      <stop
         style="stop-opacity:1;stop-color:#2675a7"
         offset="0"
         id="stop1-9" />
      <stop
         style="stop-opacity:1;stop-color:#1d5e8c"
         offset="1"
         id="stop2-8" />
    </linearGradient>
    <linearGradient
       x1="21"
       y1="4"
       x2="3"
       y2="4"
       gradientUnits="userSpaceOnUse"
       gradientTransform="scale(0.75)"
       spreadMethod="pad"
       id="linearGradient8">
      <stop
         style="stop-opacity:0.43750668;stop-color:#000000"
         offset="0"
         id="stop6-2" />
      <stop
         style="stop-opacity:0.87501335;stop-color:#000000"
         offset="0.89"
         id="stop7-6" />
      <stop
         style="stop-opacity:0;stop-color:#000000"
         offset="1"
         id="stop8-7" />
    </linearGradient>
    <clipPath
       clipPathUnits="userSpaceOnUse"
       id="clipPath8-6">
      <path
         d="M 0,0 H 19 V 19 H 0 Z"
         id="path8-4" />
    </clipPath>
    <mask
       maskUnits="userSpaceOnUse"
       x="0"
       y="0"
       width="1"
       height="1"
       id="mask10-2">
      <path
         id="path11-2"
         d="M 0,0 H 18 V 18 H 0 Z"
         style="fill:url(#linearGradient12);fill-opacity:1;fill-rule:nonzero;stroke:none"
         transform="scale(1.3333333)"
         clip-path="url(#clipPath12-1)" />
    </mask>
    <linearGradient
       x1="12"
       y1="3"
       x2="11.5"
       y2="8"
       gradientUnits="userSpaceOnUse"
       gradientTransform="matrix(0.75,0,0,-0.75,0,18)"
       spreadMethod="pad"
       id="linearGradient12">
      <stop
         style="stop-opacity:1;stop-color:#ffffff"
         offset="0"
         id="stop11-5" />
      <stop
         style="stop-opacity:0;stop-color:#ffffff"
         offset="1"
         id="stop12-9" />
    </linearGradient>
    <clipPath
       clipPathUnits="userSpaceOnUse"
       id="clipPath12-1">
      <path
         d="M 1,1 H 17 V 17 H 1 Z"
         id="path12-8" />
    </clipPath>
    <linearGradient
       x1="12"
       y1="3"
       x2="11.5"
       y2="8"
       gradientUnits="userSpaceOnUse"
       gradientTransform="matrix(0.75,0,0,-0.75,0,18)"
       spreadMethod="pad"
       id="linearGradient14">
      <stop
         style="stop-opacity:1;stop-color:#ffffff"
         offset="0"
         id="stop13-3" />
      <stop
         style="stop-opacity:1;stop-color:#cccccc"
         offset="1"
         id="stop14-9" />
    </linearGradient>
    <clipPath
       clipPathUnits="userSpaceOnUse"
       id="clipPath14-1">
      <path
         d="M 1,1 H 17 V 17 H 1 Z"
         id="path14-3" />
    </clipPath>
    <linearGradient
       x1="23"
       y1="9"
       x2="1.012"
       y2="9.5209999"
       gradientUnits="userSpaceOnUse"
       gradientTransform="scale(0.75)"
       spreadMethod="pad"
       id="linearGradient18">
      <stop
         style="stop-opacity:0.43750668;stop-color:#000000"
         offset="0"
         id="stop17-9" />
      <stop
         style="stop-opacity:0.87501335;stop-color:#000000"
         offset="1"
         id="stop18-7" />
    </linearGradient>
    <clipPath
       clipPathUnits="userSpaceOnUse"
       id="clipPath18-4">
      <path
         d="M 0,0 H 19 V 19 H 0 Z"
         id="path18-4" />
    </clipPath>
    <linearGradient
       x1="23"
       y1="5.4000001"
       x2="1.429"
       y2="23.511999"
       gradientUnits="userSpaceOnUse"
       gradientTransform="scale(0.75)"
       spreadMethod="pad"
       id="linearGradient20">
      <stop
         style="stop-opacity:1;stop-color:#64b4f4"
         offset="0"
         id="stop19-9" />
      <stop
         style="stop-opacity:1;stop-color:#127bdc"
         offset="1"
         id="stop20-7" />
    </linearGradient>
    <linearGradient
       id="l"
       x1="15"
       x2="5.5"
       y1="5.5"
       y2="19.5"
       gradientUnits="userSpaceOnUse">
      <stop
         offset="0"
         stop-color="#85F8FF"
         style="stop-color:#f2f2f2;stop-opacity:1"
         id="stop10-6" />
      <stop
         offset="1"
         stop-color="#105BF6"
         style="stop-color:#11599c;stop-opacity:1"
         id="stop11-8" />
    </linearGradient>
    <clipPath
       clipPathUnits="userSpaceOnUse"
       id="clipPath8-6-2">
      <path
         d="M 0,0 H 19 V 19 H 0 Z"
         id="path8-4-7" />
    </clipPath>
    <linearGradient
       x1="23"
       y1="9"
       x2="1.012"
       y2="9.5209999"
       gradientUnits="userSpaceOnUse"
       gradientTransform="scale(0.75)"
       spreadMethod="pad"
       id="linearGradient13">
      <stop
         style="stop-opacity:0.43750668;stop-color:#000000"
         offset="0"
         id="stop12-4" />
      <stop
         style="stop-color:#000000;stop-opacity:0.87450981;"
         offset="1"
         id="stop13-33" />
    </linearGradient>
    <clipPath
       clipPathUnits="userSpaceOnUse"
       id="clipPath18-4-3">
      <path
         d="M 0,0 H 19 V 19 H 0 Z"
         id="path18-4-6" />
    </clipPath>
    <linearGradient
       x1="23"
       y1="5.4000001"
       x2="1.429"
       y2="23.511999"
       gradientUnits="userSpaceOnUse"
       gradientTransform="scale(0.75)"
       spreadMethod="pad"
       id="linearGradient15">
      <stop
         style="stop-color:#127bdc;stop-opacity:1;"
         offset="0"
         id="stop14-3" />
      <stop
         style="stop-color:#64b4f4;stop-opacity:1;"
         offset="1"
         id="stop15-8" />
    </linearGradient>
    <linearGradient
       id="paint4_linear_0_1"
       x1="1"
       y1="23"
       x2="21.931101"
       y2="4.7725801"
       gradientUnits="userSpaceOnUse">
      <stop
         stop-color="#318CDE"
         id="stop15-9" />
      <stop
         offset="1"
         stop-color="#70B7F1"
         id="stop16-4" />
    </linearGradient>
    <linearGradient
       id="paint5_linear_0_1"
       x1="1"
       y1="22.955799"
       x2="21.934299"
       y2="4.7730298"
       gradientUnits="userSpaceOnUse">
      <stop
         stop-color="#1E71BD"
         id="stop17-7" />
      <stop
         offset="1"
         stop-color="#559CD9"
         id="stop18-8" />
    </linearGradient>
    <linearGradient
       id="paint3_linear_0_1"
       x1="23"
       y1="8.6026201"
       x2="1.0114599"
       y2="9.1120195"
       gradientUnits="userSpaceOnUse">
      <stop
         stop-opacity="0.437507"
         id="stop13-4" />
      <stop
         offset="1"
         stop-opacity="0.87451"
         id="stop14-5" />
    </linearGradient>
    <linearGradient
       id="paint2_linear_0_1"
       x1="21"
       y1="3"
       x2="20.5"
       y2="6"
       gradientUnits="userSpaceOnUse">
      <stop
         stop-color="#FAFAFA"
         id="stop11-0" />
      <stop
         offset="1"
         stop-color="#FAFAFA"
         stop-opacity="0"
         id="stop12-3" />
    </linearGradient>
    <linearGradient
       id="paint1_linear_0_1"
       x1="21"
       y1="3.75"
       x2="3"
       y2="3.75"
       gradientUnits="userSpaceOnUse">
      <stop
         stop-opacity="0.5"
         id="stop8-6" />
      <stop
         offset="0.890123"
         id="stop9-1" />
      <stop
         offset="1"
         stop-opacity="0"
         id="stop10-0" />
    </linearGradient>
    <linearGradient
       id="paint0_linear_0_1"
       x1="24.062401"
       y1="-0.504188"
       x2="-0.065581299"
       y2="11.5558"
       gradientUnits="userSpaceOnUse">
      <stop
         stop-color="#2675A7"
         id="stop6" />
      <stop
         offset="1"
         stop-color="#1D5E8C"
         id="stop7-63" />
    </linearGradient>
  </defs>
  <path
     opacity="0.875"
     d="M 7.59961,1 C 3.94361,1 1,3.94166 1,7.59766 V 16.4004 C 1,20.0564 3.94361,23 7.59961,23 H 16.4004 C 20.0564,23 23,20.0564 23,16.4004 V 7.59766 C 23,3.94166 20.0564,1 16.4004,1 H 12 Z"
     fill="url(#paint0_linear_0_1)"
     id="path1"
     style="fill:url(#paint0_linear_0_1)" />
  <rect
     opacity="0.125"
     x="3"
     y="2"
     width="18"
     height="18"
     rx="4.4000001"
     fill="url(#paint1_linear_0_1)"
     fill-opacity="0.875"
     id="rect1"
     style="fill:url(#paint1_linear_0_1)" />
  <path
     d="M 7.26004,2.97884 H 16.74 c 2.3734,0 4.2782,1.90541 4.2782,4.27962 v 9.48304 c 0,2.3742 -1.9048,4.2797 -4.2782,4.2797 H 7.26004 c -2.37341,0 -4.2782,-1.9055 -4.2782,-4.2797 V 7.25846 c 0,-2.37421 1.90479,-4.27962 4.2782,-4.27962 z"
     fill="#cccccc"
     id="path2" />
  <path
     fill-rule="evenodd"
     clip-rule="evenodd"
     d="M 16.74,4.97884 H 7.26004 c -1.26822,0 -2.2782,1.00935 -2.2782,2.27962 v 9.48304 c 0,1.2703 1.00998,2.2797 2.2782,2.2797 H 16.74 c 1.2682,0 2.2782,-1.0094 2.2782,-2.2797 V 7.25846 c 0,-1.27027 -1.01,-2.27962 -2.2782,-2.27962 z m 0,-2 H 7.26004 c -2.37341,0 -4.2782,1.90541 -4.2782,4.27962 v 9.48304 c 0,2.3742 1.90479,4.2797 4.2782,4.2797 H 16.74 c 2.3734,0 4.2782,-1.9055 4.2782,-4.2797 V 7.25846 c 0,-2.37421 -1.9048,-4.27962 -4.2782,-4.27962 z"
     fill="url(#paint2_linear_0_1)"
     id="path3"
     style="fill:url(#paint2_linear_0_1)" />
  <path
     opacity="0.25"
     d="M 1,7.07932 C 1,5.3801 2.34933,4 4.01067,4 H 8.188 c 1.07733,0 2.1187,0.37776 2.952,1.07054 0.8333,0.69278 1.876,1.07053 2.948,1.07053 h 5.9013 C 21.6507,6.14107 23,7.52118 23,9.2204 v 6.0305 C 23,18.9793 20.0467,22 16.4013,22 H 7.59867 C 3.95333,22 1,18.9793 1,15.2509 Z"
     fill="url(#paint3_linear_0_1)"
     fill-opacity="0.75"
     id="path4"
     style="fill:url(#paint3_linear_0_1)" />
  <g
     opacity="0.875"
     id="g6">
    <path
       d="M 23,11.0316 C 23,9.37045 21.6534,8.02381 19.9922,8.02381 h -5.9289 c -1.0584,0 -2.0902,-0.35842 -2.9227,-1.01191 C 10.3082,6.35842 9.27633,6 8.218,6 H 4.00781 C 2.34664,6 1,7.34664 1,9.00781 V 16.4004 C 1,20.0564 3.94361,23 7.59961,23 H 16.4004 C 20.0547,23 22.9973,20.0591 23,16.4055 Z"
       fill="url(#paint4_linear_0_1)"
       id="path5"
       style="fill:url(#paint4_linear_0_1)" />
    <path
       d="M 19.9922,9.02381 C 21.1011,9.02381 22,9.92274 22,11.0316 v 5.3731 C 21.9977,19.5064 19.5027,22 16.4004,22 H 7.59961 C 4.4959,22 2,19.5041 2,16.4004 V 9.00781 C 2,7.89893 2.89893,7 4.00781,7 H 8.218 c 0.83327,0 1.6479,0.28256 2.3052,0.7985 1.0077,0.79103 2.2567,1.22531 3.5401,1.22531 z"
       stroke="url(#paint5_linear_0_1)"
       stroke-opacity="0.375"
       stroke-width="2"
       id="path6-2"
       style="stroke:url(#paint5_linear_0_1)" />
  </g>
  <path
     fill="url(#g)"
     d="m 11.141,9.072 c -0.299,0 -0.586,0.118 -0.797,0.33 -0.21,0.21 -0.329,0.495 -0.327,0.793 a 1.126,1.126 0 0 1 -1.13,1.107 1.086,1.086 0 0 1 -0.54,-0.15 1.133,1.133 0 0 0 -1.54,0.414 l -0.394,0.645 a 1.12,1.12 0 0 0 0.41,1.532 1.122,1.122 0 0 1 0,1.945 c -0.537,0.31 -0.72,0.994 -0.41,1.528 l 0.372,0.64 a 1.13,1.13 0 0 0 1.54,0.434 1.124,1.124 0 0 1 1.535,0.41 c 0.098,0.162 0.149,0.348 0.15,0.537 0,0.62 0.507,1.123 1.131,1.123 h 0.74 c 0.621,0 1.126,-0.5 1.129,-1.118 a 1.115,1.115 0 0 1 0.329,-0.796 c 0.212,-0.211 0.5,-0.329 0.8,-0.327 0.19,0.005 0.376,0.057 0.54,0.15 a 1.133,1.133 0 0 0 1.54,-0.409 l 0.39,-0.644 a 1.114,1.114 0 0 0 -0.411,-1.532 1.117,1.117 0 0 1 0,-1.94 c 0.534,-0.312 0.718,-0.993 0.41,-1.528 v -0.005 l -0.367,-0.634 a 1.131,1.131 0 0 0 -1.54,-0.414 1.13,1.13 0 0 1 -1.54,-0.398 1.068,1.068 0 0 1 -0.151,-0.537 1.12,1.12 0 0 0 -0.319,-0.816 1.132,1.132 0 0 0 -0.81,-0.34 z m 0.339,3.763 h 0.032 c 0.501,0 0.982,0.198 1.337,0.55 a 1.876,1.876 0 0 1 -0.614,3.07 1.9,1.9 0 0 1 -2.06,-0.409 1.88,1.88 0 0 1 -0.555,-1.33 c 0,-0.493 0.195,-0.967 0.543,-1.32 0.348,-0.351 0.82,-0.553 1.317,-0.561 z"
     style="opacity:0.15;fill:#1a1a1a;stroke-width:0.907247"
     id="path6" />
  <path
     fill="url(#g)"
     d="m 11.617,8.5 c -0.298,0 -0.585,0.119 -0.796,0.33 -0.211,0.21 -0.33,0.496 -0.328,0.793 A 1.126,1.126 0 0 1 9.364,10.731 1.086,1.086 0 0 1 8.824,10.58 1.133,1.133 0 0 0 7.284,10.994 L 6.89,11.639 a 1.12,1.12 0 0 0 0.41,1.533 c 0.349,0.2 0.565,0.571 0.565,0.972 0,0.402 -0.216,0.772 -0.565,0.973 -0.537,0.309 -0.72,0.993 -0.41,1.527 l 0.371,0.64 a 1.13,1.13 0 0 0 1.54,0.435 1.124,1.124 0 0 1 1.536,0.409 c 0.097,0.163 0.148,0.348 0.15,0.537 0,0.621 0.507,1.124 1.13,1.124 h 0.74 c 0.622,0 1.127,-0.5 1.13,-1.119 a 1.115,1.115 0 0 1 0.328,-0.796 c 0.212,-0.21 0.5,-0.328 0.8,-0.327 0.19,0.005 0.376,0.057 0.541,0.15 a 1.133,1.133 0 0 0 1.54,-0.408 l 0.39,-0.645 a 1.114,1.114 0 0 0 -0.412,-1.532 1.117,1.117 0 0 1 0,-1.94 c 0.534,-0.311 0.718,-0.993 0.411,-1.528 v -0.005 l -0.368,-0.634 a 1.131,1.131 0 0 0 -1.539,-0.414 1.13,1.13 0 0 1 -1.54,-0.398 1.068,1.068 0 0 1 -0.152,-0.537 1.121,1.121 0 0 0 -0.318,-0.815 1.132,1.132 0 0 0 -0.81,-0.34 z m 0.34,3.763 h 0.031 c 0.502,0 0.983,0.198 1.337,0.551 a 1.876,1.876 0 0 1 -0.613,3.069 1.9,1.9 0 0 1 -2.061,-0.408 1.88,1.88 0 0 1 -0.554,-1.33 c 0,-0.494 0.195,-0.968 0.542,-1.32 0.348,-0.352 0.821,-0.554 1.317,-0.562 z"
     style="fill:url(#g);stroke-width:0.907247"
     id="path7" />
</svg>
