<?xml version="1.0" encoding="UTF-8" standalone="no"?>
<svg
   xml:space="preserve"
   id="svg20"
   width="24"
   height="24"
   fill="none"
   version="1.1"
   sodipodi:docname="default-folder-recent.svg"
   inkscape:version="1.3 (0e150ed6c4, 2023-07-21)"
   xmlns:inkscape="http://www.inkscape.org/namespaces/inkscape"
   xmlns:sodipodi="http://sodipodi.sourceforge.net/DTD/sodipodi-0.dtd"
   xmlns="http://www.w3.org/2000/svg"
   xmlns:svg="http://www.w3.org/2000/svg"><sodipodi:namedview
     id="namedview1"
     pagecolor="#ffffff"
     bordercolor="#000000"
     borderopacity="0.25"
     inkscape:showpageshadow="2"
     inkscape:pageopacity="0.0"
     inkscape:pagecheckerboard="0"
     inkscape:deskcolor="#d1d1d1"
     inkscape:zoom="24.395833"
     inkscape:cx="0.88129805"
     inkscape:cy="12.563621"
     inkscape:window-width="3440"
     inkscape:window-height="1358"
     inkscape:window-x="2560"
     inkscape:window-y="0"
     inkscape:window-maximized="1"
     inkscape:current-layer="svg20" /><defs
     id="defs20"><linearGradient
       id="paint0_linear_207_267"
       x1="23"
       x2="1"
       y1="1"
       y2="12"
       gradientUnits="userSpaceOnUse"><stop
         id="stop8"
         stop-color="#E3C880" /><stop
         id="stop9"
         offset="1"
         stop-color="#6F5C38" /></linearGradient><linearGradient
       id="paint1_linear_207_267"
       x1="21"
       x2="3"
       y1="4"
       y2="4"
       gradientUnits="userSpaceOnUse"><stop
         id="stop10"
         stop-opacity=".5" /><stop
         id="stop11"
         offset=".89" /><stop
         id="stop12"
         offset="1"
         stop-opacity="0" /></linearGradient><linearGradient
       id="paint2_linear_207_267"
       x1="12"
       x2="11.5"
       y1="3"
       y2="8"
       gradientUnits="userSpaceOnUse"><stop
         id="stop13"
         stop-color="#DDD" /><stop
         id="stop14"
         offset="1"
         stop-color="#CCC"
         stop-opacity="0" /></linearGradient><linearGradient
       id="paint3_linear_207_267"
       x1="23"
       x2="1.012"
       y1="9"
       y2="9.521"
       gradientUnits="userSpaceOnUse"><stop
         id="stop15"
         stop-opacity=".5" /><stop
         id="stop16"
         offset="1" /></linearGradient><linearGradient
       id="paint4_linear_207_267"
       x1="23"
       x2="1.429"
       y1="5.4"
       y2="23.512"
       gradientUnits="userSpaceOnUse"><stop
         id="stop17"
         stop-color="#FFE795" /><stop
         id="stop18"
         offset="1"
         stop-color="#7A653E" /></linearGradient><linearGradient
       id="paint5_linear_207_267"
       x1="15"
       x2="5.5"
       y1="5.5"
       y2="19.5"
       gradientUnits="userSpaceOnUse"><stop
         id="stop19"
         stop-color="#FFE795" /><stop
         id="stop20"
         offset="1"
         stop-color="#7A653E" /></linearGradient><radialGradient
       id="paint0_radial_29_23"
       cx="0"
       cy="0"
       r="1"
       gradientTransform="matrix(0 22 -22 0 12 1)"
       gradientUnits="userSpaceOnUse"><stop
         id="stop11537"
         stop-color="#8FC8FF" /><stop
         id="stop11539"
         offset="1"
         stop-color="#0056A8"
         style="stop-color:#069;stop-opacity:1" /></radialGradient><radialGradient
       id="paint0_radial_1_40"
       cx="0"
       cy="0"
       r="1"
       gradientTransform="matrix(0 24 -24 0 -2.29 44.737)"
       gradientUnits="userSpaceOnUse"><stop
         id="stop11601"
         stop-color="#C2E5FF" /><stop
         id="stop11603"
         offset="1"
         stop-color="#3276AA" /></radialGradient><radialGradient
       id="radialGradient16463"
       cx="0"
       cy="0"
       r="1"
       fx="0"
       fy="0"
       gradientTransform="matrix(0 16.5 -16.5 0 9 .75)"
       gradientUnits="userSpaceOnUse"
       spreadMethod="pad"><stop
         id="stop16459"
         offset="0"
         style="stop-opacity:1;stop-color:#8fc8ff" /><stop
         id="stop16461"
         offset="1"
         style="stop-opacity:1;stop-color:#069" /></radialGradient><radialGradient
       id="radialGradient16463-5"
       cx="0"
       cy="0"
       r="1"
       fx="0"
       fy="0"
       gradientTransform="matrix(0 16.5 -16.5 0 9 .75)"
       gradientUnits="userSpaceOnUse"
       spreadMethod="pad"><stop
         id="stop16459-9"
         offset="0"
         style="stop-opacity:1;stop-color:#8fc8ff" /><stop
         id="stop16461-4"
         offset="1"
         style="stop-opacity:1;stop-color:#069" /></radialGradient><clipPath
       id="clipPath16473"
       clipPathUnits="userSpaceOnUse"><path
         id="path16471"
         d="M0 0h151v116H0Z" /></clipPath><clipPath
       id="clipPath16473-9"
       clipPathUnits="userSpaceOnUse"><path
         id="path16471-0"
         d="M0 0h151v116H0Z" /></clipPath><style
       id="style11382">.cls-1{fill:#069}.cls-2{fill:#2991c9}.cls-3{fill:#fff}.cls-4{fill:#002a44}.cls-5{fill:#3380cc}.cls-6{fill:#cc5e55}</style><linearGradient
       x1="23"
       y1="1"
       x2="1"
       y2="12"
       gradientUnits="userSpaceOnUse"
       gradientTransform="scale(0.75)"
       spreadMethod="pad"
       id="linearGradient2"><stop
         style="stop-opacity:1;stop-color:#2675a7"
         offset="0"
         id="stop1-9" /><stop
         style="stop-opacity:1;stop-color:#1d5e8c"
         offset="1"
         id="stop2-8" /></linearGradient><linearGradient
       x1="21"
       y1="4"
       x2="3"
       y2="4"
       gradientUnits="userSpaceOnUse"
       gradientTransform="scale(0.75)"
       spreadMethod="pad"
       id="linearGradient8"><stop
         style="stop-opacity:0.43750668;stop-color:#000000"
         offset="0"
         id="stop6-2" /><stop
         style="stop-opacity:0.87501335;stop-color:#000000"
         offset="0.89"
         id="stop7-6" /><stop
         style="stop-opacity:0;stop-color:#000000"
         offset="1"
         id="stop8-7" /></linearGradient><clipPath
       clipPathUnits="userSpaceOnUse"
       id="clipPath8-6"><path
         d="M 0,0 H 19 V 19 H 0 Z"
         id="path8-4" /></clipPath><mask
       maskUnits="userSpaceOnUse"
       x="0"
       y="0"
       width="1"
       height="1"
       id="mask10-2"><path
         id="path11-2"
         d="M 0,0 H 18 V 18 H 0 Z"
         style="fill:url(#linearGradient12);fill-opacity:1;fill-rule:nonzero;stroke:none"
         transform="scale(1.3333333)"
         clip-path="url(#clipPath12-1)" /></mask><linearGradient
       x1="12"
       y1="3"
       x2="11.5"
       y2="8"
       gradientUnits="userSpaceOnUse"
       gradientTransform="matrix(0.75,0,0,-0.75,0,18)"
       spreadMethod="pad"
       id="linearGradient12"><stop
         style="stop-opacity:1;stop-color:#ffffff"
         offset="0"
         id="stop11-5" /><stop
         style="stop-opacity:0;stop-color:#ffffff"
         offset="1"
         id="stop12-9" /></linearGradient><clipPath
       clipPathUnits="userSpaceOnUse"
       id="clipPath12-1"><path
         d="M 1,1 H 17 V 17 H 1 Z"
         id="path12-8" /></clipPath><linearGradient
       x1="12"
       y1="3"
       x2="11.5"
       y2="8"
       gradientUnits="userSpaceOnUse"
       gradientTransform="matrix(0.75,0,0,-0.75,0,18)"
       spreadMethod="pad"
       id="linearGradient14"><stop
         style="stop-opacity:1;stop-color:#ffffff"
         offset="0"
         id="stop13-3" /><stop
         style="stop-opacity:1;stop-color:#cccccc"
         offset="1"
         id="stop14-9" /></linearGradient><clipPath
       clipPathUnits="userSpaceOnUse"
       id="clipPath14-1"><path
         d="M 1,1 H 17 V 17 H 1 Z"
         id="path14-3" /></clipPath><linearGradient
       x1="23"
       y1="9"
       x2="1.012"
       y2="9.5209999"
       gradientUnits="userSpaceOnUse"
       gradientTransform="scale(0.75)"
       spreadMethod="pad"
       id="linearGradient18"><stop
         style="stop-opacity:0.43750668;stop-color:#000000"
         offset="0"
         id="stop17-9" /><stop
         style="stop-opacity:0.87501335;stop-color:#000000"
         offset="1"
         id="stop18-7" /></linearGradient><clipPath
       clipPathUnits="userSpaceOnUse"
       id="clipPath18-4"><path
         d="M 0,0 H 19 V 19 H 0 Z"
         id="path18-4" /></clipPath><linearGradient
       x1="23"
       y1="5.4000001"
       x2="1.429"
       y2="23.511999"
       gradientUnits="userSpaceOnUse"
       gradientTransform="scale(0.75)"
       spreadMethod="pad"
       id="linearGradient20"><stop
         style="stop-opacity:1;stop-color:#64b4f4"
         offset="0"
         id="stop19-9" /><stop
         style="stop-opacity:1;stop-color:#127bdc"
         offset="1"
         id="stop20-7" /></linearGradient><linearGradient
       id="l"
       x1="15"
       x2="5.5"
       y1="5.5"
       y2="19.5"
       gradientUnits="userSpaceOnUse"><stop
         offset="0"
         stop-color="#85F8FF"
         style="stop-color:#f2f2f2;stop-opacity:1"
         id="stop10-1" /><stop
         offset="1"
         stop-color="#105BF6"
         style="stop-color:#11599c;stop-opacity:1"
         id="stop11-56" /></linearGradient><clipPath
       clipPathUnits="userSpaceOnUse"
       id="clipPath8-6-2"><path
         d="M 0,0 H 19 V 19 H 0 Z"
         id="path8-4-7" /></clipPath><linearGradient
       x1="23"
       y1="9"
       x2="1.012"
       y2="9.5209999"
       gradientUnits="userSpaceOnUse"
       gradientTransform="scale(0.75)"
       spreadMethod="pad"
       id="linearGradient13"><stop
         style="stop-opacity:0.43750668;stop-color:#000000"
         offset="0"
         id="stop12-8" /><stop
         style="stop-color:#000000;stop-opacity:0.87450981;"
         offset="1"
         id="stop13-9" /></linearGradient><clipPath
       clipPathUnits="userSpaceOnUse"
       id="clipPath18-4-3"><path
         d="M 0,0 H 19 V 19 H 0 Z"
         id="path18-4-6" /></clipPath><linearGradient
       x1="23"
       y1="5.4000001"
       x2="1.429"
       y2="23.511999"
       gradientUnits="userSpaceOnUse"
       gradientTransform="scale(0.75)"
       spreadMethod="pad"
       id="linearGradient15"><stop
         style="stop-color:#127bdc;stop-opacity:1;"
         offset="0"
         id="stop14-7" /><stop
         style="stop-color:#64b4f4;stop-opacity:1;"
         offset="1"
         id="stop15-7" /></linearGradient><linearGradient
       id="paint4_linear_0_1"
       x1="1"
       y1="23"
       x2="21.931101"
       y2="4.7725801"
       gradientUnits="userSpaceOnUse"><stop
         stop-color="#318CDE"
         id="stop15-0" /><stop
         offset="1"
         stop-color="#70B7F1"
         id="stop16-6" /></linearGradient><linearGradient
       id="paint5_linear_0_1"
       x1="1"
       y1="22.955799"
       x2="21.934299"
       y2="4.7730298"
       gradientUnits="userSpaceOnUse"><stop
         stop-color="#1E71BD"
         id="stop17-1" /><stop
         offset="1"
         stop-color="#559CD9"
         id="stop18-5" /></linearGradient><linearGradient
       id="paint3_linear_0_1"
       x1="23"
       y1="8.6026201"
       x2="1.0114599"
       y2="9.1120195"
       gradientUnits="userSpaceOnUse"><stop
         stop-opacity="0.437507"
         id="stop13-5" /><stop
         offset="1"
         stop-opacity="0.87451"
         id="stop14-4" /></linearGradient><linearGradient
       id="paint2_linear_0_1"
       x1="21"
       y1="3"
       x2="20.5"
       y2="6"
       gradientUnits="userSpaceOnUse"><stop
         stop-color="#FAFAFA"
         id="stop11-7" /><stop
         offset="1"
         stop-color="#FAFAFA"
         stop-opacity="0"
         id="stop12-6" /></linearGradient><linearGradient
       id="paint1_linear_0_1"
       x1="21"
       y1="3.75"
       x2="3"
       y2="3.75"
       gradientUnits="userSpaceOnUse"><stop
         stop-opacity="0.5"
         id="stop8-5" /><stop
         offset="0.890123"
         id="stop9-6" /><stop
         offset="1"
         stop-opacity="0"
         id="stop10-9" /></linearGradient><linearGradient
       id="paint0_linear_0_1"
       x1="24.062401"
       y1="-0.504188"
       x2="-0.065581299"
       y2="11.5558"
       gradientUnits="userSpaceOnUse"><stop
         stop-color="#2675A7"
         id="stop6" /><stop
         offset="1"
         stop-color="#1D5E8C"
         id="stop7" /></linearGradient></defs><path
     opacity="0.875"
     d="M 7.59961,1 C 3.94361,1 1,3.94166 1,7.59766 V 16.4004 C 1,20.0564 3.94361,23 7.59961,23 H 16.4004 C 20.0564,23 23,20.0564 23,16.4004 V 7.59766 C 23,3.94166 20.0564,1 16.4004,1 H 12 Z"
     fill="url(#paint0_linear_0_1)"
     id="path1"
     style="fill:url(#paint0_linear_0_1)" /><rect
     opacity="0.125"
     x="3"
     y="2"
     width="18"
     height="18"
     rx="4.4000001"
     fill="url(#paint1_linear_0_1)"
     fill-opacity="0.875"
     id="rect1"
     style="fill:url(#paint1_linear_0_1)" /><path
     d="M 7.26004,2.97884 H 16.74 c 2.3734,0 4.2782,1.90541 4.2782,4.27962 v 9.48304 c 0,2.3742 -1.9048,4.2797 -4.2782,4.2797 H 7.26004 c -2.37341,0 -4.2782,-1.9055 -4.2782,-4.2797 V 7.25846 c 0,-2.37421 1.90479,-4.27962 4.2782,-4.27962 z"
     fill="#cccccc"
     id="path2" /><path
     fill-rule="evenodd"
     clip-rule="evenodd"
     d="M 16.74,4.97884 H 7.26004 c -1.26822,0 -2.2782,1.00935 -2.2782,2.27962 v 9.48304 c 0,1.2703 1.00998,2.2797 2.2782,2.2797 H 16.74 c 1.2682,0 2.2782,-1.0094 2.2782,-2.2797 V 7.25846 c 0,-1.27027 -1.01,-2.27962 -2.2782,-2.27962 z m 0,-2 H 7.26004 c -2.37341,0 -4.2782,1.90541 -4.2782,4.27962 v 9.48304 c 0,2.3742 1.90479,4.2797 4.2782,4.2797 H 16.74 c 2.3734,0 4.2782,-1.9055 4.2782,-4.2797 V 7.25846 c 0,-2.37421 -1.9048,-4.27962 -4.2782,-4.27962 z"
     fill="url(#paint2_linear_0_1)"
     id="path3"
     style="fill:url(#paint2_linear_0_1)" /><path
     opacity="0.25"
     d="M 1,7.07932 C 1,5.3801 2.34933,4 4.01067,4 H 8.188 c 1.07733,0 2.1187,0.37776 2.952,1.07054 0.8333,0.69278 1.876,1.07053 2.948,1.07053 h 5.9013 C 21.6507,6.14107 23,7.52118 23,9.2204 v 6.0305 C 23,18.9793 20.0467,22 16.4013,22 H 7.59867 C 3.95333,22 1,18.9793 1,15.2509 Z"
     fill="url(#paint3_linear_0_1)"
     fill-opacity="0.75"
     id="path4"
     style="fill:url(#paint3_linear_0_1)" /><g
     opacity="0.875"
     id="g6"><path
       d="M 23,11.0316 C 23,9.37045 21.6534,8.02381 19.9922,8.02381 h -5.9289 c -1.0584,0 -2.0902,-0.35842 -2.9227,-1.01191 C 10.3082,6.35842 9.27633,6 8.218,6 H 4.00781 C 2.34664,6 1,7.34664 1,9.00781 V 16.4004 C 1,20.0564 3.94361,23 7.59961,23 H 16.4004 C 20.0547,23 22.9973,20.0591 23,16.4055 Z"
       fill="url(#paint4_linear_0_1)"
       id="path5"
       style="fill:url(#paint4_linear_0_1)" /><path
       d="M 19.9922,9.02381 C 21.1011,9.02381 22,9.92274 22,11.0316 v 5.3731 C 21.9977,19.5064 19.5027,22 16.4004,22 H 7.59961 C 4.4959,22 2,19.5041 2,16.4004 V 9.00781 C 2,7.89893 2.89893,7 4.00781,7 H 8.218 c 0.83327,0 1.6479,0.28256 2.3052,0.7985 1.0077,0.79103 2.2567,1.22531 3.5401,1.22531 z"
       stroke="url(#paint5_linear_0_1)"
       stroke-opacity="0.375"
       stroke-width="2"
       id="path6"
       style="stroke:url(#paint5_linear_0_1)" /></g><g
     id="g2"
     transform="translate(-20)"><g
       id="g1"
       transform="translate(20)"><path
         id="path20"
         d="m 12.54,9.558 a 0.5,0.5 0 1 0 -0.043,0.998 4.509,4.509 0 0 0 -4.656,3.967 L 7.707,14.388 7.672,14.351 A 0.515,0.515 0 0 0 7.507,14.241 H 7.505 a 0.493,0.493 0 0 0 -0.54,0.111 L 5.36,15.954 a 0.501,0.501 0 0 0 0.707,0.709 l 0.797,-0.797 a 5.502,5.502 0 0 0 4.012,4.502 5.5,5.5 0 0 0 4.558,-0.791 l 0.01,-0.008 c 0.056,-0.039 0.11,-0.078 0.164,-0.119 l 0.016,-0.012 0.025,-0.02 c 0.05,-0.038 0.1,-0.076 0.149,-0.116 l 0.066,-0.057 0.08,-0.068 c 0.054,-0.048 0.108,-0.097 0.16,-0.147 l 0.022,-0.021 0.134,-0.133 0.02,-0.022 c 0.044,-0.046 0.087,-0.093 0.129,-0.14 l 0.017,-0.02 a 5.58,5.58 0 0 0 0.127,-0.148 l 0.014,-0.018 c 0.042,-0.051 0.083,-0.103 0.123,-0.156 l 0.01,-0.014 0.033,-0.047 c 0.045,-0.06 0.089,-0.122 0.131,-0.185 0.027,-0.04 0.056,-0.08 0.082,-0.121 v -0.002 a 5.56,5.56 0 0 0 0.486,-0.953 5.505,5.505 0 0 0 0.188,-3.42 h 0.002 A 5.511,5.511 0 0 0 12.542,9.557 Z M 7.905,16 7.911,16.006 A 4.486,4.486 0 0 0 8.461,17.394 4.48,4.48 0 0 1 7.905,16 Z"
         style="opacity:0.15;fill:#1a1a1a;fill-opacity:1;fill-rule:nonzero;stroke:none;stroke-width:1.52988" /><g
         id="g20"
         transform="matrix(0.6919,0,0,0.6919,28.412,7.583)"><path
           id="path16483"
           d="m -16.046,10.086 a 6.516,6.516 0 0 1 -6.512,6.512 6.516,6.516 0 0 1 -6.512,-6.512 6.516,6.516 0 0 1 6.512,-6.512 6.516,6.516 0 0 1 6.512,6.512 z"
           style="fill:#cc5e55;fill-opacity:1;fill-rule:nonzero;stroke:none;stroke-width:2.21114" /><path
           id="path16485"
           d="m -22.689,6.287 c 0.2,0 0.363,0.164 0.363,0.363 v 3.385 a 0.364,0.364 0 0 1 -0.363,0.363 0.366,0.366 0 0 1 -0.362,-0.363 V 6.65 c 0,-0.2 0.166,-0.363 0.362,-0.363 z"
           style="fill:#ffffff;fill-opacity:1;fill-rule:nonzero;stroke:none;stroke-width:2.21114" /><path
           id="path16487"
           d="m -22.885,9.845 a 0.347,0.347 0 0 1 0.508,0 l 2.393,2.392 a 0.35,0.35 0 0 1 0,0.51 0.347,0.347 0 0 1 -0.509,0 l -2.392,-2.393 a 0.362,0.362 0 0 1 0,-0.509 z"
           style="fill:#ffffff;fill-opacity:1;fill-rule:nonzero;stroke:none;stroke-width:2.21114" /><path
           id="path16489"
           d="m -28.777,15.054 a 7.942,7.942 0 0 1 -1.74,-4.63 0.72468493,0.72468493 0 0 1 1.448,-0.063 6.5,6.5 0 0 0 11.98,3.213 0.725,0.725 0 0 1 1,-0.224 0.72,0.72 0 0 1 0.224,0.995 7.953,7.953 0 0 1 -8.772,3.417 7.957,7.957 0 0 1 -4.14,-2.708 z"
           style="fill:#fafafa;fill-opacity:1;fill-rule:nonzero;stroke:none;stroke-width:1.33333" /><path
           id="path16491"
           d="m -29.777,8.85 a 0.721,0.721 0 0 0 -0.51,0.214 0.714,0.714 0 0 0 0,1.02 l 2.317,2.324 a 0.73,0.73 0 0 0 1.027,0 0.722,0.722 0 0 0 0,-1.02 l -2.323,-2.324 a 0.73,0.73 0 0 0 -0.51,-0.214 z"
           style="fill:#fafafa;fill-opacity:1;fill-rule:nonzero;stroke:none;stroke-width:1.33333" /><path
           id="path16493"
           d="m -29.053,9.574 a 0.73,0.73 0 0 0 -0.213,-0.51 0.716,0.716 0 0 0 -1.021,0 l -2.323,2.318 a 0.72337162,0.72337162 0 1 0 1.021,1.025 l 2.323,-2.322 a 0.719,0.719 0 0 0 0.213,-0.51 z"
           style="fill:#fafafa;fill-opacity:1;fill-rule:nonzero;stroke:none;stroke-width:1.33333" /><path
           id="path16495"
           d="m -15.162,12.965 a 8.013,8.013 0 0 1 -3.141,3.823 0.72462956,0.72462956 0 1 1 -0.776,-1.224 6.499,6.499 0 0 0 2.792,-7.167 6.5,6.5 0 0 0 -6.006,-4.817 0.7221873,0.7221873 0 1 1 0.063,-1.443 7.967,7.967 0 0 1 7.344,5.885 h -0.005 a 7.956,7.956 0 0 1 -0.271,4.943 z"
           style="fill:#fafafa;fill-opacity:1;fill-rule:nonzero;stroke:none;stroke-width:1.33333" /></g></g></g></svg>
