<svg width="256" height="256" viewBox="0 0 256 256" fill="none" xmlns="http://www.w3.org/2000/svg">
<rect width="256" height="256" rx="65" fill="#006699"/>
<rect x="28" y="28" width="200" height="200" rx="45" fill="#F9F9F9"/>
<path d="M0 81C0 61.67 15.67 46 35 46H83.4744C96.0907 46 108.308 50.4232 118 58.5V58.5C127.692 66.5768 139.909 71 152.526 71H221C240.33 71 256 86.67 256 106V191C256 226.899 226.899 256 191 256H65C29.1015 256 0 226.899 0 191V81Z" fill="#2991C9"/>
<path fill-rule="evenodd" clip-rule="evenodd" d="M127.649 119.177C146.26 119.041 171.843 95.0929 187.827 114.734C203.811 134.375 209.701 185.69 199.414 208.168C195.775 216.12 172.96 216.12 158.86 187.07H96.4378C82.3369 216.12 59.5226 216.12 55.8831 208.168C45.596 185.69 52.5597 133.056 67.4702 114.734C82.3806 96.412 109.494 119.045 127.649 119.177ZM94.2223 142.886V135.289C94.2223 132.772 92.1815 130.731 89.6641 130.731C87.1467 130.731 85.106 132.772 85.106 135.289V142.886H77.5091C74.9917 142.886 72.9509 144.927 72.9509 147.444C72.9509 149.962 74.9917 152.002 77.5091 152.002H85.106V159.599C85.106 162.117 87.1467 164.157 89.6641 164.157C92.1815 164.157 94.2223 162.117 94.2223 159.599V152.002H101.819C104.337 152.002 106.377 149.962 106.377 147.444C106.377 144.927 104.337 142.886 101.819 142.886H94.2223ZM164.114 142.886C167.47 142.886 170.191 140.165 170.191 136.809C170.191 133.452 167.47 130.731 164.114 130.731C160.757 130.731 158.036 133.452 158.036 136.809C158.036 140.165 160.757 142.886 164.114 142.886ZM176.269 155.041C179.625 155.041 182.346 152.32 182.346 148.964C182.346 145.607 179.625 142.886 176.269 142.886C172.912 142.886 170.191 145.607 170.191 148.964C170.191 152.32 172.912 155.041 176.269 155.041ZM151.959 155.041C155.315 155.041 158.036 152.32 158.036 148.964C158.036 145.607 155.315 142.886 151.959 142.886C148.602 142.886 145.881 145.607 145.881 148.964C145.881 152.32 148.602 155.041 151.959 155.041ZM164.114 167.196C167.47 167.196 170.191 164.475 170.191 161.119C170.191 157.762 167.47 155.041 164.114 155.041C160.757 155.041 158.036 157.762 158.036 161.119C158.036 164.475 160.757 167.196 164.114 167.196Z" fill="#F9F9F9"/>
</svg>
