<?xml version="1.0" encoding="UTF-8" standalone="no"?>
<svg
   xml:space="preserve"
   width="24"
   height="24"
   fill="none"
   version="1.1"
   id="svg11"
   sodipodi:docname="folder-android.svg"
   inkscape:version="1.3 (0e150ed6c4, 2023-07-21)"
   xmlns:inkscape="http://www.inkscape.org/namespaces/inkscape"
   xmlns:sodipodi="http://sodipodi.sourceforge.net/DTD/sodipodi-0.dtd"
   xmlns="http://www.w3.org/2000/svg"
   xmlns:svg="http://www.w3.org/2000/svg"><sodipodi:namedview
     id="namedview11"
     pagecolor="#ffffff"
     bordercolor="#000000"
     borderopacity="0.25"
     inkscape:showpageshadow="2"
     inkscape:pageopacity="0.0"
     inkscape:pagecheckerboard="0"
     inkscape:deskcolor="#d1d1d1"
     inkscape:zoom="16.985294"
     inkscape:cx="-13.040693"
     inkscape:cy="9.6848486"
     inkscape:window-width="3440"
     inkscape:window-height="1358"
     inkscape:window-x="2560"
     inkscape:window-y="0"
     inkscape:window-maximized="1"
     inkscape:current-layer="svg11" /><defs
     id="defs9"><linearGradient
       id="a"
       x1="23"
       x2="1"
       y1="1"
       y2="12"
       gradientUnits="userSpaceOnUse"><stop
         stop-color="#E3C880"
         id="stop4" /><stop
         offset="1"
         stop-color="#6F5C38"
         id="stop5" /></linearGradient><linearGradient
       id="b"
       x1="23"
       x2="1.012"
       y1="9"
       y2="9.521"
       gradientUnits="userSpaceOnUse"><stop
         stop-opacity=".5"
         id="stop6" /><stop
         offset="1"
         id="stop7" /></linearGradient><linearGradient
       id="c"
       x1="23"
       x2="1.429"
       y1="5.4"
       y2="23.511"
       gradientUnits="userSpaceOnUse"><stop
         stop-color="#FFE795"
         id="stop8" /><stop
         offset="1"
         stop-color="#7A653E"
         id="stop9" /></linearGradient><clipPath
       id="d"
       clipPathUnits="userSpaceOnUse"><path
         d="M0 0h19v19H0Z"
         id="path9" /></clipPath><linearGradient
       x1="23"
       y1="1"
       x2="1"
       y2="12"
       gradientUnits="userSpaceOnUse"
       gradientTransform="scale(0.75)"
       spreadMethod="pad"
       id="linearGradient2"><stop
         style="stop-opacity:1;stop-color:#2675a7"
         offset="0"
         id="stop1-9" /><stop
         style="stop-opacity:1;stop-color:#1d5e8c"
         offset="1"
         id="stop2-8" /></linearGradient><linearGradient
       x1="21"
       y1="4"
       x2="3"
       y2="4"
       gradientUnits="userSpaceOnUse"
       gradientTransform="scale(0.75)"
       spreadMethod="pad"
       id="linearGradient8"><stop
         style="stop-opacity:0.43750668;stop-color:#000000"
         offset="0"
         id="stop6-2" /><stop
         style="stop-opacity:0.87501335;stop-color:#000000"
         offset="0.89"
         id="stop7-6" /><stop
         style="stop-opacity:0;stop-color:#000000"
         offset="1"
         id="stop8-7" /></linearGradient><clipPath
       clipPathUnits="userSpaceOnUse"
       id="clipPath8-6"><path
         d="M 0,0 H 19 V 19 H 0 Z"
         id="path8-4" /></clipPath><mask
       maskUnits="userSpaceOnUse"
       x="0"
       y="0"
       width="1"
       height="1"
       id="mask10-2"><path
         id="path11-2"
         d="M 0,0 H 18 V 18 H 0 Z"
         style="fill:url(#linearGradient12);fill-opacity:1;fill-rule:nonzero;stroke:none"
         transform="scale(1.3333333)"
         clip-path="url(#clipPath12-1)" /></mask><linearGradient
       x1="12"
       y1="3"
       x2="11.5"
       y2="8"
       gradientUnits="userSpaceOnUse"
       gradientTransform="matrix(0.75,0,0,-0.75,0,18)"
       spreadMethod="pad"
       id="linearGradient12"><stop
         style="stop-opacity:1;stop-color:#ffffff"
         offset="0"
         id="stop11-5" /><stop
         style="stop-opacity:0;stop-color:#ffffff"
         offset="1"
         id="stop12-9" /></linearGradient><clipPath
       clipPathUnits="userSpaceOnUse"
       id="clipPath12-1"><path
         d="M 1,1 H 17 V 17 H 1 Z"
         id="path12-8" /></clipPath><linearGradient
       x1="12"
       y1="3"
       x2="11.5"
       y2="8"
       gradientUnits="userSpaceOnUse"
       gradientTransform="matrix(0.75,0,0,-0.75,0,18)"
       spreadMethod="pad"
       id="linearGradient14"><stop
         style="stop-opacity:1;stop-color:#ffffff"
         offset="0"
         id="stop13-3" /><stop
         style="stop-opacity:1;stop-color:#cccccc"
         offset="1"
         id="stop14-9" /></linearGradient><clipPath
       clipPathUnits="userSpaceOnUse"
       id="clipPath14-1"><path
         d="M 1,1 H 17 V 17 H 1 Z"
         id="path14-3" /></clipPath><linearGradient
       x1="23"
       y1="9"
       x2="1.012"
       y2="9.5209999"
       gradientUnits="userSpaceOnUse"
       gradientTransform="scale(0.75)"
       spreadMethod="pad"
       id="linearGradient18"><stop
         style="stop-opacity:0.43750668;stop-color:#000000"
         offset="0"
         id="stop17-9" /><stop
         style="stop-opacity:0.87501335;stop-color:#000000"
         offset="1"
         id="stop18-7" /></linearGradient><clipPath
       clipPathUnits="userSpaceOnUse"
       id="clipPath18-4"><path
         d="M 0,0 H 19 V 19 H 0 Z"
         id="path18-4" /></clipPath><linearGradient
       x1="23"
       y1="5.4000001"
       x2="1.429"
       y2="23.511999"
       gradientUnits="userSpaceOnUse"
       gradientTransform="scale(0.75)"
       spreadMethod="pad"
       id="linearGradient20"><stop
         style="stop-opacity:1;stop-color:#64b4f4"
         offset="0"
         id="stop19-9" /><stop
         style="stop-opacity:1;stop-color:#127bdc"
         offset="1"
         id="stop20-7" /></linearGradient><linearGradient
       id="l"
       x1="15"
       x2="5.5"
       y1="5.5"
       y2="19.5"
       gradientUnits="userSpaceOnUse"><stop
         offset="0"
         stop-color="#85F8FF"
         style="stop-color:#f2f2f2;stop-opacity:1"
         id="stop10" /><stop
         offset="1"
         stop-color="#105BF6"
         style="stop-color:#11599c;stop-opacity:1"
         id="stop11" /></linearGradient><clipPath
       clipPathUnits="userSpaceOnUse"
       id="clipPath8-6-2"><path
         d="M 0,0 H 19 V 19 H 0 Z"
         id="path8-4-7" /></clipPath><linearGradient
       x1="23"
       y1="9"
       x2="1.012"
       y2="9.5209999"
       gradientUnits="userSpaceOnUse"
       gradientTransform="scale(0.75)"
       spreadMethod="pad"
       id="linearGradient13"><stop
         style="stop-opacity:0.43750668;stop-color:#000000"
         offset="0"
         id="stop12" /><stop
         style="stop-color:#000000;stop-opacity:0.87450981;"
         offset="1"
         id="stop13" /></linearGradient><clipPath
       clipPathUnits="userSpaceOnUse"
       id="clipPath18-4-3"><path
         d="M 0,0 H 19 V 19 H 0 Z"
         id="path18-4-6" /></clipPath><linearGradient
       x1="23"
       y1="5.4000001"
       x2="1.429"
       y2="23.511999"
       gradientUnits="userSpaceOnUse"
       gradientTransform="scale(0.75)"
       spreadMethod="pad"
       id="linearGradient15"><stop
         style="stop-color:#127bdc;stop-opacity:1;"
         offset="0"
         id="stop14" /><stop
         style="stop-color:#64b4f4;stop-opacity:1;"
         offset="1"
         id="stop15" /></linearGradient><linearGradient
       id="paint0_linear_0_1"
       x1="24.062401"
       y1="-0.504188"
       x2="-0.065581299"
       y2="11.5558"
       gradientUnits="userSpaceOnUse"><stop
         stop-color="#2675A7"
         id="stop6-3" /><stop
         offset="1"
         stop-color="#1D5E8C"
         id="stop7-7" /></linearGradient><linearGradient
       id="paint1_linear_0_1"
       x1="21"
       y1="3.75"
       x2="3"
       y2="3.75"
       gradientUnits="userSpaceOnUse"><stop
         stop-opacity="0.5"
         id="stop8-72" /><stop
         offset="0.890123"
         id="stop9-6" /><stop
         offset="1"
         stop-opacity="0"
         id="stop10-4" /></linearGradient><linearGradient
       id="paint2_linear_0_1"
       x1="21"
       y1="3"
       x2="20.5"
       y2="6"
       gradientUnits="userSpaceOnUse"><stop
         stop-color="#FAFAFA"
         id="stop11-52" /><stop
         offset="1"
         stop-color="#FAFAFA"
         stop-opacity="0"
         id="stop12-0" /></linearGradient><linearGradient
       id="paint3_linear_0_1"
       x1="23"
       y1="8.6026201"
       x2="1.0114599"
       y2="9.1120195"
       gradientUnits="userSpaceOnUse"><stop
         stop-opacity="0.437507"
         id="stop13-2" /><stop
         offset="1"
         stop-opacity="0.87451"
         id="stop14-90" /></linearGradient><linearGradient
       id="paint4_linear_0_1"
       x1="1"
       y1="23"
       x2="21.931101"
       y2="4.7725801"
       gradientUnits="userSpaceOnUse"><stop
         stop-color="#318CDE"
         id="stop15-9" /><stop
         offset="1"
         stop-color="#70B7F1"
         id="stop16" /></linearGradient><linearGradient
       id="paint5_linear_0_1"
       x1="1"
       y1="22.955799"
       x2="21.934299"
       y2="4.7730298"
       gradientUnits="userSpaceOnUse"><stop
         stop-color="#1E71BD"
         id="stop17" /><stop
         offset="1"
         stop-color="#559CD9"
         id="stop18" /></linearGradient></defs><path
     opacity="0.875"
     d="M 7.59961,1 C 3.94361,1 1,3.94166 1,7.59766 V 16.4004 C 1,20.0564 3.94361,23 7.59961,23 H 16.4004 C 20.0564,23 23,20.0564 23,16.4004 V 7.59766 C 23,3.94166 20.0564,1 16.4004,1 H 12 Z"
     fill="url(#paint0_linear_0_1)"
     id="path1"
     style="fill:url(#paint0_linear_0_1)" /><rect
     opacity="0.125"
     x="3"
     y="2"
     width="18"
     height="18"
     rx="4.4000001"
     fill="url(#paint1_linear_0_1)"
     fill-opacity="0.875"
     id="rect1"
     style="fill:url(#paint1_linear_0_1)" /><path
     d="M 7.26004,2.97884 H 16.74 c 2.3734,0 4.2782,1.90541 4.2782,4.27962 v 9.48304 c 0,2.3742 -1.9048,4.2797 -4.2782,4.2797 H 7.26004 c -2.37341,0 -4.2782,-1.9055 -4.2782,-4.2797 V 7.25846 c 0,-2.37421 1.90479,-4.27962 4.2782,-4.27962 z"
     fill="#cccccc"
     id="path2" /><path
     fill-rule="evenodd"
     clip-rule="evenodd"
     d="M 16.74,4.97884 H 7.26004 c -1.26822,0 -2.2782,1.00935 -2.2782,2.27962 v 9.48304 c 0,1.2703 1.00998,2.2797 2.2782,2.2797 H 16.74 c 1.2682,0 2.2782,-1.0094 2.2782,-2.2797 V 7.25846 c 0,-1.27027 -1.01,-2.27962 -2.2782,-2.27962 z m 0,-2 H 7.26004 c -2.37341,0 -4.2782,1.90541 -4.2782,4.27962 v 9.48304 c 0,2.3742 1.90479,4.2797 4.2782,4.2797 H 16.74 c 2.3734,0 4.2782,-1.9055 4.2782,-4.2797 V 7.25846 c 0,-2.37421 -1.9048,-4.27962 -4.2782,-4.27962 z"
     fill="url(#paint2_linear_0_1)"
     id="path3"
     style="fill:url(#paint2_linear_0_1)" /><path
     opacity="0.25"
     d="M 1,7.07932 C 1,5.3801 2.34933,4 4.01067,4 H 8.188 c 1.07733,0 2.1187,0.37776 2.952,1.07054 0.8333,0.69278 1.876,1.07053 2.948,1.07053 h 5.9013 C 21.6507,6.14107 23,7.52118 23,9.2204 v 6.0305 C 23,18.9793 20.0467,22 16.4013,22 H 7.59867 C 3.95333,22 1,18.9793 1,15.2509 Z"
     fill="url(#paint3_linear_0_1)"
     fill-opacity="0.75"
     id="path4"
     style="fill:url(#paint3_linear_0_1)" /><g
     opacity="0.875"
     id="g6"><path
       d="M 23,11.0316 C 23,9.37045 21.6534,8.02381 19.9922,8.02381 h -5.9289 c -1.0584,0 -2.0902,-0.35842 -2.9227,-1.01191 C 10.3082,6.35842 9.27633,6 8.218,6 H 4.00781 C 2.34664,6 1,7.34664 1,9.00781 V 16.4004 C 1,20.0564 3.94361,23 7.59961,23 H 16.4004 C 20.0547,23 22.9973,20.0591 23,16.4055 Z"
       fill="url(#paint4_linear_0_1)"
       id="path5"
       style="fill:url(#paint4_linear_0_1)" /><path
       d="M 19.9922,9.02381 C 21.1011,9.02381 22,9.92274 22,11.0316 v 5.3731 C 21.9977,19.5064 19.5027,22 16.4004,22 H 7.59961 C 4.4959,22 2,19.5041 2,16.4004 V 9.00781 C 2,7.89893 2.89893,7 4.00781,7 H 8.218 c 0.83327,0 1.6479,0.28256 2.3052,0.7985 1.0077,0.79103 2.2567,1.22531 3.5401,1.22531 z"
       stroke="url(#paint5_linear_0_1)"
       stroke-opacity="0.375"
       stroke-width="2"
       id="path6"
       style="stroke:url(#paint5_linear_0_1)" /></g><g
     id="g1"
     transform="translate(-19.755461)"><path
       d="M 4.703,7.875 A 0.504,0.504 0 0 0 4.453,7.949 0.457,0.457 0 0 0 4.234,8.383 0.424,0.424 0 0 0 4.328,8.613 L 5.363,9.992 A 4.54,4.54 0 0 0 3.75,13 c -0.023,0.445 0.473,0.445 0.473,0.445 h 8.793 c 0,0 0.507,0 0.484,-0.468 -0.125,-1.184 -0.723,-2.235 -1.609,-2.989 L 12.922,8.613 A 0.425,0.425 0 0 0 13.016,8.379 0.452,0.452 0 0 0 12.965,8.133 0.441,0.441 0 0 0 12.785,7.945 0.476,0.476 0 0 0 12.531,7.875 0.565,0.565 0 0 0 12.305,7.926 0.463,0.463 0 0 0 12.129,8.074 L 11.098,9.445 A 5.1,5.1 0 0 0 8.625,8.809 5.1,5.1 0 0 0 6.152,9.445 L 5.121,8.074 A 0.508,0.508 0 0 0 4.703,7.875 Z m 1.973,2.789 c 0.129,0 0.254,0.047 0.344,0.137 A 0.458,0.458 0 0 1 7.164,11.129 0.473,0.473 0 0 1 6.676,11.59 0.499,0.499 0 0 1 6.332,11.457 0.452,0.452 0 0 1 6.188,11.129 0.44,0.44 0 0 1 6.332,10.801 0.485,0.485 0 0 1 6.676,10.664 Z m 3.898,0 c 0.129,0 0.254,0.047 0.344,0.137 a 0.44,0.44 0 0 1 0.144,0.328 c 0,0.121 -0.05,0.238 -0.144,0.328 a 0.499,0.499 0 0 1 -0.344,0.133 0.473,0.473 0 0 1 -0.488,-0.461 c 0,-0.125 0.055,-0.242 0.144,-0.328 a 0.485,0.485 0 0 1 0.344,-0.137 z"
       clip-path="url(#d)"
       opacity="0.15"
       style="fill:#1a1a1a;fill-opacity:1;fill-rule:nonzero;stroke:none"
       transform="matrix(1.33333,0,0,1.33333,20.005,0.005)"
       id="path10" /><path
       d="m 26.775,10.005 a 0.671,0.671 0 0 0 -0.333,0.099 0.666,0.666 0 0 0 -0.23,0.25 0.609,0.609 0 0 0 -0.062,0.328 c 0.01,0.11 0.052,0.22 0.125,0.307 l 1.38,1.839 c -1.192,1.005 -1.989,2.422 -2.15,4.01 -0.03,0.594 0.63,0.594 0.63,0.594 H 37.86 c 0,0 0.676,0 0.646,-0.624 -0.167,-1.579 -0.964,-2.98 -2.146,-3.986 l 1.375,-1.833 a 0.566,0.566 0 0 0 0.125,-0.312 0.603,0.603 0 0 0 -0.068,-0.328 0.588,0.588 0 0 0 -0.24,-0.25 0.635,0.635 0 0 0 -0.338,-0.094 0.754,0.754 0 0 0 -0.302,0.068 0.617,0.617 0 0 0 -0.234,0.197 l -1.375,1.828 A 6.8,6.8 0 0 0 32.006,11.25 6.8,6.8 0 0 0 28.708,12.098 L 27.333,10.27 a 0.678,0.678 0 0 0 -0.558,-0.265 z m 2.631,3.719 c 0.172,0 0.339,0.062 0.459,0.182 0.118,0.115 0.192,0.271 0.192,0.438 a 0.63,0.63 0 0 1 -0.192,0.437 0.665,0.665 0 0 1 -0.459,0.177 0.665,0.665 0 0 1 -0.459,-0.177 0.605,0.605 0 0 1 -0.193,-0.437 c 0,-0.167 0.068,-0.323 0.193,-0.438 a 0.646,0.646 0 0 1 0.46,-0.182 z m 5.197,0 c 0.172,0 0.34,0.062 0.46,0.182 0.124,0.115 0.192,0.271 0.192,0.438 a 0.605,0.605 0 0 1 -0.193,0.437 0.665,0.665 0 0 1 -0.459,0.177 0.665,0.665 0 0 1 -0.458,-0.177 0.63,0.63 0 0 1 -0.192,-0.437 c 0,-0.167 0.073,-0.323 0.192,-0.438 a 0.646,0.646 0 0 1 0.458,-0.182 z"
       style="fill:#98c425;fill-opacity:1;fill-rule:nonzero;stroke:none;stroke-width:1.33333"
       id="path11" /></g></svg>
