<svg xmlns="http://www.w3.org/2000/svg" width="24" height="24" fill="none"><rect width="22" height="22" x="1" y="1" fill="url(#a)" opacity=".813" rx="6.6"/><rect width="18" height="18" x="3" y="2.25" fill="url(#b)" fill-opacity=".875" opacity=".125" rx="4.4"/><rect width="17.5" height="17.5" x="3.25" y="3.25" fill="#CCC" stroke="url(#c)" stroke-width=".5" rx="4.15"/><path fill="url(#d)" fill-opacity=".875" d="M1 7.508A3.008 3.008 0 0 1 4.008 4.5H8.19c1.075 0 2.117.37 2.95 1.048a4.678 4.678 0 0 0 2.95 1.047h5.902A3.008 3.008 0 0 1 23 9.603V15.5a6.6 6.6 0 0 1-6.6 6.6H7.6A6.6 6.6 0 0 1 1 15.5V7.508Z" opacity=".125"/><g opacity=".875"><path fill="url(#e)" d="M1 8.408A3.008 3.008 0 0 1 4.008 5.4H8.19c1.075 0 2.117.37 2.95 1.048a4.678 4.678 0 0 0 2.95 1.047h5.902A3.008 3.008 0 0 1 23 10.503V16.4a6.6 6.6 0 0 1-6.6 6.6H7.6A6.6 6.6 0 0 1 1 16.4V8.408Z"/><path stroke="url(#f)" stroke-linejoin="round" stroke-opacity=".375" stroke-width=".75" d="M22.625 10.503V16.4a6.225 6.225 0 0 1-6.225 6.225H7.6A6.225 6.225 0 0 1 1.375 16.4V8.408a2.633 2.633 0 0 1 2.633-2.633H8.19c.989 0 1.947.34 2.714.964a5.053 5.053 0 0 0 3.187 1.131h5.901a2.633 2.633 0 0 1 2.633 2.633Z"/></g><defs><linearGradient id="a" x1="23" x2="1" y1="1" y2="12" gradientUnits="userSpaceOnUse"><stop stop-color="#B3B3B3"/><stop offset="1" stop-color="#333"/></linearGradient><linearGradient id="b" x1="21" x2="3" y1="4" y2="4" gradientUnits="userSpaceOnUse"><stop stop-opacity=".5"/><stop offset=".89"/><stop offset="1" stop-opacity="0"/></linearGradient><linearGradient id="c" x1="12" x2="11.5" y1="3" y2="8" gradientUnits="userSpaceOnUse"><stop stop-color="#DDD"/><stop offset="1" stop-color="#CCC" stop-opacity="0"/></linearGradient><linearGradient id="d" x1="23" x2="1.012" y1="9" y2="9.521" gradientUnits="userSpaceOnUse"><stop stop-opacity=".5"/><stop offset="1"/></linearGradient><linearGradient id="e" x1="23" x2="1.429" y1="5.4" y2="23.512" gradientUnits="userSpaceOnUse"><stop stop-color="#E6E6E6"/><stop offset="1" stop-color="#333"/></linearGradient><linearGradient id="f" x1="15" x2="5.5" y1="5.5" y2="19.5" gradientUnits="userSpaceOnUse"><stop stop-color="#FAFAFA"/><stop offset="1" stop-color="#181818"/></linearGradient><linearGradient id="g" x1="18.6" x2="9.521" y1="10.239" y2="22.78" gradientUnits="userSpaceOnUse"><stop stop-color="#3C9BCE"/><stop offset="1" stop-color="#00405F"/></linearGradient><linearGradient id="h" x1="11.5" x2="7.2" y1="7.642" y2="11.942" gradientUnits="userSpaceOnUse"><stop stop-color="#3C9BCE"/><stop offset="1" stop-color="#00405F"/></linearGradient></defs><g style="opacity:.15;fill:#1a1a1a"><path fill="url(#g)" d="m17.328 16.058-1.66-3.88c-.301-.711-.752-1.114-1.266-1.14-.51-.027-1.002.328-1.379 1.007l-1.007 1.807c-.212.382-.514.61-.843.637-.334.031-.668-.144-.938-.488l-.117-.149c-.376-.472-.843-.7-1.32-.652-.477.048-.885.377-1.156.912l-.917 1.83a2.106 2.106 0 0 0 .09 2.056A2.103 2.103 0 0 0 8.613 19h6.764c.71 0 1.373-.355 1.765-.949a2.075 2.075 0 0 0 .186-1.993z" style="fill:#1a1a1a" transform="translate(-.7 .5)"/><path fill="url(#h)" d="M9.35 11.584A1.792 1.792 0 1 0 9.35 8a1.792 1.792 0 0 0 0 3.584z" style="fill:#1a1a1a" transform="translate(-.7 .5)"/></g><path fill="url(#g)" d="m17.328 16.058-1.66-3.88c-.301-.711-.752-1.114-1.266-1.14-.51-.027-1.002.328-1.379 1.007l-1.007 1.807c-.212.382-.514.61-.843.637-.334.031-.668-.144-.938-.488l-.117-.149c-.376-.472-.843-.7-1.32-.652-.477.048-.885.377-1.156.912l-.917 1.83a2.106 2.106 0 0 0 .09 2.056A2.103 2.103 0 0 0 8.613 19h6.764c.71 0 1.373-.355 1.765-.949a2.075 2.075 0 0 0 .186-1.993z" style="fill:url(#g)"/><path fill="url(#h)" d="M9.35 11.584A1.792 1.792 0 1 0 9.35 8a1.792 1.792 0 0 0 0 3.584z" style="fill:url(#h)"/></svg>