<?xml version="1.0" encoding="UTF-8" standalone="no"?>
<svg
   xml:space="preserve"
   width="24"
   height="24"
   fill="none"
   version="1.1"
   id="svg25"
   sodipodi:docname="folder-torrent.svg"
   inkscape:version="1.3 (0e150ed6c4, 2023-07-21)"
   xmlns:inkscape="http://www.inkscape.org/namespaces/inkscape"
   xmlns:sodipodi="http://sodipodi.sourceforge.net/DTD/sodipodi-0.dtd"
   xmlns="http://www.w3.org/2000/svg"
   xmlns:svg="http://www.w3.org/2000/svg"><sodipodi:namedview
     id="namedview25"
     pagecolor="#ffffff"
     bordercolor="#000000"
     borderopacity="0.25"
     inkscape:showpageshadow="2"
     inkscape:pageopacity="0.0"
     inkscape:pagecheckerboard="0"
     inkscape:deskcolor="#d1d1d1"
     inkscape:zoom="12.010417"
     inkscape:cx="-13.280138"
     inkscape:cy="16.111014"
     inkscape:window-width="3440"
     inkscape:window-height="1358"
     inkscape:window-x="2560"
     inkscape:window-y="0"
     inkscape:window-maximized="1"
     inkscape:current-layer="svg25" /><defs
     id="defs23"><linearGradient
       id="a"
       x1="23"
       x2="1"
       y1="1"
       y2="12"
       gradientUnits="userSpaceOnUse"><stop
         stop-color="#E3C880"
         id="stop5" /><stop
         offset="1"
         stop-color="#6F5C38"
         id="stop6" /></linearGradient><linearGradient
       id="b"
       x1="21"
       x2="3"
       y1="4"
       y2="4"
       gradientUnits="userSpaceOnUse"><stop
         stop-opacity=".5"
         id="stop7" /><stop
         offset=".89"
         id="stop8" /><stop
         offset="1"
         stop-opacity="0"
         id="stop9" /></linearGradient><linearGradient
       id="c"
       x1="12"
       x2="11.5"
       y1="3"
       y2="8"
       gradientUnits="userSpaceOnUse"><stop
         stop-color="#DDD"
         id="stop10" /><stop
         offset="1"
         stop-color="#CCC"
         stop-opacity="0"
         id="stop11" /></linearGradient><linearGradient
       id="d"
       x1="23"
       x2="1.012"
       y1="9"
       y2="9.521"
       gradientUnits="userSpaceOnUse"><stop
         stop-opacity=".5"
         id="stop12" /><stop
         offset="1"
         id="stop13" /></linearGradient><linearGradient
       id="e"
       x1="23"
       x2="1.429"
       y1="5.4"
       y2="23.511"
       gradientUnits="userSpaceOnUse"><stop
         stop-color="#FFE795"
         id="stop14" /><stop
         offset="1"
         stop-color="#7A653E"
         id="stop15" /></linearGradient><linearGradient
       id="f"
       x1="15"
       x2="5.5"
       y1="5.5"
       y2="19.5"
       gradientUnits="userSpaceOnUse"><stop
         stop-color="#FFE795"
         id="stop16" /><stop
         offset="1"
         stop-color="#7A653E"
         id="stop17" /></linearGradient><linearGradient
       id="g"
       x1="12"
       x2="11.5"
       y1="3"
       y2="8"
       gradientTransform="matrix(.75 0 0 -.75 0 18)"
       gradientUnits="userSpaceOnUse"
       spreadMethod="pad"><stop
         offset="0"
         style="stop-opacity:1;stop-color:#fff"
         id="stop18" /><stop
         offset="1"
         style="stop-opacity:0;stop-color:#fff"
         id="stop19" /></linearGradient><linearGradient
       id="i"
       x1="15"
       x2="5.5"
       y1="5.5"
       y2="19.5"
       gradientTransform="matrix(.75 0 0 -.75 0 18)"
       gradientUnits="userSpaceOnUse"
       spreadMethod="pad"><stop
         offset="0"
         style="stop-opacity:.37500572;stop-color:#fff"
         id="stop20" /><stop
         offset="1"
         style="stop-opacity:.37500572;stop-color:#fff"
         id="stop21" /></linearGradient><clipPath
       id="h"
       clipPathUnits="userSpaceOnUse"><path
         d="M1 1h16v16H1Z"
         id="path21" /></clipPath><clipPath
       id="j"
       clipPathUnits="userSpaceOnUse"><path
         d="M0 4h18v14H0Z"
         id="path22" /></clipPath><clipPath
       id="k"
       clipPathUnits="userSpaceOnUse"><path
         d="M0 0h19v19H0Z"
         id="path23" /></clipPath><linearGradient
       x1="23"
       y1="1"
       x2="1"
       y2="12"
       gradientUnits="userSpaceOnUse"
       gradientTransform="scale(0.75)"
       spreadMethod="pad"
       id="linearGradient2"><stop
         style="stop-opacity:1;stop-color:#2675a7"
         offset="0"
         id="stop1-9" /><stop
         style="stop-opacity:1;stop-color:#1d5e8c"
         offset="1"
         id="stop2-8" /></linearGradient><linearGradient
       x1="21"
       y1="4"
       x2="3"
       y2="4"
       gradientUnits="userSpaceOnUse"
       gradientTransform="scale(0.75)"
       spreadMethod="pad"
       id="linearGradient8"><stop
         style="stop-opacity:0.43750668;stop-color:#000000"
         offset="0"
         id="stop6-2" /><stop
         style="stop-opacity:0.87501335;stop-color:#000000"
         offset="0.89"
         id="stop7-6" /><stop
         style="stop-opacity:0;stop-color:#000000"
         offset="1"
         id="stop8-7" /></linearGradient><clipPath
       clipPathUnits="userSpaceOnUse"
       id="clipPath8-6"><path
         d="M 0,0 H 19 V 19 H 0 Z"
         id="path8-4" /></clipPath><mask
       maskUnits="userSpaceOnUse"
       x="0"
       y="0"
       width="1"
       height="1"
       id="mask10-2"><path
         id="path11-2"
         d="M 0,0 H 18 V 18 H 0 Z"
         style="fill:url(#g);fill-opacity:1;fill-rule:nonzero;stroke:none"
         transform="scale(1.3333333)"
         clip-path="url(#clipPath12-1)" /></mask><clipPath
       clipPathUnits="userSpaceOnUse"
       id="clipPath12-1"><path
         d="M 1,1 H 17 V 17 H 1 Z"
         id="path12-8" /></clipPath><linearGradient
       x1="12"
       y1="3"
       x2="11.5"
       y2="8"
       gradientUnits="userSpaceOnUse"
       gradientTransform="matrix(0.75,0,0,-0.75,0,18)"
       spreadMethod="pad"
       id="linearGradient14"><stop
         style="stop-opacity:1;stop-color:#ffffff"
         offset="0"
         id="stop13-3" /><stop
         style="stop-opacity:1;stop-color:#cccccc"
         offset="1"
         id="stop14-9" /></linearGradient><clipPath
       clipPathUnits="userSpaceOnUse"
       id="clipPath14-1"><path
         d="M 1,1 H 17 V 17 H 1 Z"
         id="path14-3" /></clipPath><linearGradient
       x1="23"
       y1="9"
       x2="1.012"
       y2="9.5209999"
       gradientUnits="userSpaceOnUse"
       gradientTransform="scale(0.75)"
       spreadMethod="pad"
       id="linearGradient18"><stop
         style="stop-opacity:0.43750668;stop-color:#000000"
         offset="0"
         id="stop17-9" /><stop
         style="stop-opacity:0.87501335;stop-color:#000000"
         offset="1"
         id="stop18-7" /></linearGradient><clipPath
       clipPathUnits="userSpaceOnUse"
       id="clipPath18-4"><path
         d="M 0,0 H 19 V 19 H 0 Z"
         id="path18-4" /></clipPath><linearGradient
       x1="23"
       y1="5.4000001"
       x2="1.429"
       y2="23.511999"
       gradientUnits="userSpaceOnUse"
       gradientTransform="scale(0.75)"
       spreadMethod="pad"
       id="linearGradient20"><stop
         style="stop-opacity:1;stop-color:#64b4f4"
         offset="0"
         id="stop19-9" /><stop
         style="stop-opacity:1;stop-color:#127bdc"
         offset="1"
         id="stop20-7" /></linearGradient><linearGradient
       id="l"
       x1="15"
       x2="5.5"
       y1="5.5"
       y2="19.5"
       gradientUnits="userSpaceOnUse"><stop
         offset="0"
         stop-color="#85F8FF"
         style="stop-color:#f2f2f2;stop-opacity:1"
         id="stop10-7" /><stop
         offset="1"
         stop-color="#105BF6"
         style="stop-color:#11599c;stop-opacity:1"
         id="stop11-53" /></linearGradient><clipPath
       clipPathUnits="userSpaceOnUse"
       id="clipPath8-6-2"><path
         d="M 0,0 H 19 V 19 H 0 Z"
         id="path8-4-7" /></clipPath><linearGradient
       x1="23"
       y1="9"
       x2="1.012"
       y2="9.5209999"
       gradientUnits="userSpaceOnUse"
       gradientTransform="scale(0.75)"
       spreadMethod="pad"
       id="linearGradient13"><stop
         style="stop-opacity:0.43750668;stop-color:#000000"
         offset="0"
         id="stop12-8" /><stop
         style="stop-color:#000000;stop-opacity:0.87450981;"
         offset="1"
         id="stop13-8" /></linearGradient><clipPath
       clipPathUnits="userSpaceOnUse"
       id="clipPath18-4-3"><path
         d="M 0,0 H 19 V 19 H 0 Z"
         id="path18-4-6" /></clipPath><linearGradient
       x1="23"
       y1="5.4000001"
       x2="1.429"
       y2="23.511999"
       gradientUnits="userSpaceOnUse"
       gradientTransform="scale(0.75)"
       spreadMethod="pad"
       id="linearGradient15"><stop
         style="stop-color:#127bdc;stop-opacity:1;"
         offset="0"
         id="stop14-92" /><stop
         style="stop-color:#64b4f4;stop-opacity:1;"
         offset="1"
         id="stop15-8" /></linearGradient><linearGradient
       id="paint0_linear_0_1"
       x1="24.062401"
       y1="-0.504188"
       x2="-0.065581299"
       y2="11.5558"
       gradientUnits="userSpaceOnUse"><stop
         stop-color="#2675A7"
         id="stop6-4" /><stop
         offset="1"
         stop-color="#1D5E8C"
         id="stop7-62" /></linearGradient><linearGradient
       id="paint1_linear_0_1"
       x1="21"
       y1="3.75"
       x2="3"
       y2="3.75"
       gradientUnits="userSpaceOnUse"><stop
         stop-opacity="0.5"
         id="stop8-5" /><stop
         offset="0.890123"
         id="stop9-8" /><stop
         offset="1"
         stop-opacity="0"
         id="stop10-6" /></linearGradient><linearGradient
       id="paint2_linear_0_1"
       x1="21"
       y1="3"
       x2="20.5"
       y2="6"
       gradientUnits="userSpaceOnUse"><stop
         stop-color="#FAFAFA"
         id="stop11-2" /><stop
         offset="1"
         stop-color="#FAFAFA"
         stop-opacity="0"
         id="stop12-84" /></linearGradient><linearGradient
       id="paint3_linear_0_1"
       x1="23"
       y1="8.6026201"
       x2="1.0114599"
       y2="9.1120195"
       gradientUnits="userSpaceOnUse"><stop
         stop-opacity="0.437507"
         id="stop13-7" /><stop
         offset="1"
         stop-opacity="0.87451"
         id="stop14-2" /></linearGradient><linearGradient
       id="paint4_linear_0_1"
       x1="1"
       y1="23"
       x2="21.931101"
       y2="4.7725801"
       gradientUnits="userSpaceOnUse"><stop
         stop-color="#318CDE"
         id="stop15-4" /><stop
         offset="1"
         stop-color="#70B7F1"
         id="stop16-0" /></linearGradient><linearGradient
       id="paint5_linear_0_1"
       x1="1"
       y1="22.955799"
       x2="21.934299"
       y2="4.7730298"
       gradientUnits="userSpaceOnUse"><stop
         stop-color="#1E71BD"
         id="stop17-6" /><stop
         offset="1"
         stop-color="#559CD9"
         id="stop18-2" /></linearGradient></defs><path
     opacity="0.875"
     d="M 7.59961,1 C 3.94361,1 1,3.94166 1,7.59766 V 16.4004 C 1,20.0564 3.94361,23 7.59961,23 H 16.4004 C 20.0564,23 23,20.0564 23,16.4004 V 7.59766 C 23,3.94166 20.0564,1 16.4004,1 H 12 Z"
     fill="url(#paint0_linear_0_1)"
     id="path1"
     style="fill:url(#paint0_linear_0_1)" /><rect
     opacity="0.125"
     x="3"
     y="2"
     width="18"
     height="18"
     rx="4.4000001"
     fill="url(#paint1_linear_0_1)"
     fill-opacity="0.875"
     id="rect1"
     style="fill:url(#paint1_linear_0_1)" /><path
     d="M 7.26004,2.97884 H 16.74 c 2.3734,0 4.2782,1.90541 4.2782,4.27962 v 9.48304 c 0,2.3742 -1.9048,4.2797 -4.2782,4.2797 H 7.26004 c -2.37341,0 -4.2782,-1.9055 -4.2782,-4.2797 V 7.25846 c 0,-2.37421 1.90479,-4.27962 4.2782,-4.27962 z"
     fill="#cccccc"
     id="path2" /><path
     fill-rule="evenodd"
     clip-rule="evenodd"
     d="M 16.74,4.97884 H 7.26004 c -1.26822,0 -2.2782,1.00935 -2.2782,2.27962 v 9.48304 c 0,1.2703 1.00998,2.2797 2.2782,2.2797 H 16.74 c 1.2682,0 2.2782,-1.0094 2.2782,-2.2797 V 7.25846 c 0,-1.27027 -1.01,-2.27962 -2.2782,-2.27962 z m 0,-2 H 7.26004 c -2.37341,0 -4.2782,1.90541 -4.2782,4.27962 v 9.48304 c 0,2.3742 1.90479,4.2797 4.2782,4.2797 H 16.74 c 2.3734,0 4.2782,-1.9055 4.2782,-4.2797 V 7.25846 c 0,-2.37421 -1.9048,-4.27962 -4.2782,-4.27962 z"
     fill="url(#paint2_linear_0_1)"
     id="path3"
     style="fill:url(#paint2_linear_0_1)" /><path
     opacity="0.25"
     d="M 1,7.07932 C 1,5.3801 2.34933,4 4.01067,4 H 8.188 c 1.07733,0 2.1187,0.37776 2.952,1.07054 0.8333,0.69278 1.876,1.07053 2.948,1.07053 h 5.9013 C 21.6507,6.14107 23,7.52118 23,9.2204 v 6.0305 C 23,18.9793 20.0467,22 16.4013,22 H 7.59867 C 3.95333,22 1,18.9793 1,15.2509 Z"
     fill="url(#paint3_linear_0_1)"
     fill-opacity="0.75"
     id="path4"
     style="fill:url(#paint3_linear_0_1)" /><g
     opacity="0.875"
     id="g6"><path
       d="M 23,11.0316 C 23,9.37045 21.6534,8.02381 19.9922,8.02381 h -5.9289 c -1.0584,0 -2.0902,-0.35842 -2.9227,-1.01191 C 10.3082,6.35842 9.27633,6 8.218,6 H 4.00781 C 2.34664,6 1,7.34664 1,9.00781 V 16.4004 C 1,20.0564 3.94361,23 7.59961,23 H 16.4004 C 20.0547,23 22.9973,20.0591 23,16.4055 Z"
       fill="url(#paint4_linear_0_1)"
       id="path5"
       style="fill:url(#paint4_linear_0_1)" /><path
       d="M 19.9922,9.02381 C 21.1011,9.02381 22,9.92274 22,11.0316 v 5.3731 C 21.9977,19.5064 19.5027,22 16.4004,22 H 7.59961 C 4.4959,22 2,19.5041 2,16.4004 V 9.00781 C 2,7.89893 2.89893,7 4.00781,7 H 8.218 c 0.83327,0 1.6479,0.28256 2.3052,0.7985 1.0077,0.79103 2.2567,1.22531 3.5401,1.22531 z"
       stroke="url(#paint5_linear_0_1)"
       stroke-opacity="0.375"
       stroke-width="2"
       id="path6"
       style="stroke:url(#paint5_linear_0_1)" /></g><g
     id="g2"
     transform="translate(-20)"><g
       id="g1"><path
         d="M 8.461,7.125 A 4.039,4.039 0 0 0 5.66,8.242 3.728,3.728 0 0 0 4.5,10.934 3.74,3.74 0 0 0 5.66,13.625 4.039,4.039 0 0 0 8.461,14.742 H 12.75 V 14.105 H 8.461 A 3.383,3.383 0 0 1 6.125,13.176 3.117,3.117 0 0 1 5.16,10.934 c 0,-0.844 0.348,-1.649 0.965,-2.246 a 3.384,3.384 0 0 1 2.336,-0.93 z m 0,0.953 c -1.641,0 -2.973,1.277 -2.973,2.856 0,1.578 1.332,2.855 2.973,2.855 H 12.75 V 13.152 H 8.461 c -1.277,0 -2.313,-0.992 -2.313,-2.218 0,-1.227 1.036,-2.223 2.313,-2.223 0.34,0 0.68,0.074 0.988,0.219 V 8.242 A 3.038,3.038 0 0 0 8.461,8.078 Z m 0,0.949 C 7.934,9.027 7.43,9.23 7.059,9.586 A 1.877,1.877 0 0 0 6.48,10.934 c 0,0.504 0.208,0.988 0.579,1.343 0.371,0.36 0.875,0.559 1.402,0.559 H 12.75 V 12.203 H 8.461 a 1.36,1.36 0 0 1 -0.934,-0.371 1.237,1.237 0 0 1 0,-1.797 C 7.773,9.797 8.109,9.664 8.461,9.664 a 1.32,1.32 0 0 1 1.141,0.633 h 0.722 A 1.911,1.911 0 0 0 9.602,9.379 2.067,2.067 0 0 0 8.461,9.027 Z"
         clip-path="url(#k)"
         opacity="0.15"
         style="fill:#1a1a1a;fill-opacity:1;fill-rule:nonzero;stroke:none"
         transform="matrix(1.33333,0,0,1.33333,19.997,0.001)"
         id="path24" /><path
         d="m 31.778,9.001 a 5.385,5.385 0 0 0 -3.735,1.49 4.97,4.97 0 0 0 -1.546,3.589 c 0,1.343 0.557,2.635 1.546,3.588 a 5.385,5.385 0 0 0 3.735,1.49 h 5.719 v -0.85 h -5.719 a 4.51,4.51 0 0 1 -3.115,-1.239 4.156,4.156 0 0 1 -1.286,-2.99 c 0,-1.124 0.464,-2.198 1.286,-2.995 a 4.517,4.517 0 0 1 3.115,-1.239 z m 0,1.27 c -2.188,0 -3.964,1.704 -3.964,3.809 0,2.104 1.776,3.807 3.964,3.807 h 5.719 v -0.85 h -5.719 c -1.703,0 -3.084,-1.322 -3.084,-2.957 0,-1.636 1.381,-2.964 3.084,-2.964 0.453,0 0.907,0.099 1.317,0.292 v -0.917 a 4.051,4.051 0 0 0 -1.317,-0.22 z m 0,1.266 c -0.703,0 -1.375,0.27 -1.87,0.746 a 2.497,2.497 0 0 0 -0.771,1.797 c 0,0.67 0.276,1.317 0.772,1.79 a 2.68,2.68 0 0 0 1.87,0.746 h 5.718 v -0.844 h -5.719 c -0.47,0 -0.917,-0.183 -1.245,-0.495 a 1.65,1.65 0 0 1 0,-2.396 1.79,1.79 0 0 1 1.245,-0.494 c 0.307,0 0.61,0.078 0.875,0.224 0.27,0.15 0.49,0.364 0.646,0.62 h 0.963 a 2.556,2.556 0 0 0 -0.963,-1.224 2.756,2.756 0 0 0 -1.52,-0.47 z"
         style="fill:#6fa54a;fill-opacity:1;fill-rule:nonzero;stroke:none;stroke-width:1.33333"
         id="path25" /></g></g></svg>
