<?xml version="1.0" encoding="UTF-8" standalone="no"?>
<svg
   xml:space="preserve"
   id="svg18"
   width="24"
   height="24"
   fill="none"
   version="1.1"
   sodipodi:docname="folder-java.svg"
   inkscape:version="1.3 (0e150ed6c4, 2023-07-21)"
   xmlns:inkscape="http://www.inkscape.org/namespaces/inkscape"
   xmlns:sodipodi="http://sodipodi.sourceforge.net/DTD/sodipodi-0.dtd"
   xmlns="http://www.w3.org/2000/svg"
   xmlns:svg="http://www.w3.org/2000/svg"><sodipodi:namedview
     id="namedview1"
     pagecolor="#ffffff"
     bordercolor="#000000"
     borderopacity="0.25"
     inkscape:showpageshadow="2"
     inkscape:pageopacity="0.0"
     inkscape:pagecheckerboard="0"
     inkscape:deskcolor="#d1d1d1"
     inkscape:zoom="16.985294"
     inkscape:cx="15.277922"
     inkscape:cy="17.691775"
     inkscape:window-width="3440"
     inkscape:window-height="1358"
     inkscape:window-x="2560"
     inkscape:window-y="0"
     inkscape:window-maximized="1"
     inkscape:current-layer="svg18" /><defs
     id="defs18"><linearGradient
       id="paint0_linear_211_262"
       x1="23"
       x2="1"
       y1="1"
       y2="12"
       gradientUnits="userSpaceOnUse"><stop
         id="stop6"
         stop-color="#E3C880" /><stop
         id="stop7"
         offset="1"
         stop-color="#6F5C38" /></linearGradient><linearGradient
       id="paint1_linear_211_262"
       x1="21"
       x2="3"
       y1="4"
       y2="4"
       gradientUnits="userSpaceOnUse"><stop
         id="stop8"
         stop-opacity=".5" /><stop
         id="stop9"
         offset=".89" /><stop
         id="stop10"
         offset="1"
         stop-opacity="0" /></linearGradient><linearGradient
       id="paint2_linear_211_262"
       x1="12"
       x2="11.5"
       y1="3"
       y2="8"
       gradientUnits="userSpaceOnUse"><stop
         id="stop11"
         stop-color="#DDD" /><stop
         id="stop12"
         offset="1"
         stop-color="#CCC"
         stop-opacity="0" /></linearGradient><linearGradient
       id="paint3_linear_211_262"
       x1="23"
       x2="1.012"
       y1="9"
       y2="9.521"
       gradientUnits="userSpaceOnUse"><stop
         id="stop13"
         stop-opacity=".5" /><stop
         id="stop14"
         offset="1" /></linearGradient><linearGradient
       id="paint4_linear_211_262"
       x1="23"
       x2="1.429"
       y1="5.4"
       y2="23.512"
       gradientUnits="userSpaceOnUse"><stop
         id="stop15"
         stop-color="#FFE795" /><stop
         id="stop16"
         offset="1"
         stop-color="#7A653E" /></linearGradient><linearGradient
       id="paint5_linear_211_262"
       x1="15"
       x2="5.5"
       y1="5.5"
       y2="19.5"
       gradientUnits="userSpaceOnUse"><stop
         id="stop17"
         stop-color="#FFE795" /><stop
         id="stop18"
         offset="1"
         stop-color="#7A653E" /></linearGradient><clipPath
       id="clipPath18"
       clipPathUnits="userSpaceOnUse" /><clipPath
       id="clipPath19"
       clipPathUnits="userSpaceOnUse" /><clipPath
       id="clipPath20"
       clipPathUnits="userSpaceOnUse" /><clipPath
       id="clipPath21"
       clipPathUnits="userSpaceOnUse" /><clipPath
       id="clipPath22"
       clipPathUnits="userSpaceOnUse" /><path
       id="SVGID_1_"
       d="M124.12 110.1h934.48v611.52H124.12z" /><defs
       id="defs1"><path
         id="rect18"
         d="M124.12 110.1h934.48v611.52H124.12z" /></defs><linearGradient
       x1="23"
       y1="1"
       x2="1"
       y2="12"
       gradientUnits="userSpaceOnUse"
       gradientTransform="scale(0.75)"
       spreadMethod="pad"
       id="linearGradient2"><stop
         style="stop-opacity:1;stop-color:#2675a7"
         offset="0"
         id="stop1-9" /><stop
         style="stop-opacity:1;stop-color:#1d5e8c"
         offset="1"
         id="stop2-8" /></linearGradient><linearGradient
       x1="21"
       y1="4"
       x2="3"
       y2="4"
       gradientUnits="userSpaceOnUse"
       gradientTransform="scale(0.75)"
       spreadMethod="pad"
       id="linearGradient8"><stop
         style="stop-opacity:0.43750668;stop-color:#000000"
         offset="0"
         id="stop6-2" /><stop
         style="stop-opacity:0.87501335;stop-color:#000000"
         offset="0.89"
         id="stop7-6" /><stop
         style="stop-opacity:0;stop-color:#000000"
         offset="1"
         id="stop8-7" /></linearGradient><clipPath
       clipPathUnits="userSpaceOnUse"
       id="clipPath8-6"><path
         d="M 0,0 H 19 V 19 H 0 Z"
         id="path8-4" /></clipPath><mask
       maskUnits="userSpaceOnUse"
       x="0"
       y="0"
       width="1"
       height="1"
       id="mask10-2"><path
         id="path11-2"
         d="M 0,0 H 18 V 18 H 0 Z"
         style="fill:url(#linearGradient12);fill-opacity:1;fill-rule:nonzero;stroke:none"
         transform="scale(1.3333333)"
         clip-path="url(#clipPath12-1)" /></mask><linearGradient
       x1="12"
       y1="3"
       x2="11.5"
       y2="8"
       gradientUnits="userSpaceOnUse"
       gradientTransform="matrix(0.75,0,0,-0.75,0,18)"
       spreadMethod="pad"
       id="linearGradient12"><stop
         style="stop-opacity:1;stop-color:#ffffff"
         offset="0"
         id="stop11-5" /><stop
         style="stop-opacity:0;stop-color:#ffffff"
         offset="1"
         id="stop12-9" /></linearGradient><clipPath
       clipPathUnits="userSpaceOnUse"
       id="clipPath12-1"><path
         d="M 1,1 H 17 V 17 H 1 Z"
         id="path12-8" /></clipPath><linearGradient
       x1="12"
       y1="3"
       x2="11.5"
       y2="8"
       gradientUnits="userSpaceOnUse"
       gradientTransform="matrix(0.75,0,0,-0.75,0,18)"
       spreadMethod="pad"
       id="linearGradient14"><stop
         style="stop-opacity:1;stop-color:#ffffff"
         offset="0"
         id="stop13-3" /><stop
         style="stop-opacity:1;stop-color:#cccccc"
         offset="1"
         id="stop14-9" /></linearGradient><clipPath
       clipPathUnits="userSpaceOnUse"
       id="clipPath14-1"><path
         d="M 1,1 H 17 V 17 H 1 Z"
         id="path14-3" /></clipPath><linearGradient
       x1="23"
       y1="9"
       x2="1.012"
       y2="9.5209999"
       gradientUnits="userSpaceOnUse"
       gradientTransform="scale(0.75)"
       spreadMethod="pad"
       id="linearGradient18"><stop
         style="stop-opacity:0.43750668;stop-color:#000000"
         offset="0"
         id="stop17-9" /><stop
         style="stop-opacity:0.87501335;stop-color:#000000"
         offset="1"
         id="stop18-7" /></linearGradient><clipPath
       clipPathUnits="userSpaceOnUse"
       id="clipPath18-4"><path
         d="M 0,0 H 19 V 19 H 0 Z"
         id="path18-4" /></clipPath><linearGradient
       x1="23"
       y1="5.4000001"
       x2="1.429"
       y2="23.511999"
       gradientUnits="userSpaceOnUse"
       gradientTransform="scale(0.75)"
       spreadMethod="pad"
       id="linearGradient20"><stop
         style="stop-opacity:1;stop-color:#64b4f4"
         offset="0"
         id="stop19-9" /><stop
         style="stop-opacity:1;stop-color:#127bdc"
         offset="1"
         id="stop20-7" /></linearGradient><linearGradient
       id="l"
       x1="15"
       x2="5.5"
       y1="5.5"
       y2="19.5"
       gradientUnits="userSpaceOnUse"><stop
         offset="0"
         stop-color="#85F8FF"
         style="stop-color:#f2f2f2;stop-opacity:1"
         id="stop10-6" /><stop
         offset="1"
         stop-color="#105BF6"
         style="stop-color:#11599c;stop-opacity:1"
         id="stop11-1" /></linearGradient><style
       id="current-color-scheme"
       type="text/css">.ColorScheme-Text { color:#dedede; }</style><clipPath
       clipPathUnits="userSpaceOnUse"
       id="clipPath8-6-2"><path
         d="M 0,0 H 19 V 19 H 0 Z"
         id="path8-4-7" /></clipPath><linearGradient
       x1="23"
       y1="9"
       x2="1.012"
       y2="9.5209999"
       gradientUnits="userSpaceOnUse"
       gradientTransform="scale(0.75)"
       spreadMethod="pad"
       id="linearGradient13"><stop
         style="stop-opacity:0.43750668;stop-color:#000000"
         offset="0"
         id="stop12-8" /><stop
         style="stop-color:#000000;stop-opacity:0.87450981;"
         offset="1"
         id="stop13-1" /></linearGradient><clipPath
       clipPathUnits="userSpaceOnUse"
       id="clipPath18-4-3"><path
         d="M 0,0 H 19 V 19 H 0 Z"
         id="path18-4-6" /></clipPath><linearGradient
       x1="23"
       y1="5.4000001"
       x2="1.429"
       y2="23.511999"
       gradientUnits="userSpaceOnUse"
       gradientTransform="scale(0.75)"
       spreadMethod="pad"
       id="linearGradient15"><stop
         style="stop-color:#127bdc;stop-opacity:1;"
         offset="0"
         id="stop14-99" /><stop
         style="stop-color:#64b4f4;stop-opacity:1;"
         offset="1"
         id="stop15-7" /></linearGradient><linearGradient
       id="paint0_linear_0_1"
       x1="24.062401"
       y1="-0.504188"
       x2="-0.065581299"
       y2="11.5558"
       gradientUnits="userSpaceOnUse"><stop
         stop-color="#2675A7"
         id="stop6-6" /><stop
         offset="1"
         stop-color="#1D5E8C"
         id="stop7-8" /></linearGradient><linearGradient
       id="paint1_linear_0_1"
       x1="21"
       y1="3.75"
       x2="3"
       y2="3.75"
       gradientUnits="userSpaceOnUse"><stop
         stop-opacity="0.5"
         id="stop8-3" /><stop
         offset="0.890123"
         id="stop9-8" /><stop
         offset="1"
         stop-opacity="0"
         id="stop10-3" /></linearGradient><linearGradient
       id="paint2_linear_0_1"
       x1="21"
       y1="3"
       x2="20.5"
       y2="6"
       gradientUnits="userSpaceOnUse"><stop
         stop-color="#FAFAFA"
         id="stop11-3" /><stop
         offset="1"
         stop-color="#FAFAFA"
         stop-opacity="0"
         id="stop12-3" /></linearGradient><linearGradient
       id="paint3_linear_0_1"
       x1="23"
       y1="8.6026201"
       x2="1.0114599"
       y2="9.1120195"
       gradientUnits="userSpaceOnUse"><stop
         stop-opacity="0.437507"
         id="stop13-8" /><stop
         offset="1"
         stop-opacity="0.87451"
         id="stop14-0" /></linearGradient><linearGradient
       id="paint4_linear_0_1"
       x1="1"
       y1="23"
       x2="21.931101"
       y2="4.7725801"
       gradientUnits="userSpaceOnUse"><stop
         stop-color="#318CDE"
         id="stop15-4" /><stop
         offset="1"
         stop-color="#70B7F1"
         id="stop16-7" /></linearGradient><linearGradient
       id="paint5_linear_0_1"
       x1="1"
       y1="22.955799"
       x2="21.934299"
       y2="4.7730298"
       gradientUnits="userSpaceOnUse"><stop
         stop-color="#1E71BD"
         id="stop17-6" /><stop
         offset="1"
         stop-color="#559CD9"
         id="stop18-8" /></linearGradient></defs><style
     id="style1"
     type="text/css">.st1{fill:#5582a1}.st2{fill:#f49734}</style><g
     id="g27"
     transform="matrix(1.03155 0 0 1.03155 -.37 -.03)"><path
       id="path1"
       d="M39.81 1.707c.806 3.177-2.845 4.14-4.163 6.12-.897 1.348.441 2.796 2.266 4.442-.712-1.608-3.125-3.015 0-5.484 3.896-3.076 1.896-5.078 1.896-5.078zm2.412 3.933c0-.001-6.592 1.643-3.445 5.27.93 1.068-.242 2.033-.242 2.033s2.356-1.217 1.274-2.741c-1.011-1.421-1.786-2.128 2.413-4.562zm1.066 6.482c-.202.01-.416.05-.632.127-.202.072-.308.236-.308.236s.128-.05.414-.11c1.165-.242 2.835 1.56-.776 3.434-.017.045-.07.096-.072.1 4.37-1.15 3.325-3.886 1.374-3.787zm-7.815.178c-.46.012-1.54.113-2.792.718-1.977.955 4.888 1.389 8.44.454.37-.25.882-.468.882-.468s-1.457.258-2.905.38c-1.772.148-3.672.178-4.626.05-2.26-.3 1.24-1.13 1.24-1.13s-.086-.008-.24-.004zm-.578 2.187c-3.259 1.082 1.816 2.308 6.37.977-.485-.172-.793-.481-.793-.481-2.226.427-3.513.411-5.143.242-1.259-.13-.434-.738-.434-.738zm.462 2.105c-2.961.828 1.799 2.536 5.57.92-.619-.24-1.06-.517-1.06-.517-1.68.318-2.46.345-3.984.171-1.26-.144-.526-.574-.526-.574zm-1.914 1.398c-1.272-.05-4.16 1.22-1.695 1.62 7.683 1.246 14.007-.56 12.015-1.46 0 0 .542.45-.602.796-2.175.66-9.05.859-10.962.028-.687-.299.6-.713 1.005-.8.423-.092.666-.078.666-.078-.095-.068-.245-.1-.427-.106zm11.54 1.14s-.243.621-2.864 1.115c-2.959.557-6.611.494-8.775.137-.002.002.443.365 2.72.512 3.466.221 8.792-.122 8.919-1.763z"
       class="st1"
       clip-path="url(#clipPath22)"
       style="opacity:.15;fill:#1a1a1a;fill-opacity:1;stroke-width:.0314712"
       transform="matrix(.57157 0 0 .57157 -10.096 7.724)" /><path
       id="path2"
       d="M38.778 10.91c.93 1.07-.244 2.032-.244 2.032s2.357-1.217 1.276-2.741c-1.012-1.421-1.787-2.126 2.411-4.56 0-.002-6.59 1.643-3.443 5.27z"
       class="st2"
       clip-path="url(#clipPath21)"
       style="fill:#db380e;fill-opacity:1;stroke-width:.0314712"
       transform="matrix(.57157 0 0 .57157 -9.787 7.47)" /><path
       id="path4-7"
       d="M39.81 1.708s2 2.001-1.897 5.077c-3.125 2.469-.713 3.875-.002 5.483-1.825-1.646-3.162-3.095-2.265-4.442 1.318-1.98 4.97-2.941 4.163-6.118Z"
       class="st2"
       clip-path="url(#clipPath19)"
       style="fill:#db380e;fill-opacity:1;stroke-width:.0314712"
       transform="matrix(.57157 0 0 .57157 -9.787 7.47)" /><path
       id="path27"
       d="M43.288 12.122c-.202.01-.416.05-.632.127-.202.072-.308.236-.308.236s.128-.05.414-.11c1.165-.242 2.835 1.56-.776 3.434-.017.045-.07.096-.072.1 4.37-1.15 3.325-3.886 1.374-3.787zm-7.815.178c-.46.012-1.54.113-2.792.718-1.977.955 4.888 1.389 8.44.454.37-.25.882-.468.882-.468s-1.457.258-2.905.38c-1.772.148-3.672.178-4.626.05-2.26-.3 1.24-1.13 1.24-1.13s-.086-.008-.24-.004zm-.578 2.187c-3.259 1.082 1.816 2.308 6.37.977-.485-.172-.793-.481-.793-.481-2.226.427-3.513.411-5.143.242-1.259-.13-.434-.738-.434-.738zm.462 2.105c-2.961.828 1.799 2.536 5.57.92-.619-.24-1.06-.517-1.06-.517-1.68.318-2.46.345-3.984.171-1.26-.144-.526-.574-.526-.574zm-1.914 1.398c-1.272-.05-4.16 1.22-1.695 1.62 7.683 1.246 14.007-.56 12.015-1.46 0 0 .542.45-.602.796-2.175.66-9.05.859-10.962.028-.687-.299.6-.713 1.005-.8.423-.092.666-.078.666-.078-.095-.068-.245-.1-.427-.106zm11.54 1.14s-.243.621-2.864 1.115c-2.959.557-6.611.494-8.775.137-.002.002.443.365 2.72.512 3.466.221 8.792-.122 8.919-1.763z"
       class="st1"
       clip-path="url(#clipPath22)"
       style="fill:#296790;fill-opacity:1;stroke-width:.0314712"
       transform="matrix(.57157 0 0 .57157 -9.787 7.47)" /></g><path
     opacity="0.875"
     d="M 7.59961,1 C 3.94361,1 1,3.94166 1,7.59766 V 16.4004 C 1,20.0564 3.94361,23 7.59961,23 H 16.4004 C 20.0564,23 23,20.0564 23,16.4004 V 7.59766 C 23,3.94166 20.0564,1 16.4004,1 H 12 Z"
     fill="url(#paint0_linear_0_1)"
     id="path1-6"
     style="fill:url(#paint0_linear_0_1)" /><rect
     opacity="0.125"
     x="3"
     y="2"
     width="18"
     height="18"
     rx="4.4000001"
     fill="url(#paint1_linear_0_1)"
     fill-opacity="0.875"
     id="rect1"
     style="fill:url(#paint1_linear_0_1)" /><path
     d="M 7.26004,2.97884 H 16.74 c 2.3734,0 4.2782,1.90541 4.2782,4.27962 v 9.48304 c 0,2.3742 -1.9048,4.2797 -4.2782,4.2797 H 7.26004 c -2.37341,0 -4.2782,-1.9055 -4.2782,-4.2797 V 7.25846 c 0,-2.37421 1.90479,-4.27962 4.2782,-4.27962 z"
     fill="#cccccc"
     id="path2-8" /><path
     fill-rule="evenodd"
     clip-rule="evenodd"
     d="M 16.74,4.97884 H 7.26004 c -1.26822,0 -2.2782,1.00935 -2.2782,2.27962 v 9.48304 c 0,1.2703 1.00998,2.2797 2.2782,2.2797 H 16.74 c 1.2682,0 2.2782,-1.0094 2.2782,-2.2797 V 7.25846 c 0,-1.27027 -1.01,-2.27962 -2.2782,-2.27962 z m 0,-2 H 7.26004 c -2.37341,0 -4.2782,1.90541 -4.2782,4.27962 v 9.48304 c 0,2.3742 1.90479,4.2797 4.2782,4.2797 H 16.74 c 2.3734,0 4.2782,-1.9055 4.2782,-4.2797 V 7.25846 c 0,-2.37421 -1.9048,-4.27962 -4.2782,-4.27962 z"
     fill="url(#paint2_linear_0_1)"
     id="path3-7"
     style="fill:url(#paint2_linear_0_1)" /><path
     opacity="0.25"
     d="M 1,7.07932 C 1,5.3801 2.34933,4 4.01067,4 H 8.188 c 1.07733,0 2.1187,0.37776 2.952,1.07054 0.8333,0.69278 1.876,1.07053 2.948,1.07053 h 5.9013 C 21.6507,6.14107 23,7.52118 23,9.2204 v 6.0305 C 23,18.9793 20.0467,22 16.4013,22 H 7.59867 C 3.95333,22 1,18.9793 1,15.2509 Z"
     fill="url(#paint3_linear_0_1)"
     fill-opacity="0.75"
     id="path4-9"
     style="fill:url(#paint3_linear_0_1)" /><g
     opacity="0.875"
     id="g6"><path
       d="M 23,11.0316 C 23,9.37045 21.6534,8.02381 19.9922,8.02381 h -5.9289 c -1.0584,0 -2.0902,-0.35842 -2.9227,-1.01191 C 10.3082,6.35842 9.27633,6 8.218,6 H 4.00781 C 2.34664,6 1,7.34664 1,9.00781 V 16.4004 C 1,20.0564 3.94361,23 7.59961,23 H 16.4004 C 20.0547,23 22.9973,20.0591 23,16.4055 Z"
       fill="url(#paint4_linear_0_1)"
       id="path5"
       style="fill:url(#paint4_linear_0_1)" /><path
       d="M 19.9922,9.02381 C 21.1011,9.02381 22,9.92274 22,11.0316 v 5.3731 C 21.9977,19.5064 19.5027,22 16.4004,22 H 7.59961 C 4.4959,22 2,19.5041 2,16.4004 V 9.00781 C 2,7.89893 2.89893,7 4.00781,7 H 8.218 c 0.83327,0 1.6479,0.28256 2.3052,0.7985 1.0077,0.79103 2.2567,1.22531 3.5401,1.22531 z"
       stroke="url(#paint5_linear_0_1)"
       stroke-opacity="0.375"
       stroke-width="2"
       id="path6"
       style="stroke:url(#paint5_linear_0_1)" /></g><g
     id="g1"
     transform="translate(-20)"><path
       id="path3"
       style="opacity:0.15;fill:#1a1a1a;fill-opacity:1;stroke-width:0.999996"
       class="ColorScheme-Text"
       d="m 34.69652,15.219152 c -0.11802,0.0061 -0.241977,0.03065 -0.36837,0.07518 -0.118769,0.04179 -0.180427,0.137199 -0.180427,0.137199 0,0 0.0753,-0.0306 0.242448,-0.06578 0.681824,-0.142945 1.660673,0.913478 -0.452945,2.011003 -0.01098,0.0264 -0.0451,0.0542 -0.0451,0.05638 2.557279,-0.671699 1.945261,-2.273104 0.804401,-2.213983 z m -4.570804,0.105249 c -0.269183,0.0072 -0.901073,0.06612 -1.635115,0.419116 -1.154675,0.558645 2.858865,0.814523 4.937296,0.26688 0.215536,-0.147358 0.514967,-0.276278 0.514967,-0.276278 0,0 -0.850382,0.153272 -1.697137,0.223654 -1.035873,0.08578 -2.149631,0.104845 -2.708277,0.03007 -1.321831,-0.175946 0.725465,-0.663443 0.725465,-0.663443 0,0 -0.04747,-0.0024 -0.137199,10e-7 z m -0.338299,1.278021 c -1.909093,0.633418 1.06094,1.35028 3.728813,0.569471 -0.28372,-0.09898 -0.462343,-0.281917 -0.462343,-0.281917 -1.301983,0.250734 -2.058537,0.245569 -3.010866,0.146597 -0.736801,-0.07699 -0.255604,-0.434151 -0.255604,-0.434151 z m 0.27064,1.234793 c -1.730888,0.483864 1.051414,1.481052 3.255193,0.537521 -0.360705,-0.140757 -0.618336,-0.30259 -0.618336,-0.30259 -0.983155,0.186946 -1.439463,0.198908 -2.332388,0.09773 -0.736795,-0.08357 -0.304469,-0.332662 -0.304469,-0.332661 z m -1.11639,0.815678 c -0.74387,-0.02856 -2.431892,0.714398 -0.990466,0.947239 4.491171,0.730207 8.18892,-0.327603 7.023477,-0.853267 0,0 0.319038,0.261561 -0.349577,0.466103 -1.273478,0.384894 -5.297235,0.501117 -6.414537,0.01503 -0.40249,-0.173748 0.352608,-0.417391 0.590145,-0.467981 0.246334,-0.05279 0.389044,-0.04322 0.389044,-0.04322 -0.05581,-0.03932 -0.141819,-0.05982 -0.248086,-0.0639 z m 6.747198,0.667203 c 0,0 -0.143185,0.36373 -1.678342,0.654045 -1.730886,0.325515 -3.864388,0.287873 -5.128998,0.07894 0,-0.0023 0.259035,0.214935 1.591888,0.30071 2.027826,0.12976 5.142887,-0.07477 5.215452,-1.033691 z"
       sodipodi:nodetypes="cccccccsccccccsccccccccccccccccccccccc" /><path
       id="path1-1"
       style="fill:#296790;fill-opacity:1;stroke-width:0.999996"
       class="ColorScheme-Text"
       d="m 34.996637,14.919476 c -0.11802,0.0061 -0.241977,0.03065 -0.36837,0.07518 -0.118769,0.04179 -0.180427,0.137199 -0.180427,0.137199 0,0 0.0753,-0.0306 0.242448,-0.06578 0.681824,-0.142945 1.660673,0.913478 -0.452945,2.011003 -0.01098,0.0264 -0.0451,0.0542 -0.0451,0.05638 2.557279,-0.671699 1.945261,-2.273104 0.804401,-2.213983 z m -4.570804,0.105249 c -0.269183,0.0072 -0.901073,0.06612 -1.635115,0.419116 -1.154675,0.558645 2.858865,0.814523 4.937296,0.26688 0.215536,-0.147358 0.514967,-0.276278 0.514967,-0.276278 0,0 -0.850382,0.153272 -1.697137,0.223654 -1.035873,0.08578 -2.149631,0.104845 -2.708276,0.03007 -1.321831,-0.175946 0.725464,-0.663443 0.725464,-0.663443 0,0 -0.04747,-0.0024 -0.137199,10e-7 z m -0.338299,1.278021 c -1.909092,0.633418 1.06094,1.35028 3.728813,0.569471 -0.28372,-0.09898 -0.462343,-0.281917 -0.462343,-0.281917 -1.301983,0.250734 -2.058537,0.245569 -3.010866,0.146597 -0.7368,-0.07699 -0.255604,-0.434151 -0.255604,-0.434151 z m 0.27064,1.234793 c -1.730888,0.483864 1.051414,1.481052 3.255193,0.537521 -0.360705,-0.140757 -0.618336,-0.30259 -0.618336,-0.30259 -0.983155,0.186946 -1.439463,0.198908 -2.332388,0.09773 -0.736794,-0.08357 -0.304469,-0.332662 -0.304469,-0.332661 z m -1.11639,0.815678 c -0.743869,-0.02856 -2.431892,0.714398 -0.990466,0.947239 4.491171,0.730207 8.18892,-0.327603 7.023477,-0.853267 0,0 0.319038,0.261561 -0.349577,0.466103 -1.273478,0.384894 -5.297234,0.501117 -6.414537,0.01503 -0.40249,-0.173748 0.352608,-0.417391 0.590145,-0.467981 0.246334,-0.05279 0.389045,-0.04322 0.389045,-0.04322 -0.05581,-0.03932 -0.141819,-0.05982 -0.248087,-0.0639 z m 6.747198,0.667203 c 0,0 -0.143185,0.36373 -1.678342,0.654045 -1.730886,0.325515 -3.864388,0.287873 -5.128998,0.07894 0,-0.0023 0.259036,0.214935 1.591888,0.30071 2.027826,0.12976 5.142887,-0.07477 5.215452,-1.033691 z"
       sodipodi:nodetypes="cccccccsccccccsccccccccccccccccccccccc" /><path
       d="m 32.661084,9.126 c 0.472892,1.858487 -1.661864,2.421904 -2.433878,3.576578 -0.525677,0.789609 0.256428,1.637841 1.323128,2.60115 -0.417885,-0.939169 -1.827662,-1.765392 0,-3.208209 C 33.831109,10.296434 32.661084,9.126 32.661084,9.126 Z m 1.409581,2.302317 c 0.0023,0 -3.851896,0.962049 -2.011002,3.082286 0.543244,0.624626 -0.142839,1.187807 -0.142839,1.187807 0,0 1.377621,-0.71242 0.74426,-1.603164 -0.591631,-0.831344 -1.044965,-1.243889 1.409581,-2.666929 z"
       style="color:#dedede;opacity:0.15;fill:#1a1a1a;fill-opacity:1;stroke-width:0.999996"
       id="path4" /><path
       d="m 32.961201,8.826324 c 0.472892,1.858487 -1.661864,2.421904 -2.433878,3.576578 -0.525677,0.789609 0.256428,1.637841 1.323128,2.60115 -0.417885,-0.939169 -1.827662,-1.765392 0,-3.208209 2.280775,-1.7990851 1.11075,-2.969519 1.11075,-2.969519 z m 1.409581,2.302317 c 0.0023,0 -3.851896,0.962049 -2.011002,3.082286 0.543244,0.624626 -0.142839,1.187807 -0.142839,1.187807 0,0 1.377621,-0.71242 0.74426,-1.603164 -0.591631,-0.831344 -1.044965,-1.243889 1.409581,-2.666929 z"
       style="color:#dedede;fill:#db380e;fill-opacity:1;stroke-width:0.999996"
       id="path1-4" /></g></svg>
