<svg xmlns="http://www.w3.org/2000/svg" xmlns:xlink="http://www.w3.org/1999/xlink" xml:space="preserve" width="462.726" height="462.614" viewBox="0 0 122.43 122.4"><defs><linearGradient id="a"><stop offset="0" style="stop-color:#333;stop-opacity:1"/><stop offset="1" style="stop-color:#e6e6e6;stop-opacity:1"/></linearGradient><linearGradient id="b"><stop offset="0" style="stop-color:#333;stop-opacity:1"/><stop offset="1" style="stop-color:#b3b3b3;stop-opacity:1"/></linearGradient><linearGradient xlink:href="#a" id="g" x1="38.383" x2="176.816" y1="221.707" y2="112.22" gradientTransform="translate(-44 -87.07)" gradientUnits="userSpaceOnUse"/><linearGradient xlink:href="#b" id="c" x1="-87.875" x2="431.171" y1="86.081" y2="18.301" gradientUnits="userSpaceOnUse"/><linearGradient xlink:href="#b" id="f" x1="-87.875" x2="431.171" y1="86.081" y2="18.301" gradientUnits="userSpaceOnUse"/><linearGradient xlink:href="#b" id="e" x1="-87.875" x2="431.171" y1="86.081" y2="18.301" gradientUnits="userSpaceOnUse"/><linearGradient xlink:href="#b" id="d" x1="-87.875" x2="431.171" y1="86.081" y2="18.301" gradientUnits="userSpaceOnUse"/></defs><rect width="97.6" height="97.6" x="12.629" y="12.2" fill="#fafafa" rx="24.4" style="stroke-width:5.54545"/><g style="fill:url(#c);fill-opacity:1"><g style="fill:url(#d);fill-opacity:1" transform="matrix(.35278 0 0 .35278 .43 0)"><g style="fill:url(#e);fill-opacity:1"><path d="M103.746 0h138.332c57.477 0 103.75 46.273 103.75 103.746v138.332c0 57.477-46.273 103.75-103.75 103.75H103.746C46.273 345.828 0 299.555 0 242.078V103.746C0 46.273 46.273 0 103.746 0Z" style="fill:url(#f);fill-opacity:1;stroke:none"/></g></g></g><path d="M37.028 12.2h48.8a24.347 24.347 0 0 1 24.4 24.4v48.8a24.346 24.346 0 0 1-24.4 24.4h-48.8a24.346 24.346 0 0 1-24.4-24.4V36.6a24.347 24.347 0 0 1 24.4-24.4z" style="fill:#fafafa;fill-opacity:1;fill-rule:nonzero;stroke:none;stroke-width:.352778"/><path d="M0 41.48C0 32.268 7.468 24.8 16.68 24.8h23.195a25.934 25.934 0 0 1 16.358 5.81 25.945 25.945 0 0 0 16.362 5.81h32.726c9.212 0 16.68 7.467 16.68 16.68v32.7c0 20.214-16.387 36.6-36.601 36.6H36.6C16.385 122.4 0 106.014 0 85.8Z" style="fill:url(#g);fill-opacity:1;fill-rule:nonzero;stroke:none;stroke-width:.352778"/><path d="M119.677 159.792c5.774 0 10.74-5.156 10.74-11.87 0-6.632-4.994-11.546-10.74-11.546-5.747 0-10.74 5.022-10.74 11.6 0 6.66 4.967 11.816 10.74 11.816zm-30.907.617c4.994 0 9.344-4.51 9.344-10.338 0-5.773-4.376-10.043-9.344-10.043-4.995 0-9.398 4.376-9.372 10.097 0 5.773 4.35 10.284 9.372 10.284zm-14.985 24.248h20.409c-2.793-4.054.617-12.218 6.391-16.676-2.98-1.987-6.821-3.463-11.842-3.463-12.11 0-19.683 8.941-19.683 16.38 0 2.417 1.342 3.759 4.725 3.759zm29.002 0h33.753c4.216 0 5.72-1.209 5.72-3.572 0-6.927-8.673-16.487-22.61-16.487-13.91 0-22.583 9.56-22.583 16.487 0 2.363 1.504 3.572 5.72 3.572z" style="fill:#4d4d4d;fill-opacity:.5;fill-rule:nonzero;stroke:none;stroke-width:.352778" transform="translate(-45.756 -87.3)"/><path d="M122.726 156.742c5.774 0 10.742-5.157 10.742-11.87 0-6.631-4.995-11.546-10.742-11.546-5.746 0-10.74 5.022-10.74 11.6 0 6.66 4.968 11.816 10.74 11.816zm-30.906.617c4.994 0 9.344-4.511 9.344-10.338 0-5.772-4.376-10.043-9.344-10.043-4.994 0-9.399 4.377-9.372 10.097 0 5.773 4.35 10.284 9.372 10.284zm-14.984 24.248h20.408c-2.792-4.054.617-12.217 6.391-16.675-2.98-1.987-6.821-3.465-11.842-3.465-12.111 0-19.683 8.942-19.683 16.381 0 2.416 1.343 3.76 4.726 3.76zm29.001 0h33.752c4.217 0 5.72-1.208 5.72-3.572 0-6.927-8.673-16.486-22.609-16.486-13.91 0-22.583 9.56-22.583 16.486 0 2.364 1.503 3.572 5.72 3.572z" style="fill:#e6e6e6;fill-opacity:1;fill-rule:nonzero;stroke:none;stroke-width:.352778" transform="translate(-45.756 -87.3)"/></svg>