<svg xmlns="http://www.w3.org/2000/svg" xmlns:xlink="http://www.w3.org/1999/xlink" width="24" height="24"><defs><linearGradient id="c" x1="32.707" x2="53" y1="32" y2="32" gradientTransform="translate(40)" gradientUnits="userSpaceOnUse"><stop offset="0" stop-color="#f3f3f3"/><stop offset="1" stop-color="#f9f9f9"/></linearGradient><linearGradient id="b" x1="11" x2="32" y1="32" y2="32" gradientTransform="translate(40)" gradientUnits="userSpaceOnUse"><stop offset="0" stop-color="#dbdbdb"/><stop offset="1" stop-color="#f3f3f3"/></linearGradient><linearGradient id="a" x1="11" x2="11" y1="32" y2="11" gradientTransform="translate(40)" gradientUnits="userSpaceOnUse"><stop offset="0" stop-color="#dcdcdc"/><stop offset="1" stop-color="#d3d3d3"/></linearGradient><linearGradient xlink:href="#a" id="j" x1="11" x2="11" y1="32" y2="11" gradientTransform="translate(-60)" gradientUnits="userSpaceOnUse"/><linearGradient xlink:href="#b" id="i" x1="11" x2="32" y1="32" y2="32" gradientTransform="translate(-60)" gradientUnits="userSpaceOnUse"/><linearGradient xlink:href="#c" id="h" x1="32.707" x2="53" y1="32" y2="32" gradientTransform="translate(-60)" gradientUnits="userSpaceOnUse"/><linearGradient xlink:href="#a" id="g" x1="11" x2="11" y1="32" y2="11" gradientTransform="translate(-60)" gradientUnits="userSpaceOnUse"/><linearGradient xlink:href="#b" id="f" x1="11" x2="32" y1="32" y2="32" gradientTransform="translate(-60)" gradientUnits="userSpaceOnUse"/><linearGradient xlink:href="#c" id="e" x1="32.707" x2="53" y1="32" y2="32" gradientTransform="translate(-60)" gradientUnits="userSpaceOnUse"/><radialGradient id="d" cx="0" cy="0" r="1" fx="0" fy="0" gradientTransform="matrix(0 22 -22 0 12 1)" gradientUnits="userSpaceOnUse" spreadMethod="pad"><stop offset="0" style="stop-color:#fff;stop-opacity:1"/><stop offset="1" style="stop-color:#f6f6f6;stop-opacity:1"/></radialGradient></defs><path d="M9.593 1.115c.12 0 .235-.016.344-.047a31.814 31.814 0 0 1 4.308.01 13.68 13.68 0 0 1 3.781.849c2.026.833 3.41 2.281 4.162 4.338.42 1.24.676 2.516.754 3.823a28.303 28.303 0 0 1-.114 4.928 11.968 11.968 0 0 1-.896 3.317c-.85 1.844-2.23 3.115-4.135 3.812-1.543.522-3.13.798-4.767.824a21.33 21.33 0 0 1-5.452-.412c-3.308-.734-5.354-2.754-6.125-6.057a18.991 18.991 0 0 1-.448-4.51 18.502 18.502 0 0 1 .516-4.787c.812-3.083 2.77-4.995 5.875-5.734a13.692 13.692 0 0 1 2.197-.354Z" style="fill:url(#d);fill-rule:evenodd;stroke:none;stroke-width:1.33333"/><g style="stroke-width:2.93333" transform="matrix(.3409 0 0 .3409 21.545 1.432)"><path fill="url(#c)" d="M-28 11a21 21 0 0 0-21 21 21 21 0 0 0 21 21A21 21 0 0 0-7 32h-2a19 19 0 0 1-19 19 19 19 0 0 1-19-19 19 19 0 0 1 19-19Z" paint-order="stroke markers fill" style="fill:url(#e);stroke-width:2.93333"/><path fill="#333" d="M-29 16h2v16h-2z" paint-order="stroke markers fill" style="stroke-width:2.93333"/><path fill="#c08589" d="m-27.293 32 15.557 15.556-.708.708L-28 32.707Z" paint-order="stroke markers fill" style="stroke-width:2.93333"/><circle cx="-28" cy="32" r="1" fill="#333" paint-order="stroke markers fill" style="stroke-width:2.93333"/><path fill="#d3d3d3" d="m-28 9 5 3-5 3z" paint-order="markers stroke fill" style="stroke-width:2.93333"/><path fill="url(#b)" d="M-28 11a21 21 0 0 0-21 21 21 21 0 0 0 21 21v-2a19 19 0 0 1-19-19 19 19 0 0 1 19-19Z" paint-order="stroke markers fill" style="fill:url(#f);stroke-width:2.93333"/><path fill="url(#a)" d="M-28 11a21 21 0 0 0-21 21h2a19 19 0 0 1 19-19z" paint-order="stroke markers fill" style="fill:url(#g);stroke-width:2.93333"/><path fill="url(#c)" d="M-28 11a21 21 0 0 0-21 21 21 21 0 0 0 21 21A21 21 0 0 0-7 32h-2a19 19 0 0 1-19 19 19 19 0 0 1-19-19 19 19 0 0 1 19-19Z" paint-order="stroke markers fill" style="fill:url(#h);stroke-width:2.93333"/><path fill="#333" d="M-29 16h2v16h-2z" paint-order="stroke markers fill" style="stroke-width:2.93333"/><path fill="#c08589" d="m-27.293 32 15.557 15.556-.708.708L-28 32.707Z" paint-order="stroke markers fill" style="stroke-width:2.93333"/><circle cx="-28" cy="32" r="1" fill="#333" paint-order="stroke markers fill" style="stroke-width:2.93333"/><path fill="#d3d3d3" d="m-28 9 5 3-5 3z" paint-order="markers stroke fill" style="stroke-width:2.93333"/><path fill="url(#b)" d="M-28 11a21 21 0 0 0-21 21 21 21 0 0 0 21 21v-2a19 19 0 0 1-19-19 19 19 0 0 1 19-19Z" paint-order="stroke markers fill" style="fill:url(#i);stroke-width:2.93333"/><path fill="url(#a)" d="M-28 11a21 21 0 0 0-21 21h2a19 19 0 0 1 19-19z" paint-order="stroke markers fill" style="fill:url(#j);stroke-width:2.93333"/></g></svg>