<svg xmlns="http://www.w3.org/2000/svg" xmlns:xlink="http://www.w3.org/1999/xlink" xml:space="preserve" width="64" height="64" viewBox="0 0 16.933 16.933"><defs><linearGradient id="g" x1="23" x2="1" y1="1" y2="12" gradientTransform="matrix(.42307 0 0 .42307 25.77 -3.069)" gradientUnits="userSpaceOnUse" spreadMethod="pad"><stop offset="0" style="stop-opacity:1;stop-color:#87de87"/><stop offset="1" style="stop-opacity:1;stop-color:#217821"/></linearGradient><linearGradient id="h" x1="21" x2="3" y1="4" y2="4" gradientTransform="scale(.75)" gradientUnits="userSpaceOnUse" spreadMethod="pad"><stop offset="0" style="stop-opacity:.43750668;stop-color:#000"/><stop offset=".89" style="stop-opacity:.87501335;stop-color:#000"/><stop offset="1" style="stop-opacity:0;stop-color:#000"/></linearGradient><linearGradient id="a" x1="12" x2="11.5" y1="3" y2="8" gradientTransform="matrix(.75 0 0 -.75 0 18)" gradientUnits="userSpaceOnUse" spreadMethod="pad"><stop offset="0" style="stop-opacity:1;stop-color:#fff"/><stop offset="1" style="stop-opacity:0;stop-color:#fff"/></linearGradient><linearGradient id="i" x1="12" x2="11.5" y1="3" y2="8" gradientTransform="matrix(.75 0 0 -.75 0 18)" gradientUnits="userSpaceOnUse" spreadMethod="pad"><stop offset="0" style="stop-opacity:1;stop-color:#ddd"/><stop offset="1" style="stop-opacity:1;stop-color:#ccc"/></linearGradient><linearGradient id="j" x1="23" x2="1.012" y1="9" y2="9.521" gradientTransform="scale(.75)" gradientUnits="userSpaceOnUse" spreadMethod="pad"><stop offset="0" style="stop-opacity:.43750668;stop-color:#000"/><stop offset="1" style="stop-opacity:.87501335;stop-color:#000"/></linearGradient><linearGradient id="k" x1="23" x2="1.429" y1="5.4" y2="23.511" gradientTransform="matrix(.42307 0 0 .42307 25.77 -3.069)" gradientUnits="userSpaceOnUse" spreadMethod="pad"><stop offset="0" style="stop-opacity:1;stop-color:#afe9af"/><stop offset="1" style="stop-opacity:1;stop-color:#2ca02c"/></linearGradient><linearGradient id="c" x1="15" x2="5.5" y1="5.5" y2="19.5" gradientTransform="matrix(.75 0 0 -.75 0 18)" gradientUnits="userSpaceOnUse" spreadMethod="pad"><stop offset="0" style="stop-opacity:.37500572;stop-color:#fff"/><stop offset="1" style="stop-opacity:.37500572;stop-color:#fff"/></linearGradient><linearGradient id="l" x1="15" x2="5.5" y1="5.5" y2="19.5" gradientTransform="matrix(.75 0 0 -.75 0 18)" gradientUnits="userSpaceOnUse" spreadMethod="pad"><stop offset="0" style="stop-opacity:1;stop-color:#caffca"/><stop offset="1" style="stop-opacity:1;stop-color:#217821"/></linearGradient><linearGradient xlink:href="#g" id="t" x1="23" x2="1" y1="1" y2="12" gradientTransform="matrix(.42307 0 0 .42307 25.77 -3.069)" gradientUnits="userSpaceOnUse" spreadMethod="pad"/><linearGradient xlink:href="#h" id="u" x1="21" x2="3" y1="4" y2="4" gradientTransform="scale(.75)" gradientUnits="userSpaceOnUse" spreadMethod="pad"/><linearGradient xlink:href="#i" id="v" x1="12" x2="11.5" y1="3" y2="8" gradientTransform="matrix(.75 0 0 -.75 0 18)" gradientUnits="userSpaceOnUse" spreadMethod="pad"/><linearGradient xlink:href="#j" id="w" x1="23" x2="1.012" y1="9" y2="9.521" gradientTransform="scale(.75)" gradientUnits="userSpaceOnUse" spreadMethod="pad"/><linearGradient xlink:href="#k" id="x" x1="23" x2="1.429" y1="5.4" y2="23.511" gradientTransform="matrix(.42307 0 0 .42307 25.77 -3.069)" gradientUnits="userSpaceOnUse" spreadMethod="pad"/><linearGradient xlink:href="#l" id="y" x1="15" x2="5.5" y1="5.5" y2="19.5" gradientTransform="matrix(.75 0 0 -.75 0 18)" gradientUnits="userSpaceOnUse" spreadMethod="pad"/><clipPath id="b" clipPathUnits="userSpaceOnUse"><path d="M1 1h16v16H1Z"/></clipPath><clipPath id="d" clipPathUnits="userSpaceOnUse"><path d="M0 4h18v14H0Z"/></clipPath><clipPath id="m" clipPathUnits="userSpaceOnUse"><path d="M0 0h19v19H0Z"/></clipPath><clipPath id="e" clipPathUnits="userSpaceOnUse"><path d="M1 1h16v16H1Z"/></clipPath><clipPath id="o" clipPathUnits="userSpaceOnUse"><path d="M1 1h16v16H1Z"/></clipPath><clipPath id="p" clipPathUnits="userSpaceOnUse"><path d="M0 0h19v19H0Z"/></clipPath><clipPath id="r" clipPathUnits="userSpaceOnUse"><path d="M0 0h25.333v25.333H0Z"/></clipPath><clipPath id="f" clipPathUnits="userSpaceOnUse"><path d="M0 4h18v14H0Z"/></clipPath><clipPath id="s" clipPathUnits="userSpaceOnUse"><path d="M0 4h18v14H0Z"/></clipPath><mask id="n" width="1" height="1" x="0" y="0" maskUnits="userSpaceOnUse"><path d="M0 0h18v18H0Z" clip-path="url(#e)" style="fill:url(#a);fill-opacity:1;fill-rule:nonzero;stroke:none" transform="scale(1.33333)"/></mask><mask id="q" width="1" height="1" x="0" y="0" maskUnits="userSpaceOnUse"><path d="M0 0h18v18H0Z" clip-path="url(#f)" style="fill:url(#c);fill-opacity:1;fill-rule:nonzero;stroke:none" transform="scale(1.33333)"/></mask></defs><path d="M28.985-2.646h3.724A2.785 2.785 0 0 1 35.501.146V3.87a2.785 2.785 0 0 1-2.792 2.792h-3.724a2.785 2.785 0 0 1-2.792-2.792V.146a2.785 2.785 0 0 1 2.792-2.792z" opacity=".813" style="fill:url(#g);stroke:none;stroke-width:.564088" transform="translate(-24.479 8.995)"/><g opacity=".125"><path d="M5.551 1.688h6.898a3.294 3.294 0 0 1 3.301 3.3v6.899a3.295 3.295 0 0 1-3.301 3.301H5.551a3.295 3.295 0 0 1-3.301-3.301V4.988c0-1.828 1.473-3.3 3.301-3.3z" clip-path="url(#m)" opacity="1" style="fill:url(#h);stroke:none" transform="matrix(.56409 0 0 .56409 1.292 5.927)"/></g><path d="M28.902-1.694h3.89A1.75 1.75 0 0 1 34.55.062v3.891a1.75 1.75 0 0 1-1.756 1.756h-3.891a1.75 1.75 0 0 1-1.756-1.756V.063a1.75 1.75 0 0 1 1.756-1.757z" style="fill:#ccc;fill-opacity:1;fill-rule:nonzero;stroke:none;stroke-width:.564088" transform="translate(-24.479 8.995)"/><g mask="url(#n)" transform="matrix(.42307 0 0 .42307 1.292 5.927)"><path d="M5.551 2.438h6.898a3.103 3.103 0 0 1 3.113 3.113v6.898a3.103 3.103 0 0 1-3.113 3.113H5.551a3.103 3.103 0 0 1-3.113-3.113V5.551a3.103 3.103 0 0 1 3.113-3.113z" clip-path="url(#o)" style="fill:none;stroke:url(#i);stroke-width:.375;stroke-linecap:butt;stroke-linejoin:miter;stroke-miterlimit:4;stroke-dasharray:none;stroke-opacity:1" transform="scale(1.33333)"/></g><g opacity=".125"><path d="M.75 5.629a2.258 2.258 0 0 1 2.254-2.254h3.141c.804 0 1.585.277 2.21.785a3.508 3.508 0 0 0 2.211.785h4.43a2.259 2.259 0 0 1 2.254 2.258v4.422a4.948 4.948 0 0 1-4.949 4.949H5.699A4.948 4.948 0 0 1 .75 11.625z" clip-path="url(#p)" opacity="1" style="fill:url(#j);stroke:none" transform="matrix(.56409 0 0 .56409 1.292 5.927)"/></g><path d="M26.193.488c0-.703.571-1.272 1.272-1.272h1.772c.453 0 .894.157 1.246.443.353.287.794.443 1.247.443h2.5c.7 0 1.27.57 1.27 1.274V3.87a2.791 2.791 0 0 1-2.79 2.792h-3.725a2.791 2.791 0 0 1-2.792-2.792z" opacity=".875" style="fill:url(#k);stroke:none;stroke-width:.564088" transform="translate(-24.479 8.995)"/><g opacity=".875"><g clip-path="url(#r)" mask="url(#q)" opacity="1" transform="matrix(.42307 0 0 .42307 1.292 5.927)"><path d="M16.969 7.879v4.422a4.668 4.668 0 0 1-4.668 4.668H5.699a4.668 4.668 0 0 1-4.668-4.668V6.305c0-1.09.883-1.973 1.973-1.973h3.141a3.23 3.23 0 0 1 2.035.723 3.795 3.795 0 0 0 2.386.847h4.43c1.09 0 1.973.883 1.973 1.977z" clip-path="url(#s)" style="fill:none;stroke:url(#l);stroke-width:.5625;stroke-linecap:butt;stroke-linejoin:round;stroke-miterlimit:4;stroke-dasharray:none;stroke-opacity:1" transform="scale(1.33333)"/></g></g><path d="M28.985-2.646h3.724A2.785 2.785 0 0 1 35.501.146V3.87a2.785 2.785 0 0 1-2.792 2.792h-3.724a2.785 2.785 0 0 1-2.792-2.792V.146a2.785 2.785 0 0 1 2.792-2.792z" opacity=".813" style="fill:url(#t);stroke:none;stroke-width:.564088" transform="translate(-20.24 4.005)"/><g opacity=".125"><path d="M5.551 1.688h6.898a3.294 3.294 0 0 1 3.301 3.3v6.899a3.295 3.295 0 0 1-3.301 3.301H5.551a3.295 3.295 0 0 1-3.301-3.301V4.988c0-1.828 1.473-3.3 3.301-3.3z" clip-path="url(#m)" opacity="1" style="fill:url(#u);stroke:none" transform="matrix(.56409 0 0 .56409 5.53 .936)"/></g><path d="M28.902-1.694h3.89A1.75 1.75 0 0 1 34.55.062v3.891a1.75 1.75 0 0 1-1.756 1.756h-3.891a1.75 1.75 0 0 1-1.756-1.756V.063a1.75 1.75 0 0 1 1.756-1.757z" style="fill:#ccc;fill-opacity:1;fill-rule:nonzero;stroke:none;stroke-width:.564088" transform="translate(-20.24 4.005)"/><g mask="url(#n)" transform="matrix(.42307 0 0 .42307 5.53 .936)"><path d="M5.551 2.438h6.898a3.103 3.103 0 0 1 3.113 3.113v6.898a3.103 3.103 0 0 1-3.113 3.113H5.551a3.103 3.103 0 0 1-3.113-3.113V5.551a3.103 3.103 0 0 1 3.113-3.113z" clip-path="url(#o)" style="fill:none;stroke:url(#v);stroke-width:.375;stroke-linecap:butt;stroke-linejoin:miter;stroke-miterlimit:4;stroke-dasharray:none;stroke-opacity:1" transform="scale(1.33333)"/></g><g opacity=".125"><path d="M.75 5.629a2.258 2.258 0 0 1 2.254-2.254h3.141c.804 0 1.585.277 2.21.785a3.508 3.508 0 0 0 2.211.785h4.43a2.259 2.259 0 0 1 2.254 2.258v4.422a4.948 4.948 0 0 1-4.949 4.949H5.699A4.948 4.948 0 0 1 .75 11.625z" clip-path="url(#p)" opacity="1" style="fill:url(#w);stroke:none" transform="matrix(.56409 0 0 .56409 5.53 .936)"/></g><path d="M26.193.488c0-.703.571-1.272 1.272-1.272h1.772c.453 0 .894.157 1.246.443.353.287.794.443 1.247.443h2.5c.7 0 1.27.57 1.27 1.274V3.87a2.791 2.791 0 0 1-2.79 2.792h-3.725a2.791 2.791 0 0 1-2.792-2.792z" opacity=".875" style="fill:url(#x);stroke:none;stroke-width:.564088" transform="translate(-20.24 4.005)"/><g opacity=".875"><g clip-path="url(#r)" mask="url(#q)" opacity="1" transform="matrix(.42307 0 0 .42307 5.53 .936)"><path d="M16.969 7.879v4.422a4.668 4.668 0 0 1-4.668 4.668H5.699a4.668 4.668 0 0 1-4.668-4.668V6.305c0-1.09.883-1.973 1.973-1.973h3.141a3.23 3.23 0 0 1 2.035.723 3.795 3.795 0 0 0 2.386.847h4.43c1.09 0 1.973.883 1.973 1.977z" clip-path="url(#s)" style="fill:none;stroke:url(#y);stroke-width:.5625;stroke-linecap:butt;stroke-linejoin:round;stroke-miterlimit:4;stroke-dasharray:none;stroke-opacity:1" transform="scale(1.33333)"/></g></g></svg>