<svg xmlns="http://www.w3.org/2000/svg" xml:space="preserve" width="24" height="24" fill="none"><defs><linearGradient id="i" x1="21" x2="3" y1="4" y2="4" gradientTransform="translate(40)" gradientUnits="userSpaceOnUse"><stop stop-opacity=".5"/><stop offset=".89"/><stop offset="1" stop-opacity="0"/></linearGradient><linearGradient id="j" x1="12" x2="11.5" y1="3" y2="8" gradientTransform="translate(40)" gradientUnits="userSpaceOnUse"><stop stop-color="#DDD"/><stop offset="1" stop-color="#CCC" stop-opacity="0"/></linearGradient><linearGradient id="k" x1="23" x2="1.012" y1="9" y2="9.521" gradientTransform="translate(40)" gradientUnits="userSpaceOnUse"><stop stop-opacity=".5"/><stop offset="1"/></linearGradient><linearGradient id="g" x1="23" x2="1" y1="1" y2="12" gradientTransform="translate(42 -6)" gradientUnits="userSpaceOnUse"><stop stop-color="#87DE87"/><stop offset="1" stop-color="#217821"/></linearGradient><linearGradient id="l" x1="23" x2="1.429" y1="5.4" y2="23.511" gradientTransform="translate(42 -6)" gradientUnits="userSpaceOnUse"><stop stop-color="#AFE9AF"/><stop offset="1" stop-color="#2CA02C"/></linearGradient><linearGradient id="n" x1="15" x2="5.5" y1="5.5" y2="19.5" gradientTransform="translate(42 -6)" gradientUnits="userSpaceOnUse"><stop stop-color="#CAFFCA"/><stop offset="1" stop-color="#217821"/></linearGradient><linearGradient id="a" x1="12" x2="11.5" y1="3" y2="8" gradientTransform="matrix(.75 0 0 -.75 0 18)" gradientUnits="userSpaceOnUse" spreadMethod="pad"><stop offset="0" style="stop-opacity:1;stop-color:#fff"/><stop offset="1" style="stop-opacity:0;stop-color:#fff"/></linearGradient><linearGradient id="c" x1="15" x2="5.5" y1="5.5" y2="19.5" gradientTransform="matrix(.75 0 .01595 -.6954 -.402 16.715)" gradientUnits="userSpaceOnUse" spreadMethod="pad"><stop offset="0" style="stop-opacity:.37500572;stop-color:#fff"/><stop offset="1" style="stop-opacity:.37500572;stop-color:#fff"/></linearGradient><linearGradient id="h" x1="23" x2="1" y1="1" y2="12" gradientTransform="translate(40)" gradientUnits="userSpaceOnUse"><stop stop-color="#87DE87"/><stop offset="1" stop-color="#217821"/></linearGradient><linearGradient id="m" x1="23" x2="1.429" y1="5.4" y2="23.511" gradientTransform="matrix(1 0 .0124 .92689 39.714 1.681)" gradientUnits="userSpaceOnUse"><stop stop-color="#AFE9AF"/><stop offset="1" stop-color="#2CA02C"/></linearGradient><linearGradient id="o" x1="15" x2="5.5" y1="5.5" y2="19.5" gradientTransform="matrix(1 0 .0124 .92689 39.714 1.681)" gradientUnits="userSpaceOnUse"><stop stop-color="#CAFFCA"/><stop offset="1" stop-color="#217821"/></linearGradient><clipPath id="b" clipPathUnits="userSpaceOnUse"><path d="M1 1h16v16H1Z"/></clipPath><clipPath id="d" clipPathUnits="userSpaceOnUse"><path d="M0 5h18v13H0Z"/></clipPath><clipPath id="e" clipPathUnits="userSpaceOnUse"><path d="M1 1h16v16H1Z"/></clipPath><clipPath id="f" clipPathUnits="userSpaceOnUse"><path d="M0 5h18v13H0Z"/></clipPath></defs><g transform="translate(-39.91 -.007)"><rect width="22" height="22" x="41" y="1" fill="url(#g)" opacity=".813" rx="6.6" style="fill:url(#h)"/><rect width="18" height="18" x="43" y="2.25" fill="url(#paint1_linear_201_32)" fill-opacity=".875" opacity=".125" rx="4.4" style="fill:url(#i)"/><rect width="17.5" height="17.5" x="43.25" y="3.25" fill="#ccc" stroke="url(#paint2_linear_201_32)" stroke-width=".5" rx="4.15" style="stroke:url(#j)"/><path fill="url(#paint3_linear_201_32)" fill-opacity=".875" d="M41 7.508A3.008 3.008 0 0 1 44.008 4.5h4.182c1.075 0 2.117.37 2.95 1.048a4.678 4.678 0 0 0 2.95 1.047h5.902A3.008 3.008 0 0 1 63 9.603V15.5a6.6 6.6 0 0 1-6.6 6.6h-8.8a6.6 6.6 0 0 1-6.6-6.6z" opacity=".125" style="fill:url(#k)"/><path fill="url(#l)" d="M40.819 9.475c-.02-1.54 1.31-2.788 2.97-2.788h4.183c1.074 0 2.12.343 2.963.97a4.968 4.968 0 0 0 2.963.972H59.8c1.66 0 3.024 1.248 3.045 2.788l.073 5.465C62.963 20.262 60.045 23 56.4 23h-8.8c-3.645 0-6.637-2.739-6.682-6.118z" style="opacity:.875;fill:url(#m);stroke-width:.96275"/><path stroke="url(#n)" stroke-linejoin="round" stroke-opacity=".375" stroke-width=".722" d="m62.47 11.417.073 5.465c.043 3.187-2.71 5.77-6.148 5.77h-8.8c-3.438 0-6.26-2.583-6.302-5.77l-.1-7.407c-.017-1.348 1.147-2.44 2.6-2.44h4.184c.988 0 1.95.315 2.725.892a5.367 5.367 0 0 0 3.2 1.05h5.902c1.454 0 2.648 1.092 2.666 2.44z" style="opacity:.875;stroke:url(#o)"/></g></svg>