<svg xmlns="http://www.w3.org/2000/svg" xmlns:xlink="http://www.w3.org/1999/xlink" xml:space="preserve" width="64" height="64" viewBox="0 0 16.933 16.933"><defs><linearGradient id="h" x1="21" x2="3" y1="4" y2="4" gradientTransform="matrix(.26458 0 0 .26458 21.43 -1.058)" gradientUnits="userSpaceOnUse"><stop stop-opacity=".5"/><stop offset=".89"/><stop offset="1" stop-opacity="0"/></linearGradient><linearGradient id="i" x1="12" x2="11.5" y1="3" y2="8" gradientTransform="matrix(.26458 0 0 .26458 21.43 -1.058)" gradientUnits="userSpaceOnUse"><stop stop-color="#DDD"/><stop offset="1" stop-color="#CCC" stop-opacity="0"/></linearGradient><linearGradient id="j" x1="23" x2="1.012" y1="9" y2="9.521" gradientTransform="matrix(.26458 0 0 .26458 21.43 -1.058)" gradientUnits="userSpaceOnUse"><stop stop-opacity=".5"/><stop offset="1"/></linearGradient><linearGradient id="a" x1="12" x2="11.5" y1="3" y2="8" gradientTransform="matrix(.75 0 0 -.75 0 18)" gradientUnits="userSpaceOnUse" spreadMethod="pad"><stop offset="0" style="stop-opacity:1;stop-color:#fff"/><stop offset="1" style="stop-opacity:0;stop-color:#fff"/></linearGradient><linearGradient id="c" x1="15" x2="5.5" y1="5.5" y2="19.5" gradientTransform="matrix(.75 0 0 -.75 0 18)" gradientUnits="userSpaceOnUse" spreadMethod="pad"><stop offset="0" style="stop-opacity:.37500572;stop-color:#fff"/><stop offset="1" style="stop-opacity:.37500572;stop-color:#fff"/></linearGradient><linearGradient id="g" x1="23" x2="1" y1="1" y2="12" gradientTransform="matrix(.26458 0 0 .26458 21.43 -1.058)" gradientUnits="userSpaceOnUse"><stop stop-color="#87DE87"/><stop offset="1" stop-color="#217821"/></linearGradient><linearGradient id="k" x1="23" x2="1.429" y1="5.4" y2="23.511" gradientTransform="matrix(.26458 0 0 .26458 21.43 -1.058)" gradientUnits="userSpaceOnUse"><stop stop-color="#AFE9AF"/><stop offset="1" stop-color="#2CA02C"/></linearGradient><linearGradient id="l" x1="15" x2="5.5" y1="5.5" y2="19.5" gradientTransform="matrix(.26458 0 0 .26458 21.43 -1.058)" gradientUnits="userSpaceOnUse"><stop stop-color="#CAFFCA"/><stop offset="1" stop-color="#217821"/></linearGradient><linearGradient xlink:href="#g" id="m" x1="23" x2="1" y1="1" y2="12" gradientTransform="matrix(.26458 0 0 .26458 21.43 -1.058)" gradientUnits="userSpaceOnUse"/><linearGradient xlink:href="#h" id="n" x1="21" x2="3" y1="4" y2="4" gradientTransform="matrix(.26458 0 0 .26458 21.43 -1.058)" gradientUnits="userSpaceOnUse"/><linearGradient xlink:href="#i" id="o" x1="12" x2="11.5" y1="3" y2="8" gradientTransform="matrix(.26458 0 0 .26458 21.43 -1.058)" gradientUnits="userSpaceOnUse"/><linearGradient xlink:href="#j" id="p" x1="23" x2="1.012" y1="9" y2="9.521" gradientTransform="matrix(.26458 0 0 .26458 21.43 -1.058)" gradientUnits="userSpaceOnUse"/><linearGradient xlink:href="#k" id="q" x1="23" x2="1.429" y1="5.4" y2="23.511" gradientTransform="matrix(.26458 0 0 .26458 21.43 -1.058)" gradientUnits="userSpaceOnUse"/><linearGradient xlink:href="#l" id="r" x1="15" x2="5.5" y1="5.5" y2="19.5" gradientTransform="matrix(.26458 0 0 .26458 21.43 -1.058)" gradientUnits="userSpaceOnUse"/><clipPath id="b" clipPathUnits="userSpaceOnUse"><path d="M1 1h16v16H1Z"/></clipPath><clipPath id="d" clipPathUnits="userSpaceOnUse"><path d="M0 4h18v14H0Z"/></clipPath><clipPath id="e" clipPathUnits="userSpaceOnUse"><path d="M1 1h16v16H1Z"/></clipPath><clipPath id="f" clipPathUnits="userSpaceOnUse"><path d="M0 4h18v14H0Z"/></clipPath></defs><g style="opacity:.35" transform="matrix(1.59905 0 0 1.59905 -32.977 7.619)"><rect width="5.821" height="5.821" x="21.695" y="-.794" fill="url(#g)" opacity=".813" rx="1.746" style="fill:url(#m);stroke-width:.264578"/><rect width="4.762" height="4.762" x="22.225" y="-.463" fill="url(#paint1_linear_201_32)" fill-opacity=".875" opacity=".125" rx="1.164" style="fill:url(#n);stroke-width:.264578"/><rect width="4.63" height="4.63" x="22.291" y="-.198" fill="#ccc" stroke="url(#paint2_linear_201_32)" stroke-width=".132" rx="1.098" style="stroke:url(#o)"/><path fill="url(#paint3_linear_201_32)" fill-opacity=".875" d="M21.695.928c0-.44.357-.796.796-.796h1.107c.284 0 .56.098.78.277.221.18.497.278.78.278h1.562c.44 0 .796.356.796.795v1.56c0 .965-.782 1.747-1.746 1.747h-2.328a1.746 1.746 0 0 1-1.747-1.746z" opacity=".125" style="fill:url(#p);stroke-width:.264578"/><path fill="url(#k)" d="M21.695 1.166c0-.44.357-.796.796-.796h1.107c.284 0 .56.098.78.278.221.179.497.277.78.277h1.562c.44 0 .796.356.796.796v1.56c0 .964-.782 1.746-1.746 1.746h-2.328a1.746 1.746 0 0 1-1.747-1.746z" style="opacity:.875;fill:url(#q);stroke-width:.264578"/><path stroke="url(#l)" stroke-linejoin="round" stroke-opacity=".375" stroke-width=".198" d="M27.417 1.72v1.56c0 .91-.737 1.648-1.647 1.648h-2.328c-.91 0-1.647-.738-1.647-1.647V1.166c0-.385.311-.696.696-.696h1.107c.261 0 .515.09.718.255.238.193.536.299.843.299h1.561c.385 0 .697.312.697.697z" style="opacity:.875;fill:none;stroke:url(#r)"/></g><g transform="matrix(1.59905 0 0 1.59905 -28.74 2.629)"><rect width="5.821" height="5.821" x="21.695" y="-.794" fill="url(#g)" opacity=".813" rx="1.746" style="fill:url(#g);stroke-width:.264578"/><rect width="4.762" height="4.762" x="22.225" y="-.463" fill="url(#paint1_linear_201_32)" fill-opacity=".875" opacity=".125" rx="1.164" style="fill:url(#h);stroke-width:.264578"/><rect width="4.63" height="4.63" x="22.291" y="-.198" fill="#ccc" stroke="url(#paint2_linear_201_32)" stroke-width=".132" rx="1.098" style="stroke:url(#i)"/><path fill="url(#paint3_linear_201_32)" fill-opacity=".875" d="M21.695.928c0-.44.357-.796.796-.796h1.107c.284 0 .56.098.78.277.221.18.497.278.78.278h1.562c.44 0 .796.356.796.795v1.56c0 .965-.782 1.747-1.746 1.747h-2.328a1.746 1.746 0 0 1-1.747-1.746z" opacity=".125" style="fill:url(#j);stroke-width:.264578"/><path fill="url(#k)" d="M21.695 1.166c0-.44.357-.796.796-.796h1.107c.284 0 .56.098.78.278.221.179.497.277.78.277h1.562c.44 0 .796.356.796.796v1.56c0 .964-.782 1.746-1.746 1.746h-2.328a1.746 1.746 0 0 1-1.747-1.746z" style="opacity:.875;fill:url(#k);stroke-width:.264578"/><path stroke="url(#l)" stroke-linejoin="round" stroke-opacity=".375" stroke-width=".198" d="M27.417 1.72v1.56c0 .91-.737 1.648-1.647 1.648h-2.328c-.91 0-1.647-.738-1.647-1.647V1.166c0-.385.311-.696.696-.696h1.107c.261 0 .515.09.718.255.238.193.536.299.843.299h1.561c.385 0 .697.312.697.697z" style="opacity:.875;fill:none;stroke:url(#l)"/></g></svg>