<svg xmlns="http://www.w3.org/2000/svg" width="24" height="24" fill="none"><rect width="22" height="22" x="1" y="1" fill="url(#a)" opacity=".813" rx="6.6"/><rect width="18" height="18" x="3" y="2.25" fill="url(#b)" fill-opacity=".875" opacity=".125" rx="4.4"/><rect width="17.5" height="17.5" x="3.25" y="3.25" fill="#CCC" stroke="url(#c)" stroke-width=".5" rx="4.15"/><path fill="url(#d)" fill-opacity=".875" d="M1 7.508A3.008 3.008 0 0 1 4.008 4.5H8.19c1.075 0 2.117.37 2.95 1.048a4.678 4.678 0 0 0 2.95 1.047h5.902A3.008 3.008 0 0 1 23 9.603V15.5a6.6 6.6 0 0 1-6.6 6.6H7.6A6.6 6.6 0 0 1 1 15.5V7.508Z" opacity=".125"/><defs><linearGradient id="a" x1="23" x2="1" y1="1" y2="12" gradientUnits="userSpaceOnUse"><stop stop-color="#B3B3B3"/><stop offset="1" stop-color="#333"/></linearGradient><linearGradient id="b" x1="21" x2="3" y1="4" y2="4" gradientUnits="userSpaceOnUse"><stop stop-opacity=".5"/><stop offset=".89"/><stop offset="1" stop-opacity="0"/></linearGradient><linearGradient id="c" x1="12" x2="11.5" y1="3" y2="8" gradientUnits="userSpaceOnUse"><stop stop-color="#DDD"/><stop offset="1" stop-color="#CCC" stop-opacity="0"/></linearGradient><linearGradient id="d" x1="23" x2="1.012" y1="9" y2="9.521" gradientUnits="userSpaceOnUse"><stop stop-opacity=".5"/><stop offset="1"/></linearGradient><linearGradient id="e" x1="23" x2="1.429" y1="5.4" y2="23.512" gradientTransform="matrix(1 0 .01175 .92434 -.27 1.74)" gradientUnits="userSpaceOnUse"><stop stop-color="#E6E6E6"/><stop offset="1" stop-color="#333"/></linearGradient><linearGradient id="f" x1="15" x2="5.5" y1="5.5" y2="19.5" gradientTransform="matrix(1 0 .01175 .92434 -.27 1.74)" gradientUnits="userSpaceOnUse"><stop stop-color="#FAFAFA"/><stop offset="1" stop-color="#181818"/></linearGradient></defs><path fill="url(#e)" d="M.828 9.512c-.02-1.536 1.312-2.78 2.973-2.78h4.183c1.074 0 2.12.342 2.962.968a4.974 4.974 0 0 0 2.962.968h5.902c1.661 0 3.023 1.245 3.043 2.78l.07 5.451C22.964 20.27 20.044 23 16.4 23H7.6C3.955 23 .965 20.269.922 16.9z" style="opacity:.875;fill:url(#e);stroke-width:.961424"/><path stroke="url(#f)" stroke-linejoin="round" stroke-opacity=".375" stroke-width=".721" d="m22.478 11.449.07 5.45c.04 3.178-2.715 5.754-6.153 5.754h-8.8c-3.438 0-6.257-2.576-6.298-5.754l-.094-7.387c-.017-1.344 1.148-2.434 2.602-2.434h4.183c.988 0 1.95.315 2.725.891a5.373 5.373 0 0 0 3.2 1.046h5.901c1.454 0 2.647 1.09 2.664 2.434z" style="opacity:.875;stroke:url(#f)"/></svg>