<svg xmlns="http://www.w3.org/2000/svg" xmlns:xlink="http://www.w3.org/1999/xlink" width="64" height="64" viewBox="0 0 16.933 16.933"><defs><linearGradient id="a" x1="23" x2="1" y1="1" y2="12" gradientTransform="translate(22.113 .695) scale(.42307)" gradientUnits="userSpaceOnUse"><stop stop-color="#B3B3B3"/><stop offset="1" stop-color="#333"/></linearGradient><linearGradient id="b" x1="21" x2="3" y1="4" y2="4" gradientTransform="translate(22.113 .695) scale(.42307)" gradientUnits="userSpaceOnUse"><stop stop-opacity=".5"/><stop offset=".89"/><stop offset="1" stop-opacity="0"/></linearGradient><linearGradient id="c" x1="12" x2="11.5" y1="3" y2="8" gradientTransform="translate(22.113 .695) scale(.42307)" gradientUnits="userSpaceOnUse"><stop stop-color="#DDD"/><stop offset="1" stop-color="#CCC" stop-opacity="0"/></linearGradient><linearGradient id="d" x1="23" x2="1.012" y1="9" y2="9.521" gradientTransform="translate(22.113 .695) scale(.42307)" gradientUnits="userSpaceOnUse"><stop stop-opacity=".5"/><stop offset="1"/></linearGradient><linearGradient id="e" x1="23" x2="1.429" y1="5.4" y2="23.511" gradientTransform="translate(22.113 .695) scale(.42307)" gradientUnits="userSpaceOnUse"><stop stop-color="#E6E6E6"/><stop offset="1" stop-color="#333"/></linearGradient><linearGradient id="f" x1="15" x2="5.5" y1="5.5" y2="19.5" gradientTransform="translate(22.113 .695) scale(.42307)" gradientUnits="userSpaceOnUse"><stop stop-color="#FAFAFA"/><stop offset="1" stop-color="#181818"/></linearGradient><linearGradient xlink:href="#a" id="g" x1="23" x2="1" y1="1" y2="12" gradientTransform="translate(22.113 .695) scale(.42307)" gradientUnits="userSpaceOnUse"/><linearGradient xlink:href="#b" id="h" x1="21" x2="3" y1="4" y2="4" gradientTransform="translate(22.113 .695) scale(.42307)" gradientUnits="userSpaceOnUse"/><linearGradient xlink:href="#c" id="i" x1="12" x2="11.5" y1="3" y2="8" gradientTransform="translate(22.113 .695) scale(.42307)" gradientUnits="userSpaceOnUse"/><linearGradient xlink:href="#d" id="j" x1="23" x2="1.012" y1="9" y2="9.521" gradientTransform="translate(22.113 .695) scale(.42307)" gradientUnits="userSpaceOnUse"/><linearGradient xlink:href="#e" id="k" x1="23" x2="1.429" y1="5.4" y2="23.511" gradientTransform="translate(22.113 .695) scale(.42307)" gradientUnits="userSpaceOnUse"/><linearGradient xlink:href="#f" id="l" x1="15" x2="5.5" y1="5.5" y2="19.5" gradientTransform="translate(22.113 .695) scale(.42307)" gradientUnits="userSpaceOnUse"/><linearGradient xlink:href="#a" id="m" x1="23" x2="1" y1="1" y2="12" gradientTransform="translate(22.113 .695) scale(.42307)" gradientUnits="userSpaceOnUse"/><linearGradient xlink:href="#b" id="n" x1="21" x2="3" y1="4" y2="4" gradientTransform="translate(22.113 .695) scale(.42307)" gradientUnits="userSpaceOnUse"/><linearGradient xlink:href="#c" id="o" x1="12" x2="11.5" y1="3" y2="8" gradientTransform="translate(22.113 .695) scale(.42307)" gradientUnits="userSpaceOnUse"/><linearGradient xlink:href="#d" id="p" x1="23" x2="1.012" y1="9" y2="9.521" gradientTransform="translate(22.113 .695) scale(.42307)" gradientUnits="userSpaceOnUse"/><linearGradient xlink:href="#e" id="q" x1="23" x2="1.429" y1="5.4" y2="23.511" gradientTransform="translate(22.113 .695) scale(.42307)" gradientUnits="userSpaceOnUse"/><linearGradient xlink:href="#f" id="r" x1="15" x2="5.5" y1="5.5" y2="19.5" gradientTransform="translate(22.113 .695) scale(.42307)" gradientUnits="userSpaceOnUse"/></defs><g style="opacity:.35" transform="translate(-20.842 5.19)"><rect width="9.308" height="9.308" x="22.536" y="1.118" fill="url(#a)" opacity=".813" rx="2.792" style="fill:url(#g);stroke-width:.423072"/><rect width="7.615" height="7.615" x="23.382" y="1.646" fill="url(#b)" fill-opacity=".875" opacity=".125" rx="1.862" style="fill:url(#h);stroke-width:.423072"/><rect width="7.404" height="7.404" x="23.488" y="2.07" fill="#ccc" stroke="url(#c)" stroke-width=".212" rx="1.756" style="stroke:url(#i)"/><path fill="url(#d)" fill-opacity=".875" d="M22.536 3.87c0-.702.57-1.272 1.272-1.272h1.77c.455 0 .895.157 1.248.444.353.286.794.443 1.248.443h2.497c.703 0 1.273.57 1.273 1.272v2.495a2.792 2.792 0 0 1-2.793 2.792h-3.723a2.792 2.792 0 0 1-2.792-2.792z" opacity=".125" style="fill:url(#j);stroke-width:.423072"/><path fill="url(#e)" d="M22.536 4.252c0-.703.57-1.273 1.272-1.273h1.77c.455 0 .895.157 1.248.443.353.287.794.444 1.248.444h2.497c.703 0 1.273.57 1.273 1.272v2.495a2.792 2.792 0 0 1-2.793 2.792h-3.723a2.792 2.792 0 0 1-2.792-2.792z" style="opacity:.875;fill:url(#k);stroke-width:.423072"/><path stroke="url(#f)" stroke-linejoin="round" stroke-opacity=".375" stroke-width=".317" d="M31.685 5.138v2.495a2.634 2.634 0 0 1-2.634 2.634h-3.723a2.634 2.634 0 0 1-2.633-2.634V4.252c0-.615.498-1.114 1.113-1.114h1.77c.418 0 .824.144 1.148.407.381.31.857.48 1.348.48h2.497c.615 0 1.114.498 1.114 1.113z" style="opacity:.875;fill:none;stroke:url(#l)"/></g><g transform="translate(-16.604 .2)"><rect width="9.308" height="9.308" x="22.536" y="1.118" fill="url(#a)" opacity=".813" rx="2.792" style="fill:url(#m);stroke-width:.423072"/><rect width="7.615" height="7.615" x="23.382" y="1.646" fill="url(#b)" fill-opacity=".875" opacity=".125" rx="1.862" style="fill:url(#n);stroke-width:.423072"/><rect width="7.404" height="7.404" x="23.488" y="2.07" fill="#ccc" stroke="url(#c)" stroke-width=".212" rx="1.756" style="stroke:url(#o)"/><path fill="url(#d)" fill-opacity=".875" d="M22.536 3.87c0-.702.57-1.272 1.272-1.272h1.77c.455 0 .895.157 1.248.444.353.286.794.443 1.248.443h2.497c.703 0 1.273.57 1.273 1.272v2.495a2.792 2.792 0 0 1-2.793 2.792h-3.723a2.792 2.792 0 0 1-2.792-2.792z" opacity=".125" style="fill:url(#p);stroke-width:.423072"/><path fill="url(#e)" d="M22.536 4.252c0-.703.57-1.273 1.272-1.273h1.77c.455 0 .895.157 1.248.443.353.287.794.444 1.248.444h2.497c.703 0 1.273.57 1.273 1.272v2.495a2.792 2.792 0 0 1-2.793 2.792h-3.723a2.792 2.792 0 0 1-2.792-2.792z" style="opacity:.875;fill:url(#q);stroke-width:.423072"/><path stroke="url(#f)" stroke-linejoin="round" stroke-opacity=".375" stroke-width=".317" d="M31.685 5.138v2.495a2.634 2.634 0 0 1-2.634 2.634h-3.723a2.634 2.634 0 0 1-2.633-2.634V4.252c0-.615.498-1.114 1.113-1.114h1.77c.418 0 .824.144 1.148.407.381.31.857.48 1.348.48h2.497c.615 0 1.114.498 1.114 1.113z" style="opacity:.875;fill:none;stroke:url(#r)"/></g></svg>