<svg xmlns="http://www.w3.org/2000/svg" width="24" height="24" fill="none"><rect width="22" height="22" x="1" y="1" fill="url(#a)" opacity=".813" rx="6.6"/><rect width="18" height="18" x="3" y="2.25" fill="url(#b)" fill-opacity=".875" opacity=".125" rx="4.4"/><rect width="17.5" height="17.5" x="3.25" y="3.25" fill="#CCC" stroke="url(#c)" stroke-width=".5" rx="4.15"/><path fill="url(#d)" fill-opacity=".875" d="M1 7.508A3.008 3.008 0 0 1 4.008 4.5H8.19c1.075 0 2.117.37 2.95 1.048a4.678 4.678 0 0 0 2.95 1.047h5.902A3.008 3.008 0 0 1 23 9.603V15.5a6.6 6.6 0 0 1-6.6 6.6H7.6A6.6 6.6 0 0 1 1 15.5V7.508Z" opacity=".125"/><g opacity=".875"><path fill="url(#e)" d="M1 8.408A3.008 3.008 0 0 1 4.008 5.4H8.19c1.075 0 2.117.37 2.95 1.048a4.678 4.678 0 0 0 2.95 1.047h5.902A3.008 3.008 0 0 1 23 10.503V16.4a6.6 6.6 0 0 1-6.6 6.6H7.6A6.6 6.6 0 0 1 1 16.4V8.408Z"/><path stroke="url(#f)" stroke-linejoin="round" stroke-opacity=".375" stroke-width=".75" d="M22.625 10.503V16.4a6.225 6.225 0 0 1-6.225 6.225H7.6A6.225 6.225 0 0 1 1.375 16.4V8.408a2.633 2.633 0 0 1 2.633-2.633H8.19c.989 0 1.947.34 2.714.964a5.053 5.053 0 0 0 3.187 1.131h5.901a2.633 2.633 0 0 1 2.633 2.633Z"/></g><defs><linearGradient id="a" x1="23" x2="1" y1="1" y2="12" gradientUnits="userSpaceOnUse"><stop stop-color="#F06246"/><stop offset="1" stop-color="#BE4128"/></linearGradient><linearGradient id="b" x1="21" x2="3" y1="4" y2="4" gradientUnits="userSpaceOnUse"><stop stop-opacity=".5"/><stop offset=".89"/><stop offset="1" stop-opacity="0"/></linearGradient><linearGradient id="c" x1="12" x2="11.5" y1="3" y2="8" gradientUnits="userSpaceOnUse"><stop stop-color="#DDD"/><stop offset="1" stop-color="#CCC" stop-opacity="0"/></linearGradient><linearGradient id="d" x1="23" x2="1.012" y1="9" y2="9.521" gradientUnits="userSpaceOnUse"><stop stop-opacity=".5"/><stop offset="1"/></linearGradient><linearGradient id="e" x1="23" x2="1.429" y1="5.4" y2="23.512" gradientUnits="userSpaceOnUse"><stop stop-color="#FF8966"/><stop offset="1" stop-color="#DC3A1A"/></linearGradient><linearGradient id="f" x1="15" x2="5.5" y1="5.5" y2="19.5" gradientUnits="userSpaceOnUse"><stop stop-color="#FFB693"/><stop offset="1" stop-color="#C82606"/></linearGradient><linearGradient id="g" x1="18" x2="6" y1="9" y2="21" gradientTransform="matrix(.87496 0 0 .94072 1.489 .504)" gradientUnits="userSpaceOnUse"><stop stop-color="#999"/><stop offset="1" stop-color="#333"/></linearGradient></defs><path fill="url(#g)" d="M11.141 9.072c-.299 0-.586.118-.797.33-.21.21-.329.495-.327.793a1.126 1.126 0 0 1-1.13 1.107 1.086 1.086 0 0 1-.54-.15 1.133 1.133 0 0 0-1.54.414l-.394.645a1.12 1.12 0 0 0 .41 1.532 1.122 1.122 0 0 1 0 1.945c-.537.31-.72.994-.41 1.528l.372.64a1.13 1.13 0 0 0 1.54.434 1.124 1.124 0 0 1 1.535.41c.098.162.149.348.15.537 0 .62.507 1.123 1.131 1.123h.74c.621 0 1.126-.5 1.129-1.118a1.115 1.115 0 0 1 .329-.796c.212-.211.5-.329.8-.327.19.005.376.057.54.15a1.133 1.133 0 0 0 1.54-.409l.39-.644a1.114 1.114 0 0 0-.411-1.532 1.117 1.117 0 0 1 0-1.94c.534-.312.718-.993.41-1.528v-.005l-.367-.634a1.131 1.131 0 0 0-1.54-.414 1.13 1.13 0 0 1-1.54-.398 1.068 1.068 0 0 1-.151-.537 1.12 1.12 0 0 0-.319-.816 1.132 1.132 0 0 0-.81-.34Zm.339 3.763h.032c.501 0 .982.198 1.337.55a1.876 1.876 0 0 1-.614 3.07 1.9 1.9 0 0 1-2.06-.409 1.88 1.88 0 0 1-.555-1.33c0-.493.195-.967.543-1.32.348-.351.82-.553 1.317-.561z" style="opacity:.15;fill:#1a1a1a;stroke-width:.907247"/><path fill="url(#g)" d="M11.617 8.5c-.298 0-.585.119-.796.33-.211.21-.33.496-.328.793a1.126 1.126 0 0 1-1.129 1.108 1.086 1.086 0 0 1-.54-.151 1.133 1.133 0 0 0-1.54.414l-.394.645a1.12 1.12 0 0 0 .41 1.533c.349.2.565.571.565.972 0 .402-.216.772-.565.973-.537.309-.72.993-.41 1.527l.371.64a1.13 1.13 0 0 0 1.54.435 1.124 1.124 0 0 1 1.536.409c.097.163.148.348.15.537 0 .621.507 1.124 1.13 1.124h.74c.622 0 1.127-.5 1.13-1.119a1.115 1.115 0 0 1 .328-.796c.212-.21.5-.328.8-.327.19.005.376.057.541.15a1.133 1.133 0 0 0 1.54-.408l.39-.645a1.114 1.114 0 0 0-.412-1.532 1.117 1.117 0 0 1 0-1.94c.534-.311.718-.993.411-1.528v-.005l-.368-.634a1.131 1.131 0 0 0-1.539-.414 1.13 1.13 0 0 1-1.54-.398 1.068 1.068 0 0 1-.152-.537 1.12 1.12 0 0 0-.318-.815 1.132 1.132 0 0 0-.81-.34Zm.34 3.763h.031c.502 0 .983.198 1.337.551a1.876 1.876 0 0 1-.613 3.069 1.9 1.9 0 0 1-2.061-.408 1.88 1.88 0 0 1-.554-1.33c0-.494.195-.968.542-1.32.348-.352.821-.554 1.317-.562z" style="fill:url(#g);stroke-width:.907247"/></svg>