<svg xmlns="http://www.w3.org/2000/svg" width="24" height="24" fill="none"><rect width="22" height="22" x="1" y="1" fill="url(#a)" opacity=".813" rx="6.6"/><rect width="18" height="18" x="3" y="2.25" fill="url(#b)" fill-opacity=".875" opacity=".125" rx="4.4"/><rect width="17.5" height="17.5" x="3.25" y="3.25" fill="#CCC" stroke="url(#c)" stroke-width=".5" rx="4.15"/><path fill="url(#d)" fill-opacity=".875" d="M1 7.508A3.008 3.008 0 0 1 4.008 4.5H8.19c1.075 0 2.117.37 2.95 1.048a4.678 4.678 0 0 0 2.95 1.047h5.902A3.008 3.008 0 0 1 23 9.603V15.5a6.6 6.6 0 0 1-6.6 6.6H7.6A6.6 6.6 0 0 1 1 15.5V7.508Z" opacity=".125"/><g opacity=".875"><path fill="url(#e)" d="M1 8.408A3.008 3.008 0 0 1 4.008 5.4H8.19c1.075 0 2.117.37 2.95 1.048a4.678 4.678 0 0 0 2.95 1.047h5.902A3.008 3.008 0 0 1 23 10.503V16.4a6.6 6.6 0 0 1-6.6 6.6H7.6A6.6 6.6 0 0 1 1 16.4V8.408Z"/><path stroke="url(#f)" stroke-linejoin="round" stroke-opacity=".375" stroke-width=".75" d="M22.625 10.503V16.4a6.225 6.225 0 0 1-6.225 6.225H7.6A6.225 6.225 0 0 1 1.375 16.4V8.408a2.633 2.633 0 0 1 2.633-2.633H8.19c.989 0 1.947.34 2.714.964a5.053 5.053 0 0 0 3.187 1.131h5.901a2.633 2.633 0 0 1 2.633 2.633Z"/></g><defs><linearGradient id="a" x1="23" x2="1" y1="1" y2="12" gradientUnits="userSpaceOnUse"><stop stop-color="#F06246"/><stop offset="1" stop-color="#BE4128"/></linearGradient><linearGradient id="b" x1="21" x2="3" y1="4" y2="4" gradientUnits="userSpaceOnUse"><stop stop-opacity=".5"/><stop offset=".89"/><stop offset="1" stop-opacity="0"/></linearGradient><linearGradient id="c" x1="12" x2="11.5" y1="3" y2="8" gradientUnits="userSpaceOnUse"><stop stop-color="#DDD"/><stop offset="1" stop-color="#CCC" stop-opacity="0"/></linearGradient><linearGradient id="d" x1="23" x2="1.012" y1="9" y2="9.521" gradientUnits="userSpaceOnUse"><stop stop-opacity=".5"/><stop offset="1"/></linearGradient><linearGradient id="e" x1="23" x2="1.429" y1="5.4" y2="23.512" gradientUnits="userSpaceOnUse"><stop stop-color="#FF8966"/><stop offset="1" stop-color="#DC3A1A"/></linearGradient><linearGradient id="f" x1="15" x2="5.5" y1="5.5" y2="19.5" gradientUnits="userSpaceOnUse"><stop stop-color="#FFB693"/><stop offset="1" stop-color="#C82606"/></linearGradient><linearGradient id="g" x1="17.133" x2="6.867" y1="8.333" y2="20.067" gradientTransform="matrix(.9375 0 0 .9375 .75 .906)" gradientUnits="userSpaceOnUse"><stop stop-color="#FF7C7D"/><stop offset="1" stop-color="#751010"/></linearGradient></defs><path fill="url(#g)" d="M10.137 9.1v1.375H9.45a.69.69 0 0 0-.688.687v2.75l.372.372-2.345 4.097L6.7 20.1l1.286-1.031.495-.873c.735.343 1.533.529 2.344.529.811 0 1.609-.186 2.344-.53l.495.874L14.95 20.1l-.09-1.719-.529-.921a5.492 5.492 0 0 0 1.994-4.235H14.95a4.105 4.105 0 0 1-1.313 3.011l-1.12-1.952.37-.371v-2.75a.69.69 0 0 0-.687-.688h-.688V9.1Zm.688 2.75a.69.69 0 0 1 .687.687.69.69 0 0 1-.687.688.69.69 0 0 1-.688-.688.69.69 0 0 1 .688-.687zm-.68 3.437c.433.214.866.372 1.36 0L12.483 17a4.166 4.166 0 0 1-1.657.35c-.57 0-1.134-.123-1.657-.35z" style="opacity:.15;fill:#1a1a1a;stroke-width:.937497"/><path fill="url(#g)" d="M10.625 8.718v1.375h-.687a.69.69 0 0 0-.688.688v2.75l.371.37L7.277 18l-.09 1.719 1.286-1.031.495-.873c.736.343 1.533.529 2.345.529.81 0 1.608-.186 2.344-.53l.495.874 1.286 1.031-.09-1.719-.53-.921a5.492 5.492 0 0 0 1.994-4.235h-1.374a4.105 4.105 0 0 1-1.314 3.011l-1.12-1.952.371-.371v-2.75a.69.69 0 0 0-.688-.688H12V8.718Zm.688 2.75a.69.69 0 0 1 .687.688.69.69 0 0 1-.687.687.69.69 0 0 1-.688-.687.69.69 0 0 1 .688-.688zm-.681 3.437c.433.214.866.372 1.361 0l.976 1.712a4.166 4.166 0 0 1-1.656.351c-.571 0-1.135-.124-1.657-.35z" style="fill:url(#g);stroke-width:.937497"/></svg>