<svg xmlns="http://www.w3.org/2000/svg" xml:space="preserve" width="24" height="24" fill="none"><rect width="22" height="22" x="1" y="1" fill="url(#a)" opacity=".813" rx="6.6"/><rect width="18" height="18" x="3" y="2.25" fill="url(#b)" fill-opacity=".875" opacity=".125" rx="4.4"/><rect width="17.5" height="17.5" x="3.25" y="3.25" fill="#CCC" stroke="url(#c)" stroke-width=".5" rx="4.15"/><path fill="url(#d)" fill-opacity=".875" d="M1 7.508A3.008 3.008 0 0 1 4.008 4.5H8.19c1.075 0 2.117.37 2.95 1.048a4.678 4.678 0 0 0 2.95 1.047h5.902A3.008 3.008 0 0 1 23 9.603V15.5a6.6 6.6 0 0 1-6.6 6.6H7.6A6.6 6.6 0 0 1 1 15.5V7.508Z" opacity=".125"/><defs><linearGradient id="a" x1="23" x2="1" y1="1" y2="12" gradientUnits="userSpaceOnUse"><stop stop-color="#F06246"/><stop offset="1" stop-color="#BE4128"/></linearGradient><linearGradient id="b" x1="21" x2="3" y1="4" y2="4" gradientUnits="userSpaceOnUse"><stop stop-opacity=".5"/><stop offset=".89"/><stop offset="1" stop-opacity="0"/></linearGradient><linearGradient id="c" x1="12" x2="11.5" y1="3" y2="8" gradientUnits="userSpaceOnUse"><stop stop-color="#DDD"/><stop offset="1" stop-color="#CCC" stop-opacity="0"/></linearGradient><linearGradient id="d" x1="23" x2="1.012" y1="9" y2="9.521" gradientUnits="userSpaceOnUse"><stop stop-opacity=".5"/><stop offset="1"/></linearGradient><linearGradient id="k" x1="23" x2="1.429" y1="5.4" y2="23.512" gradientTransform="matrix(1 0 .02193 .92258 -.505 1.78)" gradientUnits="userSpaceOnUse"><stop offset="0" stop-color="#FF8966" style="stop-color:#ff8a66;stop-opacity:1"/><stop offset="1" stop-color="#DC3A1A"/></linearGradient><linearGradient id="l" x1="15" x2="5.5" y1="5.5" y2="19.5" gradientTransform="matrix(1 0 .02193 .92258 -.505 1.78)" gradientUnits="userSpaceOnUse"><stop stop-color="#FFB693"/><stop offset="1" stop-color="#C82606"/></linearGradient><linearGradient id="e" x1="12" x2="11.5" y1="3" y2="8" gradientTransform="matrix(.75 0 0 -.75 0 18)" gradientUnits="userSpaceOnUse" spreadMethod="pad"><stop offset="0" style="stop-opacity:1;stop-color:#fff"/><stop offset="1" style="stop-opacity:0;stop-color:#fff"/></linearGradient><linearGradient id="g" x1="15" x2="5.5" y1="5.5" y2="19.5" gradientTransform="matrix(.75 0 0 -.75 0 18)" gradientUnits="userSpaceOnUse" spreadMethod="pad"><stop offset="0" style="stop-opacity:.37500572;stop-color:#fff"/><stop offset="1" style="stop-opacity:.37500572;stop-color:#fff"/></linearGradient><clipPath id="f" clipPathUnits="userSpaceOnUse"><path d="M1 1h16v16H1Z"/></clipPath><clipPath id="h" clipPathUnits="userSpaceOnUse"><path d="M0 4h18v14H0Z"/></clipPath><clipPath id="i" clipPathUnits="userSpaceOnUse"><path d="M1 1h16v16H1Z"/></clipPath><clipPath id="j" clipPathUnits="userSpaceOnUse"><path d="M0 4h18v14H0Z"/></clipPath></defs><path fill="url(#k)" d="M.68 9.538C.643 8.005 1.96 6.763 3.62 6.763h4.183c1.075 0 2.125.34 2.973.966a5.028 5.028 0 0 0 2.973.967h5.902c1.661 0 3.037 1.242 3.074 2.775l.129 5.44C22.935 20.274 20.045 23 16.4 23H7.6C3.955 23 .935 20.274.855 16.911z" style="opacity:.875;fill:url(#k);stroke-width:.960509"/><path stroke="url(#l)" stroke-linejoin="round" stroke-opacity=".375" stroke-width=".72" d="m22.35 11.47.13 5.441c.075 3.172-2.65 5.743-6.089 5.743h-8.8c-3.438 0-6.286-2.571-6.361-5.743l-.175-7.373c-.032-1.342 1.12-2.43 2.575-2.43h4.182c.989 0 1.954.315 2.735.89a5.431 5.431 0 0 0 3.212 1.044h5.901c1.454 0 2.659 1.087 2.69 2.429z" style="opacity:.875;stroke:url(#l)"/></svg>