<svg xmlns="http://www.w3.org/2000/svg" xml:space="preserve" width="24" height="24" fill="none"><rect width="22" height="22" x="1" y="1" fill="url(#a)" opacity=".813" rx="6.6" style="fill:url(#a)"/><rect width="18" height="18" x="3" y="2.25" fill="url(#b)" fill-opacity=".875" opacity=".125" rx="4.4" style="fill:url(#b)"/><rect width="17.5" height="17.5" x="3.25" y="3.25" fill="#ccc" stroke="url(#c)" stroke-width=".5" rx="4.15" style="stroke:url(#c)"/><path fill="url(#d)" fill-opacity=".875" d="M1 7.508A3.008 3.008 0 0 1 4.008 4.5H8.19c1.075 0 2.117.37 2.95 1.048a4.678 4.678 0 0 0 2.95 1.047h5.902A3.008 3.008 0 0 1 23 9.603V15.5a6.6 6.6 0 0 1-6.6 6.6H7.6A6.6 6.6 0 0 1 1 15.5Z" opacity=".125" style="fill:url(#d)"/><defs><linearGradient id="a" x1="23" x2="1" y1="1" y2="12" gradientUnits="userSpaceOnUse"><stop stop-color="#FFA4DB"/><stop offset="1" stop-color="#FF5C93"/></linearGradient><linearGradient id="b" x1="21" x2="3" y1="4" y2="4" gradientUnits="userSpaceOnUse"><stop stop-opacity=".5"/><stop offset=".89"/><stop offset="1" stop-opacity="0"/></linearGradient><linearGradient id="c" x1="12" x2="11.5" y1="3" y2="8" gradientUnits="userSpaceOnUse"><stop stop-color="#DDD"/><stop offset="1" stop-color="#CCC" stop-opacity="0"/></linearGradient><linearGradient id="d" x1="23" x2="1.012" y1="9" y2="9.521" gradientUnits="userSpaceOnUse"><stop stop-opacity=".5"/><stop offset="1"/></linearGradient><linearGradient id="i" x1="23" x2="1.429" y1="5.4" y2="23.511" gradientTransform="matrix(1 0 .02136 .9239 -.408 1.75)" gradientUnits="userSpaceOnUse"><stop offset="0" stop-color="#FFC0F7" style="stop-color:#ffc0f7;stop-opacity:1"/><stop offset="1" stop-color="#DA86BD" style="stop-color:#da86bd;stop-opacity:1"/></linearGradient><linearGradient id="j" x1="15" x2="5.5" y1="5.5" y2="19.5" gradientTransform="matrix(1 0 .02136 .9239 -.408 1.75)" gradientUnits="userSpaceOnUse"><stop stop-color="#FFDBFF"/><stop offset="1" stop-color="#D27EB5"/></linearGradient><linearGradient id="e" x1="12" x2="11.5" y1="3" y2="8" gradientTransform="matrix(.75 0 0 -.75 0 18)" gradientUnits="userSpaceOnUse" spreadMethod="pad"><stop offset="0" style="stop-opacity:1;stop-color:#fff"/><stop offset="1" style="stop-opacity:0;stop-color:#fff"/></linearGradient><linearGradient id="g" x1="15" x2="5.5" y1="5.5" y2="19.5" gradientTransform="matrix(.75 0 0 -.75 0 18)" gradientUnits="userSpaceOnUse" spreadMethod="pad"><stop offset="0" style="stop-opacity:.37500572;stop-color:#fff"/><stop offset="1" style="stop-opacity:.37500572;stop-color:#fff"/></linearGradient><clipPath id="f" clipPathUnits="userSpaceOnUse"><path d="M1 1h16v16H1Z"/></clipPath><clipPath id="h" clipPathUnits="userSpaceOnUse"><path d="M0 4h18v14H0Z"/></clipPath></defs><path fill="url(#i)" d="M.772 9.518C.736 7.983 2.054 6.74 3.715 6.74h4.183a5.02 5.02 0 0 1 2.972.968 5.02 5.02 0 0 0 2.973.968h5.901c1.662 0 3.037 1.244 3.072 2.779l.126 5.448C23.02 20.27 20.128 23 16.483 23h-8.8c-3.645 0-6.663-2.73-6.74-6.098z" style="opacity:.875;fill:url(#i);stroke-width:.961201"/><path stroke="url(#j)" stroke-linejoin="round" stroke-opacity=".375" stroke-width=".721" d="m22.441 11.454.126 5.448c.074 3.177-2.654 5.752-6.092 5.752h-8.8c-3.438 0-6.284-2.575-6.358-5.752l-.17-7.384c-.031-1.343 1.122-2.432 2.576-2.432h4.183c.988 0 1.954.314 2.734.89a5.423 5.423 0 0 0 3.21 1.046h5.902c1.454 0 2.658 1.089 2.69 2.432z" style="opacity:.875;stroke:url(#j)"/></svg>