<svg xmlns="http://www.w3.org/2000/svg" xmlns:xlink="http://www.w3.org/1999/xlink" xml:space="preserve" width="64" height="64" viewBox="0 0 16.933 16.933"><defs><linearGradient id="a" x1="23" x2="1" y1="1" y2="12" gradientTransform="matrix(.26458 0 0 .26458 28.48 -1.375)" gradientUnits="userSpaceOnUse"><stop stop-color="#FFA4DB"/><stop offset="1" stop-color="#FF5C93"/></linearGradient><linearGradient id="b" x1="21" x2="3" y1="4" y2="4" gradientTransform="matrix(.26458 0 0 .26458 28.48 -1.375)" gradientUnits="userSpaceOnUse"><stop stop-opacity=".5"/><stop offset=".89"/><stop offset="1" stop-opacity="0"/></linearGradient><linearGradient id="c" x1="12" x2="11.5" y1="3" y2="8" gradientTransform="matrix(.26458 0 0 .26458 28.48 -1.375)" gradientUnits="userSpaceOnUse"><stop stop-color="#DDD"/><stop offset="1" stop-color="#CCC" stop-opacity="0"/></linearGradient><linearGradient id="d" x1="23" x2="1.012" y1="9" y2="9.521" gradientTransform="matrix(.26458 0 0 .26458 28.48 -1.375)" gradientUnits="userSpaceOnUse"><stop stop-opacity=".5"/><stop offset="1"/></linearGradient><linearGradient id="e" x1="23" x2="1.429" y1="5.4" y2="23.511" gradientTransform="matrix(.26458 0 0 .26458 28.48 -1.375)" gradientUnits="userSpaceOnUse"><stop offset="0" stop-color="#FFC0F7" style="stop-color:#ffc0f7;stop-opacity:1"/><stop offset="1" stop-color="#DA86BD" style="stop-color:#da86bd;stop-opacity:1"/></linearGradient><linearGradient id="f" x1="15" x2="5.5" y1="5.5" y2="19.5" gradientTransform="matrix(.26458 0 0 .26458 28.48 -1.375)" gradientUnits="userSpaceOnUse"><stop stop-color="#FFDBFF"/><stop offset="1" stop-color="#D27EB5"/></linearGradient><linearGradient xlink:href="#a" id="g" x1="23" x2="1" y1="1" y2="12" gradientTransform="matrix(.26458 0 0 .26458 28.48 -1.375)" gradientUnits="userSpaceOnUse"/><linearGradient xlink:href="#b" id="h" x1="21" x2="3" y1="4" y2="4" gradientTransform="matrix(.26458 0 0 .26458 28.48 -1.375)" gradientUnits="userSpaceOnUse"/><linearGradient xlink:href="#c" id="i" x1="12" x2="11.5" y1="3" y2="8" gradientTransform="matrix(.26458 0 0 .26458 28.48 -1.375)" gradientUnits="userSpaceOnUse"/><linearGradient xlink:href="#d" id="j" x1="23" x2="1.012" y1="9" y2="9.521" gradientTransform="matrix(.26458 0 0 .26458 28.48 -1.375)" gradientUnits="userSpaceOnUse"/><linearGradient xlink:href="#e" id="k" x1="23" x2="1.429" y1="5.4" y2="23.511" gradientTransform="matrix(.26458 0 0 .26458 28.48 -1.375)" gradientUnits="userSpaceOnUse"/><linearGradient xlink:href="#f" id="l" x1="15" x2="5.5" y1="5.5" y2="19.5" gradientTransform="matrix(.26458 0 0 .26458 28.48 -1.375)" gradientUnits="userSpaceOnUse"/><linearGradient xlink:href="#a" id="m" x1="23" x2="1" y1="1" y2="12" gradientTransform="matrix(.26458 0 0 .26458 28.48 -1.375)" gradientUnits="userSpaceOnUse"/><linearGradient xlink:href="#b" id="n" x1="21" x2="3" y1="4" y2="4" gradientTransform="matrix(.26458 0 0 .26458 28.48 -1.375)" gradientUnits="userSpaceOnUse"/><linearGradient xlink:href="#c" id="o" x1="12" x2="11.5" y1="3" y2="8" gradientTransform="matrix(.26458 0 0 .26458 28.48 -1.375)" gradientUnits="userSpaceOnUse"/><linearGradient xlink:href="#d" id="p" x1="23" x2="1.012" y1="9" y2="9.521" gradientTransform="matrix(.26458 0 0 .26458 28.48 -1.375)" gradientUnits="userSpaceOnUse"/><linearGradient xlink:href="#e" id="q" x1="23" x2="1.429" y1="5.4" y2="23.511" gradientTransform="matrix(.26458 0 0 .26458 28.48 -1.375)" gradientUnits="userSpaceOnUse"/><linearGradient xlink:href="#f" id="r" x1="15" x2="5.5" y1="5.5" y2="19.5" gradientTransform="matrix(.26458 0 0 .26458 28.48 -1.375)" gradientUnits="userSpaceOnUse"/></defs><g style="opacity:.35" transform="matrix(1.59905 0 0 1.59905 -44.269 8.083)"><rect width="5.821" height="5.821" x="28.744" y="-1.11" fill="url(#a)" opacity=".813" rx="1.746" style="fill:url(#g);stroke-width:.264578"/><rect width="4.762" height="4.762" x="29.273" y="-.779" fill="url(#b)" fill-opacity=".875" opacity=".125" rx="1.164" style="fill:url(#h);stroke-width:.264578"/><rect width="4.63" height="4.63" x="29.339" y="-.515" fill="#ccc" stroke="url(#c)" stroke-width=".132" rx="1.098" style="stroke:url(#i)"/><path fill="url(#d)" fill-opacity=".875" d="M28.744.612c0-.44.356-.796.796-.796h1.106c.285 0 .56.098.78.277.221.18.497.277.781.277h1.562c.44 0 .795.357.795.796v1.56c0 .965-.781 1.747-1.746 1.747H30.49a1.746 1.746 0 0 1-1.746-1.747z" opacity=".125" style="fill:url(#j);stroke-width:.264578"/><path fill="url(#e)" d="M28.744.85c0-.44.356-.796.796-.796h1.106c.285 0 .56.098.78.277.221.18.497.277.781.277h1.562c.44 0 .795.357.795.796v1.56c0 .965-.781 1.747-1.746 1.747H30.49a1.746 1.746 0 0 1-1.746-1.747z" style="opacity:.875;fill:url(#k);stroke-width:.264578"/><path stroke="url(#f)" stroke-linejoin="round" stroke-opacity=".375" stroke-width=".198" d="M34.465 1.404v1.56c0 .91-.737 1.647-1.647 1.647H30.49c-.91 0-1.647-.737-1.647-1.647V.85c0-.385.312-.697.697-.697h1.106c.262 0 .515.09.718.255.238.194.536.3.843.3h1.562c.384 0 .696.312.696.696z" style="opacity:.875;fill:none;stroke:url(#l)"/></g><g transform="matrix(1.59905 0 0 1.59905 -40.03 3.093)"><rect width="5.821" height="5.821" x="28.744" y="-1.11" fill="url(#a)" opacity=".813" rx="1.746" style="fill:url(#m);stroke-width:.264578"/><rect width="4.762" height="4.762" x="29.273" y="-.779" fill="url(#b)" fill-opacity=".875" opacity=".125" rx="1.164" style="fill:url(#n);stroke-width:.264578"/><rect width="4.63" height="4.63" x="29.339" y="-.515" fill="#ccc" stroke="url(#c)" stroke-width=".132" rx="1.098" style="stroke:url(#o)"/><path fill="url(#d)" fill-opacity=".875" d="M28.744.612c0-.44.356-.796.796-.796h1.106c.285 0 .56.098.78.277.221.18.497.277.781.277h1.562c.44 0 .795.357.795.796v1.56c0 .965-.781 1.747-1.746 1.747H30.49a1.746 1.746 0 0 1-1.746-1.747z" opacity=".125" style="fill:url(#p);stroke-width:.264578"/><path fill="url(#e)" d="M28.744.85c0-.44.356-.796.796-.796h1.106c.285 0 .56.098.78.277.221.18.497.277.781.277h1.562c.44 0 .795.357.795.796v1.56c0 .965-.781 1.747-1.746 1.747H30.49a1.746 1.746 0 0 1-1.746-1.747z" style="opacity:.875;fill:url(#q);stroke-width:.264578"/><path stroke="url(#f)" stroke-linejoin="round" stroke-opacity=".375" stroke-width=".198" d="M34.465 1.404v1.56c0 .91-.737 1.647-1.647 1.647H30.49c-.91 0-1.647-.737-1.647-1.647V.85c0-.385.312-.697.697-.697h1.106c.262 0 .515.09.718.255.238.194.536.3.843.3h1.562c.384 0 .696.312.696.696z" style="opacity:.875;fill:none;stroke:url(#r)"/></g></svg>