<svg xmlns="http://www.w3.org/2000/svg" width="24" height="24" fill="none"><rect width="22" height="22" x="1" y="1" fill="url(#a)" opacity=".813" rx="6.6"/><rect width="18" height="18" x="3" y="2.25" fill="url(#b)" fill-opacity=".875" opacity=".125" rx="4.4"/><rect width="17.5" height="17.5" x="3.25" y="3.25" fill="#CCC" stroke="url(#c)" stroke-width=".5" rx="4.15"/><path fill="url(#d)" fill-opacity=".875" d="M1 7.508A3.008 3.008 0 0 1 4.008 4.5H8.19c1.075 0 2.117.37 2.95 1.048a4.678 4.678 0 0 0 2.95 1.047h5.902A3.008 3.008 0 0 1 23 9.603V15.5a6.6 6.6 0 0 1-6.6 6.6H7.6A6.6 6.6 0 0 1 1 15.5V7.508Z" opacity=".125"/><g opacity=".875"><path fill="url(#e)" d="M1 8.408A3.008 3.008 0 0 1 4.008 5.4H8.19c1.075 0 2.117.37 2.95 1.048a4.678 4.678 0 0 0 2.95 1.047h5.902A3.008 3.008 0 0 1 23 10.503V16.4a6.6 6.6 0 0 1-6.6 6.6H7.6A6.6 6.6 0 0 1 1 16.4V8.408Z"/><path stroke="url(#f)" stroke-linejoin="round" stroke-opacity=".375" stroke-width=".75" d="M22.625 10.503V16.4a6.225 6.225 0 0 1-6.225 6.225H7.6A6.225 6.225 0 0 1 1.375 16.4V8.408a2.633 2.633 0 0 1 2.633-2.633H8.19c.989 0 1.947.34 2.714.964a5.053 5.053 0 0 0 3.187 1.131h5.901a2.633 2.633 0 0 1 2.633 2.633Z"/></g><defs><linearGradient id="a" x1="23" x2="1" y1="1" y2="12" gradientUnits="userSpaceOnUse"><stop stop-color="#5361CB"/><stop offset="1" stop-color="#2F3B9D"/></linearGradient><linearGradient id="b" x1="21" x2="3" y1="4" y2="4" gradientUnits="userSpaceOnUse"><stop stop-opacity=".5"/><stop offset=".89"/><stop offset="1" stop-opacity="0"/></linearGradient><linearGradient id="c" x1="12" x2="11.5" y1="3" y2="8" gradientUnits="userSpaceOnUse"><stop stop-color="#DDD"/><stop offset="1" stop-color="#CCC" stop-opacity="0"/></linearGradient><linearGradient id="d" x1="23" x2="1.012" y1="9" y2="9.521" gradientUnits="userSpaceOnUse"><stop stop-opacity=".5"/><stop offset="1"/></linearGradient><linearGradient id="e" x1="23" x2="1.429" y1="5.4" y2="23.512" gradientUnits="userSpaceOnUse"><stop stop-color="#6C7AD8"/><stop offset="1" stop-color="#273182"/></linearGradient><linearGradient id="f" x1="15" x2="5.5" y1="5.5" y2="19.5" gradientUnits="userSpaceOnUse"><stop stop-color="#97A5FF"/><stop offset="1" stop-color="#141E6F"/></linearGradient><linearGradient id="g" x1="16.675" x2="8.286" y1="9" y2="19.755" gradientTransform="translate(-.466)" gradientUnits="userSpaceOnUse"><stop stop-color="#0BB1CB"/><stop offset="1" stop-color="#006599"/></linearGradient></defs><g opacity=".5" style="opacity:.15;fill:#1a1a1a"><path fill="url(#paint6_linear_207_95)" d="M13.093 9.802a1.232 1.232 0 0 0-.86-.35H8.407c-.287 0-.562.111-.765.309a1.042 1.042 0 0 0-.317.746v8.438c0 .28.114.548.317.746.203.198.478.309.765.309h6.49c.288 0 .563-.111.766-.309.203-.198.317-.466.317-.746v-5.81c0-.331-.135-.65-.372-.881z" style="fill:#1a1a1a" transform="translate(-.443 .148)"/><path stroke="#fafafa" stroke-linecap="round" stroke-linejoin="round" stroke-width="1.141" d="M13.656 15.214H9.649M13.656 17.168H9.649" style="fill:#1a1a1a" transform="translate(-.443 .148)"/><path fill="#fff" d="M10.65 13.261H9.65" style="fill:#1a1a1a" transform="translate(-.443 .148)"/><path stroke="#fafafa" stroke-linecap="round" stroke-linejoin="round" stroke-width="1.141" d="M10.65 13.261H9.65" style="fill:#1a1a1a" transform="translate(-.443 .148)"/></g><path fill="url(#g)" d="M13.322 9.35a1.232 1.232 0 0 0-.86-.35H8.636c-.287 0-.562.111-.765.309a1.042 1.042 0 0 0-.317.746v8.438c0 .28.114.548.317.746.203.198.478.309.765.309h6.491c.287 0 .562-.111.765-.309.203-.198.317-.466.317-.746v-5.81c0-.331-.134-.65-.372-.881z" style="fill:url(#g)"/><path stroke="#fafafa" stroke-linecap="round" stroke-linejoin="round" stroke-width="1.141" d="M14.233 14.762h-4.007M14.233 16.716h-4.007"/><path fill="#fff" d="M11.228 12.809h-1.002"/><path stroke="#fafafa" stroke-linecap="round" stroke-linejoin="round" stroke-width="1.141" d="M11.228 12.809h-1.002"/></svg>