<svg xmlns="http://www.w3.org/2000/svg" xml:space="preserve" width="24" height="24" fill="none"><defs><linearGradient id="i" x1="23" x2="1" y1="1" y2="12" gradientUnits="userSpaceOnUse"><stop stop-color="#5361CB"/><stop offset="1" stop-color="#2F3B9D"/></linearGradient><linearGradient id="k" x1="21" x2="3" y1="4" y2="4" gradientUnits="userSpaceOnUse"><stop stop-opacity=".5"/><stop offset=".89"/><stop offset="1" stop-opacity="0"/></linearGradient><linearGradient id="m" x1="12" x2="11.5" y1="3" y2="8" gradientUnits="userSpaceOnUse"><stop stop-color="#DDD"/><stop offset="1" stop-color="#CCC" stop-opacity="0"/></linearGradient><linearGradient id="o" x1="23" x2="1.012" y1="9" y2="9.521" gradientUnits="userSpaceOnUse"><stop stop-opacity=".5"/><stop offset="1"/></linearGradient><linearGradient id="q" x1="23" x2="1.429" y1="5.4" y2="23.511" gradientUnits="userSpaceOnUse"><stop offset="0" stop-color="#6C7AD8" style="stop-color:#6c7ad8;stop-opacity:1"/><stop offset="1" stop-color="#273182" style="stop-color:#273282;stop-opacity:1"/></linearGradient><linearGradient id="s" x1="15" x2="5.5" y1="5.5" y2="19.5" gradientUnits="userSpaceOnUse"><stop stop-color="#97A5FF"/><stop offset="1" stop-color="#141E6F"/></linearGradient><linearGradient id="a" x1="12" x2="11.5" y1="3" y2="8" gradientTransform="matrix(.75 0 0 -.75 0 18)" gradientUnits="userSpaceOnUse" spreadMethod="pad"><stop offset="0" style="stop-opacity:1;stop-color:#fff"/><stop offset="1" style="stop-opacity:0;stop-color:#fff"/></linearGradient><linearGradient id="c" x1="15" x2="5.5" y1="5.5" y2="19.5" gradientTransform="matrix(.75 0 0 -.75 0 18)" gradientUnits="userSpaceOnUse" spreadMethod="pad"><stop offset="0" style="stop-opacity:.37500572;stop-color:#fff"/><stop offset="1" style="stop-opacity:.37500572;stop-color:#fff"/></linearGradient><linearGradient id="j" x1="23" x2="1" y1="1" y2="12" gradientUnits="userSpaceOnUse"><stop stop-color="#5361CB"/><stop offset="1" stop-color="#2F3B9D"/></linearGradient><linearGradient id="l" x1="21" x2="3" y1="4" y2="4" gradientUnits="userSpaceOnUse"><stop stop-opacity=".5"/><stop offset=".89"/><stop offset="1" stop-opacity="0"/></linearGradient><linearGradient id="n" x1="12" x2="11.5" y1="3" y2="8" gradientUnits="userSpaceOnUse"><stop stop-color="#DDD"/><stop offset="1" stop-color="#CCC" stop-opacity="0"/></linearGradient><linearGradient id="p" x1="23" x2="1.012" y1="9" y2="9.521" gradientUnits="userSpaceOnUse"><stop stop-opacity=".5"/><stop offset="1"/></linearGradient><linearGradient id="r" x1="23" x2="1.429" y1="5.4" y2="23.511" gradientUnits="userSpaceOnUse"><stop stop-color="#6C7AD8"/><stop offset="1" stop-color="#273182"/></linearGradient><linearGradient id="u" x1="18.83" x2="6.18" y1="10" y2="18.25" gradientTransform="translate(-.477 -.001)" gradientUnits="userSpaceOnUse" spreadMethod="pad"><stop offset="0" style="stop-opacity:1;stop-color:#cdb4ff"/><stop offset="1" style="stop-opacity:1;stop-color:#6a5fff"/></linearGradient><clipPath id="b" clipPathUnits="userSpaceOnUse"><path d="M1 1h16v16H1Z"/></clipPath><clipPath id="d" clipPathUnits="userSpaceOnUse"><path d="M0 4h18v14H0Z"/></clipPath><clipPath id="e" clipPathUnits="userSpaceOnUse"><path d="M1 1h16v16H1Z"/></clipPath><clipPath id="f" clipPathUnits="userSpaceOnUse"><path d="M0 4h18v14H0Z"/></clipPath><clipPath id="g" clipPathUnits="userSpaceOnUse"><path d="M1 1h16v16H1Z"/></clipPath><clipPath id="h" clipPathUnits="userSpaceOnUse"><path d="M0 4h18v14H0Z"/></clipPath><clipPath id="t" clipPathUnits="userSpaceOnUse"><path d="M0 0h19v19H0Z"/></clipPath></defs><g style="fill:none"><rect width="22" height="22" x="1" y="1" fill="url(#i)" opacity=".813" rx="6.6" style="fill:url(#j)"/><rect width="18" height="18" x="3" y="2.25" fill="url(#k)" fill-opacity=".875" opacity=".125" rx="4.4" style="fill:url(#l)"/><rect width="17.5" height="17.5" x="3.25" y="3.25" fill="#ccc" stroke="url(#m)" stroke-width=".5" rx="4.15" style="stroke:url(#n)"/><path fill="url(#o)" fill-opacity=".875" d="M1 7.508A3.008 3.008 0 0 1 4.008 4.5H8.19c1.075 0 2.117.37 2.95 1.048a4.678 4.678 0 0 0 2.95 1.047h5.902A3.008 3.008 0 0 1 23 9.603V15.5a6.6 6.6 0 0 1-6.6 6.6H7.6A6.6 6.6 0 0 1 1 15.5Z" opacity=".125" style="fill:url(#p)"/><g opacity=".875"><path fill="url(#q)" d="M1 8.408A3.008 3.008 0 0 1 4.008 5.4H8.19c1.075 0 2.117.37 2.95 1.048a4.678 4.678 0 0 0 2.95 1.047h5.902A3.008 3.008 0 0 1 23 10.503V16.4a6.6 6.6 0 0 1-6.6 6.6H7.6A6.6 6.6 0 0 1 1 16.4Z" style="fill:url(#r)"/><path stroke="url(#s)" stroke-linejoin="round" stroke-opacity=".375" stroke-width=".75" d="M22.625 10.503V16.4a6.225 6.225 0 0 1-6.225 6.225H7.6A6.225 6.225 0 0 1 1.375 16.4V8.408a2.633 2.633 0 0 1 2.633-2.633H8.19c.989 0 1.947.34 2.714.964a5.053 5.053 0 0 0 3.187 1.131h5.901a2.633 2.633 0 0 1 2.633 2.633z" style="stroke:url(#s)"/></g></g><path d="M10.875 12.762c0 .758-.609 1.367-1.367 1.367H5.207a1.366 1.366 0 0 1-1.367-1.367v-3.52c0-.754.613-1.367 1.367-1.367h4.301c.758 0 1.367.613 1.367 1.367zm1.898-4.301c.34 0 .618.266.637.598v3.879a.658.658 0 0 1-.148.41.64.64 0 0 1-.867.101l-.028-.023-.871-.731a.657.657 0 0 1-.23-.496V9.844c0-.188.086-.367.226-.489l.871-.742a.634.634 0 0 1 .367-.152z" clip-path="url(#t)" opacity=".15" style="fill:#1a1a1a;fill-opacity:1;fill-rule:nonzero;stroke:none" transform="matrix(1.33333 0 0 1.33333 -.006 -.001)"/><path d="M14.994 16.515c0 1.01-.812 1.822-1.823 1.822H7.436a1.82 1.82 0 0 1-1.822-1.822V11.82c0-1.005.817-1.822 1.822-1.822h5.735a1.82 1.82 0 0 1 1.823 1.822zm2.53-5.735a.85.85 0 0 1 .85.797v5.17a.848.848 0 0 1-.198.549.848.848 0 0 1-1.152.135l-.04-.031-1.162-.975a.871.871 0 0 1-.302-.661v-3.14c0-.25.11-.49.296-.652l1.162-.99a.846.846 0 0 1 .49-.202z" style="fill:url(#u);stroke:none;stroke-width:1.33333"/></svg>