<svg xmlns="http://www.w3.org/2000/svg" width="24" height="24" fill="none"><rect width="22" height="22" x="1" y="1" fill="url(#a)" opacity=".813" rx="6.6"/><rect width="18" height="18" x="3" y="2.25" fill="url(#b)" fill-opacity=".875" opacity=".125" rx="4.4"/><rect width="17.5" height="17.5" x="3.25" y="3.25" fill="#CCC" stroke="url(#c)" stroke-width=".5" rx="4.15"/><path fill="url(#d)" fill-opacity=".875" d="M1 7.508A3.008 3.008 0 0 1 4.008 4.5H8.19c1.075 0 2.117.37 2.95 1.048a4.678 4.678 0 0 0 2.95 1.047h5.902A3.008 3.008 0 0 1 23 9.603V15.5a6.6 6.6 0 0 1-6.6 6.6H7.6A6.6 6.6 0 0 1 1 15.5V7.508Z" opacity=".125"/><path fill="url(#e)" d="M1 8.408A3.008 3.008 0 0 1 4.008 5.4H8.19c1.075 0 2.117.37 2.95 1.048a4.678 4.678 0 0 0 2.95 1.047h5.902A3.008 3.008 0 0 1 23 10.503V16.4a6.6 6.6 0 0 1-6.6 6.6H7.6A6.6 6.6 0 0 1 1 16.4Z" style="opacity:.875;fill:url(#e)"/><path stroke="url(#f)" stroke-linejoin="round" stroke-opacity=".375" stroke-width=".75" d="M22.625 10.503V16.4a6.225 6.225 0 0 1-6.225 6.225H7.6A6.225 6.225 0 0 1 1.375 16.4V8.408a2.633 2.633 0 0 1 2.633-2.633H8.19c.989 0 1.947.34 2.714.964a5.053 5.053 0 0 0 3.187 1.131h5.901a2.633 2.633 0 0 1 2.633 2.633z" style="opacity:.875;stroke:url(#f)"/><defs><linearGradient id="a" x1="23" x2="1" y1="1" y2="12" gradientUnits="userSpaceOnUse"><stop stop-color="#5361CB"/><stop offset="1" stop-color="#2F3B9D"/></linearGradient><linearGradient id="b" x1="21" x2="3" y1="4" y2="4" gradientUnits="userSpaceOnUse"><stop stop-opacity=".5"/><stop offset=".89"/><stop offset="1" stop-opacity="0"/></linearGradient><linearGradient id="c" x1="12" x2="11.5" y1="3" y2="8" gradientUnits="userSpaceOnUse"><stop stop-color="#DDD"/><stop offset="1" stop-color="#CCC" stop-opacity="0"/></linearGradient><linearGradient id="d" x1="23" x2="1.012" y1="9" y2="9.521" gradientUnits="userSpaceOnUse"><stop stop-opacity=".5"/><stop offset="1"/></linearGradient><linearGradient id="e" x1="23" x2="1.429" y1="5.4" y2="23.512" gradientUnits="userSpaceOnUse"><stop offset="0" stop-color="#6C7AD8" style="stop-color:#6c7ad8;stop-opacity:1"/><stop offset="1" stop-color="#273182" style="stop-color:#273282;stop-opacity:1"/></linearGradient><linearGradient id="f" x1="15" x2="5.5" y1="5.5" y2="19.5" gradientUnits="userSpaceOnUse"><stop stop-color="#97A5FF"/><stop offset="1" stop-color="#141E6F"/></linearGradient><linearGradient id="h" x1="4.225" x2="9.056" y1="9.773" y2="6.577" gradientTransform="translate(-5.692 -7.434) scale(2.66609)" gradientUnits="userSpaceOnUse" spreadMethod="pad"><stop offset="0" style="stop-color:#2b3782;stop-opacity:1"/><stop offset="1" style="stop-color:#3746a4;stop-opacity:1"/></linearGradient><clipPath id="g" clipPathUnits="userSpaceOnUse"><path d="M0 0h19v19H0Z"/></clipPath></defs><path d="M10.566 10.918c.77 0 1.43-.688 1.43-1.578 0-.887-.664-1.539-1.43-1.539-.765 0-1.429.668-1.429 1.543 0 .886.66 1.574 1.429 1.574zM6.449 11c.668 0 1.246-.602 1.246-1.375 0-.77-.582-1.34-1.246-1.34s-1.25.586-1.246 1.348c0 .765.578 1.367 1.246 1.367zm-1.996 3.23h2.719c-.371-.539.082-1.628.851-2.222a2.776 2.776 0 0 0-1.578-.461c-1.613 0-2.621 1.191-2.621 2.183 0 .321.18.5.629.5zm3.863 0h4.496c.563 0 .762-.16.762-.476 0-.922-1.156-2.195-3.012-2.195-1.851 0-3.007 1.273-3.007 2.195 0 .316.199.476.761.476z" clip-path="url(#g)" opacity=".15" style="fill:#1a1a1a;fill-opacity:1;fill-rule:nonzero;stroke:none" transform="matrix(1.33333 0 0 1.33333 -.008 .012)"/><path d="M14.482 14.231c1.026 0 1.906-.916 1.906-2.11 0-1.177-.885-2.046-1.906-2.046-1.02 0-1.906.89-1.906 2.057 0 1.183.88 2.099 1.906 2.099zm-5.49.11c.886 0 1.662-.802 1.662-1.834 0-1.025-.782-1.787-1.662-1.787-.885 0-1.666.782-1.661 1.798 0 1.021.77 1.822 1.661 1.822zm-2.661 4.307h3.625c-.494-.718.11-2.172 1.135-2.964a3.728 3.728 0 0 0-2.104-.614c-2.15 0-3.495 1.588-3.495 2.912 0 .426.24.666.839.666zm5.15 0h5.995c.751 0 1.016-.214 1.016-.636 0-1.229-1.541-2.926-4.016-2.926-2.468 0-4.01 1.697-4.01 2.926 0 .422.266.636 1.016.636z" style="fill:url(#h);stroke:none;stroke-width:1.33333"/></svg>