<svg xmlns="http://www.w3.org/2000/svg" xmlns:xlink="http://www.w3.org/1999/xlink" xml:space="preserve" width="24" height="24" fill="none"><rect width="22" height="22" x="1" y="1" fill="url(#a)" opacity=".813" rx="6.6"/><rect width="18" height="18" x="3" y="2.25" fill="url(#b)" fill-opacity=".875" opacity=".125" rx="4.4"/><rect width="17.5" height="17.5" x="3.25" y="3.25" fill="#CCC" stroke="url(#c)" stroke-width=".5" rx="4.15"/><path fill="url(#d)" fill-opacity=".875" d="M1 7.508A3.008 3.008 0 0 1 4.008 4.5H8.19c1.075 0 2.117.37 2.95 1.048a4.678 4.678 0 0 0 2.95 1.047h5.902A3.008 3.008 0 0 1 23 9.603V15.5a6.6 6.6 0 0 1-6.6 6.6H7.6A6.6 6.6 0 0 1 1 15.5V7.508Z" opacity=".125"/><defs><linearGradient id="a" x1="23" x2="1" y1="1" y2="12" gradientUnits="userSpaceOnUse"><stop stop-color="#5361CB"/><stop offset="1" stop-color="#2F3B9D"/></linearGradient><linearGradient id="b" x1="21" x2="3" y1="4" y2="4" gradientUnits="userSpaceOnUse"><stop stop-opacity=".5"/><stop offset=".89"/><stop offset="1" stop-opacity="0"/></linearGradient><linearGradient id="c" x1="12" x2="11.5" y1="3" y2="8" gradientUnits="userSpaceOnUse"><stop stop-color="#DDD"/><stop offset="1" stop-color="#CCC" stop-opacity="0"/></linearGradient><linearGradient id="d" x1="23" x2="1.012" y1="9" y2="9.521" gradientUnits="userSpaceOnUse"><stop stop-opacity=".5"/><stop offset="1"/></linearGradient><linearGradient id="l" x1="23" x2="1.429" y1="5.4" y2="23.512" gradientUnits="userSpaceOnUse"><stop offset="0" stop-color="#6C7AD8" style="stop-color:#6c7ad8;stop-opacity:1"/><stop offset="1" stop-color="#273182" style="stop-color:#273282;stop-opacity:1"/></linearGradient><linearGradient id="k" x1="15" x2="5.5" y1="5.5" y2="19.5" gradientUnits="userSpaceOnUse"><stop stop-color="#97A5FF"/><stop offset="1" stop-color="#141E6F"/></linearGradient><linearGradient id="e" x1="12" x2="11.5" y1="3" y2="8" gradientTransform="matrix(.75 0 0 -.75 0 18)" gradientUnits="userSpaceOnUse" spreadMethod="pad"><stop offset="0" style="stop-opacity:1;stop-color:#fff"/><stop offset="1" style="stop-opacity:0;stop-color:#fff"/></linearGradient><linearGradient id="g" x1="15" x2="5.5" y1="5.5" y2="19.5" gradientTransform="matrix(.75 0 0 -.75 0 18)" gradientUnits="userSpaceOnUse" spreadMethod="pad"><stop offset="0" style="stop-opacity:.37500572;stop-color:#fff"/><stop offset="1" style="stop-opacity:.37500572;stop-color:#fff"/></linearGradient><linearGradient xlink:href="#k" id="n" x1="15" x2="5.5" y1="5.5" y2="19.5" gradientTransform="matrix(1 0 .02136 .92272 -.492 1.777)" gradientUnits="userSpaceOnUse"/><linearGradient xlink:href="#l" id="m" x1="23" x2="1.429" y1="5.4" y2="23.512" gradientTransform="matrix(1 0 .02136 .92272 -.492 1.777)" gradientUnits="userSpaceOnUse"/><clipPath id="f" clipPathUnits="userSpaceOnUse"><path d="M1 1h16v16H1Z"/></clipPath><clipPath id="h" clipPathUnits="userSpaceOnUse"><path d="M0 4h18v14H0Z"/></clipPath><clipPath id="i" clipPathUnits="userSpaceOnUse"><path d="M1 1h16v16H1Z"/></clipPath><clipPath id="j" clipPathUnits="userSpaceOnUse"><path d="M0 4h18v14H0Z"/></clipPath></defs><path fill="url(#l)" d="M.688 9.536C.652 8.003 1.97 6.76 3.63 6.76h4.183c1.075 0 2.124.342 2.973.967a5.025 5.025 0 0 0 2.972.966h5.902c1.66 0 3.036 1.243 3.072 2.776l.126 5.441c.078 3.363-2.814 6.09-6.46 6.09H7.6C3.956 23 .938 20.273.86 16.91z" style="opacity:.875;fill:url(#m);stroke-width:.960582"/><path stroke="url(#k)" stroke-linejoin="round" stroke-opacity=".375" stroke-width=".72" d="m22.358 11.469.126 5.441c.073 3.172-2.654 5.744-6.092 5.744h-8.8c-3.438 0-6.285-2.572-6.358-5.744l-.171-7.374c-.031-1.342 1.122-2.43 2.576-2.43h4.183c.989 0 1.954.314 2.734.89a5.428 5.428 0 0 0 3.211 1.043h5.902c1.454 0 2.658 1.088 2.689 2.43z" style="opacity:.875;stroke:url(#n)"/></svg>