<svg xmlns="http://www.w3.org/2000/svg" xmlns:xlink="http://www.w3.org/1999/xlink" width="24" height="24" fill="none"><rect width="22" height="22" x="1" y="1" fill="url(#a)" opacity=".813" rx="6.6"/><rect width="18" height="18" x="3" y="2.25" fill="url(#b)" fill-opacity=".875" opacity=".125" rx="4.4"/><rect width="17.5" height="17.5" x="3.25" y="3.25" fill="#CCC" stroke="url(#c)" stroke-width=".5" rx="4.15"/><path fill="url(#d)" fill-opacity=".875" d="M1 7.508A3.008 3.008 0 0 1 4.008 4.5H8.19c1.075 0 2.117.37 2.95 1.048a4.678 4.678 0 0 0 2.95 1.047h5.902A3.008 3.008 0 0 1 23 9.603V15.5a6.6 6.6 0 0 1-6.6 6.6H7.6A6.6 6.6 0 0 1 1 15.5V7.508Z" opacity=".125"/><g opacity=".875"><path fill="url(#e)" d="M1 8.408A3.008 3.008 0 0 1 4.008 5.4H8.19c1.075 0 2.117.37 2.95 1.048a4.678 4.678 0 0 0 2.95 1.047h5.902A3.008 3.008 0 0 1 23 10.503V16.4a6.6 6.6 0 0 1-6.6 6.6H7.6A6.6 6.6 0 0 1 1 16.4V8.408Z"/><path stroke="url(#f)" stroke-linejoin="round" stroke-opacity=".375" stroke-width=".75" d="M22.625 10.503V16.4a6.225 6.225 0 0 1-6.225 6.225H7.6A6.225 6.225 0 0 1 1.375 16.4V8.408a2.633 2.633 0 0 1 2.633-2.633H8.19c.989 0 1.947.34 2.714.964a5.053 5.053 0 0 0 3.187 1.131h5.901a2.633 2.633 0 0 1 2.633 2.633Z"/></g><defs><linearGradient id="a" x1="23" x2="1" y1="1" y2="12" gradientUnits="userSpaceOnUse"><stop stop-color="#E32A2A"/><stop offset="1" stop-color="#680000"/></linearGradient><linearGradient id="b" x1="21" x2="3" y1="4" y2="4" gradientUnits="userSpaceOnUse"><stop stop-opacity=".5"/><stop offset=".89"/><stop offset="1" stop-opacity="0"/></linearGradient><linearGradient id="c" x1="12" x2="11.5" y1="3" y2="8" gradientUnits="userSpaceOnUse"><stop stop-color="#DDD"/><stop offset="1" stop-color="#CCC" stop-opacity="0"/></linearGradient><linearGradient id="d" x1="23" x2="1.012" y1="9" y2="9.521" gradientUnits="userSpaceOnUse"><stop stop-opacity=".5"/><stop offset="1"/></linearGradient><linearGradient id="e" x1="23" x2="1.429" y1="5.4" y2="23.512" gradientUnits="userSpaceOnUse"><stop stop-color="#FF3838"/><stop offset="1" stop-color="#B71414"/></linearGradient><linearGradient id="f" x1="15" x2="5.5" y1="5.5" y2="19.5" gradientUnits="userSpaceOnUse"><stop stop-color="#FF8383"/><stop offset="1" stop-color="#680000"/></linearGradient><linearGradient id="g"><stop offset=".523" style="stop-color:#50bbde;stop-opacity:1"/><stop offset="1" style="stop-color:#237bc3;stop-opacity:1"/></linearGradient><radialGradient xlink:href="#g" id="j" cx="10.993" cy="8.773" r="4.598" fx="10.993" fy="8.773" gradientUnits="userSpaceOnUse"/><radialGradient xlink:href="#h" id="k" cx="0" cy="0" r="1" gradientTransform="matrix(0 9.18164 -9.18164 0 10.993 8.765)" gradientUnits="userSpaceOnUse"/><radialGradient id="h" cx="0" cy="0" r="1" gradientTransform="matrix(0 22 -22 0 32 1)" gradientUnits="userSpaceOnUse"><stop stop-color="#C5FFFE"/><stop offset="1" stop-color="#0FF"/></radialGradient><radialGradient xlink:href="#i" id="l" cx="0" cy="0" r="1" gradientTransform="scale(9.18164) rotate(90 .121 1.076)" gradientUnits="userSpaceOnUse"/><radialGradient id="i" cx="0" cy="0" r="1" gradientTransform="rotate(90 -4.5 -3.5) scale(22)" gradientUnits="userSpaceOnUse"><stop stop-color="#58C6E3"/><stop offset="1" stop-color="#034DB0"/></radialGradient></defs><path d="M11.5 9.023A5.477 5.477 0 0 0 6.023 14.5a5.477 5.477 0 0 0 5.477 5.477 5.477 5.477 0 0 0 5.477-5.477A5.477 5.477 0 0 0 11.5 9.023Z" style="opacity:.15;fill:#1a1a1a;stroke:#1a1a1a;stroke-width:.0456432;stroke-dasharray:none;stroke-opacity:1" transform="translate(0 .178)"/><g style="stroke:url(#j);stroke-width:.038155;stroke-dasharray:none;stroke-opacity:1" transform="matrix(1.19626 0 0 1.19626 -1.15 -1.791)"><path d="M10.993 8.777a4.578 4.578 0 0 0-4.579 4.578 4.578 4.578 0 0 0 4.579 4.579 4.578 4.578 0 0 0 4.578-4.579 4.578 4.578 0 0 0-4.578-4.578Z" style="fill:url(#k);stroke:url(#radialGradient22-0);stroke-width:.038155;stroke-dasharray:none;stroke-opacity:1"/><path d="M10.993 8.777a4.578 4.578 0 0 0-3.802 2.037c.103.022.218.054.348.093l.12.035.08.023c.07.02.144.042.218.07l.326.116c.084.029.168.063.254.099a.433.433 0 0 1 .552-.124l.045-.04.078-.076.046-.045.247-.244.136-.14.102-.105.067-.07.049-.051.11-.124c.068-.078.137-.152.204-.226l.012-.014.12-.141.08-.095.095-.113.023-.027.024-.03.045-.055c.06-.074.116-.146.17-.215.081-.1.152-.196.218-.285a14.26 14.26 0 0 1 .135-.179l.053-.07a4.578 4.578 0 0 0-.155-.004zm.245.007-.014.03c-.024.045-.05.093-.08.143l-.018.033-.068.119a4.221 4.221 0 0 1-.182.3l-.062.095c-.079.123-.163.254-.26.383l-.067.091c-.039.054-.078.108-.12.163a17.805 17.805 0 0 1-.312.388l-.052.058-.062.07-.085.097-.147.163-.06.062-.19.19-.04.041c-.028.029-.056.058-.086.086l-.048.044a.43.43 0 0 1 .025.26l.015.006.06.03c.087.043.172.091.26.14l.134.073c.122.064.238.136.357.21l.04.025c.067.04.134.083.2.125.05.03.098.065.147.099a.433.433 0 0 1 .344-.082l.047-.081.046-.08c.03-.052.06-.104.092-.154l.304-.45.075-.112c.017-.025.035-.049.053-.072l.029-.038.165-.214.066-.085c.09-.114.179-.228.278-.335l.048-.056.028-.031a.434.434 0 0 1 .07-.596l-.037-.079a19.397 19.397 0 0 1-.195-.475c-.041-.114-.08-.23-.119-.344l-.048-.142-.01-.04a4.578 4.578 0 0 0-.52-.058zm.61.074.084.175c.045.093.09.185.133.279l.074.143c.053.102.107.204.157.307l.041.074a.438.438 0 0 1 .349.058l.295-.274c.071-.063.144-.123.216-.185l.065-.055a4.578 4.578 0 0 0-1.414-.522Zm1.468.552-.08.087-.185.194-.264.297a.432.432 0 0 1-.031.574l.127.212.182.277.064.097a4.6 4.6 0 0 0 .238.343l.075.105.096.134.012.018c.028.04.056.078.086.115l.207.26.101.13.052.066.054.062.216.251.075.087c.047.055.094.11.145.162l.227.242.113.122c.025.028.052.053.078.079l.04.039.237.233.117.119.123.112.026.022.013.012a.435.435 0 0 1 .08-.062 4.578 4.578 0 0 0 .031-.444 4.578 4.578 0 0 0-2.255-3.945zm-1.065 1.236-.029.037-.04.052a4.79 4.79 0 0 0-.258.35l-.056.08a17.246 17.246 0 0 1-.229.326l-.07.114-.283.45c-.06.102-.118.206-.176.31a.431.431 0 0 1 .084.435l.026.02c.04.033.082.065.123.097l.094.075a1.946 1.946 0 0 1 .092.08c.039.033.076.068.114.102l.068.06.026.023.155.138.04.034c.046.041.093.083.135.129l.118.12.213.218.03.03.052.053c.027.027.054.055.079.085l.07.082.08.09a.886.886 0 0 1 .011.014l.014.016a.435.435 0 0 1 .571.178c.07-.017.138-.035.206-.05l.052-.013a8.096 8.096 0 0 1 .356-.065c.091-.017.181-.031.268-.046l.07-.012c.071-.012.142-.019.21-.026l.108-.01c.102-.011.201-.022.294-.03l.034-.004c.08-.007.157-.015.23-.016l.2-.006c.001-.089.028-.17.073-.238l-.042-.031-.136-.1-.13-.106-.26-.215-.046-.037c-.028-.024-.056-.046-.083-.071l-.123-.116-.245-.232a3.48 3.48 0 0 1-.208-.21l-.028-.03-.23-.248-.058-.062-.054-.064-.109-.13-.213-.262c-.036-.041-.067-.085-.099-.13l-.004-.004-.1-.136-.074-.101a12.065 12.065 0 0 1-.124-.172c-.043-.062-.083-.126-.123-.19l-.06-.095-.182-.285a6.46 6.46 0 0 1-.104-.187l-.02-.036a.421.421 0 0 1-.3-.032zm-5.097.217a4.578 4.578 0 0 0-.724 2.275l.012-.008.136-.085c.093-.057.193-.122.3-.192l.104-.07.046-.03.067-.044.056-.04.058-.04.086-.06.155-.106c.081-.06.165-.12.249-.184.074-.05.146-.106.218-.163l.04-.03.07-.055c.064-.05.129-.099.19-.152l.141-.116.121-.097a.436.436 0 0 1-.02-.247l-.005-.004a3.399 3.399 0 0 0-.235-.11l-.177-.08c-.15-.067-.29-.13-.42-.179l-.1-.04a55.862 55.862 0 0 1-.152-.06c-.063-.028-.124-.05-.18-.07l-.036-.013zm2.051.941a.431.431 0 0 1-.54.082c-.184.145-.367.289-.552.413-.16.117-.323.218-.478.315l-.06.038-.138.08a5.418 5.418 0 0 1-.366.202L6.943 13l-.1.051c-.046.024-.092.045-.137.065l-.072.032a9.015 9.015 0 0 1-.212.094 4.578 4.578 0 0 0-.008.113 4.578 4.578 0 0 0 .107.927l.128.096c.083.063.166.126.25.186l.228.162.075.052c.05.036.102.072.155.105l.233.153.023.016c.07.046.139.092.211.133l.079.048.16.096.118.072.121.068.243.135.044.025c.026.014.052.03.077.042l.124.063.128.065c.105.055.211.11.32.16a.434.434 0 0 1 .295-.138c.018-.1.038-.198.059-.296l.023-.113a4.96 4.96 0 0 1 .09-.377l.04-.15c.015-.062.033-.122.052-.183l.024-.077.079-.26c.058-.171.118-.343.182-.512l.102-.252.004-.01c.032-.08.064-.16.102-.24l.056-.123c.04-.092.082-.184.125-.273a.435.435 0 0 1-.102-.43 3.943 3.943 0 0 0-.258-.172l-.074-.048-.083-.054c-.1-.065-.198-.13-.299-.187l-.14-.083a6.933 6.933 0 0 0-.236-.137l-.074-.04zm1.822 1.212a.435.435 0 0 1-.297.069c-.038.077-.074.155-.11.232l-.07.15c-.033.069-.062.14-.092.211l-.013.032-.102.245c-.021.05-.04.102-.058.153a5.477 5.477 0 0 1-.036.095l-.094.249-.086.252-.026.075a2.7 2.7 0 0 0-.056.176l-.075.256-.04.127-.033.129-.026.094c-.026.1-.052.2-.075.3.04.019.076.043.109.073l.026-.017c.01-.008.021-.015.033-.022l.122-.076.199-.125c.22-.131.45-.263.693-.382l.183-.092.103-.048.082-.038.054-.024c.106-.049.213-.098.323-.14l.138-.055c.081-.033.163-.065.245-.095l.133-.047.254-.09.026-.008.03-.009v-.01c0-.086.026-.167.07-.235l-.01-.01a.395.395 0 0 1-.016-.016l-.152-.166a1.345 1.345 0 0 0-.08-.08l-.082-.08-.08-.077-.253-.245a2.71 2.71 0 0 0-.16-.146l-.013-.011-.173-.15-.003-.004-.046-.04-.132-.115-.034-.03-.055-.047-.095-.073-.079-.061-.07-.055zm4.313 1.224-.2.026c-.077.008-.158.024-.243.04l-.016.003a12.102 12.102 0 0 1-.4.074c-.064.01-.13.022-.196.037a16.407 16.407 0 0 1-.442.104c-.076.018-.155.035-.234.056l-.117.034-.131.04v.002a.432.432 0 0 1-.095.271c.128.16.236.327.34.484l.094.145.098.147c.02.031.038.063.056.095l.03.052.058.102.096.17.041.072c.033.058.065.112.092.166l.09.186a4.578 4.578 0 0 0 1.17-2.108.43.43 0 0 1-.091-.198zm-8.785.196a4.578 4.578 0 0 0 1.835 2.676c.05-.05.105-.103.167-.16l.096-.088a4.95 4.95 0 0 1 .296-.258l.13-.107a2.21 2.21 0 0 1 .049-.041l.03-.024a.433.433 0 0 1-.035-.23 7.545 7.545 0 0 1-.327-.168l-.13-.068-.126-.068-.076-.045-.045-.027-.242-.146-.122-.074-.117-.079a9.468 9.468 0 0 1-.162-.108l-.073-.05a4.59 4.59 0 0 1-.22-.159l-.01-.007-.226-.17a2.814 2.814 0 0 1-.156-.127l-.062-.053-.217-.18a3.015 3.015 0 0 1-.135-.124l-.073-.068-.05-.047zm6.01.463-.056.019-.23.086-.142.052c-.081.03-.161.063-.24.097l-.133.054c-.08.032-.158.067-.236.103l-.132.06-.124.055-.059.027-.118.058-.06.03c-.02.008-.038.018-.057.027a6.05 6.05 0 0 0-.294.15c-.049.028-.099.053-.148.079a4.622 4.622 0 0 0-.19.103l-.102.058a45.458 45.458 0 0 0-.277.16.45.45 0 0 1 .022.16l-.001.01c.107.045.215.089.323.126l.259.095c.084.033.17.06.257.088l.004.001.265.086.035.011c.033.01.065.022.097.031l.134.037c.09.023.179.049.268.074l.133.037.135.033.272.063.068.015c.067.016.136.032.204.044l.193.038c.118.023.236.046.355.065l.482.073a4.578 4.578 0 0 0 .75-.62c-.013-.02-.027-.04-.04-.063l-.075-.123a4.966 4.966 0 0 0-.083-.121l-.071-.105-.088-.127-.086-.128-.035-.05-.061-.087-.105-.138-.005-.007-.219-.29a17.398 17.398 0 0 0-.242-.298.433.433 0 0 1-.547-.148zm-2.68 1.64a.433.433 0 0 1-.32.151 17.37 17.37 0 0 0-.04.237l-.017.105-.021.132-.018.133-.035.265-.009.083a4.578 4.578 0 0 0 1.568.289 4.578 4.578 0 0 0 2.34-.654 6.516 6.516 0 0 0-.077-.004l-.282-.015c-.062-.002-.124-.01-.186-.017a4.21 4.21 0 0 0-.094-.011l-.281-.033a3.252 3.252 0 0 1-.28-.041l-.279-.048-.139-.026-.138-.03a18.34 18.34 0 0 1-.276-.064l-.138-.033a2.319 2.319 0 0 1-.08-.022l-.056-.016-.272-.078a4.997 4.997 0 0 1-.405-.132l-.136-.047a4.833 4.833 0 0 1-.33-.125zm-.63.031a42.048 42.048 0 0 0-.431.3l-.034.025-.07.051-.067.05-.119.088-.083.06-.009.007a4.578 4.578 0 0 0 .925.472v-.065l.006-.27.005-.135.01-.135.019-.27.005-.063.003-.018a.443.443 0 0 1-.16-.097z" style="fill:url(#l);stroke:url(#radialGradient23-8);stroke-width:.038155;stroke-dasharray:none;stroke-opacity:1"/></g></svg>