<svg xmlns="http://www.w3.org/2000/svg" width="24" height="24" fill="none"><rect width="22" height="22" x="1" y="1" fill="url(#a)" opacity=".813" rx="6.6"/><rect width="18" height="18" x="3" y="2.25" fill="url(#b)" fill-opacity=".875" opacity=".125" rx="4.4"/><rect width="17.5" height="17.5" x="3.25" y="3.25" fill="#CCC" stroke="url(#c)" stroke-width=".5" rx="4.15"/><path fill="url(#d)" fill-opacity=".875" d="M1 7.508A3.008 3.008 0 0 1 4.008 4.5H8.19c1.075 0 2.117.37 2.95 1.048a4.678 4.678 0 0 0 2.95 1.047h5.902A3.008 3.008 0 0 1 23 9.603V15.5a6.6 6.6 0 0 1-6.6 6.6H7.6A6.6 6.6 0 0 1 1 15.5V7.508Z" opacity=".125"/><g opacity=".875"><path fill="url(#e)" d="M1 8.408A3.008 3.008 0 0 1 4.008 5.4H8.19c1.075 0 2.117.37 2.95 1.048a4.678 4.678 0 0 0 2.95 1.047h5.902A3.008 3.008 0 0 1 23 10.503V16.4a6.6 6.6 0 0 1-6.6 6.6H7.6A6.6 6.6 0 0 1 1 16.4V8.408Z"/><path stroke="url(#f)" stroke-linejoin="round" stroke-opacity=".375" stroke-width=".75" d="M22.625 10.503V16.4a6.225 6.225 0 0 1-6.225 6.225H7.6A6.225 6.225 0 0 1 1.375 16.4V8.408a2.633 2.633 0 0 1 2.633-2.633H8.19c.989 0 1.947.34 2.714.964a5.053 5.053 0 0 0 3.187 1.131h5.901a2.633 2.633 0 0 1 2.633 2.633Z"/></g><defs><linearGradient id="a" x1="23" x2="1" y1="1" y2="12" gradientUnits="userSpaceOnUse"><stop stop-color="#E32A2A"/><stop offset="1" stop-color="#680000"/></linearGradient><linearGradient id="b" x1="21" x2="3" y1="4" y2="4" gradientUnits="userSpaceOnUse"><stop stop-opacity=".5"/><stop offset=".89"/><stop offset="1" stop-opacity="0"/></linearGradient><linearGradient id="c" x1="12" x2="11.5" y1="3" y2="8" gradientUnits="userSpaceOnUse"><stop stop-color="#DDD"/><stop offset="1" stop-color="#CCC" stop-opacity="0"/></linearGradient><linearGradient id="d" x1="23" x2="1.012" y1="9" y2="9.521" gradientUnits="userSpaceOnUse"><stop stop-opacity=".5"/><stop offset="1"/></linearGradient><linearGradient id="e" x1="23" x2="1.429" y1="5.4" y2="23.512" gradientUnits="userSpaceOnUse"><stop stop-color="#FF3838"/><stop offset="1" stop-color="#B71414"/></linearGradient><linearGradient id="f" x1="15" x2="5.5" y1="5.5" y2="19.5" gradientUnits="userSpaceOnUse"><stop stop-color="#FF8383"/><stop offset="1" stop-color="#680000"/></linearGradient><linearGradient id="h" x1="18.439" x2="9.388" y1="8.107" y2="21.115" gradientTransform="matrix(.93304 0 0 .93304 34.84 .865)" gradientUnits="userSpaceOnUse" spreadMethod="pad"><stop offset="0" style="stop-opacity:1;stop-color:#e996b1"/><stop offset="1" style="stop-opacity:1;stop-color:#bc546f"/></linearGradient><clipPath id="g" clipPathUnits="userSpaceOnUse"><path d="M0 0h19v19H0Z"/></clipPath></defs><path d="m8.781 7.352 2-.372c.27-.05.524.157.524.434v1.32a.444.444 0 0 1-.364.434l-1.73.328c-.203.035-.238.074-.238.281v3.774c0 1.215-1.004 1.672-1.672 1.672-.758 0-1.301-.453-1.301-1.098 0-.633.426-1.066 1.344-1.238l.715-.141c.183-.031.277-.156.277-.348l-.027-4.586c0-.25.168-.398.472-.46z" clip-path="url(#g)" opacity=".15" style="fill:#1a1a1a;fill-opacity:1;fill-rule:evenodd;stroke:none" transform="matrix(1.33333 0 0 1.33333 .232 0)"/><path d="m46.172 9.303 2.667-.496a.588.588 0 0 1 .697.578v1.76a.591.591 0 0 1-.479.579l-2.312.437c-.266.047-.318.099-.318.375v5.032c0 1.62-1.339 2.23-2.224 2.23-1.015 0-1.739-.605-1.739-1.465 0-.844.567-1.421 1.79-1.65l.954-.188c.245-.042.37-.208.37-.464l-.037-6.114c0-.333.224-.532.631-.614z" style="fill:url(#h);fill-rule:evenodd;stroke:none;stroke-width:1.33333" transform="translate(-33.768)"/></svg>