<svg xmlns="http://www.w3.org/2000/svg" width="24" height="24" fill="none"><path fill="#fff" d="M16.532 1.005H7.468a6.48 6.48 0 0 0-6.48 6.48v9.03a6.48 6.48 0 0 0 6.48 6.48h9.064a6.48 6.48 0 0 0 6.48-6.48v-9.03a6.48 6.48 0 0 0-6.48-6.48Z" opacity=".3"/><g fill="#333" opacity=".15"><path d="M7.895 12.738h-.789a.076.076 0 0 0-.075.076v2.531c0 .042.034.077.075.077h.79a.076.076 0 0 0 .074-.077v-2.531a.076.076 0 0 0-.075-.076ZM9.344 12.738H8.56a.078.078 0 0 0-.078.079v3.862c0 .043.035.079.078.079h.784a.078.078 0 0 0 .077-.08v-3.862a.078.078 0 0 0-.077-.078ZM10.779 12.738h-.774a.083.083 0 0 0-.083.084v2.952c0 .046.038.084.083.084h.774a.083.083 0 0 0 .082-.084v-2.952a.083.083 0 0 0-.082-.084ZM12.207 12.738h-.782a.079.079 0 0 0-.078.079v3.414c0 .044.035.08.078.08h.782a.079.079 0 0 0 .078-.08v-3.414a.079.079 0 0 0-.078-.08ZM13.626 12.738h-.761a.09.09 0 0 0-.089.09v4.64c0 .05.04.091.089.091h.761a.09.09 0 0 0 .089-.09v-4.64a.09.09 0 0 0-.089-.091ZM15.042 12.738h-.745a.098.098 0 0 0-.097.098v3.37c0 .055.043.1.097.1h.745a.098.098 0 0 0 .097-.1v-3.37a.098.098 0 0 0-.097-.098ZM16.472 12.738h-.746a.097.097 0 0 0-.096.098v3.818c0 .055.043.098.096.098h.746a.097.097 0 0 0 .096-.098v-3.819a.097.097 0 0 0-.096-.097Z" opacity=".99"/></g><path fill="#fff" d="M16.657 10.286H7.343a6.355 6.355 0 0 0 0 12.709h9.314a6.355 6.355 0 0 0 0-12.71Z" opacity=".05"/><path fill="#fff" d="M8.095 12.626h-.789a.075.075 0 0 0-.075.075v2.485c0 .041.034.075.075.075h.79a.075.075 0 0 0 .074-.075v-2.485a.075.075 0 0 0-.075-.075ZM9.544 12.626H8.76a.077.077 0 0 0-.078.078v3.791c0 .043.035.078.078.078h.784a.077.077 0 0 0 .077-.078v-3.791a.077.077 0 0 0-.077-.078ZM10.979 12.626h-.774a.083.083 0 0 0-.082.083v2.898c0 .045.037.082.082.082h.774a.083.083 0 0 0 .082-.082v-2.898a.083.083 0 0 0-.082-.083ZM12.408 12.626h-.783a.078.078 0 0 0-.078.078v3.352c0 .043.034.078.078.078h.783a.078.078 0 0 0 .078-.078v-3.352a.078.078 0 0 0-.079-.078ZM13.826 12.626h-.761c-.05 0-.089.04-.089.09v4.555c0 .049.04.089.089.089h.761c.05 0 .089-.04.089-.09v-4.555c0-.049-.04-.089-.089-.089ZM15.242 12.626h-.745a.097.097 0 0 0-.097.097v3.309c0 .053.043.096.097.096h.745a.097.097 0 0 0 .097-.096v-3.309a.097.097 0 0 0-.097-.097ZM16.672 12.626h-.746a.096.096 0 0 0-.096.096v3.75c0 .052.043.095.096.095h.746a.096.096 0 0 0 .096-.096v-3.749a.096.096 0 0 0-.096-.096Z" opacity=".99"/><path fill="url(#a)" d="M16.532 1.005H7.468c-3.579 0-6.48 2.627-6.48 5.868 0 3.241 2.901 5.869 6.48 5.869h9.064c3.579 0 6.48-2.628 6.48-5.869 0-3.24-2.901-5.868-6.48-5.868Z"/><path fill="#2A2C3E" d="M12 11.708a1.687 1.687 0 1 0 0-3.374 1.687 1.687 0 0 0 0 3.374Z" opacity=".99"/><path fill="#E5393A" d="M12 8.916a1.106 1.106 0 1 0 0 2.21 1.106 1.106 0 0 0 0-2.21Zm0 .17a.936.936 0 1 1-.002 1.872A.936.936 0 0 1 12 9.085Z" opacity=".99"/><path fill="#E5393A" d="M12.184 8.824a.184.184 0 0 0-.368 0V9.85a.184.184 0 0 0 .368 0V8.824Z" opacity=".99"/><path fill="#2A2C3E" d="M20.621 6.497H3.38a.377.377 0 1 0 0 .753H20.62a.377.377 0 0 0 0-.753Z"/><path fill="#fff" d="M16.784 1.535H7.216V6.85h9.568V1.535Z" opacity=".99"/><path fill="#F1483E" d="M16.201 1.986H7.746v.7h8.455v-.7Z" opacity=".99"/><path fill="#555" d="M12.873 3.108H7.746v.176h5.127v-.176ZM12.873 3.862H7.746v.177h5.127v-.177ZM16.198 4.617H7.746v.177h8.452v-.177ZM16.198 5.372H7.746v.176h8.452v-.176ZM16.198 6.126H7.746v.177h8.452v-.177Z" opacity=".99"/><path fill="url(#b)" d="m12.095 20.43-.44-.485.418-.416.416-.423.027.204c.016.115.036.213.047.23.005.009.14.02.297.02.484 0 .839-.1.959-.26.093-.12.066-.22-.167-.694-.199-.405-.215-.437-.172-.473.067-.058.244-.178.479-.307l.197-.115.25.49c.255.505.287.588.318.864.052.5-.23.989-.708 1.234-.161.084-.224.099-.49.126a6.148 6.148 0 0 1-.603.02c-.167 0-.308.005-.32.01-.004.011-.024.115-.04.235l-.031.224zm-1.454-.01c-.37-.017-.442-.027-.594-.09a1.153 1.153 0 0 1-.708-.733 1.83 1.83 0 0 1-.052-.724c.032-.162.338-.844.474-1.052.047-.079.088-.158.088-.167 0-.016-.073-.084-.166-.157-.094-.078-.167-.135-.156-.135.005 0 .28-.073.604-.161.328-.09.598-.156.609-.147.01.01.276 1.167.265 1.167 0 0-.088-.036-.186-.083-.106-.047-.2-.073-.21-.063-.057.063-.286.506-.348.683-.1.27-.12.443-.073.568.068.167.115.181.63.208.349.015.469.03.485.057.01.02.02.224.02.448v.411l-.13-.005c-.073-.006-.322-.015-.552-.026zm2.468-3.006-.546-.172.098-.083c.052-.048.126-.109.162-.141l.068-.057-.078-.156c-.172-.355-.433-.703-.604-.818-.094-.057-.266-.068-.338-.016a4.56 4.56 0 0 0-.292.443c-.131.224-.256.407-.271.407-.063.005-.61-.319-.713-.412a6.885 6.885 0 0 1 .276-.484c.306-.516.432-.656.697-.798.213-.109.448-.15.661-.114.183.037.475.172.636.297.12.093.536.73.656.995.083.192.063.188.328.073.083-.032.146-.052.146-.043.005.032-.312 1.224-.328 1.24-.006.011-.26-.062-.558-.161z" style="fill:url(#b)"/><defs><linearGradient id="a" x1="22.988" x2="1.012" y1="1.123" y2="12.498" gradientUnits="userSpaceOnUse"><stop stop-color="#4C4F62"/><stop offset="1" stop-color="#313340"/></linearGradient><linearGradient id="b" x1="6.826" x2="3.526" y1="15.721" y2="20.121" gradientTransform="translate(6.27)" gradientUnits="userSpaceOnUse"><stop stop-color="#84FAA1"/><stop offset="1" stop-color="#33C478"/></linearGradient></defs><circle cx="19.001" cy="4.498" r=".75" style="fill:#e5393a;fill-opacity:1;stroke-width:.05;stroke-linecap:round;stroke-linejoin:round;paint-order:stroke markers fill"/></svg>