<svg xmlns="http://www.w3.org/2000/svg" xmlns:xlink="http://www.w3.org/1999/xlink" xml:space="preserve" width="462.726" height="462.614" viewBox="0 0 122.43 122.4"><defs><linearGradient id="c"><stop offset="0" style="stop-color:#333;stop-opacity:1"/><stop offset="1" style="stop-color:#e6e6e6;stop-opacity:1"/></linearGradient><linearGradient id="d"><stop offset="0" style="stop-color:#333;stop-opacity:1"/><stop offset="1" style="stop-color:#b3b3b3;stop-opacity:1"/></linearGradient><linearGradient id="l" x1="18.38" x2="5.73" y1="9.8" y2="18.05" gradientTransform="matrix(15.7194 0 0 15.7194 -9.746 -10.267)" gradientUnits="userSpaceOnUse" spreadMethod="pad"><stop offset="0" style="stop-opacity:1;stop-color:#967ccc"/><stop offset="1" style="stop-opacity:1;stop-color:#5e35b1"/></linearGradient><linearGradient id="b" x1="5.95" x2="18.6" y1="18.6" y2="9.8" gradientUnits="userSpaceOnUse" spreadMethod="pad"><stop offset="0" style="stop-opacity:.17499046;stop-color:#fff"/><stop offset="1" style="stop-opacity:0;stop-color:#fff"/></linearGradient><linearGradient xlink:href="#c" id="i" x1="38.383" x2="176.816" y1="221.707" y2="112.22" gradientTransform="translate(-44 -87.07)" gradientUnits="userSpaceOnUse"/><linearGradient xlink:href="#d" id="e" x1="-87.875" x2="431.171" y1="86.081" y2="18.301" gradientUnits="userSpaceOnUse"/><linearGradient xlink:href="#d" id="h" x1="-87.875" x2="431.171" y1="86.081" y2="18.301" gradientUnits="userSpaceOnUse"/><linearGradient xlink:href="#d" id="g" x1="-87.875" x2="431.171" y1="86.081" y2="18.301" gradientUnits="userSpaceOnUse"/><linearGradient xlink:href="#d" id="f" x1="-87.875" x2="431.171" y1="86.081" y2="18.301" gradientUnits="userSpaceOnUse"/><clipPath id="j" clipPathUnits="userSpaceOnUse"><path d="M241.211 264.121a28.54 28.54 0 0 0 6.281-17.91v-60.555l10.063-8.594c.586-.5 1.207-.945 1.859-1.332a13.521 13.521 0 0 0-3.726 9.321v49.394a13.51 13.51 0 0 0 4.812 10.34l18.207 15.309.637.504.176.129v7.007c0 3.137-1.106 6.172-3.125 8.571-4.559 5.422-12.516 6.293-18.125 2.125l-.637-.504zM224.52 274.32c-4.133 10.762-14.567 18.403-26.782 18.403h-90.136c-15.84 0-28.68-12.84-28.68-28.684v-73.746c0-13.883 9.867-25.465 22.973-28.109a28.574 28.574 0 0 0-1.899 10.277v73.75c0 15.84 12.84 28.68 28.68 28.68h90.136c1.954 0 3.864-.196 5.708-.571z" clip-rule="evenodd"/></clipPath><clipPath id="a" clipPathUnits="userSpaceOnUse"><path d="M4.241 10.959h12.85v8.334H4.242Z"/></clipPath><mask id="k" width="1" height="1" x="0" y="0" maskUnits="userSpaceOnUse"><g clip-path="url(#a)"><path d="M4.241 10.959h12.85v8.334H4.242Z" style="fill:url(#b);stroke:none"/></g></mask></defs><rect width="97.6" height="97.6" x="12.629" y="12.2" fill="#fafafa" rx="24.4" style="stroke-width:5.54545"/><g style="fill:url(#e);fill-opacity:1"><g style="fill:url(#f);fill-opacity:1" transform="matrix(.35278 0 0 .35278 .43 0)"><g style="fill:url(#g);fill-opacity:1"><path d="M103.746 0h138.332c57.477 0 103.75 46.273 103.75 103.746v138.332c0 57.477-46.273 103.75-103.75 103.75H103.746C46.273 345.828 0 299.555 0 242.078V103.746C0 46.273 46.273 0 103.746 0Z" style="fill:url(#h);fill-opacity:1;stroke:none"/></g></g></g><path d="M37.028 12.2h48.8a24.347 24.347 0 0 1 24.4 24.4v48.8a24.346 24.346 0 0 1-24.4 24.4h-48.8a24.346 24.346 0 0 1-24.4-24.4V36.6a24.347 24.347 0 0 1 24.4-24.4z" style="fill:#fafafa;fill-opacity:1;fill-rule:nonzero;stroke:none;stroke-width:.352778"/><path d="M0 41.48C0 32.268 7.468 24.8 16.68 24.8h23.195a25.934 25.934 0 0 1 16.358 5.81 25.945 25.945 0 0 0 16.362 5.81h32.726c9.212 0 16.68 7.467 16.68 16.68v32.7c0 20.214-16.387 36.6-36.601 36.6H36.6C16.385 122.4 0 106.014 0 85.8Z" style="fill:url(#i);fill-opacity:1;fill-rule:nonzero;stroke:none;stroke-width:.352778"/><g style="opacity:1;fill:gray"><g clip-path="url(#j)" style="fill:gray" transform="matrix(.35278 0 0 .35278 208.341 -58.923)"><g style="fill:gray"><g mask="url(#k)" style="fill:gray" transform="matrix(15.7194 0 0 15.7194 11.33 -10.267)"><path d="M241.211 264.121a28.54 28.54 0 0 0 6.281-17.91v-60.555l10.063-8.594c.586-.5 1.207-.945 1.859-1.332a13.521 13.521 0 0 0-3.726 9.321v49.394a13.51 13.51 0 0 0 4.812 10.34l18.207 15.309.637.504.176.129v7.007c0 3.137-1.106 6.172-3.125 8.571-4.559 5.422-12.516 6.293-18.125 2.125l-.637-.504zM224.52 274.32c-4.133 10.762-14.567 18.403-26.782 18.403h-90.136c-15.84 0-28.68-12.84-28.68-28.684v-73.746c0-13.883 9.867-25.465 22.973-28.109a28.574 28.574 0 0 0-1.899 10.277v73.75c0 15.84 12.84 28.68 28.68 28.68h90.136c1.954 0 3.864-.196 5.708-.571z" style="fill:gray;fill-rule:evenodd;stroke:none"/></g></g></g><g style="opacity:.287379;fill:gray;fill-opacity:1"><g style="fill:gray;fill-opacity:1"><path d="M226.418 246.211c0 15.84-12.84 28.68-28.68 28.68h-90.136c-15.84 0-28.68-12.84-28.68-28.68v-73.75c0-15.84 12.84-28.68 28.68-28.68h90.136c15.84 0 28.68 12.84 28.68 28.68zm39.785-90.172c7.098 0 12.902 5.559 13.293 12.563l.024.753v80.547c0 3.137-1.106 6.172-3.125 8.571-4.559 5.422-12.516 6.293-18.125 2.125l-.637-.504-18.207-15.309a13.511 13.511 0 0 1-4.813-10.34v-49.394c0-3.949 1.731-7.703 4.735-10.27l18.207-15.551a13.344 13.344 0 0 1 7.699-3.156z" style="fill:gray;fill-opacity:1;stroke:none" transform="matrix(.35278 0 0 .35278 -3.863 5.06)"/></g></g></g><path d="M226.418 246.211c0 15.84-12.84 28.68-28.68 28.68h-90.136c-15.84 0-28.68-12.84-28.68-28.68v-73.75c0-15.84 12.84-28.68 28.68-28.68h90.136c15.84 0 28.68 12.84 28.68 28.68zm39.785-90.172c7.098 0 12.902 5.559 13.293 12.563l.024.753v80.547c0 3.137-1.106 6.172-3.125 8.571-4.559 5.422-12.516 6.293-18.125 2.125l-.637-.504-18.207-15.309a13.511 13.511 0 0 1-4.813-10.34v-49.394c0-3.949 1.731-7.703 4.735-10.27l18.207-15.551a13.344 13.344 0 0 1 7.699-3.156z" style="fill:url(#l);stroke:none" transform="matrix(.35278 0 0 .35278 -.158 .784)"/></svg>