<svg xmlns="http://www.w3.org/2000/svg" xml:space="preserve" width="24" height="24" fill="none"><rect width="22" height="22" x="1" y="1" fill="url(#a)" opacity=".813" rx="6.6" style="fill:url(#a)"/><rect width="18" height="18" x="3" y="2.25" fill="url(#b)" fill-opacity=".875" opacity=".125" rx="4.4" style="fill:url(#b)"/><rect width="17.5" height="17.5" x="3.25" y="3.25" fill="#ccc" stroke="url(#c)" stroke-width=".5" rx="4.15" style="stroke:url(#c)"/><path fill="url(#d)" fill-opacity=".875" d="M1 7.508A3.008 3.008 0 0 1 4.008 4.5H8.19c1.075 0 2.117.37 2.95 1.048a4.678 4.678 0 0 0 2.95 1.047h5.902A3.008 3.008 0 0 1 23 9.603V15.5a6.6 6.6 0 0 1-6.6 6.6H7.6A6.6 6.6 0 0 1 1 15.5Z" opacity=".125" style="fill:url(#d)"/><defs><linearGradient id="a" x1="23" x2="1" y1="1" y2="12" gradientUnits="userSpaceOnUse"><stop stop-color="#FFDE3C"/><stop offset="1" stop-color="#FFA900"/></linearGradient><linearGradient id="b" x1="21" x2="3" y1="4" y2="4" gradientUnits="userSpaceOnUse"><stop stop-opacity=".5"/><stop offset=".89"/><stop offset="1" stop-opacity="0"/></linearGradient><linearGradient id="c" x1="12" x2="11.5" y1="3" y2="8" gradientUnits="userSpaceOnUse"><stop stop-color="#DDD"/><stop offset="1" stop-color="#CCC" stop-opacity="0"/></linearGradient><linearGradient id="d" x1="23" x2="1.012" y1="9" y2="9.521" gradientUnits="userSpaceOnUse"><stop stop-opacity=".5"/><stop offset="1"/></linearGradient><linearGradient id="k" x1="23" x2="1.429" y1="5.4" y2="23.511" gradientTransform="matrix(1 0 .0213 .92243 -.49 1.784)" gradientUnits="userSpaceOnUse"><stop stop-color="#FFFF52"/><stop offset="1" stop-color="#FFB200"/></linearGradient><linearGradient id="l" x1="15" x2="5.5" y1="5.5" y2="19.5" gradientTransform="matrix(1 0 .0213 .92243 -.49 1.784)" gradientUnits="userSpaceOnUse"><stop stop-color="#fff"/><stop offset="1" stop-color="#BD8400"/></linearGradient><linearGradient id="e" x1="12" x2="11.5" y1="3" y2="8" gradientTransform="matrix(.75 0 0 -.75 0 18)" gradientUnits="userSpaceOnUse" spreadMethod="pad"><stop offset="0" style="stop-opacity:1;stop-color:#fff"/><stop offset="1" style="stop-opacity:0;stop-color:#fff"/></linearGradient><linearGradient id="g" x1="15" x2="5.5" y1="5.5" y2="19.5" gradientTransform="matrix(.75 0 0 -.75 0 18)" gradientUnits="userSpaceOnUse" spreadMethod="pad"><stop offset="0" style="stop-opacity:.37500572;stop-color:#fff"/><stop offset="1" style="stop-opacity:.37500572;stop-color:#fff"/></linearGradient><clipPath id="f" clipPathUnits="userSpaceOnUse"><path d="M1 1h16v16H1Z"/></clipPath><clipPath id="h" clipPathUnits="userSpaceOnUse"><path d="M0 4h18v14H0Z"/></clipPath><clipPath id="i" clipPathUnits="userSpaceOnUse"><path d="M1 1h16v16H1Z"/></clipPath><clipPath id="j" clipPathUnits="userSpaceOnUse"><path d="M0 4h18v14H0Z"/></clipPath></defs><path fill="url(#k)" d="M.689 9.54C.653 8.007 1.97 6.765 3.632 6.765h4.183c1.075 0 2.124.341 2.973.967a5.026 5.026 0 0 0 2.972.966h5.902c1.66 0 3.036 1.242 3.071 2.774l.126 5.44c.078 3.362-2.814 6.088-6.46 6.088H7.6C3.956 23 .938 20.274.86 16.912z" style="opacity:.875;fill:url(#k);stroke-width:.960434"/><path stroke="url(#l)" stroke-linejoin="round" stroke-opacity=".375" stroke-width=".72" d="m22.358 11.472.126 5.44c.073 3.171-2.654 5.742-6.092 5.742h-8.8c-3.438 0-6.285-2.57-6.358-5.742l-.17-7.372C1.033 8.198 2.186 7.11 3.64 7.11h4.183c.989 0 1.954.314 2.734.889a5.429 5.429 0 0 0 3.211 1.044h5.902c1.454 0 2.657 1.087 2.688 2.428z" style="opacity:.875;stroke:url(#l)"/></svg>