<svg xmlns="http://www.w3.org/2000/svg" xmlns:xlink="http://www.w3.org/1999/xlink" xml:space="preserve" width="64" height="64" viewBox="0 0 16.933 16.933"><defs><linearGradient id="a" x1="21" x2="3" y1="4" y2="4" gradientUnits="userSpaceOnUse"><stop stop-opacity=".5"/><stop offset=".89"/><stop offset="1" stop-opacity="0"/></linearGradient><linearGradient id="b" x1="12" x2="11.5" y1="3" y2="8" gradientUnits="userSpaceOnUse"><stop stop-color="#DDD"/><stop offset="1" stop-color="#CCC" stop-opacity="0"/></linearGradient><linearGradient id="c" x1="23" x2="1.012" y1="9" y2="9.521" gradientUnits="userSpaceOnUse"><stop stop-opacity=".5"/><stop offset="1"/></linearGradient><linearGradient id="d" x1="23" x2="1" y1="1" y2="12" gradientUnits="userSpaceOnUse"><stop stop-color="#FFDE3C"/><stop offset="1" stop-color="#FFA900"/></linearGradient><linearGradient id="e" x1="23" x2="1.429" y1="5.4" y2="23.512" gradientUnits="userSpaceOnUse"><stop stop-color="#FFFF52"/><stop offset="1" stop-color="#FFB200"/></linearGradient><linearGradient id="f" x1="15" x2="5.5" y1="5.5" y2="19.5" gradientUnits="userSpaceOnUse"><stop stop-color="#fff"/><stop offset="1" stop-color="#BD8400"/></linearGradient><linearGradient xlink:href="#a" id="n" x1="21" x2="3" y1="4" y2="4" gradientUnits="userSpaceOnUse"/><linearGradient xlink:href="#b" id="o" x1="12" x2="11.5" y1="3" y2="8" gradientUnits="userSpaceOnUse"/><linearGradient xlink:href="#c" id="p" x1="23" x2="1.012" y1="9" y2="9.521" gradientUnits="userSpaceOnUse"/><linearGradient xlink:href="#d" id="g" x1="23" x2="1" y1="1" y2="12" gradientUnits="userSpaceOnUse"/><linearGradient xlink:href="#a" id="h" x1="21" x2="3" y1="4" y2="4" gradientUnits="userSpaceOnUse"/><linearGradient xlink:href="#b" id="i" x1="12" x2="11.5" y1="3" y2="8" gradientUnits="userSpaceOnUse"/><linearGradient xlink:href="#c" id="j" x1="23" x2="1.012" y1="9" y2="9.521" gradientUnits="userSpaceOnUse"/><linearGradient xlink:href="#e" id="k" x1="23" x2="1.429" y1="5.4" y2="23.512" gradientUnits="userSpaceOnUse"/><linearGradient xlink:href="#f" id="l" x1="15" x2="5.5" y1="5.5" y2="19.5" gradientUnits="userSpaceOnUse"/><linearGradient xlink:href="#d" id="m" x1="23" x2="1" y1="1" y2="12" gradientUnits="userSpaceOnUse"/><linearGradient xlink:href="#e" id="q" x1="23" x2="1.429" y1="5.4" y2="23.512" gradientUnits="userSpaceOnUse"/><linearGradient xlink:href="#f" id="r" x1="15" x2="5.5" y1="5.5" y2="19.5" gradientUnits="userSpaceOnUse"/></defs><g style="fill:none;opacity:.35" transform="translate(1.291 5.927) scale(.42307)"><rect width="22" height="22" x="1" y="1" fill="url(#d)" opacity=".813" rx="6.6" style="fill:url(#g)"/><rect width="18" height="18" x="3" y="2.25" fill="url(#paint1_linear_221_48)" fill-opacity=".875" opacity=".125" rx="4.4" style="fill:url(#h)"/><rect width="17.5" height="17.5" x="3.25" y="3.25" fill="#ccc" stroke="url(#paint2_linear_221_48)" stroke-width=".5" rx="4.15" style="stroke:url(#i)"/><path fill="url(#paint3_linear_221_48)" fill-opacity=".875" d="M1 7.508A3.008 3.008 0 0 1 4.008 4.5H8.19c1.075 0 2.117.37 2.95 1.048a4.678 4.678 0 0 0 2.95 1.047h5.902A3.008 3.008 0 0 1 23 9.603V15.5a6.6 6.6 0 0 1-6.6 6.6H7.6A6.6 6.6 0 0 1 1 15.5Z" opacity=".125" style="fill:url(#j)"/><g opacity=".875"><path fill="url(#e)" d="M1 8.408A3.008 3.008 0 0 1 4.008 5.4H8.19c1.075 0 2.117.37 2.95 1.048a4.678 4.678 0 0 0 2.95 1.047h5.902A3.008 3.008 0 0 1 23 10.503V16.4a6.6 6.6 0 0 1-6.6 6.6H7.6A6.6 6.6 0 0 1 1 16.4Z" style="fill:url(#k)"/><path stroke="url(#f)" stroke-linejoin="round" stroke-opacity=".375" stroke-width=".75" d="M22.625 10.503V16.4a6.225 6.225 0 0 1-6.225 6.225H7.6A6.225 6.225 0 0 1 1.375 16.4V8.408a2.633 2.633 0 0 1 2.633-2.633H8.19c.989 0 1.947.34 2.714.964a5.053 5.053 0 0 0 3.187 1.131h5.901a2.633 2.633 0 0 1 2.633 2.633z" style="stroke:url(#l)"/></g></g><g style="fill:none" transform="translate(5.53 .936) scale(.42307)"><rect width="22" height="22" x="1" y="1" fill="url(#d)" opacity=".813" rx="6.6" style="fill:url(#m)"/><rect width="18" height="18" x="3" y="2.25" fill="url(#paint1_linear_221_48)" fill-opacity=".875" opacity=".125" rx="4.4" style="fill:url(#n)"/><rect width="17.5" height="17.5" x="3.25" y="3.25" fill="#ccc" stroke="url(#paint2_linear_221_48)" stroke-width=".5" rx="4.15" style="stroke:url(#o)"/><path fill="url(#paint3_linear_221_48)" fill-opacity=".875" d="M1 7.508A3.008 3.008 0 0 1 4.008 4.5H8.19c1.075 0 2.117.37 2.95 1.048a4.678 4.678 0 0 0 2.95 1.047h5.902A3.008 3.008 0 0 1 23 9.603V15.5a6.6 6.6 0 0 1-6.6 6.6H7.6A6.6 6.6 0 0 1 1 15.5Z" opacity=".125" style="fill:url(#p)"/><g opacity=".875"><path fill="url(#e)" d="M1 8.408A3.008 3.008 0 0 1 4.008 5.4H8.19c1.075 0 2.117.37 2.95 1.048a4.678 4.678 0 0 0 2.95 1.047h5.902A3.008 3.008 0 0 1 23 10.503V16.4a6.6 6.6 0 0 1-6.6 6.6H7.6A6.6 6.6 0 0 1 1 16.4Z" style="fill:url(#q)"/><path stroke="url(#f)" stroke-linejoin="round" stroke-opacity=".375" stroke-width=".75" d="M22.625 10.503V16.4a6.225 6.225 0 0 1-6.225 6.225H7.6A6.225 6.225 0 0 1 1.375 16.4V8.408a2.633 2.633 0 0 1 2.633-2.633H8.19c.989 0 1.947.34 2.714.964a5.053 5.053 0 0 0 3.187 1.131h5.901a2.633 2.633 0 0 1 2.633 2.633z" style="stroke:url(#r)"/></g></g></svg>