<svg xmlns="http://www.w3.org/2000/svg" xml:space="preserve" width="24" height="24" fill="none"><rect width="22" height="22" x="1" y="1" fill="url(#a)" opacity=".813" rx="6.6" style="fill:url(#a)"/><rect width="18" height="18" x="3" y="2.25" fill="url(#b)" fill-opacity=".875" opacity=".125" rx="4.4" style="fill:url(#b)"/><rect width="17.5" height="17.5" x="3.25" y="3.25" fill="#ccc" stroke="url(#c)" stroke-width=".5" rx="4.15" style="stroke:url(#c)"/><path fill="url(#d)" fill-opacity=".875" d="M1 7.508A3.008 3.008 0 0 1 4.008 4.5H8.19c1.075 0 2.117.37 2.95 1.048a4.678 4.678 0 0 0 2.95 1.047h5.902A3.008 3.008 0 0 1 23 9.603V15.5a6.6 6.6 0 0 1-6.6 6.6H7.6A6.6 6.6 0 0 1 1 15.5Z" opacity=".125" style="fill:url(#d)"/><path fill="url(#e)" d="M1 8.408A3.008 3.008 0 0 1 4.008 5.4H8.19c1.075 0 2.117.37 2.95 1.048a4.678 4.678 0 0 0 2.95 1.047h5.902A3.008 3.008 0 0 1 23 10.503V16.4a6.6 6.6 0 0 1-6.6 6.6H7.6A6.6 6.6 0 0 1 1 16.4Z" style="opacity:.875;fill:url(#e)"/><path stroke="url(#f)" stroke-linejoin="round" stroke-opacity=".375" stroke-width=".75" d="M22.625 10.503V16.4a6.225 6.225 0 0 1-6.225 6.225H7.6A6.225 6.225 0 0 1 1.375 16.4V8.408a2.633 2.633 0 0 1 2.633-2.633H8.19c.989 0 1.947.34 2.714.964a5.053 5.053 0 0 0 3.187 1.131h5.901a2.633 2.633 0 0 1 2.633 2.633z" style="opacity:.875;stroke:url(#f)"/><defs><linearGradient id="a" x1="23" x2="1" y1="1" y2="12" gradientUnits="userSpaceOnUse"><stop stop-color="#FFDE3C"/><stop offset="1" stop-color="#FFA900"/></linearGradient><linearGradient id="b" x1="21" x2="3" y1="4" y2="4" gradientUnits="userSpaceOnUse"><stop stop-opacity=".5"/><stop offset=".89"/><stop offset="1" stop-opacity="0"/></linearGradient><linearGradient id="c" x1="12" x2="11.5" y1="3" y2="8" gradientUnits="userSpaceOnUse"><stop stop-color="#DDD"/><stop offset="1" stop-color="#CCC" stop-opacity="0"/></linearGradient><linearGradient id="d" x1="23" x2="1.012" y1="9" y2="9.521" gradientUnits="userSpaceOnUse"><stop stop-opacity=".5"/><stop offset="1"/></linearGradient><linearGradient id="e" x1="23" x2="1.429" y1="5.4" y2="23.511" gradientUnits="userSpaceOnUse"><stop stop-color="#FFFF52"/><stop offset="1" stop-color="#FFB200"/></linearGradient><linearGradient id="f" x1="15" x2="5.5" y1="5.5" y2="19.5" gradientUnits="userSpaceOnUse"><stop stop-color="#fff"/><stop offset="1" stop-color="#BD8400"/></linearGradient><linearGradient id="g" x1="12" x2="11.5" y1="3" y2="8" gradientTransform="matrix(.75 0 0 -.75 0 18)" gradientUnits="userSpaceOnUse" spreadMethod="pad"><stop offset="0" style="stop-opacity:1;stop-color:#fff"/><stop offset="1" style="stop-opacity:0;stop-color:#fff"/></linearGradient><linearGradient id="i" x1="15" x2="5.5" y1="5.5" y2="19.5" gradientTransform="matrix(.75 0 0 -.75 0 18)" gradientUnits="userSpaceOnUse" spreadMethod="pad"><stop offset="0" style="stop-opacity:.37500572;stop-color:#fff"/><stop offset="1" style="stop-opacity:.37500572;stop-color:#fff"/></linearGradient><clipPath id="h" clipPathUnits="userSpaceOnUse"><path d="M1 1h16v16H1Z"/></clipPath><clipPath id="j" clipPathUnits="userSpaceOnUse"><path d="M0 4h18v14H0Z"/></clipPath><clipPath id="k" clipPathUnits="userSpaceOnUse"><path d="M1 1h16v16H1Z"/></clipPath><clipPath id="l" clipPathUnits="userSpaceOnUse"><path d="M0 4h18v14H0Z"/></clipPath><clipPath id="m" clipPathUnits="userSpaceOnUse"><path d="M0 0h19v19H0Z"/></clipPath><clipPath id="n" clipPathUnits="userSpaceOnUse"><path d="M.708 0h24.625v24.568H.708Z"/></clipPath><clipPath id="o" clipPathUnits="userSpaceOnUse"><path d="M0 0h19v19H0Z"/></clipPath></defs><path d="M11.145 14.504a.39.39 0 0 1-.602.434l-1.848-1.336a.386.386 0 0 0-.457-.004L6.383 14.93a.39.39 0 0 1-.598-.438l.703-2.172a.387.387 0 0 0-.14-.433l-1.836-1.352a.391.391 0 0 1 .23-.707h2.281a.395.395 0 0 0 .372-.269l.714-2.164a.39.39 0 0 1 .743 0l.707 2.167c.054.161.203.27.371.27l2.281.016c.379 0 .531.484.227.703l-1.844 1.344a.388.388 0 0 0-.141.433z" clip-path="url(#m)" opacity=".15" style="fill:#1a1a1a;fill-opacity:1;fill-rule:nonzero;stroke:none" transform="scale(1.33333)"/><g clip-path="url(#n)"><path d="M11.676 13.93a.39.39 0 0 1-.602.433l-1.847-1.336a.389.389 0 0 0-.457-.004l-1.856 1.332a.39.39 0 0 1-.598-.437l.704-2.172a.39.39 0 0 0-.141-.434L5.043 9.961a.391.391 0 0 1 .23-.707h2.282a.394.394 0 0 0 .371-.27l.715-2.164c.121-.359.625-.359.742 0l.707 2.168c.055.16.203.27.371.27l2.281.015c.379 0 .531.485.227.704l-1.844 1.343a.391.391 0 0 0-.141.434z" clip-path="url(#o)" style="fill:#6d3a00;fill-opacity:.981818;fill-rule:nonzero;stroke:none" transform="scale(1.33333)"/></g></svg>