<?xml version="1.0" encoding="UTF-8"?>
<!DOCTYPE svg PUBLIC "-//W3C//DTD SVG 1.1//EN" "http://www.w3.org/Graphics/SVG/1.1/DTD/svg11.dtd">
<svg xmlns="http://www.w3.org/2000/svg" version="1.1" width="1024px" height="1024px" style="shape-rendering:geometricPrecision; text-rendering:geometricPrecision; image-rendering:optimizeQuality; fill-rule:evenodd; clip-rule:evenodd" xmlns:xlink="http://www.w3.org/1999/xlink">
<g><path style="opacity:1" fill="#ca9052" d="M 511.5,71.5 C 511.5,85.5 511.5,99.5 511.5,113.5C 497.5,113.5 483.5,113.5 469.5,113.5C 469.5,127.5 469.5,141.5 469.5,155.5C 483.323,156.496 497.323,156.829 511.5,156.5C 511.5,170.5 511.5,184.5 511.5,198.5C 525.5,198.5 539.5,198.5 553.5,198.5C 553.5,184.5 553.5,170.5 553.5,156.5C 540.01,155.504 526.344,155.171 512.5,155.5C 512.5,141.833 512.5,128.167 512.5,114.5C 526.344,114.829 540.01,114.496 553.5,113.5C 553.5,99.5 553.5,85.5 553.5,71.5C 623.501,71.3333 693.501,71.5 763.5,72C 834.494,80.7193 888.327,115.553 925,176.5C 939.308,202.756 947.974,230.756 951,260.5C 952.444,421.831 952.778,583.164 952,744.5C 947.793,833.15 905.959,896.65 826.5,935C 806.344,943.622 785.344,948.956 763.5,951C 595.833,951.667 428.167,951.667 260.5,951C 195.619,944.16 144.452,914.327 107,861.5C 87.2176,831.825 75.5509,799.159 72,763.5C 71.3333,589.833 71.3333,416.167 72,242.5C 76.9735,228.608 81.6401,214.608 86,200.5C 119.899,124.945 178.065,82.1113 260.5,72C 344.166,71.5 427.833,71.3333 511.5,71.5 Z"/></g>
<g><path style="opacity:1" fill="#fefefe" d="M 511.5,71.5 C 525.5,71.5 539.5,71.5 553.5,71.5C 553.5,85.5 553.5,99.5 553.5,113.5C 539.5,113.5 525.5,113.5 511.5,113.5C 511.5,99.5 511.5,85.5 511.5,71.5 Z"/></g>
<g><path style="opacity:1" fill="#fefefe" d="M 511.5,113.5 C 511.5,127.5 511.5,141.5 511.5,155.5C 497.5,155.5 483.5,155.5 469.5,155.5C 469.5,141.5 469.5,127.5 469.5,113.5C 483.5,113.5 497.5,113.5 511.5,113.5 Z"/></g>
<g><path style="opacity:1" fill="#d7ac7e" d="M 511.5,113.5 C 525.5,113.5 539.5,113.5 553.5,113.5C 540.01,114.496 526.344,114.829 512.5,114.5C 512.5,128.167 512.5,141.833 512.5,155.5C 526.344,155.171 540.01,155.504 553.5,156.5C 539.5,156.5 525.5,156.5 511.5,156.5C 497.323,156.829 483.323,156.496 469.5,155.5C 483.5,155.5 497.5,155.5 511.5,155.5C 511.5,141.5 511.5,127.5 511.5,113.5 Z"/></g>
<g><path style="opacity:1" fill="#fefefe" d="M 511.5,156.5 C 525.5,156.5 539.5,156.5 553.5,156.5C 553.5,170.5 553.5,184.5 553.5,198.5C 539.5,198.5 525.5,198.5 511.5,198.5C 511.5,184.5 511.5,170.5 511.5,156.5 Z"/></g>
<g><path style="opacity:1" fill="#fefefe" d="M 511.5,198.5 C 511.5,212.5 511.5,226.5 511.5,240.5C 497.5,240.5 483.5,240.5 469.5,240.5C 469.5,226.5 469.5,212.5 469.5,198.5C 483.5,198.5 497.5,198.5 511.5,198.5 Z"/></g>
<g><path style="opacity:1" fill="#fefefd" d="M 511.5,240.5 C 525.5,240.5 539.5,240.5 553.5,240.5C 553.5,254.5 553.5,268.5 553.5,282.5C 539.5,282.5 525.5,282.5 511.5,282.5C 511.5,268.5 511.5,254.5 511.5,240.5 Z"/></g>
<g><path style="opacity:1" fill="#e3c5a5" d="M 553.5,240.5 C 554.496,254.657 554.829,268.99 554.5,283.5C 540.5,283.5 526.5,283.5 512.5,283.5C 512.167,283.5 511.833,283.5 511.5,283.5C 497.5,283.5 483.5,283.5 469.5,283.5C 483.323,282.504 497.323,282.171 511.5,282.5C 525.5,282.5 539.5,282.5 553.5,282.5C 553.5,268.5 553.5,254.5 553.5,240.5 Z"/></g>
<g><path style="opacity:1" fill="#fefefe" d="M 469.5,283.5 C 483.5,283.5 497.5,283.5 511.5,283.5C 511.5,297.5 511.5,311.5 511.5,325.5C 497.5,325.5 483.5,325.5 469.5,325.5C 469.5,311.5 469.5,297.5 469.5,283.5 Z"/></g>
<g><path style="opacity:1" fill="#d09e68" d="M 511.5,283.5 C 511.833,283.5 512.167,283.5 512.5,283.5C 512.5,297.167 512.5,310.833 512.5,324.5C 526.344,324.171 540.01,324.504 553.5,325.5C 539.5,325.5 525.5,325.5 511.5,325.5C 511.5,311.5 511.5,297.5 511.5,283.5 Z"/></g>
<g><path style="opacity:1" fill="#fefefe" d="M 511.5,325.5 C 525.5,325.5 539.5,325.5 553.5,325.5C 553.5,339.5 553.5,353.5 553.5,367.5C 539.5,367.5 525.5,367.5 511.5,367.5C 511.5,353.5 511.5,339.5 511.5,325.5 Z"/></g>
<g><path style="opacity:1" fill="#fefefe" d="M 511.5,367.5 C 511.5,381.5 511.5,395.5 511.5,409.5C 497.5,409.5 483.5,409.5 469.5,409.5C 469.5,395.5 469.5,381.5 469.5,367.5C 483.5,367.5 497.5,367.5 511.5,367.5 Z"/></g>
<g><path style="opacity:1" fill="#fefefe" d="M 512.5,410.5 C 526.167,410.5 539.833,410.5 553.5,410.5C 553.5,424.167 553.5,437.833 553.5,451.5C 553.5,437.833 553.5,424.167 553.5,410.5C 539.833,410.5 526.167,410.5 512.5,410.5 Z"/></g>
<g><path style="opacity:1" fill="#e2c3a2" d="M 469.5,409.5 C 483.5,409.5 497.5,409.5 511.5,409.5C 525.833,409.5 540.167,409.5 554.5,409.5C 554.829,424.01 554.496,438.343 553.5,452.5C 553.5,452.167 553.5,451.833 553.5,451.5C 553.5,437.833 553.5,424.167 553.5,410.5C 539.833,410.5 526.167,410.5 512.5,410.5C 512.167,410.5 511.833,410.5 511.5,410.5C 497.323,410.829 483.323,410.496 469.5,409.5 Z"/></g>
<g><path style="opacity:1" fill="#f5ebe0" d="M 511.5,410.5 C 511.833,410.5 512.167,410.5 512.5,410.5C 512.5,424.167 512.5,437.833 512.5,451.5C 526.167,451.5 539.833,451.5 553.5,451.5C 553.5,451.833 553.5,452.167 553.5,452.5C 539.5,452.5 525.5,452.5 511.5,452.5C 511.5,438.5 511.5,424.5 511.5,410.5 Z"/></g>
<g><path style="opacity:1" fill="#fefefe" d="M 511.5,452.5 C 511.5,466.5 511.5,480.5 511.5,494.5C 497.5,494.5 483.5,494.5 469.5,494.5C 469.5,480.5 469.5,466.5 469.5,452.5C 483.5,452.5 497.5,452.5 511.5,452.5 Z"/></g>
<g><path style="opacity:1" fill="#fefefe" d="M 511.5,494.5 C 525.5,494.5 539.5,494.5 553.5,494.5C 553.5,508.5 553.5,522.5 553.5,536.5C 539.5,536.5 525.5,536.5 511.5,536.5C 511.5,522.5 511.5,508.5 511.5,494.5 Z"/></g>
<g><path style="opacity:1" fill="#fefdfc" d="M 511.5,536.5 C 511.5,550.833 511.5,565.167 511.5,579.5C 497.5,579.5 483.5,579.5 469.5,579.5C 469.5,565.167 469.5,550.833 469.5,536.5C 483.5,536.5 497.5,536.5 511.5,536.5 Z"/></g>
<g><path style="opacity:1" fill="#fefefe" d="M 511.5,579.5 C 525.5,579.5 539.5,579.5 553.5,579.5C 553.5,593.167 553.5,606.833 553.5,620.5C 560.5,620.5 567.5,620.5 574.5,620.5C 574.984,690.87 574.484,761.204 573,831.5C 570.739,837.21 566.572,840.377 560.5,841C 527.833,841.667 495.167,841.667 462.5,841C 456.725,840.562 452.558,837.729 450,832.5C 448.516,761.87 448.016,691.204 448.5,620.5C 469.5,620.5 490.5,620.5 511.5,620.5C 511.5,606.833 511.5,593.167 511.5,579.5 Z"/></g>
<g><path style="opacity:1" fill="#e3c4a3" d="M 542.5,809.5 C 521.673,810.497 500.673,810.831 479.5,810.5C 479.5,789.167 479.5,767.833 479.5,746.5C 500.833,746.5 522.167,746.5 543.5,746.5C 543.831,767.673 543.497,788.673 542.5,809.5 Z"/></g>
<g><path style="opacity:1" fill="#ca9152" d="M 542.5,809.5 C 521.833,809.5 501.167,809.5 480.5,809.5C 480.5,788.833 480.5,768.167 480.5,747.5C 501.167,747.5 521.833,747.5 542.5,747.5C 542.5,768.167 542.5,788.833 542.5,809.5 Z"/></g>
</svg>
