<svg xmlns="http://www.w3.org/2000/svg" id="svg" width="22" height="22" version="1.1">
<defs id="defs81">
<style id="current-color-scheme" type="text/css">
.ColorScheme-Text{color:#fcfcfc}
</style>
</defs>
<g id="22-22-document-open-recent" transform="translate(3.438 3.438)scale(.6875)">
<path id="rect23-7" d="M-5-5h32v32H-5z" style="opacity:1;fill:none"/>
<path id="path19" d="M.818-.636v23.272h8.727v-1.454H2.273V.818h17.454V11h1.455V-.636H2.273ZM15.364 11a5.805 5.805 0 0 0-5.819 5.818 5.805 5.805 0 0 0 5.819 5.818 5.805 5.805 0 0 0 5.818-5.818A5.805 5.805 0 0 0 15.364 11m0 1.455a4.354 4.354 0 0 1 4.363 4.363 4.354 4.354 0 0 1-4.363 4.364A4.354 4.354 0 0 1 11 16.818a4.354 4.354 0 0 1 4.364-4.363m-1.455 1.454v4.364h2.909v-1.455h-1.454V13.91z" class="ColorScheme-Text" style="opacity:1;fill:currentColor"/>
</g>
</svg>
