<svg xmlns="http://www.w3.org/2000/svg" id="svg4312" width="32" height="32" version="1.1">
<defs id="defs4314">
<style id="current-color-scheme" type="text/css">
.ColorScheme-Text{color:#7b7c7e}.ColorScheme-ButtonFocus{color:#1e92ff}
</style>
</defs>
<g id="layer1" transform="translate(-384 -1019.362)">
<g id="32-32-osd-rotate-normal" style="fill:none" transform="translate(384 1019.362)">
<path id="rect4198" d="M0 0h32v32H0z" style="fill:none"/>
<path id="path4202-9" d="M2 22V4h28v18H19v5h4v1H9v-1h4v-5zm16 0h-4v5h4zM29 5H3v16h26Z" class="ColorScheme-Text" style="color:#7b7c7e;fill:currentColor;fill-opacity:1;fill-rule:evenodd;stroke:none"/>
<path id="path4208" d="M120 39v8h11v-8zm7 1h1v1h-1zm2 0h1v1h-1zm-8 2h9v4h-9zm11 1v1h1v1h-1v1h3v4h-9v-2h-1v3h11v-8zm2 1h1v1h-1z" class="ColorScheme-ButtonFocus" style="color:#3daee6;fill:currentColor;fill-opacity:1;stroke:none" transform="translate(-112 -32)"/>
</g>
</g>
</svg>
