<svg xmlns="http://www.w3.org/2000/svg" id="svg4312" width="32" height="32" version="1.1">
<defs id="defs4314">
<style id="current-color-scheme" type="text/css">
.ColorScheme-Text{color:#7b7c7e}.ColorScheme-ButtonFocus{color:#1e92ff}
</style>
</defs>
<g id="layer1" transform="translate(-112 -636.362)">
<g id="32-32-osd-sbs-left" style="fill:none" transform="translate(112 636.362)">
<path id="rect4196-6" d="M0 0h32v32H0z" style="fill:none"/>
<path id="path4200-0" d="M114 41v14h10v-1h-9V42h9v-1zm11 0v14h17V41Zm1 1h15v12h-15z" class="ColorScheme-Text" style="color:#7b7c7e;fill:currentColor;fill-opacity:1;stroke:none" transform="translate(-112 -32)"/>
<path id="path4204-6" d="M119 44v8h5v-1h-4v-4h4v-3zm8 0v3h4v4h-4v1h5v-8zm1 1h1v1h-1zm2 0h1v1h-1z" class="ColorScheme-ButtonFocus" style="color:#3daee6;fill:currentColor;fill-opacity:1;fill-rule:evenodd;stroke:none" transform="translate(-112 -32)"/>
</g>
</g>
</svg>
