<svg xmlns="http://www.w3.org/2000/svg" id="svg4312" width="32" height="32" version="1.1">
<defs id="defs4314">
<style id="current-color-scheme" type="text/css">
.ColorScheme-Text{color:#7b7c7e}.ColorScheme-ButtonFocus{color:#1e92ff}
</style>
</defs>
<g id="layer1" transform="translate(-384 -635.362)">
<g id="32-32-osd-rotate-ccw" style="fill:none" transform="translate(384 635.362)">
<path id="rect4196" d="M0 0h32v32H0z" style="fill:none"/>
<path id="path4200" d="M2 22V4h28v18H19v5h4v1H9v-1h4v-5zm16 0h-4v5h4zM29 5H3v16h26Z" class="ColorScheme-Text" style="color:#7b7c7e;fill:currentColor;fill-opacity:1;stroke:none"/>
<path id="path4204" d="M121 39v6h6v-2h-2.445c.693-1.19 1.968-2 3.445-2a4 4 0 0 1 0 8v2a6 6 0 1 0-5-9.314V39Z" class="ColorScheme-ButtonFocus" style="color:#3daee6;fill:currentColor;fill-opacity:1;fill-rule:evenodd;stroke:none" transform="translate(-112 -32)"/>
</g>
</g>
</svg>
