<svg xmlns="http://www.w3.org/2000/svg" id="svg4312" width="32" height="32" version="1.1">
<defs id="defs4314">
<style id="current-color-scheme" type="text/css">
.ColorScheme-Text{color:#7b7c7e}.ColorScheme-ButtonFocus{color:#1e92ff}
</style>
</defs>
<g id="layer1" transform="translate(-384 -507.362)">
<g id="32-32-osd-duplicate" style="fill:none" transform="translate(384 507.362)">
<path id="rect4200" d="M0 0h32v32H0z" style="fill:none"/>
<path id="path4202" d="M125 36v9h1v-8h15v12h-9v1h10V36Zm-11 10v14h17V46Zm1 1h15v12h-15z" class="ColorScheme-Text" style="color:#7b7c7e;fill:currentColor;fill-opacity:1;stroke:none" transform="translate(-112 -32)"/>
<path id="path4212" d="M128 39v6h1v-3h9v4h-6v1h7v-8zm7 1h1v1h-1zm2 0h1v1h-1zm-20 9v8h11v-8zm7 1h1v1h-1zm2 0h1v1h-1zm-8 2h9v4h-9z" class="ColorScheme-ButtonFocus" style="color:#3daee6;fill:currentColor;fill-opacity:1;stroke:none" transform="translate(-112 -32)"/>
</g>
</g>
</svg>
