<svg xmlns="http://www.w3.org/2000/svg" id="svg4312" width="32" height="32" version="1.1">
<defs id="defs4314">
<style id="current-color-scheme" type="text/css">
.ColorScheme-Text{color:#7b7c7e}.ColorScheme-ButtonFocus{color:#1e92ff}
</style>
</defs>
<g id="layer1" transform="translate(-384 -763.362)">
<g id="32-32-osd-rotate-cw" style="fill:none" transform="translate(384 763.362)">
<path id="rect4196-3" d="M0 0h32v32H0z" style="fill:none"/>
<path id="path4200-6" d="M2 22V4h28v18H19v5h4v1H9v-1h4v-5zm16 0h-4v5h4zM29 5H3v16h26Z" class="ColorScheme-Text" style="color:#7b7c7e;fill:currentColor;fill-opacity:1;fill-rule:evenodd;stroke:none"/>
<path id="path4204-7" d="M128 39a6 6 0 0 0 0 12v-2a4 4 0 0 1 0-8c1.477 0 2.752.81 3.445 2H129v2h6v-6h-2v2.686A5.99 5.99 0 0 0 128 39" class="ColorScheme-ButtonFocus" style="color:#3daee6;fill:currentColor;fill-opacity:1;fill-rule:evenodd;stroke:none" transform="translate(-112 -32)"/>
</g>
</g>
</svg>
