<svg xmlns="http://www.w3.org/2000/svg" id="svg4312" width="32" height="32" version="1.1">
<defs id="defs4314">
<style id="current-color-scheme" type="text/css">
.ColorScheme-Text{color:#7b7c7e}.ColorScheme-ButtonFocus{color:#1e92ff}
</style>
</defs>
<g id="layer1" transform="translate(-112 -891.362)">
<g id="32-32-osd-shutd-laptop" style="fill:none" transform="translate(112 891.362)">
<path id="rect4198-3" d="M0 0h32v32H0z" style="fill:none"/>
<path id="path4200-7" d="M125 36v9h1v-8h15v12h-9v1h10V36Zm-11 10v14h17V46Zm1 1h15v12h-15z" class="ColorScheme-Text" style="color:#7b7c7e;fill:currentColor;fill-opacity:1;fill-rule:evenodd;stroke:none" transform="translate(-112 -32)"/>
<path id="path4208-5" d="m6.257 18.171 1.414-1.414 2.828 2.828 2.829-2.828 1.414 1.414L11.913 21l2.828 2.828-1.414 1.414-2.828-2.828-2.828 2.828-1.414-1.414L9.085 21z" style="fill:#da4453"/>
<path id="path4210" d="M16 13V7h11v8h-7v-1h6v-4h-9v3zm8-5h-1v1h1zm2 0h-1v1h1z" class="ColorScheme-ButtonFocus" style="color:#3daee6;fill:currentColor;fill-opacity:1;fill-rule:evenodd;stroke:none"/>
</g>
</g>
</svg>
