<svg xmlns="http://www.w3.org/2000/svg" width="16" height="16">
<path fill="#fcfcfc" d="M2.108 1.38c-1.108 0-2 .892-2 2v10c0 1.108.892 2 2 2h1a4 4 0 0 1 .295-1.508c.007-.018.01-.037.018-.055l.025-.049a4 4 0 0 1 .293-.543q.058-.09.121-.177a4 4 0 0 1 .324-.397l.016-.017c.026-.028.045-.063.072-.09.032-.032.07-.056.104-.086a4 4 0 0 1 .39-.32q.096-.07.196-.133a4 4 0 0 1 .486-.264c.031-.014.058-.035.09-.049s.066-.019.097-.031a4 4 0 0 1 .604-.186l.107-.021a4 4 0 0 1 .762-.074 4 4 0 0 1 .254.01 4.5 4.5 0 0 1 .601-1.149 3 3 0 0 1-.855.139q-.617 0-1.164-.235-.547-.242-.953-.648c-.406-.406-.487-.589-.649-.953a2.9 2.9 0 0 1-.234-1.164q0-.618.234-1.164.243-.547.649-.954c.406-.407.588-.484.953-.64a2.8 2.8 0 0 1 1.164-.242q.617 0 1.164.242.547.234.953.64.407.407.64.954.243.546.243 1.164t-.242 1.164c-.037.087-.09.162-.133.244a4.5 4.5 0 0 1 1.234-.361l.008-.024a4 4 0 0 0 .133-1.023q0-.828-.312-1.555a3.9 3.9 0 0 0-.86-1.273 3.9 3.9 0 0 0-1.273-.86 3.9 3.9 0 0 0-1.555-.312 3.95 3.95 0 0 0-1.562.312A4 4 0 0 0 3.42 5.825a3.9 3.9 0 0 0-.31 1.555q-.002.523.13 1.023t.383.953q.258.445.617.82.36.367.812.633-.554.243-1.023.61a5 5 0 0 0-1.46 1.836q-.252.538-.368 1.125h-.094c-.554 0-1-.446-1-1v-10c0-.554.446-1 1-1h10c.554 0 1 .446 1 1v5.257a4.5 4.5 0 0 1 1 .5V3.38c0-1.108-.892-2-2-2z" aria-label="" style="paint-order:stroke fill markers" transform="translate(.892 -.38)"/>
<path fill="#fcfcfc" d="M12.5 9a3.5 3.5 0 1 0 0 7 3.5 3.5 0 0 0 0-7m.914 2.172.707.707L12 14l-1.414-1.414.707-.707.707.707z" style="paint-order:stroke fill markers"/>
</svg>
