<svg xmlns="http://www.w3.org/2000/svg" width="16" height="16">
<path fill="#fcfcfc" d="m7.336 0-.117.002a1 1 0 0 0-.114.008 1.177 1.177 0 0 0-1.007 1.297v.01l.673 4.968-2.63.078-.96-1.677A1.36 1.36 0 0 0 2 4a1 1 0 0 0-1 1v1.567C.42 6.787 0 7.353 0 8c0 .648.42 1.213 1 1.434V11a1 1 0 0 0 1.105.994l.077-.008a1 1 0 0 0 .105-.017 1.36 1.36 0 0 0 .895-.654l.959-1.68 2.63.078-.673 4.992a1 1 0 0 0-.01.133c0 .63.532 1.162 1.162 1.162h.096c.592 0 1.135-.356 1.373-.898h.002l2.49-5.244 2.805.093h.033A1.967 1.967 0 0 0 16 8.001v-.047l-.002-.018a1.965 1.965 0 0 0-2.014-1.885l-2.773.092L8.72.899h-.002A1.51 1.51 0 0 0 7.346 0zm.01 1a.5.5 0 0 1 .459.299l2.783 5.863 3.43-.113a.95.95 0 0 1 .982.92V8a.95.95 0 0 1-.951.951l-3.461-.115-2.783 5.865a.5.5 0 0 1-.46.299H7.25a.16.16 0 0 1-.162-.162l.822-6.092-4.34-.127-1.256 2.2a.36.36 0 0 1-.238.173L2 11V8.566l-.484-.033a.533.533 0 0 1 0-1.066L2 7.432V5c.13 0 .25.069.314.182L3.57 7.38l4.34-.13-.82-6.07A.16.16 0 0 1 7.23 1z"/>
</svg>
