<svg xmlns="http://www.w3.org/2000/svg" width="16" height="16">
<path fill="#fcfcfc" d="m7.336 0-.117.002a1 1 0 0 0-.114.008 1.177 1.177 0 0 0-1.007 1.297v.01l.418 3.078L7.682 5.56 7.09 1.18A.16.16 0 0 1 7.23 1h.116a.5.5 0 0 1 .459.299l2.783 5.863 3.43-.113a.95.95 0 0 1 .982.92V8a.95.95 0 0 1-.951.951L10.97 8.85l1.035 1.035 2.01.066h.033A1.967 1.967 0 0 0 16 8v-.046l-.002-.018a1.965 1.965 0 0 0-2.014-1.885l-2.773.092L8.721.898h-.002A1.51 1.51 0 0 0 7.346 0zM2 4a1 1 0 0 0-1 1v1.566C.42 6.787 0 7.353 0 8c0 .648.42 1.213 1 1.434V11a1 1 0 0 0 1.106.994l.076-.008a1 1 0 0 0 .105-.017 1.36 1.36 0 0 0 .895-.655l.959-1.68 2.63.079-.673 4.992a1 1 0 0 0-.01.133c0 .63.532 1.162 1.162 1.162h.096c.592 0 1.135-.356 1.373-.898h.002L11 10.295l-.75-.75-2.446 5.156a.5.5 0 0 1-.46.3H7.25a.16.16 0 0 1-.162-.163l.822-6.092-4.34-.127-1.256 2.2a.36.36 0 0 1-.238.173L2 11V8.566l-.484-.033a.533.533 0 0 1 0-1.066L2 7.432V5c.13 0 .25.07.314.182L3.57 7.38l4.34-.129-.008-.057L6.736 6.03l.035.256-2.63.078-.96-1.677A1.36 1.36 0 0 0 2 4"/>
<path fill="#fcfcfc" d="m1.636.929 13.435 13.435a.499.499 0 1 1-.707.707L.929 1.636a.499.499 0 1 1 .707-.707"/>
</svg>
