<svg xmlns="http://www.w3.org/2000/svg" id="svg2" width="32" height="32" version="1.1">
<defs id="defs3051">
<style id="current-color-scheme" type="text/css">
.ColorScheme-Text{color:#fcfcfc}
</style>
</defs>
<g id="akonadi" transform="translate(-22)">
<path id="path12" d="M38 4a12 3 0 0 0-12 3v18a12 3 0 0 0 12 3 12 3 0 0 0 12-3V7a12 3 0 0 0-12-3m0 1a11 2 0 0 1 11 2 11 2 0 0 1-11 2 11 2 0 0 1-11-2 11 2 0 0 1 11-2m11 3.191V13a11 2 0 0 1-11 2 11 2 0 0 1-11-2V8.195A12 3 0 0 0 38 10a12 3 0 0 0 11-1.809m0 6V19a11 2 0 0 1-11 2 11 2 0 0 1-11-2v-4.805A12 3 0 0 0 38 16a12 3 0 0 0 11-1.809m0 6V25a11 2 0 0 1-11 2 11 2 0 0 1-11-2v-4.805A12 3 0 0 0 38 22a12 3 0 0 0 11-1.809" class="ColorScheme-Text" style="fill:currentColor;fill-opacity:1;stroke:none"/>
<path id="path14" d="M22 0v32h32V0Z" style="opacity:1;fill:none"/>
</g>
</svg>
