<svg xmlns="http://www.w3.org/2000/svg" id="svg2" width="32" height="32" version="1.1">
<defs id="defs3051">
<style id="current-color-scheme" type="text/css">
.ColorScheme-Text{color:#fcfcfc}
</style>
</defs>
<g id="akregator" transform="translate(-22)">
<path id="path12" d="M26 4v4a20 20 0 0 1 20 20h4A24 24 0 0 0 26 4m0 8v4a12 12 0 0 1 12 12h4a16 16 0 0 0-16-16m3.5 9a3.5 3.5 0 0 0-3.5 3.5 3.5 3.5 0 0 0 3.5 3.5 3.5 3.5 0 0 0 3.5-3.5 3.5 3.5 0 0 0-3.5-3.5" class="ColorScheme-Text" style="fill:currentColor;fill-opacity:1;stroke:none"/>
<path id="path14" d="M22 0v32h32V0Z" style="opacity:1;fill:none"/>
</g>
</svg>
