<svg xmlns="http://www.w3.org/2000/svg" id="svg2" width="32" height="32" version="1.1">
<defs id="defs3051">
<style id="current-color-scheme" type="text/css">
.ColorScheme-Text{color:#fcfcfc}
</style>
</defs>
<g id="amarok" transform="translate(-22)">
<path id="path12" d="M38 4.002c-6.627 0-12 5.37-12 11.998s5.373 12 12 12 12-5.373 12-12c0-1.918-.45-3.732-1.251-5.34-.01-.017-.035-.042-.043-.058l.009-.004c.277-.327.421-.701.421-1.065 0-.263-.103-.535-.194-.74l.009.006s-.001-.185-.114-.447a2.2 2.2 0 0 0-.261-.45s-.357.055-.563.093c-.194.035-.709.32-.77.353-2.569-2.516-5.117-4.41-9.243-4.346m.3.6a11.1 11.1 0 0 1 8.408 3.873c-1.158.286-2.98.95-3.618 1.11-.743.186-1.09.353-2.281.24-1.357-.129-1.965-.138-2.322-.128-.535-.047-.806-.164-.806-.164l.047.526c-.356.271-1.07.665-2.54 1.064-.955.106-1.75-.186-2.227.08-.477.264-1.991.926-2.76 1.112-.77.185-1.338.536-1.801.687-.733.238 1.451 3.74 2.4 4.2l-.601.624c-.66.45-1.181.48-1.181.48l.034.36a6 6 0 0 1-.881.379 11.3 11.3 0 0 1-.671-3.795 11.25 11.25 0 0 1 1.655-5.842 11.1 11.1 0 0 1 9.144-4.806m9.975 6.249a11.1 11.1 0 0 1 1.125 4.851 11.1 11.1 0 0 1-4.987 9.256c-.966.564-2.01.982-3.1 1.237.047-.351.092-.711.127-1.069.26-.383.61-.39.61-.39s-.45-1.273-.405-2.808c.056-.364.15-.709.27-1.035h.453s-.057-.626.199-1.262c.843-1.281 1.993-2.136 2.484-2.513.463-.356 2.6-.902 3.05-1.008.451-.106.877-.823.904-1.035.026-.212-.135-.61-.135-.61l-.639-.144c.16.113.067.226-.2.273a2 2 0 0 1-.337.023s-.14-.545-.29-.591c-.13-.04-.467.387-.462.533a2.3 2.3 0 0 1-.393-.097 7 7 0 0 0-.861-.243s.45-1.013 1.087-2.007c.406-.633 1.062-1.094 1.5-1.361m-8.227.234a3.7 3.7 0 0 1 1.271.211s.07.683-1.978 1.908c-.628.375-2.278.623-2.278.623s-.036-.863.59-1.611c.75-.894 1.666-1.124 2.395-1.13m-9.407 1.9a.6.6 0 0 1 .158.017c.3.093.956 1.285.6 1.797l.601.6c1.2-1.2 2.991-.362 3.3.453.426 1.13.337.995-1.434 1.253-.75.11-2.28-.163-2.885-.627-.604-.465-2.16-2.923-2.028-3.054.115-.115 1.214-.426 1.688-.439m17.26.9c-.1.036-.192.463-.192.463s.078.041.483-.012c.109-.027-.19-.487-.29-.451" class="ColorScheme-Text" style="fill:currentColor;fill-opacity:1;stroke:none"/>
<path id="path14" d="M22 0v32h32V0Z" style="opacity:1;fill:none"/>
</g>
</svg>
