<svg xmlns="http://www.w3.org/2000/svg" id="svg3613" width="32" height="32" version="1.1">
<defs id="defs3615">
<style id="current-color-scheme" type="text/css">
.ColorScheme-Text{color:#fcfcfc}
</style>
</defs>
<g id="applications-other" transform="translate(-22)">
<path id="rect2994" d="M22 0h32v32H22z" style="opacity:.01;fill:#000;fill-opacity:.00392157;stroke:none"/>
<path id="path829" fill="currentColor" d="M45.841 3.651a2.25 2.25 0 0 0-3.182 0L38.5 7.811V7.25A2.25 2.25 0 0 0 36.25 5h-7A2.25 2.25 0 0 0 27 7.25v18c0 .967.784 1.75 1.75 1.75h18A2.25 2.25 0 0 0 49 24.75v-7.004a2.25 2.25 0 0 0-2.25-2.25h-.556l4.155-4.155a2.25 2.25 0 0 0 0-3.182zm-3.535 11.845H38.5V11.69zM43.72 4.712a.75.75 0 0 1 1.06 0l4.508 4.508a.75.75 0 0 1 0 1.06l-4.508 4.51a.75.75 0 0 1-1.06 0l-4.508-4.509a.75.75 0 0 1 0-1.06zM37 7.25v8.246h-8.5V7.25a.75.75 0 0 1 .75-.75h7a.75.75 0 0 1 .75.75m-8.5 17.5v-7.754H37V25.5h-7.75a.75.75 0 0 1-.75-.75m10-7.754h8.25a.75.75 0 0 1 .75.75v7.004a.75.75 0 0 1-.75.75H38.5Z" class="ColorScheme-Text"/>
</g>
</svg>
