<svg xmlns="http://www.w3.org/2000/svg" width="16" height="16">
<path fill="#fcfcfc" d="m10.478 4.004-.072.008v.008a.5.5 0 0 0-.25.156L7.5 6.824 5.843 5.176c-.314-.514-1.2.373-.687.687l2 2a.5.5 0 0 0 .687 0l3-3a.5.5 0 0 0-.365-.859"/>
<path fill="#f55f55" d="M12.5 9a3.5 3.5 0 1 0 0 7 3.5 3.5 0 0 0 0-7m-.5 1h1v3h-1zm0 4h1v1h-1z" class="error" overflow="visible"/>
<path fill="#fcfcfc" d="M7.463 0A7.5 7.5 0 0 0 0 7.5 7.5 7.5 0 0 0 7.5 15a7.5 7.5 0 0 0 1.197-.096 4.5 4.5 0 0 1-.455-.947A7 7 0 0 1 7.5 14 6.5 6.5 0 0 1 1 7.5 6.5 6.5 0 0 1 7.5 1 6.5 6.5 0 0 1 14 7.5a7 7 0 0 1-.043.744 4.5 4.5 0 0 1 .947.453A7.5 7.5 0 0 0 15 7.5 7.5 7.5 0 0 0 7.5 0z"/>
</svg>
