<svg xmlns="http://www.w3.org/2000/svg" width="22" height="22">
<style id="current-color-scheme" type="text/css">
.ColorScheme-Text{color:#fcfcfc}
</style>
<path fill="currentColor" fill-rule="evenodd" d="M10.27 17a2 2 0 0 0-.27 1 2 2 0 0 0 2 2 2 2 0 0 0 2-2 2 2 0 0 0-.271-1zM12 4a1 1 0 0 0-1 1 1 1 0 0 0 .01.129A4 4 0 0 0 8 9c0 3-1 4-3 6v1h14v-1c-2-2-3-3-3-6a4 4 0 0 0-3.01-3.871A1 1 0 0 0 13 5a1 1 0 0 0-1-1m0 2a3 3 0 0 1 3 3c0 3 .586 4 2.586 6H6.414C8.414 13 9 12 9 9a3 3 0 0 1 3-3" class="ColorScheme-Text"/>
</svg>
