<svg xmlns="http://www.w3.org/2000/svg" id="svg2" width="32" height="32" version="1.1">
<defs id="defs3051">
<style id="current-color-scheme" type="text/css">
.ColorScheme-Text{color:#fcfcfc}
</style>
</defs>
<g id="apport" transform="translate(-22)">
<path id="path12" d="M29 8v2h2V8Zm2 2v3h3v-3zm3 0h2V8h-2zm0 3v2h2v-2zm-3 0h-2v2h2zm9-5v2h2V8Zm2 2v3h3v-3zm3 0h2V8h-2zm0 3v2h2v-2zm-3 0h-2v2h2zm-8 5v2h8v-2zm8 2v2h2v-2zm2 2v2h2v-2Zm-10-2h-2v2h2zm-2 2h-2v2h2z" class="ColorScheme-Text" style="fill:currentColor;fill-opacity:1;stroke:none"/>
<path id="path14" d="M22 0v32h32V0Z" style="fill:none"/>
<path id="rect410" d="M30 4c-2.216 0-4 1.784-4 4v16c0 2.216 1.784 4 4 4h16c2.216 0 4-1.784 4-4V8c0-2.216-1.784-4-4-4Zm0 1h16c1.662 0 3 1.338 3 3v16c0 1.662-1.338 3-3 3H30c-1.662 0-3-1.338-3-3V8c0-1.662 1.338-3 3-3" class="ColorScheme-Text" style="fill:currentColor;fill-opacity:1;stroke:none"/>
</g>
</svg>
