<svg xmlns="http://www.w3.org/2000/svg" width="16" height="16">
<path fill="#fcfcfc" d="M8 0a8 8 0 0 0-8 8 8 8 0 0 0 8 8 8 8 0 0 0 8-8 8 8 0 0 0-8-8m-.094 1H8a7 7 0 0 1 7 7 7 7 0 0 1-7 7 7 7 0 0 1-7-7 7 7 0 0 1 6.906-7"/>
<path fill="#fcfcfc" d="M5.129 5.214a4 4 0 0 0-.575 4.818L6.586 8l-.707-.707-.873.873a3 3 0 0 1 .837-2.251l.036-.036a3 3 0 0 1 3.412-.584l.74-.74a4 4 0 0 0-4.86.617zm.84 6.232a4 4 0 0 0 4.86-.618 4 4 0 0 0 .615-4.858L9.414 8l.707.707.873-.873a3 3 0 0 1-.873 2.287 3 3 0 0 1-3.412.585z"/>
</svg>
