<svg width="24" height="24" viewBox="0 0 24 24" fill="none" xmlns="http://www.w3.org/2000/svg"><defs>
<style id="current-color-scheme" type="text/css">.ColorScheme-Text { color:#ffffff; }</style>
</defs>
<g opacity="0.90">
<path class="ColorScheme-Text" d="M3.5 16.05C2.39543 16.05 1.5 15.1546 1.5 14.05V9.95C1.5 8.84543 2.39543 7.95 3.5 7.95H5.71079C5.976 7.95 6.23036 7.84464 6.41789 7.65711L11.7214 2.35355C12.0364 2.03857 12.575 2.26165 12.575 2.70711V21.2929C12.575 21.7383 12.0364 21.9614 11.7214 21.6464L6.41789 16.3429C6.23036 16.1554 5.976 16.05 5.71079 16.05H3.5Z" fill="currentColor"/>
</g>
<path d="M14.575 8.79792V15.0307C14.575 15.7743 15.3581 16.2384 15.8996 15.7288C16.2143 15.4326 16.4954 15.0974 16.7431 14.723C17.2977 13.8845 17.575 12.9478 17.575 11.9131C17.575 10.8784 17.2977 9.94175 16.7431 9.10325C16.4987 8.73379 16.2217 8.40069 15.912 8.10397C15.3701 7.58465 14.575 8.04734 14.575 8.79792Z" fill="url(#paint0_linear_52_94)"/>
<path d="M14.575 19.6891V21.2418C14.575 21.5567 14.8632 21.7939 15.1684 21.7161C17.2675 21.181 19.0072 20.0631 20.3875 18.3625C21.8958 16.5042 22.65 14.375 22.65 11.975C22.65 9.55833 21.8958 7.42917 20.3875 5.5875C19.0079 3.90302 17.2693 2.78672 15.1716 2.2386C14.8655 2.15862 14.575 2.39608 14.575 2.71243V4.2625C14.575 4.59583 14.7965 4.88571 15.1094 5.00063C16.4687 5.49989 17.5989 6.33301 18.5 7.5C19.5167 8.81667 20.025 10.3083 20.025 11.975C20.025 13.6417 19.5208 15.1333 18.5125 16.45C17.6181 17.6179 16.4844 18.4514 15.1115 18.9505C14.7975 19.0646 14.575 19.355 14.575 19.6891Z" fill="url(#paint1_linear_52_94)"/>
<rect width="24" height="24" fill="#A4A4A4" fill-opacity="0.01"/>
<defs>
<linearGradient id="paint0_linear_52_94" x1="23.5319" y1="-0.798168" x2="6.51414" y2="5.75641" gradientUnits="userSpaceOnUse">
<stop stop-color="#73CFFB"/>
<stop offset="1" stop-color="#3EAAE5"/>
</linearGradient>
<linearGradient id="paint1_linear_52_94" x1="23.4573" y1="0.124993" x2="6.85327" y2="6.91353" gradientUnits="userSpaceOnUse">
<stop stop-color="#73CFFB"/>
<stop offset="1" stop-color="#3EAAE5"/>
</linearGradient>
</defs>
</svg>
