<svg xmlns="http://www.w3.org/2000/svg" width="16" height="16">
<path fill="#fcfcfc" d="M10.959 3.044q.492.494.868 1.071.383.57.64 1.204.266.633.4 1.313a6.7 6.7 0 0 1 0 2.744 6.7 6.7 0 0 1-.4 1.305 6.9 6.9 0 0 1-1.508 2.274l-.711-.71a5.9 5.9 0 0 0 1.297-1.947q.461-1.102.461-2.298c0-1.196-.153-1.563-.46-2.298a5.9 5.9 0 0 0-1.298-1.946zM8.833 5.17q.562.564.868 1.298c.306.734.304 1 .304 1.532a4 4 0 0 1-.304 1.532q-.306.735-.868 1.297l-.703-.703q.42-.422.648-.97A3 3 0 0 0 9.005 8q0-.601-.227-1.15a2.9 2.9 0 0 0-.648-.976zm-3.54-3.173h.71v12.006h-.71L2.29 11.002H0V4.999h2.29zm-.29 1.712-2.29 2.29H1v4.002h1.712l2.29 2.29z" aria-label="î§" style="paint-order:stroke fill markers" transform="matrix(-1 0 0 1 16.001 0)"/>
<path fill="#fcfcfc" d="M2.924.926A9.6 9.6 0 0 0 1.68 2.45a10 10 0 0 0-.922 1.728q-.375.9-.563 1.868a9.9 9.9 0 0 0 0 3.916A9.8 9.8 0 0 0 1.68 13.55q.54.82 1.243 1.524l.703-.704a8.7 8.7 0 0 1-1.117-1.368q-.493-.742-.829-1.555c-.336-.813-.393-1.102-.508-1.68a8.8 8.8 0 0 1 0-3.526A8.9 8.9 0 0 1 2.51 3.005 8.6 8.6 0 0 1 3.627 1.63z" opacity=".35" style="paint-order:stroke fill markers"/>
</svg>
