<svg xmlns="http://www.w3.org/2000/svg" width="16" height="16">
<path fill="#fcfcfc" d="M8.833 5.17q.563.564.867 1.298c.304.734.305 1 .305 1.532A4 4 0 0 1 9.7 9.532q-.305.735-.867 1.297l-.704-.703q.422-.422.65-.97A3 3 0 0 0 9.004 8q0-.601-.227-1.15a2.9 2.9 0 0 0-.649-.976zM5.292 1.997h.711v12.006h-.711l-3.001-3.001H0V4.999h2.29zm-.29 1.712-2.29 2.29h-1.71v4.002h1.712l2.29 2.29z" aria-label="î§" style="paint-order:stroke fill markers" transform="matrix(-1 0 0 1 16.001 0)"/>
<path fill="#fcfcfc" d="M2.924.926A9.6 9.6 0 0 0 1.68 2.45a10 10 0 0 0-.923 1.728q-.375.9-.562 1.868a9.9 9.9 0 0 0 0 3.916A9.8 9.8 0 0 0 1.68 13.55q.54.82 1.243 1.524l.703-.704a8.7 8.7 0 0 1-1.118-1.368q-.492-.742-.828-1.555c-.336-.813-.394-1.102-.508-1.68a8.8 8.8 0 0 1 0-3.526 8.9 8.9 0 0 1 1.336-3.236A8.6 8.6 0 0 1 3.627 1.63zm2.118 2.118a6.6 6.6 0 0 0-.868 1.071 6.7 6.7 0 0 0-.64 1.204q-.266.633-.4 1.313a6.7 6.7 0 0 0 0 2.744q.134.672.4 1.305a6.9 6.9 0 0 0 1.508 2.274l.711-.71a5.9 5.9 0 0 1-1.297-1.947Q3.994 9.196 3.994 8c0-1.196.154-1.563.462-2.298a5.9 5.9 0 0 1 1.297-1.946z" opacity=".35" style="paint-order:stroke fill markers"/>
</svg>
