<svg xmlns="http://www.w3.org/2000/svg" width="16" height="16">
<path fill="#fcfcfc" d="M9.646 5.647a.5.5 0 0 1 .707 0L12 7.292l1.646-1.647a.5.5 0 1 1 .707.708L12.708 8l1.646 1.646a.5.5 0 1 1-.707.708L12 8.707l-1.646 1.647a.5.5 0 1 1-.708-.708L11.293 8 9.646 6.354a.5.5 0 0 1 0-.708"/>
<path fill="#fcfcfc" d="M6.098 2.713a1 1 0 0 0-.805.289L3.297 5H2C.91 5 0 5.91 0 7v2c0 1.09.91 2 2 2h1.297l1.996 1.998A1 1 0 0 0 7 12.291V3.709a1 1 0 0 0-.617-.924 1 1 0 0 0-.285-.072M6 3.709v8.582L3.71 10H2c-.554 0-1-.446-1-1V7c0-.554.446-1 1-1h1.71z" color="#000" style="-inkscape-stroke:none;paint-order:stroke fill markers"/>
</svg>
