<svg xmlns="http://www.w3.org/2000/svg" width="16" height="16">
<rect width="3" height="8" x="6" y="2" fill="#fcfcfc" opacity=".35" rx="0" ry="0" style="paint-order:stroke fill markers"/>
<path fill="#fcfcfc" d="M5.5 0q-.312 0-.586.117c-.274.117-.341.185-.476.32A1.5 1.5 0 0 0 4 1.5v9q0 .313.117.586a1.5 1.5 0 0 0 .797.797Q5.188 12 5.5 12h4q.313 0 .586-.117a1.5 1.5 0 0 0 .797-.797Q11 10.812 11 10.5v-9q0-.312-.117-.586a1.5 1.5 0 0 0-.797-.797A1.5 1.5 0 0 0 9.5 0zm0 1h4q.203 0 .352.148c.149.148.148.217.148.352v9a.48.48 0 0 1-.148.352A.48.48 0 0 1 9.5 11h-4a.48.48 0 0 1-.352-.148A.48.48 0 0 1 5 10.5v-9q0-.203.148-.352C5.296 1 5.365 1 5.5 1M2 8v2.613A3.38 3.38 0 0 0 5.387 14H7v1H5v1h5v-1H8v-1h1.613A3.38 3.38 0 0 0 13 10.613V8h-1v2.635A2.36 2.36 0 0 1 9.635 13h-4.27A2.36 2.36 0 0 1 3 10.635V8z" aria-label="" style="paint-order:stroke fill markers"/>
</svg>
