<svg xmlns="http://www.w3.org/2000/svg" width="16" height="16">
<path fill="#fcfcfc" d="M13.077.926q.703.704 1.243 1.524.547.821.922 1.728.375.899.563 1.868Q16 7.007 16 8t-.195 1.962q-.188.961-.563 1.868-.375.899-.922 1.72-.54.82-1.243 1.524l-.703-.704q.633-.633 1.117-1.368.493-.742.829-1.555t.508-1.68q.18-.876.18-1.767t-.18-1.759q-.172-.875-.508-1.688t-.829-1.548q-.484-.742-1.117-1.375zm-2.118 2.118q.492.493.867 1.071.383.57.641 1.204.266.633.399 1.313.14.68.14 1.368 0 .696-.14 1.376-.133.672-.399 1.305-.258.633-.64 1.211-.376.571-.868 1.063l-.711-.71q.844-.845 1.297-1.947.461-1.102.461-2.298t-.461-2.298q-.453-1.102-1.297-1.946zM8.833 5.17q.563.563.867 1.298T10.005 8 9.7 9.532q-.304.735-.867 1.297l-.704-.703q.422-.422.65-.97.226-.554.226-1.156t-.227-1.15q-.227-.554-.649-.976zM5.292 1.997h.711v12.006h-.711l-3.001-3.001H0V4.999h2.29zm-.29 1.712-2.29 2.29h-1.71v4.002h1.712l2.29 2.29z" aria-label="î§" style="paint-order:stroke fill markers" transform="matrix(-1 0 0 1 16.001 0)"/>
</svg>
