<svg xmlns="http://www.w3.org/2000/svg" width="16" height="16">
<path fill="#fcfcfc" d="M6.098 2.713a1 1 0 0 0-.805.289L3.297 5H2C.91 5 0 5.91 0 7v2c0 1.09.91 2 2 2h1.297l1.996 1.998A1 1 0 0 0 7 12.291V3.709a1 1 0 0 0-.617-.924 1 1 0 0 0-.285-.072M6 3.709v8.582L3.71 10H2c-.554 0-1-.446-1-1V7c0-.554.446-1 1-1h1.71z" color="#000" style="-inkscape-stroke:none;paint-order:stroke fill markers"/>
<rect width="1" height="10" x="12" y="3" fill="#fcfcfc" fill-rule="evenodd" rx="0" ry="0" style="paint-order:stroke fill markers"/>
<rect width="1" height="14" x="15.002" y="1" fill="#fcfcfc" fill-rule="evenodd" rx="0" ry="0" style="paint-order:stroke fill markers"/>
<rect width="1" height="6" x="9" y="5" fill="#fcfcfc" fill-rule="evenodd" rx="0" ry="0" style="paint-order:stroke fill markers"/>
</svg>
