<svg xmlns="http://www.w3.org/2000/svg" width="16" height="16">
<path fill="#fcfcfc" d="M4 7v3h2V7zm3 0v2h2V7zm3 0v3h.17c.3-.855.975-1.53 1.83-1.83V7zm-3 3v3h2v-3zm-3 1v2h2v-2z" class="ColorScheme-Text" color="#fcfcfc"/>
<path fill="#fcfcfc" d="M6 1 2 5v8c0 1.108.892 2 2 2h5v-1H4c-.554 0-1-.446-1-1V5.414L6.414 2H12c.554 0 1 .446 1 1v5h1V3c0-1.108-.892-2-2-2z"/>
<path fill="#fcfcfc" d="M13 9c-1.108 0-2 .892-2 2v1c-.554 0-1 .446-1 1v2c0 .554.446 1 1 1h4c.554 0 1-.446 1-1v-2c0-.554-.446-1-1-1v-1c0-1.108-.892-2-2-2m0 1c.554 0 1 .446 1 1v1h-2v-1c0-.554.446-1 1-1m-2 3h4v2h-4z" style="paint-order:stroke fill markers"/>
</svg>
