<svg xmlns="http://www.w3.org/2000/svg" width="16" height="16">
<path fill="#fcfcfc" d="M8.152 3.006a3 3 0 0 0-1.3.223A3.005 3.005 0 0 0 5 6h2c0-.407.24-.768.617-.924a.99.99 0 0 1 1.09.217.99.99 0 0 1 .216 1.09A.99.99 0 0 1 8 7a1 1 0 0 0-1 1v2h2V8.82a3 3 0 0 0 1.771-1.672 3.01 3.01 0 0 0-.65-3.27 3 3 0 0 0-1.97-.872zM8 11a1 1 0 0 0-1 1 1 1 0 0 0 1 1 1 1 0 0 0 1-1 1 1 0 0 0-1-1" color="#000" font-family="sans-serif" font-weight="400" overflow="visible" style="font-feature-settings:normal;font-variant-alternates:normal;font-variant-caps:normal;font-variant-ligatures:normal;font-variant-numeric:normal;font-variant-position:normal;isolation:auto;mix-blend-mode:normal;shape-padding:0;text-decoration-color:#000;text-decoration-line:none;text-decoration-style:solid;text-indent:0;text-orientation:mixed;text-transform:none;white-space:normal"/>
<path fill="#fcfcfc" d="M6 1 2 5v8c0 1.108.892 2 2 2h8c1.108 0 2-.892 2-2V3c0-1.108-.892-2-2-2zm.414 1H12c.554 0 1 .446 1 1v10c0 .554-.446 1-1 1H4c-.554 0-1-.446-1-1V5.414zM4 7v3h2V7zm7.865 0A4 4 0 0 1 10 9.453V10h2V7zM4 11v2h2v-2zm6 0v2h2v-2z" class="ColorScheme-Text" color="#fcfcfc" opacity=".35"/>
</svg>
