<svg xmlns="http://www.w3.org/2000/svg" width="16" height="16">
<path fill="#fcfcfc" d="M7.99 0C3.583.004-.004 3.603 0 8.01v5.986A2.02 2.02 0 0 0 2.004 16h.008A2.013 2.013 0 0 0 4 13.996 2.02 2.02 0 0 0 6.004 16h.008A2.013 2.013 0 0 0 8 13.996 2.02 2.02 0 0 0 10.004 16h.008A2.013 2.013 0 0 0 12 13.996 2.02 2.02 0 0 0 14.004 16h.008A2.013 2.013 0 0 0 16 13.988v-5.98C16 3.597 12.404 0 7.992 0zm.002 1A7.007 7.007 0 0 1 15 8.008v5.988c.004.55-.445 1-.996 1.004-.555 0-1.004-.45-1.004-1.004v-.992c.004-.55-.445-1-.996-1.004-.555 0-1.004.45-1.004 1.004v.992c.004.55-.445 1-.996 1.004C9.449 15 9 14.55 9 13.996v-.992c.004-.55-.445-1-.996-1.004C7.449 12 7 12.45 7 13.004v.992c.004.55-.445 1-.996 1.004C5.449 15 5 14.55 5 13.996v-.992c.004-.55-.445-1-.996-1.004C3.449 12 3 12.45 3 13.004v.992c.004.55-.445 1-.996 1.004C1.449 15 1 14.55 1 13.996V8.008A7 7 0 0 1 7.992 1M6 5c-.555 0-1 .445-1 1v1c0 .555.445 1 1 1s1-.445 1-1V6c0-.555-.445-1-1-1m4 0c-.555 0-1 .445-1 1v1c0 .555.445 1 1 1s1-.445 1-1V6c0-.555-.445-1-1-1m-6 7.996V13h-.004c.011 0 .004-.007.004-.004m4 0V13h-.004c.011 0 .004-.007.004-.004m4 0V13h-.004c.011 0 .004-.007.004-.004"/>
</svg>
