<svg width="24" height="24" viewBox="0 0 24 24" fill="none" xmlns="http://www.w3.org/2000/svg">
<rect width="24" height="24" fill="#A4A4A4" fill-opacity="0.01"/>
<path opacity="0.9" fill-rule="evenodd" clip-rule="evenodd" d="M6.47349 22.4923C6.78916 22.8308 7.16948 23 7.61446 23H16.3855C16.8305 23 17.2108 22.8308 17.5265 22.4923C17.8422 22.1538 18 21.746 18 21.2688V3.75059C18 3.27344 17.8422 2.86563 17.5265 2.52715C17.2108 2.18867 16.8305 2.01943 16.3855 2.01943H15.25C15.1119 2.01943 15 1.9075 15 1.76943V1.52381C15 1.23452 14.7761 1 14.5 1H9.5C9.22386 1 9 1.23452 9 1.52381V1.76943C9 1.9075 8.88807 2.01943 8.75 2.01943H7.61446C7.16948 2.01943 6.78916 2.18867 6.47349 2.52715C6.15783 2.86563 6 3.27344 6 3.75059V21.2688C6 21.746 6.15783 22.1538 6.47349 22.4923ZM8 3.09524C7.44772 3.09524 7 3.56427 7 4.14286V20.9048C7 21.4833 7.44772 21.9524 8 21.9524H16C16.5523 21.9524 17 21.4833 17 20.9048V4.14286C17 3.56427 16.5523 3.09524 16 3.09524H8Z" fill="white"/>
<path fill-rule="evenodd" clip-rule="evenodd" d="M8 7.39999V20.2C8 20.6418 8.35817 21 8.8 21H15.2C15.6418 21 16 20.6418 16 20.2V7.39999H8Z" fill="url(#paint0_linear_87_96)"/>
<g opacity="0.3">
<path d="M8 4.8C8 4.35817 8.35817 4 8.8 4H15.2C15.6418 4 16 4.35817 16 4.8V7.4H8V4.8Z" fill="white"/>
<path d="M8 4.8C8 4.35817 8.35817 4 8.8 4H15.2C15.6418 4 16 4.35817 16 4.8V7.4H8V4.8Z" fill="url(#paint1_linear_87_96)"/>
</g>
<defs>
<linearGradient id="paint0_linear_87_96" x1="15.75" y1="7.42384" x2="7.7683" y2="10.3247" gradientUnits="userSpaceOnUse">
<stop stop-color="#73CFFB"/>
<stop offset="1" stop-color="#3EAAE5"/>
</linearGradient>
<linearGradient id="paint1_linear_87_96" x1="15.75" y1="0.611923" x2="9.83774" y2="4.90939" gradientUnits="userSpaceOnUse">
<stop stop-color="#73CFFB"/>
<stop offset="1" stop-color="#3EAAE5"/>
</linearGradient>
</defs>
</svg>
