<svg xmlns="http://www.w3.org/2000/svg" width="16" height="16">
<path fill="#f55" d="M7.334 5q.74 0 1.203.44Q9 5.87 9 6.544q0 .292-.154.594c-.154.302-.194.343-.276.43a7 7 0 0 1-.326.318l-.039.04q-.495.447-.496.893v.327h-.766v-.383q0-.366.155-.625.154-.27.545-.627.22-.204.308-.301a1.2 1.2 0 0 0 .188-.283.8.8 0 0 0 .097-.383q0-.375-.244-.602-.235-.227-.658-.228-.7 0-.959.781l-.7-.293a2.05 2.05 0 0 1 .587-.83Q6.684 5 7.334 5m-.008 4.895q.236 0 .39.162.164.162.163.39c-.001.228-.054.282-.162.39q-.155.164-.39.163c-.236-.001-.29-.054-.4-.162q-.153-.164-.154-.39c0-.227.052-.283.155-.391a.54.54 0 0 1 .398-.162" class="error"/>
<path fill="#fcfcfc" d="M3 3C1.338 3 0 4.338 0 6v4c0 1.662 1.338 3 3 3h9c1.662 0 3-1.338 3-3V9h1V7h-1V6c0-1.662-1.338-3-3-3zm0 1h9c1.108 0 1.925.895 2 2v4c0 1.108-.892 2-2 2H3c-1.108 0-2-.892-2-2V6c0-1.108.892-2 2-2" class="ColorScheme-Text" color="#333"/>
</svg>
