<svg xmlns="http://www.w3.org/2000/svg" width="22" height="22">
<defs id="defs1">
<style id="current-color-scheme" type="text/css">
.ColorScheme-Text{color:#fcfcfc}.ColorScheme-PositiveText{color:#27ae60}
</style>
</defs>
<path fill-rule="evenodd" d="M3 7v8h6L7 7zM1 5v12h19v-4h.5c.277 0 .5-.223.5-.5v-3c0-.277-.223-.5-.5-.5H20V5H4zm1 1h17v10H2z" class="ColorScheme-Text" style="fill:currentColor;fill-opacity:1;stroke:none"/>
<path fill="currentColor" d="M12 8a3 3 0 0 0-2.826 2H8v2h1.176A3 3 0 0 0 12 14v-1h2v-1h-2v-2h2V9h-2z" class="ColorScheme-PositiveText"/>
</svg>
