<svg xmlns="http://www.w3.org/2000/svg" width="16" height="16">
<path fill="#fcfcfc" d="M6 5.5c0 .403-.077.803-.219 1.18a3.4 3.4 0 0 1-.566 1.027c-.249.307-.551.57-.889.781l-.006.004-.004.002c-.097.06-.214.076-.316.125V11h2c.554 0 1-.446 1-1V6c0-.554-.446-1-1-1z" style="paint-order:stroke fill markers"/>
<path fill="#fcfcfc" d="M6 3v1h6c1.108 0 1.925.895 2 2v4c0 1.108-.892 2-2 2H4v1h8c1.662 0 3-1.338 3-3V9h1V7h-1V6c0-1.662-1.338-3-3-3z" class="ColorScheme-Text" color="#333"/>
<g style="paint-order:stroke fill markers">
<path fill="#fcfcfc" d="M5.07 5.5q0 .438-.157.844-.14.405-.406.734c-.266.33-.39.406-.64.563q-.36.218-.797.312V13h-1V7.953a2.7 2.7 0 0 1-.813-.312A2.7 2.7 0 0 1 .21 6.344 2.6 2.6 0 0 1 .07 5.5V3h1V1h1v2h1V1h1v2h1zm-4 0q0 .624.437 1.063c.437.439.646.437 1.063.437s.77-.146 1.062-.437.438-.646.438-1.063V4h-3z" aria-label="" color="#000" style="-inkscape-stroke:none" transform="translate(-.07)"/>
</g>
</svg>
