<svg width="24" height="24" viewBox="0 0 24 24" fill="none" xmlns="http://www.w3.org/2000/svg">
<rect width="24" height="24" fill="#A4A4A4" fill-opacity="0.01"/>
<path fill-rule="evenodd" clip-rule="evenodd" d="M6.47349 22.4923C6.78916 22.8308 7.16948 23 7.61446 23H16.3855C16.8305 23 17.2108 22.8308 17.5265 22.4923C17.8422 22.1538 18 21.746 18 21.2688V3.75059C18 3.27344 17.8422 2.86563 17.5265 2.52715C17.2108 2.18867 16.8305 2.01943 16.3855 2.01943H15.25C15.1119 2.01943 15 1.9075 15 1.76943V1.52381C15 1.23452 14.7761 1 14.5 1H9.5C9.22386 1 9 1.23452 9 1.52381V1.76943C9 1.9075 8.88807 2.01943 8.75 2.01943H7.61446C7.16948 2.01943 6.78916 2.18867 6.47349 2.52715C6.15783 2.86563 6 3.27344 6 3.75059V21.2688C6 21.746 6.15783 22.1538 6.47349 22.4923ZM8 3.09524C7.44772 3.09524 7 3.56427 7 4.14286V20.9048C7 21.4833 7.44772 21.9524 8 21.9524H16C16.5523 21.9524 17 21.4833 17 20.9048V4.14286C17 3.56427 16.5523 3.09524 16 3.09524H8Z" fill="white"/>
<path opacity="0.3" d="M8 5C8 4.44772 8.44772 4 9 4H15C15.5523 4 16 4.44772 16 5V20C16 20.5523 15.5523 21 15 21H9C8.44772 21 8 20.5523 8 20V5Z" fill="url(#paint0_linear_87_10)"/>
<defs>
<linearGradient id="paint0_linear_87_10" x1="14.3653" y1="3.80569" x2="2.93834" y2="7.40364" gradientUnits="userSpaceOnUse">
<stop stop-color="#FB7373"/>
<stop offset="1" stop-color="#E53E3E"/>
</linearGradient>
</defs>
</svg>
