<svg xmlns="http://www.w3.org/2000/svg" width="16" height="16">
<path fill="#d33636" d="M5.232 5.732a.499.499 0 0 0-.354.854L6.294 8 4.879 9.414a.499.499 0 1 0 .707.707L7 8.707l1.414 1.414a.499.499 0 1 0 .707-.707L7.707 8l1.414-1.414a.499.499 0 1 0-.707-.707L7 7.293 5.586 5.879a.5.5 0 0 0-.354-.147" style="paint-order:fill markers stroke"/>
<path fill="#d33636" d="M2 3C.892 3 0 3.892 0 5v6c0 1.108.892 2 2 2h11c1.108 0 2-.892 2-2V9h1V7h-1V5c0-1.108-.892-2-2-2zm0 1h11c.554 0 1 .446 1 1v6c0 .554-.446 1-1 1H2c-.554 0-1-.446-1-1V5c0-.554.446-1 1-1" style="paint-order:stroke fill markers"/>
</svg>
