<svg xmlns="http://www.w3.org/2000/svg" id="svg199" width="32" height="32" version="1.0">
<defs id="defs3">
<style id="current-color-scheme" type="text/css">
.ColorScheme-Text{color:#333}
</style>
</defs>
<g id="Battery" transform="translate(32 34)">
<path id="rect1246" d="M-32-34H0v32h-32z" style="fill:none;stroke-width:1.96956;stroke-linecap:round;stroke-linejoin:round"/>
<path id="rect23262" fill="currentColor" d="M-26-25c-1.662 0-3 1.338-3 3v8c0 1.662 1.338 3 3 3h18c1.662 0 3-1.338 3-3v-2h1c.554 0 1-.446 1-1v-2c0-.554-.446-1-1-1h-1v-2c0-1.662-1.338-3-3-3zm0 1h18c1.108 0 2 .892 2 2v8c0 1.108-.892 2-2 2h-18c-1.108 0-2-.892-2-2v-8c0-1.108.892-2 2-2" class="ColorScheme-Text"/>
</g>
</svg>
