<svg xmlns="http://www.w3.org/2000/svg" width="16" height="16">
<path fill="#fcfcfc" d="M12.949 9c-1.084.027-1.95.926-1.95 2.03V12c-.553 0-1 .446-1 1v2c0 .554.447 1 1 1h4c.555 0 1-.446 1-1v-2c0-.554-.445-1-1-1v-.97C15 9.91 14.109 9 13 9zm.05.998c.555 0 1 .443 1 1v1h-2v-1c0-.557.447-1 1-1M11 13h4v2h-4z" color="#000" style="-inkscape-stroke:none"/>
<path fill="#fcfcfc" d="M7.47 0A.5.5 0 0 0 7 .5v6.328l-2.191-1.72a.499.499 0 1 0-.618.785L6.873 8l-2.682 2.107a.499.499 0 1 0 .618.786L7 9.172V15.5a.5.5 0 0 0 .873.332L9 14.564V13.06l-1 1.125V8.887l2.049 1.607c.063-.352.187-.684.361-.984L8.49 8l3.319-2.608a.5.5 0 0 0 .064-.724l-4-4.5A.5.5 0 0 0 7.471 0zM8 1.815l2.773 3.12L8 7.114z"/>
</svg>
