<svg xmlns="http://www.w3.org/2000/svg" width="16" height="16">
<path fill="#fcfcfc" d="M7.48 1.002a.5.5 0 0 0-.185.043A.5.5 0 0 0 7 1.5V6h1V2.613l3.17 2.817-.912.57h1.887l.12-.076a.5.5 0 0 0 .067-.797l-4.5-4a.5.5 0 0 0-.352-.125M4.085 5.006a.5.5 0 0 0-.508.228.5.5 0 0 0 .158.69l.12.076h1.89l-1.48-.924a.5.5 0 0 0-.181-.07M3.855 10l-.12.076a.5.5 0 0 0-.159.69.5.5 0 0 0 .69.158L5.744 10zM7 10v4.5a.5.5 0 0 0 .832.373l4.5-4a.5.5 0 0 0-.066-.797L12.145 10h-1.887l.912.57L8 13.387V10z" opacity=".35"/>
<circle cx="8" cy="8" r="1" fill="#fcfcfc"/>
<circle cx="4" cy="8" r="1" fill="#fcfcfc"/>
<circle cx="12" cy="8" r="1" fill="#fcfcfc"/>
</svg>
