<svg xmlns="http://www.w3.org/2000/svg" width="16" height="16">
<path fill="#fcfcfc" d="M8.5 1.5a.5.5 0 0 0-1 0v1a.5.5 0 0 0 1 0zM3.757 3.05a.5.5 0 0 0-.707.707l.707.707a.5.5 0 0 0 .708-.707zm9.193.707a.5.5 0 1 0-.707-.707l-.708.707a.5.5 0 0 0 .708.707zM1.5 7.5a.5.5 0 0 0 0 1h1a.5.5 0 0 0 0-1zm12 0a.5.5 0 0 0 0 1h1a.5.5 0 0 0 0-1zm-9.036 4.743a.5.5 0 1 0-.707-.708l-.707.708a.5.5 0 1 0 .707.707zm7.778-.708a.5.5 0 0 0-.707.708l.707.707a.5.5 0 1 0 .707-.707zM8.5 13.5a.5.5 0 0 0-1 0v1a.5.5 0 0 0 1 0zM8 4a4 4 0 1 0 0 8 4 4 0 0 0 0-8M5 8a3 3 0 1 1 6 0 3 3 0 0 1-6 0"/>
</svg>
