<svg xmlns="http://www.w3.org/2000/svg" width="16" height="16" version="1">
<g fill="#fcfcfc" opacity=".3">
<path d="M11.016 4c1.543 1.051 2.416 2.367 2.416 2.367a1 1 0 0 1 .105.91 1 1 0 0 1 .413.225c-.004-.004.05.034.05.033V4zM14 11.346q-.643.357-1.35.654H14z" opacity=".35"/>
<path d="M6.915 3.728c-.089.004-.147.01-.236.017v.002c-.757.069-1.492.302-2.166.613s-1.288.7-1.808 1.081C1.664 6.203 1 6.93 1 6.93s.715 2.3 2.516 3.883a6.5 6.5 0 0 0 1.092.773q.3.166.63.3c.44.176.92.299 1.44.355.2.022.374.036.586.036 2.197 0 6.073-1.272 7.736-2.85-.244-.28-1.431-.92-1.722-1.183C11.53 9.954 9.723 11.4 7.226 11.4a4 4 0 0 1-.547-.042 3.9 3.9 0 0 1-1.515-.554 5 5 0 0 1-1.135-.984 7 7 0 0 1-.561-.75v-.002a8 8 0 0 1-.419-.731v-.002a9 9 0 0 1-.285-.626v-.002a7 7 0 0 1-.218-.604 5 5 0 0 1 .588-.735q.195-.21.454-.438l.002-.002c.04-.034.092-.067.133-.101.689-.569 1.668-1.137 2.956-1.249.088-.006.146-.013.236-.016 2.476-.088 4.1 2.412 4.1 2.412s-1.751 2.76-3.632 2.76c-.271 0-.486-.05-.703-.133a2 2 0 0 1-.45-.239 2.5 2.5 0 0 1-.372-.316 3.5 3.5 0 0 1-.543-.74 4.4 4.4 0 0 1-.389-.923s.785-1.026 1.752-.894h.002c.963.133 1.129.615 1.709 1.71l1.286-1.232s-.94-1.399-2.526-1.399a4.4 4.4 0 0 0-1.711.382 5 5 0 0 0-.938.546c-.516.376-.801.724-.801.724s.094.382.334.885c.028.06.069.128.101.19.15.29.337.6.587.9.153.183.324.36.518.52a3.24 3.24 0 0 0 1.44.695c.217.044.418.068.664.068 2.683 0 5.26-3.551 5.26-3.551s-2.243-3.33-5.687-3.199z"/>
<path d="M8 2c-.554 0-1 .446-1 1v1.111L7.375 4 8 4.18V3h7v10H8v-1H7v1c0 .554.446 1 1 1h7c.554 0 1-.446 1-1V3c0-.554-.446-1-1-1z"/>
</g>
</svg>
