<svg xmlns="http://www.w3.org/2000/svg" width="16" height="16">
<g fill="#fcfcfc" fill-rule="evenodd">
<path d="M841.5-114a.5.5 0 1 0 0 1h3.793l-4.793 4.793-4.646-4.647a.5.5 0 1 0-.707.708l5.353 5.353 5.5-5.5v3.793a.5.5 0 1 0 1 0v-5.5z" color="#000" font-family="sans-serif" font-weight="400" overflow="visible" style="line-height:normal;font-variant-ligatures:normal;font-variant-position:normal;font-variant-caps:normal;font-variant-numeric:normal;font-variant-alternates:normal;font-feature-settings:normal;text-indent:0;text-align:start;text-decoration-line:none;text-decoration-style:solid;text-decoration-color:#000;text-transform:none;text-orientation:mixed;shape-padding:0;isolation:auto;mix-blend-mode:normal" transform="translate(-833 115)"/>
<path d="M1 14c0 1 1 1 1 1h2s1 0 1-1v-.5C5 12 7 12 7 12h2s2 0 2 1.5v.5c0 1 1 1 1 1h2s1 0 1-1v-1c0-3.5-5.5-3-5.5-3h-3S1 9.5 1 13z" opacity=".4"/>
</g>
</svg>
