<svg xmlns="http://www.w3.org/2000/svg" viewBox="0 0 22 22">
<style id="current-color-scheme" type="text/css">
.ColorScheme-Text{color:#fcfcfc}.ColorScheme-NegativeText{color:#da4453}
</style>
<path d="M11 4a6 6 0 0 0-3.69 1.293l.704.703A5 5 0 0 1 11 5a5 5 0 0 1 3.092 1.084 5 5 0 0 1 .199.164 5 5 0 0 1 .184.172 5 5 0 0 1 .183.187 5 5 0 0 1 .178.202 5 5 0 0 1 .156.191H18v1h-1v4h1v1h-2.984l1 1H18c.554 0 1-.446 1-1V7c0-.554-.446-1-1-1h-2.537A6 6 0 0 0 11 4M3.986 6.002A.997.997 0 0 0 3 7v6c0 .554.446 1 1 1h2.537A6 6 0 0 0 11 16a6 6 0 0 0 2.45-.535l-.764-.764A5 5 0 0 1 11 15a5 5 0 0 1-3.092-1.084 5 5 0 0 1-.199-.164 5 5 0 0 1-.184-.172 5 5 0 0 1-.183-.187 5 5 0 0 1-.178-.202A5 5 0 0 1 7.008 13H4v-1h1V8H4V7h.984zM11 16c-.554 0-1 .446-1 1 0 .028.013.052.016.08C8.394 17.311 7 18 7 18v1h8v-1s-1.394-.689-3.016-.92c.003-.028.016-.052.016-.08 0-.554-.446-1-1-1m0-9a3 3 0 0 0-1.549.436l4.113 4.113A3 3 0 0 0 14 10a3 3 0 0 0-3-3m-3 3.016A3 3 0 0 0 10.984 13z" class="ColorScheme-Text" style="fill:currentColor;fill-opacity:1;stroke:none"/>
<path d="M-.5 4.743h1V26.37h-1z" class="ColorScheme-NegativeText" style="fill:currentColor;fill-opacity:1;stroke:none" transform="rotate(-45)"/>
</svg>
