<svg xmlns="http://www.w3.org/2000/svg" width="16" height="16">
<g fill="#fcfcfc" stroke-linecap="round" stroke-linejoin="round" opacity=".35">
<path d="M10.5 6A3.5 3.5 0 0 0 7 9.5a3.5 3.5 0 0 0 3.5 3.5A3.5 3.5 0 0 0 14 9.5 3.5 3.5 0 0 0 10.5 6m0 1A2.5 2.5 0 0 1 13 9.5a2.5 2.5 0 0 1-2.5 2.5A2.5 2.5 0 0 1 8 9.5 2.5 2.5 0 0 1 10.5 7"/>
<path d="M2 4C.892 4 0 4.892 0 6v7c0 1.108.892 2 2 2h12c1.108 0 2-.892 2-2V6c0-1.108-.892-2-2-2zm0 1h12c.554 0 1 .446 1 1v7c0 .554-.446 1-1 1H2c-.554 0-1-.446-1-1V6c0-.554.446-1 1-1"/>
<rect width="6" height="1" x="7" y="2" rx="0" ry="0"/>
<rect width="2" height="1" x="2" y="6" rx="0" ry="0"/>
</g>
<rect width="20" height="1" x="1.514" y="-.7" fill="#fcfcfc" rx=".5" ry=".5" style="paint-order:markers stroke fill" transform="rotate(45)"/>
</svg>
