<svg xmlns="http://www.w3.org/2000/svg" viewBox="0 0 22 22">
<defs id="defs3051">
<style id="current-color-scheme" type="text/css">
.ColorScheme-Text{color:#fcfcfc}.ColorScheme-NegativeText{color:#da4453}
</style>
</defs>
<path d="M11 4a6 6 0 0 0-4.453 2H4c-.554 0-1 .446-1 1v6c0 .554.446 1 1 1h2.537A6 6 0 0 0 11 16a6 6 0 0 0 4.453-2H18c.554 0 1-.446 1-1V7c0-.554-.446-1-1-1h-2.537A6 6 0 0 0 11 4m0 12c-.554 0-1 .446-1 1 0 .028.013.052.016.08C8.394 17.311 7 18 7 18v1h8v-1s-1.394-.689-3.016-.92c.003-.028.016-.052.016-.08 0-.554-.446-1-1-1m0-11a5 5 0 0 1 3.092 1.084 5 5 0 0 1 .199.164 5 5 0 0 1 .184.172 5 5 0 0 1 .183.187 5 5 0 0 1 .178.202 5 5 0 0 1 .156.191H18v1h-1v4h1v1h-3.008a5 5 0 0 1-1.002 1A5 5 0 0 1 11 15a5 5 0 0 1-3.092-1.084 5 5 0 0 1-.199-.164 5 5 0 0 1-.184-.172 5 5 0 0 1-.183-.187 5 5 0 0 1-.178-.202A5 5 0 0 1 7.008 13H4v-1h1V8H4V7h3.008a5 5 0 0 1 .32-.385A5 5 0 0 1 8.01 6 5 5 0 0 1 11 5" class="ColorScheme-Text" style="fill:currentColor;fill-opacity:1;stroke:none"/>
<path d="M11 7a3 3 0 0 0-3 3 3 3 0 0 0 3 3 3 3 0 0 0 3-3 3 3 0 0 0-3-3" class="ColorScheme-NegativeText" style="fill:currentColor;fill-opacity:1;stroke:none"/>
</svg>
