<svg xmlns="http://www.w3.org/2000/svg" width="16" height="16">
<path fill="#fcfcfc" d="M8 0C5.784 0 4 1.784 4 4v.885l1 1V4c0-1.662 1.338-3 3-3s3 1.338 3 3v2H5.115l1 1H12c.554 0 1 .446 1 1v5a.98.98 0 0 1-.246.639l.715.714c.328-.356.531-.829.531-1.353V8c0-1.108-.892-2-2-2V4c0-2.216-1.784-4-4-4M3.44 6.09A1.99 1.99 0 0 0 2 8v5c0 1.108.892 2 2 2h8c.109 0 .214-.015.318-.031L11.35 14H4c-.554 0-1-.446-1-1V8c0-.554.446-1 1-1h.35z"/>
<path fill="#c6262e" d="m1.44.56-.883.882 14 14 .883-.882z" class="error" color="#fcfcfc" overflow="visible" style="isolation:auto;mix-blend-mode:normal"/>
</svg>
