<svg xmlns="http://www.w3.org/2000/svg" width="16" height="16">
<path fill="#fcfcfc" d="M5.5 0c-.656 0-1.211.416-1.416 1H3c-1.108 0-2 .892-2 2v10c0 1.108.892 2 2 2h2.5a.499.499 0 1 0 0-1H3c-.554 0-1-.446-1-1V3c0-.554.446-1 1-1h1.084c.205.584.76 1 1.416 1h3c.656 0 1.211-.416 1.416-1H11c.554 0 1 .446 1 1v.5a.499.499 0 1 0 1 0V3c0-1.108-.892-2-2-2H9.916C9.711.416 9.156 0 8.5 0zm0 1h3a.499.499 0 1 1 0 1h-3a.499.499 0 1 1 0-1m-1.441.08q-.017.058-.028.117l-.013.069.013-.069q.012-.06.028-.117m5.882 0q.016.059.028.117l.013.069-.013-.069zm-5.923.654.013.069zm5.964 0-.013.069z" style="paint-order:stroke fill markers"/>
<path fill="#fcfcfc" d="M9 5c-1.108 0-2 .892-2 2v6c0 1.108.892 2 2 2h4c1.108 0 2-.892 2-2V7c0-1.108-.892-2-2-2zm.5 2h3a.499.499 0 1 1 0 1h-3a.499.499 0 1 1 0-1m0 2h3a.499.499 0 1 1 0 1h-3a.499.499 0 1 1 0-1m0 2h2a.499.499 0 1 1 0 1h-2a.499.499 0 1 1 0-1" style="paint-order:stroke fill markers"/>
</svg>
