<svg xmlns="http://www.w3.org/2000/svg" id="svg2" width="32" height="32" version="1.0">
<defs id="defs5">
<style id="current-color-scheme" type="text/css">
.ColorScheme-Text{color:#fcfcfc}
</style>
</defs>
<g id="computer-laptop" transform="translate(45 35)">
<rect id="rect3081" width="32" height="32" x="-45" y="-35" rx="0" ry="0" style="fill:none"/>
<path id="path3083" fill="currentColor" d="M-37-30c-2.77 0-5 2.23-5 5v10c0 2.77 2.23 5 5 5h16c2.77 0 5-2.23 5-5v-10c0-2.77-2.23-5-5-5zm0 1h16c2.216 0 4 1.784 4 4v10c0 2.216-1.784 4-4 4h-16c-2.216 0-4-1.784-4-4v-10c0-2.216 1.784-4 4-4" class="ColorScheme-Text"/>
<rect id="rect3085" width="26" height="1" x="-42" y="-10" fill="currentColor" class="ColorScheme-Text" rx=".5" ry=".5"/>
</g>
</svg>
