<svg xmlns="http://www.w3.org/2000/svg" id="svg" width="32" height="32" version="1.1">
<defs id="defs3">
<style id="current-color-scheme" type="text/css">
.ColorScheme-Text{color:#333}
</style>
</defs>
<g id="configure">
<path id="path7" fill="none" d="M0 0v32h32V0Z"/>
<path id="path1325" fill="currentColor" d="M15.227 4a2.55 2.55 0 0 0-2.55 2.557l-.001.004a2.136 2.136 0 0 1-2.13 2.097h-.003c-.35-.004-.697-.1-1.004-.281l-.01-.006c-1.212-.695-2.794-.263-3.49.945l-.807 1.327-.011.021a2.58 2.58 0 0 0 .925 3.486l.004.006a2.133 2.133 0 0 1 0 3.692c-1.204.696-1.624 2.276-.93 3.48l.003.002.757 1.307.012.023.004.002a2.563 2.563 0 0 0 3.486.99l.01-.005a2.12 2.12 0 0 1 1.602-.215h.002c.54.144 1 .501 1.281.99l.006.01c.18.306.277.653.281 1.006v.004c0 1.4 1.165 2.558 2.563 2.558h1.537a2.58 2.58 0 0 0 2.558-2.54v-.013a2.123 2.123 0 0 1 2.13-2.127c.359.01.709.108 1.019.285a2.58 2.58 0 0 0 3.49-.931l-.02.033.02-.03.803-1.337.017-.028.01-.03a2.55 2.55 0 0 0-.953-3.448 2.117 2.117 0 0 1-.774-2.903 1 1 0 0 0 .106-.392l-.102.384a2.1 2.1 0 0 1 .768-.767l.006-.004a2.58 2.58 0 0 0 .932-3.478l-.032-.061-.736-1.275a2.58 2.58 0 0 0-3.49-.943l-.008.005a2.12 2.12 0 0 1-2.898-.76l-.003-.003a2.04 2.04 0 0 1-.283-1.012l-.002-.008a2.56 2.56 0 0 0-.72-1.842A2.56 2.56 0 0 0 16.764 4Zm0 1h1.537a1.56 1.56 0 0 1 1.56 1.637c.006.531.152 1.052.422 1.51a3.13 3.13 0 0 0 4.268 1.117 1.55 1.55 0 0 1 2.127.574l.736 1.275q.012.03.027.057c.429.75.178 1.683-.568 2.12a3.1 3.1 0 0 0-1.135 1.136v.002a3.12 3.12 0 0 0-.32 2.373c.214.802.74 1.486 1.459 1.9a1.55 1.55 0 0 1 .568 2.117v.006l-.804 1.338-.006.01a1.55 1.55 0 0 1-2.127.568l-.004-.004a3.2 3.2 0 0 0-1.506-.418 3.126 3.126 0 0 0-3.137 3.135A1.55 1.55 0 0 1 16.764 27h-1.537a1.55 1.55 0 0 1-1.563-1.568 3.04 3.04 0 0 0-.42-1.508 3.11 3.11 0 0 0-4.252-1.145 1.55 1.55 0 0 1-1.187.139 1.56 1.56 0 0 1-.94-.742l-.006-.016-.773-1.332a1.537 1.537 0 0 1 .564-2.115A3.14 3.14 0 0 0 8.217 16c0-1.117-.6-2.152-1.567-2.71v-.003a1.547 1.547 0 0 1-.564-2.125l.81-1.332.01-.016a1.55 1.55 0 0 1 2.127-.576 3.04 3.04 0 0 0 1.514.42 3.14 3.14 0 0 0 3.129-3.101A1.547 1.547 0 0 1 15.226 5M16 12a4 4 0 0 0-4 4 4 4 0 0 0 4 4 4 4 0 0 0 4-4 4 4 0 0 0-4-4m0 1a3 3 0 0 1 3 3 3 3 0 0 1-3 3 3 3 0 0 1-3-3 3 3 0 0 1 3-3m10.785 8.295-.004.012-.008.011q.007-.01.012-.023" class="ColorScheme-Text"/>
</g>
</svg>
