<svg xmlns="http://www.w3.org/2000/svg" width="16" height="16">
<path fill="#f55" d="M14 3.5a2.5 2.5 0 0 1-5 0 2.5 2.5 0 1 1 5 0" class="error"/>
<path fill="#fcfcfc" d="M7.994 1C4.768 1 2.123 3.451 2 6.568l-.004.225V10.4l-.924 2.221-.043.127-.021.127c-.05.464.193.882.603 1.053l.125.043a1 1 0 0 0 .26.033H4V14h1.178A3 3 0 0 0 8 16a3 3 0 0 0 2.822-2H13v.004h.998l.135-.01.115-.027c.453-.13.75-.515.75-.963l-.01-.131-.013-.086a1 1 0 0 0-.053-.166l-.926-2.223V6.803l-.004-.225-.014-.223a6 6 0 0 0-.04-.355 3.5 3.5 0 0 1-.946.654l.004.158V10.5l.04.191.962 2.313-.045.002H11V13h-1v.006l-4-.002V13H5v.004H1.996l.963-2.313.037-.191V6.803L3 6.598l.014-.213C3.224 3.923 5.372 2 7.994 2q.171 0 .34.012a3.5 3.5 0 0 1 .643-.934A6 6 0 0 0 7.994 1M6.275 14h3.45A2 2 0 0 1 8 15a2 2 0 0 1-1.725-1"/>
</svg>
