<svg xmlns="http://www.w3.org/2000/svg" viewBox="0 0 16 16">
<defs id="defs3051">
<style id="current-color-scheme" type="text/css">
.ColorScheme-Text{color:#fcfcfc}
</style>
</defs>
<path d="M5.83 3.03v1.09H2.012v1.085h6.095a8.6 8.6 0 0 1-1.73 2.926 8.5 8.5 0 0 1-1.26-1.828H4.025A9.6 9.6 0 0 0 5.652 8.79l-2.777 2.738.775.776 2.73-2.728 1.695 1.697.414-1.113-1.386-1.37.015-.017a9.6 9.6 0 0 0 2.026-3.562h1.597V4.119H6.922V3.03zm4.639 4.365L8.014 13.94h1.091l.612-1.636h2.592l.617 1.636h1.09L11.56 7.395zm.545 1.457.884 2.36h-1.767z" class="ColorScheme-Text" style="fill:currentColor;fill-opacity:1;stroke:none"/>
</svg>
