<svg xmlns="http://www.w3.org/2000/svg" width="16" height="16">
<g fill="#fcfcfc">
<path fill-rule="evenodd" d="M513-176v1h15v-1z" color="#000" font-family="sans-serif" font-weight="400" overflow="visible" style="line-height:normal;font-variant-ligatures:normal;font-variant-position:normal;font-variant-caps:normal;font-variant-numeric:normal;font-variant-alternates:normal;font-feature-settings:normal;text-indent:0;text-align:start;text-decoration-line:none;text-decoration-style:solid;text-decoration-color:#000;text-transform:none;text-orientation:mixed;shape-padding:0;isolation:auto;mix-blend-mode:normal" transform="translate(-513 191)"/>
<path d="M2.551 9.049a.5.5 0 0 0-.353.148.5.5 0 0 0 0 .707l.707.707a.5.5 0 0 0 .707 0 .5.5 0 0 0 0-.707l-.707-.707a.5.5 0 0 0-.354-.148m9.898.002a.5.5 0 0 0-.353.146l-.707.707a.5.5 0 1 0 .707.707l.707-.707a.499.499 0 0 0-.354-.853M7.5 10c-2.314 0-4.197 1.753-4.449 4h8.898c-.251-2.247-2.135-4-4.449-4m-7 3a.5.5 0 1 0 0 1h1a.5.5 0 1 0 0-1zm13 0a.5.5 0 1 0 0 1h1a.5.5 0 1 0 0-1zm-6-11.5L4 6h3v2.5a.5.5 0 1 0 1 0V6h3z"/>
</g>
</svg>
