<svg xmlns="http://www.w3.org/2000/svg" width="16" height="16">
<g fill="#fcfcfc">
<path fill-rule="evenodd" d="M533-176v1h15v-1z" color="#000" font-family="sans-serif" font-weight="400" overflow="visible" style="line-height:normal;font-variant-ligatures:normal;font-variant-position:normal;font-variant-caps:normal;font-variant-numeric:normal;font-variant-alternates:normal;font-feature-settings:normal;text-indent:0;text-align:start;text-decoration-line:none;text-decoration-style:solid;text-decoration-color:#000;text-transform:none;text-orientation:mixed;shape-padding:0;isolation:auto;mix-blend-mode:normal" transform="translate(-533 191)"/>
<path d="M7.5 6c-.277 0-.5.223-.5.5V9H4l3.5 4.5L11.063 9H8V6.5a.5.5 0 0 0-.5-.5"/>
<path d="M.5 1a.5.5 0 1 0 0 1h1a.5.5 0 1 0 0-1zm2.551 0c.252 2.247 2.135 4 4.45 4 2.313 0 4.196-1.753 4.448-4zm10.45 0a.5.5 0 1 0 0 1h1a.5.5 0 1 0 0-1zm-1.759 3.242a.499.499 0 0 0-.354.854l.708.707a.5.5 0 0 0 .707 0 .5.5 0 0 0 0-.707l-.707-.707a.5.5 0 0 0-.354-.147m-8.58.01a.5.5 0 0 0-.258.137l-.707.707a.5.5 0 0 0 0 .707.5.5 0 0 0 .354.148.5.5 0 0 0 .353-.148l.708-.707a.499.499 0 0 0-.45-.844" class="warning"/>
</g>
</svg>
