<svg xmlns="http://www.w3.org/2000/svg" id="svg69" width="32" height="32" version="1.1">
<defs id="defs3">
<style id="current-color-scheme" type="text/css">
.ColorScheme-Text{color:#fcfcfc}
</style>
</defs>
<g id="disk-quota-low" transform="translate(-32 -31)">
<path id="path982" fill="currentColor" d="M41 35c-1.108 0-2 .892-2 2v20c0 1.108.892 2 2 2h14c1.108 0 2-.892 2-2V37c0-1.108-.892-2-2-2zm0 1h14c.554 0 1 .446 1 1v6.174A3 3 0 0 0 54 46a3 3 0 0 0 2 2.828V55c0 .554-.446 1-1 1H41c-.554 0-1-.446-1-1v-6.172A3 3 0 0 0 42 46a3 3 0 0 0-2-2.826V37c0-.554.446-1 1-1m.488 1a.5.5 0 0 0-.488.5.5.5 0 0 0 .5.5.5.5 0 0 0 .5-.5.5.5 0 0 0-.5-.5zm13 0a.5.5 0 0 0-.488.5.5.5 0 0 0 .5.5.5.5 0 0 0 .5-.5.5.5 0 0 0-.5-.5zM40 44.27A2 2 0 0 1 41 46a2 2 0 0 1-1 1.73Zm16 0v3.46A2 2 0 0 1 55 46a2 2 0 0 1 1-1.73M41.488 54a.5.5 0 0 0-.488.5.5.5 0 0 0 .5.5.5.5 0 0 0 .5-.5.5.5 0 0 0-.5-.5zm13 0a.5.5 0 0 0-.488.5.5.5 0 0 0 .5.5.5.5 0 0 0 .5-.5.5.5 0 0 0-.5-.5zM42.5 57h6a.499.499 0 1 1 0 1h-6a.499.499 0 1 1 0-1m9 0h2a.499.499 0 1 1 0 1h-2a.499.499 0 1 1 0-1" class="ColorScheme-Text"/>
<rect id="rect984" width="32" height="32" x="32" y="31" fill="none" ry="0" style="fill:none;stroke-width:1.45455"/>
<path id="path1027" fill="#ff7800" d="M48 42c-1.657 0-3 .448-3 1v5c0 .552 1.343 1 3 1s3-.448 3-1v-5c0-.552-1.343-1-3-1m0 1c.74 0 1.451.093 2 .258v.486c-.55.165-1.262.256-2 .256-.74 0-1.451-.093-2-.258v-.486c.55-.165 1.262-.256 2-.256m-2 1.744c.55.165 1.262.256 2 .256s1.45-.091 2-.256v1c-.55.165-1.262.256-2 .256-.74 0-1.451-.093-2-.258z" class="ColorScheme-NeutralText"/>
</g>
</svg>
