<svg xmlns="http://www.w3.org/2000/svg" viewBox="0 0 22 22">
<defs id="defs1">
<style id="current-color-scheme" type="text/css">
.ColorScheme-Text{color:#fcfcfc}.ColorScheme-NegativeText{color:#da4453}
</style>
</defs>
<path d="M16 12c-1.657 0-3 .448-3 1v5c0 .552 1.343 1 3 1s3-.448 3-1v-5c0-.552-1.343-1-3-1m0 1c.74 0 1.451.093 2 .258v.486c-.55.165-1.262.256-2 .256-.74 0-1.451-.093-2-.258v-.486c.55-.165 1.262-.256 2-.256M9 6v5h2V6Zm0 6v2h2v-2z" class="ColorScheme-NegativeText" style="fill:currentColor;fill-opacity:1;stroke:none"/>
<path d="M4 3v16h8v-3H7l-2-2v-2.1c.6-.2 1-.8 1-1.4s-.4-1.2-1-1.4V7c0-1.7 1.3-3 3-3h4c1.66 0 3 1.34 3 3v2.1c-.6.2-1 .8-1 1.4 0 .2 0 .3.1.5H16V3Zm2 14h5v1H6Z" class="ColorScheme-Text" style="fill:currentColor;fill-opacity:1;stroke:none"/>
</svg>
