<svg xmlns="http://www.w3.org/2000/svg" width="16" height="16">
<path fill="#fcfcfc" d="M8 1a.5.5 0 0 0-.5.5v1a.5.5 0 0 0 1 0v-1A.5.5 0 0 0 8 1M3.404 2.904a.498.498 0 0 0-.353.854l.707.707a.5.5 0 1 0 .707-.707l-.707-.707a.5.5 0 0 0-.354-.147m9.192 0a.5.5 0 0 0-.354.147l-.707.707a.5.5 0 0 0 .707.707l.707-.707a.5.5 0 0 0-.353-.854M8 4c-.554 0-1.082.112-1.562.316l.787.788Q7.597 5.002 8 5a3 3 0 0 1 2.896 3.775l.788.787A4 4 0 0 0 8 4m-2.45.844A3.99 3.99 0 0 0 4 8a4 4 0 0 0 4 4 3.99 3.99 0 0 0 3.156-1.55l-.713-.714A3 3 0 0 1 8 11a3 3 0 0 1-3-3c0-1.009.5-1.9 1.264-2.443zM1.5 7.5a.5.5 0 0 0 0 1h1a.5.5 0 0 0 0-1zm12 0a.5.5 0 0 0 0 1h1a.5.5 0 0 0 0-1zm-9.389 3.889a.5.5 0 0 0-.353.146l-.707.707a.5.5 0 1 0 .707.707l.707-.707a.5.5 0 0 0-.354-.853m7.778 0a.499.499 0 0 0-.354.853l.707.707a.5.5 0 1 0 .707-.707l-.707-.707a.5.5 0 0 0-.353-.146M7.999 13a.5.5 0 0 0-.5.5v1a.5.5 0 0 0 1 0v-1A.5.5 0 0 0 8 13"/>
<path fill="#fcfcfc" d="m1.636.929 13.435 13.435a.499.499 0 1 1-.707.707L.929 1.636a.499.499 0 1 1 .707-.707" color="#000" style="-inkscape-stroke:none;paint-order:stroke fill markers"/>
</svg>
