<svg xmlns="http://www.w3.org/2000/svg" id="svg" width="32" height="32" version="1.1">
<defs id="defs81">
<style id="current-color-scheme" type="text/css">
.ColorScheme-Text{color:#fcfcfc}
</style>
</defs>
<g id="document-open-recent" transform="translate(5 5)">
<path id="path14" d="M0-3v28h10v-1H1V-2h20v15h1V-3Zm16 16a6 6 0 0 0-6 6 6 6 0 0 0 6 6 6 6 0 0 0 6-6 6 6 0 0 0-6-6m0 1a5 5 0 0 1 5 5 5 5 0 0 1-5 5 5 5 0 0 1-5-5 5 5 0 0 1 5-5m-1 1v5h4v-1h-3v-4z" class="ColorScheme-Text" style="opacity:1;fill:currentColor"/>
<path id="rect23" d="M-5-5h32v32H-5z" style="opacity:1;fill:none"/>
</g>
</svg>
