<svg xmlns="http://www.w3.org/2000/svg" id="svg2" width="32" height="32" version="1.1">
<style id="current-color-scheme" type="text/css">
.ColorScheme-Text{color:#fcfcfc}
</style>
<g id="drive" transform="translate(0 -31)">
<path id="path927-3" fill="currentColor" d="M9 35c-1.108 0-2 .892-2 2v20c0 1.108.892 2 2 2h14c1.108 0 2-.892 2-2V37c0-1.108-.892-2-2-2zm0 1h14c.554 0 1 .446 1 1v6.174A3 3 0 0 0 22 46a3 3 0 0 0 2 2.828V55c0 .554-.446 1-1 1H9c-.554 0-1-.446-1-1v-6.172A3 3 0 0 0 10 46a3 3 0 0 0-2-2.826V37c0-.554.446-1 1-1m.488 1a.5.5 0 0 0-.488.5.5.5 0 0 0 .5.5.5.5 0 0 0 .5-.5.5.5 0 0 0-.5-.5zm13 0a.5.5 0 0 0-.488.5.5.5 0 0 0 .5.5.5.5 0 0 0 .5-.5.5.5 0 0 0-.5-.5zM8 44.27A2 2 0 0 1 9 46a2 2 0 0 1-1 1.73Zm16 0v3.46A2 2 0 0 1 23 46a2 2 0 0 1 1-1.73M9.488 54a.5.5 0 0 0-.488.5.5.5 0 0 0 .5.5.5.5 0 0 0 .5-.5.5.5 0 0 0-.5-.5zm13 0a.5.5 0 0 0-.488.5.5.5 0 0 0 .5.5.5.5 0 0 0 .5-.5.5.5 0 0 0-.5-.5zM10.5 57h6a.499.499 0 1 1 0 1h-6a.499.499 0 1 1 0-1m9 0h2a.499.499 0 1 1 0 1h-2a.499.499 0 1 1 0-1" class="ColorScheme-Text"/>
<rect id="rect865" width="32" height="32" x="0" y="31" fill="none" ry="0" style="fill:none;stroke-width:1.45455"/>
</g>
</svg>
