<svg xmlns="http://www.w3.org/2000/svg" viewBox="0 0 22 22">
<defs id="defs3051">
<style id="current-color-scheme" type="text/css">
.ColorScheme-Text{color:#fcfcfc}
</style>
</defs>
<path d="M7.465 2.967 2.018 5.88l3.62 3.07-3.273 3.264 5.463 2.916L11 12l3.123 2.67 5.275-3.01c-.004.004-3.42-2.967-3.42-2.967l3.018-2.658L14.5 3l-3.508 2.992Zm-.197 1.1 2.795 2.439-3.485 1.887-2.86-2.35Zm7.193.025 3.127 2.09-2.504 2.027-3.19-1.725ZM11 7l3.486 2L11 11 7.514 9ZM6.426 9.525l3.652 1.977-2.45 2.389-3.612-1.996Zm9.11.022 2.31 1.984-3.674 1.942-2.236-1.979zm.464 4.09-1 .586v2.482L11 19l-4-2.295v-1.963l-1-.535v3.088L11 20l5-2.705Z" class="ColorScheme-Text" style="fill:currentColor;fill-opacity:1;stroke:none"/>
<path id="path8" d="M16 12c-2.216 0-4 1.784-4 4s1.784 4 4 4 4-1.784 4-4-1.784-4-4-4" style="color:#3daee9;fill:currentColor;fill-opacity:1;stroke:none"/>
<path id="path10" d="M15.95 13.004a3 3 0 0 0-1.684.555l.718.718a2 2 0 0 1 2.43.309 2 2 0 0 1 .307 2.428l.724.724a3 3 0 0 0-.324-3.86 3 3 0 0 0-2.172-.874m-2.395 1.258a3 3 0 0 0 .324 3.86 3 3 0 0 0 3.855.32l-.718-.72a2 2 0 0 1-2.43-.308 2 2 0 0 1-.307-2.428z" style="fill:#fff;fill-opacity:1;stroke:none;stroke-linecap:butt;stroke-linejoin:round"/>
</svg>
