<svg xmlns="http://www.w3.org/2000/svg" width="32" height="32">
<g transform="translate(-29 -39)">
<rect width="32" height="32" x="29" y="39" rx="0" ry="0" style="fill:none;stroke-width:2.90911;stroke-linecap:round;stroke-linejoin:round"/>
<path d="M45 43.25a3.75 3.75 0 0 1 3.745 3.55l.005.2h5.5a.75.75 0 0 1 .102 1.493l-.102.007h-1.059l-1.22 15.053A3.75 3.75 0 0 1 48.233 67h-6.466a3.75 3.75 0 0 1-3.738-3.447L36.808 48.5H35.75a.75.75 0 0 1-.743-.648L35 47.75a.75.75 0 0 1 .648-.743L35.75 47h5.5A3.75 3.75 0 0 1 45 43.25m6.687 5.25H38.313l1.211 14.932a2.25 2.25 0 0 0 2.243 2.068h6.466a2.25 2.25 0 0 0 2.243-2.068zm-8.937 3.75a.75.75 0 0 1 .743.648L43.5 53v8a.75.75 0 0 1-1.493.102L42 61v-8a.75.75 0 0 1 .75-.75m4.5 0a.75.75 0 0 1 .743.648L48 53v8a.75.75 0 0 1-1.493.102L46.5 61v-8a.75.75 0 0 1 .75-.75M45 44.75a2.25 2.25 0 0 0-2.245 2.096L42.75 47h4.5l-.005-.154A2.25 2.25 0 0 0 45 44.75" style="fill:#da4453"/>
</g>
</svg>
