<svg xmlns="http://www.w3.org/2000/svg" width="16" height="16">
<path fill="currentColor" d="M7.5 0A7.5 7.5 0 0 0 0 7.5 7.5 7.5 0 0 0 7.5 15 7.5 7.5 0 0 0 15 7.5 7.5 7.5 0 0 0 7.5 0m0 1A6.5 6.5 0 0 1 14 7.5 6.5 6.5 0 0 1 7.5 14 6.5 6.5 0 0 1 1 7.5 6.5 6.5 0 0 1 7.5 1m0 3c-.277 0-.5.223-.5.5v4.793L5.732 8.025a.499.499 0 1 0-.707.707l2.121 2.122a.5.5 0 0 0 .541.109.5.5 0 0 0 .167-.11l2.12-2.12a.499.499 0 1 0-.706-.708L8 9.293V4.5c0-.277-.223-.5-.5-.5" class="ColorScheme-Text" color="#fcfcfc"/>
</svg>
