<svg xmlns="http://www.w3.org/2000/svg" width="22" height="22">
<style id="current-color-scheme" type="text/css">
.ColorScheme-Text{color:#fcfcfc}
</style>
<g id="fcitx" transform="translate(0 22)">
<path id="rect4204" d="M0-22h22V0H0z" style="fill:none;fill-opacity:1;stroke:none"/>
<path id="path106-4-1" d="M9.57-19c-.937-.017-1.837.536-2.184 1.438-.414 1.077-.296 2.244-.279 3.368.006.364-.092.696-.24 1.009a3 3 0 0 1-.21.223c-.736.813-2.565 2.95-1.983 5.14-.146.064-.317.072-.503.093-.219.026-.463.082-.657.312-.173.2-.199.474-.219.732-.02.259-.035.506-.125.659-.263.408-.352.709-.293.955.06.246.266.4.515.519.497.238 1.217.381 1.71.824h.001c.525.465 1.106.724 1.614.728.423.003.796-.187 1.01-.571.19.034.387.03.587-.027a4.36 4.36 0 0 1 2.08-.06c.413.086.826.054 1.218-.065.167.316.45.53.793.623.496.133 1.11.025 1.697-.333h.001c.57-.354 1.3-.323 1.827-.437.264-.057.495-.161.59-.396s.05-.556-.148-1.038c-.067-.167-.04-.416-.011-.678.028-.262.055-.543-.08-.777-.148-.268-.379-.372-.59-.442-.212-.07-.406-.115-.548-.253-.156-.16-.309-.375-.503-.546l-.005-.005a4 4 0 0 0-.137-.917c.426-.566.858-1.2 1.179-1.818h.003l.24-.034-.063-.3.038-.03.786-1.478c.43.022.9-.187 1.176-.686a25 25 0 0 1 1.283-2.058c-1.886.269-3.349.242-3.43 1.686-.008.164.017.31.066.44l-1.087 1.274-.01.042-.334.053.1.236c-.24.282-.472.595-.69.918q-.082-.146-.167-.286c-.318-.648-.731-1.248-1.137-1.842-.487-.716-.575-1.59-.583-2.462-.016-1.813-.21-3.693-2.298-3.733m.895 2.267c.165-.01.334.074.461.251.127.178.21.514.21.706.002.261-.092.523-.198.714a.7.7 0 0 1-.096.13l-.262-.152-.06-.035a.326.594 8.727 0 0 .227-.475.326.594 8.727 0 0-.262-.63.326.594 8.727 0 0-.386.547.326.594 8.727 0 0 .002.293 1 1 0 0 0-.179-.058l-.057-.01a1.4 1.4 0 0 1-.04-.25c-.014-.26.039-.427.145-.618s.33-.403.495-.413m-2.14.161a.93.707 82.237 0 1 .03.001.93.707 82.237 0 1 .72.806.93.707 82.237 0 1-.053.57 2 2 0 0 0-.117.092 1.2 1.2 0 0 1-.26.16.553.348 80.266 0 0 .16-.593.553.348 80.266 0 0-.384-.473.553.348 80.266 0 0-.295.623.553.348 80.266 0 0 .477.464c-.07.036-.15.077-.254.14q-.035.02-.066.043a.93.707 82.237 0 1-.601-.786.93.707 82.237 0 1 .644-1.047m1.384 1.208a.8.8 0 0 1 .192.018c.24.052.413.202.52.283.02.015.046.028.11.065l.3.173a.29.29 0 0 1 .152.322c-.023.139-.13.308-.342.468h-.001c-.13.104-.213.23-.313.336a.7.7 0 0 1-.418.23 1 1 0 0 1-.594-.078c-.168-.072-.314-.167-.472-.198-.325-.06-.572-.233-.666-.417a.35.35 0 0 1-.04-.214 1 1 0 0 1 .23.088c.11.056.24.132.383.206.284.15.618.297.96.28.34-.017.603-.192.791-.36.094-.085.17-.168.228-.229q.044-.046.072-.072c.02-.016.034-.02.028-.02l-.004-.074c-.031.001-.05.018-.072.038q-.034.03-.078.077c-.058.062-.132.143-.223.224-.181.163-.428.326-.746.342s-.641-.124-.922-.271c-.14-.074-.27-.149-.384-.206a1 1 0 0 0-.243-.094.52.52 0 0 1 .241-.25H8.4c.286-.172.416-.198.57-.33.289-.247.534-.332.74-.337m1.262 1.133q.055.129.088.285c.188.98.396 1.585 1.344 3.2.098.247.172.423.256.628a3.8 3.8 0 0 0-.392-1.185c-.58-1.225-.002-.47.258.077.19.355.414.966.548 1.65A23 23 0 0 0 12.11-7.7a.74.74 0 0 0-.127.405c.002.087.031.17.077.242-.516.38-.54 1.126.002 1.396l-.16.233a5 5 0 0 0-.216.355c-1.139.809-2.958.912-4.309-.557-.127-.276-.243-.539-.286-.741v-.001c-.098-.482-.2-.926-.35-1.285a3 3 0 0 0-.08-.17c.106-.25.158-.511.139-.67-.072-.423-.384-.509-1.086-.348-.596.144-.957.428-.808.858l-.08.064c-.198-.504.21-.837.896-1.006-.1-.931.444-1.876.962-2.491.015.02-.022.13-.155.402-.294.504-.582 1.325-.45 2.022q.149-.021.272-.023c.047-.506.172-.983.386-1.367.409-.87 1.462-2.337 1.492-3.554.141.136.349.242.596.288.13.026.275.116.452.192.177.075.389.134.65.085a.83.83 0 0 0 .472-.26c.108-.114.188-.235.302-.325q.176-.135.27-.275m5.077 1.411a1 1 0 0 0 .182.12l-.69 1.299-.163.128c-.054-.028-.109-.052-.164-.094-.073-.055-.093-.104-.15-.167l.043-.182zm-1.33 1.62a2.1 2.1 0 0 0 .486.366c-.882 1.622-2.581 3.44-2.596 3.456-.104.09-.17.073-.172.075v-.002c0-.021.01-.082.067-.171l.01-.015.007-.016s1.037-2.277 2.198-3.693M4.989-7.803c.238.421.753.772 1.163.595.158-.067.294-.217.4-.396l.012.025c.14.336.242.77.339 1.25.08.371.326.822.521 1.269s.329.88.231 1.172v.002c-.153.491-.493.698-.936.695s-.99-.239-1.49-.68c-.545-.489-1.298-.635-1.755-.853-.228-.11-.37-.226-.41-.392-.041-.167.017-.42.268-.81l.001-.002v-.001c.128-.216.133-.488.153-.741.02-.254.052-.484.173-.623.155-.185.328-.222.534-.246s.443-.025.66-.162l.002-.001q.07-.048.134-.101m9.642.06c.125.134.245.29.376.424h.001l.001.002c.188.182.422.232.621.297.2.066.366.138.485.354v.001h.001c.095.165.083.404.055.662-.028.259-.072.532.024.77.19.464.21.74.148.895-.063.155-.213.23-.453.282-.481.103-1.254.066-1.888.46-.551.336-1.116.427-1.548.311s-.736-.427-.8-.944v-.002c-.047-.312.15-.699.406-1.087q.091-.136.187-.271c.264.065.62.04 1.071-.131.896-.513 1.264-1.234 1.313-2.023m-1.505.473-.198.215zm-1.02.28" class="ColorScheme-Text" style="fill:currentColor;fill-opacity:1;stroke:none"/>
</g>
</svg>
