<svg xmlns="http://www.w3.org/2000/svg" width="22" height="22">
<style id="current-color-scheme" type="text/css">
.ColorScheme-Text{color:#fcfcfc}
</style>
<g id="fcitx-chttrans-active" transform="translate(0 -170)">
<path id="rect4343" d="M0 170h22v22H0z" style="fill:none;fill-opacity:1;stroke:none"/>
<path id="path4357" d="M160.02 113.465q-.47 1.055-1.758 2.05l.82.645q.586-.41 1.113-1.113h5.45v-.879h-4.864q.06-.176.176-.41zm7.148 0a9.1 9.1 0 0 1-1.875 3.34l.703.761.586-.703a6.8 6.8 0 0 0 1.23 1.524q-.937.762-2.226 1.347l.82.88a14.7 14.7 0 0 0 2.227-1.466 14 14 0 0 0 2.344 1.465l.761-.937q-1.406-.585-2.402-1.29a6.44 6.44 0 0 0 1.406-2.519h.82v-.996h-3.867l.47-1.113zm-7.266 2.285-.351 1.7h-1.172v.937h.996l-.352 1.758h4.395v.351h.996l.059-.351H165v-.88h-.469l.117-.878h.938v-.938h-.82l.234-1.699zm7.325.117h2.402q-.293.997-1.055 1.875a10.7 10.7 0 0 1-1.406-1.758q.06-.059.059-.117m-6.446.703h.762q.292.352.586.88h-1.524zm1.7 0h1.464l-.117.88h-.762zm-1.993 1.817h.762q.293.351.645.879h-1.583zm1.758 0h1.465l-.176.879h-.762a6.5 6.5 0 0 0-.527-.88m5.684 1.933q-1.876 1.114-2.578 1.23-1.056.177-3.75.235a8 8 0 0 0 1.875-.879l-.762-.527q-1.172.82-2.93 1.289l.117.82q1.758 0 3.575-.117-1.876.703-4.57 1.23l.175.938q2.637 0 5.332-.176v1.23q0 .47-.351.47-.645-.001-1.29-.176l.176 1.054q.528.118 1.114.118.938 0 1.23-.293.293-.294.293-.996v-1.524a69 69 0 0 0 3.984-.469q.47.47.82.996l1.114-.527a15 15 0 0 0-2.813-2.578l-1.054.469q.645.41 1.172.937-2.344.47-7.207.645 3.926-.879 7.265-2.754zm-.88 4.278-.468.937q1.934.469 3.867 1.29l.469-.997q-1.817-.704-3.867-1.23m-4.687.117q-1.7.704-3.75 1.113l.703.996q2.227-.585 3.809-1.523zM157 128v1h16v-1z" class="ColorScheme-Text" style="fill:currentColor;fill-opacity:1;stroke:none" transform="translate(-154 60)"/>
</g>
</svg>
