<svg xmlns="http://www.w3.org/2000/svg" viewBox="0 0 22 22">
<defs id="defs3051">
<style id="current-color-scheme" type="text/css">
.ColorScheme-Text{color:#fcfcfc}
</style>
</defs>
<path d="M3 3.002V19h16V3.002zM4 4h14v14H4zm1 1v1h4.428c-.071.643-.318 2.737-.87 4.643-.694-.963-1.486-1.981-2.667-3.456l-.782.627c1.418 1.77 2.287 2.884 3.053 3.99-1.293 3.343-3.264 4.657-3.264 4.657l.557.832s1.97-1.363 3.365-4.488c.437.686.883 1.421 1.422 2.375l.87-.49a46 46 0 0 0-1.839-3.012c.897-2.608 1.225-6.13 1.225-6.13l.05-.548zm6 0v1h.59c.102.592.552 3.137 1.31 5.094.266.685.55 1.343.887 1.992-1.288 2.042-3.068 3.143-3.068 3.143l.517.855s1.71-1.05 3.104-3.037c.656 1.024 1.521 2.03 2.803 3.064l.627-.779c-1.384-1.117-2.22-2.147-2.844-3.23.125-.228.256-.448.367-.694C16.167 10.468 17 7.647 17 5.5V5zm1.607 1h3.317c-.109 1.853-.786 4.318-1.543 5.998l-.008.016a24 24 0 0 1-.539-1.282C13.176 9.033 12.747 6.765 12.607 6" class="ColorScheme-Text" style="fill:currentColor;fill-opacity:1;stroke:none"/>
</svg>
