<svg xmlns="http://www.w3.org/2000/svg" width="22" height="22">
<style id="current-color-scheme" type="text/css">
.ColorScheme-Text{color:#fcfcfc}
</style>
<g id="fcitx-unikey" transform="translate(0 -170)">
<path id="rect4386" d="M0 170h22v22H0z" style="fill:none;fill-opacity:1;stroke:none"/>
<path id="rect4402" d="M4 126v8h3v7h8v-7h3v-8h-7zm1 1h6v6H5zm7 0h5v6h-5zm-6 1v1.5c0 .806.123 1.423.484 1.875.362.452.933.625 1.516.625s1.154-.173 1.516-.625c.361-.452.484-1.07.484-1.875V128H9v1.5c0 .694-.127 1.077-.266 1.25-.138.173-.317.25-.734.25s-.596-.077-.734-.25c-.139-.173-.266-.556-.266-1.25V128Zm8 0v4h1v-4zm-6 6h6v6H8zm2 1H9v4h1v-2.498L12 139h1v-4h-1v2.498z" class="ColorScheme-Text" style="fill:currentColor;fill-opacity:1;stroke:none" transform="translate(0 48)"/>
</g>
</svg>
