<svg xmlns="http://www.w3.org/2000/svg" width="22" height="22">
<style id="current-color-scheme" type="text/css">
.ColorScheme-Text{color:#fcfcfc}
</style>
<g id="fcitx-hangul" transform="translate(0 -170)">
<path id="rect4504" d="M0 170h22v22H0z" style="fill:none;fill-opacity:1;stroke:none"/>
<path id="path4506" d="M3 103v16h16v-16zm1 1h14v14H4zm4 1v1h2v-1zm6 1v8h1v-4h2v-1h-2v-3zm-8 1v1h6v-1zm3 2c-1.597 0-3 1.058-3 2.5s1.403 2.5 3 2.5 3-1.058 3-2.5-1.403-2.5-3-2.5m0 1c1.165 0 2 .733 2 1.5s-.835 1.5-2 1.5-2-.733-2-1.5.835-1.5 2-1.5m-1 5v2h8v-1H9v-1z" class="ColorScheme-Text" style="fill:currentColor;fill-opacity:1;stroke:none" transform="translate(0 70)"/>
</g>
</svg>
