<svg xmlns="http://www.w3.org/2000/svg" width="22" height="22">
<style id="current-color-scheme" type="text/css">
.ColorScheme-Text{color:#fcfcfc}
</style>
<g id="fcitx-bopomofo" style="fill:#ccc">
<path id="rect4212" d="M0 0h22v22H0z" style="fill:none;fill-rule:evenodd;stroke:none;stroke-width:1px;stroke-linecap:butt;stroke-linejoin:miter;stroke-opacity:1"/>
<path id="path4214" d="M91 37v16h16V37zm1 1h14v14H92zm7.3.6-.6.8 2 1.5.6-.8zm-5.946.046-.708.708 2 2 .708-.708zM96 41v1h4v3h-3v1h3v4h-4v1h9v-1h-4v-4h3v-1h-3v-3h4v-1zm-2.646.646-.708.708 2 2 .708-.708zm1.171 3.196-2 6 .95.316 2-6z" class="ColorScheme-Text" style="fill:currentColor;fill-opacity:1;stroke:none" transform="translate(-88 -34)"/>
</g>
</svg>
