<svg xmlns="http://www.w3.org/2000/svg" viewBox="0 0 22 22">
<defs id="defs3051">
<style id="current-color-scheme" type="text/css">
.ColorScheme-Text{color:#fcfcfc}
</style>
</defs>
<path d="M3 3.002V19h16V3.002zM4 4h14v14H4zm6.898 1.504a5.5 5.5 0 0 0-3.597 1.424 5.51 5.51 0 0 0-.826 7.199A5.51 5.51 0 0 0 13.5 15.9c2.19-1.117 3.332-3.545 2.898-5.9h-2.056l.002.008H11v2h3.336a3.46 3.46 0 0 1-1.746 2.111c-1.57.8-3.47.321-4.47-1.129a3.49 3.49 0 0 1 .526-4.582 3.49 3.49 0 0 1 4.61-.084l1.29-1.53a5.5 5.5 0 0 0-3.648-1.29" class="ColorScheme-Text" style="fill:currentColor;fill-opacity:1;stroke:none"/>
</svg>
