<svg xmlns="http://www.w3.org/2000/svg" width="22" height="22">
<style id="current-color-scheme" type="text/css">
.ColorScheme-Text{color:#fcfcfc}
</style>
<g id="fcitx-quanpin-libpinyin">
<path id="path4202" d="M-22.5-15V1h16v-16zm7.51 1.902.98.196c-.01.05-.034.096-.047.146 1.877 2.29 5.733 3.787 5.733 3.787l-.352.938s-.808-.322-1.824-.838V-8H-14v2h2.5v1H-14v3h4.5v1h-10v-1h4.5v-3h-2.5v-1h2.5v-2h-3.5v-.824c-1.029.501-1.83.795-1.83.795l-.34-.942s1.341-.489 2.736-1.277c1.396-.789 2.758-1.92 2.944-2.85m.49 1.33c-.668.997-1.846 1.772-2.941 2.391-.248.14-.484.256-.721.377h7.396c-1.191-.63-2.618-1.553-3.734-2.768" class="ColorScheme-Text" style="fill:currentColor;fill-opacity:1;stroke:none" transform="translate(25.5 18)"/>
<path id="rect4196" d="M0 0h22v22H0z" style="fill:none;fill-opacity:1;stroke:none;stroke-linejoin:miter"/>
</g>
</svg>
