<svg xmlns="http://www.w3.org/2000/svg" width="32" height="32" version="1.0">
<g transform="translate(32 34)">
<path d="M-32-34H0v32h-32z" style="fill:none;stroke-width:1.96956;stroke-linecap:round;stroke-linejoin:round"/>
<path d="M-26-25c-1.662 0-3 1.338-3 3v8c0 1.662 1.338 3 3 3h18c1.662 0 3-1.338 3-3v-2h1c.554 0 1-.446 1-1v-2c0-.554-.446-1-1-1h-1v-2c0-1.662-1.338-3-3-3zm0 1h18c1.108 0 2 .892 2 2v8c0 1.108-.892 2-2 2h-18c-1.108 0-2-.892-2-2v-8c0-1.108.892-2 2-2" style="fill:#da4453;fill-opacity:1"/>
<rect width="2" height="10" x="-27" y="-23" rx="1" ry="1" style="fill:#da4453;fill-opacity:1;stroke-width:1.41421"/>
</g>
</svg>
