<svg xmlns="http://www.w3.org/2000/svg" width="22" height="22">
<defs id="defs3051">
<style id="current-color-scheme" type="text/css">
.ColorScheme-NegativeText{color:#da4453}
</style>
</defs>
<path d="m13 3-1 1v2h7V3zM9 7 7 9v1h8V7zm7 0v3h3V7zM5 11l-2 2v1h8v-3zm-2 4v3h3v-3zm4 0v3h4v-3zm6-4c-.554 0-1 .446-1 1v6c0 .554.446 1 1 1h6c.554 0 1-.446 1-1v-6c0-.554-.446-1-1-1z" class="ColorScheme-NegativeText" style="fill:currentColor;fill-opacity:1;stroke:none"/>
<path fill="#fff" d="m14 12-1 1 2 2-2 2 1 1 2-2 2 2 1-1-2-2 2-2-1-1-2 2z"/>
</svg>
