<svg xmlns="http://www.w3.org/2000/svg" width="22" height="22">
<defs>
<style id="current-color-scheme" type="text/css">
.ColorScheme-Text{color:#fcfcfc}
</style>
</defs>
<path d="m5.803 2.992.23 1.854s.1.75-.181 2.066c-.282 1.317-.944 3.153-1.989 4.768-1.17 1.724-.883 2.841-.43 4.039s1.217 2.395 2.077 3.42l.69.82.245-1.049s.162-.772 1.164-1.666 2.84-1.863 6.27-1.947h.158l.127-.086c4.798-3.156 4.795-9.45 4.795-9.45l.008-1.657-.983 1.345c-1.554 1.912-3.996 2.596-3.996 2.596l.334.963s2.117-.722 3.44-1.772c-.32 1.385-.795 4.679-4.192 7.09-3.363.159-5.523 1.097-6.681 2.13-.057.05-.083.083-.123.124l.011-.053c.213-.744.605-1.582 1.3-2.177.668-.574 1.451-.953 2.228-1.373.776-.42 1.553-.896 2.103-1.698h.008c2.174-3.26.332-7.049.332-7.049l-.56-1.173-.37 1.24s-.635 2.116-2.761 3.04l.4.923c2.008-.873 2.508-1.781 2.805-2.507.132.984.697 2.732-.68 4.974-.402.58-1.013.963-1.756 1.365-.746.404-1.615.818-2.408 1.498-.123.105-.217.226-.324.34.34-.67.77-1.398 1.404-2.23.557-.734.718-1.602.658-2.427-.06-.824-.33-1.622-.65-2.33a12.8 12.8 0 0 0-1.522-2.496zm1.252 3.496c.242.38.24.362.476.885.288.634.508 1.335.555 1.979.046.643-.066 1.208-.443 1.705C5.99 13.23 5.345 14.969 5.17 16.29c-.02.149.023.297.023.297s-.595-.82-.754-1.236c-.397-1.049-.477-2.012.372-3.217.848-1.206 1.944-3.58 2.244-5.647" class="ColorScheme-Text" style="fill:currentColor;stroke:none"/>
</svg>
