<svg xmlns="http://www.w3.org/2000/svg" width="22" height="22">
<style id="current-color-scheme" type="text/css">
.ColorScheme-Text{color:#fcfcfc}.ColorScheme-NegativeText{color:#e74c3c}
</style>
<g id="flightmode-off" transform="translate(142 -34)">
<path id="path1816" d="m-127.152 48-.848.848 2.152 2.152-2.152 2.15.848.849 2.152-2.152 2.152 2.152.848-.849-2.152-2.151 2.152-2.152-.848-.848L-125 50.15z" class="ColorScheme-NegativeText" style="fill:currentColor;fill-opacity:1;stroke:none;stroke-width:1.19999874"/>
<path id="rect1818" d="M-142 34h22v22h-22z" style="opacity:1;fill:none;fill-opacity:1;stroke:none"/>
<path id="path1820" d="M-134 37a5 5 0 0 0-5 5h1a4 4 0 0 1 4-4zm3 0s-1 0-1 3v2.5l-1.1.55V43h-.8v.55h-.1v.2l-2 1v-.5h-.1v-.55h-.8v.55h-.1v1l-2 1v1l2.191-.273.11.273h.398l.143-.355 2.752-.344h.105l.006-.014 1.295-.412V49c0 .488.24.972.484 1.344L-134 52v1l3-1 2 .672v-1.344l-1.484-.984c.243-.372.484-.856.484-1.344v-2.875l1.295.162.006.014h.105l2.752.344.143.355h.398l.11-.273L-123 47v-1l-2-1v-1h-.1v-.55h-.8V44h-.1v.5l-2-1v-.2h-.1v-.55h-.8v.05l-1.1-.3V40c0-3-1-3-1-3m-3 2a3 3 0 0 0-3 3h1a2 2 0 0 1 2-2zm0 2s-1 0-1 1h1z" class="ColorScheme-Text" style="opacity:.35;fill:currentColor;fill-opacity:1;fill-rule:evenodd;stroke:none;stroke-width:1px;stroke-linecap:butt;stroke-linejoin:miter;stroke-opacity:1"/>
</g>
</svg>
