<svg xmlns="http://www.w3.org/2000/svg" width="22" height="22">
<style id="current-color-scheme" type="text/css">
.ColorScheme-Text{color:#fcfcfc}
</style>
<g id="flightmode-on" transform="translate(45)">
<path id="rect4528" d="M-45 0h22v22h-22z" style="opacity:1;fill:none;fill-opacity:1;stroke:none"/>
<path id="path4467" d="M-58 3a5 5 0 0 0-5 5h1a4 4 0 0 1 4-4zm3 0s-1 0-1 3v2.5l-1.1.55V9h-.8v.3h-.1v.2l-2 1V10h-.1v-.3h-.8v.3h-.1v1l-2 1v1l2.191-.273.11.273h.148l.393-.355 2.752-.344h.105l.006-.014 1.295-.162V15c0 .488.24.972.484 1.344L-58 18v1l3-1 3 1v-1l-2.484-1.656c.243-.372.484-.856.484-1.344v-2.875l1.295.162.006.014h.105l2.752.344.143.355h.398l.11-.273L-47 13v-1l-2-1v-1h-.1v-.3h-.8v.3h-.1v.5l-2-1v-.2h-.1V9h-.8v.05L-54 8.5V6c0-3-1-3-1-3m-3 2a3 3 0 0 0-3 3h1a2 2 0 0 1 2-2zm0 2s-1 0-1 1h1z" class="ColorScheme-Text" style="fill:currentColor;fill-opacity:1;fill-rule:evenodd;stroke:none;stroke-width:1px;stroke-linecap:butt;stroke-linejoin:miter;stroke-opacity:1" transform="translate(21)"/>
</g>
</svg>
