<svg xmlns="http://www.w3.org/2000/svg" width="16" height="16">
<g fill="#fcfcfc" stroke-linecap="square" stroke-width="2">
<rect width="1" height="3" x="5" y="1" rx=".5" ry=".5"/>
<rect width="1" height="3" x="7" y="1" rx=".5" ry=".5"/>
<rect width="1" height="3" x="11" y="1" rx=".5" ry=".5"/>
<rect width="1" height="3" x="5" y="-4" rx=".5" ry=".5" transform="rotate(90)"/>
<rect width="1" height="3" x="7" y="-4" rx=".5" ry=".5" transform="rotate(90)"/>
<rect width="1" height="3" x="9" y="-4" rx=".5" ry=".5" transform="rotate(90)"/>
<path d="M5 3c-1.108 0-2 .892-2 2v7c0 1.108.892 2 2 2h7c1.108 0 2-.892 2-2V5c0-1.108-.892-2-2-2zm0 1h7c.554 0 1 .446 1 1v7c0 .554-.446 1-1 1H5c-.554 0-1-.446-1-1V5c0-.554.446-1 1-1"/>
<rect width="1" height="3" x="9" y="1" rx=".5" ry=".5"/>
<rect width="1" height="3" x="5" y="13" rx=".5" ry=".5"/>
<rect width="1" height="3" x="7" y="13" rx=".5" ry=".5"/>
<rect width="1" height="3" x="11" y="13" rx=".5" ry=".5"/>
<rect width="1" height="3" x="9" y="13" rx=".5" ry=".5"/>
<rect width="1" height="3" x="11" y="-4" rx=".5" ry=".5" transform="rotate(90)"/>
<rect width="1" height="3" x="5" y="-16" rx=".5" ry=".5" transform="rotate(90)"/>
<rect width="1" height="3" x="7" y="-16" rx=".5" ry=".5" transform="rotate(90)"/>
<rect width="1" height="3" x="9" y="-16" rx=".5" ry=".5" transform="rotate(90)"/>
<rect width="1" height="3" x="11" y="-16" rx=".5" ry=".5" transform="rotate(90)"/>
<path d="M5.5 5c-.277 0-.5.223-.5.5v6c0 .277.223.5.5.5h6c.277 0 .5-.223.5-.5v-6c0-.277-.223-.5-.5-.5zm.988 1H6.5a.5.5 0 0 1 .5.5.5.5 0 0 1-.5.5.5.5 0 0 1-.5-.5.5.5 0 0 1 .488-.5m4 0h.012a.5.5 0 0 1 .5.5.5.5 0 0 1-.5.5.5.5 0 0 1-.5-.5.5.5 0 0 1 .488-.5m-4 4H6.5a.5.5 0 0 1 .5.5.5.5 0 0 1-.5.5.5.5 0 0 1-.5-.5.5.5 0 0 1 .488-.5m4 0h.012a.5.5 0 0 1 .5.5.5.5 0 0 1-.5.5.5.5 0 0 1-.5-.5.5.5 0 0 1 .488-.5"/>
</g>
</svg>
