<svg xmlns="http://www.w3.org/2000/svg" width="16" height="16">
<path fill="#fcfcfc" d="M1 0C.446 0 0 .446 0 1v14c0 .554.446 1 1 1h14c.554 0 1-.446 1-1V1c0-.554-.446-1-1-1zm.5 1a.5.5 0 0 1 .5.5.5.5 0 0 1-.5.5.5.5 0 0 1-.5-.5.5.5 0 0 1 .5-.5M8 1a7 7 0 0 1 7 7 7 7 0 0 1-7 7 7 7 0 0 1-7-7 7 7 0 0 1 7-7m6.5 0a.5.5 0 0 1 .5.5.5.5 0 0 1-.5.5.5.5 0 0 1-.5-.5.5.5 0 0 1 .5-.5M9.002 2.102a1 1 0 0 0-1.002 1V5a3 3 0 0 1 2.344 1.129c.789-.17 1.455-.328 2.129-.486.894-.211.533-.99.175-1.43A6 6 0 0 0 9.201 2.12a1 1 0 0 0-.199-.02zm-3.988.87c-.276.024-.581.203-.801.381A6 6 0 0 0 2.12 6.801a1 1 0 0 0 .98 1.201H5a3 3 0 0 1 1.129-2.344c-.17-.79-.328-1.455-.486-2.129-.106-.447-.353-.58-.63-.556zM8 6a2 2 0 0 0-2 2 2 2 0 0 0 2 2 2 2 0 0 0 2-2 2 2 0 0 0-2-2m2.998 1.998a3 3 0 0 1-1.129 2.344c.171.789.328 1.455.486 2.129.211.894.99.533 1.43.175a6 6 0 0 0 2.092-3.447 1 1 0 0 0-.981-1.201zM5.654 9.873c-.79.171-1.455.328-2.129.486-.894.211-.533.99-.175 1.43a6 6 0 0 0 3.447 2.092 1 1 0 0 0 1.201-.981v-1.898a3 3 0 0 1-2.344-1.129M1.5 14a.5.5 0 0 1 .5.5.5.5 0 0 1-.5.5.5.5 0 0 1-.5-.5.5.5 0 0 1 .5-.5m13 0a.5.5 0 0 1 .5.5.5.5 0 0 1-.5.5.5.5 0 0 1-.5-.5.5.5 0 0 1 .5-.5"/>
</svg>
