<svg xmlns="http://www.w3.org/2000/svg" width="16" height="16">
<path fill="#fcfcfc" d="M7 4v2.102A5 5 0 0 0 3 11a5 5 0 0 0 5 5 5 5 0 0 0 5-5 5 5 0 0 0-4-4.898V4z" opacity=".3"/>
<path fill="#fcfcfc" d="M8 0C6.892 0 6 .892 6 2v4.418A5 5 0 0 0 3 11a5 5 0 0 0 5 5 5 5 0 0 0 5-5 5 5 0 0 0-3-4.582V2c0-1.108-.892-2-2-2m0 1c.554 0 1 .446 1 1v5.127a4 4 0 0 1 .785.295h.002a4 4 0 0 1 .19.101A4 4 0 0 1 12 11a4 4 0 0 1-4 4 4 4 0 0 1-4-4 4 4 0 0 1 2.625-3.754l.01-.004.148-.05.01-.004.08-.024.082-.023L7 7.129V2c0-.554.446-1 1-1"/>
</svg>
