<svg xmlns="http://www.w3.org/2000/svg" width="16" height="16">
<path fill="#fcfcfc" d="M10.213 1.006a3 3 0 0 0-2.816 1.506 2.998 2.998 0 1 0 4.092-1.115v-.002a3 3 0 0 0-1.276-.39zm-6.36 2a2 2 0 1 0 .293 3.989 2 2 0 0 0-.292-3.99zm-1.464 5a1.5 1.5 0 1 0 .855.191 1.5 1.5 0 0 0-.855-.191m9.465 0a1.999 1.999 0 1 0 .291 3.987 1.999 1.999 0 0 0-.291-3.987m-3.256 3.996a1.5 1.5 0 1 0 1.242 2.17 1.5 1.5 0 0 0-.668-2.012 1.5 1.5 0 0 0-.574-.158m-4.672 1.002a1 1 0 1 0 .57.127 1 1 0 0 0-.57-.127" color="#dfdfdf"/>
</svg>
