<svg xmlns="http://www.w3.org/2000/svg" width="16" height="16">
<g fill="#fcfcfc" fill-opacity=".992" stroke-linecap="round" stroke-linejoin="round">
<path d="M2 2C.892 2 0 2.892 0 4v8c0 1.108.892 2 2 2h12c1.108 0 2-.892 2-2V4c0-1.108-.892-2-2-2zm0 1h12c.554 0 1 .446 1 1v8c0 .554-.446 1-1 1H2c-.554 0-1-.446-1-1V4c0-.554.446-1 1-1"/>
<path d="M5 5a3 3 0 0 0-3 3 3 3 0 0 0 3 3 3 3 0 0 0 3-3 3 3 0 0 0-3-3m0 1a2 2 0 0 1 2 2 2 2 0 0 1-2 2 2 2 0 0 1-2-2 2 2 0 0 1 2-2"/>
<g stroke-width="2.309" transform="rotate(90)">
<rect width="4" height="1" x="6" y="-14" rx=".5" ry=".5"/>
<rect width="4" height="1" x="6" y="-12" rx=".5" ry=".5"/>
<rect width="4" height="1" x="6" y="-10" rx=".5" ry=".5"/>
</g>
<circle cx="5" cy="8" r="1" opacity=".35"/>
</g>
</svg>
