<svg xmlns="http://www.w3.org/2000/svg" width="22" height="22">
<style id="current-color-scheme" type="text/css">
.ColorScheme-Text{color:#fcfcfc}
</style>
<g id="ime-wubipinyin">
<path id="path114" d="M28 98.002V114h9v1h8v-10h-1v-6.998zM29 99h14v6h-7.764l.666-3H40v-1h-9v1h3.877l-.666 3H32v1h1.988l-.888 4H31v1h6v2h-8zm6.014 7H37v4h-2.877zM39 107h.5c.75 0 1.532-.017 2.22.213.345.115.677.305.917.613S43 108.542 43 109s-.124.866-.363 1.174c-.24.308-.572.498-.916.613-.534.178-1.134.16-1.721.164V113h-1zm1 1.043v1.914c.528-.012 1.083-.012 1.404-.12.218-.072.355-.163.444-.276.088-.114.152-.27.152-.561s-.064-.447-.152-.56c-.089-.114-.226-.205-.444-.278-.321-.107-.876-.107-1.404-.119" class="ColorScheme-Text" style="fill:currentColor;fill-opacity:1;stroke:none" transform="translate(-25 -95)"/>
<path id="rect4314" d="M0 0h22v22H0z" style="fill:none;fill-opacity:1;stroke:none"/>
</g>
</svg>
