<svg xmlns="http://www.w3.org/2000/svg" width="22" height="22">
<style id="current-color-scheme" type="text/css">
.ColorScheme-Text{color:#fcfcfc}
</style>
<g id="ime-libskk" transform="translate(0 -170)">
<path id="rect4493" d="M0 170h22v22H0z" style="fill:none;fill-opacity:1;stroke:none"/>
<path id="path4495" d="M47.021 81.021v16h16v-16zm1 1h14v14h-14zM53 85v8h1v-2.293L56.293 93H58v-2.293L60.293 93h1.414l-3-3 3-3h-1.414L58 89.293V85h-1v2h-.707L54 89.293V85zm0 6c0-.583-.154-1.11-.521-1.479C52.11 89.154 51.583 89 51 89c-.417 0-.64-.096-.771-.229C50.096 88.64 50 88.417 50 88s.096-.64.229-.771c.132-.133.354-.229.771-.229s.64.096.771.229c.133.132.229.354.229.771h1c0-.583-.154-1.11-.521-1.479C52.11 86.154 51.583 86 51 86s-1.11.154-1.479.521C49.154 86.89 49 87.417 49 88s.154 1.11.521 1.479c.368.367.896.521 1.479.521.417 0 .64.096.771.229.133.132.229.354.229.771s-.096.64-.229.771c-.132.133-.354.229-.771.229s-.64-.096-.771-.229C50.096 91.64 50 91.417 50 91h-1c0 .583.154 1.11.521 1.479.368.367.896.521 1.479.521s1.11-.154 1.479-.521c.367-.368.521-.896.521-1.479m4-3.293v4.586L54.707 90z" class="ColorScheme-Text" style="fill:currentColor;fill-opacity:1;stroke:none" transform="translate(-44.021 91.979)"/>
</g>
</svg>
