<svg xmlns="http://www.w3.org/2000/svg" width="22" height="22">
<style id="current-color-scheme" type="text/css">
.ColorScheme-Text{color:#fcfcfc}
</style>
<g id="ime-anthy" transform="translate(0 -170)">
<path id="rect4431" d="M0 170h22v22H0z" style="fill:none;fill-opacity:1;stroke:none"/>
<path id="circle4437" d="M11 173c-1.099 0-2 .901-2 2v.002c.001.609.333 1.122.795 1.496-.145.976-.373 2.233-.77 3.256-.211.546-.467 1.014-.734 1.316s-.507.43-.791.43c-.298 0-.54-.111-.793-.348-.253-.236-.495-.6-.701-1.037-.38-.804-.608-1.815-.762-2.644.44-.375.756-.88.756-1.471 0-1.099-.901-2-2-2s-2 .901-2 2c.001.821.564 1.455 1.299 1.758L5.08 188h11.84l1.781-10.24c.736-.303 1.3-.938 1.299-1.76 0-1.099-.901-2-2-2s-2 .901-2 2c0 .592.316 1.096.756 1.47-.154.83-.382 1.841-.762 2.645-.206.436-.448.801-.701 1.037-.254.237-.495.348-.793.348-.284 0-.524-.128-.791-.43-.267-.301-.523-.77-.734-1.316-.397-1.022-.625-2.278-.77-3.254.462-.374.795-.89.795-1.5 0-1.099-.901-2-2-2m0 1c.558 0 1 .442 1 1 0 .384-.218.73-.562.898l-.327.159.05.361c.144 1.034.406 2.47.882 3.697.238.614.527 1.178.918 1.62.39.44.92.765 1.539.765.575 0 1.085-.252 1.475-.615s.683-.834.923-1.344c.404-.855.596-1.788.76-2.615L16.08 187H5.92l-1.576-9.072c.164.827.355 1.76.758 2.613.24.51.534.98.923 1.344.39.363.9.615 1.475.615.619 0 1.15-.326 1.541-.768.39-.44.68-1.003.918-1.617.476-1.227.736-2.665.88-3.699l.05-.361-.326-.159A1 1 0 0 1 10 175v-.002a.99.99 0 0 1 1-.998m-7 1c.558 0 1 .442 1 1a1 1 0 0 1-.541.887l-.293.152-.328-.055A.99.99 0 0 1 3 176c0-.558.442-1 1-1m14 0c.558 0 1 .442 1 1 0 .493-.35.907-.838.986l-.326.055-.295-.154A1 1 0 0 1 17 176c0-.558.442-1 1-1" class="ColorScheme-Text" style="fill:currentColor;fill-opacity:1;stroke:none"/>
</g>
</svg>
