<svg xmlns="http://www.w3.org/2000/svg" width="22" height="22">
<style id="current-color-scheme" type="text/css">
.ColorScheme-Text{color:#fcfcfc}
</style>
<g id="ime-emoji" transform="translate(0 -170)">
<path id="rect4372" d="M0 170h22v22H0z" style="fill:none;fill-opacity:1;stroke:none"/>
<path id="path4549" d="m3.223 150.053-.446.894 4 2 .446-.894zm15.554 0-4 2 .446.894 4-2zM4 153a1 1 0 0 0-1 1 1 1 0 0 0 1 1 1 1 0 0 0 1-1 1 1 0 0 0-1-1m14 0a1 1 0 0 0-1 1 1 1 0 0 0 1 1 1 1 0 0 0 1-1 1 1 0 0 0-1-1m-9.9 1.7c-.81 1.08-1.235 2.288-1.16 3.335.037.524.21 1.022.568 1.39.358.37.888.575 1.492.575.961 0 1.639-.68 2-1.457.361.776 1.039 1.457 2 1.457.604 0 1.134-.205 1.492-.574.359-.37.531-.867.569-1.39.074-1.048-.35-2.257-1.16-3.337l-.801.602c.69.92 1.015 1.961.964 2.664-.025.351-.133.603-.29.765-.158.163-.378.27-.774.27-.528 0-.84-.307-1.107-.895-.268-.587-.393-1.41-.393-2.105h-1c0 .694-.125 1.518-.393 2.105-.267.588-.58.895-1.107.895-.396 0-.616-.107-.773-.27-.158-.162-.266-.414-.291-.765-.05-.703.274-1.744.964-2.664z" class="ColorScheme-Text" style="fill:currentColor;fill-opacity:1;stroke:none" transform="translate(0 26)"/>
</g>
</svg>
