<svg xmlns="http://www.w3.org/2000/svg" width="22" height="22">
<style id="current-color-scheme" type="text/css">
.ColorScheme-Text{color:#fcfcfc}
</style>
<g id="ime-handwriting-on" transform="translate(-198 -110)">
<path id="path4530" d="m213.137 112.568-3.272 12.207 1.07 3.739 2.795-2.703 3.27-12.207-.482-.131zm.707 1.223 1.931.518-.26.968-1.931-.52zm-.518 1.934 1.932.517-2.422 9.043-1.397 1.352-.535-1.87zm-11.004 3.726a6 6 0 0 0-.644.057.5.5 0 1 0 .136.992c.42-.058.71-.056.872-.03.16.027.164.058.152.042-.012-.017.006-.01-.006.091a2.3 2.3 0 0 1-.125.452c-.134.373-.351.823-.41 1.326-.03.251-.015.54.133.806.147.268.42.468.738.575.152.05.213.04.308.045q.143.006.317.006c.231 0 .503-.003.758.004.032 0 .046.006.078.008-.091.055-.146.098-.252.158-.533.3-1.218.644-1.781 1.021-.282.189-.537.383-.737.621-.2.239-.37.576-.287.95.082.373.37.631.73.826.361.194.834.351 1.481.498 1.051.238 2.36.168 3.543.22 1.183.053 2.168.26 2.553.704a.5.5 0 1 0 .754-.657c-.756-.87-2.016-.991-3.262-1.047s-2.55-.01-3.367-.195c-.596-.135-1-.28-1.227-.402-.227-.123-.236-.195-.228-.162s-.019.023.076-.09a2.8 2.8 0 0 1 .527-.434c.481-.322 1.152-.663 1.717-.982a6 6 0 0 0 .752-.479c.214-.166.466-.33.477-.752.006-.246-.165-.47-.305-.564a1.1 1.1 0 0 0-.397-.16 4.2 4.2 0 0 0-.818-.082c-.282-.008-.563-.004-.783-.004-.11 0-.207-.001-.272-.004a.4.4 0 0 1-.064-.008c.012.005.013.007.027.012-.05-.017-.047-.016-.027-.012-.114-.043-.143-.076-.154-.098-.014-.023-.03-.08-.016-.205.03-.25.205-.675.36-1.105.076-.216.148-.436.175-.678s.006-.535-.176-.787c-.181-.252-.478-.39-.799-.444a3 3 0 0 0-.527-.033" class="ColorScheme-Text" style="fill:currentColor;fill-opacity:1;stroke:none"/>
<path id="rect4532" d="M198 110h22v22h-22z" style="fill:none;fill-opacity:1;stroke:none;stroke-linecap:round;stroke-linejoin:miter"/>
<path id="rect4545" d="M198 110h22v22h-22z" style="fill:none;fill-opacity:1;stroke:none;stroke-linecap:round;stroke-linejoin:miter"/>
<circle id="path4601" cx="202.5" cy="114.5" r="2.5" style="fill:#11d116;fill-opacity:1;stroke:none;stroke-linecap:round;stroke-linejoin:miter"/>
</g>
</svg>
