<svg xmlns="http://www.w3.org/2000/svg" width="22" height="22">
<style id="current-color-scheme" type="text/css">
.ColorScheme-Text{color:#fcfcfc}
</style>
<g id="ime-chinese-simplified" transform="translate(0 -170)">
<path id="rect4264" d="M0 170h22v22H0z" style="fill:none;fill-opacity:1;stroke:none"/>
<path id="path4368" d="M138.81 113.406q-.76 2.05-2.519 3.692l.996.761q.293-.058 1.64-2.05h.762q.645.938 1.114 1.933l1.172-.644-.938-1.29h2.05v-1.113h-3.632l.469-.937zm6.036 0q-.704 1.993-2.403 3.633l.996.762q.997-.938 1.524-1.992h.996q.644.878 1.113 1.875l1.055-.645q-.41-.645-.879-1.23h2.461v-1.114h-4.16q.234-.468.41-.937zm-5.45 4.102-.996.586q.82.82 1.23 1.64l1.114-.586a7.5 7.5 0 0 0-1.348-1.64m1.993.527v.996h6.386v6.035q0 .82-.41.82-.585 0-1.523-.058l.293 1.113q.82.06 1.406.059.703 0 1.055-.41.351-.41.351-1.172v-7.383zm-3.985 1.582V127h1.172v-7.383zm2.871.645v5.039h5.391v-5.04zm1.114.996h3.164v.996h-3.164zm0 1.933h3.164v1.114h-3.164zM135 128v1h16v-1z" class="ColorScheme-Text" style="fill:currentColor;fill-opacity:1;stroke:none" transform="translate(-132 60)"/>
</g>
</svg>
