<svg xmlns="http://www.w3.org/2000/svg" width="22" height="22">
<style id="current-color-scheme" type="text/css">
.ColorScheme-Text{color:#fcfcfc}
</style>
<g id="ime-libkkc" transform="translate(0 -170)">
<path id="rect4452" d="M0 170h22v22H0z" style="fill:none;fill-opacity:1;stroke:none"/>
<path id="rect4456" d="M25 81v16h16V81zm1 1h14v14H26zm1 3v8h1v-2.293L30.293 93H32v-2.293L34.293 93h1.414l-3-3 3-3h-1.414L32 89.293V85h-1v2h-.707L28 89.293V85zm10 2c-.583 0-1.11.154-1.479.521-.367.368-.521.896-.521 1.479v2c0 .583.154 1.11.521 1.479.368.367.896.521 1.479.521s1.11-.154 1.479-.521c.367-.368.521-.896.521-1.479h-1c0 .417-.096.64-.229.771-.132.133-.354.229-.771.229s-.64-.096-.771-.229C36.096 91.64 36 91.417 36 91v-2c0-.417.096-.64.229-.771.132-.133.354-.229.771-.229s.64.096.771.229c.133.132.229.354.229.771h1c0-.583-.154-1.11-.521-1.479C38.11 87.154 37.583 87 37 87m-6 .707v4.586L28.707 90z" class="ColorScheme-Text" style="fill:currentColor;fill-opacity:1;stroke:none" transform="translate(-22 92)"/>
</g>
</svg>
