<svg xmlns="http://www.w3.org/2000/svg" width="22" height="22">
<style id="current-color-scheme" type="text/css">
.ColorScheme-Text{color:#fcfcfc}
</style>
<g id="ime-handwriting-off" transform="translate(-198 -110)">
<path id="path4564" d="m235.137 112.568-3.272 12.207 1.07 3.739 2.795-2.703 3.27-12.207-.482-.131zm.707 1.223 1.931.518-.26.968-1.931-.52zm-.518 1.934 1.932.517-2.422 9.043-1.397 1.352-.535-1.87zm-11.004 3.726a6 6 0 0 0-.644.057.5.5 0 0 0 .115.994l.021-.002c.42-.058.71-.056.872-.03.16.027.164.058.152.042-.012-.017.006-.01-.006.092a2.3 2.3 0 0 1-.125.45c-.134.374-.351.824-.41 1.327-.03.251-.015.54.133.806.147.268.42.468.738.575.153.05.213.04.309.045q.142.005.316.005c.231 0 .504-.003.758.004.032.001.047.006.078.008-.09.056-.146.098-.252.158-.533.301-1.218.645-1.781 1.022-.282.188-.536.383-.737.621s-.37.576-.287.95c.083.372.37.631.73.825.361.195.834.352 1.481.498 1.051.238 2.36.169 3.543.221s2.169.26 2.553.703a.5.5 0 1 0 .754-.656c-.756-.871-2.016-.992-3.262-1.047s-2.55-.01-3.367-.195c-.596-.135-1-.28-1.227-.403-.227-.122-.235-.195-.228-.162s-.019.023.076-.09a2.8 2.8 0 0 1 .527-.433c.482-.322 1.152-.663 1.717-.982a6 6 0 0 0 .752-.479c.214-.166.466-.33.477-.752.006-.246-.165-.47-.305-.564a1.1 1.1 0 0 0-.397-.16 4.2 4.2 0 0 0-.818-.083c-.282-.008-.562-.004-.783-.004-.11 0-.206 0-.272-.003l-.064-.008c.012.004.013.007.027.011-.05-.016-.047-.015-.027-.011-.114-.043-.142-.077-.154-.098-.013-.023-.03-.08-.016-.205.03-.25.206-.675.36-1.105a3 3 0 0 0 .175-.678c.028-.242.006-.535-.176-.787-.181-.252-.478-.39-.798-.444a3 3 0 0 0-.528-.033" class="ColorScheme-Text" style="fill:currentColor;fill-opacity:1;stroke:none" transform="translate(-22)"/>
<path id="rect4570" d="M198 110h22v22h-22z" style="fill:none;fill-opacity:1;stroke:none;stroke-linecap:round;stroke-linejoin:miter"/>
<path id="rect4576" d="M198 110h22v22h-22z" style="fill:none;fill-opacity:1;stroke:none;stroke-linecap:round;stroke-linejoin:miter"/>
</g>
</svg>
