<svg xmlns="http://www.w3.org/2000/svg" width="22" height="22">
<style id="current-color-scheme" type="text/css">
.ColorScheme-Text{color:#fcfcfc}
</style>
<g id="ime-sunpinyin">
<path id="path6-8" d="M11 1.514a1 1 0 0 0-.707.295L8.102 4H5c-.554 0-1 .446-1 1v3.1l-2.193 2.193a1 1 0 0 0 0 1.414L4 13.9V17c0 .554.446 1 1 1h3.1l2.193 2.193a1 1 0 0 0 1.414 0L13.9 18H17c.554 0 1-.446 1-1v-3.102l2.191-2.191a1 1 0 0 0 0-1.414L18 8.102V5c0-.554-.446-1-1-1h-3.102l-2.191-2.191A1 1 0 0 0 11 1.514M10.9 4.7l1.5 2-.398.299h1.996L13.6 6.7l1.5-2 .8.6L14.625 7H17v1h-2v3h2v1h-2v5h-1v-5h-2.041c-.096 1.119-.477 2.03-.926 2.807-.62 1.075-1.691 2.058-1.691 2.058l-.684-.728s1.013-.97 1.51-1.83c.401-.695.704-1.412.793-2.307H9v-.941l-1 .5V17H5v-1h2v-3.941l-1.777.888-.446-.894L7 10.94V8H5V7h2V5h1v2h1v1H8v2.441l.777-.388.446.894-.106.053H11V8h-1V7h1.375L10.1 5.3zM12 8v3h2V8z" class="ColorScheme-Text" style="fill:currentColor;fill-opacity:1;stroke:none"/>
<path id="rect4138-6" d="M0 0h22v22H0z" style="fill:none;fill-opacity:1;stroke:none"/>
</g>
</svg>
