<svg xmlns="http://www.w3.org/2000/svg" width="16" height="16">
<path fill="#fcfcfc" d="M3 1C1.338 1 0 2.338 0 4v7c0 1.662 1.338 3 3 3h5.268a4.5 4.5 0 0 1-.233-1H3c-1.108 0-2-.892-2-2V4c0-1.108.892-2 2-2h10c1.108 0 2 .892 2 2v4.758a4.5 4.5 0 0 1 1 .914V4c0-1.662-1.338-3-3-3zm1.5 14a.499.499 0 1 0 0 1h5.186a4.5 4.5 0 0 1-.922-1z"/>
<path fill="#ef2929" d="M12.5 9.002a3.5 3.5 0 0 0-3.5 3.5 3.5 3.5 0 0 0 3.5 3.5 3.5 3.5 0 0 0 3.5-3.5 3.5 3.5 0 0 0-3.5-3.5m-2.5 3h5v1h-5z" class="error"/>
<path fill="#fcfcfc" d="M3 5.001h4.5v1l-3 3h3v1H3v-1l3-3H3zm5.5.001v1h3l-3 3v1h.264a4.5 4.5 0 0 1 1.789-1.553L13 6.002v-1z"/>
</svg>
