<svg xmlns="http://www.w3.org/2000/svg" id="svg372" width="22" height="22" version="1.1">
<defs id="defs3">
<style id="current-color-scheme" type="text/css">
.ColorScheme-Text{color:#fcfcfc}
</style>
</defs>
<g id="22-22-input-keyboard-virtual-on" transform="translate(0 -26)">
<path id="rect2572" fill="none" d="M0 26h22v22H0z"/>
<path id="path2574" fill="currentColor" d="M5 31c-1.662 0-3 1.338-3 3v7c0 1.662 1.338 3 3 3h9.547a4 4 0 0 1-.412-1H5c-1.108 0-2-.892-2-2v-7c0-1.108.892-2 2-2h12c1.108 0 2 .892 2 2v4.127a4 4 0 0 1 1 .41V34c0-1.662-1.338-3-3-3zm.475 3a.5.5 0 0 0 .025 1h1a.499.499 0 1 0 0-1zm3 0a.5.5 0 0 0 .025 1h1a.499.499 0 1 0 0-1zm4 0a.5.5 0 0 0 .025 1h1a.499.499 0 1 0 0-1zm3 0a.5.5 0 0 0 .025 1h1a.499.499 0 1 0 0-1zm-10 3a.5.5 0 0 0 .025 1h1a.499.499 0 1 0 0-1zm3 0a.5.5 0 0 0 .025 1h1a.499.499 0 1 0 0-1zm4 0a.5.5 0 0 0 .025 1h1a.499.499 0 1 0 0-1zm3 0a.5.5 0 0 0 .025 1h1a.499.499 0 1 0 0-1zM6.5 40a.5.5 0 0 0 0 1h7.635a4 4 0 0 1 .412-1z" class="ColorScheme-Text"/>
<circle id="path2602" cx="18" cy="42" r="3" style="fill:#11d116;fill-opacity:1"/>
</g>
</svg>
