<svg xmlns="http://www.w3.org/2000/svg" id="svg372" width="22" height="22" version="1.1">
<defs id="defs3">
<style id="current-color-scheme" type="text/css">
.ColorScheme-Text{color:#fcfcfc}
</style>
</defs>
<g id="22-22-input-keyboard">
<path id="rect5-3" fill="none" d="M0 0h22v22H0z"/>
<path id="rect1267" fill="currentColor" d="M5 5C3.338 5 2 6.338 2 8v7c0 1.662 1.338 3 3 3h12c1.662 0 3-1.338 3-3V8c0-1.662-1.338-3-3-3Zm0 1h12c1.108 0 2 .892 2 2v7c0 1.108-.892 2-2 2H5c-1.108 0-2-.892-2-2V8c0-1.108.892-2 2-2m.475 2A.5.5 0 0 0 5.5 9h1a.499.499 0 1 0 0-1zm3 0A.5.5 0 0 0 8.5 9h1a.499.499 0 1 0 0-1zm4 0a.5.5 0 0 0 .025 1h1a.499.499 0 1 0 0-1zm3 0a.5.5 0 0 0 .025 1h1a.499.499 0 1 0 0-1zm-10 3a.5.5 0 0 0 .025 1h1a.499.499 0 1 0 0-1zm3 0a.5.5 0 0 0 .025 1h1a.499.499 0 1 0 0-1zm4 0a.5.5 0 0 0 .025 1h1a.499.499 0 1 0 0-1zm3 0a.5.5 0 0 0 .025 1h1a.499.499 0 1 0 0-1zM6.5 14a.5.5 0 0 0 0 1h9a.5.5 0 0 0 0-1Z" class="ColorScheme-Text"/>
</g>
</svg>
