<svg xmlns="http://www.w3.org/2000/svg" id="svg372" width="22" height="22" version="1.1">
<defs id="defs3">
<style id="current-color-scheme" type="text/css">
.ColorScheme-Text{color:#fcfcfc}
</style>
</defs>
<g id="22-22-input-keyboard-brightness" transform="translate(-370 -534.36)">
<rect id="rect17" width="22" height="22" x="370" y="534.36" fill="none" ry="0"/>
<path id="path19" fill="currentColor" d="M20 109v14l7 2 7-2v-9h-1v6H21v-10h8v-1zm12 0a2 2 0 1 0 0 4 2 2 0 0 0 0-4m0 1v2a1 1 0 1 1 0-2m-5.562 2L24 118h1.074l.406-1h3.04l.406 1H30l-2.44-6h-.537l-.023.01-.023-.01Zm.562 1.258L28.113 116h-2.226ZM21 121h12v1H21Z" class="ColorScheme-Text" transform="translate(354 428.36)"/>
</g>
</svg>
