<svg xmlns="http://www.w3.org/2000/svg" id="svg372" width="32" height="32" version="1.1">
<defs id="defs3">
<style id="current-color-scheme" type="text/css">
.ColorScheme-Text{color:#fcfcfc}
</style>
</defs>
<g id="input-mouse-battery" transform="translate(-27 -224)">
<path id="path367" fill="currentColor" d="M42.946 228a8 8.728 0 0 0-.243.006 8 8.728 0 0 0-.246.013 8 8.728 0 0 0-.245.023 8 8.728 0 0 0-.244.03 8 8.728 0 0 0-.243.038 8 8.728 0 0 0-.241.047 8 8.728 0 0 0-.241.056 8 8.728 0 0 0-.237.061 8 8.728 0 0 0-.236.07 8 8.728 0 0 0-.237.08 8 8.728 0 0 0-.232.087 8 8.728 0 0 0-.228.094 8 8.728 0 0 0-.227.102 8 8.728 0 0 0-.224.109 8 8.728 0 0 0-.22.117 8 8.728 0 0 0-.22.123 8 8.728 0 0 0-.214.132 8 8.728 0 0 0-.21.139 8 8.728 0 0 0-.205.145 8 8.728 0 0 0-.2.151 8 8.728 0 0 0-.2.16 8 8.728 0 0 0-.191.164 8 8.728 0 0 0-.19.173 8 8.728 0 0 0-.183.179 8 8.728 0 0 0-.179.183 8 8.728 0 0 0-.172.19 8 8.728 0 0 0-.167.195 8 8.728 0 0 0-.163.2 8 8.728 0 0 0-.156.207 8 8.728 0 0 0-.15.211 8 8.728 0 0 0-.145.218 8 8.728 0 0 0-.136.221 8 8.728 0 0 0-.134.226 8 8.728 0 0 0-.125.23 8 8.728 0 0 0-.118.235 8 8.728 0 0 0-.112.236 8 8.728 0 0 0-.107.243 8 8.728 0 0 0-.098.245 8 8.728 0 0 0-.092.247 8 8.728 0 0 0-.084.252 8 8.728 0 0 0-.079.253 8 8.728 0 0 0-.069.258 8 8.728 0 0 0-.064.258 8 8.728 0 0 0-.056.26 8 8.728 0 0 0-.047.262 8 8.728 0 0 0-.043.264 8 8.728 0 0 0-.033.266 8 8.728 0 0 0-.027.267 8 8.728 0 0 0-.018.266 8 8.728 0 0 0-.01.267 8 8.728 0 0 0-.005.268v6.546a8 8.728 0 0 0 0 .057 8 8.728 0 0 0 .004.266 8 8.728 0 0 0 .014.269 8 8.728 0 0 0 .02.266 8 8.728 0 0 0 .029.267 8 8.728 0 0 0 .035.264 8 8.728 0 0 0 .043.264 8 8.728 0 0 0 .049.262 8 8.728 0 0 0 .058.26 8 8.728 0 0 0 .065.258 8 8.728 0 0 0 .071.256 8 8.728 0 0 0 .08.253 8 8.728 0 0 0 .087.252 8 8.728 0 0 0 .092.247 8 8.728 0 0 0 .1.245 8 8.728 0 0 0 .108.24 8 8.728 0 0 0 .113.237 8 8.728 0 0 0 .12.234 8 8.728 0 0 0 .128.228 8 8.728 0 0 0 .134.226 8 8.728 0 0 0 .138.22 8 8.728 0 0 0 .146.215 8 8.728 0 0 0 .151.21 8 8.728 0 0 0 .159.205 8 8.728 0 0 0 .163.2 8 8.728 0 0 0 .167.195 8 8.728 0 0 0 .174.19 8 8.728 0 0 0 .181.18 8 8.728 0 0 0 .183.177 8 8.728 0 0 0 .19.17 8 8.728 0 0 0 .194.165 8 8.728 0 0 0 .199.157 8 8.728 0 0 0 .203.152 8 8.728 0 0 0 .205.142 8 8.728 0 0 0 .212.139 8 8.728 0 0 0 .215.13 8 8.728 0 0 0 .218.121 8 8.728 0 0 0 .221.115 8 8.728 0 0 0 .226.11 8 8.728 0 0 0 .225.1 8 8.728 0 0 0 .232.09 8 8.728 0 0 0 .232.086 8 8.728 0 0 0 .235.077 8 8.728 0 0 0 .236.068 8 8.728 0 0 0 .24.062 8 8.728 0 0 0 .24.053 8 8.728 0 0 0 .244.045 8 8.728 0 0 0 .24.036 8 8.728 0 0 0 .246.03 8 8.728 0 0 0 .243.019 8 8.728 0 0 0 .246.013A8 8.728 0 0 0 43 252a8 8.728 0 0 0 .053 0 8 8.728 0 0 0 .243-.006 8 8.728 0 0 0 .246-.013 8 8.728 0 0 0 .245-.023 8 8.728 0 0 0 .244-.03 8 8.728 0 0 0 .243-.038 8 8.728 0 0 0 .241-.047 8 8.728 0 0 0 .241-.056 8 8.728 0 0 0 .237-.062 8 8.728 0 0 0 .236-.07 8 8.728 0 0 0 .237-.079 8 8.728 0 0 0 .232-.087 8 8.728 0 0 0 .228-.094 8 8.728 0 0 0 .228-.102 8 8.728 0 0 0 .223-.109 8 8.728 0 0 0 .22-.117 8 8.728 0 0 0 .22-.123 8 8.728 0 0 0 .214-.133 8 8.728 0 0 0 .21-.138 8 8.728 0 0 0 .205-.145 8 8.728 0 0 0 .2-.151 8 8.728 0 0 0 .2-.16 8 8.728 0 0 0 .191-.164 8 8.728 0 0 0 .19-.173 8 8.728 0 0 0 .183-.179 8 8.728 0 0 0 .179-.183 8 8.728 0 0 0 .172-.19 8 8.728 0 0 0 .167-.196 8 8.728 0 0 0 .163-.2 8 8.728 0 0 0 .156-.207 8 8.728 0 0 0 .15-.21 8 8.728 0 0 0 .145-.218 8 8.728 0 0 0 .136-.221 8 8.728 0 0 0 .134-.226 8 8.728 0 0 0 .125-.23 8 8.728 0 0 0 .118-.235 8 8.728 0 0 0 .112-.236 8 8.728 0 0 0 .107-.243 8 8.728 0 0 0 .098-.245 8 8.728 0 0 0 .092-.247 8 8.728 0 0 0 .085-.252 8 8.728 0 0 0 .078-.253 8 8.728 0 0 0 .069-.258 8 8.728 0 0 0 .065-.258 8 8.728 0 0 0 .055-.26 8 8.728 0 0 0 .047-.262 8 8.728 0 0 0 .043-.264 8 8.728 0 0 0 .033-.267 8 8.728 0 0 0 .027-.266 8 8.728 0 0 0 .018-.266 8 8.728 0 0 0 .011-.267 8 8.728 0 0 0 .004-.268v-6.546a8 8.728 0 0 0 0-.057 8 8.728 0 0 0-.004-.267 8 8.728 0 0 0-.013-.268 8 8.728 0 0 0-.02-.266 8 8.728 0 0 0-.03-.267 8 8.728 0 0 0-.035-.264 8 8.728 0 0 0-.043-.264 8 8.728 0 0 0-.049-.262 8 8.728 0 0 0-.058-.26 8 8.728 0 0 0-.065-.258 8 8.728 0 0 0-.07-.256 8 8.728 0 0 0-.081-.253 8 8.728 0 0 0-.087-.252 8 8.728 0 0 0-.092-.247 8 8.728 0 0 0-.1-.245 8 8.728 0 0 0-.107-.24 8 8.728 0 0 0-.114-.237 8 8.728 0 0 0-.12-.235 8 8.728 0 0 0-.128-.228 8 8.728 0 0 0-.134-.225 8 8.728 0 0 0-.138-.22 8 8.728 0 0 0-.145-.215 8 8.728 0 0 0-.152-.211 8 8.728 0 0 0-.159-.205 8 8.728 0 0 0-.163-.2 8 8.728 0 0 0-.167-.194 8 8.728 0 0 0-.174-.19 8 8.728 0 0 0-.181-.18 8 8.728 0 0 0-.183-.177 8 8.728 0 0 0-.19-.17 8 8.728 0 0 0-.194-.165 8 8.728 0 0 0-.199-.158 8 8.728 0 0 0-.203-.15 8 8.728 0 0 0-.205-.144 8 8.728 0 0 0-.212-.138 8 8.728 0 0 0-.214-.13 8 8.728 0 0 0-.22-.122 8 8.728 0 0 0-.22-.115 8 8.728 0 0 0-.226-.108 8 8.728 0 0 0-.225-.1 8 8.728 0 0 0-.232-.092 8 8.728 0 0 0-.232-.085 8 8.728 0 0 0-.235-.077 8 8.728 0 0 0-.236-.068 8 8.728 0 0 0-.24-.062 8 8.728 0 0 0-.24-.053 8 8.728 0 0 0-.243-.045 8 8.728 0 0 0-.242-.036 8 8.728 0 0 0-.245-.03 8 8.728 0 0 0-.243-.02 8 8.728 0 0 0-.246-.012A8 8.728 0 0 0 43 228a8 8.728 0 0 0-.054 0m.054 3.273a1.143 1.09 0 0 1 .064.002 1.143 1.09 0 0 1 .096.009 1.143 1.09 0 0 1 .094.017 1.143 1.09 0 0 1 .094.023 1.143 1.09 0 0 1 .09.032 1.143 1.09 0 0 1 .086.039 1.143 1.09 0 0 1 .085.046 1.143 1.09 0 0 1 .078.051 1.143 1.09 0 0 1 .074.058 1.143 1.09 0 0 1 .069.064 1.143 1.09 0 0 1 .062.07 1.143 1.09 0 0 1 .058.075 1.143 1.09 0 0 1 .05.076 1.143 1.09 0 0 1 .042.084 1.143 1.09 0 0 1 .036.085 1.143 1.09 0 0 1 .029.087 1.143 1.09 0 0 1 .02.09 1.143 1.09 0 0 1 .011.091 1.143 1.09 0 0 1 .004.092v3.273a1.143 1.09 0 0 1-.002.061 1.143 1.09 0 0 1-.009.092 1.143 1.09 0 0 1-.017.09 1.143 1.09 0 0 1-.025.09 1.143 1.09 0 0 1-.034.084 1.143 1.09 0 0 1-.04.083 1.143 1.09 0 0 1-.049.081 1.143 1.09 0 0 1-.053.075 1.143 1.09 0 0 1-.06.07 1.143 1.09 0 0 1-.068.066 1.143 1.09 0 0 1-.073.06 1.143 1.09 0 0 1-.078.055 1.143 1.09 0 0 1-.08.047 1.143 1.09 0 0 1-.088.04 1.143 1.09 0 0 1-.09.035 1.143 1.09 0 0 1-.09.028 1.143 1.09 0 0 1-.094.019 1.143 1.09 0 0 1-.096.01 1.143 1.09 0 0 1-.096.004 1.143 1.09 0 0 1-.065-.002 1.143 1.09 0 0 1-.096-.009 1.143 1.09 0 0 1-.094-.017 1.143 1.09 0 0 1-.094-.023 1.143 1.09 0 0 1-.089-.032 1.143 1.09 0 0 1-.087-.038 1.143 1.09 0 0 1-.085-.047 1.143 1.09 0 0 1-.078-.051 1.143 1.09 0 0 1-.073-.058 1.143 1.09 0 0 1-.07-.064 1.143 1.09 0 0 1-.062-.07 1.143 1.09 0 0 1-.058-.075 1.143 1.09 0 0 1-.05-.076 1.143 1.09 0 0 1-.042-.083 1.143 1.09 0 0 1-.035-.086 1.143 1.09 0 0 1-.03-.087 1.143 1.09 0 0 1-.02-.09 1.143 1.09 0 0 1-.01-.091 1.143 1.09 0 0 1-.005-.092v-3.273a1.143 1.09 0 0 1 .002-.061 1.143 1.09 0 0 1 .009-.092 1.143 1.09 0 0 1 .018-.09 1.143 1.09 0 0 1 .024-.089 1.143 1.09 0 0 1 .034-.085 1.143 1.09 0 0 1 .04-.083 1.143 1.09 0 0 1 .05-.081 1.143 1.09 0 0 1 .053-.075 1.143 1.09 0 0 1 .06-.07 1.143 1.09 0 0 1 .067-.066 1.143 1.09 0 0 1 .074-.06 1.143 1.09 0 0 1 .078-.055 1.143 1.09 0 0 1 .08-.047 1.143 1.09 0 0 1 .087-.04 1.143 1.09 0 0 1 .09-.035 1.143 1.09 0 0 1 .09-.027 1.143 1.09 0 0 1 .095-.02 1.143 1.09 0 0 1 .096-.01 1.143 1.09 0 0 1 .096-.004M43 240v3.273h2.285L43 248.728v-3.273h-2.286z" class="ColorScheme-Text"/>
<rect id="rect369" width="32" height="32" x="27" y="224" fill="none" ry="0"/>
</g>
</svg>
