<svg xmlns="http://www.w3.org/2000/svg" id="svg372" width="22" height="22" version="1.1">
<defs id="defs3">
<style id="current-color-scheme" type="text/css">
.ColorScheme-Text{color:#fcfcfc}
</style>
</defs>
<g id="22-22-input-keyboard-battery" transform="translate(-348 -534.36)">
<rect id="rect12" width="22" height="22" x="348" y="534.36" fill="none" ry="0"/>
<path id="path14" fill="currentColor" d="M20 141v14l7 2 7-2v-5h-1v2H21v-10h8v-1zm12 0-2 5h2v3l2-5h-2Zm-5.562 3L24 150h1.074l.406-1h3.04l.406 1H30l-2.44-6h-.537l-.023.01-.023-.01Zm.562 1.258L28.113 148h-2.226ZM21 153h12v1H21Z" class="ColorScheme-Text" transform="translate(332 396.36)"/>
</g>
</svg>
