<svg xmlns="http://www.w3.org/2000/svg" width="22" height="22">
<style id="current-color-scheme" type="text/css">
.ColorScheme-Text{color:#fcfcfc}
</style>
<g id="22-22-input-keyboard-virtual-on">
<path fill="currentColor" d="M2 8v11h18V8zm1 1h16v1H3zm0 2h16v7H3zm1 1v1h2v-1zm3 0v1h2v-1zm3 0v1h2v-1zm3 0v1h2v-1zm3 0v1h2v-1zM4 14v1h2v-1zm3 0v1h2v-1zm3 0v1h2v-1zm3 0v1h2v-1zm3 0v1h2v-1zM4 16v1h2v-1zm3 0v1h8v-1zm9 0v1h2v-1z" class="ColorScheme-Text"/>
<path fill="#11d116" d="M4.5 2A2.5 2.5 0 0 0 2 4.5 2.5 2.5 0 0 0 4.5 7 2.5 2.5 0 0 0 7 4.5 2.5 2.5 0 0 0 4.5 2"/>
<path fill="none" d="M0 0h22v22H0z"/>
</g>
</svg>
