<svg xmlns="http://www.w3.org/2000/svg" width="16" height="16">
<path fill="#fcfcfc" d="M3 1c-1.108 0-2 .892-2 2v10c0 1.108.892 2 2 2h10c1.108 0 2-.892 2-2V3c0-1.108-.892-2-2-2zm0 1h10c.554 0 1 .446 1 1v9c0 .554-.446 1-1 1H3c-.554 0-1-.446-1-1V3c0-.554.446-1 1-1m5 1.025a.52.52 0 0 0-.375.16l-2.5 3a.42.42 0 0 0-.09.249c-.013.267.188.556.465.564H7v3.5c0 .261.238.5.5.5h1a.5.5 0 0 0 .094 0 .52.52 0 0 0 .406-.5v-3.5h1.5c.369-.012.605-.524.375-.812l-2.5-3A.52.52 0 0 0 8 3.026z" style="marker:none"/>
</svg>
