<svg xmlns="http://www.w3.org/2000/svg" width="22" height="22">
<style id="current-color-scheme" type="text/css">
.ColorScheme-Text{color:#fcfcfc}
</style>
<g id="kalarm-disabled" transform="translate(-326 -534.362)">
<path id="rect4178-6" d="M326 534.362h22v22h-22z" style="opacity:1;fill:none;fill-opacity:1;stroke:none;stroke-width:.1;stroke-linecap:square;stroke-linejoin:miter;stroke-miterlimit:4;stroke-dasharray:none;stroke-dashoffset:0;stroke-opacity:1"/>
<path id="path4183-7" d="M33 3a1.5 1.5 0 0 0-1.5 1.5 1.5 1.5 0 0 0 .168.686A5 5 0 0 0 28 10a3.5 6 0 0 1-3 5.932V17h10v-1h-8.195A4.5 7 0 0 0 29 10a4 4 0 0 1 4-4 4 4 0 0 1 4 4 4.5 7 0 0 0 .443 3h1.03A3.5 6 0 0 1 38 10a5 5 0 0 0-3.666-4.818A1.5 1.5 0 0 0 34.5 4.5 1.5 1.5 0 0 0 33 3" class="ColorScheme-Text" style="fill:currentColor;fill-opacity:1;stroke:none" transform="translate(304 534.362)"/>
<path id="rect4145" d="M36 14v6h2v-6zm3 0v6h2v-6z" class="ColorScheme-Text" style="fill:currentColor;fill-opacity:.6;stroke:none" transform="translate(304 534.362)"/>
</g>
</svg>
