<svg xmlns="http://www.w3.org/2000/svg" width="22" height="22">
<style id="current-color-scheme" type="text/css">
.ColorScheme-Text{color:#fcfcfc}
</style>
<g id="kalarm-partdisabled" transform="translate(-326 -534.362)">
<path id="rect4178-6-3" d="M326 534.362h22v22h-22z" style="opacity:1;fill:none;fill-opacity:1;stroke:none;stroke-width:.1;stroke-linecap:square;stroke-linejoin:miter;stroke-miterlimit:4;stroke-dasharray:none;stroke-dashoffset:0;stroke-opacity:1"/>
<path id="path17" d="M55 3a1.5 1.5 0 0 0-1.332 2.186A5 5 0 0 0 50 10c-.002 2.98-1.28 5.506-3 5.932V17h10v-1h-8.195c1.359-1.26 2.192-3.539 2.195-6a4 4 0 1 1 8 0 10.3 10.3 0 0 0 .443 3h1.03A9.5 9.5 0 0 1 60 10a5 5 0 0 0-3.666-4.818A1.5 1.5 0 0 0 55 3" class="ColorScheme-Text" style="fill:currentColor;fill-opacity:1;stroke:none" transform="translate(282 534.362)"/>
<path id="path19" d="M340 548.362v6h5v-6z" class="ColorScheme-Text" style="fill:currentColor;fill-opacity:.6;stroke:none"/>
</g>
</svg>
