<svg xmlns="http://www.w3.org/2000/svg" id="svg34" width="22" height="22" version="1.1">
<defs id="defs3">
<style id="current-color-scheme" type="text/css">
.ColorScheme-Text{color:#fcfcfc}
</style>
</defs>
<g id="22-22-kdeconnect" transform="translate(-34 -5)">
<path id="rect14" fill="none" d="M34 5h22v22H34z"/>
<g id="g20" fill="currentColor" class="ColorScheme-Text" transform="translate(-335 -529.36)">
<path id="rect18" fill="currentColor" d="M42 8c-1.108 0-2 .892-2 2v12c0 1.108.892 2 2 2h6c1.108 0 2-.892 2-2V10c0-1.108-.892-2-2-2Zm0 1h6c.554 0 1 .446 1 1v12c0 .554-.446 1-1 1h-6c-.554 0-1-.446-1-1V10c0-.554.446-1 1-1m1.5 12a.499.499 0 1 0 0 1h3a.499.499 0 1 0 0-1Z" class="ColorScheme-Text" transform="translate(335 529.36)"/>
</g>
</g>
</svg>
