<svg xmlns="http://www.w3.org/2000/svg" width="16" height="16">
<path fill="#fcfcfc" d="M640.75-191a.25.25 0 0 0-.25.25v1.5c0 .139.112.25.25.25h.5a.25.25 0 0 0 .25-.25v-1.5a.25.25 0 0 0-.25-.25zm3.735 1.068a.25.25 0 0 0-.163.1l-.882 1.213a.25.25 0 0 0 .054.35l.405.294a.247.247 0 0 0 .347-.054l.885-1.213a.25.25 0 0 0-.055-.35l-.404-.295a.25.25 0 0 0-.187-.045m-7.061.059a.25.25 0 0 0-.184.049l-.4.3a.25.25 0 0 0-.049.35l.903 1.197a.25.25 0 0 0 .351.05l.399-.302a.25.25 0 0 0 .048-.35l-.902-1.196a.25.25 0 0 0-.166-.098m-2.408 3.33a.25.25 0 0 0-.305.178l-.13.482a.25.25 0 0 0 .177.307l1.45.389a.25.25 0 0 0 .306-.178l.129-.483a.25.25 0 0 0-.178-.306zm11.969 0-1.45.389a.25.25 0 0 0-.177.306l.129.483a.25.25 0 0 0 .306.178l1.45-.39a.25.25 0 0 0 .177-.306l-.13-.482a.25.25 0 0 0-.305-.178M638.25-185a.25.25 0 0 0-.25.25v.5c0 .139.112.25.25.25h5.5a.25.25 0 0 0 .25-.25v-.5a.25.25 0 0 0-.25-.25z" color="#000" overflow="visible" style="marker:none" transform="translate(-633 195)"/>
</svg>
