<svg xmlns="http://www.w3.org/2000/svg" id="svg107" width="32" height="32" version="1.1">
<defs id="defs3">
<style id="current-color-scheme" type="text/css">
.ColorScheme-Text{color:#fcfcfc}
</style>
</defs>
<g id="keyboard-layout" transform="translate(-24 3)">
<path id="rect48-3" fill="none" d="M24-3h32v32H24z"/>
<path id="rect1050-6" fill="currentColor" d="M31 1c-2.216 0-4 1.784-4 4v9c0 2.216 1.784 4 4 4h18c2.216 0 4-1.784 4-4V5c0-2.216-1.784-4-4-4Zm0 1h18c1.662 0 3 1.338 3 3v9c0 1.662-1.338 3-3 3H31c-1.662 0-3-1.338-3-3V5c0-1.662 1.338-3 3-3m1 3a1 1 0 1 0 0 2 1 1 0 0 0 0-2m4 0a1 1 0 1 0 0 2 1 1 0 0 0 0-2m4 0a1 1 0 1 0 0 2 1 1 0 0 0 0-2m4 0a1 1 0 1 0 0 2 1 1 0 0 0 0-2m4 0a1 1 0 1 0 0 2 1 1 0 0 0 0-2M32 9a1 1 0 1 0 0 2 1 1 0 0 0 0-2m4 0a1 1 0 1 0 0 2 1 1 0 0 0 0-2m4 0a1 1 0 1 0 0 2 1 1 0 0 0 0-2m4 0a1 1 0 1 0 0 2 1 1 0 0 0 0-2m4 0a1 1 0 1 0 0 2 1 1 0 0 0 0-2m-14.5 4a.499.499 0 1 0 0 1h13a.499.499 0 1 0 0-1Z" class="ColorScheme-Text" transform="translate(0 4)"/>
</g>
</svg>
