<svg width="24" height="24" viewBox="0 0 24 24" fill="none" xmlns="http://www.w3.org/2000/svg">
<defs>
<style id="current-color-scheme" type="text/css">.ColorScheme-Text { color:#ffffff; }</style>
</defs>
<g opacity="0.90">
<path class="ColorScheme-Text" fill-rule="evenodd" clip-rule="evenodd" d="M6.78477 3.03447V3.35199V3.66951C6.78477 4.03098 7.07779 4.32401 7.43926 4.32401H12.5599C12.9213 4.32401 13.2144 4.03098 13.2144 3.66951V3.35351L13.2144 3.35199L13.2144 3.35046V3.03447C13.2144 2.673 12.9213 2.37997 12.5599 2.37997H7.43926C7.07779 2.37997 6.78477 2.673 6.78477 3.03447ZM3.783 2.162C4.13248 2.162 4.4105 1.88138 4.52194 1.55014C4.82824 0.63979 5.69857 0 6.69598 0H13.3032C14.3006 0 15.1709 0.639791 15.4772 1.55014C15.5886 1.88138 15.8667 2.162 16.2161 2.162H16.6068C17.4994 2.162 18.3599 2.50991 18.9977 3.13602C19.6363 3.76288 19.9991 4.6178 19.9991 5.51399V10.25H17.6192V5.51399C17.6192 5.26338 17.518 5.01848 17.3305 4.83442C17.1422 4.64963 16.8823 4.54198 16.6068 4.54198H16.2161C15.8667 4.54198 15.5886 4.8226 15.4772 5.15383C15.1709 6.06419 14.3006 6.70398 13.3032 6.70398H6.69598C5.69857 6.70398 4.82824 6.06419 4.52194 5.15383C4.4105 4.8226 4.13248 4.54198 3.783 4.54198H3.39238C3.11684 4.54198 2.85692 4.64963 2.66868 4.83442C2.48118 5.01848 2.37997 5.26338 2.37997 5.51399V20.648C2.37997 20.8986 2.48118 21.1435 2.66868 21.3276C2.85692 21.5124 3.11684 21.62 3.39238 21.62H12.9486C13.2722 22.2888 13.9573 22.75 14.75 22.75H19.2493C19.171 22.8461 19.087 22.9383 18.9977 23.026C18.3599 23.6521 17.4994 24 16.6068 24H3.39238C2.4997 24 1.63924 23.6521 1.00143 23.026C0.362866 22.3991 0 21.5442 0 20.648V5.51399C0 4.61781 0.362866 3.76288 1.00143 3.13602C1.63925 2.50991 2.4997 2.162 3.39238 2.162H3.783Z" fill="currentColor"/>
</g>
<rect x="12.75" y="10.25" width="10" height="12.5" rx="2" stroke="url(#paint0_linear_34_7)" stroke-width="2.5"/>
<defs>
<linearGradient id="paint0_linear_34_7" x1="24" y1="9" x2="11.5" y2="24" gradientUnits="userSpaceOnUse">
<stop stop-color="#73CFFB"/>
<stop offset="1" stop-color="#3EAAE5"/>
</linearGradient>
</defs>
</svg>
