<svg width="24" height="24" viewBox="0 0 24 24" fill="none" xmlns="http://www.w3.org/2000/svg">
<rect width="24" height="24" fill="#A4A4A4" fill-opacity="0.01"/>
<defs>
<style id="current-color-scheme" type="text/css">.ColorScheme-Text { color:#ffffff; }</style>
</defs>
<rect width="24" height="24" fill="#A4A4A4" fill-opacity="0.01"/>
<g opacity="0.90">
<path class="ColorScheme-Text" fill-rule="evenodd" clip-rule="evenodd" d="M7.70146 3.78159V4.07059L7.70146 4.07265L7.70146 4.07472V4.36372C7.70146 4.69506 7.97007 4.96367 8.30141 4.96367H12.2618C12.5932 4.96367 12.8618 4.69506 12.8618 4.36372V4.07265V3.78159C12.8618 3.45025 12.5932 3.18164 12.2618 3.18164H8.30141C7.97007 3.18164 7.70146 3.45025 7.70146 3.78159ZM4.95022 2.98183C5.27044 2.98183 5.52625 2.72538 5.62547 2.42092C5.88322 1.62994 6.59236 1 7.52839 1H13.0349C13.9709 1 14.68 1.62994 14.9378 2.42092C15.037 2.72538 15.2928 2.98183 15.613 2.98183H15.7881C16.5924 2.98183 17.3451 3.32757 17.8863 3.91191C18.4249 4.49343 18.7144 5.26542 18.7144 6.05449V10.3958H16.5328V6.05449C16.5328 5.79233 16.4355 5.55614 16.2857 5.39433C16.1384 5.23534 15.9574 5.16348 15.7881 5.16348H15.613C15.2928 5.16348 15.037 5.41993 14.9378 5.72439C14.68 6.51537 13.9709 7.14531 13.0349 7.14531H7.52839C6.59236 7.14531 5.88321 6.51537 5.62547 5.72439C5.52625 5.41993 5.27044 5.16348 4.95022 5.16348H4.77515C4.60583 5.16348 4.42482 5.23534 4.27757 5.39433C4.12771 5.55614 4.03048 5.79233 4.03048 6.05449V19.9273C4.03048 20.1895 4.12771 20.4257 4.27757 20.5875C4.42482 20.7465 4.60583 20.8184 4.77515 20.8184H12.7559C13.0526 21.4314 13.6805 21.8542 14.4072 21.8542H18.0682C18.0111 21.9286 17.9505 22.0006 17.8863 22.0699C17.3451 22.6543 16.5924 23 15.7881 23H4.77515C3.97087 23 3.21814 22.6543 2.67695 22.0699C2.13837 21.4884 1.84884 20.7164 1.84884 19.9273V6.05449C1.84884 5.26542 2.13837 4.49343 2.67695 3.91191C3.21814 3.32757 3.97087 2.98183 4.77515 2.98183H4.95022Z" fill="currentColor"/>
</g>
<rect x="12.5738" y="10.3958" width="8.33407" height="11.4583" rx="1.83333" stroke="url(#paint0_linear_105_2)" stroke-width="2.29167"/>
<defs>
<linearGradient id="paint0_linear_105_2" x1="21.9497" y1="9.25" x2="10.3444" y2="21.9114" gradientUnits="userSpaceOnUse">
<stop stop-color="#73CFFB"/>
<stop offset="1" stop-color="#3EAAE5"/>
</linearGradient>
</defs>
</svg>
