<svg xmlns="http://www.w3.org/2000/svg" width="22" height="22">
<style id="current-color-scheme" type="text/css">
.ColorScheme-Text{color:#fcfcfc}.ColorScheme-Background{color:#eff0f1}
</style>
<g id="kpackagekit-updates">
<g id="g4220">
<path id="path4149" d="m7 7-3 3v9h14.1v-9l-3-3h-6Zm.3 1h7.4l2 2H5.3zM9 11h4v5l-1-1-1 1-1-1-1 1z" class="ColorScheme-Text" style="fill:currentColor;fill-rule:evenodd;stroke:none;stroke-width:1px;stroke-linecap:butt;stroke-linejoin:miter;stroke-opacity:1"/>
<path id="path4180" d="M16 3a3 3 0 0 0-3 3 3 3 0 0 0 3 3 3 3 0 0 0 3-3 3 3 0 0 0-3-3" style="opacity:1;fill:#2ecc71;fill-opacity:1;stroke:none"/>
<path id="path4167" d="m16 4 2 2h-1v2h-2V6h-1l1-1z" class="ColorScheme-Background" style="opacity:1;fill:currentColor;fill-opacity:1;stroke:none"/>
</g>
<path id="rect4212" d="M0 0h22v22H0z" style="opacity:1;fill:none;fill-opacity:.59905659;stroke:none"/>
</g>
</svg>
