<svg xmlns="http://www.w3.org/2000/svg" id="svg2" width="32" height="32" version="1.1">
<defs id="defs4">
<style id="current-color-scheme" type="text/css">
.ColorScheme-Text{color:#fcfcfc}
</style>
</defs>
<g id="kup" transform="translate(-22 10)">
<path id="path927-3" fill="currentColor" d="M31-6c-1.108 0-2 .892-2 2v20c0 1.108.892 2 2 2h14c1.108 0 2-.892 2-2V-4c0-1.108-.892-2-2-2zm0 1h14c.554 0 1 .446 1 1v6.174A3 3 0 0 0 44 5a3 3 0 0 0 2 2.828V14c0 .554-.446 1-1 1H31c-.554 0-1-.446-1-1V7.828A3 3 0 0 0 32 5a3 3 0 0 0-2-2.826V-4c0-.554.446-1 1-1m.488 1a.5.5 0 0 0-.488.5.5.5 0 0 0 .5.5.5.5 0 0 0 .5-.5.5.5 0 0 0-.5-.5zm13 0a.5.5 0 0 0-.488.5.5.5 0 0 0 .5.5.5.5 0 0 0 .5-.5.5.5 0 0 0-.5-.5zM30 3.27A2 2 0 0 1 31 5a2 2 0 0 1-1 1.73Zm16 0v3.46A2 2 0 0 1 45 5a2 2 0 0 1 1-1.73M31.488 13a.5.5 0 0 0-.488.5.5.5 0 0 0 .5.5.5.5 0 0 0 .5-.5.5.5 0 0 0-.5-.5zm13 0a.5.5 0 0 0-.488.5.5.5 0 0 0 .5.5.5.5 0 0 0 .5-.5.5.5 0 0 0-.5-.5zM32.5 16h6a.499.499 0 1 1 0 1h-6a.499.499 0 1 1 0-1m9 0h2a.499.499 0 1 1 0 1h-2a.499.499 0 1 1 0-1" class="ColorScheme-Text"/>
<rect id="rect865-3" width="32" height="32" x="22" y="-10" fill="none" ry="0" style="fill:none;stroke-width:1.45455"/>
<path id="path518" fill="currentColor" d="M38 0a5 5 0 0 0-5 5 5 5 0 0 0 5 5 5 5 0 0 0 5-5 5 5 0 0 0-5-5m-.06 1H38a4 4 0 0 1 4 4 4 4 0 0 1-4 4 4 4 0 0 1-4-4 4 4 0 0 1 3.94-4M37 2v4h4V5h-3V2Z" class="ColorScheme-Text"/>
</g>
</svg>
