<svg xmlns="http://www.w3.org/2000/svg" id="svg" width="32" height="32" version="1.1">
<style id="current-color-scheme" type="text/css">
.ColorScheme-Text{color:#fcfcfc}
</style>
<g id="list-add" transform="translate(0 32)">
<path id="path837" fill="none" d="M0-32h32V0H0Z" style="stroke-width:1.45455"/>
<path id="rect867" fill="currentColor" d="M16-22c-.554 0-1 .446-1 1v4h-4c-.554 0-1 .446-1 1s.446 1 1 1h4v4c0 .554.446 1 1 1s1-.446 1-1v-4h4c.554 0 1-.446 1-1s-.446-1-1-1h-4v-4c0-.554-.446-1-1-1" class="ColorScheme-Text"/>
</g>
</svg>
