<svg xmlns="http://www.w3.org/2000/svg" width="15.974" height="16">
<path fill="#fcfcfc" d="m11.569 12.289 2.565 2.565a.5.5 0 0 0 .707-.707l-13-13a.5.5 0 1 0-.707.707l1.844 1.843A5.97 5.97 0 0 0 1.988 7c0 2.867 1.935 5.506 5.731 7.922a.5.5 0 0 0 .537 0q2.005-1.275 3.313-2.633m-.707-.707q-1.025 1.07-2.555 2.11l-.32.213-.319-.213C4.528 11.558 2.988 9.326 2.988 7c0-.943.26-1.825.714-2.578zM9.45 7.34l-1.801-1.8q.164-.04.34-.04a1.5 1.5 0 0 1 1.46 1.84m2.653 2.653q.887-1.47.886-2.993a5 5 0 0 0-7.93-4.051l-.715-.715A6 6 0 0 1 13.988 7c0 1.286-.39 2.525-1.16 3.72z"/>
</svg>
