<svg xmlns="http://www.w3.org/2000/svg" width="16" height="16">
<path fill="#fcfcfc" d="M734.99-101.94a3.49 3.49 0 0 0 0 4.95 3.49 3.49 0 0 0 4.95 0l.353-.353-.707-.707-.354.353c-.979.98-2.556.98-3.535 0a2.495 2.495 0 0 1 0-3.535l7.07-7.071c.98-.98 2.557-.98 3.536 0 .98.979.98 2.556 0 3.535l-.712.713-2.47 2.47-.207.206-.853.854a1.497 1.497 0 0 1-2.122 0 1.497 1.497 0 0 1 0-2.121l1.061-1.061.707-.707-.707-.707-1.768 1.767a2.496 2.496 0 0 0 0 3.536c.98.98 2.557.98 3.536 0l.853-.854 1.268-1.267 2.122-2.122a3.49 3.49 0 0 0 0-4.95 3.49 3.49 0 0 0-4.95 0z" color="#000" overflow="visible" style="isolation:auto;mix-blend-mode:normal;marker:none" transform="translate(-733 111)"/>
</svg>
