<svg xmlns="http://www.w3.org/2000/svg" id="svg" width="32" height="32" version="1.1">
<defs id="defs5">
<style id="current-color-scheme" type="text/css">
.ColorScheme-Text{color:#fcfcfc}
</style>
</defs>
<g id="manjaro-settings-manager" transform="translate(5 39)">
<rect id="rect14" width="32" height="32" x="-5" y="-39" fill-opacity="0" ry=".64"/>
<path id="path907" fill="currentColor" d="M3-34c-1.645 0-3 1.355-3 3v16c0 1.645 1.355 3 3 3h3v-16h8v-6zm13 0v22h3c1.645 0 3-1.355 3-3v-16c0-1.645-1.355-3-3-3zM3-33h10v4H5v16H3c-1.108 0-2-.892-2-2v-16c0-1.108.892-2 2-2m14 0h2c1.108 0 2 .892 2 2v16c0 1.108-.892 2-2 2h-2zm-9 7v14h6v-14zm1 1h4v12H9Z" class="ColorScheme-Text"/>
</g>
</svg>
