<svg xmlns="http://www.w3.org/2000/svg" id="svg175" width="32" height="32" version="1.1">
<style id="current-color-scheme" type="text/css">
.ColorScheme-Text{color:#fcfcfc}
</style>
<g id="media-playback-paused" transform="translate(25 -122)">
<rect id="rect4420" width="32" height="32" x="-25" y="122" rx="0" ry="0" style="fill:none"/>
<path id="rect2469" fill="currentColor" d="M-9 124a14 14 0 0 0-14 14 14 14 0 0 0 14 14 14 14 0 0 0 14-14 14 14 0 0 0-14-14m0 2a12 12 0 0 1 12 12 12 12 0 0 1-12 12 12 12 0 0 1-12-12 12 12 0 0 1 12-12m-4 6c-.554 0-1 .446-1 1v10c0 .554.446 1 1 1s1-.446 1-1v-10c0-.554-.446-1-1-1m8 0c-.554 0-1 .446-1 1v10c0 .554.446 1 1 1s1-.446 1-1v-10c0-.554-.446-1-1-1" class="ColorScheme-Text"/>
</g>
</svg>
