<svg xmlns="http://www.w3.org/2000/svg" id="svg175" width="32" height="32" version="1.1">
<style id="current-color-scheme" type="text/css">
.ColorScheme-Text{color:#fcfcfc}
</style>
<g id="media-skip-backward" transform="matrix(-1 0 0 1 526 -33)">
<rect id="rect11713" width="32" height="32" x="494" y="33" rx="0" ry="0" style="fill:none"/>
<path id="path11715" fill="currentColor" d="M510 34.998c-7.732 0-14 6.268-14 14s6.268 14 14 14 14-6.268 14-14-6.268-14-14-14m0 2c6.627 0 12 5.373 12 12 0 6.628-5.373 12-12 12s-12-5.372-12-12c0-6.627 5.373-12 12-12" class="ColorScheme-Text"/>
<path id="path12720" fill="currentColor" d="M512.854 43.004a2 2 0 0 1 1.396.434l5 4.001a2 2 0 0 1 0 3.124l-5 3.998a2 2 0 0 1-3.25-1.563v-.637l-2.75 2.2a2 2 0 0 1-3.25-1.563v-8a2 2 0 0 1 1.135-1.803 2 2 0 0 1 .719-.191 2 2 0 0 1 1.396.434l2.75 2.2v-.64a2 2 0 0 1 1.135-1.803 2 2 0 0 1 .719-.191m.146 1.994v8L518 49Zm-6 0v8l4-3.2V48.2z" class="ColorScheme-Text"/>
<rect id="rect12067" width="2" height="12" x="-503" y="43" fill="currentColor" class="ColorScheme-Text" rx="1" ry="1" transform="scale(-1 1)"/>
</g>
</svg>
