<svg xmlns="http://www.w3.org/2000/svg" id="svg175" width="32" height="32" version="1.1">
<style id="current-color-scheme" type="text/css">
.ColorScheme-Text{color:#fcfcfc}
</style>
<g id="media-eject" transform="translate(-618 -33)">
<rect id="rect12993" width="32" height="32" x="-65" y="618" rx="0" ry="0" style="fill:none" transform="rotate(-90)"/>
<path id="path12995" fill="currentColor" d="M620 49c0 7.732 6.268 14 14 14s14-6.268 14-14-6.268-14-14-14-14 6.268-14 14m2 0c0-6.627 5.373-12 12-12s12 5.373 12 12-5.373 12-12 12-12-5.373-12-12m6.006.69c0-.394.092.786.285 1.138a2.25 2.25 0 0 0 1.96 1.172h7.505c1.718-.001 2.794-1.973 1.935-3.45l-3.752-6.429v-.002c-.838-1.437-3.032-1.437-3.87 0v.002l-3.753 6.43v.002c-.2.346-.31 1.536-.31 1.137m2 .019c.055-.001.015-.11.04-.154l3.75-6.426c.133-.224.285-.226.417 0l3.75 6.428c.138.237.014.443-.21.443h-7.499c-.081 0-.16-.042-.211-.135-.023-.043-.096-.155-.037-.156" class="ColorScheme-Text"/>
<rect id="rect13466" width="2" height="12" x="-56" y="-640" fill="currentColor" class="ColorScheme-Text" rx="1" ry="1" transform="scale(1 -1)rotate(90)"/>
</g>
</svg>
