<svg xmlns="http://www.w3.org/2000/svg" width="16" height="16">
<path fill="#fcfcfc" d="M5 1v2h1c1.74 0 2.955.642 3.756 1.582s1.216 2.127 1.594 3.26c.377 1.133.72 2.218 1.246 2.965C13.12 11.554 13.76 12 15 12h1v1h-1c-1.511 0-2.559-.679-3.22-1.62-.663-.94-1.007-2.105-1.38-3.222-.372-1.117-.769-2.18-1.406-2.928S7.51 4 6 4H4.998v2a37 37 0 0 1-2.322-1.166Q1.506 4.188.418 3.5q1.087-.675 2.258-1.32Q3.858 1.535 5 1m11 2v1h-1c-1.239 0-1.879.446-2.404 1.193-.256.364-.466.81-.66 1.3a11 11 0 0 0-.545-1.22c.118-.225.243-.447.388-.654C12.441 3.68 13.49 3 15 3zM9.79 9.459c.14.414.287.823.478 1.244-.153.25-.32.49-.512.715C8.956 12.358 7.74 13 6 13H4.998v2a37 37 0 0 1-2.322-1.166Q1.506 13.188.418 12.5q1.087-.675 2.258-1.32Q3.858 10.535 5 10v2h1c1.51 0 2.357-.483 2.994-1.23.315-.37.571-.819.795-1.311z" color="#000" overflow="visible"/>
</svg>
