<svg xmlns="http://www.w3.org/2000/svg" id="svg175" width="32" height="32" version="1.1">
<style id="current-color-scheme" type="text/css">
.ColorScheme-Text{color:#fcfcfc}
</style>
<g id="media-seek-backward" transform="translate(-364 -33)">
<rect id="rect11643" width="32" height="32" x="-396" y="33" rx="0" ry="0" style="fill:none" transform="scale(-1 1)"/>
<path id="path11645" fill="currentColor" d="M380 34.998c7.732 0 14 6.268 14 14s-6.268 14-14 14-14-6.268-14-14 6.268-14 14-14m0 2c-6.627 0-12 5.373-12 12 0 6.628 5.373 12 12 12s12-5.372 12-12c0-6.627-5.373-12-12-12" class="ColorScheme-Text"/>
<path id="path11647" fill="currentColor" d="M386.037 43A2 2 0 0 1 388 44.998v8c0 1.542-1.827 2.52-3.11 1.664l-4.89-3.26v1.596c0 1.542-1.827 2.52-3.11 1.664l-6-4c-1.157-.772-1.157-2.556 0-3.328l6-4a2 2 0 0 1 3.11 1.664v1.596l4.89-3.26a2 2 0 0 1 1.147-.334M386 44.998l-6 4 6 4zm-8 0-6 4 6 4z" class="ColorScheme-Text"/>
</g>
</svg>
