<svg xmlns="http://www.w3.org/2000/svg" id="svg175" width="32" height="32" version="1.1">
<style id="current-color-scheme" type="text/css">
.ColorScheme-Text{color:#fcfcfc}
</style>
<g id="media-playback-stopped" transform="translate(-73 -122)">
<rect id="rect4639" width="32" height="32" x="73" y="122" rx="0" ry="0" style="fill:none"/>
<path id="path3967" fill="currentColor" d="M89 124a14 14 0 0 0-14 14 14 14 0 0 0 14 14 14 14 0 0 0 14-14 14 14 0 0 0-14-14m0 2a12 12 0 0 1 12 12 12 12 0 0 1-12 12 12 12 0 0 1-12-12 12 12 0 0 1 12-12m-3 6c-1.662 0-3 1.338-3 3v6c0 1.662 1.338 3 3 3h6c1.662 0 3-1.338 3-3v-6c0-1.662-1.338-3-3-3zm0 2h6c.554 0 1 .446 1 1v6c0 .554-.446 1-1 1h-6c-.554 0-1-.446-1-1v-6c0-.554.446-1 1-1" class="ColorScheme-Text"/>
</g>
</svg>
