<svg xmlns="http://www.w3.org/2000/svg" id="svg175" width="32" height="32" version="1.1">
<style id="current-color-scheme" type="text/css">
.ColorScheme-Text{color:#fcfcfc}
</style>
<g id="media-playback-playing" transform="translate(-23 -122)">
<rect id="rect4637" width="32" height="32" x="23" y="122" rx="0" ry="0" style="fill:none"/>
<path id="path3205" fill="currentColor" d="M39 124a14 14 0 0 0-14 14 14 14 0 0 0 14 14 14 14 0 0 0 14-14 14 14 0 0 0-14-14m0 2a12 12 0 0 1 12 12 12 12 0 0 1-12 12 12 12 0 0 1-12-12 12 12 0 0 1 12-12m-2.69 6.006a2.33 2.33 0 0 0-1.138.285A2.25 2.25 0 0 0 34 134.252v7.504c.001 1.718 1.973 2.794 3.45 1.935l6.429-3.752h.002c1.437-.838 1.437-3.032 0-3.87h-.002l-6.43-3.753h-.002a2.3 2.3 0 0 0-1.137-.31m-.019 2c.055 0 .11.015.154.04l6.426 3.75c.224.133.226.285 0 .417l-6.428 3.75c-.237.138-.443.014-.443-.21v-7.499c0-.081.042-.16.135-.211a.3.3 0 0 1 .156-.037" class="ColorScheme-Text"/>
</g>
</svg>
