<svg width="24" height="24" viewBox="0 0 24 24" fill="none" xmlns="http://www.w3.org/2000/svg">
<rect width="24" height="24" fill="#A4A4A4" fill-opacity="0.01"/>
<path fill-rule="evenodd" clip-rule="evenodd" d="M10.5706 18.6656C10.3379 18.8201 10.0269 18.6533 10.0269 18.3741V11.6839C10.0269 11.4046 10.3379 11.2378 10.5706 11.3924L15.6687 14.7791C15.8473 14.8978 15.8473 15.1602 15.6687 15.2789L10.5706 18.6656Z" fill="url(#paint0_linear_117_36)"/>
<defs>
<style id="current-color-scheme" type="text/css">.ColorScheme-Text { color:#ffffff; }</style>
</defs>
<g opacity = "0.90">
<path class = "ColorScheme-Text" d="M4.35426 23C3.41507 23 2.62123 22.6776 1.97274 22.0327C1.32425 21.3878 1 20.5984 1 19.6644V10.369C1 9.43489 1.32425 8.64547 1.97274 8.00076C2.62123 7.35588 3.41507 7.03344 4.35426 7.03344H19.6457C20.5851 7.03344 21.3789 7.35588 22.0273 8.00076C22.6758 8.64547 23 9.43489 23 10.369V19.6644C23 20.5984 22.6758 21.3878 22.0273 22.0327C21.3789 22.6776 20.5851 23 19.6457 23H4.35426ZM10.0269 18.3741C10.0269 18.6533 10.3379 18.8201 10.5706 18.6656L15.6687 15.2789C15.8473 15.1602 15.8473 14.8978 15.6687 14.7791L10.5706 11.3924C10.3379 11.2378 10.0269 11.4046 10.0269 11.6839V18.3741ZM4.43498 6.22408C4.15884 6.22408 3.93498 6.00022 3.93498 5.72408V4.51672C3.93498 4.24058 4.15884 4.01672 4.43498 4.01672H19.565C19.8412 4.01672 20.065 4.24058 20.065 4.51672V5.72408C20.065 6.00022 19.8412 6.22408 19.565 6.22408H4.43498ZM7.41928 3.20736C7.14314 3.20736 6.91928 2.9835 6.91928 2.70736V1.5C6.91928 1.22386 7.14314 1 7.41928 1H16.5807C16.8569 1 17.0807 1.22386 17.0807 1.5V2.70736C17.0807 2.9835 16.8569 3.20736 16.5807 3.20736H7.41928Z" fill="currentColor"/>
</g>
<defs>
<linearGradient id="paint0_linear_117_36" x1="16.0351" y1="11.7926" x2="8.43542" y2="17.6619" gradientUnits="userSpaceOnUse">
<stop stop-color="#73CFFB"/>
<stop offset="1" stop-color="#3EAAE5"/>
</linearGradient>
</defs>
</svg>
