<svg xmlns="http://www.w3.org/2000/svg" viewBox="0 0 22 22">
<style id="current-color-scheme" type="text/css">
.ColorScheme-Text{color:#fcfcfc}.ColorScheme-NegativeText{color:#da4453}
</style>
<path d="M11 3a2.495 2.495 0 0 0-2.5 2.5v1.092l4.992 4.99c.001-.028.008-.054.008-.082v-6C13.5 4.115 12.385 3 11 3m-5.5 7v1c0 2.236 1.634 4.199 4 4.809V18h-2v1h7v-1h-2v-2.193c.36-.093.697-.226 1.02-.377l-.752-.752A5 5 0 0 1 11 15c-2.485 0-4.5-1.79-4.5-4v-1zm10 0v1c0 .724-.233 1.393-.611 1.979l.718.718c.56-.787.892-1.711.893-2.697v-1zm-7 .408V11.5a2.495 2.495 0 0 0 3.414 2.324z" class="ColorScheme-Text" style="fill:currentColor;fill-opacity:1;stroke:none"/>
<path d="M-.5 4.743h1V26.37h-1z" class="ColorScheme-NegativeText" style="fill:currentColor;fill-opacity:1;stroke:none" transform="rotate(-45)"/>
</svg>
