<svg xmlns="http://www.w3.org/2000/svg" viewBox="0 0 22 22">
<defs id="defs3051">
<style id="current-color-scheme" type="text/css">
.ColorScheme-Text{color:#fcfcfc}.ColorScheme-NeutralText{color:#f67400}
</style>
</defs>
<path d="M17 3a2 2 0 0 1 2 2 2 2 0 0 1-2 2 2 2 0 0 1-2-2 2 2 0 0 1 2-2" class="ColorScheme-NeutralText" style="opacity:1;fill:currentColor;fill-opacity:1;stroke:none"/>
<path d="M7.5 3A2.495 2.495 0 0 0 5 5.5v6C5 12.885 6.115 14 7.5 14s2.5-1.115 2.5-2.5v-6C10 4.115 8.885 3 7.5 3M2 10v1c0 2.236 1.634 4.199 4 4.809V18H4v1h7v-1H9v-2.193c2.365-.61 3.998-2.572 4-4.807v-1h-1v1c0 2.21-2.015 4-4.5 4S3 13.21 3 11v-1z" class="ColorScheme-Text" style="opacity:1;fill:currentColor;fill-opacity:1;stroke:none"/>
</svg>
