<svg xmlns="http://www.w3.org/2000/svg" viewBox="0 0 22 22">
<defs id="defs3051">
<style id="current-color-scheme" type="text/css">
.ColorScheme-Text{color:#fcfcfc}.ColorScheme-PositiveText{color:#27ae60}
</style>
</defs>
<path d="m18.064 6-.757.48a10.802 8.368 0 0 1 1.71 4.518A10.802 8.368 0 0 1 17.3 15.51l.77.49A11.784 9.13 0 0 0 20 10.998 11.784 9.13 0 0 0 18.064 6m-2.296 1.46L15 7.948a7.856 6.086 0 0 1 1.072 3.055 7.856 6.086 0 0 1-1.07 3.057l.768.486a8.838 6.847 0 0 0 1.285-3.543 8.838 6.847 0 0 0-1.287-3.541" class="ColorScheme-PositiveText" style="fill:currentColor;fill-opacity:1;stroke:none"/>
<path d="M7.5 3A2.495 2.495 0 0 0 5 5.5v6C5 12.885 6.115 14 7.5 14s2.5-1.115 2.5-2.5v-6C10 4.115 8.885 3 7.5 3M2 10v1c0 2.236 1.634 4.199 4 4.809V18H4v1h7v-1H9v-2.193c2.365-.61 3.998-2.572 4-4.807v-1h-1v1c0 2.21-2.015 4-4.5 4S3 13.21 3 11v-1z" class="ColorScheme-Text" style="fill:currentColor;fill-opacity:1;stroke:none"/>
</svg>
