<svg xmlns="http://www.w3.org/2000/svg" width="16" height="16">
<path fill="#fcfcfc" d="M4.5 0a2.5 2.5 0 0 0-1.701.678l.703.703A1.497 1.497 0 0 1 6 2.5v1.378l1 1V2.5C7 1.115 5.885 0 4.5 0M2.223 1.516A2.5 2.5 0 0 0 2 2.5v6C2 9.885 3.115 11 4.5 11S7 9.885 7 8.5V6.293l-1-1V8.5c0 .831-.669 1.5-1.5 1.5S3 9.331 3 8.5v-6q.001-.099.014-.193zM13.22 2.805l-.354.353a7 7 0 0 0-1.998 5.59l1.264 1.264a6 6 0 0 1 1.441-6.147l.354-.353zm2.123 2.12-.356.354a4 4 0 0 0 0 5.657l.356.353.707-.707-.356-.353a3 3 0 0 1 0-4.243l.356-.353zM0 7v1.5c0 2.321 1.748 4.198 4 4.45V15H2v1h5v-1H5v-2.05c2.252-.252 4-2.129 4-4.45v-.207l-1-1V8.5C8 10.439 6.439 12 4.5 12S1 10.439 1 8.5V7zm11.289 3.582a7 7 0 0 0 1.578 2.475l.353.353.448-.45z"/>
<rect width="22" height="1" x=".314" y="-.5" fill="#fcfcfc" fill-rule="evenodd" rx=".5" ry=".5" style="paint-order:stroke fill markers" transform="rotate(45)"/>
</svg>
