<svg xmlns="http://www.w3.org/2000/svg" width="16.002" height="16">
<g fill="#fcfcfc">
<path d="m15.343 4.926.707.707-.354.354a3 3 0 0 0 0 4.242l.354.353-.707.707-.354-.353a4 4 0 0 1 0-5.656z" opacity=".35"/>
<path d="m13.221 2.805.707.707-.353.353a6 6 0 0 0 0 8.485l.353.353-.707.707-.353-.353a7 7 0 0 1 0-9.899z" opacity=".35"/>
<path d="M4.5 0A2.495 2.495 0 0 0 2 2.5v6C2 9.885 3.115 11 4.5 11S7 9.885 7 8.5v-6C7 1.115 5.885 0 4.5 0m0 1C5.331 1 6 1.669 6 2.5v6c0 .831-.669 1.5-1.5 1.5S3 9.331 3 8.5v-6C3 1.669 3.669 1 4.5 1M0 7v1.5c0 2.321 1.748 4.198 4 4.45V15H2v1h5v-1H5v-2.05c2.252-.252 4-2.129 4-4.45V7H8v1.5C8 10.439 6.439 12 4.5 12S1 10.439 1 8.5V7z"/>
</g>
</svg>
