<svg width="24" height="24" viewBox="0 0 24 24" fill="none" xmlns="http://www.w3.org/2000/svg">
<path fill-rule="evenodd" clip-rule="evenodd" d="M16.8975 9.03355C16.7999 8.93608 16.6418 8.93608 16.5442 9.03355L12.1767 13.395C12.0791 13.4925 11.9209 13.4925 11.8233 13.395L9.55939 11.1342C9.16898 10.7443 8.53657 10.7443 8.14616 11.1342L7.45631 11.8231C7.35852 11.9208 7.35852 12.0792 7.45631 12.1769L11.6467 16.3615C11.8419 16.5564 12.1581 16.5564 12.3533 16.3615L17.5859 11.1362C17.977 10.7455 17.977 10.1116 17.5859 9.72097L16.8975 9.03355Z" fill="url(#paint0_linear_116_2)"/>
<defs>
<style id="current-color-scheme" type="text/css">.ColorScheme-Text { color:#ffffff; }</style>
</defs>
<g opacity="0.90">
<path class="ColorScheme-Text" d="M12.3489 1.31699C12.1496 1.14246 11.8504 1.14246 11.6511 1.31699C9.03929 3.60388 5.01199 5.33913 3.11965 5.9444C2.79177 6.04927 2.5571 6.34846 2.56554 6.6926C2.74461 13.9969 6.25285 21.8522 12 23C17.7471 21.8522 21.2554 13.9969 21.4345 6.6926C21.4429 6.34846 21.2082 6.04927 20.8803 5.9444C18.988 5.33913 14.9607 3.60388 12.3489 1.31699ZM16.5442 9.03355C16.6418 8.93608 16.7999 8.93608 16.8975 9.03355L17.5859 9.72097C17.977 10.1116 17.977 10.7455 17.5859 11.1362L12.3533 16.3615C12.1581 16.5564 11.8419 16.5564 11.6467 16.3615L7.45631 12.1769C7.35852 12.0792 7.35852 11.9208 7.45631 11.8231L8.14616 11.1342C8.53657 10.7443 9.16898 10.7443 9.55939 11.1342L11.8233 13.395C11.9209 13.4925 12.0791 13.4925 12.1767 13.395L16.5442 9.03355Z" fill="currentColor"/>
</g>
<rect width="24" height="24" fill="#A4A4A4" fill-opacity="0.01"/>
<defs>
<linearGradient id="paint0_linear_116_2" x1="19.0456" y1="6.33038" x2="9.16604" y2="13.9604" gradientUnits="userSpaceOnUse">
<stop stop-color="#73CFFB"/>
<stop offset="1" stop-color="#3EAAE5"/>
</linearGradient>
</defs>
</svg>
