<svg xmlns="http://www.w3.org/2000/svg" width="16" height="16">
<path fill="currentColor" d="M13.374 0 5.997 1.905c-.555.149-1.001.739-1.001 1.312v9.09a2.84 2.84 0 0 0-2.032-.22c-1.35.35-2.197 1.484-1.908 2.53.29 1.047 1.62 1.632 2.971 1.281 1.077-.28 1.82-1.07 1.938-1.905l.032-8.59 7.002-1.874v6.778a2.84 2.84 0 0 0-2.032-.219c-1.35.35-2.196 1.484-1.907 2.53.29 1.047 1.62 1.632 2.97 1.281 1.077-.28 1.82-1.071 1.938-1.905L14 .813c0-.43-.267-.752-.626-.813" class="ColorScheme-Text" color="#fcfcfc"/>
</svg>
