<svg xmlns="http://www.w3.org/2000/svg" width="16" height="16">
<g fill="#fcfcfc">
<path d="M1 7v3c0 3 2 5 5 5h2c3 0 4.76-1.566 4.959-4h.541C15 11 15 9.5 15 9.5v-1C15 7 13.5 7 13.5 7H13zm1 1h10v2c0 2.216-1.784 4-4 4H6c-2.216 0-4-1.784-4-4zm11.5 0c.5-.032.516.531.516.531v1c0 .469-.516.469-.516.469H13l.01-1.985z"/>
<path d="M7.193-.001C6.095 1.384 5.765 2.065 6.161 2.947c.36.798 1.288 1.205.821 3.052.767-.9 1.376-2.042.774-2.964-.612-.938-.948-1.508-.563-3.036m-3 0C3.095 1.384 2.765 2.065 3.161 2.947c.36.798 1.288 1.205.821 3.052.767-.9 1.376-2.042.774-2.964-.612-.938-.948-1.508-.563-3.036m6 0C9.095 1.384 8.765 2.065 9.161 2.947c.36.798 1.288 1.205.821 3.052.767-.9 1.376-2.042.774-2.964-.612-.938-.948-1.508-.563-3.036" opacity=".35"/>
</g>
</svg>
