<svg xmlns="http://www.w3.org/2000/svg" id="svg4153" width="22" height="22" version="1.1">
<defs id="defs4157">
<style id="current-color-scheme" type="text/css">
.ColorScheme-Text{color:#fcfcfc}
</style>
</defs>
<g id="network-mobile-20-locked" transform="translate(-66 44)">
<path id="rect4778" fill="none" d="M66-44h22v22H66z" opacity=".55"/>
<path id="path4780" fill="currentColor" fill-rule="evenodd" d="M85-41 69-25h11v-3l1-1v-2l2-2h2z" class="ColorScheme-Text" opacity=".35"/>
<path id="path4782" fill="currentColor" d="M84-32c-1.108 0-2 .892-2 2v2h-1v3h6v-3h-1v-2c0-1.108-.892-2-2-2m0 1c.554 0 1 .446 1 1v2h-2v-2c0-.554.446-1 1-1" class="ColorScheme-Text"/>
<path id="path4796" fill="currentColor" fill-rule="evenodd" d="m76-32-7 7h7z" class="ColorScheme-Text"/>
</g>
</svg>
