<svg xmlns="http://www.w3.org/2000/svg" id="svg4153" width="22" height="22" version="1.1">
<defs id="defs4157">
<style id="current-color-scheme" type="text/css">
.ColorScheme-Text{color:#fcfcfc}
</style>
</defs>
<g id="network-wireless-available" transform="translate(85.997 -166)">
<path id="path26568" d="M-68.234 177.014a2 2 0 0 0-1.768 1.896v.09h1a1 1 0 0 1 .883-.994h.115v-.992zm.232.002v1a1 1 0 0 1 .994.883v.115h.006a1 1 0 0 1-.883.994H-68V180a2 2 0 0 0-.2.002 2 2 0 0 0-.8.219v-.207h-.002v2h1V181h.232a2 2 0 0 0 1.768-1.896v-.09h-.014v-.23a2 2 0 0 0-1.896-1.768zM-69 183v1h1v-1z" style="color:#000;fill:#ffc850;stroke-linecap:round;stroke-linejoin:round;-inkscape-stroke:none"/>
<g id="g26484" transform="translate(-220 128)">
<rect id="rect26472" width="22" height="22" x="134.003" y="38" rx="0" ry="0" style="fill:none;fill-opacity:1;stroke:none;stroke-width:.733333;stroke-linecap:round;stroke-linejoin:round;stroke-miterlimit:4;stroke-dasharray:none;stroke-opacity:1"/>
<g id="g26482" transform="translate(-55 -14)">
<path id="path26474" fill="currentColor" d="M-75 172a9.5 9.5 0 0 0-7.873 4.203.5.5 0 1 0 .832.559A8.5 8.5 0 0 1-75 173a8.5 8.5 0 0 1 6.883 3.514c.357-.024.74.03 1.031.176a.5.5 0 0 0-.035-.495A9.5 9.5 0 0 0-75 172m-.002 3a6.5 6.5 0 0 0-5.66 3.34.5.5 0 1 0 .875.484A5.5 5.5 0 0 1-75 176a5.5 5.5 0 0 1 4.56 2.43c.089-.375.264-.716.5-1.006A6.5 6.5 0 0 0-75 175Zm.002 3a4 4 0 0 0-3.621 2.307.5.5 0 0 0 .906.422 2.996 2.996 0 0 1 5.432 0 .5.5 0 0 0 .906-.422A4 4 0 0 0-75 178m0 3a1 1 0 1 0 0 2 1 1 0 0 0 0-2" class="ColorScheme-Text" transform="translate(275 -114)"/>
</g>
</g>
</g>
</svg>
