<svg xmlns="http://www.w3.org/2000/svg" width="16" height="16">
<path fill="#fcfcfc" d="M12 0c-.554 0-1 .446-1 1v5c0 .554.446 1 1 1h1v7.445c0 .308.223.555.5.555s.5-.247.5-.555V7h1c.554 0 1-.446 1-1V1c0-.554-.446-1-1-1zM2 1C.892 1 0 1.892 0 3v7c0 1.108.896 1.904 2 2h3v2H3.5a.5.5 0 0 0-.195.04.5.5 0 0 0-.159.107A.5.5 0 0 0 3 14.5a.5.5 0 0 0 .04.195.5.5 0 0 0 .106.159A.5.5 0 0 0 3.5 15h8a.5.5 0 0 0 .195-.04.5.5 0 0 0 .159-.107A.5.5 0 0 0 12 14.5c0-.277-.223-.5-.5-.5H11v-2h.5c.277 0 .5-.223.5-.5s-.224-.524-.5-.5H2c-.554 0-1-.446-1-1V3c0-.554.446-1 1-1h7.5a.499.499 0 1 0 0-1h-3zm10 0h3v1h-3zm0 2h3v3h-3zm-6 9h4v2H6z"/>
<path fill="#fcfcfc" d="M6.379 3.877a.5.5 0 0 0-.354.148.5.5 0 0 0 0 .707L7.293 6H3.5a.499.499 0 1 0 0 1h3.793L6.025 8.268a.499.499 0 1 0 .707.707l2.086-2.088a.5.5 0 0 0 .082-.088q.01-.011.018-.024.012-.017.021-.037l.004-.005.006-.016.004-.008.01-.021a.5.5 0 0 0 .027-.092l.008-.045v-.004a.5.5 0 0 0 0-.094V6.45l-.008-.045a.5.5 0 0 0-.027-.091l-.01-.022-.01-.023q0-.003-.004-.006-.009-.02-.021-.037l-.004-.004-.002-.004-.008-.012-.017-.02v-.003q-.016-.019-.034-.035-.015-.018-.035-.034L6.732 4.025a.5.5 0 0 0-.353-.148"/>
</svg>
