<svg xmlns="http://www.w3.org/2000/svg" width="16" height="16">
<path fill="#fcfcfc" d="M3 2v5.27A2 2 0 0 0 2 9V3H1v10h1V9a2 2 0 0 0 1 1.723V14H0V2zm4 3v2a2 2 0 0 0-1 .271V6H5v1.271A2 2 0 0 0 4 7V5zm1.5 5.322a2 2 0 0 0 .5.407V13h1v-2a2 2 0 0 0 1-.277V14H8v-3.271a2 2 0 0 0 .5-.407M6 10.73A2 2 0 0 0 7 11v3H4v-3a2 2 0 0 0 1-.271V13h1zm9 .27v3h-3v-3zm-1 1h-1v1h1z"/>
<path fill="#fcfcfc" d="M10 8a1 1 0 1 1 0 2 1 1 0 0 1 0-2M7 8a1 1 0 1 1 0 2 1 1 0 0 1 0-2M4 8a1 1 0 1 1 0 2 1 1 0 0 1 0-2" color="#fcfcfc" overflow="visible"/>
</svg>
