<svg xmlns="http://www.w3.org/2000/svg" id="svg4153" width="22" height="22" version="1.1">
<defs id="defs4157">
<style id="current-color-scheme" type="text/css">
.ColorScheme-Text{color:#fcfcfc}
</style>
</defs>
<g id="network-mobile-60-edge-locked" transform="translate(-22 132)">
<path id="rect5136" fill="none" d="M22-132h22v22H22z" opacity=".55"/>
<path id="path5138" fill="currentColor" fill-rule="evenodd" d="m41-129-16 16h11v-3l1-1v-2l2-2h2z" class="ColorScheme-Text" opacity=".35"/>
<path id="path5140" fill="currentColor" d="M40-120c-1.108 0-2 .892-2 2v2h-1v3h6v-3h-1v-2c0-1.108-.892-2-2-2m0 1c.554 0 1 .446 1 1v2h-2v-2c0-.554.446-1 1-1" class="ColorScheme-Text"/>
<path id="path5162" fill="currentColor" fill-rule="evenodd" d="m37-125-12 12h11v-3l1-1z" class="ColorScheme-Text"/>
<path id="path5210" fill="currentColor" d="M25-129v5h4v-1h-3v-1h2v-1h-2v-1h3v-1z" class="ColorScheme-Text"/>
</g>
</svg>
