<svg xmlns="http://www.w3.org/2000/svg" id="svg4153" width="22" height="22" version="1.1">
<defs id="defs4157">
<style id="current-color-scheme" type="text/css">
.ColorScheme-Text{color:#fcfcfc}
</style>
</defs>
<g id="network-mobile-100-gprs-locked" transform="translate(22 88)">
<path id="rect4856" fill="none" d="M-22-88H0v22h-22z" opacity=".55"/>
<path id="path4858" fill="currentColor" fill-rule="evenodd" d="m-3-85-16 16h11v-3l1-1v-2l2-2h2z" class="ColorScheme-Text"/>
<path id="path4860" fill="currentColor" d="M-4-76c-1.108 0-2 .892-2 2v2h-1v3h6v-3h-1v-2c0-1.108-.892-2-2-2m0 1c.554 0 1 .446 1 1v2h-2v-2c0-.554.446-1 1-1" class="ColorScheme-Text"/>
<path id="path5068" fill="currentColor" d="M-19-85v5h4v-3h-2v1h1v1h-2v-3h3v-1z" class="ColorScheme-Text"/>
</g>
</svg>
