<svg xmlns="http://www.w3.org/2000/svg" width="16" height="16">
<path fill="#fcfcfc" fill-rule="evenodd" d="M8 3C5.16 3 2.568 4.007.514 5.658a.5.5 0 0 0-.096.072.5.5 0 0 0-.154.36.5.5 0 0 0 .5.5.5.5 0 0 0 .318-.113A10.92 10.92 0 0 1 8 4c2.628 0 5.027.938 6.918 2.477a.5.5 0 0 0 .318.113.5.5 0 0 0 .5-.5.5.5 0 0 0-.154-.36.5.5 0 0 0-.096-.072C13.433 4.008 10.841 3 8 3M5.104 6.488a9.1 9.1 0 0 0-2.592 1.409.5.5 0 0 0-.102.074.5.5 0 0 0-.156.361.5.5 0 0 0 .5.5.5.5 0 0 0 .32-.115A8 8 0 0 1 5.367 7.45a1.5 1.5 0 0 1-.263-.963m5.793 0a1.5 1.5 0 0 1-.264.963 8 8 0 0 1 2.293 1.266.5.5 0 0 0 .32.115.5.5 0 0 0 .5-.5.5.5 0 0 0-.156-.361.5.5 0 0 0-.102-.075 9.1 9.1 0 0 0-2.591-1.408M5.137 9.76a6 6 0 0 0-.723.465.5.5 0 0 0-.168.384.5.5 0 0 0 .836.37q.287-.209.6-.377-.082-.058-.157-.127a1.47 1.47 0 0 1-.388-.715m5.726 0c-.06.264-.187.514-.388.715-.049.048-.103.086-.157.127q.313.168.6.377a.5.5 0 0 0 .836-.37.5.5 0 0 0-.168-.384 6 6 0 0 0-.723-.465M8 12a1 1 0 0 0-1 1 1 1 0 0 0 1 1 1 1 0 0 0 1-1 1 1 0 0 0-1-1" style="paint-order:stroke fill markers"/>
<path fill="#fcfcfc" fill-rule="evenodd" d="M6.586 6.086a.499.499 0 0 0-.354.854L7.293 8l-1.06 1.06a.499.499 0 1 0 .707.708L8 8.707l1.06 1.06a.499.499 0 1 0 .708-.706L8.707 8l1.06-1.06a.499.499 0 1 0-.706-.708L8 7.293l-1.06-1.06a.5.5 0 0 0-.354-.147" opacity=".5" style="paint-order:fill markers stroke"/>
</svg>
