<svg xmlns="http://www.w3.org/2000/svg" width="16" height="16">
<rect width="1" height="1" x="3" y="6" fill="#fcfcfc" rx=".5" ry=".5" style="paint-order:stroke fill markers"/>
<rect width="1" height="1" x="6" y="6" fill="#fcfcfc" rx=".5" ry=".5" style="paint-order:stroke fill markers"/>
<path fill="#fcfcfc" d="M12 0c-.554 0-1 .446-1 1v5a1 1 0 0 0 .207.604q.283-.21.605-.352A2.9 2.9 0 0 1 13 6h-1V3h3v3h-2c.402 0 .804.087 1.172.25.35.15.672.367.94.639q.045.045.087.091h.002A1 1 0 0 0 16 6V1c0-.554-.446-1-1-1zM2 1C.892 1 0 1.892 0 3v7c0 1.108.896 1.904 2 2h3v2H3.5a.499.499 0 1 0 0 1h5.777A1.96 1.96 0 0 1 9 14H6v-2h3v-1H2c-.554 0-1-.446-1-1V3c0-.554.446-1 1-1h7.5a.499.499 0 1 0 0-1h-3zm10 0h3v1h-3z"/>
<path fill="#fcfcfc" d="M13 7q-.414 0-.781.164a2.03 2.03 0 0 0-1.063 1.063A2 2 0 0 0 11 9v1c-.554 0-1 .446-1 1v3c0 .554.446 1 1 1h4c.554 0 1-.446 1-1v-3c0-.554-.446-1-1-1V9q0-.406-.164-.773a1.9 1.9 0 0 0-.43-.633 1.9 1.9 0 0 0-.633-.43A1.9 1.9 0 0 0 13 7m0 1a.95.95 0 0 1 .383.078.9.9 0 0 1 .32.219.9.9 0 0 1 .219.32A.95.95 0 0 1 14 9v1h-2V9a.97.97 0 0 1 .29-.703q.14-.141.32-.219A1 1 0 0 1 13 8m-2 3h4v3h-4z" color="#000" style="-inkscape-stroke:none;paint-order:stroke fill markers"/>
<rect width="1" height="1" x="9" y="6" fill="#fcfcfc" rx=".5" ry=".5" style="paint-order:stroke fill markers"/>
</svg>
