<svg xmlns="http://www.w3.org/2000/svg" width="16" height="16">
<rect width="1" height="1" x="3" y="6" fill="#fcfcfc" rx=".5" ry=".5" style="paint-order:stroke fill markers"/>
<rect width="1" height="1" x="6" y="6" fill="#fcfcfc" rx=".5" ry=".5" style="paint-order:stroke fill markers"/>
<rect width="1" height="1" x="9" y="6" fill="#fcfcfc" rx=".5" ry=".5" style="paint-order:stroke fill markers"/>
<path fill="#fcfcfc" d="M12 0c-.554 0-1 .446-1 1v5c0 .554.446 1 1 1h1v7.445c0 .308.223.555.5.555s.5-.247.5-.555V7h1c.554 0 1-.446 1-1V1c0-.554-.446-1-1-1zM2 1C.892 1 0 1.892 0 3v7c0 1.108.896 1.904 2 2h3v2H3.5a.5.5 0 0 0-.195.039.5.5 0 0 0-.159.107A.5.5 0 0 0 3 14.5a.5.5 0 0 0 .04.195.5.5 0 0 0 .106.158A.5.5 0 0 0 3.5 15h8a.5.5 0 0 0 .195-.04.5.5 0 0 0 .159-.107A.5.5 0 0 0 12 14.5c0-.277-.223-.5-.5-.5H11v-2h.5c.277 0 .5-.223.5-.5s-.224-.524-.5-.5H2c-.554 0-1-.446-1-1V3c0-.554.446-1 1-1h7.5a.499.499 0 1 0 0-1zm10 0h3v1h-3zm0 2h3v3h-3zm-6 9h4v2H6z"/>
</svg>
