<svg xmlns="http://www.w3.org/2000/svg" width="16" height="16">
<g fill="#fcfcfc">
<path fill-rule="evenodd" d="M8 3C5.16 3 2.568 4.007.514 5.658a.5.5 0 0 0-.096.072.5.5 0 0 0-.154.36.5.5 0 0 0 .5.5.5.5 0 0 0 .318-.113A10.92 10.92 0 0 1 8 4c2.628 0 5.027.938 6.918 2.477a.5.5 0 0 0 .318.113.5.5 0 0 0 .5-.5.5.5 0 0 0-.154-.36.5.5 0 0 0-.096-.072C13.433 4.008 10.841 3 8 3" style="paint-order:stroke fill markers"/>
<path d="M8 9c-1.352 0-2.583.469-3.586 1.225a.5.5 0 0 0-.168.384.5.5 0 0 0 .836.37C5.904 10.375 6.902 10 8 10c.926 0 1.772.278 2.51.723a3.3 3.3 0 0 1 .55-.836C10.164 9.34 9.13 9 8 9"/>
<path fill-rule="evenodd" d="M8 6a8.92 8.92 0 0 0-5.488 1.897.5.5 0 0 0-.102.074.5.5 0 0 0-.156.361.5.5 0 0 0 .5.5.5.5 0 0 0 .32-.115A7.94 7.94 0 0 1 8 7c1.863 0 3.567.648 4.926 1.717a.5.5 0 0 0 .32.115.5.5 0 0 0 .5-.5.5.5 0 0 0-.156-.361.5.5 0 0 0-.102-.075A8.92 8.92 0 0 0 8 6" style="paint-order:stroke fill markers"/>
<circle cx="8" cy="13" r="1" fill-rule="evenodd" style="paint-order:stroke fill markers"/>
</g>
<path fill="#fcfcfc" fill-rule="evenodd" d="M13 10c-1.108 0-2 .892-2 2-.554 0-1 .446-1 1v2c0 .554.446 1 1 1h4c.554 0 1-.446 1-1v-2c0-.554-.446-1-1-1 0-1.108-.892-2-2-2m0 1c.554 0 1 .446 1 1h-2c0-.554.446-1 1-1" style="paint-order:normal"/>
</svg>
