<svg width="24" height="24" viewBox="0 0 24 24" fill="none" xmlns="http://www.w3.org/2000/svg">
<rect width="24" height="24" fill="#A4A4A4" fill-opacity="0.01"/><defs>
<style id="current-color-scheme" type="text/css">.ColorScheme-Text { color:#ffffff; }</style>
</defs>
<g opacity="0.90">
<path class="ColorScheme-Text" d="M13.512 19.6179C12.7144 20.5391 11.2856 20.5391 10.488 19.6179L1.15314 8.83683C0.494 8.07556 0.495112 6.93237 1.23924 6.25394C2.4843 5.11881 3.87524 4.18872 5.41207 3.46366C7.48048 2.48789 9.67646 2 12 2C14.3235 2 16.5195 2.48789 18.5879 3.46366C20.1248 4.18872 21.5157 5.11881 22.7608 6.25394C23.5049 6.93237 23.506 8.07557 22.8469 8.83683L13.512 19.6179Z" fill="currentColor"/>
</g>
<path d="M12.756 16.4363C12.3572 16.8969 11.6428 16.8969 11.244 16.4363L4.76876 8.95789C4.32933 8.45038 4.33007 7.68825 4.82616 7.23596C5.6562 6.47921 6.58349 5.85915 7.60805 5.37578C8.98699 4.72526 10.451 4.4 12 4.4C13.549 4.4 15.013 4.72526 16.392 5.37578C17.4165 5.85915 18.3438 6.47921 19.1738 7.23596C19.6699 7.68825 19.6707 8.45038 19.2312 8.95789L12.756 16.4363Z" fill="url(#paint0_linear_69_87)"/>
<defs>
<linearGradient id="paint0_linear_69_87" x1="19.5" y1="7" x2="10.069" y2="16.0273" gradientUnits="userSpaceOnUse">
<stop stop-color="#73CFFB"/>
<stop offset="1" stop-color="#3EAAE5"/>
</linearGradient>
</defs>
</svg>
