<svg xmlns="http://www.w3.org/2000/svg" viewBox="0 0 16 16">
<path fill="#fcfcfc" d="M0 2.358v11.356c0 2.285 2 2.285 2 2.285h12c2 0 2-2.285 2-2.285V2.284s0-2.285-2-2.285H2S0 0 0 2.357zm2-.072h4c.667.018 1.167.958.875 1.644L5.5 7.107c.354.133.748.224.968.5.332.418.531.926.531 1.536v2.286c0 1.27-.907 2.285-2 2.285H2V11.43h3V9.143H4c-.667-.019-1.167-.958-.875-1.643l1.25-2.928H2zm10 0c2 0 2 2.286 2 2.286v1.143h-2V4.572h-2v6.857h2V9.143h-1v-2.25l2-.035 1 .036v4.5s0 2.319-2 2.319h-2s-2 0-2-2.284V4.572c0-2.287 2-2.287 2-2.287z" color="#fcfcfc"/>
</svg>
