<svg xmlns="http://www.w3.org/2000/svg" width="22" height="22">
<style id="current-color-scheme" type="text/css">
.ColorScheme-Text{color:#fcfcfc}
</style>
<g id="network-mobile-80-5g-locked" transform="translate(0 88)">
<path id="rect4862-9" d="M0-88h22v22H0z" style="opacity:.55;fill:none;fill-opacity:1;stroke:none;stroke-width:3.56737041px;stroke-linecap:butt;stroke-linejoin:miter;stroke-miterlimit:4;stroke-dasharray:none;stroke-dashoffset:0;stroke-opacity:1"/>
<path id="path4864-7" d="M19-85 3-69h11v-3l1-1v-2l1-1 1-1h2z" class="ColorScheme-Text" style="opacity:.35;fill:currentColor;fill-opacity:1;fill-rule:evenodd;stroke:none;stroke-width:1px;stroke-linecap:butt;stroke-linejoin:miter;stroke-opacity:1"/>
<path id="path4866-3" d="M18-76c-1.108 0-2 .892-2 2v2h-1v3h6v-3h-1v-2c0-1.108-.892-2-2-2m0 1c.554 0 1 .446 1 1v2h-2v-2c0-.554.446-1 1-1" class="ColorScheme-Text" style="opacity:1;fill:currentColor;fill-opacity:1;stroke:none;stroke-width:.1;stroke-miterlimit:4;stroke-dasharray:none;stroke-opacity:1"/>
<path id="path4892-6" d="M17-83 3-69h11v-3l1-1v-2l1-1 1-1z" class="ColorScheme-Text" style="opacity:1;fill:currentColor;fill-opacity:1;fill-rule:evenodd;stroke:none;stroke-width:1px;stroke-linecap:butt;stroke-linejoin:miter;stroke-opacity:1"/>
<path id="path5070-1" d="M8-85v5h4v-3h-2v1h1v1H9v-3h3v-1H9Z" class="ColorScheme-Text" style="opacity:1;fill:currentColor;fill-opacity:1;stroke:none"/>
<path id="rect1642-6" d="M3-85v3h3v1H3v1h4v-3H4v-1h3v-1z" class="ColorScheme-Text" style="opacity:1;fill:currentColor;fill-opacity:1;stroke:none;stroke-width:1;stroke-miterlimit:4;stroke-dasharray:none;stroke-opacity:1"/>
</g>
</svg>
