<svg xmlns="http://www.w3.org/2000/svg" id="svg4153" width="22" height="22" version="1.1">
<defs id="defs4157">
<style id="current-color-scheme" type="text/css">
.ColorScheme-Text{color:#fcfcfc}
</style>
</defs>
<g id="network-flightmode-off" style="opacity:.35" transform="translate(66)">
<path id="rect6556" d="M-66 0h22v22h-22z" style="fill:none;fill-opacity:1;stroke:none"/>
<path id="path6558" fill="currentColor" d="m-56.218 9.79-.685-5.484a1.16 1.16 0 0 1 1.009-1.297l.072-.007.168-.002a1.5 1.5 0 0 1 1.374.899l2.512 5.742 2.752-.09a1.95 1.95 0 0 1 2.005 1.739l.01.145.001.065c0 1.077-.873 1.95-1.96 1.95l-2.807-.092-2.513 5.743a1.5 1.5 0 0 1-1.374.899h-.096a1.162 1.162 0 0 1-1.153-1.306l.685-5.485-2.142-.071-.958 1.676a1.36 1.36 0 0 1-1.182.686 1 1 0 0 1-1-1v-1.466l-.161-.013a1.534 1.534 0 0 1-.001-3.042l.162-.013V8.5a1 1 0 0 1 1-1c.489 0 .94.262 1.182.686l.958 1.675zm.564-5.79-.116.001a.16.16 0 0 0-.14.181l.82 6.57-3.84.129-1.256-2.199A.36.36 0 0 0-60.5 8.5v2.432l-.984.034a.534.534 0 0 0 0 1.068l.984.032V14.5l.076-.008a.36.36 0 0 0 .238-.174l1.256-2.2 3.84.129-.822 6.59c0 .09.072.163.162.163h.096a.5.5 0 0 0 .458-.3l2.785-6.364 3.46.115A.95.95 0 0 0-48 11.5v-.032a.95.95 0 0 0-.983-.918l-3.43.113-2.783-6.363a.5.5 0 0 0-.458-.3" class="ColorScheme-Text"/>
</g>
</svg>
