<svg xmlns="http://www.w3.org/2000/svg" id="svg4153" width="22" height="22" version="1.1">
<defs id="defs4157">
<style id="current-color-scheme" type="text/css">
.ColorScheme-Text{color:#fcfcfc}.ColorScheme-NegativeText{color:#e74c3c}
</style>
</defs>
<g id="network-unavailable" transform="translate(124 -24)">
<path id="rect18612" d="M-124 24h22v22h-22z" style="fill:none;fill-opacity:1;stroke:none"/>
<path id="path18614" fill="currentColor" d="M-29 4c-.554 0-1 .446-1 1v5c0 .554.446 1 1 1h1v1.5a.499.499 0 1 0 1 0V11h1c.554 0 1-.446 1-1V5c0-.554-.446-1-1-1zm-10 1c-1.108 0-2 .892-2 2v8c0 1.108.892 2 2 2h3v2h-1.5a.499.499 0 1 0 0 1h8a.499.499 0 1 0 0-1h-.5v-2h.5a.499.499 0 1 0 0-1H-39c-.554 0-1-.446-1-1V7c0-.554.446-1 1-1h7.5a.499.499 0 1 0 0-1h-3zm10 0h3v1h-3zm0 2h3v3h-3zm-6 10h4v2h-4z" class="ColorScheme-Text" transform="translate(-80 24)"/>
<path id="path18701" d="m-107.152 38-.848.848 2.152 2.152-2.152 2.152.848.848 2.152-2.152 2.152 2.152.848-.848-2.152-2.152 2.152-2.152-.848-.848-2.152 2.152z" class="ColorScheme-NegativeText" style="color:#e74c3c;fill:#ff3232;fill-opacity:1;stroke:none;stroke-width:1.2"/>
</g>
</svg>
