<svg xmlns="http://www.w3.org/2000/svg" width="16" height="16">
<path fill="#d35f5f" d="M11.5 7A4.5 4.5 0 0 0 7 11.5a4.5 4.5 0 0 0 4.5 4.5 4.5 4.5 0 0 0 4.5-4.5A4.5 4.5 0 0 0 11.5 7m0 1a3.5 3.5 0 0 1 3.5 3.5 3.5 3.5 0 0 1-3.5 3.5A3.5 3.5 0 0 1 8 11.5 3.5 3.5 0 0 1 11.5 8" style="paint-order:stroke fill markers"/>
<rect width="1" height="3" x="11" y="9" fill="#d35f5f" rx="0" ry="0" style="paint-order:stroke fill markers"/>
<path fill="#d35f5f" d="M11 13h1v1h-1z" style="paint-order:stroke fill markers"/>
<path fill="#fcfcfc" d="M12 0c-.554 0-1 .446-1 1v5c0 .012.004.023.004.035A6 6 0 0 1 11.5 6a5.5 5.5 0 0 1 3.158 1H15c.554 0 1-.446 1-1V1c0-.554-.446-1-1-1zM2 1C.892 1 0 1.892 0 3v7c0 1.108.896 1.904 2 2h3v2H3.5a.499.499 0 1 0 0 1h3.768a5.5 5.5 0 0 1-.655-1H6v-2h.037A6 6 0 0 1 6 11.5a6 6 0 0 1 .037-.5H2c-.554 0-1-.446-1-1V3c0-.554.446-1 1-1h7.5a.499.499 0 1 0 0-1zm10 0h3v1h-3zm0 2h3v3h-3z"/>
</svg>
