<svg xmlns="http://www.w3.org/2000/svg" id="svg4153" width="22.002" height="22" version="1.1">
<defs id="defs4157">
<style id="current-color-scheme" type="text/css">
.ColorScheme-Text{color:#fcfcfc}
</style>
</defs>
<g id="network-bluetooth-activated-locked" transform="translate(-66)">
<path id="rect4674-6" fill="none" d="M66 0h22v22H66z"/>
<path id="path4676-7" fill="currentColor" d="M143 3v7.041l-3.293-3.293-.002.002-.996-.996-.707.707 4.545 4.541-4.545 4.541.707.707.996-.996h.002l3.295-3.293V19h1l4-4-4-4 4-4-4-4zm1.002 1.416 2.586 2.586-2.586 2.586zm-11 5.584a1 1 0 1 0 0 2 1 1 0 0 0 0-2m4 0a1 1 0 1 0 0 2 1 1 0 0 0 0-2m14 2c-1.108 0-2 .892-2 2v2h-1v3h6v-3h-1v-2c0-1.108-.892-2-2-2m-7 .416 2.586 2.586-2.586 2.586zm7 .584c.554 0 1 .446 1 1v2h-2v-2c0-.554.446-1 1-1" class="ColorScheme-Text" transform="translate(-66)"/>
</g>
</svg>
