<svg xmlns="http://www.w3.org/2000/svg" width="16" height="16.001">
<path fill="#fcfcfc" d="M12 2v4.023a5.5 5.5 0 0 1 1 .186V3h1v3.603a5.5 5.5 0 0 1 1 .655V2zM8 5v2.268a5.5 5.5 0 0 1 1-.655V6h1v.213a5.5 5.5 0 0 1 1-.176V5zM4 8v6h2.613A5.5 5.5 0 0 1 6 11.5V13H5V9h1v2.5a5.5 5.5 0 0 1 1-3.143V8zm-4 3v3h3v-3zm1 1h1v1H1z"/>
<path fill="#fcfcfc" d="M11.5 7A4.5 4.5 0 0 0 7 11.5a4.5 4.5 0 0 0 4.5 4.5 4.5 4.5 0 0 0 4.5-4.5A4.5 4.5 0 0 0 11.5 7m0 1a3.5 3.5 0 0 1 3.5 3.5 3.5 3.5 0 0 1-3.5 3.5A3.5 3.5 0 0 1 8 11.5 3.5 3.5 0 0 1 11.5 8m-1.414 1.379-.707.707 1.414 1.414-1.414 1.414.707.707 1.414-1.414 1.414 1.414.707-.707-1.414-1.414 1.414-1.414-.707-.707-1.414 1.414z" style="paint-order:stroke fill markers"/>
</svg>
