<svg width="24" height="24" viewBox="0 0 24 24" fill="none" xmlns="http://www.w3.org/2000/svg">
<rect width="24" height="24" fill="#A4A4A4" fill-opacity="0.01"/>
<defs>
<style id="current-color-scheme" type="text/css">.ColorScheme-Text { color:#ffffff; }</style>
</defs>
<g opacity="0.90">
<path class="ColorScheme-Text" fill-rule="evenodd" clip-rule="evenodd" d="M10.488 19.6179C11.2856 20.5391 12.7144 20.5391 13.512 19.6179L22.8469 8.83683C23.506 8.07557 23.5049 6.93237 22.7608 6.25394C21.5157 5.11881 20.1248 4.18872 18.5879 3.46366C16.5195 2.48789 14.3235 2 12 2C9.67646 2 7.48048 2.48789 5.41207 3.46366C3.87524 4.18872 2.4843 5.11881 1.23924 6.25394C0.495112 6.93237 0.494 8.07556 1.15314 8.83683L10.488 19.6179ZM11.2298 16.9697C11.6297 17.4527 12.3703 17.4527 12.7702 16.9697L19.2838 9.10295C19.6976 8.6031 19.6973 7.87123 19.2307 7.42024C18.3862 6.60407 17.44 5.93746 16.392 5.42041C15.013 4.74014 13.549 4.4 12 4.4C10.451 4.4 8.98699 4.74014 7.60805 5.42041C6.56005 5.93746 5.61381 6.60407 4.76934 7.42024C4.30271 7.87123 4.30237 8.6031 4.71624 9.10295L11.2298 16.9697Z" fill="currentColor"/>
</g>
</svg>
