<svg width="24" height="24" viewBox="0 0 24 24" fill="none" xmlns="http://www.w3.org/2000/svg">
<rect width="24" height="24" fill="#A4A4A4" fill-opacity="0.01"/>
<path fill-rule="evenodd" clip-rule="evenodd" d="M7.26169 13.2049L11.62 18.4201C11.8199 18.6593 12.1875 18.6593 12.3874 18.4201L16.7366 13.2158C16.5956 13.2935 16.4229 13.2824 16.2844 13.1788C15.7035 12.7443 15.0827 12.4088 14.422 12.1725C13.6343 11.8908 12.827 11.75 12 11.75C11.1778 11.75 10.3752 11.8908 9.59233 12.1725C8.9348 12.4091 8.31561 12.7449 7.73475 13.1801C7.58945 13.289 7.40627 13.2959 7.26169 13.2049Z" fill="url(#paint0_linear_85_59)"/>
<defs>
<style id="current-color-scheme" type="text/css">.ColorScheme-Text { color:#ffffff; }</style>
</defs>
<g opacity="0.90">
<path class="ColorScheme-Text" fill-rule="evenodd" clip-rule="evenodd" d="M10.0848 20.8875C11.0842 22.0838 12.9228 22.0838 13.9222 20.8875L23.305 9.65515C24.0904 8.71499 24.0914 7.32875 23.1904 6.49872C21.92 5.32827 20.5084 4.3634 18.9557 3.6041C16.7729 2.53676 14.4555 2.00309 12.0035 2.00309C9.55149 2.00309 7.2341 2.53676 5.05132 3.6041C3.49862 4.3634 2.08703 5.32827 0.816556 6.49872C-0.0844131 7.32875 -0.0833551 8.71499 0.702004 9.65516L10.0848 20.8875ZM11.0444 19.7413C11.5441 20.3395 12.4633 20.3395 12.963 19.7413L21.8756 9.07189C22.2683 8.60181 22.2664 7.9122 21.8356 7.47676C20.6486 6.27693 19.3025 5.30896 17.7972 4.57283C15.9782 3.68339 14.047 3.23866 12.0037 3.23866C9.96036 3.23866 8.0292 3.68339 6.21022 4.57283C4.70491 5.30896 3.35877 6.27693 2.17178 7.47676C1.741 7.9122 1.73911 8.60181 2.13179 9.07189L11.0444 19.7413Z" fill="currentColor"/>
</g>
<defs>
<linearGradient id="paint0_linear_85_59" x1="17.185" y1="11.5981" x2="10.6301" y2="17.8188" gradientUnits="userSpaceOnUse">
<stop stop-color="#73CFFB"/>
<stop offset="1" stop-color="#3EAAE5"/>
</linearGradient>
</defs>
</svg>
