<svg width="24" height="24" viewBox="0 0 24 24" fill="none" xmlns="http://www.w3.org/2000/svg">
<rect width="24" height="24" fill="#A4A4A4" fill-opacity="0.01"/><defs>
<style id="current-color-scheme" type="text/css">.ColorScheme-Text { color:#ffffff; }</style>
</defs>
<g opacity="0.90">
<path class="ColorScheme-Text" d="M13.512 19.6179C12.7144 20.5391 11.2856 20.5391 10.488 19.6179L1.1599 8.84464C0.497866 8.08003 0.502534 6.9311 1.25257 6.2526C2.50987 5.11523 3.90724 4.18461 5.44467 3.46076C7.51308 2.48692 9.69819 2 12 2C14.3179 2 16.5111 2.48692 18.5795 3.46076C20.1174 4.18484 21.5107 5.11581 22.7594 6.25366C23.5041 6.93223 23.5056 8.07606 22.8461 8.8377L13.512 19.6179ZM8.88531 12.7203C9.35211 12.3823 9.85513 12.1328 10.3944 11.9718C10.9336 11.8109 11.4688 11.7304 12 11.7304C12.5473 11.7304 13.0905 11.8109 13.6298 11.9718C14.169 12.1328 14.664 12.3823 15.1147 12.7203L18.744 8.56672C19.1296 8.1255 19.0567 7.44526 18.5596 7.13504C17.644 6.56362 16.717 6.13564 15.7787 5.85111C14.5312 5.47284 13.2716 5.2837 12 5.2837C10.7445 5.2837 9.49296 5.47284 8.24547 5.85111C7.30661 6.13579 6.37459 6.56408 5.4494 7.13596C4.94886 7.44536 4.87331 8.12881 5.2605 8.57193L8.88531 12.7203Z" fill="currentColor"/>
</g>
<path d="M9.26601 12.4691C9.04422 12.6018 8.75516 12.5714 8.58509 12.3767L7.38114 10.9989L7.38 11L9.81 13.8L11.257 15.3857C11.6551 15.822 12.3427 15.8201 12.7383 15.3814L14.22 13.7385L16.19 11.5L16.1853 11.495L15.42 12.3709C15.2478 12.568 14.9542 12.5962 14.7307 12.4602C14.3869 12.2511 14.0199 12.0883 13.6298 11.9718C13.0905 11.8109 12.5473 11.7304 12 11.7304C11.4688 11.7304 10.9336 11.8109 10.3944 11.9718C9.99875 12.0899 9.62263 12.2557 9.26601 12.4691Z" fill="url(#paint0_linear_69_25)"/>
<defs>
<linearGradient id="paint0_linear_69_25" x1="15" y1="11.5" x2="11.9929" y2="16.5869" gradientUnits="userSpaceOnUse">
<stop stop-color="#73CFFB"/>
<stop offset="1" stop-color="#3EAAE5"/>
</linearGradient>
</defs>
</svg>
