<svg xmlns="http://www.w3.org/2000/svg" width="16" height="16">
<g fill="#fcfcfc" stroke-linecap="square" stroke-width="2.667" aria-label="" style="paint-order:stroke fill markers">
<path d="M12 0c-.554 0-1 .446-1 1v5c0 .045.008.087.013.13a1 1 0 0 1 .49-.13 1 1 0 0 1 .891.553l.223.447H13v.764l1 2V7h1c.554 0 1-.446 1-1V1c0-.554-.446-1-1-1zM2 1C.892 1 0 1.892 0 3v7c0 1.108.896 1.904 2 2h3v2H3.5a.5.5 0 1 0 0 1h2.883l.5-1H6v-2h1.883l.5-1H2c-.554 0-1-.446-1-1V3c0-.554.446-1 1-1h7.5a.5.5 0 1 0 0-1h-3zm10 0h3v1h-3zm0 2h3v3h-3z"/>
<path d="M11.253 11.817v-2h1v2zm0 2v-1h1v1zm-4 1 4.5-9 4.5 9zm1.414-.875h6.172L11.753 7.77z" color="#000" style="-inkscape-stroke:none" transform="translate(-.253 1.183)"/>
</g>
</svg>
