<svg xmlns="http://www.w3.org/2000/svg" viewBox="0 0 22 22">
<defs>
<style id="current-color-scheme" type="text/css">
.ColorScheme-Text{color:#fcfcfc}
</style>
</defs>
<path d="M31 8.5v.875h.875c.75 0 1.875 1.875 1.875 1.875s-1.125 1.85-1.85 1.85H31v.9c1.5 0 2.022-.356 2.496-.965L35 11.25l-1.504-1.785C33.022 8.855 32.5 8.5 31 8.5"/>
<path d="M31 9c-.625.875-1.398 1.416-2.3 2l.577.916C29.875 11.5 30.5 10.875 31 10.25V14l.9-.375V11.25c-.025-1.25-.15-1.875-.15-1.875z"/>
<path d="M31 9.375V8.5h.875c.75 0 1.875-1.875 1.875-1.875s-1.125-1.85-1.85-1.85H31v-.9c1.5 0 2.022.356 2.496.965L35 6.625 33.496 8.41c-.474.61-.996.965-2.496.965"/>
<path d="M31 8.875c-.625-.875-1.398-1.416-2.3-2l.577-.916C29.875 6.375 30.5 7 31 7.625v-3.75l.9.375v2.375c-.025 1.25-.15 1.875-.15 1.875z"/>
<path d="M11 3.033a14.94 14.94 0 0 0-9.617 4.35l.709.709A13.94 13.94 0 0 1 11 4.035zm4 .842v3.75c-.5-.625-1.125-1.25-1.723-1.666l-.578.916c.903.584 1.676 1.125 2.301 2V9c-.625.875-1.398 1.416-2.3 2l.577.916C13.875 11.5 14.5 10.875 15 10.25V14c1.5 0 2.022-.356 2.496-.965L19 11.25l-1.504-1.785a2.4 2.4 0 0 0-.535-.527 2.4 2.4 0 0 0 .535-.528L19 6.625 17.496 4.84c-.474-.61-.996-.965-2.496-.965m.9.9c.725 0 1.85 1.85 1.85 1.85S16.625 8.5 15.875 8.5h-.125s.125-.625.15-1.875zM11 7.045a10.95 10.95 0 0 0-6.785 3.17l.707.707A9.96 9.96 0 0 1 11 8.049zm4.75 2.33h.125c.75 0 1.875 1.875 1.875 1.875s-1.125 1.85-1.85 1.85v-1.85c-.025-1.25-.15-1.875-.15-1.875M11 11.07a6.97 6.97 0 0 0-3.955 1.975l.709.709A6 6 0 0 1 11 12.082zM12 15c-1.108 0-2 .892-2 2s.892 2 2 2 2-.892 2-2-.892-2-2-2m0 1c.554 0 1 .446 1 1s-.446 1-1 1-1-.446-1-1 .446-1 1-1" class="ColorScheme-Text" style="fill:currentColor"/>
</svg>
