<svg xmlns="http://www.w3.org/2000/svg" id="svg4153" width="22" height="22" version="1.1">
<defs id="defs4157">
<style id="current-color-scheme" type="text/css">
.ColorScheme-Text{color:#fcfcfc}
</style>
</defs>
<g id="network-mobile-80-edge-locked" transform="translate(0 132)">
<path id="rect5130" fill="none" d="M0-132h22v22H0z" opacity=".55"/>
<path id="path5132" fill="currentColor" fill-rule="evenodd" d="M19-129 3-113h11v-3l1-1v-2l2-2h2z" class="ColorScheme-Text" opacity=".35"/>
<path id="path5134" fill="currentColor" d="M18-120c-1.108 0-2 .892-2 2v2h-1v3h6v-3h-1v-2c0-1.108-.892-2-2-2m0 1c.554 0 1 .446 1 1v2h-2v-2c0-.554.446-1 1-1" class="ColorScheme-Text"/>
<path id="path5160" fill="currentColor" fill-rule="evenodd" d="M17-127 3-113h11v-3l1-1v-2l2-2z" class="ColorScheme-Text"/>
<path id="path5208" fill="currentColor" d="M3-129v5h4v-1H4v-1h2v-1H4v-1h3v-1z" class="ColorScheme-Text"/>
</g>
</svg>
