<svg xmlns="http://www.w3.org/2000/svg" id="svg6" version="1.1" viewBox="0 0 22 22">
<style id="current-color-scheme" type="text/css">
.ColorScheme-Text{color:#fcfcfc}.ColorScheme-NegativeText{color:#da4453}
</style>
<path id="path1595" fill="currentColor" d="M3 3v6h2v7c0 1.662 1.338 3 3 3h4v-5H7v2h2v2H8c-1.108 0-2-.892-2-2V9h2V3zm6 0v1h9v7h1V3h-1zM4 4h3v4H4zm1 1v2h1V5zm-2 5v6h1v-6z" class="ColorScheme-Text" opacity=".5"/>
<path id="path1609" fill="currentColor" d="m13.848 13.003-.848.849 2.152 2.151L13 18.155l.848.848L16 16.852l2.152 2.151.848-.848-2.152-2.152L19 13.852l-.848-.849L16 15.155Z" class="ColorScheme-NegativeText"/>
</svg>
