<svg xmlns="http://www.w3.org/2000/svg" id="svg4153" width="22" height="22" version="1.1">
<defs id="defs4157">
<style id="current-color-scheme" type="text/css">
.ColorScheme-Text{color:#fcfcfc}
</style>
</defs>
<g id="network-wireless-off" transform="translate(-134.003 -38)">
<g id="g12246" transform="translate(-55 -14)">
<g id="g13296">
<rect id="rect12236" width="22" height="22" x="134.003" y="38" rx="0" ry="0" style="fill:none;fill-opacity:1;stroke:none;stroke-width:.733333;stroke-linecap:round;stroke-linejoin:round;stroke-miterlimit:4;stroke-dasharray:none;stroke-opacity:1" transform="translate(55 14)"/>
<path id="path12238" fill="currentColor" d="M-52.422 169.074a.5.5 0 0 0-.353.149.5.5 0 0 0 0 .707l3.236 3.236a9.5 9.5 0 0 0-3.334 3.037.5.5 0 0 0 .137.695.5.5 0 0 0 .695-.136 8.5 8.5 0 0 1 3.244-2.854l1.518 1.518a6.5 6.5 0 0 0-3.383 2.914.5.5 0 0 0 .195.68.5.5 0 0 0 .68-.196 5.5 5.5 0 0 1 3.299-2.61l1.797 1.798a4 4 0 0 0-3.93 2.295.5.5 0 0 0 .242.664.5.5 0 0 0 .664-.242 2.996 2.996 0 0 1 5.432 0 .5.5 0 0 0 .568.26l3.79 3.788a.499.499 0 1 0 .706-.707l-8.06-8.06h-.002l-.895-.897-1.629-1.627-.775-.775-3.488-3.488a.5.5 0 0 0-.354-.149M-45 172a9.5 9.5 0 0 0-2.525.352l.826.826A8.5 8.5 0 0 1-45 173a8.5 8.5 0 0 1 7.05 3.754.5.5 0 0 0 .694.135.5.5 0 0 0 .135-.694A9.5 9.5 0 0 0-45 172m.127 3.004 1.15 1.148a5.5 5.5 0 0 1 3.522 2.664.5.5 0 0 0 .68.192.5.5 0 0 0 .19-.68 6.5 6.5 0 0 0-5.542-3.324M-45 181a1 1 0 0 0-1 1 1 1 0 0 0 1 1 1 1 0 0 0 1-1 1 1 0 0 0-1-1" class="ColorScheme-Text" transform="translate(245 -114)"/>
</g>
</g>
</g>
</svg>
