<svg xmlns="http://www.w3.org/2000/svg" width="32" height="32" version="1.1">
<style id="current-color-scheme" type="text/css">
.ColorScheme-Text{color:#fcfcfc}
</style>
<g id="network-wired-activated" transform="translate(-228 5)">
<path d="M251 0c-1.108 0-2 .892-2 2v6c0 1.108.892 2 2 2h2v12.5a.499.499 0 1 0 1 0V10h2c1.108 0 2-.892 2-2V2c0-1.108-.892-2-2-2zm-16 1c-1.662 0-3 1.338-3 3v11c0 1.662 1.338 3 3 3h6v4h-2.5a.499.499 0 1 0 0 1h13a.499.499 0 1 0 0-1H249v-4h2.5a.499.499 0 1 0 0-1H235c-1.108 0-2-.892-2-2V4c0-1.108.892-2 2-2h12.5a.499.499 0 1 0 0-1H236Zm16 0h5c.554 0 1 .446 1 1v1h-7V2c0-.554.446-1 1-1m-1 3h7v4c0 .554-.446 1-1 1h-5c-.554 0-1-.446-1-1zm-8 14h6v4h-6z" class="ColorScheme-Text" style="fill:currentColor"/>
</g>
</svg>
