<svg xmlns="http://www.w3.org/2000/svg" width="16" height="16.001">
<path fill="#fcfcfc" d="M12 2v7.879l1 1V3h1v8.879l1 1V1.999zM8 5v.879l1 1V6h1v1.879l1 1V5zM4 8v6h3V9.121L5.879 8zm1 1h1v4H5zm3 1.121V14h3v-.879l-1-1V13H9v-1.879zM0 11v3h3v-3zm1 1h1v1H1z"/>
<rect width="20" height="1" x="1.314" y="-.5" fill="#fcfcfc" rx="0" ry="0" style="paint-order:markers stroke fill" transform="rotate(45)"/>
<path fill="#fcfcfc" d="M1.314-.5h20v1h-20z" color="#000" style="-inkscape-stroke:none;paint-order:markers stroke fill" transform="rotate(45)"/>
</svg>
