<svg xmlns="http://www.w3.org/2000/svg" width="16" height="16">
<path fill="#fcfcfc" d="M12 2v4.176c.314-.113.65-.176 1-.176V3h1v3.176c.373.134.71.34 1 .601V2zM8 5v9h3v-4h-1v3H9V6h1v3c0-.88.39-1.672 1-2.223V5zM4 8v6h3V8zm1 1h1v4H5zm-5 2v3h3v-3zm15 .002a3.9 3.9 0 0 1-1 .58V14h1zM1 12h1v1H1z" aria-label=""/>
<path fill="#fcfcfc" d="M13 7c1.1 0 2 .895 2 2s-.9 2-2 2v1h-1v-2h1c.55 0 1-.448 1-1s-.45-1-1-1-1 .448-1 1h-1c0-1.105.9-2 2-2m-1 6h1v1h-1z" color="#000" style="-inkscape-stroke:none"/>
</svg>
