<svg xmlns="http://www.w3.org/2000/svg" width="16" height="16">
<path fill="#fcfcfc" d="M8 3C5.16 3 2.568 4.007.514 5.658a.5.5 0 0 0-.096.072.5.5 0 0 0-.154.36.5.5 0 0 0 .5.5.5.5 0 0 0 .318-.113A10.92 10.92 0 0 1 8 4c2.628 0 5.027.938 6.918 2.477a.5.5 0 0 0 .318.113.5.5 0 0 0 .5-.5.5.5 0 0 0-.154-.36.5.5 0 0 0-.096-.072C13.433 4.008 10.841 3 8 3m0 3a8.92 8.92 0 0 0-5.488 1.897.5.5 0 0 0-.102.074.5.5 0 0 0-.156.361.5.5 0 0 0 .5.5.5.5 0 0 0 .32-.115A7.94 7.94 0 0 1 8 7a7.9 7.9 0 0 1 2.574.434 4.5 4.5 0 0 1 1.535-.416A8.84 8.84 0 0 0 8 6m0 3c-1.352 0-2.583.469-3.586 1.225a.5.5 0 0 0-.168.384.5.5 0 0 0 .836.37C5.904 10.375 6.902 10 8 10c.086 0 .166.017.25.021a4.5 4.5 0 0 1 .469-.959C8.482 9.032 8.245 9 8 9m0 3a1 1 0 0 0-1 1 1 1 0 0 0 1 1 1 1 0 0 0 .623-.219A4.5 4.5 0 0 1 8.027 12z"/>
<path fill="#f55" d="M12.5 8a3.5 3.5 0 1 0 0 7 3.5 3.5 0 0 0 0-7m0 1c.277 0 .5.223.5.5v2a.499.499 0 1 1-1 0v-2c0-.277.223-.5.5-.5m-.012 4h.012a.5.5 0 0 1 .5.5.5.5 0 0 1-.5.5.5.5 0 0 1-.5-.5.5.5 0 0 1 .488-.5" class="error"/>
</svg>
