<svg xmlns="http://www.w3.org/2000/svg" width="16" height="16">
<path fill="#fcfcfc" d="M3.425 2v7.879l-1 1V3h-1v8.879l-1 1V1.999zm4 3v.879l-1 1V6h-1v1.879l-1 1V5zm4 3v6h-3V9.121L9.545 8zm-1 1h-1v4h1zm-3 1.121V14h-3v-.879l1-1V13h1v-1.879zm8 .879v3h-3v-3zm-1 1h-1v1h1z"/>
<rect width="20" height="1" x="-9.593" y="10.407" fill="#fcfcfc" rx="0" ry="0" style="paint-order:markers stroke fill" transform="scale(-1 1)rotate(45)"/>
<path fill="#fcfcfc" d="M1.314-.5h20v1h-20z" color="#000" style="-inkscape-stroke:none;paint-order:markers stroke fill" transform="scale(-1 1)rotate(45 -7.712 -18.62)"/>
</svg>
