<svg xmlns="http://www.w3.org/2000/svg" width="16" height="16">
<path fill="#fcfcfc" fill-rule="evenodd" d="M7.99 3C5.154 3.002 2.565 4.009.514 5.658a.5.5 0 0 0-.096.072.5.5 0 0 0-.154.36.5.5 0 0 0 .5.5.5.5 0 0 0 .318-.113 11 11 0 0 1 4.287-2.149c.159-.207.335-.404.535-.58.395-.348.757-.542 1.276-.646.285-.051.58-.102.81-.102M8 3c.852.001 1.679.289 2.281.857q.234.22.412.485a11 11 0 0 1 4.225 2.135.5.5 0 0 0 .318.113.5.5 0 0 0 .5-.5.5.5 0 0 0-.154-.36.5.5 0 0 0-.096-.072C13.432 4.008 10.84 3 8 3m0 3c-.059 0-.116.007-.174.008-.034.032-.097.107-.162.303a1 1 0 0 1-1.334.607l-.934-.39c-.05-.022-.085-.06-.13-.089a9.1 9.1 0 0 0-2.754 1.457.5.5 0 0 0-.102.075.5.5 0 0 0-.156.361.5.5 0 0 0 .5.5.5.5 0 0 0 .32-.115 7.95 7.95 0 0 1 4.244-1.688c.127-.137.256-.273.408-.414.186-.172.315-.3.354-.344l.002-.001a.7.7 0 0 0 .1-.163c.02-.038.015-.04.015-.046 0-.084-.002-.058-.006-.053C8.127 6.006 8.064 6 8 6m3.148.584a3 3 0 0 1-.248.725c-.038.073-.076.135-.113.203.776.293 1.497.7 2.139 1.205a.5.5 0 0 0 .32.115.5.5 0 0 0 .5-.5.5.5 0 0 0-.156-.361.5.5 0 0 0-.102-.075 9.1 9.1 0 0 0-2.34-1.312M9.494 9.217v.312a1 1 0 0 1-.228.635c.006.008.01.02.017.027.594.167 1.148.43 1.635.788a.5.5 0 0 0 .836-.37.5.5 0 0 0-.168-.384 6.1 6.1 0 0 0-2.092-1.008m-3.02.008a6.1 6.1 0 0 0-2.06 1 .5.5 0 0 0-.168.384.5.5 0 0 0 .836.37 5.1 5.1 0 0 1 1.572-.77c.015-.018.02-.043.035-.06a1 1 0 0 1-.214-.62zm2.739.81.006.012.011.006zm-.26 2.662c-.29.193-.644.303-.969.303-.317 0-.658-.104-.943-.281A1 1 0 0 0 7 13a1 1 0 0 0 1 1 1 1 0 0 0 1-1 1 1 0 0 0-.047-.303" style="paint-order:stroke fill markers"/>
<path fill="#f55" d="M7.995 4q.986 0 1.604.586.618.574.617 1.474 0 .39-.206.792-.205.4-.367.573a9 9 0 0 1-.435.424l-.052.055q-.66.594-.661 1.19v.435H7.474v-.51q0-.488.206-.834.206-.359.726-.836.292-.27.412-.401.13-.14.25-.378.13-.25.13-.51 0-.498-.326-.802-.314-.305-.877-.305-.933 0-1.279 1.042l-.932-.39q.229-.62.781-1.108Q7.13 4 7.995 4m-.01 6.526q.314 0 .52.216.217.218.216.521c0 .303-.071.376-.216.52Q8.3 12 7.985 12c-.315 0-.387-.072-.532-.216a.73.73 0 0 1-.206-.521.72.72 0 0 1 .737-.737"/>
</svg>
