<svg width="24" height="24" viewBox="0 0 24 24" fill="none" xmlns="http://www.w3.org/2000/svg">
<rect width="24" height="24" fill="#A4A4A4" fill-opacity="0.01"/>
<defs>
<style id="current-color-scheme" type="text/css">.ColorScheme-Text { color:#ffffff; }</style>
</defs>
<g opacity="0.90">
<path class="ColorScheme-Text" fill-rule="evenodd" clip-rule="evenodd" d="M10.0848 20.8875C11.0842 22.0838 12.9228 22.0838 13.9222 20.8875L23.305 9.65515C24.0904 8.71499 24.0914 7.32875 23.1904 6.49872C21.92 5.32827 20.5084 4.3634 18.9557 3.6041C16.7729 2.53676 14.4555 2.00309 12.0035 2.00309C9.55149 2.00309 7.2341 2.53676 5.05132 3.6041C3.49862 4.3634 2.08703 5.32827 0.816556 6.49872C-0.0844128 7.32875 -0.0833547 8.71499 0.702004 9.65516L10.0848 20.8875ZM11.0444 19.7413C11.5441 20.3395 12.4633 20.3395 12.963 19.7413L21.8756 9.07189C22.2683 8.60181 22.2664 7.9122 21.8356 7.47676C20.6486 6.27693 19.3025 5.30896 17.7972 4.57283C15.9782 3.68339 14.047 3.23866 12.0037 3.23866C9.96036 3.23866 8.0292 3.68339 6.21022 4.57283C4.70491 5.30896 3.35877 6.27693 2.17178 7.47676C1.741 7.9122 1.73911 8.60181 2.13179 9.07189L11.0444 19.7413Z" fill="currentColor"/>
</g>
<path d="M12.3874 18.4201C12.1875 18.6593 11.8199 18.6593 11.62 18.4201L3.52629 8.7351C3.36913 8.54704 3.3707 8.272 3.53688 8.09186C4.59588 6.94386 5.81692 6.03183 7.20001 5.35576C8.70822 4.61859 10.3095 4.25 12.0037 4.25C13.698 4.25 15.2992 4.61859 16.8074 5.35576C18.1905 6.03183 19.4115 6.94386 20.4705 8.09186C20.6367 8.272 20.6383 8.54704 20.4811 8.7351L12.3874 18.4201Z" fill="url(#paint0_linear_69_87)"/>
<defs>
<linearGradient id="paint0_linear_69_87" x1="20.2068" y1="7.19636" x2="9.54267" y2="17.0485" gradientUnits="userSpaceOnUse">
<stop stop-color="#73CFFB"/>
<stop offset="1" stop-color="#3EAAE5"/>
</linearGradient>
</defs>
</svg>
