<svg xmlns="http://www.w3.org/2000/svg" width="16.031" height="16">
<path fill="#fcfcfc" fill-rule="evenodd" d="M8 3C5.16 3 2.568 4.007.514 5.658a.5.5 0 0 0-.096.072.5.5 0 0 0-.154.36.5.5 0 0 0 .166.37 3 3 0 0 1 .36-.487 3 3 0 0 1 2.597-.944 10.85 10.85 0 0 1 9.223-.002 3 3 0 0 1 2.41.754l.029.028a3 3 0 0 1 .523.652.5.5 0 0 0 .164-.371.5.5 0 0 0-.154-.36.5.5 0 0 0-.096-.072C13.433 4.008 10.841 3 8 3M5.502 9.654a3 3 0 0 1-.303.387 3 3 0 0 1-.931.676.493.493 0 0 0 .814.262 5.2 5.2 0 0 1 1.092-.602 3 3 0 0 1-.207-.172 3 3 0 0 1-.465-.55m5 0a3 3 0 0 1-.303.387 3 3 0 0 1-.375.336c.388.16.759.356 1.094.602a.492.492 0 0 0 .814-.264 3 3 0 0 1-.765-.51 3 3 0 0 1-.465-.55" style="paint-order:stroke fill markers"/>
<circle cx="8" cy="13" r="1" fill="#fcfcfc" fill-rule="evenodd" style="paint-order:stroke fill markers"/>
<path fill="#fcfcfc" fill-rule="evenodd" d="M4.365 6.539a2 2 0 0 1 .1 2.822 2 2 0 0 1-2.82.11 2 2 0 0 1-.12-2.822 2 2 0 0 1 2.822-.127m5.018.017a2 2 0 0 1 .1 2.822 2 2 0 0 1-2.82.11 2 2 0 0 1-.12-2.822 2 2 0 0 1 2.822-.127m5.018.017a2 2 0 0 1 .1 2.822 2 2 0 0 1-2.821.11 2 2 0 0 1-.119-2.822 2 2 0 0 1 2.821-.127" style="paint-order:normal"/>
</svg>
