<svg xmlns="http://www.w3.org/2000/svg" id="svg4153" width="22" height="22" version="1.1">
<defs id="defs4157">
<style id="current-color-scheme" type="text/css">
.ColorScheme-Text{color:#fcfcfc}
</style>
</defs>
<g id="network-mobile-20-hsupa-locked" transform="translate(-66 264)">
<path id="rect5573" fill="none" d="M66-264h22v22H66z" opacity=".55"/>
<path id="path5575" fill="currentColor" fill-rule="evenodd" d="m85-261-16 16h11v-3l1-1v-2l2-2h2z" class="ColorScheme-Text" opacity=".35"/>
<path id="path5577" fill="currentColor" d="M84-252c-1.108 0-2 .892-2 2v2h-1v3h6v-3h-1v-2c0-1.108-.892-2-2-2m0 1c.554 0 1 .446 1 1v2h-2v-2c0-.554.446-1 1-1" class="ColorScheme-Text"/>
<path id="path5591" fill="currentColor" fill-rule="evenodd" d="m76-252-7 7h7z" class="ColorScheme-Text"/>
<path id="path5655" fill="currentColor" d="M69-261v5h1v-2h2v2h1v-5h-1v2h-2v-2zm6 0-1 2h2z" class="ColorScheme-Text"/>
</g>
</svg>
