<svg xmlns="http://www.w3.org/2000/svg" width="16" height="16">
<path fill="#fcfcfc" d="M7.998 0a2.5 2.5 0 0 0-.814.156L7.146.17C6.012.617 3.38 1.489 1.955 2.057l-.023.01c-.23.098-.557.309-.739.638-.182.33-.189.619-.19.848L1 8.895c-.001 1.494.474 2.739 1.473 3.709.996.968 2.395 1.77 4.47 3.035q.003 0 .004.002.003 0 .004.002c.315.194.677.354 1.04.355l.001.002h.002l.002-.002c.358-.001.737-.163 1.053-.36h.002c2.047-1.237 3.445-2.033 4.447-3.005 1.004-.974 1.497-2.228 1.498-3.736L15 3.555c0-.23-.004-.522-.191-.858-.188-.335-.535-.552-.784-.646l-.02-.006C12.642 1.559 10.022.628 8.86.17L8.82.156A2.5 2.5 0 0 0 7.998 0m0 1c.137 0 .284.028.494.102 1.208.476 3.815 1.4 5.178 1.884.265.101.33.237.33.567l-.004 5.342c-.002 2.681-1.355 3.404-5.473 5.894-.264.164-.392.21-.529.211-.127 0-.26-.047-.523-.21C3.298 12.244 1.998 11.557 2 8.894l.004-5.342c0-.33.064-.457.32-.567 1.354-.54 3.982-1.408 5.19-1.884A1.5 1.5 0 0 1 7.998 1"/>
<path fill="#fcfcfc" d="M8 4c1.1 0 2 .895 2 2s-.9 2-2 2v1H7V7h1c.55 0 1-.448 1-1s-.45-1-1-1-1 .448-1 1H6c0-1.105.9-2 2-2m-1 6h1v1H7z"/>
</svg>
