<svg xmlns="http://www.w3.org/2000/svg" width="16" height="16">
<path fill="#fcfcfc" d="M14.682 8.318a4.5 4.5 0 1 0-6.364 6.364 4.5 4.5 0 0 0 6.364-6.364m-.707.707a3.5 3.5 0 1 1-4.95 4.95 3.5 3.5 0 0 1 4.95-4.95m-.707.707a.5.5 0 0 0-.707 0l-1.061 1.06-1.06-1.06a.499.499 0 1 0-.708.707l1.06 1.061-1.06 1.06a.499.499 0 1 0 .707.708l1.061-1.06 1.06 1.06a.499.499 0 1 0 .708-.707l-1.06-1.061 1.06-1.06a.5.5 0 0 0 0-.708"/>
<path fill="#fcfcfc" d="M12 0c-.554 0-1 .446-1 1v5l.004.035A6 6 0 0 1 11.5 6a5.5 5.5 0 0 1 3.158 1H15c.554 0 1-.446 1-1V1c0-.554-.446-1-1-1zM2 1C.892 1 0 1.892 0 3v7c0 1.108.896 1.904 2 2h3v2H3.5a.499.499 0 1 0 0 1h3.768a5.5 5.5 0 0 1-.655-1H6v-2h.037A6 6 0 0 1 6 11.5a6 6 0 0 1 .037-.5H2c-.554 0-1-.446-1-1V3c0-.554.446-1 1-1h7.5a.499.499 0 1 0 0-1zm10 0h3v1h-3zm0 2h3v3h-3z"/>
</svg>
