<svg xmlns="http://www.w3.org/2000/svg" id="svg4153" width="22" height="22" version="1.1">
<defs id="defs4157">
<style id="current-color-scheme" type="text/css">
.ColorScheme-Text{color:#fcfcfc}
</style>
</defs>
<g id="network-bluetooth-activated" transform="translate(-66)">
<path id="rect4674" fill="none" d="M66 0h22v22H66z"/>
<path id="path4676" fill="currentColor" d="M76.998 3v7.041l-3.293-3.293-.002.002-.996-.996L72 6.46 76.545 11 72 15.544l.707.707.996-.996h.002L77 11.96V19h1l4-4-4-4 4-4-4-4zM78 4.416l2.586 2.586L78 9.588zM67 10a1 1 0 0 0-1 1 1 1 0 0 0 1 1 1 1 0 0 0 1-1 1 1 0 0 0-1-1m4 0a1 1 0 0 0-1 1 1 1 0 0 0 1 1 1 1 0 0 0 1-1 1 1 0 0 0-1-1m12 0a1 1 0 0 0-1 1 1 1 0 0 0 1 1 1 1 0 0 0 1-1 1 1 0 0 0-1-1m4 0a1 1 0 0 0-1 1 1 1 0 0 0 1 1 1 1 0 0 0 1-1 1 1 0 0 0-1-1m-9 2.416 2.586 2.586L78 17.588z" class="ColorScheme-Text"/>
</g>
</svg>
