<svg xmlns="http://www.w3.org/2000/svg" width="16" height="16">
<path fill="#fcfcfc" d="M12 2v5.27A2 2 0 0 1 13 9V3h1v10h-1V9a2 2 0 0 1-1 1.723V14h3V2zM8 5v2a2 2 0 0 1 1 .271V6h1v1.271A2 2 0 0 1 11 7V5zm-1.5 5.322a2 2 0 0 1-.5.407V13H5v-2a2 2 0 0 1-1-.277V14h3v-3.271a2 2 0 0 1-.5-.407m2.5.407A2 2 0 0 1 8 11v3h3v-3a2 2 0 0 1-1-.271V13H9zM0 11v3h3v-3zm1 1h1v1H1z"/>
<path fill="#fcfcfc" d="M5 8a1 1 0 1 0 0 2 1 1 0 0 0 0-2m3 0a1 1 0 1 0 0 2 1 1 0 0 0 0-2m3 0a1 1 0 1 0 0 2 1 1 0 0 0 0-2" color="#fcfcfc" overflow="visible"/>
</svg>
