<svg xmlns="http://www.w3.org/2000/svg" id="svg4153" width="22" height="22" version="1.1">
<defs id="defs4157">
<style id="current-color-scheme" type="text/css">
.ColorScheme-Text{color:#fcfcfc}
</style>
</defs>
<g id="network-wired-activated-limited" transform="translate(98 -45)">
<path id="rect14232" d="M-98 45h22v22h-22z" style="fill:none;fill-opacity:1;stroke:none"/>
<path id="path14234" fill="currentColor" d="M59 4c-.554 0-1 .446-1 1v5c0 .554.446 1 1 1h1v3.5a.499.499 0 1 0 1 0V11h1c.554 0 1-.446 1-1V5c0-.554-.446-1-1-1ZM49 5c-1.108 0-2 .892-2 2v8c0 1.108.892 2 2 2h3v2h-1.5a.499.499 0 1 0 0 1h8a.499.499 0 1 0 0-1H58v-2h.5a.499.499 0 1 0 0-1H49c-.554 0-1-.446-1-1V7c0-.554.446-1 1-1h7.5a.499.499 0 1 0 0-1h-3zm10 0h3v1h-3zm0 2h3v3h-3zm-6 10h4v2h-4z" class="ColorScheme-Text" transform="translate(-142 45)"/>
<path id="path14321" d="m-79 60-3 5h6zm0 2 1.2 2h-2.4z" style="fill:#ffc850;fill-opacity:1;fill-rule:evenodd;stroke:none;stroke-width:1px;stroke-linecap:butt;stroke-linejoin:miter;stroke-opacity:1"/>
</g>
</svg>
