<svg width="24" height="24" viewBox="0 0 24 24" fill="none" xmlns="http://www.w3.org/2000/svg">
<rect width="24" height="24" fill="#A4A4A4" fill-opacity="0.01"/>
<path fill-rule="evenodd" clip-rule="evenodd" d="M0.489323 8.87982L10.3821 20.7175C11.2259 21.7272 12.7741 21.7272 13.6179 20.7175L23.5107 8.87982C24.1771 8.08236 24.1764 6.90665 23.4247 6.18953C22.0938 4.91978 20.6036 3.8818 18.9543 3.0756C16.7709 2.00839 14.4528 1.47478 12 1.47478C9.54723 1.47478 7.22912 2.00839 5.04567 3.0756C3.39636 3.8818 1.90623 4.91978 0.575262 6.18953C-0.17643 6.90665 -0.177108 8.08236 0.489323 8.87982ZM2.02219 8.41969L11.191 19.3912C11.6129 19.896 12.3871 19.896 12.809 19.3912L21.9778 8.41969C22.311 8.02096 22.3089 7.43549 21.9473 7.06249C20.7327 5.80966 19.3487 4.80357 17.7953 4.04422C15.9757 3.15488 14.044 2.71021 12 2.71021C9.95602 2.71021 8.02426 3.15488 6.20472 4.04422C4.65127 4.80357 3.26726 5.80966 2.0527 7.06249C1.6911 7.43549 1.68898 8.02096 2.02219 8.41969Z" fill="white"/>
</svg>
