<svg xmlns="http://www.w3.org/2000/svg" id="svg4153" width="22" height="22" version="1.1">
<defs id="defs4157">
<style id="current-color-scheme" type="text/css">
.ColorScheme-Text{color:#fcfcfc}
</style>
</defs>
<g id="network-wired-activated-locked" transform="translate(106 -44)">
<path id="rect13290" d="M-106 44h22v22h-22z" style="fill:none;fill-opacity:1;stroke:none"/>
<path id="path13292"  d="M37 4c-.554 0-1 .446-1 1v5c0 .554.446 1 1 1h1v2.5a.499.499 0 1 0 1 0V11h1c.554 0 1-.446 1-1V5c0-.554-.446-1-1-1ZM27 5c-1.108 0-2 .892-2 2v8c0 1.108.892 2 2 2h3v2h-1.5a.499.499 0 1 0 0 1h8a.499.499 0 1 0 0-1H36v-2h.5a.499.499 0 1 0 0-1H27c-.554 0-1-.446-1-1V7c0-.554.446-1 1-1h7.5a.499.499 0 1 0 0-1h-3zm10 0h3v1h-3zm0 2h3v3h-3zm4 7c-1.108 0-2 .892-2 2v1h-1v3h6v-3h-1v-1c0-1.108-.892-2-2-2m0 1c.554 0 1 .446 1 1v1h-2v-1c0-.554.446-1 1-1m-10 2h4v2h-4zm8 1h4v1h-4z"  class="ColorScheme-Text" style="fill:currentColor" transform="translate(-128 44)"/>
</g>
</svg>
