<svg xmlns="http://www.w3.org/2000/svg" width="22" height="22">
<style id="current-color-scheme" type="text/css">
.ColorScheme-Text{color:#fcfcfc}
</style>
<g id="network-mobile-100-5g-locked" transform="translate(22 88)">
<path id="rect4856-5" d="M-22-88H0v22h-22z" style="opacity:.55;fill:none;fill-opacity:1;stroke:none;stroke-width:3.56737041px;stroke-linecap:butt;stroke-linejoin:miter;stroke-miterlimit:4;stroke-dasharray:none;stroke-dashoffset:0;stroke-opacity:1"/>
<path id="path4858-9" d="m-3-85-16 16h11v-3l1-1v-2l1-1 1-1h2z" class="ColorScheme-Text" style="fill:currentColor;fill-opacity:1;fill-rule:evenodd;stroke:none;stroke-width:1px;stroke-linecap:butt;stroke-linejoin:miter;stroke-opacity:1"/>
<path id="path4860-2" d="M-4-76c-1.108 0-2 .892-2 2v2h-1v3h6v-3h-1v-2c0-1.108-.892-2-2-2m0 1c.554 0 1 .446 1 1v2h-2v-2c0-.554.446-1 1-1" class="ColorScheme-Text" style="opacity:1;fill:currentColor;fill-opacity:1;stroke:none;stroke-width:.1;stroke-miterlimit:4;stroke-dasharray:none;stroke-opacity:1"/>
<path id="path5068-2" d="M-14-85v5h4v-3h-2v1h1v1h-2v-3h3v-1h-3z" class="ColorScheme-Text" style="opacity:1;fill:currentColor;fill-opacity:1;stroke:none"/>
<path id="rect1642-5" d="M-19-85v3h3v1h-3v1h4v-3h-3v-1h3v-1z" class="ColorScheme-Text" style="opacity:1;fill:currentColor;fill-opacity:1;stroke:none;stroke-width:1;stroke-miterlimit:4;stroke-dasharray:none;stroke-opacity:1"/>
</g>
</svg>
