<svg xmlns="http://www.w3.org/2000/svg" width="16" height="16.004">
<path fill="#fcfcfc" d="M12 2v3.178A2.9 2.9 0 0 1 13 5c.402 0 .804.087 1.172.25.303.13.584.31.828.533V2zM8 5v9h1V8h1c0-.399.08-.797.236-1.164l.004-.01.004-.008A3.1 3.1 0 0 1 11 5.773V5zm6.39 1.57.016.024c.007.007.017.008.024.015zM4 8v6h3V8zm-4 3v3h3v-3z" aria-label=""/>
<path fill="#fcfcfc" d="M13 6q.406 0 .773.164.367.156.633.43.274.266.43.633Q15 7.593 15 8v1h1v5h-6V9h1V8a1.96 1.96 0 0 1 .586-1.406A2.03 2.03 0 0 1 13 6m-1 3h2V8a.95.95 0 0 0-.078-.383.9.9 0 0 0-.219-.32.9.9 0 0 0-.32-.219A.95.95 0 0 0 13 7q-.21 0-.39.078a.8.8 0 0 0-.32.219q-.134.133-.212.312A.8.8 0 0 0 12 8zm3 1h-4v3h4z" color="#000" style="font-feature-settings:normal;font-variant-alternates:normal;font-variant-caps:normal;font-variant-east-asian:normal;font-variant-ligatures:normal;font-variant-numeric:normal;font-variant-position:normal;font-variation-settings:normal;inline-size:0;isolation:auto;mix-blend-mode:normal;paint-order:stroke fill markers;shape-margin:0;shape-padding:0;text-decoration-color:#000;text-decoration-line:none;text-decoration-style:solid;text-indent:0;text-orientation:mixed;text-transform:none;white-space:normal"/>
</svg>
