<svg xmlns="http://www.w3.org/2000/svg" id="svg4153" width="32" height="32" version="1.1">
<defs id="defs4157">
<style id="current-color-scheme" type="text/css">
.ColorScheme-Text{color:#fcfcfc}
</style>
</defs>
<g id="network-vpn" transform="translate(-274 -54)">
<path id="rect1601" fill="none" d="M274 54h32v32h-32z" style="stroke-width:1.45455"/>
<path id="path1899" fill="currentColor" d="M289.816 58.617a1 1 0 0 0-.343.133l-.602.373a22.9 22.9 0 0 1-8.039 2.988 1 1 0 0 0-.832.985v6.11c0 2.736.817 5.193 2.451 7.23s4.044 3.648 7.18 4.892a1 1 0 0 0 .738 0c3.136-1.244 5.546-2.855 7.18-4.892S300 71.942 300 69.206v-6.11a1 1 0 0 0-.832-.985 22.9 22.9 0 0 1-8.05-2.994l-.59-.367a1 1 0 0 0-.712-.133m.184.983.602.373A24 24 0 0 0 299 63.096v6.11c0 5.087-2.952 8.795-9 11.194-6.048-2.4-9-6.107-9-11.195v-6.11a24 24 0 0 0 8.398-3.122z" class="ColorScheme-Text"/>
</g>
</svg>
