<svg xmlns="http://www.w3.org/2000/svg" width="16" height="16">
<path fill="#fcfcfc" d="M12 2v4.023a5.5 5.5 0 0 1 1 .186V3h1v3.603a5.5 5.5 0 0 1 1 .655V2zM8 5v2.268a5.5 5.5 0 0 1 1-.655V6h1v.213a5.5 5.5 0 0 1 1-.176V5zM4 8v6h2.613A5.5 5.5 0 0 1 6 11.5V13H5V9h1v2.5a5.5 5.5 0 0 1 1-3.143V8zm-4 3v3h3v-3zm1 1h1v1H1z"/>
<path fill="#d35f5f" d="M11.5 7A4.5 4.5 0 0 0 7 11.5a4.5 4.5 0 0 0 4.5 4.5 4.5 4.5 0 0 0 4.5-4.5A4.5 4.5 0 0 0 11.5 7m0 1a3.5 3.5 0 0 1 3.5 3.5 3.5 3.5 0 0 1-3.5 3.5A3.5 3.5 0 0 1 8 11.5 3.5 3.5 0 0 1 11.5 8" style="paint-order:stroke fill markers"/>
<rect width="1" height="3" x="11" y="9" fill="#d35f5f" rx="0" ry="0" style="paint-order:stroke fill markers"/>
<path fill="#d35f5f" d="M11 13h1v1h-1z" style="paint-order:stroke fill markers"/>
</svg>
