<svg xmlns="http://www.w3.org/2000/svg" id="svg4153" width="22" height="22" version="1.1">
<defs id="defs4157">
<style id="current-color-scheme" type="text/css">
.ColorScheme-Text{color:#fcfcfc}
</style>
</defs>
<g id="network-wireless-40-locked" transform="translate(-134.003 -38)">
<rect id="rect23543" width="22" height="22" x="134.003" y="38" rx="0" ry="0" style="fill:none;fill-opacity:1;stroke:none;stroke-width:.733333;stroke-linecap:round;stroke-linejoin:round;stroke-miterlimit:4;stroke-dasharray:none;stroke-opacity:1"/>
<g id="g23553" transform="translate(-55 -14)">
<path id="path23545" fill="currentColor" d="M200 58a9.5 9.5 0 0 0-7.873 4.203.5.5 0 0 0 .137.695.5.5 0 0 0 .695-.136A8.5 8.5 0 0 1 200 59a8.5 8.5 0 0 1 7.05 3.754.5.5 0 0 0 .694.135.5.5 0 0 0 .135-.694A9.5 9.5 0 0 0 200 58" class="ColorScheme-Text" style="opacity:.35"/>
<path id="path23547" fill="currentColor" d="M199.998 61a6.5 6.5 0 0 0-5.66 3.34.5.5 0 0 0 .195.68.5.5 0 0 0 .68-.196A5.5 5.5 0 0 1 200 62a5.5 5.5 0 0 1 4.799 2.816.5.5 0 0 0 .68.192.5.5 0 0 0 .19-.68A6.5 6.5 0 0 0 200 61z" class="ColorScheme-Text" style="opacity:.35"/>
<path id="path23549" fill="currentColor" d="M200 64a4 4 0 0 0-3.621 2.307.5.5 0 0 0 .242.664.5.5 0 0 0 .664-.242 2.996 2.996 0 0 1 5.432 0 .5.5 0 0 0 .664.242.5.5 0 0 0 .242-.664A4 4 0 0 0 200 64" class="ColorScheme-Text" style="opacity:.65"/>
<path id="path23551" fill="currentColor" d="M201 68a1 1 0 0 1-1 1 1 1 0 0 1-1-1 1 1 0 0 1 1-1 1 1 0 0 1 1 1" class="ColorScheme-Text"/>
</g>
<path id="path23555" fill="currentColor" d="M153 51c-1.108 0-2 .892-2 2v1c-.554 0-1 .446-1 1v1c0 .554.446 1 1 1h4c.554 0 1-.446 1-1v-1c0-.554-.446-1-1-1v-1c0-1.108-.892-2-2-2m0 1c.554 0 1 .446 1 1v1h-2v-1c0-.554.446-1 1-1m-2 3h4v1h-4z" class="ColorScheme-Text"/>
</g>
</svg>
