<svg xmlns="http://www.w3.org/2000/svg" id="svg4153" width="22" height="22" version="1.1">
<defs id="defs4157">
<style id="current-color-scheme" type="text/css">
.ColorScheme-Text{color:#fcfcfc}
</style>
</defs>
<g id="network-mobile-0-umts-locked" transform="translate(-88 176)">
<path id="rect5282" fill="none" d="M88-176h22v22H88z" opacity=".55"/>
<path id="path5284" fill="currentColor" fill-rule="evenodd" d="m107-173-16 16h11v-3l1-1v-2l2-2h2z" class="ColorScheme-Text" opacity=".35"/>
<path id="path5286" fill="currentColor" d="M106-164c-1.108 0-2 .892-2 2v2h-1v3h6v-3h-1v-2c0-1.108-.892-2-2-2m0 1c.554 0 1 .446 1 1v2h-2v-2c0-.554.446-1 1-1" class="ColorScheme-Text"/>
<path id="path5365" fill="currentColor" d="M91-173v5h4v-5h-1v4h-2v-4z" class="ColorScheme-Text"/>
</g>
</svg>
