<svg width="24" height="24" viewBox="0 0 24 24" fill="none" xmlns="http://www.w3.org/2000/svg">
<rect width="24" height="24" fill="#A4A4A4" fill-opacity="0.01"/><defs>
<style id="current-color-scheme" type="text/css">.ColorScheme-Text { color:#ffffff; }</style>
</defs>
<g opacity="0.90">
<path class="ColorScheme-Text" d="M13.512 19.6179C12.7144 20.5391 11.2856 20.5391 10.488 19.6179L1.1599 8.84464C0.497866 8.08003 0.502543 6.93112 1.2524 6.25243C2.50894 5.11513 3.90451 4.18458 5.43911 3.46076C7.50382 2.48692 9.69078 2 12 2C14.3179 2 16.5111 2.48692 18.5795 3.46076C20.1174 4.18484 21.5107 5.11581 22.7594 6.25366C23.5041 6.93223 23.5056 8.07606 22.8461 8.8377L13.512 19.6179ZM9.64695 13.6067C9.81717 13.802 10.1069 13.831 10.3363 13.7107C10.5214 13.6136 10.7191 13.5328 10.9297 13.4681C11.2954 13.3559 11.6522 13.2998 12 13.2998C12.3524 13.2998 12.7095 13.3559 13.0713 13.4681C13.281 13.5332 13.479 13.6148 13.6654 13.7127C13.8937 13.8328 14.1819 13.8031 14.3514 13.6086L18.7468 8.56565C19.1311 8.12466 19.0583 7.44575 18.5623 7.13569C17.6482 6.56434 16.7212 6.1363 15.7813 5.85159C14.5321 5.473 13.272 5.2837 12.0012 5.2837C10.7463 5.2837 9.4928 5.473 8.24064 5.85159C7.29815 6.13643 6.36606 6.56473 5.44436 7.13647C4.94569 7.44581 4.87097 8.12709 5.25655 8.56947L9.64695 13.6067Z" fill="currentColor"/>
</g>
<path d="M10.3363 13.7107C10.1069 13.831 9.81717 13.802 9.64695 13.6067L8.54472 12.3421L9.81 13.8L11.2587 15.3876C11.6562 15.8232 12.3425 15.822 12.7384 15.3849L14.23 13.7385L14.298 13.6613C14.1257 13.8075 13.8712 13.821 13.6654 13.7127C13.479 13.6148 13.281 13.5332 13.0713 13.4681C12.7095 13.3559 12.3524 13.2998 12 13.2998C11.6522 13.2998 11.2954 13.3559 10.9297 13.4681C10.7192 13.5328 10.5214 13.6136 10.3363 13.7107Z" fill="url(#paint0_linear_69_2)"/>
<path d="M15.0752 12.7782L16.2 11.5L16.1944 11.494L15.0752 12.7782Z" fill="url(#paint1_linear_69_2)"/>
<defs>
<linearGradient id="paint0_linear_69_2" x1="13.5" y1="13" x2="11.5167" y2="16.3096" gradientUnits="userSpaceOnUse">
<stop stop-color="#73CFFB"/>
<stop offset="1" stop-color="#3EAAE5"/>
</linearGradient>
<linearGradient id="paint1_linear_69_2" x1="13.5" y1="13" x2="11.5167" y2="16.3096" gradientUnits="userSpaceOnUse">
<stop stop-color="#73CFFB"/>
<stop offset="1" stop-color="#3EAAE5"/>
</linearGradient>
</defs>
</svg>
