<svg width="24" height="24" viewBox="0 0 24 24" fill="none" xmlns="http://www.w3.org/2000/svg">
<rect width="24" height="24" fill="#A4A4A4" fill-opacity="0.01"/><defs>
<style id="current-color-scheme" type="text/css">.ColorScheme-Text { color:#ffffff; }</style>
</defs>
<g opacity="0.90">
<path class="ColorScheme-Text" d="M13.512 19.6179C12.7144 20.5391 11.2856 20.5391 10.488 19.6179L1.1599 8.84464C0.497866 8.08003 0.502534 6.9311 1.25257 6.2526C2.50987 5.11523 3.90724 4.18461 5.44467 3.46076C7.51308 2.48692 9.69819 2 12 2C14.3179 2 16.5111 2.48692 18.5795 3.46076C20.1174 4.18484 21.5107 5.11581 22.7594 6.25366C23.5041 6.93223 23.5056 8.07606 22.8461 8.8377L13.512 19.6179ZM7.72636 11.3924C8.35412 10.9417 9.04225 10.6036 9.79074 10.3783C10.5392 10.1529 11.2757 10.0402 12 10.0402C12.7243 10.0402 13.4608 10.1529 14.2093 10.3783C14.9577 10.6036 15.6539 10.9417 16.2978 11.3924L18.7495 8.56634C19.1325 8.12481 19.0586 7.4467 18.5629 7.13708C17.6462 6.56464 16.7181 6.13598 15.7787 5.85111C14.5312 5.47284 13.2716 5.2837 12 5.2837C10.7445 5.2837 9.49296 5.47284 8.24547 5.85111C7.30668 6.13577 6.37472 6.56402 5.44961 7.13583C4.94899 7.44527 4.8735 8.12886 5.26084 8.57195L7.72636 11.3924Z" fill="currentColor"/>
</g>
<path d="M8.10372 11.1395C7.88513 11.2759 7.59692 11.2443 7.42735 11.0503L7.38182 10.9982L7.38 11L9.81 13.8L11.2587 15.3876C11.6562 15.8232 12.3425 15.822 12.7384 15.3849L14.23 13.7385L16.65 11L16.6432 10.9942L16.5931 11.052C16.4253 11.2454 16.1394 11.2791 15.9211 11.1452C15.3846 10.816 14.814 10.5604 14.2093 10.3783C13.4608 10.1529 12.7243 10.0402 12 10.0402C11.2757 10.0402 10.5392 10.1529 9.79074 10.3783C9.18945 10.5593 8.62711 10.8131 8.10372 11.1395Z" fill="url(#paint0_linear_69_48)"/>
<defs>
<linearGradient id="paint0_linear_69_48" x1="16" y1="10.5" x2="11.4788" y2="16.3688" gradientUnits="userSpaceOnUse">
<stop stop-color="#73CFFB"/>
<stop offset="1" stop-color="#3EAAE5"/>
</linearGradient>
</defs>
</svg>
