<svg xmlns="http://www.w3.org/2000/svg" id="svg4153" width="22" height="22" version="1.1">
<defs id="defs4157">
<style id="current-color-scheme" type="text/css">
.ColorScheme-Text{color:#fcfcfc}
</style>
</defs>
<g id="network-mobile-40-gprs-locked" transform="translate(-44 88)">
<path id="rect4874" fill="none" d="M44-88h22v22H44z" opacity=".55"/>
<path id="path4876" fill="currentColor" fill-rule="evenodd" d="M63-85 47-69h11v-3l1-1v-2l2-2h2z" class="ColorScheme-Text" opacity=".35"/>
<path id="path4878" fill="currentColor" d="M62-76c-1.108 0-2 .892-2 2v2h-1v3h6v-3h-1v-2c0-1.108-.892-2-2-2m0 1c.554 0 1 .446 1 1v2h-2v-2c0-.554.446-1 1-1" class="ColorScheme-Text"/>
<path id="path4896" fill="currentColor" fill-rule="evenodd" d="M57-79 47-69h10Z" class="ColorScheme-Text"/>
<path id="path5074" fill="currentColor" d="M47-85v5h4v-3h-2v1h1v1h-2v-3h3v-1z" class="ColorScheme-Text"/>
</g>
</svg>
