<svg xmlns="http://www.w3.org/2000/svg" width="16" height="16">
<path fill="#fcfcfc" d="M3 1C1.338 1 0 2.338 0 4v8c0 1.662 1.338 3 3 3h10c1.662 0 3-1.338 3-3V4c0-1.662-1.338-3-3-3zm0 1h10c1.108 0 2 .892 2 2v8c0 1.108-.892 2-2 2H3c-1.108 0-2-.892-2-2V4c0-1.108.892-2 2-2"/>
<path fill="#fcfcfc" d="M3 3c-.554 0-1 .446-1 1v5c0 .554.446 1 1 1h3c.554 0 1-.446 1-1V4c0-.554-.446-1-1-1zm0 1h3v5H3z"/>
<rect width="6" height="1" x="8" y="3" fill="#fcfcfc" rx=".5" ry=".5"/>
<rect width="6" height="1" x="8" y="6" fill="#fcfcfc" rx=".5" ry=".5"/>
<rect width="6" height="1" x="8" y="9" fill="#fcfcfc" rx=".5" ry=".5"/>
<rect width="12" height="1" x="2" y="12" fill="#fcfcfc" rx=".5" ry=".5"/>
</svg>
