<svg xmlns="http://www.w3.org/2000/svg" width="16" height="16">
<circle cx="8" cy="6" r="1" fill="#fcfcfc"/>
<path fill="#fcfcfc" d="M2.357.357A8 8 0 0 0 0 6a8 8 0 0 0 2.357 5.643l.694-.694A7 7 0 0 1 1 6a7 7 0 0 1 2.05-4.95zm2.12 2.12A5 5 0 0 0 3 6a5 5 0 0 0 1.476 3.523l.696-.695A4 4 0 0 1 4 6a4 4 0 0 1 1.172-2.828zm9.166-2.12A8 8 0 0 1 16 6a8 8 0 0 1-2.357 5.643l-.693-.694A7 7 0 0 0 15 6a7 7 0 0 0-2.05-4.95zm-2.12 2.12A5 5 0 0 1 13.002 6a5 5 0 0 1-1.477 3.523l-.695-.695A4 4 0 0 0 12 6a4 4 0 0 0-1.171-2.828z"/>
<rect width="1" height="7" x="7.5" y="9" fill="#fcfcfc" rx="0" ry="0"/>
</svg>
