<svg xmlns="http://www.w3.org/2000/svg" width="16" height="16">
<path fill="#fcfcfc" d="M6 1c-.554 0-1 .446-1 1v3c0 .554.446 1 1 1h1v2H2v3H1c-.554 0-1 .446-1 1v3c0 .554.446 1 1 1h3c.554 0 1-.446 1-1v-3c0-.554-.446-1-1-1H3V9h6.686A4.5 4.5 0 0 1 12.5 8H8V6h1c.554 0 1-.446 1-1V2c0-.554-.446-1-1-1zm0 1h3v3H6zM1 12h3v3H1z" opacity=".35"/>
<path fill="#fcfcfc" d="M12.5 9a3.5 3.5 0 1 0 0 7 3.5 3.5 0 0 0 0-7m-1.414 1.586c.128 0 .255.048.353.146l1.06 1.06 1.061-1.06a.499.499 0 1 1 .707.707l-1.06 1.06 1.06 1.061a.499.499 0 1 1-.707.707l-1.06-1.06-1.06 1.06a.499.499 0 1 1-.708-.707l1.06-1.06-1.06-1.06a.499.499 0 0 1 .354-.854"/>
</svg>
