<svg xmlns="http://www.w3.org/2000/svg" width="16" height="16">
<path fill="#fcfcfc" d="M7.998 0a2.5 2.5 0 0 0-.852.17C6.012.617 3.38 1.489 1.955 2.057l-.023.01c-.23.098-.557.309-.739.638-.182.33-.189.619-.19.848L1 8.895c-.001 1.494.474 2.739 1.473 3.709.996.968 2.395 1.77 4.47 3.035q.003 0 .004.002.003 0 .004.002c.315.194.677.354 1.04.355l.001.002h.002l.002-.002c.358-.001.737-.163 1.053-.36h.002l.049-.029A2 2 0 0 1 9 15v-.5l-.477.29c-.264.163-.392.21-.529.21-.127 0-.26-.047-.523-.21C3.298 12.244 1.998 11.557 2 8.894l.004-5.342c0-.33.064-.457.32-.567 1.354-.54 3.982-1.408 5.19-1.884A1.5 1.5 0 0 1 7.998 1c.137 0 .284.028.494.102 1.208.476 3.815 1.4 5.178 1.884.265.101.33.237.33.567l-.004 5.342c0 .105-.007.201-.012.3a2.7 2.7 0 0 1 .938.66 6 6 0 0 0 .074-.958L15 3.555c0-.23-.004-.522-.191-.858-.188-.335-.535-.552-.784-.646l-.02-.006C12.642 1.559 10.022.628 8.86.17L8.82.156A2.5 2.5 0 0 0 7.998 0m3.408 13q-.194.132-.406.27v1.187c.833-.516 1.52-.974 2.092-1.457z"/>
<path fill="#fcfcfc" d="M6.5 5A2.5 2.5 0 0 0 4 7.5 2.5 2.5 0 0 0 6.5 10a2.5 2.5 0 0 0 2.443-2H11v.5a.499.499 0 1 0 1 0V8h.5a.499.499 0 1 0 0-1H8.95A2.5 2.5 0 0 0 6.5 5m0 1A1.5 1.5 0 0 1 8 7.5 1.5 1.5 0 0 1 6.5 9 1.5 1.5 0 0 1 5 7.5 1.5 1.5 0 0 1 6.5 6"/>
<path fill="#fcfcfc" fill-rule="evenodd" d="M13 10c-1.108 0-2 .892-2 2-.554 0-1 .446-1 1v2c0 .554.446 1 1 1h4c.554 0 1-.446 1-1v-2c0-.554-.446-1-1-1 0-1.108-.892-2-2-2m0 1c.554 0 1 .446 1 1h-2c0-.554.446-1 1-1" color="#000" style="-inkscape-stroke:none"/>
</svg>
