<svg width="24" height="24" viewBox="0 0 24 24" fill="none" xmlns="http://www.w3.org/2000/svg">
<rect width="24" height="24" fill="#A4A4A4" fill-opacity="0.01"/>
<defs>
<style id="current-color-scheme" type="text/css">.ColorScheme-Text { color:#ffffff; }</style>
</defs>
<g opacity = "0.90">
<rect class="ColorScheme-Text" x="6" y="9" width="3" height="2" fill="currentColor"/>
<path class="ColorScheme-Text" fill-rule="evenodd" clip-rule="evenodd" d="M4.00172 18.0995C4.00172 18.6517 4.44943 19.0995 5.00172 19.0995H16.7268L20.7199 23L20.7254 22.9946L7.78447 10.2043H6.76804L6.82687 9.25787L5.89486 8.33671C5.73929 8.94826 5.66151 9.5708 5.66151 10.2043V15.6149C5.66151 15.7529 5.54958 15.8649 5.41151 15.8649H4.50172C4.22558 15.8649 4.00172 16.0887 4.00172 16.3649V18.0995ZM1.50012 3.97309L1.5 3.97297L1.50647 3.96666L1.50012 3.97309ZM3.27932 2.23748L7.27096 6.18266L3.28007 2.23676L3.27932 2.23748ZM19.3075 14.8709C19.4653 15.0275 19.7337 14.9158 19.7337 14.6935V10.2043C19.7337 8.65045 19.2887 7.24721 18.3986 5.99459C17.5469 4.79594 16.4126 4.01109 14.9955 3.64003C14.8829 3.61056 14.8024 3.51003 14.8024 3.39368V3.09297C14.8024 2.50631 14.5979 2.01081 14.189 1.60649C13.7801 1.20216 13.2789 1 12.6856 1C12.0922 1 11.5911 1.20216 11.1821 1.60649C10.7732 2.01081 10.5687 2.50631 10.5687 3.09297V3.38703C10.5687 3.5064 10.4841 3.60826 10.3684 3.6376C10.1189 3.70086 9.87702 3.78887 9.64261 3.90162C9.43934 3.9994 9.23418 4.10462 9.02714 4.21728C8.8821 4.29621 8.85629 4.49223 8.97346 4.60859L19.3075 14.8709ZM11.0739 21.7632C11.5229 22.2072 12.0682 22.4292 12.7096 22.4292C13.3511 22.4292 13.8963 22.2072 14.3454 21.7632C14.6693 21.4429 14.8765 21.0772 14.9667 20.666C15.0259 20.3963 14.795 20.1697 14.5189 20.1697H10.9003C10.6242 20.1697 10.3934 20.3963 10.4526 20.666C10.5428 21.0772 10.7499 21.4429 11.0739 21.7632Z" fill="currentColor"/>
</g>
<rect x="1.4901" y="3.98323" width="2.49938" height="27.0788" rx="0.5" transform="rotate(-45.3354 1.4901 3.98323)" fill="url(#paint0_linear_116_11)"/>
<defs>
<linearGradient id="paint0_linear_116_11" x1="3.81095" y1="6.00331" x2="-0.437117" y2="6.39751" gradientUnits="userSpaceOnUse">
<stop stop-color="#E7463E"/>
<stop offset="1" stop-color="#C84D58"/>
</linearGradient>
</defs>
</svg>
