<svg xmlns="http://www.w3.org/2000/svg" id="svg" width="22" height="22" version="1.1">
<defs id="defs3">
<style id="current-color-scheme" type="text/css">
.ColorScheme-Text{color:#fcfcfc}
</style>
</defs>
<g id="22-22-notification-disabled" transform="translate(1.002 64.012)">
<path id="rect1163" d="M-1.002-64.012h22v22h-22z" style="fill:none;fill-opacity:1;stroke-width:1.69231;stroke-linecap:round;stroke-linejoin:round"/>
<path id="path1274" fill="currentColor" d="M4.002-54.432a5.6 5.6 0 0 1 .58-2.277l-2.438-2.437a.5.5 0 1 1 .708-.708l15 15a.5.5 0 0 1-.708.708l-2.849-2.85h-1.797l-.005.161a2.5 2.5 0 0 1-4.99 0l-.005-.161H3.997a1 1 0 0 1-.26-.034l-.124-.042a1 1 0 0 1-.603-1.052l.021-.128.043-.128.923-2.219.001-3.608zm9.295 6.438-7.96-7.96a4.6 4.6 0 0 0-.322 1.339l-.013.212-.004.205v3.698l-.038.192-.963 2.313zm-1.8.998h-3l.008.141a1.5 1.5 0 0 0 1.349 1.348l.144.007a1.5 1.5 0 0 0 1.493-1.355zm3.54-3.312.874 2.1.852.852a.98.98 0 0 0 .236-.64l-.008-.13-.016-.087a1 1 0 0 0-.053-.167l-.925-2.222.001-3.596-.004-.224-.014-.223C15.74-57.665 13.145-60 9.996-60c-1.64 0-3.128.633-4.213 1.664l.707.707A5.1 5.1 0 0 1 9.996-59c2.697 0 4.893 2.035 4.998 4.608l.004.204v3.688z" class="ColorScheme-Text"/>
</g>
</svg>
