<svg xmlns="http://www.w3.org/2000/svg" id="svg" width="22" height="22" version="1.1">
<defs id="defs3">
<style id="current-color-scheme" type="text/css">
.ColorScheme-Text{color:#fcfcfc}
</style>
</defs>
<g id="22-22-notification-progress-active" transform="translate(-40)">
<path id="empty-rectangle" fill="none" d="M40 0h22v22H40Z"/>
<g id="g47" fill="currentColor" class="ColorScheme-Text" transform="translate(-38)">
<path id="path43" fill="currentColor" d="M89 2a9 9 0 0 0-9 9 9 9 0 0 0 9 9 9 9 0 0 0 9-9 9 9 0 0 0-9-9m0 1a8 8 0 0 1 8 8 8 8 0 0 1-8 8 8 8 0 0 1-8-8 8 8 0 0 1 8-8" class="ColorScheme-Text"/>
<circle id="circle45" cx="89" cy="11" r="7" fill="currentColor" class="ColorScheme-Text"/>
</g>
</g>
</svg>
