<svg xmlns="http://www.w3.org/2000/svg" width="16" height="16">
<path fill="#fcfcfc" d="M14 3.5a2.5 2.5 0 0 1-5 0 2.5 2.5 0 1 1 5 0" color="#fcfcfc" opacity=".35" overflow="visible" style="isolation:auto;mix-blend-mode:normal"/>
<path fill="#fcfcfc" d="M7.994 1a6.12 6.12 0 0 0-3.668 1.205l.719.719a5.13 5.13 0 0 1 3.289-.912 3.5 3.5 0 0 1 .642-.934A6 6 0 0 0 7.994 1M3.578 2.871A5.66 5.66 0 0 0 2 6.568l-.004.225V10.4l-.924 2.221-.043.127-.021.127c-.05.464.193.882.603 1.053l.125.043a1 1 0 0 0 .26.033H4V14h1.178A3 3 0 0 0 8 16a3 3 0 0 0 2.822-2H13v.004h.998l.135-.01.115-.027q.16-.046.293-.133l-.828-.828H11V13h-1v.006l-4-.002V13H5v.004H1.996l.963-2.313.037-.191V6.803L3 6.598l.014-.213a4.66 4.66 0 0 1 1.27-2.809zM13.938 6a3.5 3.5 0 0 1-.946.654l.004.159V10.5l.039.191.158.381 1.793 1.793-.012-.078a1 1 0 0 0-.052-.166l-.926-2.223V6.803l-.004-.225-.014-.223a6 6 0 0 0-.04-.355m-7.663 8h3.45A2 2 0 0 1 8 15a2 2 0 0 1-1.725-1"/>
<path fill="#fcfcfc" d="m1.636.929 13.435 13.435a.499.499 0 1 1-.707.707L.929 1.636a.499.499 0 1 1 .707-.707" color="#000" style="-inkscape-stroke:none;paint-order:stroke fill markers"/>
</svg>
