<svg xmlns="http://www.w3.org/2000/svg" id="svg" width="22" height="22" version="1.1">
<defs id="defs3">
<style id="current-color-scheme" type="text/css">
.ColorScheme-Text{color:#fcfcfc}
</style>
</defs>
<g id="22-22-notification-progress-inactive" transform="translate(-40 -40)">
<path id="path50" fill="none" d="M40 40h22v22H40Z"/>
<g id="g56" fill="currentColor" transform="translate(-38 1)">
<path id="path52" fill="currentColor" d="M89 41a9 9 0 0 0-9 9 9 9 0 0 0 9 9 9 9 0 0 0 9-9 9 9 0 0 0-9-9m0 1a8 8 0 0 1 8 8 8 8 0 0 1-8 8 8 8 0 0 1-8-8 8 8 0 0 1 8-8" class="ColorScheme-Text"/>
<circle id="circle54" cx="89" cy="50" r="7" fill="currentColor" class="ColorScheme-Text" opacity=".15"/>
</g>
</g>
</svg>
