<svg xmlns="http://www.w3.org/2000/svg" id="svg" width="22" height="22" version="1.1">
<defs id="defs3">
<style id="current-color-scheme" type="text/css">
.ColorScheme-Text{color:#fcfcfc}
</style>
</defs>
<g id="22-22-notification-empty" transform="translate(-3 65)">
<path id="path865" fill="currentColor" d="M13.994-61c3.15 0 5.744 2.335 5.985 5.355l.013.223.005.224-.001 3.596.925 2.222q.034.081.053.167l.015.086.009.132a1 1 0 0 1-.75.963l-.116.026-.134.01h-3.502l-.005.161a2.5 2.5 0 0 1-4.99 0l-.005-.161h-3.5a1 1 0 0 1-.26-.034l-.125-.042a1 1 0 0 1-.602-1.052l.02-.128.043-.128.924-2.219v-3.608l.005-.225C8.124-58.549 10.768-61 13.994-61m1.502 13.004h-3l.008.141a1.5 1.5 0 0 0 1.348 1.348l.145.007a1.5 1.5 0 0 0 1.493-1.355zM13.994-60c-2.622 0-4.77 1.924-4.98 4.385L9-55.403l-.003.205v3.698l-.039.192-.963 2.313 11.958.002.045-.002-.963-2.313-.038-.192v-3.687l-.004-.205C18.887-57.965 16.69-60 13.994-60" class="ColorScheme-Text"/>
<path id="rect867" d="M3-65h22v22H3z" style="fill:none;stroke-width:2.2;stroke-linecap:round;stroke-linejoin:round"/>
</g>
</svg>
