<svg xmlns="http://www.w3.org/2000/svg" width="16" height="16">
<g fill="#fcfcfc" stroke-linecap="square">
<path d="M1 2c-.554 0-1 .446-1 1v1a1 1 0 0 1 1 1 1 1 0 0 1-1 1v1a1 1 0 0 1 1 1 1 1 0 0 1-1 1v1a1 1 0 0 1 1 1h14a1 1 0 0 1 1-1V9a1 1 0 0 1-1-1 1 1 0 0 1 1-1V6a1 1 0 0 1-1-1 1 1 0 0 1 1-1V3c0-.554-.446-1-1-1zm2 1h10c.554 0 1 .446 1 1v5c0 .554-.446 1-1 1H3c-.554 0-1-.446-1-1V4c0-.554.446-1 1-1m-3 9v1c0 .554.446 1 1 1h6v-2zm8 0v2h7c.554 0 1-.446 1-1v-1z"/>
<g stroke-width="1.581" transform="translate(0 -1)">
<rect width="2" height="5" x="4" y="5" rx=".014" ry="0"/>
<rect width="2" height="5" x="7" y="5" rx="0" ry="0"/>
<rect width="2" height="5" x="10" y="5" rx="0" ry="0"/>
</g>
</g>
</svg>
