<svg xmlns="http://www.w3.org/2000/svg" width="16" height="16">
<path fill="#fcfcfc" d="M2.25 4a.25.25 0 0 0-.25.25v1.5c0 .138.112.25.25.25h1.5A.25.25 0 0 0 4 5.75v-1.5A.25.25 0 0 0 3.75 4zm3 0a.25.25 0 0 0-.25.25v1.5c0 .138.112.25.25.25h1.5A.25.25 0 0 0 7 5.75v-1.5A.25.25 0 0 0 6.75 4zm3 0a.25.25 0 0 0-.25.25v1.5c0 .138.112.25.25.25h1.5a.25.25 0 0 0 .25-.25v-1.5A.25.25 0 0 0 9.75 4zm3 0a.25.25 0 0 0-.25.25v1.5c0 .138.112.25.25.25h1.5a.25.25 0 0 0 .25-.25v-1.5a.25.25 0 0 0-.25-.25zm-8 3a.25.25 0 0 0-.25.25v1.5c0 .138.112.25.25.25h1.5A.25.25 0 0 0 5 8.75v-1.5A.25.25 0 0 0 4.75 7zm3 0a.25.25 0 0 0-.25.25v1.5c0 .138.112.25.25.25h1.5A.25.25 0 0 0 8 8.75v-1.5A.25.25 0 0 0 7.75 7zm3 0a.25.25 0 0 0-.25.25v1.5c0 .138.112.25.25.25h.436A4.5 4.5 0 0 1 11 8.268V7.25a.25.25 0 0 0-.25-.25zm3 0a.25.25 0 0 0-.25.25v.785A5 5 0 0 1 12.5 8a4.5 4.5 0 0 1 1.5.258V7.25a.25.25 0 0 0-.25-.25zm-10 3a.25.25 0 0 0-.25.25v1.5c0 .138.112.25.25.25h1.5a.25.25 0 0 0 .25-.25v-1.5a.25.25 0 0 0-.25-.25zm3 0a.25.25 0 0 0-.25.25v1.5c0 .138.112.25.25.25h2.785a4.5 4.5 0 0 1 .729-2z"/>
<path fill="#fcfcfc" d="M2 2C.892 2 0 2.892 0 4v8c0 1.108.892 2 2 2h6.268a4.5 4.5 0 0 1-.233-1H2c-.554 0-1-.446-1-1V4c0-.554.446-1 1-1h12c.554 0 1 .446 1 1v4.758a4.5 4.5 0 0 1 1 .914V4c0-1.108-.892-2-2-2z"/>
<path fill="#ef2929" d="M12.5 9a3.5 3.5 0 1 0 0 7 3.5 3.5 0 0 0 0-7M10 11.969h5V13h-5z" class="error"/>
</svg>
