<svg xmlns="http://www.w3.org/2000/svg" id="svg4312" width="32" height="24" version="1.1">
<defs id="defs4314">
<style id="current-color-scheme" type="text/css">
.ColorScheme-ButtonFocus{color:#1e92ff}
</style>
</defs>
<g id="layer1" transform="translate(102 -988.362)">
<g id="128-128-osd-shutd-screen" style="fill:none" transform="translate(-128 923.362)">
<path id="path4319" d="M26 65h32v24H26Zm6 23h25V73H32Zm25-16v-1H27v1zm-30 1h4v15h-4zm21-5a1 1 0 1 0-2 0 1 1 0 0 0 2 0m4 0a1 1 0 1 0-2 0 1 1 0 0 0 2 0m4 0a1 1 0 1 0-2 0 1 1 0 0 0 2 0" class="ColorScheme-ButtonFocus" style="color:#3daee6;fill:currentColor;fill-opacity:1;fill-rule:evenodd;stroke:none"/>
</g>
</g>
</svg>
