<svg xmlns="http://www.w3.org/2000/svg" id="svg3869" width="32" height="32" version="1.1">
<defs id="defs3871">
<style id="current-color-scheme" type="text/css">
.ColorScheme-Text{color:#fcfcfc}
</style>
</defs>
<g id="layer1" transform="translate(-321 -529.362)">
<g id="phone" transform="translate(0 .002)">
<g id="g11" fill="currentColor" class="ColorScheme-Text" transform="translate(-46)">
<g id="g941">
<path id="rect5" fill="none" d="M321 529.36h32v32h-32z" transform="translate(46)"/>
<path id="path1877" fill="currentColor" d="M11 2C9.338 2 8 3.338 8 5v22c0 1.662 1.338 3 3 3h10c1.662 0 3-1.338 3-3V5c0-1.662-1.338-3-3-3Zm0 1h10c1.108 0 2 .892 2 2v22c0 1.108-.892 2-2 2H11c-1.108 0-2-.892-2-2V5c0-1.108.892-2 2-2m2.5 23a.499.499 0 1 0 0 1h5a.499.499 0 1 0 0-1Z" class="ColorScheme-Text" transform="translate(367 529.36)"/>
</g>
</g>
</g>
</g>
</svg>
