<svg xmlns="http://www.w3.org/2000/svg" viewBox="0 0 16 16">
<defs id="defs3051">
<style id="current-color-scheme" type="text/css">
.ColorScheme-Text{color:#fcfcfc}
</style>
</defs>
<path d="M429.71 533.79a3 3 0 1 0 0 6 3 3 0 0 0 0-6m-2 2.5h4v1h-4zm2 4.5c-2.761 0-5 2.01-5 4.5q.001.25.033.5h9.93a4 4 0 0 0 .037-.5c0-2.485-2.239-4.5-5-4.5m0 1c1.987.002 3.671 1.279 3.955 3h-7.91c.284-1.721 1.968-2.998 3.955-3" class="ColorScheme-Text" style="fill:currentColor;fill-opacity:.5;stroke:none" transform="translate(-421.71 -531.79)"/>
<path fill="#fff" d="M6 4.5h4v1H6z"/>
</svg>
