<svg xmlns="http://www.w3.org/2000/svg" id="svg4153" width="22" height="22" version="1.1">
<style id="current-color-scheme" type="text/css">
.ColorScheme-NegativeText{color:#da4453}
</style>
<g id="22-22-plasmavault_error">
<path id="rect4148" fill="none" d="M0 0h22v22H0Z"/>
<path id="path829" fill="currentColor" d="M3 3v16h16V5h-6.992l-2-2-.008.008V3zm1 1h5.586l1.004 1.004L6.57 9H4Zm10 5a3 3 0 0 1 3 3v1h1v5h-8v-5h1v-1a3 3 0 0 1 3-3m0 1a2 2 0 0 0-2 2v1h4v-1a2 2 0 0 0-2-2" class="ColorScheme-NegativeText"/>
</g>
</svg>
