<svg xmlns="http://www.w3.org/2000/svg" id="svg" width="32" height="32" version="1.1">
<defs id="defs81">
<style id="current-color-scheme" type="text/css">
.ColorScheme-Text{color:#fcfcfc}
</style>
</defs>
<g id="preferences-system-bluetooth-activated" transform="translate(-27 -22)">
<path id="rect4422" fill="none" d="M27 22h32v32H27z"/>
<path id="path4424" fill="currentColor" d="M43 26v10.998L37.002 31l-.705.705L42.59 38l-6.293 6.295.705.705L43 39.002V50h1.002L50 44.002v-.004L44.002 38 50 32.002v-.004L44.002 26Zm1 1.41L48.588 32 44 36.59ZM30 37a1 1 0 0 0-1 1 1 1 0 0 0 1 1 1 1 0 0 0 1-1 1 1 0 0 0-1-1m6 0a1 1 0 0 0-1 1 1 1 0 0 0 1 1 1 1 0 0 0 1-1 1 1 0 0 0-1-1m14 0a1 1 0 0 0-1 1 1 1 0 0 0 1 1 1 1 0 0 0 1-1 1 1 0 0 0-1-1m6 0a1 1 0 0 0-1 1 1 1 0 0 0 1 1 1 1 0 0 0 1-1 1 1 0 0 0-1-1m-12 2.41L48.588 44 44 48.59Z" class="ColorScheme-Text"/>
</g>
</svg>
