<svg xmlns="http://www.w3.org/2000/svg" id="svg" width="22" height="22" version="1.1">
<defs id="defs81">
<style id="current-color-scheme" type="text/css">
.ColorScheme-Text{color:#fcfcfc}.ColorScheme-Highlight{color:#3daee9}
</style>
</defs>
<g id="22-22-preferences-desktop-notification" transform="translate(-4 -38)">
<path id="path61" fill="none" d="M4 38h22v22H4Z"/>
<path id="rect3560" fill="currentColor" d="M9 42c-1.108 0-2 .892-2 2v9c0 1.108.892 2 2 2h3l3 3 3-3h3c1.108 0 2-.892 2-2v-9c0-1.108-.892-2-2-2zm1.5 3h9a.499.499 0 1 1 0 1h-9a.499.499 0 1 1 0-1m0 3h9a.499.499 0 1 1 0 1h-9a.499.499 0 1 1 0-1m0 3h5a.499.499 0 1 1 0 1h-5a.499.499 0 1 1 0-1" class="ColorScheme-Text"/>
<circle id="circle63" cx="22.5" cy="42.5" r="2.5" fill="currentColor" class="ColorScheme-Highlight"/>
</g>
</svg>
