<svg xmlns="http://www.w3.org/2000/svg" width="22" height="22">
<defs id="defs81"><style id="current-color-scheme" type="text/css">.ColorScheme-Text { color:#3daee9; }</style></defs>
<path fill="none" d="M0 0h22v22H0z"/>
<path fill="currentColor" d="M3 3c-1.108 0-2 .892-2 2v9c0 1.108.892 2 2 2h6v2H6.488a.493.493 0 0 0-.488.5c0 .277.217.5.488.5h9.023a.493.493 0 0 0 .489-.5c0-.277-.217-.5-.488-.5H13v-2h6c1.108 0 2-.892 2-2V5c0-1.108-.892-2-2-2Zm0 1h16c.554 0 1 .446 1 1v9c0 .554-.446 1-1 1H3c-.554 0-1-.446-1-1V5c0-.554.446-1 1-1m12.5 1a.499.499 0 1 0 0 1H18v2.5a.499.499 0 1 0 1 0v-3c0-.277-.223-.5-.5-.5Zm-12 5c-.277 0-.5.223-.5.5v3a.5.5 0 0 0 .5.5h3a.499.499 0 1 0 0-1H4v-2.5c0-.277-.223-.5-.5-.5m6.5 6h2v2h-2z" class="ColorScheme-Text"/>
</svg>


