<svg xmlns="http://www.w3.org/2000/svg" id="svg" width="32" height="32" version="1.1">
<defs id="defs81">
<style id="current-color-scheme" type="text/css">
.ColorScheme-Text{color:#fcfcfc}
</style>
</defs>
<g id="preferences-desktop-display-randr" transform="translate(-26 10)">
<path id="rect3832-6" fill-opacity="0" d="M26-10h32v32H26z"/>
<path id="rect884" fill="currentColor" d="M31-5c-1.662 0-3 1.338-3 3v12c0 1.662 1.338 3 3 3h9v3h-3.5a.499.499 0 1 0 0 1h11a.499.499 0 1 0 0-1H44v-3h9c1.662 0 3-1.338 3-3V-2c0-1.662-1.338-3-3-3zm0 1h22c1.108 0 2 .892 2 2v12c0 1.108-.892 2-2 2H31c-1.108 0-2-.892-2-2V-2c0-1.108.892-2 2-2m17.5 2a.499.499 0 1 0 0 1H52v3.5a.499.499 0 1 0 1 0V-1c0-.554-.446-1-1-1h-3Zm-17 7c-.277 0-.5.223-.5.5V9c0 .554.446 1 1 1h3.5a.499.499 0 1 0 0-1H32V5.5c0-.277-.223-.5-.5-.5m9.5 8h2v3h-2z" class="ColorScheme-Text"/>
</g>
</svg>
