<svg xmlns="http://www.w3.org/2000/svg" width="16" height="16" version="1">
<path fill="#fcfcfc" d="M2 5.462h.768v.756H2zm11.232.756H14v4.32c-.66-.059-.768-.293-.768-.72zm-6.048.044h.768v.928h.768v.756h-.768v1.08c0 .195.041.756.25.756h.518v.756h-.768c-.715 0-.768-.885-.768-1.362zM2 7.082h.768v3.456C2.108 10.481 2 9.913 2 9.502zm1.44 0h1.92c.766-.008 1.152.599 1.152 1.036v2.42h-.768v-2.42c0-.182-.258-.344-.514-.344H4.207v2.764H3.44zm7.946 0h.002c.926 0 1.46.73 1.46 1.686v.388h-2.195c.036.388.3.67.758.67.387 0 .579-.105.802-.319l.535.5c-.345.33-.705.53-1.344.53-.832 0-1.628-.443-1.628-1.732 0-1.1.694-1.722 1.61-1.723m-.076.692c-.424 0-.767.309-.768.69h1.537c0-.382-.345-.69-.77-.69"/>
<path fill="#fcfcfc" fill-rule="evenodd" d="M2 1C.892 1 0 1.892 0 3v10c0 1.108.892 2 2 2h12c1.108 0 2-.892 2-2V3c0-1.108-.892-2-2-2zm0 1h12c.554 0 1 .446 1 1v10c0 .554-.446 1-1 1H2c-.554 0-1-.446-1-1V3c0-.554.446-1 1-1" style="paint-order:stroke fill markers"/>
</svg>
