<svg xmlns="http://www.w3.org/2000/svg" width="16" height="16.007">
<path fill="#fcfcfc" d="M4.5 1.004a1.5 1.5 0 0 0-1.5 1.5v.5h-.5a2.5 2.5 0 0 0-2.5 2.5v5a1.5 1.5 0 0 0 1.5 1.5H3v1.5a1.5 1.5 0 0 0 1.5 1.5h7a1.5 1.5 0 0 0 1.5-1.5v-1.5h1.5a1.5 1.5 0 0 0 1.5-1.5v-5a2.5 2.5 0 0 0-2.5-2.5H13v-.5a1.5 1.5 0 0 0-1.5-1.5H10v1h1.5a.5.5 0 0 1 .5.5v.5h-2v1h3.5a1.5 1.5 0 0 1 1.5 1.5v5a.5.5 0 0 1-.5.5H13v-1.5a1.5 1.5 0 0 0-1.5-1.5h-7a1.5 1.5 0 0 0-1.5 1.5v1.5H1.5a.5.5 0 0 1-.5-.5v-5a1.5 1.5 0 0 1 1.5-1.5H6v-1H4v-.5a.5.5 0 0 1 .5-.5H6v-1zm0 8h7a.5.5 0 0 1 .5.5v4a.5.5 0 0 1-.5.5h-7a.5.5 0 0 1-.5-.5v-4a.5.5 0 0 1 .5-.5"/>
<path fill="#00a6ff" d="M7 0v5H6l2 2 2-2H9V0z"/>
</svg>
