<svg xmlns="http://www.w3.org/2000/svg" width="16" height="16.007">
<path fill="#f9c440" d="M12.48 8.728a.44.44 0 0 0-.361.22l-3.06 5.397a.437.437 0 0 0 .378.655h6.125a.437.437 0 0 0 .379-.655l-3.06-5.396a.44.44 0 0 0-.401-.22zM12 10h1v2h-1zm0 3h1v1h-1z" color="#000" style="-inkscape-stroke:none"/>
<path fill="#fcfcfc" d="M4.5 1.004a1.5 1.5 0 0 0-1.5 1.5v.5h-.5a2.5 2.5 0 0 0-2.5 2.5v5a1.5 1.5 0 0 0 1.5 1.5H3v1.5a1.5 1.5 0 0 0 1.5 1.5h3.604a1.4 1.4 0 0 1 .011-1H4.5a.5.5 0 0 1-.5-.5v-4a.5.5 0 0 1 .5-.5h6.44l.31-.549.002-.006c.1-.174.237-.32.395-.437a2 2 0 0 0-.147-.008h-7a1.5 1.5 0 0 0-1.5 1.5v1.5H1.5a.5.5 0 0 1-.5-.5v-5a1.5 1.5 0 0 1 1.5-1.5h11a1.5 1.5 0 0 1 1.5 1.5v5a.5.5 0 0 1-.018.125l.547.963A1.5 1.5 0 0 0 16 10.504v-5a2.5 2.5 0 0 0-2.5-2.5H13v-.5a1.5 1.5 0 0 0-1.5-1.5zm0 1h7a.5.5 0 0 1 .5.5v.5H4v-.5a.5.5 0 0 1 .5-.5"/>
</svg>
