<svg xmlns="http://www.w3.org/2000/svg" width="16" height="16.01">
<path fill="#fcfcfc" d="M4.5 1.004a1.5 1.5 0 0 0-1.5 1.5v.5h-.5a2.5 2.5 0 0 0-2.5 2.5v5a1.5 1.5 0 0 0 1.5 1.5H3v1.5a1.5 1.5 0 0 0 1.5 1.5h5.191a4.5 4.5 0 0 1-.923-1H4.5a.5.5 0 0 1-.5-.5v-4a.5.5 0 0 1 .5-.5h4.262a4.5 4.5 0 0 1 .918-1H4.5a1.5 1.5 0 0 0-1.5 1.5v1.5H1.5a.5.5 0 0 1-.5-.5v-5a1.5 1.5 0 0 1 1.5-1.5h11a1.5 1.5 0 0 1 1.5 1.5v2.254a4.5 4.5 0 0 1 1 .914V5.504a2.5 2.5 0 0 0-2.5-2.5H13v-.5a1.5 1.5 0 0 0-1.5-1.5zm0 1h7a.5.5 0 0 1 .5.5v.5H4v-.5a.5.5 0 0 1 .5-.5"/>
<path fill="#ef2929" d="M12.5 8a3.5 3.5 0 1 0 0 7 3.5 3.5 0 0 0 0-7M12 9h1v3h-1zm0 4h1v1h-1z" class="error"/>
</svg>
