<svg xmlns="http://www.w3.org/2000/svg" width="16" height="16">
<g fill="#fcfcfc" font-weight="400">
<path d="M940.982-129.938c-3.857 0-7 3.143-7 7s3.143 7 7 7 7-3.142 7-7-3.142-7-7-7m0 .99a6.005 6.005 0 0 1 6.008 6.01 6.005 6.005 0 0 1-6.008 6.01 6.007 6.007 0 0 1-6.01-6.01 6.007 6.007 0 0 1 6.01-6.01" color="#fcfcfc" font-family="Andale Mono" overflow="visible" style="line-height:normal;font-variant-ligatures:normal;font-variant-position:normal;font-variant-caps:normal;font-variant-numeric:normal;font-variant-alternates:normal;font-feature-settings:normal;text-indent:0;text-align:start;text-decoration-line:none;text-decoration-style:solid;text-decoration-color:#000;text-transform:none;text-orientation:mixed;shape-padding:0;isolation:auto;mix-blend-mode:normal;marker:none" transform="translate(-933 131)"/>
<path d="M936.898-123.947v2h8.13v-2h-7.13z" color="#000" font-family="sans-serif" overflow="visible" style="line-height:normal;font-variant-ligatures:normal;font-variant-position:normal;font-variant-caps:normal;font-variant-numeric:normal;font-variant-alternates:normal;font-feature-settings:normal;text-indent:0;text-align:start;text-decoration-line:none;text-decoration-style:solid;text-decoration-color:#000;text-transform:none;text-orientation:mixed;shape-padding:0;isolation:auto;mix-blend-mode:normal;marker:none" transform="translate(-933 131)"/>
</g>
</svg>
