<svg xmlns="http://www.w3.org/2000/svg" id="svg8" version="1.1" viewBox="0 0 22 22">
<defs id="defs2">
<style id="current-color-scheme" type="text/css">
.ColorScheme-Text{color:#fcfcfc}
</style>
</defs>
<path id="path5750-5-2-7-2" fill="currentColor" stroke-linecap="round" stroke-linejoin="round" d="M15 3s-2.556-.06-3.512 1.893a4.5 4.5 0 0 0-.449 2.142 3.64 3.64 0 0 0 1.018 2.404c.527.546.757 1.066.861 1.446s.084.576.084.576l.002.014L13 11.5v3a.5.5 0 0 0 .146.354l1 1A.5.5 0 0 0 14.5 16h1a.5.5 0 0 0 .354-.146l1-1A.5.5 0 0 0 17 14.5v-3l-.002-.04v-.013c-.002-.032-.01-.217.084-.562.104-.38.334-.9.861-1.446a3.65 3.65 0 0 0 1.018-2.404 4.5 4.5 0 0 0-.45-2.142C17.557 2.94 15 3 15 3m-7.7.285-.5 3.422a6 6 0 0 1 3.481-1.662zM15 4s1.991.06 2.613 1.332a3.6 3.6 0 0 1 .348 1.66c-.027.614-.226 1.222-.738 1.752-.65.672-.963 1.357-1.106 1.877-.119.433-.12.768-.117.873V12h-2v-.514a3.1 3.1 0 0 0-.117-.867c-.143-.52-.456-1.203-1.106-1.875-.512-.53-.711-1.138-.738-1.752a3.6 3.6 0 0 1 .348-1.66C13.009 4.061 15 4 15 4M6.613 6.893l-3.404.564 1.82 2.95a6 6 0 0 1 1.584-3.514m3.389.24A4.005 4.005 0 0 0 7 11c0 2.203 1.797 4 4 4q.52-.002 1-.129v-1.02l-.008-.023A2.992 2.992 0 0 1 8 11c0-1.371.91-2.516 2.162-2.877a3.8 3.8 0 0 1-.16-.99m-5.006 3.535-2.238 2.615 3.293 1.092a6 6 0 0 1-1.041-2.86 6 6 0 0 1-.014-.847M14 13h2v1h-2zm-7.81 1.586-.036 3.451 3.225-1.281a6 6 0 0 1-3.19-2.17m7.269 1.857a6 6 0 0 1-1.95.526 6 6 0 0 1-1.892-.145l2.195 2.672z" class="ColorScheme-Text" style="-inkscape-stroke:none;paint-order:markers fill stroke"/>
</svg>
