<svg xmlns="http://www.w3.org/2000/svg" id="svg8" version="1.1" viewBox="0 0 22 22">
<defs id="defs2">
<style id="current-color-scheme" type="text/css">
.ColorScheme-Text{color:#fcfcfc}
</style>
</defs>
<path id="path7932" fill="currentColor" stroke-linecap="round" stroke-linejoin="round" d="M15 2.998s-2.556-.058-3.512 1.895a4.5 4.5 0 0 0-.449 2.142 3.64 3.64 0 0 0 1.018 2.402c.527.546.757 1.068.861 1.448s.084.574.084.574l.002.014L13 11.5v3a.5.5 0 0 0 .146.354l1 1A.5.5 0 0 0 14.5 16h1a.5.5 0 0 0 .354-.146l1-1.002a.5.5 0 0 0 .146-.354v-3l-.002-.037v-.018c-.002-.04-.008-.223.084-.558.104-.38.334-.9.861-1.446a3.65 3.65 0 0 0 1.018-2.404 4.5 4.5 0 0 0-.45-2.142c-.885-1.812-3.123-1.89-3.447-1.891zm-.008 1L15 4s1.991.06 2.613 1.332a3.6 3.6 0 0 1 .348 1.66c-.027.614-.226 1.222-.738 1.752-.65.672-.963 1.355-1.106 1.875-.119.433-.12.769-.117.873V12h-2v-.514a3.1 3.1 0 0 0-.117-.867c-.143-.52-.456-1.205-1.106-1.877-.512-.53-.711-1.138-.738-1.752a3.6 3.6 0 0 1 .348-1.658c.615-1.257 2.561-1.332 2.605-1.334m-4.312.006a8 8 0 0 0-.506.004 7.5 7.5 0 0 0-7.166 7.818 7.5 7.5 0 0 0 7.818 7.166 7.5 7.5 0 0 0 4.444-1.73 7.5 7.5 0 0 1-7.332-7.15 7.5 7.5 0 0 1 2.742-6.108M8.107 5.47a8.5 8.5 0 0 0-1.17 4.683 8.5 8.5 0 0 0 5.446 7.555 6.5 6.5 0 0 1-1.6.285 6.5 6.5 0 0 1-6.777-6.21A6.5 6.5 0 0 1 8.107 5.47M14 13h2v1h-2z" class="ColorScheme-Text" style="-inkscape-stroke:none;paint-order:markers fill stroke"/>
</svg>
