<svg xmlns="http://www.w3.org/2000/svg" width="16" height="16">
<g fill="#fcfcfc">
<path d="M8 4.004c-1.108 0-2 .908-2 2.03v.97h-.5s-.5 0-.5.5v3s0 .5.5.5h5s.5 0 .5-.5v-3c0-.5-.5-.5-.5-.5H10v-.97c0-1.12-.892-2.03-2-2.03m0 1c.554 0 1 .442 1 1v1H7v-1c0-.558.446-1 1-1M6 8h4v2H6z" style="font-feature-settings:normal;font-variant-alternates:normal;font-variant-caps:normal;font-variant-ligatures:normal;font-variant-numeric:normal;font-variant-position:normal;isolation:auto;mix-blend-mode:normal;shape-padding:0;text-decoration-color:#000;text-decoration-line:none;text-decoration-style:solid;text-indent:0;text-orientation:mixed;text-transform:none"/>
<path d="M8 1a7 7 0 0 0-7 7 7 7 0 0 0 7 7 7 7 0 0 0 6.707-5h-1.053A6 6 0 0 1 8 14a6 6 0 0 1-6-6 6 6 0 0 1 6-6 6 6 0 0 1 5.182 3H11.5a.5.5 0 1 0 0 1h3.207l-.014-.037.002-.002a7 7 0 0 0-.334-.875l-.006-.018-.006-.01L14.324 5h-.006A7 7 0 0 0 8 1"/>
</g>
</svg>
