<svg xmlns="http://www.w3.org/2000/svg" width="16" height="16">
<path fill="#fcfcfc" d="M3 1c-1.108 0-2 .892-2 2v10c0 1.108.892 2 2 2h10c1.108 0 2-.892 2-2V3c0-1.108-.892-2-2-2zm0 1h10c.554 0 1 .446 1 1v10c0 .554-.446 1-1 1H3c-.554 0-1-.446-1-1V3c0-.554.446-1 1-1"/>
<path fill="#fcfcfc" d="M4 5c-.554 0-1 .446-1 1v2h1V6h2V5zm6 0v1h2v2h1V6c0-.554-.446-1-1-1zm-7 5v2c0 .554.446 1 1 1h2v-1H4v-2zm9 0v2h-2v1h2c.554 0 1-.446 1-1v-2z"/>
<circle cx="3.5" cy="3.5" r=".5" fill="#fcfcfc"/>
<circle cx="5.5" cy="3.5" r=".5" fill="#fcfcfc"/>
<circle cx="7.5" cy="3.5" r=".5" fill="#fcfcfc"/>
</svg>
