<svg xmlns="http://www.w3.org/2000/svg" id="svg15" width="32" height="32" version="1.1">
<defs id="defs3">
<style id="current-color-scheme" type="text/css">
.ColorScheme-Text{color:#fcfcfc}
</style>
</defs>
<g id="search" transform="translate(-22)">
<path id="path14" d="M22 0v32h32V0Z" style="fill:none"/>
<path id="path853" fill="currentColor" d="M35 7a6 6 0 0 0-6 6 6 6 0 0 0 6 6 6 6 0 0 0 3.871-1.422l5.322 5.322a.499.499 0 1 0 .707-.707l-5.322-5.322A6 6 0 0 0 41 13a6 6 0 0 0-6-6m0 1a5 5 0 0 1 5 5 5 5 0 0 1-1.465 3.535A5 5 0 0 1 35 18a5 5 0 0 1-5-5 5 5 0 0 1 5-5" class="ColorScheme-Text"/>
</g>
</svg>
