<svg xmlns="http://www.w3.org/2000/svg" width="16" height="16">
<path fill="#fcfcfc" d="M7.998 0a2.5 2.5 0 0 0-.814.156L7.146.17C6.012.617 3.38 1.488 1.955 2.056l-.023.01c-.23.099-.557.31-.739.639s-.189.618-.19.848L1 8.894c-.001 1.495.474 2.74 1.473 3.71.996.968 2.395 1.77 4.47 3.035q.003 0 .004.002.003 0 .004.002c.315.194.677.354 1.04.355l.001.002h.002l.002-.002c.358-.001.737-.163 1.053-.36h.002c2.047-1.237 3.445-2.033 4.447-3.005 1.004-.974 1.497-2.228 1.498-3.737L15 3.555c0-.23-.004-.522-.191-.858-.188-.336-.535-.552-.784-.646l-.02-.006C12.642 1.559 10.022.628 8.86.17L8.82.156A2.5 2.5 0 0 0 7.998 0m0 1c.137 0 .284.028.494.101 1.208.476 3.815 1.4 5.178 1.885.265.1.33.237.33.567l-.004 5.341c-.002 2.682-1.355 3.405-5.473 5.895-.264.164-.392.21-.529.21-.127 0-.26-.046-.523-.21C3.298 12.244 1.998 11.558 2 8.894l.004-5.341c0-.33.064-.457.32-.567 1.354-.54 3.982-1.409 5.19-1.885A1.5 1.5 0 0 1 7.998 1"/>
<path fill="#fcfcfc" d="M7.998 2s.025-.003.16.043c1.181.464 3.44 1.265 4.842 1.764l-.004 5.088c0 1.172-.187 1.62-.889 2.3-.702.681-2.038 1.49-4.101 2.739L8 13.936l-.002.004h-.002l-.004-.004c-2.091-1.276-3.43-2.09-4.125-2.766C3.172 10.495 3 10.064 3 8.895l.004-5.09C4.34 3.29 6.627 2.52 7.842 2.045l.008-.002C7.98 2 8.016 2 7.998 2" color="#000" opacity=".5" style="-inkscape-stroke:none"/>
</svg>
