<svg xmlns="http://www.w3.org/2000/svg" width="22" height="22">
<style id="current-color-scheme" type="text/css">
.ColorScheme-ButtonFocus{color:#3daee9}
</style>
<g id="showinfo-hover" transform="translate(22 -109)">
<path id="rect4411" d="M-22 109H0v22h-22z" style="opacity:1;fill:none;fill-opacity:1;stroke:none"/>
<g id="g4413" transform="translate(-22 -921.362)">
<path id="rect4415" d="M10 1036.362h2v2h-2z" class="ColorScheme-ButtonFocus" style="opacity:1;fill:currentColor;fill-opacity:1;stroke:none"/>
<path id="rect4417" d="M10 1039.362h2v7h-2z" class="ColorScheme-ButtonFocus" style="opacity:1;fill:currentColor;fill-opacity:1;stroke:none"/>
<path id="path4419" d="M11 3c-4.432 0-8 3.568-8 8s3.568 8 8 8 8-3.568 8-8-3.568-8-8-8m0 1c3.878 0 7 3.122 7 7s-3.122 7-7 7-7-3.122-7-7 3.122-7 7-7" class="ColorScheme-ButtonFocus" style="opacity:1;fill:currentColor;fill-opacity:1;stroke:none" transform="translate(0 1030.362)"/>
</g>
</g>
</svg>
