<svg xmlns="http://www.w3.org/2000/svg" viewBox="0 0 22 22">
<defs>
<style id="current-color-scheme" type="text/css">
.ColorScheme-PositiveText{color:#27ae60}.ColorScheme-Text{color:#fcfcfc}
</style>
</defs>
<g fill="currentColor">
<path id="smartphone" fill="currentColor" d="M8 3c-1.108 0-2 .892-2 2v12c0 1.108.892 2 2 2h6c1.108 0 2-.892 2-2V5c0-1.108-.892-2-2-2zm0 1h6c.554 0 1 .446 1 1v12c0 .554-.446 1-1 1H8c-.554 0-1-.446-1-1V5c0-.554.446-1 1-1m.5 1a.5.5 0 0 0-.5.5.5.5 0 0 0 .5.5.5.5 0 0 0 .5-.5.5.5 0 0 0-.5-.5m1 11a.499.499 0 1 0 0 1h3a.499.499 0 1 0 0-1z" class="ColorScheme-Text" style="fill:currentColor"/>
<path d="m9 11-.5.5L10 13l3.5-3.5L13 9l-3 3z" style="fill:currentColor" class="ColorScheme-PositiveText"/>
</g>
</svg>
