<svg xmlns="http://www.w3.org/2000/svg" viewBox="0 0 22 22">
<defs id="defs3051">
<style id="current-color-scheme" type="text/css">
.ColorScheme-Text{color:#fcfcfc}.ColorScheme-NeutralText{color:#f67400}
</style>
</defs>
<g transform="translate(-421.714 -525.79)">
<path id="path4196" d="M11 4a6 6 0 0 0-6 6l.004.129A4 4 0 0 0 2 14a4 4 0 0 0 4 4h9a5 5 0 0 0 5-5 5 5 0 0 0-3.242-4.676A6 6 0 0 0 11 4m0 1a5 5 0 0 1 4.92 4.111A4 4 0 0 1 19 13a4 4 0 0 1-4 4H6a3 3 0 0 1-3-3 3 3 0 0 1 3-3l.107.006A5 5 0 0 1 6 10a5 5 0 0 1 5-5" class="ColorScheme-Text" style="opacity:1;fill:currentColor;fill-opacity:1;stroke:none" transform="translate(421.714 525.79)"/>
<path id="rect4153-8-8" d="M437.714 536.79c2.216 0 4 1.785 4 4 0 2.217-1.784 4-4 4s-4-1.783-4-4c0-2.215 1.784-4 4-4" class="ColorScheme-NeutralText" style="fill:currentColor;fill-opacity:1;stroke:none"/>
<path id="rect4521" d="M14 13v4h1v-4zm3 0v4h1v-4z" style="opacity:1;fill:#fff;fill-opacity:1;stroke-linecap:round" transform="translate(421.714 525.79)"/>
</g>
</svg>
