<svg xmlns="http://www.w3.org/2000/svg" viewBox="0 0 22 22">
<defs id="defs3051">
<style id="current-color-scheme" type="text/css">
.ColorScheme-Text{color:#fcfcfc}.ColorScheme-Highlight{color:#3daee9}
</style>
</defs>
<g transform="translate(-421.714 -525.79)">
<path id="path4196-4" d="M432.714 529.79a6 6 0 0 0-6 6l.004.13a4 4 0 0 0-3.004 3.87 4 4 0 0 0 4 4h9a5 5 0 0 0 5-5 5 5 0 0 0-3.242-4.675 6 6 0 0 0-5.758-4.324m0 1a5 5 0 0 1 4.92 4.112 4 4 0 0 1 3.08 3.889 4 4 0 0 1-4 4h-9a3 3 0 0 1-3-3 3 3 0 0 1 3-3l.108.006a5 5 0 0 1-.108-1.006 5 5 0 0 1 5-5z" class="ColorScheme-Text" style="opacity:1;fill:currentColor;fill-opacity:1;stroke:none"/>
<path id="path4509" d="M441.714 540.29a4.5 4.5 0 0 1-4.5 4.5 4.5 4.5 0 0 1-4.5-4.5 4.5 4.5 0 0 1 4.5-4.5 4.5 4.5 0 0 1 4.5 4.5" class="ColorScheme-Highlight" style="fill:currentColor;fill-opacity:1;stroke:none"/>
<path id="rect4241" d="M15 11.992v1h1v-1zm0 2v3h1v-3z" style="opacity:1;fill:#fff" transform="translate(421.714 525.79)"/>
</g>
</svg>
