<svg xmlns="http://www.w3.org/2000/svg" viewBox="0 0 22 22">
<defs id="defs3051">
<style id="current-color-scheme" type="text/css">
.ColorScheme-Text{color:#fcfcfc}
</style>
</defs>
<g transform="translate(-421.714 -525.79)">
<path id="path4196" d="M11 4a6 6 0 0 0-6 6l.004.129A4 4 0 0 0 2 14a4 4 0 0 0 4 4h9a5 5 0 0 0 5-5 5 5 0 0 0-3.242-4.676A6 6 0 0 0 11 4m0 1a5 5 0 0 1 4.92 4.111A4 4 0 0 1 19 13a4 4 0 0 1-4 4H6a3 3 0 0 1-3-3 3 3 0 0 1 3-3l.107.006A5 5 0 0 1 6 10a5 5 0 0 1 5-5" class="ColorScheme-Text" style="opacity:1;fill:currentColor;fill-opacity:1;stroke:none" transform="translate(421.714 525.79)"/>
<path id="path4306" d="M442.714 540.29a4.5 4.5 0 0 1-4.5 4.5 4.5 4.5 0 0 1-4.5-4.5 4.5 4.5 0 0 1 4.5-4.5 4.5 4.5 0 0 1 4.5 4.5" style="opacity:1;fill:#bdc3c7;fill-opacity:1;stroke:none"/>
<path id="rect4521" d="M14 14v1h1v-1zm2 0v1h1v-1zm2 0v1h1v-1z" style="opacity:1;fill:#fff;fill-opacity:1;stroke-linecap:round" transform="translate(421.714 525.79)"/>
</g>
</svg>
