<svg xmlns="http://www.w3.org/2000/svg" viewBox="0 0 22 22">
<defs id="defs3051">
<style id="current-color-scheme" type="text/css">
.ColorScheme-Text{color:#fcfcfc}.ColorScheme-NeutralText{color:#f67400}
</style>
</defs>
<g transform="translate(-421.714 -525.79)">
<path id="path4196" d="M11 4a6 6 0 0 0-6 6l.004.129A4 4 0 0 0 2 14a4 4 0 0 0 4 4h9a5 5 0 0 0 5-5 5 5 0 0 0-3.242-4.676A6 6 0 0 0 11 4m0 1a5 5 0 0 1 4.92 4.111A4 4 0 0 1 19 13a4 4 0 0 1-4 4H6a3 3 0 0 1-3-3 3 3 0 0 1 3-3l.107.006A5 5 0 0 1 6 10a5 5 0 0 1 5-5" class="ColorScheme-Text" style="opacity:1;fill:currentColor;fill-opacity:1;stroke:none" transform="translate(421.714 525.79)"/>
<path id="path4250" d="M437.214 536.789h.004a.5.5 0 0 1 .44.27h.004l3.986 6.974h-.002a.5.5 0 0 1 .068.252.5.5 0 0 1-.5.5h-8a.5.5 0 0 1-.5-.5.5.5 0 0 1 .069-.252h-.002l3.986-6.973h.004a.5.5 0 0 1 .444-.271z" class="ColorScheme-NeutralText" style="fill:currentColor;fill-opacity:1;stroke:none"/>
<path id="rect4241" d="M15 13v3h1v-3zm0 4v1h1v-1z" style="opacity:1;fill:#fff" transform="translate(421.714 525.79)"/>
</g>
</svg>
