<svg xmlns="http://www.w3.org/2000/svg" viewBox="0 0 22 22">
<defs id="defs3051">
<style id="current-color-scheme" type="text/css">
.ColorScheme-Text{color:#fcfcfc}
</style>
</defs>
<path d="M11 4a6 6 0 0 0-6 6l.004.129A4 4 0 0 0 2 14a4 4 0 0 0 4 4h9a5 5 0 0 0 5-5 5 5 0 0 0-3.242-4.676A6 6 0 0 0 11 4m0 1a5 5 0 0 1 4.92 4.111A4 4 0 0 1 19 13a4 4 0 0 1-4 4H6a3 3 0 0 1-3-3 3 3 0 0 1 3-3l.107.006A5 5 0 0 1 6 10a5 5 0 0 1 5-5" class="ColorScheme-Text" style="fill:currentColor;fill-opacity:1;stroke:none"/>
<path id="path8" d="M16 12c-2.216 0-4 1.784-4 4s1.784 4 4 4 4-1.784 4-4-1.784-4-4-4" style="color:#3daee9;fill:currentColor;fill-opacity:1;stroke:none"/>
<path id="path10" d="M15.95 13.004a3 3 0 0 0-1.684.555l.718.718a2 2 0 0 1 2.43.309 2 2 0 0 1 .307 2.428l.724.724a3 3 0 0 0-.324-3.86 3 3 0 0 0-2.172-.874m-2.395 1.258a3 3 0 0 0 .324 3.86 3 3 0 0 0 3.855.32l-.718-.72a2 2 0 0 1-2.43-.308 2 2 0 0 1-.307-2.428z" style="fill:#fff;fill-opacity:1;stroke:none;stroke-linecap:butt;stroke-linejoin:round"/>
</svg>
