<svg xmlns="http://www.w3.org/2000/svg" viewBox="0 0 22 22">
<defs id="defs3051">
<style id="current-color-scheme" type="text/css">
.ColorScheme-Text{color:#fcfcfc}
</style>
</defs>
<path d="M11 4a6 6 0 0 0-6 6l.004.129A4 4 0 0 0 2 14a4 4 0 0 0 4 4h9a5 5 0 0 0 5-5 5 5 0 0 0-3.242-4.676A6 6 0 0 0 11 4m0 1a5 5 0 0 1 4.92 4.111A4 4 0 0 1 19 13a4 4 0 0 1-4 4H6a3 3 0 0 1-3-3 3 3 0 0 1 3-3l.107.006A5 5 0 0 1 6 10a5 5 0 0 1 5-5" class="ColorScheme-Text" style="fill:currentColor;fill-opacity:1;stroke:none"/>
<path id="path8" d="M16 12c-2.216 0-4 1.784-4 4s1.784 4 4 4 4-1.784 4-4-1.784-4-4-4" style="color:#27ae60;fill:currentColor;fill-opacity:1;stroke:none"/>
<path id="path10" d="m18 14-3 3-1-1-1 1 1 1 1 1 4-4z" style="opacity:1;fill:#fff"/>
</svg>
