<svg xmlns="http://www.w3.org/2000/svg" width="16" height="16" version="1">
<path fill="#fcfcfc" d="M3.18 0a.86.86 0 0 0-.612.254L.254 2.564a.863.863 0 0 0 0 1.223l1.48 1.479A7.5 7.5 0 0 0 1 8.5 7.5 7.5 0 0 0 8.5 16 7.5 7.5 0 0 0 16 8.5 7.5 7.5 0 0 0 8.5 1h-.037a7.5 7.5 0 0 0-3.194.732L3.79.254A.86.86 0 0 0 3.179 0m-.002 1.133c.049 0 .1.019.136.056l1.051 1.053.166-.105a7.5 7.5 0 0 0-2.287 2.226l-1.05-1.052a.19.19 0 0 1 0-.27l1.849-1.852a.2.2 0 0 1 .135-.056M8.5 2A6.5 6.5 0 0 1 15 8.5 6.5 6.5 0 0 1 8.5 15 6.5 6.5 0 0 1 2 8.5 6.5 6.5 0 0 1 8.5 2m2.059 2.541a.5.5 0 0 0-.496.25L8.772 7.025A1.5 1.5 0 0 0 8.5 7 1.5 1.5 0 0 0 7 8.5 1.5 1.5 0 0 0 8.5 10 1.5 1.5 0 0 0 10 8.5a1.5 1.5 0 0 0-.361-.977l1.289-2.234a.5.5 0 0 0-.37-.748"/>
</svg>
