<svg xmlns="http://www.w3.org/2000/svg" id="svg2" width="32" height="32" version="1.1">
<style id="current-color-scheme" type="text/css">
.ColorScheme-Text{color:#fcfcfc}
</style>
<g id="system-lock-screen" transform="translate(-22)">
<path id="path22" fill="currentColor" d="M38 4c-6.627 0-12 5.373-12 12s5.373 12 12 12 12-5.373 12-12S44.627 4 38 4m0 1c6.075 0 11 4.925 11 11s-4.925 11-11 11-11-4.925-11-11S31.925 5 38 5m0 3c-2.216 0-4 1.784-4 4v4h-2v8h12v-8h-2v-4c0-2.216-1.784-4-4-4m0 1c1.662 0 3 1.561 3 3.5V16h-6v-3.5c0-1.939 1.338-3.5 3-3.5m-5 8h10v6H33Z" class="ColorScheme-Text"/>
<path id="path24" fill="none" d="M22 0v32h32V0Z"/>
</g>
</svg>
