<svg xmlns="http://www.w3.org/2000/svg" id="svg2" width="32" height="32" version="1.1">
<style id="current-color-scheme" type="text/css">
.ColorScheme-Text{color:#fcfcfc}
</style>
<g id="system-log-out" transform="translate(-22)">
<path id="path12" fill="currentColor" d="M38 4a12 12 0 0 0-12 12 12 12 0 0 0 12 12 12 12 0 0 0 12-12A12 12 0 0 0 38 4m0 1a11 11 0 0 1 11 11 11 11 0 0 1-11 11 11 11 0 0 1-11-11A11 11 0 0 1 38 5m3.27 3L33 16l8.27 8 .73-.707L34.46 16 42 8.707Z" class="ColorScheme-Text"/>
<path id="path14" fill="none" d="M22 0v32h32V0Z"/>
</g>
</svg>
