<svg xmlns="http://www.w3.org/2000/svg" id="svg2" width="32" height="32" version="1.1">
<style id="current-color-scheme" type="text/css">
.ColorScheme-Text{color:#fcfcfc}
</style>
<g id="system-switch-user" transform="translate(-22)">
<path id="path84" fill="none" d="M22 0v32h32V0Z"/>
<path id="path1011" fill="currentColor" d="M94 8a3.98 3.98 0 0 0-3.148 1.56q.495.168.945.419A2.98 2.98 0 0 1 94 9a2.993 2.993 0 0 1 .744 5.896c0 .035.006.069.006.104 0 .318-.032.628-.082.932A3.99 3.99 0 0 0 98 12a4 4 0 0 0-4-4m-5 12c-3.881 0-7 2.69-7 6.436q.005.792.198 1.564h13.659c.129-.513.14-1.037.143-1.564C96 22.69 92.881 20 89 20m.027.992c3.814 0 5.973 2.274 5.973 5.444a6 6 0 0 1-.029.521H83.029a6 6 0 0 1-.029-.521c0-3.17 2.18-5.444 5.973-5.444ZM95.251 17q-.385.001-.758.043A5.8 5.8 0 0 1 94 18.14a6 6 0 0 1 1.251-.14c3.154 0 5.71 2.462 5.71 5.5q0 .25-.026.5h-4.53c.109.321.203.649.27.986l5.134.014a6.3 6.3 0 0 0 .191-1.5c0-3.59-3.022-6.5-6.749-6.5M89 11a4 4 0 1 0 0 8 4 4 0 0 0 0-8m0 1a3 3 0 1 1 0 6 3 3 0 0 1 0-6m3.027-8.2a3.68 3.68 0 0 0-3.684 3.675v.616l-1.607-1.703-.613.743 2.233 2.227L89 10l.582-.743 2.064-2.227-.644-.642-1.707 1.703v-.616c0-1.45 1.279-2.625 2.732-2.625S94 5.37 94 6.82h1c0-2.1-1.117-2.98-2.973-3.019" class="ColorScheme-Text" transform="translate(-54)"/>
</g>
</svg>
