<svg xmlns="http://www.w3.org/2000/svg" id="svg2" width="32" height="32" version="1.1">
<style id="current-color-scheme" type="text/css">
.ColorScheme-Text{color:#fcfcfc}
</style>
<g id="system-search" transform="translate(-22)">
<path id="path66" fill="currentColor" d="M35 4a9 9 0 0 0-9 9 9 9 0 0 0 9 9 9 9 0 0 0 5.994-2.299L49.293 28l.707-.707-8.3-8.3A9 9 0 0 0 44 13a9 9 0 0 0-9-9m0 1a8 8 0 0 1 8 8 8 8 0 0 1-8 8 8 8 0 0 1-8-8 8 8 0 0 1 8-8" class="ColorScheme-Text"/>
<path id="path68" fill="none" d="M22 0v32h32V0Z"/>
</g>
</svg>
