<svg xmlns="http://www.w3.org/2000/svg" id="svg2" width="32" height="32" version="1.1">
<style id="current-color-scheme" type="text/css">
.ColorScheme-Text{color:#fcfcfc}
</style>
<g id="system-user-prompt" transform="translate(-22)">
<path id="path44-5" fill="none" d="M22 0v32h32V0Z"/>
<path id="path889" fill="currentColor" d="M37 10.75v1.5h5v-1.5zm-4 0v1.5h3v-1.5zm-6 0v1.5h5v-1.5zM26 9h24v5H26Zm-1-1v7h26V8Zm1 10h24v5H26Zm-1-1v7h26v-7zm3.5 2a1.5 1.5 0 1 0 0 3 1.5 1.5 0 0 0 0-3m4 0a1.5 1.5 0 1 0 0 3 1.5 1.5 0 0 0 0-3m4 0a1.5 1.5 0 1 0 0 3 1.5 1.5 0 0 0 0-3m4 0a1.5 1.5 0 1 0 0 3 1.5 1.5 0 0 0 0-3" class="ColorScheme-Text"/>
</g>
</svg>
