<svg xmlns="http://www.w3.org/2000/svg" id="svg2" width="32" height="32" version="1.1">
<style id="current-color-scheme" type="text/css">
.ColorScheme-Text{color:#fcfcfc}
</style>
<g id="system-users" transform="translate(-22)">
<path id="path92" fill="currentColor" d="M42.5 4A4.5 4.5 0 0 0 38 8.5a4.5 4.5 0 0 0 4.5 4.5A4.5 4.5 0 0 0 47 8.5 4.5 4.5 0 0 0 42.5 4m0 1A3.5 3.5 0 0 1 46 8.5a3.5 3.5 0 0 1-3.5 3.5A3.5 3.5 0 0 1 39 8.5 3.5 3.5 0 0 1 42.5 5m-9 4a4.5 4.5 0 1 0 0 9 4.5 4.5 0 0 0 0-9m0 1a3.5 3.5 0 0 1 3.5 3.5 3.5 3.5 0 0 1-3.5 3.5 3.5 3.5 0 0 1-3.5-3.5 3.5 3.5 0 0 1 3.5-3.5m9 4a7.1 7.1 0 0 0-2.586.5 6.5 6.5 0 0 1-.322 1.242A6.1 6.1 0 0 1 42.5 15c3.59 0 6.5 3.134 6.5 7h-8.342q.256.485.465 1H50v-1c0-4.418-3.358-8-7.5-8m-9 5c-4.142 0-7.5 3.582-7.5 8v1h15v-1c0-4.418-3.358-8-7.5-8m0 1c3.59 0 6.5 3.134 6.5 7H27c0-3.866 2.91-7 6.5-7" class="ColorScheme-Text"/>
<path id="path94" fill="none" d="M22 0v32h32V0Z"/>
</g>
</svg>
