<svg xmlns="http://www.w3.org/2000/svg" id="svg2" width="32" height="32" version="1.1">
<style id="current-color-scheme" type="text/css">
.ColorScheme-Text{color:#fcfcfc}
</style>
<g id="system-suspend-hibernate" transform="translate(-22)">
<path id="path1280" fill="currentColor" d="m31.79 69.242-.868.5 2.146 3.717-3.615-.969-.258.967 4.58 1.227L36.844 80h-6.137l-3.353-3.354-.708.708L29.293 80H25v1h4.293l-2.647 2.646.708.708L30.707 81h6.137l-3.069 5.316-4.58 1.227.258.967 3.615-.969-2.146 3.717.867.5 2.147-3.717.968 3.615.965-.26-1.226-4.58L38 81l3.357 5.816-1.226 4.58.965.26.968-3.615 2.147 3.717.867-.5-2.146-3.717 3.615.969.258-.967-4.58-1.227L39.156 81h6.137l3.353 3.354.708-.708L46.707 81H51v-1h-4.293l2.647-2.646-.708-.708L45.293 80H38v-.002l-3.357-5.814 1.226-4.58-.965-.26-.968 3.615z" class="ColorScheme-Text" transform="translate(0 -64)"/>
<path id="path64" fill="none" d="M22 0v32h32V0Z"/>
<g id="g47" fill="currentColor" class="ColorScheme-Text">
<path id="rect887-7" d="M45 4v1h2.293l-2 2-.293.293V8h4V7h-2.293l2-2L49 4.707V4h-.707z"/>
<path id="rect887-9" d="M42 10v1h2.293l-2 2-.293.293V14h4v-1h-2.293l2-2 .293-.293V10h-.707z"/>
<path id="rect887-2" d="M38 5v1h2.293l-2 2-.293.293V9h4V8h-2.293l2-2L42 5.707V5h-.707z"/>
</g>
</g>
</svg>
