<svg xmlns="http://www.w3.org/2000/svg" width="16" height="16">
<path fill="#fcfcfc" d="M5.48 10.488c1.14 0 1.836-.66 2.388-1.44.504.78 1.176 1.44 2.388 1.44 1.572 0 2.628-1.068 2.628-2.64 0-1.488-.972-2.472-2.376-2.472-1.104 0-1.8.624-2.352 1.356-.48-.732-1.14-1.356-2.352-1.356-1.596 0-2.688 1.056-2.688 2.64 0 1.476.972 2.472 2.364 2.472m-.804-2.58c0-.744.396-1.236 1.056-1.236.744 0 1.152.624 1.56 1.38-.42.636-.864 1.14-1.524 1.14-.672 0-1.092-.516-1.092-1.284m5.544-1.236c.648 0 1.104.492 1.104 1.32 0 .72-.36 1.2-1.02 1.2-.78 0-1.176-.672-1.572-1.452.408-.6.852-1.068 1.488-1.068" aria-label="∞"/>
<path fill="#fcfcfc" d="M2 0C.892 0 0 .892 0 2v12c0 1.108.892 2 2 2h12c1.108 0 2-.892 2-2V2c0-1.108-.892-2-2-2zm0 1h12c.554 0 1 .446 1 1v12c0 .554-.446 1-1 1H2c-.554 0-1-.446-1-1V2c0-.554.446-1 1-1" style="paint-order:stroke fill markers"/>
</svg>
