<svg xmlns="http://www.w3.org/2000/svg" viewBox="0 0 22 22">
<defs>
<style id="current-color-scheme" type="text/css">
.ColorScheme-Text{color:#fcfcfc}
</style>
</defs>
<path d="M17.267 4.2c-.822.015-1.588.34-5.174 1.832-1.263.526-3.767 1.606-7.496 3.23l-.006.003-.002.002-.03.011h.006c-.34.137-.634.276-.9.473-.274.203-.59.509-.656 1.031a1.5 1.5 0 0 0 .296 1.04c.21.256.432.382.631.478.398.193.77.281 1.149.404.69.225 1.496.507 2.291.524.654.014 1.255-.266 1.834-.639-.11.361-.152.833.04 1.2.215.414.536.68.93.94 1.088.717 1.73 1.181 2.88 1.935.31.204.635.469 1.053.714.417.246.983.474 1.629.414.45-.041.92-.32 1.209-.705s.454-.848.562-1.427c.432-2.307 1.267-7.2 1.473-9.358a2.7 2.7 0 0 0-.031-.772c-.03-.173-.137-.63-.54-.957-.49-.398-.846-.379-1.146-.373zm.02 1c.106-.002.345.025.5.15a.54.54 0 0 1 .183.348c.017.1.039.33.022.508-.194 2.038-1.034 6.985-1.461 9.268-.181.966-.537 1.29-.881 1.322-.749.069-1.318-.493-2.043-.969-1.135-.743-1.776-1.208-2.877-1.933-1.273-.84-.446-1.3.279-2.053.19-.197 3.487-3.197 3.55-3.47.009-.033.016-.16-.06-.228-.075-.067-.185-.043-.265-.025q-.171.039-5.438 3.594-.772.53-1.398.516c-.46-.01-1.346-.261-2.004-.475-.808-.263-1.449-.4-1.393-.846q.044-.348.959-.713 5.637-2.456 7.518-3.238c3.58-1.49 4.324-1.748 4.809-1.756" class="ColorScheme-Text" style="fill:currentColor"/>
</svg>
