<svg xmlns="http://www.w3.org/2000/svg" viewBox="0 0 22 22">
<defs>
<style id="current-color-scheme" type="text/css">
.ColorScheme-Text{color:#fcfcfc}.ColorScheme-Highlight{color:#3daee9}
</style>
</defs>
<path d="M17.268 4.2c-.822.014-1.587.34-5.174 1.831-1.263.526-3.769 1.608-7.498 3.233l-.006.002-.002.002-.029.011h.006c-.34.137-.635.275-.9.473-.274.203-.591.508-.657 1.031a1.5 1.5 0 0 0 .297 1.04c.21.256.432.381.631.478.398.192.77.28 1.148.404.691.225 1.497.506 2.291.523.654.015 1.255-.266 1.834-.638-.11.36-.152.832.04 1.199.216.414.538.681.933.941.705.465 1.23.827 1.82 1.227a4 4 0 0 1 .166-1.096c-.443-.302-.882-.6-1.437-.967-1.273-.838-.446-1.299.28-2.052.19-.197 3.486-3.199 3.55-3.47.008-.035.015-.162-.06-.23-.076-.066-.186-.043-.266-.025q-.17.04-5.438 3.596-.773.53-1.4.515c-.46-.01-1.346-.26-2.004-.474-.807-.263-1.448-.4-1.393-.846q.045-.348.96-.713 5.638-2.456 7.519-3.24c3.58-1.489 4.324-1.747 4.809-1.756.106-.002.345.025.5.15a.54.54 0 0 1 .183.348c.017.1.039.33.022.508-.124 1.296-.508 3.74-.881 5.955q.504.148.945.414c.387-2.273.795-4.853.93-6.273a2.7 2.7 0 0 0-.032-.772c-.03-.173-.136-.63-.539-.957-.49-.398-.846-.378-1.146-.373z" class="ColorScheme-Text" style="fill:currentColor"/>
<path d="M16 13a3 3 0 0 0-3 3 3 3 0 0 0 3 3 3 3 0 0 0 3-3 3 3 0 0 0-3-3" class="ColorScheme-Highlight" style="fill:currentColor"/>
</svg>
