<svg xmlns="http://www.w3.org/2000/svg" viewBox="0 0 22 22">
<style id="current-color-scheme" type="text/css">
.ColorScheme-Text{color:#fcfcfc}
</style>
<path fill="#3daee9" d="M10 14v5l2 1 2-1v-5z"/>
<path d="M12 2c-1.108 0-2 .892-2 2v10.766a3 3 0 1 0 4 .002V4c0-1.108-.892-2-2-2m0 1c.554 0 1 .446 1 1v11.264c.619.35 1 .996 1 1.695 0 1.081-.896 1.957-2 1.957s-2-.876-2-1.957c0-.7.38-1.347 1-1.697V4c0-.554.446-1 1-1M7 5v1h2V5zm0 3v1h2V8zm0 3v1h2v-1zm5 5a1 1 0 1 0 0 2 1 1 0 0 0 0-2" class="ColorScheme-Text" style="fill:currentColor;fill-opacity:1;stroke:none"/>
</svg>
