<svg xmlns="http://www.w3.org/2000/svg" width="16" height="16">
<path fill="#fcfcfc" d="M7.68.002a8.48 8.48 0 0 0-5.683 2.017.5.5 0 1 0 .648.762 7.493 7.493 0 0 1 9.948.212.5.5 0 1 0 .68-.733A8.48 8.48 0 0 0 7.681.002zM7.5 1.998A6.5 6.5 0 0 0 1 8.468v.069c0 1.284.237 2.558.699 3.756a.5.5 0 1 0 .933-.36 9.5 9.5 0 0 1-.633-3.426v-.009a5.5 5.5 0 0 1 5.5-5.5 5.5 5.5 0 0 1 5.5 5.5 1.5 1.5 0 0 1-1.5 1.5 1.5 1.5 0 0 1-1.5-1.5 2.5 2.5 0 0 0-2.5-2.5A2.5 2.5 0 0 0 5 8.468v.036c-.01 3.556 2.866 6.463 6.424 6.494a.5.5 0 1 0 .01-1 5.47 5.47 0 0 1-5.432-5.491v-.009a1.5 1.5 0 0 1 1.5-1.5 1.5 1.5 0 0 1 1.5 1.5 2.5 2.5 0 0 0 2.5 2.5 2.5 2.5 0 0 0 2.5-2.5 6.5 6.5 0 0 0-6.5-6.5zm0 2A4.5 4.5 0 0 0 3 8.467v.037a8.46 8.46 0 0 0 3.529 6.9.5.5 0 0 0 .329.097l.05-.006a.5.5 0 0 0 .204-.903A7.47 7.47 0 0 1 4 8.507v-.01a3.5 3.5 0 0 1 3.5-3.5 3.5 3.5 0 0 1 3.5 3.5.5.5 0 0 0 .5.5.5.5 0 0 0 .5-.5v-.046a4.5 4.5 0 0 0-4.498-4.453zm-.01 3.981a.5.5 0 0 0-.495.506v.066a4.506 4.506 0 0 0 4.457 4.447.5.5 0 1 0 .01-1 3.49 3.49 0 0 1-3.469-3.5v-.01a.5.5 0 0 0-.505-.508z" opacity=".35"/>
<rect width="20" height="1" x="1.514" y="-.7" fill="#fcfcfc" rx=".5" ry=".5" style="paint-order:markers stroke fill" transform="rotate(45)"/>
</svg>
