<svg xmlns="http://www.w3.org/2000/svg" id="svg7" version="1.1" viewBox="0 0 22 22">
<defs id="defs3">
<style id="current-color-scheme" type="text/css">
.ColorScheme-Text{color:#fcfcfc}
</style>
</defs>
<path id="path842" fill="currentColor" stroke-linecap="round" d="M11 3a8 8 0 0 0-8 8h1a7 7 0 0 1 7-7 7 7 0 0 1 7 7 7 7 0 0 1-.078 1h1.006A8 8 0 0 0 19 11a8 8 0 0 0-8-8m0 3-4 4h2v5h3v-2a1 1 0 0 1 1-1v-2h2zm-8 7v4h1v-2.195A8 8 0 0 0 11 19a8 8 0 0 0 1-.07v-1.008A7 7 0 0 1 11 18a7 7 0 0 1-6.31-4H7v-1zm10.5 0a.5.5 0 0 0-.5.5.5.5 0 0 0 .172.377v.002L15.293 16l-2.121 2.121v.002A.5.5 0 0 0 13 18.5a.5.5 0 0 0 .5.5.5.5 0 0 0 .377-.172h.002L16 16.707l2.121 2.121h.002A.5.5 0 0 0 18.5 19a.5.5 0 0 0 .5-.5.5.5 0 0 0-.172-.379L16.707 16l2.121-2.121v-.002A.5.5 0 0 0 19 13.5a.5.5 0 0 0-.5-.5.5.5 0 0 0-.377.172h-.002L16 15.293l-2.121-2.121A.5.5 0 0 0 13.5 13" class="ColorScheme-Text" style="paint-order:markers fill stroke"/>
</svg>
