<svg xmlns="http://www.w3.org/2000/svg" id="svg87" width="32" height="32" version="1.1">
<defs id="defs3">
<style id="current-color-scheme" type="text/css">
.ColorScheme-Text{color:#fcfcfc}.ColorScheme-Highlight{color:#5294e2}
</style>
</defs>
<g id="update-low" transform="translate(-22.015 -22)" class="ColorScheme-Text" style="fill:currentColor">
<path id="rect754" fill-opacity="0" stroke-linejoin="round" stroke-miterlimit="1.414" stroke-width=".795" d="M22.015 22h32v32h-32z" clip-rule="evenodd"/>
<path id="path756" d="M38 26c-6.627 0-12 5.373-12 12s5.373 12 12 12c1.476 0 2.89-.268 4.197-.756a5 5 0 0 1-.576-.857A11 11 0 0 1 38 49c-6.075 0-11-4.925-11-11s4.925-11 11-11 11 4.925 11 11c0 1.265-.216 2.478-.61 3.61a5 5 0 0 1 .854.587c.488-1.306.756-2.72.756-4.197 0-6.627-5.373-12-12-12m0 6a.5.5 0 0 0-.354.146l-4.242 4.243a.499.499 0 1 0 .707.707l3.389-3.389V43.5a.499.499 0 1 0 1 0v-9.793l3.389 3.389a.499.499 0 1 0 .707-.707l-4.242-4.243-.038-.033h-.002a.5.5 0 0 0-.265-.111h-.002z"/>
<circle id="circle1003" cx="46" cy="46" r="4" style="opacity:.35"/>
</g>
</svg>
