<svg xmlns="http://www.w3.org/2000/svg" width="16" height="16">
<g fill="#fcfcfc" transform="translate(-1253 307)">
<path d="M1255-306c-1.108 0-2 .892-2 2v8c0 1.108.892 2 2 2h1.522l2.478 3 2-3h6c1.108 0 2-.892 2-2v-8c0-1.108-.892-2-2-2zm0 1h12c.554 0 1 .446 1 1v8c0 .554-.446 1-1 1h-6.434l-1.566 2.4-1.966-2.4H1255c-.554 0-1-.446-1-1v-8c0-.554.446-1 1-1m-.699 11c.152.017.32.021.523 0z" opacity=".5"/>
<rect width="10" height="1" x="1256" y="-303" opacity=".5" rx=".25" ry=".25"/>
<rect width="7" height="1" x="1256" y="-301" opacity=".5" rx=".25" ry=".25"/>
</g>
</svg>
