<svg xmlns="http://www.w3.org/2000/svg" width="16" height="16">
<path fill="#fcfcfc" d="M2 1C.892 1 0 1.892 0 3v8c0 1.108.892 2 2 2h1.522L6 16l2-3h6c1.108 0 2-.892 2-2V3c0-1.108-.892-2-2-2zm0 1h12c.554 0 1 .446 1 1v8c0 .554-.446 1-1 1H7.566L6 14.4 4.033 12H2c-.554 0-1-.446-1-1V3c0-.554.446-1 1-1m6 2.5V6H4v2h4.002v1.5q1.14-.522 2.322-1.166 1.17-.646 2.258-1.334-1.087-.675-2.258-1.32A43 43 0 0 0 8 4.5M1.3 13c.153.017.322.021.524 0z" font-family="Ubuntu" font-size="15" font-weight="400" letter-spacing="0" style="line-height:125%;-inkscape-font-specification:Ubuntu;text-align:center" text-anchor="middle" word-spacing="0"/>
</svg>
