<svg xmlns="http://www.w3.org/2000/svg" width="16" height="16">
<path fill="#fcfcfc" d="M2 1C.892 1 0 1.892 0 3v8c0 1.108.892 2 2 2h1.522L6 16l2-3h6c1.108 0 2-.892 2-2V3c0-1.108-.892-2-2-2zm0 1h12c.554 0 1 .446 1 1v8c0 .554-.446 1-1 1H7.566L6 14.4 4.033 12H2c-.554 0-1-.446-1-1V3c0-.554.446-1 1-1m6 1C5.797 3 4 4.797 4 7s1.797 4 4 4 4-1.797 4-4-1.797-4-4-4M5.5 6h5c.277 0 .5.223.5.5v1c0 .277-.223.5-.5.5h-5a.5.5 0 0 1-.5-.5v-1c0-.277.223-.5.5-.5m-4.2 7c.153.017.322.021.524 0z" font-family="Ubuntu" font-size="15" font-weight="400" letter-spacing="0" text-anchor="middle" word-spacing="0"/>
</svg>
