<svg xmlns="http://www.w3.org/2000/svg" width="22" height="22">
<path d="M11 3a4 4 0 0 0-4 4 4 4 0 0 0 4 4 4 4 0 0 0 4-4 4 4 0 0 0-4-4m0 1a3 3 0 0 1 3 3 3 3 0 0 1-3 3 3 3 0 0 1-3-3 3 3 0 0 1 3-3m0 8a8 8 0 0 0-7.928 7H4.08A7 7 0 0 1 11 13a7 7 0 0 1 1 .08v-1.01a8 8 0 0 0-1-.07m4.5 0a3.5 3.5 0 0 0-3.5 3.5 3.5 3.5 0 0 0 3.5 3.5 3.5 3.5 0 0 0 3.5-3.5 3.5 3.5 0 0 0-3.5-3.5" style="opacity:1;fill:#9b59b6;fill-opacity:1;stroke:none"/>
<path d="M541.79-435.214a.5.5 0 0 1-.5.5.5.5 0 0 1-.5-.5.5.5 0 0 1 .5-.5.5.5 0 0 1 .5.5" style="opacity:.7;fill:#fff;fill-opacity:1;stroke:none" transform="rotate(90 52.038 -473.752)"/>
<path d="M437.714 541.29a.5.5 0 0 1-.5.5.5.5 0 0 1-.5-.5.5.5 0 0 1 .5-.5.5.5 0 0 1 .5.5" style="opacity:.4;fill:#fff;fill-opacity:1;stroke:none" transform="translate(-421.714 -525.79)"/>
<path d="M439.714 541.29a.5.5 0 0 1-.5.5.5.5 0 0 1-.5-.5.5.5 0 0 1 .5-.5.5.5 0 0 1 .5.5" style="opacity:.3;fill:#fff;fill-opacity:1;stroke:none" transform="translate(-421.714 -525.79)"/>
</svg>
