<svg xmlns="http://www.w3.org/2000/svg" viewBox="0 0 22 22">
<defs id="defs3051">
<style id="current-color-scheme" type="text/css">
.ColorScheme-Text{color:#fcfcfc}
</style>
</defs>
<path d="M18.768 14.014A2 2 0 0 0 17 16h1a1 1 0 0 1 1-1c.507 0 .935.395.994.898-.018 1.18-.896 1.237-1.992 1.323L18 19.014h1V18h.232A2 2 0 0 0 21 16.104c-.01-.106-.008-.196-.014-.32a2 2 0 0 0-1.896-1.768zM18.002 20v1h1v-1z" style="fill:#fdbc4b;fill-opacity:1;stroke:none"/>
<path d="M2 2v18h1v-3h4v1h8v-1h1v-1H3V5h16v8h1V4H3V2zm10.5 4a3.5 3.5 0 0 0-3.158 2H6v7h7v-2.041A3.5 3.5 0 0 0 16 9.5 3.5 3.5 0 0 0 12.5 6m-.064 1h.064A2.5 2.5 0 0 1 15 9.5a2.5 2.5 0 0 1-2 2.445V8h-2.496a2.5 2.5 0 0 1 1.932-1M7 9h2.04a3.5 3.5 0 0 0-.04.5 3.5 3.5 0 0 0 3 3.46V14H7zm3.05 0H12v2.95a2.5 2.5 0 0 1-2-2.45 2.5 2.5 0 0 1 .05-.5" class="ColorScheme-Text" style="fill:currentColor"/>
</svg>
