<svg xmlns="http://www.w3.org/2000/svg" width="16" height="16">
<path fill="#fdc92b" fill-rule="evenodd" d="M12.48 9.729a.44.44 0 0 0-.36.22l-3.061 5.397a.437.437 0 0 0 .379.654h6.125a.437.437 0 0 0 .378-.654l-3.058-5.397a.44.44 0 0 0-.402-.22zM12 11h1v.168q0 .522-.047.957c-.047.435-.069.581-.115.875h-.666a13 13 0 0 1-.125-.875 9 9 0 0 1-.047-.957zm.5 3a.5.5 0 1 1 0 1 .5.5 0 0 1 0-1" class="warning" color="#000" font-family="sans-serif" font-weight="400" overflow="visible" style="isolation:auto;mix-blend-mode:normal;text-decoration-color:#000;text-decoration-line:none;text-decoration-style:solid;text-indent:0;text-transform:none;white-space:normal"/>
<path fill="#fcfcfc" d="M8 1.334 4.5 5H1.871S1 5.894 1 8.002 1.871 11 1.871 11H4.5L8 14.666zm4.644 1.47-.706.708.353.353a6 6 0 0 1 1.758 4.242c0 .516-.073 1.023-.201 1.514l.664 1.172a6.99 6.99 0 0 0-1.514-7.635zm-2.12 2.122-.708.707.354.353a3 3 0 0 1 0 4.243l-.354.353.508.508.928-1.637V9.45c.165-.287.424-.494.725-.611.045-.24.072-.483.072-.73a4 4 0 0 0-1.172-2.829z"/>
</svg>
