<svg xmlns="http://www.w3.org/2000/svg" width="22" height="22">
<style id="current-color-scheme" type="text/css">
.ColorScheme-Text{color:#fcfcfc}
</style>
<g id="wallet-open">
<path id="rect4188" d="M3 3v4H2v11c0 .554.446 1 1 1h17V8c0-.554-.446-1-1-1h-5V3zm1 1h9v3h-2.508A2.5 2.5 0 0 0 8.5 6a2.5 2.5 0 0 0-1.998 1H4ZM3 8h16v3h-7c-1.108 0-2 .892-2 2s.892 2 2 2h7v3H3zm10 4a1 1 0 1 1 0 2 1 1 0 0 1 0-2" class="ColorScheme-Text" style="opacity:1;fill:currentColor;fill-opacity:1;stroke:none"/>
<path id="rect4216" d="M0 0h22v22H0z" style="opacity:1;fill:none;fill-opacity:1;stroke:none"/>
</g>
</svg>
