<svg xmlns="http://www.w3.org/2000/svg" width="22" height="22">
<style id="current-color-scheme" type="text/css">
.ColorScheme-Text{color:#fcfcfc}
</style>
<g id="wallet-closed" transform="translate(-22)">
<path id="path4200" d="M24 7v11c0 .554.446 1 1 1h17V8c0-.554-.446-1-1-1H25Zm1 1h16v3h-7c-1.108 0-2 .892-2 2s.892 2 2 2h7v3H25zm10 4a1 1 0 1 1 0 2 1 1 0 0 1 0-2" class="ColorScheme-Text" style="opacity:1;fill:currentColor;fill-opacity:1;stroke:none"/>
<path id="rect4222" d="M22 0h22v22H22z" style="opacity:1;fill:none;fill-opacity:1;stroke:none"/>
</g>
</svg>
