<svg xmlns="http://www.w3.org/2000/svg" width="16" height="16">
<path fill="#fcfcfc" d="M7.5 0v2h1V0zM4.434.822l-.868.5 1.002 1.733.866-.5zm7.132 0-1 1.733.868.5 1-1.733zM8 3a5 5 0 0 0-4.982 5.336 5 5 0 0 1 .988-.473A4 4 0 0 1 8 4a4 4 0 0 1 2.576.941 5.8 5.8 0 0 1 1.777.606A5 5 0 0 0 8 3m-6.678.566-.5.868 1.733 1 .5-.868zm13.355 0-1.732 1 .5.868 1.732-1zM0 7.5v1h2v-1zm14.543 0q.322.47.553 1H16v-1z"/>
<path fill="#fcfcfc" d="M9.64 5.861c-1.852.003-3.492 1.07-4.377 2.678-1.055.13-1.912.587-2.46 1.264-.588.727-.854 1.65-.825 2.554.029.906.354 1.806.988 2.495C3.6 15.54 4.55 15.994 5.722 16h7.183c1.557-.004 2.67-1.07 3-2.313.305-1.147-.131-2.445-1.25-3.255-.26-2.575-2.41-4.57-5.015-4.57m0 1h.002a4.063 4.063 0 0 1 4.058 3.797l.018.268.232.133c.967.555 1.217 1.512.989 2.373-.229.86-.92 1.565-2.036 1.568h-7.18c-.923-.005-1.569-.335-2.02-.826-.453-.491-.703-1.164-.725-1.85s.183-1.373.603-1.892c.42-.52 1.046-.89 1.97-.954l.29-.019.127-.266A4.07 4.07 0 0 1 9.64 6.861z" color="#000" style="font-feature-settings:normal;font-variant-alternates:normal;font-variant-caps:normal;font-variant-ligatures:normal;font-variant-numeric:normal;font-variant-position:normal;isolation:auto;mix-blend-mode:normal;shape-padding:0;text-decoration-color:#000;text-decoration-line:none;text-decoration-style:solid;text-indent:0;text-orientation:mixed;text-transform:none;white-space:normal"/>
</svg>
