<svg xmlns="http://www.w3.org/2000/svg" width="16.001" height="16">
<path fill="#fcfcfc" d="M8.64.668C6.482.67 4.648 1.999 3.772 3.9l-.061.13-.139.01C1.578 4.184 0 5.91 0 8.008 0 10.201 1.716 12 3.838 12H6v-1H3.838C2.281 11 1 9.679 1 8.008c0-1.597 1.184-2.866 2.644-2.973l.723-.05.31-.663v-.004c.729-1.58 2.213-2.649 3.961-2.65 2.368.002 4.292 1.952 4.405 4.447v.01l.05.776.704.296a1.94 1.94 0 0 1 1.195 1.815c.01 1.114-.846 1.988-1.871 1.988H9.998v1h3.123c1.591 0 2.877-1.35 2.877-2.988a2.96 2.96 0 0 0-1.805-2.735l-.136-.058-.01-.149C13.911 3.077 11.56.67 8.642.668z" font-family="sans-serif" font-weight="400" overflow="visible" style="text-decoration-line:none;text-indent:0;text-transform:none"/>
<path fill="#f55" d="M7.291 6v2.662q.001 1.19.086 2.168.085.963.213 1.926h.82q.128-.963.213-1.926.086-.977.086-2.168V6zm.71 8.102q-.44 0-.694.283a.97.97 0 0 0-.256.666q0 .383.256.666Q7.561 16 8 16q.44 0 .694-.283a.97.97 0 0 0 .255-.666.97.97 0 0 0-.255-.666q-.255-.284-.694-.283z" class="error" font-family="sans-serif" font-weight="400" overflow="visible" style="font-feature-settings:normal;font-variant-alternates:normal;font-variant-caps:normal;font-variant-ligatures:none;font-variant-numeric:normal;font-variant-position:normal;isolation:auto;mix-blend-mode:normal;shape-padding:0;text-decoration-color:#000;text-decoration-line:none;text-decoration-style:solid;text-indent:0;text-transform:none"/>
</svg>
