<svg xmlns="http://www.w3.org/2000/svg" width="16" height="16.001">
<path fill="#fcfcfc" d="M12.266 10.772a.5.5 0 0 0-.192-.68l-.687-.396.2-.053a.5.5 0 1 0-.258-.965l-1.167.311-1.67-.964 1.669-.964 1.165.313a.5.5 0 1 0 .26-.964l-.204-.054.69-.398a.5.5 0 0 0 .205-.214c.223-.447-.275-.91-.704-.652l-.687.397.052-.2c.213-.666-.815-.942-.965-.26l-.312 1.166-1.67.964V5.182l.854-.853a.5.5 0 0 0 .09-.12c.282-.51-.391-1.008-.797-.588l-.147.146v-.793c.029-.695-1.029-.694-1 0v.794l-.146-.148c-.472-.472-1.18.236-.708.708l.855.852v1.978L5.147 6.094l-.313-1.166c-.164-.658-1.153-.393-.966.26l.054.199-.51-.295c-.578-.333-1.078.533-.5.866l.51.295-.2.054c-.659.164-.394 1.153.258.966l1.167-.313 1.844 1.065L4.647 9.09 3.48 8.777c-.66-.2-.93.811-.257.966l.2.054-.513.296c-.616.321-.088 1.238.5.865l.513-.296-.055.201c-.162.569.624.899.916.384a.5.5 0 0 0 .05-.124l.314-1.168 1.845-1.066-.001 2.08-.854.853c-.505.47.234 1.212.706.708l.148-.147v.59a.5.5 0 1 0 1 0l-.002-.59.147.147a.5.5 0 1 0 .708-.708l-.854-.853V8.89l1.67.964.313 1.166c.164.659 1.153.394.966-.258l-.054-.201.687.396a.5.5 0 0 0 .692-.187z"/>
</svg>
