<svg xmlns="http://www.w3.org/2000/svg" width="16" height="16">
<path fill="#fcfcfc" d="M8.297.246a5.72 5.72 0 0 1 1.195 4.625c.05-.001.097-.01.147-.01h.002c.291 0 .577.028.857.069a6.7 6.7 0 0 0-.033-2.227 5.46 5.46 0 0 1 1.394 2.6c.395.16.76.37 1.108.61A6.5 6.5 0 0 0 8.299.245zM.248 8.293a6.5 6.5 0 0 0 1.076 2.135 4.6 4.6 0 0 1 .649-1.17 5.7 5.7 0 0 1-1.725-.965" color="#000"/>
<path fill="#fcfcfc" d="M9.64 5.861c-1.852.003-3.492 1.07-4.377 2.678-1.055.13-1.912.587-2.46 1.264-.588.727-.854 1.65-.825 2.554.029.906.354 1.806.988 2.495C3.6 15.54 4.55 15.994 5.722 16h7.183c1.557-.004 2.67-1.07 3-2.313.305-1.147-.131-2.445-1.25-3.255-.26-2.575-2.41-4.57-5.015-4.57m0 1h.002a4.063 4.063 0 0 1 4.058 3.797l.018.268.232.133c.967.555 1.217 1.512.989 2.373-.229.86-.92 1.565-2.036 1.568H5.724c-.924-.005-1.57-.335-2.022-.826S3 13.01 2.978 12.324s.183-1.373.603-1.892c.42-.52 1.046-.89 1.969-.954l.291-.019.127-.266A4.07 4.07 0 0 1 9.64 6.861z" color="#000" style="font-feature-settings:normal;font-variant-alternates:normal;font-variant-caps:normal;font-variant-ligatures:normal;font-variant-numeric:normal;font-variant-position:normal;isolation:auto;mix-blend-mode:normal;shape-padding:0;text-decoration-color:#000;text-decoration-line:none;text-decoration-style:solid;text-indent:0;text-orientation:mixed;text-transform:none;white-space:normal"/>
</svg>
