<svg xmlns="http://www.w3.org/2000/svg" width="16" height="16">
<g fill="#fcfcfc" color="#000">
<path d="M8.56.084C6.672.085 5.068 1.249 4.301 2.912l-.055.113-.121.01C2.38 3.162 1 4.672 1 6.508 1 8.427 2.5 10 4.357 10h8.125C13.874 10 15 8.818 15 7.385c0-1.087-.653-2-1.578-2.393l-.121-.05-.01-.13C13.172 2.194 11.115.086 8.562.084zm0 1c2.004.001 3.635 1.652 3.731 3.773v.016l.06.748.677.291v.002c.57.242.973.785.973 1.47 0 .91-.692 1.616-1.518 1.616H4.36C3.069 9 2 7.905 2 6.508c0-1.334.988-2.388 2.198-2.477l.705-.049.305-.648v-.002c.618-1.343 1.872-2.247 3.351-2.248z" font-weight="400" overflow="visible" style="text-decoration-line:none;text-indent:0;text-transform:none"/>
<path d="M8.003 16a1.5 1.5 0 0 1-1.424-1.972c0-.015.01-.03.014-.045.038-.127.598-1.965 1.412-3.614v.002a28 28 0 0 1 1.42 3.657A1.5 1.5 0 0 1 8 16zM12 14a1 1 0 0 1-.95-1.314c0-.01.01-.02.01-.03.025-.085.4-1.31.941-2.41v.001c.58 1.201.948 2.438.948 2.438a1 1 0 0 1-.95 1.314zm-8 0a1 1 0 0 1-.95-1.314c0-.01.01-.02.01-.03.025-.085.4-1.31.941-2.41v.001a18.5 18.5 0 0 1 .948 2.439A1 1 0 0 1 3.999 14z" overflow="visible"/>
</g>
<path fill="#fcfcfc" d="m6.9 3.612-.688.138v.85l-.796-.46-.344.597.795.46-.795.458.344.597.796-.46v.919H6.9v-.919l.796.46.344-.597-.795-.459.795-.46-.344-.596-.796.46zm3.671 1.412-.79.158v.975l-.914-.527-.395.685.913.527-.913.527.395.685.914-.528V8.58h.79V7.526l.913.528.396-.685-.914-.527.914-.527-.396-.685-.913.527z" overflow="visible"/>
</svg>
