<svg xmlns="http://www.w3.org/2000/svg" width="16" height="16">
<path fill="#fafafa" d="M53 4a2.5 2.5 0 0 0-2.164 1.254A1.5 1.5 0 0 0 50 5a1.5 1.5 0 0 0-1.5 1.5 1.5 1.5 0 0 0 .102.543A2 2 0 0 0 47 9a2 2 0 0 0 2 2h6a2 2 0 0 0 2-2 2 2 0 0 0-1.564-1.951A2.5 2.5 0 0 0 55.5 6.5 2.5 2.5 0 0 0 53 4" opacity=".6" style="paint-order:normal"/>
<g fill="#fcfcfc">
<path d="M9.399 6.918c-1.349.002-2.494.832-3.041 2.02l-.04.08-.085.008C4.986 9.116 4 10.194 4 11.506 4 12.876 5.072 14 6.4 14h5.8c.995 0 1.8-.843 1.8-1.867a1.85 1.85 0 0 0-1.13-1.71l-.086-.036-.01-.092C12.69 8.425 11.223 6.92 9.4 6.918zm0 1c1.272.002 2.316 1.05 2.378 2.422v.031l.076.705.627.268c.305.13.52.413.52.789 0 .5-.37.867-.799.867H6.398C5.638 13 5 12.355 5 11.506c0-.81.591-1.432 1.303-1.485l.672-.046.289-.616v-.004c.399-.866 1.193-1.435 2.13-1.437z" color="#000" font-family="sans-serif" font-weight="400" overflow="visible" style="text-decoration-line:none;text-indent:0;text-transform:none"/>
<path d="M9.498 1a3.5 3.5 0 0 0-3.164 2.018 4 4 0 0 0-.309-.016l.09.393.63.148a1 1 0 0 1 .364.172l.13-.274A2.5 2.5 0 0 1 9.497 2a2.485 2.485 0 0 1 2.498 2.498V4.5a2.3 2.3 0 0 1-.033.379l-.16.969.964.18a1.49 1.49 0 0 1 1.23 1.472c0 .84-.66 1.5-1.5 1.5h-.498v1h.5a2.5 2.5 0 0 0 .453-4.957q.044-.27.047-.543A3.5 3.5 0 0 0 9.5 1zM2.775 5.152a3.5 3.5 0 0 0-.244.907A2 2 0 0 0 3.001 10h.268a3.5 3.25 0 0 1 .711-1h-.982c-.564 0-1-.436-1-1a.99.99 0 0 1 .766-.97l.67-.163.087-.683a2.5 2.5 0 0 1 .168-.637l-.388-.086a1 1 0 0 1-.526-.309"/>
</g>
<path fill="#fcfcfc" d="m2.504 1.5.183.816.829.196-.83.168-.16.82-.19-.83-.82-.182.816-.162zM5 3l.277 1.225 1.239.29-1.244.255L5.032 6l-.286-1.244-1.23-.272 1.224-.246z" color="#000" style="font-feature-settings:normal;font-variant-alternates:normal;font-variant-caps:normal;font-variant-east-asian:normal;font-variant-ligatures:normal;font-variant-numeric:normal;font-variant-position:normal;font-variation-settings:normal;inline-size:0;isolation:auto;mix-blend-mode:normal;paint-order:normal;shape-margin:0;shape-padding:0;text-decoration-color:#000;text-decoration-line:none;text-decoration-style:solid;text-indent:0;text-orientation:mixed;text-transform:none;white-space:normal"/>
</svg>
