<svg xmlns="http://www.w3.org/2000/svg" width="16" height="16">
<g fill="currentColor">
<style id="current-color-scheme" type="text/css">
.ColorScheme-Text{color:#fcfcfc}
</style>
<path d="M2.934 0C1.308 0 0 1.332 0 2.986v10.027C0 14.667 1.308 16 2.934 16h.132C4.692 16 6 14.667 6 13.013V2.986C6 1.332 4.692 0 3.066 0zM3 1c1.108 0 2 .892 2 2v10c0 1.108-.892 2-2 2s-2-.892-2-2V3c0-1.108.892-2 2-2" class="ColorScheme-Text" style="fill:currentColor"/>
<path d="M5.408-.002c.878.713 1.469 1.792 1.469 3v1h2.125c-.074-1.093 1.249-2 2-2 .68 0 1 .011 1 1v1h1.219c1.228-.6 1.78-1.97 1.78-2.688 0-.736-2.385-1.312-3.687-1.312zm1.594 5v4.313c2.766 2.661 6.125 2.406 6.125 2.406s.353-1.52-1.906-4.031L8.846 4.998H7.064c-.02.002-.04-.002-.062 0M9.977 7.53l1.683 1.737c-1.799.165-2.15-.856-1.683-1.737" class="ColorScheme-Text" style="fill:currentColor"/>
</g>
</svg>
