<svg xmlns="http://www.w3.org/2000/svg" viewBox="0 0 16 16">
<path fill="#fcfcfc" fill-rule="evenodd" d="m5.538-3.214 7.917 7.239-.404 1.041.932.362 1.086-2.797-.932-.361-.293.755-2.376-2.17 1.554-4.003h3.218l-.294.756.932.362 1.086-2.796-.932-.362-.404 1.041L5.9-4.146zm1.554.067h4.857L10.676.13z" style="paint-order:stroke fill markers" transform="rotate(68.785)"/>
<path fill="#fcfcfc" fill-rule="evenodd" d="M10 0 7.76 5.772l.535 1.378.059-.15h4.293l1.164 3H13v1h3v-1h-1.118L11 0zm.5 1.473L12.258 6H8.742z" style="paint-order:stroke fill markers"/>
</svg>
