<svg xmlns="http://www.w3.org/2000/svg" width="16" height="16">
<style id="current-color-scheme" type="text/css">
.ColorScheme-Text{color:#fcfcfc}
</style>
<path d="M2 2c-.554 0-1 .446-1 1v11c0 .554.446 1 1 1h11c.554 0 1-.446 1-1V8H8V2zm0 1h5v5H2zm0 6h5v5H2zm6 0h5v5H8z" class="ColorScheme-Text" style="fill:currentColor"/>
<path d="M11.718 1.252a.856.856 0 0 0-1.213 0l-3.03 3.03a.856.856 0 0 0 0 1.213l3.03 3.03a.856.856 0 0 0 1.213 0l3.03-3.03a.856.856 0 0 0 0-1.213zm-.606.808 2.828 2.828-2.828 2.829-2.829-2.829z" class="ColorScheme-Text" style="fill:currentColor"/>
</svg>
