<svg xmlns="http://www.w3.org/2000/svg" width="16" height="16">
<style id="current-color-scheme" type="text/css">
.ColorScheme-Text{color:#fcfcfc}
</style>
<path stroke-linecap="round" stroke-linejoin="round" stroke-width="2" d="M8 0q1.102 0 2.125.29 1.023.28 1.914.804.89.515 1.617 1.25.735.726 1.25 1.617.524.89.805 1.914.29 1.023.29 2.125t-.29 2.125q-.281 1.023-.805 1.914-.515.89-1.25 1.625-.726.727-1.617 1.25-.89.516-1.914.805Q9.102 16 8 16q-.414 0-.781-.156-.36-.164-.633-.43-.266-.273-.43-.633Q6 14.414 6 14.001q0-.384.07-.665.078-.289.188-.523t.242-.438.242-.406q.11-.211.18-.438.078-.234.078-.53 0-.407-.164-.774-.156-.368-.43-.633-.265-.274-.633-.43Q5.406 9 5 9q-.297 0-.531.078-.227.07-.438.18-.203.11-.406.242t-.437.242-.524.188Q2.375 10 2 10q-.414 0-.781-.156-.36-.164-.633-.43-.266-.273-.43-.633Q0 8.414 0 8.001q0-1.103.281-2.126.29-1.023.805-1.914.523-.89 1.25-1.617.734-.735 1.625-1.25Q4.85.57 5.867.289 6.891 0 8 0m0 15q.96 0 1.852-.25.898-.25 1.671-.703.782-.461 1.422-1.102t1.094-1.414q.461-.781.711-1.672Q15 8.961 15 8t-.25-1.85q-.25-.9-.71-1.673-.454-.78-1.095-1.422t-1.422-1.093q-.773-.462-1.67-.712Q8.96 1 8 1t-1.86.25q-.89.25-1.671.71-.774.454-1.414 1.094T1.953 4.476Q1.5 5.25 1.25 6.148 1 7.038 1 8q0 .21.078.39t.21.32q.142.134.321.212T2 9q.298 0 .524-.07.235-.079.438-.188.21-.11.406-.242.203-.133.43-.242.234-.11.523-.18Q4.61 8 5 8q.625 0 1.172.234t.953.64.64.954T8 11q0 .383-.078.68-.07.289-.18.523-.11.227-.242.43-.133.195-.242.406-.11.203-.188.437Q7 13.703 7 14q0 .21.078.39t.211.32q.14.134.32.212T8 15M4 5q.21 0 .39.078t.313.219q.14.133.219.312T5 6t-.078.39-.219.32q-.133.134-.312.212T4 7t-.39-.078-.32-.211q-.134-.14-.212-.32T3 6t.078-.39.211-.313q.14-.14.32-.219T4 5m3-2q.21 0 .39.078t.313.219q.14.133.219.312T8 4t-.078.39-.219.32q-.133.134-.312.212T7 5t-.39-.078-.32-.211q-.134-.14-.212-.32T6 4t.078-.39.211-.313q.14-.14.32-.219T7 3m4 3q-.21 0-.39-.078t-.32-.211q-.134-.14-.212-.32T10 5t.078-.39.211-.313q.14-.14.32-.219T11 4t.39.078.313.219q.14.133.219.312T12 5t-.078.39-.219.32q-.133.134-.312.212Q11.21 6 11 6m1 2q.21 0 .39.078t.313.219q.14.133.219.312T13 9t-.078.39-.219.32q-.133.134-.312.212Q12.21 10 12 10t-.39-.078-.32-.211q-.134-.14-.212-.32T11 9t.078-.39.211-.313q.14-.14.32-.219T12 8m-2 3q.21 0 .39.078t.313.219q.14.133.219.312.078.18.078.391 0 .21-.078.39t-.219.32q-.133.134-.312.212Q10.21 13 10 13t-.39-.078-.32-.211q-.134-.14-.212-.32T9 12t.078-.39.211-.313q.14-.14.32-.219T10 11" class="ColorScheme-Text" style="fill:currentColor"/>
</svg>
