<svg xmlns="http://www.w3.org/2000/svg" width="16" height="16">
<style id="current-color-scheme" type="text/css">
.ColorScheme-Text{color:#fcfcfc}
</style>
<path d="M11.02.537a1 1 0 0 0-.59.193A3.5 3.5 0 0 0 9 3.553c.002 1.326.867 2.353 2 2.943v1.18a7 7 0 0 1 1 .58V6a2.5 2.5 0 0 1-.978-4.463c-.004.036-.022.068-.022.106v2c0 .554.446 1 1 1h1c.554 0 1-.446 1-1v-2c0-.038-.017-.07-.021-.106A2.5 2.5 0 0 1 13 6.002v3.1a7 7 0 0 1 1 1.294v-3.9c1.134-.59 2-1.617 2-2.943A3.5 3.5 0 0 0 14.57.73a1 1 0 0 0-1.585.916c.013.117.014.148.016.168v1.828h-1V1.814c.001-.02.002-.051.015-.168A1 1 0 0 0 11.02.537M8 8a6 6 0 0 0-6 6H0v1h16v-1h-2a6 6 0 0 0-6-6m0 1a5 5 0 0 1 5 5h-1a4 4 0 0 0-4-4h-.06A4 4 0 0 0 4 14H3a5 5 0 0 1 5-5m-.052 2H8a3 3 0 0 1 3 3H5a3 3 0 0 1 2.948-3" class="ColorScheme-Text" style="fill:currentColor"/>
</svg>
