<svg xmlns="http://www.w3.org/2000/svg" width="16" height="16">
<style id="current-color-scheme" type="text/css">
.ColorScheme-Text{color:#fcfcfc}
</style>
<path d="m8.229 1.084-4.006 3A.5.5 0 0 0 4.5 5H5v2H1.5c-.277 0-.5.223-.5.5v6c0 .277.223.5.5.5h5c.277 0 .5-.223.5-.5V11s0-1 1-1h1c1 0 1 1 1 1v2.5c0 .277.223.5.5.5h5c.277 0 .5-.223.5-.5v-6c0-.277-.223-.5-.5-.5H12V5h.5a.5.5 0 0 0 .277-.916l-3.994-3a.5.5 0 0 0-.555 0zM6.25 5h.5a.25.25 0 0 1 .25.25v1.5a.25.25 0 0 1-.25.25h-.5A.25.25 0 0 1 6 6.75v-1.5A.25.25 0 0 1 6.25 5m2 0h.5a.25.25 0 0 1 .25.25v1.5a.25.25 0 0 1-.25.25h-.5A.25.25 0 0 1 8 6.75v-1.5A.25.25 0 0 1 8.25 5m2 0h.5a.25.25 0 0 1 .25.25v1.5a.25.25 0 0 1-.25.25h-.5a.25.25 0 0 1-.25-.25v-1.5a.25.25 0 0 1 .25-.25m-8 3h.5a.25.25 0 0 1 .25.25v1.5a.25.25 0 0 1-.25.25h-.5A.25.25 0 0 1 2 9.75v-1.5A.25.25 0 0 1 2.25 8m2 0h.5a.25.25 0 0 1 .25.25v1.5a.25.25 0 0 1-.25.25h-.5A.25.25 0 0 1 4 9.75v-1.5A.25.25 0 0 1 4.25 8m8 0h.5a.25.25 0 0 1 .25.25v1.5a.25.25 0 0 1-.25.25h-.5a.25.25 0 0 1-.25-.25v-1.5a.25.25 0 0 1 .25-.25m2 0h.5a.25.25 0 0 1 .25.25v1.5a.25.25 0 0 1-.25.25h-.5a.25.25 0 0 1-.25-.25v-1.5a.25.25 0 0 1 .25-.25m-12 3h.5a.25.25 0 0 1 .25.25v1.5a.25.25 0 0 1-.25.25h-.5a.25.25 0 0 1-.25-.25v-1.5a.25.25 0 0 1 .25-.25m2 0h.5a.25.25 0 0 1 .25.25v1.5a.25.25 0 0 1-.25.25h-.5a.25.25 0 0 1-.25-.25v-1.5a.25.25 0 0 1 .25-.25m8 0h.5a.25.25 0 0 1 .25.25v1.5a.25.25 0 0 1-.25.25h-.5a.25.25 0 0 1-.25-.25v-1.5a.25.25 0 0 1 .25-.25m2 0h.5a.25.25 0 0 1 .25.25v1.5a.25.25 0 0 1-.25.25h-.5a.25.25 0 0 1-.25-.25v-1.5a.25.25 0 0 1 .25-.25" class="ColorScheme-Text" style="fill:currentColor;fill-opacity:.7"/>
</svg>
