<svg xmlns="http://www.w3.org/2000/svg" viewBox="0 0 16 16">
<path fill="#fcfcfc" fill-rule="evenodd" d="M4 0v2c-1.108 0-2 .892-2 2H0v1h2v1H0v1h2v2H0v1h2v1H0v1h2c0 1.108.892 2 2 2v2h1v-2h1v2h1v-2h2v2h1v-2h1v2h1v-2c1.108 0 2-.892 2-2h2v-1h-2v-1h2V9h-2V7h2V6h-2V5h2V4h-2c0-1.108-.892-2-2-2V0h-1v2h-1V0H9v2H7V0H6v2H5V0zm0 3h8c.554 0 1 .446 1 1v8c0 .554-.446 1-1 1H4c-.554 0-1-.446-1-1V4c0-.554.446-1 1-1m1 2v6h6V5zm1 1h1v1h1V6h1v1h1v1H9v1h1v1H9V9H8v1H7V9H6V8h1V7H6zm1 2v1h1V8zm1 0h1V7H8z" style="paint-order:stroke fill markers"/>
</svg>
