<svg xmlns="http://www.w3.org/2000/svg" viewBox="0 0 16 16">
<path fill="#fcfcfc" d="M4.5.875c-1.15 0-2.307.444-3.182 1.318a4.515 4.515 0 0 0 0 6.364L8 15.574l6.682-7.017a4.515 4.515 0 0 0 0-6.364 4.515 4.515 0 0 0-6.364 0c-.138.139-.202.325-.32.479-.118-.154-.176-.338-.316-.479A4.5 4.5 0 0 0 4.5.875m0 1a3.494 3.494 0 0 1 3.498 3.5h.004a3.5 3.5 0 1 1 5.973 2.475L8 14.125 2.025 7.85A3.5 3.5 0 0 1 4.5 1.875" color="#000"/>
<path fill="#fcfcfc" d="M6.09 3.879 2.57 9.742l.86.516 2.48-4.135 1.979 4.945 2.048-3.074.754 1.506H13l1-1h-2.691l-1.247-2.494-1.95 2.926z" color="#000" style="-inkscape-stroke:none"/>
</svg>
