<svg xmlns="http://www.w3.org/2000/svg" width="16" height="16">
<style id="current-color-scheme" type="text/css">
.ColorScheme-Text{color:#fcfcfc}
</style>
<path d="M6.88-.033C5.362.04 3.675 1.186 2.095 3.39a.5.5 0 0 0 .635.736s1.093-.542 2.095-.645c.501-.05.94.015 1.22.215.279.2.501.552.501 1.381V8H6c-.554 0-1 .446-1 1v5c0 .554.446 1 1 1h4c.554 0 1-.446 1-1V9c0-.554-.446-1-1-1h-.637V4.887c.003-.122.063-.462.202-.696.114-.192.29-.271.533-.312l.705.63a.5.5 0 0 0 .334.128H12.5a.5.5 0 0 0 .5-.5V.5a.5.5 0 0 0-.5-.5h-1.363a.5.5 0 0 0-.281.086l-.727.49C9.969.522 9.708.428 9.16.287 8.47.11 7.624-.069 6.881-.033m.048.998c.53-.026 1.338.125 1.984.29.646.167 1.135.34 1.135.34a.5.5 0 0 0 .447-.058L11.29 1H12v2.637h-.674l-.779-.698a.5.5 0 0 0-.334-.127c-.718 0-1.245.426-1.508.868s-.335.883-.342 1.185V8h-.818V5.078c0-1.032-.345-1.783-.918-2.193s-1.269-.462-1.904-.397c-.28.029-.281.102-.541.166C5.212 1.658 6.202 1 6.928.964zM6 9h4v5H6z" class="ColorScheme-Text" style="fill:currentColor;fill-opacity:.9"/>
</svg>
