<svg xmlns="http://www.w3.org/2000/svg" width="16.002" height="15.997">
<style id="current-color-scheme" type="text/css">
.ColorScheme-Text{color:#fcfcfc}
</style>
<path d="M9.5 1a4.5 4.5 0 0 0-3.79 2.074A3.5 3.5 0 0 0 5 3a3.5 3.5 0 0 0-3.5 3.5l.004.158C.59 7.528 0 8.804 0 10.25 0 12.881 1.91 15 4.285 15h7.43C14.089 15 16 12.881 16 10.25c0-1.722-.826-3.21-2.057-4.043A4.5 4.5 0 0 0 14 5.5 4.5 4.5 0 0 0 9.5 1m0 1 .148.004h.01a4 4 0 0 1 .305.027l.101.016.053.008.008.002.146.029.008.002a4 4 0 0 1 .297.082l.008.002.14.049.008.004.137.054.008.004.137.06.007.005.133.068.006.004.131.072.027.018.106.066.008.004.12.086.126.094.008.006a4 4 0 0 1 .23.2l.006.007.105.105.006.006a4 4 0 0 1 .201.23l.006.008.094.125.086.121.07.114.014.021.004.006.072.13.004.007.068.133.004.007.06.137.005.008.054.137.004.007.05.141.001.008.043.144.002.008.037.145.002.008.03.146.001.008.008.053.016.101.017.149v.007l.01.149L13 5.5l-.002.086-.002.072-.002.02a3.5 3.5 0 0 1-.25 1.133 3.74 3.74 0 0 1 2.133 2.515q.031.12.055.24.016.086.029.174c.023.167.039.336.039.51A3.74 3.74 0 0 1 11.25 14h-6.5A3.74 3.74 0 0 1 1 10.25c0-.203.022-.4.053-.594q.008-.052.02-.103c.184-.977.74-1.82 1.523-2.37A2.5 2.5 0 0 1 2.5 6.5a2.5 2.5 0 0 1 .111-.732 2.5 2.5 0 0 1 .143-.364l.004-.006a2.5 2.5 0 0 1 .203-.343 2.5 2.5 0 0 1 .256-.305l.09-.088.005-.006.02-.015a3 3 0 0 1 .186-.153l.101-.072.008-.004.105-.066.008-.004.108-.06.01-.005.119-.056.113-.05.004-.001.03-.01.1-.035.12-.037.008-.002.12-.03.008-.001.03-.006.101-.018.133-.017.123-.01h.008L5 4l.13.004h.003l.064.004h.008l.047.004v.002a2.5 2.5 0 0 1 .957.298 3.5 3.5 0 0 1 .47-.882h-.001a4 4 0 0 1 .173-.217l.024-.027.092-.1.015-.018.096-.093.016-.016.078-.07.03-.028.112-.093.125-.096.018-.014a4 4 0 0 1 .246-.16 4 4 0 0 1 .275-.15l.02-.01.125-.055.145-.058.019-.008.049-.018.101-.033.131-.04.02-.005.066-.016.067-.017a4 4 0 0 1 .22-.043l.11-.016a4 4 0 0 1 .29-.025z" class="ColorScheme-Text" style="fill:currentColor"/>
</svg>
