<svg xmlns="http://www.w3.org/2000/svg" width="16" height="16">
<style id="current-color-scheme" type="text/css">
.ColorScheme-Text{color:#fcfcfc}
</style>
<path d="M8 0C3.588 0 0 3.588 0 8s3.588 8 8 8 8-3.588 8-8-3.588-8-8-8m0 1c.023 0 .045.004.068.004.34.003.67.036.996.086A6.986 6.986 0 0 1 15 8c0 .31-.026.612-.064.91a7 7 0 0 1-1.03-.244l.36-.93-.932-.361-.36.926a7 7 0 0 1-2.11-1.559l.763-.615L11 5.35l-.764.615a6.9 6.9 0 0 1-1.052-2.4l.962-.149-.152-.988-.969.15A7 7 0 0 1 9 2c0-.31.026-.612.064-.91a7 7 0 0 0-.996-.086C8.028 1.33 8 1.662 8 2q0 .37.033.73l-1.004.157.153.988 1.011-.156A7.9 7.9 0 0 0 9.46 6.592l-.795.638.627.778.795-.64a8 8 0 0 0 2.527 1.866l-.363.938.932.361.363-.935c.386.124.78.227 1.19.293A6.99 6.99 0 0 1 8 15c-.057 0-.112-.006-.168-.008.07-.559.065-1.133.014-1.713l1.023-.158-.154-.988-1.008.156a7.9 7.9 0 0 0-1.27-2.87l.797-.64L6.607 8l-.804.646a8 8 0 0 0-2.524-1.859l.37-.951-.934-.361-.361.935a8 8 0 0 0-1.094-.28 7 7 0 0 0-.198.977c.318.054.627.138.93.233l-.361.931.933.362.358-.924a7 7 0 0 1 2.107 1.56l-.76.612.627.78.762-.614A6.9 6.9 0 0 1 6.7 12.445l-.949.149.154.988.953-.148c.04.495.041.986-.02 1.462A6.99 6.99 0 0 1 1 8c0-.303.025-.6.063-.893A6.99 6.99 0 0 1 8 1M6.846 14.896" class="ColorScheme-Text" style="fill:currentColor"/>
</svg>
