<svg xmlns="http://www.w3.org/2000/svg" width="16" height="16">
<style id="current-color-scheme" type="text/css">
.ColorScheme-Text{color:#fcfcfc}
</style>
<path d="M8 0a8 8 0 0 0-8 8 8 8 0 0 0 .043.605l.002.01a8 8 0 0 0 .152 1.051 8 8 0 0 0 6.137 6.137 8 8 0 0 0 1.05.152l.01.002A8 8 0 0 0 8 16a8 8 0 0 0 8-8 8 8 0 0 0-.027-.615 8 8 0 0 0-.153-1.055v-.006A8 8 0 0 0 9.676.18H9.67A8 8 0 0 0 8.615.027 8 8 0 0 0 8 0m0 1 .234.006A5.5 5.5 0 0 0 8 2.5 5.5 5.5 0 0 0 13.5 8a5.5 5.5 0 0 0 1.494-.234L15 8a7 7 0 0 1-7 7l-.23-.018A5.5 5.5 0 0 0 8 13.5 5.5 5.5 0 0 0 2.5 8a5.5 5.5 0 0 0-1.482.23L1 8a7 7 0 0 1 7-7m1.25.115a7 7 0 0 1 5.635 5.635A4.5 4.5 0 0 1 13.5 7 4.5 4.5 0 0 1 9 2.5a4.5 4.5 0 0 1 .25-1.385M2.5 9A4.5 4.5 0 0 1 7 13.5a4.5 4.5 0 0 1-.248 1.377 7 7 0 0 1-5.629-5.629A4.5 4.5 0 0 1 2.5 9" class="ColorScheme-Text" style="fill:currentColor"/>
</svg>
