<svg xmlns="http://www.w3.org/2000/svg" width="16" height="16">
<style id="current-color-scheme" type="text/css">
.ColorScheme-Text{color:#fcfcfc}
</style>
<path d="M3 1c-.728 0-1.33 1.5-1.469 3.502L1.5 4.5a1 1 0 0 0-1 1 1 1 0 0 0 .254.662C.282 6.418 0 6.7 0 7v7.5c0 .277.223.5.5.5h1.568c.277 0 .5-.223.5-.5v-2.037C3.995 12.793 5.892 13 8 13s4.005-.206 5.432-.537V14.5c0 .277.223.5.5.5H15.5c.277 0 .5-.223.5-.5V7c0-.3-.28-.583-.752-.838A1 1 0 0 0 15.5 5.5a1 1 0 0 0-1-1h-.031C14.329 2.498 13.727 1 13 1zm.336 1h9.328c.463 0 .836 1.561.836 3.5l-.002.05C12.065 5.212 10.139 5 8 5s-4.066.21-5.498.549L2.5 5.5c0-1.939.373-3.5.836-3.5M8 6c3.878 0 7 .643 7 1.443v3.114c0 .8-3.122 1.443-7 1.443s-7-.643-7-1.443V7.443C1 6.643 4.122 6 8 6M3 8a1 1 0 0 0-1 1 1 1 0 0 0 1 1 1 1 0 0 0 1-1 1 1 0 0 0-1-1m10 0a1 1 0 0 0-1 1 1 1 0 0 0 1 1 1 1 0 0 0 1-1 1 1 0 0 0-1-1m-7.5 2a.499.499 0 1 0 0 1h5a.499.499 0 1 0 0-1z" class="ColorScheme-Text" style="fill:currentColor"/>
</svg>
