<svg xmlns="http://www.w3.org/2000/svg" width="16" height="16">
<path fill="#fcfcfc" d="M3 1c-1.108 0-2 .892-2 2v10c0 1.108.892 2 2 2h10c1.108 0 2-.892 2-2V3c0-1.108-.892-2-2-2zm0 1h10c.554 0 1 .446 1 1v9c0 .554-.446 1-1 1H3c-.554 0-1-.446-1-1V3c0-.554.446-1 1-1m6.96 1.115q-1.018 0-1.804.45-.78.445-1.207 1.234a3.64 3.64 0 0 0-.422 1.75q0 1.39.828 2.172.832.78 2.317.781a4.7 4.7 0 0 0 1.855-.356v-.75q-.48.177-.976.27-.495.09-.91.09-1.095 0-1.672-.574-.574-.579-.574-1.657 0-.8.308-1.41.313-.613.895-.937t1.37-.324q.61 0 1.083.253.476.255.738.739.262.48.262 1.11 0 .588-.149.956-.148.363-.398.363-.297 0-.297-.543l.09-1.91a4 4 0 0 0-.668-.152 4.6 4.6 0 0 0-.738-.066q-.844 0-1.368.503Q8 5.612 8 6.436q0 .722.398 1.14.4.414 1.09.414a1.34 1.34 0 0 0 1.075-.504h.062a.8.8 0 0 0 .32.368.96.96 0 0 0 .512.136q.434 0 .762-.265a1.7 1.7 0 0 0 .508-.73q.18-.47.18-1.032 0-.848-.368-1.496a2.5 2.5 0 0 0-1.043-1q-.675-.352-1.535-.352zm-.023 2.2q.25 0 .45.042l-.051.864q-.039.559-.223.808-.183.246-.535.246-.672 0-.672-.824 0-.527.27-.832.273-.305.761-.305z" style="marker:none"/>
</svg>
