<svg xmlns="http://www.w3.org/2000/svg" width="16" height="16">
<style id="current-color-scheme" type="text/css">
.ColorScheme-Text{color:#fcfcfc}
</style>
<path d="M8 0a8 8 0 0 0-8 8 8 8 0 0 0 8 8 8 8 0 0 0 8-8 8 8 0 0 0-8-8m0 1a7 7 0 0 1 7 7 7 7 0 0 1-7 7 7 7 0 0 1-7-7 7 7 0 0 1 7-7" class="ColorScheme-Text" style="fill:currentColor"/>
<path class="ColorScheme-Text" style="fill:currentColor" d="M8.714 13H7.286v-1.429h1.428zm1.479-5.536-.643.657c-.514.522-.836.95-.836 2.022H7.286v-.357c0-.786.321-1.5.835-2.022l.886-.9c.264-.257.422-.614.422-1.007 0-.786-.643-1.428-1.429-1.428s-1.429.642-1.429 1.428H5.143a2.856 2.856 0 1 1 5.714 0c0 .629-.257 1.2-.664 1.607"/>
</svg>
