<svg xmlns="http://www.w3.org/2000/svg" xml:space="preserve" id="svg9" width="22" height="22" version="1.1" viewBox="0 0 129.412 129.412">
<style id="current-color-scheme" type="text/css">
.ColorScheme-Text{color:#fcfcfc}
</style>
<defs id="defs5">
<linearGradient id="a">
<stop id="stop1" offset=".164" style="stop-color:#6cace9;stop-opacity:1"/>
<stop id="stop2" offset=".5" style="stop-color:#4c92d6;stop-opacity:1"/>
<stop id="stop3" offset="1" style="stop-color:#0257a9;stop-opacity:1"/>
</linearGradient>
<linearGradient id="b" x1="12" x2="12" y1="0" y2="12" gradientTransform="translate(.001 .001)scale(6.40196)" gradientUnits="userSpaceOnUse">
<stop id="stop4" stop-color="#00A4DC"/>
<stop id="stop5" offset="1" stop-color="#069"/>
</linearGradient>
</defs>
<path id="path6" d="M114.643 42.217h-22.37a3.915 3.915 0 0 1-3.888-3.915V15.81a3.907 3.907 0 0 1 3.89-3.907h22.368a3.907 3.907 0 0 1 3.907 3.907v22.448a3.915 3.915 0 0 1-3.907 3.96zm-38.733 0H53.584a3.924 3.924 0 0 1-3.898-3.915V15.81a3.915 3.915 0 0 1 3.898-3.907h22.36a3.907 3.907 0 0 1 3.9 3.907v22.448a3.915 3.915 0 0 1-3.934 3.96zM32.004 44.85l-21.27-6.821a3.97 3.97 0 0 1-2.528-4.934l6.813-21.35a3.95 3.95 0 0 1 4.907-2.547l21.272 6.848a3.977 3.977 0 0 1 2.537 4.925l-6.83 21.36a3.9 3.9 0 0 1-4.899 2.52z" class="ColorScheme-Text" style="fill:currentColor;fill-opacity:.4;stroke-width:.877911"/>
<path id="path7" d="M114.643 119.535h-22.37a3.907 3.907 0 0 1-3.888-3.907V93.136a3.907 3.907 0 0 1 3.89-3.906h22.368a3.907 3.907 0 0 1 3.907 3.906v22.457a3.907 3.907 0 0 1-3.907 3.942m-38.733 0H53.584a3.915 3.915 0 0 1-3.898-3.907V93.136a3.915 3.915 0 0 1 3.898-3.871h22.36a3.907 3.907 0 0 1 3.9 3.906v22.457a3.907 3.907 0 0 1-3.934 3.907m38.733-38.69h-22.37a3.907 3.907 0 0 1-3.888-3.915V54.508a3.915 3.915 0 0 1 3.89-3.915h22.368a3.915 3.915 0 0 1 3.907 3.915v22.475a3.9 3.9 0 0 1-3.907 3.863" class="ColorScheme-Text" style="fill:currentColor;fill-opacity:.6;stroke-width:.877911"/>
<path id="path8" d="M37.15 119.535H14.79a3.907 3.907 0 0 1-3.899-3.907V93.136a3.907 3.907 0 0 1 3.898-3.906h22.36a3.915 3.915 0 0 1 3.9 3.906v22.457a3.915 3.915 0 0 1-3.899 3.942m0-38.69H14.79a3.907 3.907 0 0 1-3.899-3.915V54.508a3.915 3.915 0 0 1 3.898-3.915h22.36a3.924 3.924 0 0 1 3.9 3.915v22.475a3.907 3.907 0 0 1-3.899 3.863" class="ColorScheme-Text" style="fill:currentColor;fill-opacity:.9;stroke-width:.877911"/>
</svg>
