<svg xmlns="http://www.w3.org/2000/svg" width="16" height="16">
<path fill="#fcfcfc" d="M3.23 5c-.275 0-.45.246-.335.494l2.722 5.891.245.53c.113.246.306.488.576.493.27-.005.463-.247.576-.493l1.38-2.99 1.092-2.36c.076-.166.253-.33.436-.33h1.156a.4.4 0 0 1 .06.008q.008.002.015.006a.222.222 0 0 1 .14.316l-.864 1.872-.11.234-.432.936-.109.234-.055.12-.053.114c-.02.05-.04.111-.108.11-.068.001-.09-.066-.108-.11l-.432-.936-.109-.234-.052-.113-.66 1.424.785 1.7c.114.246.307.488.576.492.27-.005.463-.246.577-.493l.244-.53 2.721-5.89c.115-.249-.06-.495-.334-.495H9.314c-.274 0-.54.246-.654.494L7.075 8.925h.002l-.1.214-.107.234-.108.234-.109.234-.108.234c-.018.044-.04.111-.108.11-.066.001-.088-.06-.108-.11l-.051-.113-.056-.12-.108-.235-.11-.234-.431-.936-.865-1.872c-.077-.166.04-.33.223-.33H6.08c.182 0 .36.164.436.33l.667 1.444.66-1.426-.501-1.09C7.227 5.246 6.962 5 6.687 5H5.45z" style="paint-order:stroke markers fill"/>
<path fill="#fcfcfc" fill-rule="evenodd" d="M8 0a8 8 0 0 0-8 8 8 8 0 0 0 8 8 8 8 0 0 0 8-8 8 8 0 0 0-8-8m0 1a7 7 0 0 1 7 7 7 7 0 0 1-7 7 7 7 0 0 1-7-7 7 7 0 0 1 7-7" style="paint-order:stroke fill markers"/>
</svg>
