<svg xmlns="http://www.w3.org/2000/svg" width="16" height="16">
<path fill="#fcfcfc" d="M7.998 2.04C4.228 2.043.928 4.405-.01 7.77a1.042.96 0 0 0 0 .478c.946 3.356 4.246 5.71 8.01 5.713a1.042.96 0 0 0 .002 0c3.77-.005 7.07-2.367 8.008-5.73a1.042.96 0 0 0 0-.48C15.064 4.393 11.764 2.04 8 2.038a1.042.96 0 0 0-.002 0M8 3c3.295.002 6.172 2.054 7 4.992-.82 2.945-3.7 5.004-7 5.008-3.295-.002-6.172-2.054-7-4.992C1.82 5.063 4.7 3.004 8 3" color="#000" style="font-feature-settings:normal;font-variant-alternates:normal;font-variant-caps:normal;font-variant-ligatures:normal;font-variant-numeric:normal;font-variant-position:normal;isolation:auto;mix-blend-mode:normal;shape-padding:0;text-decoration-color:#000;text-decoration-line:none;text-decoration-style:solid;text-indent:0;text-orientation:mixed;text-transform:none;white-space:normal" transform="scale(.99998 1)"/>
<path fill="#fcfcfc" d="M8 5a3 3 0 0 0-3 3 3 3 0 0 0 3 3 3 3 0 0 0 3-3 3 3 0 0 0-3-3m0 1a2 2 0 0 1 2 2 2 2 0 0 1-2 2 2 2 0 0 1-2-2 2 2 0 0 1 2-2"/>
</svg>
