<svg width="256" height="256" viewBox="0 0 256 256" fill="none" xmlns="http://www.w3.org/2000/svg">
<rect width="256" height="256" rx="65" fill="#006699"/>
<rect x="28" y="28" width="200" height="200" rx="45" fill="#F9F9F9"/>
<path d="M0 81C0 61.67 15.67 46 35 46H83.4744C96.0907 46 108.308 50.4232 118 58.5V58.5C127.692 66.5768 139.909 71 152.526 71H221C240.33 71 256 86.67 256 106V191C256 226.899 226.899 256 191 256H65C29.1015 256 0 226.899 0 191V81Z" fill="#2991C9"/>
<path d="M162.806 159.198C177.155 159.198 189.502 146.384 189.502 129.698C189.502 113.213 177.088 101 162.806 101C148.524 101 136.11 113.48 136.11 129.832C136.11 146.384 148.457 159.198 162.806 159.198ZM85.9875 160.733C98.4014 160.733 109.214 149.521 109.214 135.038C109.214 120.689 98.3348 110.077 85.9875 110.077C73.574 110.077 62.6286 120.955 62.6952 135.171C62.6952 149.521 73.5074 160.733 85.9875 160.733ZM48.7462 221H99.4693C92.5284 210.922 101.004 190.633 115.354 179.554C107.946 174.615 98.4014 170.944 85.9209 170.944C55.8209 170.944 37 193.169 37 211.656C37 217.663 40.3369 221 48.7462 221ZM120.826 221H204.719C215.197 221 218.936 217.996 218.936 212.123C218.936 194.904 197.378 171.144 162.739 171.144C128.168 171.144 106.611 194.904 106.611 212.123C106.611 217.996 110.348 221 120.826 221Z" fill="#F9F9F9"/>
</svg>
