<svg width="256" height="256" viewBox="0 0 256 256" fill="none" xmlns="http://www.w3.org/2000/svg">
<rect width="256" height="256" rx="65" fill="#006699"/>
<rect x="28" y="28" width="200" height="200" rx="45" fill="#F9F9F9"/>
<path d="M0 81C0 61.67 15.67 46 35 46H83.4744C96.0907 46 108.308 50.4232 118 58.5V58.5C127.692 66.5768 139.909 71 152.526 71H221C240.33 71 256 86.67 256 106V191C256 226.899 226.899 256 191 256H65C29.1015 256 0 226.899 0 191V81Z" fill="#2991C9"/>
<path opacity="0.4" d="M135.385 232.194C173.345 232.194 204.117 201.421 204.117 163.462C204.117 125.503 173.345 94.7308 135.385 94.7308C97.426 94.7308 66.6538 125.503 66.6538 163.462C66.6538 201.421 97.426 232.194 135.385 232.194Z" fill="#FAFAFA"/>
<path d="M160.889 190.474C159.995 190.474 159.102 190.268 158.277 189.718L136.97 177.003C131.678 173.841 127.76 166.899 127.76 160.782V132.602C127.76 129.784 130.097 127.447 132.915 127.447C135.733 127.447 138.07 129.784 138.07 132.602V160.782C138.07 163.256 140.132 166.899 142.263 168.136L163.57 180.852C166.044 182.295 166.8 185.457 165.357 187.931C164.326 189.58 162.607 190.474 160.889 190.474Z" fill="#FAFAFA"/>
<path d="M113.755 166.098C113.755 164.061 113.108 162.448 111.895 161.175L78.4295 126.2C77.0554 124.757 75.4385 124.078 73.5795 124.078C71.8009 124.078 70.0226 124.842 68.7293 126.2L34.94 161.175C33.6467 162.363 33 164.061 33 166.183C33 169.918 35.9102 172.805 39.6286 172.805C41.3262 172.805 42.9427 172.211 44.2364 170.937L65.4148 148.272C64.6067 153.11 64.1218 158.119 64.1218 163.042C64.1218 204.638 95.8899 238 135.499 238C175.189 238 207.038 204.638 207.038 163.042C207.038 121.447 175.189 88 135.499 88C131.619 88 128.79 90.886 128.79 95.1306C128.79 99.1205 131.619 101.667 135.499 101.667C167.995 101.667 194.024 129.002 194.024 163.042C194.024 197.083 167.995 224.333 135.499 224.333C103.084 224.333 77.1361 197.083 77.1361 163.042C77.1361 156.506 77.621 150.648 78.6719 145.47L102.68 170.852C103.974 172.211 105.59 172.805 107.288 172.805C111.006 172.805 113.755 169.918 113.755 166.098Z" fill="#FAFAFA"/>
</svg>
