<svg width="22" height="22" viewBox="0 0 22 22" fill="none" xmlns="http://www.w3.org/2000/svg">
<defs>
<style id="current-color-scheme" type="text/css">.ColorScheme-Text { color:#ffffff; }</style>
</defs>
<g opacity="0.90">
<rect width="22" height="22" fill="url(#paint0_linear_29_94)" fill-opacity="0.01"/>
<path class="ColorScheme-Text" d="M14.7517 14.5048C15.0787 14.5048 15.3596 14.3826 15.5946 14.1384C15.8296 13.8942 15.9471 13.6036 15.9471 13.2667C15.9471 12.928 15.8296 12.637 15.5946 12.3937C15.3596 12.1503 15.0787 12.0286 14.7517 12.0286C14.4264 12.0286 14.1459 12.1503 13.91 12.3937C13.6742 12.637 13.5563 12.928 13.5563 13.2667C13.5563 13.6036 13.6742 13.8942 13.91 14.1384C14.1459 14.3826 14.4264 14.5048 14.7517 14.5048ZM4.04482 8.98095C3.62479 8.98095 3.39195 8.4944 3.65545 8.16729L5.5931 5.7619C5.81379 5.49524 6.08046 5.30159 6.3931 5.18095C6.70575 5.06032 7.02759 5 7.35862 5H14.6414C14.9724 5 15.2943 5.06032 15.6069 5.18095C15.9195 5.30159 16.1862 5.49524 16.4069 5.7619L18.3446 8.16729C18.6081 8.4944 18.3752 8.98095 17.9552 8.98095H4.04482ZM5.50115 17C4.79985 17 4.20766 16.7498 3.7246 16.2495C3.24153 15.7492 3 15.1359 3 14.4095V11.0048C3 10.7286 3.22386 10.5048 3.5 10.5048H18.5C18.7761 10.5048 19 10.7286 19 11.0048V14.4095C19 15.1359 18.7591 15.7492 18.2772 16.2495C17.7954 16.7498 17.2026 17 16.4989 17H5.50115Z" fill="currentColor"/>
</g>
</svg>
