<svg width="24" height="24" viewBox="0 0 24 24" fill="none" xmlns="http://www.w3.org/2000/svg">
<rect width="24" height="24" fill="#A4A4A4" fill-opacity="0.01"/>
<path d="M13.512 19.6179C12.7144 20.5391 11.2856 20.5391 10.488 19.6179L1.1539 8.8377C0.49443 8.07606 0.495931 6.93223 1.2406 6.25367C2.48931 5.11581 3.88261 4.18484 5.42052 3.46076C7.48893 2.48692 9.67863 2 11.9896 2C14.3024 2 16.4959 2.48692 18.5703 3.46076C20.1129 4.1849 21.5092 5.11596 22.7591 6.25396C23.5041 6.9322 23.5056 8.07606 22.8461 8.8377L13.512 19.6179ZM6.73642 10.2575C7.50905 9.69417 8.34398 9.27163 9.24121 8.98994C10.1383 8.70825 11.0579 8.5674 12 8.5674C12.9476 8.5674 13.8727 8.70825 14.7752 8.98994C15.6776 9.27163 16.5151 9.69417 17.2877 10.2575L18.7466 8.57174C19.1305 8.12809 19.0533 7.44747 18.5516 7.14321C17.7234 6.6409 16.8492 6.23442 15.9289 5.92378C14.6646 5.49706 13.355 5.2837 12 5.2837C10.6495 5.2837 9.34012 5.49706 8.07187 5.92378C7.15053 6.23378 6.27707 6.63922 5.45147 7.1401C4.94852 7.44522 4.87337 8.12835 5.26075 8.57106L6.73642 10.2575Z" fill="white"/>
<path d="M6.519 9.98963C6.69082 10.1136 6.92838 10.118 7.11273 9.99751C7.7783 9.56234 8.48779 9.22648 9.2412 8.98994C10.1383 8.70825 11.0579 8.56741 12 8.56741C12.9476 8.56741 13.8727 8.70825 14.7752 8.98994C15.5322 9.22625 16.2435 9.56167 16.9092 9.99622C17.0899 10.1142 17.3214 10.1122 17.4922 9.99577L17.5 10L14.52 13.5L12.7657 15.5884C12.3661 16.0642 11.6339 16.0642 11.2343 15.5884L9.48 13.5L6.5 10L6.519 9.98963Z" fill="url(#paint0_linear_69_70)"/>
<defs>
<linearGradient id="paint0_linear_69_70" x1="17" y1="9" x2="11.0263" y2="16.0223" gradientUnits="userSpaceOnUse">
<stop stop-color="#73CFFB"/>
<stop offset="1" stop-color="#3EAAE5"/>
</linearGradient>
</defs>
</svg>
