<svg xmlns="http://www.w3.org/2000/svg" xml:space="preserve" width="24" height="24" version="1"><defs><radialGradient id="a" cx="0" cy="0" r="1" fx="0" fy="0" gradientTransform="matrix(0 16.5 -16.5 0 9 .75)" gradientUnits="userSpaceOnUse" spreadMethod="pad"><stop offset="0" style="stop-opacity:1;stop-color:#a4a4a4"/><stop offset="1" style="stop-opacity:1;stop-color:#626262"/></radialGradient></defs><g style="fill:none"><path d="M7.195.836c.09 0 .176-.012.258-.035a23.86 23.86 0 0 1 3.231.008 10.26 10.26 0 0 1 2.836.636c1.519.625 2.558 1.711 3.121 3.254.316.93.507 1.887.566 2.867a21.227 21.227 0 0 1-.086 3.696 8.976 8.976 0 0 1-.672 2.488c-.637 1.383-1.672 2.336-3.101 2.859a11.693 11.693 0 0 1-3.575.618 15.998 15.998 0 0 1-4.089-.309c-2.481-.551-4.016-2.066-4.594-4.543a14.244 14.244 0 0 1-.336-3.383c-.027-1.215.101-2.41.387-3.59.609-2.312 2.078-3.746 4.406-4.3A10.27 10.27 0 0 1 7.195.836Z" style="fill:url(#a);fill-rule:evenodd;stroke:none" transform="matrix(1.33333 0 0 1.33333 0 0)"/></g><g transform="matrix(.25396 0 0 .25396 -5.912 3.873)"><path d="M44.557 13.975v36H58.33v-4.098h10.356v4.098h31.378v-36z" style="opacity:1;fill:#419d45;fill-opacity:1;stroke:none;stroke-width:3.1283;stroke-linecap:round;stroke-linejoin:round;paint-order:stroke markers fill"/><path fill="#419d45" d="M50 14c-3.324 0-6 2.676-6 6v24c0 3.324 2.676 6 6 6h8v-3c0-1.108.892-2 2-2h7c1.108 0 2 .892 2 2v3h25c3.324 0 6-2.676 6-6V20c0-3.324-2.676-6-6-6z" style="paint-order:stroke fill markers"/><path fill="#56b35a" d="M50.697 14c-.247.163-.49.335-.709.531v10.47l-2 2H44v2h3.988l3 3h38l7-8h4v-1h-4L98 21h2v-1c0-.883-.193-1.717-.532-2.47L98 19.001h-2v-3l.845-1.288A5.968 5.968 0 0 0 95 14.09v6.022L87.988 28h-3l8-9v-5zm7.291 21-10 8H44v1c0 .703.127 1.374.347 2H48v-.008L53.988 42v2l-6 4H48v1.652c.626.22 1.296.348 2 .348v-1l1.988-1v2h6v-5l6-5h3l-6 5H67c1.108 0 2 .892 2 2v3h25a5.983 5.983 0 0 0 5.771-4.37L92.988 37h-2l-2-2z"/><rect width="4" height="48" x="41" y="8" fill="#4d4d4d" ry="2.043" style="paint-order:stroke fill markers"/><path fill="#f8c44e" d="M82 21v4h2v-4zm3 0v4h2v-4zm3 0v4h2v-4zm-11 5v2h4v-2zm14 0v2h4v-2zm-14 3v2h4v-2zm14 0v2h4v-2zm-14 3v2h4v-2zm14 0v2h4v-2zm-9 3v4h2v-4zm3 0v4h2v-4zm3 0v4h2v-4z"/><rect width="14" height="14" x="79" y="23" fill="#4d4d4d" rx="3" ry="3"/><path fill="#f8c44e" d="M73 45h4v8h-4zm6 0h4v8h-4zm6 0h4v8h-4zm6 0h4v8h-4z"/><g transform="translate(37 7)"><circle cx="58.5" cy="11.5" r="1.5" fill="#fbc02d"/><circle cx="58.5" cy="11.5" r=".5" fill="#263238"/></g><g transform="translate(-10 7)"><circle cx="58.5" cy="11.5" r="1.5" fill="#fbc02d"/><circle cx="58.5" cy="11.5" r=".5" fill="#263238"/></g><g transform="translate(-10 34)"><circle cx="58.5" cy="11.5" r="1.5" fill="#fbc02d"/><circle cx="58.5" cy="11.5" r=".5" fill="#263238"/></g><rect width="14" height="7.683" x="56.644" y="21.24" fill="#4d4d4d" rx="2.371" ry="2.371" style="stroke-width:.740799"/><rect width="14" height="7.683" x="56.644" y="31.24" fill="#4d4d4d" rx="2.371" ry="2.371" style="stroke-width:.740799"/></g></svg>