<svg xmlns="http://www.w3.org/2000/svg" width="24" height="24" fill="none"><path fill="url(#a)" fill-rule="evenodd" d="M9.596 1.114c.12 0 .234-.014.344-.046a31.637 31.637 0 0 1 4.307.011c1.301.102 2.561.384 3.78.847 2.025.834 3.412 2.28 4.158 4.34.427 1.24.679 2.514.756 3.824a27.94 27.94 0 0 1-.114 4.923 11.88 11.88 0 0 1-.894 3.32c-.85 1.843-2.229 3.114-4.135 3.813a15.624 15.624 0 0 1-4.765.825 21.413 21.413 0 0 1-5.453-.412c-3.312-.738-5.354-2.757-6.128-6.057a19.045 19.045 0 0 1-.447-4.511 18.49 18.49 0 0 1 .515-4.786c.812-3.086 2.77-4.998 5.877-5.736a13.953 13.953 0 0 1 2.2-.355Z" clip-rule="evenodd"/><path fill="#FAFAFA" d="M7.494 4C6.666 4 6 4.67 6 5.504v12.992C6 19.329 6.666 20 7.494 20h9.012c.828 0 1.494-.67 1.494-1.504V5.504C18 4.671 17.334 4 16.506 4H7.494ZM12 6.044a1.71 1.71 0 0 1 1.215.506 1.732 1.732 0 0 1 .504 1.224c0 .46-.181.9-.504 1.224a1.713 1.713 0 0 1-2.43 0 1.736 1.736 0 0 1 .557-2.823A1.71 1.71 0 0 1 12 6.044Zm0 4.67c.977 0 1.913.391 2.604 1.087a3.72 3.72 0 0 1 1.078 2.62 3.72 3.72 0 0 1-1.078 2.622 3.67 3.67 0 0 1-4.013.804 3.681 3.681 0 0 1-1.993-2.007 3.729 3.729 0 0 1 .799-4.04A3.67 3.67 0 0 1 12 10.716Zm0 1.939a1.747 1.747 0 0 0-1.242.518 1.77 1.77 0 0 0-.515 1.25 1.78 1.78 0 0 0 .515 1.252A1.757 1.757 0 0 0 12 16.19a1.746 1.746 0 0 0 1.242-.518 1.769 1.769 0 0 0 .515-1.251c0-.47-.185-.92-.514-1.25A1.751 1.751 0 0 0 12 12.652Z"/><path fill="#181818" d="M7.392 5.862c.244 0 .442-.199.442-.445a.443.443 0 0 0-.442-.445c-.244 0-.442.2-.442.445 0 .246.198.445.442.445ZM16.608 5.862c.244 0 .442-.199.442-.445a.443.443 0 0 0-.442-.445c-.244 0-.442.2-.442.445 0 .246.198.445.442.445ZM7.392 19.02c.244 0 .442-.198.442-.444a.443.443 0 0 0-.442-.445c-.244 0-.442.2-.442.445 0 .246.198.445.442.445ZM16.608 19.02c.244 0 .442-.198.442-.444a.443.443 0 0 0-.442-.445c-.244 0-.442.2-.442.445 0 .246.198.445.442.445Z" opacity=".669"/><defs><radialGradient id="a" cx="0" cy="0" r="1" gradientTransform="matrix(0 22 -22 0 12 1)" gradientUnits="userSpaceOnUse"><stop stop-color="#A5DFFF"/><stop offset="1" stop-color="#005385"/></radialGradient></defs></svg>