<svg xmlns="http://www.w3.org/2000/svg" xmlns:xlink="http://www.w3.org/1999/xlink" xml:space="preserve" width="24" height="24" version="1"><defs><radialGradient id="c" cx="0" cy="0" r="1" gradientTransform="matrix(0 32 -32.00002 0 72 0)" gradientUnits="userSpaceOnUse"><stop stop-color="#80D2FF"/><stop offset="1" stop-color="#2991C9" style="stop-color:#002a43;stop-opacity:1"/></radialGradient><radialGradient id="b" cx="0" cy="0" r="1" gradientTransform="rotate(90 5.5 6.5) scale(22.00003)" gradientUnits="userSpaceOnUse"><stop offset="0" stop-color="#8FC8FF" style="stop-color:#fff;stop-opacity:1"/><stop offset="1" stop-color="#0056A8" style="stop-color:#bebebe;stop-opacity:1"/></radialGradient><radialGradient xlink:href="#a" id="d" cx="0" cy="0" r="1" gradientTransform="matrix(0 10.99999 -11 0 12 1)" gradientUnits="userSpaceOnUse"/><radialGradient id="a" cx="0" cy="0" r="1" gradientTransform="rotate(90 -77.248 -201.09) scale(150)" gradientUnits="userSpaceOnUse"><stop stop-color="#80D2FF"/><stop offset="1" stop-color="#2991C9" style="stop-color:#0083d0;stop-opacity:1"/></radialGradient></defs><path fill="url(#b)" fill-rule="evenodd" d="M9.596 1.114c.12 0 .234-.014.344-.046a31.638 31.638 0 0 1 4.307.011c1.301.102 2.561.384 3.78.847 2.025.834 3.412 2.28 4.158 4.34.427 1.24.679 2.514.756 3.824a27.941 27.941 0 0 1-.114 4.923 11.88 11.88 0 0 1-.894 3.32c-.85 1.843-2.229 3.114-4.135 3.813a15.624 15.624 0 0 1-4.766.825 21.416 21.416 0 0 1-5.452-.412c-3.312-.738-5.354-2.757-6.128-6.057a19.046 19.046 0 0 1-.447-4.511 18.49 18.49 0 0 1 .515-4.786c.812-3.086 2.77-4.998 5.877-5.736a13.953 13.953 0 0 1 2.199-.355Z" clip-rule="evenodd" style="fill:url(#b);stroke-width:1"/><path fill="url(#c)" fill-rule="evenodd" d="M9.596 1.114c.12 0 .234-.014.344-.046a31.627 31.627 0 0 1 4.307.011c1.301.102 2.561.384 3.78.847 2.026.834 3.412 2.28 4.158 4.34.427 1.24.679 2.514.756 3.824a27.936 27.936 0 0 1-.114 4.923 11.878 11.878 0 0 1-.894 3.32c-.85 1.843-2.229 3.114-4.135 3.813a15.623 15.623 0 0 1-4.765.825 21.422 21.422 0 0 1-5.453-.413c-3.312-.737-5.354-2.756-6.128-6.056a19.047 19.047 0 0 1-.447-4.511 18.49 18.49 0 0 1 .515-4.786c.812-3.086 2.77-4.998 5.877-5.736a13.954 13.954 0 0 1 2.2-.355z" clip-rule="evenodd" style="fill:url(#d);stroke-width:.0733333"/><path d="m12.472 47.652-2.233 4.194 1.98.018-.492 2.482 2.034-3.42-1.958-.012z" style="fill:#fafafa;fill-opacity:1;stroke-width:2.41639;stroke-linecap:round;stroke-linejoin:round" transform="translate(0 -43.152)"/><path d="M8.85 50.93a.565.565 0 0 0-.566.567v10.588c0 .314.253.567.566.567h2.802v-.753a1.816 1.816 0 0 1-1.623-1.879.392.392 0 0 1-.001-.028v-1.17c0-.313.252-.566.566-.566h.138v-1.108a.372.372 0 1 1 .745 0v1.108h1.046v-1.108a.372.372 0 1 1 .745 0v1.108h.138c.314 0 .566.253.566.567v1.267c0 .925-.683 1.684-1.575 1.803v.759h2.753a.565.565 0 0 0 .566-.567V51.497a.565.565 0 0 0-.566-.567h-.88L11.1 56.2l.516-3.865-2.304.001.746-1.406z" style="fill:#fafafa;fill-opacity:1;stroke-width:3.06055;stroke-linecap:round;stroke-linejoin:round" transform="translate(0 -43.152)"/></svg>