<svg xmlns="http://www.w3.org/2000/svg" width="24" height="24" version="1"><defs><radialGradient id="a" cx="0" cy="0" r="1" gradientTransform="matrix(0 11 -11 0 12 1)" gradientUnits="userSpaceOnUse"><stop stop-color="#6EBBF7"/><stop offset="1" stop-color="#2196F3"/></radialGradient></defs><path fill="url(#a)" fill-rule="evenodd" d="M9.596 1.114c.12 0 .234-.014.344-.046a31.627 31.627 0 0 1 4.307.011c1.301.102 2.561.384 3.78.848 2.025.833 3.412 2.28 4.158 4.339.427 1.24.679 2.514.756 3.824a27.94 27.94 0 0 1-.115 4.923 11.88 11.88 0 0 1-.893 3.32c-.85 1.843-2.229 3.114-4.135 3.813a15.624 15.624 0 0 1-4.766.825 21.423 21.423 0 0 1-5.452-.412c-3.312-.738-5.354-2.757-6.128-6.057a19.047 19.047 0 0 1-.447-4.511 18.491 18.491 0 0 1 .515-4.786c.812-3.086 2.77-4.998 5.877-5.736a13.953 13.953 0 0 1 2.199-.355z" clip-rule="evenodd" style="fill:url(#a)"/><path d="M18.464 11.411a8.5 8.5 0 0 0-8.5 8.5 8.5 8.5 0 0 0 .567 3.049c.834.054 1.673.06 2.515.016a15.615 15.615 0 0 0 4.764-.825c1.906-.699 3.286-1.97 4.137-3.812a11.88 11.88 0 0 0 .892-3.32c.086-.765.138-1.53.16-2.295a8.5 8.5 0 0 0-4.535-1.313z" style="fill:#bfd6ef;fill-opacity:1;fill-rule:evenodd;stroke-width:.472223;paint-order:fill markers stroke"/><g fill="#fff" opacity=".35" transform="matrix(.81045 0 0 .81045 5.516 .968)"><path fill-rule="evenodd" d="M8 3C5.16 3 2.568 4.007.514 5.658a.5.5 0 0 0-.096.072.5.5 0 0 0-.154.36.5.5 0 0 0 .5.5.5.5 0 0 0 .318-.113A10.919 10.919 0 0 1 8 4c2.628 0 5.027.938 6.918 2.477a.5.5 0 0 0 .318.113.5.5 0 0 0 .5-.5.5.5 0 0 0-.154-.36.5.5 0 0 0-.096-.072C13.433 4.008 10.841 3 8 3Z" style="paint-order:stroke fill markers"/><path d="M8 9c-1.353 0-2.583.469-3.586 1.225a.507.507 0 0 0-.168.384.5.5 0 0 0 .836.37C5.904 10.375 6.902 10 8 10s2.096.375 2.918.979a.5.5 0 0 0 .836-.37.507.507 0 0 0-.168-.384C10.583 9.469 9.353 9 8 9Z"/><path fill-rule="evenodd" d="M8 6a8.918 8.918 0 0 0-5.488 1.897.5.5 0 0 0-.102.074.5.5 0 0 0-.156.361.5.5 0 0 0 .5.5.5.5 0 0 0 .32-.115A7.936 7.936 0 0 1 8 7c1.863 0 3.567.648 4.926 1.717a.5.5 0 0 0 .32.115.5.5 0 0 0 .5-.5.5.5 0 0 0-.156-.361.5.5 0 0 0-.102-.075A8.919 8.919 0 0 0 8 6Z" style="paint-order:stroke fill markers"/><circle cx="8" cy="13" r="1" fill-rule="evenodd" style="paint-order:stroke fill markers"/></g><g transform="translate(40 20)"><path d="M-21.766-5.184a4.681 4.68 0 0 0-4.68 4.682 4.681 4.68 0 0 0 1.405 3.326 15.642 15.642 0 0 0 2.852-.674c1.906-.699 3.286-1.97 4.136-3.812.152-.353.284-.71.4-1.072a4.681 4.68 0 0 0-4.113-2.45z" style="fill:#434b53;fill-opacity:1;fill-rule:evenodd;stroke-width:.472223;paint-order:fill markers stroke"/><path d="M-21.766-4.143a3.64 3.64 0 0 0-3.64 3.641 3.64 3.64 0 0 0 1.705 3.08c.508-.117 1.012-.259 1.512-.428 1.787-.655 3.11-1.812 3.97-3.472v-.002a3.64 3.64 0 0 0-3.547-2.819z" style="fill:#858a8f;fill-opacity:1;fill-rule:evenodd;stroke-width:.472223;paint-order:fill markers stroke"/><circle cx="-21.765" cy="-.502" r="2.081" opacity=".75" style="stroke-width:.4551"/><circle cx="-20.925" cy="-1.343" r=".56" fill="#fff" opacity=".35" style="stroke-width:.4551"/></g></svg>