<svg xmlns="http://www.w3.org/2000/svg" xmlns:xlink="http://www.w3.org/1999/xlink" width="24" height="24" version="1"><defs><radialGradient id="b" cx="0" cy="0" r="1" fx="0" fy="0" gradientTransform="matrix(0 16.5 -16.5 0 9 .75)" gradientUnits="userSpaceOnUse" spreadMethod="pad"><stop offset="0" style="stop-opacity:1;stop-color:#a4a4a4"/><stop offset="1" style="stop-opacity:1;stop-color:#626262"/></radialGradient><linearGradient id="a"><stop offset="0"/><stop offset="1" stop-opacity="0"/></linearGradient></defs><use xlink:href="#a" width="100%" height="100%" fill="#fff" fill-rule="evenodd" opacity=".5" transform="matrix(1.6 0 0 1.6 40 19)"/><g style="fill:none"><path d="M7.195.836c.09 0 .176-.012.258-.035a23.86 23.86 0 0 1 3.231.008 10.26 10.26 0 0 1 2.836.636c1.519.625 2.558 1.711 3.121 3.254.316.93.507 1.887.566 2.867a21.227 21.227 0 0 1-.086 3.696 8.976 8.976 0 0 1-.672 2.488c-.637 1.383-1.672 2.336-3.101 2.859a11.693 11.693 0 0 1-3.575.618 15.998 15.998 0 0 1-4.089-.309c-2.481-.551-4.016-2.066-4.594-4.543a14.244 14.244 0 0 1-.336-3.383c-.027-1.215.101-2.41.387-3.59.609-2.312 2.078-3.746 4.406-4.3A10.27 10.27 0 0 1 7.195.836Z" style="fill:url(#b);fill-rule:evenodd;stroke:none" transform="matrix(1.33333 0 0 1.33333 0 0)"/></g><path d="M12 4.645a7.34 7.34 0 0 0-6.8 4.537A7.34 7.34 0 0 0 4.644 12a7.34 7.34 0 0 0 4.537 6.8 7.34 7.34 0 0 0 2.818.555 7.34 7.34 0 0 0 6.8-4.537A7.34 7.34 0 0 0 19.356 12a7.34 7.34 0 0 0-4.537-6.8A7.34 7.34 0 0 0 12 4.644Zm0 5.918c.381 0 .748.15 1.018.42A1.439 1.439 0 1 1 10.562 12a1.44 1.44 0 0 1 .887-1.328 1.44 1.44 0 0 1 .551-.11Z" style="fill:#dcdcdc;fill-opacity:1;stroke-width:.919419"/><path fill="#fff" d="M12 14.084a2.084 2.084 0 1 0 0-4.169 2.084 2.084 0 0 0 0 4.17zm0-1.041a1.043 1.043 0 1 1 0-2.086 1.043 1.043 0 0 1 .002 2.086z" opacity=".35" style="stroke-width:.520868"/><path d="M1.201 15.11c.068.465.15.929.252 1.39.77 3.303 2.817 5.322 6.125 6.057 1.248.255 2.503.4 3.766.433v-3.037c-3.701-.199-5.986-1.902-7.117-4.844H1.2z" style="stroke-width:.465671;fill:#575757;fill-opacity:1"/><path fill="#fff" d="m8.641 20.971 2.371-5.372a.345.345 0 0 0 .023-.24.352.352 0 0 0-.434-.243.357.357 0 0 0-.2.14l-3.579 4.69a1.036 1.036 0 0 0-.201.924c.15.558.732.886 1.301.733a1.072 1.072 0 0 0 .72-.632z" style="stroke-width:.245732"/><rect width=".246" height="1.72" x="-14.785" y="20.074" fill-rule="evenodd" opacity=".15" rx=".123" style="stroke-width:.245732" transform="scale(-1 1)"/><rect width=".246" height="1.72" x="-14.293" y="20.074" fill-rule="evenodd" opacity=".15" rx=".123" style="stroke-width:.245732" transform="scale(-1 1)"/><rect width=".246" height="1.72" x="-13.802" y="20.074" fill-rule="evenodd" opacity=".15" rx=".123" style="stroke-width:.245732" transform="scale(-1 1)"/><rect width=".246" height="1.72" x="-13.31" y="20.074" fill-rule="evenodd" opacity=".15" rx=".123" style="stroke-width:.245732" transform="scale(-1 1)"/><rect width=".246" height="1.72" x="-12.819" y="20.074" fill-rule="evenodd" opacity=".15" rx=".123" style="stroke-width:.245732" transform="scale(-1 1)"/><path d="M16.505 20.934a.369.369 0 1 0-.737 0 .369.369 0 0 0 .737 0zm-8.355-.368a.491.491 0 1 1-.983 0 .491.491 0 0 1 .983 0z" opacity=".15" style="stroke-width:.245732"/><path d="M7.904 20.566a.246.246 0 1 0-.491 0 .246.246 0 0 0 .491 0z" opacity=".35" style="stroke-width:.245732"/></svg>