<svg xmlns="http://www.w3.org/2000/svg" xmlns:xlink="http://www.w3.org/1999/xlink" width="24" height="24" version="1.0"><defs><radialGradient id="a" cx="0" cy="0" r="1" fx="0" fy="0" gradientTransform="matrix(0 22 -22 0 11.999 1)" gradientUnits="userSpaceOnUse" spreadMethod="pad"><stop offset="0" style="stop-opacity:1;stop-color:#a4a4a4"/><stop offset="1" style="stop-opacity:1;stop-color:#626262"/></radialGradient></defs><use xlink:href="#a" width="100%" height="100%" fill="#fff" fill-rule="evenodd" opacity=".5" transform="matrix(1.6 0 0 1.6 72 17)"/><path d="M9.593 1.115c.12 0 .235-.016.344-.047a31.814 31.814 0 0 1 4.308.01 13.68 13.68 0 0 1 3.781.849c2.026.833 3.41 2.281 4.162 4.338.42 1.24.676 2.516.754 3.823a28.303 28.303 0 0 1-.114 4.928 11.968 11.968 0 0 1-.896 3.317c-.85 1.844-2.23 3.115-4.135 3.812-1.543.522-3.13.798-4.767.824a21.331 21.331 0 0 1-5.452-.412c-3.308-.734-5.354-2.754-6.125-6.057a18.991 18.991 0 0 1-.448-4.51c-.036-1.62.135-3.214.516-4.787.812-3.083 2.77-4.995 5.875-5.734a13.692 13.692 0 0 1 2.197-.354z" style="fill:url(#a);fill-rule:evenodd;stroke:none;stroke-width:1.33333"/><path fill="#666" d="M7.179 6.643c-.89 0-1.608.717-1.608 1.607v9.643c0 .89.717 1.607 1.608 1.607h9.642c.89 0 1.608-.717 1.608-1.607V8.25c0-.89-.717-1.607-1.608-1.607h-.415a5.67 5.67 0 0 1 1.219 3.525c0 3.064-2.518 5.582-5.625 5.582s-5.625-2.518-5.625-5.582c0-1.338.458-2.56 1.219-3.525z" style="stroke-width:.999999;paint-order:stroke fill markers;fill:#4d4d4d;fill-opacity:1"/><path fill="#fff" fill-rule="evenodd" d="M17.625 10.168c0 3.064-2.518 5.582-5.625 5.582s-5.625-2.518-5.625-5.582C6.375 7.018 8.893 4.5 12 4.5s5.625 2.519 5.625 5.668" opacity=".9" style="fill:#d0d0d0;fill-opacity:.937255;stroke-width:3.73334"/><path fill="#fff" d="M12 6.375a3.75 3.75 0 0 0-3.75 3.75 3.75 3.75 0 0 0 3.75 3.75 3.75 3.75 0 0 0 3.75-3.75A3.75 3.75 0 0 0 12 6.375Zm0 1.875 1.875 1.875h-3.75zm-1.875 2.679h3.75v.803h-3.75z" style="stroke-width:.999999;paint-order:markers stroke fill"/><rect width="6.964" height=".536" x="8.518" y="17.089" fill="#fff" opacity=".5" rx=".268" ry=".268" style="stroke-width:.999999;paint-order:stroke fill markers"/></svg>