<svg xmlns="http://www.w3.org/2000/svg" xmlns:xlink="http://www.w3.org/1999/xlink" xml:space="preserve" width="24" height="24" version="1"><defs><radialGradient id="b" cx="0" cy="0" r="1" fx="0" fy="0" gradientTransform="matrix(0 16.5 -16.5 0 9 .75)" gradientUnits="userSpaceOnUse" spreadMethod="pad"><stop offset="0" style="stop-opacity:1;stop-color:#a4a4a4"/><stop offset="1" style="stop-opacity:1;stop-color:#626262"/></radialGradient><linearGradient id="a"><stop offset="0"/><stop offset="1" stop-opacity="0"/></linearGradient></defs><use xlink:href="#a" width="100%" height="100%" fill="#fff" fill-rule="evenodd" opacity=".5" transform="matrix(1.6 0 0 1.6 32 17)"/><g style="fill:none"><path d="M7.195.836c.09 0 .176-.012.258-.035a23.86 23.86 0 0 1 3.231.008 10.26 10.26 0 0 1 2.836.636c1.519.625 2.558 1.711 3.121 3.254.316.93.507 1.887.566 2.867a21.227 21.227 0 0 1-.086 3.696 8.976 8.976 0 0 1-.672 2.488c-.637 1.383-1.672 2.336-3.101 2.859a11.693 11.693 0 0 1-3.575.618 15.998 15.998 0 0 1-4.089-.309c-2.481-.551-4.016-2.066-4.594-4.543a14.244 14.244 0 0 1-.336-3.383c-.027-1.215.101-2.41.387-3.59.609-2.312 2.078-3.746 4.406-4.3A10.27 10.27 0 0 1 7.195.836Z" style="fill:url(#b);fill-rule:evenodd;stroke:none" transform="matrix(1.33333 0 0 1.33333 0 0)"/></g><path d="M7.11 21.013c-.599 0-1.085.461-1.126 1.049.495.202 1.024.37 1.594.496 1.801.369 3.62.51 5.453.412a15.585 15.585 0 0 0 4.766-.825c.075-.027.147-.058.22-.087a1.126 1.126 0 0 0-1.125-1.045z" style="fill:#000;fill-opacity:.25098;stroke-width:.376278;paint-order:stroke fill markers"/><use xlink:href="#a" width="100%" height="100%" fill="#fff" fill-rule="evenodd" opacity=".5" transform="matrix(1.6 0 0 1.6 123.245 31.264)"/><g fill="#fff" style="fill:none"><path d="M19.355 12A7.336 7.336 0 0 0 12 4.645 7.337 7.337 0 0 0 4.645 12 7.337 7.337 0 0 0 12 19.355 7.337 7.337 0 0 0 19.355 12zm-4.665 0A2.678 2.678 0 0 1 12 14.692 2.679 2.679 0 0 1 9.307 12c0-1.48 1.091-2.69 2.692-2.69 1.6 0 2.691 1.24 2.691 2.69z" opacity=".75"/><path d="M12 8.32A3.68 3.68 0 1 0 12 15.68 3.68 3.68 0 0 0 12 8.32zm0 1.84a1.841 1.841 0 1 1 0 3.681 1.841 1.841 0 0 1-.002-3.682z" opacity=".35"/></g></svg>