<svg xmlns="http://www.w3.org/2000/svg" xmlns:xlink="http://www.w3.org/1999/xlink" width="24" height="24" version="1"><defs><linearGradient id="c" x1="29.049" x2="29.049" y1="3.457" y2="40.296" gradientTransform="matrix(.30603 0 0 .27935 19.733 3.358)" gradientUnits="userSpaceOnUse"><stop offset="0" stop-color="#4285db"/><stop offset="1" stop-color="#42b9db"/></linearGradient><linearGradient id="a" x1="31.815" x2="31.815" y1="56.586" y2="-1.586" gradientUnits="userSpaceOnUse"><stop offset="0" stop-color="#fff"/><stop offset="1" stop-color="#fff" stop-opacity="0"/></linearGradient><linearGradient id="b" x1="12" x2="12" y1="0" y2="12" gradientTransform="matrix(.91667 0 0 .91667 1 1)" gradientUnits="userSpaceOnUse"><stop stop-color="#fff"/><stop offset="1" stop-color="#D9D9D9"/></linearGradient><linearGradient xlink:href="#a" id="d" x1="31.815" x2="31.815" y1="56.586" y2="-1.586" gradientUnits="userSpaceOnUse"/><linearGradient xlink:href="#a" id="e" x1="31.815" x2="31.815" y1="56.586" y2="-1.586" gradientUnits="userSpaceOnUse"/><linearGradient xlink:href="#a" id="f" x1="31.815" x2="31.815" y1="56.586" y2="-1.586" gradientUnits="userSpaceOnUse"/><linearGradient xlink:href="#a" id="g" x1="31.815" x2="31.815" y1="56.586" y2="-1.586" gradientUnits="userSpaceOnUse"/><linearGradient xlink:href="#a" id="h" x1="31.815" x2="31.815" y1="56.586" y2="-1.586" gradientUnits="userSpaceOnUse"/><linearGradient xlink:href="#a" id="i" x1="31.815" x2="31.815" y1="56.586" y2="-1.586" gradientUnits="userSpaceOnUse"/><linearGradient xlink:href="#a" id="j" x1="31.815" x2="31.815" y1="56.586" y2="-1.586" gradientUnits="userSpaceOnUse"/><linearGradient xlink:href="#a" id="k" x1="31.815" x2="31.815" y1="56.586" y2="-1.586" gradientUnits="userSpaceOnUse"/><linearGradient xlink:href="#a" id="l" x1="31.815" x2="31.815" y1="56.586" y2="-1.586" gradientUnits="userSpaceOnUse"/><linearGradient xlink:href="#a" id="m" x1="31.815" x2="31.815" y1="56.586" y2="-1.586" gradientUnits="userSpaceOnUse"/><linearGradient xlink:href="#a" id="n" x1="31.815" x2="31.815" y1="56.586" y2="-1.586" gradientUnits="userSpaceOnUse"/></defs><path fill="url(#b)" fill-rule="evenodd" d="M9.596 1.114c.12 0 .234-.014.344-.046a31.628 31.628 0 0 1 4.307.011c1.301.102 2.561.384 3.78.848 2.026.833 3.412 2.28 4.158 4.339.427 1.24.679 2.514.756 3.824a27.935 27.935 0 0 1-.115 4.923 11.882 11.882 0 0 1-.893 3.32c-.85 1.843-2.229 3.114-4.135 3.813a15.626 15.626 0 0 1-4.765.825 21.425 21.425 0 0 1-5.453-.413c-3.312-.737-5.354-2.756-6.128-6.056a19.046 19.046 0 0 1-.447-4.511 18.49 18.49 0 0 1 .515-4.786c.812-3.086 2.77-4.998 5.877-5.736a13.953 13.953 0 0 1 2.199-.355Z" clip-rule="evenodd" style="fill:url(#b);stroke-width:.916667"/><g transform="matrix(.96741 0 0 1 -16.615 -.342)"><rect width="10.261" height="17.282" x="24.395" y="3.656" fill="#4d4d4d" rx="1.35" ry="1.35" style="stroke-width:.270037;paint-order:stroke fill markers"/><rect width="9.181" height="16.202" x="24.935" y="4.196" fill="url(#c)" rx=".81" ry=".81" style="fill:url(#c);stroke-width:.270037;paint-order:stroke fill markers"/><rect width="2.16" height="2.16" x="31.416" y="15.537" fill="#fff" opacity=".35" rx=".27" ry=".27" style="stroke-width:.270037"/><rect width="2.16" height="2.16" x="25.475" y="15.537" fill="#fff" opacity=".35" rx=".27" ry=".27" style="stroke-width:.270037"/><g fill="url(#a)" style="fill:url(#d)" transform="matrix(.27004 0 0 .27004 20.885 3.656)"><rect width="8" height="8" x="28" y="22" rx="1" ry="1" style="fill:url(#e)"/><rect width="8" height="8" x="39" y="22" rx="1" ry="1" style="fill:url(#f)"/><rect width="8" height="8" x="17" y="22" rx="1" ry="1" style="fill:url(#g)"/><rect width="8" height="8" x="28" y="33" rx="1" ry="1" style="fill:url(#h)"/><rect width="8" height="8" x="39" y="33" rx="1" ry="1" style="fill:url(#i)"/><rect width="8" height="8" x="17" y="33" rx="1" ry="1" style="fill:url(#j)"/><rect width="8" height="8" x="28" y="11" rx="1" ry="1" style="fill:url(#k)"/><rect width="8" height="8" x="39" y="11" rx="1" ry="1" style="fill:url(#l)"/><rect width="8" height="8" x="17" y="11" rx="1" ry="1" style="fill:url(#m)"/><rect width="8" height="8" x="28" y="44" rx="1" ry="1" style="fill:url(#n)"/></g></g></svg>