<svg xmlns="http://www.w3.org/2000/svg" xml:space="preserve" width="24" height="24" version="1"><defs><radialGradient id="a" cx="0" cy="0" r="1" fx="0" fy="0" gradientTransform="matrix(0 22 -22 0 12 1)" gradientUnits="userSpaceOnUse" spreadMethod="pad"><stop offset="0" style="stop-opacity:1;stop-color:#a4a4a4"/><stop offset="1" style="stop-opacity:1;stop-color:#626262"/></radialGradient></defs><path d="M9.593 1.115c.12 0 .235-.016.344-.047a31.814 31.814 0 0 1 4.308.01 13.68 13.68 0 0 1 3.781.849c2.026.833 3.41 2.281 4.162 4.338.42 1.24.676 2.516.754 3.823a28.303 28.303 0 0 1-.114 4.928 11.968 11.968 0 0 1-.896 3.317c-.85 1.844-2.23 3.115-4.135 3.812-1.543.522-3.13.798-4.767.824a21.331 21.331 0 0 1-5.452-.412c-3.308-.734-5.354-2.754-6.125-6.057a18.991 18.991 0 0 1-.448-4.51c-.036-1.62.135-3.214.516-4.787.812-3.083 2.77-4.995 5.875-5.734a13.692 13.692 0 0 1 2.197-.354z" style="fill:url(#a);fill-rule:evenodd;stroke:none;stroke-width:1.33333"/><rect width="1.698" height="1.415" x="3.315" y="8.828" fill="#fff" paint-order="markers stroke fill" ry=".283" style="stroke-width:.283019"/><rect width="1.698" height="1.415" x="5.923" y="8.828" fill="#fff" paint-order="markers stroke fill" ry=".283" style="stroke-width:.283019"/><rect width="1.698" height="1.415" x="8.531" y="8.828" fill="#fff" paint-order="markers stroke fill" ry=".283" style="stroke-width:.283019"/><rect width="1.698" height="1.415" x="11.139" y="8.828" fill="#fff" paint-order="markers stroke fill" ry=".283" style="stroke-width:.283019"/><rect width="1.698" height="1.415" x="13.747" y="8.828" fill="#fff" paint-order="markers stroke fill" ry=".283" style="stroke-width:.283019"/><rect width="1.698" height="1.415" x="16.355" y="8.828" fill="#fff" paint-order="markers stroke fill" ry=".283" style="stroke-width:.283019"/><rect width="1.698" height="1.415" x="3.315" y="11.281" fill="#fff" paint-order="markers stroke fill" ry=".283" style="stroke-width:.283019"/><rect width="1.698" height="1.415" x="5.923" y="11.281" fill="#fff" paint-order="markers stroke fill" ry=".283" style="stroke-width:.283019"/><rect width="1.698" height="1.415" x="8.531" y="11.281" fill="#fff" paint-order="markers stroke fill" ry=".283" style="stroke-width:.283019"/><rect width="1.698" height="1.415" x="11.139" y="11.287" fill="#fff" paint-order="markers stroke fill" ry=".283" style="stroke-width:.283019"/><rect width="1.698" height="1.415" x="13.747" y="11.287" fill="#fff" paint-order="markers stroke fill" ry=".283" style="stroke-width:.283019"/><rect width="1.698" height="1.415" x="3.315" y="13.747" fill="#fff" paint-order="markers stroke fill" ry=".283" style="stroke-width:.283019"/><rect width="1.698" height="1.415" x="13.747" y="13.747" fill="#fff" paint-order="markers stroke fill" ry=".283" style="stroke-width:.283019"/><rect width="1.698" height="1.415" x="16.355" y="13.747" fill="#fff" paint-order="markers stroke fill" ry=".283" style="stroke-width:.283019"/><rect width="1.698" height="1.415" x="18.962" y="13.747" fill="#fff" paint-order="markers stroke fill" ry=".283" style="stroke-width:.283019"/><path d="M19.262 8.828a.312.312 0 0 0-.28.313v2.168h-2.359a.278.278 0 0 0-.277.28v.876c0 .156.123.281.277.281h3.783a.28.28 0 0 0 .28-.281v-.875a.29.29 0 0 0-.004-.043V9.14a.312.312 0 0 0-.313-.313h-1.107zM6.207 13.734a.294.294 0 0 0-.295.295v.85c0 .163.132.293.295.293h6.31c.164 0 .296-.13.296-.293v-.85a.294.294 0 0 0-.295-.295H6.207z" style="fill:#0083d0;fill-opacity:1;stroke-width:.287557"/><path d="M19.262 8.828a.312.312 0 0 0-.28.313v2.168h-2.359a.278.278 0 0 0-.277.28v.876c0 .156.123.281.277.281h3.783a.28.28 0 0 0 .28-.281v-.875a.29.29 0 0 0-.004-.043V9.14a.312.312 0 0 0-.313-.313h-1.107zM6.207 13.734a.294.294 0 0 0-.295.295v.85c0 .163.132.293.295.293h6.31c.164 0 .296-.13.296-.293v-.85a.294.294 0 0 0-.295-.295H6.207z" style="fill:#0083d0;fill-opacity:1;stroke-width:.287557"/></svg>