<svg xmlns="http://www.w3.org/2000/svg" xml:space="preserve" width="24" height="24" version="1"><defs><radialGradient id="a" cx="0" cy="0" r="1" fx="0" fy="0" gradientTransform="matrix(0 16.5 -16.5 0 9 .75)" gradientUnits="userSpaceOnUse" spreadMethod="pad"><stop offset="0" style="stop-opacity:1;stop-color:#a4a4a4"/><stop offset="1" style="stop-opacity:1;stop-color:#626262"/></radialGradient></defs><g style="fill:none"><path d="M7.195.836c.09 0 .176-.012.258-.035a23.86 23.86 0 0 1 3.231.008 10.26 10.26 0 0 1 2.836.636c1.519.625 2.558 1.711 3.121 3.254.316.93.507 1.887.566 2.867a21.227 21.227 0 0 1-.086 3.696 8.976 8.976 0 0 1-.672 2.488c-.637 1.383-1.672 2.336-3.101 2.859a11.693 11.693 0 0 1-3.575.618 15.998 15.998 0 0 1-4.089-.309c-2.481-.551-4.016-2.066-4.594-4.543a14.244 14.244 0 0 1-.336-3.383c-.027-1.215.101-2.41.387-3.59.609-2.312 2.078-3.746 4.406-4.3A10.27 10.27 0 0 1 7.195.836Z" style="fill:url(#a);fill-rule:evenodd;stroke:none" transform="matrix(1.33333 0 0 1.33333 0 0)"/></g><path fill="#388e3c" d="M5.304 8.92a.802.802 0 0 0-.804.803v5.893c0 .445.358.804.804.804h6.428v-1.34a.267.267 0 1 1 .536 0v1.34h6.428a.802.802 0 0 0 .804-.804V9.723a.802.802 0 0 0-.804-.803z" style="stroke-width:.267857;paint-order:stroke fill markers"/><path fill="#fff" d="M6.375 8.92v1.875l-.536.535v.536l.804.804H16.82l1.875-2.143h.804v-.268h-.804V9.188l-2.142 2.41h-.804l2.143-2.41V8.92Zm2.143 4.553-2.679 2.143v.804l1.607-1.072v.536l-.803.536h1.875v-.268l1.607-1.34h.804l-1.608 1.34v.268h2.411v-1.34a.267.267 0 1 1 .536 0v1.34h6.428a.8.8 0 0 0 .726-.464l-1.53-1.947h-.535l-.536-.536z" opacity=".15" style="stroke-width:.267857"/><path fill="#ffd42a" d="M5.571 14.813a.267.267 0 0 0-.267.267v1.34h.535v-1.34a.267.267 0 0 0-.268-.267zm1.072 0a.267.267 0 0 0-.268.267v1.34h.536v-1.34a.267.267 0 0 0-.268-.267zm1.071 0a.267.267 0 0 0-.268.267v1.34h.536v-1.34a.267.267 0 0 0-.268-.267zm1.072 0a.267.267 0 0 0-.268.267v1.34h.536v-1.34a.267.267 0 0 0-.268-.267zm1.071 0a.267.267 0 0 0-.268.267v1.34h.536v-1.34a.267.267 0 0 0-.268-.267zm1.072 0a.267.267 0 0 0-.268.267v1.34h.535v-1.34a.267.267 0 0 0-.267-.267zm2.142 0a.267.267 0 0 0-.267.267v1.34h.535v-1.34a.267.267 0 0 0-.268-.267zm1.072 0a.267.267 0 0 0-.268.267v1.34h.536v-1.34a.267.267 0 0 0-.268-.267zm1.071 0a.267.267 0 0 0-.268.267v1.34h.536v-1.34a.267.267 0 0 0-.268-.267zm1.072 0a.267.267 0 0 0-.268.267v1.34h.536v-1.34a.267.267 0 0 0-.268-.267zm1.071 0a.267.267 0 0 0-.268.267v1.34h.536v-1.34a.267.267 0 0 0-.268-.267zm1.072 0a.267.267 0 0 0-.268.267v1.34h.535v-1.34a.267.267 0 0 0-.267-.267z" style="stroke-width:.267857;paint-order:stroke fill markers"/><g transform="matrix(.26786 0 0 .26786 2.893 6.777)"><circle cx="58.5" cy="11.5" r="1.5" fill="#fbc02d"/><circle cx="58.5" cy="11.5" r=".5" fill="#263238"/></g><g transform="matrix(.26786 0 0 .26786 -10.232 6.777)"><circle cx="58.5" cy="11.5" r="1.5" fill="#fbc02d"/><circle cx="58.5" cy="11.5" r=".5" fill="#263238"/></g><rect width="2.679" height="1.607" x="5.839" y="10.259" rx=".268" ry=".241" style="stroke-width:.267857"/><rect width="2.679" height="1.607" x="5.839" y="12.134" rx=".268" ry=".241" style="stroke-width:.267857"/><rect width="2.679" height="1.607" x="8.786" y="10.259" rx=".268" ry=".241" style="stroke-width:.267857"/><rect width="2.679" height="1.607" x="8.786" y="12.134" rx=".268" ry=".241" style="stroke-width:.267857"/><rect width="2.679" height="1.607" x="12.536" y="10.259" rx=".268" ry=".241" style="stroke-width:.267857"/><rect width="2.679" height="1.607" x="12.536" y="12.134" rx=".268" ry=".241" style="stroke-width:.267857"/><rect width="2.679" height="1.607" x="15.482" y="10.259" rx=".268" ry=".241" style="stroke-width:.267857"/><rect width="2.679" height="1.607" x="15.482" y="12.134" rx=".268" ry=".241" style="stroke-width:.267857"/></svg>