<svg xmlns="http://www.w3.org/2000/svg" xml:space="preserve" width="24" height="24" version="1"><defs><radialGradient id="a" cx="0" cy="0" r="1" fx="0" fy="0" gradientTransform="matrix(0 16.5 -16.5 0 9 .75)" gradientUnits="userSpaceOnUse" spreadMethod="pad"><stop offset="0" style="stop-opacity:1;stop-color:#a4a4a4"/><stop offset="1" style="stop-opacity:1;stop-color:#626262"/></radialGradient></defs><g style="fill:none"><path d="M7.195.836c.09 0 .176-.012.258-.035a23.86 23.86 0 0 1 3.231.008 10.26 10.26 0 0 1 2.836.636c1.519.625 2.558 1.711 3.121 3.254.316.93.507 1.887.566 2.867a21.227 21.227 0 0 1-.086 3.696 8.976 8.976 0 0 1-.672 2.488c-.637 1.383-1.672 2.336-3.101 2.859a11.693 11.693 0 0 1-3.575.618 15.998 15.998 0 0 1-4.089-.309c-2.481-.551-4.016-2.066-4.594-4.543a14.244 14.244 0 0 1-.336-3.383c-.027-1.215.101-2.41.387-3.59.609-2.312 2.078-3.746 4.406-4.3A10.27 10.27 0 0 1 7.195.836Z" style="fill:url(#a);fill-rule:evenodd;stroke:none" transform="matrix(1.33333 0 0 1.33333 0 0)"/></g><g style="fill:none"><g transform="matrix(-1.98061 0 0 1.98061 -22.378 -11.249)"><path d="M-18.848 8.204a.494.494 0 0 0-.495.495v1.758l-.611.612a.491.491 0 0 0-.141.294.132.132 0 0 0-.005.032v.786c0 .074.06.134.134.134h.36v.513l-.348.347a.491.491 0 0 0-.141.294v.001a.132.132 0 0 0-.005.031v1.276c0 .275.221.495.496.495h4.495c.274 0 .494-.22.494-.495V8.7a.494.494 0 0 0-.494-.495z" style="fill:#333;fill-opacity:1;stroke-width:1.80497;stroke-linecap:square;stroke-linejoin:round;paint-order:markers stroke fill"/><rect width=".679" height="2.132" x="-18.884" y="8.666" rx=".048" ry=".048" style="fill:#ffe17c;fill-opacity:1;stroke-width:1.90766;stroke-linecap:square;stroke-linejoin:round;paint-order:markers stroke fill"/><rect width=".679" height="2.132" x="-17.832" y="8.666" rx=".048" ry=".048" style="fill:#ffe17c;fill-opacity:1;stroke-width:1.90766;stroke-linecap:square;stroke-linejoin:round;paint-order:markers stroke fill"/><rect width=".679" height="2.132" x="-16.78" y="8.666" rx=".048" ry=".048" style="fill:#ffe17c;fill-opacity:1;stroke-width:1.90766;stroke-linecap:square;stroke-linejoin:round;paint-order:markers stroke fill"/><rect width=".679" height="2.132" x="-15.728" y="8.666" rx=".048" ry=".048" style="fill:#ffe17c;fill-opacity:1;stroke-width:1.90766;stroke-linecap:square;stroke-linejoin:round;paint-order:markers stroke fill"/></g><path d="M-17.44 13.546a3.904 2.5 0 0 0-2.742.723v.508c0 .274.221.495.495.495h4.495c.275 0 .495-.22.495-.495v-.51a3.904 2.5 0 0 0-2.742-.721z" style="fill:#4d4c4c;fill-opacity:1;stroke-width:1.80497;stroke-linecap:square;stroke-linejoin:round;paint-order:markers stroke fill" transform="matrix(-1.98061 0 0 1.98061 -22.54 -11.249)"/></g></svg>