<svg xmlns="http://www.w3.org/2000/svg" xml:space="preserve" width="24" height="24" version="1"><defs><radialGradient id="a" cx="0" cy="0" r="1" fx="0" fy="0" gradientTransform="matrix(0 16.5 -16.5 0 9 .75)" gradientUnits="userSpaceOnUse" spreadMethod="pad"><stop offset="0" style="stop-opacity:1;stop-color:#a4a4a4"/><stop offset="1" style="stop-opacity:1;stop-color:#626262"/></radialGradient></defs><g style="fill:none"><path d="M7.195.836c.09 0 .176-.012.258-.035a23.86 23.86 0 0 1 3.231.008 10.26 10.26 0 0 1 2.836.636c1.519.625 2.558 1.711 3.121 3.254.316.93.507 1.887.566 2.867a21.227 21.227 0 0 1-.086 3.696 8.976 8.976 0 0 1-.672 2.488c-.637 1.383-1.672 2.336-3.101 2.859a11.693 11.693 0 0 1-3.575.618 15.998 15.998 0 0 1-4.089-.309c-2.481-.551-4.016-2.066-4.594-4.543a14.244 14.244 0 0 1-.336-3.383c-.027-1.215.101-2.41.387-3.59.609-2.312 2.078-3.746 4.406-4.3A10.27 10.27 0 0 1 7.195.836Z" style="fill:url(#a);fill-rule:evenodd;stroke:none" transform="matrix(1.33333 0 0 1.33333 0 0)"/></g><rect width="15" height="15" x="-19.5" y="-19.5" fill="#4f4f4f" rx="1.731" ry="1.731" style="stroke-width:.288462;fill:#333;fill-opacity:1" transform="matrix(0 -1 -1 0 0 0)"/><path fill="#d3d3d3" d="M9.691 5.093a.714.714 0 0 0-.716.716v3.907a.714.714 0 0 0 .716.716h5.996a.714.714 0 0 0 .716-.716V5.81a.714.714 0 0 0-.716-.716Zm3.927 1.625h1.393c.257 0 .464.207.464.464V9.04a.463.463 0 0 1-.464.465h-1.393a.463.463 0 0 1-.464-.465V7.182c0-.257.207-.464.464-.464z" style="stroke-width:.232118;paint-order:stroke fill markers"/><rect width="11.957" height="6.714" x="5.88" y="11.396" fill="#fff" rx=".727" ry=".727" style="stroke-width:.250434"/></svg>