<svg xmlns="http://www.w3.org/2000/svg" xmlns:xlink="http://www.w3.org/1999/xlink" xml:space="preserve" width="24" height="24" version="1"><defs><radialGradient id="a" cx="0" cy="0" r="1" fx="0" fy="0" gradientTransform="matrix(0 16.5 -16.5 0 9 .75)" gradientUnits="userSpaceOnUse" spreadMethod="pad"><stop offset="0" style="stop-opacity:1;stop-color:#a4a4a4"/><stop offset="1" style="stop-opacity:1;stop-color:#626262"/></radialGradient><radialGradient id="b" cx="0" cy="0" r="1" fx="0" fy="0" gradientTransform="matrix(0 16.49996 -16.49996 0 9 .75)" gradientUnits="userSpaceOnUse" spreadMethod="pad"><stop offset="0" style="stop-opacity:1;stop-color:#a4a4a4"/><stop offset="1" style="stop-opacity:1;stop-color:#626262"/></radialGradient><clipPath id="c" clipPathUnits="userSpaceOnUse"><path d="M0 0h19v19H0Z"/></clipPath><clipPath id="d" clipPathUnits="userSpaceOnUse"><path d="M0 0h19v19H0Z"/></clipPath></defs><use xlink:href="#a" width="100%" height="100%" fill="#fff" fill-rule="evenodd" opacity=".5" transform="matrix(1.6 0 0 1.6 -36 17)"/><path d="M7.195.836c.09 0 .176-.012.258-.035a23.862 23.862 0 0 1 3.231.008 10.26 10.26 0 0 1 2.836.636c1.519.625 2.558 1.711 3.121 3.254.316.93.507 1.887.566 2.867a21.227 21.227 0 0 1-.086 3.696 8.84 8.84 0 0 1-.672 2.488c-.637 1.383-1.672 2.336-3.101 2.859-1.153.391-2.36.598-3.575.618a15.985 15.985 0 0 1-4.089-.309c-2.481-.551-4.016-2.066-4.594-4.543a14.244 14.244 0 0 1-.336-3.383c-.027-1.215.101-2.41.387-3.59.609-2.312 2.078-3.746 4.406-4.3A10.27 10.27 0 0 1 7.195.836Z" style="fill:url(#b);fill-rule:evenodd;stroke:none" transform="scale(1.33333)"/><path d="M15 9a5.967 5.967 0 0 0-1.754-4.246A5.967 5.967 0 0 0 9 3a5.967 5.967 0 0 0-4.246 1.754A5.967 5.967 0 0 0 3 9a5.967 5.967 0 0 0 1.754 4.246A5.967 5.967 0 0 0 9 15a5.967 5.967 0 0 0 4.246-1.754A5.967 5.967 0 0 0 15 9Zm-3.805 0A2.184 2.184 0 0 1 9 11.195 2.187 2.187 0 0 1 6.801 9c0-1.207.894-2.195 2.199-2.195 1.305 0 2.195 1.011 2.195 2.195z" clip-path="url(#c)" opacity=".75" style="fill:#fff;fill-opacity:1;fill-rule:nonzero;stroke:none" transform="scale(1.33333)"/><path d="M9 6a3.001 3.001 0 0 0 0 6.004C13.004 12.004 13.004 6 9 6Zm0 1.5c2.004 0 2.004 3 0 3-2 .004-2.004-3-.004-3z" clip-path="url(#d)" opacity=".35" style="fill:#fff;fill-opacity:1;fill-rule:nonzero;stroke:none" transform="scale(1.33333)"/></svg>