<svg xmlns="http://www.w3.org/2000/svg" xml:space="preserve" width="24" height="24" version="1"><defs><radialGradient id="a" cx="0" cy="0" r="1" fx="0" fy="0" gradientTransform="matrix(0 11 -11 0 12 1)" gradientUnits="userSpaceOnUse" spreadMethod="pad"><stop offset="0" style="stop-opacity:1;stop-color:#9ddc9d"/><stop offset="1" style="stop-opacity:1;stop-color:#68ca68"/></radialGradient></defs><path d="M9.593 1.115c.12 0 .235-.016.344-.047a31.814 31.814 0 0 1 4.308.01 13.68 13.68 0 0 1 3.781.849c2.026.833 3.41 2.281 4.162 4.338.42 1.24.676 2.516.754 3.823a28.303 28.303 0 0 1-.114 4.928 11.968 11.968 0 0 1-.896 3.317c-.85 1.844-2.23 3.115-4.135 3.812-1.543.522-3.13.798-4.767.824a21.331 21.331 0 0 1-5.452-.412c-3.308-.734-5.354-2.754-6.125-6.057a18.991 18.991 0 0 1-.448-4.51 18.502 18.502 0 0 1 .516-4.787c.812-3.083 2.77-4.995 5.875-5.734a13.692 13.692 0 0 1 2.197-.354z" style="fill:url(#a);fill-rule:evenodd;stroke:none;stroke-width:1.33333"/><g fill="#fff" transform="translate(-36.763 3.85)"><rect width="9.536" height=".795" x="43.995" y="2.286" opacity=".35" rx=".397" ry=".397" style="stroke-width:.397337;paint-order:stroke fill markers"/><rect width="7.152" height=".795" x="45.187" y="3.875" opacity=".35" rx=".397" ry=".397" style="stroke-width:.397337;paint-order:stroke fill markers"/><rect width="4.768" height=".795" x="46.379" y="5.465" opacity=".35" rx=".397" ry=".397" style="stroke-width:.397337;paint-order:stroke fill markers"/></g><path d="M18.464 11.411a8.5 8.5 0 0 0-8.5 8.5 8.5 8.5 0 0 0 .567 3.049c.834.054 1.673.06 2.515.016a15.615 15.615 0 0 0 4.764-.825c1.906-.699 3.286-1.97 4.137-3.812a11.88 11.88 0 0 0 .892-3.32c.086-.765.138-1.53.16-2.295a8.5 8.5 0 0 0-4.535-1.313z" style="fill:#c6e9c6;fill-opacity:1;fill-rule:evenodd;stroke-width:.472223;paint-order:fill markers stroke"/><path d="M-11.775-4.46c-2.167 0-4.119.768-5.737 1.962l4.498 4.9c.276-.076.552-.16.825-.252 1.906-.699 3.286-1.97 4.136-3.812.242-.56.436-1.132.588-1.717-1.295-.676-2.743-1.082-4.31-1.082z" style="opacity:.5;fill:#fff;fill-opacity:.98;fill-rule:evenodd;stroke-width:.472223;paint-order:fill markers stroke" transform="translate(29.999 20.001)"/><path d="M-11.799-2.818a7.725 7.725 0 0 0-4.615 1.521l3.4 3.7c.276-.077.552-.16.825-.253 1.906-.699 3.286-1.97 4.136-3.812.022-.05.042-.102.063-.152A7.725 7.725 0 0 0-11.8-2.818z" style="opacity:.5;fill:#fff;fill-opacity:1;fill-rule:evenodd;stroke-width:.472223;paint-order:fill markers stroke" transform="translate(29.999 20.001)"/><path d="M-11.799-1.176a5.791 5.791 0 0 0-3.46 1.14l2.24 2.44c.277-.077.555-.16.83-.254C-10.774 1.631-9.65.798-8.816-.352a5.793 5.793 0 0 0-2.983-.824z" style="fill:#fff;fill-opacity:1;fill-rule:evenodd;stroke-width:.472223;paint-order:fill markers stroke" transform="translate(29.999 20.001)"/></svg>