<svg xmlns="http://www.w3.org/2000/svg" width="24" height="24" version="1"><defs><radialGradient id="a" cx="0" cy="0" r="1" gradientTransform="matrix(0 11 -11 0 12 1)" gradientUnits="userSpaceOnUse"><stop stop-color="#6EBBF7"/><stop offset="1" stop-color="#2196F3"/></radialGradient></defs><path fill="url(#a)" fill-rule="evenodd" d="M9.596 1.114c.12 0 .234-.014.344-.046a31.627 31.627 0 0 1 4.307.011c1.301.102 2.562.384 3.78.848 2.026.833 3.412 2.28 4.158 4.339.427 1.24.679 2.514.756 3.824a27.94 27.94 0 0 1-.114 4.923 11.88 11.88 0 0 1-.894 3.32c-.85 1.843-2.229 3.114-4.135 3.813a15.624 15.624 0 0 1-4.765.825 21.423 21.423 0 0 1-5.453-.413c-3.312-.737-5.354-2.756-6.128-6.056a19.047 19.047 0 0 1-.447-4.511 18.491 18.491 0 0 1 .515-4.786c.812-3.086 2.77-4.998 5.877-5.736a13.953 13.953 0 0 1 2.199-.355Z" clip-rule="evenodd" style="fill:url(#a)"/><g fill="#fff" transform="translate(-36.763 3.85)"><rect width="9.536" height=".795" x="43.995" y="2.286" opacity=".35" rx=".397" ry=".397" style="stroke-width:.397337;paint-order:stroke fill markers"/><rect width="7.152" height=".795" x="45.187" y="3.875" opacity=".35" rx=".397" ry=".397" style="stroke-width:.397337;paint-order:stroke fill markers"/><rect width="4.768" height=".795" x="46.379" y="5.465" opacity=".35" rx=".397" ry=".397" style="stroke-width:.397337;paint-order:stroke fill markers"/></g><path d="M18.464 11.411a8.5 8.5 0 0 0-8.5 8.5 8.5 8.5 0 0 0 .567 3.049c.834.054 1.673.06 2.515.016a15.615 15.615 0 0 0 4.764-.825c1.906-.699 3.286-1.97 4.137-3.812a11.88 11.88 0 0 0 .892-3.32c.086-.765.138-1.53.16-2.295a8.5 8.5 0 0 0-4.535-1.313z" style="fill:#bfd6ef;fill-opacity:1;fill-rule:evenodd;stroke-width:.472223;paint-order:fill markers stroke"/><path d="M-11.775-4.46c-2.167 0-4.119.768-5.737 1.962l4.498 4.9c.276-.076.552-.16.825-.252 1.906-.699 3.286-1.97 4.136-3.812.242-.56.436-1.132.588-1.717-1.295-.676-2.743-1.082-4.31-1.082z" style="opacity:.5;fill:#fff;fill-opacity:.98;fill-rule:evenodd;stroke-width:.472223;paint-order:fill markers stroke" transform="translate(29.999 20.001)"/><path d="M-11.799-2.818a7.725 7.725 0 0 0-4.615 1.521l3.4 3.7c.276-.077.552-.16.825-.253 1.906-.699 3.286-1.97 4.136-3.812.022-.05.042-.102.063-.152A7.725 7.725 0 0 0-11.8-2.818z" style="opacity:.5;fill:#fff;fill-opacity:1;fill-rule:evenodd;stroke-width:.472223;paint-order:fill markers stroke" transform="translate(29.999 20.001)"/><path d="M-11.799-1.176a5.791 5.791 0 0 0-3.46 1.14l2.24 2.44c.277-.077.555-.16.83-.254C-10.774 1.631-9.65.798-8.816-.352a5.793 5.793 0 0 0-2.983-.824z" style="fill:#fff;fill-opacity:1;fill-rule:evenodd;stroke-width:.472223;paint-order:fill markers stroke" transform="translate(29.999 20.001)"/></svg>