<svg xmlns="http://www.w3.org/2000/svg" xml:space="preserve" width="24" height="24" version="1"><defs><radialGradient id="a" cx="0" cy="0" r="1" fx="0" fy="0" gradientTransform="matrix(0 16.5 -16.5 0 9 .75)" gradientUnits="userSpaceOnUse" spreadMethod="pad"><stop offset="0" style="stop-opacity:1;stop-color:#a4a4a4"/><stop offset="1" style="stop-opacity:1;stop-color:#626262"/></radialGradient></defs><path d="M7.195.836c.09 0 .176-.012.258-.035a23.86 23.86 0 0 1 3.231.008 10.26 10.26 0 0 1 2.836.636c1.519.625 2.558 1.711 3.121 3.254.316.93.507 1.887.566 2.867a21.227 21.227 0 0 1-.086 3.696 8.976 8.976 0 0 1-.672 2.488c-.637 1.383-1.672 2.336-3.101 2.859a11.693 11.693 0 0 1-3.575.618 15.998 15.998 0 0 1-4.089-.309c-2.481-.551-4.016-2.066-4.594-4.543a14.244 14.244 0 0 1-.336-3.383c-.027-1.215.101-2.41.387-3.59.609-2.312 2.078-3.746 4.406-4.3A10.27 10.27 0 0 1 7.195.836Z" style="fill:url(#a);fill-rule:evenodd;stroke:none" transform="matrix(1.33333 0 0 1.33333 0 0)"/><path d="M4.051 5.566v6.856h2.625v-.777h1.972v.777h5.977V5.566Z" style="fill:#f2f2f2;fill-opacity:1;fill-rule:nonzero;stroke:none" transform="matrix(1.33333 0 0 1.33333 0 0)"/><path d="M5.09 5.57c-.633 0-1.145.512-1.145 1.145v4.57c0 .633.512 1.145 1.145 1.145h1.523v-.575c0-.21.168-.378.379-.378h1.336c.211 0 .379.168.379.378v.575h4.762c.633 0 1.144-.512 1.144-1.145v-4.57c0-.633-.511-1.145-1.144-1.145z" style="fill:#f2f2f2;fill-opacity:1;fill-rule:nonzero;stroke:none" transform="matrix(1.33333 0 0 1.33333 0 0)"/><path d="M5.223 5.57a2.029 2.029 0 0 0-.137.102v1.996l-.379.379h-.762v.383h.762l.57.57h7.239l1.332-1.523h.761v-.192h-.761l.382-.379h.383v-.191c0-.168-.039-.328-.101-.473l-.282.281h-.378v-.57l.16-.246a1.082 1.082 0 0 0-.352-.117v1.144l-1.336 1.504h-.57l1.523-1.715V5.57Zm1.386 4-1.902 1.524h-.762v.191c0 .133.024.262.067.383h.695v-.004l1.141-.758v.379l-1.141.762v.316c.121.039.25.067.383.067v-.192l.379-.191v.383h1.14v-.953l1.145-.954h.57l-1.14.954h1.144c.211 0 .379.168.379.378v.575h4.762c.511 0 .961-.34 1.101-.832l-1.293-1.645h-.382l-.379-.383Z" style="fill:silver;fill-opacity:1;fill-rule:nonzero;stroke:none" transform="matrix(1.33333 0 0 1.33333 0 0)"/><path d="M3.758 4.43c.211 0 .379.172.379.386v8.368a.381.381 0 1 1-.762 0V4.816c0-.214.168-.386.383-.386Z" style="fill:#4d4d4d;fill-opacity:1;fill-rule:nonzero;stroke:none" transform="matrix(1.33333 0 0 1.33333 0 0)"/><path d="M11.184 6.906v.762h.382v-.762Zm.57 0v.762h.383v-.762Zm.574 0v.762h.379v-.762Zm-2.098.949v.383h.762v-.383Zm2.668 0v.383h.762v-.383Zm-2.668.575v.379h.762V8.43Zm2.668 0v.379h.762V8.43ZM10.23 9v.383h.762V9Zm2.668 0v.383h.762V9Zm-1.714.57v.762h.382V9.57Zm.57 0v.762h.383V9.57Zm.574 0v.762h.379V9.57Z" style="fill:#f8c44e;fill-opacity:1;fill-rule:nonzero;stroke:none" transform="matrix(1.33333 0 0 1.33333 0 0)"/><path d="M11.184 7.285h1.523c.316 0 .574.254.574.57v1.528c0 .316-.258.57-.574.57h-1.523a.569.569 0 0 1-.571-.57V7.855c0-.316.254-.57.571-.57z" style="fill:#4d4d4d;fill-opacity:1;fill-rule:nonzero;stroke:none" transform="matrix(1.33333 0 0 1.33333 0 0)"/><path d="M9.469 11.477h.761V13h-.761Zm1.144 0h.762V13h-.762zm1.141 0h.762V13h-.762zm1.144 0h.762V13h-.762z" style="fill:#f8c44e;fill-opacity:1;fill-rule:nonzero;stroke:none" transform="matrix(1.33333 0 0 1.33333 0 0)"/><path d="M14.043 6.43a.288.288 0 0 1-.574 0c0-.16.129-.285.285-.285.16 0 .289.125.289.285z" style="fill:#fbc02d;fill-opacity:1;fill-rule:nonzero;stroke:none" transform="matrix(1.33333 0 0 1.33333 0 0)"/><path d="M13.852 6.43c0 .05-.043.093-.098.093a.095.095 0 0 1-.094-.093.096.096 0 1 1 .192 0z" style="fill:#263238;fill-opacity:1;fill-rule:nonzero;stroke:none" transform="matrix(1.33333 0 0 1.33333 0 0)"/><path d="M5.09 6.43a.287.287 0 0 1-.285.285.284.284 0 0 1-.285-.285c0-.16.125-.285.285-.285.156 0 .285.125.285.285Z" style="fill:#fbc02d;fill-opacity:1;fill-rule:nonzero;stroke:none" transform="matrix(1.33333 0 0 1.33333 0 0)"/><path d="M4.898 6.43c0 .05-.043.093-.093.093a.096.096 0 0 1-.098-.093c0-.055.043-.098.098-.098.05 0 .093.043.093.098z" style="fill:#263238;fill-opacity:1;fill-rule:nonzero;stroke:none" transform="matrix(1.33333 0 0 1.33333 0 0)"/><path d="M5.09 11.57c0 .16-.129.285-.285.285a.282.282 0 0 1-.285-.285c0-.156.125-.285.285-.285.156 0 .285.129.285.285z" style="fill:#fbc02d;fill-opacity:1;fill-rule:nonzero;stroke:none" transform="matrix(1.33333 0 0 1.33333 0 0)"/><path d="M4.898 11.57a.096.096 0 0 1-.093.098.097.097 0 0 1-.098-.098c0-.05.043-.093.098-.093.05 0 .093.043.093.093z" style="fill:#263238;fill-opacity:1;fill-rule:nonzero;stroke:none" transform="matrix(1.33333 0 0 1.33333 0 0)"/><path d="M6.805 6.949H8.57c.25 0 .45.203.45.453v.559c0 .25-.2.453-.45.453H6.805a.45.45 0 0 1-.45-.453v-.559c0-.25.2-.453.45-.453zM6.805 8.855H8.57c.25 0 .45.2.45.454v.558c0 .25-.2.453-.45.453H6.805a.45.45 0 0 1-.45-.453v-.558c0-.254.2-.454.45-.454z" style="fill:#4d4d4d;fill-opacity:1;fill-rule:nonzero;stroke:none" transform="matrix(1.33333 0 0 1.33333 0 0)"/></svg>