<svg xmlns="http://www.w3.org/2000/svg" xml:space="preserve" width="24" height="24"><defs><linearGradient id="a" x1="12" x2="12" y1="0" y2="12" gradientTransform="matrix(.91667 0 0 .91667 1 1)" gradientUnits="userSpaceOnUse"><stop stop-color="#fff"/><stop offset="1" stop-color="#D9D9D9"/></linearGradient></defs><path fill="url(#a)" fill-rule="evenodd" d="M9.596 1.114c.12 0 .234-.014.344-.046a31.628 31.628 0 0 1 4.307.011c1.301.102 2.561.384 3.78.848 2.026.833 3.412 2.28 4.158 4.339.427 1.24.679 2.514.756 3.824a27.935 27.935 0 0 1-.115 4.923 11.882 11.882 0 0 1-.893 3.32c-.85 1.843-2.229 3.114-4.135 3.813a15.626 15.626 0 0 1-4.765.825 21.425 21.425 0 0 1-5.453-.413c-3.312-.737-5.354-2.756-6.128-6.056a19.046 19.046 0 0 1-.447-4.511 18.49 18.49 0 0 1 .515-4.786c.812-3.086 2.77-4.998 5.877-5.736a13.953 13.953 0 0 1 2.199-.355Z" clip-rule="evenodd" style="fill:url(#a);stroke-width:.916667"/><rect width="9.927" height="17.373" x="7.036" y="3.314" fill="#35373a" rx=".62" ry=".62" style="stroke-width:.31023"/><rect width="8.686" height="13.65" x="7.657" y="5.175" fill="#fff" opacity=".2" rx=".31" ry=".31" style="stroke-width:.31023"/><rect width="3.723" height=".62" x="10.139" y="3.934" fill="#212324" rx=".31" ry=".31" style="stroke-width:.31023"/><g transform="translate(-.01)"><circle cx="8.659" cy="17.739" r=".714" style="fill:#2e8bc8;fill-opacity:1;stroke:none;stroke-width:1.11429;stroke-linecap:round;stroke-linejoin:round;stroke-opacity:.15;paint-order:stroke fill markers"/><circle cx="10.334" cy="17.739" r=".714" style="fill:#f7326e;fill-opacity:1;stroke:none;stroke-width:1.11429;stroke-linecap:round;stroke-linejoin:round;stroke-opacity:.15;paint-order:stroke fill markers"/><circle cx="12.009" cy="17.739" r=".714" style="fill:#c0c1c2;fill-opacity:1;stroke:none;stroke-width:1.11429;stroke-linecap:round;stroke-linejoin:round;stroke-opacity:.15;paint-order:stroke fill markers"/><circle cx="13.684" cy="17.739" r=".714" style="fill:#d14132;fill-opacity:1;stroke:none;stroke-width:1.11429;stroke-linecap:round;stroke-linejoin:round;stroke-opacity:.15;paint-order:stroke fill markers"/><circle cx="15.359" cy="17.739" r=".714" style="fill:#29ba66;fill-opacity:1;stroke:none;stroke-width:1.11429;stroke-linecap:round;stroke-linejoin:round;stroke-opacity:.15;paint-order:stroke fill markers"/></g><g transform="translate(.011)"><rect width=".549" height=".549" x="8.018" y="5.529" rx=".275" ry=".037" style="fill:#c0c1c2;fill-opacity:1;stroke:none;stroke-linecap:round;stroke-linejoin:round;stroke-opacity:.15;paint-order:stroke fill markers"/><rect width=".549" height=".549" x="14.421" y="5.529" rx=".275" ry=".037" style="fill:#c0c1c2;fill-opacity:1;stroke:none;stroke-linecap:round;stroke-linejoin:round;stroke-opacity:.15;paint-order:stroke fill markers"/><rect width=".549" height=".549" x="15.41" y="5.529" rx=".275" ry=".037" style="fill:#c0c1c2;fill-opacity:1;stroke:none;stroke-linecap:round;stroke-linejoin:round;stroke-opacity:.15;paint-order:stroke fill markers"/></g></svg>