<svg xmlns="http://www.w3.org/2000/svg" width="64" height="64" version="1"><defs><linearGradient id="a" x1="29.049" x2="29.049" y1="3.457" y2="40.296" gradientTransform="matrix(1.4 0 0 .89655 -12.8 3.31)" gradientUnits="userSpaceOnUse"><stop offset="0" stop-color="#4285db"/><stop offset="1" stop-color="#42b9db"/></linearGradient><linearGradient id="b" x1="10.583" x2="225.69" y1="-184.68" y2="-184.68" gradientTransform="matrix(.14787 0 0 .18423 14.654 81.397)" gradientUnits="userSpaceOnUse"><stop offset="0" stop-color="#fafbfb"/><stop offset="1" stop-color="#fafbfb" stop-opacity="0"/></linearGradient><linearGradient id="c" x1="520" x2="410" y1="-620" y2="-620" gradientTransform="matrix(.03913 0 0 .04874 14.654 81.397)" gradientUnits="userSpaceOnUse"><stop offset="0"/><stop offset="1" stop-opacity="0"/></linearGradient></defs><rect width="46" height="56" x="9" y="4" fill="#4d4d4d" rx="4" ry="4" style="paint-order:stroke fill markers"/><rect width="42" height="52" x="11" y="6" fill="url(#a)" rx="2" ry="2" style="paint-order:stroke fill markers"/><path fill="#1a1a1a" d="M41.26 26.803 22.481 52.151h30.52v-6.332l-11.74-19.016z"/><path fill="#fff" d="M21.072 36.744 11 44.803V56c0 1.108.892 2 2 2h35.029L21.072 36.744z" opacity=".75"/><path fill="#fafbfb" d="m16.22 58 4.852-21.253L48.03 58z"/><path fill="#ccc" d="M41.262 24.854 35 33.141v24.86h16c1.108 0 2-.893 2-2V38.57L41.262 24.852z"/><path fill="#fff" d="M41.26 24.852 49.086 58H51c1.108 0 2-.892 2-2V38.57L41.26 24.851z"/><path fill="url(#b)" d="m16.22 58 4.852-21.253L48.03 58z"/><path fill="url(#c)" d="M33.435 46.494V58H35V47.729z" opacity=".35"/><circle cx="14" cy="9" r="1" fill="#333" style="paint-order:stroke fill markers"/><rect width="18" height="1" x="23" y="55" fill="#fff" rx=".5" ry=".5" style="paint-order:stroke fill markers"/></svg>