<svg xmlns="http://www.w3.org/2000/svg" width="24" height="24"><defs><radialGradient id="a" cx="0" cy="0" r="1" fx="0" fy="0" gradientTransform="matrix(0 16.5 -16.5 0 9 .75)" gradientUnits="userSpaceOnUse" spreadMethod="pad"><stop offset="0" style="stop-opacity:1;stop-color:#a4a4a4"/><stop offset="1" style="stop-opacity:1;stop-color:#626262"/></radialGradient><linearGradient id="c" x1="14" x2="6" y1="8" y2="16" gradientUnits="userSpaceOnUse"><stop offset="0" stop-color="#fff"/><stop offset=".125" stop-color="#fff" stop-opacity="0"/><stop offset="1" stop-color="#fff" stop-opacity="0"/></linearGradient><clipPath id="b"><path fill="#333" fill-rule="evenodd" stroke-width="2" d="M8 2.686v14l3.133-3.82 2.066 4.986a1 1 0 1 0 1.848-.766l-2.111-5.096 4.378.01Z"/></clipPath></defs><path d="M7.195.836c.09 0 .176-.012.258-.035a23.86 23.86 0 0 1 3.231.008 10.26 10.26 0 0 1 2.836.636c1.519.625 2.558 1.711 3.121 3.254.316.93.507 1.887.566 2.867a21.227 21.227 0 0 1-.086 3.696 8.976 8.976 0 0 1-.672 2.488c-.637 1.383-1.672 2.336-3.101 2.859a11.693 11.693 0 0 1-3.575.618 15.998 15.998 0 0 1-4.089-.309c-2.481-.551-4.016-2.066-4.594-4.543a14.244 14.244 0 0 1-.336-3.383c-.027-1.215.101-2.41.387-3.59.609-2.312 2.078-3.746 4.406-4.3A10.27 10.27 0 0 1 7.195.836Z" style="fill:url(#a);fill-rule:evenodd;stroke:none" transform="matrix(1.33333 0 0 1.33333 0 0)"/><path fill="#f9f9f9" fill-rule="evenodd" d="M8 2.686v14l3.133-3.82 2.066 4.986a1 1 0 1 0 1.848-.766l-2.111-5.096 4.378.01Z" clip-path="url(#b)" style="fill:#ededeb;fill-opacity:1;stroke:none" transform="matrix(.9109 -.24408 .23801 .88827 .372 6.13)"/></svg>