<svg xmlns="http://www.w3.org/2000/svg" xml:space="preserve" width="24" height="24" version="1"><defs><clipPath id="b" clipPathUnits="userSpaceOnUse"><path d="M0 0h19v19H0Z"/></clipPath><clipPath id="c" clipPathUnits="userSpaceOnUse"><path d="M0 0h19v19H0Z"/></clipPath><clipPath id="d" clipPathUnits="userSpaceOnUse"><path d="M0 0h19v19H0Z"/></clipPath><radialGradient id="a" cx="0" cy="0" r="1" fx="0" fy="0" gradientTransform="matrix(0 22 -22 0 46 1)" gradientUnits="userSpaceOnUse" spreadMethod="pad"><stop offset="0" style="stop-opacity:1;stop-color:#a4a4a4"/><stop offset="1" style="stop-opacity:1;stop-color:#626262"/></radialGradient></defs><path d="M43.593 1.115c.12 0 .235-.016.344-.047a31.814 31.814 0 0 1 4.308.01 13.68 13.68 0 0 1 3.782.849c2.025.833 3.41 2.281 4.161 4.338.421 1.24.676 2.516.755 3.823a28.303 28.303 0 0 1-.115 4.928 11.968 11.968 0 0 1-.896 3.317c-.85 1.844-2.23 3.115-4.135 3.812-1.542.522-3.13.798-4.766.824a21.331 21.331 0 0 1-5.452-.412c-3.308-.734-5.355-2.754-6.126-6.057a18.991 18.991 0 0 1-.448-4.51c-.036-1.62.135-3.214.516-4.787.812-3.083 2.771-4.995 5.875-5.734a13.692 13.692 0 0 1 2.197-.354Z" style="fill:url(#a);fill-rule:evenodd;stroke:none;stroke-width:1.33333" transform="translate(-34)"/><path d="M52 18.287V6.86c0-.953-.765-1.72-1.713-1.72h-8.574c-.948 0-1.713.767-1.713 1.72v11.427c0 .948.765 1.713 1.713 1.713h8.574c.948 0 1.713-.765 1.713-1.713Z" style="fill:#4d4d4d;fill-opacity:1;fill-rule:nonzero;stroke:none;stroke-width:1.33333" transform="translate(-34)"/><path d="M42.573 4a.57.57 0 0 0-.573.573v8.567c0 2.22 1.787 4 4 4s4-1.78 4-4V4.573A.57.57 0 0 0 49.427 4Z" style="fill:#ededeb;fill-opacity:1;fill-rule:nonzero;stroke:none;stroke-width:1.33333" transform="translate(-34)"/><path d="M10.285 9.855c0 .711-.574 1.29-1.285 1.29A1.288 1.288 0 0 1 9 8.57c.711 0 1.285.578 1.285 1.285z" clip-path="url(#b)" opacity=".5" style="fill:#bebebc;fill-opacity:1;fill-rule:nonzero;stroke:none" transform="matrix(1.33333 0 0 1.33333 0 0)"/><path d="M9.645 7.07a.646.646 0 0 1-1.29 0c0-.355.29-.64.645-.64.355 0 .645.285.645.64z" clip-path="url(#c)" opacity=".5" style="fill:#d7d9d6;fill-opacity:1;fill-rule:nonzero;stroke:none" transform="matrix(1.33333 0 0 1.33333 0 0)"/><path d="M9.645 5.355a.646.646 0 0 1-1.29 0 .645.645 0 0 1 1.29 0z" clip-path="url(#d)" opacity=".5" style="fill:#d7d9d6;fill-opacity:1;fill-rule:nonzero;stroke:none" transform="matrix(1.33333 0 0 1.33333 0 0)"/><path d="M47.14 13.14a1.14 1.14 0 1 1-2.28 0 1.14 1.14 0 1 1 2.28 0z" style="fill:#fff;fill-opacity:1;fill-rule:nonzero;stroke:none;stroke-width:1.33333" transform="translate(-34)"/></svg>