<svg xmlns="http://www.w3.org/2000/svg" xml:space="preserve" width="64" height="64" version="1"><defs><linearGradient id="c" x1="520" x2="410" y1="-620" y2="-620" gradientTransform="translate(18.557 59.5) scale(.0302)" gradientUnits="userSpaceOnUse"><stop offset="0"/><stop offset="1" stop-opacity="0"/></linearGradient><linearGradient id="b" x1="10.583" x2="225.69" y1="-184.68" y2="-184.68" gradientTransform="translate(18.557 59.5) scale(.11417)" gradientUnits="userSpaceOnUse"><stop offset="0" stop-color="#fafbfb"/><stop offset="1" stop-color="#fafbfb" stop-opacity="0"/></linearGradient><linearGradient id="a" x1="-240.47" x2="-240.47" y1="-60.605" y2="-29.026" gradientTransform="matrix(.96667 0 0 .95 262.45 67.575)" gradientUnits="userSpaceOnUse"><stop offset="0" stop-color="#4285db"/><stop offset="1" stop-color="#42b9db"/></linearGradient></defs><path d="m12.024 48.074-3.762 6.6h4.241l6.184-6.6z" style="opacity:1;fill:#b3b3b3;fill-opacity:1;stroke:none;stroke-width:.4;paint-order:stroke markers fill"/><path d="M12.507 54.674v.369H8.26v-.37z" style="fill:#ccc;fill-opacity:1;stroke-width:.360396"/><path d="m52.117 48.074 3.762 6.6h-4.241l-6.184-6.6z" style="opacity:1;fill:#b3b3b3;fill-opacity:1;stroke:none;stroke-width:.4;paint-order:stroke markers fill"/><path d="M51.634 54.674v.369h4.246v-.37z" style="fill:#ccc;fill-opacity:1;stroke-width:.360396"/><g transform="translate(0 3)"><rect width="60" height="40" x="-268.4" y="-63.763" fill="#4d4d4d" rx="5" ry="5" transform="translate(270.4 69.763)"/><rect width="58" height="38" x="3" y="7" fill="url(#a)" rx="4" ry="3.931"/><path fill="#1a1a1a" d="m24.599 41.375 14.5-15.708 12.083 15.708z"/><path fill="#e6e6e6" d="M23.512 31.828 4.444 44.074A4.01 4.01 0 0 0 7.001 45h37.324L23.513 31.828z" opacity=".9"/><path fill="#fafbfb" d="m19.766 45 3.746-13.171L44.326 45z"/><path fill="#b0b2b5" d="m39.1 24.459-4.834 5.135V45H57c1.094 0 2.08-.43 2.8-1.125L39.1 24.459z"/><path fill="#fff" d="M39.098 24.457 45.141 45H57c1.094 0 2.08-.43 2.8-1.125L39.099 24.457z"/><path fill="url(#b)" d="m19.766 45 3.746-13.171L44.326 45z"/><path fill="url(#c)" d="M33.057 37.87V45h1.208v-6.365z" opacity=".35"/></g></svg>