<svg xmlns="http://www.w3.org/2000/svg" xml:space="preserve" width="24" height="24" version="1"><defs><radialGradient id="a" cx="0" cy="0" r="1" fx="0" fy="0" gradientTransform="matrix(0 16.5 -16.5 0 9 .75)" gradientUnits="userSpaceOnUse" spreadMethod="pad"><stop offset="0" style="stop-opacity:1;stop-color:#a4a4a4"/><stop offset="1" style="stop-opacity:1;stop-color:#626262"/></radialGradient></defs><path d="M7.195.836c.09 0 .176-.012.258-.035a23.86 23.86 0 0 1 3.231.008 10.26 10.26 0 0 1 2.836.636c1.519.625 2.558 1.711 3.121 3.254.316.93.507 1.887.566 2.867a21.227 21.227 0 0 1-.086 3.696 8.976 8.976 0 0 1-.672 2.488c-.637 1.383-1.672 2.336-3.101 2.859a11.693 11.693 0 0 1-3.575.618 15.998 15.998 0 0 1-4.089-.309c-2.481-.551-4.016-2.066-4.594-4.543a14.244 14.244 0 0 1-.336-3.383c-.027-1.215.101-2.41.387-3.59.609-2.312 2.078-3.746 4.406-4.3A10.27 10.27 0 0 1 7.195.836Z" style="fill:url(#a);fill-rule:evenodd;stroke:none" transform="matrix(1.33333 0 0 1.33333 0 0)"/><path d="M15.713 5.713v12.574c0 .948-.765 1.713-1.713 1.713h-4a1.711 1.711 0 0 1-1.714-1.713V5.713C8.286 4.765 9.052 4 10 4h4c.948 0 1.713.765 1.713 1.713z" style="fill:#ededeb;fill-opacity:1;fill-rule:nonzero;stroke:none;stroke-width:1.33333"/><path d="M14 7.312c0-.219-.178-.452-.402-.452h-.738v-.745c0-.224-.24-.402-.46-.402h-.802c-.218 0-.458.178-.458.402v.745h-.74c-.223 0-.4.233-.4.452v.803c0 .224.177.458.4.458h.74v.739c0 .224.24.401.458.401h.803c.219 0 .459-.177.459-.401l-.006-.739h.744c.224 0 .402-.234.402-.458z" style="fill:#fff;fill-opacity:1;fill-rule:nonzero;stroke:#000;stroke-width:1;stroke-opacity:1;stroke-dasharray:none;stroke-linejoin:round;stroke-linecap:round;paint-order:stroke markers fill;opacity:.2"/><path d="M14 7.312c0-.219-.178-.452-.402-.452h-.738v-.745c0-.224-.24-.402-.46-.402h-.802c-.218 0-.458.178-.458.402v.745h-.74c-.223 0-.4.233-.4.452v.803c0 .224.177.458.4.458h.74v.739c0 .224.24.401.458.401h.803c.219 0 .459-.177.459-.401l-.006-.739h.744c.224 0 .402-.234.402-.458z" style="fill:#fff;fill-opacity:1;fill-rule:nonzero;stroke:none;stroke-width:1.33333"/><path d="M13.14 18.287a.859.859 0 0 1-.854-.86c0-.474.386-.854.854-.854a.856.856 0 1 1 0 1.714zM13.14 16a.858.858 0 1 1 .86-.86.86.86 0 0 1-.86.86zM10.86 18.287a.856.856 0 1 1 0-1.713c.468 0 .853.38.853.853 0 .474-.385.86-.853.86zM10.86 16a.86.86 0 0 1-.86-.86.858.858 0 1 1 .86.86z" style="fill:#d7d9d6;fill-opacity:1;fill-rule:nonzero;stroke:none;stroke-width:1.33333"/></svg>