<svg xmlns="http://www.w3.org/2000/svg" viewBox="0 0 16 16">
<style id="current-color-scheme" type="text/css">
.ColorScheme-Text{color:#fcfcfc}
</style>
<path d="M6 2c-1.108 0-2 .892-2 2s.892 2 2 2h4c1.108 0 2-.892 2-2s-.892-2-2-2zm0 1h4c.554 0 1 .446 1 1s-.446 1-1 1H6c-.554 0-1-.446-1-1s.446-1 1-1M3 7c-.554 0-1 .446-1 1s.446 1 1 1h10c.554 0 1-.446 1-1s-.446-1-1-1zm4.951 3A2 2 0 0 0 6 12a2 2 0 0 0 2 2 2 2 0 0 0 2-2 2 2 0 0 0-2-2zM8 11a1 1 0 0 1 1 1 1 1 0 0 1-1 1 1 1 0 0 1-1-1 1 1 0 0 1 1-1" class="ColorScheme-Text" style="fill:currentColor"/>
</svg>
