<svg xmlns="http://www.w3.org/2000/svg" width="64" height="64">
<style id="current-color-scheme" type="text/css">
.ColorScheme-Text{color:#fcfcfc}
</style>
<path d="M8 25c-1.662 0-3 1.338-3 3v9c0 1.662 1.338 3 3 3h4c1.662 0 3-1.338 3-3v-9c0-1.662-1.338-3-3-3zm36 0c-1.662 0-3 1.338-3 3v7c0 1.662 1.338 3 3 3h12c1.662 0 3-1.338 3-3v-7c0-1.662-1.338-3-3-3zM8 26h4c1.108 0 2 .892 2 2v9c0 1.108-.892 2-2 2H8c-1.108 0-2-.892-2-2v-9c0-1.108.892-2 2-2m15 0c-1.662 0-3 1.338-3 3v9h1v-9c0-1.108.892-2 2-2h10c1.108 0 2 .892 2 2v9h1v-9c0-1.662-1.338-3-3-3zm21 0h12c1.108 0 2 .892 2 2v7c0 1.108-.892 2-2 2H44c-1.108 0-2-.892-2-2v-7c0-1.108.892-2 2-2M8.5 27a.499.499 0 1 0 0 1h3a.499.499 0 1 0 0-1zm10 12a.499.499 0 1 0 0 1h19a.499.499 0 1 0 0-1zm27 0a.499.499 0 1 0 0 1h9a.499.499 0 1 0 0-1z" class="ColorScheme-Text" style="fill:currentColor"/>
</svg>
