<svg xmlns="http://www.w3.org/2000/svg" width="16" height="16.01">
<style id="current-color-scheme" type="text/css">
.ColorScheme-Text{color:#fcfcfc}
</style>
<path d="M3 1.01c-1.108 0-2 .892-2 2v10c0 1.108.892 2 2 2h5.762a4.5 4.5 0 0 1-.498-1H4a4 4 0 0 1 4-4 4 4 0 0 1 .719.068 4.5 4.5 0 0 1 .709-.851A5 5 0 0 0 8 9.01a5 5 0 0 0-4.943 4.281C3.03 13.201 3 13.11 3 13.01v-10c0-.554.446-1 1-1h8c.554 0 1 .446 1 1v5.03a4.5 4.5 0 0 1 1 .232V3.01c0-1.108-.892-2-2-2zm5 3a2 2 0 0 0-2 2 2 2 0 0 0 2 2 2 2 0 0 0 2-2 2 2 0 0 0-2-2m0 1a1 1 0 0 1 1 1 1 1 0 0 1-1 1 1 1 0 0 1-1-1 1 1 0 0 1 1-1" class="ColorScheme-Text" style="fill:currentColor"/>
<path class="ColorScheme-Text" style="fill:currentColor" d="M12.5 9.01a3.5 3.5 0 1 0 0 7 3.5 3.5 0 0 0 0-7m-.5 1h1v2h2v1h-2v2h-1v-2h-2v-1h2z" />
</svg>
