<svg xmlns="http://www.w3.org/2000/svg" viewBox="0 0 16 16">
<defs id="defs3051">
<style id="current-color-scheme" type="text/css">
.ColorScheme-Text{color:#fcfcfc}
</style>
</defs>
<path d="M5 2v10.938c-.107.02-.189.043-.3.062l.208 1L5 13.98V14h1v-.246c3.75-1.015 5.45-3.575 5.45-5.754h-1.108c0 .693-.35 2.03-.95 2.545-.611-.58-1.349-1.477-1.527-2.53L6.973 8c0 1.424 1.007 2.603 1.763 3.326-.684.695-1.497 1.1-2.736 1.406V2zm4.332 0c-.868.018-1.533.155-2.018.355l.272.9c.232-.072 1.11-.325 1.625-.325h.07c.717.027.766.262.766.818v.219l-.373.054c-1.735.228-2.662.42-2.662 1.622C7.012 6.48 7.687 7 8.666 7c.676 0 1.12-.255 1.574-.602l.14.51h1.07V3.54c0-1.03-.787-1.54-1.998-1.54zm.715 2.678v1.119c-.373.228-.655.392-1.139.392-.434 0-.646-.245-.646-.591 0-.656.635-.765 1.412-.866z" class="ColorScheme-Text" style="fill:currentColor;fill-opacity:1;stroke:none"/>
</svg>
