<svg xmlns="http://www.w3.org/2000/svg" viewBox="0 0 16 16">
<defs id="defs3051">
<style id="current-color-scheme" type="text/css">
.ColorScheme-Text{color:#fcfcfc}
</style>
</defs>
<path d="M8 2a3 3 0 0 0-3 3H2v9h12V5h-3a3 3 0 0 0-3-3m0 1a2 2 0 0 1 2 2H6a2 2 0 0 1 2-2M3 6h2v1.088A1.5 1.5 0 0 0 4 8.5 1.5 1.5 0 0 0 5.5 10 1.5 1.5 0 0 0 7 8.5a1.5 1.5 0 0 0-1-1.412V6h4v1.088A1.5 1.5 0 0 0 9 8.5a1.5 1.5 0 0 0 1.5 1.5A1.5 1.5 0 0 0 12 8.5a1.5 1.5 0 0 0-1-1.412V6h2v7H3zm2.5 2a.5.5 0 0 1 .5.5.5.5 0 0 1-.5.5.5.5 0 0 1-.5-.5.5.5 0 0 1 .5-.5m5 0a.5.5 0 0 1 .5.5.5.5 0 0 1-.5.5.5.5 0 0 1-.5-.5.5.5 0 0 1 .5-.5" class="ColorScheme-Text" style="fill:currentColor;fill-opacity:1;stroke:none"/>
</svg>
