<svg xmlns="http://www.w3.org/2000/svg" viewBox="0 0 16 16">
<defs id="defs3051">
<style id="current-color-scheme" type="text/css">
.ColorScheme-Text{color:#fcfcfc}
</style>
</defs>
<path d="M8 2a2 2 0 0 0-.5 3.938V8H5v1h2.5v3.969c-1.188-.076-2.564-.579-3.562-1.125l.5-.656-.844-.563L2 12.781s.843.527.844.531l.469-.624C4.617 13.429 6.406 14 8 14c1.599 0 3.352-.599 4.656-1.344l.5.656.844-.562-1.625-2.156-.812.594.468.624c-1 .554-2.33 1.08-3.531 1.157V9H11V8H8.5V5.938A2.001 2.001 0 0 0 8 2m0 1a1 1 0 1 1 0 2 1 1 0 0 1 0-2" class="ColorScheme-Text" style="fill:currentColor;fill-opacity:1;stroke:none"/>
</svg>
