<svg xmlns="http://www.w3.org/2000/svg" viewBox="0 0 16 16">
<style id="current-color-scheme" type="text/css">
.ColorScheme-Text{color:#fcfcfc}
</style>
<g fill="currentColor" class="ColorScheme-Text">
<path d="M7 2v1h1v1h1V3H8V2zm1 2H7v1h1zm0 1v1h1V5zm0 1H7v2h2V7H8z"/>
<path d="M3 1c-1.108 0-2 .892-2 2v10c0 1.108.892 2 2 2h5.762a4.5 4.5 0 0 1-.498-1H3c-.554 0-1-.446-1-1V3c0-.554.446-1 1-1h10c.554 0 1 .446 1 1v5.264a4.5 4.5 0 0 1 1 .496V3c0-1.108-.892-2-2-2z"/>
<path d="M12.5 9A3.5 3.5 0 0 0 9 12.5a3.5 3.5 0 0 0 3.5 3.5 3.5 3.5 0 0 0 3.5-3.5A3.5 3.5 0 0 0 12.5 9m0 1.086 2.5 2.5-.707.707L13 12v3h-1v-3l-1.293 1.293-.707-.707z"/>
</g>
</svg>
