<svg width="24" height="24" viewBox="0 0 24 24" fill="none" xmlns="http://www.w3.org/2000/svg">
<defs>
<style id="current-color-scheme" type="text/css">.ColorScheme-Text { color:#ffffff; }</style>
</defs>
<g opacity="0.90">
<path class="ColorScheme-Text" d="M20.7348 23.2402C20.4402 23.5348 19.9619 23.5328 19.6697 23.2356L17.275 20.8C16.8583 21.05 16.4125 21.2667 15.9375 21.45C15.6362 21.5663 15.3231 21.6625 14.9983 21.7385C14.6995 21.8085 14.425 21.5727 14.425 21.2658V19.6165C14.425 19.3307 14.6289 19.0904 14.9 19C15.05 18.95 15.2 18.8833 15.35 18.8L12.425 15.85V21.2896C12.425 21.7355 11.8855 21.9584 11.5708 21.6424L6.29313 16.3443C6.10548 16.1559 5.85054 16.05 5.58465 16.05H3.35C2.24543 16.05 1.35 15.1546 1.35 14.05V9.95C1.35 8.84543 2.24543 7.95 3.35 7.95H4.775L0.638629 3.6802C0.35365 3.38603 0.357367 2.91763 0.646979 2.62802L1.41311 1.86189C1.70856 1.56644 2.18846 1.56939 2.48025 1.86844L21.5326 21.3947C21.8194 21.6886 21.8165 22.1585 21.5261 22.4489L20.7348 23.2402ZM21.075 17.15L19.15 15.175C19.3833 14.675 19.5667 14.1583 19.7 13.625C19.8333 13.0917 19.9 12.5417 19.9 11.975C19.9 10.3083 19.3875 8.81667 18.3625 7.5C17.454 6.33297 16.3196 5.49983 14.9594 5.00058C14.6465 4.88573 14.425 4.59583 14.425 4.2625V2.71243C14.425 2.39608 14.7155 2.15863 15.0216 2.23856C17.1207 2.78666 18.8676 3.90298 20.2625 5.5875C21.7875 7.42917 22.55 9.55833 22.55 11.975C22.55 12.925 22.4208 13.8333 22.1625 14.7C21.9042 15.5667 21.5417 16.3833 21.075 17.15ZM17.2 13.2L14.425 10.375V9.12737C14.425 8.39396 15.1905 7.92546 15.7412 8.40979C16.0594 8.68958 16.3456 9.00715 16.6 9.3625C17.1667 10.1542 17.45 11.0333 17.45 12C17.45 12.2167 17.4292 12.425 17.3875 12.625C17.3458 12.825 17.2833 13.0167 17.2 13.2ZM12.425 8.3L9.1 4.85L11.5701 2.3613C11.8846 2.0445 12.425 2.26717 12.425 2.71353V8.3Z" fill="currentColor"/>
</g>
<rect x="1.95519" y="1.32517" width="28.8031" height="2.65513" rx="0.75" transform="rotate(45.6731 1.95519 1.32517)" fill="url(#paint0_linear_52_72)"/>
<rect width="24" height="24" fill="#A4A4A4" fill-opacity="0.01"/>
<defs>
<linearGradient id="paint0_linear_52_72" x1="28.7009" y1="1.52325" x2="28.2892" y2="6.0129" gradientUnits="userSpaceOnUse">
<stop stop-color="#E7463E"/>
<stop offset="1" stop-color="#C84D58"/>
</linearGradient>
</defs>
</svg>
