<svg xmlns="http://www.w3.org/2000/svg" viewBox="0 0 16 16">
<defs>
<style id="current-color-scheme" type="text/css">
.ColorScheme-Text{color:#fcfcfc}
</style>
</defs>
<path fill="currentColor" d="M8 2 6 4h4zM7 5c-1.108 0-2 .892-2 2v2c0 1.108.892 2 2 2h2c1.108 0 2-.892 2-2V7c0-1.108-.892-2-2-2zm0 1h2c.554 0 1 .446 1 1v2c0 .554-.446 1-1 1H7c-.554 0-1-.446-1-1V7c0-.554.446-1 1-1m-1 6 2 2 2-2zM3 1c-1.108 0-2 .892-2 2v1h1V3c0-.554.446-1 1-1h1V1zm9 0v1h1c.554 0 1 .446 1 1v1h1V3c0-1.108-.896-2.098-2-2zM1 12v1c0 1.108.899 1.879 2 2h1v-1H3c-.554 0-1-.446-1-1v-1zm13 0v1c0 .554-.446 1-1 1h-1v1h1c1.108 0 2-.892 2-2v-1z" class="ColorScheme-Text"/>
</svg>
