<svg xmlns="http://www.w3.org/2000/svg" width="16" height="16">
<path fill="#fcfcfc" d="M8 0a8 8 0 0 0-8 8 8 8 0 0 0 8 8 8 8 0 0 0 8-8 8 8 0 0 0-8-8m0 1a7 7 0 0 1 7 7 7 7 0 0 1-7 7 7 7 0 0 1-7-7 7 7 0 0 1 7-7" style="paint-order:stroke fill markers"/>
<path fill="#fcfcfc" d="M7.824.014a8 8 0 0 0-1.011.078A5.5 5.5 0 0 1 7 1.5 5.5 5.5 0 0 1 1.5 7a5.5 5.5 0 0 1-1.404-.201 8 8 0 0 0-.082 1.01A6.5 6.5 0 0 0 1.5 8 6.5 6.5 0 0 0 8 1.5 6.5 6.5 0 0 0 7.824.014M14.5 8A6.5 6.5 0 0 0 8 14.5a6.5 6.5 0 0 0 .191 1.486 8 8 0 0 0 1.01-.082A5.5 5.5 0 0 1 9 14.5 5.5 5.5 0 0 1 14.5 9a5.5 5.5 0 0 1 1.408.187 8 8 0 0 0 .078-1.011A6.5 6.5 0 0 0 14.5 8" style="paint-order:stroke fill markers"/>
</svg>
