<svg xmlns="http://www.w3.org/2000/svg" width="16" height="16">
<path fill="#fcfcfc" d="M8 .508s-1.059.898-.996 1.496C7.047 2.469 7.53 3 8 3s.953-.531.996-.996C9.06 1.406 8 .508 8 .508"/>
<path fill="#fcfcfc" fill-rule="evenodd" d="M3 7c-1.108 0-2 .892-2 2v6h1V9c0-.554.446-1 1-1h10c.554 0 1 .446 1 1v6h1V9c0-1.108-.892-2-2-2z" style="paint-order:stroke fill markers"/>
<rect width="16" height="1" y="15" fill="#fcfcfc" fill-rule="evenodd" rx="0" ry="0" style="paint-order:stroke fill markers"/>
<path fill="#fcfcfc" d="m1 11 4 1 3-1 3 1 4-1v1l-4 1-3-1-3 1-4-1z"/>
<path fill="#fcfcfc" d="M7.5 4h1v4h-1z" style="paint-order:stroke fill markers"/>
</svg>
