<svg xmlns="http://www.w3.org/2000/svg" viewBox="0 0 16 16">
<defs>
<style id="current-color-scheme" type="text/css">
.ColorScheme-Text{color:#fcfcfc}
</style>
</defs>
<path fill="currentColor" d="M2 2C.892 2 0 2.892 0 4v9c0 1.108.892 2 2 2h7v-2a1 1 0 0 1 .293-.707l2.5-2.5L10 8l-3.479 4L4 10l-3 3V4c0-.554.446-1 1-1h12c.554 0 1 .446 1 1v4.586l1 1V4c0-1.108-.892-2-2-2zm2.5 3a1.5 1.5 0 1 0 0 3 1.5 1.5 0 0 0 0-3" class="ColorScheme-Text"/>
<path fill="currentColor" d="m14 9-4 4v2h2l4-4zm-.312 1.688.593.593-2.969 3-.593-.594z" class="ColorScheme-Text"/>
</svg>
