<svg xmlns="http://www.w3.org/2000/svg" viewBox="0 0 16 16">
<defs>
<style id="current-color-scheme" type="text/css">
.ColorScheme-Text{color:#fcfcfc}
</style>
</defs>
<path fill="currentColor" d="M3 1c-1.108 0-2 .892-2 2v10c0 1.108.892 2 2 2h10c1.108 0 2-.892 2-2V3c0-1.108-.892-2-2-2zm0 3h10c.554 0 1 .446 1 1v8c0 .554-.446 1-1 1H3c-.554 0-1-.446-1-1V5c0-.554.446-1 1-1" class="ColorScheme-Text"/>
<g fill="currentColor" class="ColorScheme-Text">
<path d="M3.5 7c-.277 0-.5.223-.5.5v4c0 .277.223.5.5.5h2c.277 0 .5-.223.5-.5v-4c0-.277-.223-.5-.5-.5zM4 8h1v3H4z"/>
<rect width="6" height="1" x="7" y="7" ry=".5"/>
<rect width="6" height="1" x="7" y="9" ry=".5"/>
<rect width="6" height="1" x="7" y="11" ry=".5"/>
</g>
</svg>
