<svg xmlns="http://www.w3.org/2000/svg" viewBox="0 0 16 16">
<defs>
<style id="current-color-scheme" type="text/css">
.ColorScheme-Text{color:#fcfcfc}.ColorScheme-NegativeText{color:#da4453}
</style>
</defs>
<path fill="currentColor" d="m9.71 9.03-.707.707 1.793 1.793-1.793 1.793.707.707 1.793-1.793 1.793 1.793.707-.707-1.793-1.793 1.793-1.793-.707-.707-1.793 1.793z" class="ColorScheme-NegativeText"/>
<path fill="currentColor" d="M5 0C3.892 0 3 .892 3 2v13l5-1.594v-1l-4 1.188V2c0-.554.446-1 1-1h6c.554 0 1 .446 1 1v6h1V2c0-1.108-.892-2-2-2z" class="ColorScheme-Text"/>
</svg>
