<svg xmlns="http://www.w3.org/2000/svg" width="16" height="16">
<path fill="#fcfcfc" d="M8.469 6a.5.5 0 0 0-.125.027l-3 1a.499.499 0 1 0 .312.95l3-1A.502.502 0 0 0 8.47 6m0 2a.5.5 0 0 0-.125.027l-3 1a.499.499 0 1 0 .312.95l3-1A.502.502 0 0 0 8.47 8m0 2a.5.5 0 0 0-.125.027l-3 1a.499.499 0 1 0 .312.95l3-1A.502.502 0 0 0 8.47 10"/>
<path fill="#fcfcfc" d="M3.5 1A3.49 3.49 0 0 0 0 4.5a3.49 3.49 0 0 0 3 3.463V6.949A2.49 2.49 0 0 1 1 4.5C1 3.115 2.115 2 3.5 2h9C13.885 2 15 3.115 15 4.5a2.49 2.49 0 0 1-2 2.45v1.013A3.49 3.49 0 0 0 16 4.5C16 2.561 14.439 1 12.5 1z" style="paint-order:stroke fill markers"/>
<path fill="#fcfcfc" d="M2 7v6c0 1.108.892 2 2 2h8c1.108 0 2-.892 2-2V7h-1v6c0 .554-.446 1-1 1H4c-.554 0-1-.446-1-1V7z" style="paint-order:stroke fill markers"/>
<path fill="#fcfcfc" d="M9 1v1h1.5C11.885 2 13 3.115 13 4.5a2.49 2.49 0 0 1-2 2.45V13c0 .554-.446 1-1 1H9v1h1c1.108 0 2-.892 2-2V7.66c1.184-.56 2-1.759 2-3.16C14 2.561 12.439 1 10.5 1z" style="paint-order:stroke fill markers"/>
</svg>
