<svg xmlns="http://www.w3.org/2000/svg" width="32" height="32" viewBox="0 0 8.5 8.5">
<style id="current-color-scheme" type="text/css">
.ColorScheme-Text{color:#fcfcfc}
</style>
<path d="M2.127 1.6a.527.527 0 0 0-.527.527.527.527 0 0 0 .527.526.527.527 0 0 0 .526-.526.527.527 0 0 0-.526-.527m2.123 0a.527.527 0 0 0-.527.527.527.527 0 0 0 .527.526.527.527 0 0 0 .527-.526.527.527 0 0 0-.527-.527m2.12 0a.527.527 0 0 0-.526.527.527.527 0 0 0 .526.526.527.527 0 0 0 .527-.526.527.527 0 0 0-.527-.527M2.127 3.723a.527.527 0 0 0-.527.527.527.527 0 0 0 .527.527.527.527 0 0 0 .526-.527.527.527 0 0 0-.526-.527m2.123 0a.527.527 0 0 0-.527.527.527.527 0 0 0 .527.527.527.527 0 0 0 .526-.527.527.527 0 0 0-.526-.527m2.12 0a.527.527 0 0 0-.526.527.527.527 0 0 0 .526.527.527.527 0 0 0 .527-.527.527.527 0 0 0-.527-.527M2.126 5.848a.527.527 0 0 0-.526.527.527.527 0 0 0 .526.527.527.527 0 0 0 .527-.527.527.527 0 0 0-.527-.527m2.124 0a.527.527 0 0 0-.527.527.527.527 0 0 0 .527.527.527.527 0 0 0 .526-.527.527.527 0 0 0-.526-.527m2.12 0a.527.527 0 0 0-.526.527.527.527 0 0 0 .526.527.527.527 0 0 0 .527-.527.527.527 0 0 0-.527-.527" class="ColorScheme-Text" style="fill:currentColor"/>
</svg>
