<svg xmlns="http://www.w3.org/2000/svg" viewBox="0 0 16 16">
<style id="current-color-scheme" type="text/css">
.ColorScheme-Text{color:#fcfcfc}
</style>
<path d="M4.668 1.168a.499.499 0 0 0-.354.854L6.03 3.736A3 3 0 0 0 5 6H2.5a.499.499 0 1 0 0 1H5v2H2.5a.499.499 0 1 0 0 1H5v2H2.5a.499.499 0 1 0 0 1h2.67c.41 1.167 1.52 2 2.83 2s2.42-.833 2.83-2h2.67a.499.499 0 1 0 0-1H11v-2h2.5a.499.499 0 1 0 0-1H11V7h2.5a.499.499 0 1 0 0-1H11c0-.907-.4-1.716-1.031-2.266l1.713-1.71a.499.499 0 1 0-.707-.708L9.088 3.203a3 3 0 0 0-2.178 0L5.022 1.314a.5.5 0 0 0-.354-.146M8 4c1.108 0 2 .892 2 2v6c0 1.108-.892 2-2 2s-2-.892-2-2V6c0-1.108.892-2 2-2" class="ColorScheme-Text" style="fill:currentColor"/>
</svg>
