<svg xmlns="http://www.w3.org/2000/svg" width="16" height="16">
<path fill="#fcfcfc" d="M4 1c-1.108 0-2 .892-2 2v12H1v1h14v-1h-1V3c0-1.108-.892-2-2-2zm0 1h2v2H3V3c0-.554.446-1 1-1m3 0h2v2H7zm3 0h2c.554 0 1 .446 1 1v1h-3zM3 5h3v2H3zm4 0h2v2H7zm3 0h3v2h-3zM3 8h3v2H3zm4 0h2v2H7zm3 0h3v2h-3zm-7 3h10v4H3z" style="paint-order:stroke fill markers"/>
<path fill="#fcfcfc" d="M8 11c-1.108 0-2 .892-2 2v3h1v-3c0-.554.446-1 1-1s1 .446 1 1v3h1v-3c0-1.108-.892-2-2-2" style="paint-order:stroke fill markers"/>
</svg>
