<svg xmlns="http://www.w3.org/2000/svg" viewBox="0 0 16 16">
<defs>
<style id="current-color-scheme" type="text/css">
.ColorScheme-Text{color:#fcfcfc}
</style>
</defs>
<path fill="currentColor" d="M7.998 2.04A8.286 7.633 0 0 0-.01 7.77a1.04.958 0 0 0 0 .478A8.295 7.642 0 0 0 8 13.961h.002a8.286 7.633 0 0 0 8.008-5.73 1.04.958 0 0 0 0-.481A8.29 7.637 0 0 0 8 2.04zM8 3a7.237 6.667 0 0 1 7 4.992A7.237 6.667 0 0 1 8 13a7.237 6.667 0 0 1-7-4.992A7.237 6.667 0 0 1 8 3" class="ColorScheme-Text"/>
<path fill="currentColor" d="M8 5a3 3 0 0 0-3 3 3 3 0 0 0 3 3 3 3 0 0 0 3-3 3 3 0 0 0-3-3m0 1a2 2 0 0 1 2 2 2 2 0 0 1-2 2 2 2 0 0 1-2-2 2 2 0 0 1 2-2" class="ColorScheme-Text"/>
</svg>
