<svg xmlns="http://www.w3.org/2000/svg" viewBox="0 0 16 16">
<style id="current-color-scheme" type="text/css">
.ColorScheme-Text{color:#fcfcfc}
</style>
<g fill="currentColor" fill-rule="evenodd" class="ColorScheme-Text">
<path d="M3.5 5A3.5 3.5 0 0 0 0 8.5 3.5 3.5 0 0 0 3.5 12 3.5 3.5 0 0 0 7 8.5 3.5 3.5 0 0 0 3.5 5m0 1A2.5 2.5 0 0 1 6 8.5 2.5 2.5 0 0 1 3.5 11 2.5 2.5 0 0 1 1 8.5 2.5 2.5 0 0 1 3.5 6m9-1A3.5 3.5 0 0 0 9 8.5a3.5 3.5 0 0 0 3.5 3.5A3.5 3.5 0 0 0 16 8.5 3.5 3.5 0 0 0 12.5 5m0 1A2.5 2.5 0 0 1 15 8.5a2.5 2.5 0 0 1-2.5 2.5A2.5 2.5 0 0 1 10 8.5 2.5 2.5 0 0 1 12.5 6"/>
<path d="M3.5 11h9v1h-9zM1 31h14v1H1z"/>
</g>
</svg>
