<svg xmlns="http://www.w3.org/2000/svg" width="16" height="17">
<style id="current-color-scheme" type="text/css">
.ColorScheme-Text{color:#fcfcfc}
</style>
<path d="M2 2C.892 2 0 2.892 0 4v7c0 1.108.892 2 2 2h6.666l3.734 2.8A1 1 0 0 0 14 15v-2.275A1.99 1.99 0 0 0 15 11V4c0-1.108-.892-2-2-2zm0 1h11c.554 0 1 .446 1 1v7c0 .554-.446 1-1 1v3l-2.666-2L9 12H2c-.554 0-1-.446-1-1V4c0-.554.446-1 1-1" class="ColorScheme-Text" style="fill:currentColor"/>
<path  class="ColorScheme-Text" style="fill:currentColor" d="M7 4v3H4v1h3v3h1V8h3V7H8V4z"/>
</svg>
