<svg xmlns="http://www.w3.org/2000/svg" viewBox="0 0 16 16">
<defs id="defs3051">
<style id="current-color-scheme" type="text/css">
.ColorScheme-Text{color:#fcfcfc}
</style>
</defs>
<path d="M5.256 2.598A7 7 0 0 0 2 5.504l.867.5A6 6 0 0 1 5.65 3.518zm5.488 0-.394.92a6 6 0 0 1 2.783 2.486l.867-.5a7 7 0 0 0-3.256-2.906M8 4a5 5 0 0 0-5 5 5 5 0 0 0 5 5 5 5 0 0 0 5-5 5 5 0 0 0-5-5m0 1a4 4 0 0 1 4 4 4 4 0 0 1-4 4 4 4 0 0 1-4-4 4 4 0 0 1 4-4M6 7v4h1V7zm3 0v4h1V7z" class="ColorScheme-Text" style="fill:currentColor;fill-opacity:1;stroke:none"/>
</svg>
