<svg xmlns="http://www.w3.org/2000/svg" viewBox="0 0 16 16">
<defs id="defs3051">
<style id="current-color-scheme" type="text/css">
.ColorScheme-Text{color:#fcfcfc}
</style>
</defs>
<path d="M8 2a1.5 1.5 0 0 0-1.5 1.5 1.5 1.5 0 0 0 .168.686A5 5 0 0 0 3 9a5 5 0 0 0 5 5 5 5 0 0 0 5-5 5 5 0 0 0-1.133-3.162l.944-.945.017-.018.004-.002A.5.5 0 0 0 13 4.5a.5.5 0 0 0-.5-.5.5.5 0 0 0-.373.168l-.002-.002-.965.965a5 5 0 0 0-1.824-.95V4.18A1.5 1.5 0 0 0 9.5 3.5 1.5 1.5 0 0 0 8 2m0 1a.5.5 0 0 1 .5.5.5.5 0 0 1-.5.5.5.5 0 0 1-.5-.5A.5.5 0 0 1 8 3m0 2a4 4 0 0 1 4 4 4 4 0 0 1-4 4 4 4 0 0 1-4-4 4 4 0 0 1 4-4m0 1v2a1 1 0 0 1 1 1h2a3 3 0 0 0-3-3" class="ColorScheme-Text" style="fill:currentColor;fill-opacity:1;stroke:none"/>
</svg>
