<svg xmlns="http://www.w3.org/2000/svg" viewBox="0 0 16 16">
<defs id="defs3051">
<style id="current-color-scheme" type="text/css">
.ColorScheme-Text{color:#fcfcfc}
</style>
</defs>
<path d="M5.26 2.6a7 7 0 0 0-3.254 2.906l.865.5A6 6 0 0 1 5.654 3.52zm5.49 0-.395.92a6 6 0 0 1 2.784 2.486l.867-.5A7 7 0 0 0 10.75 2.6M8.004 4a5 5 0 0 0-5 5 5 5 0 0 0 5 5 5 5 0 0 0 5-5 5 5 0 0 0-5-5m0 1a4 4 0 0 1 4 4 4 4 0 0 1-4 4 4 4 0 0 1-4-4 4 4 0 0 1 4-4M6.5 6.5v5L10 9z" class="ColorScheme-Text" style="fill:currentColor;fill-opacity:1;stroke:none"/>
</svg>
