<svg xmlns="http://www.w3.org/2000/svg" viewBox="0 0 16 16">
<defs id="defs3051">
<style id="current-color-scheme" type="text/css">
.ColorScheme-Text{color:#fcfcfc}
</style>
</defs>
<path d="M6.5 2C4.007 2 2 4.01 2 6.5 2 8.993 4.01 11 6.5 11a4.46 4.46 0 0 0 2.795-.994l3.998 3.998.707-.707-3.998-3.998A4.46 4.46 0 0 0 11 6.5C11 4.007 8.99 2 6.5 2m0 1C8.439 3 10 4.561 10 6.5S8.439 10 6.5 10A3.49 3.49 0 0 1 3 6.5C3 4.561 4.561 3 6.5 3" class="ColorScheme-Text" style="fill:currentColor;fill-opacity:1;stroke:none"/>
</svg>
