<svg xmlns="http://www.w3.org/2000/svg" viewBox="0 0 16 16">
<defs id="defs3051">
<style id="current-color-scheme" type="text/css">
.ColorScheme-Text{color:#fcfcfc}
</style>
</defs>
<path d="M6 2a2 2 0 0 0-2 2v3a.5.5 0 0 1-.5.5H3v1h.5A.5.5 0 0 1 4 9v3a2 2 0 0 0 2 2h1v-1H6a1 1 0 0 1-1-1V9a1.5 1.5 0 0 0-.375-1A1.5 1.5 0 0 0 5 7V4a1 1 0 0 1 1-1h1V2zm3 0v1h1a1 1 0 0 1 1 1v3c0 .382.14.735.375 1A1.5 1.5 0 0 0 11 9v3a1 1 0 0 1-1 1H9v1h1a2 2 0 0 0 2-2V9a.5.5 0 0 1 .5-.5h.5v-1h-.5A.5.5 0 0 1 12 7V4a2 2 0 0 0-2-2z" class="ColorScheme-Text" style="fill:currentColor;fill-opacity:1;stroke:none"/>
</svg>
