<svg xmlns="http://www.w3.org/2000/svg" viewBox="0 0 16 16">
<defs>
<style id="current-color-scheme" type="text/css">
.ColorScheme-Text{color:#fcfcfc}
</style>
</defs>
<path d="M6 2c-.562 1.963-1.703 3.675-2.819 5.358-.642 1.007-1.372 2.153-1.135 3.405.26 1.762 1.892 3.132 3.646 3.226 1.798.167 3.655-1.005 4.156-2.762.264-.821.166-1.684-.216-2.451-.768-1.547-1.89-2.886-2.67-4.428A13.7 13.7 0 0 1 6 2m2.768 6.225c.396.665.741 1.413.65 2.208-.102 1.582-1.51 2.887-3.067 3.005a3.52 3.52 0 0 1-2.374-.626c1.824.446 3.9-.556 4.602-2.315.303-.715.345-1.516.189-2.272" class="ColorScheme-Text" style="fill:currentColor;fill-opacity:1;stroke:none"/>
<path d="M10 1a13 13 0 0 1-.63 1.67c-.508 1.11-1.12 2.05-1.693 2.922.097.157.188.292.285.443l.04-.064C8.663 4.975 9.42 3.83 10 2.465c.58 1.366 1.338 2.51 1.996 3.506.446.694.95 1.454 1.287 2.299.09.295.144.6.145.912 0 1.807-1.534 3.273-3.428 3.273-.253 0-.497-.03-.734-.08q-.178.24-.391.453A4.1 4.1 0 0 0 10 13c2.209 0 4-1.71 4-3.818 0-.058-.012-.117-.016-.176L14 9c-.004-.025-.017-.053-.021-.078-.186-1.704-2.115-3.552-3.348-6.252A13 13 0 0 1 10 1" class="ColorScheme-Text" style="fill:currentColor;fill-opacity:1;stroke:none"/>
</svg>
