<svg xmlns="http://www.w3.org/2000/svg" viewBox="0 0 16 16">
<defs id="defs3051">
<style id="current-color-scheme" type="text/css">
.ColorScheme-Text{color:#fcfcfc}
</style>
</defs>
<path d="M8.057 2a2.01 2.01 0 0 0-2.02 2v1.75L2 9.75 6.291 14 12 8.344l-1.42-1.406-.504-.5V4c0-1.105-.904-2-2.02-2m0 1c.557 0 1.01.448 1.01 1v1.438L7.708 4.093l-.662.656V4c0-.552.452-1 1.01-1m-.348 2.5 2.871 2.844c-3 3.393-3.292-1.127-7.16 1.406zM12.5 9c-.292 1.064-1.021 1.977-1.336 2.709a1.6 1.6 0 0 0-.164.729c0 .865.669 1.562 1.5 1.562s1.5-.697 1.5-1.562c0-.265-.077-.511-.187-.729-.315-.732-1.021-1.645-1.313-2.709" class="ColorScheme-Text" style="fill:currentColor;fill-opacity:1;stroke:none"/>
</svg>
