<svg xmlns="http://www.w3.org/2000/svg" width="16" height="16">
<path fill="#fcfcfc" d="M2 3c-.436 0-.813.165-1.11.363-.296.198-.516.41-.656.686l.344-.211a.5.5 0 0 0-.35.219C-.007 4.54 0 4.992 0 4.992V11c0 .436.165.814.363 1.111s.412.519.692.658c.482.24.937.231.94.231h9.743c.302 0 .592-.14.778-.371l3.238-4c.291-.36.291-.898 0-1.258l-3.238-4A1 1 0 0 0 11.738 3zm0 1h9.738l.034.037-.018-.016L14.977 8l-3.223 3.978.018-.015-.034.037H1.976s-.217.003-.476-.125a1.4 1.4 0 0 1-.305-.318C1.078 11.38 1 11.17 1 11V4.98s.002-.22.125-.478c.007-.014.145-.19.32-.307S1.83 4 2 4" color="#000" style="-inkscape-stroke:none"/>
</svg>
