<svg xmlns="http://www.w3.org/2000/svg" width="16" height="16">
<path fill="#fcfcfc" d="M3.5 0A2.52 2.52 0 0 0 1 2.5v6a5.68 5.68 0 0 0 2.523 4.719l3.922 2.613c.336.223.774.223 1.11 0l3.922-2.613A5.68 5.68 0 0 0 15 8.5v-6C15 1.133 13.867 0 12.5 0zm0 1h9c.815 0 1.5.685 1.5 1.5v6a4.68 4.68 0 0 1-2.078 3.887l-3.92 2.611c-.003.002-.001.002-.004 0l-3.92-2.611A4.68 4.68 0 0 1 2 8.5v-6C2 1.685 2.685 1 3.5 1"/>
<path fill="#fcfcfc" d="M8 4a2 2 0 0 0-2 2 2 2 0 0 0 1 1.727V10c0 .554.446 1 1 1s1-.446 1-1V7.727A2 2 0 0 0 10 6a2 2 0 0 0-2-2m0 1a1 1 0 0 1 1 1 1 1 0 0 1-1 1 1 1 0 0 1-1-1 1 1 0 0 1 1-1"/>
</svg>
