<svg xmlns="http://www.w3.org/2000/svg" viewBox="0 0 16 16">
<defs>
<style id="current-color-scheme" type="text/css">
.ColorScheme-Text{color:#fcfcfc}
</style>
</defs>
<path fill="currentColor" d="M8 5C6.338 5 5 6.338 5 8s1.338 3 3 3c.65 0 1.26-.214 1.75-.562L12.281 13l.719-.719-2.563-2.531C10.786 9.26 11 8.65 11 8c0-1.662-1.338-3-3-3m0 1c1.108 0 2 .892 2 2s-.892 2-2 2-2-.892-2-2 .892-2 2-2" class="ColorScheme-Text"/>
<path fill="currentColor" d="M4 1c-1.108 0-2 .892-2 2v10c0 1.108.892 2 2 2h5v-1H4c-.554 0-1-.446-1-1V3c0-.554.446-1 1-1h8c.554 0 1 .446 1 1v6h1V3c0-1.108-.892-2-2-2z" class="ColorScheme-Text"/>
</svg>
