<svg xmlns="http://www.w3.org/2000/svg" viewBox="0 0 16 16">
<defs id="defs3051">
<style id="current-color-scheme" type="text/css">
.ColorScheme-Text{color:#fcfcfc}.ColorScheme-Highlight{color:#3daee9}
</style>
</defs>
<path d="M2 2v5h5V2zm7 0v5h5V2zM3 3h3v3H3zm7 0h3v3h-3zM2 9v5h5V9zm1 1h3v3H3z" class="ColorScheme-Text" style="fill:currentColor;fill-opacity:1;stroke:none"/>
<path d="M11.5 8A1.5 1.5 0 0 0 10 9.5V11H9v3h5v-3h-1V9.5A1.5 1.5 0 0 0 11.5 8m0 1a.5.5 0 0 1 .5.5V11h-1V9.5a.5.5 0 0 1 .5-.5" class="ColorScheme-Highlight" style="fill:currentColor;fill-opacity:1;stroke:none"/>
</svg>
