<svg xmlns="http://www.w3.org/2000/svg" viewBox="0 0 16 16">
<defs>
<style id="current-color-scheme" type="text/css">
.ColorScheme-Text{color:#fcfcfc}
</style>
</defs>
<path fill="currentColor" d="M12.5 8a3.5 3.5 0 1 0 0 7 3.5 3.5 0 0 0 0-7m0 1a2.5 2.5 0 0 1 1.377.416l-.732.732A1.5 1.5 0 0 0 12.5 10a1.5 1.5 0 0 0-1.5 1.5c.001.223.052.443.148.645l-.732.732A2.5 2.5 0 0 1 12.5 9m2.084 1.123a2.5 2.5 0 0 1-3.461 3.461l.732-.732A1.5 1.5 0 0 0 12.5 13a1.5 1.5 0 0 0 1.5-1.5 1.5 1.5 0 0 0-.148-.645z" class="ColorScheme-Text"/>
<path fill="currentColor" d="M2 2C.892 2 0 2.892 0 4v9c0 1.108.892 2 2 2h7.678a4.5 4.5 0 0 1-.916-1H2c-.554 0-1-.446-1-1V7h14v.76a4.5 4.5 0 0 1 1 .914V5c0-1.108-.892-2-2-2H6.371c-.58-.023-.605.077-1.039-.357S4.719 2 4 2zm0 1h2c.311 0 .52 0 .998.47.479.472.639.53 1 .53H14c.554 0 1 .446 1 1v1H1V4c0-.554.446-1 1-1" class="ColorScheme-Text"/>
</svg>
