<svg xmlns="http://www.w3.org/2000/svg" viewBox="0 0 16 16">
<defs id="defs3051">
<style id="current-color-scheme" type="text/css">
.ColorScheme-Text{color:#fcfcfc}
</style>
</defs>
<path d="M8.13 2.004c-2.899.118-5.3 2.657-5.171 5.652a5.2 5.2 0 0 0 .35 1.602L4.77 8.77a3.6 3.6 0 0 1-.277-1.115C4.34 5.5 6.054 3.653 8.131 3.52c2.326-.15 4.307 1.79 4.433 4.136.14 2.592-1.93 4.795-4.433 4.92-2.178.109-4.073-1.333-4.822-3.318L2 9.69c.922 2.549 3.352 4.401 6.13 4.305 3.274-.113 5.987-2.964 5.866-6.34-.113-3.16-2.748-5.78-5.865-5.652M4.772 8.77c.555 1.34 1.87 2.298 3.36 2.165 1.605-.145 2.928-1.601 2.748-3.28-.15-1.374-1.366-2.513-2.75-2.305-1.059.158-1.947 1.182-1.705 2.306.037.174.112.344.209.498l1.496-.498c.728 0 .454.874 0 1.078-.585.263-1.178-.073-1.496-.58z" class="ColorScheme-Text" style="fill:currentColor;fill-opacity:1;stroke:none"/>
</svg>
