<svg xmlns="http://www.w3.org/2000/svg" viewBox="0 0 16 16">
<defs>
<style id="current-color-scheme" type="text/css">
.ColorScheme-Text{color:#fcfcfc}
</style>
</defs>
<path d="M6.25 2a1 1 0 0 0-.69.275L.93 6.687l-.62.588a1 1 0 0 0 0 1.45l.62.587 4.63 4.413a1 1 0 0 0 .69.275H15a1 1 0 0 0 1-1V3a1 1 0 0 0-1-1zm0 1H15v10H6.25L1.62 8.59 1 8l.62-.59z" class="ColorScheme-Text" style="fill:currentColor"/>
<path d="m8.002 5 2.01 2.01L12.022 5l.99.99L11.002 8l2.01 2.01-.99.99-2.01-2.01L8.002 11l-.99-.99L9.022 8l-2.01-2.01z" class="ColorScheme-Text" style="fill:currentColor"/>
</svg>
