<svg xmlns="http://www.w3.org/2000/svg" viewBox="0 0 16 16">
<defs id="defs3051">
<style id="current-color-scheme" type="text/css">
.ColorScheme-Text{color:#fcfcfc}
</style>
</defs>
<path d="M4.5 2A1.5 1.5 0 0 0 3 3.5a1.5 1.5 0 0 0 1 1.412V11a2 2 0 0 0 2 2h1v1l2-1.5L7 11v1H6a1 1 0 0 1-1-1V4.912A1.5 1.5 0 0 0 6 3.5 1.5 1.5 0 0 0 4.5 2M9 2 7 3.5 9 5V4h1a1 1 0 0 1 1 1v6.088a1.5 1.5 0 0 0-1 1.412 1.5 1.5 0 0 0 1.5 1.5 1.5 1.5 0 0 0 1.5-1.5 1.5 1.5 0 0 0-1-1.412V5a2 2 0 0 0-2-2H9zM4.5 3a.5.5 0 0 1 .5.5.5.5 0 0 1-.5.5.5.5 0 0 1-.5-.5.5.5 0 0 1 .5-.5m7 9a.5.5 0 0 1 .5.5.5.5 0 0 1-.5.5.5.5 0 0 1-.5-.5.5.5 0 0 1 .5-.5" class="ColorScheme-Text" style="fill:currentColor;fill-opacity:1;stroke:none"/>
</svg>
