<svg xmlns="http://www.w3.org/2000/svg" viewBox="0 0 16 16">
<defs>
<style id="current-color-scheme" type="text/css">
.ColorScheme-Text{color:#fcfcfc}
</style>
</defs>
<path fill="currentColor" d="M7 0C5.892 0 5 .892 5 2v1H3c-1.108 0-2 .892-2 2v9c0 1.108.892 2 2 2h6c.53 0 1.006-.207 1.363-.541a4.5 4.5 0 0 1-.863-.611A1 1 0 0 1 9 15H3c-.554 0-1-.446-1-1V5q.002-.21.078-.39A1 1 0 0 1 3 4h2v5h3.76a4.5 4.5 0 0 1 1.72-1.52L6 3V2q.001-.21.078-.39A1 1 0 0 1 7 1h2v5h5v1.264a4.5 4.5 0 0 1 1 .496V5l-5-5zm3 1.414L13.586 5H10zm-4 3L9.586 8H6z" class="ColorScheme-Text"/>
<path fill="currentColor" d="M12.5 8a3.5 3.5 0 1 0 0 7 3.5 3.5 0 0 0 0-7m-1 1c.277 0 .5.223.5.5V12h2.5a.499.499 0 1 1 0 1h-3a.5.5 0 0 1-.5-.5v-3c0-.277.223-.5.5-.5" class="ColorScheme-Text"/>
</svg>
