<svg xmlns="http://www.w3.org/2000/svg" viewBox="0 0 16 16">
<defs>
<style id="current-color-scheme" type="text/css">
.ColorScheme-Text{color:#fcfcfc}
</style>
</defs>
<path d="M3 4c-1.108 0-2 .892-2 2v7c0 1.108.892 2 2 2h9c1.108 0 2-.892 2-2V6c0-1.108-.892-2-2-2h-2v1h2c.554 0 1 .446 1 1v7c0 .554-.446 1-1 1H3c-.554 0-1-.446-1-1V6c0-.554.446-1 1-1h2V4z" class="ColorScheme-Text" style="fill:currentColor"/>
<path d="m7.5.086 2.5 2.5-.707.707L8 2v8H7V2L5.707 3.293 5 2.586z" class="ColorScheme-Text" style="fill:currentColor"/>
</svg>
