<svg xmlns="http://www.w3.org/2000/svg" viewBox="0 0 16 16">
<defs>
<style id="current-color-scheme" type="text/css">
.ColorScheme-Text{color:#fcfcfc}
</style>
</defs>
<path fill="currentColor" d="M4 1c-1.108 0-2 .892-2 2v10c0 1.108.892 2 2 2h4.762a4.5 4.5 0 0 1-.498-1H4c-.554 0-1-.446-1-1V3c0-.554.446-1 1-1h4v5h5v1.031a4.5 4.5 0 0 1 1 .233V6L9 1zm5 1.414L12.586 6H9z" class="ColorScheme-Text"/>
<path fill="currentColor" d="M12.5 9A3.5 3.5 0 0 0 9 12.5a3.5 3.5 0 0 0 3.5 3.5 3.5 3.5 0 0 0 3.5-3.5A3.5 3.5 0 0 0 12.5 9m0 1 .479 1.346 1.289-.614-.614 1.29L15 12.5l-1.346.479.614 1.289-1.29-.614L12.5 15l-.479-1.346-1.289.614.614-1.29L10 12.5l1.346-.478-.614-1.29 1.29.614z" class="ColorScheme-Text"/>
</svg>
