<svg xmlns="http://www.w3.org/2000/svg" viewBox="0 0 16 16">
<defs>
<style id="current-color-scheme" type="text/css">
.ColorScheme-Text{color:#fcfcfc}
</style>
</defs>
<path d="M12 1c1.108 0 2 .892 2 2v7l-5 5H7.238a4.5 4.5 0 0 0 .498-1H8V9h5V3c0-.554-.446-1-1-1H4c-.554 0-1 .446-1 1v5.031a4.5 4.5 0 0 0-1 .233V3c0-1.108.892-2 2-2zm.586 9H9v3.586z" class="ColorScheme-Text" style="fill:currentColor"/>
<path d="M3.5 9A3.5 3.5 0 0 1 7 12.5 3.5 3.5 0 0 1 3.5 16 3.5 3.5 0 0 1 0 12.5 3.5 3.5 0 0 1 3.5 9m.5 1.5-2 2 2 2z" class="ColorScheme-Text" style="fill:currentColor"/>
</svg>
