<svg xmlns="http://www.w3.org/2000/svg" viewBox="0 0 16 16">
<style id="current-color-scheme" type="text/css">
.ColorScheme-Text{color:#fcfcfc}
</style>
<path d="M5 0a2 2 0 0 0-2 2v4.207a5.5 5.5 0 0 1 1-.185V2c0-.552.448-.987 1-1h4v3.5A1.5 1.5 0 0 0 10.5 6H14v7a1 1 0 0 1-1 1H9.4a5.5 5.5 0 0 1-.657 1H13a2 2 0 0 0 2-2V5.414a1.5 1.5 0 0 0-.44-1.06L10.647.438A1.5 1.5 0 0 0 9.586 0zm8.793 5H10.5a.5.5 0 0 1-.5-.5V1.207zM9 11.5a4.5 4.5 0 1 1-9 0 4.5 4.5 0 0 1 9 0m-4-2a.5.5 0 0 0-1 0V11H2.5a.5.5 0 0 0 0 1H4v1.5a.5.5 0 0 0 1 0V12h1.5a.5.5 0 0 0 0-1H5z" class="ColorScheme-Text" style="fill:currentColor"/>
</svg>
