<svg xmlns="http://www.w3.org/2000/svg" viewBox="0 0 16 16">
<defs>
<style id="current-color-scheme" type="text/css">
.ColorScheme-Text{color:#fcfcfc}
</style>
</defs>
<g fill="currentColor" class="ColorScheme-Text">
<path d="M2 3C.892 3 0 3.892 0 5v6c0 1.108.892 2 2 2h2v-1H2c-.554 0-1-.446-1-1V5c0-.554.446-1 1-1h12c.554 0 1 .446 1 1v6c0 .554-.446 1-1 1h-2v1h2c1.108 0 2-.892 2-2V5c0-1.108-.892-2-2-2z" class="ColorScheme-Text"/>
<path d="M5 0C3.892 0 2.963.893 3 2v2h1V2c0-.554.446-1 1-1h6c.554 0 1.042.448 1 1v2h1V2c0-1.108-.892-2-2-2zm0 10h6v1H5zm0 2h6v1H5z" class="ColorScheme-Text"/>
<path d="M5 7c-1.108 0-2 .892-2 2v5c0 1.108.892 2 2 2h6c1.108 0 2-.892 2-2V9c0-1.108-.892-2-2-2zm0 1h6c.554 0 1 .446 1 1v5c0 .554-.446 1-1 1H5c-.554 0-1-.446-1-1V9c0-.554.446-1 1-1" class="ColorScheme-Text"/>
<circle cx="13.5" cy="5.5" r=".5" class="ColorScheme-Text"/>
</g>
</svg>
