<svg xmlns="http://www.w3.org/2000/svg" viewBox="0 0 16 16">
<defs id="defs3051">
<style id="current-color-scheme" type="text/css">
.ColorScheme-Text{color:#fcfcfc}
</style>
</defs>
<path d="M3 2v2h2V2zm2 2v2h2V4zm2 0h2V2H7zm2 0v2h2V4zm2 0h2V2h-2zM9 6C7.338 6 6 7.338 6 9s1.338 3 3 3c.65 0 1.26-.214 1.75-.562L13.281 14l.719-.719-2.562-2.531c.348-.49.562-1.1.562-1.75 0-1.662-1.338-3-3-3M3 6v8h6v-1H4V6zm6 1c1.108 0 2 .892 2 2s-.892 2-2 2-2-.892-2-2 .892-2 2-2" class="ColorScheme-Text" style="fill:currentColor;fill-opacity:1;stroke:none"/>
</svg>
