<svg xmlns="http://www.w3.org/2000/svg" width="16" height="16.007">
<path fill="#fcfcfc" d="M10.957 8.008a3 3 0 0 0-2.078.877 3 3 0 0 0 0 4.244 3 3 0 0 0 3.86.324l1.796 1.797a.499.499 0 1 0 .707-.707l-1.8-1.8a3 3 0 0 0-.32-3.858 3 3 0 0 0-2.165-.877m.072 1a2 2 0 0 1 1.385.586 2 2 0 0 1 0 2.828 2 2 0 0 1-2.828 0 2 2 0 0 1 0-2.828 2 2 0 0 1 1.443-.586" color="#000" style="-inkscape-stroke:none"/>
<path fill="#fcfcfc" d="M4 0v6H1q-.203 0-.39.078a1 1 0 0 0-.32.219 1 1 0 0 0-.212.32A.95.95 0 0 0 0 7v7h4v2h8v-1H5v-4h2.006c0-.336.043-.673.127-1H4v3H1V7h14v5.887l.95.949.05.055V7a.95.95 0 0 0-.078-.383.9.9 0 0 0-.219-.32.9.9 0 0 0-.32-.219A.95.95 0 0 0 15 6h-3V0zm1 1h6v5H5zM2.5 8q-.203 0-.352.148C2 8.296 2 8.365 2 8.5s.05.253.148.352S2.365 9 2.5 9s.253-.05.352-.148S3 8.635 3 8.5s-.05-.253-.148-.352S2.635 8 2.5 8" aria-label="" style="paint-order:stroke fill markers"/>
</svg>
