<svg xmlns="http://www.w3.org/2000/svg" viewBox="0 0 16 16">
<defs id="defs3051">
<style id="current-color-scheme" type="text/css">
.ColorScheme-Text{color:#fcfcfc}
</style>
</defs>
<path d="M7.5 2v1.125c-.843.078-1.507.29-2 .688-.542.432-.812 1.071-.812 1.906 0 1.165.697 1.92 2.125 2.281l.687.188v3.687c-.887-.08-1.719-.273-2.5-.656l-.344.906c.318.195.752.379 1.282.531.464.13.988.186 1.562.219V14h1v-1.125c.85-.068 1.533-.327 2.031-.781.534-.483.813-1.183.813-2.094 0-.737-.2-1.29-.594-1.687-.394-.403-.987-.693-1.75-.876l-.5-.125v-3.25c.386.03.787.084 1.156.188.424.114.742.262 1 .406l.313-.906c-.64-.399-1.461-.637-2.469-.687V2zm-.219 2.094c.066-.011.15.008.219 0v2.968L7.219 7c-.47-.114-.825-.284-1.063-.5-.233-.22-.344-.515-.343-.875 0-.856.482-1.366 1.468-1.531M8.5 8.406l.188.063q.863.215 1.187.594c.22.25.312.593.313 1 0 1.133-.563 1.734-1.688 1.843z" class="ColorScheme-Text" style="fill:currentColor;fill-opacity:1;stroke:none"/>
</svg>
