<svg xmlns="http://www.w3.org/2000/svg" viewBox="0 0 16 16">
<defs>
<style id="current-color-scheme" type="text/css">
.ColorScheme-Text{color:#fcfcfc}
</style>
</defs>
<path fill="currentColor" d="M6.132 4.002c-2.28 0-4.115 1.786-4.115 4.004s1.835 4.003 4.115 4.003h3.74c2.28 0 4.116-1.786 4.116-4.003s-1.836-4.004-4.115-4.004zm0 .728h3.74c1.866 0 3.367 1.461 3.367 3.276s-1.501 3.275-3.366 3.275H6.132c-1.865 0-3.367-1.46-3.367-3.275S4.267 4.73 6.132 4.73" class="ColorScheme-Text"/>
<path fill="currentColor" fill-opacity=".502" d="M5.285 11.297a3.53 3.53 0 0 1-2.944-2.881 4.5 4.5 0 0 1-.001-1.181 3.54 3.54 0 0 1 2.373-2.747c.53-.175.448-.17 3.1-.17 2.214 0 2.417.003 2.634.046 1.389.278 2.447 1.277 2.792 2.636.093.364.115 1.002.05 1.392-.242 1.434-1.304 2.536-2.777 2.88-.179.043-.403.047-2.607.052-1.873.005-2.458-.001-2.62-.027" class="ColorScheme-Text"/>
</svg>
