<svg xmlns="http://www.w3.org/2000/svg" viewBox="0 0 16 16">
<defs id="defs3051">
<style id="current-color-scheme" type="text/css">
.ColorScheme-Text{color:#fcfcfc}
</style>
</defs>
<path d="M6.984 2 2 5.838 3.936 12l2.29-.012-.312 1.862 3.09-1.698 3.092 1.692-.604-3.565L14 7.758l-2.488-.365L12 5.79zm.002 1 1.83 1.383-1.355 2.869L4 7.766l2.512 2.517-.12.71L4.55 11 3 6.07zm2.395 1.809L11 6.033l-.375 1.229-.086-.012zm-.383.691 1.08 2.275 2.422.356-1.756 1.765.422 2.495-2.164-1.184-2.162 1.188.418-2.497L5.5 8.135l2.422-.36z" class="ColorScheme-Text" style="fill:currentColor;fill-opacity:1;stroke:none"/>
</svg>
