<svg xmlns="http://www.w3.org/2000/svg" viewBox="0 0 16 16">
<defs id="defs3051">
<style id="current-color-scheme" type="text/css">
.ColorScheme-Text{color:#fcfcfc}
</style>
</defs>
<path d="M12.5 2a1.5 1.5 0 0 0-1.412 1H2v1c1.855.959 3.165 2.48 3.357 3.303.262 1.119-.141 2.43-1.185 3.857A1.5 1.5 0 0 0 3.5 11 1.5 1.5 0 0 0 2 12.5 1.5 1.5 0 0 0 3.5 14a1.5 1.5 0 0 0 1.412-1H9v1h3v-3H9v1H4.912l-.037-.096c1.304-1.68 1.899-3.25 1.55-4.763C6.133 5.862 5.242 4.865 3.97 4h7.119A1.5 1.5 0 0 0 12.5 5 1.5 1.5 0 0 0 14 3.5 1.5 1.5 0 0 0 12.5 2m0 1a.5.5 0 0 1 .5.5.5.5 0 0 1-.5.5.5.5 0 0 1-.5-.5.5.5 0 0 1 .5-.5m-9 9a.5.5 0 0 1 .494.436l.004.029.002.02v.015a.5.5 0 0 1-.5.5.5.5 0 0 1-.492-.414v-.002L3 12.5l.002-.05A.5.5 0 0 1 3.5 12m6.5 0h1v1h-1z" class="ColorScheme-Text" style="fill:currentColor;fill-opacity:1;stroke:none"/>
</svg>
