<svg xmlns="http://www.w3.org/2000/svg" viewBox="0 0 16 16">
<defs id="defs3051">
<style id="current-color-scheme" type="text/css">
.ColorScheme-Text{color:#fcfcfc}
</style>
</defs>
<path d="m5.098 2.764-.027.016a6 6 0 0 0-3.07 5.221 6 6 0 1 0 12 0 6 6 0 0 0-.09-1H8.483L5.729 3.554s-.632-.787-.631-.789m-.219 1.338L8 8.001h5a5 5 0 0 1-10 0 5 5 0 0 1 1.879-3.898" class="ColorScheme-Text" style="fill:currentColor;fill-opacity:1;stroke:none"/>
<path d="M7.607 12.976a5.01 5.01 0 0 1-4.054-2.716 5 5 0 0 1-.401-3.423 5 5 0 0 1 1.42-2.452c.263-.248.302-.275.335-.229l1.56 1.949L8.002 8.02h4.991l-.015.26a4.995 4.995 0 0 1-4 4.612 5.4 5.4 0 0 1-1.37.085" class="ColorScheme-Text" style="fill:currentColor;fill-opacity:.5;stroke:none"/>
</svg>
