<svg xmlns="http://www.w3.org/2000/svg" viewBox="0 0 16 16">
<defs id="defs3051">
<style id="current-color-scheme" type="text/css">
.ColorScheme-Text{color:#fcfcfc}
</style>
</defs>
<path d="M13.428 2.006A1.5 6.75 44.99 0 0 8.05 5.83a1.5 6.75 44.99 0 0-2.656 3.086 2.6 2.6 0 0 1 1.693 1.693 1.5 6.75 44.99 0 0 3.084-2.658 1.5 6.75 44.99 0 0 3.71-5.834 1.5 6.75 44.99 0 0-.247-.111 1.5 6.75 44.99 0 0-.207 0M12 8c-.39 1.277-1.361 2.371-1.781 3.25a1.77 1.77 0 0 0-.219.875c0 1.039.892 1.875 2 1.875s2-.836 2-1.875a1.8 1.8 0 0 0-.25-.875C13.33 10.371 12.39 9.277 12 8M5 9.996V10c-3 .804-.75 2.703-3 4 3 0 4.5-1.5 4.5-2.502 0-.5.051-1.419-1.5-1.502" class="ColorScheme-Text" style="fill:currentColor;fill-opacity:1;stroke:none"/>
</svg>
