<svg xmlns="http://www.w3.org/2000/svg" viewBox="0 0 16 16">
<defs id="defs3051">
<style id="current-color-scheme" type="text/css">
.ColorScheme-Text{color:#fcfcfc}.ColorScheme-Highlight{color:#3daee9}
</style>
</defs>
<path d="M2 2v12h7v-1H7v-3h2V9H7V7h2V6H7V3h2V2zm1 1h3v3H3zm0 4h3v2H3zm0 3h3v3H3zm7 0v4l4-2z" class="ColorScheme-Text" style="fill:currentColor;fill-opacity:1;stroke:none"/>
<path d="M9 2h1v1.281L11.281 2h1.438L10 4.719v2.563l3-3V2.001h1v7h-1.719L13 8.282V5.719l-3 3V9H9V3Z" class="ColorScheme-Highlight" style="fill:currentColor;fill-opacity:1;stroke:none"/>
</svg>
