<svg xmlns="http://www.w3.org/2000/svg" viewBox="0 0 16 16">
<defs id="defs3051">
<style id="current-color-scheme" type="text/css">
.ColorScheme-Text{color:#fcfcfc}
</style>
</defs>
<path d="M2 2v3h1V3h2V2zm4 0v1h4V2zm5 0v1h2v2h1V2zM8 4a1.5 1.5 0 0 0-1.5 1.5A1.5 1.5 0 0 0 8 7a1.5 1.5 0 0 0 1.5-1.5A1.5 1.5 0 0 0 8 4M2 6v4h1V6zm11 0v3h1V6zM8 8a3 3 0 0 0-3 3v1h3v-1H6a2 2 0 0 1 2-2h2.232A3 3 0 0 0 8 8m3 1v2H9v1h2v2h1v-2h2v-1h-2V9zm-9 2v3h3v-1H3v-2zm4 2v1h3v-1z" class="ColorScheme-Text" style="fill:currentColor;fill-opacity:1;stroke:none"/>
</svg>
