<svg xmlns="http://www.w3.org/2000/svg" width="16" height="15.974">
<path fill="#fcfcfc" d="M554 18v1h1v-1zm2 0v1h1v-1zm2 0v1h1v-1zm2 0v1h1v-1zm2 0v1h1v-1zm2 0v1h1v-1zm2 0v1h1v-1zm-12 2v1h1v-1zm2 0v4h9v-4zm10 0v1h1v-1zm-12 2v1h1v-1zm12 0v1h1v-1zm-12 2v1h1v-1zm12 0v1h1v-1zm-10 1v4h4v-4zm5 0v4h4v-4zm-7 1v1h1v-1zm12 0v1h1v-1zm-12 2v1h1v-1zm12 0v1h1v-1zm-12 2v1h1v-1zm2 0v1h1v-1zm2 0v1h1v-1zm2 0v1h1v-1zm2 0v1h1v-1zm2 0v1h1v-1zm2 0v1h1v-1z" color="#000" overflow="visible" style="isolation:auto;mix-blend-mode:normal;marker:none" transform="translate(-553 -17)"/>
</svg>
