<svg xmlns="http://www.w3.org/2000/svg" viewBox="0 0 16 16">
<defs>
<style id="current-color-scheme" type="text/css">
.ColorScheme-Text{color:#fcfcfc}
</style>
</defs>
<path fill="currentColor" d="M9.75 2a1 1 0 0 1 .69.275l4.63 4.412.62.588a1 1 0 0 1 0 1.45l-.62.587-4.63 4.413a1 1 0 0 1-.69.275H1a1 1 0 0 1-1-1V3a1 1 0 0 1 1-1zm0 1H1v10h8.75l4.63-4.41L15 8l-.62-.59z" class="ColorScheme-Text"/>
<path fill="currentColor" d="m7.998 5-2.01 2.01L3.978 5l-.99.99L4.998 8l-2.01 2.01.99.99 2.01-2.01L7.998 11l.99-.99L6.978 8l2.01-2.01z" class="ColorScheme-Text"/>
</svg>
