<svg xmlns="http://www.w3.org/2000/svg" viewBox="0 0 16 16">
<defs id="defs3051">
<style id="current-color-scheme" type="text/css">
.ColorScheme-Text{color:#fcfcfc}
</style>
</defs>
<path d="M14 2c-.989.203-1.906.782-2.45 1.617A1.2 1.2 0 0 0 11 3.5c-.156 0-.304.03-.445.074a5.6 5.6 0 0 0-2.93-.824A5.613 5.613 0 0 0 2 8.375 5.613 5.613 0 0 0 7.625 14a5.613 5.613 0 0 0 5.625-5.625 5.6 5.6 0 0 0-.824-2.93c.044-.142.074-.289.074-.445 0-.336-.01-.472-.195-.72.402-.655.937-1.083 1.695-1.28z" class="ColorScheme-Text" style="fill:currentColor;fill-opacity:1;stroke:none"/>
</svg>
