<svg xmlns="http://www.w3.org/2000/svg" viewBox="0 0 16 16">
<defs>
<style id="current-color-scheme" type="text/css">
.ColorScheme-Text{color:#fcfcfc}
</style>
</defs>
<path fill="currentColor" d="M6 15c-1.108 0-2-.892-2-2V5c0-1.108.892-2 2-2h7c1.108 0 2 .892 2 2v5l-5 5H9zm0-1h3V9h5V5c0-.554-.446-1-1-1H6c-.554 0-1 .446-1 1v8c0 .554.446 1 1 1m4-.414L13.586 10H10z" class="ColorScheme-Text"/>
<path fill="currentColor" d="M3 1c-1.108 0-2 .892-2 2v8c0 1.108.892 2 2 2h1v-1H3c-.554 0-1-.446-1-1V3c0-.554.446-1 1-1h7c.554 0 1 .446 1 1h1c0-1.108-.892-2-2-2z" class="ColorScheme-Text" opacity=".35"/>
</svg>
