<svg xmlns="http://www.w3.org/2000/svg" viewBox="0 0 16 16">
<style id="current-color-scheme" type="text/css">
.ColorScheme-Text{color:#fcfcfc}
</style>
<g fill="currentColor" class="ColorScheme-Text">
<path fill-rule="evenodd" d="M4.098 11C4.49 12.715 6.086 14 8 14s3.51-1.285 3.902-3z" opacity=".66"/>
<path fill-rule="evenodd" d="M4.793 8C4.331 8.774 4 9.489 4 10.182c0 .281.037.554.098.818h7.804c.06-.264.098-.537.098-.818 0-.693-.33-1.408-.793-2.182z" opacity=".33"/>
<path d="M8 2c-1.072 3.818-4 6.073-4 8.182S5.79 14 8 14s4-1.71 4-3.818C12 8.072 9.072 5.818 8 2m0 2.594a27 27 0 0 0 1.568 2.691C10.436 8.592 11 9.59 11 10.182 11 11.724 9.693 13 8 13s-3-1.276-3-2.818c0-.592.564-1.59 1.432-2.897A27 27 0 0 0 8 4.594"/>
</g>
</svg>
