<svg xmlns="http://www.w3.org/2000/svg" viewBox="0 0 16 16">
<defs id="defs3051">
<style id="current-color-scheme" type="text/css">
.ColorScheme-Text{color:#fcfcfc}.ColorScheme-Highlight{color:#3daee9}
</style>
</defs>
<path d="M2 2v3h1V3h3v2h1V3h2v2h1V3h3v2h1V2zm8 4 2 4 2-4zm-8 4v4h12v-4h-1v3h-3v-3H9v3H7v-3H6v3H3v-3z" class="ColorScheme-Text" style="fill:currentColor;fill-opacity:1;stroke:none"/>
<path d="M2 5v1h1.281L2 7.281v1.438L4.719 6h2.563l-3 3H2.001v1h7V8.281L8.282 9H5.719l3-3H9V5H3Z" class="ColorScheme-Highlight" style="fill:currentColor;fill-opacity:1;stroke:none"/>
</svg>
