<svg xmlns="http://www.w3.org/2000/svg" viewBox="0 0 16 16">
<defs id="defs3051">
<style id="current-color-scheme" type="text/css">
.ColorScheme-Text{color:#fcfcfc}
</style>
</defs>
<path d="M3.5 2A1.5 1.5 0 0 0 2 3.5a1.48 1.48 0 0 0 1 1.406V11H2v3h3v-3H4V4.906c.432-.15.756-.474.906-.906H11v1h3V2h-3v1H4.906A1.48 1.48 0 0 0 3.5 2m0 1a.5.5 0 1 1 0 1 .5.5 0 0 1 0-1M12 3h1v1h-1zM6 5v6.125l1.27-.625L8.8 12l-.16-2.1L10 9.375zm-3 7h1v1H3z" class="ColorScheme-Text" style="fill:currentColor;fill-opacity:1;stroke:none"/>
</svg>
