<svg xmlns="http://www.w3.org/2000/svg" viewBox="0 0 16 16">
<defs>
<style id="current-color-scheme" type="text/css">
.ColorScheme-Text{color:#fcfcfc}
</style>
</defs>
<path fill="currentColor" d="M8 0a2 2 0 0 0-2 2H4v.006c-1.113.032-2 .933-2 2.055v8.878C2 14.081 2.919 15 4.06 15h7.88c1.141 0 2.06-.919 2.06-2.06V4.06C14 2.92 13.08 2 11.94 2H10a2 2 0 0 0-.031-.406A2.01 2.01 0 0 0 8 0m-.012 1H8c.414 0 .754.266.906.625A.9.9 0 0 1 9 2c0 .888-1.072 1.335-1.703.71-.632-.623-.197-1.7.691-1.71M4 3h2v1S5 4 5 5h6c0-.75-.563-.953-.844-1H10V3h2c.554 0 1 .446 1 1v9c0 .554-.446 1-1 1H4c-.554 0-1-.446-1-1V4c0-.554.446-1 1-1" class="ColorScheme-Text"/>
</svg>
