<svg xmlns="http://www.w3.org/2000/svg" viewBox="0 0 16 16">
<defs id="defs3051">
<style id="current-color-scheme" type="text/css">
.ColorScheme-Text{color:#fcfcfc}.ColorScheme-Highlight{color:#3daee9}
</style>
</defs>
<path d="M7 2v1h2v3H7v1h2v2H7v1h2v3H7v1h7V2zm3 1h3v3h-3zm0 4h3v2h-3zm-4 3-4 2 4 2zm4 0h3v3h-3z" class="ColorScheme-Text" style="fill:currentColor;fill-opacity:1;stroke:none"/>
<path d="M7 2H6v1.281L4.719 2H3.281L6 4.719v2.563l-3-3V2.001H2v7h1.719L3 8.282V5.719l3 3V9h1V3Z" class="ColorScheme-Highlight" style="fill:currentColor;fill-opacity:1;stroke:none"/>
</svg>
