<svg xmlns="http://www.w3.org/2000/svg" viewBox="0 0 16 16">
<defs>
<style id="current-color-scheme" type="text/css">
.ColorScheme-Text{color:#fcfcfc}.ColorScheme-Highlight{color:#3daee9}
</style>
</defs>
<g fill="currentColor" class="ColorScheme-Text">
<path d="M12 8a2 2 0 0 0-2 2v2H9v3h6v-3h-1v-2a2 2 0 0 0-2-2m0 1a1 1 0 0 1 1 1v2h-2v-2a1 1 0 0 1 1-1" class="ColorScheme-Text"/>
<path d="M6 3c-1.108 0-2 .892-2 2v8c0 1.108.892 2 2 2h2v-1H6c-.554 0-1-.446-1-1V5c0-.554.446-1 1-1h7c.554 0 1 .446 1 1v2h1V5c0-1.108-.892-2-2-2z" class="ColorScheme-Text"/>
<path d="M3 1c-1.108 0-2 .892-2 2v8c0 1.108.892 2 2 2h1v-1H3c-.554 0-1-.446-1-1V3c0-.554.446-1 1-1h7c.554 0 1 .446 1 1h1c0-1.108-.892-2-2-2z" class="ColorScheme-Highlight"/>
</g>
</svg>
