<svg xmlns="http://www.w3.org/2000/svg" viewBox="0 0 16 16">
<defs id="defs3051">
<style id="current-color-scheme" type="text/css">
.ColorScheme-Text{color:#fcfcfc}
</style>
</defs>
<path d="M2 2v3h1V3h2V2zm4 0v1h4V2zm5 0v1h2v2h1V2zM7.855 4Q6.8 4 6 4.498l.21.66q.806-.456 1.534-.457.605 0 .928.285.323.278.324.846 0 .311-.164.682a5 5 0 0 1-.395.722q-.235.36-.476.74a5 5 0 0 0-.41.84 2.9 2.9 0 0 0-.188.9h.528q.17-.513.453-.974.288-.466.558-.787.276-.322.528-.644.259-.322.412-.696Q10 6.24 10 5.807q0-.472-.176-.827a1.4 1.4 0 0 0-.476-.568q-.3-.21-.676-.31A3 3 0 0 0 7.855 4M2 6v4h1V6zm11 0v4h1V6zm-5.39 4.816q-.33 0-.506.17a.57.57 0 0 0-.17.418.6.6 0 0 0 .17.424q.176.172.505.172.33 0 .5-.172a.58.58 0 0 0 .17-.424.57.57 0 0 0-.17-.418q-.17-.17-.5-.17M2 11v3h3v-1H3v-2zm11 0v2h-2v1h3v-3zm-7 2v1h4v-1z" class="ColorScheme-Text" style="fill:currentColor;fill-opacity:1;stroke:none"/>
</svg>
