<svg xmlns="http://www.w3.org/2000/svg" width="16" height="16">
<path fill="#fcfcfc" d="M7.96 1a1 1 0 0 0-.875.6L5.597 5H1.75C.83 5.001.4 6.137 1.087 6.748L4.08 9.4l-1.52 4.264c-.315.887.658 1.679 1.462 1.19L8 12.422l3.978 2.432a1 1 0 0 0 1.463-1.19L11.92 9.4l2.994-2.652A1 1 0 0 0 14.25 5h-3.846L9 1.791 8.917 1.6a1 1 0 0 0-.15-.24l-.01-.014a1 1 0 0 0-.205-.178l-.002-.002-.012-.006a1 1 0 0 0-.238-.113l-.02-.007A1 1 0 0 0 8 1zM8 2l1 2.285L9.75 6h4.5l-3.5 3.102L12.5 14l-3.628-2.217L8 11.25 3.5 14l1.75-4.898L1.75 6h4.5z" color="#fcfcfc"/>
<path fill="#fcfcfc" d="m8 2 1 2.285L9.75 6h4.5l-3.5 3.102L12.5 14l-3.628-2.217L8 11.25 3.5 14l1.75-4.898L1.75 6h4.5z" color="#fcfcfc" opacity=".35"/>
</svg>
