<svg xmlns="http://www.w3.org/2000/svg" width="16" height="16">
<path fill="#fcfcfc" d="M6 3c-1.108 0-2 .892-2 2v6c0 1.108.892 2 2 2h8c1.108 0 2-.892 2-2V5c0-1.108-.892-2-2-2zm0 1h8c.554 0 1 .446 1 1v6c0 .554-.446 1-1 1H6c-.554 0-1-.446-1-1V5c0-.554.446-1 1-1" style="paint-order:fill markers stroke"/>
<path fill="#fcfcfc" d="M0 4v8h1.207L5 8.207v-.414L1.207 4zm1 1.207L3.793 8 1 10.793z" color="#000" style="-inkscape-stroke:none"/>
<path fill="#fcfcfc" d="M13 5h1v1h-1z" style="paint-order:fill markers stroke"/>
</svg>
