<svg xmlns="http://www.w3.org/2000/svg" width="16" height="16">
<path fill="#fcfcfc" d="M11.5 1A3.5 3.5 0 0 0 8 4.5 3.5 3.5 0 0 0 11.5 8 3.5 3.5 0 0 0 15 4.5 3.5 3.5 0 0 0 11.5 1m-.016 1a2.485 2.485 0 0 1 2.487 2.484 2.485 2.485 0 0 1-2.487 2.487A2.485 2.485 0 0 1 9 4.484 2.485 2.485 0 0 1 11.484 2" style="paint-order:fill markers stroke"/>
<rect width="6" height="1" x="1" y="4" fill="#fcfcfc" opacity=".35" rx=".5" ry=".5" style="paint-order:fill markers stroke"/>
<path fill="#fcfcfc" d="M4.5 8A3.5 3.5 0 0 0 1 11.5 3.5 3.5 0 0 0 4.5 15 3.5 3.5 0 0 0 8 11.5 3.5 3.5 0 0 0 4.5 8m-.016 1a2.485 2.485 0 0 1 2.487 2.484 2.485 2.485 0 0 1-2.487 2.487A2.485 2.485 0 0 1 2 11.484 2.485 2.485 0 0 1 4.484 9" style="paint-order:fill markers stroke"/>
<rect width="8" height="1" x="7" y="11" fill="#fcfcfc" rx=".5" ry=".5" style="paint-order:fill markers stroke"/>
</svg>
