<svg xmlns="http://www.w3.org/2000/svg" width="16" height="16">
<path fill="#fcfcfc" d="m4.914 2 .09 1.084L5.164 5h1.002L6 3h9l-.416 5L14 15h-2v1h2a1 1 0 0 0 .996-.916L15.586 8l.41-4.916v-.008L16.086 2zM3 6C1.338 6 0 7.338 0 9v6c0 .554.446 1 1 1h9c.554 0 1-.446 1-1V9c0-1.662-1.338-3-3-3zm0 1h5c1.108 0 2 .892 2 2H1c0-1.108.892-2 2-2m-2 3h9v1.764a3.7 3.7 0 0 0-.455-.442c-.285-.228-.63-.422-1.047-.422-.667 0-1.103.397-1.353.647s-.314.353-.647.353c-.083 0-.135-.026-.271-.15-.137-.124-.304-.334-.577-.516a1.36 1.36 0 0 0-1.13-.154c-.425.134-.846.437-1.376.967-.44.44-.75.54-.958.54-.209 0-.393-.099-.584-.29-.324-.324-.54-.831-.602-.986zm7.498 1.9c.083 0 .238.057.422.204.183.146.383.369.555.597.25.334.44.668.525.826V15H1v-1.898c.3.266.702.486 1.185.486.542 0 1.108-.275 1.666-.834.471-.47.8-.667.97-.72.168-.054.172-.036.275.033.102.068.249.233.457.421.207.19.528.412.945.412.667 0 1.103-.396 1.353-.646s.314-.354.647-.354" style="paint-order:stroke fill markers"/>
</svg>
