<svg xmlns="http://www.w3.org/2000/svg" viewBox="0 0 16 16">
<defs id="defs3051">
<style id="current-color-scheme" type="text/css">
.ColorScheme-Text{color:#fcfcfc}
</style>
</defs>
<path d="M8 2c-1.494 0-2.867.33-3.87.996-1 .667-1.63 1.678-1.63 3.022.007 1.518.968 3.477 2.129 5.078.58.8 1.21 1.511 1.8 2.029s1.137.847 1.567.875h.008c.43-.028.976-.357 1.566-.875s1.22-1.229 1.801-2.03c1.16-1.6 2.122-3.56 2.129-5.077.001-1.344-.629-2.355-1.63-3.022C10.866 2.33 9.493 2 8 2m0 2 .916 1.977 2.07.322L9.48 7.83 9.82 10 7.97 8.969l-1.859 1.02.368-2.169-1.493-1.54 2.077-.311z" class="ColorScheme-Text" style="fill:currentColor;fill-opacity:1;stroke:none"/>
</svg>
