<svg xmlns="http://www.w3.org/2000/svg" viewBox="0 0 16 16">
<defs>
<style id="current-color-scheme" type="text/css">
.ColorScheme-Text{color:#fcfcfc}
</style>
</defs>
<g fill="currentColor" class="ColorScheme-Text">
<path d="M6 3c-1.108 0-2 .892-2 2v8c0 1.108.892 2 2 2h2v-1H6c-.554 0-1-.446-1-1V5c0-.554.446-1 1-1h7c.554 0 1 .446 1 1v2h1V5c0-1.108-.892-2-2-2z"/>
<path d="M3 1c-1.108 0-2 .892-2 2v8c0 1.108.892 2 2 2h1v-1H3c-.554 0-1-.446-1-1V3c0-.554.446-1 1-1h7c.554 0 1 .446 1 1h1c0-1.108-.892-2-2-2zm9.5 7A3.5 3.5 0 0 0 9 11.5a3.5 3.5 0 0 0 3.5 3.5 3.5 3.5 0 0 0 3.5-3.5A3.5 3.5 0 0 0 12.5 8M11 10h1v2h2v1h-3v-1z"/>
</g>
</svg>
