<svg xmlns="http://www.w3.org/2000/svg" viewBox="0 0 16 16">
<defs id="defs3051">
<style id="current-color-scheme" type="text/css">
.ColorScheme-Text{color:#fcfcfc}
</style>
</defs>
<path d="M7.252 2q-1.412 0-2.31.7-.891.69-.891 1.812-.001 1.324 1.234 2.625l.227.242a9 9 0 0 0-.772.457 5 5 0 0 0-.681.537q-.336.313-.563.666-.219.346-.361.828Q3 10.34 3 10.885q0 .586.303 1.133.31.545.832.955.52.41 1.252.658.74.24 1.547.24 1.856 0 3.545-1.236L11.766 14l.974-.771-1.336-1.39q.848-.841 1.596-2.085l-.957-.602a10 10 0 0 1-1.412 1.895L7.26 7.555l.547-.282q.184-.096.504-.28.327-.185.503-.321.177-.137.42-.338.252-.209.387-.4.135-.2.27-.442.143-.25.2-.531.06-.28.06-.594 0-1.147-.79-1.758Q8.571 2 7.252 2m.018.955q.806 0 1.218.377.411.37.41 1.076 0 .354-.132.674a1.9 1.9 0 0 1-.32.537q-.186.225-.53.467a9 9 0 0 1-.613.393q-.277.152-.723.369l-.185-.192q-1.11-1.148-1.11-2.232 0-.665.58-1.067.581-.401 1.405-.402M6.21 8.117l3.513 3.723q-1.354.972-2.74.973-1.126 0-1.881-.594-.758-.603-.758-1.461 0-.9.488-1.51.488-.618 1.379-1.13" class="ColorScheme-Text" style="fill:currentColor;fill-opacity:1;stroke:none"/>
</svg>
