<svg xmlns="http://www.w3.org/2000/svg" viewBox="0 0 16 16">
<defs id="defs3051">
<style id="current-color-scheme" type="text/css">
.ColorScheme-Text{color:#fcfcfc}
</style>
</defs>
<path d="M9 3v10h1v-.768A3 3 0 0 0 12 13a3 3 0 0 0 3-3 3 3 0 0 0-3-3 3 3 0 0 0-2 .768V3zm-5.104.006-2.888 10h1.168l.832-3h3l.834 3h1.166l-2.645-10zm.733 1.55 1.094 4.165H3.42zM12 8a2 2 0 0 1 2 2 2 2 0 0 1-2 2 2 2 0 0 1-2-2 2 2 0 0 1 2-2" class="ColorScheme-Text" style="fill:currentColor;fill-opacity:1;stroke:none"/>
</svg>
