<svg xmlns="http://www.w3.org/2000/svg" viewBox="0 0 16 16">
<defs>
<style id="current-color-scheme" type="text/css">
.ColorScheme-Text{color:#fcfcfc}
</style>
</defs>
<path fill="currentColor" d="M4 6v3h1V8h4v1h1V6H9v1H5V6zm3 3v3h1v-1h3v1h1V9h-1v1H8V9z" class="ColorScheme-Text"/>
<path fill="currentColor" d="M2 1C.892 1 0 1.892 0 3v10c0 1.108.892 2 2 2h11c1.108 0 2-.892 2-2V3c0-1.108-.892-2-2-2zm0 3h11c.554 0 1 .446 1 1v8c0 .554-.446 1-1 1H2c-.554 0-1-.446-1-1V5c0-.554.446-1 1-1" class="ColorScheme-Text"/>
</svg>
