<svg xmlns="http://www.w3.org/2000/svg" viewBox="0 0 16 16">
<defs>
<style id="current-color-scheme" type="text/css">
.ColorScheme-Text{color:#fcfcfc}
</style>
</defs>
<path fill="currentColor" d="M11.293 4 8 7.293V5H7v4h4V8H8.707L12 4.707zm-8.342 7A2 2 0 0 0 1 13a2 2 0 0 0 2 2 2 2 0 0 0 2-2 2 2 0 0 0-2-2zM3 12a1 1 0 0 1 1 1 1 1 0 0 1-1 1 1 1 0 0 1-1-1 1 1 0 0 1 1-1" class="ColorScheme-Text"/>
<path fill="currentColor" d="M3 1c-1.108 0-2 .892-2 2v6h1V3c0-.554.446-1 1-1h10c.554 0 1 .446 1 1v10c0 .554-.446 1-1 1H7v1h6c1.108 0 2-.892 2-2V3c0-1.108-.892-2-2-2z" class="ColorScheme-Text"/>
</svg>
