<svg xmlns="http://www.w3.org/2000/svg" viewBox="0 0 16 16">
<defs>
<style id="current-color-scheme" type="text/css">
.ColorScheme-Text{color:#fcfcfc}
</style>
</defs>
<path fill="currentColor" d="M7 1v1h2V1zm1 3v1h2.293L7 8.293 7.707 9 11 5.707V8h1V4zM1 7v2h1V7zm13 0v2h1V7zM2 11c-.554 0-1 .446-1 1v2c0 .554.446 1 1 1h2c.554 0 1-.446 1-1v-2c0-.554-.446-1-1-1zm0 1h2v2H2zm5 2v1h2v-1zM3 1c-1.108 0-2 .892-2 2v1h1V3c0-.554.446-1 1-1h1V1zm9 0v1h1c.554 0 1 .446 1 1v1h1V3c0-1.108-.896-2.098-2-2zm2 11v1c0 .554-.446 1-1 1h-1v1h1c1.108 0 2-.892 2-2v-1z" class="ColorScheme-Text"/>
</svg>
