<svg xmlns="http://www.w3.org/2000/svg" viewBox="0 0 16 16">
<defs>
<style id="current-color-scheme" type="text/css">
.ColorScheme-Text{color:#fcfcfc}
</style>
</defs>
<g fill="currentColor" class="ColorScheme-Text">
<path d="M10 9v1H9v1h1v2H9v1h1v1h1v-1h2v1h1v-1h1v-1h-1v-2h1v-1h-1V9h-1v1h-2V9zm1 2h2v2h-2z"/>
<path d="M6 3c-1.108 0-2 .892-2 2v8c0 1.108.892 2 2 2h2v-1H6c-.554 0-1-.446-1-1V5c0-.554.446-1 1-1h7c.554 0 1 .446 1 1v3h1V5c0-1.108-.892-2-2-2z"/>
<path d="M3 1c-1.108 0-2 .892-2 2v8c0 1.108.892 2 2 2h1v-1H3c-.554 0-1-.446-1-1V3c0-.554.446-1 1-1h7c.554 0 1 .446 1 1h1c0-1.108-.892-2-2-2z"/>
</g>
</svg>
