<svg xmlns="http://www.w3.org/2000/svg" viewBox="0 0 16 16">
<defs>
<style id="current-color-scheme" type="text/css">
.ColorScheme-Text{color:#fcfcfc}
</style>
</defs>
<path d="M4.5 2A2.5 2.5 0 0 0 2 4.5v6A2.5 2.5 0 0 0 4.5 13H10v-1H4.5a1.5 1.5 0 0 1 0-3H5V5h7v5h1V4H5V2zM4 3.088V8.05a2.5 2.5 0 0 0-1 .453V4.5a1.5 1.5 0 0 1 1-1.412" class="ColorScheme-Text" style="fill:currentColor;fill-opacity:1;stroke:none"/>
<path d="M8.5 6a2.5 2.5 0 1 0 1.377 4.584L12.293 13l.707-.707-2.416-2.416A2.5 2.5 0 0 0 8.5 6m0 1a1.5 1.5 0 1 1 0 3 1.5 1.5 0 0 1 0-3" class="ColorScheme-Text" style="fill:currentColor;fill-opacity:1;stroke:none"/>
</svg>
