<svg xmlns="http://www.w3.org/2000/svg" viewBox="0 0 16 16">
<defs id="defs3051">
<style id="current-color-scheme" type="text/css">
.ColorScheme-Text{color:#fcfcfc}.ColorScheme-Highlight{color:#3daee9}
</style>
</defs>
<path d="M5.5 2A2.5 2.5 0 0 0 3 4.5v3a2.5 2.5 0 1 0 5 0v-3A2.5 2.5 0 0 0 5.5 2m6 0A2.5 2.5 0 0 0 9 4.5v3a2.5 2.5 0 1 0 5 0v-3A2.5 2.5 0 0 0 11.5 2m-6 1A1.5 1.5 0 0 1 7 4.5v3a1.5 1.5 0 0 1-3 0v-3A1.5 1.5 0 0 1 5.5 3m6 0A1.5 1.5 0 0 1 13 4.5v3a1.5 1.5 0 0 1-3 0v-3A1.5 1.5 0 0 1 11.5 3M2 9v1h1V9z" class="ColorScheme-Text" style="fill:currentColor;fill-opacity:1;stroke:none"/>
<path d="M11 9v2H9v1h2v2h1v-2h2v-1h-2V9z" class="ColorScheme-Highlight" style="fill:currentColor;fill-opacity:1;stroke:none"/>
</svg>
