<svg xmlns="http://www.w3.org/2000/svg" viewBox="0 0 16 16">
<defs id="defs3051">
<style id="current-color-scheme" type="text/css">
.ColorScheme-Text{color:#fcfcfc}.ColorScheme-NegativeText{color:#da4453}
</style>
</defs>
<path d="M5.5 2A2.5 2.5 0 0 0 3 4.5v3a2.5 2.5 0 1 0 5 0v-3A2.5 2.5 0 0 0 5.5 2m0 1A1.5 1.5 0 0 1 7 4.5v3a1.5 1.5 0 0 1-3 0v-3A1.5 1.5 0 0 1 5.5 3M2 9v1h1V9z" class="ColorScheme-Text" style="fill:currentColor;fill-opacity:1;stroke:none"/>
<path d="M11.5 2A2.5 2.5 0 0 0 9 4.5v3a2.5 2.5 0 1 0 5 0v-3A2.5 2.5 0 0 0 11.5 2m0 1A1.5 1.5 0 0 1 13 4.5v3a1.5 1.5 0 0 1-3 0v-3A1.5 1.5 0 0 1 11.5 3" class="ColorScheme-Text" style="fill:currentColor;fill-opacity:.5;stroke:none"/>
<path d="m9.37 10.47 1.414 1.414-1.414 1.414.707.707 1.414-1.414 1.414 1.414.707-.707-1.414-1.414 1.414-1.414-.707-.707-1.414 1.414-1.414-1.414z" class="ColorScheme-NegativeText" style="fill:currentColor;fill-opacity:1;stroke:none"/>
</svg>
