<svg xmlns="http://www.w3.org/2000/svg" viewBox="0 0 16 16">
<defs id="defs3051">
<style id="current-color-scheme" type="text/css">
.ColorScheme-Text{color:#fcfcfc}
</style>
</defs>
<path d="M6.383 2 2 13h1.357l1.19-3H10V7.828L7.748 2zm.68 1.328q.169.565 1.796 5.115L9.084 9H4.941zM11 9v5h2.5a1.5 1.5 0 0 0 1.5-1.5c0-.533-.268-1.015-.687-1.281a1.5 1.5 0 0 0 .187-.719A1.5 1.5 0 0 0 13 9zm1 1h1a.5.5 0 0 1 0 1h-1zm0 2h1.5a.5.5 0 1 1 0 1H12z" class="ColorScheme-Text" style="fill:currentColor;fill-opacity:1;stroke:none"/>
</svg>
