<svg xmlns="http://www.w3.org/2000/svg" viewBox="0 0 16 16">
<defs id="defs3051">
<style id="current-color-scheme" type="text/css">
.ColorScheme-Text{color:#fcfcfc}.ColorScheme-ViewBackground{color:#fcfcfc}
</style>
</defs>
<path d="M436.714 532.79v13h-13v-13zm-1 1h-5v5h5zm-6 0h-5v5h5zm6 6h-5v5h5zm-6 0h-5v5h5z" class="ColorScheme-ViewBackground" style="fill:currentColor;fill-opacity:1;stroke:none" transform="translate(-421.714 -531.79)"/>
<path d="m436.007 532.79-12.293 12.294v.707h.707l12.293-12.293v-.707z" class="ColorScheme-Text" style="fill:currentColor;fill-opacity:1;stroke:none" transform="translate(-421.714 -531.79)"/>
<path d="M435.714 533.79v5h-5v-5zm-6 0v5h-5v-5zm6 6v5h-5v-5zm-6 0v5h-5v-5z" class="ColorScheme-Text" style="fill:currentColor;fill-opacity:.5;stroke:none" transform="translate(-421.714 -531.79)"/>
</svg>
