<svg xmlns="http://www.w3.org/2000/svg" viewBox="0 0 16 16">
<defs id="defs3051">
<style id="current-color-scheme" type="text/css">
.ColorScheme-Text{color:#fcfcfc}
</style>
</defs>
<path d="M8 2v.002c-2 0-3 1.49-3 3.299C5 7.25 7 11 7 11h2s2-3.752 2-5.701C11 3.489 10 2 8 2m0 1c1.334 0 2 1.16 2 2.566C10 7.083 8.666 10 8.666 10H7.334S6 7.083 6 5.566c0-1.407.667-2.564 2-2.564zm-1 9v1a1 1 0 0 0 1 1 1 1 0 0 0 1-1v-1z" class="ColorScheme-Text" style="fill:currentColor;fill-opacity:1;stroke:none"/>
</svg>
