<svg xmlns="http://www.w3.org/2000/svg" viewBox="0 0 16 16">
<defs id="defs3051">
<style id="current-color-scheme" type="text/css">
.ColorScheme-Text{color:#fcfcfc}
</style>
</defs>
<path d="M5.018 2c.01.458.012.8.015 1.23A75 75 0 0 1 2.018 3c0 3.65 1.67 7.289 5 7.9V13h-1v1h4v-1h-1v-2.1c3.134-.575 4.778-3.837 4.962-7.261.018-.216.017-.346.02-.639a75 75 0 0 1-3.006.223q.013-.611.024-1.223c-1.81.453-3.756.582-6 0m3 2 .619 1.316 1.38.211-1 1.026L9.255 8l-1.236-.684L6.78 8l.237-1.447-1-1.026 1.38-.21zm4.947.094c-.188 2.273-1.007 4.754-3.207 5.601.78-1.442 1.068-3.737 1.18-5.46a66 66 0 0 0 2.027-.141M3.072 4.1c.688.058 1.37.109 2.026.142.112 1.723.4 4.013 1.18 5.453-2.2-.847-3.018-3.324-3.207-5.595" class="ColorScheme-Text" style="fill:currentColor;fill-opacity:1;stroke:none"/>
</svg>
