<svg xmlns="http://www.w3.org/2000/svg" viewBox="0 0 16 16">
<defs id="defs3051">
<style id="current-color-scheme" type="text/css">
.ColorScheme-Text{color:#fcfcfc}
</style>
</defs>
<path d="M14 4C8.477 4 4 8.477 4 14h10z"  class="ColorScheme-Text" style="fill:currentColor"/>
<path d="M3.5 2a1.5 1.5 0 0 0 0 3 1.48 1.48 0 0 0 1.406-1h4.532C5.64 5.734 3 9.554 3 14h1C4 8.477 8.477 4 14 4V3H4.906A1.48 1.48 0 0 0 3.5 2m0 1a.5.5 0 1 1 0 1 .5.5 0 0 1 0-1" class="ColorScheme-Text" style="fill:currentColor;fill-opacity:1;stroke:none"/>
</svg>
