<svg xmlns="http://www.w3.org/2000/svg" viewBox="0 0 16 16">
<path fill="currentColor" d="M4.111 1.777 1 8l3.111 6.223h10.89V1.778zm4.276 2.557v.525c-.632 0-.647.213-.647.983v.904c0 .37-.11.919-.642 1.147.532.227.642.777.642 1.146v.896c0 .77.015.983.647.983v.527c-.948 0-1.352-.314-1.352-1.115V9.242c0-.495-.036-1.066-.55-1.066h-.262v-.574h.261c.515 0 .551-.572.551-1.067V5.447c0-.801.404-1.113 1.352-1.113m2.789 0c.947 0 1.346.312 1.346 1.113v1.088c0 .495.017 1.066.54 1.066h.272v.575h-.271c-.524 0-.542.571-.542 1.066v1.088c0 .801-.398 1.115-1.345 1.115v-.527c.64 0 .64-.212.64-.983V9.04c0-.37.11-.919.643-1.147-.532-.227-.643-.777-.643-1.146v-.904c0-.77-.008-.983-.64-.983z" color="#fcfcfc"/>
</svg>
