<svg xmlns="http://www.w3.org/2000/svg" width="16" height="16">
<path fill="#fcfcfc" d="M8 2.5a.499.499 0 1 0 0 1 .499.499 0 1 0 0-1m-2 1a.499.499 0 1 0 0 1 .499.499 0 1 0 0-1m4 0a.499.499 0 1 0 0 1 .499.499 0 1 0 0-1m-2 1a.499.499 0 1 0 0 1 .499.499 0 1 0 0-1m-2 1a.499.499 0 1 0 0 1 .499.499 0 1 0 0-1m4 0a.499.499 0 1 0 0 1 .499.499 0 1 0 0-1m-2 1a.499.499 0 1 0 0 1 .499.499 0 1 0 0-1M5 13c-.555 0-1 .445-1 1h1c2 0 2 2 2 2h2s0-2 2-2h1c0-.555-.445-1-1-1z"/>
<path fill="#fcfcfc" d="M8 0a6 6 0 0 0-6 6 6 6 0 0 0 6 6 6 6 0 0 0 6-6 6 6 0 0 0-6-6m0 1a5 5 0 0 1 5 5 5 5 0 0 1-5 5 5 5 0 0 1-5-5 5 5 0 0 1 5-5" style="paint-order:stroke fill markers"/>
</svg>
