<svg xmlns="http://www.w3.org/2000/svg" viewBox="0 0 16 16">
<defs id="defs3051">
<style id="current-color-scheme" type="text/css">
.ColorScheme-Text{color:#fcfcfc}
</style>
</defs>
<path d="M3 2v1H2v1h1v2H2v1h1v2H2v1h1v2H2v1h1v1h1v-1h2v1h1v-1h2v1h1v-1h2v1h1v-1h1v-1h-1v-2h1V9h-1V7h1V6h-1V4h1V3h-1V2h-1v1h-2V2H9v1H7V2H6v1H4V2zm1 2h2v2H4zm3 0h2v2H7zm3 0h2v2h-2zM4 7h2v2H4zm3 0h2v2H7zm3 0h2v2h-2zm-6 3h2v2H4zm3 0h2v2H7zm3 0h2v2h-2z" class="ColorScheme-Text" style="fill:currentColor;fill-opacity:1;stroke:none"/>
</svg>
