<svg xmlns="http://www.w3.org/2000/svg" viewBox="0 0 16 16">
<defs>
<style id="current-color-scheme" type="text/css">
.ColorScheme-Text{color:#fcfcfc}
</style>
</defs>
<g fill="currentColor" class="ColorScheme-Text">
<path d="m10.336 6.5-3.148 3.61-1.526-1.553L5 9.232 7.227 11.5 11 7.178z" class="ColorScheme-Text"/>
<path d="M2 1C.892 1 0 1.892 0 3v10c0 1.108.892 2 2 2h6.762a4.5 4.5 0 0 1-.498-1H2c-.554 0-1-.446-1-1V5c0-.554.446-1 1-1h11c.554 0 1 .446 1 1v3.264a4.5 4.5 0 0 1 1 .496V3c0-1.108-.892-2-2-2z" class="ColorScheme-Text"/>
<path d="M12.5 9a3.5 3.5 0 1 0 0 7 3.5 3.5 0 0 0 0-7m-.5 1h1v2h2v1h-2v2h-1v-2h-2v-1h2z" class="ColorScheme-Text"/>
</g>
</svg>
