<svg xmlns="http://www.w3.org/2000/svg" width="16" height="16">
<path fill="#fcfcfc" fill-rule="evenodd" d="M8.5 0c-.277 0-.5.223-.5.5V7c0 .554-.446 1-1 1s-1-.446-1-1V1.5a.499.499 0 1 0-1 0V8c0 .554-.446 1-1 1s-1-.446-1-1V3.5a.499.499 0 1 0-1 0V14c0 1.108.892 2 2 2h6c.768 0 1.432-.429 1.768-1.06l4.06-4.061a.499.499 0 1 0-.707-.707l-2.346 2.346A.499.499 0 0 1 12 12.1V2.5a.499.499 0 1 0-1 0V7c0 .554-.446 1-1 1s-1-.446-1-1V.5c0-.277-.223-.5-.5-.5m3.406 14.609" style="paint-order:stroke fill markers"/>
</svg>
