<svg xmlns="http://www.w3.org/2000/svg" viewBox="0 0 16 16">
<style id="current-color-scheme" type="text/css">
.ColorScheme-Text{color:#fcfcfc}
</style>
<g fill="currentColor" class="ColorScheme-Text">
<path d="M4 6h8v1H4zm0 3h8v1H4z"/>
<path d="M4.36 10.944q0 1.52 1.104 2.368t2.976.848q.96 0 1.776-.144t1.36-.4V12.24q-.576.256-1.424.464-.864.208-1.776.208-1.264 0-1.92-.496T5.8 11.072q0-.56.24-.944t.832-.704 1.616-.704q1.472-.528 2.208-1.296t.736-2.096q0-.896-.464-1.552t-1.28-1.008-1.904-.352q-.928 0-1.712.176t-1.44.464l.448 1.232q.592-.256 1.296-.432t1.44-.176q1.072 0 1.616.464.544.448.544 1.2 0 .576-.24.96t-.784.704q-.544.304-1.472.64-1.008.368-1.696.8-.704.416-1.056 1.008-.368.592-.368 1.488"/>
</g>
</svg>
