<svg xmlns="http://www.w3.org/2000/svg" viewBox="0 0 16 16">
<defs>
<style id="current-color-scheme" type="text/css">
.ColorScheme-Text{color:#fcfcfc}
</style>
</defs>
<path fill="currentColor" d="m10 9 .004 7 2-3h3l-5.002-4zM7 4v1h1V4zm0 2v7h1V6z" class="ColorScheme-Text"/>
<path d="M7.5 1a7.5 7.5 0 1 0 1.504 14.846v-1.03A6.5 6.5 0 0 1 7.5 15 6.5 6.5 0 1 1 14 8.5a6.5 6.5 0 0 1-.365 2.123l.826.66A7.5 7.5 0 0 0 15 8.5 7.5 7.5 0 0 0 7.5 1" class="ColorScheme-Text" style="fill:currentColor"/>
</svg>
