<svg xmlns="http://www.w3.org/2000/svg" viewBox="0 0 16 16">
<defs id="defs3051">
<style id="current-color-scheme" type="text/css">
.ColorScheme-Text{color:#fcfcfc}
</style>
</defs>
<path d="M3.783 4 1 11h1.264L3 9h2.432l.771 2H7.5L4.75 4zM14 4v7h1V4zM4.22 5.492q.138.505.301.951l.69 1.887H3.227l.685-1.853q.172-.461.309-.985M10.5 6A2.5 2.5 0 0 0 8 8.5a2.5 2.5 0 0 0 2.5 2.5A2.5 2.5 0 0 0 13 8.5 2.5 2.5 0 0 0 10.5 6m0 1A1.5 1.5 0 0 1 12 8.5a1.5 1.5 0 0 1-1.5 1.5A1.5 1.5 0 0 1 9 8.5 1.5 1.5 0 0 1 10.5 7" class="ColorScheme-Text" style="fill:currentColor;fill-opacity:1;stroke:none"/>
</svg>
