<svg xmlns="http://www.w3.org/2000/svg" viewBox="0 0 16 16">
<defs id="defs3051">
<style id="current-color-scheme" type="text/css">
.ColorScheme-Text{color:#fcfcfc}
</style>
</defs>
<path d="M5.318 2C3.485 2 2 3.466 2 5.273c0 .604.167 1.169.457 1.654a5.6 5.6 0 0 0-.117 1.135c0 3.117 2.563 5.645 5.725 5.645q.537-.002 1.047-.096c.467.248 1 .389 1.57.389C12.515 14 14 12.534 14 10.727c0-.522-.125-1.015-.346-1.453q.131-.586.133-1.211c0-3.117-2.562-5.643-5.723-5.643q-.5.001-.979.082A3.34 3.34 0 0 0 5.317 2m2.707 2.092c.511 0 .961.059 1.336.174.377.116.695.272.945.465q.379.293.557.617.18.327.18.643-.001.305-.236.545a.8.8 0 0 1-.586.242q-.32-.001-.494-.152a1.8 1.8 0 0 1-.342-.447 1.9 1.9 0 0 0-.514-.627q-.29-.217-.955-.217c-.41 0-.744.08-.992.24-.239.154-.354.332-.354.541q-.001.192.113.328.123.147.342.256.227.113.461.176.24.066.791.191c.463.098.889.209 1.266.328.381.12.71.267.979.439.274.176.493.402.646.672.155.271.232.606.232.994 0 .465-.135.889-.4 1.26-.264.37-.657.663-1.164.871-.502.206-1.102.309-1.787.309-.822 0-1.513-.143-2.051-.424a2.66 2.66 0 0 1-.941-.824q-.366-.52-.367-1.02.002-.312.24-.533a.84.84 0 0 1 .596-.219q.296 0 .504.174.199.166.336.482.154.345.33.574.168.222.479.367c.208.097.488.145.832.145.473 0 .861-.098 1.152-.295.285-.192.424-.423.424-.705a.7.7 0 0 0-.221-.535 1.6 1.6 0 0 0-.611-.332 12 12 0 0 0-1.049-.256 8.5 8.5 0 0 1-1.5-.443 2.5 2.5 0 0 1-.984-.709c-.246-.303-.369-.684-.369-1.131 0-.426.131-.811.389-1.143.256-.329.63-.584 1.111-.76.475-.173 1.039-.262 1.678-.262" class="ColorScheme-Text" style="fill:currentColor;fill-opacity:1;stroke:none"/>
</svg>
