<svg xmlns="http://www.w3.org/2000/svg" viewBox="0 0 16 16">
<defs id="defs3051">
<style id="current-color-scheme" type="text/css">
.ColorScheme-Text{color:#fcfcfc}
</style>
</defs>
<path d="M10.309 3c-1.36 0-2.463 1.131-2.463 2.525q0 .297.064.575c-2.046-.106-3.86-1.11-5.074-2.637a2.56 2.56 0 0 0-.334 1.267c0 .876.435 1.65 1.096 2.102a2.4 2.4 0 0 1-1.116-.314v.03c0 1.224.849 2.243 1.975 2.475a2.4 2.4 0 0 1-1.111.043c.313 1.003 1.221 1.734 2.299 1.754A4.86 4.86 0 0 1 2 11.865 6.84 6.84 0 0 0 5.773 13c4.529 0 7.004-3.847 7.004-7.184q0-.163-.006-.326c.482-.356.899-.8 1.229-1.306a4.8 4.8 0 0 1-1.414.398 2.52 2.52 0 0 0 1.082-1.396 4.9 4.9 0 0 1-1.563.61A2.43 2.43 0 0 0 10.31 3" class="ColorScheme-Text" style="fill:currentColor;fill-opacity:1;stroke:none"/>
</svg>
