<svg xmlns="http://www.w3.org/2000/svg" viewBox="0 0 16 16">
<defs>
<style id="current-color-scheme" type="text/css">
.ColorScheme-Text{color:#fcfcfc}
</style>
</defs>
<path fill="currentColor" d="M4 1c-.554 0-1 .446-1 1v4c0 .554.446 1 1 1h1v2H4c-.554 0-1 .446-1 1v4c0 .554.446 1 1 1h8c.554 0 1-.446 1-1v-4c0-.554-.446-1-1-1h-1V7h1c.554 0 1-.446 1-1V2c0-.554-.446-1-1-1zm0 1h8v4H4zM0 3.5v1h2v-1zm14 0v1h2v-1zM6 7h4v2H6zm-2 3h8v4H4zm-4 1.5v1h2v-1zm5 0v1h6v-1zm9 0v1h2v-1z" class="ColorScheme-Text"/>
</svg>
