<svg xmlns="http://www.w3.org/2000/svg" viewBox="0 0 16 16">
<defs id="defs3051">
<style id="current-color-scheme" type="text/css">
.ColorScheme-Text{color:#fcfcfc}
</style>
</defs>
<path d="m7.828 1.672-.95.95L5 4.5l1.879 1.879.95.95.706-.708-.95-.95L6.916 5H11V4H6.914l.672-.672.95-.95zM12.5 5a.5.5 0 1 0 0 1 .5.5 0 0 0 0-1M5.531 6.563 2 10.093 5.906 14l3.532-3.531zM13.5 8a.5.5 0 1 0 0 1 .5.5 0 0 0 0-1m-1 3a.5.5 0 1 0 0 1 .5.5 0 0 0 0-1m-3 1a.5.5 0 1 0 0 1 .5.5 0 0 0 0-1" class="ColorScheme-Text" style="fill:currentColor;fill-opacity:1;stroke:none"/>
</svg>
