<svg xmlns="http://www.w3.org/2000/svg" viewBox="0 0 16 16">
<defs>
<style id="current-color-scheme" type="text/css">
.ColorScheme-Text{color:#fcfcfc}
</style>
</defs>
<path fill="currentColor" d="M1 12c0 .554.446 1 1 1h4c.554 0 1-.446 1-1v-1h2v1c0 .554.446 1 1 1h4c.554 0 1-.446 1-1V4c0-.554-.446-1-1-1h-4c-.554 0-1 .446-1 1v1H7V4c0-.554-.446-1-1-1H2c-.554 0-1 .446-1 1zm1 0V4h4v8zm1.5 4h1v-2h-1zm0-14h1V0h-1zM7 10V6h2v4zm3 2V4h4v8zm1.5 4h1v-2h-1zm0-5h1V5h-1zm0-9h1V0h-1z" class="ColorScheme-Text"/>
</svg>
