<?xml version="1.0" encoding="UTF-8" standalone="no"?>
<svg
   width="16"
   height="16"
   enable-background="new"
   version="1.1"
   id="svg1"
   sodipodi:docname="io.bassi.Amberol-symbolic.svg"
   inkscape:version="1.3 (0e150ed6c4, 2023-07-21)"
   xmlns:inkscape="http://www.inkscape.org/namespaces/inkscape"
   xmlns:sodipodi="http://sodipodi.sourceforge.net/DTD/sodipodi-0.dtd"
   xmlns="http://www.w3.org/2000/svg"
   xmlns:svg="http://www.w3.org/2000/svg">
  <defs
     id="defs1" />
  <sodipodi:namedview
     id="namedview1"
     pagecolor="#ffffff"
     bordercolor="#000000"
     borderopacity="0.25"
     inkscape:showpageshadow="2"
     inkscape:pageopacity="0.0"
     inkscape:pagecheckerboard="0"
     inkscape:deskcolor="#d1d1d1"
     inkscape:zoom="18.03125"
     inkscape:cx="0.80415944"
     inkscape:cy="12.422877"
     inkscape:window-width="1720"
     inkscape:window-height="1360"
     inkscape:window-x="4280"
     inkscape:window-y="0"
     inkscape:window-maximized="0"
     inkscape:current-layer="svg1" />
  <path
     d="m5.8812 3.0087c-0.2513 0.031145-0.45989 0.14032-0.62812 0.32931-0.16823 0.18899-0.25308 0.41133-0.25308 0.66471v7.9948c0 0.25338 0.084865 0.47572 0.25308 0.66471 0.16823 0.18899 0.37685 0.29815 0.62812 0.32931 0.2513 0.03116 0.47935-0.0244 0.68911-0.1677l5.7994-3.9973c0.18484-0.12669 0.31359-0.29945 0.38418-0.5092 0.07063-0.21183 0.07063-0.42139 0-0.63118-0.07063-0.20976-0.19836-0.38045-0.38114-0.5092l-5.8025-4.0005c-0.20907-0.14538-0.4385-0.19955-0.68911-0.1677z"
     fill="#363636"
     stroke-width="1.5611"
     id="path1" />
  <path
     d="M 8,0 C 3.581722,0 0,3.581722 0,8 c 0,4.418278 3.581722,8 8,8 4.418278,0 8,-3.581722 8,-8 C 16,3.581722 12.418278,0 8,0 Z M 7.904297,1 h 0.00195 c 0.03125,-2.0927e-4 0.0625,-2.0927e-4 0.09375,0 3.866017,-5.689e-5 7.000058,3.1339827 7.000003,7 5.5e-5,3.866016 -3.133984,7.000055 -6.9999999,7 -3.8660161,5.5e-5 -7.00005523,-3.133984 -7,-7 -4.1181e-4,-3.8289485 3.0757086,-6.9477068 6.9043,-7 z"
     fill="#363636"
     stroke-width="0.99998"
     id="path1-2"
     sodipodi:nodetypes="ssssscccccccc" />
</svg>
