<svg xmlns="http://www.w3.org/2000/svg" viewBox="0 0 16 16">
<defs id="defs3051">
<style id="current-color-scheme" type="text/css">
.ColorScheme-Text{color:#fcfcfc}
</style>
</defs>
<path d="M10.5 7c1.939 0 3.5 1.561 3.5 3.5S12.439 14 10.5 14A3.49 3.49 0 0 1 7 10.5C7 8.561 8.561 7 10.5 7" class="ColorScheme-Text" style="fill:currentColor;fill-opacity:.5;stroke:none"/>
<path d="M4 2v2H2v1h2v6H2v1h2v2h1v-2h2.346a3.5 3.5 0 0 1-.297-1H5V5h6v2.049c.354.05.69.15 1 .297V5h2V4h-2V2h-1v2H5V2zm9.951 9c-.05.354-.15.69-.297 1H14v-1zM12 13.654c-.31.148-.646.247-1 .297V14h1z" class="ColorScheme-Text" style="fill:currentColor;fill-opacity:1;stroke:none"/>
</svg>
