<svg xmlns="http://www.w3.org/2000/svg" viewBox="0 0 16 16">
<defs id="defs3051">
<style id="current-color-scheme" type="text/css">
.ColorScheme-Text{color:#fcfcfc}
</style>
</defs>
<path d="M3 2v1.092a1.492 1.492 0 0 0 0 2.816V14h1V5.908a1.49 1.49 0 0 0 0-2.816V2zm4.5 0v8.092a1.492 1.492 0 0 0 0 2.816V14h1v-1.092a1.492 1.492 0 0 0 0-2.816V2zM12 2v4.092a1.492 1.492 0 0 0 0 2.816V14h1V8.908a1.492 1.492 0 0 0 0-2.816V2z" class="ColorScheme-Text" style="fill:currentColor;fill-opacity:1;stroke:none"/>
</svg>
