<svg xmlns="http://www.w3.org/2000/svg" viewBox="0 0 16 16">
<defs>
<style id="current-color-scheme" type="text/css">
.ColorScheme-Text{color:#fcfcfc}
</style>
</defs>
<path d="M4 5v1h1v1.05c-1.685.248-3 1.7-3 3.45C2 12.421 3.579 14 5.5 14S9 12.421 9 10.5a3.43 3.43 0 0 0-.713-2.08l.558-.557.444.444.709-.705-1.592-1.6-.71.707.443.445-.56.56A3.5 3.5 0 0 0 6 7.052V6h1V5zm1.5 3a2.5 2.5 0 1 1 0 5 2.5 2.5 0 0 1 0-5M8 3v1h1v1.05c-.036.006-.07.019-.105.026l.955.96a2.496 2.496 0 0 1 2.152 2.466 2.5 2.5 0 0 1-2.033 2.453c-.004.038-.015.074-.02.111a5 5 0 0 1-.054.34q-.032.135-.07.268c-.029.102-.05.205-.085.305 1.81-.127 3.262-1.637 3.262-3.477 0-.783-.271-1.5-.713-2.082l.557-.557.445.444.709-.705-1.592-1.6-.709.707.442.445-.56.56a3.5 3.5 0 0 0-1.579-.663V4h1V3z" class="ColorScheme-Text" style="fill:currentColor;fill-opacity:1;stroke:none"/>
</svg>
