<svg xmlns="http://www.w3.org/2000/svg" viewBox="0 0 16 16">
<defs>
<style id="current-color-scheme" type="text/css">
.ColorScheme-Text{color:#fcfcfc}
</style>
</defs>
<path d="M5 3v1h2v1.05c-2.238.255-4 2.148-4 4.45s1.763 4.196 4.002 4.45v-.999A3.49 3.49 0 0 1 4 9.5 3.5 3.5 0 0 1 7.5 6c1.76 0 3.196 1.307 3.441 3h1.008a4.44 4.44 0 0 0-.955-2.287l.756-.756.396.397.708-.708-1.5-1.5-.708.708.397.396-.752.752A4.5 4.5 0 0 0 8 5.051V4h2V3Zm2 8v1h5v-1z" class="ColorScheme-Text" style="fill:currentColor;fill-opacity:1;stroke:none"/>
</svg>
