<svg xmlns="http://www.w3.org/2000/svg" viewBox="0 0 16 16">
<defs>
<style id="current-color-scheme" type="text/css">
.ColorScheme-Text{color:#fcfcfc}
</style>
</defs>
<path d="M8 3v1h1v1.05c-1.685.248-3 1.7-3 3.45C6 10.421 7.579 12 9.5 12S13 10.421 13 8.5a3.43 3.43 0 0 0-.713-2.08l.558-.557.444.444.709-.705-1.592-1.6-.71.707.443.445-.56.56A3.5 3.5 0 0 0 10 5.052V4h1V3zM5 4 2 8l3 4zm4.5 2a2.5 2.5 0 1 1 0 5 2.5 2.5 0 0 1 0-5" class="ColorScheme-Text" style="fill:currentColor;fill-opacity:1;stroke:none"/>
</svg>
