<svg xmlns="http://www.w3.org/2000/svg" viewBox="0 0 16 16">
<defs id="defs3051">
<style id="current-color-scheme" type="text/css">
.ColorScheme-Text{color:#fcfcfc}
</style>
</defs>
<path d="M8 2a6 6 0 0 0-6 6 6 6 0 0 0 6 6 6 6 0 0 0 6-6 6 6 0 0 0-6-6m0 1a5 5 0 0 1 5 5 5 5 0 0 1-5 5 5 5 0 0 1-5-5 5 5 0 0 1 5-5m2 1a1.99 1.99 0 0 0-1.734 1.018A3 3 0 0 0 8 5a3 3 0 0 0-3 3 3 3 0 0 0 3 3 3 3 0 0 0 3-3 3 3 0 0 0-.014-.268A1.996 1.996 0 0 0 10 4m0 1a.998.998 0 0 1 .402 1.914l-.021.01A.998.998 0 0 1 9 6.004L8.999 6c0-.137.029-.27.078-.389V5.61A1.01 1.01 0 0 1 10 5M8 6c0 1.108.892 2 2 2a2 2 0 0 1-2 2 2 2 0 0 1-2-2 2 2 0 0 1 2-2" class="ColorScheme-Text" style="fill:currentColor;fill-opacity:1;stroke:none"/>
</svg>
