<svg xmlns="http://www.w3.org/2000/svg" viewBox="0 0 16 16">
<defs id="defs3051">
<style id="current-color-scheme" type="text/css">
.ColorScheme-Text{color:#fcfcfc}.ColorScheme-PositiveText{color:#27ae60}
</style>
</defs>
<path d="M2 2v12h12V2zm1 1h10v8H8v1H6v-1H3v-1zm1 1v6h8V4zm1 1h1v2h4V5h1v4H5zm-2 7h2v1H3zm6 0h3v1H9z" class="ColorScheme-Text" style="fill:currentColor;fill-opacity:1;stroke:none"/>
<path d="M6 6c2.216 0 4 1.784 4 4s-1.784 4-4 4-4-1.784-4-4 1.784-4 4-4" class="ColorScheme-PositiveText" style="fill:currentColor;fill-opacity:1;stroke:none"/>
<path d="m8 8-3 3-1-1-1 1 2 2 4-4Z" style="fill:#fff;fill-rule:evenodd"/>
</svg>
