<svg xmlns="http://www.w3.org/2000/svg" viewBox="0 0 16 16">
<defs>
<style id="current-color-scheme" type="text/css">
.ColorScheme-Text{color:#fcfcfc}
</style>
</defs>
<path fill="currentColor" d="m11.172 2.672-.707.707L12.086 5H7.43v1h4.656l-1.621 1.621.707.707L14 5.5zM1 7v2h1V7zm1 4c-.554 0-1 .446-1 1v2c0 .554.446 1 1 1h2c.554 0 1-.446 1-1v-2c0-.554-.446-1-1-1zm0 1h2v2H2zm5 2v1h2v-1zM3 1c-1.108 0-2 .892-2 2v1h1V3c0-.554.446-1 1-1h1V1zm11 11v1c0 .554-.446 1-1 1h-1v1h1c1.108 0 2-.892 2-2v-1z" class="ColorScheme-Text"/>
</svg>
