<svg xmlns="http://www.w3.org/2000/svg" width="16" height="16">
<g fill="#fcfcfc" stroke-linecap="round" stroke-width="2" color="#000">
<path d="M8 2.875 1.625 5.438 8 8l6.406-2.562zm.002 1.076 3.713 1.487L8 6.922 4.307 5.438z"/>
<path d="M8 5.875 5.357 6.938l1.34.539 1.305-.526 1.31.526 1.346-.54zM4.016 7.477l-2.391.96L8 11l6.406-2.562-2.402-.961-1.346.539 1.057.422L8 9.922 4.307 8.438l1.048-.422z"/>
<path d="M8 8.875 5.357 9.938l1.34.539 1.305-.526 1.31.526 1.346-.54zm-3.984 1.602-2.391.96L8 14l6.406-2.562-2.402-.961-1.346.539 1.057.422L8 12.922l-3.693-1.484 1.048-.422z"/>
</g>
</svg>
