<svg xmlns="http://www.w3.org/2000/svg" width="16" height="16">
<path fill="#fcfcfc" d="M8 0C4.145 0 1 3.148 1 7c0 .875.164 1.715.457 2.484.137.391.328.77.559 1.149q.085.14.172.273h.003c.73 1.11 1.997 2.254 3.118 3.211s2.093 1.684 2.093 1.684a.99.99 0 0 0 1.196-.001s.972-.726 2.093-1.683c1.122-.957 2.387-2.101 3.118-3.21h.004q.085-.134.171-.274c.23-.38.422-.758.559-1.149A7 7 0 0 0 15 7c0-3.852-3.144-7-7-7m0 1c3.311 0 6 2.693 6 6a6 6 0 0 1-.4 2.154 5 5 0 0 1-.463.95l-.004.007-.002.002-.152.239-.006.003c-.613.93-1.826 2.06-2.93 3.002C8.949 14.291 8 15 8 15s-.95-.709-2.043-1.643c-1.104-.942-2.317-2.071-2.93-3.002l-.006-.003-.152-.239-.002-.002-.004-.007a5 5 0 0 1-.472-.975A6 6 0 0 1 2 7c0-3.307 2.689-6 6-6"/>
<path fill="#fcfcfc" d="M8 4a3 3 0 0 0-3 3 3 3 0 0 0 3 3 3 3 0 0 0 3-3 3 3 0 0 0-3-3m0 1a2 2 0 0 1 2 2 2 2 0 0 1-2 2 2 2 0 0 1-2-2 2 2 0 0 1 2-2"/>
</svg>
