<svg xmlns="http://www.w3.org/2000/svg" viewBox="0 0 16 16">
<defs>
<style id="current-color-scheme" type="text/css">
.ColorScheme-Text{color:#fcfcfc}.ColorScheme-NegativeText{color:#da4453}
</style>
</defs>
<path d="M12.449 8a3.5 3.5 0 0 0-2.424 1.025 3.5 3.5 0 0 0 0 4.95 3.5 3.5 0 0 0 4.95 0 3.5 3.5 0 0 0 0-4.95A3.5 3.5 0 0 0 12.448 8m.088 1a2.5 2.5 0 0 1 1.34.416l-3.463 3.463a2.5 2.5 0 0 1 .318-3.147A2.5 2.5 0 0 1 12.537 9m2.049 1.121a2.5 2.5 0 0 1-.319 3.147 2.5 2.5 0 0 1-3.144.316z" class="ColorScheme-NegativeText" style="fill:currentColor"/>
<path d="M2 2C.892 2 0 2.892 0 4v8c0 1.108.892 2 2 2h6.762a4.5 4.5 0 0 1-.498-1H2a.98.98 0 0 1-.963-.816l4.461-3.551 1.17.931c.433.346 1.033.48 1.601.416a4.5 4.5 0 0 1 1.088-1.7l-.818.652a.89.89 0 0 1-1.078 0L1.037 3.816A.98.98 0 0 1 2 3h12c.489 0 .874.354.963.816l-4.89 3.895A4.5 4.5 0 0 1 12.5 7l.047.002L15 5.049v2.71a4.5 4.5 0 0 1 1 .915V4c0-1.108-.892-2-2-2zM1 5.049 4.705 8 1 10.951z" class="ColorScheme-Text" style="fill:currentColor"/>
</svg>
