<svg xmlns="http://www.w3.org/2000/svg" width="16" height="15.974">
<path fill="#fcfcfc" d="m1.294 1.26.025-.023.048-.035.013-.006.037-.021.03-.014.047-.017.017-.005.037-.007.011-.003.034-.002.05-.003.032.003h.017l.017.002.033.006.042.01.01.004.013.004.029.012.004.002 12.728 5.656a.5.5 0 0 1-.007.916L9.795 9.782l-2.043 4.766a.5.5 0 0 1-.916.007L1.193 1.857a.5.5 0 0 1-.045-.126l-.003-.017-.004-.031-.004-.043v-.025l.001-.032.002-.018.005-.033.004-.015.007-.032.006-.016.01-.03.021-.046.017-.03.008-.015.01-.012.032-.04.034-.037zm2.6 1.915 5.634 5.633 3.585-1.536zm-.706.707L7.285 13.1l1.536-3.585z" color="#000" style="font-feature-settings:normal;font-variant-alternates:normal;font-variant-caps:normal;font-variant-ligatures:normal;font-variant-numeric:normal;font-variant-position:normal;isolation:auto;mix-blend-mode:normal;shape-padding:0;text-decoration-color:#000;text-decoration-line:none;text-decoration-style:solid;text-indent:0;text-orientation:mixed;text-transform:none;white-space:normal"/>
</svg>
