<svg xmlns="http://www.w3.org/2000/svg" width="16" height="15.974">
<path fill="#fcfcfc" d="m14.706 1.26-.025-.023-.048-.035-.013-.006-.037-.021-.03-.014-.047-.017-.017-.005-.037-.007-.011-.003-.033-.002-.05-.003-.033.003h-.017l-.016.002-.033.006-.043.01-.01.004-.012.004-.03.012-.004.002L1.432 6.823a.5.5 0 0 0 .007.916l4.767 2.043 2.042 4.766a.5.5 0 0 0 .916.007l5.643-12.698a.5.5 0 0 0 .045-.126l.003-.017.004-.031.004-.043v-.025l-.001-.032-.001-.018-.006-.033-.004-.015-.007-.032-.005-.016-.012-.03-.02-.046-.017-.03-.008-.015-.01-.012-.032-.04-.034-.037zm-2.6 1.915L6.471 8.808 2.887 7.272zm.707.707L8.715 13.1 7.179 9.515z" color="#000" style="font-feature-settings:normal;font-variant-alternates:normal;font-variant-caps:normal;font-variant-ligatures:normal;font-variant-numeric:normal;font-variant-position:normal;isolation:auto;mix-blend-mode:normal;shape-padding:0;text-decoration-color:#000;text-decoration-line:none;text-decoration-style:solid;text-indent:0;text-orientation:mixed;text-transform:none;white-space:normal"/>
</svg>
