<svg xmlns="http://www.w3.org/2000/svg" viewBox="0 0 16 16">
<defs>
<style id="current-color-scheme" type="text/css">
.ColorScheme-Text{color:#fcfcfc}
</style>
</defs>
<path d="M3 0c-.554 0-1 .446-1 1v1C.892 2 0 2.892 0 4v8c0 1.108.892 2 2 2h6.75a4.5 4.5 0 0 1-.492-1H2a.98.98 0 0 1-.963-.816l4.461-3.551 1.17.931c.435.347 1.038.483 1.61.416a4.5 4.5 0 0 1 1.275-1.855l-1.014.807a.89.89 0 0 1-1.078 0L3 5.379V1h10v4.379L9.857 7.88a4.5 4.5 0 0 1 2.643-.863l.027.002L15 5.049v2.728a4.5 4.5 0 0 1 1 .912V4c0-1.108-.892-2-2-2V1c0-.554-.446-1-1-1zm1.5 2a.499.499 0 1 0 0 1h7a.499.499 0 1 0 0-1zM2 3v1.584l-.963-.768A.98.98 0 0 1 2 3m12 0c.489 0 .874.354.963.816L14 4.584zM4.5 4a.499.499 0 1 0 0 1h7a.499.499 0 1 0 0-1zM1 5.049 4.705 8 1 10.951z" class="ColorScheme-Text" style="fill:currentColor"/>
<path d="M12.5 8.018a3.5 3.5 0 0 0-3.5 3.5 3.5 3.5 0 0 0 3.5 3.5 3.5 3.5 0 0 0 3.5-3.5 3.5 3.5 0 0 0-3.5-3.5m0 .982a2.517 2.517 0 0 1 2.518 2.518 2.52 2.52 0 0 1-.871 1.898A3.5 3.5 0 0 0 12.5 13a3.5 3.5 0 0 0-1.65.414 2.52 2.52 0 0 1-.868-1.896A2.517 2.517 0 0 1 12.5 9m0 1a1 1 0 0 0-1 1 1 1 0 0 0 1 1 1 1 0 0 0 1-1 1 1 0 0 0-1-1" class="ColorScheme-Text" style="fill:currentColor"/>
</svg>
