<svg xmlns="http://www.w3.org/2000/svg" viewBox="0 0 16 16">
<defs id="defs3051">
<style id="current-color-scheme" type="text/css">
.ColorScheme-Text{color:#fcfcfc}
</style>
</defs>
<path d="M8 2a6 6 0 0 0-5.914 5h1.016A5 5 0 0 1 8 3a5 5 0 0 1 4.895 4h1.015A6 6 0 0 0 8 2m0 2a3.99 3.99 0 0 0-3.857 3h2.134c.347-.596.984-1 1.723-1zm4 3v1H7c-1.108 0-2 .892-2 2h1c0-.554.446-1 1-1h5v1l2-1.5zM3 8v1H2v1h1v2H2v1h1v1h1V8zm4 3-2 1.5L7 14v-1h5c1.108 0 2-.892 2-2h-1c0 .554-.446 1-1 1H7z" class="ColorScheme-Text" style="fill:currentColor;fill-opacity:1;stroke:none"/>
</svg>
