<svg xmlns="http://www.w3.org/2000/svg" viewBox="0 0 16 16">
<style id="current-color-scheme" type="text/css">
.ColorScheme-Text{color:#fcfcfc}
</style>
<g class="ColorScheme-Text" style="fill:currentColor">
<rect width="2.012" height="10" x="10" y="3" rx="1.006" ry="1.006"/>
<rect width="2" height="10" x="14" y="3" rx="1" ry="1"/>
<path d="M1.881 3.009a.97.97 0 0 0-.628.329.97.97 0 0 0-.253.665v7.995a.97.97 0 0 0 .253.664.97.97 0 0 0 .628.33.97.97 0 0 0 .69-.168L8.37 8.827a1 1 0 0 0 .384-.51 1 1 0 0 0-.381-1.14l-5.803-4a.96.96 0 0 0-.689-.168" class="ColorScheme-Text" style="fill:currentColor"/>
</g>
</svg>
