<svg xmlns="http://www.w3.org/2000/svg" width="24" height="24">
<defs>
<linearGradient id="linearGradient6212" x1="-15.458" x2="-.958" y1="94.607" y2="109.61" gradientTransform="translate(19.958 -90.107)" gradientUnits="userSpaceOnUse">
<stop offset="0" stop-color="#3daee9" stop-opacity="0"/>
<stop offset="1" stop-color="#47b2eb" stop-opacity=".5"/>
</linearGradient>
<style id="current-color-scheme" type="text/css">
.ColorScheme-Text{color:#fcfcfc}
</style>
</defs>
<path fill="url(#linearGradient6212)" d="M8.027 3.586a6.7 6.7 0 0 0-1.527.197V6.5H5.48c1.835 4.965-2.885 6.035-1.697 11H6.51v1.281c4.953-1.178 6.027 3.527 10.98 1.703V17.5h1.293c-1.188-4.964 3.53-6.035 1.699-10.996H17.5V5.48c-4.413 1.63-5.747-1.916-9.473-1.894"/>
<path fill="currentColor" d="M8.025 3.086a7.3 7.3 0 0 0-1.525.187v1.073c.927-.25 1.709-.302 2.375-.196 1.068.171 1.946.662 2.89 1.166.946.504 1.964 1.021 3.254 1.09.733.04 1.555-.103 2.481-.44v-1.02c-.96.378-1.745.497-2.426.46-1.053-.056-1.91-.477-2.84-.972-.93-.496-1.926-1.068-3.203-1.272a6 6 0 0 0-1.006-.076M4.947 6.5c.38.96.496 1.745.46 2.426-.057 1.053-.477 1.91-.973 2.84s-1.068 1.926-1.272 3.203c-.12.746-.101 1.58.111 2.53h1.069c-.25-.927-.298-1.707-.192-2.374.171-1.068.662-1.946 1.166-2.89.505-.946 1.021-1.964 1.09-3.255q.062-1.094-.443-2.48zm14.957.004c.388.954.538 1.751.502 2.422-.056 1.053-.476 1.91-.972 2.84s-1.068 1.926-1.272 3.203c-.118.739-.076 1.58.152 2.53h.98c-.238-.93-.252-1.697-.144-2.374.171-1.068.662-1.946 1.166-2.89s1.021-1.964 1.09-3.255c.04-.738-.078-1.554-.396-2.476zM8.124 18.1a7.4 7.4 0 0 0-1.614.219v.974c.926-.236 1.69-.25 2.365-.142 1.068.17 1.946.662 2.89 1.166s1.964 1.02 3.255 1.09c.737.039 1.55-.078 2.47-.395V19.91c-.952.385-1.745.532-2.416.496-1.053-.056-1.91-.476-2.84-.972s-1.926-1.068-3.203-1.272a5.3 5.3 0 0 0-.908-.062z" class="ColorScheme-Text"/>
<path fill="#3daee9" d="M2.5 2a.5.5 0 0 0-.5.5v4a.5.5 0 0 0 .5.5h4a.5.5 0 0 0 .5-.5v-4a.5.5 0 0 0-.5-.5zM3 3h3v3H3zm14.49 14a.5.5 0 0 0-.5.5v4.004a.5.5 0 0 0 .5.498h4.01a.5.5 0 0 0 .5-.498V17.5a.5.5 0 0 0-.5-.5zm.498 1H21v3.004h-3.012zM17.5 2a.5.5 0 0 0-.5.5v4.004a.5.5 0 0 0 .5.498h4.01a.5.5 0 0 0 .5-.498V2.5a.5.5 0 0 0-.5-.5zm.5 1h3.012v3.004H18zM2.5 17a.5.5 0 0 0-.5.5v4.004a.5.5 0 0 0 .5.498h4.01a.5.5 0 0 0 .5-.498V17.5a.5.5 0 0 0-.5-.5zm.5 1h3.012v3.004H3z"/>
</svg>
