<svg width="16" height="16" version="1.1" xmlns="http://www.w3.org/2000/svg"><style type="text/css">.ColorScheme-Text{color:#fcfcfc}</style><g class="ColorScheme-Text" style="fill:currentColor"><path d="M11.5 1A3.5 3.5 0 0 0 8 4.5 3.5 3.5 0 0 0 11.5 8 3.5 3.5 0 0 0 15 4.5 3.5 3.5 0 0 0 11.5 1m0 1A2.5 2.5 0 0 1 14 4.5 2.5 2.5 0 0 1 11.5 7 2.5 2.5 0 0 1 9 4.5 2.5 2.5 0 0 1 11.5 2m-7 6A3.5 3.5 0 0 0 1 11.5 3.5 3.5 0 0 0 4.5 15 3.5 3.5 0 0 0 8 11.5 3.5 3.5 0 0 0 4.5 8m0 1A2.5 2.5 0 0 1 7 11.5 2.5 2.5 0 0 1 4.5 14 2.5 2.5 0 0 1 2 11.5 2.5 2.5 0 0 1 4.5 9"/><rect x="7" y="11" width="8" height="1" rx=".5" ry=".5"/><path d="m1.6508 4a0.65079 0.5 0 1 0 0 1h7.2043a6.5079 5 0 0 1-0.045555-0.5 6.5079 5 0 0 1 0.045555-0.5z" opacity=".45" stroke-width="1.1409"/></g></svg>
