<svg xmlns="http://www.w3.org/2000/svg" width="16" height="16">
<path fill="#fcfcfc" d="M11.25 8.01a3.5 3.5 0 0 0-2.225 1.015 3.5 3.5 0 0 0 0 4.95 3.5 3.5 0 0 0 4.57.328h.003l1.437 1.44.707-.708-1.44-1.44a3.5 3.5 0 0 0-.327-4.57A3.5 3.5 0 0 0 11.25 8.01m.033.994a2.49 2.49 0 0 1 1.977.72 2.487 2.487 0 0 1-.002 3.518 2.487 2.487 0 0 1-3.516 0 2.487 2.487 0 0 1-.002-3.517 2.5 2.5 0 0 1 1.543-.721"/>
<path fill="currentColor" d="M2 2C.892 2 0 2.892 0 4v9c0 1.108.892 2 2 2h5v-1H2c-.554 0-1-.446-1-1V7h14v1h1V5c0-1.108-.892-2-2-2H6.371c-.58-.023-.605.077-1.039-.357S4.719 2 4 2zm0 1h2c.311 0 .52 0 .998.47.479.472.639.53 1 .53H14c.554 0 1 .446 1 1v1H1V4c0-.554.446-1 1-1" class="ColorScheme-Text" color="#fcfcfc"/>
</svg>
