<svg xmlns="http://www.w3.org/2000/svg" width="16" height="16">
<path fill="#fcfcfc" d="M5 0C3.338 0 2 1.338 2 3v3c0 1.662 1.338 3 3 3v1H4v1h3v1.273a2 2 0 0 0-.727.727H4c-1.108 0-2 .892-2 2h1c0-.554.446-1 1-1h2a2 2 0 0 0 2 2 2 2 0 0 0 2-2h2c.554 0 1 .446 1 1h1c0-1.108-.892-2-2-2H9.73a2 2 0 0 0-.73-.73V11h3v-1h-1V9c1.662 0 3-1.338 3-3V3c0-1.662-1.338-3-3-3zm0 1h6c1.108 0 2 .892 2 2v3c0 1.108-.892 2-2 2H5c-1.108 0-2-.892-2-2V3c0-1.108.892-2 2-2m1 8h4v1H6zm2 4a1 1 0 0 1 1 1 1 1 0 0 1-1 1 1 1 0 0 1-1-1 1 1 0 0 1 1-1"/>
</svg>
