<svg xmlns="http://www.w3.org/2000/svg" viewBox="0 0 16 16">
<defs id="defs3051">
<style id="current-color-scheme" type="text/css">
.ColorScheme-Text{color:#fcfcfc}
</style>
</defs>
<path d="M5.305 2C5.315 1.998 2 5.313 2 5.313V14h8.688S14.01 10.717 14 10.719V2zM6 3h6.281c-.833.844-1.627 1.661-1.969 2H6zm-1 .719V5H3.688zm8 0V10h-2V5.688zM3 6h2v4.281l-.344.375L3 12.312zm3 0h4v4H6zm-.281 5H10v2H3.688l1.656-1.656zM11 11h1.281c-.544.552-.735.762-1.281 1.313z" class="ColorScheme-Text" style="fill:currentColor;fill-opacity:1;stroke:none"/>
</svg>
