<svg xmlns="http://www.w3.org/2000/svg" viewBox="0 0 16 16">
<defs id="defs3051">
<style id="current-color-scheme" type="text/css">
.ColorScheme-Text{color:#fcfcfc}.ColorScheme-Highlight{color:#3daee9}
</style>
</defs>
<path d="M1.004 2a7 9 0 0 0 6 8.898v-1.02a6 8 0 0 1-5-7.878zm13 0a6 8 0 0 1-5 7.887v1.01a7 9 0 0 0 6-8.895zm-10.5 8a1.5 1.5 0 0 0-1.5 1.5 1.5 1.5 0 0 0 1.5 1.5 1.5 1.5 0 0 0 1.414-1H7v-1H4.918a1.5 1.5 0 0 0-1.414-1m10 0a1.5 1.5 0 0 0-1.412 1H11v1h1.092a1.5 1.5 0 0 0 1.412 1 1.5 1.5 0 0 0 1.5-1.5 1.5 1.5 0 0 0-1.5-1.5m-10 1a.5.5 0 0 1 .496.441v.121a.5.5 0 0 1-.496.438.5.5 0 0 1-.5-.5.5.5 0 0 1 .5-.5m10 0a.5.5 0 0 1 .5.5.5.5 0 0 1-.5.5.5.5 0 0 1-.5-.5.5.5 0 0 1 .5-.5" class="ColorScheme-Text" style="fill:currentColor;fill-opacity:1;stroke:none"/>
<path d="M6 9v4h4V9zm1 1h2v2H7z" class="ColorScheme-Highlight" style="fill:currentColor;fill-opacity:1;stroke:none"/>
</svg>
