<svg xmlns="http://www.w3.org/2000/svg" viewBox="0 0 16 16">
<defs id="defs3051">
<style id="current-color-scheme" type="text/css">
.ColorScheme-Text{color:#fcfcfc}.ColorScheme-Highlight{color:#3daee9}
</style>
</defs>
<path d="M2 2v3h3V2zm9 0v3h3V2zM3 3h1v1H3zm9 0h1v1h-1zM6 4v1h1V4zm3 0v1h1V4zM4 6v1h1V6zm7 0v1h1V6zM4 9v1h1V9zm-2 2v3h3v-3zm4 0v1h1v-1zm-3 1h1v1H3z" class="ColorScheme-Text" style="fill:currentColor;fill-opacity:1;stroke:none"/>
<path d="M8 8v2h1V9h1V8zm4 0v1h1v1h1V8zm-4 4v2h2v-1H9v-1zm5 0v1h-1v1h2v-2z" class="ColorScheme-Highlight" style="fill:currentColor;fill-opacity:1;stroke:none"/>
</svg>
