<svg xmlns="http://www.w3.org/2000/svg" viewBox="0 0 16 16">
<style id="current-color-scheme" type="text/css">
.ColorScheme-Text{color:#fcfcfc}
</style>
<path fill="currentColor" d="M8 2a1 1 0 0 0-1 1 1 1 0 0 0 .014.17A3 3 0 0 0 5 6c0 1.868-.664 2.664-2 4v1h10v-1c-1.336-1.336-2-2.132-2-4a3 3 0 0 0-2.016-2.83A1 1 0 0 0 9 3a1 1 0 0 0-1-1m0 2a2 2 0 0 1 2 2c0 1.76.648 2.889 1.639 4H4.36C5.352 8.889 6 7.76 6 6a2 2 0 0 1 2-2m-1.412 8a1.5 1.5 0 0 0-.088.5A1.5 1.5 0 0 0 8 14a1.5 1.5 0 0 0 1.5-1.5 1.5 1.5 0 0 0-.088-.5z" class="ColorScheme-Text"/>
</svg>
