<svg xmlns="http://www.w3.org/2000/svg" width="16" height="16">
<path fill="#fcfcfc" d="M1.969.012V16h10v-3.268c.625-.245 1.191-.617 1.582-1.164.592-.83.918-1.897.918-3.057s-.326-2.227-.918-3.056c-.391-.548-.957-.919-1.582-1.164V.01zm1 1h8v4c1.383 0 2.5 1.566 2.5 3.5s-1.117 3.5-2.5 3.5V15H8v-2.268c.625-.245 1.191-.616 1.582-1.164.592-.829.918-1.897.918-3.056s-.326-2.228-.918-3.057c-.39-.547-.957-.919-1.582-1.164V4H7v1.012c1.383 0 2.5 1.566 2.5 3.5s-1.117 3.5-2.5 3.5V15H2.969z" color="#000" opacity=".35"/>
<rect width="22" height="1" x=".314" y="-.5" fill="#fcfcfc" rx=".5" ry=".5" style="paint-order:stroke fill markers" transform="rotate(45)"/>
</svg>
