<svg xmlns="http://www.w3.org/2000/svg" viewBox="0 0 16 16">
<defs>
<style id="current-color-scheme" type="text/css">
.ColorScheme-Text{color:#fcfcfc}
</style>
</defs>
<path fill="currentColor" d="M1 8v1h1V8zm2 0v1h1V8zm2 0v1h1V8zm2 0v1h1V8zm2 0v1h1V8zm2 0v1h1V8zm2 0v1h1V8zm2 0v1h1V8z" class="ColorScheme-Text" color="#fcfcfc"/>
<path fill="#fcfcfc" d="M10.711 1.104q-.2.012-.4.066L2.584 3.24A1.995 1.995 0 0 0 1.17 5.69L1.52 7h1.034l-.42-1.57a1 1 0 0 1 .707-1.225l7.728-2.07a1 1 0 0 1 1.225.707L12.908 7h1.035L12.76 2.584a1.996 1.996 0 0 0-2.049-1.48M2.324 10l.916 3.416a1.995 1.995 0 0 0 2.45 1.414l7.726-2.07a1.995 1.995 0 0 0 1.414-2.45l-.084-.31h-1.033l.152.57a1 1 0 0 1-.707 1.225l-7.728 2.07a1 1 0 0 1-1.225-.707L3.36 10z"/>
</svg>
