<svg xmlns="http://www.w3.org/2000/svg" viewBox="0 0 16 16">
<defs id="defs3051">
<style id="current-color-scheme" type="text/css">
.ColorScheme-Text{color:#fcfcfc}
</style>
</defs>
<path d="M7.5 2a.499.499 0 1 0 0 1 .499.499 0 1 0 0-1m-5 1a.499.499 0 1 0 0 1 .499.499 0 1 0 0-1M7 3a5.98 5.98 0 0 0-4.686 2.25l3.13 2.504A1.99 1.99 0 0 1 7 7zm0 1.5a.499.499 0 1 0 1 0 .499.499 0 1 0-1 0m0 2a.499.499 0 1 0 1 0 .499.499 0 1 0-1 0m3.709-3.436-2.65 4.243c.52.325.87.88.923 1.527l4.989-.416a6.97 6.97 0 0 0-3.262-5.354M3.5 8a.499.499 0 1 0 0 1 .499.499 0 1 0 0-1m2 0a.499.499 0 1 0 0 1 .499.499 0 1 0 0-1m2 0a.499.499 0 1 0 0 1 .499.499 0 1 0 0-1m0 2a.499.499 0 1 0 0 1 .499.499 0 1 0 0-1m2 0a.499.499 0 1 0 0 1 .499.499 0 1 0 0-1m-3.916.416-2.123 2.123A5 5 0 0 0 7 14v-3a2 2 0 0 1-1.416-.584M7 12.5a.499.499 0 1 0 1 0 .499.499 0 1 0-1 0m4.5-.5a.499.499 0 1 0 0 1 .499.499 0 1 0 0-1" class="ColorScheme-Text" style="fill:currentColor;fill-opacity:1;stroke:none"/>
</svg>
