<svg xmlns="http://www.w3.org/2000/svg" viewBox="0 0 16 16">
<defs id="defs3051">
<style id="current-color-scheme" type="text/css">
.ColorScheme-Text{color:#fcfcfc}
</style>
</defs>
<path d="M8 2a6 6 0 0 0-.867.07 6 6 0 0 0-.559.11l-.1.021-.076.022a6 6 0 0 0-.396.127l-.145.048-.1.041a6 6 0 0 0-.28.125l-.182.082-.07.04a6 6 0 0 0-.29.164l-.177.101-.076.055a6 6 0 0 0-.243.172l-.17.123-.062.054a6 6 0 0 0-.262.233q-.077.066-.152.137l-.033.035a6 6 0 0 0-.283.31q-.055.059-.108.12l-.012.015A6 6 0 0 0 2 8a6 6 0 0 0 6 6 6 6 0 0 0 6-6 6 6 0 0 0-.441-2.242A6 6 0 0 0 8 2m0 1a5 5 0 0 1 2.646.766L9.06 6.306c.52.326.87.882.923 1.528l2.998-.25A5 5 0 0 1 13 8a5 5 0 0 1-5 5v-3a2 2 0 0 1-1.416-.584l-2.117 2.117A5 5 0 0 1 3 8a5 5 0 0 1 1.1-3.121l2.343 1.875A1.99 1.99 0 0 1 8 6zm-3.436 8.625q.272.26.579.477a5 5 0 0 1-.579-.477m.735.576q.32.207.672.365a5 5 0 0 1-.672-.365m.83.432q.397.16.824.254a5 5 0 0 1-.824-.254" class="ColorScheme-Text" style="fill:currentColor;fill-opacity:1;stroke:none"/>
</svg>
