<svg xmlns="http://www.w3.org/2000/svg" width="16" height="16">
<path fill="#fcfcfc" fill-rule="evenodd" d="M4.027 1A3.02 3.02 0 0 0 1 4.027v7.946A3.02 3.02 0 0 0 4.027 15h7.946A3.02 3.02 0 0 0 15 11.973V4.027A3.02 3.02 0 0 0 11.973 1zM4 2h8c1.108 0 2 .892 2 2v8c0 1.108-.892 2-2 2H4c-1.108 0-2-.892-2-2V4c0-1.108.892-2 2-2" style="paint-order:stroke fill markers"/>
<path fill="#fcfcfc" fill-rule="evenodd" d="M4 1C2.338 1 1 2.338 1 4s1.338 3 3 3h8c1.662 0 3-1.338 3-3s-1.338-3-3-3zm0 1h8c1.108 0 2 .892 2 2s-.892 2-2 2H4c-1.108 0-2-.892-2-2s.892-2 2-2" style="paint-order:stroke fill markers"/>
<path fill="#fcfcfc" fill-rule="evenodd" d="M7 1h2v10l-2-1z" opacity=".45" style="paint-order:stroke fill markers"/>
</svg>
