<svg xmlns="http://www.w3.org/2000/svg" viewBox="0 0 16 16">
<defs>
<style id="current-color-scheme" type="text/css">
.ColorScheme-Text{color:#fcfcfc}
</style>
</defs>
<path fill="currentColor" d="m3.5 2-.531.969L2 3.5l.969.531L3.5 5l.531-.969L5 3.5l-.969-.531Zm9.45 1.05a1.996 1.996 0 0 0-2.828 0L3.05 10.121a1.996 1.996 0 0 0 0 2.829 1.996 1.996 0 0 0 2.829 0l7.071-7.071a1.996 1.996 0 0 0 0-2.829m-.707.707a1 1 0 0 1 0 1.415l-2.121 2.12L8.707 5.88l2.122-2.122a1 1 0 0 1 1.414 0M8 6.586 9.414 8l-4.242 4.243a1 1 0 0 1-1.414 0 1 1 0 0 1 0-1.415z" class="ColorScheme-Text"/>
</svg>
