<svg xmlns="http://www.w3.org/2000/svg" viewBox="0 0 16 16">
<defs>
<style id="current-color-scheme" type="text/css">
.ColorScheme-Text{color:#fcfcfc}
</style>
</defs>
<path d="M9 5h1v3h3v5H7v-1H6v2h8V7l-3-3H9z" class="ColorScheme-Text" style="fill:currentColor;fill-opacity:1;stroke:none"/>
<path d="M5.5 2A2.5 2.5 0 0 0 3 4.5V6H2v5h7V6H8V4.5A2.5 2.5 0 0 0 5.5 2m0 1A1.5 1.5 0 0 1 7 4.5V6H4V4.5A1.5 1.5 0 0 1 5.5 3M3 7h5v3H3z" class="ColorScheme-Text" style="fill:currentColor;fill-opacity:1;stroke:none"/>
</svg>
