<svg xmlns="http://www.w3.org/2000/svg" viewBox="0 0 16 16">
<defs id="defs3051">
<style id="current-color-scheme" type="text/css">
.ColorScheme-Text{color:#fcfcfc}
</style>
</defs>
<path d="M9.504 2a4.5 4.5 0 0 0-4.467 4H2v8h8v-3.03a4.5 4.5 0 0 0 4.004-4.47 4.5 4.5 0 0 0-4.5-4.5m0 1a3.5 3.5 0 0 1 3.5 3.5A3.5 3.5 0 0 1 10 9.96V6H6.045a3.5 3.5 0 0 1 3.459-3M3 7h2.035A4.5 4.5 0 0 0 9 10.967V13H3zm3.043 0H9v2.959A3.5 3.5 0 0 1 6.043 7" class="ColorScheme-Text" style="fill:currentColor;fill-opacity:1;stroke:none"/>
<path d="M9.5 3A3.5 3.5 0 0 0 6 6.5a3.5 3.5 0 0 0 .04.5H9v2.959a3.5 3.5 0 0 0 .5.041A3.5 3.5 0 0 0 13 6.5 3.5 3.5 0 0 0 9.5 3M9 9.959A3.5 3.5 0 0 1 6.04 7H3v6h6z" class="ColorScheme-Text" style="fill:currentColor;fill-opacity:.5;stroke:none"/>
</svg>
