<svg xmlns="http://www.w3.org/2000/svg" viewBox="0 0 16 16">
<defs id="defs3051">
<style id="current-color-scheme" type="text/css">
.ColorScheme-Text{color:#fcfcfc}
</style>
</defs>
<path d="M9 2.031a4.5 4.5 0 0 0-1.3.348l.503.873A3.5 3.5 0 0 1 9 3.039zm1 .002v1.008a3.5 3.5 0 0 1 .797.211l.502-.87A4.5 4.5 0 0 0 10 2.034m-3.166.848a4.5 4.5 0 0 0-.953.953l.873.502a3.5 3.5 0 0 1 .58-.586zm5.332 0-.502.873a3.5 3.5 0 0 1 .586.58l.87-.5a4.5 4.5 0 0 0-.954-.953M13.621 4.7l-.873.504a3.5 3.5 0 0 1 .213.797h1.008a4.5 4.5 0 0 0-.348-1.3m-8.238.002A4.5 4.5 0 0 0 5.033 6H2v8h8v-3.031a4.5 4.5 0 0 0 1.3-.348l-.503-.873a3.5 3.5 0 0 1-.797.211V6H6.04a3.5 3.5 0 0 1 .212-.797zM3 7h2.03A4.5 4.5 0 0 0 9 10.967V13H3zm3.04 0H9v2.959A3.5 3.5 0 0 1 6.04 7m6.919 0a3.5 3.5 0 0 1-.211.797l.87.502A4.5 4.5 0 0 0 13.966 7zm-.713 1.664a3.5 3.5 0 0 1-.58.586l.5.87a4.5 4.5 0 0 0 .953-.954z" class="ColorScheme-Text" style="fill:currentColor;fill-opacity:1;stroke:none"/>
<path d="M3 7v6h6V7z" class="ColorScheme-Text" style="fill:currentColor;fill-opacity:.5;stroke:none"/>
</svg>
