<svg xmlns="http://www.w3.org/2000/svg" width="20" height="20">
<style id="current-color-scheme" type="text/css">
.ColorScheme-Text{color:#fcfcfc}
</style>
<path d="M.855-.295V19.79l4.244-4.144c.588 1.188 1.159 2.386 1.759 3.569 1.108 1.64 4.157.465 3.898-1.496.01-.47-.406-.909-.435-1.314l.778-.76c.588 1.19 1.159 2.387 1.759 3.57 1.108 1.64 4.157.465 3.898-1.496-.193-.905-.718-1.698-1.069-2.55l-.717-1.537h5.268L6.855-.295v6.244zm1.5 3.727 6 6.244V3.432l8.36 8.699h-4.1c.883 1.903 1.782 3.8 2.656 5.708.006.622-1.228.98-1.325.207l-2.413-4.921-3.06 2.986c.263.608.596 1.193.814 1.816-.183.601-1.268.838-1.366.068l-2.388-4.87-3.178 3.102z" class="ColorScheme-Text" style="fill:currentColor"/>
</svg>
