<svg xmlns="http://www.w3.org/2000/svg" viewBox="0 0 16 16">
<defs id="defs3051">
<style id="current-color-scheme" type="text/css">
.ColorScheme-Text{color:#fcfcfc}
</style>
</defs>
<path d="M3.5 1.998V2A1.5 1.5 0 0 0 2 3.5a1.48 1.48 0 0 0 1 1.406v6.188c-.586.204-1 .75-1 1.406a1.5 1.5 0 0 0 3 0 1.48 1.48 0 0 0-1-1.406V4.906c.077-.027.148-.054.219-.093l2.875 2.156a1.5 1.5 0 1 0 .625-.75L4.875 4.094A1.5 1.5 0 0 0 3.5 1.998m0 1a.5.5 0 1 1 0 1 .5.5 0 0 1 0-1m5 4a.5.5 0 1 1 0 1 .5.5 0 0 1 0-1M11 8v4.094L8.719 9.813 8 10.502l3.281 3.312.219.188.219-.188L15 10.502l-.719-.69L12 12.095V8zm-7.5 3.998a.5.5 0 1 1 0 1 .5.5 0 0 1 0-1" class="ColorScheme-Text" style="fill:currentColor;fill-opacity:1;stroke:none"/>
</svg>
