<svg xmlns="http://www.w3.org/2000/svg" width="16" height="16">
<path fill="#fcfcfc" d="M9 7a1 1 0 0 0-.707.293L7.586 8H6a1 1 0 0 0-1 1v6a1 1 0 0 0 1 1h9a1 1 0 0 0 1-1V9a1 1 0 0 0-1-1h-1.586l-.707-.707A1 1 0 0 0 12 7zm0 1h3l1 1h2v6H6V9h2z" color="#000"/>
<path fill="#fcfcfc" fill-rule="evenodd" d="M10.5 9A2.5 2.5 0 0 0 8 11.5a2.5 2.5 0 0 0 2.5 2.5 2.5 2.5 0 0 0 2.5-2.5A2.5 2.5 0 0 0 10.5 9m0 1a1.5 1.5 0 0 1 1.5 1.5 1.5 1.5 0 0 1-1.5 1.5A1.5 1.5 0 0 1 9 11.5a1.5 1.5 0 0 1 1.5-1.5"/>
<path fill="#fcfcfc" d="M1 0a1 1 0 0 0-1 1v5a1 1 0 0 0 1 1h6a1 1 0 0 0 1-1v-.611l1.684.56A1 1 0 0 0 11 5V2a1 1 0 0 0-1.316-.95L8 1.612V1a1 1 0 0 0-1-1zm0 1h6v2l3-1v3L7 4v2H1z" color="#000"/>
</svg>
