<svg xmlns="http://www.w3.org/2000/svg" viewBox="0 0 16 16">
<defs>
<style id="current-color-scheme" type="text/css">
.ColorScheme-Text{color:#fcfcfc}
</style>
</defs>
<path fill="currentColor" d="M7.998 2.039c-3.77.005-7.07 2.367-8.008 5.73a1.042.96 0 0 0 0 .479c.946 3.356 4.246 5.71 8.01 5.713a1.042.96 0 0 0 .002 0c3.77-.005 7.07-2.367 8.007-5.73a1.042.96 0 0 0 0-.481C15.064 4.394 11.764 2.041 8 2.04a1.042.96 0 0 0-.001 0zm.002.96c3.295.003 6.172 2.055 7 4.993-.821 2.945-3.7 5.004-7 5.008-3.295-.002-6.172-2.054-7-4.992C1.82 5.063 4.7 3.004 8 3z" class="ColorScheme-Text"/>
<path fill="#da4453" d="M8 5a3 3 0 0 0-3 3 3 3 0 0 0 3 3 3 3 0 0 0 3-3 3 3 0 0 0-3-3m0 1a2 2 0 0 1 2 2 2 2 0 0 1-2 2 2 2 0 0 1-2-2 2 2 0 0 1 2-2"/>
</svg>
