<svg xmlns="http://www.w3.org/2000/svg" viewBox="0 0 16 16">
<style id="current-color-scheme" type="text/css">
.ColorScheme-Text{color:#fcfcfc}
</style>
<g class="ColorScheme-Text" style="fill:currentColor" stroke-width="0"><rect x="5" y="14" width="11" height="1" rx=".5" ry=".5"/><path d="M8.366.635c-.512 0-1.023.196-1.415.588L.589 7.586a1.995 1.995 0 0 0 0 2.828L5.175 15h3.554l6.002-6a1.995 1.995 0 0 0 0-2.828L9.78 1.222A2 2 0 0 0 8.365.636m0 1a1 1 0 0 1 .707.295l4.95 4.949a1 1 0 0 1 0 1.414l-3.536 3.535-6.364-6.363L7.659 1.93a1 1 0 0 1 .707-.295m-4.95 4.537 6.364 6.363-2.121 2.12a1 1 0 0 1-1.415 0L1.296 9.708a1 1 0 0 1 0-1.414z"/><path d="M3.416 6.172.589 9l6 6h.727l2.465-2.465z" opacity=".45"/></g></svg>
