<svg xmlns="http://www.w3.org/2000/svg" viewBox="0 0 16 16">
<defs id="defs3051">
<style id="current-color-scheme" type="text/css">
.ColorScheme-Text{color:#fcfcfc}
</style>
</defs>
<path d="M11.5 2A2.5 2.5 0 0 0 9 4.5 2.5 2.5 0 0 0 11.5 7 2.5 2.5 0 0 0 14 4.5 2.5 2.5 0 0 0 11.5 2m-6 2A2.5 2.5 0 0 0 3 6.5 2.5 2.5 0 0 0 5.5 9 2.5 2.5 0 0 0 8 6.5 2.5 2.5 0 0 0 5.5 4M11 8.072a3.5 4 0 0 0-2.508 2.201 4.5 5 0 0 1 .6.727h.201A2.5 3 0 0 1 11 9.107zM12 9v2h-2v1h2v2h1v-2h2v-1h-2V9zm-6.5 1A3.5 4 0 0 0 2 14h7a3.5 4 0 0 0-3.5-4m0 1a2.5 3 0 0 1 2.354 2H3.146A2.5 3 0 0 1 5.5 11" class="ColorScheme-Text" style="fill:currentColor;fill-opacity:1;stroke:none"/>
</svg>
