<svg xmlns="http://www.w3.org/2000/svg" viewBox="0 0 16 16">
<defs>
<style id="current-color-scheme" type="text/css">
.ColorScheme-Text{color:#fcfcfc}
</style>
</defs>
<path fill="currentColor" d="M2 1C.892 1 0 1.892 0 3v10c0 1.108.892 2 2 2h4.106A3 3 0 0 1 6 14.246V14H2c-.554 0-1-.446-1-1V5c0-.554.446-1 1-1h11c.554 0 1 .446 1 1v2h1V3c0-1.108-.892-2-2-2zm3.5 4c-.277 0-.5.223-.5.5v1c0 .277.223.5.5.5h1c.277 0 .5-.223.5-.5v-1c0-.277-.223-.5-.5-.5zm3 0c-.277 0-.5.223-.5.5v1c0 .277.223.5.5.5h1c.277 0 .5-.223.5-.5v-1c0-.277-.223-.5-.5-.5zm3 0c-.277 0-.5.223-.5.5v1c0 .277.223.5.5.5h1c.277 0 .5-.223.5-.5v-1c0-.277-.223-.5-.5-.5zm-9 3c-.277 0-.5.223-.5.5v1c0 .277.223.5.5.5h1c.277 0 .5-.223.5-.5v-1c0-.277-.223-.5-.5-.5zm3 0c-.277 0-.5.223-.5.5v1c0 .277.223.5.5.5H6c0-.745.28-1.416.727-1.94A.5.5 0 0 0 6.5 8zm-3 3c-.277 0-.5.223-.5.5v1c0 .277.223.5.5.5h1c.277 0 .5-.223.5-.5v-1c0-.277-.223-.5-.5-.5zm3 0c-.277 0-.5.223-.5.5v1c0 .277.223.5.5.5H6v-2z" class="ColorScheme-Text"/>
<path fill="currentColor" d="M9 8c-1.108 0-2 .892-2 2v4c0 1.108.892 2 2 2h5c1.108 0 2-.892 2-2v-4c0-1.108-.892-2-2-2zm0 2h5c.554 0 1 .446 1 1v3c0 .554-.446 1-1 1H9c-.554 0-1-.446-1-1v-3c0-.554.446-1 1-1" class="ColorScheme-Text"/>
</svg>
