<svg xmlns="http://www.w3.org/2000/svg" width="16" height="16">
<path fill="#fcfcfc" d="M841.488-189.982A7.006 7.006 0 0 0 834-183a7.006 7.006 0 0 0 5.192 6.762 7.01 7.01 0 0 0 7.877-3.262.5.5 0 1 0-.868-.5 6 6 0 0 1-6.752 2.795A5.996 5.996 0 0 1 835-183a5.996 5.996 0 0 1 10.71-3.709L844-185h4v-4l-1.58 1.58a7 7 0 0 0-4.932-2.562" color="#000" font-family="sans-serif" font-weight="400" overflow="visible" style="line-height:normal;font-variant-ligatures:normal;font-variant-position:normal;font-variant-caps:normal;font-variant-numeric:normal;font-variant-alternates:normal;font-feature-settings:normal;text-indent:0;text-align:start;text-decoration-line:none;text-decoration-style:solid;text-decoration-color:#000;text-transform:none;text-orientation:mixed;shape-padding:0;isolation:auto;mix-blend-mode:normal" transform="translate(-833 191.003)"/>
</svg>
