<svg xmlns="http://www.w3.org/2000/svg" width="16" height="16">
<g fill="#fcfcfc" stroke-linecap="round" stroke-linejoin="round" transform="translate(0 -1036.4)">
<path d="M3 1037.4c-1.108 0-2 .892-2 2v9c0 1.108.892 2 2 2h10c1.108 0 2-.892 2-2v-9c0-1.108-.892-2-2-2zm0 1h10c.554 0 1 .446 1 1v9c0 .554-.446 1-1 1H3c-.554 0-1-.446-1-1v-9c0-.554.446-1 1-1" style="paint-order:stroke fill markers"/>
<rect width="12" height="1" x="2" y="1044.4" rx="0" ry="0" style="paint-order:stroke fill markers"/>
<circle cx="3.984" cy="1047.3" r=".984" style="paint-order:stroke fill markers"/>
<circle cx="12" cy="1047.4" r="1" style="paint-order:stroke fill markers"/>
<path d="M2 1047.4c-.554 0-1 .446-1 1v3c0 .554.446 1 1 1h1c.554 0 1-.446 1-1v-2H3v2H2v-3zm12 0c.554 0 1 .446 1 1v3c0 .554-.446 1-1 1h-1c-.554 0-1-.446-1-1v-2h1v2h1v-3z" style="paint-order:stroke fill markers"/>
</g>
</svg>
