<svg xmlns="http://www.w3.org/2000/svg" width="16" height="16">
<g fill="#fcfcfc" color="#000">
<path d="M7.5 0A1.5 1.5 0 0 0 6 1.5 1.5 1.5 0 0 0 7.5 3 1.5 1.5 0 0 0 9 1.5 1.5 1.5 0 0 0 7.5 0m0 1a.5.5 0 0 1 .5.5.5.5 0 0 1-.5.5.5.5 0 0 1-.5-.5.5.5 0 0 1 .5-.5M6 4a.5.5 0 0 0-.447.277l-1 2-.028.065-1 3a.5.5 0 0 0 .317.633.5.5 0 0 0 .633-.317l.988-2.967L6.309 5h2.484l3.853 3.853a.5.5 0 0 0 .708 0 .5.5 0 0 0 0-.707l-4-4A.5.5 0 0 0 9 4z"/>
<path d="M7.686 8.351a.5.5 0 0 0-.55.743l3.934 6.164a.5.5 0 1 0 .86-.516L7.995 8.578a.5.5 0 0 0-.309-.227"/>
<path d="M7.5 4.5A.5.5 0 0 0 7 5v7l-2 2.293a.5.5 0 0 0 .707.707l2.147-2.44A.5.5 0 0 0 8 12.208V5a.5.5 0 0 0-.5-.5"/>
</g>
</svg>
