<svg xmlns="http://www.w3.org/2000/svg" width="16" height="16">
<path fill="#fcfcfc" d="M11 2c-1.028 0-1.859.78-1.969 1.781l-5.969 4.75L8 10.656V14h1v-4L5 8.281l2.094-1.687 2.125 2.375h3.78v-1H9.657l-1.781-2L9.22 4.906A2 2 0 1 0 11 2m0 1a1 1 0 0 1 1 1 1 1 0 0 1-1 1 1 1 0 0 1-1-1 1 1 0 0 1 1-1M3 9.969c-1.65 0-3 1.349-3 3 0 1.65 1.35 3 3 3s3-1.35 3-3-1.35-3-3-3m10 0c-1.65 0-3 1.349-3 3s1.35 3 3 3 3-1.35 3-3-1.35-3-3-3m-10 1c1.11 0 2 .89 2 2s-.89 2-2 2-2-.89-2-2 .89-2 2-2m10 0c1.11 0 2 .89 2 2s-.89 2-2 2-2-.89-2-2 .89-2 2-2" color="#000" style="block-progression:tb;text-indent:0;text-transform:none"/>
</svg>
