<svg xmlns="http://www.w3.org/2000/svg" width="16" height="16">
<g fill="#fcfcfc">
<path d="M1.938 7A.935.935 0 0 0 1 7.938v4.125c0 .519.418.937.938.937h12.125a.935.935 0 0 0 .937-.937V7.937A.935.935 0 0 0 14.063 7zM2 8h12v4H2z" style="paint-order:stroke fill markers"/>
<path d="M5 3c-.562 0-1.1.303-1.4.65s-.441.71-.55 1.034L2.28 7h1.054L4 5c.175-.526.446-1 1-1h6c.554 0 .825.474 1 1l.666 2h1.055l-.772-2.316c-.108-.324-.249-.686-.549-1.034-.3-.347-.838-.65-1.4-.65z" color="#000" style="paint-order:stroke fill markers"/>
<circle cx="4" cy="10" r="1" style="paint-order:stroke fill markers"/>
<circle cx="12" cy="10" r="1" style="paint-order:stroke fill markers"/>
<rect width="2" height="3" x="2" y="12" rx="1" ry="1" style="paint-order:stroke fill markers"/>
<rect width="2" height="3" x="12" y="12" rx="1" ry="1" style="paint-order:stroke fill markers"/>
</g>
</svg>
