<svg xmlns="http://www.w3.org/2000/svg" viewBox="0 0 16 16">
<defs id="defs3051">
<style id="current-color-scheme" type="text/css">
.ColorScheme-Text{color:#fcfcfc}
</style>
</defs>
<path d="M7 2v1.102a5 5 0 0 0-1.754.73l-.781-.781L3.05 4.465l.781.781A5 5 0 0 0 3.105 7H2v2h1.102c.129.626.377 1.22.73 1.754l-.781.781 1.414 1.414.781-.781A5 5 0 0 0 7 12.895v-1.028a4 4 0 0 1-1.87-1.08 3.997 3.997 0 0 1 .083-5.654A4.001 4.001 0 0 1 12 8.002a4 4 0 0 1-.133 1H14v-2h-1.102a5 5 0 0 0-.73-1.756l.781-.78-1.414-1.413-.781.779A5 5 0 0 0 9 3.105V2.002zm0 4v4l3-2zm3 4-2 2 2 2h4v-4zm.6 1H13v2h-2.4l-1-1z" class="ColorScheme-Text" style="fill:currentColor;fill-opacity:1;stroke:none"/>
</svg>
