<svg xmlns="http://www.w3.org/2000/svg" width="16" height="16.001">
<style id="current-color-scheme" type="text/css">
.ColorScheme-Text{color:#fcfcfc}
</style>
<g class="ColorScheme-Text" style="fill:currentColor" transform="translate(-92 -540)">
<rect width="5" height="2" x="97" y="540" rx="1" ry="1"/>
<path d="m103.53 543-.105.002a1.5 1.5 0 0 0-1.143.627 6.5 6.5 0 0 0-3.113-.621 6.5 6.5 0 0 0-6.16 6.822 6.5 6.5 0 0 0 6.822 6.162 6.5 6.5 0 0 0 6.162-6.82v-.004a6.5 6.5 0 0 0-1.377-3.666 1.5 1.5 0 0 0 .383-1.078 1.5 1.5 0 0 0-1.47-1.424zm-3.76 1.006a5.5 5.5 0 0 1 5.223 5.213v.004a5.5 5.5 0 0 1-5.213 5.77 5.5 5.5 0 0 1-5.771-5.214 5.5 5.5 0 0 1 5.21-5.771 6 6 0 0 1 .551-.002"/>
<path d="M99.3 545h.5l.2 5h-1z"/>
<path d="M100.5 549.45a1 1 0 0 1-.948 1.05 1 1 0 0 1-1.05-.949 1 1 0 0 1 .948-1.05 1 1 0 0 1 1.05.948"/>
</g>
</svg>
