<svg xmlns="http://www.w3.org/2000/svg" width="16" height="16">
<path fill="#fcfcfc" d="M9 7a1 1 0 0 0-.707.293L7.586 8H6a1 1 0 0 0-1 1v6a1 1 0 0 0 1 1h9a1 1 0 0 0 1-1V9a1 1 0 0 0-1-1h-1.586l-.707-.707A1 1 0 0 0 12 7zm0 1h3l1 1h2v6H6V9h2z" color="#000"/>
<path fill="#fcfcfc" fill-rule="evenodd" d="M10.5 9A2.5 2.5 0 0 0 8 11.5a2.5 2.5 0 0 0 2.5 2.5 2.5 2.5 0 0 0 2.5-2.5A2.5 2.5 0 0 0 10.5 9m0 1a1.5 1.5 0 0 1 1.5 1.5 1.5 1.5 0 0 1-1.5 1.5A1.5 1.5 0 0 1 9 11.5a1.5 1.5 0 0 1 1.5-1.5"/>
<path fill="#fcfcfc" fill-rule="evenodd" d="M2 1C.892 1 0 1.892 0 3v7c0 1.108.892 2 2 2h2v-1H2c-.554 0-1-.446-1-1V3c0-.554.446-1 1-1h10c.554 0 1 .446 1 1v4h1V3c0-1.108-.892-2-2-2z"/>
</svg>
