<svg xmlns="http://www.w3.org/2000/svg" width="16" height="16">
<g fill="#fcfcfc" stroke-width="2" color="#fcfcfc" font-family="Sans" font-weight="400">
<path d="M2 1v8c0 2.072 1.575 3.522 2.937 4.469a14.8 14.8 0 0 0 2.688 1.468l.375.125.375-.125s1.33-.544 2.687-1.5C12.421 12.482 14 11.044 14 9V1zm1 1h10v7c0 2.964-5 5-5 5s-5-1.95-5-5z" overflow="visible" style="text-decoration-line:none;text-indent:0;text-transform:none"/>
<path d="M4 3v6c0 .979.925 2.022 2.062 2.812.95.66 1.646.909 1.938 1.032.292-.128.983-.391 1.937-1.063C11.08 10.978 12 9.92 12 9V3z" opacity=".35" overflow="visible" style="text-decoration-line:none;text-indent:0;text-transform:none"/>
</g>
</svg>
