<svg xmlns="http://www.w3.org/2000/svg" viewBox="0 0 16 16">
<defs id="defs3051">
<style id="current-color-scheme" type="text/css">
.ColorScheme-Text{color:#fcfcfc}.ColorScheme-Highlight{color:#3daee9}
</style>
</defs>
<path d="M5 3v1h6V3zM3 5v6h1V5zm9 0v6h1V5zm-7 7v1h6v-1z" class="ColorScheme-Text" style="fill:currentColor;fill-opacity:1;stroke:none"/>
<path d="M2 2v3h3V2zm9 0v3h3V2zM3 3h1v1H3zm9 0h1v1h-1zM2 11v3h3v-3zm9 0v3h3v-3zm-8 1h1v1H3zm9 0h1v1h-1z" class="ColorScheme-Highlight" style="fill:currentColor;fill-opacity:1;stroke:none"/>
</svg>
