<svg xmlns="http://www.w3.org/2000/svg" viewBox="0 0 16 16">
<defs id="defs3051">
<style id="current-color-scheme" type="text/css">
.ColorScheme-Text{color:#fcfcfc}.ColorScheme-Highlight{color:#3daee9}
</style>
</defs>
<path d="M8 2.025A5.5 5.5 0 0 0 3.027 7h1.004A4.5 4.5 0 0 1 8 3.033zm1 .002v1.004A4.5 4.5 0 0 1 12.967 7h1.008A5.5 5.5 0 0 0 9 2.027M3.03 8A5.5 5.5 0 0 0 8 12.973v-1.004A4.5 4.5 0 0 1 4.033 8zm9.939 0A4.5 4.5 0 0 1 9 11.967v1.008A5.5 5.5 0 0 0 13.973 8z" class="ColorScheme-Text" style="fill:currentColor;fill-opacity:1;stroke:none"/>
<path d="M7 1v3h3V1zm1 1h1v1H8zM2 6v3h3V6zm10 0v3h3V6zM3 7h1v1H3zm10 0h1v1h-1zm-6 4v3h3v-3zm1 1h1v1H8z" class="ColorScheme-Highlight" style="fill:currentColor;fill-opacity:1;stroke:none"/>
</svg>
