<svg xmlns="http://www.w3.org/2000/svg" viewBox="0 0 16 16">
<defs id="defs3051">
<style id="current-color-scheme" type="text/css">
.ColorScheme-Text{color:#fcfcfc}.ColorScheme-Highlight{color:#3daee9}
</style>
</defs>
<path d="M2 2v3h3V2zm9 0v3h3V2zM3 3h1v1H3zm3 0v1h1V3zm3 0v1h1V3zm3 0h1v1h-1zM3 6v1h1V6zm9 0v1h1V6zM3 9v1h1V9zm9 0v1h1V9zM2 11v3h3v-3zm1 1h1v1H3zm3 0v1h1v-1zm3 0v1h1v-1z" class="ColorScheme-Text" style="fill:currentColor;fill-opacity:1;stroke:none"/>
<path d="M431.714 541.79v4h4v-4zm1 1h2v2h-2z" class="ColorScheme-Highlight" style="fill:currentColor;fill-opacity:1;stroke:none" transform="translate(-421.714 -531.79)"/>
</svg>
