<svg xmlns="http://www.w3.org/2000/svg" viewBox="0 0 16 16">
<defs>
<style id="current-color-scheme" type="text/css">
.ColorScheme-Highlight{color:#3daee9}.ColorScheme-Text{color:#fcfcfc}
</style>
</defs>
<path d="m11.78 4.223-.708.707A10 10 0 0 1 14 12h1c0-2.917-1.158-5.715-3.22-7.777" class="ColorScheme-Highlight" style="fill:currentColor;fill-opacity:1;stroke:none"/>
<path d="M1 12v1h1v-1zm5 0v1h1v-1zm2 0v1h2v-1zm3 0v1h2v-1zm3 0v1h2v-1zm-1-9.707L5.293 10l.707.707L13.707 3z" class="ColorScheme-Text" style="fill:currentColor;fill-opacity:1;stroke:none"/>
<path d="M2 10v4h4v-4zm1 1h2v2H3z" class="ColorScheme-Highlight" style="fill:currentColor;fill-opacity:1;stroke:none"/>
</svg>
