<svg xmlns="http://www.w3.org/2000/svg" viewBox="0 0 16 16">
<defs id="defs3051">
<style id="current-color-scheme" type="text/css">
.ColorScheme-Text{color:#fcfcfc}
</style>
</defs>
<path d="M8 2a6 6 0 0 0-4.002 1.537L4 3.5a.5.5 0 0 0-.5-.5.5.5 0 0 0-.5.5.5.5 0 0 0 .5.5l.04-.002A6 6 0 0 0 2 8a6 6 0 0 0 1.537 4.002L3.5 12a.5.5 0 0 0-.5.5.5.5 0 0 0 .5.5.5.5 0 0 0 .5-.5l-.002-.04A6 6 0 0 0 8 14a6 6 0 0 0 4.002-1.537L12 12.5a.5.5 0 0 0 .5.5.5.5 0 0 0 .5-.5.5.5 0 0 0-.5-.5l-.04.002A6 6 0 0 0 14 8a6 6 0 0 0-1.537-4.002L12.5 4a.5.5 0 0 0 .5-.5.5.5 0 0 0-.5-.5.5.5 0 0 0-.5.5l.002.04A6 6 0 0 0 8 2m0 1a5 5 0 0 1 5 5 5 5 0 0 1-5 5 5 5 0 0 1-5-5 5 5 0 0 1 5-5m0 4a1 1 0 0 0-1 1 1 1 0 0 0 1 1 1 1 0 0 0 1-1 1 1 0 0 0-1-1" class="ColorScheme-Text" style="fill:currentColor;fill-opacity:1;stroke:none"/>
</svg>
