<svg xmlns="http://www.w3.org/2000/svg" viewBox="0 0 16 16">
<defs>
<style id="current-color-scheme" type="text/css">
.ColorScheme-Text{color:#fcfcfc}
</style>
</defs>
<path fill="currentColor" d="M8 0a2 2 0 0 0-2 2H4v.006c-1.113.032-2 .933-2 2.055v8.878C2 14.081 2.919 15 4.06 15h3.702a4.5 4.5 0 0 1-.498-1H4c-.554 0-1-.446-1-1V4c0-.554.446-1 1-1h2v1S5 4 5 5h6c0-.75-.563-.953-.844-1H10V3h2c.554 0 1 .446 1 1v4.264a4.5 4.5 0 0 1 1 .496v-4.7C14 2.92 13.08 2 11.94 2H10a2 2 0 0 0-.031-.406A2.01 2.01 0 0 0 7.999 0m-.012 1H8c.414 0 .754.266.906.625A.9.9 0 0 1 9 2c0 .888-1.072 1.335-1.703.71-.632-.623-.197-1.7.691-1.71" class="ColorScheme-Text"/>
<path fill="currentColor" d="M11.5 9A3.5 3.5 0 0 0 8 12.5a3.5 3.5 0 0 0 3.5 3.5 3.5 3.5 0 0 0 3.5-3.5A3.5 3.5 0 0 0 11.5 9m0 1 .479 1.346 1.289-.614-.614 1.29L14 12.5l-1.346.479.614 1.289-1.29-.614L11.5 15l-.479-1.346-1.289.614.614-1.29L9 12.5l1.346-.478-.614-1.29 1.29.614z" class="ColorScheme-Text"/>
</svg>
