<svg xmlns="http://www.w3.org/2000/svg" viewBox="0 0 16 16">
<defs id="defs3051">
<style id="current-color-scheme" type="text/css">
.ColorScheme-Text{color:#fcfcfc}
</style>
</defs>
<path d="m7.656 3-.125.344-2.625 7.469L3.438 8.25 3.28 8H2v1h.719l1.844 3.25.53.938.376-1.032L8.344 4H14V3zM11 6C9.338 6 8 7.338 8 9s1.338 3 3 3c.773 0 1.47-.304 2-.781V12h1V6h-1v.781A2.98 2.98 0 0 0 11 6m0 1c1.108 0 2 .892 2 2s-.892 2-2 2-2-.892-2-2 .892-2 2-2" class="ColorScheme-Text" style="fill:currentColor;fill-opacity:1;stroke:none"/>
</svg>
