<svg xmlns="http://www.w3.org/2000/svg" viewBox="0 0 16 16">
<defs>
<style id="current-color-scheme" type="text/css">
.ColorScheme-Text{color:#fcfcfc}
</style>
</defs>
<path fill="currentColor" d="M8 2a6 6 0 0 0-6 6 6 6 0 0 0 6 6 6 6 0 0 0 6-6 6 6 0 0 0-6-6m.567 1.701v.002a.33.33 0 0 1 .262.09l3.382 3.389a.32.32 0 0 1 .09.254v.006a.41.41 0 0 1-.382.38l-3.562.174L8.342 8A.316.316 0 0 1 8 7.658l.186-3.576a.41.41 0 0 1 .381-.38zM7.658 8c.2-.011.353.142.342.342l-.186 3.576a.41.41 0 0 1-.381.38.33.33 0 0 1-.262-.091L3.79 8.818a.32.32 0 0 1-.09-.254l-.002-.006c.01-.2.183-.37.384-.38l3.56-.174z" class="ColorScheme-Text"/>
</svg>
