<svg xmlns="http://www.w3.org/2000/svg" width="16" height="16">
<g fill="#fcfcfc">
<path d="M6.508 3.988 4 6.468v2.99l2.512 2.53h2.98L12 9.458v-2.99l-2.5-2.48zm.347 1h2.29L11 6.824v2.29l-1.855 1.874h-2.29L5 9.113V6.824z"/>
<path d="m5.219 1-.313.281-3.625 3.625L1 5.22v5.56l.281.313 3.625 3.625.313.281h5.561l.313-.281 3.625-3.625.281-.313V5.22l-.281-.313-3.625-3.625L10.78 1zm.406 1h4.75L14 5.625v4.75L10.375 14h-4.75L2 10.375v-4.75z" color="#000" font-family="Sans" font-weight="400" overflow="visible" style="text-decoration-line:none;text-indent:0;text-transform:none"/>
</g>
</svg>
