<svg xmlns="http://www.w3.org/2000/svg" viewBox="0 0 16 16">
<defs id="defs3051">
<style id="current-color-scheme" type="text/css">
.ColorScheme-Text{color:#fcfcfc}
</style>
</defs>
<path d="M2 2v12h2v-1H3V5h3v4h1V2zm6 0v7h1V5h4v2h1V2zm4.172 5.672-.707.707.95.95.67.671H9v1h4.086l-.672.672-.95.95.708.706.95-.95L15 10.5l-1.879-1.879zm-4.344 2-.95.95L5 12.5l1.879 1.879.95.95.706-.708-.95-.95-.67-.671H11v-1H6.914l.672-.672.95-.95z" class="ColorScheme-Text" style="fill:currentColor;fill-opacity:1;stroke:none"/>
</svg>
