<svg xmlns="http://www.w3.org/2000/svg" viewBox="0 0 16 16">
<defs>
<style id="current-color-scheme" type="text/css">
.ColorScheme-Text{color:#fcfcfc}
</style>
</defs>
<path fill="currentColor" d="M2 2C.892 2 0 2.892 0 4v8c0 1.108.892 2 2 2h6.762a4.5 4.5 0 0 1-.498-1H2c-.554 0-1-.446-1-1V6h6v1h8v.76a4.5 4.5 0 0 1 1 .914V4c0-1.108-.892-2-2-2zm0 1h12c.554 0 1 .446 1 1v1H1V4c0-.554.446-1 1-1" class="ColorScheme-Text"/>
<path fill="currentColor" d="M12.5 8.021a3.5 3.5 0 0 0-3.5 3.5 3.5 3.5 0 0 0 3.5 3.5 3.5 3.5 0 0 0 3.5-3.5 3.5 3.5 0 0 0-3.5-3.5m0 1 .479 1.346 1.289-.613-.614 1.289L15 11.52l-1.346.48.614 1.29-1.29-.614-.478 1.345-.479-1.345-1.289.613.614-1.289L10 11.521l1.346-.478-.614-1.29 1.29.614z" class="ColorScheme-Text"/>
</svg>
