<svg xmlns="http://www.w3.org/2000/svg" viewBox="0 0 16 16">
<style id="current-color-scheme" type="text/css">
.ColorScheme-Text{color:#fcfcfc}
</style>
<path d="m6.871 0-4.89.031A2 2 0 0 0-.006 2.03l-.008 4.95c0 .53.21 1.042.586 1.417l6.631 6.631a2 2 0 0 0 2.828 0l.03-.029A3.5 3.5 0 0 0 12.5 16a3.5 3.5 0 0 0 3.5-3.5 3.5 3.5 0 0 0-.999-2.445 2 2 0 0 0-.023-2.807L8.297.584A2 2 0 0 0 6.871 0m.006 1a1 1 0 0 1 .713.291l6.681 6.666a1 1 0 0 1 .002 1.414l-.072.072A3.5 3.5 0 0 0 12.5 9 3.5 3.5 0 0 0 9 12.5a3.5 3.5 0 0 0 .45 1.695l-.126.125a1 1 0 0 1-1.414 0L1.28 7.69a1 1 0 0 1-.294-.71l.008-4.949a1 1 0 0 1 .992-1zM4 3a1 1 0 1 0 0 2 1 1 0 0 0 0-2m8.5 7c.277 0 .5.223.5.5V12h1.5a.499.499 0 1 1 0 1H13v1.5a.499.499 0 1 1-1 0V13h-1.5a.499.499 0 1 1 0-1H12v-1.5c0-.277.223-.5.5-.5" class="ColorScheme-Text" style="fill:currentColor"/>
</svg>
