<svg xmlns="http://www.w3.org/2000/svg" viewBox="0 0 16 16">
<defs id="defs3051">
<style id="current-color-scheme" type="text/css">
.ColorScheme-Text{color:#fcfcfc}
</style>
</defs>
<path d="M2 2v5h2.5A1.5 1.5 0 0 0 6 5.5c0-.533-.268-1.015-.687-1.281A1.5 1.5 0 0 0 5.5 3.5 1.5 1.5 0 0 0 4 2zm8 0v5h2.5A1.5 1.5 0 0 0 14 5.5v-2A1.5 1.5 0 0 0 12.5 2zM3 3h1a.5.5 0 0 1 0 1H3zm8 0h1.5a.5.5 0 0 1 .5.5v2a.5.5 0 0 1-.5.5H11zM7 4v1h2V4zM3 5h1.5a.5.5 0 0 1 0 1H3zM2 9v1h3V9zm5 0v1h2V9zm4 0v1h3V9zm-5 2-4 1.5L6 14zm4 0v3l4-1.5zm-2 1a.5.5 0 1 0 0 1 .5.5 0 0 0 0-1" class="ColorScheme-Text" style="fill:currentColor;fill-opacity:1;stroke:none"/>
</svg>
