<svg xmlns="http://www.w3.org/2000/svg" viewBox="0 0 16 16">
<defs id="defs3051">
<style id="current-color-scheme" type="text/css">
.ColorScheme-Text{color:#fcfcfc}
</style>
</defs>
<path d="M2 2v12h8v-1H3V3h10v4h1V2zm2 2v1h8V4zm0 3v1h4V7zm0 3v1h6v-1z" class="ColorScheme-Text" style="fill:currentColor;fill-opacity:1;stroke:none"/>
<path d="M9 7v1h1.5c1.385 0 2.5 1.115 2.5 2.5 0 .819-.396 1.545-1 2V11h-1v3h3v-1h-1.063A3.44 3.44 0 0 0 14 10.5C14 8.561 12.439 7 10.5 7H10Z" style="fill:#1d99f3"/>
</svg>
