<svg xmlns="http://www.w3.org/2000/svg" viewBox="0 0 16 16">
<defs id="defs3051">
<style id="current-color-scheme" type="text/css">
.ColorScheme-Text{color:#fcfcfc}
</style>
</defs>
<path d="M4.004 8a3 3 0 0 0-3 3 3 3 0 0 0 3 3 3 3 0 0 0 2-.768v.77h1v-6h-1v.77a3 3 0 0 0-2-.77zM9 8v6h1v-.77a3 3 0 0 0 2 .77 3 3 0 0 0 3-3 3 3 0 0 0-3-3 3 3 0 0 0-2 .768V8zm3 1a2 2 0 0 1 2 2 2 2 0 0 1-2 2 2 2 0 0 1-2-2 2 2 0 0 1 2-2m-7.996.002a2 2 0 0 1 2 2 2 2 0 0 1-2 2 2 2 0 0 1-2-2 2 2 0 0 1 2-2" class="ColorScheme-Text" style="fill:currentColor;fill-opacity:1;stroke:none"/>
<path d="M7 2 4 4.5 7 7zm2 0v5l3-2.5z" style="fill:#1d99f3"/>
</svg>
