<svg xmlns="http://www.w3.org/2000/svg" width="16" height="16">
<path fill="#fcfcfc" d="M8 0C6.892 0 6 .892 6 2v1h1V2c0-.554.446-1 1-1h6c.554 0 1 .446 1 1v5h-.004c-.226 2.275-1.961 3.996-3.996 4v1c2.583-.004 4.765-2.17 5-5V2c0-1.108-.892-2-2-2zm1 3a1 1 0 0 0-.354.072c.496.109.945.337 1.315.657A1 1 0 0 0 9 3m4 0a1 1 0 0 0-1 1 1 1 0 0 0 1 1 1 1 0 0 0 1-1 1 1 0 0 0-1-1M2 4C.892 4 0 4.892 0 6v5c.235 2.83 2.417 4.996 5 5 2.583-.004 4.765-2.17 5-5V6c0-1.108-.892-2-2-2zm0 1h6c.554 0 1 .446 1 1v5h-.004C8.77 13.275 7.035 14.996 5 15c-2.035-.004-3.77-1.725-3.996-4H1V6c0-.554.446-1 1-1m9 1v2h2a2 2 0 0 0-2-2M3 7a1 1 0 0 0-1 1 1 1 0 0 0 1 1 1 1 0 0 0 1-1 1 1 0 0 0-1-1m4 0a1 1 0 0 0-1 1 1 1 0 0 0 1 1 1 1 0 0 0 1-1 1 1 0 0 0-1-1m-4 4a2 2 0 0 0 2 2 2 2 0 0 0 2-2z" style="paint-order:stroke fill markers"/>
</svg>
