<svg xmlns="http://www.w3.org/2000/svg" viewBox="0 0 16 16">
<defs id="defs3051">
<style id="current-color-scheme" type="text/css">
.ColorScheme-Text{color:#fcfcfc}
</style>
</defs>
<path d="M8 2a6 6 0 0 0-6 6 6 6 0 0 0 6 6 6 6 0 0 0 1-.09v-1.015A5 5 0 0 1 8 13a5 5 0 0 1-5-5 5 5 0 0 1 5-5 5 5 0 0 1 5 5h1a6 6 0 0 0-6-6m0 2a4 4 0 0 0-4 4h2a2 2 0 0 1 2-2zm0 3a1 1 0 0 0-1 1 1 1 0 0 0 1 1 1 1 0 0 0 1-1 1 1 0 0 0-1-1m2.404 1A2.01 2.01 0 0 1 12 9.973c0 .586-.249 1.107-.643 1.474a1.5 1.5 0 0 1-.357-.97q0-.123.03-.241a2 2 0 0 0-1.03 1.75 2 2 0 1 0 4 0A3.995 3.995 0 0 0 10.404 8" class="ColorScheme-Text" style="fill:currentColor;fill-opacity:1;stroke:none"/>
</svg>
