<svg xmlns="http://www.w3.org/2000/svg" viewBox="0 0 16 16">
<defs>
<style id="current-color-scheme" type="text/css">
.ColorScheme-Text{color:#fcfcfc}
</style>
</defs>
<g class="ColorScheme-Text" style="fill:currentColor">
<path d="M8 0a8 8 0 0 0-8 8 8 8 0 0 0 8 8 8 8 0 0 0 8-8 8 8 0 0 0-8-8m0 1a7 7 0 0 1 7 7 7 7 0 0 1-7 7 7 7 0 0 1-7-7 7 7 0 0 1 7-7"/>
<circle cx="5" cy="6" r="1"/>
<circle cx="11" cy="6" r="1"/>
<path d="M8 9a5 5 0 0 0-4.576 3H4.54A4 4 0 0 1 8 10a4 4 0 0 1 3.459 2h1.121A5 5 0 0 0 8 9"/>
</g>
</svg>
