<svg xmlns="http://www.w3.org/2000/svg" width="16" height="16">
<path fill="#fcfcfc" fill-rule="evenodd" d="M7.979 3.486a4.5 4.5 0 0 0-3.891 2.24l-.002.002c-.767 1.329-.707 2.869-.094 4.16L2.977 11.65l.834.557 1.285-2.229-.143-.25a3.49 3.49 0 0 1-.002-3.498l.002-.001c.443-.762 1.185-1.208 2-1.467L5.664 6.996l1.54 2.332 2.79.168 1.295-2.244c.184.84.167 1.71-.275 2.477a3.5 3.5 0 0 1-3.032 1.75h-.287L6.31 13.875l.834.555 1.18-2.041c1.426-.115 2.79-.832 3.557-2.16a4.5 4.5 0 0 0 0-4.5l-.434-.748-.433.748L9.437 8.46l-1.675-.102-.924-1.398 2.006-3.473z" color="#000" style="-inkscape-stroke:none"/>
<path fill="#fcfcfc" d="m7.445.168-6 4A1 1 0 0 0 1 5v6c0 .334.168.647.445.832l6 4c.335.223.775.223 1.11 0l6-4c.277-.185.445-.498.445-.832V5c0-.334-.168-.647-.445-.832l-6-4a1 1 0 0 0-1.11 0M8 1l6 4v6l-6 4-6-4V5z" color="#000" style="-inkscape-stroke:none"/>
</svg>
