<svg xmlns="http://www.w3.org/2000/svg" width="16" height="16">
<path fill="#fcfcfc" fill-rule="evenodd" d="M7 1v4.01s0 .24-.125.49c-.098.197-.412.5-.875.5H4.998c-.307-.005-.624.158-.758.307a1 1 0 0 0-.252.67l-.006.218.018.018V8h9v-.791l.012-.012-.004-.213a1 1 0 0 0-.248-.675c-.131-.147-.449-.312-.758-.309H11c-.463 0-.777-.303-.875-.5C10 5.25 10 5.01 10 5.01V1zm1 1h1v1H8zm0 2h1v.99s-.013.467.23.955C9.501 6.487 10.13 7 11 7H6c.87 0 1.499-.513 1.77-1.055.243-.488.23-.955.23-.955zM4 9v1.002s0 .997-.25 1.998a4.1 4.1 0 0 1-.535 1.227L2.709 14H5.5L7 11h.002l-.5 3H8.5l1.5-3h.002l-.5 3H11c.47 0 .893-.275 1.156-.625.286-.381.467-.87.594-1.375.25-1.001.25-1.998.25-1.998V9z" color="#000" style="-inkscape-stroke:none"/>
</svg>
