<svg xmlns="http://www.w3.org/2000/svg" viewBox="0 0 16 16">
<defs>
<style id="current-color-scheme" type="text/css">
.ColorScheme-Text{color:#fcfcfc}
</style>
</defs>
<path d="M2 2C.892 2 0 2.892 0 4v9c0 1.108.892 2 2 2h6.762A4.5 4.5 0 0 1 8 12.5a4.5 4.5 0 0 1 2.48-4.02L10 8l-3.478 4L4 10l-3 3V4c0-.554.446-1 1-1h12c.554 0 1 .446 1 1v4.76a4.5 4.5 0 0 1 1 .914V4c0-1.108-.892-2-2-2zm2.5 3a1.5 1.5 0 1 0 0 3 1.5 1.5 0 0 0 0-3" class="ColorScheme-Text" style="fill:currentColor"/>
<path d="M12.5 9A3.5 3.5 0 0 0 9 12.5a3.5 3.5 0 0 0 3.5 3.5 3.5 3.5 0 0 0 3.5-3.5A3.5 3.5 0 0 0 12.5 9m0 1.086 2.5 2.5-.707.707L13 12v3h-1v-3l-1.293 1.293-.707-.707z" class="ColorScheme-Text" style="fill:currentColor"/>
</svg>
