<svg xmlns="http://www.w3.org/2000/svg" viewBox="0 0 16 16">
<style id="current-color-scheme" type="text/css">
.ColorScheme-Text{color:#fcfcfc}
</style>
<path fill="currentColor" d="M11.5 2a2.5 2.5 0 1 0 0 5 2.5 2.5 0 0 0 0-5m-6 2a2.5 2.5 0 1 0 0 5 2.5 2.5 0 0 0 0-5M11 8.072c-1.095.236-2.026 1.053-2.508 2.201q.332.33.6.727h.201c.275-.93.913-1.637 1.707-1.893zM12 9v1h1V9zm-6.5 1C3.567 10 2 11.79 2 14h7c0-2.21-1.567-4-3.5-4m0 1c1.058.002 2 .803 2.354 2H3.146c.353-1.197 1.296-1.998 2.354-2m6.5 0v1h1v-1zm0 2v1h1v-1z" class="ColorScheme-Text"/>
</svg>
