<svg xmlns="http://www.w3.org/2000/svg" viewBox="0 0 22 22">
<defs id="defs3051">
<style id="current-color-scheme" type="text/css">
.ColorScheme-Text{color:#fcfcfc}
</style>
</defs>
<path d="M11 3C6.582 3 3 4.343 3 6v10c0 1.657 3.582 3 8 3 1.551 0 3.068-.17 4.367-.488L15.88 18h-5l-.002-.002C7.062 17.978 4 17.09 4 16v-3.549c.593.4 1.422.743 2.424 1.004l.777-.777C5.208 12.31 4.003 11.678 4 11V7.451C5.408 8.407 8.089 9 11 9c2.914-.001 5.596-.597 7-1.555V11c0 .343-.312.68-.9.979l.634.634q.14-.082.266-.168v.434l1 1V6c0-1.657-3.582-3-8-3m0 1c3.866 0 7 .895 7 2s-3.134 2-7 2-7-.895-7-2 3.134-2 7-2m.293 6-3.5 3.5 3.5 3.5.707-.707L9.707 14H15v-1H9.707L12 10.707zm5.414 3-.707.707L18.293 16H13v1h5.293L16 19.293l.707.707 3.5-3.5z" class="ColorScheme-Text" style="fill:currentColor;fill-opacity:1;stroke:none"/>
</svg>
