<svg xmlns="http://www.w3.org/2000/svg" id="svg11" version="1.1" viewBox="0 0 16 16">
<style id="current-color-scheme" type="text/css">
.ColorScheme-Text{color:#fcfcfc}.ColorScheme-Highlight{color:#3daee9}
</style>
<path id="path3" fill="currentColor" d="M2 8v6h5V8H6v3H3V8zm1 4h3v1H3z" class="ColorScheme-Text"/>
<path id="path5" fill="currentColor" d="M10 13h3v1h-3z" class="ColorScheme-Highlight"/>
<path id="path7" fill="currentColor" d="m2.5 4.793-.707.707L4.5 8.207 7.207 5.5 6.5 4.793l-2 2z" class="ColorScheme-Text"/>
<path id="path9" fill="currentColor" d="M5.951 2A2 2 0 0 0 4 4v3h1V4a1 1 0 0 1 1-1h4a1 1 0 0 1 1 1v8h1V4a2 2 0 0 0-1.951-2z" class="ColorScheme-Text"/>
</svg>
