<svg xmlns="http://www.w3.org/2000/svg" viewBox="0 0 22 22">
<defs id="defs3051">
<style id="current-color-scheme" type="text/css">
.ColorScheme-Text{color:#fcfcfc}
</style>
</defs>
<path d="M11 3C6.582 3 3 4.343 3 6v10c0 1.657 3.582 3 8 3 .973 0 1.935-.068 2.838-.197L13 17.914A24 24 0 0 1 11 18c-3.866 0-7-.895-7-2v-3.549C5.408 13.4 8.089 14 11 14c1.166-.002 2.316-.1 3.371-.285l1.205-1.205c-1.27.315-2.894.49-4.576.49-3.866 0-7-.895-7-2V7.451C5.408 8.407 8.089 9 11 9c2.914-.001 5.596-.597 7-1.555V11c-.003.37-.363.73-1.041 1.045l.455.455.184.184q.216-.116.402-.239v.64l1 1V6c0-1.657-3.582-3-8-3m0 1c3.866 0 7 .895 7 2s-3.134 2-7 2-7-.895-7-2 3.134-2 7-2m5.5 9-.207.207L13 16.5l.707.707L16 14.914v4.293h1v-4.293l2.293 2.293L20 16.5l-3.293-3.293z" class="ColorScheme-Text" style="fill:currentColor;fill-opacity:1;stroke:none"/>
</svg>
