<svg xmlns="http://www.w3.org/2000/svg" viewBox="0 0 22 22">
<defs id="defs3051">
<style id="current-color-scheme" type="text/css">
.ColorScheme-Text{color:#fcfcfc}
</style>
</defs>
<path d="M11 3a8 3 0 0 0-8 3v10a8 3 0 0 0 8 3 8 3 0 0 0 3.563-.316l-.844-.844A7 2 0 0 1 11 18a7 2 0 0 1-7-2v-3.549A8 3 0 0 0 11 14a8 3 0 0 0 2.438-.145l.262-.27.21.215a8 3 0 0 0 1.09-.2v-.961A7 2 0 0 1 11 13a7 2 0 0 1-7-2V7.451A8 3 0 0 0 11 9a8 3 0 0 0 7-1.555V11a7 2 0 0 1-.945 1H18v2.9l1-1V6a8 3 0 0 0-8-3m0 1a7 2 0 0 1 7 2 7 2 0 0 1-7 2 7 2 0 0 1-7-2 7 2 0 0 1 7-2m5 9v4.3L13.7 15l-.7.7 3.3 3.3.2.207.2-.207 3.3-3.3-.7-.7-2.3 2.3V13z" class="ColorScheme-Text" style="fill:currentColor;fill-opacity:1;stroke:none"/>
</svg>
