<svg xmlns="http://www.w3.org/2000/svg" viewBox="0 0 22 22">
<defs id="defs3051">
<style id="current-color-scheme" type="text/css">
.ColorScheme-Text{color:#fcfcfc}
</style>
</defs>
<path d="M11 3C6.582 3 3 4.343 3 6v10c0 1.657 3.582 3 8 3 1.895 0 3.728-.252 5.174-.71l-.735-.745-.043.01c-.452.19-.875.445-1.396.445-.294 0-.579-.037-.855-.098A23 23 0 0 1 11 18c-3.866 0-7-.895-7-2v-3.549c1.239.837 3.468 1.403 6.002 1.522.002-.343.062-.67.146-.989C6.64 12.861 4.001 12.01 4 11V7.451C5.408 8.407 8.089 9 11 9c2.914-.001 5.596-.597 7-1.555v8.444l.79.779A1.3 1.3 0 0 0 19 16V6c0-1.657-3.582-3-8-3m0 1c3.866 0 7 .895 7 2s-3.134 2-7 2-7-.895-7-2 3.134-2 7-2m3 7c-1.662 0-3 1.338-3 3s1.338 3 3 3c.65 0 1.26-.215 1.75-.562L18.281 19l.719-.719-2.562-2.531c.348-.49.562-1.1.562-1.75 0-1.662-1.338-3-3-3m0 1a2 2 0 1 1-.001 4.001A2 2 0 0 1 14 12" class="ColorScheme-Text" style="fill:currentColor;fill-opacity:1;stroke:none"/>
</svg>
