<svg xmlns="http://www.w3.org/2000/svg" viewBox="0 0 22 22">
<defs id="defs3051">
<style id="current-color-scheme" type="text/css">
.ColorScheme-Text{color:#fcfcfc}.ColorScheme-NegativeText{color:#da4453}
</style>
</defs>
<path d="m14.834 14-.834.834 1.666 1.666L14 18.166l.834.834 1.666-1.666L18.166 19l.834-.834-1.666-1.666L19 14.834 18.166 14 16.5 15.666Z" class="ColorScheme-NegativeText" style="fill:currentColor;fill-opacity:1;stroke:none"/>
<path d="M11 3C6.582 3 3 4.343 3 6v10c0 1.657 3.582 3 8 3a21 21 0 0 0 2-.1v-.984A23 23 0 0 1 11 18c-3.866 0-7-.895-7-2v-3.549C5.408 13.407 8.089 14 11 14c2.914-.001 5.596-.597 7-1.555V13h1V6c0-1.657-3.582-3-8-3m0 1c3.866 0 7 .895 7 2s-3.134 2-7 2-7-.895-7-2 3.134-2 7-2m7 3.445V11c0 1.105-3.134 2-7 2s-7-.895-7-2V7.451C5.408 8.407 8.089 9 11 9c2.914-.001 5.596-.597 7-1.555" class="ColorScheme-Text" style="fill:currentColor;fill-opacity:1;stroke:none"/>
</svg>
