<svg xmlns="http://www.w3.org/2000/svg" viewBox="0 0 16 16">
<style id="current-color-scheme" type="text/css">
.ColorScheme-Text{color:#fcfcfc}.ColorScheme-Highlight{color:#3daee9}
</style>
<g stroke-linecap="square">
<g fill="currentColor" class="ColorScheme-Text">
<path d="M3.5 2A1.5 1.5 0 0 0 2 3.5 1.5 1.5 0 0 0 3.5 5 1.5 1.5 0 0 0 5 3.5 1.5 1.5 0 0 0 3.5 2m-.012 1H3.5a.5.5 0 0 1 .5.5.5.5 0 0 1-.5.5.5.5 0 0 1-.5-.5.5.5 0 0 1 .488-.5"/>
<path d="M3 4h1v8H3z"/>
<path d="M11 4v2a1 1 0 0 1-1 1H4.951A2 2 0 0 0 3 9h1a1 1 0 0 1 1-1h5.049A2 2 0 0 0 12 6V4zm-7.5 7A1.5 1.5 0 0 0 2 12.5 1.5 1.5 0 0 0 3.5 14 1.5 1.5 0 0 0 5 12.5 1.5 1.5 0 0 0 3.5 11m-.012 1H3.5a.5.5 0 0 1 .5.5.5.5 0 0 1-.5.5.5.5 0 0 1-.5-.5.5.5 0 0 1 .488-.5"/>
</g>
<path fill="currentColor" d="M11.5 2A1.5 1.5 0 0 0 10 3.5 1.5 1.5 0 0 0 11.5 5 1.5 1.5 0 0 0 13 3.5 1.5 1.5 0 0 0 11.5 2m-.012 1h.012a.5.5 0 0 1 .5.5.5.5 0 0 1-.5.5.5.5 0 0 1-.5-.5.5.5 0 0 1 .488-.5" class="ColorScheme-Highlight"/>
</g>
</svg>
