<svg xmlns="http://www.w3.org/2000/svg" viewBox="0 0 16 16">
<defs>
<style id="current-color-scheme" type="text/css">
.ColorScheme-Text{color:#fcfcfc}
</style>
</defs>
<path fill="currentColor" d="M3 6v5h1V9h4v2h1V6H8v2H4V6zm11 3-4 4v2h2l4-4zm-.31 1.69.591.591-2.969 3-.593-.593z" class="ColorScheme-Text"/>
<path fill="currentColor" d="M2 1C.892 1 0 1.892 0 3v10c0 1.108.892 2 2 2h7v-1H2c-.554 0-1-.446-1-1V5c0-.554.446-1 1-1h11c.554 0 1 .446 1 1v3h1V3c0-1.108-.892-2-2-2z" class="ColorScheme-Text"/>
</svg>
