<svg xmlns="http://www.w3.org/2000/svg" id="svg16" version="1.1" viewBox="0 0 16 16">
<style id="current-color-scheme" type="text/css">
.ColorScheme-Text{color:#fcfcfc}
</style>
<path fill="currentColor" d="m9.385 3.898-.77.641L11 7.4V9H9v1h2v2h1v-2h2V9h-2V7.4l2.385-2.86-.77-.642-2.115 2.54zM5.5 4A2.495 2.495 0 0 0 3 6.5V7H2v1h1v1H2v1h1.05a2.494 2.494 0 0 0 2.45 2H7v-1H5.5c-.415 0-.791-.166-1.062-.437A1.5 1.5 0 0 1 4.09 10H7V9H4V8h3V7H4v-.5A1.497 1.497 0 0 1 5.5 5H7V4z" class="ColorScheme-Text"/>
</svg>
