<svg xmlns="http://www.w3.org/2000/svg" width="16" height="16.031">
<style id="current-color-scheme" type="text/css">
.ColorScheme-Text{color:#fcfcfc}
</style>
<g class="ColorScheme-Text" style="fill:currentColor">
<path d="M3 2.031c-1.108 0-2 .892-2 2v10c0 1.108.892 2 2 2h8c1.108 0 2-.892 2-2v-10c0-1.108-.892-2-2-2zm0 1h8c.554 0 1 .446 1 1v10c0 .554-.446 1-1 1H3c-.554 0-1-.446-1-1v-10c0-.554.446-1 1-1"/>
<path d="M5 .031c-1.108 0-2 .892-2 2h1c0-.554.446-1 1-1h8c.554 0 1 .446 1 1v10c0 .554-.446 1-1 1v1c1.108 0 2-.892 2-2v-10c0-1.108-.892-2-2-2z"/>
</g>
</svg>
