<svg xmlns="http://www.w3.org/2000/svg" viewBox="0 0 16 16">
<defs id="defs3051">
<style id="current-color-scheme" type="text/css">
.ColorScheme-Text{color:#fcfcfc}
</style>
</defs>
<path d="M2 2v1h2.375L2 6.318V7h4V6H4l2-3V2zm8 2v8.094L7.719 9.813 7 10.5l3.281 3.313.219.187.219-.187L14 10.5l-.719-.687L11 12.093V4zM4.094 9c-.783.018-1.376.143-1.813.344l.25.906c.21-.073 1.005-.312 1.469-.312h.063c.646.027.687.256.687.812v.219l-.344.062C2.84 11.26 2 11.454 2 12.656 2 13.494 2.617 14 3.5 14c.61 0 .996-.248 1.406-.594L5 14h1v-3.469C6 9.502 5.28 9 4.188 9zm.656 2.688v1.124c-.337.228-.594.376-1.031.376-.392 0-.594-.248-.594-.594 0-.656.58-.775 1.281-.875z" class="ColorScheme-Text" style="fill:currentColor;fill-opacity:1;stroke:none"/>
</svg>
