<svg xmlns="http://www.w3.org/2000/svg" viewBox="0 0 16 16">
<style id="current-color-scheme" type="text/css">
.ColorScheme-Text{color:#fcfcfc}.ColorScheme-NegativeText{color:#da4453}
</style>
<path d="M3 2v6H1v1h7V8H4V3h10v4h1V2zm2 2v1h4V4zm0 2v1h3V6zm8 2-4 4v2h2l4-4zm-.31 1.69.591.591-2.969 3-.593-.594zM1 10v4h7v-4zm5 1h1v2H6zm-4 1h1v1H2zm2 0h1v1H4z" class="ColorScheme-Text" style="fill:currentColor;fill-opacity:1;stroke:none"/>
<path d="M10 4v1h3V4z" class="ColorScheme-NegativeText" style="fill:currentColor;fill-opacity:1;stroke:none"/>
</svg>
