<svg xmlns="http://www.w3.org/2000/svg" viewBox="0 0 16 16">
<style id="current-color-scheme" type="text/css">
.ColorScheme-Text{color:#fcfcfc}.ColorScheme-NegativeText{color:#da4453}
</style>
<path d="m4.121 2 1 1H14v8.879l1 1V2zm2 2 1 1H9V4zM3 5.121V8H1v1h5.879l-1-1H4V6.121zM10.121 8l1 1H13V8zM1 10v4h10.879l-1-1H10v-.879L7.879 10zm11.121 0 .879.879V10zM2 12h1v1H2zm2 0h1v1H4zm2 0h1v1H6zm2 0h1v1H8z" class="ColorScheme-Text" style="fill:currentColor;fill-opacity:1;stroke:none"/>
<path d="M2.707 2 2 2.707 13.293 14l.707-.732zM10 4v1h3V4z" class="ColorScheme-NegativeText" style="fill:currentColor;fill-opacity:1;stroke:none"/>
</svg>
