<svg xmlns="http://www.w3.org/2000/svg" viewBox="0 0 16 16">
<defs>
<style id="current-color-scheme" type="text/css">
.ColorScheme-Text{color:#fcfcfc}
</style>
</defs>
<path fill="currentColor" d="M4 6v2h2V6zm3 0v2h2V6zm3 0v2h2V6zm-6 4v2h2v-2zm3 0v2h2v-2z" class="ColorScheme-Text"/>
<path fill="currentColor" d="M3 1c-1.108 0-2 .892-2 2v10c0 1.108.892 2 2 2h10c1.108 0 2-.892 2-2V3c0-1.108-.892-2-2-2zm0 3h10c.554 0 1 .446 1 1v8c0 .554-.446 1-1 1H3c-.554 0-1-.446-1-1V5c0-.554.446-1 1-1" class="ColorScheme-Text"/>
</svg>
