<svg xmlns="http://www.w3.org/2000/svg" viewBox="0 0 16 16">
<defs id="defs3051">
<style id="current-color-scheme" type="text/css">
.ColorScheme-Text{color:#fcfcfc}.ColorScheme-PositiveText{color:#27ae60}
</style>
</defs>
<g transform="translate(0 -1036.362)">
<path id="rect6742" d="M5 3C3 3 1.98 4.5 1 4.5S0 4 0 4v8s-.042.5 1 .5S3 11 5 11s3 1 3 1v-1.187C7.44 10.252 6.167 10 5 10c-2.051 0-3.357 1.5-4 1.5v-6C2.531 5.5 3 4 5 4c.833 0 1.948.385 2.281.719.367.28 1.071.28 1.438 0C8.989 4.449 10.167 4 11 4c2 0 2.313 1.5 4 1.5v2.256c.384.256.712.58 1 .94V4.062c-.037.14-.219.437-1 .437-1.042 0-2-1.5-4-1.5S8 4 8 4 7 3 5 3" class="ColorScheme-Text" style="fill:currentColor;fill-opacity:1;stroke:none" transform="translate(0 1036.362)"/>
<path id="rect4172" d="M12.5 1044.362c1.939 0 3.5 1.561 3.5 3.5s-1.561 3.5-3.5 3.5a3.49 3.49 0 0 1-3.5-3.5c0-1.939 1.561-3.5 3.5-3.5" class="ColorScheme-PositiveText" style="fill:currentColor;fill-opacity:1;stroke:none"/>
</g>
</svg>
