<svg xmlns="http://www.w3.org/2000/svg" viewBox="0 0 16 16">
<defs>
<style id="current-color-scheme" type="text/css">
.ColorScheme-Text{color:#fcfcfc}
</style>
</defs>
<path fill="currentColor" d="M2 1C.892 1 0 1.892 0 3v10c0 1.108.892 2 2 2h4.106A3 3 0 0 1 6 14.246V14H2c-.554 0-1-.446-1-1V5c0-.554.446-1 1-1h11c.554 0 1 .446 1 1v2h1V3c0-1.108-.892-2-2-2z" class="ColorScheme-Text"/>
<path fill="currentColor" d="M11.967 8a5 5 0 0 1 .033.5 4.5 4.5 0 0 1-.263 1.5H14c.554 0 1 .446 1 1v3c0 .554-.446 1-1 1H9c-.554 0-1-.446-1-1v-1.033a5 5 0 0 1-.5.033 5 5 0 0 1-.5-.031V14c0 1.108.892 2 2 2h5c1.108 0 2-.892 2-2v-4c0-1.108-.892-2-2-2z" class="ColorScheme-Text"/>
<path fill="currentColor" d="M7.495 5a3.5 3.5 0 0 0-3.5 3.5 3.5 3.5 0 0 0 3.5 3.5 3.5 3.5 0 0 0 3.5-3.5 3.5 3.5 0 0 0-3.5-3.5m1.99 1.379.707.707-3.535 3.535L4.535 8.5l.707-.707 1.415 1.414z" class="ColorScheme-Text"/>
</svg>
