<svg xmlns="http://www.w3.org/2000/svg" viewBox="0 0 16 16">
<defs>
<style id="current-color-scheme" type="text/css">
.ColorScheme-Text{color:#fcfcfc}
</style>
</defs>
<path fill="currentColor" d="M2 1C.892 1 0 1.892 0 3v10c0 1.108.892 2 2 2h6.762a4.5 4.5 0 0 1-.498-1H2c-.554 0-1-.446-1-1V5c0-.554.446-1 1-1h11c.554 0 1 .446 1 1v3.264a4.5 4.5 0 0 1 1 .496V3c0-1.108-.892-2-2-2z" class="ColorScheme-Text"/>
<path fill="currentColor" d="M12.5 9a3.5 3.5 0 1 0 0 7 3.5 3.5 0 0 0 0-7m-.5 1h1v2h2v1h-2v2h-1v-2h-2v-1h2zM3 6v5h1V9h4v2h.264A4.5 4.5 0 0 1 9 9.678V6H8v2H4V6z" class="ColorScheme-Text"/>
</svg>
