<svg xmlns="http://www.w3.org/2000/svg" viewBox="0 0 16 16">
<defs>
<style id="current-color-scheme" type="text/css">
.ColorScheme-Text{color:#fcfcfc}.ColorScheme-NegativeText{color:#da4453}
</style>
</defs>
<path fill="currentColor" d="m4.24 6-.707.707L5.326 8.5l-1.793 1.793.707.707 1.793-1.793L7.826 11l.707-.707L6.74 8.5l1.793-1.793L7.826 6 6.033 7.793z" class="ColorScheme-NegativeText" color="#da4453"/>
<g fill="currentColor" class="ColorScheme-Text" transform="matrix(-1 0 0 1 16 0)">
<path d="M2 2C.892 2 0 2.892 0 4v9c0 1.108.892 2 2 2h12c1.108 0 2-.892 2-2V4c0-1.108-.892-2-2-2zm0 1h12c.554 0 1 .446 1 1v9c0 .554-.446 1-1 1H2c-.554 0-1-.446-1-1V4c0-.554.446-1 1-1"/>
<rect width="1" height="11" x="5" y="3" ry="0"/>
</g>
</svg>
