<svg xmlns="http://www.w3.org/2000/svg" viewBox="0 0 16 16">
<style id="current-color-scheme" type="text/css">
.ColorScheme-Text{color:#fcfcfc}
</style>
<path fill="currentColor" d="M11.5 2a2.5 2.5 0 1 0 0 5 2.5 2.5 0 0 0 0-5M1 6v1h5v1h1v4H6v1H1v1h7V6zm1 2c-.366 0-.705.106-1 .277V10a1 1 0 1 1 2 0 1 1 0 0 1-2 0v1.723c.295.171.634.277 1 .277a2 2 0 1 0 0-4m9.646 0c-1.032.001-1.991.524-2.646 1.393V12h6.146c0-2.21-1.567-4-3.5-4m0 1c1.059.002 2.001.803 2.354 2H9.293c.353-1.197 1.295-1.998 2.353-2" class="ColorScheme-Text"/>
</svg>
