<svg xmlns="http://www.w3.org/2000/svg" viewBox="0 0 16 16">
<defs>
<style id="current-color-scheme" type="text/css">
.ColorScheme-Text{color:#fcfcfc}.ColorScheme-NegativeText{color:#da4453}
</style>
</defs>
<path fill="currentColor" d="m10.11 6.5-3.148 3.61-1.526-1.553-.662.675L7.001 11.5l3.773-4.322z" class="ColorScheme-Text"/>
<path fill="currentColor" d="M2 1C.892 1 0 1.892 0 3v10c0 1.108.892 2 2 2h6.762a4.5 4.5 0 0 1-.498-1H2c-.554 0-1-.446-1-1V5c0-.554.446-1 1-1h11c.554 0 1 .446 1 1v3.264a4.5 4.5 0 0 1 1 .496V3c0-1.108-.892-2-2-2z" class="ColorScheme-Text"/>
<path fill="currentColor" d="M12.5 9A3.5 3.5 0 0 0 9 12.5a3.5 3.5 0 0 0 3.5 3.5 3.5 3.5 0 0 0 3.5-3.5A3.5 3.5 0 0 0 12.5 9m-.5 1h1v3h-1zm0 4h1v1h-1z" class="ColorScheme-NegativeText"/>
</svg>
