<svg xmlns="http://www.w3.org/2000/svg" viewBox="0 0 16 16">
<style id="current-color-scheme" type="text/css">
.ColorScheme-Text{color:#fcfcfc}.ColorScheme-NegativeText{color:#da4453}
</style>
<path d="M3 2v6H1v1h8V8H4V3h10v5h1V2zm2 2v1h4V4zm0 2v1h3V6zm-4 4v4h8v-4zm5 1h2v2H6zm-4 1h1v1H2zm2 0h1v1H4z" class="ColorScheme-Text" style="fill:currentColor;fill-opacity:1;stroke:none"/>
<path d="M10 4v1h3V4zm.707 5L10 9.707l1.793 1.793L10 13.293l.707.707 1.793-1.793L14.293 14l.707-.707-1.793-1.793L15 9.707 14.293 9 12.5 10.793z" class="ColorScheme-NegativeText" style="fill:currentColor;fill-opacity:1;stroke:none"/>
</svg>
