<svg xmlns="http://www.w3.org/2000/svg" viewBox="0 0 16 16">
<style id="current-color-scheme" type="text/css">
.ColorScheme-Text{color:#fcfcfc}.ColorScheme-PositiveText{color:#27ae60}
</style>
<path fill="currentColor" d="M9.002 1.998 5 6H3.004v1h2.41l3.59-3.59 2.123 2.123.006-.004.004.004 2.828-2.828c.003.005-.707-.707-.707-.707l-2.125 2.125-2.127-2.125L9.004 2z" class="ColorScheme-PositiveText"/>
<path fill="currentColor" d="M2 2v12h12v-2.133Q12.564 10.435 11.13 9l-.003.004L11.121 9l-2.123 2.123L5.875 8H3V2zm1 7h2.46l3.536 3.535.002-.002.002.002 2.127-2.125c.866.866 1.727 1.738 2.607 2.59H3z" class="ColorScheme-Text"/>
</svg>
