<svg xmlns="http://www.w3.org/2000/svg" viewBox="0 0 16 16">
<defs>
<style id="current-color-scheme" type="text/css">
.ColorScheme-Text{color:#fcfcfc}
</style>
</defs>
<path fill="currentColor" d="M6 4v2h2V4zm3 0v1h3V4zM6 8v2h2V8zm3 0v1h3V8zm1 3v1h2v-1z" class="ColorScheme-Text"/>
<path fill="#fcfcfc" d="M4 1c-1.108 0-2 .892-2 2v1h-.5a.499.499 0 1 0 0 1H2v7h-.5a.499.499 0 1 0 0 1H2c0 1.108.892 2 2 2h9c1.108 0 2-.892 2-2V3c0-1.108-.892-2-2-2zm1 1h8c.554 0 1 .446 1 1v10c0 .554-.446 1-1 1H5c-.554 0-1-.446-1-1V3c0-.554.446-1 1-1"/>
</svg>
