<svg xmlns="http://www.w3.org/2000/svg" viewBox="0 0 16 16">
<defs>
<style id="current-color-scheme" type="text/css">
.ColorScheme-Text{color:#fcfcfc}
</style>
</defs>
<path fill="currentColor" d="M3.5 0a.5.5 0 0 0-.5.5.5.5 0 0 0 .5.5.5.5 0 0 0 .5-.5.5.5 0 0 0-.5-.5m4 0a.5.5 0 0 0-.5.5.5.5 0 0 0 .5.5.5.5 0 0 0 .5-.5.5.5 0 0 0-.5-.5m4 0a.5.5 0 0 0-.5.5.5.5 0 0 0 .5.5.5.5 0 0 0 .5-.5.5.5 0 0 0-.5-.5m-8 2c-.277 0-.5.223-.5.5V4H2C.892 4 0 4.892 0 6v6c0 1.108.892 2 2 2h11c1.108 0 2-.892 2-2V6c0-1.108-.892-2-2-2h-1V2.5a.499.499 0 1 0-1 0V4H8V2.5a.499.499 0 1 0-1 0V4H4V2.5c0-.277-.223-.5-.5-.5M2 5h11c.554 0 1 .446 1 1v2.955A3 3 0 0 1 11.498 6h-1a3 3 0 0 1-3 3 3 3 0 0 1-3-3h-1A3 3 0 0 1 1 8.957V6c0-.554.446-1 1-1m1.996 2.93A4 4 0 0 0 7.498 10a4 4 0 0 0 3.498-2.07A4 4 0 0 0 14 9.963V12c0 .554-.446 1-1 1H2c-.554 0-1-.446-1-1V9.963A4 4 0 0 0 3.996 7.93" class="ColorScheme-Text"/>
</svg>
