<svg xmlns="http://www.w3.org/2000/svg" viewBox="0 0 16 16">
<style id="current-color-scheme" type="text/css">
.ColorScheme-Text{color:#fcfcfc}.ColorScheme-NegativeText{color:#da4453}
</style>
<path fill="currentColor" d="M11.5 2a2.5 2.5 0 1 0 0 5 2.5 2.5 0 0 0 0-5M1 6v1h3.879l-1-1zm1 2c-.366 0-.705.106-1 .277V10a1 1 0 1 1 2 0 1 1 0 0 1-2 0v1.723c.295.171.634.277 1 .277a2 2 0 1 0 0-4m9.646 0c-.434 0-.85.11-1.242.283l.776.776A2 2 0 0 1 11.646 9c1.059.002 2.001.803 2.354 2h-.879l1 1h1.025c0-2.21-1.567-4-3.5-4M7 9.121V12H6v1H1v1h7v-3.879zm2 2V12h.879z" class="ColorScheme-Text"/>
<path fill="currentColor" d="M2.707 1.988 2 2.695l11.293 11.293.707-.732Z" class="ColorScheme-NegativeText"/>
</svg>
