<svg xmlns="http://www.w3.org/2000/svg" viewBox="0 0 16 16">
<defs>
<style id="current-color-scheme" type="text/css">
.ColorScheme-Text{color:#fcfcfc}
</style>
</defs>
<path fill="currentColor" d="M6.5 6.5a2.5 2.5 0 1 0 1.002 4.79 2.5 2.5 0 0 0 .998.21 2.5 2.5 0 1 0-1.002-4.79A2.5 2.5 0 0 0 6.5 6.5m0 1h.002A2.5 2.5 0 0 0 6 9a2.5 2.5 0 0 0 .504 1.5H6.5a1.5 1.5 0 0 1 0-3m1.996 0H8.5a1.5 1.5 0 1 1 0 3h-.002A2.5 2.5 0 0 0 9 9a2.5 2.5 0 0 0-.504-1.5m-.996.385c.317.284.5.69.5 1.115a1.5 1.5 0 0 1-.5 1.115A1.5 1.5 0 0 1 7 9a1.5 1.5 0 0 1 .5-1.115" class="ColorScheme-Text"/>
<path fill="currentColor" d="M2 1C.892 1 0 1.892 0 3v10c0 1.108.892 2 2 2h11c1.108 0 2-.892 2-2V3c0-1.108-.892-2-2-2zm0 3h11c.554 0 1 .446 1 1v8c0 .554-.446 1-1 1H2c-.554 0-1-.446-1-1V5c0-.554.446-1 1-1" class="ColorScheme-Text"/>
</svg>
