<svg xmlns="http://www.w3.org/2000/svg" viewBox="0 0 16 16">
<defs id="defs3051">
<style id="current-color-scheme" type="text/css">
.ColorScheme-Text{color:#fcfcfc}.ColorScheme-NegativeText{color:#da4453}
</style>
</defs>
<path d="M3 2v12h5.365c-.148-.309-.213-.649-.265-1H4V3h8v6.1c.351.052.691.117 1 .265V2zm2 2v1h4V4zm0 2v1h4V6zm0 2v1h4V8zm6.5 2C10.115 10 9 11.115 9 12.5s1.115 2.5 2.5 2.5 2.5-1.115 2.5-2.5-1.115-2.5-2.5-2.5m0 1a1.497 1.497 0 0 1 1.5 1.5h-1.5V14a1.497 1.497 0 0 1-1.5-1.5 1.497 1.497 0 0 1 1.5-1.5" class="ColorScheme-Text" style="fill:currentColor;fill-opacity:1;stroke:none"/>
<path d="M10 4v1h1V4zm0 2v1h1V6zm0 2v1h1V8z" class="ColorScheme-NegativeText" style="fill:currentColor;fill-opacity:1;stroke:none"/>
</svg>
