<svg xmlns="http://www.w3.org/2000/svg" viewBox="0 0 16 16">
<defs>
<style id="current-color-scheme" type="text/css">
.ColorScheme-Text{color:#fcfcfc}
</style>
</defs>
<path fill="currentColor" d="M14 4c-.554 0-1 .446-1 1v7l1.5 2 1.5-2V5c0-.554-.446-1-1-1zm.5 1c.277 0 .5.223.5.5v6a.499.499 0 1 1-1 0v-6c0-.277.223-.5.5-.5M2 1C.892 1 0 1.892 0 3v10c0 1.108.892 2 2 2h8c1.108 0 2-.892 2-2V3c0-1.108-.892-2-2-2zm1 1h7c.554 0 1 .446 1 1v10c0 .554-.446 1-1 1H3c-.554 0-1-.446-1-1V3c0-.554.446-1 1-1m6.5 2c-.277 0-.5.223-.5.5v7a.499.499 0 1 0 1 0v-7c0-.277-.223-.5-.5-.5" class="ColorScheme-Text"/>
</svg>
