<svg xmlns="http://www.w3.org/2000/svg" viewBox="0 0 16 16">
<style id="current-color-scheme" type="text/css">
.ColorScheme-Text{color:#fcfcfc}.ColorScheme-NegativeText{color:#da4453}
</style>
<path fill="currentColor" d="M9 2 6.56 4.44l.708.706 1.734-1.734 2.123 2.123.006-.004.004.004 2.828-2.828c.003.005-.707-.707-.707-.707L11.13 4.125 9.004 2l-.002.002ZM2 4.121V14h9.879l-1-1H3V9h2.46l3.536 3.535.002-.002.002.002.707-.707Q7.791 9.918 5.875 8H3V5.121ZM3 6v1l1.88.002-1-1z" class="ColorScheme-Text"/>
<path fill="currentColor" d="m2.664 2-.707.707L13.25 14l.707-.732Z" class="ColorScheme-NegativeText"/>
</svg>
