<svg xmlns="http://www.w3.org/2000/svg" viewBox="0 0 16 16">
<style id="current-color-scheme" type="text/css">
.ColorScheme-Text{color:#fcfcfc}.ColorScheme-NegativeText{color:#da4453}
</style>
<path d="M3 2v6H1v1h8V8H4V3h10v5h1V2zm2 2v1h4V4zm0 2v1h3V6zm7 3v2h-2v1h2v2h1v-2h2v-1h-2V9zM1 10v4h8v-4zm5 1h2v2H6zm-4 1h1v1H2zm2 0h1v1H4z" class="ColorScheme-Text" style="fill:currentColor;fill-opacity:1;stroke:none"/>
<path d="M10 4v1h3V4z" class="ColorScheme-NegativeText" style="fill:currentColor;fill-opacity:1;stroke:none"/>
</svg>
