<svg xmlns="http://www.w3.org/2000/svg" viewBox="0 0 16 16">
<defs>
<style id="current-color-scheme" type="text/css">
.ColorScheme-Text{color:#fcfcfc}
</style>
</defs>
<path fill="currentColor" d="M4 1c-1.108 0-2 .892-2 2v1h-.5a.499.499 0 1 0 0 1H2v7h-.5a.499.499 0 1 0 0 1H2c0 1.108.892 2 2 2h4.762a4.5 4.5 0 0 1-.498-1H5c-.554 0-1-.446-1-1V3c0-.554.446-1 1-1h8c.554 0 1 .446 1 1v5.264a4.5 4.5 0 0 1 1 .496V3c0-1.108-.892-2-2-2z" class="ColorScheme-Text"/>
<path fill="currentColor" d="M16 12.5A3.5 3.5 0 0 0 12.5 9 3.5 3.5 0 0 0 9 12.5a3.5 3.5 0 0 0 3.5 3.5 3.5 3.5 0 0 0 3.5-3.5m-1.086 0-2.5 2.5-.707-.707L13 13h-3v-1h3l-1.293-1.293.707-.707z" class="ColorScheme-Text"/>
</svg>
