<svg xmlns="http://www.w3.org/2000/svg" width="16" height="16.012">
<circle cx="7.5" cy="1.5" r="1.5" fill="#fcfcfc" style="paint-order:stroke fill markers"/>
<path fill="#fcfcfc" d="M6 7v2c0 1.108.892 2 2 2h1v-1H8c-.554 0-1-.446-1-1V7z" style="paint-order:stroke fill markers"/>
<rect width="1" height="6" x="8" y="5" fill="#fcfcfc" rx="0" ry="0" style="paint-order:stroke fill markers"/>
<path fill="#fcfcfc" d="M7 5c-.554 0-1 .446-1 1v1h1V6h1v1h1V6c0-.554-.446-1-1-1z" style="paint-order:stroke fill markers"/>
<path fill="#fcfcfc" d="M8.44 5.147a.5.5 0 0 0 0 .707l2 2a.5.5 0 0 0 .353.146h3a.5.5 0 0 0 .5-.5.5.5 0 0 0-.5-.5H11L9.147 5.147a.5.5 0 0 0-.708 0" color="#000" style="-inkscape-stroke:none"/>
<path fill="#fcfcfc" d="M8 10h3v1H8z" style="paint-order:stroke fill markers"/>
<path fill="#fcfcfc" d="M11.123 10.015a.5.5 0 0 0-.379.055.5.5 0 0 0-.172.687l3 5a.5.5 0 0 0 .688.172.5.5 0 0 0 .172-.687l-3-5a.5.5 0 0 0-.309-.227" color="#000" style="-inkscape-stroke:none"/>
<path fill="#fcfcfc" d="M5 7.035a4.506 4.506 0 0 0-4 4.47 4.506 4.506 0 0 0 4.506 4.507A4.506 4.506 0 0 0 9.976 12h-1.01a3.494 3.494 0 0 1-3.46 3 3.494 3.494 0 0 1-3.493-3.494A3.494 3.494 0 0 1 5 8.051z" opacity=".35" style="paint-order:stroke fill markers"/>
</svg>
