<svg xmlns="http://www.w3.org/2000/svg" viewBox="0 0 16 16">
<defs>
<style id="current-color-scheme" type="text/css">
.ColorScheme-Text{color:#fcfcfc}
</style>
</defs>
<path fill="currentColor" d="M6.8 6 10 9l-3.2 3-.8-.75L8.4 9 6 6.75Z" class="ColorScheme-Text"/>
<path fill="currentColor" d="M13 1c1.108 0 2 .892 2 2v10c0 1.108-.892 2-2 2H3c-1.108 0-2-.892-2-2V3c0-1.108.892-2 2-2zm0 3H3c-.554 0-1 .446-1 1v8c0 .554.446 1 1 1h10c.554 0 1-.446 1-1V5c0-.554-.446-1-1-1" class="ColorScheme-Text"/>
</svg>
