<svg xmlns="http://www.w3.org/2000/svg" viewBox="0 0 16 16">
<defs>
<style id="current-color-scheme" type="text/css">
.ColorScheme-Text{color:#fcfcfc}
</style>
</defs>
<path d="M3 1c-1.108 0-2 .892-2 2v10c0 1.108.892 2 2 2h1v-1H3c-.554 0-1-.446-1-1V5c0-.554.446-1 1-1h10c.554 0 1 .446 1 1h1V3c0-1.108-.892-2-2-2z" class="ColorScheme-Text" style="fill:currentColor"/>
<path fill="currentColor" d="M7 6c-1.108 0-2 .892-2 2v5c0 1.108.892 2 2 2h6c1.108 0 2-.892 2-2V8c0-1.108-.892-2-2-2zm0 3h6c.554 0 1 .446 1 1v3c0 .554-.446 1-1 1H7c-.554 0-1-.446-1-1v-3c0-.554.446-1 1-1" class="ColorScheme-Text"/>
</svg>
