<svg xmlns="http://www.w3.org/2000/svg" viewBox="0 0 16 16">
<defs>
<style id="current-color-scheme" type="text/css">
.ColorScheme-Text{color:#fcfcfc}.ColorScheme-NegativeText{color:#da4453}
</style>
</defs>
<path fill="currentColor" d="m8 1-5.969.031a1 1 0 0 0-.994.994l-.031 5.97c-.001.28.115.549.322.74l6.5 6a.99.99 0 0 0 .908.22 4.5 4.5 0 0 1-.57-1.27L2.006 8l.031-5.969 5.969-.03 5.691 6.165a4.5 4.5 0 0 1 1.264.566.99.99 0 0 0-.22-.91l-6-6.5A1 1 0 0 0 8 1M5.506 4a1.5 1.5 0 1 0 .001 3.001A1.5 1.5 0 0 0 5.506 4" class="ColorScheme-Text"/>
<path d="M12.5 9a3.5 3.5 0 1 0 0 7 3.5 3.5 0 0 0 0-7m-1.666 1 1.666 1.666L14.166 10l.834.834-1.666 1.666L15 14.166l-.834.834-1.666-1.666L10.834 15 10 14.166l1.666-1.666L10 10.834z" class="ColorScheme-NegativeText" style="fill:currentColor"/>
</svg>
