<svg width="300" height="300" viewBox="0 0 300 300" fill="none" xmlns="http://www.w3.org/2000/svg">
<path fill-rule="evenodd" clip-rule="evenodd" d="M117.219 1.54894C118.853 1.56634 120.415 1.35815 121.905 0.924425C141.483 -0.358145 161.061 -0.306123 180.637 1.08055C198.388 2.46358 215.57 6.31479 232.185 12.6341C259.807 24.006 278.708 43.7304 288.887 71.8071C294.708 88.7112 298.145 106.094 299.196 123.954C300.651 146.383 300.131 168.761 297.634 191.09C295.766 206.784 291.704 221.877 285.45 236.367C273.851 261.492 255.055 278.822 229.061 288.358C207.997 295.476 186.336 299.223 164.08 299.6C139.045 300.902 114.261 299.028 89.7269 293.979C44.569 283.92 16.7126 256.389 6.15787 211.387C1.67882 191.129 -0.351829 170.624 0.0659221 149.872C-0.433961 127.805 1.9091 106.051 7.09509 84.6097C18.1597 42.5329 44.8705 16.4592 87.2276 6.38895C97.0975 3.97597 107.095 2.36263 117.219 1.54894Z" fill="#D7D6D3"/>
<path d="M118.259 103.082H85.0546C83.9201 103.082 82.9794 102.136 82.9794 100.996C82.9794 99.8563 83.9201 98.911 85.0546 98.911H118.259C119.393 98.911 120.334 99.8563 120.334 100.996C120.334 102.136 119.393 103.082 118.259 103.082Z" fill="#5B5961"/>
<path d="M101.657 119.765C100.522 119.765 99.5813 118.819 99.5813 117.679V84.3134C99.5813 83.1734 100.522 82.228 101.657 82.228C102.791 82.228 103.732 83.1734 103.732 84.3134V117.679C103.732 118.819 102.791 119.765 101.657 119.765Z" fill="#5B5961"/>
<path d="M85.2621 197.966H118.632" stroke="#5B5961" stroke-width="5.025" stroke-linecap="round" stroke-linejoin="round"/>
<path d="M233.019 118.472V84.7722C233.019 71.5093 227.707 66.1707 214.508 66.1707H180.972C167.774 66.1707 162.461 71.5093 162.461 84.7722V118.472C162.461 131.735 167.774 137.073 180.972 137.073H214.508C227.707 137.073 233.019 131.735 233.019 118.472Z" stroke="#959491" stroke-width="15" stroke-linecap="round" stroke-linejoin="round"/>
<path d="M137.558 120.557V82.6868C137.558 70.9254 132.246 66.1707 119.047 66.1707H85.5112C72.3126 66.1707 67 70.9254 67 82.6868V120.474C67 132.319 72.3126 136.99 85.5112 136.99H119.047C132.246 137.073 137.558 132.319 137.558 120.557Z" stroke="#959491" stroke-width="15" stroke-linecap="round" stroke-linejoin="round"/>
<path d="M137.558 214.399V180.699C137.558 167.436 132.246 162.098 119.047 162.098H85.5112C72.3126 162.098 67 167.436 67 180.699V214.399C67 227.661 72.3126 233 85.5112 233H119.047C132.246 233 137.558 227.661 137.558 214.399Z" stroke="#959491" stroke-width="15" stroke-linecap="round" stroke-linejoin="round"/>
<path d="M174.913 178.78H224.718" stroke="#F77400" stroke-width="15" stroke-linecap="round"/>
<path d="M174.913 212.146H224.718" stroke="#F77400" stroke-width="15" stroke-linecap="round"/>
<path d="M158.311 106.243V114.051C158.311 134.07 166.28 142.078 186.202 142.078H210.109C230.031 142.078 238 134.07 238 114.051V90.0273C238 70.0078 230.031 62 210.109 62H186.202C166.28 62 158.311 70.0078 158.311 90.0273" stroke="#959491" stroke-width="5" stroke-linecap="round" stroke-linejoin="round"/>
<path d="M183.494 115.132L209.552 88.9462" stroke="#5B5961" stroke-width="5" stroke-linecap="round" stroke-linejoin="round"/>
<path d="M185.126 95.5123C187.833 95.5123 190.027 93.3074 190.027 90.5875C190.027 87.8676 187.833 85.6627 185.126 85.6627C182.419 85.6627 180.225 87.8676 180.225 90.5875C180.225 93.3074 182.419 95.5123 185.126 95.5123Z" stroke="#5B5961" stroke-width="5" stroke-linecap="round" stroke-linejoin="round"/>
<path d="M211.181 118.415C213.888 118.415 216.082 116.21 216.082 113.49C216.082 110.77 213.888 108.565 211.181 108.565C208.474 108.565 206.28 110.77 206.28 113.49C206.28 116.21 208.474 118.415 211.181 118.415Z" stroke="#5B5961" stroke-width="5" stroke-linecap="round" stroke-linejoin="round"/>
</svg>
