<svg width="300" height="300" viewBox="0 0 300 300" fill="none" xmlns="http://www.w3.org/2000/svg">
<path fill-rule="evenodd" clip-rule="evenodd" d="M117.219 1.54894C118.853 1.56634 120.415 1.35815 121.905 0.924425C141.483 -0.358145 161.061 -0.306123 180.637 1.08055C198.388 2.46358 215.57 6.31479 232.185 12.6341C259.807 24.006 278.708 43.7304 288.887 71.8071C294.708 88.7112 298.145 106.094 299.196 123.954C300.651 146.383 300.131 168.761 297.634 191.09C295.766 206.784 291.704 221.877 285.45 236.367C273.851 261.492 255.055 278.822 229.061 288.358C207.997 295.476 186.336 299.223 164.08 299.6C139.045 300.902 114.261 299.028 89.7269 293.979C44.569 283.92 16.7126 256.389 6.15787 211.387C1.67882 191.129 -0.351829 170.624 0.0659221 149.872C-0.433961 127.805 1.9091 106.051 7.09509 84.6097C18.1597 42.5329 44.8705 16.4592 87.2276 6.38895C97.0975 3.97597 107.095 2.36263 117.219 1.54894Z" fill="#2991C9"/>
<path d="M42 148.981C42 153.44 45.5299 156.133 49.896 156.133C52.59 156.133 54.7263 154.833 56.5843 152.975L147.248 70.3928C148.27 69.371 149.385 68.9993 150.592 68.9993C151.707 68.9993 152.729 69.371 153.844 70.3928L244.416 152.975C246.366 154.833 248.502 156.133 251.103 156.133C255.469 156.133 259 153.44 259 148.981C259 146.194 257.978 144.429 256.213 142.85L224.071 113.588V58.6883C224.071 54.6008 221.47 52 217.384 52H205.214C201.22 52 198.432 54.6008 198.432 58.6883V90.2719L161.647 56.6448C158.396 53.579 154.401 52.0927 150.5 52.0927C146.598 52.0927 142.697 53.579 139.352 56.6448L44.7867 142.85C43.1149 144.429 42 146.194 42 148.981ZM68.5674 226.918C68.5674 239.831 76.3707 247.355 89.4687 247.355H127.09V181.308C127.09 177.034 129.97 174.248 134.243 174.248H167.035C171.308 174.248 174.095 177.034 174.095 181.308V247.355H211.623C224.721 247.355 232.432 239.831 232.432 226.918V158.92L153.565 87.8566C152.543 86.9276 151.429 86.4634 150.314 86.4634C149.292 86.4634 148.27 86.9276 147.156 87.9497L68.5674 159.385V226.918Z" fill="#FAFAFA"/>
</svg>
