<svg xmlns="http://www.w3.org/2000/svg" width="24" height="24" fill="none"><rect width="22" height="22" x="1" y="1" fill="url(#a)" rx="6.6"/><path fill="#FAFAFA" d="M7.05 15.3v3.575c0 .152.123.275.275.275h1.65a.274.274 0 0 0 .275-.275V15.3h-2.2Zm.55 2.2h1.1v1.1H7.6v-1.1ZM8.15 1v1.1h1.1V1h-1.1Zm0 1.1h-1.1v1.1h1.1V2.1Zm0 1.1v1.1h1.1V3.2h-1.1Zm0 1.1h-1.1v1.1h1.1V4.3Zm0 1.1v1.1h1.1V5.4h-1.1Zm0 1.1h-1.1v1.1h1.1V6.5Zm0 1.1v1.1h1.1V7.6h-1.1Zm0 1.1h-1.1v1.1h1.1V8.7Zm0 1.1v1.1h1.1V9.8h-1.1Zm0 1.1h-1.1V12h1.1v-1.1Zm0 1.1v1.1h1.1V12h-1.1Zm0 1.1h-1.1v1.1h1.1v-1.1Zm0 1.1v1.1h1.1v-1.1h-1.1Z"/><path fill="#fff" d="m18.353 15.44.867-.867a.33.33 0 0 0 0-.473.33.33 0 0 0-.473 0l-.987.987a3.892 3.892 0 0 0-1.76-.42c-.64 0-1.24.153-1.773.42l-.994-.987a.33.33 0 0 0-.473 0 .33.33 0 0 0 0 .473l.873.874A3.989 3.989 0 0 0 12 18.667h8c0-1.327-.647-2.5-1.647-3.227Zm-3.782 1.798H14v-.571h.571v.571Zm3.429 0h-.572v-.571H18v.571Z" opacity=".75"/><defs><radialGradient id="a" cx="0" cy="0" r="1" gradientTransform="rotate(116.565 8.441 5.908) scale(24.5967)" gradientUnits="userSpaceOnUse"><stop stop-color="#C1E76D"/><stop offset="1" stop-color="#8FC51B"/></radialGradient></defs></svg>