<svg xmlns="http://www.w3.org/2000/svg" width="24" height="24" fill="none"><rect width="22" height="22" x="1" y="1" fill="url(#a)" rx="6.6"/><path fill="#0093DD" d="M12.25 5a4.656 4.656 0 0 0-4.667 4.667V12H7v3.317l.237-.309c.34-.455 1.243-1.106 1.95-1.386.373-.147 1.268-.309 2.279-.42 1.523-.17 4.4-.035 5.45-1.202V9.667A4.657 4.657 0 0 0 12.25 5Zm.383.565c.221.013.438.039.656.091.784.189.873.37.11.219-1.202-.238-2.797.296-3.774 1.276-.292.293-.66.778-.82 1.075-.33.614-.277.219.073-.528.64-1.366 2.207-2.223 3.755-2.133Zm-.383 1.768a2.328 2.328 0 0 1 2.333 2.334V12H9.917V9.667a2.328 2.328 0 0 1 2.333-2.334Zm5.25 5.341-.62.51c-.337.288-.863.68-1.184.876-.657.401-2.214.966-2.68.966-.176 0-.278.042-.238.11.079.125 1.01.069 1.987-.128.321-.064 1.066-.356 1.66-.657l1.075-.546v-1.13Zm0 1.258-.328.456c-1.088 1.5-2.86 2.331-5.323 2.48-1.645.098-1.043.285.93.291 1.335.002 1.637-.04 2.443-.31.504-.17.922-.299.947-.273.092.091-.894.907-1.44 1.184-1.046.531-1.758.68-3.646.766-1.34.061-1.891.13-2.151.274-.33.181-.112.194 4.102.2H17.5v-5.068Z"/><defs><radialGradient id="a" cx="0" cy="0" r="1" gradientTransform="rotate(116.565 8.441 5.908) scale(24.5967)" gradientUnits="userSpaceOnUse"><stop stop-color="#F4F4F4"/><stop offset="1" stop-color="#BBB"/></radialGradient></defs></svg>