<svg xmlns="http://www.w3.org/2000/svg" width="24" height="24" fill="none"><rect width="22" height="22" x="1" y="1" fill="url(#a)" rx="6.6"/><path fill="#fff" fill-rule="evenodd" d="m13.012 3.5-6.604 7.822c1.72.275 4.625 2.45 4.187 5.338.892-2.142-.747-4.754-2.321-5.809l5.76-6.88c-.308-.227-.551-.341-1.022-.471Zm-2.222.545c-.256.001-.45.04-.44.04L8.242 6.501a75.005 75.005 0 0 0-3.456.26c-.795.08-1.428.714-1.542 1.558A42.656 42.656 0 0 0 3 12.96c0 1.607.081 3.165.243 4.658.114.941.747 1.412 1.542 1.558 2.207.357 5.404.016 5.404-3.018 0-2.84-4.657-4.057-6.248-3.279l7.351-8.778a2.075 2.075 0 0 0-.502-.056Zm4.85 2.49s-4.137 9.184-4.543 10.125c-.616 1.396-1.46 2.418-2.677 2.775 1.071.049 2.142.065 3.245.065 2.418 0 4.723-.114 6.88-.325.796-.08 1.445-.73 1.542-1.557.18-1.493.26-3.051.26-4.658 0-1.606-.081-3.164-.26-4.64-.097-.844-.746-1.477-1.541-1.558a54.07 54.07 0 0 0-2.905-.228Z" clip-rule="evenodd"/><defs><radialGradient id="a" cx="0" cy="0" r="1" gradientTransform="rotate(116.565 8.441 5.908) scale(24.5967)" gradientUnits="userSpaceOnUse"><stop stop-color="#F27181"/><stop offset="1" stop-color="#D42138"/></radialGradient></defs></svg>