<svg xmlns="http://www.w3.org/2000/svg" width="24" height="24" fill="none"><rect width="22" height="22" x="1" y="1" fill="url(#a)" rx="6.6"/><path fill="#fff" d="M12 5c-.454 0-.907.013-1.352.037-.013 0-.026 0-.04.002-.037.001-.071.005-.109.007-.418.025-.828.06-1.224.105h-.001c-.396.046-.776.102-1.134.167-.023.005-.048.007-.071.012a12.56 12.56 0 0 0-.966.218c-.023.007-.049.011-.072.018a7.74 7.74 0 0 0-.773.254l-.11.042a4.631 4.631 0 0 0-.142.065c-.07.032-.14.064-.204.097a3.187 3.187 0 0 0-.123.07c-.06.034-.118.067-.17.102a2.01 2.01 0 0 0-.089.066c-.05.038-.098.077-.14.116a1.233 1.233 0 0 0-.061.065.763.763 0 0 0-.141.197.618.618 0 0 0-.078.27v6.363c.003.273.22.542.636.79l.008.004a3.578 3.578 0 0 0 .323.169 5.266 5.266 0 0 0 .391.163 7.302 7.302 0 0 0 .46.154 9.879 9.879 0 0 0 .478.13 12.357 12.357 0 0 0 1.044.214l.088.015a18.136 18.136 0 0 0 1.339.168 22.7 22.7 0 0 0 1.398.086 23.83 23.83 0 0 0 2.385-.034 23.654 23.654 0 0 0 1.14-.098 18.855 18.855 0 0 0 .765-.104 16.893 16.893 0 0 0 .63-.11 13.428 13.428 0 0 0 .934-.219l.015-.005c.157-.044.306-.09.446-.139.144-.05.28-.102.405-.155h.001l.004-.001a4.276 4.276 0 0 0 .474-.238c.416-.248.633-.517.636-.79v-2.546h-1.518c-1.102.38-3.132.637-5.482.637-3.515 0-6.364-.573-6.364-1.273V7.699l.003.002c.137.081.295.16.473.236l.02.009c.178.076.376.148.592.216.209.065.434.126.673.183l.056.012c.484.114 1.022.208 1.599.281l.07.01c.271.033.551.062.837.086l.073.007c.292.023.59.041.89.054.069.004.138.004.207.007a24.84 24.84 0 0 0 2.78-.058v-.622c-.209.013-.421.024-.636.033V8.15a26.905 26.905 0 0 1-2.556.007 27.476 27.476 0 0 1-1.275-.082c-.333-.03-.654-.064-.954-.104l-.061-.008a15.01 15.01 0 0 1-.95-.16 9.02 9.02 0 0 1-.79-.195 4.168 4.168 0 0 1-.598-.228l-.053-.029a1.569 1.569 0 0 1-.147-.09c-.02-.013-.037-.027-.054-.041a.816.816 0 0 1-.084-.075c-.018-.018-.03-.037-.044-.056a.397.397 0 0 1-.043-.072c-.015-.037-.028-.069-.028-.107 0-.085.043-.17.127-.252.088-.087.221-.171.397-.253a4.098 4.098 0 0 1 .585-.212l.002-.001a8.78 8.78 0 0 1 .735-.177l.028-.006a15.186 15.186 0 0 1 .966-.158 21.299 21.299 0 0 1 1.146-.12 27.997 27.997 0 0 1 1.155-.07 27.106 27.106 0 0 1 2.496.009v-.007c.215.01.427.02.636.034v-.623A24.873 24.873 0 0 0 12 5Zm0 10.182h-.636v1.909H12v.636H6.91v-.636H5V19h1.91v-.636h10.18V19H19v-1.91h-1.91v.637h-4.454v-.636h.637v-1.91H12ZM16.454 5v1.91h.637v-.777c.389.347.636.847.636 1.412 0 1.058-.851 1.91-1.909 1.91h-1.272v.636h1.272a2.54 2.54 0 0 0 1.672-4.455h.874V5h-1.91ZM5.636 10.88C6.772 11.56 9.26 12 12 12c2.743 0 5.23-.44 6.364-1.12v2.393c0 .337-.67.661-1.864.9-1.194.238-2.812.373-4.5.373-1.688 0-3.306-.135-4.5-.373-1.193-.239-1.864-.563-1.864-.9V10.88ZM12 15.818h.636v.636H12v-.636Zm-6.364 1.91h.637v.636h-.637v-.637Zm12.091 0h.637v.636h-.637v-.637Z" opacity=".75"/><defs><radialGradient id="a" cx="0" cy="0" r="1" gradientTransform="rotate(116.565 8.441 5.908) scale(24.5967)" gradientUnits="userSpaceOnUse"><stop stop-color="#B084D7"/><stop offset="1" stop-color="#783CAF"/></radialGradient></defs></svg>