<svg xmlns="http://www.w3.org/2000/svg" width="24" height="24" fill="none"><rect width="22" height="22" x="1" y="1" fill="url(#a)" rx="6.6"/><path fill="#fff" d="M11.844 8a3.466 3.466 0 0 0-1.639.393l.255.706a2.636 2.636 0 0 1 1.266-.333c.34 0 .599.088.775.264.177.17.265.393.265.668 0 .17-.04.327-.118.47a1.866 1.866 0 0 1-.284.413c-.118.13-.242.261-.373.392-.13.124-.255.262-.373.412a2.191 2.191 0 0 0-.294.472c-.072.17-.108.36-.108.568 0 .144.013.282.039.413h.765a.545.545 0 0 1-.01-.108v-.108c0-.216.043-.41.128-.58.085-.176.19-.336.314-.48.124-.15.262-.294.412-.432.15-.137.288-.281.412-.431.124-.15.23-.311.314-.481.085-.177.128-.376.128-.599 0-.176-.03-.36-.088-.55a1.254 1.254 0 0 0-.295-.53 1.57 1.57 0 0 0-.579-.382c-.235-.105-.54-.157-.912-.157ZM9.239 9.835 5 11.631v.785l4.239 1.796.255-.756-3.483-1.433 3.483-1.432-.255-.756Zm5.522 0-.255.756 3.483 1.432-3.483 1.433.255.755L19 12.416v-.785l-4.24-1.796Zm-3.074 3.935a.614.614 0 0 0-.481.196.667.667 0 0 0-.177.461c0 .177.059.33.177.462.117.13.278.196.48.196a.615.615 0 0 0 .482-.196.667.667 0 0 0 .176-.462.667.667 0 0 0-.176-.46.614.614 0 0 0-.481-.197Z"/><defs><radialGradient id="a" cx="0" cy="0" r="1" gradientTransform="rotate(116.565 8.441 5.908) scale(24.5967)" gradientUnits="userSpaceOnUse"><stop stop-color="#B6A6ED"/><stop offset="1" stop-color="#816ACE"/></radialGradient></defs></svg>