<svg xmlns="http://www.w3.org/2000/svg" width="24" height="24" fill="none"><rect width="22" height="22" x="1" y="1" fill="url(#a)" rx="6.6"/><path stroke="#1463A5" stroke-linecap="round" stroke-linejoin="round" stroke-width=".448" d="M8.864 9.414s-1.901 4.097-1.556 5.912c.24 1.262.81 2.128 2.004 2.6.709.281 2.689-.447 2.689-.447v-3.136s-1.793-.588-2.157-2.856c0 0 .193 1.938.557 1.994"/><path stroke="#1463A5" stroke-width=".448" d="M8.08 5.83C6.708 4.598 5 5.102 5 5.102S5.896 7.93 7.576 7.65"/><path stroke="#1463A5" stroke-linecap="round" stroke-width=".448" d="M8.415 17.48c-.448 1.791.896 2.24 3.585 1.343 2.688.896 4.032.448 3.584-1.344"/><path stroke="#1463A5" stroke-linejoin="round" stroke-width=".448" d="M9.407 7.316c.849-.395 1.751.089 1.72.138 0 0-.292 1.216-.985 1.111-.65-.098-.735-.974-.735-1.25Z"/><path stroke="#1463A5" stroke-width=".448" d="M15.585 10.758s1.16-3.44.448-4.928C15.8 5.344 15.137 5 14.689 5c-.909 0-1.344.382-2.688.382-1.345 0-1.78-.382-2.689-.382-.448 0-1.111.344-1.344.83-.711 1.488.448 4.928.448 4.928"/><path stroke="#1463A5" stroke-linecap="round" stroke-linejoin="round" stroke-width=".448" d="M15.136 9.414s1.901 4.097 1.556 5.912c-.24 1.262-.81 2.128-2.004 2.6-.709.281-2.689-.447-2.689-.447v-3.136s1.793-.588 2.157-2.856c0 0-.213 1.978-.577 2.034"/><path stroke="#1463A5" stroke-width=".448" d="M15.92 5.83C17.292 4.598 19 5.102 19 5.102s-.896 2.828-2.576 2.548"/><path stroke="#1463A5" stroke-linejoin="round" stroke-width=".448" d="M14.593 7.316c-.849-.395-1.751.089-1.72.138 0 0 .292 1.216.985 1.111.65-.098.734-.974.735-1.25Z"/><defs><radialGradient id="a" cx="0" cy="0" r="1" gradientTransform="rotate(116.565 8.441 5.908) scale(24.5967)" gradientUnits="userSpaceOnUse"><stop stop-color="#F4F4F4"/><stop offset="1" stop-color="#BBB"/></radialGradient></defs></svg>