<svg xmlns="http://www.w3.org/2000/svg" width="24" height="24" fill="none"><rect width="22" height="22" x="1" y="1" fill="url(#a)" rx="6.6"/><path fill="#FAFAFA" d="M11 13.994v3.249c0 .138.111.25.25.25h1.5a.25.25 0 0 0 .25-.25v-3.249h-2Zm.5 2h1v.999h-1v-1Z"/><path fill="#FAFAFA" d="M12 1v1h1V1h-1Zm0 1h-1v1h1V2Zm0 1v.999h1v-1h-1Zm0 .999h-1v1h1v-1Zm0 1v.999h1v-1h-1Zm0 .999h-1v1h1v-1Zm0 1v.999h1v-1h-1Zm0 .999h-1v1h1v-1Zm0 1v.999h1v-1h-1Zm0 .999h-1v1h1v-1Zm0 1v1h1v-1h-1Zm0 1h-1v.999h1v-1Zm0 .999v1h1v-1h-1Z"/><defs><radialGradient id="a" cx="0" cy="0" r="1" gradientTransform="rotate(116.565 8.441 5.908) scale(24.5967)" gradientUnits="userSpaceOnUse"><stop stop-color="#FED76A"/><stop offset="1" stop-color="#E5AF17"/></radialGradient></defs></svg>