<svg xmlns="http://www.w3.org/2000/svg" width="24" height="24" fill="none"><rect width="22" height="22" x="1" y="1" fill="url(#a)" rx="6.6"/><path fill="#fff" d="M12.587 5C10.059 5.45 7.529 6.048 5 6.49c0 3.845-.002 7.693 0 11.54 2.515.44 5.031 1.028 7.541 1.487h.754V5h-.71Zm-.978 4.702-1.165 4.89-.956-.076c-.22-1.092-.475-2.177-.671-3.274-.193 1.066-.444 2.121-.665 3.18a63.413 63.413 0 0 1-.953-.058c-.274-1.451-.595-2.892-.851-4.347.282-.013.566-.025.848-.035.17 1.051.362 2.097.51 3.149.233-1.079.471-2.157.702-3.236.313-.018.627-.031.94-.048.22 1.113.443 2.225.681 3.333.186-1.144.393-2.286.592-3.428.33-.012.66-.03.988-.05ZM13.815 7.074H19v10.369h-5.185v-1.037h4.148v-.518h-4.148V14.85h4.148v-.519h-4.148v-1.037h4.148v-.518h-4.148V11.74h4.148v-.518h-4.148v-1.036h4.148v-.52h-4.148V8.63h4.148v-.518h-4.148V7.074Z"/><defs><radialGradient id="a" cx="0" cy="0" r="1" gradientTransform="rotate(116.565 8.441 5.908) scale(24.5967)" gradientUnits="userSpaceOnUse"><stop stop-color="#79A4E2"/><stop offset="1" stop-color="#2F6ABF"/></radialGradient></defs></svg>