<svg xmlns="http://www.w3.org/2000/svg" width="24" height="24" fill="none"><rect width="22" height="22" x="1" y="1" fill="url(#a)" rx="6.6"/><path fill="#fff" d="M11.667 5 5.303 9.774l-.039.03-.007.005v.001a.663.663 0 0 0-.257.523v5.81c0 .952.751.952.953.952h11.429s.952 0 .952-.953v-5.809a.663.663 0 0 0-.267-.531l.003-.004L11.667 5Zm0 3.047a2.381 2.381 0 0 1 2.381 2.381v.714a.713.713 0 0 1-1.366.29 1.43 1.43 0 0 1-2.025.006 1.429 1.429 0 1 1 2.439-1.01v.714a.238.238 0 1 0 .476 0v-.714a1.905 1.905 0 1 0-1.905 1.905H13.334a.238.238 0 1 1 0 .476H11.667a2.381 2.381 0 0 1 0-4.762Zm0 1.429a.952.952 0 1 0 0 1.904.952.952 0 0 0 0-1.904Z" opacity=".75"/><path fill="#fff" d="M7.143 6.618a.713.713 0 0 0-.714.715v7.144c0 .395.318.713.714.713h9.048a.712.712 0 0 0 .714-.713V7.333a.713.713 0 0 0-.714-.715H7.143Zm4.524 1.429a2.38 2.38 0 0 1 2.38 2.38v.715a.713.713 0 0 1-1.365.29 1.428 1.428 0 1 1 .413-1.004v.714a.238.238 0 1 0 .477 0v-.714a1.905 1.905 0 1 0-1.905 1.905H13.334a.238.238 0 1 1 0 .476H11.667a2.381 2.381 0 0 1 0-4.762Zm0 1.428a.952.952 0 1 0 0 1.905.952.952 0 0 0 0-1.905Z"/><path fill="#E8EBF0" d="M5 10.333 17.667 19H5.952C5.476 19 5 18.762 5 18.047v-7.714Z"/><path fill="#F2F2FA" d="M17.381 19c.953 0 .953-.952.953-.952v-7.715L5.667 19H17.38Z"/><defs><radialGradient id="a" cx="0" cy="0" r="1" gradientTransform="rotate(116.565 8.441 5.908) scale(24.5967)" gradientUnits="userSpaceOnUse"><stop stop-color="#92A0C8"/><stop offset="1" stop-color="#4E629A"/></radialGradient></defs></svg>