<svg xmlns="http://www.w3.org/2000/svg" width="24" height="24" fill="none"><rect width="22" height="22" x="1" y="1" fill="url(#a)" rx="6.6"/><path fill="#fff" d="M6.91 5a.636.636 0 0 0-.637.636H5V19h14V5.636h-1.273A.637.637 0 0 0 17.091 5h-3.182a.636.636 0 0 0-.636.636h-1.91A.636.636 0 0 0 10.728 5H6.91Zm0 .636h4.103v.637H6.909v-.637Zm7 0h3.18v.637h-3.18v-.637ZM5.635 8.182h12.728v10.182H5.636V8.182ZM6.91 9.455v3.181h.636v-1.272h3.819v1.272H12V9.455h-.636v1.272H7.545V9.455H6.91ZM12 13.909v3.341h.636v-1.432h3.819v1.273h.636v-3.182h-.637v1.273h-3.818v-1.273H12Z" opacity=".75"/><defs><radialGradient id="a" cx="0" cy="0" r="1" gradientTransform="rotate(116.565 8.441 5.908) scale(24.5967)" gradientUnits="userSpaceOnUse"><stop stop-color="#BC9978"/><stop offset="1" stop-color="#89582B"/></radialGradient></defs></svg>