<svg xmlns="http://www.w3.org/2000/svg" width="24" height="24" fill="none"><rect width="22" height="22" x="1" y="1" fill="url(#a)" rx="6.6"/><path fill="#fff" d="M12.317 5C9.878 5.434 7.439 6.01 5 6.437c0 3.708-.002 7.42 0 11.13 2.425.424 4.852.99 7.273 1.433H13V5h-.683Zm-.943 4.535L10.25 14.25l-.922-.073c-.211-1.053-.458-2.1-.647-3.157-.186 1.028-.428 2.046-.641 3.067a60.189 60.189 0 0 1-.92-.056c-.263-1.4-.573-2.79-.82-4.193.272-.012.546-.023.818-.033.163 1.013.35 2.022.493 3.036.224-1.04.453-2.08.676-3.12.302-.018.604-.03.906-.046.212 1.073.428 2.145.657 3.214.18-1.104.379-2.204.571-3.307.318-.01.636-.028.953-.047ZM13.502 7h5v10h-5v-1h4v-.5h-4v-1h4V14h-4v-1h4v-.5h-4v-1h4V11h-4v-.998h4V9.5h-4v-1h4V8h-4V7Z"/><defs><radialGradient id="a" cx="0" cy="0" r="1" gradientTransform="rotate(116.565 8.441 5.908) scale(24.5967)" gradientUnits="userSpaceOnUse"><stop stop-color="#6666B4"/><stop offset="1" stop-color="#101072"/></radialGradient></defs></svg>