<svg xmlns="http://www.w3.org/2000/svg" width="24" height="24" fill="none"><rect width="22" height="22" x="1" y="1" fill="url(#a)" rx="6.6"/><path fill="#fff" d="M5 5v14h14V5H5Zm.636.636h12.728v12.728H5.636V5.636Zm1.273 1.91v1.272h10.182V7.545H6.909Zm0 2.545v.636h4.455v-.636H6.909Zm5.727 0v.636h4.455v-.636h-4.455ZM6.91 12v.636h4.455V12H6.909Zm5.727 0v.636h4.455V12h-4.455ZM6.91 13.91v.636h4.455v-.637H6.909Zm5.727 0v.636h4.455v-.637h-4.455ZM6.91 15.817v.636h4.455v-.636H6.909Zm5.727 0v.636h4.455v-.636h-4.455Z" opacity=".9"/><defs><radialGradient id="a" cx="0" cy="0" r="1" gradientTransform="rotate(116.565 8.441 5.908) scale(24.5967)" gradientUnits="userSpaceOnUse"><stop stop-color="#979FA8"/><stop offset="1" stop-color="#56616D"/></radialGradient></defs></svg>