<svg xmlns="http://www.w3.org/2000/svg" width="24" height="24" fill="none"><rect width="22" height="22" x="1" y="1" fill="url(#a)" rx="6.6"/><path fill="#fff" d="M12.312 5c-2.436.434-4.875 1.01-7.311 1.436 0 3.706-.002 7.415 0 11.123 2.424.424 4.849.99 7.268 1.432h.726V5h-.683Zm2.874 1.936c-.567.006-1.133.053-1.69.13v2.068c1.567.237 3.2.189 4.711-.321.32-.14.725-.315.791-.703-.09-.475-.622-.653-1.02-.801-.904-.276-1.848-.382-2.792-.373Zm3.811 1.978c-.593.477-1.358.635-2.09.743-1.132.149-2.281.15-3.412.007v2.159c1.413.181 2.863.173 4.254-.155.427-.122.9-.248 1.198-.603.107-.71.013-1.434.05-2.15Zm-9.596.487c.558 1.865 1.088 3.74 1.639 5.608-.385-.025-.77-.053-1.151-.088-.102-.417-.21-.833-.32-1.248a33.576 33.576 0 0 1-1.532-.043c-.099.394-.199.788-.3 1.18a97.547 97.547 0 0 0-.976-.07c.486-1.753.993-3.5 1.476-5.254.388-.029.774-.055 1.164-.085Zm-.626.998c-.112.79-.362 1.552-.53 2.332.366.003.733.004 1.101.006-.19-.78-.422-1.549-.571-2.338Zm10.222 1.18c-.59.475-1.35.633-2.08.742a13.29 13.29 0 0 1-3.422.008v2.16c1.416.18 2.872.172 4.266-.16.425-.121.898-.248 1.189-.604.098-.71.014-1.43.047-2.146Zm0 2.665c-.593.475-1.354.635-2.087.742-1.133.15-2.282.153-3.415.008 0 .718.005 1.434-.006 2.152 1.189.171 2.403.168 3.59-.013.648-.132 1.396-.227 1.868-.74.105-.71.015-1.434.05-2.149Z"/><defs><radialGradient id="a" cx="0" cy="0" r="1" gradientTransform="rotate(116.565 8.441 5.908) scale(24.5967)" gradientUnits="userSpaceOnUse"><stop stop-color="#DB6F73"/><stop offset="1" stop-color="#B52126"/></radialGradient></defs></svg>