<svg xmlns="http://www.w3.org/2000/svg" width="24" height="24" fill="none"><rect width="22" height="22" x="1" y="1" fill="url(#a)" rx="6.6"/><path fill="#fff" d="M5.285 6A.326.326 0 0 0 5 6.32v5.824c0 .171.147.322.318.322h2.91v1.077H6.078v1.077h3.769v-3.233h-3.53a.23.23 0 0 1-.22-.22V7.299c-.005-.102.068-.202.166-.22a.208.208 0 0 1 .051 0h5.993c.11 0 .218.102.218.218v1.396h1.093V6.32a.332.332 0 0 0-.32-.32" opacity=".5"/><path fill="#fff" d="M10.674 9.233a.336.336 0 0 0-.291.32v5.822c0 .169.154.321.325.321h2.905v1.613h2.156v-1.613h2.91a.334.334 0 0 0 .321-.321V9.552a.336.336 0 0 0-.322-.321m-7.03 1.079a.132.132 0 0 1 .042 0h6.003a.224.224 0 0 1 .216.215v3.879a.224.224 0 0 1-.216.216h-6.006a.224.224 0 0 1-.215-.216v-3.879a.221.221 0 0 1 .177-.216Zm-.188 6.461v1.08h6.463v-1.08"/><defs><radialGradient id="a" cx="0" cy="0" r="1" gradientTransform="rotate(116.565 8.441 5.908) scale(24.5967)" gradientUnits="userSpaceOnUse"><stop stop-color="#85C1EA"/><stop offset="1" stop-color="#3C90C9"/></radialGradient></defs></svg>