<svg xmlns="http://www.w3.org/2000/svg" width="24" height="24" fill="none"><rect width="22" height="22" x="1" y="1" fill="url(#a)" rx="6.6"/><path fill="#555" d="m14.871 5-.065.782a2.333 2.333 0 0 0-.682.395l-.711-.335-.743 1.286.646.448a2.33 2.33 0 0 0-.002.789l-.644.446.743 1.287.71-.334c.203.168.434.3.683.392l.065.783h1.485l.065-.782c.248-.092.479-.225.682-.394l.711.335.743-1.286-.646-.449a2.34 2.34 0 0 0 .036-.393c0-.133-.012-.265-.034-.396l.644-.446-.743-1.286-.709.334a2.334 2.334 0 0 0-.684-.392L16.356 5H14.87Zm.743 1.98a.99.99 0 1 1 0 1.98.99.99 0 0 1 0-1.98ZM9.144 10.515l-.094 1.117a3.335 3.335 0 0 0-.974.564l-1.015-.478L6 13.555l.922.64a3.332 3.332 0 0 0-.002 1.127L6 15.96l1.06 1.837 1.014-.477c.291.241.621.43.976.56L9.144 19h2.121l.093-1.117c.355-.132.684-.322.975-.564l1.015.478 1.06-1.837-.921-.64a3.327 3.327 0 0 0 .002-1.127l.92-.638-1.06-1.837-1.014.477a3.334 3.334 0 0 0-.976-.56l-.094-1.12H9.144Zm1.06 2.828a1.416 1.416 0 0 1 1 2.414 1.417 1.417 0 0 1-2 0 1.414 1.414 0 0 1 1-2.414Z"/><defs><radialGradient id="a" cx="0" cy="0" r="1" gradientTransform="rotate(116.565 8.441 5.908) scale(24.5967)" gradientUnits="userSpaceOnUse"><stop stop-color="#F4F4F4"/><stop offset="1" stop-color="#BBB"/></radialGradient></defs></svg>