<svg xmlns="http://www.w3.org/2000/svg" width="24" height="24" fill="none"><rect width="22" height="22" x="1" y="1" fill="url(#a)" rx="6.6"/><path fill="#fff" d="M12.587 5C10.059 5.45 7.529 6.048 5 6.49c0 3.845-.002 7.693 0 11.54 2.515.441 5.031 1.029 7.541 1.487h.754V5h-.71ZM8.783 9.571c.499-.01.977.062 1.366.413.745.904.548 2.566-.556 3.108-.393.2-.842.173-1.269.159-.002.676-.003 1.351-.002 2.027-.342-.03-.686-.059-1.028-.087-.015-1.845-.019-3.607.002-5.453.486-.06.988-.156 1.487-.167Zm-.058 1.002c-.136-.004-.275.009-.403.014-.005.581-.008 1.16.028 1.739.344-.042.79-.007.987-.363.164-.349.174-.795-.023-1.134-.143-.2-.362-.25-.589-.256ZM13.816 7.074v1.723c.243-.052.507-.15.777-.166v2.331h2.318c-.083.708-.398 1.435-1.022 1.805-.612.411-1.39.416-2.073.204.001.338-.002 1.023 0 1.361h4.147v.519h-4.148v1.037h4.148v.518h-4.148v1.556H19V7.074h-5.184Zm1.295 1.242c1.103.114 2.014 1.028 2.134 2.128h-2.134V8.316Z"/><defs><radialGradient id="a" cx="0" cy="0" r="1" gradientTransform="rotate(116.565 8.441 5.908) scale(24.5967)" gradientUnits="userSpaceOnUse"><stop stop-color="#EC8B74"/><stop offset="1" stop-color="#CD4728"/></radialGradient></defs></svg>