<svg xmlns="http://www.w3.org/2000/svg" width="24" height="24" fill="none"><rect width="22" height="22" x="1" y="1" fill="url(#a)" rx="6.6"/><path fill="#fff" d="M5.636 5A.635.635 0 0 0 5 5.636v12.728c0 .352.284.636.636.636h11.455a.635.635 0 0 0 .636-.636v-.637h.637a.635.635 0 0 0 .636-.636v-2.546a.621.621 0 0 0-.097-.318.621.621 0 0 0 .097-.318v-2.545a.621.621 0 0 0-.097-.319.622.622 0 0 0 .097-.318V8.182a.635.635 0 0 0-.636-.637h-.637V5.636A.635.635 0 0 0 17.091 5H5.636Zm.637 1.91h4.454v.635H6.273V6.91Zm5.727 0h4.454v.635H12V6.91Zm5.727 1.272h.637v2.545h-.637V8.182Zm-11.454.636h4.454v.637H6.273v-.637Zm5.727 0h4.454v.637H12v-.637Zm-5.727 1.91h4.454v.636H6.273v-.637Zm5.727 0h4.454v.636H12v-.637Zm5.727.636h.637v2.545h-.637v-2.545ZM6.273 12.636h4.454v.637H6.273v-.637Zm5.727 0h4.454v.637H12v-.637Zm-5.727 1.91h4.454v.636H6.273v-.636Zm5.727 0h4.454v.636H12v-.636Zm5.727 0h.637v2.545h-.637v-2.546ZM6.273 16.454h4.454v.636H6.273v-.637Zm5.727 0h4.454v.636H12v-.637Z" opacity=".75"/><defs><radialGradient id="a" cx="0" cy="0" r="1" gradientTransform="rotate(116.565 8.441 5.908) scale(24.5967)" gradientUnits="userSpaceOnUse"><stop stop-color="#B787B7"/><stop offset="1" stop-color="#8B4584"/></radialGradient></defs></svg>