<svg xmlns="http://www.w3.org/2000/svg" width="24" height="24" fill="none"><rect width="22" height="22" x="1" y="1" fill="url(#a)" rx="6.6"/><path stroke="#fff" stroke-linecap="square" stroke-width=".914" d="m8.325 7.886 8.229 8.228L12.439 20V4l4.115 3.886L8.325 15.2"/><path fill="#fff" d="M3.727 12.727a.727.727 0 1 0 0-1.454.727.727 0 0 0 0 1.454ZM6.636 12.727a.727.727 0 1 0 0-1.454.727.727 0 0 0 0 1.454ZM18.272 12.727a.727.727 0 1 0 0-1.454.727.727 0 0 0 0 1.454ZM21.18 12.727a.727.727 0 1 0 0-1.454.727.727 0 0 0 0 1.454Z"/><defs><radialGradient id="a" cx="0" cy="0" r="1" gradientTransform="rotate(116.565 8.441 5.908) scale(24.5967)" gradientUnits="userSpaceOnUse"><stop stop-color="#91AAE2"/><stop offset="1" stop-color="#4E71BD"/></radialGradient></defs></svg>