<svg xmlns="http://www.w3.org/2000/svg" width="24" height="24" fill="none"><rect width="22" height="22" fill="url(#a)" rx="6.6" transform="matrix(-1 0 0 1 23 1)"/><path fill="#FAFAFA" d="M16.95 15.3v3.575a.274.274 0 0 1-.275.275h-1.65a.274.274 0 0 1-.275-.275V15.3h2.2Zm-.55 2.2h-1.1v1.1h1.1v-1.1ZM15.85 1v1.1h-1.1V1h1.1Zm0 1.1h1.1v1.1h-1.1V2.1Zm0 1.1v1.1h-1.1V3.2h1.1Zm0 1.1h1.1v1.1h-1.1V4.3Zm0 1.1v1.1h-1.1V5.4h1.1Zm0 1.1h1.1v1.1h-1.1V6.5Zm0 1.1v1.1h-1.1V7.6h1.1Zm0 1.1h1.1v1.1h-1.1V8.7Zm0 1.1v1.1h-1.1V9.8h1.1Zm0 1.1h1.1V12h-1.1v-1.1Zm0 1.1v1.1h-1.1V12h1.1Zm0 1.1h1.1v1.1h-1.1v-1.1Zm0 1.1v1.1h-1.1v-1.1h1.1ZM4 14.363v.623h7.48v-.623H4Zm0 1.247v.623h6.233v-.623H4Zm0 1.246v.624h7.48v-.624H4Zm0 1.247v.623h4.987v-.623H4ZM6.423 10.286v.428a1.434 1.434 0 0 0-.44-.286 1.291 1.291 0 0 0-.492-.094c-.343 0-.606.105-.789.316-.182.21-.273.512-.273.91 0 .395.09.698.273.909.183.209.446.314.789.314.174 0 .339-.032.493-.095.156-.063.302-.158.439-.286v.425a1.655 1.655 0 0 1-.956.29c-.455 0-.813-.14-1.075-.417-.261-.279-.392-.66-.392-1.14 0-.484.13-.864.392-1.142.262-.278.62-.418 1.075-.418.18 0 .349.024.507.072.16.047.309.119.449.214ZM8.054 10.454l-.551 1.494h1.105l-.554-1.494Zm-.229-.4h.46l1.146 3.003h-.423l-.274-.77H7.38l-.273.77h-.429l1.147-3.004ZM10.276 11.623v1.1h.652c.218 0 .38-.045.484-.135.106-.09.16-.23.16-.416 0-.188-.053-.326-.16-.415-.104-.09-.266-.134-.484-.134h-.652Zm0-1.236v.906h.601c.199 0 .346-.037.443-.111.098-.075.147-.19.147-.342 0-.152-.05-.265-.147-.34-.097-.075-.244-.113-.443-.113h-.601Zm-.407-.334h1.039c.31 0 .548.065.716.193.167.13.251.312.251.55 0 .184-.043.33-.129.438a.577.577 0 0 1-.378.204c.2.042.355.132.465.27a.775.775 0 0 1 .167.508c0 .269-.091.476-.274.622-.182.146-.442.22-.778.22H9.869v-3.005Z"/><defs><radialGradient id="a" cx="0" cy="0" r="1" gradientTransform="rotate(116.565 8.25 5.099) scale(24.5967)" gradientUnits="userSpaceOnUse"><stop stop-color="#F2C6A3"/><stop offset="1" stop-color="#D59868"/></radialGradient></defs></svg>