<svg xmlns="http://www.w3.org/2000/svg" width="24" height="24" fill="none"><rect width="22" height="22" x="1" y="1" fill="url(#a)" rx="6.6"/><path fill="#fff" d="M8.5 5a.952.952 0 0 0-.955.955c0 .528.426.954.955.954a.952.952 0 0 0 .955-.954A.952.952 0 0 0 8.5 5Zm5.41.064L12 6.973l3.182 3.182L12 13.335l1.91 1.91L19 10.154l-5.09-5.091Zm-7.32 5.09c-.88 0-1.59.71-1.59 1.591 0 .882.71 1.591 1.59 1.591.882 0 1.592-.71 1.592-1.59 0-.882-.71-1.591-1.591-1.591Zm3.5 5.091c-1.057 0-1.908.852-1.908 1.91 0 1.057.851 1.909 1.909 1.909S12 18.212 12 17.154a1.905 1.905 0 0 0-1.91-1.909Z" opacity=".75"/><defs><radialGradient id="a" cx="0" cy="0" r="1" gradientTransform="rotate(116.565 8.441 5.908) scale(24.5967)" gradientUnits="userSpaceOnUse"><stop stop-color="#B38AD9"/><stop offset="1" stop-color="#7D45B1"/></radialGradient></defs></svg>