<svg xmlns="http://www.w3.org/2000/svg" width="24" height="24" fill="none"><rect width="22" height="22" x="1" y="1" fill="url(#a)" rx="6.6"/><path fill="#fff" d="m10.234 5-.155 1.844c-.59.216-1.139.53-1.622.93l-1.691-.79L5 10.016l1.535 1.056A5.452 5.452 0 0 0 6.45 12c0 .312.028.624.081.932L5 13.984l1.766 3.032 1.687-.787c.485.397 1.035.709 1.626.923L10.233 19h3.532l.155-1.844a5.56 5.56 0 0 0 1.622-.93l1.691.79L19 13.984l-1.535-1.056c.054-.307.083-.617.085-.928a5.46 5.46 0 0 0-.081-.932L19 10.016l-1.766-3.032-1.687.787a5.562 5.562 0 0 0-1.626-.923L13.767 5h-3.532ZM12 9.667c.624 0 1.223.245 1.665.683a2.323 2.323 0 0 1 0 3.3 2.365 2.365 0 0 1-1.665.683 2.365 2.365 0 0 1-1.665-.683 2.322 2.322 0 0 1 0-3.3A2.365 2.365 0 0 1 12 9.667Z"/><defs><radialGradient id="a" cx="0" cy="0" r="1" gradientTransform="rotate(116.565 8.441 5.908) scale(24.5967)" gradientUnits="userSpaceOnUse"><stop stop-color="#90D7F3"/><stop offset="1" stop-color="#4DAED5"/></radialGradient></defs></svg>