<svg xmlns="http://www.w3.org/2000/svg" width="24" height="24" fill="none"><rect width="22" height="22" x="1" y="1" fill="url(#a)" rx="6.6"/><path fill="#FDDDA3" d="M5.636 8v.636H5v7.637h.636v.636h12.728v-.636H19V8.636h-.636V8H5.636Zm.637.636h11.454a.636.636 0 0 0 .637.637v6.363a.636.636 0 0 0-.637.637H6.273a.637.637 0 0 0-.637-.637V9.273a.636.636 0 0 0 .637-.637ZM12 9.91a2.546 2.546 0 1 0 0 5.092 2.546 2.546 0 0 0 0-5.092Zm0 .636a1.91 1.91 0 1 1 0 3.819 1.91 1.91 0 0 1 0-3.819Z"/><defs><radialGradient id="a" cx="0" cy="0" r="1" gradientTransform="rotate(116.565 8.441 5.908) scale(24.5967)" gradientUnits="userSpaceOnUse"><stop stop-color="#F8BC61"/><stop offset="1" stop-color="#DD890B"/></radialGradient></defs></svg>