<svg xmlns="http://www.w3.org/2000/svg" xml:space="preserve" width="24" height="24" fill="none"><defs><radialGradient id="a" cx="0" cy="0" r="1" fx="0" fy="0" gradientTransform="scale(-18.44752) rotate(-63.435 -.389 .555)" gradientUnits="userSpaceOnUse" spreadMethod="pad"><stop offset="0" style="stop-opacity:1;stop-color:#c49de6"/><stop offset="1" style="stop-opacity:1;stop-color:#945fc3"/></radialGradient></defs><path d="M5.699.75h6.602a4.938 4.938 0 0 1 4.949 4.949v6.602a4.938 4.938 0 0 1-4.949 4.949H5.699A4.938 4.938 0 0 1 .75 12.301V5.699A4.938 4.938 0 0 1 5.699.75Z" style="fill:url(#a);stroke:none" transform="scale(1.33333)"/><path d="M9 .75v.75h.75V.75Zm0 .75h-.75v.75H9Zm0 .75V3h.75v-.75ZM9 3h-.75v.75H9Zm0 .75v.75h.75v-.75Zm0 .75h-.75v.75H9v.746h.75v-.75H9Zm0 1.496h-.75v.75H9Zm0 .75v.75h.75v-.75zm0 .75h-.75v.75H9Zm0 .75v.75h.75v-.75zm0 .75h-.75v.75H9Zm0 .75v.75h-.75v2.438c0 .101.082.187.188.187h1.124a.188.188 0 0 0 .188-.187V9.746Zm-.375 2.25h.75v.75h-.75z" style="fill:#fafafa;fill-opacity:1;fill-rule:nonzero;stroke:none" transform="scale(1.33333)"/></svg>