<svg xmlns="http://www.w3.org/2000/svg" width="24" height="24" fill="none"><rect width="22" height="22" x="1" y="1" fill="url(#a)" rx="6.6"/><path fill="#fff" d="m16.395 5-3.737.477c.545.272 1.293.204 1.521 1.003L16.395 5Zm.957.064-2.148 1.243 3.685-.035-1.537-1.208Zm-5.559 1.304c-.443.026-.975.177-1.568.472-1.897.945-3.683 2.977-3.99 4.535-.308 1.558.98 2.054 2.878 1.109 1.896-.945 3.682-2.972 3.99-4.53.21-1.071-.333-1.641-1.31-1.586Zm1.77 2.928 4.457-.064-3.673-2.22c-.005.706-.385 1.92-.784 2.284Zm5.39-.021L19 6.994l-3.84-.242 3.793 2.523Zm-.207.557-4.451.069 3.232 2.185 1.219-2.254Zm-5.416.238c-2.379 3.18-8.017 6.388-8.067 1.595L5 17.295c.06.34.496 1.353 1.95 1.627 3.687.129 6.208.177 11.282-.514.428-2.372.402-4.82.514-7.245-1.637 2.543-3.442 4.496-5.799 5.693 1.651-1.37 3-2.87 4.257-4.388L13.33 10.07Z"/><defs><radialGradient id="a" cx="0" cy="0" r="1" gradientTransform="rotate(116.565 8.441 5.908) scale(24.5967)" gradientUnits="userSpaceOnUse"><stop stop-color="#F49696"/><stop offset="1" stop-color="#D75555"/></radialGradient></defs></svg>