<svg xmlns="http://www.w3.org/2000/svg" width="24" height="24" fill="none"><rect width="22" height="22" x="1" y="1" fill="url(#a)" rx="6.6"/><path fill="#5F656D" fill-rule="evenodd" d="M4.533 6A.532.532 0 0 0 4 6.533V17.2c0 .296.238.533.533.533h14.934A.532.532 0 0 0 20 17.2V6.533A.532.532 0 0 0 19.467 6H4.533Zm10.667.533a.533.533 0 1 1 0 1.067.533.533 0 0 1 0-1.067Zm1.6 0a.533.533 0 1 1 0 1.067.533.533 0 0 1 0-1.067Zm1.6 0a.533.533 0 1 1 0 1.067.533.533 0 0 1 0-1.067Zm-13.867 1.6h3.2V17.2h-3.2V8.133Zm3.734 0h11.2V17.2h-11.2V8.133Z" clip-rule="evenodd"/><path fill="#5F656D" d="M11.665 15.6h.705l.772-1.44c.138-.263.276-.54.429-.86h.029c.175.32.32.597.458.86l.786 1.44h.742l-1.557-2.721 1.455-2.612h-.705l-.713 1.36c-.131.248-.233.473-.379.779h-.029c-.175-.306-.284-.531-.422-.779l-.728-1.36h-.742l1.456 2.575-1.557 2.758Z"/><defs><radialGradient id="a" cx="0" cy="0" r="1" gradientTransform="rotate(116.565 8.441 5.908) scale(24.5967)" gradientUnits="userSpaceOnUse"><stop stop-color="#F4F4F4"/><stop offset="1" stop-color="#BBB"/></radialGradient></defs></svg>