<svg xmlns="http://www.w3.org/2000/svg" width="24" height="24" fill="none"><rect width="22" height="22" x="1" y="1" fill="url(#a)" rx="6.6"/><path fill="#E0E0E0" d="M10.815 4c.51 0 .926.407.926.906v3.586a1.506 1.506 0 0 0-.926-.317.28.28 0 0 0-.284.277.28.28 0 0 0 .284.278c.51 0 .926.406.926.905v6.66a2.702 2.702 0 0 0-1.433-.933.284.284 0 0 0-.348.196c-.04.147.05.3.2.34.931.244 1.58 1.073 1.58 2.014 0 1.151-.957 2.088-2.134 2.088-.795 0-1.519-.43-1.89-1.118a.284.284 0 0 0-.177-.139c-.93-.244-1.58-1.072-1.58-2.013 0-.14.015-.282.043-.42a.276.276 0 0 0-.162-.308 1.792 1.792 0 0 1-1.09-1.637c0-.321.085-.629.247-.9a2.42 2.42 0 0 0 1.585.587.28.28 0 0 0 .284-.278.28.28 0 0 0-.284-.277c-1.01 0-1.832-.805-1.832-1.793 0-.531.24-1.033.659-1.375a.272.272 0 0 0 .08-.316 1.74 1.74 0 0 1-.135-.673c0-.988.822-1.791 1.832-1.791 1.011 0 1.834.803 1.834 1.79a.28.28 0 0 0 .283.278.28.28 0 0 0 .284-.277c0-1.243-.994-2.263-2.246-2.34a1.176 1.176 0 0 1-.172-.616A1.2 1.2 0 0 1 7.96 5.26c.136-.05.282-.077.435-.077.475 0 .9.259 1.107.676a.285.285 0 0 0 .377.128.273.273 0 0 0 .13-.37 1.8 1.8 0 0 0-1.2-.94C9.532 4.245 10.242 4 10.813 4m2.419 0c.569 0 1.28.245 2.004.676a1.802 1.802 0 0 0-1.2.94.274.274 0 0 0 .13.37c.14.068.31.01.379-.127.207-.418.63-.676 1.105-.676a1.235 1.235 0 0 1 .484.098 1.2 1.2 0 0 1 .744 1.102c0 .219-.06.43-.174.616-1.252.077-2.245 1.097-2.245 2.34a.28.28 0 0 0 .284.277.28.28 0 0 0 .284-.277c0-.988.82-1.791 1.832-1.791 1.01 0 1.833.803 1.833 1.79 0 .232-.046.458-.135.674a.273.273 0 0 0 .08.316c.42.342.66.844.66 1.375 0 .988-.823 1.793-1.834 1.793a.28.28 0 0 0-.284.277.28.28 0 0 0 .284.278 2.42 2.42 0 0 0 1.585-.588c.162.273.248.58.248.901 0 .707-.427 1.349-1.09 1.637a.276.276 0 0 0-.162.309c.029.137.043.279.043.42 0 .94-.65 1.767-1.58 2.012a.284.284 0 0 0-.177.139A2.139 2.139 0 0 1 14.44 20c-1.178 0-2.135-.937-2.135-2.088a2.52 2.52 0 0 0-.012-.232.252.252 0 0 0 .012-.074V8.453c0-.499.415-.905.925-.905a.28.28 0 0 0 .284-.278.28.28 0 0 0-.284-.277c-.349 0-.67.12-.925.317V4.905c0-.499.415-.905.925-.905m4.233 4.766a.28.28 0 0 0-.284.277c0 .988-.82 1.792-1.831 1.792-.497 0-.962-.19-1.31-.537a.29.29 0 0 0-.402-.005.272.272 0 0 0-.004.392c.393.392.9.632 1.451.69.13.844.877 1.492 1.775 1.492a.28.28 0 0 0 .284-.277.28.28 0 0 0-.284-.277c-.587 0-1.08-.406-1.2-.945 1.176-.15 2.088-1.134 2.088-2.325a.28.28 0 0 0-.284-.277m-10.278.296a.28.28 0 0 0-.284.276c0 1.19.912 2.177 2.088 2.327-.12.539-.613.943-1.2.943a.28.28 0 0 0-.284.277.28.28 0 0 0 .284.278c.898 0 1.645-.65 1.775-1.492a2.399 2.399 0 0 0 1.451-.69.273.273 0 0 0-.004-.392.287.287 0 0 0-.4.004 1.84 1.84 0 0 1-1.31.538c-1.01 0-1.833-.805-1.833-1.793a.28.28 0 0 0-.284-.276M13.23 13.2a.28.28 0 0 0-.284.277.28.28 0 0 0 .284.277c1.01 0 1.833.805 1.833 1.793 0 .063-.004.126-.011.189-.88.348-1.502 1.192-1.502 2.175a.28.28 0 0 0 .284.278.28.28 0 0 0 .284-.278c0-.988.822-1.792 1.833-1.792a.28.28 0 0 0 .284-.278.28.28 0 0 0-.284-.277c-.109 0-.217.008-.322.022l.002-.039c0-1.294-1.078-2.347-2.401-2.347Zm-3.325.59c-1.323 0-2.4 1.054-2.4 2.348v.04a2.538 2.538 0 0 0-.321-.023.28.28 0 0 0-.284.277.28.28 0 0 0 .284.278c1.01 0 1.833.804 1.833 1.792a.28.28 0 0 0 .284.278.28.28 0 0 0 .283-.278c0-.983-.621-1.827-1.5-2.175a1.856 1.856 0 0 1-.012-.19c0-.987.822-1.792 1.833-1.792a.28.28 0 0 0 .284-.277.28.28 0 0 0-.284-.277Z" opacity=".75"/><defs><radialGradient id="a" cx="0" cy="0" r="1" gradientTransform="rotate(116.565 8.441 5.908) scale(24.5967)" gradientUnits="userSpaceOnUse"><stop stop-color="#9B9B9B"/><stop offset="1" stop-color="#5B5B5B"/></radialGradient></defs></svg>