<svg xmlns="http://www.w3.org/2000/svg" width="24" height="24" fill="none"><rect width="22" height="22" x="1" y="1" fill="url(#a)" rx="6.6"/><path fill="#000" fill-rule="evenodd" d="M11.706 20V4h2.353v3.048h3.137c.784 0 .784.762.784.762v11.428c0 .762-.784.762-.784.762h-5.49ZM7.784 20V8.573H7V7.048h.784V4.763C7.784 4 8.57 4 8.57 4h2.353v1.524h-.785v1.523h.785v1.524h-.785v11.427L7.784 20Z" clip-rule="evenodd"/><path fill="url(#b)" d="M14.06 9.356a.784.784 0 1 1 1.568 0v8.337a.784.784 0 1 1-1.568 0V9.356Z"/><defs><radialGradient id="a" cx="0" cy="0" r="1" gradientTransform="rotate(116.565 8.441 5.908) scale(24.5967)" gradientUnits="userSpaceOnUse"><stop stop-color="#AFDDE9"/><stop offset="1" stop-color="#729098"/></radialGradient><radialGradient id="b" cx="0" cy="0" r="1" gradientTransform="matrix(-.78407 9.9051 -1.94799 -.1542 15.236 8.572)" gradientUnits="userSpaceOnUse"><stop stop-color="#AFDDE9"/><stop offset="1" stop-color="#729098"/></radialGradient></defs></svg>