<svg xmlns="http://www.w3.org/2000/svg" width="24" height="24" fill="none"><rect width="22" height="22" x="1" y="1" fill="url(#a)" rx="6.6"/><path fill="#46A926" d="M10.596 3.004c-.96-.063-2.042.62-2.004 1.671-.114.626.49 1.093.464 1.658-.356.156-.626.156-.877.156H4.014v4.123c.325.708.989-.303 1.514-.194 1.002-.21 1.904.67 1.952 1.64.133.926-.225 2.13-1.275 2.317-.566.095-1.175-.01-1.64-.355-.56-.338-.596.403-.551.766v4.2h4.79c.709-.325-.303-.989-.193-1.514-.21-1.002.668-1.905 1.64-1.952.926-.133 2.13.225 2.316 1.275.096.566-.01 1.175-.355 1.64-.338.56.403.596.767.551h3.532v-4.769c.333-.714.997.331 1.538.175.87.171 1.75-.45 1.882-1.325.221-.968-.054-2.253-1.114-2.593-.671-.228-1.34.064-1.907.409-.522.074-.383-.558-.399-.884V6.49H12.41c-.715-.333.33-.997.175-1.538.17-.87-.45-1.75-1.326-1.882a3.15 3.15 0 0 0-.663-.065Z"/><defs><radialGradient id="a" cx="0" cy="0" r="1" gradientTransform="rotate(116.565 8.441 5.908) scale(24.5967)" gradientUnits="userSpaceOnUse"><stop stop-color="#F4F4F4"/><stop offset="1" stop-color="#BBB"/></radialGradient></defs></svg>