<svg xmlns="http://www.w3.org/2000/svg" width="24" height="24" fill="none"><rect width="22" height="22" x="1" y="1" fill="url(#a)" rx="6.6"/><path fill="#fff" d="M12 4c-4.432 0-8 3.568-8 8s3.568 8 8 8 8-3.568 8-8-3.568-8-8-8Zm0 .727c1.209 0 2.343.297 3.344.814.003.03.002.05 0 .082.042.02.067.098.138.137.026.015.043.021.068.034.042.023.077.062.068.103-.011.06-.096.057-.136.1.005.085-.047.082-.069.138.013.037.063.025.069.069-.008.046-.086.053-.069.1.079.062.165.01.239 0 .163-.02.307.01.408-.068-.013-.077.11-.1.102-.17-.007-.052-.097-.065-.136-.1-.01-.009-.02-.03-.03-.045.12.078.234.164.349.25-.029.023-.052.052-.081.065-.03.013-.075.017-.102.035-.041.027-.056.07-.103.1-.034.024-.135.103-.17.103-.042 0-.106-.043-.137-.033-.044.014-.019.084-.068.102-.096.034-.274-.076-.307.068.04.083.165.057.238.102.045.03.125.155.137.205a.657.657 0 0 1 0 .238c-.045.117-.173.106-.307.103-.036 0-.069.003-.103 0-.225-.015-.442-.093-.543.068.007.124.027.2 0 .307-.02.079-.107.136-.103.205.002.034.06.088.068.136.006.026-.011.08 0 .103.038.071.138-.012.205 0 .064.01.137.099.137.17a.51.51 0 0 1-.07.204c-.064.096-.18.085-.272.137-.076.044-.092.13-.137.206-.048.081-.087.122-.069.238a.534.534 0 0 1-.274.273c-.039.018-.1.042-.136.069a.669.669 0 0 0-.103.102c-.05.057-.109.093-.137.137-.02.033-.012.091-.034.137-.032.06-.096.109-.136.17-.02.029-.048.064-.069.102-.046.085-.111.165-.103.239.008.071.099.074.103.136.005.036-.036.064-.034.102.001.055.03.094.034.137.01.108-.048.13-.068.204-.01.035.008.075 0 .103-.018.054-.101.105-.103.169-.001.045.064.073.069.137.002.044-.042.096-.033.137.016.079.177.177.238.239.083.082.168.15.205.238.03.074.046.183.102.238.042.041.117.06.17.102.051.039.115.06.17.102.088.07.2.215.34.205.075-.006.156-.054.239-.069.086-.014.185-.041.273-.033.066.008.135.037.205.033a.737.737 0 0 0 .239-.068c.144-.063.369-.167.578-.137.16.023.162.201.274.273.128.011.238-.025.34 0 .077.019.163.145.17.206.007.062-.06.13-.068.168-.02.085-.02.185-.035.239-.011.042-.034.095-.032.137 0 .037.063.12.102.17.048.06.11.103.17.17.105.122.164.282.238.443.018.04-.018.052 0 .103-.032.244-.113.411-.273.682-.076.087-.172.197-.17.306-.006.262.147.394.136.647-.026.34-.006.398-.032.58.115.058.066.219.032.34-.049.143-.109.177-.136.273.09.04.189.03.29.005a7.244 7.244 0 0 1-5.305 2.297 7.278 7.278 0 0 1-2.532-.46c-.03-.01-.061-.017-.09-.034a.144.144 0 0 1-.068-.136c.076-.032.219.072.274-.034.028-.051-.036-.154 0-.205.026-.035.185-.06.239-.068.077-.013.16-.007.204-.034a.238.238 0 0 0 .103-.205c-.005-.042-.035-.064-.069-.102-.027-.032-.015-.072-.034-.101-.035-.051-.088-.063-.102-.137.104-.02.258.11.409.068.071-.02.17-.171.204-.238.01-.02-.011-.078 0-.103.014-.027.066-.053.07-.068.01-.04-.008-.044 0-.069.026-.074.093-.116.137-.17.033-.04.072-.094.102-.136.035-.046.046-.064.069-.103.022-.132-.066-.223-.034-.34.035-.13.214-.214.34-.274.044-.02.101-.055.138-.068.087-.03.19-.04.272-.069.137-.049.172-.181.239-.306a.618.618 0 0 0 .07-.17c.005-.038-.008-.058 0-.102.007-.043.02-.09.032-.137.016-.063.034-.167.034-.237 0-.058-.032-.085-.034-.138-.01-.189.067-.203.137-.306.035-.052.044-.133.068-.17.118-.174.322-.247.307-.512-.005-.087-.037-.28-.1-.307-.037-.016-.117-.012-.171-.033-.172-.064-.298-.26-.477-.274-.038-.001-.06.002-.103 0-.07-.001-.158-.06-.237-.068-.05-.006-.14.014-.17 0-.045-.022-.032-.112-.068-.137-.03-.02-.093-.018-.138-.034-.071-.028-.121-.063-.204-.069-.026 0-.073.005-.103 0-.045-.007-.094-.042-.136-.068-.053-.032-.081-.056-.103-.1.048-.158-.104-.184-.137-.275-.014-.042.015-.099 0-.137-.019-.054-.077-.091-.136-.136-.105-.082-.192-.152-.341-.17-.067-.008-.159.005-.239 0a.378.378 0 0 1-.239-.138c-.06-.07-.082-.136-.136-.17-.051-.032-.136-.035-.17-.068-.016-.014-.019-.035-.033-.068-.026-.053-.066-.074-.034-.138-.059-.029-.039.046-.101.034-.057-.08-.111-.127-.239-.102-.058.011-.102.1-.17.102-.057.002-.096-.092-.17-.102-.057-.008-.131.043-.17.034-.063-.012-.08-.065-.137-.103-.042-.027-.113-.102-.137-.1-.073 0-.138.154-.239.1-.049-.062.091-.078.033-.136-.043-.044-.066.01-.1.034a.634.634 0 0 1-.138.068c-.1.038-.16.028-.238.069-.073.038-.095.096-.138.17-.033.06-.085.166-.136.169-.061.004-.115-.078-.17-.101-.168-.073-.27.03-.409.032-.128.002-.312-.186-.306-.307.004-.074.06-.18.068-.273.007-.072.067-.138.068-.205.002-.089-.147-.159-.206-.169-.136-.025-.32.061-.475 0-.03-.05.05-.09.068-.137.01-.028-.01-.038 0-.069.018-.046.08-.087.101-.136.016-.038.018-.09.034-.137.02-.053.064-.1.069-.137.006-.05-.03-.106-.069-.138-.12.008-.204.003-.274.035-.157.071-.114.291-.272.34-.054.018-.144.023-.205.034-.027.005-.057.009-.086.016a7.232 7.232 0 0 1 .467-1.515c.035 0 .072-.005.096 0 .055.01.089.064.137.068.134.01.162-.112.273-.17.113.016.17-.012.274 0 .07.007.149.098.204.102.047.002.06-.041.103-.034.043.007.129.085.137.137.007.065-.054.133-.035.206.069.07.21.096.307.136.064-.052.01-.162 0-.238-.001-.034.005-.072 0-.103-.007-.052-.032-.091-.032-.136 0-.208.167-.294.306-.376.06-.035.118-.11.17-.136.075-.037.11-.034.17-.069.111-.062.222-.134.308-.206.039-.094-.005-.213 0-.306.039-.025.059.004.1 0 .068-.015.1-.1.138-.137.022-.022.075-.047.101-.069.067-.052.079-.113.137-.136.02-.008.07-.026.103-.034.043-.012.1-.044.17-.069.045-.016.153-.015.17-.033.022-.021-.006-.104 0-.137.035-.164.296-.182.443-.237.102-.04.193-.124.307-.103-.022.079-.122.076-.103.17.025.133.192-.049.239-.068.089-.038.259-.06.375-.102.102-.037.266-.087.17-.205-.08-.006-.1.072-.17.101-.048.008-.06-.03-.101-.032-.04-.002-.063.04-.103.032-.039-.007-.096-.09-.102-.136-.016-.123.12-.149.17-.239-.033-.11-.18-.025-.273-.068a.163.163 0 0 1 .137-.137c.063-.01.2.002.239.033.021.019-.001.072.032.102.038.034.088.008.138 0 .017-.083-.117-.048-.103-.102.1-.064.289-.017.41-.033.07-.01.142-.07.204-.103.058-.033.11-.088.17-.032.018.06-.035.106-.068.136-.112.1-.22.192-.307.307.054.053.148.023.239.033.035.004.064.028.1.034.044.008.103-.007.138 0 .061.015.076.103.137.103.099 0 .09-.103.033-.17.017-.069.058-.123.034-.17-.045-.09-.23.012-.239-.103-.006-.073.076-.082.103-.137-.012-.14.115-.146.1-.273-.006-.052-.064-.053-.1-.102-.02-.026-.013-.084-.034-.103-.076-.064-.23-.046-.239-.168-.004-.073.01-.128 0-.206-.01-.074-.072-.293-.137-.307-.081-.018-.14.125-.238.17a.419.419 0 0 1-.205.034c-.035-.007-.098-.035-.102-.102-.007-.077.054-.089.068-.17a7.322 7.322 0 0 1 1.969-.276m-2.931.616c-.021.299-.288.454-.602.446-.067.064-.032.184-.069.272-.03.075-.13.144-.204.138-.054-.004-.137-.087-.137-.138 0-.062.087-.097.033-.168.002-.015.022-.03.037-.046.301-.19.613-.36.942-.504Zm6.071.347c-.027.005-.041.019-.065.033-.056.033-.06.086-.103.102-.06.022-.127.015-.136.068-.008.046.035.06.034.102-.022.053-.057.07-.069.136.075.121.248-.006.34-.032.04-.012.08-.003.103-.035.024-.039.013-.113.032-.168.02-.061.076-.05.069-.103-.006-.054-.114-.112-.205-.103Zm-7.961.868c.07.037.19.2.054.258-.015.008-.204.04-.239.033-.028-.004-.052-.03-.076-.055.084-.082.174-.159.26-.236Zm.257.325c.034.002.061.066.102.069.04.003.08-.042.103-.035.06.016.09.126.032.17-.048.006-.066-.04-.1-.032-.1.017-.132.21-.207.204-.07-.007-.104-.153-.032-.204.001-.044-.037-.059-.034-.103.021-.027.078-.072.136-.068Zm-.34.034c.02 0 .025-.008.033 0-.01.078-.042.102-.101.138a.412.412 0 0 0-.206.273c-.01.039-.12.146-.169.136-.115-.024.042-.239.068-.272.03-.037.068-.062.101-.103.034-.04.037-.113.069-.137a.463.463 0 0 1 .206-.034H7.09Zm10.29.195c.047.051.094.1.138.152-.045-.053-.12-.074-.137-.152Zm-.444.015c.115-.007.187.134.239.204a.95.95 0 0 0 .239.17c.04.022.091.048.136.069.095.042.269.18.273.273.002.046-.04.093-.033.137.072.012.135-.099.137-.17a.064.064 0 0 0-.013-.039c.206.288.391.59.554.908-.064.019-.12.05-.13.112-.014.081.055.19-.068.204-.077.01-.168-.079-.274-.102-.044-.01-.102.011-.137 0-.08-.028-.067-.121-.136-.169a.59.59 0 0 0-.206-.068c-.04-.005-.06.005-.101 0-.05-.006-.13-.01-.17-.035-.04-.024-.126-.069-.137-.102-.016-.054.098-.124.1-.169.004-.035-.024-.05-.032-.102-.006-.032.008-.083 0-.103-.01-.038-.078-.067-.137-.068-.053 0-.092.034-.137.034-.064.001-.193-.042-.273-.034-.048.004-.092.031-.137.034-.127.01-.208-.007-.307 0a1 1 0 0 0-.273.068c-.033.016-.059.047-.102.069l-.069.032c-.04.02-.097.06-.136.07-.057.015-.136-.004-.239 0-.074.005-.203-.014-.204-.102-.002-.136.247-.08.375-.103.048-.01.079-.068.137-.101.027-.016.042-.017.068-.034.044-.03.13-.102.137-.137.005-.032-.037-.08-.033-.102.006-.031.062-.062.101-.102.061-.06.095-.13.17-.17.051-.027.147-.027.17-.068.006-.047-.001-.06 0-.103.032-.029.043-.062.069-.068.078-.017.147.037.238.033a.27.27 0 0 0 .137-.033c.035-.023.068-.05.103-.068.038-.02.056-.066.102-.069m-9.1.07h.103c.036 0 .087-.014.101 0-.023.096-.231.068-.307.033.005-.037.057-.029.104-.033m9.682.07c.041.049.084.095.125.145-.007-.004-.017-.005-.023-.01-.04-.033-.062-.086-.102-.136M7.497 7.36c.024 0 .043-.01.07 0a.778.778 0 0 1-.275.137c-.055.017-.126.027-.136-.034-.012-.076.053-.061.102-.069.064-.007.163-.03.237-.032l.002-.002Zm9.476.002c-.048.016-.071.123 0 .136.034-.02.043-.075.034-.136-.019-.02-.02-.006-.034 0Zm-.033.204c-.023.007-.043.007-.068.033.002.081.016.134 0 .206.047.09.145.027.169-.035.027-.15-.03-.223-.1-.204Zm.646.41c-.064-.003-.13.002-.168.032.053.088.152.115.272.137.044-.032.048-.113.069-.169-.053 0-.107.003-.17 0h-.003ZM4.806 10.97c.083.074.14.199.238.247.036.02.09.024.136.035.038.007.067.02.103.032.077.026.177.042.238.07.094.04.159.19.239.237.004.047-.015.103 0 .138.038.05.11.067.17.1.074.041.1.139.169.171.025.01.065-.012.102 0 .096.03.123.16.206.137.054-.016.06-.085.069-.137.036-.04.08-.102.136-.102.09-.002.104.117.137.205.019.05.055.085.068.137.022.09.02.356 0 .41-.023.066-.114.095-.17.168-.026.035-.048.08-.068.103-.035.043-.075.063-.101.102-.015.022-.021.07-.034.101-.044.093-.105.162-.069.274.015.046.069.084.069.137 0 .064-.127.1-.137.17-.007.051.052.136.068.205.012.05.106.103.137.136.05.057.09.134.137.206.092.141.147.305.238.443.048.072.138.129.17.205.016.037-.015.101 0 .136.052.118.291.25.41.307.054.028.118.041.17.07.076.044.233.136.272.204.035.061.051.21.068.307.022.128-.005.238 0 .376.005.075.035.128.035.204v.102c-.002.09.007.182 0 .273a.864.864 0 0 0 0 .138c.004.045.03.061.032.1.003.043-.037.105-.032.138.01.092.085.153.102.237.015.067.042.227.033.307-.006.043-.027.091-.033.138-.004.036.006.067 0 .1a.518.518 0 0 1-.02.089 7.248 7.248 0 0 1-3.366-6.133c0-.348.033-.688.08-1.022m2.83.797c.069-.032.056.094 0 .102-.055.008-.053-.077 0-.102Z" opacity=".75"/><defs><radialGradient id="a" cx="0" cy="0" r="1" gradientTransform="rotate(116.565 8.441 5.908) scale(24.5967)" gradientUnits="userSpaceOnUse"><stop stop-color="#7A9CBB"/><stop offset="1" stop-color="#2D5D87"/></radialGradient></defs></svg>