<svg xmlns="http://www.w3.org/2000/svg" width="24" height="24" fill="none"><rect width="22" height="22" x="1" y="1" fill="url(#a)" rx="6.6"/><path fill="#FF6E65" d="M11.947 5a7 7 0 1 0 .106 14 7 7 0 0 0-.106-14Zm.048 2.8H12a4.2 4.2 0 1 1-.005 0Z"/><path fill="#fff" d="M5.642 9.098c-.42.91-.639 1.9-.642 2.901 0 1.035.237 2.018.642 2.903l2.45-1.4a4.194 4.194 0 0 1-.292-1.503c0-.529.112-1.035.292-1.5M18.36 9.097l-2.451 1.4c.18.466.293.97.293 1.501 0 .531-.113 1.035-.292 1.503l2.45 1.4c.404-.885.64-1.867.64-2.903a6.969 6.969 0 0 0-.64-2.901Zm-7.86 6.811-1.401 2.449A6.958 6.958 0 0 0 12 19a6.943 6.943 0 0 0 2.901-.642l-1.4-2.45c-.466.18-.97.293-1.501.293-.531 0-1.035-.112-1.503-.292ZM12 5a6.983 6.983 0 0 0-2.903.64l1.4 2.452c.468-.18.97-.292 1.503-.292.529 0 1.035.112 1.5.29l1.401-2.45c-.91-.419-1.9-.637-2.901-.64Z"/><defs><radialGradient id="a" cx="0" cy="0" r="1" gradientTransform="rotate(116.565 8.441 5.908) scale(24.5967)" gradientUnits="userSpaceOnUse"><stop stop-color="#82C6E5"/><stop offset="1" stop-color="#3997C2"/></radialGradient></defs></svg>