<svg xmlns="http://www.w3.org/2000/svg" width="24" height="24" fill="none"><rect width="22" height="22" x="1" y="1" fill="url(#a)" rx="6.6"/><path fill="#fff" d="M12 16.4 7.6 12 12 7.6l1.466 1.467L10.533 12 12 13.466l4.4-4.399-3.833-3.832a.802.802 0 0 0-1.134 0l-6.198 6.198a.802.802 0 0 0 0 1.134l6.198 6.198a.802.802 0 0 0 1.134 0l6.198-6.198a.802.802 0 0 0 0-1.134l-.9-.9L12 16.4Z"/><defs><radialGradient id="a" cx="0" cy="0" r="1" gradientTransform="rotate(116.565 8.441 5.908) scale(24.5967)" gradientUnits="userSpaceOnUse"><stop stop-color="#AFDB7C"/><stop offset="1" stop-color="#77B430"/></radialGradient></defs></svg>