<svg xmlns="http://www.w3.org/2000/svg" width="24" height="24" fill="none"><rect width="22" height="22" x="1" y="1" fill="url(#a)" rx="6.6"/><path fill="#fff" d="M5.09 17.463c0-.43.148-.793.447-1.084a1.48 1.48 0 0 1 1.087-.445c.42 0 .775.149 1.066.445.296.29.444.653.444 1.084a1.465 1.465 0 0 1-.444 1.074 1.45 1.45 0 0 1-1.066.437 1.495 1.495 0 0 1-1.087-.437 1.45 1.45 0 0 1-.447-1.074Zm-.087-6.903v2.544c3.248 0 5.885 2.643 5.885 5.896h2.55A8.44 8.44 0 0 0 5 10.562l.003-.002ZM5.005 5v2.812A11.186 11.186 0 0 1 16.178 19h2.82A14.003 14.003 0 0 0 5.004 5Z"/><defs><radialGradient id="a" cx="0" cy="0" r="1" gradientTransform="rotate(116.565 8.441 5.908) scale(24.5967)" gradientUnits="userSpaceOnUse"><stop stop-color="#FDB67C"/><stop offset="1" stop-color="#E38131"/></radialGradient></defs></svg>