<svg xmlns="http://www.w3.org/2000/svg" width="24" height="24" fill="none"><rect width="22" height="22" x="1" y="1" fill="url(#a)" rx="6.6"/><path fill="#999" d="M4 6v12.267h5.867c1.186 0 1.918.956 1.918.956l.002.002.209.278.215-.274.002-.002s.752-.942 1.92-.96H20V6h-5.867c-1.025 0-1.578.441-1.947.8L12 6.98l-.186-.18c-.369-.359-.922-.8-1.947-.8H4Zm.533.533h5.334c1.193 0 1.917.956 1.917.956l.216.289.215-.287s.725-.958 1.918-.958h5.334v11.2h-5.338c-1.014.015-1.572.455-1.941.806l-.186.177-.184-.18c-.36-.35-.97-.852-1.951-.803H4.533v-11.2Z"/><path fill="#999" d="M8.534 8.4v.267H10.4V8.4H8.534Zm5.066 0v.267h4.8V8.4h-4.8ZM8.534 9.467v.266H10.4v-.266H8.534Zm5.066 0v.266h4.8v-.266h-4.8Zm-5.066 1.066v.267H10.4v-.267H8.534Zm5.066 0v.267h4.8v-.267h-4.8Zm-8 1.067v.267h4.8V11.6H5.6Zm8 0v.267h4.8V11.6h-4.8Zm-8 1.067v.267h4.8v-.267H5.6Zm8 0v.267h4.8v-.267h-4.8Zm-8 1.066V14h4.8v-.267H5.6Zm8 0V14h4.8v-.267h-4.8Zm-8 1.067v.267h4.8V14.8H5.6Zm8 0v.267h4.8V14.8h-4.8Zm-8 1.067v.267h4.8v-.267H5.6Zm8 0v.267h2.667v-.267H13.6Z"/><path fill="gray" d="m6.653 8.4-.846 2.229H5.6v.171h.6v-.171h-.192l.2-.515h.995l.2.515h-.26v.171h.861v-.171h-.237L6.92 8.4h-.267Zm.052.386.438 1.157h-.869l.43-1.157Z"/><defs><radialGradient id="a" cx="0" cy="0" r="1" gradientTransform="rotate(116.565 8.441 5.908) scale(24.5967)" gradientUnits="userSpaceOnUse"><stop stop-color="#F4F4F4"/><stop offset="1" stop-color="#BBB"/></radialGradient></defs></svg>