<svg xmlns="http://www.w3.org/2000/svg" width="24" height="24" fill="none"><rect width="22" height="22" x="1" y="1" fill="url(#a)" rx="6.6"/><path fill="#7E8087" d="M8.727 4a.363.363 0 0 0-.363.364v6.545c0 .201.162.364.363.364h6.06a.363.363 0 0 0 .364-.364V4.364A.364.364 0 0 0 14.789 4h-6.06Zm.121.485h.485v.485h-.485v-.485Zm1.213 0h3.393c.135 0 .243.108.243.242v2.425a.242.242 0 0 1-.242.242H10.06a.242.242 0 0 1-.243-.242V4.727c0-.134.108-.242.243-.242Zm4.12 0h.486v.485h-.485v-.485Zm-5.333.97h.485v.484h-.485v-.484Zm5.334 0h.485v.484h-.485v-.484Zm-5.334.97h.485v.484h-.485v-.485Zm5.334 0h.485v.484h-.485v-.485Zm-5.334.969h.485v.485h-.485v-.485Zm5.334 0h.485v.485h-.485v-.485Zm-4.121.485h3.393c.135 0 .243.108.243.242v2.425a.242.242 0 0 1-.242.242H10.06a.244.244 0 0 1-.225-.15.242.242 0 0 1-.018-.092V8.12c0-.134.108-.242.243-.242Zm-1.213.485h.485v.484h-.485v-.484Zm5.334 0h.485v.484h-.485v-.484Zm-5.334.97h.485v.484h-.485v-.485Zm5.334 0h.485v.484h-.485v-.485Zm-5.334.969h.485v.485h-.485v-.485Zm5.334 0h.485v.485h-.485v-.485Zm-9.455 8.242a.727.727 0 1 0 0 1.455.727.727 0 0 0 0-1.454Zm2.425 0a.727.727 0 1 0 0 1.455.727.727 0 0 0 0-1.454Zm2.424 0a.727.727 0 1 0 0 1.455.727.727 0 0 0 0-1.454Zm2.424 0A.727.727 0 1 0 12 20a.727.727 0 0 0 0-1.454Zm2.424 0a.727.727 0 1 0 0 1.455.727.727 0 0 0 0-1.454Zm2.425 0a.727.727 0 1 0 0 1.455.727.727 0 0 0 0-1.454Zm2.424 0a.727.727 0 1 0 0 1.455.727.727 0 0 0 0-1.454Z" opacity=".5"/><defs><radialGradient id="a" cx="0" cy="0" r="1" gradientTransform="rotate(116.565 8.441 5.908) scale(24.5967)" gradientUnits="userSpaceOnUse"><stop stop-color="#F4F4F4"/><stop offset="1" stop-color="#BBB"/></radialGradient></defs></svg>