<svg xmlns="http://www.w3.org/2000/svg" width="24" height="24" fill="none"><rect width="22" height="22" x="1" y="1" fill="url(#a)" rx="6.6"/><path fill="#BBB" d="M6.75 10C5.78 10 5 10.78 5 11.75s.78 1.75 1.75 1.75h2.625c.649 0 1.207-.353 1.509-.875h-.545c-.24.265-.577.438-.964.438H6.75a1.31 1.31 0 0 1-1.313-1.313 1.31 1.31 0 0 1 1.313-1.313h2.625c.387 0 .725.173.964.438h.545A1.739 1.739 0 0 0 9.375 10H6.75ZM14.625 10c-.649 0-1.207.353-1.509.875h.545c.24-.265.578-.438.964-.438h2.625a1.31 1.31 0 0 1 1.313 1.313 1.31 1.31 0 0 1-1.313 1.313h-2.625c-.386 0-.725-.173-.964-.438h-.545c.302.522.86.875 1.509.875h2.625c.97 0 1.75-.78 1.75-1.75S18.22 10 17.25 10h-2.625Z"/><path fill="#BBB" d="M10.688 11.312h2.624a.437.437 0 1 1 0 .875h-2.624a.437.437 0 1 1 0-.875Z"/><defs><radialGradient id="a" cx="0" cy="0" r="1" gradientTransform="rotate(116.565 8.441 5.908) scale(24.5967)" gradientUnits="userSpaceOnUse"><stop stop-color="#BBB"/><stop offset="1" stop-color="#363636"/></radialGradient></defs></svg>