<svg xmlns="http://www.w3.org/2000/svg" width="24" height="24" fill="none"><rect width="22" height="22" x="1" y="1" fill="url(#a)" rx="6.6"/><path fill="#555" d="M7.702 9.074H7.22V6.577c0-.35.007-.679.022-.986l-.745.636-.262-.329 1.05-.832h.417v4.008ZM9.104 7.059c0-.686.102-1.198.306-1.533.22-.35.54-.526.964-.526.438 0 .76.175.964.526.219.335.328.847.328 1.533 0 .686-.11 1.204-.328 1.555-.205.336-.526.504-.964.504-.423 0-.745-.168-.964-.504-.204-.35-.306-.869-.306-1.555Zm2.059 0c0-.613-.074-1.037-.22-1.27-.13-.234-.32-.351-.569-.351-.234 0-.423.117-.57.35-.13.22-.197.643-.197 1.27 0 .643.066 1.081.198 1.315.146.219.335.328.569.328.248 0 .438-.116.57-.35.145-.234.218-.664.218-1.292ZM12.192 7.059c0-.686.102-1.198.307-1.533.219-.35.54-.526.963-.526.438 0 .76.175.964.526.219.335.329.847.329 1.533 0 .686-.11 1.204-.329 1.555-.204.336-.526.504-.964.504-.423 0-.744-.168-.963-.504-.205-.35-.307-.869-.307-1.555Zm2.059 0c0-.613-.073-1.037-.22-1.27-.13-.234-.32-.351-.569-.351-.233 0-.423.117-.57.35-.13.22-.196.643-.196 1.27 0 .643.065 1.081.197 1.315.146.219.336.328.57.328.248 0 .437-.116.569-.35.146-.234.219-.664.219-1.292ZM15.28 7.059c0-.686.103-1.198.307-1.533.22-.35.54-.526.964-.526.438 0 .76.175.964.526.219.335.328.847.328 1.533 0 .686-.11 1.204-.328 1.555-.205.336-.526.504-.964.504-.423 0-.745-.168-.964-.504-.204-.35-.306-.869-.306-1.555Zm2.06 0c0-.613-.074-1.037-.22-1.27-.131-.234-.32-.351-.57-.351-.233 0-.422.117-.569.35-.13.22-.197.643-.197 1.27 0 .643.066 1.081.197 1.315.147.219.336.328.57.328.248 0 .438-.116.57-.35.145-.234.218-.664.218-1.292ZM6.016 12c0-.686.102-1.197.306-1.533.22-.35.54-.526.964-.526.438 0 .76.175.964.526.219.336.328.847.328 1.533 0 .686-.11 1.205-.328 1.555-.205.336-.526.504-.964.504-.424 0-.745-.168-.964-.504-.204-.35-.306-.869-.306-1.555Zm2.058 0c0-.613-.073-1.037-.219-1.27-.131-.234-.32-.35-.57-.35-.233 0-.423.116-.569.35-.131.219-.197.642-.197 1.27 0 .643.066 1.08.197 1.314.146.22.336.329.57.329.248 0 .438-.117.57-.35.145-.234.218-.665.218-1.293ZM10.79 14.015h-.482v-2.497c0-.35.008-.679.022-.985l-.744.635-.263-.329 1.051-.832h.416v4.008ZM12.192 12c0-.686.102-1.197.307-1.533.219-.35.54-.526.963-.526.438 0 .76.175.964.526.219.336.329.847.329 1.533 0 .686-.11 1.205-.329 1.555-.204.336-.526.504-.964.504-.423 0-.744-.168-.963-.504-.205-.35-.307-.869-.307-1.555Zm2.059 0c0-.613-.073-1.037-.22-1.27-.13-.234-.32-.35-.569-.35-.233 0-.423.116-.57.35-.13.219-.196.642-.196 1.27 0 .643.065 1.08.197 1.314.146.22.336.329.57.329.248 0 .437-.117.569-.35.146-.234.219-.665.219-1.293ZM15.28 12c0-.686.103-1.197.307-1.533.22-.35.54-.526.964-.526.438 0 .76.175.964.526.219.336.328.847.328 1.533 0 .686-.11 1.205-.328 1.555-.205.336-.526.504-.964.504-.423 0-.745-.168-.964-.504-.204-.35-.306-.869-.306-1.555Zm2.06 0c0-.613-.074-1.037-.22-1.27-.131-.234-.32-.35-.57-.35-.233 0-.422.116-.569.35-.13.219-.197.642-.197 1.27 0 .643.066 1.08.197 1.314.147.22.336.329.57.329.248 0 .438-.117.57-.35.145-.234.218-.665.218-1.293ZM6 16.941c0-.686.102-1.197.307-1.533.219-.35.54-.526.963-.526.438 0 .76.176.964.526.219.336.329.847.329 1.533 0 .687-.11 1.205-.329 1.555-.204.336-.526.504-.964.504-.423 0-.744-.168-.963-.504-.205-.35-.307-.868-.307-1.555Zm2.059 0c0-.613-.073-1.036-.22-1.27-.13-.234-.32-.35-.569-.35-.233 0-.423.116-.57.35-.13.219-.196.642-.196 1.27 0 .643.065 1.08.197 1.314.146.22.336.329.57.329.248 0 .437-.117.569-.35.146-.234.219-.665.219-1.293ZM9.088 16.941c0-.686.103-1.197.307-1.533.219-.35.54-.526.964-.526.438 0 .759.176.963.526.22.336.329.847.329 1.533 0 .687-.11 1.205-.329 1.555-.204.336-.525.504-.963.504-.424 0-.745-.168-.964-.504-.204-.35-.307-.868-.307-1.555Zm2.06 0c0-.613-.074-1.036-.22-1.27-.131-.234-.321-.35-.57-.35-.233 0-.423.116-.569.35-.131.219-.197.642-.197 1.27 0 .643.066 1.08.197 1.314.146.22.336.329.57.329.248 0 .438-.117.57-.35.145-.234.218-.665.218-1.293ZM13.863 18.957h-.482V16.46c0-.35.007-.68.022-.986l-.745.635-.262-.328 1.05-.833h.417v4.009ZM15.265 16.941c0-.686.102-1.197.307-1.533.219-.35.54-.526.963-.526.438 0 .76.176.964.526.22.336.329.847.329 1.533 0 .687-.11 1.205-.329 1.555-.204.336-.526.504-.964.504-.423 0-.744-.168-.963-.504-.205-.35-.307-.868-.307-1.555Zm2.059 0c0-.613-.073-1.036-.22-1.27-.13-.234-.32-.35-.569-.35-.233 0-.423.116-.57.35-.13.219-.196.642-.196 1.27 0 .643.066 1.08.197 1.314.146.22.336.329.57.329.248 0 .437-.117.569-.35.146-.234.219-.665.219-1.293Z"/><defs><radialGradient id="a" cx="0" cy="0" r="1" gradientTransform="rotate(116.565 8.441 5.908) scale(24.5967)" gradientUnits="userSpaceOnUse"><stop stop-color="#F4F4F4"/><stop offset="1" stop-color="#BBB"/></radialGradient></defs></svg>