<svg xmlns="http://www.w3.org/2000/svg" width="24" height="24" fill="none"><rect width="22" height="22" x="1" y="1" fill="url(#a)" rx="6.6"/><path fill="#fff" d="M12 5c-3.866 0-7 .855-7 1.91v6.363c.003.273.22.542.636.79l.008.004a3.579 3.579 0 0 0 .323.169 5.214 5.214 0 0 0 .391.163 7.3 7.3 0 0 0 .46.154 10.033 10.033 0 0 0 .478.13 12.538 12.538 0 0 0 1.132.23 18.131 18.131 0 0 0 1.338.167 24.043 24.043 0 0 0 1.693.094c.18.005.36.007.541.008a24.768 24.768 0 0 0 1.55-.05 22.912 22.912 0 0 0 1.14-.098 18.905 18.905 0 0 0 1.775-.293l.124-.03c.146-.034.286-.07.421-.107l.009-.003.015-.005c.157-.044.306-.09.446-.139.144-.05.28-.102.405-.155h.001l.004-.001c.123-.053.237-.107.34-.162l.005-.002.129-.074c.416-.248.633-.517.636-.79V6.909C19 5.855 15.866 5 12 5Zm0 10.182h-.636v1.909H12v.636H6.91v-.636H5V19h1.91v-.636H17.09V19h1.91v-1.91h-1.91v.637h-4.455v-.636h.637v-1.91H12Zm0-9.546c3.515 0 6.364.57 6.364 1.273S15.514 8.182 12 8.182c-3.515 0-6.364-.57-6.364-1.273S8.486 5.636 12 5.636ZM5.636 7.7C6.772 8.38 9.26 8.817 12 8.82c2.742-.001 5.228-.439 6.364-1.12v2.392c0 .703-2.85 1.273-6.364 1.273-3.515 0-6.364-.57-6.364-1.273V7.699Zm0 3.182C6.772 11.561 9.26 12 12 12c2.742 0 5.228-.438 6.364-1.119v2.392c0 .337-.67.661-1.864.9-1.194.238-2.812.373-4.5.373-1.688 0-3.306-.135-4.5-.373-1.193-.239-1.864-.563-1.864-.9V10.88ZM12 15.818h.636v.636H12v-.636Zm-6.364 1.91h.637v.636h-.637v-.637Zm12.091 0h.637v.636h-.637v-.637Z" opacity=".75"/><defs><radialGradient id="a" cx="0" cy="0" r="1" gradientTransform="rotate(116.565 8.441 5.908) scale(24.5967)" gradientUnits="userSpaceOnUse"><stop stop-color="#B084D7"/><stop offset="1" stop-color="#783CAF"/></radialGradient></defs></svg>