<svg xmlns="http://www.w3.org/2000/svg" width="24" height="24" fill="none"><rect width="22" height="22" x="1" y="1" fill="url(#a)" rx="6.6"/><path stroke="#1D99F3" stroke-width=".583" d="M5.583 11.716c4.109 0 4.87 5.228 6.681 5.244 1.813.014 2.629-5.257 6.736-5.257"/><path stroke="#DA4453" stroke-width=".583" d="M5.583 11.151c4.109 0 4.944-3.559 6.7-3.555 1.744.004 2.61 4.108 6.717 4.108"/><path stroke="#D6D6D6" stroke-width=".583" d="M5.583 11.151c4.109 0 4.358-5.841 6.691-5.841 2.334 0 2.62 6.394 6.726 6.394"/><path fill="#D6D6D6" d="M5.583 5H5v13.417h.583V5Z"/><path fill="#D6D6D6" d="M19 11.417H5V12h14v-.583Z"/><path fill="#D6D6D6" d="M9.083 10.833H8.5v1.75h.583v-1.75ZM12.583 10.833H12v1.75h.583v-1.75ZM16.083 10.833H15.5v1.75h.583v-1.75Z"/><defs><radialGradient id="a" cx="0" cy="0" r="1" gradientTransform="rotate(116.565 8.441 5.908) scale(24.5967)" gradientUnits="userSpaceOnUse"><stop stop-color="#8B8B8B"/><stop offset="1" stop-color="#454545"/></radialGradient></defs></svg>