<svg xmlns="http://www.w3.org/2000/svg" width="24" height="24" fill="none"><rect width="22" height="22" x="1" y="1" fill="url(#a)" rx="6.6"/><path fill="#F09020" d="m15.836 19.92-.87.003v-2.315a41.928 41.928 0 0 1-1.327 1.17l-1.306-1.17v2.312l-.876-.005v-3.498s.605.004.838.007c.028 0 .06.03.083.054.349.346 1.264 1.118 1.264 1.118s.976-.822 1.258-1.107a.203.203 0 0 1 .164-.068c.178.003.586-.004.772-.004v3.503ZM8.736 17.413s.628-.624.944-.934c.029-.028.07-.059.106-.06.27-.003.796-.002.796-.002v3.503h-.876v-2.278L7.51 19.84a.246.246 0 0 1-.194.08c-.33-.004-1.09 0-1.09 0l2.509-2.506ZM5.823 18.237 4 16.417l.95.001a.216.216 0 0 1 .173.07c.377.382.757.76 1.137 1.139.027.027.055.052.086.08.404-.4.804-.796 1.2-1.195a.279.279 0 0 1 .222-.095h.921l-1.9 1.9c-.51.507-1.021 1.012-1.529 1.52a.255.255 0 0 1-.203.083h-.904l1.67-1.683ZM16.712 16.417h.875v2.846s1.144.001 1.67-.002a.218.218 0 0 1 .175.07c.166.172.333.345.502.514.02.02.04.044.066.075h-3.288v-3.503Z"/><path stroke="#999" stroke-linejoin="round" stroke-width=".923" d="M11.768 8.565c3.314 0 6-1.033 6-2.308 0-1.274-2.686-2.307-6-2.307-3.313 0-6 1.033-6 2.307 0 1.275 2.687 2.308 6 2.308Z"/><path stroke="#999" stroke-width=".923" d="M5.768 6.259v5.538"/><path stroke="#999" stroke-linejoin="round" stroke-width=".923" d="M17.768 8.104c0 .405-.277.803-.804 1.153-.526.351-1.284.642-2.196.845-.912.203-1.947.31-3 .31a14.07 14.07 0 0 1-3-.31c-.912-.203-1.67-.494-2.196-.845-.526-.35-.804-.748-.804-1.153"/><path stroke="#999" stroke-linejoin="round" stroke-width=".923" d="M17.768 9.95c0 .405-.277.803-.803 1.154-.527.35-1.285.642-2.197.844-.912.203-1.947.31-3 .31s-2.088-.107-3-.31c-.912-.202-1.67-.494-2.196-.845-.526-.35-.804-.748-.804-1.153"/><path stroke="#999" stroke-linejoin="round" stroke-width=".923" d="M17.768 11.796c0 .405-.277.803-.803 1.154-.527.35-1.285.642-2.197.844-.912.203-1.947.31-3 .31a14.07 14.07 0 0 1-3-.31c-.912-.202-1.67-.494-2.196-.844-.526-.351-.804-.75-.804-1.154"/><path stroke="#999" stroke-width=".923" d="M17.768 6.259v5.538"/><defs><radialGradient id="a" cx="0" cy="0" r="1" gradientTransform="rotate(116.565 8.441 5.908) scale(24.5967)" gradientUnits="userSpaceOnUse"><stop stop-color="#F4F4F4"/><stop offset="1" stop-color="#BBB"/></radialGradient></defs></svg>