<svg xmlns="http://www.w3.org/2000/svg" width="24" height="24" fill="none"><rect width="22" height="22" x="1" y="1" fill="url(#a)" rx="6.6"/><path fill="#000" d="M4 5v9.454h5.09v-.727H6.183v-2.909H9.09v-.727h4.364V5H4Zm.727.727h.728v1.455h-.728V5.727Zm1.455 0h5.09v2.91h-5.09v-2.91Zm5.818 0h.727v1.455H12V5.727ZM4.727 7.91h.728v1.455h-.728V7.909Zm7.273 0h.727v1.455H12V7.909Zm-7.273 2.91h.728v1.454h-.728v-1.455Zm5.091 0v7.272L12.728 21v-2.91H20v-7.272H9.818Zm.728.726h8.727v5.819h-8.727v-5.819ZM4.727 13h.728v.727h-.728V13Z" opacity=".35"/><defs><radialGradient id="a" cx="0" cy="0" r="1" gradientTransform="rotate(116.565 8.441 5.908) scale(24.5967)" gradientUnits="userSpaceOnUse"><stop stop-color="#F4F4F4"/><stop offset="1" stop-color="#BBB"/></radialGradient></defs></svg>