<svg xmlns="http://www.w3.org/2000/svg" width="24" height="24" fill="none"><rect width="22" height="22" x="1" y="1" fill="url(#a)" rx="6.6"/><path fill="#fff" fill-rule="evenodd" d="M16.564 7c.587 2.311-2.07 3.01-3.028 4.449-.653.98.32 2.034 1.647 3.232-.517-1.17-2.272-2.193 0-3.989C18.019 8.455 16.565 7 16.565 7Zm1.753 2.86s-4.792 1.196-2.503 3.834c.675.778-.177 1.477-.177 1.477s1.714-.885.927-1.994c-.736-1.033-1.3-1.547 1.753-3.317Zm.85 4.711c-.17 0-.348.03-.531.094-.147.052-.225.173-.225.173s.093-.037.3-.08c.848-.177 2.063 1.135-.564 2.5-.012.032-.052.068-.052.068 3.124-.821 2.443-2.758 1.071-2.755Zm-5.63.133c-.205-.005-1.095.009-2.158.523-1.437.695 3.555 1.011 6.139.332.269-.184.64-.343.64-.343s-1.057.189-2.11.277c-1.29.109-2.672.13-3.366.037-1.643-.22.9-.824.9-.824l-.044-.002Zm-.547 1.59c-2.37.787 1.32 1.68 4.633.71a1.653 1.653 0 0 1-.575-.35c-1.62.311-2.556.301-3.741.179-.917-.095-.317-.539-.317-.539Zm.335 1.533c-2.152.601 1.31 1.844 4.05.67-.448-.175-.77-.377-.77-.377-1.222.231-1.79.25-2.899.123-.915-.105-.38-.416-.38-.416Zm-1.495 1.016c-.967.03-2.857.899-1.128 1.18 5.588.905 10.186-.409 8.736-1.063 0 0 .396.327-.435.58-1.582.478-6.585.623-7.975.018-.499-.217.438-.518.732-.582.308-.066.483-.054.483-.054-.087-.062-.234-.085-.413-.08Zm8.496.83s-.177.453-2.084.812c-2.152.405-4.806.357-6.38.098 0 0 .322.266 1.98.373 2.52.161 6.392-.09 6.484-1.282Z" clip-rule="evenodd" opacity=".75"/><path fill="#FAFAFA" d="M6 13.994v3.249c0 .138.111.25.25.25h1.5a.25.25 0 0 0 .25-.25v-3.249H6Zm.5 2h1v.999h-1v-1Z"/><path fill="#FAFAFA" d="M7 1v1h1V1H7Zm0 1H6v1h1V2Zm0 1v.999h1v-1H7Zm0 .999H6v1h1v-1Zm0 1v.999h1v-1H7Zm0 .999H6v1h1v-1Zm0 1v.999h1v-1H7Zm0 .999H6v1h1v-1Zm0 1v.999h1v-1H7Zm0 .999H6v1h1v-1Zm0 1v1h1v-1H7Zm0 1H6v.999h1v-1Zm0 .999v1h1v-1H7Z"/><defs><radialGradient id="a" cx="0" cy="0" r="1" gradientTransform="rotate(116.565 8.441 5.908) scale(24.5967)" gradientUnits="userSpaceOnUse"><stop stop-color="#FFB878"/><stop offset="1" stop-color="#E6842B"/></radialGradient></defs></svg>