<svg xmlns="http://www.w3.org/2000/svg" width="24" height="24" fill="none"><rect width="22" height="22" x="1" y="1" fill="url(#a)" rx="6.6"/><path fill="#fff" d="M5.003 15.745c0-.26.033-.48.103-.655a1.138 1.138 0 0 1 .761-.678 2.007 2.007 0 0 1 1.093 0 1.136 1.136 0 0 1 .761.678c.081.208.12.431.112.655.006.218-.033.435-.114.638a1.143 1.143 0 0 1-.76.688 1.82 1.82 0 0 1-1.094 0 1.143 1.143 0 0 1-.759-.689 1.73 1.73 0 0 1-.103-.637ZM12.779 12.064c0 .975.138 1.71.413 2.208.276.49.72.735 1.34.735.614 0 1.059-.248 1.332-.743.276-.498.411-1.23.411-2.2 0-.975-.138-1.703-.411-2.182-.275-.483-.725-.727-1.35-.727-.614 0-1.057.244-1.33.727-.27.479-.403 1.207-.403 2.182m6.219 0c0 .818-.106 1.54-.318 2.172a4.325 4.325 0 0 1-.89 1.596 3.814 3.814 0 0 1-1.42.99 5.013 5.013 0 0 1-1.875.332 4.723 4.723 0 0 1-1.788-.333 3.99 3.99 0 0 1-1.41-.99 4.634 4.634 0 0 1-.919-1.595 6.53 6.53 0 0 1-.332-2.172c0-.811.101-1.534.305-2.163.212-.632.508-1.16.894-1.587a3.814 3.814 0 0 1 1.42-.981C13.222 7.113 13.849 7 14.55 7a4.71 4.71 0 0 1 1.787.333 3.83 3.83 0 0 1 1.4.98c.399.429.708.956.93 1.588.22.63.333 1.352.333 2.161"/><defs><radialGradient id="a" cx="0" cy="0" r="1" gradientTransform="rotate(116.565 8.441 5.908) scale(24.5967)" gradientUnits="userSpaceOnUse"><stop stop-color="#F89799"/><stop offset="1" stop-color="#DC5758"/></radialGradient></defs></svg>