<svg xmlns="http://www.w3.org/2000/svg" width="24" height="24" fill="none"><rect width="22" height="22" x="1" y="1" fill="url(#a)" rx="6.6"/><path fill="#fff" d="M17.268 16.969c-.59-.099-1.436-.433-1.96-.774-1.15-.751-1.903-1.585-2.368-2.626-.154-.346-.239-.614-.48-1.528a7.241 7.241 0 0 0-.167-.555c-.052-.133-.055-.177-.032-.62.022-.42.093-.988.131-1.047.008-.012.025-.015.039-.007.047.028.09-.1.133-.395.024-.161.06-.33.082-.375.021-.046.058-.146.08-.223.054-.178.126-.314.35-.658a7.8 7.8 0 0 0 .227-.367c.031-.059.066-.087.097-.082.03.006.08-.032.133-.101.227-.3 1.298-1.186 1.397-1.155.027.008.14-.03.251-.083.201-.097.29-.12.29-.073 0 .013-.03.043-.065.067-.062.041-.061.042.036.02.055-.013.148-.032.207-.041.072-.012.101-.03.091-.054-.009-.022.012-.044.052-.054.098-.025.252-.021.252.007 0 .034-.088.068-.158.061-.047-.004-.05 0-.014.023.036.023.036.028.003.029-.023 0-.034.007-.025.016.01.008.07-.01.133-.042a1.32 1.32 0 0 1 .261-.086c.098-.02.144-.044.144-.073 0-.037.046-.04.352-.024.193.01.485.039.648.064.296.047.296.047.407-.014.133-.073.346-.083.402-.018.02.024.077.063.125.087.08.039.085.04.051 0-.063-.073 0-.071.245.007.79.254 1.434.707 1.913 1.343.113.151.12.22.012.127l-.061-.052.047.088a.412.412 0 0 1 .047.12c0 .019.076.153.169.298.209.328.268.438.253.479-.006.017-.098-.098-.206-.257a6.839 6.839 0 0 0-.353-.474c-.13-.153-.163-.18-.19-.147a.172.172 0 0 1-.096.05l-.064.008.064.119c.034.065.068.106.073.09.03-.088.17.027.235.19.02.053.076.162.122.243.047.08.08.151.072.158-.007.007-.05-.015-.095-.049l-.08-.061.055.091c.03.05.081.112.113.137.04.031.06.08.06.156.004.141.088.308.134.264.071-.068.086-.026.068.198-.013.165-.006.274.025.39.048.175.038.218-.032.136-.044-.052-.045-.052-.025.002.043.116.074.29.066.357-.017.127-.067.075-.084-.088l-.017-.159-.005.17a2.951 2.951 0 0 1-.05.398 1.364 1.364 0 0 0-.029.349c.017.124.005.128-.103.04-.043-.036-.051-.03-.081.078a.314.314 0 0 0 0 .218c.02.054.03.128.025.164-.013.083-.082.108-.082.03 0-.098-.038-.063-.157.142-.321.553-.83.981-1.404 1.183a2.996 2.996 0 0 1-.948.184l-.344.02.17.05c.137.04.217.046.416.03.26-.02.564-.073.702-.124.056-.02.093-.02.112-.003.045.043-.355.213-.592.251-.403.066-.943-.005-1.42-.185-.323-.123-.803-.442-.73-.486.014-.008.106.034.203.093.125.076.178.096.178.067 0-.054.018-.051.117.016.09.062.366.175.564.233.216.063.132-.013-.158-.143-.917-.41-1.298-.821-1.488-1.604-.07-.287.005-.917.132-1.114a.363.363 0 0 0 .059-.137c0-.109.189-.397.384-.584.342-.328.698-.465 1.161-.445.224.01.32.03.505.1.211.08.477.25.396.251a.948.948 0 0 1-.187-.06c-.127-.05-.208-.06-.496-.061-.404-.002-.601.053-.889.247-.407.276-.634.593-.714 1a1.355 1.355 0 0 0-.014.62c.024.156.041.202.072.19.025-.009.04.005.04.038 0 .097.22.49.371.665.367.423.96.692 1.521.692.292 0 .528-.053.745-.17.088-.046.198-.103.245-.126a.923.923 0 0 0 .392-.35c.067-.099.14-.18.162-.18.033 0 .032.015-.007.076-.128.203.172-.165.328-.402l.174-.265-.019-.174c-.018-.167-.016-.178.068-.261.08-.081.087-.105.097-.322.008-.193.002-.233-.033-.234-.034 0-.048-.05-.062-.22-.019-.224-.209-.978-.253-1.004a.598.598 0 0 1-.083-.161c-.107-.273-.296-.534-.591-.82-.424-.41-.959-.727-1.464-.867-.429-.12-1.158-.076-1.677.1-.254.085-.504.2-.546.248-.019.022-.047.033-.061.024-.016-.009-.012-.034.01-.059.096-.11-.222.092-.426.272-.124.11-.23.201-.235.205-.005.004.019 0 .054-.008.058-.015.06-.01.029.046-.02.036-.126.101-.255.157-.216.094-.356.198-.468.346-.044.06-.046.072-.011.06.024-.01.045-.004.045.012 0 .078-.075.166-.185.218-.244.113-.674.722-.903 1.28-.103.249-.101.24-.045.24.058 0 .054.064-.026.408-.118.5-.118.484.01 1.188.156.858.247 1.145.42 1.322.04.042.08.13.098.22a.437.437 0 0 0 .122.243c.06.061.08.098.057.106-.045.016.097.22.226.324.065.053.114.07.166.06.115-.02.231.043.41.224.187.188.206.238.083.22-.08-.01-.082-.008-.043.049.023.033.106.112.185.176.111.09.14.129.126.171-.02.06.037.117.166.165.08.029.106.092.046.112-.019.005.094.117.25.248.177.147.295.227.312.211.045-.041.102-.028.103.023 0 .056.051.116.234.274.115.1.143.112.214.093.065-.017.105-.006.196.053.182.118.292.165.386.165.093 0 .106.026.058.112-.026.046-.02.053.038.053.038 0 .143.025.235.055.209.069.296.074.243.013-.077-.089.005-.065.28.084.386.207.581.23 1.349.164.113-.01.15-.004.15.023 0 .024-.098.06-.28.102-.238.055-.364.066-.853.072-.384.005-.647-.005-.798-.03Zm-.392-4.126a.293.293 0 0 0-.079-.057l-.079-.046.068.057c.066.055.09.067.09.046Zm3.949-2.885c-.01-.022-.016-.015-.018.017-.001.029.006.045.015.036.01-.01.011-.033.003-.053Zm-6.527-2.905c.036-.044.035-.045-.01-.01-.028.02-.05.042-.05.048 0 .022.023.008.06-.038Zm.326-.255c.029-.03.046-.055.038-.055a.223.223 0 0 0-.066.055c-.029.03-.046.055-.038.055a.224.224 0 0 0 .066-.055Zm.361-.193c.095-.03.149-.036.168-.017.02.019.094.008.232-.036.111-.035.197-.068.191-.074a.861.861 0 0 0-.204.05c-.145.047-.197.054-.213.029-.028-.043-.289.041-.4.128l-.077.06.082-.048c.045-.026.145-.067.221-.092Zm.827-.07c.083-.024.147-.048.14-.054-.013-.013-.31.069-.31.085 0 .017.003.017.17-.031Zm.476-.15.114-.02-.1-.003a.381.381 0 0 0-.172.04c-.046.027-.052.035-.014.023.031-.011.109-.029.172-.04Zm.227-.052c.01-.014-.01-.018-.04-.01-.068.016-.076.035-.017.035.023 0 .049-.011.058-.025Zm.927.008c-.01-.009-.035-.01-.055-.002-.023.01-.017.016.017.017.03.001.047-.006.038-.015Zm-.172-.03a.246.246 0 0 0-.1 0c-.028.007-.005.013.05.013s.078-.006.05-.013Zm-.286-.028a1.497 1.497 0 0 0-.23 0c-.067.006-.019.01.107.01.127 0 .182-.004.123-.01Zm-.374-.024c-.01-.01-.034-.01-.055-.002-.023.009-.016.015.017.016.03.001.047-.005.038-.014Zm-.194 6.615c-.293-.201-.4-.305-.4-.385 0-.042.01-.076.021-.076.042 0 .53.489.52.52-.007.018-.066-.007-.141-.06Zm-.15-.51c-.152-.147-.201-.226-.14-.226.037 0 .32.31.32.35 0 .02-.004.035-.009.035-.004 0-.081-.072-.172-.16Zm1.678-.602c-.08-.031-.03-.089.1-.116.075-.015.194-.053.265-.083.07-.03.133-.05.14-.044.006.006-.026.067-.071.136-.082.124-.084.125-.24.123a.974.974 0 0 1-.194-.016Zm.86-.616c-.077-.03-.08-.08-.015-.254.055-.149.113-.178.08-.041l-.034.158-.013.069.057-.063a.443.443 0 0 0 .077-.213c.011-.082.031-.143.045-.135.036.021.032.239-.006.385-.034.128-.064.143-.19.094Zm-6.787-.346a.923.923 0 0 1-.017-.208c0-.12.01-.162.036-.154.043.013.067.406.026.406-.015 0-.035-.02-.045-.043Zm6.9-.643c-.045-.058-.058-.104-.046-.152.026-.1.094-.085.144.03.078.179.01.263-.098.122Zm-6.906-.437c-.002-.156 0-.161.072-.159.061.002.076.018.083.087.008.078-.08.233-.133.233-.01 0-.02-.073-.022-.161Zm7.434-3.384c.005-.246.048-.33.081-.157.024.12-.006.332-.052.369-.024.02-.032-.034-.029-.212Zm-3.768-.147c.011-.034.407-.189.48-.189.086 0-.068.1-.245.16-.198.068-.25.074-.235.029Z" opacity=".75"/><path fill="#FAFAFA" d="M7 13.994v3.249c0 .138.111.25.25.25h1.5a.25.25 0 0 0 .25-.25v-3.249H7Zm.5 2h1v.999h-1v-1Z"/><path fill="#FAFAFA" d="M8 1v1h1V1H8Zm0 1H7v1h1V2Zm0 1v.999h1v-1H8Zm0 .999H7v1h1v-1Zm0 1v.999h1v-1H8Zm0 .999H7v1h1v-1Zm0 1v.999h1v-1H8Zm0 .999H7v1h1v-1Zm0 1v.999h1v-1H8Zm0 .999H7v1h1v-1Zm0 1v1h1v-1H8Zm0 1H7v.999h1v-1Zm0 .999v1h1v-1H8Z"/><defs><radialGradient id="a" cx="0" cy="0" r="1" gradientTransform="rotate(116.565 8.441 5.908) scale(24.5967)" gradientUnits="userSpaceOnUse"><stop stop-color="#FA92A8"/><stop offset="1" stop-color="#E04F6D"/></radialGradient></defs></svg>