<svg xmlns="http://www.w3.org/2000/svg" width="24" height="24" fill="none"><rect width="22" height="22" x="1" y="1" fill="url(#a)" rx="6.6"/><path fill="#00C8FF" d="M5 6.189c0-.078.155-.134.244-.134C5.954 6.022 7.008 6 8.106 6c3.073 0 4.271 1.686 4.271 3.85 0 2.817-2.04 4.027-4.548 4.027-.421 0-.566-.023-.865-.023v4.26c0 .089-.033.133-.133.133H5.133c-.088 0-.133-.033-.133-.133V6.19Zm1.975 5.89c.255.022.455.022.898.022 1.298 0 2.519-.454 2.519-2.218 0-1.41-.877-2.119-2.352-2.119-.444 0-.866.022-1.065.033v4.282Zm9.54-1.32c-.876 0-1.176.444-1.176.81 0 .4.2.677 1.376 1.287 1.741.843 2.285 1.653 2.285 2.84 0 1.775-1.353 2.729-3.184 2.729-.965 0-1.797-.2-2.274-.477-.078-.034-.089-.089-.089-.178v-1.63c0-.111.056-.145.133-.09a4.118 4.118 0 0 0 2.23.655c.877 0 1.243-.366 1.243-.865 0-.4-.256-.754-1.376-1.331-1.575-.755-2.23-1.52-2.23-2.796 0-1.431 1.12-2.618 3.062-2.618.954 0 1.62.144 1.986.31.089.056.11.145.11.223v1.52c0 .088-.055.144-.166.11-.488-.31-1.209-.499-1.93-.499Z"/><defs><radialGradient id="a" cx="0" cy="0" r="1" gradientTransform="rotate(116.565 8.441 5.908) scale(24.5967)" gradientUnits="userSpaceOnUse"><stop stop-color="#767676"/><stop offset="1" stop-color="#262626"/></radialGradient></defs></svg>