<svg xmlns="http://www.w3.org/2000/svg" width="24" height="24" fill="none"><rect width="22" height="22" x="1" y="1" fill="url(#a)" rx="6.6"/><path fill="#fff" d="M13.91 5a.635.635 0 0 0-.637.636V6.91H5.636A.635.635 0 0 0 5 7.545v10.819c0 .352.284.636.636.636h10.819a.635.635 0 0 0 .636-.636v-2.546h1.273a.635.635 0 0 0 .636-.636V5.636A.635.635 0 0 0 18.364 5h-4.455Zm0 .636h4.454v9.546H17.09V7.545a.635.635 0 0 0-.637-.636c-.99-.389-2.584-.627-2.545-1.273ZM6.272 8.818h9.545v2.546H6.273V8.818Zm0 3.818h4.454v.637H6.273v-.637Zm5.09 0h4.455v.637h-4.454v-.637Zm-5.09 1.91h4.454v.636H6.273v-.636Zm5.09 0h4.455v.636h-4.454v-.636Zm-5.09 1.909h4.454v.636H6.273v-.637Zm5.09 0h4.455v.636h-4.454v-.637Z" opacity=".9"/><defs><radialGradient id="a" cx="0" cy="0" r="1" gradientTransform="rotate(116.565 8.441 5.908) scale(24.5967)" gradientUnits="userSpaceOnUse"><stop stop-color="#8FDD8F"/><stop offset="1" stop-color="#4FB84F"/></radialGradient></defs></svg>