<svg xmlns="http://www.w3.org/2000/svg" width="24" height="24" fill="none"><rect width="22" height="22" x="1" y="1" fill="url(#a)" rx="6.6"/><path fill="#fff" d="M14.405 5.003a4.593 4.593 0 0 0-4.594 4.59c0 .69.157 1.34.429 1.924l-.787.931-.068.872c-.007.007-.856.031-.856.031l-.437.316s.004.953 0 .94l-.001.001-.935.015-.395.452-.01.853s-.806-.053-.888.022a47.05 47.05 0 0 0-.863.814l.004 2.233h.438l5.949-5.948c.315.274.668.506 1.05.687v-.002a4.57 4.57 0 0 0 1.965.447A4.591 4.591 0 1 0 14.405 5m.877 2.187a1.53 1.53 0 1 1-.001 3.061 1.53 1.53 0 0 1 .001-3.061Z" opacity=".75"/><path fill="#fff" d="M15.282 7.19a1.532 1.532 0 1 0 0 3.064 1.532 1.532 0 0 0 0-3.063Zm0 .875a.656.656 0 1 1-.001 1.313.656.656 0 0 1 0-1.313Zm-3.892 4.987-5.951 5.95h2.187l5.195-5.103a4.6 4.6 0 0 1-1.431-.846" opacity=".5"/><defs><radialGradient id="a" cx="0" cy="0" r="1" gradientTransform="rotate(116.565 8.441 5.908) scale(24.5967)" gradientUnits="userSpaceOnUse"><stop stop-color="#8EE88E"/><stop offset="1" stop-color="#49C649"/></radialGradient></defs></svg>