<svg xmlns="http://www.w3.org/2000/svg" width="24" height="24" fill="none"><rect width="22" height="22" x="1" y="1" fill="url(#a)" rx="6.6"/><path fill="#fff" d="M15.33 4 3 5.563l.88 1.942 8.928-1.319 3.229 3.323 5.202-.911L15.33 4Zm-2.417 5.872L4.42 11.314l.827 2.17 4.62-.873 1.185 2.047 4.894-1.054-3.033-3.732Zm-2.78 6.858-4.2.92.805 2.35 4.534-1.146-1.14-2.124Z"/><path stroke="#fff" stroke-linecap="round" stroke-width=".629" d="M20.628 17.006a2.625 2.625 0 1 1-5.25 0 2.625 2.625 0 0 1 5.25 0Z" opacity=".2"/><path stroke="#fff" stroke-linecap="round" stroke-width=".629" d="M15.379 17.017a2.625 2.625 0 1 1 2.645 2.614"/><mask id="b" width="6" height="6" x="15" y="14" maskUnits="userSpaceOnUse" style="mask-type:luminance"><path fill="#fff" d="M21 17a3 3 0 1 1-6 0 3 3 0 0 1 6 0Z"/></mask><g mask="url(#b)"><path fill="#fff" d="m15.375 18.5-1.146-1.886H16.5L15.375 18.5Z"/></g><defs><radialGradient id="a" cx="0" cy="0" r="1" gradientTransform="rotate(116.565 8.441 5.908) scale(24.5967)" gradientUnits="userSpaceOnUse"><stop stop-color="#7DC6EE"/><stop offset="1" stop-color="#3297CF"/></radialGradient></defs></svg>