<svg xmlns="http://www.w3.org/2000/svg" width="24" height="24" fill="none"><rect width="22" height="22" x="1" y="1" fill="url(#a)" rx="6.6"/><path fill="#000" d="M12 19c2.485 0 4.5-.895 4.5-2 0-1.104-2.015-2-4.5-2s-4.5.896-4.5 2c0 1.105 2.015 2 4.5 2Z" opacity=".1"/><path fill="#000" d="M12 18c1.657 0 3-.448 3-1s-1.343-1-3-1-3 .448-3 1 1.343 1 3 1Z" opacity=".1"/><path fill="#fff" fill-rule="evenodd" d="M12 5a4.5 4.5 0 0 0-4.5 4.5c0 2.485 3 7.5 4.5 7.5s4.5-5.015 4.5-7.5A4.5 4.5 0 0 0 12 5Zm0 2a2.5 2.5 0 1 1 0 5 2.5 2.5 0 0 1 0-5Z" clip-rule="evenodd"/><defs><radialGradient id="a" cx="0" cy="0" r="1" gradientTransform="rotate(116.565 8.441 5.908) scale(24.5967)" gradientUnits="userSpaceOnUse"><stop stop-color="#AFDB7C"/><stop offset="1" stop-color="#77B430"/></radialGradient></defs></svg>