<svg xmlns="http://www.w3.org/2000/svg" width="24" height="24" fill="none"><rect width="22" height="22" x="1" y="1" fill="url(#a)" rx="6.6"/><path fill="#FAFAFA" d="M7 13.994v3.249c0 .138.111.25.25.25h1.5a.25.25 0 0 0 .25-.25v-3.249H7Zm.5 2h1v.999h-1v-1Z"/><path fill="#FAFAFA" d="M8 1v1h1V1H8Zm0 1H7v1h1V2Zm0 1v.999h1v-1H8Zm0 .999H7v1h1v-1Zm0 1v.999h1v-1H8Zm0 .999H7v1h1v-1Zm0 1v.999h1v-1H8Zm0 .999H7v1h1v-1Zm0 1v.999h1v-1H8Zm0 .999H7v1h1v-1Zm0 1v1h1v-1H8Zm0 1H7v.999h1v-1Zm0 .999v1h1v-1H8Z"/><g fill="#fff" opacity=".75"><path d="M16.25 9a4.25 4.25 0 1 0 0 8.5 4.25 4.25 0 0 0 0-8.5Zm0 .531a3.719 3.719 0 1 1 0 7.438 3.719 3.719 0 0 1 0-7.438Z"/><path d="M16.144 10.594a2.656 2.656 0 0 0-1.763.673l.377.377a2.125 2.125 0 0 1 1.386-.519 2.125 2.125 0 0 1 2.125 2.125h.531a2.657 2.657 0 0 0-2.656-2.656Zm-2.404 1.535a2.657 2.657 0 0 0-.252 1.121h.53c.001-.244.044-.486.127-.716l-.405-.405Z"/><path d="m16.858 11.744-1.14 2.645a.637.637 0 0 0-.148.31l-.004.008h.003c-.047.298.118.577.382.644.265.066.543-.101.642-.387l.004.001v-.015l.013-.04a.648.648 0 0 0 .003-.293l.245-2.873Z"/></g><defs><radialGradient id="a" cx="0" cy="0" r="1" gradientTransform="rotate(116.565 8.441 5.908) scale(24.5967)" gradientUnits="userSpaceOnUse"><stop stop-color="#FEA4A1"/><stop offset="1" stop-color="#E46864"/></radialGradient></defs></svg>