<svg xmlns="http://www.w3.org/2000/svg" width="24" height="24" fill="none"><rect width="22" height="22" x="1" y="1" fill="url(#a)" rx="6.6"/><path fill="#FAFAFA" d="M7.05 15.3v3.575c0 .152.123.275.275.275h1.65a.274.274 0 0 0 .275-.275V15.3h-2.2Zm.55 2.2h1.1v1.1H7.6v-1.1ZM8.15 1v1.1h1.1V1h-1.1Zm0 1.1h-1.1v1.1h1.1V2.1Zm0 1.1v1.1h1.1V3.2h-1.1Zm0 1.1h-1.1v1.1h1.1V4.3Zm0 1.1v1.1h1.1V5.4h-1.1Zm0 1.1h-1.1v1.1h1.1V6.5Zm0 1.1v1.1h1.1V7.6h-1.1Zm0 1.1h-1.1v1.1h1.1V8.7Zm0 1.1v1.1h1.1V9.8h-1.1Zm0 1.1h-1.1V12h1.1v-1.1Zm0 1.1v1.1h1.1V12h-1.1Zm0 1.1h-1.1v1.1h1.1v-1.1Zm0 1.1v1.1h1.1v-1.1h-1.1Z"/><path fill="#fff" d="M15.748 11.002a6.982 6.982 0 0 0-.786.047c-.87.132-1.565.437-2.014.881a1.79 1.79 0 0 0-.488.837c-.052.203-.07.669-.015.848.183.627.615 1.108 1.43 1.593.347.204.615.339 1.385.686.924.415 1.205.583 1.337.791.051.085.07.128.063.23-.014.16-.095.24-.283.309-.127.044-.17.058-.41.058-.435-.005-.82-.086-1.352-.276a4.925 4.925 0 0 1-1.053-.516c-.308-.201-.333-.21-.425-.16-.07.038-.572.485-.943.848-.242.236-.245.284-.079.447.165.163.628.506.882.653.274.162.459.253.77.367.52.193.958.273 1.776.343.186.015.852.017 1.085 0 1.282-.103 2.327-.521 2.877-1.134.198-.218.317-.404.41-.665.09-.253.114-.752.046-1.054-.11-.49-.405-.933-.88-1.306-.477-.374-.96-.623-2.122-1.088-.812-.323-1.117-.496-1.196-.676-.043-.096-.017-.267.047-.332.127-.13.374-.176.693-.138.593.074 1.356.346 2.028.721.13.072.256.133.282.139.11.028.175-.015.614-.517.539-.616.533-.592.236-.802-.883-.633-1.907-1-3.081-1.11a8.198 8.198 0 0 0-.834-.024Z" opacity=".75"/><defs><radialGradient id="a" cx="0" cy="0" r="1" gradientTransform="rotate(116.565 8.441 5.908) scale(24.5967)" gradientUnits="userSpaceOnUse"><stop stop-color="#FFA685"/><stop offset="1" stop-color="#E66A3C"/></radialGradient></defs></svg>