<svg xmlns="http://www.w3.org/2000/svg" width="24" height="24" fill="none"><rect width="22" height="22" x="1" y="1" fill="url(#a)" rx="6.6"/><path fill="#fff" d="M4.727 4A.726.726 0 0 0 4 4.727v14.546c0 .403.324.727.727.727h14.546a.726.726 0 0 0 .727-.727V4.727A.726.726 0 0 0 19.273 4H4.727Zm0 .727h14.546v14.546H4.727V4.727ZM16 5.818l-1.818 1.818h-4.4a1.818 1.818 0 1 0-3.189 1.512c.265.324.634.547 1.044.63v6.582h2.909v1.455h3.636V16.36h2.182V9.815l1.818-1.818L16 5.818Zm0 .872L17.31 8 16 9.31l-1.09-1.091V7.78L16 6.691ZM8 6.91A1.09 1.09 0 1 1 8 9.09a1.09 1.09 0 0 1 0-2.182Zm1.778 1.454h4.4l1.455 1.455v5.818h-1.455v-1.454h-3.636v1.454H8.36V9.782a1.818 1.818 0 0 0 1.415-1.418m1.494 6.545h2.182v2.182H11.27V14.91Z" opacity=".75"/><defs><radialGradient id="a" cx="0" cy="0" r="1" gradientTransform="rotate(116.565 8.441 5.908) scale(24.5967)" gradientUnits="userSpaceOnUse"><stop stop-color="#8192C4"/><stop offset="1" stop-color="#374F95"/></radialGradient></defs></svg>