<svg xmlns="http://www.w3.org/2000/svg" width="24" height="24" fill="none"><rect width="22" height="22" x="1" y="1" fill="url(#a)" rx="6.6"/><path fill="#fff" fill-rule="evenodd" d="M12.09 4C10.727 9.09 7 12.098 7 14.91a5.09 5.09 0 0 0 10.182 0c0-2.813-3.727-5.82-5.091-10.91Zm3.5 8.311c.56.751.863 1.662.864 2.598a4.364 4.364 0 0 1-4.363 4.364 4.363 4.363 0 0 1-2.594-.86c.374.086.756.131 1.14.133a5.09 5.09 0 0 0 5.09-5.091 5.09 5.09 0 0 0-.136-1.144Z" clip-rule="evenodd" opacity=".9"/><defs><radialGradient id="a" cx="0" cy="0" r="1" gradientTransform="rotate(116.565 8.441 5.908) scale(24.5967)" gradientUnits="userSpaceOnUse"><stop stop-color="#FCE495"/><stop offset="1" stop-color="#E1C153"/></radialGradient></defs></svg>