<svg xmlns="http://www.w3.org/2000/svg" width="24" height="24" fill="none"><rect width="22" height="22" x="1" y="1" fill="url(#a)" rx="6.6"/><path fill="#FAFAFA" d="m7.618 15.16-.978 3.716c-.025.1-.062.124-.186.124H4.633c-.124 0-.15-.037-.124-.186L8.027 6.5c.062-.223.1-.421.124-1.028 0-.087.037-.124.1-.124h2.601c.087 0 .124.025.149.124l3.94 13.368c.024.099 0 .161-.1.161h-2.056c-.1 0-.161-.025-.186-.111l-1.028-3.73H7.618Zm3.445-2.008c-.347-1.375-1.165-4.373-1.475-5.823h-.024c-.26 1.45-.917 3.903-1.438 5.823h2.937Zm5.575-6.888c0-.793.558-1.264 1.264-1.264.755 0 1.264.508 1.264 1.264 0 .817-.533 1.263-1.289 1.263-.719 0-1.239-.446-1.239-1.263Zm.149 2.812c0-.099.037-.149.148-.149h1.946c.099 0 .148.038.148.15v9.774c0 .1-.025.149-.148.149h-1.92c-.125 0-.162-.062-.162-.161V9.076h-.012Z"/><defs><radialGradient id="a" cx="0" cy="0" r="1" gradientTransform="rotate(116.565 8.441 5.908) scale(24.5967)" gradientUnits="userSpaceOnUse"><stop stop-color="#FC7A00"/><stop offset="1" stop-color="#391E04"/></radialGradient></defs></svg>