<svg xmlns="http://www.w3.org/2000/svg" width="24" height="24" fill="none"><rect width="22" height="22" x="1" y="1" fill="url(#a)" rx="6.6"/><path fill="#fff" fill-rule="evenodd" d="M1 10.015v1.384c.789 2.093.759 1.673 0-1.384Zm.56 9.048a6.565 6.565 0 0 1-.167-.414 7.249 7.249 0 0 0 1.045-.07l-.303-.882.607.46c.084-.074.177-.14.276-.194-1.32-4.345-1.558-5.254.4-.154 1.354-1.852 1.734-6.923 1.753-9.384a12.75 12.75 0 0 1-.108-.005c-.097-.005-.193-.01-.293-.009-1.481.01-2.651.209-3.77.79V7.733C2.2 7.249 3.48 7 4.77 7h.002c5.645 0 10.185 4.622 10.185 10.25a10.284 10.284 0 0 1-1.711 5.669l-.124.081h-1.648a5.34 5.34 0 0 0 .24-.331l-1.117-.838c-1.334-.81-2.6-1.185-3.878-1.563-.679-.2-1.36-.402-2.058-.67a.935.935 0 0 1-.094.194c.105.234.24.399.373.562.08.097.159.194.232.305-.11-.077-.204-.147-.29-.21-.26-.193-.45-.333-.745-.448-.04.79.172 1.53.43 2.262a6.596 6.596 0 0 1-.903-.565 10.615 10.615 0 0 1 .058-1.612 1.364 1.364 0 0 1-.297-.005l-.047-.005a6.056 6.056 0 0 0-.622.807 6.897 6.897 0 0 1-.164-.184l.495-.679a.962.962 0 0 1-.33-.181 6.22 6.22 0 0 1-.606.286 6.596 6.596 0 0 1-.203-.315l.615-.252a4.168 4.168 0 0 0-.016-.032.88.88 0 0 1-.094-.233 1.618 1.618 0 0 0-.894-.23Zm11.825-4.006c-.638-3.135-3.576-5.81-6.943-6.48-.968 1.294-1.274 3.52-1.553 5.556-.213 1.551-.411 2.993-.876 3.829.152.093.283.217.387.363 1.033-.039 1.913-.378 2.834-.733.654-.252 1.329-.512 2.094-.678.964-.308 3.621-1.165 3.905-1.661l.152-.196Zm-.26.866h-.002c-.738.237-1.493.453-2.251.67-2.113.603-4.25 1.214-6.126 2.304 1.084.722 2.435 1.203 3.703 1.655.814.29 1.593.567 2.245.888l1.463.487c.688-1.352 1.02-3.005 1.282-4.677.051-.316.084-.623.084-.937l-.399-.39Z" clip-rule="evenodd"/><defs><radialGradient id="a" cx="0" cy="0" r="1" gradientTransform="rotate(116.565 8.441 5.908) scale(24.5967)" gradientUnits="userSpaceOnUse"><stop stop-color="#FFB278"/><stop offset="1" stop-color="#E67B2B"/></radialGradient></defs></svg>