<svg xmlns="http://www.w3.org/2000/svg" width="24" height="24" fill="none"><rect width="22" height="22" x="1" y="1" fill="url(#a)" rx="6.6"/><path fill="#fff" d="M12 5c-3.878 0-7 3.122-7 7s3.122 7 7 7 7-3.122 7-7-3.122-7-7-7Zm0 .636c1.058 0 2.05.26 2.926.712a.392.392 0 0 1 0 .072c.037.017.058.086.12.12.023.013.039.018.06.03.037.02.068.054.06.09-.01.052-.084.05-.12.088.005.074-.04.07-.06.12.012.032.055.022.06.06-.006.04-.075.047-.06.089.07.053.144.009.21 0 .142-.018.268.009.356-.06-.011-.068.098-.088.09-.15-.006-.045-.085-.056-.12-.088-.007-.007-.018-.024-.026-.038.105.068.206.143.306.219-.025.02-.045.045-.071.057-.027.011-.066.014-.09.03-.035.024-.049.061-.09.088-.029.02-.118.09-.148.09-.037 0-.093-.038-.12-.029-.038.012-.016.073-.06.089-.084.03-.24-.066-.268.06.035.072.145.05.208.09.04.025.11.135.12.178.01.036.015.17 0 .209-.04.102-.151.092-.268.09-.032 0-.061.002-.09 0-.198-.013-.387-.082-.476.06.006.108.024.174 0 .268-.018.069-.094.119-.09.179.001.03.052.077.06.12.005.022-.01.069 0 .09.033.061.12-.011.179 0 .056.008.12.086.12.148a.447.447 0 0 1-.061.179c-.056.084-.159.074-.239.12-.066.038-.08.113-.12.18-.041.07-.076.106-.06.208a.467.467 0 0 1-.24.239c-.034.015-.087.037-.119.06a.583.583 0 0 0-.09.09c-.044.05-.095.08-.12.12-.017.028-.01.08-.03.119-.027.053-.083.095-.119.149-.016.025-.042.056-.06.09-.04.073-.097.143-.09.208.007.063.087.065.09.12.004.03-.03.055-.03.088.002.049.027.082.03.12.01.095-.042.114-.06.18-.008.03.008.065 0 .089-.015.047-.088.092-.09.148 0 .04.057.064.06.12.003.038-.035.084-.028.12.014.068.155.155.209.208.072.073.147.133.179.209.026.065.04.16.09.209.036.035.101.051.148.088.045.034.1.053.148.09.078.061.175.188.298.179.065-.005.136-.047.21-.06.074-.013.161-.036.238-.029.058.007.119.033.18.029a.644.644 0 0 0 .209-.06c.126-.055.322-.146.506-.12.14.02.141.177.24.24.111.01.207-.022.297 0 .067.016.142.126.148.18.007.054-.052.112-.06.147-.017.074-.017.162-.03.209-.01.037-.03.082-.028.12 0 .032.055.105.09.148.042.054.096.09.147.149.093.107.144.246.21.387.016.036-.016.046 0 .09-.029.214-.1.36-.24.597-.066.076-.15.173-.148.269-.005.229.129.344.12.566-.024.297-.006.348-.03.507.101.05.059.191.03.297-.044.126-.096.156-.12.24a.39.39 0 0 0 .253.003 6.338 6.338 0 0 1-6.857 1.609c-.025-.01-.053-.016-.078-.03a.126.126 0 0 1-.06-.12c.066-.028.192.063.24-.03.024-.044-.032-.134 0-.179.023-.03.162-.052.209-.06.067-.01.14-.005.178-.03a.208.208 0 0 0 .09-.178c-.004-.037-.03-.057-.06-.09-.024-.028-.013-.063-.03-.088-.03-.045-.077-.055-.09-.12.092-.018.227.097.359.06.062-.018.15-.15.179-.209.009-.018-.01-.068 0-.09.011-.024.057-.047.06-.06.01-.034-.007-.038 0-.06.024-.064.082-.101.12-.148.03-.036.063-.083.09-.12.03-.04.04-.055.06-.09.02-.115-.058-.195-.03-.297.03-.114.188-.188.299-.24.038-.018.088-.048.12-.06.076-.026.167-.034.238-.06.12-.043.15-.158.209-.268a.542.542 0 0 0 .06-.149c.006-.033-.006-.05 0-.088.007-.038.02-.079.03-.12a.993.993 0 0 0 .03-.208c0-.05-.03-.074-.03-.12-.01-.166.058-.178.119-.269.03-.044.038-.116.06-.147.103-.153.281-.217.268-.449-.005-.076-.032-.244-.088-.269-.032-.014-.102-.01-.149-.028-.15-.056-.26-.227-.418-.24h-.09c-.06-.001-.138-.052-.207-.06-.043-.005-.123.013-.149 0-.039-.019-.027-.098-.06-.12-.025-.017-.08-.015-.12-.03-.062-.024-.106-.054-.178-.06-.023 0-.065.005-.09 0-.04-.006-.083-.036-.12-.06-.046-.027-.07-.048-.09-.088.043-.137-.091-.16-.12-.24-.012-.036.014-.086 0-.12-.016-.046-.067-.08-.119-.119-.091-.071-.167-.132-.298-.149-.059-.006-.139.005-.209 0a.334.334 0 0 1-.209-.12c-.053-.062-.072-.119-.12-.148-.044-.028-.118-.03-.148-.06-.014-.013-.016-.03-.029-.06-.023-.046-.058-.064-.03-.12-.05-.025-.034.04-.088.03-.05-.07-.097-.112-.209-.09-.05.01-.09.089-.149.09-.05.001-.084-.081-.149-.09-.05-.006-.114.038-.149.03-.054-.01-.07-.057-.12-.09-.036-.024-.099-.09-.119-.088-.064.001-.12.135-.209.088-.043-.055.08-.069.029-.12-.038-.037-.058.01-.089.03a.553.553 0 0 1-.12.06c-.087.034-.14.025-.208.06-.064.033-.083.084-.12.15-.03.053-.075.144-.12.147-.053.003-.1-.068-.149-.089-.146-.063-.236.028-.357.029-.112.001-.273-.163-.268-.269.004-.065.052-.158.06-.238.006-.064.058-.122.06-.18 0-.078-.13-.14-.18-.148-.12-.022-.28.053-.417 0-.025-.043.045-.078.06-.12.009-.024-.009-.033 0-.06.015-.04.07-.076.088-.12.014-.033.016-.079.03-.12.017-.045.056-.086.06-.119.005-.043-.025-.092-.06-.12-.105.006-.179.002-.24.03-.137.062-.1.255-.238.298-.047.015-.126.02-.18.029-.023.004-.049.008-.075.014.09-.462.227-.906.41-1.326.03 0 .062-.004.083 0 .048.01.078.056.12.06.117.009.142-.098.239-.149.099.014.15-.01.24 0 .06.006.13.086.178.09.041.001.052-.036.09-.03.038.006.113.074.12.12.006.057-.047.116-.03.18.06.06.183.084.268.12.056-.047.01-.143 0-.21 0-.029.004-.062 0-.09-.006-.045-.028-.08-.028-.119 0-.182.146-.257.268-.328.052-.03.103-.097.15-.12.064-.032.095-.03.148-.06.097-.054.194-.117.269-.18.034-.082-.004-.187 0-.268.034-.022.051.004.088 0 .059-.013.087-.087.12-.12.02-.019.066-.04.089-.06.058-.046.069-.099.12-.12.017-.006.061-.022.09-.03.037-.01.087-.037.148-.06.04-.013.134-.012.149-.028.02-.019-.005-.09 0-.12.03-.144.259-.16.388-.207.089-.035.169-.11.268-.09-.019.069-.106.066-.09.149.022.116.168-.044.21-.06.077-.033.226-.053.328-.09.088-.032.232-.076.148-.179-.07-.005-.088.063-.149.089-.041.006-.052-.026-.088-.029-.034-.001-.055.035-.09.029-.034-.007-.084-.08-.09-.12-.013-.107.106-.13.15-.209-.03-.096-.158-.021-.24-.06a.143.143 0 0 1 .12-.119c.055-.009.176.002.21.029.018.016-.002.063.028.09.033.029.077.006.12 0 .015-.073-.102-.043-.09-.09.087-.056.253-.015.359-.029.06-.009.124-.06.178-.09.051-.029.096-.077.15-.028.015.052-.031.093-.06.12-.098.086-.193.167-.269.268.047.046.13.02.209.028.03.004.056.025.088.03.038.007.09-.006.12 0 .054.013.067.09.12.09.087 0 .078-.09.029-.149.015-.06.051-.107.03-.149-.04-.079-.201.011-.21-.09-.004-.063.068-.07.09-.12-.01-.121.102-.127.09-.238-.007-.046-.057-.046-.09-.09-.016-.022-.01-.073-.03-.09-.066-.055-.2-.04-.208-.147-.004-.063.009-.111 0-.18-.009-.065-.064-.256-.12-.268-.07-.016-.123.109-.208.148a.367.367 0 0 1-.18.03c-.03-.006-.085-.03-.089-.09-.006-.067.047-.077.06-.148a6.407 6.407 0 0 1 1.723-.241m-2.565.54c-.018.26-.252.396-.527.39-.058.055-.028.16-.06.238-.026.065-.114.125-.179.12-.047-.004-.12-.076-.12-.12 0-.055.077-.085.03-.148.001-.013.019-.026.032-.04.263-.165.536-.315.824-.44Zm5.312.303c-.023.004-.036.016-.057.028-.048.03-.053.076-.09.09-.052.02-.112.013-.12.06-.006.04.032.053.03.088-.018.047-.049.063-.06.12.066.106.218-.006.298-.029.036-.01.07-.002.09-.03.021-.034.012-.099.028-.147.018-.054.066-.043.06-.09-.005-.047-.1-.098-.179-.09Zm-6.966.76c.062.031.166.175.047.225a.984.984 0 0 1-.209.03c-.024-.005-.045-.027-.066-.05.073-.07.152-.138.228-.205Zm.225.284c.03.001.054.057.09.06.034.002.069-.036.09-.03.053.014.079.11.028.149-.042.005-.058-.035-.089-.029-.086.015-.115.184-.18.179-.06-.006-.09-.134-.028-.179 0-.038-.033-.051-.03-.09.019-.024.068-.063.12-.06h-.001Zm-.297.03c.017 0 .022-.008.028 0-.009.067-.036.088-.088.12a.361.361 0 0 0-.18.239c-.01.034-.105.128-.148.12-.1-.022.037-.21.06-.24.025-.031.059-.053.088-.089.03-.036.032-.1.06-.12a.405.405 0 0 1 .18-.03Zm9.004.17c.04.045.082.088.12.133-.04-.047-.105-.064-.12-.133Zm-.389.013c.1-.006.163.118.209.179.038.05.146.115.209.149.035.019.08.042.12.06.082.037.234.157.238.238.001.041-.035.082-.029.12.063.01.118-.086.12-.148a.056.056 0 0 0-.012-.034c.18.252.343.517.485.794-.055.017-.104.043-.113.098-.012.071.047.166-.06.179-.067.009-.147-.07-.24-.09-.038-.009-.089.01-.12 0-.07-.024-.059-.105-.119-.147a.518.518 0 0 0-.18-.06c-.034-.004-.053.005-.088 0-.044-.005-.114-.008-.15-.03-.034-.022-.11-.06-.119-.09-.014-.047.086-.108.088-.147.003-.031-.022-.044-.028-.09-.005-.028.006-.072 0-.09-.009-.033-.068-.058-.12-.06-.046 0-.08.03-.12.03-.056.001-.169-.036-.239-.03-.042.004-.08.028-.12.03-.11.01-.182-.006-.268 0a.877.877 0 0 0-.24.06c-.028.014-.05.04-.089.06a1.382 1.382 0 0 1-.06.028c-.035.017-.085.053-.12.062-.049.012-.118-.004-.208 0-.065.003-.177-.013-.179-.09-.001-.119.216-.07.329-.09.042-.009.068-.06.12-.088.023-.014.036-.015.059-.03.038-.027.113-.09.12-.12.005-.028-.033-.07-.029-.09.005-.026.054-.054.088-.088.054-.054.083-.115.15-.149.044-.024.128-.024.148-.06.005-.04-.001-.053 0-.09.028-.025.037-.054.06-.06.069-.015.129.033.209.03a.236.236 0 0 0 .12-.03c.03-.02.059-.044.09-.06.032-.017.048-.056.089-.059m-7.964.061h.092c.031 0 .075-.013.088 0-.02.084-.202.06-.269.029.004-.032.05-.025.09-.029m8.473.061.11.127c-.007-.003-.015-.005-.02-.01-.036-.027-.055-.074-.09-.117ZM8.06 7.94c.021 0 .038-.009.06 0a.681.681 0 0 1-.24.12c-.048.015-.11.023-.119-.03-.01-.066.047-.054.09-.06.056-.006.142-.027.207-.029l.002-.001Zm8.292.001c-.043.014-.063.108 0 .12.029-.018.037-.066.03-.12-.017-.018-.018-.005-.03 0Zm-.03.18c-.02.005-.037.005-.059.028.001.071.014.117 0 .18.04.079.127.023.148-.03.024-.132-.027-.195-.088-.179Zm.566.357c-.056-.003-.115.002-.148.028.047.077.133.1.239.12.038-.028.042-.1.06-.148-.046 0-.093.003-.15 0h-.001Zm-11.182 2.62c.072.066.121.175.207.217.032.017.08.021.12.03.033.006.058.019.09.029.067.023.155.037.208.06.082.037.139.168.209.208.004.041-.013.09 0 .12.033.045.095.06.149.09.065.035.086.12.148.148.021.009.056-.01.09 0 .083.025.107.14.18.12.046-.014.052-.074.06-.12.031-.034.07-.09.119-.09.079-.001.09.103.12.18.016.044.048.074.06.12.018.079.016.311 0 .358-.021.059-.101.084-.15.148-.023.03-.042.07-.06.09-.03.038-.065.055-.088.09-.013.018-.018.061-.03.088-.038.081-.091.142-.06.24.013.04.06.072.06.12 0 .055-.11.087-.12.148-.006.045.046.12.06.18.01.044.093.09.12.119.045.05.08.116.12.18.08.123.129.267.208.387.042.063.12.113.149.18.014.032-.013.088 0 .119.045.103.255.217.358.268.048.024.104.036.149.061.067.039.204.12.238.18.031.053.045.182.06.268.02.112-.005.207 0 .328.004.066.03.113.03.179v.09c-.001.079.007.158 0 .238a.757.757 0 0 0 0 .12c.004.04.026.055.029.09.002.036-.033.09-.029.12.01.08.075.133.09.207.013.058.036.198.029.268-.006.037-.024.08-.03.12-.003.033.006.06 0 .09a.455.455 0 0 1-.018.076 6.342 6.342 0 0 1-2.944-5.366c0-.304.029-.602.07-.894m2.475.697c.062-.028.05.082 0 .09-.047.006-.045-.068 0-.09Z"/><defs><radialGradient id="a" cx="0" cy="0" r="1" gradientTransform="rotate(116.565 8.441 5.908) scale(24.5967)" gradientUnits="userSpaceOnUse"><stop stop-color="#6DC9F8"/><stop offset="1" stop-color="#1C9BDD"/></radialGradient></defs></svg>