<?xml version="1.0" encoding="UTF-8"?>
<!DOCTYPE svg PUBLIC "-//W3C//DTD SVG 1.1//EN" "http://www.w3.org/Graphics/SVG/1.1/DTD/svg11.dtd">
<svg xmlns="http://www.w3.org/2000/svg" version="1.1" width="1024px" height="1024px" style="shape-rendering:geometricPrecision; text-rendering:geometricPrecision; image-rendering:optimizeQuality; fill-rule:evenodd; clip-rule:evenodd" xmlns:xlink="http://www.w3.org/1999/xlink">
<g><path style="opacity:1" fill="#f9f9f9" d="M 905.5,148.5 C 905.427,150.027 906.094,151.027 907.5,151.5C 932.227,183.14 946.727,219.14 951,259.5C 952.444,421.831 952.777,584.164 952,746.5C 948.236,824.902 913.069,884.402 846.5,925C 823.393,937.925 798.726,946.258 772.5,950C 601.853,951.655 431.186,951.988 260.5,951C 199.119,944.403 149.619,916.903 112,868.5C 91.3026,839.752 78.3026,807.752 73,772.5C 71.3449,595.853 71.0116,419.186 72,242.5C 77.9691,219.926 86.3024,198.26 97,177.5C 106.112,161.227 117.279,146.561 130.5,133.5C 134.436,131.234 137.769,128.234 140.5,124.5C 174.409,93.7262 214.409,76.2262 260.5,72C 428.167,71.3333 595.833,71.3333 763.5,72C 821.347,78.417 868.68,103.917 905.5,148.5 Z"/></g>
<g><path style="opacity:1" fill="#acacac" d="M 140.5,124.5 C 137.769,128.234 134.436,131.234 130.5,133.5C 133.231,129.766 136.564,126.766 140.5,124.5 Z"/></g>
<g><path style="opacity:1" fill="#8b8b8b" d="M 905.5,148.5 C 906.906,148.973 907.573,149.973 907.5,151.5C 906.094,151.027 905.427,150.027 905.5,148.5 Z"/></g>
<g><path style="opacity:1" fill="#f1a5b8" d="M 726.5,189.5 C 730.319,188.834 734.319,188.501 738.5,188.5C 744.098,188.276 749.431,188.943 754.5,190.5C 745.195,189.646 735.861,189.313 726.5,189.5 Z"/></g>
<g><path style="opacity:1" fill="#eb577a" d="M 726.5,189.5 C 735.861,189.313 745.195,189.646 754.5,190.5C 757.776,192.947 760.61,195.947 763,199.5C 764.784,206.378 765.784,213.378 766,220.5C 766.667,373.167 766.667,525.833 766,678.5C 765.156,689.213 763.99,699.88 762.5,710.5C 760.656,712.279 759.99,714.612 760.5,717.5C 756.411,732.287 749.578,745.62 740,757.5C 735.254,760.24 731.088,763.74 727.5,768C 721.175,770.495 714.842,772.995 708.5,775.5C 706.218,776.223 703.884,776.557 701.5,776.5C 694.766,777.721 688.099,778.721 681.5,779.5C 649.953,783.747 622.786,775.08 600,753.5C 586.314,737.159 579.48,718.159 579.5,696.5C 578.778,668.971 588.612,646.305 609,628.5C 618.353,622.128 628.52,617.795 639.5,615.5C 649.486,614.834 659.486,614.501 669.5,614.5C 676.392,615.426 683.392,616.593 690.5,618C 692.175,618.985 693.842,619.819 695.5,620.5C 697.438,622.163 699.772,622.829 702.5,622.5C 712.317,627.909 721.984,633.575 731.5,639.5C 732.666,540.668 732.832,441.668 732,342.5C 731.809,340.292 731.309,338.292 730.5,336.5C 729.137,331.433 725.804,328.1 720.5,326.5C 715.363,325.883 710.196,325.55 705,325.5C 688.768,326.451 672.602,328.117 656.5,330.5C 634.672,334.051 613.005,337.718 591.5,341.5C 585.274,341.388 579.274,342.054 573.5,343.5C 570.833,344.167 568.167,344.833 565.5,345.5C 559.274,345.388 553.274,346.054 547.5,347.5C 530.164,350.5 512.831,353.5 495.5,356.5C 490.29,356.608 485.29,357.275 480.5,358.5C 471.801,361.016 463.134,363.849 454.5,367C 450.859,370.126 447.859,373.626 445.5,377.5C 443.772,383.238 443.105,389.238 443.5,395.5C 442.831,511.736 442.165,628.069 441.5,744.5C 440.704,755.944 438.371,766.944 434.5,777.5C 432.992,781.357 431.659,785.357 430.5,789.5C 420.334,809.906 404.334,823.239 382.5,829.5C 377.63,829.69 372.964,830.356 368.5,831.5C 342.59,836.25 317.923,832.583 294.5,820.5C 275.463,808.464 263.463,791.464 258.5,769.5C 259.036,766.302 258.369,763.635 256.5,761.5C 256.5,753.5 256.5,745.5 256.5,737.5C 258.388,735.012 259.055,732.012 258.5,728.5C 261.838,714.669 267.672,702.002 276,690.5C 292.542,673.921 312.709,666.255 336.5,667.5C 363.215,667.282 386.548,675.616 406.5,692.5C 407.568,693.434 408.901,693.768 410.5,693.5C 410.5,550.5 410.5,407.5 410.5,264.5C 410.371,255.878 413.704,249.045 420.5,244C 424.123,241.459 427.957,239.292 432,237.5C 443.266,234.421 454.433,231.421 465.5,228.5C 471.712,228.477 477.712,227.81 483.5,226.5C 528.262,220.143 572.928,213.143 617.5,205.5C 623.726,205.612 629.726,204.946 635.5,203.5C 644.699,202.475 653.699,200.808 662.5,198.5C 668.712,198.477 674.712,197.81 680.5,196.5C 695.707,193.349 711.04,191.016 726.5,189.5 Z"/></g>
<g><path style="opacity:1" fill="#f5c2ce" d="M 680.5,196.5 C 674.712,197.81 668.712,198.477 662.5,198.5C 668.274,197.054 674.274,196.388 680.5,196.5 Z"/></g>
<g><path style="opacity:1" fill="#f4b5c3" d="M 635.5,203.5 C 629.726,204.946 623.726,205.612 617.5,205.5C 623.288,204.19 629.288,203.523 635.5,203.5 Z"/></g>
<g><path style="opacity:1" fill="#f6cdd6" d="M 483.5,226.5 C 477.712,227.81 471.712,228.477 465.5,228.5C 471.274,227.054 477.274,226.388 483.5,226.5 Z"/></g>
<g><path style="opacity:1" fill="#ef809a" d="M 410.5,264.5 C 410.5,407.5 410.5,550.5 410.5,693.5C 408.901,693.768 407.568,693.434 406.5,692.5C 407.5,692.5 408.5,692.5 409.5,692.5C 409.167,549.666 409.5,406.999 410.5,264.5 Z"/></g>
<g><path style="opacity:1" fill="#f29bae" d="M 591.5,341.5 C 585.712,342.81 579.712,343.477 573.5,343.5C 579.274,342.054 585.274,341.388 591.5,341.5 Z"/></g>
<g><path style="opacity:1" fill="#f5cfd8" d="M 730.5,336.5 C 731.309,338.292 731.809,340.292 732,342.5C 732.832,441.668 732.666,540.668 731.5,639.5C 731.818,538.487 731.484,437.487 730.5,336.5 Z"/></g>
<g><path style="opacity:1" fill="#f08da4" d="M 565.5,345.5 C 559.712,346.81 553.712,347.477 547.5,347.5C 553.274,346.054 559.274,345.388 565.5,345.5 Z"/></g>
<g><path style="opacity:1" fill="#f196ab" d="M 495.5,356.5 C 490.75,358.031 485.75,358.698 480.5,358.5C 485.29,357.275 490.29,356.608 495.5,356.5 Z"/></g>
<g><path style="opacity:1" fill="#f4b5c4" d="M 445.5,377.5 C 445.156,383.678 444.489,389.678 443.5,395.5C 443.105,389.238 443.772,383.238 445.5,377.5 Z"/></g>
<g><path style="opacity:1" fill="#f8e5ea" d="M 443.5,395.5 C 444.165,512.171 443.498,628.505 441.5,744.5C 442.165,628.069 442.831,511.736 443.5,395.5 Z"/></g>
<g><path style="opacity:1" fill="#f19fb2" d="M 669.5,614.5 C 659.486,614.501 649.486,614.834 639.5,615.5C 649.457,613.454 659.457,613.121 669.5,614.5 Z"/></g>
<g><path style="opacity:1" fill="#f2a1b3" d="M 695.5,620.5 C 698.067,620.721 700.401,621.388 702.5,622.5C 699.772,622.829 697.438,622.163 695.5,620.5 Z"/></g>
<g><path style="opacity:1" fill="#f2aabc" d="M 762.5,710.5 C 761.935,712.952 761.268,715.285 760.5,717.5C 759.99,714.612 760.656,712.279 762.5,710.5 Z"/></g>
<g><path style="opacity:1" fill="#f19aaf" d="M 258.5,728.5 C 259.055,732.012 258.388,735.012 256.5,737.5C 257.088,734.39 257.755,731.39 258.5,728.5 Z"/></g>
<g><path style="opacity:1" fill="#f199ad" d="M 256.5,761.5 C 258.369,763.635 259.036,766.302 258.5,769.5C 257.745,766.947 257.078,764.28 256.5,761.5 Z"/></g>
<g><path style="opacity:1" fill="#f1a0b3" d="M 701.5,776.5 C 700.848,777.725 699.681,778.392 698,778.5C 692.529,779.318 687.029,779.652 681.5,779.5C 688.099,778.721 694.766,777.721 701.5,776.5 Z"/></g>
<g><path style="opacity:1" fill="#f7cbd5" d="M 434.5,777.5 C 434.453,780.568 433.953,783.568 433,786.5C 432.764,788.119 431.931,789.119 430.5,789.5C 431.659,785.357 432.992,781.357 434.5,777.5 Z"/></g>
<g><path style="opacity:1" fill="#f3aabb" d="M 382.5,829.5 C 378.1,831.104 373.434,831.771 368.5,831.5C 372.964,830.356 377.63,829.69 382.5,829.5 Z"/></g>
</svg>
