<svg xmlns="http://www.w3.org/2000/svg" width="24" height="24" fill="none"><rect width="22" height="22" x="1" y="1" fill="url(#a)" rx="6.6"/><path fill="#000" fill-opacity=".875" fill-rule="evenodd" d="m11.718 6.147 3.394-.634A.75.75 0 0 1 16 6.25v2.241a.75.75 0 0 1-.611.737l-2.94.553c-.342.063-.403.126-.403.476v6.407c0 2.059-1.708 2.836-2.836 2.836-1.288 0-2.21-.77-2.21-1.863 0-1.07.724-1.806 2.279-2.1l1.212-.238c.312-.056.472-.266.472-.588l-.045-7.787c0-.42.282-.672.8-.777Z" clip-rule="evenodd" opacity=".125"/><path fill="url(#b)" fill-rule="evenodd" d="m12.218 5.647 3.394-.634a.75.75 0 0 1 .888.737v2.241a.75.75 0 0 1-.611.737l-2.94.553c-.342.063-.403.126-.403.476v6.407c0 2.059-1.708 2.836-2.836 2.836-1.288 0-2.21-.77-2.21-1.863 0-1.07.724-1.806 2.279-2.1l1.212-.238c.312-.056.472-.266.472-.588l-.045-7.787c0-.42.282-.672.8-.777Z" clip-rule="evenodd"/><defs><radialGradient id="a" cx="0" cy="0" r="1" gradientTransform="rotate(116.565 8.441 5.908) scale(24.5967)" gradientUnits="userSpaceOnUse"><stop stop-color="#FAFAFA"/><stop offset="1" stop-color="silver"/></radialGradient><linearGradient id="b" x1="19.693" x2="8.945" y1="4.534" y2="19.98" gradientUnits="userSpaceOnUse"><stop stop-color="#E996B1"/><stop offset="1" stop-color="#BC546F"/></linearGradient></defs></svg>