<svg xmlns="http://www.w3.org/2000/svg" width="24" height="24" fill="none"><rect width="22" height="22" x="1" y="1" fill="url(#a)" rx="6.6"/><path fill="#666" d="M10.624 12.504a1 1 0 0 0 .87 1.493h2.139a1 1 0 0 0 .983-1.183l-.528-2.845c-.17-.918-1.394-1.122-1.854-.31l-1.61 2.845ZM5.597 19a.497.497 0 1 1 0-.994h.29a.845.845 0 0 0 .736-.43l6.805-12.067a1 1 0 0 1 .87-.509h.121a1 1 0 0 1 .984.818l2.162 11.651c.058.311.33.537.646.537h.192a.497.497 0 1 1 0 .994h-3.955a.497.497 0 1 1 0-.994h.208a.747.747 0 0 0 .734-.881l-.24-1.306a1 1 0 0 0-.983-.82H9.798a1 1 0 0 0-.872.511l-.97 1.728a.515.515 0 0 0 .449.768h.022a.497.497 0 0 1 0 .994h-2.83Z"/><defs><radialGradient id="a" cx="0" cy="0" r="1" gradientTransform="rotate(116.565 8.441 5.908) scale(24.5967)" gradientUnits="userSpaceOnUse"><stop stop-color="#F4F4F4"/><stop offset="1" stop-color="#BBB"/></radialGradient></defs></svg>