<svg xmlns="http://www.w3.org/2000/svg" width="24" height="24" fill="none"><rect width="22" height="22" x="1" y="1" fill="url(#a)" rx="6.6"/><path fill="#67614F" d="M18.105 6.005a.094.094 0 0 0-.075.005c-.06.03-.113.125-.165.281-.122.368-.908 2.654-4.918 3.27a1.994 1.994 0 1 1-2.724 2.596 1.581 1.581 0 0 1-2.901-.674c-.054.11-.12.215-.198.31-.03-.048-.05-.102-.083-.148a2.947 2.947 0 0 0-.695-.695 2.138 2.138 0 0 0-.894-.38 1.282 1.282 0 0 0-.943.215c-.265.191-.42.484-.48.827-.053.297-.035.619.066.959a3.01 3.01 0 0 0 1.191 1.619c.315.207.65.328.977.346.101.006.205-.019.298-.033 2.12 1.678 6.33 3.245 9.12 1.454.06.02.12.046.182.067.001.028-.008.057 0 .083l.132-.05c.024.007.042.026.066.033.005.002.011-.001.016 0l.05.049 1.258.446c-.052.436.164.932.711 1.14.65.254 1.285.54 1.904.86-.47-1.594-.642-2.872-1.87-2.76a.817.817 0 0 0-.53.248l-1.109-.71h-.05l-.016-.017c1.493-1.467 2.366-4.224 1.837-9.022-.024-.18-.085-.294-.157-.319ZM7.472 7.465l-.066 2.974s.025.091.046.215a1.583 1.583 0 0 1 1.44-.933 1.582 1.582 0 0 1 1.348.756c.149-.31.375-.578.658-.775-2.396-.126-3.426-2.238-3.426-2.238Zm1.666 2.952c-.112 0-.224.017-.33.05a.545.545 0 0 1 .32.488.53.53 0 0 1-.162.38.55.55 0 0 1-.388.158.556.556 0 0 1-.498-.312 1.068 1.068 0 0 0 .274 1.092 1.11 1.11 0 0 0 .784.318c.293 0 .575-.114.783-.318a1.076 1.076 0 0 0 0-1.537 1.119 1.119 0 0 0-.783-.319Zm3.334.211c-.112 0-.224.017-.33.05a.545.545 0 0 1 .32.488.529.529 0 0 1-.162.38.55.55 0 0 1-.388.158.556.556 0 0 1-.497-.312 1.068 1.068 0 0 0 .274 1.091 1.119 1.119 0 0 0 1.807-.352 1.07 1.07 0 0 0-.24-1.184 1.11 1.11 0 0 0-.784-.319Zm-7.213.654c.076 0 .15.017.22.05.07.032.134.08.188.139a.71.71 0 0 1 0 .91.577.577 0 0 1-.187.14.525.525 0 0 1-.441 0 .575.575 0 0 1-.187-.14.653.653 0 0 1-.125-.208.71.71 0 0 1 .124-.702.576.576 0 0 1 .188-.14.523.523 0 0 1 .22-.049Z"/><defs><radialGradient id="a" cx="0" cy="0" r="1" gradientTransform="rotate(116.565 8.441 5.908) scale(24.5967)" gradientUnits="userSpaceOnUse"><stop stop-color="#F4F4F4"/><stop offset="1" stop-color="#BBB"/></radialGradient></defs></svg>