<svg xmlns="http://www.w3.org/2000/svg" width="24" height="24" fill="none"><rect width="22" height="22" x="1" y="1" fill="url(#a)" rx="6.6"/><path fill="#fff" d="M4 4v16h16V4h-.727v.727h-1.455V4h-1.454v.727h-1.455V4h-1.455v.727h-2.181V4H9.818v.727H7.636V4H6.182v.727H4.727V4H4Zm.727 2.182h14.546v13.09H4.727V6.183ZM6.91 9.09v.727h10.182v-.727H6.909Zm0 2.909v.727h5.818V12H6.91Zm0 2.91v.726h8v-.727h-8Zm8 2.18v.728h2.182v-.727h-2.182Z" opacity=".8"/><defs><radialGradient id="a" cx="0" cy="0" r="1" gradientTransform="rotate(116.565 8.441 5.908) scale(24.5967)" gradientUnits="userSpaceOnUse"><stop stop-color="#78BBF8"/><stop offset="1" stop-color="#3097F4"/></radialGradient></defs></svg>