<svg xmlns="http://www.w3.org/2000/svg" width="24" height="24" fill="none"><rect width="22" height="22" x="1" y="1" fill="url(#a)" rx="6.6"/><g fill="#000" stroke="#000" stroke-linecap="round" stroke-linejoin="round" stroke-width=".173" opacity=".35"><path d="M9.333 10.639a1.794 1.794 0 1 0 0-3.589 1.794 1.794 0 0 0 0 3.589ZM14.312 10.095a1.27 1.27 0 0 0-1.155.743l-1.27 2.205a.894.894 0 0 1-.021.036l-.013.023h-.002a.934.934 0 0 1-1.228.313.934.934 0 0 1-.337-.313h-.002l-.348-.349a1.293 1.293 0 0 0-2.247.36l-.897 1.726c-.035.06-.066.12-.095.183l-.023.045.002.003a2.123 2.123 0 0 0-.014 1.655 2.123 2.123 0 0 0 2.008 1.31h6.589l.047.001a2.124 2.124 0 0 0 1.922-3.024l.004-.005-1.713-4.035a1.263 1.263 0 0 0-.087-.204l-.013-.031h-.004a1.27 1.27 0 0 0-1.103-.642Z" opacity=".221"/></g><path fill="url(#b)" d="M9.883 10.089a1.795 1.795 0 1 0 0-3.59 1.795 1.795 0 0 0 0 3.59Z"/><path fill="url(#c)" d="M14.862 9.545a1.27 1.27 0 0 0-1.155.743l-1.27 2.205a1.025 1.025 0 0 1-.021.036l-.013.023H12.4a.934.934 0 0 1-1.228.313.934.934 0 0 1-.337-.313h-.002l-.348-.349a1.293 1.293 0 0 0-2.247.36l-.897 1.726c-.035.06-.066.12-.095.183l-.023.045.002.003a2.123 2.123 0 0 0-.014 1.655 2.123 2.123 0 0 0 2.008 1.31h6.589l.047.001a2.124 2.124 0 0 0 1.922-3.024l.004-.005-1.713-4.035a1.263 1.263 0 0 0-.087-.204l-.013-.031h-.003a1.27 1.27 0 0 0-1.104-.642Z"/><defs><linearGradient id="b" x1="8.626" x2="11.245" y1="9.359" y2="7.15" gradientUnits="userSpaceOnUse"><stop stop-color="#CBC900"/><stop offset="1" stop-color="#F4ED12"/></linearGradient><linearGradient id="c" x1="6.983" x2="17.978" y1="16.954" y2="10.606" gradientUnits="userSpaceOnUse"><stop stop-color="#84FAA1"/><stop offset="1" stop-color="#33C478"/></linearGradient><radialGradient id="a" cx="0" cy="0" r="1" gradientTransform="rotate(116.565 8.441 5.908) scale(24.5967)" gradientUnits="userSpaceOnUse"><stop stop-color="#95BFFF"/><stop offset="1" stop-color="#5C9DFF"/></radialGradient></defs></svg>