<svg xmlns="http://www.w3.org/2000/svg" width="24" height="24" fill="none"><rect width="22" height="22" x="1" y="1" fill="url(#a)" rx="6.6"/><path stroke="#F34F17" stroke-width=".516" d="m7.039 9.164 9.917 5.472"/><path fill="#8F76E4" fill-opacity=".251" fill-rule="evenodd" d="M7.871 19.146c6.71 3.097 9.806-4.13 4.129-7.226-5.677-3.097-2.58-10.323 4.129-7.226" clip-rule="evenodd"/><path stroke="#8C59D9" stroke-width=".516" d="M7.871 19.146c6.71 3.097 9.806-4.13 4.129-7.226-5.677-3.097-2.58-10.323 4.129-7.226"/><path stroke="#F34F17" stroke-linejoin="round" stroke-width=".516" d="M6.323 9.597a.774.774 0 1 0 0-1.548.774.774 0 0 0 0 1.548ZM17.677 15.791a.774.774 0 1 0 0-1.548.774.774 0 0 0 0 1.548Z"/><path fill="#fff" stroke="#8F76E4" stroke-width=".516" d="M16.903 3.92h-1.548v1.548h1.548V3.92ZM12.774 11.146h-1.548v1.548h1.548v-1.548ZM8.645 18.372H7.097v1.548h1.548v-1.548Z"/><defs><radialGradient id="a" cx="0" cy="0" r="1" gradientTransform="rotate(116.565 8.441 5.908) scale(24.5967)" gradientUnits="userSpaceOnUse"><stop stop-color="#F4F4F4"/><stop offset="1" stop-color="#BBB"/></radialGradient></defs></svg>