<svg xmlns="http://www.w3.org/2000/svg" width="24" height="24" fill="none"><rect width="21" height="21" x="1.5" y="1.5" fill="url(#a)" stroke="#5B5B5B" rx="6.1"/><path fill="#219BD6" d="M4 5v1h15.994V5H4Zm0 2v.999h15.994v-1H4Zm0 1.998v1h9.325a4.964 4.964 0 0 1 4.342 0h2.327v-1H4Zm0 2v1h7.169c.21-.365.465-.702.758-1H4Zm15.064 0c.293.298.547.635.758 1h.172v-1h-.93ZM4 12.997v1h6.52c.035-.345.11-.68.212-1H4Zm0 1.999v1h6.732c-.101-.32-.177-.655-.211-1H4Zm0 2v.999h7.927a5.023 5.023 0 0 1-.758-1H4Z"/><mask id="b" width="9" height="10" x="11" y="10" maskUnits="userSpaceOnUse" style="mask-type:luminance"><path fill="#fff" d="M15.502 19.006a4.499 4.499 0 1 0 0-8.997 4.499 4.499 0 0 0 0 8.997Z"/></mask><g mask="url(#b)"><path fill="#006EAC" d="M15.496 18.853a4.349 4.349 0 1 0 0-8.697 4.349 4.349 0 0 0 0 8.697Z"/></g><mask id="c" width="9" height="9" x="11" y="10" maskUnits="userSpaceOnUse" style="mask-type:luminance"><path fill="#fff" d="M15.496 18.738a4.274 4.274 0 0 0 4.276-4.272 4.274 4.274 0 0 0-4.276-4.272 4.274 4.274 0 0 0-4.276 4.272 4.274 4.274 0 0 0 4.276 4.272Z"/></mask><g mask="url(#c)"><path stroke="#A0DCFF" stroke-linecap="round" stroke-width=".25" d="M16.118 18.827c-.584-3.633-3.874-4.31-5.478-3.757"/></g><mask id="d" width="9" height="9" x="11" y="10" maskUnits="userSpaceOnUse" style="mask-type:luminance"><path fill="#fff" d="M15.501 18.833a4.326 4.326 0 1 0 0-8.651 4.326 4.326 0 0 0 0 8.65Z"/></mask><g mask="url(#d)"><path stroke="#A0DCFF" stroke-linecap="round" stroke-width=".25" d="M16.707 10.213c-4.564 1.608-4.67 6.003-3.578 7.938"/></g><mask id="e" width="9" height="10" x="11" y="9" maskUnits="userSpaceOnUse" style="mask-type:luminance"><path fill="#fff" d="M15.577 18.606a4.326 4.326 0 1 0 0-8.651 4.326 4.326 0 0 0 0 8.651Z"/></mask><g mask="url(#e)"><path stroke="#A0DCFF" stroke-linecap="round" stroke-width=".25" d="M19.753 13.188c-4.486-2.795-8.726-.337-9.855 1.675"/></g><mask id="f" width="9" height="9" x="11" y="10" maskUnits="userSpaceOnUse" style="mask-type:luminance"><path fill="#fff" d="M15.501 18.833a4.326 4.326 0 1 0 0-8.651 4.326 4.326 0 0 0 0 8.65Z"/></mask><g mask="url(#f)"><path stroke="#A0DCFF" stroke-linecap="round" stroke-width=".25" d="M15.15 10.04c4.454 1.894 4.28 6.286 3.068 8.149"/></g><mask id="g" width="9" height="9" x="11" y="10" maskUnits="userSpaceOnUse" style="mask-type:luminance"><path fill="#fff" d="M15.501 18.833a4.326 4.326 0 1 0 0-8.651 4.326 4.326 0 0 0 0 8.65Z"/></mask><g mask="url(#g)"><path stroke="#A0DCFF" stroke-linecap="round" stroke-width=".25" d="M17.918 19.24c.475-5.837-3.862-7.713-6.29-7.243"/></g><mask id="h" width="9" height="9" x="11" y="10" maskUnits="userSpaceOnUse" style="mask-type:luminance"><path fill="#fff" d="M15.501 18.833a4.326 4.326 0 1 0 0-8.651 4.326 4.326 0 0 0 0 8.65Z"/></mask><g mask="url(#h)"><path stroke="#A0DCFF" stroke-linecap="round" stroke-width=".25" d="M21.552 16.73c-4.579-1.567-7.385 1.816-7.728 4.012"/></g><mask id="i" width="9" height="9" x="11" y="10" maskUnits="userSpaceOnUse" style="mask-type:luminance"><path fill="#fff" d="M15.501 18.833a4.326 4.326 0 1 0 0-8.651 4.326 4.326 0 0 0 0 8.65Z"/></mask><g mask="url(#i)"><path stroke="#A0DCFF" stroke-linecap="round" stroke-width=".25" d="M21.898 15.865c-4.077-2.607-7.605.016-8.458 2.068"/></g><mask id="j" width="9" height="9" x="11" y="10" maskUnits="userSpaceOnUse" style="mask-type:luminance"><path fill="#fff" d="M15.501 18.833a4.326 4.326 0 1 0 0-8.651 4.326 4.326 0 0 0 0 8.65Z"/></mask><g mask="url(#j)"><path stroke="#A0DCFF" stroke-linecap="round" stroke-width=".25" d="M19.677 12.318c-4.836-.178-6.546 3.87-6.24 6.072"/></g><defs><radialGradient id="a" cx="0" cy="0" r="1" gradientTransform="rotate(116.565 8.441 5.908) scale(24.5967)" gradientUnits="userSpaceOnUse"><stop stop-color="#F4F4F4"/><stop offset="1" stop-color="#BBB"/></radialGradient></defs></svg>