<svg xmlns="http://www.w3.org/2000/svg" width="24" height="24" fill="none"><rect width="22" height="22" x="1" y="1" fill="url(#a)" rx="6.6"/><path stroke="#F4F4F4" stroke-linejoin="round" stroke-width=".917" d="M12 10.165c3.29 0 5.958-1.026 5.958-2.291 0-1.266-2.667-2.292-5.958-2.292-3.29 0-5.958 1.026-5.958 2.292 0 1.265 2.668 2.292 5.958 2.292Z"/><path stroke="#F4F4F4" stroke-width=".917" d="M6.042 7.76v8.364"/><path stroke="#F4F4F4" stroke-linejoin="round" stroke-width=".917" d="M17.958 10.624c0 .402-.275.797-.798 1.146-.523.348-1.276.637-2.181.838-.906.202-1.934.307-2.98.307-1.045 0-2.073-.105-2.978-.306-.906-.202-1.658-.491-2.181-.84-.523-.348-.799-.743-.799-1.145M17.958 13.374c0 .402-.275.797-.798 1.146-.523.348-1.276.637-2.181.838-.906.201-1.934.307-2.98.307-1.045 0-2.073-.105-2.978-.307-.906-.2-1.658-.49-2.181-.838-.523-.349-.799-.744-.799-1.146M17.958 16.124c0 .402-.275.797-.798 1.146-.523.348-1.276.637-2.181.838-.906.201-1.934.307-2.98.307-1.045 0-2.073-.105-2.978-.307-.906-.2-1.658-.49-2.181-.838-.523-.349-.799-.744-.799-1.146"/><path stroke="#F4F4F4" stroke-width=".917" d="M17.958 7.76v8.364"/><defs><radialGradient id="a" cx="0" cy="0" r="1" gradientTransform="rotate(116.565 8.441 5.908) scale(24.5967)" gradientUnits="userSpaceOnUse"><stop stop-color="#D89BD9"/><stop offset="1" stop-color="#B138B4"/></radialGradient></defs></svg>