<svg xmlns="http://www.w3.org/2000/svg" width="24" height="24" fill="none"><rect width="22" height="22" x="1" y="1" fill="url(#a)" rx="6.6"/><path fill="#FBFBFB" d="M5.77 4v4.364H3v9.818C3 19.189 3.772 20 4.73 20h14.54c.958 0 1.73-.81 1.73-1.818V4H5.77Zm1.384 1.455h12.461v2.909H7.154v-2.91Zm.692.727v1.454h11.077V6.182H7.846ZM3.692 9.09H5.77v10.182H4.731c-.576 0-1.039-.487-1.039-1.091V9.09Zm3.462.727h6.923v6.546H7.154V9.818Zm7.615 0h4.846v.728H14.77v-.728Zm0 2.91h4.846v.726H14.77v-.727Zm0 2.908h4.846v.728H14.77v-.728Zm-7.615 2.182h12.461v.727H7.154v-.727Z"/><defs><radialGradient id="a" cx="0" cy="0" r="1" gradientTransform="rotate(116.565 8.441 5.908) scale(24.5967)" gradientUnits="userSpaceOnUse"><stop stop-color="#98A1A9"/><stop offset="1" stop-color="#57636F"/></radialGradient></defs></svg>