<svg xmlns="http://www.w3.org/2000/svg" width="24" height="24" fill="none"><rect width="22" height="22" x="1" y="1" fill="url(#a)" rx="6.6"/><path fill="#fff" d="M12 4 4.364 9.456c-.016.01-.031.023-.047.034l-.009.006v.002a.745.745 0 0 0-.308.597v6.639c0 1.088.901 1.088 1.143 1.088h13.714s1.143 0 1.143-1.088v-6.64a.746.746 0 0 0-.32-.606l.003-.004L12 4Zm0 3.482c.758 0 1.485.287 2.02.797.536.51.837 1.203.837 1.925v.816c0 .452-.382.816-.857.816-.35 0-.65-.2-.782-.485-.16.154-.35.276-.558.359a1.79 1.79 0 0 1-.66.126c-.455 0-.89-.172-1.212-.478a1.594 1.594 0 0 1-.502-1.155c0-.433.18-.848.502-1.154A1.759 1.759 0 0 1 12 8.571c.455 0 .89.172 1.212.478.322.306.502.721.502 1.155v.816c0 .15.128.272.286.272a.278.278 0 0 0 .286-.272v-.816c0-.578-.241-1.132-.67-1.54A2.345 2.345 0 0 0 12 8.027c-.606 0-1.188.229-1.616.637-.429.408-.67.962-.67 1.54 0 .577.241 1.13.67 1.539.428.408 1.01.637 1.616.637h2c.158 0 .286.122.286.272 0 .151-.128.273-.286.273h-2a2.93 2.93 0 0 1-2.02-.797 2.657 2.657 0 0 1-.837-1.925c0-.721.3-1.413.837-1.924A2.931 2.931 0 0 1 12 7.482Zm0 1.633c-.303 0-.594.115-.808.319a1.063 1.063 0 0 0-.335.77c0 .288.12.565.335.77.214.203.505.318.808.318.303 0 .594-.115.808-.319.215-.204.335-.48.335-.77 0-.288-.12-.565-.335-.77A1.173 1.173 0 0 0 12 9.116Z" opacity=".5"/><path fill="#fff" d="M6.571 5.85c-.474 0-.857.364-.857.816v8.164c0 .452.383.816.857.816h10.857c.475 0 .858-.364.858-.816V6.666c0-.452-.383-.817-.858-.817H6.571ZM12 7.481c.758 0 1.484.287 2.02.797s.837 1.203.837 1.924v.817c0 .452-.382.816-.857.816-.35 0-.65-.2-.782-.485-.16.154-.35.275-.558.359a1.79 1.79 0 0 1-.66.126 1.76 1.76 0 0 1-1.212-.478 1.595 1.595 0 0 1-.502-1.155c0-.433.18-.848.502-1.154A1.759 1.759 0 0 1 12 8.57c.455 0 .89.172 1.212.478.322.306.502.721.502 1.154v.817c0 .15.128.272.286.272a.278.278 0 0 0 .286-.272v-.817c0-.577-.241-1.13-.67-1.54A2.345 2.345 0 0 0 12 8.027c-.606 0-1.188.23-1.616.638-.429.408-.67.962-.67 1.54 0 .577.241 1.13.67 1.539.428.408 1.01.637 1.616.637h2c.158 0 .286.122.286.272 0 .151-.128.272-.286.272h-2a2.931 2.931 0 0 1-2.02-.797 2.657 2.657 0 0 1-.837-1.924c0-.721.3-1.414.837-1.924A2.931 2.931 0 0 1 12 7.482Zm0 1.633c-.303 0-.594.114-.808.319a1.063 1.063 0 0 0-.335.77c0 .288.12.565.335.769.214.204.505.319.808.319.303 0 .594-.115.808-.32.214-.203.335-.48.335-.769 0-.288-.12-.565-.335-.77A1.172 1.172 0 0 0 12 9.116Z"/><path fill="#BDEDFB" d="M4 10.095 19.2 20H5.143C4.57 20 4 19.728 4 18.91v-8.816Z"/><path fill="#DEF8FE" d="M18.857 20C20 20 20 18.912 20 18.912v-8.817L4.8 20h14.057Z"/><defs><radialGradient id="a" cx="0" cy="0" r="1" gradientTransform="rotate(116.565 8.441 5.908) scale(24.5967)" gradientUnits="userSpaceOnUse"><stop stop-color="#60D9F5"/><stop offset="1" stop-color="#09B1D8"/></radialGradient></defs></svg>