<svg xmlns="http://www.w3.org/2000/svg" width="24" height="24" fill="none"><rect width="22" height="22" x="1" y="1" fill="url(#a)" rx="6.6"/><path fill="#fff" d="M12.173 5.018c-.673-.141-1.303.618-1.815.295-.111.507-.66.113-.636.537-.662.516-1.094 1.363-1.045 2.222-.108.675.231 1.521-.193 2.077-.132.651-.026 1.365.196 1.99.46.699 1.17 1.274 1.33 2.148.075.812-.801 1.266-1.34 1.708-.843.582-1.74 1.029-2.67 1.451V19h12.429v-1.554a10.535 10.535 0 0 1-3.37-2.35c-.677-.65-.021-1.578.407-2.162.568-.478.862-1.176.868-1.918.189-.731-.377-1.282-.245-2.024-.019-.94.12-2.072-.669-2.757-.888-.773-2.085-1.174-3.247-1.217Z"/><defs><radialGradient id="a" cx="0" cy="0" r="1" gradientTransform="rotate(116.565 8.441 5.908) scale(24.5967)" gradientUnits="userSpaceOnUse"><stop stop-color="#8EB9EC"/><stop offset="1" stop-color="#4A85CC"/></radialGradient></defs></svg>