<svg xmlns="http://www.w3.org/2000/svg" width="24" height="24" fill="none"><rect width="22" height="22" x="1" y="1" fill="url(#a)" rx="6.6"/><path fill="#fff" d="M20 10.6c0 1.123-.178 2.14-.534 3.052-.35.905-.84 1.605-1.47 2.099a3.301 3.301 0 0 1-2.104.744c-.606 0-1.075-.134-1.407-.4-.33-.266-.496-.663-.496-1.193l.027-.636h-.056c-.404.743-.906 1.302-1.505 1.676a3.59 3.59 0 0 1-1.93.553c-.962 0-1.71-.308-2.244-.923-.526-.617-.789-1.472-.789-2.563 0-.99.196-1.91.587-2.762.4-.85.954-1.527 1.665-2.03.71-.5 1.498-.75 2.362-.75 1.34 0 2.262.549 2.766 1.649h.055l.359-1.449h1.433l-1.068 4.58c-.224.991-.336 1.754-.336 2.291 0 .568.247.852.743.852.489 0 .939-.209 1.35-.626.416-.416.744-.988.983-1.718.239-.732.358-1.542.358-2.43 0-1.08-.235-2.036-.707-2.868a4.702 4.702 0 0 0-2.04-1.929c-.888-.453-1.927-.68-3.117-.68-1.482 0-2.792.323-3.932.97-1.139.646-2.033 1.579-2.682 2.798-.65 1.213-.975 2.573-.975 4.082 0 1.165.24 2.195.717 3.088A4.939 4.939 0 0 0 8.1 18.125c.914.476 1.977.714 3.189.714.888 0 1.789-.115 2.701-.344.914-.224 1.86-.598 2.838-1.122l.505 1.014c-.886.524-1.85.922-2.893 1.196a12.097 12.097 0 0 1-3.151.417c-1.477 0-2.77-.29-3.88-.871a5.983 5.983 0 0 1-2.535-2.455C4.291 15.607 4 14.38 4 12.992c0-1.69.38-3.227 1.14-4.61a8.167 8.167 0 0 1 3.18-3.223C9.673 4.386 11.189 4 12.866 4c1.478 0 2.753.274 3.824.822 1.073.544 1.89 1.313 2.454 2.308.57.998.856 2.155.856 3.47Zm-5.57.074c0-.617-.203-1.112-.607-1.487-.404-.38-.943-.57-1.616-.57-.62 0-1.17.193-1.655.58-.478.38-.855.91-1.13 1.593a5.766 5.766 0 0 0-.414 2.2c0 .724.144 1.292.433 1.703.293.409.743.614 1.35.614.766 0 1.467-.317 2.104-.95.638-.634 1.079-1.424 1.323-2.372.14-.556.211-.991.211-1.31Z"/><defs><radialGradient id="a" cx="0" cy="0" r="1" gradientTransform="rotate(116.565 8.441 5.908) scale(24.5967)" gradientUnits="userSpaceOnUse"><stop stop-color="#85C1EA"/><stop offset="1" stop-color="#3C90C9"/></radialGradient></defs></svg>