<svg xmlns="http://www.w3.org/2000/svg" width="24" height="24" fill="none"><rect width="22" height="22" x="1" y="1" fill="url(#a)" rx="6.6"/><path fill="#892A1F" d="M20 12c-8.67 3.18-12.255 2.991-16 2.91V20c5.35-.457 10.713-.567 16-2.91V12Zm-.727.996v3.58c-4.739 1.988-9.592 2.227-14.546 2.625v-3.56c3.357.071 7.113-.036 14.546-2.645ZM20 4C11.33 7.18 7.745 6.991 4 6.91V12c5.35-.457 10.713-.566 16-2.91V4Zm-.727.996v3.58c-4.739 1.988-9.592 2.227-14.546 2.625v-3.56c3.357.071 7.113-.036 14.546-2.645Z"/><defs><radialGradient id="a" cx="0" cy="0" r="1" gradientTransform="rotate(116.565 8.441 5.908) scale(24.5967)" gradientUnits="userSpaceOnUse"><stop stop-color="#F4F4F4"/><stop offset="1" stop-color="#BBB"/></radialGradient></defs></svg>