<svg xmlns="http://www.w3.org/2000/svg" width="24" height="24" fill="none"><rect width="22" height="22" x="1" y="1" fill="url(#a)" rx="6.6"/><path fill="#919CAF" d="M9.375 15.553c1.328-1.382 2.541-2.819 2.696-3.193.155-.374.765-1.113 1.357-1.642 1.55-1.384 2.453-1.275 3.23.388.2.425.472.771.607.771.31 0 1.735-1.388 1.735-1.69 0-.389-.732-1.06-1.156-1.06-.448 0-.876-.643-.876-1.314 0-.51-1.4-1.925-2.416-2.444C14.067 5.122 13.233 5 12.025 5c-1.828 0-2.592.303-1.422.564.351.078 1.013.455 1.47.837 1.176.985 1.129 1.725-.213 3.32-.574.681-1.184 1.24-1.357 1.24-.38 0-5.503 4.762-5.503 5.116 0 .267 1.573 1.99 1.817 1.99.08 0 1.23-1.131 2.558-2.514Z"/><defs><radialGradient id="a" cx="0" cy="0" r="1" gradientTransform="rotate(116.565 8.441 5.908) scale(24.5967)" gradientUnits="userSpaceOnUse"><stop stop-color="#F4F4F4"/><stop offset="1" stop-color="#BBB"/></radialGradient></defs></svg>