<svg xmlns="http://www.w3.org/2000/svg" width="24" height="24" fill="none"><rect width="22" height="22" x="1" y="1" fill="url(#a)" rx="6.6"/><g filter="url(#b)" opacity=".15"><path fill="#000" d="M5.875 10.25h7c.485 0 .875.39.875.875v7c0 .485-.39.875-.875.875h-7A.873.873 0 0 1 5 18.125v-7c0-.485.39-.875.875-.875Z"/><path stroke="#000" stroke-linejoin="round" stroke-opacity=".294" stroke-width=".438" d="M5.875 10.25h7c.485 0 .875.39.875.875v7c0 .485-.39.875-.875.875h-7A.873.873 0 0 1 5 18.125v-7c0-.485.39-.875.875-.875Z"/></g><path fill="#E6E6E6" d="M5.875 10.25h7c.485 0 .875.39.875.875v7c0 .485-.39.875-.875.875h-7A.873.873 0 0 1 5 18.125v-7c0-.485.39-.875.875-.875Z"/><path fill="#999" d="M8.399 11.547a.138.138 0 0 0-.133.127l-.021.198c-.021.169-.037.313-.049.432l-.02.223-.004.036c-.222.013-.449.022-.688.022-.185 0-.373-.006-.564-.02a.137.137 0 0 0-.14.091.14.14 0 0 0-.007.06l.045.496a.139.139 0 0 0 .129.126c.079.005.18.008.306.008.274 0 .565-.016.862-.036-.024.29-.04.581-.05.872a5.245 5.245 0 0 0-.5.309h-.002c-.733.556-1.122 1.206-1.122 1.924 0 .267.057.487.19.645.135.158.34.234.577.234.326 0 .662-.134 1.006-.345l.046.279a.139.139 0 0 0 .125.114c.02.002.04-.001.059-.008l.511-.191a.138.138 0 0 0 .085-.166 4.033 4.033 0 0 1-.106-.58c.558-.543 1.008-1.223 1.36-2.024.24.038.448.103.614.205v.001c.378.228.548.527.548.954 0 .414-.185.728-.599.987-.323.205-.768.342-1.336.403a.138.138 0 0 0-.123.147.14.14 0 0 0 .022.067l.304.472c.014.022.034.04.058.05.024.011.05.015.076.011.681-.097 1.228-.292 1.635-.595.518-.387.792-.912.792-1.535 0-.566-.229-1.045-.667-1.397h-.002c-.277-.217-.645-.347-1.075-.421.025-.078.057-.17.069-.222a.14.14 0 0 0-.104-.165l-.522-.121a.137.137 0 0 0-.165.101 7.73 7.73 0 0 1-.102.372 4.786 4.786 0 0 0-.853.168c.009-.213.02-.42.039-.61.724-.079 1.401-.194 2.023-.352a.138.138 0 0 0 .104-.15l-.055-.49a.14.14 0 0 0-.115-.121.135.135 0 0 0-.059.003c-.608.168-1.216.282-1.823.355.024-.231.05-.47.086-.752a.14.14 0 0 0-.128-.155l-.525-.035-.012-.001Zm1.007 2.884c-.154.323-.34.629-.554.915-.009-.228-.018-.45-.019-.76.183-.07.378-.113.573-.155Zm-1.34.606c.009.41.022.793.047 1.084-.303.267-.576.398-.812.398-.042 0-.047-.006-.05-.01-.004-.004-.016-.024-.016-.08 0-.03-.006-.059-.011-.087.003-.023.011-.047.011-.07v.011c.024-.315.2-.653.555-1.014l.001-.001c.097-.103.184-.159.275-.231Z"/><g filter="url(#c)" opacity=".15"><path fill="#074271" d="M11.125 5a.873.873 0 0 0-.875.875v7c0 .485.39.875.875.875h7c.485 0 .875-.39.875-.875v-7A.873.873 0 0 0 18.125 5h-7Z"/><path stroke="#0B5FA1" stroke-linejoin="round" stroke-width=".438" d="M11.125 5a.873.873 0 0 0-.875.875v7c0 .485.39.875.875.875h7c.485 0 .875-.39.875-.875v-7A.873.873 0 0 0 18.125 5h-7Z"/></g><path fill="#44A5F3" d="M11.125 5a.873.873 0 0 0-.875.875v7c0 .485.39.875.875.875h7c.485 0 .875-.39.875-.875v-7A.873.873 0 0 0 18.125 5h-7Z"/><path fill="#fff" d="M14.16 6.75 12.204 12h.9l.543-1.575h1.94l.55 1.575h.91L15.09 6.75h-.93Zm.465.866.783 2.284h-1.581l.798-2.284Z"/><defs><filter id="b" width="9.713" height="9.713" x="4.519" y="9.769" color-interpolation-filters="sRGB" filterUnits="userSpaceOnUse"><feFlood flood-opacity="0" result="BackgroundImageFix"/><feBlend in="SourceGraphic" in2="BackgroundImageFix" result="shape"/><feGaussianBlur result="effect1_foregroundBlur_6_222" stdDeviation=".131"/></filter><filter id="c" width="10.063" height="10.063" x="9.594" y="4.344" color-interpolation-filters="sRGB" filterUnits="userSpaceOnUse"><feFlood flood-opacity="0" result="BackgroundImageFix"/><feBlend in="SourceGraphic" in2="BackgroundImageFix" result="shape"/><feGaussianBlur result="effect1_foregroundBlur_6_222" stdDeviation=".219"/></filter><radialGradient id="a" cx="0" cy="0" r="1" gradientTransform="rotate(116.565 8.441 5.908) scale(24.5967)" gradientUnits="userSpaceOnUse"><stop stop-color="#F4F4F4"/><stop offset="1" stop-color="#BBB"/></radialGradient></defs></svg>