<svg xmlns="http://www.w3.org/2000/svg" width="24" height="24" fill="none"><rect width="22" height="22" x="1" y="1" fill="url(#a)" rx="6.6"/><path fill="#999" d="M14.069 7c-.376 0-.729.07-1.054.21a2.422 2.422 0 0 0-.845.581l-.003.003c-.231.254-.411.56-.538.91a3.295 3.295 0 0 0-.192 1.146c0 .42.063.806.192 1.155.127.345.306.647.538.901l.002.003c.237.252.521.451.844.59l.002.002h.001c.325.134.678.2 1.053.2.374 0 .727-.066 1.052-.2h.002l.002-.001c.322-.14.603-.34.835-.593.237-.253.421-.557.549-.902.128-.348.19-.735.19-1.154 0-.414-.062-.796-.19-1.144v-.003a2.625 2.625 0 0 0-.549-.91 2.326 2.326 0 0 0-.837-.584A2.642 2.642 0 0 0 14.07 7h-.002Zm-.002.447c.322 0 .613.059.88.174l.002.001h.001c.267.11.492.267.68.474l.003.003c.195.207.346.458.455.76l.002.004.001.004c.107.29.162.618.162.984 0 .375-.056.707-.164 1-.11.295-.26.543-.456.75l-.002.003a1.97 1.97 0 0 1-.681.484c-.267.11-.56.166-.881.166-.322 0-.614-.056-.88-.166a2.078 2.078 0 0 1-.693-.484 2.278 2.278 0 0 1-.448-.753 2.869 2.869 0 0 1-.164-1c0-.367.056-.694.162-.986l.002-.004v-.003a2.25 2.25 0 0 1 .447-.76c.196-.207.425-.366.692-.475l.002-.001.001-.001c.267-.115.557-.174.877-.174Zm-5.432.867c-.284 0-.554.053-.801.16a1.852 1.852 0 0 0-.646.444l-.002.002a2.064 2.064 0 0 0-.41.693v.002a2.49 2.49 0 0 0-.145.864c0 .316.047.609.145.874.097.261.233.492.41.685l.002.002c.18.193.398.344.643.45l.005.003c.247.101.516.151.799.151.283 0 .552-.05.798-.151l.003-.002h.002c.246-.107.46-.259.637-.452.181-.194.322-.425.418-.686a2.51 2.51 0 0 0 .145-.874c0-.31-.047-.6-.145-.865a2.002 2.002 0 0 0-.417-.694 1.782 1.782 0 0 0-.64-.446 2.013 2.013 0 0 0-.801-.16Zm-.013.447h.013c.23 0 .436.042.625.124h.003l.002.002c.19.078.347.188.48.334l.002.001.002.002c.138.147.246.326.324.542l.001.003c.077.209.117.444.117.71 0 .272-.04.51-.117.72a1.554 1.554 0 0 1-.326.535l-.001.002-.001.001c-.134.147-.293.26-.483.342H9.26c-.189.078-.396.118-.626.118-.23 0-.438-.04-.627-.117a1.478 1.478 0 0 1-.492-.344 1.624 1.624 0 0 1-.32-.537 2.063 2.063 0 0 1-.117-.72c0-.266.04-.502.117-.71v-.003c.079-.217.186-.396.32-.543.138-.146.3-.258.489-.336l.002-.001.002-.001c.184-.08.386-.12.609-.122l.004-.002Zm5.509 4.905c-1.972 0-3.174.18-3.925.736-.374.278-.62.654-.762 1.104-.136.434-.181.977-.186 1.567h.447c.005-.564.051-1.067.166-1.432.12-.38.304-.659.601-.88.599-.443 1.717-.648 3.659-.648 1.942 0 3.06.205 3.658.649.297.22.481.498.6.878.115.366.16.869.164 1.433H19c-.004-.59-.048-1.133-.184-1.566a2.12 2.12 0 0 0-.76-1.104c-.752-.557-1.953-.737-3.925-.737Zm-5.63-.094c-1.397.005-2.223.14-2.783.559a1.625 1.625 0 0 0-.578.845c-.106.344-.139.741-.14 1.21v.67h.447v-.669c.001-.447.036-.804.12-1.079a1.14 1.14 0 0 1 .418-.619c.409-.305 1.15-.464 2.517-.47v-.447Z"/><defs><radialGradient id="a" cx="0" cy="0" r="1" gradientTransform="rotate(116.565 8.441 5.908) scale(24.5967)" gradientUnits="userSpaceOnUse"><stop stop-color="#F4F4F4"/><stop offset="1" stop-color="#BBB"/></radialGradient></defs></svg>