<svg xmlns="http://www.w3.org/2000/svg" width="24" height="24" fill="none"><rect width="22" height="22" x="1" y="1" fill="url(#a)" rx="6.6"/><path fill="#31C6B7" d="M11.835 10.273c-.668.17-1.124.297-1.781.467-.16.042-.17.053-.308-.106-.159-.18-.275-.297-.498-.403-.668-.33-1.315-.234-1.92.159-.72.466-1.092 1.156-1.081 2.015.01.848.594 1.548 1.431 1.665.721.095 1.326-.16 1.803-.7.096-.117.18-.244.287-.393H7.72c-.223 0-.276-.138-.202-.318.138-.329.393-.88.541-1.156a.286.286 0 0 1 .265-.17h3.86c-.02.287-.02.573-.063.86a4.522 4.522 0 0 1-.87 2.078c-.763 1.008-1.76 1.633-3.022 1.803-1.04.138-2.005-.064-2.853-.7-.785-.594-1.23-1.379-1.347-2.354-.138-1.156.202-2.195.902-3.107.753-.987 1.75-1.612 2.969-1.835.997-.18 1.951-.064 2.81.52.562.37.965.88 1.23 1.495.064.095.022.148-.106.18Z"/><path fill="#31C6B7" d="M15.346 16.138c-.965-.022-1.845-.297-2.588-.934a3.326 3.326 0 0 1-1.145-2.046c-.191-1.199.138-2.26.859-3.203.774-1.018 1.707-1.548 2.97-1.771 1.08-.191 2.099-.085 3.022.54.837.573 1.357 1.348 1.495 2.366.18 1.431-.233 2.598-1.22 3.595-.7.71-1.559 1.156-2.545 1.357-.286.053-.572.064-.848.096Zm2.524-4.285c-.01-.138-.01-.244-.032-.35-.191-1.05-1.156-1.643-2.164-1.41-.986.223-1.622.848-1.855 1.845-.191.827.212 1.665.975 2.004.583.255 1.167.223 1.729-.063.838-.435 1.294-1.114 1.347-2.026Z"/><defs><radialGradient id="a" cx="0" cy="0" r="1" gradientTransform="rotate(116.565 8.441 5.908) scale(24.5967)" gradientUnits="userSpaceOnUse"><stop stop-color="#F4F4F4"/><stop offset="1" stop-color="#BBB"/></radialGradient></defs></svg>