<svg xmlns="http://www.w3.org/2000/svg" width="24" height="24" fill="none"><rect width="22" height="22" x="1" y="1" fill="url(#a)" rx="6.6"/><path fill="#F9B72B" d="M14.364 6c-.429 0-.833.08-1.204.24a2.761 2.761 0 0 0-.966.664l-.003.003v.001c-.265.29-.47.64-.615 1.04-.147.399-.22.837-.22 1.31 0 .48.072.92.22 1.32.145.394.35.74.614 1.029h.001l.002.003c.272.29.596.516.964.676h.003v.001h.002c.37.153.774.228 1.202.228.428 0 .832-.075 1.203-.228h.002l.002-.002c.369-.16.69-.387.954-.677l.001-.001a3.02 3.02 0 0 0 .627-1.03c.147-.398.218-.84.218-1.32 0-.471-.072-.909-.218-1.307v-.003a3 3 0 0 0-.627-1.039 2.655 2.655 0 0 0-.957-.668h-.001c-.37-.16-.774-.24-1.202-.24h-.002Zm-.001.511c.368 0 .7.067 1.005.199h.002l.001.001c.306.126.563.305.778.541v.001l.003.003c.222.237.396.523.52.868l.003.006v.003c.122.333.185.707.185 1.125 0 .429-.064.808-.187 1.143a2.496 2.496 0 0 1-.521.858l-.002.003h-.001a2.247 2.247 0 0 1-.778.552l-.001.001a2.616 2.616 0 0 1-1.006.19c-.368 0-.7-.065-1.006-.19h-.001a2.366 2.366 0 0 1-.79-.553v-.001a2.592 2.592 0 0 1-.512-.86 3.28 3.28 0 0 1-.187-1.143c0-.42.063-.793.185-1.126l.002-.006v-.002c.126-.346.296-.633.511-.87h.001c.223-.237.484-.417.789-.543h.002l.002-.001a2.488 2.488 0 0 1 1.003-.199Zm-6.21.99c-.324 0-.632.061-.915.183-.282.117-.53.288-.738.508l-.001.002h-.001a2.353 2.353 0 0 0-.468.792v.002a2.847 2.847 0 0 0-.166.988c0 .361.054.696.166.999.11.298.267.562.468.783l.002.003c.207.22.455.392.735.514l.006.002c.282.116.59.174.913.174.324 0 .63-.057.913-.173l.003-.002.002-.001a2.12 2.12 0 0 0 .728-.517h.001a2.3 2.3 0 0 0 .477-.783 2.87 2.87 0 0 0 .165-.999c0-.355-.054-.686-.165-.989-.11-.304-.27-.571-.477-.793H9.8a2.03 2.03 0 0 0-.73-.51 2.295 2.295 0 0 0-.916-.182Zm-.014.512h.015c.263 0 .499.048.715.141l.002.001.003.001c.216.09.397.216.549.382l.002.002.002.002c.158.168.281.372.37.619l.002.004c.088.238.133.507.133.811 0 .31-.046.583-.134.822-.089.242-.213.444-.371.612l-.001.001v.001h-.001l-.001.002a1.593 1.593 0 0 1-.552.39l-.001.001H8.87a1.865 1.865 0 0 1-.716.135c-.263 0-.5-.046-.716-.134h-.001l-.001-.001a1.68 1.68 0 0 1-.56-.392h-.001v-.002a1.848 1.848 0 0 1-.365-.613 2.358 2.358 0 0 1-.135-.822c0-.304.046-.573.134-.812v-.002l.001-.001c.09-.248.212-.452.365-.62V8.54c.159-.168.342-.295.56-.384h.001l.002-.002a1.77 1.77 0 0 1 .696-.14l.005-.001Zm6.296 5.605c-2.253 0-3.627.206-4.485.842-.428.317-.71.747-.871 1.261-.156.495-.207 1.116-.213 1.79l.512.002c.005-.646.057-1.22.189-1.638.136-.435.347-.753.687-1.005.684-.506 1.962-.74 4.181-.74 2.22 0 3.498.234 4.18.74.34.252.551.57.687 1.005.13.417.182.992.187 1.637H20c-.004-.674-.055-1.295-.21-1.79-.16-.515-.442-.945-.87-1.262-.858-.637-2.231-.842-4.485-.842Zm-6.433-.107c-1.598.005-2.541.16-3.182.638-.324.242-.539.575-.66.967-.12.393-.159.847-.16 1.383v.764h.511v-.764c.001-.51.04-.918.138-1.232.096-.313.242-.533.477-.708.467-.349 1.314-.53 2.876-.537v-.511Z"/><defs><radialGradient id="a" cx="0" cy="0" r="1" gradientTransform="rotate(116.565 8.441 5.908) scale(24.5967)" gradientUnits="userSpaceOnUse"><stop stop-color="#F4F4F4"/><stop offset="1" stop-color="#BBB"/></radialGradient></defs></svg>