<svg xmlns="http://www.w3.org/2000/svg" width="24" height="24" fill="none"><rect width="22" height="22" x="1" y="1" fill="url(#a)" rx="6.6"/><path fill="#8C59D9" d="M7 8s-2 0-2 2v4c0 2 2 2 2 2h3v-1H7s-1 0-1-1v-4c0-1 1-1 1-1h3V8H7Zm6 0v2h-2v1h2v2h-2v1h2v2h1v-2h2v2h1v-2h2v-1h-2v-2h2v-1h-2V8h-1v2h-2V8h-1Zm1 3h2v2h-2v-2Z"/><defs><radialGradient id="a" cx="0" cy="0" r="1" gradientTransform="rotate(116.565 8.441 5.908) scale(24.5967)" gradientUnits="userSpaceOnUse"><stop stop-color="#F4F4F4"/><stop offset="1" stop-color="#BBB"/></radialGradient></defs></svg>