<svg xmlns="http://www.w3.org/2000/svg" width="24" height="24" fill="none"><rect width="22" height="22" x="1" y="1" fill="url(#a)" rx="6.6"/><path fill="#234DB8" d="M5.666 15.62c-.393-.088-.613-.243-.738-.522-.06-.132-.067-.224-.082-1.016-.017-.828-.022-.88-.09-1.021-.09-.184-.263-.28-.555-.303L4 12.74v-.775l.21-.021c.29-.03.462-.12.547-.284.06-.115.07-.191.078-.623.022-1.188.03-1.312.085-1.442a.75.75 0 0 1 .369-.384c.292-.152.46-.177 1.264-.194L7.31 9l.01 2.184c.008 2.11.01 2.188.07 2.308.112.223.189.256.594.256h.353l.02.139c.01.076.018.221.018.322v.182l-.272.04a3.227 3.227 0 0 1-.555.021c-.5-.03-.806-.202-.97-.545-.156-.321-.17-.516-.17-2.421l-.002-1.755-.164.022c-.235.032-.353.098-.42.232-.048.1-.058.227-.072.91-.015.74-.02.801-.086.937-.092.189-.17.261-.444.407l-.224.12.182.067c.233.087.391.221.483.41.07.143.074.193.089.96.017.873.027.93.194 1.056.052.038.152.069.258.078l.243.014v.722l-.328-.003a2.69 2.69 0 0 1-.45-.045Zm11.89-.318v-.364h.217c.205 0 .354-.083.43-.238.055-.114.064-.212.078-.935.015-.76.02-.817.086-.942.084-.16.212-.263.472-.383l.195-.09-.18-.075a.994.994 0 0 1-.489-.426c-.063-.12-.069-.187-.084-.938-.015-.737-.022-.818-.08-.92-.074-.13-.222-.212-.428-.238l-.217-.019V9l.38.022c.689.04 1.031.23 1.18.629.04.107.053.318.068 1.023.017.812.024.897.082.998.082.143.3.254.546.277l.188.017v.775l-.2.017c-.26.02-.444.123-.532.293-.06.117-.066.198-.084.999-.02.936-.036 1.037-.2 1.255-.157.21-.618.36-1.101.361h-.327v-.364Zm-7.681-.827-.266-.047c-.257-.046-.656-.248-.834-.42-.32-.314-.497-.702-.558-1.233-.07-.6.055-1.205.335-1.621.236-.35.596-.595 1.004-.683a2.91 2.91 0 0 1 .888 0c.43.09.792.372.998.774.162.316.214.566.214 1.024v.386H9.098l.015.119c.051.389.147.593.373.795.195.174.366.227.733.227.344 0 .686-.076.986-.218l.19-.09.125.653-.207.097a3.16 3.16 0 0 1-.452.16c-.233.06-.822.107-.986.077Zm.93-2.597c-.033-.41-.248-.694-.59-.778-.533-.13-.982.225-1.078.85l-.02.134h1.704l-.016-.206Zm1.985 2.585c-.464-.054-.96-.22-.934-.314a5.24 5.24 0 0 0 .053-.345c.02-.161.043-.293.05-.293.007 0 .067.028.134.063.363.188 1.08.304 1.374.223.279-.077.432-.343.335-.58-.064-.156-.207-.244-.777-.478-.54-.222-.742-.34-.927-.543-.313-.344-.298-1.05.03-1.383.283-.287.652-.39 1.31-.368.45.015.69.062 1.026.198l.123.05-.108.307c-.06.169-.111.31-.115.313a2.297 2.297 0 0 1-.256-.083c-.777-.28-1.39-.171-1.39.246 0 .196.181.324.772.547.648.244.944.443 1.097.738.077.149.085.194.085.512 0 .317-.008.365-.087.528-.146.3-.421.515-.789.612-.223.06-.716.083-1.006.05Zm3 0a2.713 2.713 0 0 1-.745-.18l-.19-.076.046-.34c.026-.187.05-.345.054-.35a.439.439 0 0 1 .133.055c.365.188 1.084.307 1.376.226.194-.054.348-.208.37-.37.037-.283-.123-.418-.824-.697-.901-.357-1.165-.656-1.128-1.278.03-.526.315-.836.891-.973.162-.039.317-.047.665-.035.453.015.624.047.975.18l.178.068-.109.305c-.06.168-.112.309-.116.312a3.553 3.553 0 0 1-.322-.1c-.55-.187-.99-.18-1.21.017-.084.077-.1.113-.1.233 0 .238.111.317.832.593.893.341 1.146.631 1.115 1.279-.017.363-.098.565-.305.761-.174.166-.339.257-.58.32-.223.06-.716.083-1.006.05Z"/><defs><radialGradient id="a" cx="0" cy="0" r="1" gradientTransform="rotate(116.565 8.441 5.908) scale(24.5967)" gradientUnits="userSpaceOnUse"><stop stop-color="#F4F4F4"/><stop offset="1" stop-color="#BBB"/></radialGradient></defs></svg>