<svg xmlns="http://www.w3.org/2000/svg" width="24" height="24" fill="none"><rect width="22" height="22" x="1" y="1" fill="url(#a)" rx="6.6"/><path fill="#666" d="M12 5a.2.2 0 0 0-.172.09l-.364.588-.171.017-.472-.506c-.096-.103-.289-.065-.338.067l-.241.646-.167.05-.56-.402c-.114-.082-.296-.007-.318.132l-.111.681-.153.082-.629-.286c-.128-.059-.292.051-.286.191l.024.692-.133.109-.673-.159c-.137-.032-.276.107-.244.244l.159.674-.11.132-.691-.024c-.14-.004-.25.158-.191.286l.286.629-.082.153-.681.11c-.139.023-.214.205-.132.319l.403.56-.05.167-.647.241c-.131.05-.17.242-.067.338l.505.472-.016.171-.589.364c-.119.074-.119.271 0 .345l.589.364.016.17-.505.473c-.103.095-.064.288.067.337l.646.242.05.167-.402.56c-.082.114-.007.296.132.318l.681.11.082.154-.286.628c-.059.128.051.292.19.287l.692-.025.11.133-.16.674c-.031.137.108.275.245.243l.673-.158.133.109-.024.691c-.006.14.158.25.286.192l.628-.287.153.082.112.681c.022.14.204.214.318.133l.56-.404.167.05.241.647c.05.131.242.17.338.067l.472-.506.171.018.364.588c.074.118.27.119.344 0l.365-.588.171-.018.472.506c.095.103.288.064.337-.067l.242-.646.167-.051.56.404c.113.081.295.006.318-.133l.11-.68.154-.083.628.287c.128.058.292-.051.287-.192l-.024-.691.132-.11.674.16c.137.031.275-.107.243-.244l-.158-.674.109-.133.691.025c.14.005.25-.159.191-.287l-.286-.628.082-.153.681-.111c.14-.022.214-.204.132-.318l-.403-.56.05-.167.647-.242c.131-.049.17-.242.067-.337l-.506-.472.017-.171.589-.365c.119-.073.119-.27 0-.344l-.589-.364-.016-.171.505-.472c.103-.096.064-.289-.067-.338l-.646-.241-.05-.167.402-.56c.083-.114.007-.295-.131-.318l-.682-.111-.082-.153.287-.629c.058-.128-.05-.292-.192-.286l-.691.024-.11-.132.16-.674c.032-.137-.107-.276-.244-.244l-.674.159-.133-.11.025-.691c.005-.14-.159-.25-.287-.191l-.628.286-.153-.082-.111-.682c-.023-.138-.204-.213-.318-.131l-.56.403-.167-.05-.242-.647c-.049-.132-.242-.17-.337-.067l-.472.506-.171-.017-.365-.589A.2.2 0 0 0 12.001 5Zm-.022 1.233c.208 0 .417.139.416.416 0 .555-.832.555-.832 0 0-.277.208-.416.416-.416Zm.966.686a5.123 5.123 0 0 1 3.507 2.498l-.49 1.108a.38.38 0 0 0 .192.501l.945.42c.03.296.033.593.011.89h-.526c-.052 0-.073.034-.073.086v.241c0 .568-.32.692-.602.723-.267.03-.563-.112-.6-.275-.158-.887-.42-1.077-.835-1.404.515-.327 1.05-.81 1.05-1.456 0-.697-.477-1.136-.803-1.352a2.13 2.13 0 0 0-1.1-.33H8.183c.752-.84 1.76-1.44 2.867-1.65l.64.673a.379.379 0 0 0 .537.013l.717-.686ZM7.014 10c.208 0 .416.138.416.416 0 .555-.832.555-.832 0 0-.278.208-.416.416-.416Zm9.928.02c.208 0 .416.138.416.415 0 .555-.832.555-.832 0 0-.277.208-.416.416-.416Zm-9.055.164H8.5l-.002 3.243H7.072a5.476 5.476 0 0 1-.166-2.023l.897-.398a.38.38 0 0 0 .193-.502l-.109-.32Zm2.767 0h1.893c.089 0 .63.036.63.44 0 .336-.415.502-.756.502h-1.767v-.942Zm0 2.153h1.51c.12 0 .646.17.814.841.053.207.168.879.248 1.094.078.241.399.758.74.758h2.162c-.145.194-.303.343-.475.514l-.88-.189a.38.38 0 0 0-.45.292l-.209.975a5.123 5.123 0 0 1-4.272-.02l-.209-.976a.38.38 0 0 0-.45-.291l-.86.185c-.16-.165-.31-.306-.446-.49H12v-1.616h-1.346v-1.077Zm-1.759 3.526c.209 0 .417.139.417.416 0 .555-.832.555-.833 0 0-.277.208-.416.416-.416Zm6.166.02c.208 0 .416.138.416.416 0 .555-.832.555-.832 0 0-.278.208-.416.416-.416Z"/><defs><radialGradient id="a" cx="0" cy="0" r="1" gradientTransform="rotate(116.565 8.441 5.908) scale(24.5967)" gradientUnits="userSpaceOnUse"><stop stop-color="#F4F4F4"/><stop offset="1" stop-color="#BBB"/></radialGradient></defs></svg>