<svg xmlns="http://www.w3.org/2000/svg" width="24" height="24" fill="none"><rect width="22" height="22" x="1" y="1" fill="url(#a)" rx="6.6"/><path fill="#999" d="M12.161 15.96c-.503 0-.975-.09-1.414-.271-.426-.181-.8-.44-1.123-.775a3.512 3.512 0 0 1-.755-1.24c-.18-.502-.27-1.07-.27-1.703 0-.62.096-1.168.29-1.646a3.83 3.83 0 0 1 .813-1.24 3.168 3.168 0 0 1 1.162-.774c.438-.18.897-.27 1.374-.27.633 0 1.143.09 1.53.27.4.168.671.304.813.407l-.367.871a6.476 6.476 0 0 0-.756-.329c-.297-.129-.703-.194-1.22-.194-.71 0-1.303.252-1.781.756-.465.503-.697 1.22-.697 2.149 0 .955.226 1.691.678 2.207.464.504 1.09.756 1.878.756.555 0 .987-.058 1.297-.175.323-.129.555-.238.697-.329l.33.93c-.168.103-.465.232-.891.387-.426.142-.956.213-1.588.213Zm6.467-3.97c0 1.11-.18 2.098-.542 2.963a6.771 6.771 0 0 1-1.452 2.207 6.205 6.205 0 0 1-2.091 1.375 6.709 6.709 0 0 1-2.479.465 6.861 6.861 0 0 1-2.498-.465 6.47 6.47 0 0 1-2.09-1.375c-.595-.606-1.072-1.342-1.434-2.207-.361-.865-.542-1.852-.542-2.963 0-1.097.18-2.078.542-2.943.362-.878.84-1.614 1.433-2.207a6.213 6.213 0 0 1 2.091-1.356A6.618 6.618 0 0 1 12.064 5c.865 0 1.691.161 2.479.484.8.31 1.497.762 2.091 1.356.607.593 1.09 1.33 1.452 2.207.362.865.542 1.846.542 2.943Zm-1.142 0c0-.89-.136-1.704-.407-2.44a5.558 5.558 0 0 0-1.123-1.878 4.82 4.82 0 0 0-1.723-1.22 5.418 5.418 0 0 0-2.169-.426c-.787 0-1.517.142-2.188.426a4.862 4.862 0 0 0-1.704 1.22A5.557 5.557 0 0 0 7.05 9.55c-.271.736-.407 1.55-.407 2.44 0 .891.136 1.704.407 2.44a5.779 5.779 0 0 0 1.123 1.898 5.213 5.213 0 0 0 1.704 1.22c.671.284 1.4.426 2.188.426.788 0 1.51-.142 2.169-.426a5.16 5.16 0 0 0 1.723-1.22 5.778 5.778 0 0 0 1.123-1.898c.271-.736.407-1.549.407-2.44Z"/><defs><radialGradient id="a" cx="0" cy="0" r="1" gradientTransform="rotate(116.565 8.441 5.908) scale(24.5967)" gradientUnits="userSpaceOnUse"><stop stop-color="#F4F4F4"/><stop offset="1" stop-color="#BBB"/></radialGradient></defs></svg>