<svg xmlns="http://www.w3.org/2000/svg" width="24" height="24" fill="none"><rect width="22" height="22" x="1" y="1" fill="url(#a)" rx="6.6"/><path fill="#5884F4" d="M9.053 5c-.346.003-.64.043-.88.12a1.39 1.39 0 0 0-.59.336c-.15.143-.255.323-.316.54a2.747 2.747 0 0 0-.092.742v3.91c0 .121-.02.243-.06.365a.848.848 0 0 1-.173.316.95.95 0 0 1-.285.223.932.932 0 0 1-.357.08v.737a.845.845 0 0 1 .357.089c.115.054.21.129.285.224a.754.754 0 0 1 .172.315c.041.115.061.234.061.356v3.909c0 .278.03.526.092.743.06.217.166.4.315.549.15.149.346.26.59.335.24.072.535.108.88.111h.31v-.744h-.31c-.34-.01-.591-.08-.748-.211-.162-.136-.244-.4-.244-.793v-3.645c0-.447-.06-.793-.183-1.037A1.318 1.318 0 0 0 7.38 12c.217-.136.383-.325.498-.57.122-.244.183-.59.183-1.037V6.748c0-.393.082-.657.244-.793.157-.131.407-.202.749-.212h.31V5h-.31ZM14.613 5v.743h.31c.34.01.591.08.748.212.162.136.244.4.244.793v3.645c0 .447.06.793.183 1.037.115.244.281.434.498.57a1.318 1.318 0 0 0-.498.57c-.122.244-.183.59-.183 1.037v3.645c0 .393-.082.657-.244.793-.157.131-.407.201-.749.211h-.31V19h.31c.346-.003.64-.04.88-.11a1.39 1.39 0 0 0 .59-.337c.15-.149.255-.332.316-.549a2.75 2.75 0 0 0 .092-.742v-3.91c0-.121.02-.24.06-.355a.754.754 0 0 1 .174-.316.778.778 0 0 1 .285-.223c.1-.054.22-.082.356-.089v-.738a.932.932 0 0 1-.357-.079.948.948 0 0 1-.285-.223.847.847 0 0 1-.172-.316 1.151 1.151 0 0 1-.061-.366V6.738c0-.278-.03-.526-.092-.743a1.165 1.165 0 0 0-.315-.539 1.39 1.39 0 0 0-.59-.335 2.982 2.982 0 0 0-.88-.121h-.31Z"/><defs><radialGradient id="a" cx="0" cy="0" r="1" gradientTransform="rotate(116.565 8.441 5.908) scale(24.5967)" gradientUnits="userSpaceOnUse"><stop stop-color="#F4F4F4"/><stop offset="1" stop-color="#BBB"/></radialGradient></defs></svg>