<svg xmlns="http://www.w3.org/2000/svg" width="24" height="24" fill="none"><rect width="22" height="22" x="1" y="1" fill="url(#a)" rx="6.6"/><path fill="#E97CC8" d="M17.777 12.898a3.311 3.311 0 0 0-1.45.336c-.148-.295-.298-.558-.324-.751-.029-.225-.064-.363-.029-.631.035-.27.193-.652.19-.681-.003-.03-.035-.167-.357-.17-.321-.003-.599.062-.63.146a3.527 3.527 0 0 0-.135.477c-.056.292-.643 1.335-.98 1.882-.107-.214-.2-.4-.221-.55-.03-.225-.065-.362-.03-.63.036-.27.193-.653.19-.682-.003-.029-.035-.166-.356-.17-.322-.002-.6.062-.631.147-.033.085-.068.283-.135.476s-.847 1.935-1.052 2.385c-.105.23-.196.415-.26.54 0 0-.003.01-.012.024-.055.108-.087.167-.087.167v.002c-.044.08-.091.152-.114.152-.018 0-.05-.21.006-.497.116-.604.394-1.545.391-1.578 0-.017.053-.18-.181-.266-.228-.084-.31.056-.33.056-.02 0-.035.05-.035.05s.254-1.058-.486-1.058c-.461 0-1.098.505-1.414.961l-1.075.588c-.173.096-.351.193-.518.283l-.035-.038c-.894-.956-2.548-1.63-2.478-2.914.026-.467.187-1.695 3.177-3.185 2.46-1.213 4.418-.877 4.757-.131.486 1.063-1.049 3.039-3.591 3.325-.97.108-1.48-.266-1.608-.406-.134-.146-.155-.155-.204-.126-.082.044-.03.176 0 .252.076.198.388.549.917.721.468.152 1.605.237 2.981-.295 1.54-.596 2.744-2.253 2.39-3.641-.353-1.409-2.69-1.873-4.903-1.087-1.315.467-2.741 1.204-3.767 2.162-1.219 1.14-1.412 2.13-1.333 2.546.284 1.473 2.315 2.431 3.127 3.141-.04.024-.079.044-.11.062-.407.201-1.956 1.01-2.342 1.867-.438.97.07 1.666.407 1.76 1.043.289 2.115-.232 2.691-1.09.576-.86.506-1.976.24-2.488a.06.06 0 0 0-.012-.017l.319-.187c.207-.123.412-.237.587-.33-.1.271-.172.596-.207 1.063-.044.55.18 1.263.476 1.543a.527.527 0 0 0 .386.126c.345 0 .5-.286.672-.625.21-.415.4-.898.4-.898s-.236 1.304.407 1.304c.233 0 .47-.304.575-.46v.004l.018-.03.038-.06v-.007c.093-.163.304-.534.617-1.151.403-.795.791-1.789.791-1.789s.035.243.155.646c.07.237.217.497.334.748-.094.132-.152.205-.152.205l.002.003c-.075.1-.157.207-.248.313-.318.38-.698.815-.75.94-.062.15-.048.258.07.345.084.065.236.074.39.065a1.8 1.8 0 0 0 .588-.135c.155-.055.336-.14.506-.266.313-.23.502-.56.485-.996a2.007 2.007 0 0 0-.184-.704c.029-.041.055-.082.085-.123.494-.722.876-1.514.876-1.514s.035.243.155.646c.059.204.178.427.284.643-.465.377-.751.815-.854 1.102-.184.531-.04.771.231.827.123.026.298-.032.427-.088.164-.053.356-.143.54-.278.313-.23.614-.552.597-.987a1.868 1.868 0 0 0-.135-.585c.395-.164.903-.254 1.552-.178 1.391.163 1.666 1.031 1.613 1.397-.052.365-.345.564-.441.625-.096.062-.129.082-.12.126.012.064.059.061.14.05.114-.021.731-.296.757-.968.044-.86-.774-1.797-2.22-1.788Zm-10.73 3.618c-.463.503-1.106.693-1.383.532-.298-.173-.181-.915.385-1.447a7.36 7.36 0 0 1 1.085-.81l.286-.172.032-.017.07-.044c.208.76.01 1.429-.476 1.958Zm3.36-2.285c-.16.391-.497 1.394-.702 1.338-.175-.047-.283-.807-.035-1.558.126-.377.392-.827.547-1.002.251-.28.529-.374.596-.26.085.149-.307 1.236-.406 1.482Zm2.773 1.326c-.067.035-.131.059-.16.041-.02-.011.029-.058.029-.058s.348-.374.485-.544c.079-.1.172-.216.272-.348v.039c0 .447-.433.748-.626.87Zm2.14-.488c-.05-.035-.041-.152.125-.517.064-.143.216-.383.476-.614.03.094.05.184.047.27-.003.563-.406.774-.649.861Z"/><defs><radialGradient id="a" cx="0" cy="0" r="1" gradientTransform="rotate(116.565 8.441 5.908) scale(24.5967)" gradientUnits="userSpaceOnUse"><stop stop-color="#F4F4F4"/><stop offset="1" stop-color="#BBB"/></radialGradient></defs></svg>