<svg xmlns="http://www.w3.org/2000/svg" width="24" height="24" fill="none"><rect width="22" height="22" x="1" y="1" fill="url(#a)" rx="6.6"/><path fill="#F44336" fill-rule="evenodd" d="m15.289 6 .118.158-.576 2.22-.219.036-1.397-2.22.101-.194h1.973Zm-4.605 0 .097.2-1.643 2.342-.22-.057-.329-2.343L8.711 6h1.973Zm5.85.044L19 9.25l-.095.203h-3.452l-.117-.163.986-3.206.212-.04Zm-4.44 0 2.467 3.206-.095.203H9.534l-.095-.203 2.466-3.206h.19Zm-4.628 0 .212.04.986 3.206-.117.163H5.095L5 9.25l2.466-3.206Zm11.44 3.902.09.207-6.413 7.152-.203-.132 2.96-7.152.113-.075h3.452Zm-4.44 0 .114.17-2.466 6.166h-.228L9.42 10.117l.114-.171h4.932Zm-5.919 0 .114.075 2.96 7.152-.205.132-6.412-7.152.09-.207h3.453Z" clip-rule="evenodd"/><defs><radialGradient id="a" cx="0" cy="0" r="1" gradientTransform="rotate(116.565 8.441 5.908) scale(24.5967)" gradientUnits="userSpaceOnUse"><stop stop-color="#F4F4F4"/><stop offset="1" stop-color="#BBB"/></radialGradient></defs></svg>