<svg xmlns="http://www.w3.org/2000/svg" width="24" height="24" fill="none"><rect width="22" height="22" x="1" y="1" fill="url(#a)" rx="6.6"/><path fill="#2F5FDD" d="M17.4 14.202c-.044.948-.3 1.787-.767 2.516-.467.723-1.125 1.284-1.973 1.683-.842.4-1.805.599-2.89.599-1.79 0-3.198-.583-4.227-1.749C6.514 16.085 6 14.44 6 12.313v-.673c0-1.334.23-2.5.692-3.498.468-1.003 1.138-1.777 2.01-2.319.874-.549 1.884-.823 3.03-.823 1.653 0 2.981.436 3.985 1.31 1.004.866 1.574 2.063 1.711 3.59h-3.273c-.025-.829-.234-1.424-.627-1.786-.392-.361-.99-.542-1.795-.542-.817 0-1.415.305-1.796.916-.38.611-.58 1.587-.598 2.927v.964c0 1.452.18 2.49.542 3.114.368.623.998.935 1.89.935.754 0 1.33-.178 1.73-.533.398-.355.61-.92.635-1.693H17.4Z"/><defs><radialGradient id="a" cx="0" cy="0" r="1" gradientTransform="rotate(116.565 8.441 5.908) scale(24.5967)" gradientUnits="userSpaceOnUse"><stop stop-color="#F4F4F4"/><stop offset="1" stop-color="#BBB"/></radialGradient></defs></svg>