<svg xmlns="http://www.w3.org/2000/svg" width="24" height="24" fill="none"><rect width="22" height="22" x="1" y="1" fill="url(#a)" rx="6.6"/><path fill="#ABACAE" d="M4.32 6c-.177 0-.32.134-.32.3v.6c0 .166.143.3.32.3h.64c.177 0 .32-.134.32-.3v-.6c0-.166-.143-.3-.32-.3h-.64Zm3.2 0c-.177 0-.32.134-.32.3v.6c0 .166.143.3.32.3H18.4c.177 0 .32-.134.32-.3v-.6c0-.166-.143-.3-.32-.3H7.52Zm-3.2 10.8c-.177 0-.32.134-.32.3v.6c0 .166.143.3.32.3h.64c.177 0 .32-.134.32-.3v-.6c0-.166-.143-.3-.32-.3h-.64Zm3.2 0c-.177 0-.32.134-.32.3v.6c0 .166.143.3.32.3H18.4c.177 0 .32-.134.32-.3v-.6c0-.166-.143-.3-.32-.3H7.52Z"/><path fill="#ED5353" d="M5.6 9.6c-.177 0-.32.134-.32.3v.6c0 .166.143.3.32.3h.64c.177 0 .32-.134.32-.3v-.6c0-.166-.143-.3-.32-.3H5.6Zm3.2 0c-.177 0-.32.134-.32.3v.6c0 .166.143.3.32.3h10.88c.177 0 .32-.134.32-.3v-.6c0-.166-.143-.3-.32-.3H8.8Z"/><path fill="#68B723" d="M5.6 13.2c-.177 0-.32.134-.32.3v.6c0 .166.143.3.32.3h.64c.177 0 .32-.134.32-.3v-.6c0-.166-.143-.3-.32-.3H5.6Zm3.2 0c-.177 0-.32.134-.32.3v.6c0 .166.143.3.32.3h10.88c.177 0 .32-.134.32-.3v-.6c0-.166-.143-.3-.32-.3H8.8Z"/><defs><radialGradient id="a" cx="0" cy="0" r="1" gradientTransform="rotate(116.565 8.441 5.908) scale(24.5967)" gradientUnits="userSpaceOnUse"><stop stop-color="#F4F4F4"/><stop offset="1" stop-color="#BBB"/></radialGradient></defs></svg>