<svg xmlns="http://www.w3.org/2000/svg" width="24" height="24" fill="none"><rect width="22" height="22" x="1" y="1" fill="url(#a)" rx="6.6"/><path fill="#DD4F37" fill-rule="evenodd" d="M13.564 5c.586 2.311-2.07 3.01-3.028 4.449-.653.98.32 2.034 1.647 3.232-.517-1.17-2.272-2.193 0-3.989C15.019 6.455 13.564 5 13.564 5Zm1.753 2.86s-4.792 1.196-2.503 3.834c.675.778-.178 1.477-.178 1.477s1.715-.885.928-1.994c-.736-1.033-1.3-1.547 1.753-3.317Zm.849 4.711c-.168 0-.347.03-.53.094-.148.052-.225.173-.225.173s.093-.037.3-.08c.848-.177 2.063 1.135-.564 2.5-.012.032-.052.068-.052.068 3.123-.821 2.442-2.758 1.071-2.755Zm-5.628.133c-.206-.005-1.096.009-2.159.523-1.437.695 3.555 1.011 6.139.332.268-.184.64-.343.64-.343s-1.057.19-2.11.277c-1.29.109-2.672.13-3.366.037-1.644-.22.9-.824.9-.824l-.044-.002Zm-.548 1.59c-2.37.787 1.32 1.68 4.633.71-.352-.123-.575-.35-.575-.35-1.62.311-2.556.301-3.742.179-.916-.095-.316-.539-.316-.539Zm.335 1.533c-2.152.601 1.31 1.844 4.05.67a5.068 5.068 0 0 1-.77-.377c-1.222.231-1.79.25-2.899.123-.915-.105-.38-.416-.38-.416ZM8.83 16.843c-.967.03-2.857.899-1.128 1.18 5.588.905 10.186-.409 8.736-1.063 0 0 .396.327-.436.58-1.581.478-6.584.623-7.973.018-.5-.217.437-.518.732-.582.307-.066.482-.054.482-.054-.087-.061-.234-.085-.413-.08Zm8.496.83s-.177.453-2.084.812c-2.152.405-4.806.357-6.38.098 0 0 .322.266 1.979.373 2.52.161 6.393-.09 6.485-1.282Z" clip-rule="evenodd"/><defs><radialGradient id="a" cx="0" cy="0" r="1" gradientTransform="rotate(116.565 8.441 5.908) scale(24.5967)" gradientUnits="userSpaceOnUse"><stop stop-color="#F4F4F4"/><stop offset="1" stop-color="#BBB"/></radialGradient></defs></svg>