<svg xmlns="http://www.w3.org/2000/svg" width="24" height="24" fill="none"><rect width="22" height="22" x="1" y="1" fill="url(#a)" rx="6.6"/><g opacity=".75"><path fill="#46A926" d="M17.648 6.348c-.056.057 2.349 5.651 2.349 5.651l-2.349 5.65s-5.65-2.987-5.65-5.65c0-2.664 5.65-5.651 5.65-5.651Z"/><path fill="#F22C42" d="M6.348 17.648C6.405 17.591 4 11.998 4 11.998l2.348-5.65s5.65 2.987 5.65 5.651c0 2.663-5.65 5.65-5.65 5.65Z"/><path fill="#FFDA64" d="M17.648 6.348C17.592 6.405 11.998 4 11.998 4l-5.65 2.348 5.65 5.651 5.65-5.651Z"/><path fill="#2F5FDD" d="m6.348 17.648 5.65 2.341s5.593-2.398 5.651-2.34L12 11.998l-5.65 5.65Z"/><path fill="#A6D74F" d="M11.999 4.003a7.962 7.962 0 0 0 2.347 5.654l3.308-3.307a7.998 7.998 0 0 0-5.652-2.347H12Z"/><path fill="#76C22B" d="m17.654 6.35-3.308 3.307A7.95 7.95 0 0 0 20 11.997a8.001 8.001 0 0 0-2.346-5.647Z"/><path fill="#1463A5" d="M14.338 14.346A7.967 7.967 0 0 0 11.991 20h.08a7.998 7.998 0 0 0 5.58-2.341l-3.313-3.313Z"/><path fill="#2B898F" d="M20 12.006a7.951 7.951 0 0 0-5.662 2.34l3.313 3.314A8.001 8.001 0 0 0 20 12.006Z"/><path fill="#9B33AE" d="M4.003 12v.003a8.001 8.001 0 0 0 2.342 5.648l3.313-3.312a7.952 7.952 0 0 0-5.655-2.34Z"/><path fill="#7839B7" d="M9.657 14.339 6.344 17.65A7.998 7.998 0 0 0 11.954 20h.05a7.966 7.966 0 0 0-2.347-5.661Z"/><path fill="#FDC92B" d="M12.002 4.003a7.998 7.998 0 0 0-5.648 2.344l3.311 3.31a7.965 7.965 0 0 0 2.348-5.652H12l.001-.002Z"/><path fill="#F34F17" d="M6.354 6.347a8.001 8.001 0 0 0-2.35 5.65 7.95 7.95 0 0 0 5.661-2.34l-3.31-3.31Z"/></g><path fill="#fff" d="M12 17.714a5.714 5.714 0 1 0 0-11.428 5.714 5.714 0 0 0 0 11.428Z" opacity=".35"/><defs><radialGradient id="a" cx="0" cy="0" r="1" gradientTransform="rotate(116.565 8.441 5.908) scale(24.5967)" gradientUnits="userSpaceOnUse"><stop stop-color="#F4F4F4"/><stop offset="1" stop-color="#BBB"/></radialGradient></defs></svg>