<svg xmlns="http://www.w3.org/2000/svg" width="24" height="24" fill="none"><rect width="22" height="22" x="1" y="1" fill="url(#a)" rx="6.6"/><path fill="#1A7FD4" d="M17.385 6.107c.58.165 1.021.458 1.426.936.21.255.522.721.547.833.008.033-.985.791-1.585 1.216-.022.016-.11-.09-.207-.256-.293-.486-.6-.696-1.072-.734-.691-.053-1.136.36-1.133 1.048 0 .202.025.321.098.486.152.359.434.573 1.321 1.01 1.633.8 2.332 1.328 2.767 2.078.485.837.593 2.173.264 3.166-.362 1.08-1.26 1.815-2.524 2.058-.39.078-1.318.066-1.738-.02-.916-.186-1.784-.702-2.32-1.378-.21-.264-.62-.952-.594-1.002.01-.016.105-.082.21-.152l.847-.557.655-.433.138.231c.192.334.612.792.865.944.728.437 1.727.376 2.22-.127.21-.22.297-.446.297-.78 0-.3-.033-.433-.17-.66-.178-.288-.54-.531-1.568-1.038-1.177-.578-1.684-.936-2.147-1.505a3.59 3.59 0 0 1-.627-1.299c-.086-.367-.108-1.286-.04-1.657.243-1.295 1.101-2.198 2.34-2.466.401-.086 1.335-.053 1.73.058ZM12.03 7.19l.008 1.064h-2.97v9.606h-2.1V8.255H4V7.212c0-.577.01-1.06.025-1.072.011-.017 1.818-.025 4.008-.02l3.986.012.011 1.06Z"/><defs><radialGradient id="a" cx="0" cy="0" r="1" gradientTransform="rotate(116.565 8.441 5.908) scale(24.5967)" gradientUnits="userSpaceOnUse"><stop stop-color="#F4F4F4"/><stop offset="1" stop-color="#BBB"/></radialGradient></defs></svg>