<svg xmlns="http://www.w3.org/2000/svg" width="24" height="24" fill="none"><rect width="22" height="22" x="1" y="1" fill="url(#a)" rx="6.6"/><path fill="#007ACC" d="M8.947 7.777v9.335H7.069V7.777H4V6h7.998v1.777H8.947Zm3.497 7.282 1.514-.663c.144.492.406.868.79 1.128.382.256.871.383 1.466.383.563 0 1.01-.147 1.338-.443.337-.296.505-.692.505-1.188 0-.648-.572-1.224-1.707-1.73a8.934 8.934 0 0 0-.368-.166c-1.285-.591-2.054-1.126-2.486-1.603a2.566 2.566 0 0 1-.637-1.76c0-.897.323-1.624.964-2.182.649-.556 1.495-.835 2.544-.835.86 0 1.579.158 2.16.474.578.31.98.76 1.203 1.347l-1.482.722a2.383 2.383 0 0 0-.773-.76 1.87 1.87 0 0 0-.957-.241c-.51 0-.917.126-1.22.376a1.25 1.25 0 0 0-.447 1.008c0 .662.66 1.28 1.978 1.851l.238.106c1.154.5 1.856.991 2.286 1.475.432.475.647 1.072.647 1.789 0 1.043-.348 1.875-1.045 2.491-.695.612-1.636.917-2.822.917-.991 0-1.807-.215-2.446-.646-.631-.432-1.046-1.049-1.243-1.852v.002Z"/><defs><radialGradient id="a" cx="0" cy="0" r="1" gradientTransform="rotate(116.565 8.441 5.908) scale(24.5967)" gradientUnits="userSpaceOnUse"><stop stop-color="#F4F4F4"/><stop offset="1" stop-color="#BBB"/></radialGradient></defs></svg>