<svg xmlns="http://www.w3.org/2000/svg" width="24" height="24" fill="none"><rect width="22" height="22" x="1" y="1" fill="url(#a)" rx="6.6"/><path stroke="#455A64" stroke-width="1.077" d="M18.462 8H5.538A.538.538 0 0 0 5 8.538V15c0 .297.241.539.538.539h12.924A.539.539 0 0 0 19 15V8.538A.538.538 0 0 0 18.462 8Z"/><path fill="#455A64" d="M7.153 13.922V9.615H8.23l1.346 1.682 1.346-1.682H12v4.307h-1.077v-2.625L9.576 12.98 8.23 11.297v2.625H7.153ZM15.23 13.922l-1.614-2.154h1.076V9.615h1.077v2.153h1.077l-1.615 2.154Z"/><defs><radialGradient id="a" cx="0" cy="0" r="1" gradientTransform="rotate(116.565 8.441 5.908) scale(24.5967)" gradientUnits="userSpaceOnUse"><stop stop-color="#F4F4F4"/><stop offset="1" stop-color="#BBB"/></radialGradient></defs></svg>