<svg xmlns="http://www.w3.org/2000/svg" width="24" height="24" fill="none"><rect width="22" height="22" x="1" y="1" fill="url(#a)" rx="6.6"/><path fill="#D00310" d="M4 4v16h16V4H4Zm.727.727h14.546v14.546H4.727V4.727ZM6.182 6.91v.727h.727V6.91h-.727Zm.727.727v1.455h1.455V7.636H6.909Zm1.455 0h.727V6.91h-.727v.727Zm0 1.455v.727h.727v-.727h-.727Zm-1.455 0h-.727v.727h.727v-.727Zm8-2.182v.727h.727V6.91h-.727Zm.727.727v1.455h1.455V7.636h-1.455Zm1.455 0h.727V6.91h-.727v.727Zm0 1.455v.727h.727v-.727h-.727Zm-1.455 0h-.727v.727h.727v-.727Zm-5.818 3.636v1.455h4.364v-1.455H9.818Zm4.364 1.455v1.454h1.454v-1.454h-1.454Zm1.454 1.454v1.455h1.455v-1.455h-1.455Zm-5.818-1.454H8.364v1.454h1.454v-1.454Zm-1.454 1.454H6.909v1.455h1.455v-1.455Z" opacity=".75"/><defs><radialGradient id="a" cx="0" cy="0" r="1" gradientTransform="rotate(116.565 8.441 5.908) scale(24.5967)" gradientUnits="userSpaceOnUse"><stop stop-color="#F4F4F4"/><stop offset="1" stop-color="#BBB"/></radialGradient></defs></svg>