<svg xmlns="http://www.w3.org/2000/svg" width="24" height="24" fill="none"><rect width="22" height="22" x="1" y="1" fill="url(#a)" rx="6.6"/><path fill="#8F76E4" d="M11.821 8a3.99 3.99 0 0 0-1.873.443l.292.798a3.04 3.04 0 0 1 1.447-.377c.389 0 .684.1.886.3.202.192.303.443.303.753 0 .192-.045.37-.135.532-.082.162-.19.318-.325.465-.135.148-.277.296-.426.443a4.3 4.3 0 0 0-.427.466 2.47 2.47 0 0 0-.336.532 1.616 1.616 0 0 0-.123.642c0 .162.015.318.045.465h.874a.604.604 0 0 1-.011-.121v-.122c0-.244.049-.462.146-.654.097-.2.217-.38.359-.543.142-.17.299-.332.47-.487.172-.156.33-.318.472-.488.142-.17.261-.35.359-.543.097-.2.145-.425.145-.676 0-.2-.033-.406-.1-.62a1.413 1.413 0 0 0-.337-.599 1.796 1.796 0 0 0-.662-.432C12.595 8.06 12.247 8 11.821 8Zm-2.976 2.072L4 12.1v.886l4.845 2.028.291-.853-3.981-1.618 3.981-1.618-.291-.853Zm6.31 0-.291.853 3.98 1.618-3.98 1.618.291.853L20 12.986V12.1l-4.845-2.028Zm-3.513 4.443c-.232 0-.415.074-.55.222a.748.748 0 0 0-.202.52c0 .2.068.373.202.521.135.148.318.222.55.222.232 0 .415-.074.55-.222a.748.748 0 0 0 .201-.52c0-.2-.067-.373-.202-.521-.134-.148-.317-.222-.55-.222Z"/><defs><radialGradient id="a" cx="0" cy="0" r="1" gradientTransform="rotate(116.565 8.441 5.908) scale(24.5967)" gradientUnits="userSpaceOnUse"><stop stop-color="#F4F4F4"/><stop offset="1" stop-color="#BBB"/></radialGradient></defs></svg>