<svg xmlns="http://www.w3.org/2000/svg" width="24" height="24" fill="none"><rect width="22" height="22" x="1" y="1" fill="url(#a)" rx="6.6"/><path fill="#999" d="M13.143 4.553v.551H20v-.551h-6.857Zm0 1.655v.551H20v-.551h-6.857Zm0 1.655v.551H20v-.551h-6.857Zm0 1.655v.551H20v-.551h-6.857Zm0 1.655v.552H20v-.552h-6.857Zm-9.141 1.655v.552H20v-.552H4.002Zm0 1.655v.552H20v-.552H4.002Zm0 1.655v.552H20v-.552H4.002Zm0 1.655v.552H20v-.552H4.002Zm0 1.655V20h9.141v-.552H4.002ZM7.511 4l-2.819 7.172H4v.552h2v-.552h-.64l.667-1.656h3.315l.667 1.656h-.865v.552h2.868v-.552h-.791L8.401 4h-.89Zm.174 1.242 1.459 3.724H6.25l1.435-3.724Z"/><defs><radialGradient id="a" cx="0" cy="0" r="1" gradientTransform="rotate(116.565 8.441 5.908) scale(24.5967)" gradientUnits="userSpaceOnUse"><stop stop-color="#F4F4F4"/><stop offset="1" stop-color="#BBB"/></radialGradient></defs></svg>