<svg xmlns="http://www.w3.org/2000/svg" width="24" height="24" fill="none"><rect width="22" height="22" x="1" y="1" fill="url(#a)" rx="6.6"/><path fill="#A2AAB9" d="M4.296 13.846h1.187c.163 0 .295.091.295.205v.821a.152.152 0 0 1-.022.08.22.22 0 0 1-.065.066.327.327 0 0 1-.097.044.413.413 0 0 1-.114.015H4.296a.372.372 0 0 1-.21-.06c-.055-.038-.086-.09-.086-.145v-.821c0-.114.132-.205.296-.205Zm2.916 0c-.135.006-.251.079-.249.158v.915c0 .084.13.158.273.158h10.119c.143 0 .276-.074.273-.158v-.915c0-.084-.13-.158-.273-.158H7.212Z"/><path fill="#ABD56B" d="M5.48 16.308h1.187c.164 0 .296.092.296.205v.82a.152.152 0 0 1-.023.079.22.22 0 0 1-.064.066.327.327 0 0 1-.097.045.413.413 0 0 1-.114.015H5.48a.372.372 0 0 1-.209-.06c-.055-.039-.086-.09-.086-.145v-.822c0-.111.132-.203.295-.203Zm2.916 0c-.134.006-.25.078-.248.157v.915c0 .083.13.16.275.158H18.54c.143 0 .275-.075.273-.157v-.915c0-.083-.13-.16-.273-.158H8.396Z"/><path fill="#A2AAB9" d="M4.296 18.769h1.187c.163 0 .295.093.295.205v.821a.152.152 0 0 1-.022.079.22.22 0 0 1-.065.067.33.33 0 0 1-.097.044.413.413 0 0 1-.114.015H4.296a.372.372 0 0 1-.21-.06c-.055-.038-.086-.09-.086-.145v-.822c0-.113.132-.204.296-.204Zm2.916 0c-.135.006-.251.079-.249.158v.915c0 .084.13.158.273.158h10.119c.143 0 .276-.074.273-.158v-.915c0-.084-.13-.158-.273-.158H7.212ZM4.296 4h1.187c.163 0 .295.091.295.205v.821a.152.152 0 0 1-.022.08.22.22 0 0 1-.065.066.328.328 0 0 1-.097.044.413.413 0 0 1-.114.015H4.296a.372.372 0 0 1-.21-.06C4.032 5.133 4 5.081 4 5.026v-.821C4 4.09 4.132 4 4.296 4Zm2.916 0c-.135.006-.251.08-.249.158v.915c0 .084.13.158.273.158h10.119c.143 0 .276-.074.273-.158v-.915c0-.084-.13-.158-.273-.158H7.212Z"/><path fill="#ABD56B" d="M5.48 6.462h1.187c.164 0 .296.092.296.205v.82a.152.152 0 0 1-.023.079.22.22 0 0 1-.064.066.328.328 0 0 1-.097.045.413.413 0 0 1-.114.015H5.48a.372.372 0 0 1-.209-.06c-.055-.038-.086-.09-.086-.145v-.822c0-.111.132-.203.295-.203Zm2.916 0c-.134.006-.25.078-.248.157v.915c0 .083.13.16.275.158H18.54c.143 0 .275-.075.273-.157V6.62c0-.083-.13-.16-.273-.158H8.396ZM5.48 11.385h1.187c.164 0 .296.092.296.205v.82a.152.152 0 0 1-.023.079.22.22 0 0 1-.064.066.33.33 0 0 1-.097.045.417.417 0 0 1-.114.015H5.48a.372.372 0 0 1-.209-.06c-.055-.038-.086-.09-.086-.145v-.822c0-.111.132-.203.295-.203Zm2.916 0c-.134.006-.25.078-.248.157v.915c0 .083.13.16.275.158H18.54c.143 0 .275-.075.273-.157v-.915c0-.083-.13-.16-.273-.158H8.396Z"/><path fill="#EFB458" d="M6.665 8.923h1.187c.164 0 .296.093.296.205v.821c0 .055-.031.107-.087.145a.372.372 0 0 1-.209.06H6.665a.372.372 0 0 1-.209-.06c-.055-.038-.086-.09-.086-.145v-.821c0-.114.134-.205.295-.205Zm2.918 0c-.136.006-.253.079-.25.158v.915c0 .084.13.158.275.158h10.116c.144 0 .276-.074.276-.158V9.08c0-.084-.132-.158-.276-.158H9.584Z"/><defs><radialGradient id="a" cx="0" cy="0" r="1" gradientTransform="rotate(116.565 8.441 5.908) scale(24.5967)" gradientUnits="userSpaceOnUse"><stop stop-color="#F4F4F4"/><stop offset="1" stop-color="#BBB"/></radialGradient></defs></svg>