<svg xmlns="http://www.w3.org/2000/svg" width="24" height="24" fill="none"><rect width="22" height="22" x="1" y="1" fill="url(#a)" rx="6.6"/><path fill="#95458D" d="M5 4.271V20h2.99c.01-2.05-.024-4.1.02-6.15.074-.962.133-2.188 1.14-2.715a2.67 2.67 0 0 1 1.907-.18c.895.264 1.045 1.315 1.083 2.071.015 2.325.003 4.65.007 6.974h2.977c-.006-2.612.023-5.252 0-7.864-.03-1.313-.62-2.75-2-3.35-1.178-.511-2.573-.359-3.77.054-.564.195-1.343 1.143-1.343 1.143l-.022-5.712H5Z"/><path fill="#95458D" d="M11.854 4v1.627h-1.787v.542h1.787v1.628h.595V6.169h1.787v-.542h-1.787V4h-.595ZM16.618 4v1.627H14.83v.542h1.787v1.628h.595V6.169H19v-.542h-1.787V4h-.595Z" opacity=".75"/><defs><radialGradient id="a" cx="0" cy="0" r="1" gradientTransform="rotate(116.565 8.441 5.908) scale(24.5967)" gradientUnits="userSpaceOnUse"><stop stop-color="#F4F4F4"/><stop offset="1" stop-color="#BBB"/></radialGradient></defs></svg>