<svg xmlns="http://www.w3.org/2000/svg" width="24" height="24" fill="none"><rect width="22" height="22" x="1" y="1" fill="url(#a)" rx="6.6"/><path fill="#347AB4" d="M11.697 3.2c-2.018 0-3.642.812-3.642 1.82v2.428h3.642v.607H5.02C4.012 8.055 3.2 9.68 3.2 11.697v.606c0 2.018.812 3.642 1.82 3.642h2.428v-1.82s0-2.428 2.428-2.428h4.855s1.214 0 1.214-1.214V5.02c0-1.009-1.624-1.821-3.642-1.821h-.606ZM9.876 4.414a.607.607 0 1 1 0 1.214.607.607 0 0 1 0-1.214Z"/><path fill="#FFD43B" d="M12.303 20.8c2.018 0 3.642-.812 3.642-1.82v-2.428h-3.642v-.607h6.676c1.009 0 1.821-1.624 1.821-3.642v-.606c0-2.018-.812-3.642-1.82-3.642h-2.428v2.428c0 1.82-1.821 1.82-1.821 1.82H9.876c-1.82 0-1.82 1.821-1.82 1.821v4.855c0 1.009 1.623 1.821 3.64 1.821h.607Zm1.821-1.82a.607.607 0 1 1 0-1.215.607.607 0 0 1 0 1.214Z"/><defs><radialGradient id="a" cx="0" cy="0" r="1" gradientTransform="rotate(116.565 8.441 5.908) scale(24.5967)" gradientUnits="userSpaceOnUse"><stop stop-color="#F4F4F4"/><stop offset="1" stop-color="#BBB"/></radialGradient></defs></svg>