<svg xmlns="http://www.w3.org/2000/svg" width="24" height="24" fill="none"><rect width="22" height="22" x="1" y="1" fill="url(#a)" rx="6.6"/><path fill="#76C22B" d="M7.43 4v.432h6.856V4H7.43Zm0 1.297v.433H20v-.433H7.43Zm0 1.297v.433H12v-.433H7.43ZM4 16.973v.432h15.999v-.432H4Z"/><path fill="#8F76E4" d="M6.285 9.19v.431h9.428V9.19H6.285Zm0 1.296v.433h3.428v-.433H6.285Zm0 1.297v.433h8v-.432h-8Z"/><path fill="#46A926" d="M4 7.892v.432h4.571v-.432H4Z"/><path fill="#76C22B" d="M9.714 13.08v.433h3.429v-.432H9.714Zm-3.428 1.298v.432h6.857v-.432H6.285Z"/><path fill="#46A926" d="M4 13.08v.433h4.571v-.432H4Zm0 2.595v.433h4.571v-.433H4ZM4 4v.432h2.286V4H4Zm0 1.297v.433h2.286v-.433H4Zm0 1.297v.433h2.286v-.433H4Z"/><path fill="#F22C42" d="M14.286 14.378v.432h3.429v-.432h-3.429ZM10.857 10.486v.433h3.428v-.433h-3.428Z"/><path fill="#76C22B" d="M4 18.27v.433h15.999v-.433H4Zm0 1.298V20h8v-.432H4Z"/><defs><radialGradient id="a" cx="0" cy="0" r="1" gradientTransform="rotate(116.565 8.441 5.908) scale(24.5967)" gradientUnits="userSpaceOnUse"><stop stop-color="#F4F4F4"/><stop offset="1" stop-color="#BBB"/></radialGradient></defs></svg>