<svg xmlns="http://www.w3.org/2000/svg" width="24" height="24" fill="none"><rect width="22" height="22" x="1" y="1" fill="url(#a)" rx="6.6"/><path fill="#2B898F" d="M6.75 9H8.5v.875H6.75s-.875 0-.875.875v2.625c0 .875.875.875.875.875H8.5v.875H6.75s-1.75 0-1.75-1.75V10.75C5 9 6.75 9 6.75 9Zm4.375.875H12v1.75h1.75v.875H12v1.75h-.875V12.5h-1.75v-.875h1.75v-1.75Zm5.25 0h.875v1.75H19v.875h-1.75v1.75h-.875V12.5h-1.75v-.875h1.75v-1.75Z"/><defs><radialGradient id="a" cx="0" cy="0" r="1" gradientTransform="rotate(116.565 8.441 5.908) scale(24.5967)" gradientUnits="userSpaceOnUse"><stop stop-color="#F4F4F4"/><stop offset="1" stop-color="#BBB"/></radialGradient></defs></svg>