<svg xmlns="http://www.w3.org/2000/svg" width="24" height="24" fill="none"><rect width="22" height="22" x="1" y="1" fill="url(#a)" rx="6.6"/><path fill="#999" d="M11.878 5c-.623 0-1.193.071-1.711.214-.506.142-.895.292-1.167.447l.37 1.05c.712-.389 1.503-.583 2.372-.583.31 0 .609.026.894.078.285.051.532.149.739.291.22.143.395.337.525.584.13.233.194.531.194.894 0 .402-.077.765-.233 1.089a4.81 4.81 0 0 1-.583.894c-.234.272-.487.545-.759.817-.272.26-.525.538-.758.836a4.603 4.603 0 0 0-.583.972 2.756 2.756 0 0 0-.234 1.167c0 .155.007.311.02.466.013.143.032.28.058.409h1.011a.995.995 0 0 1-.02-.194V14.1c0-.428.085-.817.254-1.167a4.36 4.36 0 0 1 .641-.972c.26-.311.532-.61.817-.895.298-.285.577-.583.836-.894a4.6 4.6 0 0 0 .642-1.011c.168-.363.252-.778.252-1.244 0-.337-.058-.681-.175-1.031a2.364 2.364 0 0 0-.583-.933c-.272-.285-.642-.512-1.108-.68C13.135 5.09 12.565 5 11.878 5Zm-.253 11.861c-.337 0-.603.104-.797.311-.182.208-.272.46-.272.758 0 .299.09.551.272.759.194.207.46.311.797.311s.596-.104.778-.311c.194-.208.291-.46.291-.759 0-.298-.097-.55-.291-.758-.182-.207-.441-.311-.778-.311Z"/><defs><radialGradient id="a" cx="0" cy="0" r="1" gradientTransform="rotate(116.565 8.441 5.908) scale(24.5967)" gradientUnits="userSpaceOnUse"><stop stop-color="#F4F4F4"/><stop offset="1" stop-color="#BBB"/></radialGradient></defs></svg>