<svg xmlns="http://www.w3.org/2000/svg" width="24" height="24" fill="none"><rect width="22" height="22" x="1" y="1" fill="url(#a)" rx="6.6"/><path fill="url(#b)" d="M15.417 14.693a2.07 2.07 0 0 1-2.07 2.07H6.841a2.07 2.07 0 0 1-2.07-2.07V9.37a2.07 2.07 0 0 1 2.07-2.07h6.506a2.07 2.07 0 0 1 2.07 2.07v5.323Zm2.872-6.508c.512 0 .931.4.96.906l.001.055v5.814a.961.961 0 0 1-1.534.772l-.046-.037-1.314-1.105a.975.975 0 0 1-.347-.746v-3.565c0-.285.125-.556.341-.742l1.315-1.122a.96.96 0 0 1 .556-.228l.068-.002Z"/><path fill="url(#c)" fill-opacity=".5" fill-rule="evenodd" d="M14.964 15.986c.284-.354.453-.804.453-1.293v-4.37l.727-.62a.96.96 0 0 1 .134-.097.975.975 0 0 0-.27.673v3.565c0 .288.128.561.348.746l1.314 1.105.046.037.013.009v.506a.96.96 0 0 1-1.534.772l-.046-.037-1.185-.996Zm-1.205.736a2.07 2.07 0 0 1-1.933 1.328H5.32a2.07 2.07 0 0 1-2.07-2.07v-5.323a2.07 2.07 0 0 1 1.658-2.029c-.088.23-.137.48-.137.742v5.323a2.07 2.07 0 0 0 2.07 2.07h6.506c.141 0 .279-.014.412-.04Z" clip-rule="evenodd"/><defs><linearGradient id="b" x1="19.225" x2="4.873" y1="7.3" y2="16.661" gradientUnits="userSpaceOnUse"><stop stop-color="#967CCC"/><stop offset="1" stop-color="#5E35B1"/></linearGradient><linearGradient id="c" x1="5.122" x2="19.475" y1="17.285" y2="7.3" gradientUnits="userSpaceOnUse"><stop stop-color="#54452A" stop-opacity=".35"/><stop offset="1" stop-color="#7A653E" stop-opacity="0"/></linearGradient><radialGradient id="a" cx="0" cy="0" r="1" gradientTransform="rotate(116.565 8.441 5.908) scale(24.5967)" gradientUnits="userSpaceOnUse"><stop stop-color="#FAFAFA"/><stop offset="1" stop-color="silver"/></radialGradient></defs></svg>