<svg xmlns="http://www.w3.org/2000/svg" width="24" height="24" fill="none"><rect width="22" height="22" x="1" y="1" fill="url(#a)" rx="6.6"/><path fill="#fff" d="M10 1H7v22h3V1Z" opacity=".25"/><path fill="#fff" d="M9.998 1H8.477v22h1.521V1Z" opacity=".25"/><path fill="#fff" d="M13.125 12c-.623 0-1.125.502-1.125 1.125v6.75c0 .623.502 1.125 1.125 1.125h6.75c.623 0 1.125-.502 1.125-1.125v-6.75c0-.623-.502-1.125-1.125-1.125h-6.75Zm0 1.125h6.75v1.125h-6.75v-1.125Zm0 2.25h5.063v1.688h-5.063v-1.688Zm5.625 0h1.125v1.688H18.75v-1.688Zm-5.625 2.813h5.063v1.687h-5.063v-1.688Zm5.625 0h1.125v1.687H18.75v-1.688Z" opacity=".5"/><defs><radialGradient id="a" cx="0" cy="0" r="1" gradientTransform="rotate(116.565 8.441 5.908) scale(24.5967)" gradientUnits="userSpaceOnUse"><stop stop-color="#F8BD62"/><stop offset="1" stop-color="#DD8A0D"/></radialGradient></defs></svg>