<svg xmlns="http://www.w3.org/2000/svg" width="24" height="24" fill="none"><rect width="22" height="22" x="1" y="1" fill="url(#a)" rx="6.6"/><path fill="#fff" d="M12.274 4a3.801 3.801 0 0 0-3.81 3.81v3.809c0 2.11 1.7 3.81 3.81 3.81 2.11 0 3.81-1.7 3.81-3.81v-3.81c0-2.11-1.7-3.809-3.81-3.809ZM9.226 7.048h2.286v.762H9.226v-.762Zm3.81 0h2.286v.762h-2.286v-.762Zm-3.81 2.285h2.286v.762H9.226v-.762Zm3.81 0h2.286v.762h-2.286v-.762Zm-3.81 2.286h2.286v.762H9.226v-.762Zm3.81 0h2.286v.762h-2.286v-.762ZM7 12.381a5.314 5.314 0 0 0 4.512 4.512v.821h.381v1.524H10.75V20h3.048v-.762h-1.143v-1.524h.38v-.821a5.313 5.313 0 0 0 4.513-4.512h-.771a4.556 4.556 0 0 1-4.503 3.81 4.556 4.556 0 0 1-4.503-3.81H7Z" opacity=".75"/><defs><radialGradient id="a" cx="0" cy="0" r="1" gradientTransform="rotate(116.565 8.441 5.908) scale(24.5967)" gradientUnits="userSpaceOnUse"><stop stop-color="#B489C6"/><stop offset="1" stop-color="#814599"/></radialGradient></defs></svg>