<svg width="20" height="24" viewBox="0 0 20 24" fill="none" xmlns="http://www.w3.org/2000/svg">
<path d="M14.2776 6.12242V7.2C14.2776 7.64183 14.6358 8 15.0776 8H16.9224C17.3642 8 17.7224 7.64183 17.7224 7.2V6.12242C17.7224 5.90151 17.9015 5.72242 18.1224 5.72242H19.2C19.6418 5.72242 20 5.36425 20 4.92242V3.07758C20 2.63575 19.6418 2.27758 19.2 2.27758H18.1224C17.9015 2.27758 17.7224 2.09849 17.7224 1.87758V0.8C17.7224 0.358172 17.3642 0 16.9224 0H15.0776C14.6358 0 14.2776 0.358172 14.2776 0.8V1.87758C14.2776 2.09849 14.0985 2.27758 13.8776 2.27758H12.8C12.3582 2.27758 12 2.63575 12 3.07758V4.92242C12 5.36425 12.3582 5.72242 12.8 5.72242H13.8776C14.0985 5.72242 14.2776 5.90151 14.2776 6.12242Z" fill="url(#paint0_linear_51_3)"/>
<defs>
<style id="current-color-scheme" type="text/css">.ColorScheme-Text { color:#ffffff; }</style>
</defs>
<rect width="24" height="24" fill="#A4A4A4" fill-opacity="0.01"/>
<g opacity="0.90">
<path class="ColorScheme-Text" clip-rule="evenodd" d="M0 22.9968C0 23.7242 0.751759 24.2082 1.41386 23.9072L7.7584 21.0228C8.54729 20.6641 9.45272 20.6641 10.2416 21.0228L16.5861 23.9072C17.2482 24.2082 18 23.7242 18 22.9968V12.2852C18 11.3151 17.0514 10.656 16.0813 10.656C15.5015 10.656 14.8896 10.548 14.2454 10.3322C13.0307 9.92007 12.023 9.15442 11.2224 8.03525C10.4218 6.91609 10.0215 5.62078 10.0215 4.14936C10.0215 3.3848 10.1503 2.65418 10.408 1.95752C10.4427 1.86357 10.479 1.77043 10.5167 1.67809C10.8225 0.930435 10.3231 0 9.51534 0H3.7546C2.7289 0 1.84675 0.386993 1.10816 1.16097C0.369386 1.93475 0 2.88222 0 4.00335V22.9968Z" fill="currentColor"/>
</g>
<rect width="20" height="24" fill="#A4A4A4" fill-opacity="0.01"/>
<defs>
<linearGradient id="paint0_linear_51_3" x1="20.7998" y1="-0.800002" x2="11.1998" y2="8.79975" gradientUnits="userSpaceOnUse">
<stop stop-color="#73CFFB"/>
<stop offset="1" stop-color="#3EAAE5"/>
</linearGradient>
</defs>
</svg>
