<svg width="24" height="24" viewBox="0 0 24 24" fill="none" xmlns="http://www.w3.org/2000/svg">
<defs>
<style id="current-color-scheme" type="text/css">.ColorScheme-Text { color:#ffffff; }</style>
</defs>
<rect width="24" height="24" fill="#A4A4A4" fill-opacity="0.01"/>
<g opacity="0.90">
<path class="ColorScheme-Text" d="M5 14.25C5 14.3881 5.11193 14.5 5.25 14.5H5.74853C6.23298 14.5 6.70096 14.3242 7.06554 14.0052L14.5 7.5L13.75 6.75L13 6L5.68299 12.4024C5.24896 12.7822 5 13.3308 5 13.9075V14.25ZM2.49504 16.7477C2.21889 16.7477 1.99504 16.5238 1.99504 16.2477V13.7285C1.99504 12.5459 2.51833 11.424 3.42436 10.664L15.335 0.672897C15.6129 0.440291 15.9194 0.26999 16.2545 0.161994C16.5894 0.0539979 16.9318 0 17.2818 0C17.6316 0 17.9801 0.0560748 18.3275 0.168224C18.6749 0.280374 18.9876 0.448598 19.2655 0.672897L21.1712 2.21807C21.4491 2.45068 21.6576 2.71443 21.7965 3.00935C21.9355 3.30409 22.005 3.59485 22.005 3.88162C22.005 4.17952 21.9359 4.4746 21.7977 4.76685C21.6598 5.05911 21.4608 5.31439 21.201 5.53271L8.94641 15.8122C8.22608 16.4165 7.31593 16.7477 6.37574 16.7477H2.49504ZM14.5 7.5L13.75 6.75L13 6L14.5 7.5Z" fill="currentColor"/>
</g>
<path d="M1.315 18.7414C0.588746 18.7414 0 19.3302 0 20.0564V22.685C0 23.4113 0.588746 24 1.315 24H22.685C23.4113 24 24 23.4113 24 22.685V20.0564C24 19.3302 23.4113 18.7414 22.685 18.7414H1.315Z" fill="url(#paint0_linear_39_37)"/>
<defs>
<linearGradient id="paint0_linear_39_37" x1="26.3993" y1="18.2156" x2="23.7607" y2="30.258" gradientUnits="userSpaceOnUse">
<stop stop-color="#73CFFB"/>
<stop offset="1" stop-color="#3EAAE5"/>
</linearGradient>
</defs>
</svg>
