<svg width="24" height="24" viewBox="0 0 24 24" fill="none" xmlns="http://www.w3.org/2000/svg">
<rect width="24" height="24" fill="#A4A4A4" fill-opacity="0.01"/>
<rect x="4" y="11" width="7" height="10" fill="url(#paint0_linear_54_15)"/>
<defs>
<style id="current-color-scheme" type="text/css">.ColorScheme-Text { color:#ffffff; }</style>
</defs>
<rect width="24" height="24" fill="#A4A4A4" fill-opacity="0.01"/>
<g opacity="0.90">
<path class="ColorScheme-Text" fill-rule="evenodd" clip-rule="evenodd" d="M0.00431894 6.5H14.9957C14.9985 6.47536 15 6.45029 15 6.42488V3.08382C15 2.6696 14.6642 2.33382 14.25 2.33382H10.7977C10.5216 2.33382 10.2977 2.10996 10.2977 1.83382V0.75C10.2977 0.335787 9.96194 0 9.54772 0H5.47855C5.06433 0 4.72855 0.335787 4.72855 0.75V1.83382C4.72855 2.10996 4.50469 2.33382 4.22855 2.33382H0.75C0.335786 2.33382 0 2.6696 0 3.08382V6.42488C0 6.45029 0.00146632 6.47536 0.00431894 6.5ZM1.07705 7.5C1.07706 7.50065 1.07706 7.50129 1.07706 7.50194V19.2627C1.07706 20.5891 1.42242 21.7103 2.11313 22.6262C2.80385 23.5421 3.64939 24 4.64974 24H10.3503C11.3508 24 12.1963 23.5421 12.8869 22.6262C13.5776 21.7103 13.9229 20.5891 13.9229 19.2627V7.50194C13.9229 7.50129 13.9229 7.50065 13.9229 7.5H1.07705ZM7.07906 18.5391L6.29282 19.7869C5.99939 20.2525 5.32104 20.254 5.02554 19.7897L4.46008 18.9011C4.30439 18.6565 4.30369 18.344 4.4583 18.0986L5.87572 15.8492C5.97836 15.6863 5.97836 15.479 5.87572 15.3161L4.4583 13.0667C4.30369 12.8214 4.30439 12.5089 4.46008 12.2642L5.02554 11.3757C5.32104 10.9113 5.99939 10.9128 6.29282 11.3785L7.07906 12.6262C7.27468 12.9367 7.72691 12.9377 7.92391 12.6281L8.72405 11.3708C9.01877 10.9076 9.69482 10.9076 9.98954 11.3708L10.5569 12.2622C10.7132 12.5079 10.7132 12.8219 10.5569 13.0676L9.12714 15.3142C9.02291 15.478 9.02291 15.6873 9.12714 15.8511L10.5569 18.0978C10.7132 18.3434 10.7132 18.6574 10.5569 18.9031L9.98954 19.7946C9.69482 20.2577 9.01877 20.2577 8.72405 19.7946L7.92391 18.5372C7.72691 18.2277 7.27468 18.2287 7.07906 18.5391Z" fill="currentColor"/>
</g>
<defs>
<linearGradient id="paint0_linear_54_15" x1="10.5" y1="11.746" x2="2.47466" y2="17.3938" gradientUnits="userSpaceOnUse">
<stop stop-color="#E7463E"/>
<stop offset="1" stop-color="#C84D58"/>
</linearGradient>
</defs>
</svg>
