<svg width="24" height="24" viewBox="0 0 24 24" fill="none" xmlns="http://www.w3.org/2000/svg">
<defs>
<style id="current-color-scheme" type="text/css">.ColorScheme-Text { color:#ffffff; }</style>
</defs>
<g opacity="0.90">
<path class="ColorScheme-Text" fill-rule="evenodd" clip-rule="evenodd" d="M19.5735 7.31967C21.4294 5.43746 22.4698 2.90037 22.4698 0.25707C22.4698 0.130809 22.3674 0.0284529 22.2412 0.0284529H21.444C20.9334 0.0284529 20.4441 0.232882 20.0852 0.59611L6.56089 14.285C6.29901 14.1902 6.03873 14.1238 5.78003 14.0858C5.52115 14.0479 5.24833 14.0289 4.96158 14.0289C3.57645 14.0289 2.40708 14.5104 1.45348 15.4733C0.500067 16.4361 0.0233612 17.617 0.0233612 19.0161C0.0233612 20.415 0.500348 21.5935 1.45432 22.5515C2.4083 23.5096 3.57495 23.9886 4.95428 23.9886C6.3338 23.9886 7.49821 23.5098 8.44751 22.5524C9.397 21.5947 9.87174 20.4135 9.87174 19.0087C9.87174 18.7369 9.85303 18.4649 9.81562 18.1929C9.77821 17.921 9.71274 17.6523 9.61922 17.3867L11.7516 15.2241L13.856 17.3867C13.7625 17.6523 13.697 17.921 13.6596 18.1929C13.6222 18.4649 13.6035 18.7369 13.6035 19.0087C13.6035 20.4135 14.0804 21.5947 15.0344 22.5524C15.9884 23.5098 17.155 23.9886 18.5344 23.9886C19.9139 23.9886 21.0783 23.5096 22.0276 22.5515C22.9771 21.5935 23.4518 20.415 23.4518 19.0161C23.4518 17.617 22.9749 16.4361 22.0209 15.4733C21.0669 14.5104 19.9072 14.0289 18.5417 14.0289C18.2486 14.0289 17.9696 14.0479 17.7047 14.0858C17.4397 14.1238 17.1762 14.1902 16.9143 14.285L14.81 12.1508L19.5735 7.31967ZM7.65515 11.0695L10.6854 7.93928L3.38982 0.566579C3.03104 0.204009 2.54215 -2.86102e-06 2.03208 -2.86102e-06H1.23419C1.10783 -2.86102e-06 1.00539 0.102435 1.00539 0.228799C1.00539 2.88901 2.0583 5.44109 3.93407 7.32742L7.65515 11.0695ZM6.1143 17.4136C5.78002 17.1486 5.39404 17.0161 4.95635 17.0161C4.70242 17.0161 4.46606 17.0591 4.24728 17.1449C4.46587 17.0595 4.70201 17.0168 4.95569 17.0168C5.39358 17.0168 5.77978 17.1491 6.1143 17.4136ZM12.6972 11.1605C12.9647 11.4299 13.0984 11.7559 13.0984 12.1386C13.0984 12.5212 12.9656 12.8465 12.7 13.1146C12.4344 13.3827 12.1129 13.5167 11.7356 13.5167C11.3583 13.5167 11.0376 13.3839 10.7732 13.1183C10.5089 12.8527 10.3768 12.5302 10.3768 12.1508C10.3768 11.7638 10.5077 11.4346 10.7696 11.1634C11.0315 10.8921 11.3495 10.7564 11.7236 10.7564C12.1052 10.7564 12.4297 10.8911 12.6972 11.1605ZM1.45648 15.53L1.45699 15.5295C2.3904 14.576 3.6121 14.0554 4.95635 14.0554C6.31569 14.0554 7.53443 14.5951 8.45625 15.5501C9.36762 16.4943 9.85642 17.7006 9.85642 19.0152C9.85642 20.3264 9.37047 21.5359 8.45085 22.4813C7.52099 23.4373 6.30017 23.9607 4.95523 23.9607C3.61513 23.9607 2.40017 23.4422 1.46937 22.5007L1.46886 22.5002C0.527007 21.547 0.0400268 20.3233 0.0400268 19.0058C0.0400268 17.6877 0.531661 16.4751 1.45648 15.53ZM15.0352 15.53L15.0357 15.5295C15.9691 14.576 17.1909 14.0554 18.5351 14.0554C19.8944 14.0554 21.1132 14.5951 22.035 15.5501C22.9464 16.4943 23.4352 17.7006 23.4352 19.0152C23.4352 20.3264 22.9492 21.5359 22.0296 22.4813C21.0997 23.4373 19.8789 23.9607 18.534 23.9607C17.1939 23.9607 15.9789 23.4422 15.0481 22.5007L15.0476 22.5002C14.1058 21.547 13.6188 20.3233 13.6188 19.0058C13.6188 17.6877 14.1104 16.4751 15.0352 15.53Z" fill="currentColor"/>
</g>
<path d="M16.0936 16.565L16.0933 16.5653C15.4403 17.2327 15.0991 18.0732 15.0991 19.0058C15.0991 19.942 15.4383 20.7894 16.1006 21.4597L16.1009 21.4599C16.7577 22.1243 17.5952 22.4804 18.534 22.4804C19.4752 22.4804 20.3145 22.1215 20.9685 21.4491C21.6173 20.7821 21.9548 19.9437 21.9548 19.0152C21.9548 18.085 21.6155 17.247 20.9699 16.5782C20.3191 15.904 19.4814 15.5358 18.5351 15.5358C17.5925 15.5358 16.751 15.8935 16.0936 16.565Z" stroke="black" stroke-width="2.9607"/>
<path d="M16.0936 16.565L16.0933 16.5653C15.4403 17.2327 15.0991 18.0732 15.0991 19.0058C15.0991 19.942 15.4383 20.7894 16.1006 21.4597L16.1009 21.4599C16.7577 22.1243 17.5952 22.4804 18.534 22.4804C19.4752 22.4804 20.3145 22.1215 20.9685 21.4491C21.6173 20.7821 21.9548 19.9437 21.9548 19.0152C21.9548 18.085 21.6155 17.247 20.9699 16.5782C20.3191 15.904 19.4814 15.5358 18.5351 15.5358C17.5925 15.5358 16.751 15.8935 16.0936 16.565Z" stroke="url(#paint0_linear_39_2)" stroke-width="2.9607"/>
<path d="M2.51482 16.565L2.51456 16.5653C1.86152 17.2327 1.52038 18.0732 1.52038 19.0058C1.52038 19.942 1.85956 20.7894 2.52188 21.4597L2.52213 21.4599C3.17892 22.1243 4.01645 22.4804 4.95523 22.4804C5.89643 22.4804 6.73572 22.1215 7.38971 21.4491C8.03856 20.7821 8.37607 19.9437 8.37607 19.0152C8.37607 18.085 8.03672 17.247 7.39114 16.5782C6.74034 15.904 5.90269 15.5358 4.95635 15.5358C4.01372 15.5358 3.17226 15.8935 2.51482 16.565Z" stroke="black" stroke-width="2.9607"/>
<path d="M2.51482 16.565L2.51456 16.5653C1.86152 17.2327 1.52038 18.0732 1.52038 19.0058C1.52038 19.942 1.85956 20.7894 2.52188 21.4597L2.52213 21.4599C3.17892 22.1243 4.01645 22.4804 4.95523 22.4804C5.89643 22.4804 6.73572 22.1215 7.38971 21.4491C8.03856 20.7821 8.37607 19.9437 8.37607 19.0152C8.37607 18.085 8.03672 17.247 7.39114 16.5782C6.74034 15.904 5.90269 15.5358 4.95635 15.5358C4.01372 15.5358 3.17226 15.8935 2.51482 16.565Z" stroke="url(#paint1_linear_39_2)" stroke-width="2.9607"/>
<defs>
<linearGradient id="paint0_linear_39_2" x1="16.19" y1="16.5181" x2="21.7484" y2="20.1411" gradientUnits="userSpaceOnUse">
<stop stop-color="#73CFFB"/>
<stop offset="1" stop-color="#3EAAE5"/>
</linearGradient>
<linearGradient id="paint1_linear_39_2" x1="2.61123" y1="16.5181" x2="8.16964" y2="20.1411" gradientUnits="userSpaceOnUse">
<stop stop-color="#73CFFB"/>
<stop offset="1" stop-color="#3EAAE5"/>
</linearGradient>
</defs>
</svg>
