<svg width="25" height="25" viewBox="0 0 25 25" fill="none" xmlns="http://www.w3.org/2000/svg">
<defs>
<style id="current-color-scheme" type="text/css">.ColorScheme-Text { color:#ffffff; }</style>
</defs>
<rect width="24" height="24" fill="#A4A4A4" fill-opacity="0.01"/>
<g opacity="0.90">
<path class="ColorScheme-Text" d="M10.3178 17.4564C10.3178 18.0087 10.7655 18.4564 11.3178 18.4564H12.8822C13.4345 18.4564 13.8822 18.0087 13.8822 17.4564V14.3822C13.8822 14.106 14.106 13.8822 14.3822 13.8822H17.4564C18.0087 13.8822 18.4564 13.4345 18.4564 12.8822V11.3178C18.4564 10.7655 18.0087 10.3178 17.4564 10.3178H14.3822C14.106 10.3178 13.8822 10.094 13.8822 9.81782V6.74356C13.8822 6.19128 13.4345 5.74356 12.8822 5.74356H11.3178C10.7655 5.74356 10.3178 6.19128 10.3178 6.74356V9.81782C10.3178 10.094 10.094 10.3178 9.81782 10.3178H6.74356C6.19128 10.3178 5.74356 10.7655 5.74356 11.3178V12.8822C5.74356 13.4345 6.19128 13.8822 6.74356 13.8822H9.81782C10.094 13.8822 10.3178 14.106 10.3178 14.3822V17.4564ZM4.1396 24.1C3.00852 24.1 2.05248 23.7095 1.27149 22.9285C0.490495 22.1475 0.1 21.1915 0.1 20.0604V4.1396C0.1 3.00832 0.490495 2.05228 1.27149 1.27149C2.05248 0.490495 3.00852 0.1 4.1396 0.1H20.0604C21.1917 0.1 22.1477 0.490495 22.9285 1.27149C23.7095 2.05228 24.1 3.00832 24.1 4.1396V20.0604C24.1 21.1915 23.7095 22.1475 22.9285 22.9285C22.1477 23.7095 21.1917 24.1 20.0604 24.1H4.1396Z" fill="currentColor"/>
</g>
</svg>
