<svg width="24" height="24" viewBox="0 0 24 24" fill="none" xmlns="http://www.w3.org/2000/svg">
<defs>
<style id="current-color-scheme" type="text/css">.ColorScheme-Text { color:#ffffff; }</style>
</defs>
<g opacity="0.90">
<path class="ColorScheme-Text" d="M4.45902 24C3.23497 24 2.18579 23.6457 1.31148 22.9372C0.437159 22.2287 0 21.3632 0 20.3408V13.3956C0 12.9813 0.335786 12.6456 0.75 12.6456H2.25C2.66421 12.6456 3 12.9813 3 13.3956V18.2556C3 19.0224 3.32787 19.6715 3.98361 20.2029C4.63934 20.7343 5.42623 21 6.34426 21H17.6557C18.5738 21 19.3607 20.7343 20.0164 20.2029C20.6721 19.6715 21 19.0224 21 18.2556V9.08388C21 8.74563 20.8478 8.42534 20.5856 8.21169L14.4988 3.25281C14.2981 3.08929 14.0472 3 13.7883 3H13.1985C12.7843 3 12.4485 2.66421 12.4485 2.25V0.75C12.4485 0.335786 12.7843 0 13.1985 0H14.3844C14.7295 0 15.0642 0.119055 15.3318 0.337084L23.4474 6.94892C23.7971 7.23378 24 7.66084 24 8.11184V20.3408C24 21.3632 23.5628 22.2287 22.6885 22.9372C21.8142 23.6457 20.765 24 19.541 24H4.45902Z" fill="currentColor"/>
</g>
<path d="M9.25 0C9.66421 0 10 0.335787 10 0.75V2.25C10 2.66421 9.66421 3 9.25 3H6.43198C6.20925 3 6.09771 3.26929 6.2552 3.42678L17.2635 14.435C17.654 14.8256 17.654 15.4587 17.2635 15.8492L15.8492 17.2635C15.4587 17.654 14.8256 17.654 14.435 17.2635L3.42678 6.2552C3.26929 6.09771 3 6.20925 3 6.43198V9.25C3 9.66421 2.66421 10 2.25 10H0.75C0.335786 10 0 9.66421 0 9.25V1.5C0 0.671573 0.671573 0 1.5 0H9.25Z" fill="url(#paint0_linear_45_118)"/>
<defs>
<linearGradient id="paint0_linear_45_118" x1="19.7671" y1="-1.79706" x2="-1.79759" y2="19.767" gradientUnits="userSpaceOnUse">
<stop stop-color="#73CFFB"/>
<stop offset="1" stop-color="#3EAAE5"/>
</linearGradient>
</defs>
</svg>
