<svg width="24" height="24" viewBox="0 0 24 24" fill="none" xmlns="http://www.w3.org/2000/svg">
<path d="M15.823 19.943V22.1005C15.823 22.5147 16.1588 22.8505 16.573 22.8505H20.0111C20.4253 22.8505 20.7611 22.5147 20.7611 22.1005V19.943C20.7611 19.5288 20.4253 19.193 20.0111 19.193H16.573C16.1588 19.193 15.823 19.5288 15.823 19.943Z" fill="url(#paint0_linear_54_2)"/>
<path d="M15.823 7.64695V9.80443C15.823 10.2186 16.1588 10.5544 16.573 10.5544H23.25C23.6642 10.5544 24 10.2186 24 9.80443V7.64695C24 7.23274 23.6642 6.89695 23.25 6.89695H16.573C16.1588 6.89695 15.823 7.23274 15.823 7.64695Z" fill="url(#paint1_linear_54_2)"/>
<path d="M15.823 13.7776V15.9699C15.823 16.3841 16.1588 16.7199 16.573 16.7199H22.1615C22.5757 16.7199 22.9115 16.3841 22.9115 15.9699V13.7776C22.9115 13.3634 22.5757 13.0276 22.1615 13.0276H16.573C16.1588 13.0276 15.823 13.3634 15.823 13.7776Z" fill="url(#paint2_linear_54_2)"/>
<defs>
<style id="current-color-scheme" type="text/css">.ColorScheme-Text { color:#ffffff; }</style>
</defs>
<rect width="24" height="24" fill="#A4A4A4" fill-opacity="0.01"/>
<g opacity="0.90">
<path class="ColorScheme-Text" fill-rule="evenodd" clip-rule="evenodd" d="M0.00431894 6.5H14.9957C14.9985 6.47536 15 6.45029 15 6.42488V3.08382C15 2.6696 14.6642 2.33382 14.25 2.33382H10.7977C10.5216 2.33382 10.2977 2.10996 10.2977 1.83382V0.75C10.2977 0.335787 9.96194 0 9.54772 0H5.47855C5.06433 0 4.72855 0.335787 4.72855 0.75V1.83382C4.72855 2.10996 4.50469 2.33382 4.22855 2.33382H0.75C0.335786 2.33382 0 2.6696 0 3.08382V6.42488C0 6.45029 0.00146632 6.47536 0.00431894 6.5ZM1.07705 7.5C1.07706 7.50065 1.07706 7.50129 1.07706 7.50194V19.2627C1.07706 20.5891 1.42242 21.7103 2.11313 22.6262C2.80385 23.5421 3.64939 24 4.64974 24H10.3503C11.3508 24 12.1963 23.5421 12.8869 22.6262C13.5776 21.7103 13.9229 20.5891 13.9229 19.2627V7.50194C13.9229 7.50129 13.9229 7.50065 13.9229 7.5H1.07705ZM3.46322 9.68433C3.46322 9.40819 3.68708 9.18433 3.96322 9.18433H4.44746C4.7236 9.18433 4.94746 9.40818 4.94746 9.68433V21.8048C4.94746 22.0809 4.7236 22.3048 4.44746 22.3048H3.96322C3.68708 22.3048 3.46322 22.0809 3.46322 21.8048V9.68433ZM7.17907 9.18433C6.90293 9.18433 6.67907 9.40819 6.67907 9.68433V21.8048C6.67907 22.0809 6.90293 22.3048 7.17907 22.3048H7.66331C7.93945 22.3048 8.16331 22.0809 8.16331 21.8048V9.68433C8.16331 9.40818 7.93945 9.18433 7.66331 9.18433H7.17907ZM9.89492 9.68433C9.89492 9.40819 10.1188 9.18433 10.3949 9.18433H10.8792C11.1553 9.18433 11.3792 9.40818 11.3792 9.68433V21.8048C11.3792 22.0809 11.1553 22.3048 10.8792 22.3048H10.3949C10.1188 22.3048 9.89492 22.0809 9.89492 21.8048V9.68433Z" fill="currentColor"/>
</g>
<defs>
<linearGradient id="paint0_linear_54_2" x1="23.4159" y1="8.08709" x2="12.3394" y2="13.7948" gradientUnits="userSpaceOnUse">
<stop stop-color="#E7463E"/>
<stop offset="1" stop-color="#C84D58"/>
</linearGradient>
<linearGradient id="paint1_linear_54_2" x1="23.4159" y1="8.08709" x2="12.3394" y2="13.7948" gradientUnits="userSpaceOnUse">
<stop stop-color="#E7463E"/>
<stop offset="1" stop-color="#C84D58"/>
</linearGradient>
<linearGradient id="paint2_linear_54_2" x1="23.4159" y1="8.08709" x2="12.3394" y2="13.7948" gradientUnits="userSpaceOnUse">
<stop stop-color="#E7463E"/>
<stop offset="1" stop-color="#C84D58"/>
</linearGradient>
</defs>
</svg>
