<svg width="24" height="24" viewBox="0 0 24 24" fill="none" xmlns="http://www.w3.org/2000/svg">
<rect width="24" height="24" fill="#A4A4A4" fill-opacity="0.01"/>
<defs>
<style id="current-color-scheme" type="text/css">.ColorScheme-Text { color:#ffffff; }</style>
</defs>
<rect width="24" height="24" fill="#A4A4A4" fill-opacity="0.01"/>
<g opacity="0.90">
<path class="ColorScheme-Text" d="M1.09049 10.9966C0.488229 10.9966 0 10.5083 0 9.90607V1.09049C0 0.488229 0.48823 0 1.09049 0H9.90607C10.5083 0 10.9966 0.48823 10.9966 1.09049V9.90607C10.9966 10.5083 10.5083 10.9966 9.90607 10.9966H1.09049ZM14.1214 24C13.5192 24 13.0309 23.5118 13.0309 22.9095V14.1214C13.0309 13.5192 13.5192 13.0309 14.1214 13.0309H22.9095C23.5118 13.0309 24 13.5192 24 14.1214V22.9095C24 23.5118 23.5118 24 22.9095 24H14.1214ZM1.09049 24C0.488229 24 0 23.5118 0 22.9095V14.0939C0 13.4917 0.48823 13.0034 1.09049 13.0034H9.90607C10.5083 13.0034 10.9966 13.4917 10.9966 14.0939V22.9095C10.9966 23.5118 10.5083 24 9.90607 24H1.09049Z" fill="currentColor"/>
</g>
<path d="M12.134 6.86521L17.1348 11.866C17.5607 12.2918 18.2511 12.2918 18.677 11.866L23.6777 6.86521C24.1036 6.43935 24.1036 5.74888 23.6777 5.32302L18.677 0.322254C18.2511 -0.10361 17.5607 -0.10361 17.1348 0.322254L12.134 5.32302C11.7082 5.74888 11.7082 6.43935 12.134 6.86521Z" fill="#1C1B1F"/>
<path d="M12.134 6.86521L17.1348 11.866C17.5607 12.2918 18.2511 12.2918 18.677 11.866L23.6777 6.86521C24.1036 6.43935 24.1036 5.74888 23.6777 5.32302L18.677 0.322254C18.2511 -0.10361 17.5607 -0.10361 17.1348 0.322254L12.134 5.32302C11.7082 5.74888 11.7082 6.43935 12.134 6.86521Z" fill="url(#paint0_linear_108_2)"/>
<defs>
<linearGradient id="paint0_linear_108_2" x1="24.0399" y1="2.1867" x2="14.7816" y2="9.33694" gradientUnits="userSpaceOnUse">
<stop stop-color="#73CFFB"/>
<stop offset="1" stop-color="#3EAAE5"/>
</linearGradient>
</defs>
</svg>
