<svg width="25" height="25" viewBox="0 0 25 25" fill="none" xmlns="http://www.w3.org/2000/svg">
<defs>
<style id="current-color-scheme" type="text/css">.ColorScheme-Text { color:#ffffff; }</style>
</defs>
<g opacity="0.90">
<path class="ColorScheme-Text" d="M4.5095 24.9592C3.38399 24.9592 2.43266 24.5706 1.65551 23.7935C0.878371 23.0163 0.489799 22.065 0.489799 20.9395V4.97889C0.489799 3.85317 0.878371 2.90184 1.65551 2.1249C2.43266 1.34775 3.38399 0.959183 4.5095 0.959183H12.1967C12.4728 0.959183 12.6967 1.18304 12.6967 1.45918V4.47889C12.6967 4.75503 12.4728 4.97889 12.1967 4.97889H5.5095C4.95722 4.97889 4.5095 5.4266 4.5095 5.97889V19.9395C4.5095 20.4918 4.95722 20.9395 5.5095 20.9395H19.4701C20.0224 20.9395 20.4701 20.4918 20.4701 19.9395V13.2523C20.4701 12.9761 20.694 12.7523 20.9701 12.7523H23.9898C24.2659 12.7523 24.4898 12.9761 24.4898 13.2523V20.9395C24.4898 22.065 24.1012 23.0163 23.3241 23.7935C22.5471 24.5706 21.5958 24.9592 20.4701 24.9592H4.5095Z" fill="currentColor"/>
</g>
<path d="M8.94066 15.8532L9.59766 16.5102C10.1834 17.096 11.1332 17.096 11.719 16.5102L20.0444 8.1848C20.2018 8.02731 20.4711 8.13886 20.4711 8.36158V9.88857C20.4711 10.1647 20.695 10.3886 20.9711 10.3886H23.9908C24.267 10.3886 24.4908 10.1647 24.4908 9.88857V1.96C24.4908 1.40771 24.0431 0.959999 23.4908 0.959999H15.5623C15.2861 0.959999 15.0623 1.18386 15.0623 1.46V4.4797C15.0623 4.75585 15.2861 4.9797 15.5623 4.9797H17.0893C17.312 4.9797 17.4235 5.24899 17.266 5.40648L8.94066 13.7319C8.35487 14.3176 8.35487 15.2674 8.94066 15.8532Z" fill="url(#paint0_linear_45_76)"/>
<defs>
<linearGradient id="paint0_linear_45_76" x1="26.1514" y1="-0.701089" x2="6.21842" y2="19.2314" gradientUnits="userSpaceOnUse">
<stop stop-color="#73CFFB"/>
<stop offset="1" stop-color="#3EAAE5"/>
</linearGradient>
</defs>
</svg>
