<svg xmlns="http://www.w3.org/2000/svg" viewBox="0 0 16 16">
<path fill="#fcfcfc" d="M8.489 5.002c-.482-.032-.953.25-1.233.63-.272.492-.05 1.078-.22 1.597-.104.37 0 .767.271 1.037.231.291.516.672.357 1.064-.229.441-.687.7-1.103.936-.11.044-.252.121-.37.213-.105.028-.19.109-.19.224v1.047c0 .138.11.25.25.25h4.5a.25.25 0 0 0 .25-.25v-1.281c-.557-.303-1.184-.594-1.497-1.182-.106-.462.219-.867.504-1.187.281-.358.17-.83.072-1.229-.042-.442.101-.966-.228-1.328-.357-.362-.872-.509-1.364-.541z" color="#000" overflow="visible" style="isolation:auto;mix-blend-mode:normal"/>
<path fill="#fcfcfc" fill-rule="evenodd" d="M4 1c-1.108 0-2 .892-2 2v10c0 1.108.892 2 2 2h8c1.108 0 2-.892 2-2V3c0-1.108-.892-2-2-2zm.03 1h7.94c.571 0 1.03.459 1.03 1.03v9.94c0 .571-.459 1.03-1.03 1.03H4.03C3.458 14 3 13.541 3 12.97V3.03C3 2.458 3.459 2 4.03 2"/>
<rect width="1" height="14" x="4" y="1" fill="#fcfcfc" fill-rule="evenodd" rx="0" ry="0"/>
</svg>
