<svg xmlns="http://www.w3.org/2000/svg" width="16" height="16.001">
<path fill="#fcfcfc" d="M8.004 0c-.563-.005-.76.018-.84.714l-.03.244c-.069.45-.082.655-.5.765l-.103.026a6 6 0 0 0-.361.101l-.047.016c-.05.014-.081.01-.123.016A6.3 6.3 0 0 0 3.8 3.19c-.039.048-.068.094-.13.149l.012-.002q-.125.12-.242.246l.004-.012c-.349.407-.522.315-.971.139l-.225-.096c-.196-.087-.342-.13-.459-.133-.257-.009-.37.177-.56.522-.287.495-.37.68.18 1.097l.195.149c.191.158.322.268.386.402.643-.336 1.33-.616 1.989-.65 1.603-.085 2.981.699 4.277 1.45 1.296.753 2.522 1.478 3.777 1.55.526.03 1.482-.186 2.278-.432-.02-.27-.05-.539-.102-.805-.023-.05-.047-.092-.064-.162l-.02-.086q-.001-.008-.006-.02a7 7 0 0 0-.1-.368l-.015-.05c-.118-.428.05-.541.398-.83l.196-.148c.55-.418.466-.602.18-1.097-.19-.345-.304-.532-.561-.524-.117.004-.263.048-.46.135l-.222.096c-.449.176-.622.269-.97-.139l.002.012a6 6 0 0 0-.24-.246l.011.002a1 1 0 0 1-.172-.192 6.3 6.3 0 0 0-2.162-1.265c-.04-.006-.072-.003-.12-.016l-.046-.016-.05-.015a6 6 0 0 0-.33-.092l-.085-.02c-.417-.11-.43-.314-.5-.765L8.844.714c-.078-.696-.276-.72-.84-.714M4.029 6c-.524.028-1.458.455-2.23.909A6.6 6.6 0 0 0 1.688 8c0 .262.022.523.054.783C2.454 8.39 3.234 8.04 3.979 8c1.603-.085 2.981.699 4.277 1.45 1.296.753 2.522 1.478 3.777 1.55.505.028 1.406-.175 2.182-.409-.212-.187-.304-.33-.211-.67l.016-.048.013-.051a7 7 0 0 0 .09-.338l.02-.086c.013-.053.032-.082.049-.123q.069-.331.103-.668c-.765.227-1.6.434-2.32.393-1.589-.09-2.938-.94-4.221-1.684S5.27 5.936 4.029 6.001zm0 3c-.486.026-1.322.403-2.058.82l.002.005q.009.025.015.049l.014.049c.118.429-.05.542-.398.83l-.192.148c-.55.418-.47.605-.183 1.1.276.501.39.664 1.02.386l.224-.095c.449-.177.622-.27.97.138l-.002-.01q.118.126.24.245l-.011-.002c.048.043.069.078.104.117a6.3 6.3 0 0 0 2.273 1.345c.028.006.048.005.078.014l.047.014.049.014a6 6 0 0 0 .33.091l.084.02c.417.11.43.315.5.766l.03.248c.078.695.276.715.839.709.563.006.76-.014.84-.71l.03-.247c.068-.451.082-.655.5-.766l.103-.026a6 6 0 0 0 .359-.099l.047-.014c.053-.015.09-.013.135-.02a6.3 6.3 0 0 0 2.156-1.269c.043-.058.087-.119.164-.187l-.012.002a6 6 0 0 0 .24-.246l-.004.011c.349-.407.522-.315.971-.138l.225.095c.629.278.743.115 1.02-.386.15-.261.237-.437.212-.606-.117.04-.195.072-.322.111-.85.267-1.859.542-2.693.495-1.589-.09-2.939-.94-4.221-1.684-1.283-.745-2.484-1.382-3.725-1.316z" color="#000" overflow="visible"/>
</svg>
