<svg xmlns="http://www.w3.org/2000/svg" width="36" height="36">
<path fill="#fcfcfc" d="M2 0C.892 0 0 .892 0 2v6c0 1.108.892 2 2 2h6c1.108 0 2-.892 2-2V2c0-1.108-.892-2-2-2zm13 0c-1.108 0-2 .892-2 2v6c0 1.108.892 2 2 2h6c1.108 0 2-.892 2-2V2c0-1.108-.892-2-2-2zm13 0c-1.108 0-2 .892-2 2v6c0 1.108.892 2 2 2h6c1.108 0 2-.892 2-2V2c0-1.108-.892-2-2-2zM17.682 1.219q1.42 0 2.123.469.709.463.709 1.4 0 .64-.338 1.05-.337.405-.996.571.738.19 1.12.664.384.47.384 1.197 0 1.084-.83 1.65-.83.562-2.422.561-.561 0-1.127-.091a7 7 0 0 1-1.113-.27V6.97q.527.265 1.044.401.523.131 1.026.131.747 0 1.142-.258.4-.258.4-.742a.83.83 0 0 0-.41-.752q-.405-.259-1.2-.26h-.752V4.28h.79q.709 0 1.055-.22.346-.224.346-.679a.74.74 0 0 0-.336-.648q-.338-.23-.953-.23-.455 0-.918.103-.464.102-.922.302V1.531q.556-.156 1.104-.234a6 6 0 0 1 1.074-.078m-12.873.008q1.309 0 2.031.576.728.576.729 1.607 0 .596-.309 1.113-.307.513-1.293 1.377L4.41 7.268h3.209v1.38h-5.3v-1.38l2.663-2.35q.356-.322.527-.629c.171-.307.17-.42.17-.64q.001-.512-.346-.825-.342-.312-.914-.312a2.8 2.8 0 0 0-.96.19q-.524.185-1.12.556V1.656a9 9 0 0 1 1.256-.316 7 7 0 0 1 1.215-.113m23.771.134h4.674v1.381H30.08v1.13q.214-.06.43-.089.219-.034.453-.035 1.333 0 2.076.67.742.664.742 1.856 0 1.18-.81 1.85-.806.669-2.243.67a6.3 6.3 0 0 1-1.23-.124 6.5 6.5 0 0 1-1.205-.361V6.83a6 6 0 0 0 1.127.512q.538.171 1.012.172.683 0 1.074-.332.394-.338.394-.908.001-.577-.394-.909-.39-.332-1.074-.332-.406 0-.866.108a6 6 0 0 0-.986.322zM2 13.001c-1.108 0-2 .891-2 2v6c0 1.107.892 2 2 2h6c1.108 0 2-.893 2-2v-6c0-1.109-.892-2-2-2zm13 0c-1.108 0-2 .891-2 2v6c0 1.107.892 2 2 2h6c1.108 0 2-.893 2-2v-6c0-1.109-.892-2-2-2zm-9.445 1.23a6 6 0 0 1 1.914.312v1.348a5 5 0 0 0-.875-.322 3.2 3.2 0 0 0-.801-.108q-.84 0-1.309.47-.468.462-.546 1.38.322-.239.699-.355.375-.123.82-.123 1.117 0 1.8.654.69.654.69 1.715 0 1.17-.767 1.879-.766.702-2.055.703-1.421 0-2.203-.957-.776-.963-.775-2.725 0-1.806.908-2.836.913-1.035 2.5-1.035m12.338.121h2.09v4.6h1.04v1.36h-1.04v1.329h-1.778v-1.328h-3.232v-1.611zm.312 1.547-2.06 3.053h2.06zM28 17c-1.108 0-2 .892-2 2v6c0 1.108.892 2 2 2h6c1.108 0 2-.892 2-2v-6c0-1.108-.892-2-2-2zM5.145 18.043q-.493 0-.742.323-.244.316-.244.957 0 .64.244.963.249.316.742.316.498 0 .742-.316.248-.323.248-.963t-.248-.957q-.244-.323-.742-.323m25.715.25q1.425 0 2.207.961.78.964.781 2.721 0 1.807-.914 2.842-.911 1.03-2.504 1.03a6 6 0 0 1-1.9-.304v-1.347q.45.21.86.318.41.102.81.102.84 0 1.309-.463.469-.47.552-1.387a2.5 2.5 0 0 1-1.523.488q-1.119 0-1.807-.65-.683-.655-.683-1.719 0-1.177.761-1.885.767-.708 2.051-.707m-.01 1.182q-.492 0-.742.322c-.25.322-.25.534-.25.957q0 .64.25.961.25.319.742.319.494 0 .743-.319.248-.322.248-.96 0-.636-.248-.958-.25-.321-.743-.322M2 26c-1.108 0-2 .892-2 2v6c0 1.108.892 2 2 2h6c1.108 0 2-.892 2-2v-6c0-1.108-.892-2-2-2zm13 0c-1.108 0-2 .892-2 2v6c0 1.108.892 2 2 2h6c1.108 0 2-.892 2-2v-6c0-1.108-.892-2-2-2zm3.002 1.233q1.323 0 2.012.482.69.48.69 1.406 0 .62-.342 1.036-.338.414-1.002.615.742.205 1.119.67.38.459.38 1.162 0 1.085-.722 1.64-.718.551-2.135.551-1.42 0-2.148-.55-.723-.557-.723-1.641 0-.703.377-1.162.38-.465 1.123-.67-.664-.201-1.002-.615-.337-.415-.336-1.036 0-.923.688-1.406t2.021-.482m-15.809.119h5.494v1.06l-2.841 6.231H3.014l2.691-5.908H2.193zm15.81 1.063q-.45 0-.694.234-.239.234-.238.664-.001.434.238.668.244.234.693.234.44 0 .68-.234.239-.233.238-.668c0-.435-.078-.511-.238-.664q-.24-.234-.68-.234m0 2.978q-.528 0-.811.287-.283.289-.283.826t.283.825q.284.282.81.283.524 0 .801-.283.28-.289.28-.825 0-.542-.28-.826-.278-.288-.8-.287" color="#000" style="isolation:auto;mix-blend-mode:normal"/>
</svg>
