<svg xmlns="http://www.w3.org/2000/svg" width="16" height="16">
<path fill="#fcfcfc" d="M2 2C.892 2 0 2.892 0 4v8c0 1.108.892 2 2 2h6v-1H2c-.554 0-1-.446-1-1V4c0-.554.446-1 1-1h12c.554 0 1 .446 1 1v2h1V4c0-1.108-.892-2-2-2zm.25 2a.25.25 0 0 0-.25.25v1.5c0 .138.112.25.25.25h1.5A.25.25 0 0 0 4 5.75v-1.5A.25.25 0 0 0 3.75 4zm3 0a.25.25 0 0 0-.25.25v1.5c0 .138.112.25.25.25h1.5A.25.25 0 0 0 7 5.75v-1.5A.25.25 0 0 0 6.75 4zm3 0a.25.25 0 0 0-.25.25v1.5c0 .138.112.25.25.25h1.5a.25.25 0 0 0 .25-.25v-1.5A.25.25 0 0 0 9.75 4zm3 0a.25.25 0 0 0-.25.25v1.5c0 .138.112.25.25.25h1.5a.25.25 0 0 0 .25-.25v-1.5a.25.25 0 0 0-.25-.25zm-8 3a.25.25 0 0 0-.25.25v1.5c0 .138.112.25.25.25h1.5A.25.25 0 0 0 5 8.75v-1.5A.25.25 0 0 0 4.75 7zm3 0a.25.25 0 0 0-.25.25v1.5c0 .138.112.25.25.25h1.5A.25.25 0 0 0 8 8.75v-1.5A.25.25 0 0 0 7.75 7zm-4 3a.25.25 0 0 0-.25.25v1.5c0 .138.112.25.25.25h1.5a.25.25 0 0 0 .25-.25v-1.5a.25.25 0 0 0-.25-.25zm3 0a.25.25 0 0 0-.25.25v1.5c0 .138.112.25.25.25H8v-2z"/>
<path fill="#fcfcfc" d="M13 10a3 3 0 0 0-3 3 3 3 0 0 0 3 3 3 3 0 0 0 2.82-2h-1.088A2 2 0 0 1 13 15a2 2 0 0 1-2-2 2 2 0 0 1 2-2 2 2 0 0 1 1.73 1h1.098A3 3 0 0 0 13 10"/>
<path fill="#fcfcfc" d="m10.293 7 2 2h1.414l2-2h-1.414L13 8.293 11.707 7z" color="#000" style="-inkscape-stroke:none"/>
</svg>
