<svg xmlns="http://www.w3.org/2000/svg" viewBox="0 0 16 16">
<style id="current-color-scheme" type="text/css">
.ColorScheme-Text{color:#fcfcfc}
</style>
<path d="M4 1C2.338 1 1 2.338 1 4v8c0 1.662 1.338 3 3 3h8c1.662 0 3-1.338 3-3V4c0-1.662-1.338-3-3-3zm0 1h8c1.108 0 2 .892 2 2H2c0-1.108.892-2 2-2M2 5h12v7c0 1.108-.892 2-2 2H4c-1.108 0-2-.892-2-2zm6 2c-.554 0-1 .446-1 1s.446 1 1 1 1-.446 1-1-.446-1-1-1m3 0c-.554 0-1 .446-1 1s.446 1 1 1 1-.446 1-1-.446-1-1-1m-6 3c-.554 0-1 .446-1 1s.446 1 1 1 1-.446 1-1-.446-1-1-1m3 0c-.554 0-1 .446-1 1s.446 1 1 1 1-.446 1-1-.446-1-1-1m3 0c-.554 0-1 .446-1 1s.446 1 1 1 1-.446 1-1-.446-1-1-1" class="ColorScheme-Text" style="fill:currentColor"/>
</svg>
