<svg xmlns="http://www.w3.org/2000/svg" width="16" height="16">
<path fill="#fcfcfc" d="M4.5 14h7a.499.499 0 1 1 0 1h-7a.499.499 0 1 1 0-1M2 2C.892 2 0 2.892 0 4v7c0 1.108.892 2 2 2h10.879l-.998-1H2a1 1 0 0 1-1.001-1V4c0-.554.446-1 1-1h12c.554 0 1 .446 1 1v6.879l.86.86A2 2 0 0 0 16 11V4c0-1.108-.892-2-2-2z"/>
<path fill="#fcfcfc" d="M9.25 4.01a3.5 3.5 0 0 0-2.225 1.015 3.5 3.5 0 0 0 0 4.95 3.5 3.5 0 0 0 4.57.328h.003l3.205 3.207a.499.499 0 1 0 .707-.707l-3.207-3.207a3.5 3.5 0 0 0-.328-4.57A3.5 3.5 0 0 0 9.25 4.01m.031 1a2.5 2.5 0 0 1 1.987.722 2.5 2.5 0 0 1 0 3.536 2.5 2.5 0 0 1-3.536 0 2.5 2.5 0 0 1 0-3.536 2.5 2.5 0 0 1 1.55-.722" color="#000" style="-inkscape-stroke:none"/>
</svg>
