<svg xmlns="http://www.w3.org/2000/svg" width="16" height="16">
<path fill="#fcfcfc" d="M1127 61a1 1 0 0 0-1 1v1h-11.49c-.822 0-1.5.678-1.5 1.5v8.994c0 .823.678 1.5 1.5 1.5H1126V77h1v-4h2l.01-7.003-2.005.003v-3.5s0-.5.5-.5h1.5v-1zm-12.49 3H1126v9.994h-11.49a.49.49 0 0 1-.5-.5V64.5c0-.286.214-.5.5-.5m12.5 2.994h1v1h-1zm0 2h1v1h-1zm0 2h1v1h-1z" color="#000" font-family="sans-serif" font-weight="400" overflow="visible" style="font-feature-settings:normal;font-variant-alternates:normal;font-variant-caps:normal;font-variant-ligatures:normal;font-variant-numeric:normal;font-variant-position:normal;isolation:auto;mix-blend-mode:normal;shape-padding:0;text-decoration-color:#000;text-decoration-line:none;text-decoration-style:solid;text-indent:0;text-orientation:mixed;text-transform:none" transform="matrix(-1 0 0 1 1129 -60.993)"/>
<path fill="#fcfcfc" fill-rule="evenodd" d="M7 5v1H5v4h2v1h1v-1h2v1h1v-1h2V6h-2V5h-1v1H8V5zM6 7h6v2H6z" style="paint-order:stroke fill markers"/>
</svg>
