<svg xmlns="http://www.w3.org/2000/svg" width="16" height="16.031">
<g fill="#fcfcfc">
<path d="M457.98-27.969v-3h1l-3-3-3 3h1v3zm-6 4v2h1l2 2v-6l-2 2zm4-1v4s1-1 1-2c0-1.315-1-2-1-2m2-1v6s1-1.946 1-3-1-3-1-3" style="paint-order:normal" transform="translate(-444 35)"/>
<path d="M6.54 9.032c.246 0 .447.197.447.447v.029a5.54 5.54 0 0 1-5.538 5.524h-.015a.45.45 0 0 1-.447-.462v-1.384a.46.46 0 0 1 .462-.462h.923a.46.46 0 0 1 .461.462v.216a4.14 4.14 0 0 0 2.524-2.524h-.216a.46.46 0 0 1-.462-.461v-.923a.46.46 0 0 1 .462-.462z"/>
<path d="M37 198.01a5 5 0 0 0 0 10c.892 0 1.712-.278 2.438-.687l3.937 3.687-3.937 3.688c-.726-.41-1.546-.688-2.438-.688a5 5 0 1 0 5 5c0-.458-.072-.89-.187-1.312l4.25-4.126L55 222.01h3v-2l-16.188-15.688a5 5 0 0 0 .187-1.312 5 5 0 0 0-5-5zm0 3a2 2 0 1 1 0 4 2 2 0 0 1 0-4m18-1-7.875 7.438 2.625 2.562 8.25-8v-2zm-18 17a2 2 0 1 1 0 4 2 2 0 0 1 0-4" color="#000" style="isolation:auto;mix-blend-mode:normal" transform="translate(-7.55 -52.006)scale(.26785)"/>
</g>
</svg>
