<svg xmlns="http://www.w3.org/2000/svg" width="16" height="16">
<path fill="#fcfcfc" fill-rule="evenodd" d="M5 5C3.338 5 2 6.338 2 8s1.338 3 3 3h6c1.662 0 3-1.338 3-3s-1.338-3-3-3zm0 1h6c1.108 0 2 .892 2 2s-.892 2-2 2H5c-1.108 0-2-.892-2-2s.892-2 2-2" style="paint-order:stroke fill markers"/>
<path fill="#fcfcfc" d="M6 8c0 .55-.45 1-1 1s-1-.45-1-1 .45-1 1-1 1 .45 1 1m6 0c0 .55-.45 1-1 1s-1-.45-1-1 .45-1 1-1 1 .45 1 1"/>
<path fill="#fcfcfc" fill-rule="evenodd" d="M8 0a8 8 0 0 0-8 8 8 8 0 0 0 8 8 8 8 0 0 0 8-8 8 8 0 0 0-8-8m0 1a7 7 0 0 1 7 7 7 7 0 0 1-7 7 7 7 0 0 1-7-7 7 7 0 0 1 7-7" style="paint-order:stroke fill markers"/>
</svg>
