<svg xmlns="http://www.w3.org/2000/svg" width="16" height="16.031">
<g fill="#fcfcfc" color="#000" transform="translate(-444 35)">
<path d="M446.22-34c-.648 0-1.187.54-1.187 1.188v4.624c0 .648.54 1.188 1.187 1.188h11.656c.648 0 1.156-.54 1.156-1.187v-4.625c0-.648-.508-1.188-1.156-1.188zm0 1h11.656c.111 0 .156.076.156.188v4.624c0 .112-.045.188-.156.188H446.22a.18.18 0 0 1-.187-.187v-4.625c0-.112.076-.188.187-.188" style="block-progression:tb;text-indent:0;text-transform:none"/>
<path d="M454-32v1.031l1.531 1.375L457-31v-1h-.758l-.738.746-.727-.746zm-7.78 6c-.648 0-1.187.54-1.187 1.188v4.656c0 .648.54 1.187 1.187 1.187h11.656c.648 0 1.156-.54 1.156-1.187v-4.657c0-.647-.508-1.187-1.156-1.187zm0 1h11.656c.111 0 .156.076.156.188v4.656c0 .11-.045.187-.156.187H446.22a.18.18 0 0 1-.187-.187v-4.657c0-.11.076-.187.187-.187" style="block-progression:tb;text-indent:0;text-transform:none"/>
<rect width="8" height="2" x="448" y="-24" rx="0" ry="0"/>
<rect width="12.861" height="1" x="445.53" y="-29" opacity=".3" rx="0" ry="0"/>
<rect width="12.861" height="1" x="445.53" y="-20.969" opacity=".3" rx="0" ry="0"/>
</g>
</svg>
