<svg xmlns="http://www.w3.org/2000/svg" width="16" height="16">
<path fill="#fcfcfc" d="M2.002 1A1 1 0 0 0 1 2v10c0 .554.447 1 1.002 1h11.996A1 1 0 0 0 15 12V2.121l-1 1.002V12H2V2h8.877l1.002-1z"/>
<rect width="8" height="1" x="4" y="14" fill="#fcfcfc" paint-order="markers stroke fill" rx="0" ry="0"/>
<path fill="#fcfcfc" d="m14.293 0-3.842 3.842a4 4 0 0 1 .707.707L15.707 0zM8.012 4c-1.657 0-3 1.34-3 3v3h3c1.66.008 3-1.344 3-3 0-1.66-1.34-3-3-3M8 5a2 2 0 0 1 2 2 2 2 0 0 1-2 2H6V7a2 2 0 0 1 2-2" color="#000" style="-inkscape-stroke:none"/>
</svg>
