<svg xmlns="http://www.w3.org/2000/svg" viewBox="0 0 16 16">
<defs id="defs3051">
<style id="current-color-scheme" type="text/css">
.ColorScheme-Text{color:#fcfcfc}
</style>
</defs>
<path id="path4139" d="M7.5 2A4.5 4.5 0 0 0 3 6.5a4.5 4.5 0 0 0 .053.656A3 3 0 0 0 1 10a3 3 0 0 0 3 3h7.5A3.5 3.5 0 0 0 15 9.5a3.5 3.5 0 0 0-3.03-3.465A4.5 4.5 0 0 0 7.5 2m0 1A3.5 3.5 0 0 1 11 6.5a3.5 3.5 0 0 1-.05.564A2.5 2.5 0 0 1 11.5 7 2.5 2.5 0 0 1 14 9.5a2.5 2.5 0 0 1-2.5 2.5H4a2 2 0 0 1-2-2 2 2 0 0 1 2-2 2 2 0 0 1 .357.033A3.5 3.5 0 0 1 4 6.5 3.5 3.5 0 0 1 7.5 3" class="ColorScheme-Text" style="fill:currentColor;fill-opacity:1;stroke:none"/>
</svg>
