<svg xmlns="http://www.w3.org/2000/svg" viewBox="0 0 16 16">
<defs>
<style id="current-color-scheme" type="text/css">
.ColorScheme-Text{color:#fcfcfc}
</style>
</defs>
<path d="M3 0c-.554 0-1 .446-1 1v1C.892 2 0 2.892 0 4v8c0 1.108.892 2 2 2h12c1.108 0 2-.892 2-2V4c0-1.108-.892-2-2-2V1c0-.554-.446-1-1-1zm0 1h10v4.379L8.54 8.932a.89.89 0 0 1-1.079 0l-4.46-3.553zm1.5 1a.499.499 0 1 0 0 1h7a.499.499 0 1 0 0-1zM2 3v1.584l-.963-.768A.98.98 0 0 1 2 3m12 0c.489 0 .874.354.963.816L14 4.584zM4.5 4a.499.499 0 1 0 0 1h7a.499.499 0 1 0 0-1zM1 5.049 4.705 8 1 10.951zm14 0v5.902L11.295 8zM5.498 8.633l1.17.931c.73.582 1.933.582 2.664 0l1.17-.931 4.46 3.55A.98.98 0 0 1 14 13H2a.98.98 0 0 1-.963-.816z" class="ColorScheme-Text" style="fill:currentColor"/>
</svg>
