<svg xmlns="http://www.w3.org/2000/svg" viewBox="0 0 16 16">
<defs>
<style id="current-color-scheme" type="text/css">
.ColorScheme-Text{color:#fcfcfc}
</style>
</defs>
<path d="M4 3.34c-.573.278-.98.662-1.17.91L.205 7.678A1 1 0 0 0 0 8.285V12c0 1.108.892 2 2 2h11a1.997 1.997 0 0 0 2-2V8.285a1 1 0 0 0-.205-.607L12.17 4.25c-.19-.248-.597-.632-1.17-.91v1.13a2.5 2.5 0 0 1 .375.387L13.781 8H9.95a2.5 2.5 0 0 1-2.45 2 2.5 2.5 0 0 1-2.445-2H1.219l2.406-3.143c.098-.128.225-.261.375-.386zM1 9h3.342A3.5 3.5 0 0 0 7.5 11a3.5 3.5 0 0 0 3.147-2H14v3c0 .554-.446 1-1 1H2c-.554 0-1-.446-1-1z" class="ColorScheme-Text" style="fill:currentColor"/>
<path d="M7.5 8a.5.5 0 0 1-.5-.5V2.707L5.732 3.975a.499.499 0 1 1-.707-.707l2.121-2.122a.5.5 0 0 1 .541-.109.5.5 0 0 1 .167.11l2.12 2.12a.499.499 0 1 1-.706.708L8 2.707V7.5c0 .277-.223.5-.5.5" class="ColorScheme-Text" style="fill:currentColor"/>
</svg>
