<svg xmlns="http://www.w3.org/2000/svg" viewBox="0 0 16 16">
<defs>
<style id="current-color-scheme" type="text/css">
.ColorScheme-Text{color:#fcfcfc}
</style>
</defs>
<path d="M7.5 1c-.277 0-.5.223-.5.5v4.793L5.732 5.025a.499.499 0 1 0-.707.707l2.121 2.122a.5.5 0 0 0 .541.109.5.5 0 0 0 .167-.11l2.12-2.12a.499.499 0 1 0-.706-.708L8 6.293V1.5c0-.277-.223-.5-.5-.5M5 3.03a3.3 3.3 0 0 0-2.17 1.22L.205 7.678A1 1 0 0 0 0 8.285V12c0 1.108.892 2 2 2h11a1.997 1.997 0 0 0 2-2V8.285a1 1 0 0 0-.205-.607L12.17 4.25A3.3 3.3 0 0 0 10 3.03v1.015c.763.104 1.124.485 1.375.812L13.781 8H9.95a2.5 2.5 0 0 1-2.45 2 2.5 2.5 0 0 1-2.444-2H1.219l2.406-3.143c.25-.327.612-.708 1.375-.812zM1 9h3.342A3.5 3.5 0 0 0 7.5 11a3.5 3.5 0 0 0 3.152-2H14v3c0 .554-.446 1-1 1H2c-.554 0-1-.446-1-1z" class="ColorScheme-Text" style="fill:currentColor"/>
</svg>
