<?xml version="1.0" encoding="UTF-8"?>
<!DOCTYPE svg PUBLIC "-//W3C//DTD SVG 1.1//EN" "http://www.w3.org/Graphics/SVG/1.1/DTD/svg11.dtd">
<svg xmlns="http://www.w3.org/2000/svg" version="1.1" width="1024px" height="1024px" style="shape-rendering:geometricPrecision; text-rendering:geometricPrecision; image-rendering:optimizeQuality; fill-rule:evenodd; clip-rule:evenodd" xmlns:xlink="http://www.w3.org/1999/xlink">
<g><path style="opacity:1" fill="#5d35b0" d="M 949.5,251.5 C 949.5,253.167 949.5,254.833 949.5,256.5C 930.167,256.5 910.833,256.5 891.5,256.5C 891.5,276.5 891.5,296.5 891.5,316.5C 911.5,316.5 931.5,316.5 951.5,316.5C 952.739,463.505 952.739,610.505 951.5,757.5C 950.503,740.675 950.17,723.675 950.5,706.5C 930.833,706.5 911.167,706.5 891.5,706.5C 891.5,726.5 891.5,746.5 891.5,766.5C 911.167,766.5 930.833,766.5 950.5,766.5C 941.787,833.145 909.454,884.645 853.5,921C 825.82,937.782 795.82,947.782 763.5,951C 595.833,951.667 428.167,951.667 260.5,951C 184.954,941.841 129.121,904.008 93,837.5C 81.6453,814.083 74.6453,789.416 72,763.5C 71.5,591.167 71.3333,418.834 71.5,246.5C 72.497,265.659 72.8303,284.993 72.5,304.5C 92.1667,304.5 111.833,304.5 131.5,304.5C 131.5,284.5 131.5,264.5 131.5,244.5C 111.472,245.154 91.8049,244.488 72.5,242.5C 89.0275,169.826 131.028,117.993 198.5,87C 218.408,78.8562 239.075,73.8562 260.5,72C 428.167,71.3333 595.833,71.3333 763.5,72C 834.471,80.6867 888.305,115.52 925,176.5C 937.884,199.985 946.051,224.985 949.5,251.5 Z"/></g>
<g><path style="opacity:1" fill="#f2e4f4" d="M 254.5,209.5 C 262.661,209.29 270.328,211.124 277.5,215C 382.975,273.4 488.642,331.233 594.5,388.5C 602.579,393.538 610.912,398.038 619.5,402C 649.797,418.995 680.13,435.995 710.5,453C 729.967,463.568 749.634,473.902 769.5,484C 790.66,494.803 795.16,510.303 783,530.5C 779.889,533.944 776.056,536.111 771.5,537C 715.353,569.071 658.686,600.071 601.5,630C 512.229,679.801 422.563,728.801 332.5,777C 318.298,785.599 303.965,793.933 289.5,802C 281.134,806.514 272.468,810.514 263.5,814C 246.258,814.766 236.091,806.6 233,789.5C 232.333,604.167 232.333,418.833 233,233.5C 234.857,220.488 242.024,212.488 254.5,209.5 Z"/></g>
<g><path style="opacity:1" fill="#7d5cc0" d="M 72.5,242.5 C 91.8049,244.488 111.472,245.154 131.5,244.5C 131.5,264.5 131.5,284.5 131.5,304.5C 111.833,304.5 92.1667,304.5 72.5,304.5C 72.8303,284.993 72.497,265.659 71.5,246.5C 71.2322,244.901 71.5655,243.568 72.5,242.5 Z"/></g>
<g><path style="opacity:1" fill="#7d5cc0" d="M 949.5,251.5 C 950.302,252.952 950.802,254.618 951,256.5C 951.5,276.497 951.667,296.497 951.5,316.5C 931.5,316.5 911.5,316.5 891.5,316.5C 891.5,296.5 891.5,276.5 891.5,256.5C 910.833,256.5 930.167,256.5 949.5,256.5C 949.5,254.833 949.5,253.167 949.5,251.5 Z"/></g>
<g><path style="opacity:1" fill="#7d5cc0" d="M 72.5,334.5 C 92.1667,334.5 111.833,334.5 131.5,334.5C 131.5,354.5 131.5,374.5 131.5,394.5C 111.833,394.5 92.1667,394.5 72.5,394.5C 72.5,374.5 72.5,354.5 72.5,334.5 Z"/></g>
<g><path style="opacity:1" fill="#7d5cc0" d="M 891.5,346.5 C 911.167,346.5 930.833,346.5 950.5,346.5C 950.5,366.5 950.5,386.5 950.5,406.5C 930.833,406.5 911.167,406.5 891.5,406.5C 891.5,386.5 891.5,366.5 891.5,346.5 Z"/></g>
<g><path style="opacity:1" fill="#7d5cc0" d="M 72.5,424.5 C 92.1667,424.5 111.833,424.5 131.5,424.5C 131.5,444.5 131.5,464.5 131.5,484.5C 111.833,484.5 92.1667,484.5 72.5,484.5C 72.5,464.5 72.5,444.5 72.5,424.5 Z"/></g>
<g><path style="opacity:1" fill="#7d5cc0" d="M 891.5,436.5 C 911.167,436.5 930.833,436.5 950.5,436.5C 950.5,456.5 950.5,476.5 950.5,496.5C 930.833,496.5 911.167,496.5 891.5,496.5C 891.5,476.5 891.5,456.5 891.5,436.5 Z"/></g>
<g><path style="opacity:1" fill="#7d5cc0" d="M 72.5,514.5 C 92.1667,514.5 111.833,514.5 131.5,514.5C 131.5,534.5 131.5,554.5 131.5,574.5C 111.833,574.5 92.1667,574.5 72.5,574.5C 72.5,554.5 72.5,534.5 72.5,514.5 Z"/></g>
<g><path style="opacity:1" fill="#7d5cc0" d="M 891.5,526.5 C 911.167,526.5 930.833,526.5 950.5,526.5C 950.5,546.5 950.5,566.5 950.5,586.5C 930.833,586.5 911.167,586.5 891.5,586.5C 891.5,566.5 891.5,546.5 891.5,526.5 Z"/></g>
<g><path style="opacity:1" fill="#7d5cc0" d="M 72.5,604.5 C 92.1667,604.5 111.833,604.5 131.5,604.5C 131.5,624.5 131.5,644.5 131.5,664.5C 111.833,664.5 92.1667,664.5 72.5,664.5C 72.5,644.5 72.5,624.5 72.5,604.5 Z"/></g>
<g><path style="opacity:1" fill="#7d5cc0" d="M 891.5,616.5 C 911.167,616.5 930.833,616.5 950.5,616.5C 950.5,636.5 950.5,656.5 950.5,676.5C 930.833,676.5 911.167,676.5 891.5,676.5C 891.5,656.5 891.5,636.5 891.5,616.5 Z"/></g>
<g><path style="opacity:1" fill="#7d5cc0" d="M 72.5,694.5 C 92.1667,694.5 111.833,694.5 131.5,694.5C 131.5,714.5 131.5,734.5 131.5,754.5C 111.833,754.5 92.1667,754.5 72.5,754.5C 72.5,734.5 72.5,714.5 72.5,694.5 Z"/></g>
<g><path style="opacity:1" fill="#7d5cc0" d="M 951.5,757.5 C 951.81,760.713 951.477,763.713 950.5,766.5C 930.833,766.5 911.167,766.5 891.5,766.5C 891.5,746.5 891.5,726.5 891.5,706.5C 911.167,706.5 930.833,706.5 950.5,706.5C 950.17,723.675 950.503,740.675 951.5,757.5 Z"/></g>
</svg>
