<svg xmlns="http://www.w3.org/2000/svg" viewBox="0 0 16 16">
<defs>
<style id="current-color-scheme" type="text/css">
.ColorScheme-Text{color:#fcfcfc}
</style>
</defs>
<g class="ColorScheme-Text" style="fill:currentColor">
<path d="M4 7h2v3H4zm3 0h2v2H7zm3 0h2v3h-2zm-3 3h2v3H7zm-3 1h2v2H4zm6 0h2v2h-2z"/>
<path stroke-linecap="round" stroke-linejoin="round" stroke-width="1.871" d="M6 1 2 5v8c0 1.108.892 2 2 2h8c1.108 0 2-.892 2-2V3c0-1.108-.892-2-2-2zm.414 1H12c.554 0 1 .446 1 1v10c0 .554-.446 1-1 1H4c-.554 0-1-.446-1-1V5.414z"/>
</g>
</svg>
