<svg xmlns="http://www.w3.org/2000/svg" viewBox="0 0 16 16">
<defs>
<style id="current-color-scheme" type="text/css">
.ColorScheme-Text{color:#fcfcfc}
</style>
</defs>
<g fill="currentColor" class="ColorScheme-Text">
<path d="M6 2C4.5 2 3.458 3.037 3.068 4.033L.2 11.518l-.008.023-.058.15h.012A2.5 2.5 0 0 0 0 12.5C0 13.885 1.115 15 2.5 15h11c1.385 0 2.5-1.115 2.5-2.5 0-.285-.057-.554-.144-.809h.011l-.058-.15-.004-.016-.004-.007-2.87-7.485C12.544 3.037 11.5 2 10.002 2H8zm0 1h4c1.108 0 1.709.65 2 1.397l2.188 5.71A2.5 2.5 0 0 0 13.5 10h-11c-.24 0-.468.045-.687.107L4 4.397C4.292 3.65 4.892 3 6 3m-3.5 8h11c.831 0 1.5.669 1.5 1.5s-.669 1.5-1.5 1.5h-11c-.831 0-1.5-.669-1.5-1.5S1.669 11 2.5 11"/>
<circle cx="12.5" cy="12.5" r=".5"/>
<circle cx="10.5" cy="12.5" r=".5"/>
<circle cx="8.5" cy="12.5" r=".5"/>
</g>
</svg>
