<svg xmlns="http://www.w3.org/2000/svg" viewBox="0 0 16 16">
<defs>
<style id="current-color-scheme" type="text/css">
.ColorScheme-Text{color:#fcfcfc}
</style>
</defs>
<g class="ColorScheme-Text" style="fill:currentColor">
<path d="M11.557 11c.35 0 .633.282.633.63 0 .35-.284.636-.633.636a.635.635 0 0 1-.633-.635c0-.35.284-.631.633-.631M13 11a.633.633 0 1 1 .004 1.266A.633.633 0 0 1 13 11m-1.84 1.49h2.237c.13 0 .234.13.234.291v.26c.001.017.016.081.184.023l.92-.32c.029-.011.092-.024.092.07v1.608c0 .07-.038.073-.073.062l-.953-.226c-.156-.037-.169.01-.17.023v.178c0 .161-.104.291-.234.291H11.16c-.13 0-.237-.13-.237-.291V12.78c0-.16.106-.29.237-.29"/>
<path d="M8 5C6.32 5 5 6.32 5 8s1.32 3 3 3 3-1.32 3-3-1.32-3-3-3m.006 1.006a2 2 0 0 1 1.996 1.996 2 2 0 0 1-1.996 1.996c-1.098 0-2.014-.897-2.014-1.996s.916-1.996 2.014-1.996"/>
<path d="M8 0a8 8 0 0 0-8 8 8 8 0 0 0 8 8 8 8 0 0 0 2-.254v-1.039A7 7 0 0 1 8 15a7 7 0 0 1-7-7 7 7 0 0 1 6.906-7H8a7 7 0 0 1 7 7 7 7 0 0 1-.293 2h1.04A8 8 0 0 0 16 8a8 8 0 0 0-8-8"/>
</g>
</svg>
