<svg xmlns="http://www.w3.org/2000/svg" viewBox="0 0 16 16">
<style id="current-color-scheme" type="text/css">
.ColorScheme-Text{color:#fcfcfc}
</style>
<path d="M1 2c-.554 0-1 .446-1 1v7c0 .554.446 1 1 1h14c.554 0 1-.446 1-1V3c0-.554-.446-1-1-1zm0 1h14v7H1z" class="ColorScheme-Text" style="fill:currentColor"/>
<path d="M1 10v2c0 .554.446 1 1 1h12c.554 0 1-.446 1-1v-2h-1v2H2v-2z" class="ColorScheme-Text" style="fill:currentColor"/>
<path d="M3 11h1v1H3zm2 0h1v1H5zm7 0h1v1h-1zm-2 0h1v1h-1zM2 5h2v3H2zm3 0h2v3H5zm4 0h2v3H9zm3 0h2v3h-2z" class="ColorScheme-Text" style="fill:currentColor"/>
</svg>
