<svg xmlns="http://www.w3.org/2000/svg" viewBox="0 0 16 16">
<defs>
<style id="current-color-scheme" type="text/css">
.ColorScheme-Text{color:#fcfcfc}
</style>
</defs>
<path d="M13.48 11.023q.07 0 .148.01h.002c.704.059 1.202.298 1.48.71.308.458.265 1.016.212 1.309a.07.07 0 0 1-.053.051.06.06 0 0 1-.066-.03 2.2 2.2 0 0 0-.282-.38c-.325-.347-.73-.531-1.168-.531q-.055 0-.112.004v2.596c0 .481-.36.877-.859.94q-.067.008-.135.009c-.48 0-.885-.326-.94-.757a.83.83 0 0 1 .206-.65A1.06 1.06 0 0 1 13 14v-2.647c0-.153.124-.33.479-.33" class="ColorScheme-Text" style="fill:currentColor"/>
<path d="M8 5C6.32 5 5 6.32 5 8s1.32 3 3 3 3-1.32 3-3-1.32-3-3-3m.006 1.006a2 2 0 0 1 1.996 1.996 2 2 0 0 1-1.996 1.996c-1.098 0-2.014-.897-2.014-1.996s.916-1.996 2.014-1.996" class="ColorScheme-Text" style="fill:currentColor"/>
<path class="ColorScheme-Text" style="fill:currentColor" d="M8 0a8 8 0 0 0-8 8 8 8 0 0 0 8 8 8 8 0 0 0 3-.584v-1.092A7 7 0 0 1 8 15a7 7 0 0 1-7-7 7 7 0 0 1 6.906-7H8a7 7 0 0 1 7 7 7 7 0 0 1-.293 2h1.04A8 8 0 0 0 16 8a8 8 0 0 0-8-8"/>
</svg>
