<svg width="24" height="24" viewBox="0 0 24 24" fill="none" xmlns="http://www.w3.org/2000/svg"><defs>
<style id="current-color-scheme" type="text/css">.ColorScheme-Text { color:#ffffff; }</style>
</defs>
<g opacity="0.90">
<path class="ColorScheme-Text" d="M3.5 16.05C2.39543 16.05 1.5 15.1546 1.5 14.05V9.95C1.5 8.84543 2.39543 7.95 3.5 7.95H5.71079C5.976 7.95 6.23036 7.84464 6.41789 7.65711L11.7214 2.35355C12.0364 2.03857 12.575 2.26165 12.575 2.70711V21.2929C12.575 21.7383 12.0364 21.9614 11.7214 21.6464L6.41789 16.3429C6.23036 16.1554 5.976 16.05 5.71079 16.05H3.5Z" fill="currentColor"/>
</g>
<path d="M14.575 21.2418V19.6891C14.575 19.355 14.7975 19.0646 15.1115 18.9505C16.4844 18.4514 17.6181 17.6179 18.5125 16.45C19.5208 15.1333 20.025 13.6417 20.025 11.975C20.025 10.3083 19.5167 8.81667 18.5 7.5C17.5989 6.33301 16.4687 5.49989 15.1094 5.00063C14.7965 4.88571 14.575 4.59583 14.575 4.2625V2.71243C14.575 2.39608 14.8655 2.15863 15.1716 2.2386C17.2693 2.78673 19.0079 3.90302 20.3875 5.5875C21.8958 7.42917 22.65 9.55833 22.65 11.975C22.65 14.375 21.8958 16.5042 20.3875 18.3625C19.0072 20.0631 17.2675 21.181 15.1684 21.7161C14.8632 21.7939 14.575 21.5568 14.575 21.2418Z" fill="url(#paint0_linear_79_29)"/>
<path d="M14.575 15.0307V8.79793C14.575 8.04734 15.3701 7.58465 15.912 8.10397C16.2217 8.4007 16.4987 8.73379 16.7431 9.10325C17.2977 9.94175 17.575 10.8784 17.575 11.9131C17.575 12.9478 17.2977 13.8845 16.7431 14.723C16.4954 15.0974 16.2143 15.4326 15.8996 15.7288C15.3581 16.2384 14.575 15.7743 14.575 15.0307Z" fill="url(#paint1_linear_79_29)"/>
<rect width="24" height="24" fill="#A4A4A4" fill-opacity="0.01"/>
<defs>
<linearGradient id="paint0_linear_79_29" x1="21" y1="2" x2="9.22555" y2="5.261" gradientUnits="userSpaceOnUse">
<stop stop-color="#FBF673"/>
<stop offset="1" stop-color="#E2E53E"/>
</linearGradient>
<linearGradient id="paint1_linear_79_29" x1="21" y1="2" x2="9.22555" y2="5.261" gradientUnits="userSpaceOnUse">
<stop stop-color="#FBF673"/>
<stop offset="1" stop-color="#E2E53E"/>
</linearGradient>
</defs>
</svg>
