<svg width="24" height="24" viewBox="0 0 24 24" fill="none" xmlns="http://www.w3.org/2000/svg"><defs>
<style id="current-color-scheme" type="text/css">.ColorScheme-Text { color:#ffffff; }</style>
</defs>
<g opacity="0.90">
<path class="ColorScheme-Text" d="M3.5 16.2429C2.39543 16.2429 1.5 15.3474 1.5 14.2429V9.75714C1.5 8.65257 2.39543 7.75714 3.5 7.75714H6.10691C6.36629 7.75714 6.61553 7.65636 6.802 7.47606L12.6525 1.81946C12.9698 1.51265 13.5 1.73752 13.5 2.17892V21.8211C13.5 22.2625 12.9698 22.4874 12.6525 22.1805L6.802 16.5239C6.61553 16.3436 6.36629 16.2429 6.10691 16.2429H3.5Z" fill="currentColor"/>
</g>
<path d="M15.5 8.65914V15.3409C15.5 16.094 16.3003 16.5556 16.8354 16.0255C17.1617 15.7023 17.4476 15.337 17.6933 14.9296C18.2311 14.0376 18.5 13.0657 18.5 12.0141C18.5 10.9624 18.2311 9.98592 17.6933 9.08451C17.4472 8.67201 17.1606 8.30276 16.8335 7.97678C16.3001 7.4451 15.5 7.90598 15.5 8.65914Z" fill="url(#paint0_linear_52_85)"/>
<rect width="24" height="24" fill="#A4A4A4" fill-opacity="0.01"/>
<defs>
<linearGradient id="paint0_linear_52_85" x1="18.7999" y1="6" x2="12.1946" y2="7.98155" gradientUnits="userSpaceOnUse">
<stop stop-color="#73CFFB"/>
<stop offset="1" stop-color="#3EAAE5"/>
</linearGradient>
</defs>
</svg>
