<svg width="24" height="24" viewBox="0 0 24 24" fill="none" xmlns="http://www.w3.org/2000/svg">
<rect width="24" height="24" fill="#A4A4A4" fill-opacity="0.01"/>
<path d="M12 5.01079C8.30522 5.01079 5.29962 8.14891 5.29962 12.0066C5.29962 14.7899 6.86847 17.1919 9.12841 18.3173V21.0012C9.12841 22.1035 9.98702 23 11.0428 23H12.9572C14.013 23 14.8716 22.1035 14.8716 21.0012V18.3173C17.1315 17.1919 18.7004 14.7899 18.7004 12.0066C18.7004 8.14891 15.6948 5.01079 12 5.01079Z" fill="white"/>
<path d="M11.3132 0.303185C11.4899 0.113255 11.7315 0.00425984 11.985 0.000121904C12.1131 -0.00196645 12.2403 0.0227961 12.359 0.0729433C12.4777 0.12309 12.5856 0.197603 12.6763 0.292067C12.7669 0.386532 12.8385 0.499028 12.8867 0.622894C12.935 0.74676 12.959 0.879477 12.9572 1.01319V2.01259C12.959 2.14502 12.9356 2.2765 12.8883 2.3994C12.841 2.52229 12.7707 2.63415 12.6817 2.72846C12.5926 2.82277 12.4865 2.89766 12.3695 2.94878C12.2524 2.9999 12.1269 3.02622 12 3.02622C11.8731 3.02622 11.7476 2.9999 11.6305 2.94878C11.5135 2.89766 11.4074 2.82277 11.3183 2.72846C11.2293 2.63415 11.159 2.52229 11.1117 2.3994C11.0644 2.2765 11.041 2.14502 11.0428 2.01259V1.01319C11.0393 0.748462 11.1366 0.493115 11.3132 0.303185Z" fill="white"/>
<path d="M11.3132 0.303185C11.4899 0.113255 11.7315 0.00425984 11.985 0.000121904C12.1131 -0.00196645 12.2403 0.0227961 12.359 0.0729433C12.4777 0.12309 12.5856 0.197603 12.6763 0.292067C12.7669 0.386532 12.8385 0.499028 12.8867 0.622894C12.935 0.74676 12.959 0.879477 12.9572 1.01319V2.01259C12.959 2.14502 12.9356 2.2765 12.8883 2.3994C12.841 2.52229 12.7707 2.63415 12.6817 2.72846C12.5926 2.82277 12.4865 2.89766 12.3695 2.94878C12.2524 2.9999 12.1269 3.02622 12 3.02622C11.8731 3.02622 11.7476 2.9999 11.6305 2.94878C11.5135 2.89766 11.4074 2.82277 11.3183 2.72846C11.2293 2.63415 11.159 2.52229 11.1117 2.3994C11.0644 2.2765 11.041 2.14502 11.0428 2.01259V1.01319C11.0393 0.748462 11.1366 0.493115 11.3132 0.303185Z" fill="url(#paint0_linear_89_2)"/>
<path d="M4.00931 3.39361C4.16738 3.28232 4.35368 3.22284 4.54433 3.2228C4.6727 3.2228 4.79976 3.24976 4.91796 3.30207C5.03615 3.35438 5.14305 3.43098 5.23232 3.5273L5.90909 4.23391C6.00095 4.326 6.07429 4.4363 6.12481 4.55836C6.17534 4.68041 6.20203 4.81177 6.20332 4.94473C6.20462 5.07769 6.18049 5.20958 6.13235 5.33268C6.08422 5.45578 6.01304 5.56762 5.92299 5.66164C5.83294 5.75566 5.72582 5.82998 5.60792 5.88024C5.49002 5.9305 5.36369 5.95569 5.23635 5.95434C5.109 5.95299 4.9832 5.92512 4.8663 5.87237C4.74939 5.81962 4.64375 5.74304 4.55555 5.64713L3.87878 4.94052C3.74178 4.80208 3.64749 4.62409 3.608 4.42935C3.5685 4.23461 3.5856 4.032 3.6571 3.84747C3.7286 3.66294 3.85124 3.5049 4.00931 3.39361Z" fill="white"/>
<path d="M4.00931 3.39361C4.16738 3.28232 4.35368 3.22284 4.54433 3.2228C4.6727 3.2228 4.79976 3.24976 4.91796 3.30207C5.03615 3.35438 5.14305 3.43098 5.23232 3.5273L5.90909 4.23391C6.00095 4.326 6.07429 4.4363 6.12481 4.55836C6.17534 4.68041 6.20203 4.81177 6.20332 4.94473C6.20462 5.07769 6.18049 5.20958 6.13235 5.33268C6.08422 5.45578 6.01304 5.56762 5.92299 5.66164C5.83294 5.75566 5.72582 5.82998 5.60792 5.88024C5.49002 5.9305 5.36369 5.95569 5.23635 5.95434C5.109 5.95299 4.9832 5.92512 4.8663 5.87237C4.74939 5.81962 4.64375 5.74304 4.55555 5.64713L3.87878 4.94052C3.74178 4.80208 3.64749 4.62409 3.608 4.42935C3.5685 4.23461 3.5856 4.032 3.6571 3.84747C3.7286 3.66294 3.85124 3.5049 4.00931 3.39361Z" fill="url(#paint1_linear_89_2)"/>
<path d="M18.7677 3.5273C18.9411 3.341 19.1771 3.23249 19.4258 3.22475C19.6186 3.21881 19.8086 3.27383 19.971 3.3826C20.1333 3.49136 20.2604 3.64879 20.3356 3.83427C20.4107 4.01974 20.4305 4.2246 20.3923 4.42201C20.354 4.61941 20.2595 4.80014 20.1212 4.94052L19.4445 5.64713C19.3563 5.74304 19.2506 5.81961 19.1337 5.87236C19.0168 5.92511 18.891 5.95298 18.7637 5.95433C18.6363 5.95568 18.51 5.93049 18.3921 5.88023C18.2742 5.82997 18.1671 5.75566 18.077 5.66164C17.987 5.56762 17.9158 5.45578 17.8677 5.33268C17.8195 5.20958 17.7954 5.07768 17.7967 4.94473C17.798 4.81177 17.8247 4.68041 17.8752 4.55836C17.9257 4.4363 17.9991 4.326 18.0909 4.23391L18.7677 3.5273Z" fill="white"/>
<path d="M18.7677 3.5273C18.9411 3.341 19.1771 3.23249 19.4258 3.22475C19.6186 3.21881 19.8086 3.27383 19.971 3.3826C20.1333 3.49136 20.2604 3.64879 20.3356 3.83427C20.4107 4.01974 20.4305 4.2246 20.3923 4.42201C20.354 4.61941 20.2595 4.80014 20.1212 4.94052L19.4445 5.64713C19.3563 5.74304 19.2506 5.81961 19.1337 5.87236C19.0168 5.92511 18.891 5.95298 18.7637 5.95433C18.6363 5.95568 18.51 5.93049 18.3921 5.88023C18.2742 5.82997 18.1671 5.75566 18.077 5.66164C17.987 5.56762 17.9158 5.45578 17.8677 5.33268C17.8195 5.20958 17.7954 5.07768 17.7967 4.94473C17.798 4.81177 17.8247 4.68041 17.8752 4.55836C17.9257 4.4363 17.9991 4.326 18.0909 4.23391L18.7677 3.5273Z" fill="url(#paint2_linear_89_2)"/>
<path d="M1.10035 11.0792C1.21806 11.0298 1.34399 11.0053 1.47083 11.0072H2.42803C2.55487 11.0053 2.6808 11.0298 2.7985 11.0792C2.91621 11.1286 3.02334 11.2019 3.11367 11.2949C3.204 11.3878 3.27573 11.4987 3.32469 11.6208C3.37365 11.743 3.39886 11.8741 3.39886 12.0066C3.39886 12.139 3.37365 12.2702 3.32469 12.3923C3.27573 12.5145 3.204 12.6253 3.11367 12.7183C3.02334 12.8113 2.91621 12.8846 2.7985 12.934C2.6808 12.9834 2.55487 13.0079 2.42803 13.006H1.47083C1.34399 13.0079 1.21806 12.9834 1.10035 12.934C0.982649 12.8846 0.875518 12.8113 0.785188 12.7183C0.694857 12.6253 0.623129 12.5145 0.57417 12.3923C0.525212 12.2702 0.5 12.139 0.5 12.0066C0.5 11.8741 0.525212 11.743 0.57417 11.6208C0.623129 11.4987 0.694857 11.3878 0.785188 11.2949C0.875518 11.2019 0.982649 11.1286 1.10035 11.0792Z" fill="white"/>
<path d="M1.10035 11.0792C1.21806 11.0298 1.34399 11.0053 1.47083 11.0072H2.42803C2.55487 11.0053 2.6808 11.0298 2.7985 11.0792C2.91621 11.1286 3.02334 11.2019 3.11367 11.2949C3.204 11.3878 3.27573 11.4987 3.32469 11.6208C3.37365 11.743 3.39886 11.8741 3.39886 12.0066C3.39886 12.139 3.37365 12.2702 3.32469 12.3923C3.27573 12.5145 3.204 12.6253 3.11367 12.7183C3.02334 12.8113 2.91621 12.8846 2.7985 12.934C2.6808 12.9834 2.55487 13.0079 2.42803 13.006H1.47083C1.34399 13.0079 1.21806 12.9834 1.10035 12.934C0.982649 12.8846 0.875518 12.8113 0.785188 12.7183C0.694857 12.6253 0.623129 12.5145 0.57417 12.3923C0.525212 12.2702 0.5 12.139 0.5 12.0066C0.5 11.8741 0.525212 11.743 0.57417 11.6208C0.623129 11.4987 0.694857 11.3878 0.785188 11.2949C0.875518 11.2019 0.982649 11.1286 1.10035 11.0792Z" fill="url(#paint3_linear_89_2)"/>
<path d="M21.2015 11.0792C21.3192 11.0298 21.4451 11.0053 21.572 11.0072H22.5292C22.656 11.0053 22.7819 11.0298 22.8996 11.0792C23.0174 11.1286 23.1245 11.2019 23.2148 11.2949C23.3051 11.3878 23.3769 11.4987 23.4258 11.6208C23.4748 11.743 23.5 11.8741 23.5 12.0066C23.5 12.139 23.4748 12.2702 23.4258 12.3923C23.3769 12.5145 23.3051 12.6253 23.2148 12.7183C23.1245 12.8113 23.0174 12.8846 22.8996 12.934C22.7819 12.9834 22.656 13.0079 22.5292 13.006H21.572C21.4451 13.0079 21.3192 12.9834 21.2015 12.934C21.0838 12.8846 20.9767 12.8113 20.8863 12.7183C20.796 12.6253 20.7243 12.5145 20.6753 12.3923C20.6264 12.2702 20.6011 12.139 20.6011 12.0066C20.6011 11.8741 20.6264 11.743 20.6753 11.6208C20.7243 11.4987 20.796 11.3878 20.8863 11.2949C20.9767 11.2019 21.0838 11.1286 21.2015 11.0792Z" fill="white"/>
<path d="M21.2015 11.0792C21.3192 11.0298 21.4451 11.0053 21.572 11.0072H22.5292C22.656 11.0053 22.7819 11.0298 22.8996 11.0792C23.0174 11.1286 23.1245 11.2019 23.2148 11.2949C23.3051 11.3878 23.3769 11.4987 23.4258 11.6208C23.4748 11.743 23.5 11.8741 23.5 12.0066C23.5 12.139 23.4748 12.2702 23.4258 12.3923C23.3769 12.5145 23.3051 12.6253 23.2148 12.7183C23.1245 12.8113 23.0174 12.8846 22.8996 12.934C22.7819 12.9834 22.656 13.0079 22.5292 13.006H21.572C21.4451 13.0079 21.3192 12.9834 21.2015 12.934C21.0838 12.8846 20.9767 12.8113 20.8863 12.7183C20.796 12.6253 20.7243 12.5145 20.6753 12.3923C20.6264 12.2702 20.6011 12.139 20.6011 12.0066C20.6011 11.8741 20.6264 11.743 20.6753 11.6208C20.7243 11.4987 20.796 11.3878 20.8863 11.2949C20.9767 11.2019 21.0838 11.1286 21.2015 11.0792Z" fill="url(#paint4_linear_89_2)"/>
<path d="M4.55555 18.3661C4.72892 18.1798 4.96494 18.0712 5.21362 18.0635C5.40643 18.0576 5.59647 18.1126 5.75881 18.2214C5.92116 18.3301 6.04826 18.4876 6.12343 18.673C6.19861 18.8585 6.21837 19.0634 6.18013 19.2608C6.14188 19.4582 6.0474 19.6389 5.90909 19.7793L5.23232 20.4859C5.14411 20.5818 5.03847 20.6584 4.92157 20.7111C4.80467 20.7639 4.67886 20.7917 4.55152 20.7931C4.42417 20.7944 4.29785 20.7693 4.17995 20.719C4.06204 20.6687 3.95493 20.5944 3.86488 20.5004C3.77483 20.4064 3.70365 20.2945 3.65551 20.1714C3.60738 20.0483 3.58325 19.9164 3.58454 19.7835C3.58584 19.6505 3.61253 19.5192 3.66305 19.3971C3.71358 19.2751 3.78692 19.1648 3.87878 19.0727L4.55555 18.3661Z" fill="white"/>
<path d="M4.55555 18.3661C4.72892 18.1798 4.96494 18.0712 5.21362 18.0635C5.40643 18.0576 5.59647 18.1126 5.75881 18.2214C5.92116 18.3301 6.04826 18.4876 6.12343 18.673C6.19861 18.8585 6.21837 19.0634 6.18013 19.2608C6.14188 19.4582 6.0474 19.6389 5.90909 19.7793L5.23232 20.4859C5.14411 20.5818 5.03847 20.6584 4.92157 20.7111C4.80467 20.7639 4.67886 20.7917 4.55152 20.7931C4.42417 20.7944 4.29785 20.7693 4.17995 20.719C4.06204 20.6687 3.95493 20.5944 3.86488 20.5004C3.77483 20.4064 3.70365 20.2945 3.65551 20.1714C3.60738 20.0483 3.58325 19.9164 3.58454 19.7835C3.58584 19.6505 3.61253 19.5192 3.66305 19.3971C3.71358 19.2751 3.78692 19.1648 3.87878 19.0727L4.55555 18.3661Z" fill="url(#paint5_linear_89_2)"/>
<path d="M18.2239 18.2339C18.3818 18.1229 18.5679 18.0636 18.7583 18.0635C18.8863 18.0635 19.0129 18.0903 19.1307 18.1423C19.2486 18.1942 19.3553 18.2703 19.4445 18.3661L20.1212 19.0727C20.2131 19.1648 20.2864 19.2751 20.3369 19.3971C20.3875 19.5192 20.4142 19.6505 20.4155 19.7835C20.4167 19.9164 20.3926 20.0483 20.3445 20.1714C20.2963 20.2945 20.2252 20.4064 20.1351 20.5004C20.0451 20.5944 19.938 20.6687 19.82 20.719C19.7021 20.7692 19.5758 20.7944 19.4485 20.7931C19.3211 20.7917 19.1953 20.7639 19.0784 20.7111C18.9615 20.6584 18.8559 20.5818 18.7677 20.4859L18.0909 19.7793C17.9545 19.6406 17.8607 19.4626 17.8216 19.268C17.7826 19.0734 17.8 18.8711 17.8717 18.6869C17.9433 18.5027 18.0659 18.345 18.2239 18.2339Z" fill="white"/>
<path d="M18.2239 18.2339C18.3818 18.1229 18.5679 18.0636 18.7583 18.0635C18.8863 18.0635 19.0129 18.0903 19.1307 18.1423C19.2486 18.1942 19.3553 18.2703 19.4445 18.3661L20.1212 19.0727C20.2131 19.1648 20.2864 19.2751 20.3369 19.3971C20.3875 19.5192 20.4142 19.6505 20.4155 19.7835C20.4167 19.9164 20.3926 20.0483 20.3445 20.1714C20.2963 20.2945 20.2252 20.4064 20.1351 20.5004C20.0451 20.5944 19.938 20.6687 19.82 20.719C19.7021 20.7692 19.5758 20.7944 19.4485 20.7931C19.3211 20.7917 19.1953 20.7639 19.0784 20.7111C18.9615 20.6584 18.8559 20.5818 18.7677 20.4859L18.0909 19.7793C17.9545 19.6406 17.8607 19.4626 17.8216 19.268C17.7826 19.0734 17.8 18.8711 17.8717 18.6869C17.9433 18.5027 18.0659 18.345 18.2239 18.2339Z" fill="url(#paint6_linear_89_2)"/>
<path d="M13.239 21.8497H10.7356C10.541 21.8497 10.3658 21.7268 10.2924 21.5387L10.2068 21.3195C10.1425 21.1549 10.2589 20.9748 10.4292 20.9754L13.544 20.9862C13.7142 20.9868 13.8294 21.1674 13.7643 21.3316L13.6812 21.5411C13.6072 21.7279 13.4326 21.8497 13.239 21.8497Z" fill="url(#paint7_linear_89_2)"/>
<path d="M13.605 19.988H10.3772C10.191 19.988 10.0218 19.8753 9.94325 19.699L9.77524 19.3219C9.70126 19.1558 9.81793 18.9658 9.99337 18.9667L13.9942 18.9867C14.1716 18.9876 14.2865 19.1826 14.2071 19.3483L14.033 19.7118C13.952 19.8811 13.7863 19.988 13.605 19.988Z" fill="url(#paint8_linear_89_2)"/>
<path d="M12.9208 12.4382V14.0248C12.9208 14.3007 12.7065 14.5245 12.4422 14.5245H11.5306C11.2662 14.5245 11.052 14.3007 11.052 14.0248V12.4382C11.052 12.3724 11.0271 12.3093 10.9828 12.2625L9.2635 10.4474C9.07979 10.2535 9.07898 9.94155 9.26168 9.74657L9.8894 9.07668C10.0771 8.87635 10.3859 8.87635 10.5736 9.07668L11.8153 10.4018C11.9092 10.502 12.0636 10.502 12.1574 10.4018L13.3991 9.07668C13.5868 8.87635 13.8956 8.87635 14.0833 9.07668L14.7111 9.74657C14.8938 9.94155 14.8929 10.2535 14.7092 10.4474L12.9899 12.2625C12.9456 12.3093 12.9208 12.3724 12.9208 12.4382Z" fill="url(#paint9_linear_89_2)"/>
<defs>
<linearGradient id="paint0_linear_89_2" x1="22.7812" y1="4.63226" x2="6.50866" y2="17.1996" gradientUnits="userSpaceOnUse">
<stop stop-color="#73CFFB"/>
<stop offset="1" stop-color="#3EAAE5"/>
</linearGradient>
<linearGradient id="paint1_linear_89_2" x1="22.7812" y1="4.63226" x2="6.50866" y2="17.1996" gradientUnits="userSpaceOnUse">
<stop stop-color="#73CFFB"/>
<stop offset="1" stop-color="#3EAAE5"/>
</linearGradient>
<linearGradient id="paint2_linear_89_2" x1="22.7812" y1="4.63226" x2="6.50866" y2="17.1996" gradientUnits="userSpaceOnUse">
<stop stop-color="#73CFFB"/>
<stop offset="1" stop-color="#3EAAE5"/>
</linearGradient>
<linearGradient id="paint3_linear_89_2" x1="22.7812" y1="4.63226" x2="6.50866" y2="17.1996" gradientUnits="userSpaceOnUse">
<stop stop-color="#73CFFB"/>
<stop offset="1" stop-color="#3EAAE5"/>
</linearGradient>
<linearGradient id="paint4_linear_89_2" x1="22.7812" y1="4.63226" x2="6.50866" y2="17.1996" gradientUnits="userSpaceOnUse">
<stop stop-color="#73CFFB"/>
<stop offset="1" stop-color="#3EAAE5"/>
</linearGradient>
<linearGradient id="paint5_linear_89_2" x1="22.7812" y1="4.63226" x2="6.50866" y2="17.1996" gradientUnits="userSpaceOnUse">
<stop stop-color="#73CFFB"/>
<stop offset="1" stop-color="#3EAAE5"/>
</linearGradient>
<linearGradient id="paint6_linear_89_2" x1="22.7812" y1="4.63226" x2="6.50866" y2="17.1996" gradientUnits="userSpaceOnUse">
<stop stop-color="#73CFFB"/>
<stop offset="1" stop-color="#3EAAE5"/>
</linearGradient>
<linearGradient id="paint7_linear_89_2" x1="14.8494" y1="11.3576" x2="8.7384" y2="13.5517" gradientUnits="userSpaceOnUse">
<stop stop-color="#73CFFB"/>
<stop offset="1" stop-color="#3EAAE5"/>
</linearGradient>
<linearGradient id="paint8_linear_89_2" x1="14.8494" y1="11.3576" x2="8.7384" y2="13.5517" gradientUnits="userSpaceOnUse">
<stop stop-color="#73CFFB"/>
<stop offset="1" stop-color="#3EAAE5"/>
</linearGradient>
<linearGradient id="paint9_linear_89_2" x1="14.8494" y1="11.3576" x2="8.7384" y2="13.5517" gradientUnits="userSpaceOnUse">
<stop stop-color="#73CFFB"/>
<stop offset="1" stop-color="#3EAAE5"/>
</linearGradient>
</defs>
</svg>
