<svg width="22" height="22" viewBox="0 0 22 22" fill="none" xmlns="http://www.w3.org/2000/svg">
<rect width="22" height="22" fill="url(#paint0_linear_29_51)" fill-opacity="0.01"/>
<path d="M6.89437 7.87528C6.89437 8.15142 7.11823 8.37528 7.39437 8.37528H13.5218C13.798 8.37528 14.0218 8.15142 14.0218 7.87528V7.2573C14.0218 6.98116 13.798 6.7573 13.5218 6.7573H7.39437C7.11823 6.7573 6.89437 6.98116 6.89437 7.2573V7.87528ZM14.8645 19C13.9108 19 13.0733 18.7127 12.352 18.138C11.7254 17.6387 11.2822 17.0483 11.0225 16.3667C10.9632 16.2113 11.0832 16.0517 11.2495 16.0517H13.1591C13.2495 16.0517 13.3315 16.1014 13.3831 16.1755C13.5132 16.3624 13.688 16.5248 13.9075 16.6629C14.1742 16.8307 14.4936 16.9146 14.8658 16.9146C15.4176 16.9146 15.8894 16.723 16.2813 16.3398C16.6732 15.9567 16.8691 15.4964 16.8691 14.959C16.8691 14.4097 16.676 13.9451 16.2898 13.5653C15.9036 13.1854 15.4293 12.9955 14.8668 12.9955C14.6848 12.9955 14.5199 13.0135 14.3721 13.0494C14.353 13.0541 14.334 13.059 14.3153 13.064C14.2271 13.0879 14.2476 13.1933 14.339 13.1933V13.1933C14.458 13.1933 14.5545 13.2897 14.5545 13.4088V15.0287C14.5545 15.1667 14.4426 15.2787 14.3045 15.2787H10.5611C10.4231 15.2787 10.3111 15.1667 10.3111 15.0287V11.3758C10.3111 11.2378 10.4231 11.1258 10.5611 11.1258H12.192C12.3301 11.1258 12.442 11.2378 12.442 11.3758V11.4707C12.442 11.5521 12.5345 11.6001 12.6032 11.5564C12.8827 11.3785 13.1963 11.232 13.5442 11.1169C13.9606 10.979 14.4015 10.9101 14.8668 10.9101C16.0189 10.9101 16.9958 11.3028 17.7975 12.0882C18.5992 12.8735 19 13.8305 19 14.9591C19 16.0758 18.5989 17.0284 17.7968 17.817C16.9946 18.6057 16.0172 19 14.8645 19ZM8.96177 17.2371C9.02897 17.4073 8.90734 17.5978 8.7244 17.5978H5.49828C4.79533 17.5978 4.20321 17.3581 3.72193 16.8787C3.24064 16.3993 3 15.824 3 15.1528V5.44494C3 4.757 3.24064 4.17753 3.72193 3.70652C4.20321 3.23551 4.79533 3 5.49828 3H15.4179C16.1209 3 16.713 3.23551 17.1943 3.70652C17.6755 4.17753 17.9162 4.757 17.9162 5.44494V9.10268C17.9162 9.28869 17.7198 9.41029 17.5493 9.33592C17.186 9.17742 16.8125 9.04897 16.4289 8.95056C15.9149 8.81873 15.3942 8.75281 14.8668 8.75281C14.3157 8.75281 13.7936 8.81588 13.3004 8.94202C12.8863 9.04792 12.4858 9.19361 12.0988 9.37911C11.9526 9.44917 11.7935 9.48989 11.6314 9.48989H7.39438C7.11823 9.48989 6.89437 9.71375 6.89437 9.98989V10.6079C6.89437 10.884 7.11823 11.1079 7.39437 11.1079H9.37408C9.58893 11.1079 9.70798 11.3649 9.58339 11.54C9.56233 11.5696 9.54162 11.5993 9.52124 11.6292C9.42732 11.7671 9.34059 11.912 9.26108 12.064C9.21653 12.1491 9.12948 12.2045 9.0334 12.2045H7.39437C7.11823 12.2045 6.89437 12.4284 6.89437 12.7045V13.3225C6.89437 13.5986 7.11823 13.8225 7.39437 13.8225H8.35057C8.50909 13.8225 8.62748 13.9682 8.60208 14.1246C8.58886 14.2061 8.57684 14.2888 8.56602 14.3728C8.54152 14.5629 8.52928 14.757 8.52928 14.9551C8.52928 15.4154 8.57826 15.866 8.67623 16.307C8.74633 16.6226 8.84151 16.9326 8.96177 17.2371Z" fill="url(#paint1_linear_29_51)"/>
<defs>
<linearGradient id="paint0_linear_29_51" x1="11" y1="18.3333" x2="11" y2="-0.458334" gradientUnits="userSpaceOnUse">
<stop stop-color="#BBBBBB"/>
<stop offset="1" stop-color="#EEEEEE"/>
</linearGradient>
<linearGradient id="paint1_linear_29_51" x1="11" y1="16.3333" x2="11" y2="2.66667" gradientUnits="userSpaceOnUse">
<stop stop-color="#BBBBBB"/>
<stop offset="1" stop-color="#EEEEEE"/>
</linearGradient>
</defs>
</svg>
