<svg width="24" height="24" viewBox="0 0 24 24" fill="none" xmlns="http://www.w3.org/2000/svg">
<rect width="24" height="24" fill="#A4A4A4" fill-opacity="0.01"/>
<path d="M11.6095 5.12215C11.8693 5.12215 12.0842 5.04042 12.254 4.87694C12.4239 4.71348 12.5089 4.50675 12.5089 4.25673C12.5089 4.00671 12.4239 3.79998 12.254 3.63652C12.0842 3.47304 11.8693 3.3913 11.6095 3.3913C11.3496 3.3913 11.1348 3.47304 10.9649 3.63652C10.795 3.79998 10.7101 4.00671 10.7101 4.25673C10.7101 4.50675 10.795 4.71348 10.9649 4.87694C11.1348 5.04042 11.3496 5.12215 11.6095 5.12215ZM17.005 23C15.623 23 14.4454 22.533 13.472 21.5989C12.4985 20.6648 12.0118 19.5351 12.0118 18.2098C12.0118 16.8845 12.4988 15.7536 13.4729 14.817C14.4469 13.8803 15.6249 13.412 17.0068 13.412C18.3888 13.412 19.5665 13.8803 20.5399 14.817C21.5133 15.7536 22 16.8845 22 18.2098C22 19.5351 21.513 20.6648 20.539 21.5989C19.5649 22.533 18.3869 23 17.005 23ZM16.1302 20.4819C16.1302 20.9544 16.5216 21.3375 16.9941 21.3375V21.3375C17.4666 21.3375 17.858 20.9544 17.858 20.4819V19.465C17.858 19.2288 18.0495 19.0373 18.2858 19.0373H19.4286C19.8814 19.0373 20.2485 18.6702 20.2485 18.2174V18.2174C20.2485 17.7646 19.8814 17.3975 19.4286 17.3975H18.2858C18.0495 17.3975 17.858 17.206 17.858 16.9697V15.9529C17.858 15.4804 17.4666 15.0973 16.9941 15.0973V15.0973C16.5216 15.0973 16.1302 15.4804 16.1302 15.9529V16.9697C16.1302 17.206 15.9387 17.3975 15.7024 17.3975H14.5832C14.1304 17.3975 13.7633 17.7646 13.7633 18.2174V18.2174C13.7633 18.6702 14.1304 19.0373 14.5832 19.0373H15.7024C15.9387 19.0373 16.1302 19.2288 16.1302 19.465V20.4819ZM7.01775 8.82146C7.01775 9.29397 7.4008 9.67702 7.87331 9.67702H15.3456C15.8181 9.67702 16.2012 9.29397 16.2012 8.82146V8.48288C16.2012 8.01037 15.8181 7.62733 15.3456 7.62733H7.87331C7.4008 7.62733 7.01775 8.01037 7.01775 8.48288V8.82146ZM10.6072 20.6855C10.733 20.9859 10.5239 21.3375 10.1982 21.3375H5.21893C4.31361 21.3375 3.55078 21.0337 2.93046 20.4262C2.31015 19.8187 2 19.09 2 18.2402V5.94203C2 5.09217 2.31015 4.36349 2.93046 3.75599C3.55078 3.14848 4.31361 2.84472 5.21893 2.84472H8.17751C8.55621 2.26777 9.04536 1.81608 9.64497 1.48965C10.2446 1.16322 10.8994 1 11.6095 1C12.3195 1 12.9744 1.16322 13.574 1.48965C14.1736 1.81608 14.6627 2.26777 15.0414 2.84472H18C18.9053 2.84472 19.6681 3.14848 20.2885 3.75599C20.9088 4.36349 21.2189 5.09217 21.2189 5.94203V12.1077C21.2189 12.4589 20.8135 12.6669 20.5076 12.4943C20.1005 12.2645 19.6749 12.0808 19.2308 11.9431C18.5207 11.7229 17.7791 11.6128 17.0059 11.6128C16.865 11.6128 16.728 11.6179 16.595 11.628C16.5324 11.6328 16.4702 11.6375 16.4083 11.6423C16.2966 11.6509 16.2012 11.5626 16.2012 11.4506V11.4506C16.2012 11.2383 16.0291 11.0663 15.8168 11.0663H7.87331C7.4008 11.0663 7.01775 11.4493 7.01775 11.9218V12.2604C7.01775 12.7329 7.4008 13.1159 7.87331 13.1159H11.6833C11.9988 13.1159 12.1513 13.5354 11.9315 13.7618V13.7618C11.7493 13.9496 11.575 14.1485 11.4086 14.3586C11.3251 14.4642 11.1989 14.528 11.0643 14.528H7.87331C7.4008 14.528 7.01775 14.911 7.01775 15.3835V15.7221C7.01775 16.1946 7.4008 16.5776 7.87331 16.5776H9.78663C10.0639 16.5776 10.268 16.8377 10.221 17.111C10.2052 17.2028 10.1907 17.2961 10.1775 17.3907C10.1381 17.6741 10.1183 17.9573 10.1183 18.2402C10.1183 18.7868 10.1854 19.3182 10.3195 19.8344C10.3945 20.1228 10.4904 20.4065 10.6072 20.6855Z" fill="url(#paint0_linear_26_27)"/>
<defs>
<linearGradient id="paint0_linear_26_27" x1="12" y1="20.963" x2="12" y2="-2.00463" gradientUnits="userSpaceOnUse">
<stop stop-color="#BBBBBB"/>
<stop offset="1" stop-color="#EEEEEE"/>
</linearGradient>
</defs>
</svg>
