<svg width="24" height="24" viewBox="0 0 24 24" fill="none" xmlns="http://www.w3.org/2000/svg">
<rect width="24" height="24" fill="#A4A4A4" fill-opacity="0.01"/>
<path d="M13.7758 15.7934C13.7758 16.401 14.2683 16.8934 14.8758 16.8934H15.2901C15.8976 16.8934 16.3901 16.401 16.3901 15.7934V15.1566C16.3901 14.8528 16.6364 14.6066 16.9401 14.6066H17.6578C18.2654 14.6066 18.7578 14.1141 18.7578 13.5066V13.1C18.7578 12.4925 18.2654 12 17.6578 12H16.9401C16.6364 12 16.3901 11.7538 16.3901 11.45V10.7885C16.3901 10.181 15.8976 9.68853 15.2901 9.68853H14.8758C14.2683 9.68853 13.7758 10.181 13.7758 10.7885V11.45C13.7758 11.7538 13.5295 12 13.2258 12H12.5327C11.9252 12 11.4327 12.4925 11.4327 13.1V13.5066C11.4327 14.1141 11.9252 14.6066 12.5327 14.6066H13.2258C13.5295 14.6066 13.7758 14.8528 13.7758 15.1566V15.7934ZM4.35426 21C3.41498 21 2.62112 20.6767 1.97266 20.0302C1.32422 19.3837 1 18.5922 1 17.6557V6.34426C1 5.40779 1.32423 4.61629 1.97269 3.96979C2.62111 3.32326 3.41497 3 4.35426 3H8.95564C9.24681 3 9.5261 3.11544 9.7323 3.32102L12 5.58197H19.6457C20.585 5.58197 21.3789 5.90523 22.0273 6.55175C22.6758 7.19826 23 7.98975 23 8.92623V17.6557C23 18.5922 22.6758 19.3837 22.0273 20.0302C21.3789 20.6767 20.585 21 19.6457 21H4.35426Z" fill="url(#paint0_linear_26_114)"/>
<defs>
<linearGradient id="paint0_linear_26_114" x1="12" y1="19.3333" x2="12" y2="0.541666" gradientUnits="userSpaceOnUse">
<stop stop-color="#BBBBBB"/>
<stop offset="1" stop-color="#EEEEEE"/>
</linearGradient>
</defs>
</svg>
