<svg width="24" height="24" viewBox="0 0 24 24" fill="none" xmlns="http://www.w3.org/2000/svg">
<defs>
<style id="current-color-scheme" type="text/css">.ColorScheme-Text { color:#ffffff; }</style>
</defs>
<g opacity="0.90">
<rect width="24" height="24" fill="#A4A4A4" fill-opacity="0.01"/>
<path class="ColorScheme-Text" d="M0.981817 22C0.439574 22 0 21.5604 0 21.0182V18.4162C0 17.874 0.439575 17.4344 0.981818 17.4344H10.3455C10.8878 17.4344 11.3274 17.874 11.3274 18.4162V21.0182C11.3274 21.5604 10.8878 22 10.3455 22H0.981817ZM0.981818 15.4923C0.439574 15.4923 0 15.0528 0 14.5105V11.9086C0 11.3663 0.439575 10.9267 0.981818 10.9267H6.06751C6.60975 10.9267 7.04933 11.3663 7.04933 11.9086V14.5105C7.04933 15.0528 6.60975 15.4923 6.06751 15.4923H0.981818ZM0.981818 8.13288C0.439574 8.13288 0 7.6933 0 7.15106V4.51504C0 3.9728 0.439575 3.53322 0.981818 3.53322H6.06751C6.60975 3.53322 7.04933 3.97279 7.04933 4.51504V7.15106C7.04933 7.6933 6.60975 8.13288 6.06751 8.13288H0.981818ZM22.5551 21.0018C22.1564 21.5066 21.3882 21.4981 21.0008 20.9847L18.3617 17.4868C18.0201 17.0341 17.3713 16.9776 16.8714 17.2455C16.6829 17.3465 16.4897 17.4322 16.2918 17.5026C15.7808 17.6843 15.2656 17.7751 14.7463 17.7751C13.0448 17.7751 11.6101 17.0095 10.4423 15.4783C9.27448 13.947 8.69058 12.0922 8.69058 9.91376C8.69058 7.73534 9.27708 5.87178 10.4501 4.32307C11.6231 2.77436 13.0491 2 14.7281 2C16.4071 2 17.8341 2.77058 19.009 4.31175C20.1839 5.85292 20.7713 7.71721 20.7713 9.9046C20.7713 10.6008 20.7085 11.2803 20.583 11.943C20.4955 12.4045 20.3689 12.8493 20.2032 13.2773C20.0702 13.6208 20.1037 14.0123 20.3257 14.3062L23.5431 18.567C23.8122 18.9234 23.8069 19.4166 23.5301 19.7671L22.5551 21.0018ZM14.7309 13.6865C15.5112 13.6865 16.1839 13.3162 16.7489 12.5756C17.3139 11.8349 17.5964 10.9356 17.5964 9.87755C17.5964 8.81949 17.3146 7.9178 16.7511 7.17247C16.1876 6.42717 15.5187 6.05451 14.7444 6.05451C13.9372 6.05451 13.2556 6.42824 12.6996 7.17571C12.1435 7.92317 11.8655 8.8308 11.8655 9.8986C11.8655 10.9418 12.1416 11.8339 12.694 12.575C13.2463 13.316 13.9253 13.6865 14.7309 13.6865Z" fill="currentColor"/>
</g>
</svg>
