<svg width="24" height="24" viewBox="0 0 24 24" fill="none" xmlns="http://www.w3.org/2000/svg">
<rect width="24" height="24" fill="#A4A4A4" fill-opacity="0.01"/>
<path d="M10 23.75V23.75C5.44547 23.75 1.7533 20.0573 1.7533 15.5028C1.7533 15.3003 1.7533 15.143 1.7533 15V4.8842C1.7533 3.2913 3.0446 2 4.6375 2V2C4.66936 2 4.69519 2.02583 4.69519 2.05768V14.75C4.69519 18.0637 7.38148 20.75 10.6952 20.75H20.4412C20.4737 20.75 20.5 20.7763 20.5 20.8088V20.8088C20.5 22.4332 19.1832 23.75 17.5588 23.75H10Z" fill="white"/>
<rect x="8.5" y="1.75" width="12.2" height="15.25" rx="2.44" stroke="url(#paint0_linear_34_24)" stroke-width="3.05"/>
<defs>
<linearGradient id="paint0_linear_34_24" x1="22.225" y1="0.225001" x2="6.975" y2="18.525" gradientUnits="userSpaceOnUse">
<stop stop-color="#73CFFB"/>
<stop offset="1" stop-color="#3EAAE5"/>
</linearGradient>
</defs>
</svg>
