<svg width="22" height="22" viewBox="0 0 22 22" fill="none" xmlns="http://www.w3.org/2000/svg">
<path d="M18.7495 13.3979L16.336 8.64708C15.8965 7.77739 15.2411 7.28414 14.4931 7.25169C13.7528 7.21924 13.0357 7.65408 12.4882 8.48482L11.0231 10.698C10.7148 11.1653 10.2752 11.4443 9.79715 11.4768C9.31134 11.5158 8.82556 11.3016 8.43229 10.8797L8.26265 10.698C7.71517 10.1204 7.03662 9.84125 6.34263 9.8997C5.64865 9.95814 5.05491 10.3605 4.66165 11.0161L3.32766 13.2552C2.84957 14.0664 2.89584 15.0075 3.45874 15.7733C4.02164 16.5392 5.00093 17 6.07275 17H15.912C16.9452 17 17.909 16.5652 18.4796 15.8382C19.0657 15.1113 19.1583 14.1962 18.7495 13.3979Z" fill="url(#paint0_linear_126_290)"/>
<path d="M6.91096 9C8.01554 9 8.91095 8.10458 8.91095 7.00001C8.91095 5.89543 8.01554 5 6.91096 5C5.80639 5 4.91095 5.89543 4.91095 7.00001C4.91095 8.10458 5.80639 9 6.91096 9Z" fill="url(#paint1_linear_126_290)"/>
<defs>
<linearGradient id="paint0_linear_126_290" x1="3" y1="17" x2="18.0861" y2="5.99701" gradientUnits="userSpaceOnUse">
<stop stop-color="#BBBBBB"/>
<stop offset="1" stop-color="#EEEEEE"/>
</linearGradient>
<linearGradient id="paint1_linear_126_290" x1="4.91095" y1="9" x2="9.73569" y2="6.85567" gradientUnits="userSpaceOnUse">
<stop stop-color="#BBBBBB"/>
<stop offset="1" stop-color="#EEEEEE"/>
</linearGradient>
</defs>
</svg>
