<svg width="22" height="22" viewBox="0 0 22 22" fill="none" xmlns="http://www.w3.org/2000/svg">
<defs>
<style id="current-color-scheme" type="text/css">.ColorScheme-Text { color:#ffffff; }</style>
</defs>
<g opacity="0.90">
<rect width="22" height="22" fill="url(#paint0_linear_29_61)" fill-opacity="0.01"/>
<path class="ColorScheme-Text" fill-rule="evenodd" clip-rule="evenodd" d="M3.70739 16.3535C4.179 16.7845 4.75635 17 5.43946 17H16.5605C17.2436 17 17.821 16.7845 18.2926 16.3535C18.7642 15.9225 19 15.3948 19 14.7705V8.95082C19 8.3265 18.7642 7.79884 18.2926 7.36784C17.821 6.93682 17.2436 6.72131 16.5605 6.72131H11.3881C11.1384 6.72131 10.8978 6.62791 10.7135 6.45947L9.40309 5.26184C9.21879 5.0934 8.97814 5 8.72846 5H5.43946C4.75634 5 4.17899 5.21551 3.70741 5.64652C3.2358 6.07753 3 6.60519 3 7.22951V14.7705C3 15.3948 3.2358 15.9225 3.70739 16.3535ZM11.1803 15.5294C10.3571 15.5294 9.63426 15.2787 9.01166 14.7773C8.47074 14.3416 8.08819 13.8264 7.864 13.2318C7.81287 13.0961 7.91644 12.9569 8.06001 12.9569H9.7083C9.78629 12.9569 9.85707 13.0002 9.90164 13.0649C10.0139 13.2279 10.1648 13.3697 10.3543 13.4902C10.5845 13.6366 10.8602 13.7098 11.1815 13.7098C11.6577 13.7098 12.065 13.5426 12.4033 13.2083C12.7415 12.874 12.9107 12.4724 12.9107 12.0035C12.9107 11.5242 12.744 11.1188 12.4106 10.7873C12.0773 10.4559 11.6679 10.2902 11.1823 10.2902C11.0253 10.2902 10.8829 10.3059 10.7553 10.3373C10.7388 10.3413 10.7224 10.3456 10.7063 10.35C10.6301 10.3708 10.6479 10.4627 10.7268 10.4627C10.8295 10.4627 10.9128 10.5469 10.9128 10.6508V12.0642C10.9128 12.1847 10.8162 12.2824 10.697 12.2824H7.46579C7.34661 12.2824 7.25 12.1847 7.25 12.0642V8.87696C7.25 8.75649 7.34661 8.65882 7.46579 8.65882H8.87353C8.99271 8.65882 9.08932 8.75649 9.08932 8.87696V8.95974C9.08932 9.03073 9.16918 9.07263 9.22843 9.03451C9.46967 8.8793 9.74043 8.75145 10.0407 8.65098C10.4001 8.53072 10.7807 8.47059 11.1823 8.47059C12.1768 8.47059 13.02 8.81322 13.712 9.49849C14.404 10.1838 14.75 11.0188 14.75 12.0035C14.75 12.9779 14.4038 13.8091 13.7114 14.4972C13.019 15.1853 12.1753 15.5294 11.1803 15.5294Z" fill="currentColor"/>
</g>
</svg>
