<svg width="22" height="22" viewBox="0 0 22 22" fill="none" xmlns="http://www.w3.org/2000/svg">
<defs>
<style id="current-color-scheme" type="text/css">.ColorScheme-Text { color:#ffffff; }</style>
</defs>
<g opacity="0.90">
<rect width="22" height="22" fill="#A4A4A4" fill-opacity="0.01"/>
<path class="ColorScheme-Text" d="M6.71052 12.125C6.56018 12.125 6.48489 12.3068 6.5912 12.4131L11.8808 17.7027C12.2787 18.1006 12.2758 18.7465 11.8745 19.1409L11.7159 19.2967C11.3195 19.6861 10.6833 19.6833 10.2904 19.2904L2.35797 11.358C2.16027 11.1603 2.16027 10.8397 2.35797 10.642L10.2904 2.70964C10.6833 2.3167 11.3195 2.31389 11.7159 2.70333L11.8745 2.85911C12.2758 3.25346 12.2787 3.89943 11.8808 4.29731L6.5912 9.58693C6.48489 9.69323 6.56018 9.875 6.71052 9.875H18.9875C19.5467 9.875 20 10.3283 20 10.8875V11.1125C20 11.6717 19.5467 12.125 18.9875 12.125H6.71052Z" fill="currentColor"/>
</g>
</svg>
