<svg width="22" height="22" viewBox="0 0 22 22" fill="none" xmlns="http://www.w3.org/2000/svg">
<defs>
<style id="current-color-scheme" type="text/css">.ColorScheme-Text { color:#ffffff; }</style>
</defs>
<g opacity="0.90">
<rect x="22" width="22" height="22" transform="rotate(90 22 0)" fill="#A4A4A4" fill-opacity="0.01"/>
<path class="ColorScheme-Text" d="M9.875 6.71052C9.875 6.56018 9.69323 6.48489 9.58693 6.5912L4.29731 11.8808C3.89943 12.2787 3.25346 12.2758 2.85911 11.8745L2.70333 11.7159C2.31389 11.3195 2.3167 10.6833 2.70964 10.2904L10.642 2.35797C10.8397 2.16027 11.1603 2.16027 11.358 2.35797L19.2904 10.2904C19.6833 10.6833 19.6861 11.3195 19.2967 11.7159L19.1409 11.8745C18.7465 12.2758 18.1006 12.2787 17.7027 11.8808L12.4131 6.5912C12.3068 6.48489 12.125 6.56018 12.125 6.71052V18.9875C12.125 19.5467 11.6717 20 11.1125 20H10.8875C10.3283 20 9.875 19.5467 9.875 18.9875L9.875 6.71052Z" fill="currentColor"/>
</g>
</svg>
