<svg width="24" height="24" viewBox="0 0 24 24" fill="none" xmlns="http://www.w3.org/2000/svg">
<defs>
<style id="current-color-scheme" type="text/css">.ColorScheme-Text { color:#ffffff; }</style>
</defs>
<g opacity="0.90">
<path class="ColorScheme-Text" d="M0 0H24V24H0V0Z" fill="url(#paint0_linear_23_15)" fill-opacity="0.01"/>
<path class="ColorScheme-Text" d="M12.004 16.4082C13.1958 16.4082 14.2076 15.9792 15.0392 15.1213C15.8708 14.2633 16.2866 13.2215 16.2866 11.9959C16.2866 10.7703 15.8695 9.72984 15.0352 8.87464C14.2009 8.01944 13.1878 7.59184 11.996 7.59184C10.8042 7.59184 9.79244 8.02081 8.96083 8.87876C8.12921 9.7367 7.7134 10.7785 7.7134 12.0041C7.7134 13.2297 8.13054 14.2702 8.96482 15.1254C9.79911 15.9806 10.8122 16.4082 12.004 16.4082ZM12.0013 14.0525C11.4473 14.0525 10.9759 13.8531 10.5872 13.4542C10.1985 13.0554 10.0041 12.5711 10.0041 12.0014C10.0041 11.4316 10.198 10.9469 10.5859 10.5471C10.9737 10.1474 11.4446 9.94752 11.9987 9.94752C12.5527 9.94752 13.0241 10.1469 13.4128 10.5458C13.8015 10.9446 13.9959 11.4289 13.9959 11.9986C13.9959 12.5684 13.802 13.0531 13.4141 13.4529C13.0263 13.8526 12.5554 14.0525 12.0013 14.0525ZM12 20C9.53539 20 7.30893 19.2614 5.32062 17.7843C3.45524 16.3984 2.07229 14.6157 1.17177 12.4361C1.05637 12.1568 1.05636 11.8432 1.17177 11.5639C2.07229 9.38428 3.45524 7.60157 5.32062 6.21574C7.30893 4.73858 9.53539 4 12 4C14.4646 4 16.6911 4.73858 18.6794 6.21574C20.5448 7.60157 21.9277 9.38428 22.8282 11.5639C22.9436 11.8432 22.9436 12.1568 22.8282 12.4361C21.9277 14.6157 20.5448 16.3984 18.6794 17.7843C16.6911 19.2614 14.4646 20 12 20Z" fill="currentColor"/>
</g>
</svg>
