<svg width="24" height="24" viewBox="0 0 24 24" fill="none" xmlns="http://www.w3.org/2000/svg">
<defs>
<style id="current-color-scheme" type="text/css">.ColorScheme-Text { color:#ffffff; }</style>
</defs>
<g opacity="0.90">
<rect width="24" height="24" fill="#A4A4A4" fill-opacity="0.01"/>
<path class="ColorScheme-Text" d="M13.1139 13.932C13.1139 13.4802 13.4802 13.1139 13.932 13.1139H21.5909C21.8168 13.1139 22 13.297 22 13.523V18.6337C22 19.5743 21.6741 20.3705 21.0223 21.0223C20.3705 21.6741 19.5743 22 18.6337 22H13.523C13.297 22 13.1139 21.8168 13.1139 21.5909V13.932ZM13.932 10.8861C13.4802 10.8861 13.1139 10.5198 13.1139 10.068V2.40909C13.1139 2.18316 13.297 2 13.523 2H18.6337C19.5743 2 20.3705 2.32591 21.0223 2.97772C21.6741 3.62954 22 4.42574 22 5.36634V10.477C22 10.703 21.8168 10.8861 21.5909 10.8861H13.932ZM10.8861 10.068C10.8861 10.5198 10.5198 10.8861 10.068 10.8861H2.40909C2.18316 10.8861 2 10.703 2 10.477V5.36634C2 4.42574 2.32591 3.62954 2.97772 2.97772C3.62954 2.32591 4.42574 2 5.36634 2H10.477C10.703 2 10.8861 2.18316 10.8861 2.40909V10.068ZM10.068 13.1139C10.5198 13.1139 10.8861 13.4802 10.8861 13.932V21.5909C10.8861 21.8168 10.703 22 10.477 22H5.36634C4.42574 22 3.62954 21.6741 2.97772 21.0223C2.32591 20.3705 2 19.5743 2 18.6337V13.523C2 13.297 2.18316 13.1139 2.40909 13.1139H10.068Z" fill="currentColor"/>
</g>
</svg>
