<svg width="24" height="24" viewBox="0 0 24 24" fill="none" xmlns="http://www.w3.org/2000/svg">
<rect width="24" height="24" fill="url(#paint0_linear_29_6)" fill-opacity="0.01"/>
<path d="M9.74549 20.5C9.74549 20.7761 9.96935 21 10.2455 21H19.6306C20.5721 21 21.369 20.6736 22.0214 20.0207C22.6738 19.3678 23 18.5702 23 17.6281V16.8141C23 16.5379 22.7761 16.3141 22.5 16.3141H10.7455C10.1932 16.3141 9.74549 16.7618 9.74549 17.3141V20.5ZM1 7.18595C1 7.46209 1.22386 7.68595 1.5 7.68595H6.51577C7.06805 7.68595 7.51577 7.23824 7.51577 6.68595V3.5C7.51577 3.22386 7.29191 3 7.01577 3H4.36937C3.42793 3 2.63101 3.32645 1.9786 3.97934C1.3262 4.63223 1 5.42975 1 6.3719V7.18595ZM1 13.8306C1 14.1067 1.22386 14.3306 1.5 14.3306H6.51577C7.06805 14.3306 7.51577 13.8829 7.51577 13.3306V10.6694C7.51577 10.1171 7.06805 9.66942 6.51577 9.66942H1.5C1.22386 9.66942 1 9.89328 1 10.1694V13.8306ZM4.36937 21H7.01577C7.29191 21 7.51577 20.7761 7.51577 20.5V17.3141C7.51577 16.7618 7.06805 16.3141 6.51577 16.3141H1.5C1.22386 16.3141 1 16.5379 1 16.8141V17.6281C1 18.5702 1.3262 19.3678 1.9786 20.0207C2.63101 20.6736 3.42793 21 4.36937 21ZM9.74549 13.3306C9.74549 13.8829 10.1932 14.3306 10.7455 14.3306H22.5C22.7761 14.3306 23 14.1067 23 13.8306V10.1694C23 9.89328 22.7761 9.66942 22.5 9.66942H10.7455C10.1932 9.66942 9.74549 10.1171 9.74549 10.6694V13.3306ZM9.74549 6.68595C9.74549 7.23823 10.1932 7.68595 10.7455 7.68595H22.5C22.7761 7.68595 23 7.46209 23 7.18595V6.3719C23 5.42975 22.6738 4.63223 22.0214 3.97934C21.369 3.32645 20.5721 3 19.6306 3H10.2455C9.96935 3 9.74549 3.22386 9.74549 3.5V6.68595Z" fill="url(#paint1_linear_29_6)"/>
<defs>
<linearGradient id="paint0_linear_29_6" x1="12" y1="20" x2="12" y2="-0.500001" gradientUnits="userSpaceOnUse">
<stop stop-color="#BBBBBB"/>
<stop offset="1" stop-color="#EEEEEE"/>
</linearGradient>
<linearGradient id="paint1_linear_29_6" x1="12" y1="18" x2="12" y2="2.625" gradientUnits="userSpaceOnUse">
<stop stop-color="#BBBBBB"/>
<stop offset="1" stop-color="#EEEEEE"/>
</linearGradient>
</defs>
</svg>
