<svg width="24" height="24" viewBox="0 0 24 24" fill="none" xmlns="http://www.w3.org/2000/svg">
<defs>
<style id="current-color-scheme" type="text/css">.ColorScheme-Text { color:#ffffff; }</style>
</defs>
<g opacity="0.90">
<path class="ColorScheme-Text" d="M22.6556 15.2972L19.337 8.76474C18.7326 7.56892 17.8315 6.89069 16.8031 6.84608C15.7852 6.80145 14.7991 7.39936 14.0463 8.54163L12.0318 11.5848C11.6078 12.2273 11.0034 12.6109 10.3461 12.6556C9.67809 12.7093 9.01015 12.4147 8.4694 11.8345L8.23614 11.5848C7.48336 10.7906 6.55035 10.4067 5.59612 10.4871C4.6419 10.5674 3.8255 11.1207 3.28477 12.0221L1.45053 15.1009C0.793165 16.2163 0.856787 17.5103 1.63077 18.5633C2.40475 19.6164 3.75127 20.25 5.22503 20.25H18.754C20.1747 20.25 21.4999 19.6521 22.2844 18.6526C23.0903 17.653 23.2177 16.3948 22.6556 15.2972Z" fill="currentColor"/>
<path class="ColorScheme-Text" d="M6.37757 9.25C7.89636 9.25 9.12756 8.0188 9.12756 6.50001C9.12756 4.98122 7.89636 3.75 6.37757 3.75C4.85878 3.75 3.62756 4.98122 3.62756 6.50001C3.62756 8.0188 4.85878 9.25 6.37757 9.25Z" fill="currentColor"/>
<rect class="ColorScheme-Text" width="24" height="24" fill="currentColor" fill-opacity="0.01"/>
</g>
</svg>
