<svg width="24" height="24" viewBox="0 0 24 24" fill="none" xmlns="http://www.w3.org/2000/svg">
<defs>
<style id="current-color-scheme" type="text/css">.ColorScheme-Text { color:#ffffff; }</style>
</defs>
<rect width="24" height="24" fill="currentColor" fill-opacity="0.01"/>
<g opacity="0.90">
<path class="ColorScheme-Text" fill-rule="evenodd" clip-rule="evenodd" d="M1 6.52C1 4.57596 2.57596 3 4.52 3H6C6.55228 3 7 3.44772 7 4V6.4C7 6.95228 6.55228 7.4 6 7.4H1.88C1.39399 7.4 1 7.00601 1 6.52ZM9 4C9 3.44772 9.44772 3 10 3H14C14.5523 3 15 3.44772 15 4V6.4C15 6.95228 14.5523 7.4 14 7.4H10C9.44772 7.4 9 6.95228 9 6.4V4ZM18 3C17.4477 3 17 3.44772 17 4V6.4C17 6.95228 17.4477 7.4 18 7.4H22.12C22.606 7.4 23 7.00601 23 6.52C23 4.57596 21.424 3 19.48 3H18ZM1 10.8C1 10.2477 1.44772 9.8 2 9.8H6C6.55228 9.8 7 10.2477 7 10.8V13.2C7 13.7523 6.55228 14.2 6 14.2H2C1.44772 14.2 1 13.7523 1 13.2V10.8ZM10 9.8C9.44772 9.8 9 10.2477 9 10.8V13.2C9 13.7523 9.44772 14.2 10 14.2H14C14.5523 14.2 15 13.7523 15 13.2V10.8C15 10.2477 14.5523 9.8 14 9.8H10ZM17 10.8C17 10.2477 17.4477 9.8 18 9.8H22C22.5523 9.8 23 10.2477 23 10.8V13.2C23 13.7523 22.5523 14.2 22 14.2H18C17.4477 14.2 17 13.7523 17 13.2V10.8ZM1.88 16.6C1.39399 16.6 1 16.994 1 17.48C1 19.424 2.57596 21 4.52 21H6C6.55228 21 7 20.5523 7 20V17.6C7 17.0477 6.55228 16.6 6 16.6H1.88ZM9 17.6C9 17.0477 9.44772 16.6 10 16.6H14C14.5523 16.6 15 17.0477 15 17.6V20C15 20.5523 14.5523 21 14 21H10C9.44772 21 9 20.5523 9 20V17.6ZM18 16.6C17.4477 16.6 17 17.0477 17 17.6V20C17 20.5523 17.4477 21 18 21H19.48C21.424 21 23 19.424 23 17.48C23 16.994 22.606 16.6 22.12 16.6H18Z" fill="currentColor"/>
</g>
</svg>
