<svg width="24" height="24" viewBox="0 0 24 24" fill="none" xmlns="http://www.w3.org/2000/svg">
<rect width="24" height="24" fill="url(#paint0_linear_29_16)" fill-opacity="0.01"/>
<path fill-rule="evenodd" clip-rule="evenodd" d="M1 6.52C1 4.57596 2.57596 3 4.52 3C5.00601 3 5.4 3.39399 5.4 3.88V6.4C5.4 6.95228 4.95228 7.4 4.4 7.4H1.88C1.39399 7.4 1 7.00601 1 6.52ZM6.8 4C6.8 3.44772 7.24772 3 7.8 3H13.2C13.7523 3 14.2 3.44772 14.2 4V6.4C14.2 6.95228 13.7523 7.4 13.2 7.4H7.8C7.24772 7.4 6.8 6.95228 6.8 6.4V4ZM16.6 3C16.0477 3 15.6 3.44772 15.6 4V6.4C15.6 6.95228 16.0477 7.4 16.6 7.4H22.12C22.606 7.4 23 7.00601 23 6.52C23 4.57596 21.424 3 19.48 3H16.6ZM1 10.8C1 10.2477 1.44772 9.8 2 9.8H4.4C4.95228 9.8 5.4 10.2477 5.4 10.8V13.2C5.4 13.7523 4.95228 14.2 4.4 14.2H2C1.44772 14.2 1 13.7523 1 13.2V10.8ZM7.8 9.8C7.24772 9.8 6.8 10.2477 6.8 10.8V13.2C6.8 13.7523 7.24772 14.2 7.8 14.2H13.2C13.7523 14.2 14.2 13.7523 14.2 13.2V10.8C14.2 10.2477 13.7523 9.8 13.2 9.8H7.8ZM15.6 10.8C15.6 10.2477 16.0477 9.8 16.6 9.8H22C22.5523 9.8 23 10.2477 23 10.8V13.2C23 13.7523 22.5523 14.2 22 14.2H16.6C16.0477 14.2 15.6 13.7523 15.6 13.2V10.8ZM1.88 16.6C1.39399 16.6 1 16.994 1 17.48C1 19.424 2.57596 21 4.52 21C5.00601 21 5.4 20.606 5.4 20.12V17.6C5.4 17.0477 4.95228 16.6 4.4 16.6H1.88ZM6.8 17.6C6.8 17.0477 7.24772 16.6 7.8 16.6H13.2C13.7523 16.6 14.2 17.0477 14.2 17.6V20C14.2 20.5523 13.7523 21 13.2 21H7.8C7.24772 21 6.8 20.5523 6.8 20V17.6ZM16.6 16.6C16.0477 16.6 15.6 17.0477 15.6 17.6V20C15.6 20.5523 16.0477 21 16.6 21H19.48C21.424 21 23 19.424 23 17.48C23 16.994 22.606 16.6 22.12 16.6H16.6Z" fill="url(#paint1_linear_29_16)"/>
<defs>
<linearGradient id="paint0_linear_29_16" x1="12" y1="20" x2="12" y2="-0.500001" gradientUnits="userSpaceOnUse">
<stop stop-color="#BBBBBB"/>
<stop offset="1" stop-color="#EEEEEE"/>
</linearGradient>
<linearGradient id="paint1_linear_29_16" x1="12" y1="18" x2="12" y2="2.625" gradientUnits="userSpaceOnUse">
<stop stop-color="#BBBBBB"/>
<stop offset="1" stop-color="#EEEEEE"/>
</linearGradient>
</defs>
</svg>
