<svg width="24" height="24" viewBox="0 0 24 24" fill="none" xmlns="http://www.w3.org/2000/svg">
<defs>
<style id="current-color-scheme" type="text/css">.ColorScheme-Text { color:#ffffff; }</style>
</defs>
<rect width="24" height="24" fill="currentColor" fill-opacity="0.01"/>

<g opacity="0.90">
<path class="ColorScheme-Text" d="M13 20.25C13 20.6642 13.3358 21 13.75 21H19.6306C20.5721 21 21.369 20.6736 22.0214 20.0207C22.6738 19.3678 23 18.5702 23 17.6281V17.0641C23 16.6498 22.6642 16.3141 22.25 16.3141H14C13.4477 16.3141 13 16.7618 13 17.3141V20.25ZM1 6.93595C1 7.35016 1.33579 7.68595 1.75 7.68595H10C10.5523 7.68595 11 7.23824 11 6.68595V3.75C11 3.33579 10.6642 3 10.25 3H4.36937C3.42793 3 2.63101 3.32645 1.9786 3.97934C1.3262 4.63223 1 5.42975 1 6.3719V6.93595ZM1 13.5806C1 13.9948 1.33579 14.3306 1.75 14.3306H10C10.5523 14.3306 11 13.8829 11 13.3306V10.6694C11 10.1171 10.5523 9.66942 10 9.66942H1.75C1.33579 9.66942 1 10.0052 1 10.4194V13.5806ZM4.36937 21H10.25C10.6642 21 11 20.6642 11 20.25V17.3141C11 16.7618 10.5523 16.3141 10 16.3141H1.75C1.33579 16.3141 1 16.6498 1 17.0641V17.6281C1 18.5702 1.3262 19.3678 1.9786 20.0207C2.63101 20.6736 3.42793 21 4.36937 21ZM13 13.3306C13 13.8829 13.4477 14.3306 14 14.3306H22.25C22.6642 14.3306 23 13.9948 23 13.5806V10.4194C23 10.0052 22.6642 9.66942 22.25 9.66942H14C13.4477 9.66942 13 10.1171 13 10.6694V13.3306ZM13 6.68595C13 7.23823 13.4477 7.68595 14 7.68595H22.25C22.6642 7.68595 23 7.35016 23 6.93595V6.3719C23 5.42975 22.6738 4.63223 22.0214 3.97934C21.369 3.32645 20.5721 3 19.6306 3H13.75C13.3358 3 13 3.33579 13 3.75V6.68595Z" fill="currentColor"/>
</g>
</svg>
