<svg width="24" height="24" viewBox="0 0 24 24" fill="none" xmlns="http://www.w3.org/2000/svg">
<defs>
<style id="current-color-scheme" type="text/css">.ColorScheme-Text { color:#ffffff; }</style>
</defs>
<g opacity="0.90">
<rect width="24" height="24" fill="#A4A4A4" fill-opacity="0.01"/>
<path class="ColorScheme-Text" d="M11.0118 21C10.4683 21 9.99481 20.8017 9.5913 20.405C9.18779 20.0083 8.98604 19.5372 8.98604 18.9917V13.6149C8.98604 13.452 8.93203 13.2937 8.83247 13.1648L3.45221 6.19835C2.94165 5.53719 2.86342 4.83884 3.21752 4.10331C3.57162 3.36777 4.17688 3 5.03331 3H18.9667C19.8231 3 20.4284 3.36777 20.7825 4.10331C21.1366 4.83884 21.0584 5.53719 20.5478 6.19835L15.1675 13.1648C15.068 13.2937 15.014 13.452 15.014 13.6149V19.3388C15.014 19.8182 14.8534 20.2149 14.5322 20.5289C14.2111 20.843 13.8034 21 13.3093 21H11.0118Z" fill="currentColor"/>
</g>
</svg>
