<svg width="22" height="22" viewBox="0 0 22 22" fill="none" xmlns="http://www.w3.org/2000/svg">
<rect x="22" width="22" height="22" transform="rotate(90 22 0)" fill="#A4A4A4" fill-opacity="0.01"/>
<path d="M11 20C8.4875 20 6.35938 19.1281 4.61563 17.3844C2.87187 15.6406 2 13.5125 2 11C2 8.4875 2.87187 6.35938 4.61563 4.61563C6.35938 2.87187 8.4875 2 11 2C12.2937 2 13.5313 2.26719 14.7125 2.80156C15.7542 3.2728 16.6646 3.92266 17.4439 4.75114C17.5515 4.86554 17.75 4.79133 17.75 4.63427V3.0125C17.75 2.45331 18.2033 2 18.7625 2H18.9875C19.5467 2 20 2.45331 20 3.0125V9.36875C20 9.64834 19.7733 9.875 19.4938 9.875H13.1375C12.5783 9.875 12.125 9.42169 12.125 8.8625V8.6375C12.125 8.07831 12.5783 7.625 13.1375 7.625H16.5592C16.6888 7.625 16.7694 7.48526 16.7006 7.37548C16.1163 6.44346 15.3458 5.70164 14.3891 5.15C13.3484 4.55 12.2188 4.25 11 4.25C9.125 4.25 7.53125 4.90625 6.21875 6.21875C4.90625 7.53125 4.25 9.125 4.25 11C4.25 12.875 4.90625 14.4687 6.21875 15.7812C7.53125 17.0938 9.125 17.75 11 17.75C12.4437 17.75 13.7469 17.3375 14.9094 16.5125C15.8737 15.8281 16.5994 14.9631 17.0863 13.9175C17.2683 13.5266 17.6453 13.25 18.0765 13.25H18.4041C19.0683 13.25 19.5544 13.8817 19.2991 14.4949C18.7032 15.9257 17.7743 17.1326 16.5125 18.1156C14.9 19.3719 13.0625 20 11 20Z" fill="url(#paint0_linear_2_2)"/>
<defs>
<linearGradient id="paint0_linear_2_2" x1="11" y1="17" x2="11" y2="1.625" gradientUnits="userSpaceOnUse">
<stop stop-color="#BBBBBB"/>
<stop offset="1" stop-color="#EEEEEE"/>
</linearGradient>
</defs>
</svg>
