<svg width="8" height="11" viewBox="0 0 8 11" fill="none" xmlns="http://www.w3.org/2000/svg">
<path fill-rule="evenodd" clip-rule="evenodd" d="M4.18159 0.969435L7.06759 0.507541C7.42563 0.450237 7.75 0.726815 7.75 1.08942V2.58445C7.75 2.87371 7.54006 3.1202 7.25448 3.16623L4.79134 3.56324C4.50551 3.60821 4.4547 3.65318 4.4547 3.90307V8.47594C4.4547 9.94528 3.03196 10.5 2.09192 10.5C1.01852 10.5 0.25 9.95027 0.25 9.17062C0.25 8.40598 0.853378 7.88123 2.1491 7.67133L3.159 7.5014C3.41941 7.46142 3.55279 7.31149 3.55279 7.0816L3.51466 1.52419C3.51466 1.22431 3.74967 1.04441 4.18159 0.969435ZM7.75 6.88837C7.75 6.88837 7.75 6.88837 7.75 6.88837V6.88837C7.75 6.88837 7.75 6.88837 7.75 6.88837V9.63211L7.75 6.88837Z" fill="url(#paint0_linear_126_384)"/>
<defs>
<linearGradient id="paint0_linear_126_384" x1="0.25" y1="10.5" x2="10" y2="7.25" gradientUnits="userSpaceOnUse">
<stop stop-color="#BBBBBB"/>
<stop offset="1" stop-color="#EEEEEE"/>
</linearGradient>
</defs>
</svg>
