<svg width="12" height="9" viewBox="0 0 12 9" fill="none" xmlns="http://www.w3.org/2000/svg">
<path d="M10.2014 4.40861L10.6395 4.64877C11.0027 4.84789 11.4585 4.71487 11.6577 4.35166C11.8568 3.98845 11.7238 3.53258 11.3605 3.33346L6.6009 0.724117C6.22658 0.518905 5.77342 0.518905 5.3991 0.724116L0.63946 3.33346C0.276247 3.53258 0.143225 3.98845 0.342346 4.35166C0.541468 4.71487 0.99733 4.84789 1.36054 4.64877L1.79861 4.40861V7.41751C1.79861 7.78315 1.95559 8.09664 2.26954 8.35798C2.58348 8.61933 2.96663 8.75 3.41898 8.75H4.41204C4.68818 8.75 4.91204 8.52614 4.91204 8.25V6.07107C4.91204 5.79492 5.1359 5.57107 5.41204 5.57107H6.58796C6.86411 5.57107 7.08796 5.79492 7.08796 6.07107V8.25C7.08796 8.52614 7.31182 8.75 7.58796 8.75H8.58102C9.03337 8.75 9.41652 8.61933 9.73046 8.35798C10.0444 8.09664 10.2014 7.78315 10.2014 7.41751V4.40861Z" fill="url(#paint0_linear_126_440)"/>
<defs>
<linearGradient id="paint0_linear_126_440" x1="0.249861" y1="8.75" x2="12.1967" y2="1.28487" gradientUnits="userSpaceOnUse">
<stop stop-color="#BBBBBB"/>
<stop offset="1" stop-color="#EEEEEE"/>
</linearGradient>
</defs>
</svg>
