<svg width="10" height="9" viewBox="0 0 10 9" fill="none" xmlns="http://www.w3.org/2000/svg">
<defs>
<style id="current-color-scheme" type="text/css">.ColorScheme-Text { color:#ffffff; }</style>
</defs>
<rect width="24" height="24" fill="#A4A4A4" fill-opacity="0.01"/>
<g opacity="0.90">
<path class="ColorScheme-Text" d="M2.77392 8.25C2.63585 8.25 2.52392 8.13807 2.52392 8V7.74034C2.52392 7.66668 2.55641 7.59676 2.61272 7.54926L2.75468 7.42949C2.93283 7.2792 2.82655 6.98841 2.59348 6.98841H1.41148C1.01515 6.98841 0.680821 6.87533 0.408493 6.64917C0.136164 6.42301 0 6.14536 0 5.81623V1.92219C0 1.59305 0.136164 1.3154 0.408493 1.08924C0.680821 0.863079 1.01515 0.75 1.41148 0.75H4.17584C4.31391 0.75 4.42584 0.861929 4.42584 1V1.67219C4.42584 1.81026 4.31391 1.92219 4.17584 1.92219H1.66148C1.52341 1.92219 1.41148 2.03411 1.41148 2.17219V5.56623C1.41148 5.7043 1.52341 5.81623 1.66148 5.81623H8.33852C8.47659 5.81623 8.58852 5.7043 8.58852 5.56623V4.90397C8.58852 4.7659 8.70044 4.65397 8.83852 4.65397H9.75C9.88807 4.65397 10 4.7659 10 4.90397V5.81623C10 6.14536 9.86383 6.42301 9.59151 6.64917C9.31918 6.87533 8.98485 6.98841 8.58852 6.98841H7.40652C7.17345 6.98841 7.06717 7.2792 7.24532 7.42949L7.38728 7.54926C7.44359 7.59676 7.47608 7.66668 7.47608 7.74034V8C7.47608 8.13807 7.36415 8.25 7.22608 8.25H2.77392ZM6.70278 5.38557C6.61019 5.46247 6.47594 5.46247 6.38334 5.38557L4.09523 3.48537C3.97485 3.38541 3.97485 3.20069 4.09523 3.10072L4.69674 2.60118C4.78934 2.52429 4.92358 2.52429 5.01618 2.60118L5.4276 2.94285C5.59051 3.07814 5.83732 2.96229 5.83732 2.75053V1C5.83732 0.861929 5.94925 0.75 6.08732 0.75H6.9988C7.13687 0.75 7.2488 0.861929 7.2488 1V2.75053C7.2488 2.96229 7.49561 3.07814 7.65852 2.94285L8.06994 2.60118C8.16254 2.52429 8.29679 2.52429 8.38938 2.60118L8.9909 3.10072C9.11127 3.20069 9.11127 3.38541 8.9909 3.48537L6.70278 5.38557Z" fill="currentColor"/>
</g>
</svg>
