<svg width="10" height="9" viewBox="0 0 10 9" fill="none" xmlns="http://www.w3.org/2000/svg">
<defs>
<style id="current-color-scheme" type="text/css">.ColorScheme-Text { color:#ffffff; }</style>
</defs>
<g opacity="0.90">
<g clip-path="url(#clip0_126_313)">
<path class="ColorScheme-Text" fill-rule="evenodd" clip-rule="evenodd" d="M1 0.75H6.5C7.05228 0.75 7.5 1.22969 7.5 1.82143V7.17857C7.5 7.77031 7.05228 8.25 6.5 8.25H1C0.447715 8.25 0 7.77031 0 7.17857V1.82143C0 1.22969 0.447715 0.75 1 0.75ZM1.58879 3.00304C1.95863 3.00304 2.25844 2.72322 2.25844 2.37804C2.25844 2.03286 1.95863 1.75304 1.58879 1.75304C1.21896 1.75304 0.919151 2.03286 0.919151 2.37804C0.919151 2.72322 1.21896 3.00304 1.58879 3.00304Z" fill="currentColor"/>
<path class="ColorScheme-Text" fill-rule="evenodd" clip-rule="evenodd" d="M8 5.57033C8 5.73736 8.08341 5.89336 8.22231 5.98612L9.14067 6.59945C9.5078 6.84464 10 6.58148 10 6.14001V2.85087C10 2.40939 9.5078 2.14624 9.14067 2.39142L8.22231 3.00475C8.08341 3.09752 8 3.25352 8 3.42055V5.57033Z" fill="currentColor"/>
</g>
</g>
<defs>
<clipPath id="clip0_126_313">
<rect width="10" height="9" fill="white"/>
</clipPath>
</defs>
</svg>
