<svg width="10" height="9" viewBox="0 0 10 9" fill="none" xmlns="http://www.w3.org/2000/svg">
<path d="M9.84344 5.99871L8.33498 3.02943C8.06029 2.48587 7.6507 2.17758 7.18321 2.15731C6.72052 2.13702 6.27233 2.4088 5.93014 2.92802L5.01447 4.31125C4.82172 4.60331 4.54702 4.7777 4.24822 4.79799C3.94459 4.8224 3.64098 4.68849 3.39518 4.42479L3.28915 4.31125C2.94698 3.95026 2.52288 3.77578 2.08915 3.81231C1.65541 3.84884 1.28432 4.10033 1.03853 4.51005L0.204786 5.90949C-0.0940159 6.41651 -0.065097 7.00467 0.286714 7.48333C0.638524 7.96198 1.25058 8.25 1.92047 8.25H8.06999C8.71577 8.25 9.31816 7.97823 9.67475 7.52389C10.041 7.06956 10.0989 6.49765 9.84344 5.99871Z" fill="url(#paint0_linear_111_179)"/>
<path d="M2.44435 3.25C3.13471 3.25 3.69434 2.69036 3.69434 2C3.69434 1.30965 3.13471 0.75 2.44435 0.75C1.75399 0.75 1.19434 1.30965 1.19434 2C1.19434 2.69036 1.75399 3.25 2.44435 3.25Z" fill="url(#paint1_linear_111_179)"/>
<defs>
<linearGradient id="paint0_linear_111_179" x1="-1.49012e-07" y1="8.25" x2="9.42883" y2="1.37313" gradientUnits="userSpaceOnUse">
<stop stop-color="#BBBBBB"/>
<stop offset="1" stop-color="#EEEEEE"/>
</linearGradient>
<linearGradient id="paint1_linear_111_179" x1="1.19434" y1="3.25" x2="4.20981" y2="1.90979" gradientUnits="userSpaceOnUse">
<stop stop-color="#BBBBBB"/>
<stop offset="1" stop-color="#EEEEEE"/>
</linearGradient>
</defs>
</svg>
