<svg xmlns="http://www.w3.org/2000/svg" xmlns:xlink="http://www.w3.org/1999/xlink" width="24" height="24" fill="none"><defs><radialGradient id="a" cx="0" cy="0" r="1" gradientTransform="matrix(0 22 -22 0 12 1)" gradientUnits="userSpaceOnUse"><stop offset="0" stop-color="#8FC8FF" style="stop-color:#ffd994;stop-opacity:1"/><stop offset="1" stop-color="#0056A8" style="stop-color:#b89961;stop-opacity:1"/></radialGradient><radialGradient xlink:href="#a" id="b" cx=".179" cy="-1.748" r="1" fx=".179" fy="-1.748" gradientTransform="matrix(0 90.05947 -90.00681 0 -107.37 -11.19)" gradientUnits="userSpaceOnUse"/></defs><path d="M50 5C9.09 5 5 25.455 5 50c0 32.727 12.273 45 45 45 32.727 0 45-12.273 45-45 0-24.545-4.09-45-45-45Z" style="font-variation-settings:normal;display:inline;opacity:1;vector-effect:none;fill:url(#b);fill-opacity:1;stroke-width:4.56656;stroke-linecap:butt;stroke-linejoin:miter;stroke-miterlimit:4;stroke-dasharray:none;stroke-dashoffset:0;stroke-opacity:1;-inkscape-stroke:none;stop-color:#000;stop-opacity:1" transform="matrix(.24444 0 0 .24444 -.222 -.222)"/><path fill="#805b20" d="M12 4.002A7.997 7.997 0 0 0 4.002 12 7.997 7.997 0 0 0 12 19.998 7.997 7.997 0 0 0 19.998 12 7.997 7.997 0 0 0 12 4.002z"/><path fill="#fff" d="M11.481 5.8a6.225 6.225 0 0 0-5.68 5.681h5.68zm1.038.001v5.68H18.2a6.225 6.225 0 0 0-5.682-5.68zm-6.72 6.718a6.225 6.225 0 0 0 5.682 5.68v-5.68zm6.72 0v5.682a6.225 6.225 0 0 0 5.68-5.682z"/></svg>