<svg xmlns="http://www.w3.org/2000/svg" xmlns:xlink="http://www.w3.org/1999/xlink" width="24" height="24" fill="none"><defs><radialGradient id="a" cx="0" cy="0" r="1" gradientTransform="matrix(0 22 -22 0 12 1)" gradientUnits="userSpaceOnUse"><stop offset="0" stop-color="#8FC8FF" style="stop-color:#198cff;stop-opacity:1"/><stop offset="1" stop-color="#0056A8" style="stop-color:#1369bf;stop-opacity:1"/></radialGradient><radialGradient id="b" cx="0" cy="0" r="1" gradientTransform="matrix(0 22 -22 0 12 1)" gradientUnits="userSpaceOnUse"><stop offset="0" stop-color="#8FC8FF" style="stop-color:#f6f6f6;stop-opacity:1"/><stop offset="1" stop-color="#0056A8" style="stop-color:#cfcfcf;stop-opacity:1"/></radialGradient><radialGradient xlink:href="#a" id="c" cx=".179" cy="-1.748" r="1" fx=".179" fy="-1.748" gradientTransform="matrix(0 90.05947 -90.00681 0 -107.37 -11.19)" gradientUnits="userSpaceOnUse"/></defs><path d="M50 5C9.09 5 5 25.455 5 50c0 32.727 12.273 45 45 45 32.727 0 45-12.273 45-45 0-24.545-4.09-45-45-45Z" style="font-variation-settings:normal;display:inline;opacity:1;vector-effect:none;fill:url(#c);fill-opacity:1;stroke-width:4.56656;stroke-linecap:butt;stroke-linejoin:miter;stroke-miterlimit:4;stroke-dasharray:none;stroke-dashoffset:0;stroke-opacity:1;-inkscape-stroke:none;stop-color:#000;stop-opacity:1" transform="matrix(.24444 0 0 .24444 -.222 -.222)"/><path d="M1865.381-301.47c102 0 184.7 82.538 184.7 184.34 0 101.8-82.7 184.34-184.7 184.34-102 0-184.7-82.54-184.7-184.34 0-101.802 82.7-184.34 184.7-184.34" style="fill:#198cff;fill-rule:evenodd;stroke:none;stroke-width:1" transform="matrix(.03352 0 0 .03352 -50.53 15.91)"/><path d="M1634.482-117.13c0 127.25 103.4 230.35 230.9 230.35s230.9-103.2 230.9-230.45c0-127.252-103.4-230.45-230.9-230.45s-230.9 103.298-230.9 230.55zm46.2 0c0 101.8 82.7 184.34 184.7 184.34 102 0 184.7-82.54 184.7-184.34 0-101.802-82.7-184.34-184.7-184.34-102 0-184.7 82.538-184.7 184.34z" style="fill:#fff;fill-rule:evenodd;stroke:none;stroke-width:1" transform="matrix(.03352 0 0 .03352 -50.53 15.91)"/><path d="M1626.782-117.13c0 131.542 106.8 238.134 238.6 238.134s238.6-106.592 238.6-238.135-106.8-238.135-238.6-238.135-238.6 106.592-238.6 238.135zm7.7 0c0-127.252 103.3-230.45 230.9-230.45 127.6 0 230.9 103.198 230.9 230.45 0 127.25-103.3 230.45-230.9 230.45-127.6 0-230.9-103.2-230.9-230.45zm53.9 0c0 97.509 79.2 176.654 177 176.654s177-79.045 177-176.655c0-97.51-79.2-176.655-177-176.655s-177 79.046-177 176.655zm-7.7 0c0-101.802 82.7-184.34 184.7-184.34 102 0 184.7 82.538 184.7 184.34 0 101.8-82.7 184.34-184.7 184.34-102 0-184.7-82.54-184.7-184.34z" style="opacity:.5;fill:#000;fill-rule:evenodd;stroke:none;stroke-width:1" transform="matrix(.03352 0 0 .03352 -50.53 15.91)"/><path d="M1944.782 75.493c70.3-29.842 119.5-99.306 119.5-180.148 0-108.189-88.1-195.818-196.7-195.818-108.7 0-196.7 87.729-196.7 195.818 0 107.79 87.6 195.318 195.8 195.817h-1c-114 0-206.5-92.02-206.5-205.498 0-113.479 92.4-205.599 206.4-205.599s206.5 92.02 206.5 205.499c0 85.633-52.6 158.99-127.3 189.929zm-83.2 17.965c127.4 0 230.6-102.8 230.6-229.552 0-11.777-.9-23.454-2.6-34.732a228 228 0 0 1 6.6 54.593c0 126.753-103.3 229.552-230.6 229.552-115.5 0-211.2-84.535-228-194.82 24.6 100.404 115.5 174.959 224 174.959z" style="fill:#000;fill-opacity:.1;fill-rule:evenodd;stroke:none;stroke-width:1" transform="matrix(.03352 0 0 .03352 -50.53 15.91)"/><path d="M1865.381-255.36c76.5 0 138.5 61.878 138.5 138.23 0 76.35-62 138.23-138.5 138.23s-138.5-61.88-138.5-138.23c-.1-76.352 62-138.23 138.5-138.23z" style="fill:#f3f3f3;fill-rule:evenodd;stroke:none;stroke-width:1" transform="matrix(.03352 0 0 .03352 -50.53 15.91)"/><path d="M1865.381-255.36c-76.5 0-138.5 61.878-138.5 138.23 0 76.35 62 138.23 138.5 138.23s138.5-61.88 138.5-138.23c0-76.352-62-138.23-138.5-138.23zm0-7.686c80.8 0 146.2 65.373 146.2 145.915 0 80.643-65.5 145.915-146.2 145.915-80.7 0-146.2-65.372-146.2-145.915-.1-80.642 65.4-145.915 146.2-145.915z" style="fill:#000;fill-opacity:.25;fill-rule:evenodd;stroke:none;stroke-width:1" transform="matrix(.03352 0 0 .03352 -50.53 15.91)"/><path d="M1926.881-117.13c0 33.933-27.6 61.48-61.6 61.48s-61.6-27.547-61.6-61.48c0-33.935 27.6-61.48 61.6-61.48s61.6 27.545 61.6 61.48z" style="fill:#000;fill-opacity:.05;fill-rule:evenodd;stroke:none;stroke-width:1" transform="matrix(.03352 0 0 .03352 -50.53 15.91)"/><path d="M1926.881-117.13c0 33.933-27.6 61.48-61.6 61.48s-61.6-27.547-61.6-61.48c0-33.935 27.6-61.48 61.6-61.48s61.6 27.545 61.6 61.48z" style="fill:none;fill-rule:evenodd;stroke:none;stroke-width:1" transform="matrix(.03352 0 0 .03352 -50.53 15.91)"/><path d="M1919.181-117.13c0-29.743-24.1-53.796-53.9-53.796-29.8 0-53.9 24.053-53.9 53.795s24.1 53.795 53.9 53.795c29.8-.1 53.9-24.153 53.9-53.795zm7.7 0c0 33.933-27.6 61.48-61.6 61.48s-61.6-27.547-61.6-61.48c0-33.935 27.6-61.48 61.6-61.48s61.6 27.545 61.6 61.48z" style="fill:#000;fill-opacity:.15;fill-rule:evenodd;stroke:none;stroke-width:1" transform="matrix(.03352 0 0 .03352 -50.53 15.91)"/><path d="M1926.881-117.13c0-33.935-27.6-61.48-61.6-61.48s-61.6 27.545-61.6 61.48c0 33.933 27.6 61.48 61.6 61.48s61.6-27.547 61.6-61.48zm7.7 0c0 38.225-31 69.164-69.3 69.164s-69.3-30.94-69.3-69.165c0-38.225 31-69.165 69.3-69.165s69.3 30.94 69.3 69.165z" style="fill:#fff;fill-rule:evenodd;stroke:none;stroke-width:1" transform="matrix(.03352 0 0 .03352 -50.53 15.91)"/><path d="M1896.082-102.36v-106.99h-61.6V-9.64h61.6v-64.175l-15.4-14.273zm-61.5-42.816v28.544l15.4-14.272z" style="fill:#fff;fill-rule:evenodd;stroke:none;stroke-width:1" transform="matrix(.03352 0 0 .03352 -50.53 15.91)"/><path d="M1896.082-110.045v-106.99h-61.6v199.71h61.6V-81.5l-15.4-14.273zm-61.5-42.816v28.544l15.4-14.272z" style="fill:#4c4c4c;fill-rule:evenodd;stroke:none;stroke-width:1" transform="matrix(.03352 0 0 .03352 -50.53 15.91)"/><path d="M1888.381-106.751v-94.915h-46.2v184.34h46.2V-71.22l-11.5-14.672v-7.785zm-46.1-5.689 11.5-12.875v-7.785l-11.5-13.174z" style="fill:#7f7f7f;fill-rule:evenodd;stroke:none;stroke-width:1" transform="matrix(.03352 0 0 .03352 -50.53 15.91)"/></svg>