<svg xmlns="http://www.w3.org/2000/svg" width="24" height="24" fill="none"><defs><radialGradient id="a" cx="0" cy="0" r="1" gradientTransform="matrix(0 22 -22 0 12 1)" gradientUnits="userSpaceOnUse"><stop offset="0" stop-color="#8FC8FF" style="stop-color:#f6f6f6;stop-opacity:1"/><stop offset="1" stop-color="#0056A8" style="stop-color:#cfcfcf;stop-opacity:1"/></radialGradient></defs><path d="M50 5C9.09 5 5 25.455 5 50c0 32.727 12.273 45 45 45 32.727 0 45-12.273 45-45 0-24.545-4.09-45-45-45Z" style="font-variation-settings:normal;display:inline;opacity:1;fill:#cb7148;fill-opacity:1;stroke:none;stroke-width:8.18182;stroke-linecap:square;stroke-linejoin:bevel;stroke-miterlimit:4;stroke-dasharray:none;stroke-dashoffset:0;stroke-opacity:1;paint-order:fill markers stroke;stop-color:#000;stop-opacity:1" transform="matrix(.24444 0 0 .24444 -.222 -.222)"/><path d="M12 2C2.91 2 2 6.545 2 12c0 7.273 2.727 10 10 10s10-2.727 10-10c0-5.455-.91-10-10-10Z" style="font-variation-settings:normal;display:inline;opacity:1;fill:#fff;fill-opacity:1;stroke:none;stroke-width:1.81818;stroke-linecap:square;stroke-linejoin:bevel;stroke-miterlimit:4;stroke-dasharray:none;stroke-dashoffset:0;stroke-opacity:1;paint-order:fill markers stroke;stop-color:#000;stop-opacity:1"/><path fill="#dee642" d="M6.275 301.626a.717.717 0 0 0-.718.718v3.59c0 .399.32.719.718.719h3.59c.399 0 .72-.32.72-.718v-3.591a.717.717 0 0 0-.72-.718zm1.682.838c.824 0 1.205.43 1.205.987 0 .677-.662 1.29-1.31 1.95h1.38v.534H6.875v-.38c.183-.173.39-.351.648-.618.494-.518 1.03-1.012 1.03-1.446 0-.277-.162-.45-.596-.45-.346 0-.622.139-.908.262l-.178-.53c.237-.122.622-.31 1.086-.31z" overflow="visible" style="isolation:auto;mix-blend-mode:normal" transform="matrix(1.32288 0 0 1.32288 -2.35 -394.013)"/><path fill="#56c55c" d="M6.275 307.182a.717.717 0 0 0-.718.718v3.59c0 .399.32.719.718.719h3.59c.399 0 .72-.32.72-.718V307.9a.717.717 0 0 0-.72-.718zm1.82.882h.82v2.153h.597v.543h-.597v.73h-.607v-.73H6.664v-.43zm.213.662-.07.148-.848 1.343h.918v-1.343z" overflow="visible" style="isolation:auto;mix-blend-mode:normal" transform="matrix(1.32288 0 0 1.32288 -2.35 -394.013)"/><path fill="#f19d1e" d="M11.832 307.182a.717.717 0 0 0-.72.718v3.59c0 .399.32.719.719.719h3.59c.399 0 .719-.32.719-.718V307.9a.717.717 0 0 0-.718-.718zm1.75.837c.843 0 1.229.346 1.229.884 0 .27-.148.474-.4.672.41.222.592.543.592.888 0 .534-.468 1.077-1.392 1.077-.814 0-1.417-.42-1.417-1.032 0-.36.237-.706.588-.918a.846.846 0 0 1-.395-.697c0-.48.429-.874 1.194-.874zm0 .544c-.337 0-.563.192-.563.38 0 .28.41.405.695.484.326-.183.475-.297.475-.46 0-.271-.287-.404-.608-.404zm-.065 1.18c-.444.123-.7.405-.7.67 0 .288.3.564.819.564.469 0 .74-.252.74-.543 0-.395-.394-.573-.86-.692z" overflow="visible" style="isolation:auto;mix-blend-mode:normal" transform="matrix(1.32288 0 0 1.32288 -2.35 -394.013)"/></svg>