<svg xmlns="http://www.w3.org/2000/svg" xmlns:xlink="http://www.w3.org/1999/xlink" width="24" height="24" fill="none"><defs><radialGradient id="a" cx="0" cy="0" r="1" gradientTransform="matrix(0 22 -22 0 12 1)" gradientUnits="userSpaceOnUse"><stop offset="0" stop-color="#8FC8FF" style="stop-color:#ff9a57;stop-opacity:1"/><stop offset="1" stop-color="#0056A8" style="stop-color:#c87137;stop-opacity:1"/></radialGradient><radialGradient xlink:href="#a" id="b" cx=".179" cy="-1.748" r="1" fx=".179" fy="-1.748" gradientTransform="matrix(0 90.05947 -90.00681 0 -107.37 -11.19)" gradientUnits="userSpaceOnUse"/></defs><path d="M50 5C9.09 5 5 25.455 5 50c0 32.727 12.273 45 45 45 32.727 0 45-12.273 45-45 0-24.545-4.09-45-45-45Z" style="font-variation-settings:normal;display:inline;opacity:1;vector-effect:none;fill:url(#b);fill-opacity:1;stroke-width:4.56656;stroke-linecap:butt;stroke-linejoin:miter;stroke-miterlimit:4;stroke-dasharray:none;stroke-dashoffset:0;stroke-opacity:1;-inkscape-stroke:none;stop-color:#000;stop-opacity:1" transform="matrix(.24444 0 0 .24444 -.222 -.222)"/><path fill="#fff" d="M10.7 5.968s1.279.877 1.366 1.375c0 0 2.706-.855 5.083 1.425h-1.2s3.145 1.966 3.2 3.2a11.579 11.579 0 0 0-.8-.4s.764 1.76.183 3.476c-1.086 2.056-3.111 3.853-6.076 4.123-.796.073 0 .001-.8.001v-2.4h.8v-1.2c1.282-.062 1.594-3.122-.107-4 0 0-1.075 1.508-2.337 1.655 0 0-.147 1.293-1.672.472-.407-.219-.559-.94-.148-1.526l.324-.468s1.07-2.572 1.833-3.333c0 0 .4-1.2 0-2 0 0 .453.337.6.6 0 0-.102-.854-.249-1z"/><path fill="#f2f2f2" fill-rule="evenodd" d="M421.73 535.8c-4.715.005-9.447 0-14.162 0l-.013 1.003 13.189.005c.805-.801.452-.44.986-1.008zm2.29-3.01c-4.715.005-9.732.004-14.447.004v1l13.77.004c.606-.91.335-.483.678-1.008z" color="#000" style="font-variant-ligatures:normal;font-variant-position:normal;font-variant-caps:normal;font-variant-numeric:normal;font-variant-alternates:normal;font-feature-settings:normal;text-indent:0;text-decoration-line:none;text-decoration-style:solid;text-decoration-color:#000;text-transform:none;text-orientation:mixed;white-space:normal;shape-padding:0;isolation:auto;mix-blend-mode:normal" transform="matrix(.4 0 0 .4 -151.372 -197.552)"/></svg>