<svg xmlns="http://www.w3.org/2000/svg" width="24" height="24" fill="none"><defs><radialGradient id="a" cx="0" cy="0" r="1" gradientTransform="matrix(0 22 -22 0 12 1)" gradientUnits="userSpaceOnUse"><stop offset="0" stop-color="#8FC8FF" style="stop-color:#f6f6f6;stop-opacity:1"/><stop offset="1" stop-color="#0056A8" style="stop-color:#cfcfcf;stop-opacity:1"/></radialGradient></defs><path d="M50 5C9.09 5 5 25.455 5 50c0 32.727 12.273 45 45 45 32.727 0 45-12.273 45-45 0-24.545-4.09-45-45-45Z" style="font-variation-settings:normal;display:inline;opacity:1;vector-effect:none;fill:#4bae4f;fill-opacity:1;stroke-width:4.56656;stroke-linecap:butt;stroke-linejoin:miter;stroke-miterlimit:4;stroke-dasharray:none;stroke-dashoffset:0;stroke-opacity:1;-inkscape-stroke:none;stop-color:#000;stop-opacity:1" transform="matrix(.24444 0 0 .24444 -.222 -.222)"/><path fill="#195c28" d="M9.69 9.732a1.802 1.802 0 0 0-1.117-.386c-.99 0-1.797.8-1.822 1.795a2.728 2.728 0 0 0-1.75 2.555 2.719 2.719 0 0 0 2.333 2.703v.025h9.332v-.005C17.968 16.343 19 15.251 19 13.917c0-1.287-.96-2.348-2.196-2.491.005-.078.008-.157.008-.237 0-1.995-1.664-3.613-3.718-3.613-1.52 0-2.827.887-3.404 2.156z" style="stroke-width:.360452;fill:#fff"/></svg>