<svg xmlns="http://www.w3.org/2000/svg" width="24" height="24" fill="none"><path fill="url(#a)" fill-rule="evenodd" d="M9.94 1.068c-.11.032-.224.047-.344.046-.742.06-1.476.178-2.2.355-3.106.738-5.064 2.65-5.876 5.736A18.48 18.48 0 0 0 1 11.563v.003c0 .141.002.283.005.425-.03 1.521.118 3.025.447 4.51.774 3.3 2.816 5.32 6.128 6.057 1.428.294 2.867.441 4.317.442h.018c.371 0 .744-.01 1.118-.03a15.624 15.624 0 0 0 4.765-.824c1.906-.699 3.284-1.97 4.135-3.812.459-1.063.756-2.17.893-3.32A27.93 27.93 0 0 0 23 11.908v-.007c0-.603-.02-1.207-.059-1.812a14.268 14.268 0 0 0-.756-3.824c-.746-2.06-2.133-3.506-4.158-4.34a13.537 13.537 0 0 0-3.78-.847A31.653 31.653 0 0 0 12.013 1h-.008c-.688 0-1.377.023-2.065.068Z" clip-rule="evenodd" opacity=".813"/><path fill="#FFD351" d="M10 4.75a.75.75 0 0 1 .75-.75h5.85A4.4 4.4 0 0 1 21 8.4v8.2a4.4 4.4 0 0 1-4.4 4.4H10V4.75Z"/><path fill="#7BD57D" d="M3 7.4A4.4 4.4 0 0 1 7.4 3H12a1 1 0 0 1 1 1v16.25a.75.75 0 0 1-.75.75H7.4A4.4 4.4 0 0 1 3 16.6V7.4Z"/><path fill="#707ED0" d="M7 7a1 1 0 0 1 1-1h8a1 1 0 0 1 1 1v14H7V7Z"/><path fill="url(#b)" fill-rule="evenodd" d="M1 11.564c0-1.472.173-2.925.52-4.36.073-.276.155-.544.247-.802A3 3 0 0 1 4.007 5.4H8.19c1.075 0 2.117.37 2.95 1.048a4.678 4.678 0 0 0 2.95 1.047h5.902c1.428 0 2.623.995 2.93 2.328A28.078 28.078 0 0 1 23 11.902l.001.007a27.93 27.93 0 0 1-.174 3.104 11.876 11.876 0 0 1-.893 3.32c-.85 1.843-2.229 3.114-4.135 3.813a15.624 15.624 0 0 1-4.765.825c-.375.02-.749.029-1.122.029h-.01a21.41 21.41 0 0 1-4.321-.442c-3.312-.737-5.354-2.756-6.128-6.056a19.047 19.047 0 0 1-.447-4.511A18.844 18.844 0 0 1 1 11.564Z" clip-rule="evenodd" opacity=".875"/><path fill="url(#c)" fill-opacity=".875" fill-rule="evenodd" d="M1 11.564c0-1.472.173-2.925.52-4.36a8.916 8.916 0 0 1 .922-2.265c.456-.278.992-.439 1.566-.439h4.148c1.094 0 2.153.39 2.985 1.101a4.595 4.595 0 0 0 2.984 1.101h5.867c1.249 0 2.32.761 2.774 1.844.086.51.144 1.024.175 1.544.04.605.059 1.209.059 1.812v.007a27.93 27.93 0 0 1-.174 3.104 11.876 11.876 0 0 1-.893 3.32c-.85 1.843-2.229 3.114-4.135 3.813a15.624 15.624 0 0 1-4.765.825c-.374.02-.747.029-1.118.029h-.018c-1.45 0-2.89-.148-4.317-.442-3.312-.737-5.354-2.756-6.128-6.056a19.047 19.047 0 0 1-.447-4.511A18.844 18.844 0 0 1 1 11.564Z" clip-rule="evenodd" opacity=".125"/><path fill="#FAFAFA" d="M15 16.833c-.185 0-.333.199-.333.445v1.778c0 .246.148.444.333.444h3.667c.184 0 .333-.198.333-.444v-1.778c0-.246-.149-.445-.333-.445H15Zm0 .444h.667v1.778H15v-1.778Zm1 0h.333v1.779H16v-1.778Zm.667 0H17v1.779h-.333v-1.778Zm.666 0H18v1.779h-.667v-1.778Zm1 0h.334v1.779h-.334v-1.778ZM6 15.5l-.667 1.333h.334v1.778h.666v-1.778h.334L6 15.5Zm.667 1.333H7v1.778h.667v-1.778H8L7.333 15.5l-.666 1.333ZM5 19.056v.444h3.333v-.444H5Z"/><path fill="#fff" d="M12.012 11.875a.812.812 0 0 1 .813.813v2.437a.812.812 0 1 1-1.625 0v-2.438a.812.812 0 0 1 .813-.812Zm0 2.844a.407.407 0 1 0 0 .813.407.407 0 0 0 0-.813Zm0-7.719H11.2v.813h.813V7Z"/><path fill="#fff" d="M12.825 7.813h-.813v.812h.813v-.813Z" opacity=".75"/><path fill="#fff" d="M12.012 8.625H11.2v.813h.813v-.813Z"/><path fill="#fff" d="M12.825 9.438h-.813v.812h.813v-.813Z" opacity=".75"/><path fill="#fff" d="M12.012 10.25H11.2v.813h.813v-.813Z"/><path fill="#fff" d="M12.825 11.063h-.813v.812h.813v-.813Z" opacity=".75"/><defs><linearGradient id="a" x1="23" x2="1" y1="1" y2="12" gradientUnits="userSpaceOnUse"><stop stop-color="#E3C880"/><stop offset="1" stop-color="#6F5C38"/></linearGradient><linearGradient id="b" x1="23" x2="1.429" y1="5.4" y2="23.512" gradientUnits="userSpaceOnUse"><stop stop-color="#FFE795"/><stop offset="1" stop-color="#7A653E"/></linearGradient><linearGradient id="c" x1="23" x2="1.011" y1="9.23" y2="9.726" gradientUnits="userSpaceOnUse"><stop stop-opacity=".5"/><stop offset="1"/></linearGradient></defs></svg>