<svg xmlns="http://www.w3.org/2000/svg" width="24" height="24" fill="none"><defs><radialGradient id="a" cx="0" cy="0" r="1" gradientTransform="matrix(0 22 -22 0 12 1)" gradientUnits="userSpaceOnUse"><stop offset="0" stop-color="#8FC8FF" style="stop-color:#f6f6f6;stop-opacity:1"/><stop offset="1" stop-color="#0056A8" style="stop-color:#cfcfcf;stop-opacity:1"/></radialGradient></defs><path d="M50 5C9.09 5 5 25.455 5 50c0 32.727 12.273 45 45 45 32.727 0 45-12.273 45-45 0-24.545-4.09-45-45-45Z" style="font-variation-settings:normal;display:inline;opacity:1;vector-effect:none;fill:#4e99f3;fill-opacity:1;stroke-width:4.56656;stroke-linecap:butt;stroke-linejoin:miter;stroke-miterlimit:4;stroke-dasharray:none;stroke-dashoffset:0;stroke-opacity:1;-inkscape-stroke:none;stop-color:#000;stop-opacity:1" transform="matrix(.24444 0 0 .24444 -.222 -.222)"/><g fill="#fff" fill-opacity=".993" stroke-width="1.317"><path d="M17.44 5.884c-1.074-.62-2.557-.647-3.868-.067-1.21.535-2.086 1.715-2.602 2.602a.518.518 0 0 0-.46.894 5.162 5.162 0 0 0-.087.201l-2.51 5.512a.518.518 0 0 0-.445.934l.017.008-.564 1.242H5.518a.518.518 0 0 0 0 1.036h2.59a.518.518 0 0 0 0-1.036h-.05l.36-.791a.518.518 0 0 0 .144.023.516.516 0 0 0 .28-.952l2.598-5.709a.517.517 0 0 0 .472-.92c.442-.746 1.152-1.688 2.08-2.097.998-.44 2.15-.435 2.93.018.576.332.908.86.985 1.571.144 1.33.021 2.223-.364 2.652a.952.952 0 0 1-.114.106v1.16c.319-.108.626-.285.885-.575.599-.666.802-1.796.624-3.454-.112-1.028-.643-1.865-1.497-2.358z"/><path d="M15.967 14.619c.338 0 .656.077.944.211v-4.095c0-.286.027-.26-.259-.26H15.64c-.288 0-3.172.239-3.934 4.008l-.491 3.114c0 .288.232.647.518.647h2.458a2.236 2.236 0 0 1-.474-1.374 2.253 2.253 0 0 1 2.251-2.251z"/><path d="M17.17 15.626a1.756 1.756 0 0 0-1.203-.489 1.727 1.727 0 1 0-.566 3.366 1.72 1.72 0 0 0 2-.666 1.723 1.723 0 0 0-.23-2.21z"/></g></svg>