<svg xmlns="http://www.w3.org/2000/svg" width="24" height="24" viewBox="0 0 6.35 6.35"><defs><radialGradient id="a" cx="0" cy="0" r="1" gradientTransform="rotate(90 1.455 1.72) scale(5.82072)" gradientUnits="userSpaceOnUse"><stop stop-color="#FAFAFA"/><stop offset="1" stop-color="#B0B0B0"/></radialGradient></defs><path fill="url(#a)" fill-rule="evenodd" d="M2.63.283a.312.312 0 0 1-.091.012c-.197.015-.39.047-.582.094-.822.195-1.34.7-1.555 1.517-.1.416-.146.838-.136 1.266-.008.403.031.801.118 1.194.205.873.745 1.407 1.621 1.603.477.097.957.134 1.443.108.432-.007.852-.08 1.26-.218a1.87 1.87 0 0 0 1.095-1.008c.121-.281.2-.574.236-.879.049-.433.059-.867.03-1.302a3.775 3.775 0 0 0-.2-1.012A1.886 1.886 0 0 0 4.77.51a3.581 3.581 0 0 0-1-.224A8.37 8.37 0 0 0 2.63.283z" clip-rule="evenodd" style="fill:url(#a);stroke-width:.264578"/><g transform="matrix(.9293 0 0 .9293 .224 .224)"><rect width="2.926" height="2.926" x="1.04" y="2.384" fill="#f9f9f9" rx=".474" ry=".474" style="stroke-width:.298913;paint-order:stroke markers fill"/><path d="M1.822 2.93q.142.166.233.35l-.158.09q-.083-.182-.225-.35Zm-.316.615h.45v.966l.174-.191.108.1q-.116.158-.316.316l-.125-.108v-.933h-.291Zm.774-.158h.266l.05-.224h-.391v-.15h1.174v.15h-.616l-.05.224h.508v.433h.2v.15H2.17v-.15h.276l.058-.283H2.28Zm.333.433h.441v-.283h-.383Zm.707.3v.724h-.166v-.108h-.69v.108h-.167V4.12Zm-.857.466h.69V4.27h-.69Z" aria-label="шпн" font-family="sans-serif" font-size="7.13" font-weight="400" letter-spacing="0" opacity=".25" style="stroke-width:.298913" word-spacing="0"/><rect width="2.926" height="2.926" x="2.384" y="1.04" fill="#498cd8" paint-order="stroke markers fill" rx=".474" ry=".474" style="stroke-width:.298913"/><path fill="#fff" d="m3.847 1.933-.285.773h.571Zm-.119-.207h.239l.592 1.554H4.34l-.142-.399h-.7l-.142.399h-.222Z" aria-label="A" font-family="sans-serif" font-size="7.13" font-weight="400" letter-spacing="0" style="stroke-width:.298913" word-spacing="0"/></g></svg>