<svg xmlns="http://www.w3.org/2000/svg" width="24" height="24" viewBox="0 0 6.35 6.35"><path d="M3.175.265C.529.265.265 1.587.265 3.175c0 2.117.793 2.91 2.91 2.91s2.91-.793 2.91-2.91c0-1.588-.264-2.91-2.91-2.91z" style="font-variation-settings:normal;display:inline;vector-effect:none;fill:#e18a50;fill-opacity:1;stroke-width:.295341;stroke-linecap:butt;stroke-linejoin:miter;stroke-miterlimit:4;stroke-dasharray:none;stroke-dashoffset:0;stroke-opacity:1;-inkscape-stroke:none;stop-color:#000"/><path d="M3.175.523C.764.523.523 1.728.523 3.175c0 1.929.723 2.652 2.652 2.652 1.929 0 2.652-.723 2.652-2.652 0-1.447-.24-2.652-2.652-2.652z" style="font-variation-settings:normal;display:inline;vector-effect:none;fill:#e9a77c;fill-opacity:1;stroke-width:.269163;stroke-linecap:butt;stroke-linejoin:miter;stroke-miterlimit:4;stroke-dasharray:none;stroke-dashoffset:0;stroke-opacity:1;-inkscape-stroke:none;stop-color:#000"/><rect width="3.99" height="4.389" x="1.18" y=".992" fill="#fff" opacity=".25" rx=".399" ry=".399" style="stroke-width:1;paint-order:stroke fill markers"/><path fill="#037ad9" d="M3.175.293c-.164 0-.3.136-.3.3 0 .164.136.299.3.299a.3.3 0 0 0 .3-.299c0-.164-.136-.3-.3-.3z" color="#000" style="font-variant-ligatures:normal;font-variant-position:normal;font-variant-caps:normal;font-variant-numeric:normal;font-variant-alternates:normal;font-variant-east-asian:normal;font-feature-settings:normal;font-variation-settings:normal;text-indent:0;text-decoration-line:none;text-decoration-style:solid;text-decoration-color:#000;text-transform:none;text-orientation:mixed;white-space:normal;shape-padding:0;shape-margin:0;inline-size:0;isolation:auto;mix-blend-mode:normal;stroke-width:1"/><path fill="#fff" d="M1.579 1.191a.2.2 0 0 0-.2.2v3.59c0 .111.09.2.2.2h2.095L4.97 3.885V1.39a.2.2 0 0 0-.2-.2Z" opacity=".9" style="stroke-width:1"/><path fill="#46a9ee" fill-rule="evenodd" d="M2.277 1.291s.129-.798.385-.798h1.026c.257 0 .384.798.384.798z" style="stroke-width:1"/><path d="M2.676 1.74h.699m-1.297.399h.299m.898 0h.299m-.698.399h.3m-.6.399h.3m-.4.399h.3m-.3-1.197h.2m-.598.399h.698m.2.399h.698m-1.397 0h.2m.399.399h.499m-1.297 0h.299m-.3-.4h.1m.599-.797h.1m.698 1.197h.2m-.798-1.197h.1m.199.399h.1m.1 0h.099m.1-.798h.2m-.2.399h.2m0 .399h.498m-.4.399h.1m.1 0h.1m-.3-.798h.1M2.677 3.735h.3m-.4.399h.3m-.798-.399h.499m.997 0h.698m-1.995.399h.2m-.4 0h.1m.898-.399h.1m.1 0h.1m-.4.399h.3m.798-2.394h.2" style="color:#000;font-variant-ligatures:normal;font-variant-position:normal;font-variant-caps:normal;font-variant-numeric:normal;font-variant-alternates:normal;font-variant-east-asian:normal;font-feature-settings:normal;font-variation-settings:normal;text-indent:0;text-decoration-line:none;text-decoration-style:solid;text-decoration-color:#000;text-transform:none;text-orientation:mixed;white-space:normal;shape-padding:0;shape-margin:0;inline-size:0;isolation:auto;mix-blend-mode:normal;fill-opacity:.961;fill-rule:evenodd;stroke-width:1"/><path fill="#878787" d="M2.676 1.69v.1h.699v-.1zm.998 0v.1h.2v-.1zm.399 0v.1h.2v-.1Zm-1.995.399v.1h.299v-.1zm.399 0v.1h.2v-.1zm.299 0v.1h.1v-.1zm.2 0v.1h.098v-.1h-.1zm.298 0v.1h.3v-.1zm.4 0v.1h.2v-.1zm.298 0v.1h.1v-.1Zm-1.894.4v.099h.698v-.1zm.798 0v.099h.3v-.1zm.398 0v.099h.1v-.1zm.2 0v.099h.1v-.1zm.399 0v.099h.5v-.1Zm-1.795.398v.1h.1v-.1zm.2 0v.1h.2v-.1zm.3 0v.1h.298v-.1h-.3Zm.397 0v.1h.699v-.1zm.997 0v.1h.1v-.1zm.2 0v.1h.1v-.1Zm-2.094.399v.1h.299v-.1Zm.399 0v.1h.299v-.1Zm.4 0v.1h.498v-.1Zm.697 0v.1h.2v-.1Zm-1.496.4v.1h.499v-.1Zm.598 0v.1h.3v-.1Zm.399 0v.1h.1v-.1h-.1Zm.2 0v.1h.1v-.1h-.1zm.299 0v.1h.698v-.1Zm-1.496.398v.1h.1v-.1zm.2 0v.1h.2v-.1zm.3 0v.1h.298v-.1h-.3Zm.397 0v.1h.3v-.1z" style="color:#000;font-variant-ligatures:normal;font-variant-position:normal;font-variant-caps:normal;font-variant-numeric:normal;font-variant-alternates:normal;font-variant-east-asian:normal;font-feature-settings:normal;font-variation-settings:normal;text-indent:0;text-decoration-line:none;text-decoration-style:solid;text-decoration-color:#000;text-transform:none;text-orientation:mixed;white-space:normal;shape-padding:0;shape-margin:0;inline-size:0;isolation:auto;mix-blend-mode:normal;fill-opacity:.961;fill-rule:evenodd;stroke-width:1"/><path fill="#fff" d="M3.674 3.884H4.97L3.674 5.181Z" paint-order="markers stroke fill" style="stroke-width:1"/></svg>