<svg xmlns="http://www.w3.org/2000/svg" width="24" height="24" viewBox="0 0 6.35 6.35"><path d="M2.538.295A.335.335 0 0 0 2.63.283c.38-.025.76-.024 1.14.002a3.62 3.62 0 0 1 1 .225c.536.22.903.603 1.101 1.148.112.328.18.665.2 1.011.028.436.018.87-.03 1.304a3.166 3.166 0 0 1-.237.878c-.225.487-.59.824-1.094 1.008a4.125 4.125 0 0 1-1.261.218 5.644 5.644 0 0 1-1.443-.109C1.13 5.774.588 5.24.385 4.366a5.025 5.025 0 0 1-.12-1.194c-.009-.427.036-.85.137-1.266C.617 1.09 1.135.584 1.957.389c.191-.047.386-.079.581-.094Z" style="fill:#f2f2f2;fill-opacity:1;fill-rule:evenodd;stroke:none;stroke-width:.352771"/><g style="stroke-width:3.01654"><path fill="#4c8fd8" d="M13.587 3.294a5.19 5.19 0 0 0-3.5 1.515 5.19 5.19 0 0 0-.422 6.848l1.09-1.09a3.664 3.664 0 0 1 .413-4.678 3.664 3.664 0 0 1 3.812-.859v1.311l1.958-1.958a5.19 5.19 0 0 0-3.351-1.09z" style="stroke-width:3.01654;paint-order:stroke markers fill" transform="matrix(.3315 0 0 .3315 -1.386 .364)"/><path fill="#6ddce7" d="m17.853 5.301-1.09 1.09a3.664 3.664 0 0 1-.415 4.679 3.664 3.664 0 0 1-3.811.858v-1.312l-1.295 1.296-.663.662a5.19 5.19 0 0 0 6.85-.424 5.19 5.19 0 0 0 .423-6.85z" style="stroke-width:3.01654;paint-order:stroke markers fill" transform="matrix(.3315 0 0 .3315 -1.386 .364)"/></g><path d="M4.873 3.016a2.24 2.24 0 0 0-2.24 2.24 2.24 2.24 0 0 0 .155.818c.22.014.439.015.66.003.432-.007.853-.08 1.26-.218.505-.185.87-.52 1.095-1.008.121-.281.2-.574.237-.878.022-.201.036-.402.042-.603a2.24 2.24 0 0 0-1.209-.354Z" style="fill:#7664c4;fill-opacity:1;stroke-width:.705623"/><path d="m5.426 4.158-1.182.229.006.962c0 .303.005.408-.189.408-.193 0-.347.063-.347.24 0 .023.004.045.01.066.21-.017.419-.051.624-.1l.002-.023V4.856l.968-.224v.829s.004.03-.015.058c.043-.036.084-.075.123-.115zm-.158 1.39a.155.155 0 0 1-.066.012c-.128 0-.411-.036-.411.234l.001.032c.177-.073.336-.166.476-.278z" style="fill:#fff;fill-opacity:1;stroke-width:.705623"/></svg>