<svg xmlns="http://www.w3.org/2000/svg" width="24" height="24" fill="none"><path fill="url(#a)" fill-rule="evenodd" d="M9.596 1.114c.12 0 .234-.014.344-.046a31.627 31.627 0 0 1 4.307.011c1.301.102 2.561.384 3.78.848 2.025.833 3.412 2.28 4.158 4.339.427 1.24.679 2.514.756 3.824a27.94 27.94 0 0 1-.114 4.923 11.88 11.88 0 0 1-.894 3.32c-.85 1.843-2.229 3.114-4.135 3.813a15.624 15.624 0 0 1-4.765.825 21.423 21.423 0 0 1-5.453-.413c-3.312-.737-5.354-2.756-6.128-6.056a19.047 19.047 0 0 1-.447-4.511 18.491 18.491 0 0 1 .515-4.786c.812-3.086 2.77-4.998 5.877-5.736a13.953 13.953 0 0 1 2.199-.355Z" clip-rule="evenodd"/><path fill="#fff" d="M6.844 3.75c-.318 0-.573.216-.573.485v2.952H3.406a.572.572 0 0 0-.573.573c0 .318.256.573.573.573h2.865v7.537c0 .269.255.484.573.484h9.74v2.953c0 .27.255.485.572.485.318 0 .573-.216.573-.485v-2.953h2.865a.572.572 0 1 0 0-1.146h-2.865V7.672c0-.269-.255-.484-.573-.484h-9.74V4.235c0-.269-.255-.485-.572-.485Zm.573 4.583h9.166v6.875H7.417V8.333Z"/><defs><radialGradient id="a" cx="0" cy="0" r="1" gradientTransform="matrix(0 22 -22 0 12 1)" gradientUnits="userSpaceOnUse"><stop stop-color="#D6B1FF"/><stop offset="1" stop-color="#A75DFA"/></radialGradient></defs></svg>