<?xml version="1.0" encoding="UTF-8" standalone="no"?>
<svg
   xml:space="preserve"
   id="svg5"
   width="24"
   height="24"
   version="1.1"
   viewBox="0 0 6.35 6.35"
   sodipodi:docname="ktp-contacts.svg"
   inkscape:version="1.3 (0e150ed6c4, 2023-07-21)"
   xmlns:inkscape="http://www.inkscape.org/namespaces/inkscape"
   xmlns:sodipodi="http://sodipodi.sourceforge.net/DTD/sodipodi-0.dtd"
   xmlns:xlink="http://www.w3.org/1999/xlink"
   xmlns="http://www.w3.org/2000/svg"
   xmlns:svg="http://www.w3.org/2000/svg"><sodipodi:namedview
     id="namedview1"
     pagecolor="#ffffff"
     bordercolor="#000000"
     borderopacity="0.25"
     inkscape:showpageshadow="2"
     inkscape:pageopacity="0.0"
     inkscape:pagecheckerboard="0"
     inkscape:deskcolor="#d1d1d1"
     inkscape:zoom="16"
     inkscape:cx="-5.03125"
     inkscape:cy="6.71875"
     inkscape:window-width="3440"
     inkscape:window-height="1358"
     inkscape:window-x="2560"
     inkscape:window-y="0"
     inkscape:window-maximized="1"
     inkscape:current-layer="svg5" /><defs
     id="defs2"><radialGradient
       id="radialGradient14373"
       cx="0"
       cy="0"
       r="1"
       gradientTransform="matrix(-.32552 .65104 -.65104 -.32552 5.892 11.305)"
       gradientUnits="userSpaceOnUse"><stop
         id="stop14369"
         offset="0"
         stop-color="#8EB9EC"
         style="stop-color:#a5eb78;stop-opacity:1" /><stop
         id="stop14371"
         offset="1"
         stop-color="#4A85CC"
         style="stop-color:#60c31d;stop-opacity:1" /></radialGradient><radialGradient
       id="radialGradient14160"
       cx="0"
       cy="0"
       r="1"
       gradientTransform="matrix(-.32552 .65104 -.65104 -.32552 5.892 11.305)"
       gradientUnits="userSpaceOnUse"><stop
         id="stop14156"
         offset="0"
         stop-color="#8EB9EC"
         style="stop-color:#00d2ff;stop-opacity:1" /><stop
         id="stop14158"
         offset="1"
         stop-color="#4A85CC" /></radialGradient><radialGradient
       id="paint0_radial_29_23"
       cx="0"
       cy="0"
       r="1"
       gradientTransform="matrix(0 22 -22 0 12 1)"
       gradientUnits="userSpaceOnUse"><stop
         id="stop4857"
         stop-color="#8FC8FF" /><stop
         id="stop4859"
         offset="1"
         stop-color="#0056A8" /></radialGradient><radialGradient
       id="paint0_radial_29_149"
       cx="0"
       cy="0"
       r="1"
       gradientTransform="matrix(0 2.3292 -2.3292 0 3.896 9.918)"
       gradientUnits="userSpaceOnUse"><stop
         id="stop5241"
         offset="0"
         stop-color="#80D2FF"
         style="stop-color:#d0bc81;stop-opacity:1" /><stop
         id="stop5243"
         offset="1"
         stop-color="#2991C9"
         style="stop-color:#b78b42;stop-opacity:1" /></radialGradient><radialGradient
       id="paint0_radial_6_111"
       cx="0"
       cy="0"
       r="1"
       gradientTransform="matrix(-.32552 .65104 -.65104 -.32552 5.892 11.305)"
       gradientUnits="userSpaceOnUse"><stop
         id="stop10418"
         offset="0"
         stop-color="#8EB9EC"
         style="stop-color:#ffe164;stop-opacity:1" /><stop
         id="stop10420"
         offset="1"
         stop-color="#4A85CC"
         style="stop-color:#ffb450;stop-opacity:1" /></radialGradient><radialGradient
       id="radialGradient15853"
       cx="0"
       cy="0"
       r="1"
       fx="0"
       fy="0"
       gradientTransform="matrix(0 8.25003 -8.25003 0 9 .75)"
       gradientUnits="userSpaceOnUse"
       spreadMethod="pad"><stop
         id="stop15849"
         offset="0"
         style="stop-opacity:1;stop-color:#d0bc81" /><stop
         id="stop15851"
         offset="1"
         style="stop-opacity:1;stop-color:#b78b42" /></radialGradient><radialGradient
       id="radialGradient15873"
       cx="0"
       cy="0"
       r="1"
       fx="0"
       fy="0"
       gradientTransform="rotate(116.565 5.032 9.827) scale(2.57818)"
       gradientUnits="userSpaceOnUse"
       spreadMethod="pad"><stop
         id="stop15869"
         offset="0"
         style="stop-opacity:1;stop-color:#ffe164" /><stop
         id="stop15871"
         offset="1"
         style="stop-opacity:1;stop-color:#ffb450" /></radialGradient><radialGradient
       id="radialGradient15891"
       cx="0"
       cy="0"
       r="1"
       fx="0"
       fy="0"
       gradientTransform="rotate(116.565 5.611 8.89) scale(2.57818)"
       gradientUnits="userSpaceOnUse"
       spreadMethod="pad"><stop
         id="stop15887"
         offset="0"
         style="stop-opacity:1;stop-color:#a5eb78" /><stop
         id="stop15889"
         offset="1"
         style="stop-opacity:1;stop-color:#60c31d" /></radialGradient><radialGradient
       id="radialGradient15909"
       cx="0"
       cy="0"
       r="1"
       fx="0"
       fy="0"
       gradientTransform="rotate(116.565 6.19 7.953) scale(2.57818)"
       gradientUnits="userSpaceOnUse"
       spreadMethod="pad"><stop
         id="stop15905"
         offset="0"
         style="stop-opacity:1;stop-color:#00d2ff" /><stop
         id="stop15907"
         offset="1"
         style="stop-opacity:1;stop-color:#4a85cc" /></radialGradient><radialGradient
       id="radialGradient15927"
       cx="0"
       cy="0"
       r="1"
       fx="0"
       fy="0"
       gradientTransform="matrix(0 8.25003 -8.25003 0 9.03 .754)"
       gradientUnits="userSpaceOnUse"
       spreadMethod="pad"><stop
         id="stop15923"
         offset="0"
         style="stop-opacity:1;stop-color:#d0bc81" /><stop
         id="stop15925"
         offset="1"
         style="stop-opacity:1;stop-color:#b78b42" /></radialGradient><radialGradient
       id="radialGradient15853-3"
       cx="0"
       cy="0"
       r="1"
       fx="0"
       fy="0"
       gradientTransform="matrix(0,2.9104456,-2.9104456,0,3.17502,0.264585)"
       gradientUnits="userSpaceOnUse"
       spreadMethod="pad"><stop
         id="stop15849-6"
         offset="0"
         style="stop-opacity:1;stop-color:#d0bc81" /><stop
         id="stop15851-7"
         offset="1"
         style="stop-opacity:1;stop-color:#b78b42" /></radialGradient><radialGradient
       id="radialGradient15873-5"
       cx="0"
       cy="0"
       r="1"
       fx="0"
       fy="0"
       gradientTransform="matrix(-0.40675361,0.81350902,-0.81350902,-0.40675361,5.6698502,3.4293746)"
       gradientUnits="userSpaceOnUse"
       spreadMethod="pad"><stop
         id="stop15869-3"
         offset="0"
         style="stop-opacity:1;stop-color:#ffe164" /><stop
         id="stop15871-5"
         offset="1"
         style="stop-opacity:1;stop-color:#ffb450" /></radialGradient><radialGradient
       id="radialGradient15891-6"
       cx="0"
       cy="0"
       r="1"
       fx="0"
       fy="0"
       gradientTransform="matrix(-0.40675361,0.81350902,-0.81350902,-0.40675361,5.6697997,2.7682959)"
       gradientUnits="userSpaceOnUse"
       spreadMethod="pad"><stop
         id="stop15887-2"
         offset="0"
         style="stop-opacity:1;stop-color:#a5eb78" /><stop
         id="stop15889-9"
         offset="1"
         style="stop-opacity:1;stop-color:#60c31d" /></radialGradient><radialGradient
       id="radialGradient15909-1"
       cx="0"
       cy="0"
       r="1"
       fx="0"
       fy="0"
       gradientTransform="matrix(-0.40675361,0.81350902,-0.81350902,-0.40675361,5.6697496,2.1072172)"
       gradientUnits="userSpaceOnUse"
       spreadMethod="pad"><stop
         id="stop15905-2"
         offset="0"
         style="stop-opacity:1;stop-color:#00d2ff" /><stop
         id="stop15907-7"
         offset="1"
         style="stop-opacity:1;stop-color:#4a85cc" /></radialGradient><radialGradient
       id="radialGradient15927-0"
       cx="0"
       cy="0"
       r="1"
       fx="0"
       fy="0"
       gradientTransform="matrix(0,2.9104456,-2.9104456,0,3.1856034,0.26599612)"
       gradientUnits="userSpaceOnUse"
       spreadMethod="pad"><stop
         id="stop15923-9"
         offset="0"
         style="stop-opacity:1;stop-color:#d0bc81" /><stop
         id="stop15925-3"
         offset="1"
         style="stop-opacity:1;stop-color:#b78b42" /></radialGradient><linearGradient
       id="paint0_linear_24_221"
       x1="23"
       x2="1"
       y1="1"
       y2="12"
       gradientUnits="userSpaceOnUse"><stop
         id="stop4810"
         stop-color="#E3C880" /><stop
         id="stop4812"
         offset="1"
         stop-color="#6F5C38" /></linearGradient><linearGradient
       id="paint1_linear_24_221"
       x1="23"
       x2="1.429"
       y1="5.4"
       y2="23.511"
       gradientUnits="userSpaceOnUse"><stop
         id="stop4815"
         stop-color="#FFE795" /><stop
         id="stop4817"
         offset="1"
         stop-color="#7A653E" /></linearGradient><linearGradient
       id="paint2_linear_24_221"
       x1="15.929"
       x2="6.5"
       y1="9.224"
       y2="19.7"
       gradientUnits="userSpaceOnUse"><stop
         id="stop4820"
         stop-color="#7A653E"
         stop-opacity="0" /><stop
         id="stop4822"
         offset="1"
         stop-color="#7A653E"
         stop-opacity=".45" /></linearGradient><linearGradient
       id="paint3_linear_24_221"
       x1="16.479"
       x2="7.05"
       y1="8.7"
       y2="19.176"
       gradientUnits="userSpaceOnUse"><stop
         id="stop4825"
         stop-color="#777" /><stop
         id="stop4827"
         offset="1"
         stop-color="#444" /></linearGradient><style
       id="current-color-scheme"
       type="text/css">.ColorScheme-Text{color:#31363b}.ColorScheme-Background{color:#eff0f1}.ColorScheme-Highlight{color:#3daee9}.ColorScheme-ViewText{color:#31363b}.ColorScheme-ViewBackground{color:#fcfcfc}.ColorScheme-ViewHover{color:#93cee9}.ColorScheme-ViewFocus{color:#3daee9}.ColorScheme-ButtonText{color:#31363b}.ColorScheme-ButtonBackground{color:#eff0f1}.ColorScheme-ButtonHover{color:#93cee9}.ColorScheme-ButtonFocus{color:#3daee9}</style><radialGradient
       inkscape:collect="always"
       xlink:href="#radialGradient15853-3"
       id="radialGradient7"
       gradientUnits="userSpaceOnUse"
       gradientTransform="matrix(0,2.9104456,-2.9104456,0,3.1750196,0.264585)"
       cx="0"
       cy="0"
       fx="0"
       fy="0"
       r="1"
       spreadMethod="pad" /></defs><path
     id="path6"
     style="fill:url(#radialGradient7);fill-rule:evenodd;stroke:none;stroke-width:0.35278"
     d="m 3.1998036,0.26458333 a 8.3972223,8.3972223 0 0 0 -0.568957,0.0180867 c -0.02893,0.008114 -0.0592,0.0124024 -0.09095,0.0124024 a 3.6145839,3.6145839 0 0 0 -0.58291,0.0935343 c -0.330396,0.0786251 -0.611076,0.2085065 -0.843359,0.38757324 -0.19733597,1.72264693 -0.18498697,3.31110733 -0.0016,4.79143883 0.243869,0.1883107 0.540768,0.3222727 0.892969,0.4004924 a 5.6437744,5.6437744 0 0 0 1.442806,0.1090372 4.1250565,4.1250565 0 0 0 1.2609047,-0.2180745 c 0.504123,-0.1845037 0.869269,-0.520313 1.09399,-1.0082072 a 3.1665533,3.1665533 0 0 0 0.237243,-0.8779826 7.4884611,7.4884611 0 0 0 0.03049,-1.3037964 C 6.0496153,2.3233637 5.9833303,1.985865 5.8704413,1.6577799 5.6718263,1.113441 5.3056063,0.73001714 4.7697333,0.50952962 A 3.6195228,3.6195228 0 0 0 3.7692786,0.28525391 8.3972223,8.3972223 0 0 0 3.1998036,0.26458333 Z" /><path
     id="path15857"
     d="M 3.4561857,0.5044754 C 3.3694017,0.5072974 3.284029,0.5111784 3.1968924,0.5168227 A 0.27940176,0.27940176 0 0 1 3.1129307,0.52775888 3.5154527,3.5154527 0 0 0 2.578469,0.61454276 C 1.823167,0.793755 1.3462085,1.2594246 1.1493572,2.0090821 a 4.5473342,4.5473342 0 0 0 -0.1255896,1.1645268 4.6531682,4.6531682 0 0 0 0.109009,1.096793 c 0.1887373,0.8036328 0.684746,1.293997 1.491201,1.4732093 0.2656434,0.055386 0.5344617,0.089606 0.8046912,0.1019534 0.010936,0 0.021872,0 0.03175,-0.00141 A 3.8128462,3.8128462 0 0 0 4.6207124,5.64448 C 5.0835598,5.4737345 5.418348,5.165052 5.6250771,4.7170214 A 2.8684542,2.8684542 0 0 0 5.8427424,3.909508 c 0.04445,-0.3982887 0.053975,-0.7979884 0.02787,-1.1973354 A 3.3852769,3.3852769 0 0 0 5.6871664,1.7818918 C 5.506543,1.2802386 5.1689326,0.92886974 4.6757461,0.72637402 A 3.2709762,3.2709762 0 0 0 3.7564014,0.51964494 6.9920996,6.9920996 0 0 0 3.4590079,0.5044754 Z"
     style="fill:#e6e6e6;fill-opacity:1;fill-rule:nonzero;stroke:none;stroke-width:0.35278" /><path
     id="path15875"
     d="m 5.3040473,3.4300799 h 0.3252632 a 0.2434182,0.2434182 0 0 1 0.2437709,0.243771 V 3.9991141 A 0.2434182,0.2434182 0 0 1 5.6293105,4.2428851 H 5.3040473 A 0.2434182,0.2434182 0 0 1 5.0602763,3.9991141 V 3.6738509 a 0.2434182,0.2434182 0 0 1 0.243771,-0.243771 z"
     style="fill:url(#radialGradient15873-5);stroke:none;stroke-width:0.35278" /><path
     id="path15893"
     d="m 5.3040473,2.7686174 h 0.3252632 a 0.2434182,0.2434182 0 0 1 0.2437709,0.243771 V 3.3376516 A 0.2434182,0.2434182 0 0 1 5.6293105,3.5814226 H 5.3040473 A 0.2434182,0.2434182 0 0 1 5.0602763,3.3376516 V 3.0123884 a 0.2434182,0.2434182 0 0 1 0.243771,-0.243771 z"
     style="fill:url(#radialGradient15891-6);stroke:none;stroke-width:0.35278" /><path
     id="path15911"
     d="m 5.3040473,2.1071549 h 0.3252632 a 0.2434182,0.2434182 0 0 1 0.2437709,0.243771 V 2.6761891 A 0.2434182,0.2434182 0 0 1 5.6293105,2.9199601 H 5.3040473 A 0.2434182,0.2434182 0 0 1 5.0602763,2.6761891 V 2.3509259 a 0.2434182,0.2434182 0 0 1 0.243771,-0.243771 z"
     style="fill:url(#radialGradient15909-1);stroke:none;stroke-width:0.35278" /><path
     id="path15929"
     d="M 2.9213712,0.27022948 A 5.7891198,5.7891198 0 0 0 2.6402055,0.2839879 0.335141,0.335141 0 0 1 2.5495411,0.2963352 C 2.352337,0.31150474 2.1593664,0.34325494 1.9678068,0.3898219 1.1451239,0.5856148 0.62689006,1.0915013 0.41204704,1.9071287 A 4.9029364,4.9029364 0 0 0 0.2769323,3.1736089 c -0.008114,0.402522 0.0303391,0.8008106 0.11712296,1.1934547 0.20531796,0.8734833 0.74542414,1.4068867 1.62208244,1.6026796 0.2906907,0.059267 0.5813814,0.096309 0.8763055,0.1100673 0.010936,0 0.023636,0 0.034572,-0.00141 A 4.1172954,4.1172954 0 0 0 4.1878514,5.8607341 C 4.6923268,5.6762302 5.0574541,5.3400309 5.2821749,4.8521361 A 3.139742,3.139742 0 0 0 5.517832,3.9744195 C 5.5672212,3.5401473 5.577099,3.1062279 5.5492294,2.6705446 A 3.7828599,3.7828599 0 0 0 5.3495559,1.6591243 C 5.1512936,1.1133737 4.7844024,0.73166572 4.2485295,0.51117822 A 3.627284,3.627284 0 0 0 3.2480455,0.28645736 C 3.1404476,0.27975454 3.0332024,0.27269894 2.9256045,0.27022948 Z"
     style="fill:url(#radialGradient15927-0);stroke:none;stroke-width:0.35278" /><path
     id="path4"
     style="fill:#28170b;fill-opacity:1;fill-rule:evenodd;stroke:none;stroke-width:0.35278"
     d="M 1.1136266,0.77618001 C 0.76851963,1.0422228 0.53097163,1.4183253 0.40255963,1.9058268 c -0.100896,0.41628 -0.145926,0.8379621 -0.136426,1.2665894 a 5.0249983,5.0249983 0 0 0 0.118339,1.1932088 c 0.121853,0.5222014 0.365442,0.9223391 0.72760397,1.2019938 C 0.92864063,4.0872873 0.91629063,2.4988269 1.1136266,0.77618001 Z" /><path
     id="path15935"
     d="M 3.1669061,1.8563284 C 3.0399053,1.8288115 2.9213712,1.9734513 2.8236511,1.911362 2.8028371,2.007671 2.6994726,1.9332344 2.7037059,2.0133155 2.578469,2.1110355 2.4969768,2.2711976 2.5065019,2.4334764 2.4860407,2.5604772 2.5505994,2.7202866 2.4708711,2.8250622 2.4447654,2.948888 2.4652266,3.0840028 2.5065019,3.2011257 2.5936386,3.3334182 2.7284005,3.4424272 2.7587396,3.6078811 2.772498,3.7606348 2.607397,3.8460076 2.5054436,3.930322 2.3452814,4.0403893 2.175947,4.124351 2.0009682,4.204432 V 4.497945 H 4.3490718 V 4.204432 A 1.9953237,1.9953237 0 0 1 3.7123039,3.7606348 C 3.5842448,3.6378674 3.7084234,3.4614774 3.7895628,3.35141 3.8971607,3.2618039 3.9521943,3.1295114 3.9536055,2.9891049 3.989589,2.851168 3.8819911,2.7478034 3.9066857,2.607397 3.9038635,2.4295959 3.930322,2.2158112 3.7814488,2.0863409 3.6131728,1.94029 3.3873936,1.8644423 3.1669061,1.8563284 Z"
     style="fill:none;stroke:#000000;stroke-width:0.264585;stroke-linecap:round;stroke-linejoin:round;stroke-miterlimit:4;stroke-dasharray:none;stroke-opacity:0.2" /><path
     id="path15937"
     d="M 3.1669061,1.8563284 C 3.0399053,1.8288115 2.9213712,1.9734513 2.8236511,1.911362 2.8028371,2.007671 2.6994726,1.9332344 2.7037059,2.0133155 2.578469,2.1110355 2.4969768,2.2711976 2.5065019,2.4334764 2.4860407,2.5604772 2.5505994,2.7202866 2.4708711,2.8250622 2.4447654,2.948888 2.4652266,3.0840028 2.5065019,3.2011257 2.5936386,3.3334182 2.7284005,3.4424272 2.7587396,3.6078811 2.772498,3.7606348 2.607397,3.8460076 2.5054436,3.930322 2.3452814,4.0403893 2.175947,4.124351 2.0009682,4.204432 V 4.497945 H 4.3490718 V 4.204432 A 1.9953237,1.9953237 0 0 1 3.7123039,3.7606348 C 3.5842448,3.6378674 3.7084234,3.4614774 3.7895628,3.35141 3.8971607,3.2618039 3.9521943,3.1295114 3.9536055,2.9891049 3.989589,2.851168 3.8819911,2.7478034 3.9066857,2.607397 3.9038635,2.4295959 3.930322,2.2158112 3.7814488,2.0863409 3.6131728,1.94029 3.3873936,1.8644423 3.1669061,1.8563284 Z"
     style="fill:#535353;fill-opacity:1;fill-rule:nonzero;stroke:none;stroke-width:0.35278" /></svg>
