<svg xmlns="http://www.w3.org/2000/svg" width="24" height="24" fill="none"><path fill="url(#a)" fill-rule="evenodd" d="M9.596 1.114c.12 0 .234-.014.344-.046a31.627 31.627 0 0 1 4.307.011c1.301.102 2.561.384 3.78.848 2.025.833 3.412 2.28 4.158 4.339.427 1.24.679 2.514.756 3.824a27.94 27.94 0 0 1-.114 4.923 11.88 11.88 0 0 1-.894 3.32c-.85 1.843-2.229 3.114-4.135 3.813a15.624 15.624 0 0 1-4.765.825 21.423 21.423 0 0 1-5.453-.413c-3.312-.737-5.354-2.756-6.128-6.056a19.047 19.047 0 0 1-.447-4.511 18.491 18.491 0 0 1 .515-4.786c.812-3.086 2.77-4.998 5.877-5.736a13.953 13.953 0 0 1 2.199-.355Z" clip-rule="evenodd"/><defs><radialGradient id="a" cx="0" cy="0" r="1" gradientTransform="matrix(0 11 -11 0 12 1)" gradientUnits="userSpaceOnUse"><stop stop-color="#F08C85"/><stop offset="1" stop-color="#E84F43"/></radialGradient></defs><path fill="#fff" d="M378.022 80.87v10.043c-9.406.177-12.103 10.75-12.103 10.75h7.934v8.317H362.38c-6.617 21.763-21.805 20.723-21.805 20.723v-10.05s9.653 1.91 14.58-17.27c6.157-23.985 22.86-22.563 22.86-22.563" style="stroke-width:7.07748" transform="translate(-91.22 -18.382) scale(.28728)"/></svg>