<svg xmlns="http://www.w3.org/2000/svg" xmlns:xlink="http://www.w3.org/1999/xlink" xml:space="preserve" id="svg154" width="24" height="24" fill="none" version="1.1"><defs id="defs152"><linearGradient id="linearGradient449"><stop id="stop445" offset="0" style="stop-color:#ef8e30;stop-opacity:1"/><stop id="stop447" offset="1" style="stop-color:#fab680;stop-opacity:1"/></linearGradient><linearGradient id="a" x1="7.9" x2="56.17" y1="19.867" y2="19.867" gradientTransform="matrix(2.11605 0 0 2.11605 375.195 70.773)" gradientUnits="userSpaceOnUse"><stop id="stop3218" offset="0" stop-color="#fff" stop-opacity=".454"/><stop id="stop3220" offset="1" stop-color="#fff" stop-opacity=".276"/></linearGradient><linearGradient xlink:href="#linearGradient449" id="linearGradient451" x1="12" x2="12.438" y1="66.125" y2="-2.187" gradientUnits="userSpaceOnUse"/><linearGradient xlink:href="#linearGradient449" id="linearGradient4158" x1="12" x2="12.438" y1="66.125" y2="-2.187" gradientUnits="userSpaceOnUse"/><linearGradient id="linearGradient2" x1="12" x2="12.438" y1="66.125" y2="-2.188" gradientTransform="matrix(.24444 0 0 .24444 33.778 -.222)" gradientUnits="userSpaceOnUse" spreadMethod="pad"><stop id="stop1" offset="0" style="stop-opacity:1;stop-color:#ef8e30"/><stop id="stop2" offset="1" style="stop-opacity:1;stop-color:#fab680"/></linearGradient><linearGradient id="linearGradient6" x1="7.9" x2="56.17" y1="19.867" y2="19.867" gradientTransform="matrix(.23975 0 0 .23975 1.32 1.831)" gradientUnits="userSpaceOnUse" spreadMethod="pad"><stop id="stop5" offset="0" style="stop-opacity:.45400168;stop-color:#fff"/><stop id="stop6" offset="1" style="stop-opacity:.27598993;stop-color:#fff"/></linearGradient><linearGradient xlink:href="#linearGradient6" id="linearGradient9" x1="7.9" x2="56.17" y1="19.867" y2="19.867" gradientTransform="translate(35.76 2.442) scale(.31967)" gradientUnits="userSpaceOnUse" spreadMethod="pad"/><linearGradient xlink:href="#linearGradient6" id="linearGradient3" x1="7.9" x2="56.17" y1="19.867" y2="19.867" gradientTransform="translate(35.76 2.442) scale(.31967)" gradientUnits="userSpaceOnUse" spreadMethod="pad"/><linearGradient xlink:href="#linearGradient6" id="linearGradient4" x1="7.9" x2="56.17" y1="19.867" y2="19.867" gradientTransform="translate(35.76 2.442) scale(.31967)" gradientUnits="userSpaceOnUse" spreadMethod="pad"/><style id="current-color-scheme" type="text/css">.ColorScheme-Text{color:#31363b}.ColorScheme-Background{color:#eff0f1}.ColorScheme-Highlight{color:#3daee9}.ColorScheme-ViewText{color:#31363b}.ColorScheme-ViewBackground{color:#fcfcfc}.ColorScheme-ViewHover{color:#93cee9}.ColorScheme-ViewFocus{color:#3daee9}.ColorScheme-ButtonText{color:#31363b}.ColorScheme-ButtonBackground{color:#eff0f1}.ColorScheme-ButtonHover{color:#93cee9}.ColorScheme-ButtonFocus{color:#3daee9}</style></defs><g id="g2267" style="fill:url(#linearGradient451);fill-opacity:1"><path id="path6" d="M50 5C9.09 5 5 25.455 5 50c0 32.727 12.273 45 45 45 32.727 0 45-12.273 45-45 0-24.545-4.09-45-45-45Z" style="font-variation-settings:normal;display:inline;opacity:1;vector-effect:none;fill:url(#linearGradient4158);fill-opacity:1;stroke-width:4.56656;stroke-linecap:butt;stroke-linejoin:miter;stroke-miterlimit:4;stroke-dasharray:none;stroke-dashoffset:0;stroke-opacity:1;-inkscape-stroke:none;stop-color:#000;stop-opacity:1" transform="matrix(.24444 0 0 .24444 -.222 -.222)"/></g><g id="g4" transform="translate(-34)"><path id="path6-4" d="M45.979 4.948c-2.119.005-3.932.76-5.432 2.26h-.006c-.005.005-.01.016-.014.021-1.491 1.495-2.235 3.298-2.24 5.407h2.453c.01-1.428.515-2.652 1.52-3.672l.021-.021c1.022-1.022 2.255-1.531 3.698-1.536Zm0 0v2.459H46c1.432 0 2.656.5 3.677 1.5l.042.036c1.021 1.021 1.532 2.254 1.541 3.693h2.453c-.005-2.115-.754-3.928-2.26-5.428l-.037-.041C49.917 5.688 48.109 4.948 46 4.948Z" opacity="1" style="fill:url(#linearGradient3);stroke:none;stroke-width:1.33333"/><path id="path7" d="m49.088 3.62-4.285 9.281.984 1.182 1.568-.255z" style="fill:#e6e6e6;fill-opacity:1;fill-rule:nonzero;stroke:none;stroke-width:1.33333"/><path id="path8" d="M45.973 10.792c-.312 0-.604.057-.869.172-.265.11-.51.276-.713.484-.303.301-.5.65-.594 1.041a2.59 2.59 0 0 0-.057.538c0 .296.047.566.145.822.115.287.287.542.506.755.437.437.964.656 1.582.656.615 0 1.142-.219 1.579-.656.437-.432.656-.959.656-1.577 0-.6-.208-1.115-.62-1.543l-.036-.036a2.493 2.493 0 0 0-.51-.39 2.158 2.158 0 0 0-1.068-.265z" style="fill:#fff;fill-opacity:1;fill-rule:nonzero;stroke:none;stroke-width:1.33333"/><path id="path11" d="M45.979 4.948c-2.119.005-3.932.76-5.432 2.26h-.006c-.005.005-.01.016-.014.021-1.491 1.495-2.235 3.298-2.24 5.407h2.453c.01-1.428.515-2.652 1.52-3.672l.021-.021c1.022-1.022 2.255-1.531 3.698-1.536Zm0 0v2.459H46c1.432 0 2.656.5 3.677 1.5l.042.036c1.021 1.021 1.532 2.254 1.541 3.693h2.453c-.005-2.115-.754-3.928-2.26-5.428l-.037-.041C49.917 5.688 48.109 4.948 46 4.948Z" opacity="1" style="fill:url(#linearGradient4);stroke:none;stroke-width:1.33333"/><path id="path12" d="m49.088 3.62-4.285 9.281.984 1.182 1.568-.255z" style="fill:#e6e6e6;fill-opacity:1;fill-rule:nonzero;stroke:none;stroke-width:1.33333"/><path id="path13" d="M45.973 10.792c-.312 0-.604.057-.869.172-.265.11-.51.276-.713.484-.303.301-.5.65-.594 1.041a2.59 2.59 0 0 0-.057.538c0 .296.047.566.145.822.115.287.287.542.506.755.437.437.964.656 1.582.656.615 0 1.142-.219 1.579-.656.437-.432.656-.959.656-1.577 0-.6-.208-1.115-.62-1.543l-.036-.036a2.493 2.493 0 0 0-.51-.39 2.158 2.158 0 0 0-1.068-.265z" style="fill:#fff;fill-opacity:1;fill-rule:nonzero;stroke:none;stroke-width:1.33333"/><path id="path16" d="M45.979 4.948c-2.119.005-3.932.76-5.432 2.26h-.006c-.005.005-.01.016-.014.021-1.491 1.495-2.235 3.298-2.24 5.407h2.453c.01-1.428.515-2.652 1.52-3.672l.021-.021c1.022-1.022 2.255-1.531 3.698-1.536Zm0 0v2.459H46c1.432 0 2.656.5 3.677 1.5l.042.036c1.021 1.021 1.532 2.254 1.541 3.693h2.453c-.005-2.115-.754-3.928-2.26-5.428l-.037-.041C49.917 5.688 48.109 4.948 46 4.948Z" opacity="1" style="fill:url(#linearGradient9);stroke:none;stroke-width:1.33333"/><path id="path17" d="m49.088 3.62-4.285 9.281.984 1.182 1.568-.255z" style="fill:#e6e6e6;fill-opacity:1;fill-rule:nonzero;stroke:none;stroke-width:1.33333"/><path id="path18" d="M45.973 10.792c-.312 0-.604.057-.869.172-.265.11-.51.276-.713.484-.303.301-.5.65-.594 1.041a2.59 2.59 0 0 0-.057.538c0 .296.047.566.145.822.115.287.287.542.506.755.437.437.964.656 1.582.656.615 0 1.142-.219 1.579-.656.437-.432.656-.959.656-1.577 0-.6-.208-1.115-.62-1.543l-.036-.036a2.493 2.493 0 0 0-.51-.39 2.158 2.158 0 0 0-1.068-.265z" style="fill:#fff;fill-opacity:1;fill-rule:nonzero;stroke:none;stroke-width:1.33333"/></g></svg>