<svg xmlns="http://www.w3.org/2000/svg" xml:space="preserve" width="24" height="24" viewBox="0 0 6.35 6.35"><defs><radialGradient id="a" cx="0" cy="0" r="1" fx="0" fy="0" gradientTransform="matrix(0 5.82083 -5.82083 0 19.525 .265)" gradientUnits="userSpaceOnUse" spreadMethod="pad"><stop offset="0" style="stop-opacity:1;stop-color:#db6565"/><stop offset="1" style="stop-opacity:1;stop-color:#c04242"/></radialGradient></defs><path d="M18.888.295a.336.336 0 0 0 .091-.012c.38-.025.76-.024 1.14.002a3.62 3.62 0 0 1 1 .225c.536.22.903.603 1.102 1.148.111.328.178.665.2 1.011.027.436.017.87-.031 1.304a3.166 3.166 0 0 1-.237.878c-.225.488-.59.824-1.094 1.008a4.125 4.125 0 0 1-1.261.218 5.644 5.644 0 0 1-1.443-.109c-.875-.194-1.417-.729-1.62-1.602a5.025 5.025 0 0 1-.119-1.194c-.01-.427.036-.85.137-1.266.214-.816.733-1.322 1.554-1.517.191-.047.386-.079.581-.094z" style="fill:url(#a);fill-rule:evenodd;stroke:none;stroke-width:.352778" transform="translate(-16.35)"/><path d="M19.852 1.447a.135.135 0 0 0-.166.095l-.707 2.741a.141.141 0 0 0 .097.17l1.62.45a.136.136 0 0 0 .166-.096l.707-2.741a.14.14 0 0 0-.097-.17" style="fill:#dcdcdc;fill-opacity:1;fill-rule:nonzero;stroke:none;stroke-width:.352778" transform="translate(-16.35)"/><path d="m20.43 2.574-.59.48.28.722.589-.48" style="fill:#db6565;fill-opacity:1;fill-rule:nonzero;stroke:none;stroke-width:.352778" transform="translate(-16.35)"/><path d="M17.589 1.841a.141.141 0 0 0-.11.159l.475 2.796a.134.134 0 0 0 .156.11l1.652-.302a.139.139 0 0 0 .109-.16l-.474-2.794a.136.136 0 0 0-.156-.11" style="fill:#f9f9f9;fill-opacity:1;fill-rule:nonzero;stroke:none;stroke-width:.352778" transform="translate(-16.35)"/><path d="M18.407 2.87a.238.238 0 0 0-.191.277c.076.386.6.605.6.605s.407-.4.332-.785a.24.24 0 0 0-.283-.187.242.242 0 0 0-.196.219.24.24 0 0 0-.262-.13Z" style="fill:#d74949;fill-opacity:1;fill-rule:nonzero;stroke:none;stroke-width:.352778" transform="translate(-16.35)"/></svg>