<svg xmlns="http://www.w3.org/2000/svg" xml:space="preserve" width="24" height="24" viewBox="0 0 6.35 6.35"><defs><radialGradient id="a" cx="0" cy="0" r="1" fx="0" fy="0" gradientTransform="matrix(0 16.5 -16.5 0 8.25 0)" gradientUnits="userSpaceOnUse" spreadMethod="pad"><stop offset="0" style="stop-opacity:1;stop-color:#ececec"/><stop offset="1" style="stop-opacity:1;stop-color:#bdbdbd"/></radialGradient></defs><path d="M6.445.086c.09 0 .176-.012.258-.035a23.86 23.86 0 0 1 3.231.008 10.26 10.26 0 0 1 2.836.636c1.519.625 2.558 1.711 3.121 3.254.316.93.507 1.887.566 2.867a21.227 21.227 0 0 1-.086 3.696A8.976 8.976 0 0 1 15.699 13c-.637 1.383-1.672 2.336-3.101 2.859a11.693 11.693 0 0 1-3.575.618 15.998 15.998 0 0 1-4.089-.309C2.453 15.617.918 14.102.34 11.625a14.244 14.244 0 0 1-.336-3.383c-.027-1.211.101-2.41.387-3.59C1 2.34 2.469.906 4.797.352A10.27 10.27 0 0 1 6.445.086Z" style="fill:url(#a);fill-rule:evenodd;stroke:none" transform="translate(.264 .265) scale(.35277)"/><path d="M16.414 6.316 6.336 16.395c.891.101 1.785.128 2.687.082a11.714 11.714 0 0 0 3.575-.618c1.429-.523 2.464-1.476 3.101-2.859a9.013 9.013 0 0 0 .672-2.488c.137-1.231.164-2.461.086-3.696a19.397 19.397 0 0 0-.043-.5Z" style="fill:#898989;fill-opacity:.161111;fill-rule:nonzero;stroke:none" transform="translate(.264 .265) scale(.35277)"/><path d="M13.25 12.105H6.289a.49.49 0 0 0-.5.481c0 .262.223.476.5.476h6.961c.277 0 .5-.214.5-.476a.49.49 0 0 0-.5-.481zM3.309 3.441a.51.51 0 0 0-.493.235.475.475 0 0 0-.05.363.496.496 0 0 0 .086.168.48.48 0 0 0 .148.121l5.344 2.961L3 10.254a.545.545 0 0 0-.148.121.536.536 0 0 0-.086.168.475.475 0 0 0 .05.363.511.511 0 0 0 .684.176l6.027-3.344a.455.455 0 0 0 .176-.172.413.413 0 0 0 .063-.234c.004-.016.004-.027.004-.039 0-.016 0-.027-.004-.043 0-.082-.02-.16-.063-.23a.455.455 0 0 0-.176-.172L3.5 3.5a.559.559 0 0 0-.191-.059Z" style="fill:#666;fill-opacity:1;fill-rule:nonzero;stroke:none" transform="translate(.264 .265) scale(.35277)"/></svg>