<svg xmlns="http://www.w3.org/2000/svg" xmlns:xlink="http://www.w3.org/1999/xlink" xml:space="preserve" id="svg154" width="24" height="24" fill="none" version="1.1"><defs id="defs152"><linearGradient id="linearGradient7652"><stop id="stop7648" offset="0" style="stop-color:#6b76c5;stop-opacity:1"/><stop id="stop7650" offset="1" style="stop-color:#d5d5ff;stop-opacity:1"/></linearGradient><linearGradient xlink:href="#linearGradient7652" id="linearGradient7654" x1="13.33" x2="12.188" y1="45.832" y2="-4.75" gradientUnits="userSpaceOnUse"/><linearGradient xlink:href="#linearGradient7652" id="linearGradient7814" x1="13.33" x2="12.188" y1="45.832" y2="-4.75" gradientUnits="userSpaceOnUse"/><style id="current-color-scheme" type="text/css">.ColorScheme-Text{color:#31363b}.ColorScheme-Background{color:#eff0f1}.ColorScheme-Highlight{color:#3daee9}.ColorScheme-ViewText{color:#31363b}.ColorScheme-ViewBackground{color:#fcfcfc}.ColorScheme-ViewHover{color:#93cee9}.ColorScheme-ViewFocus{color:#3daee9}.ColorScheme-ButtonText{color:#31363b}.ColorScheme-ButtonBackground{color:#eff0f1}.ColorScheme-ButtonHover{color:#93cee9}.ColorScheme-ButtonFocus{color:#3daee9}</style></defs><g id="g2267" style="fill:url(#linearGradient7654);fill-opacity:1"><path id="path6" d="M50 5C9.09 5 5 25.455 5 50c0 32.727 12.273 45 45 45 32.727 0 45-12.273 45-45 0-24.545-4.09-45-45-45Z" style="font-variation-settings:normal;display:inline;opacity:1;vector-effect:none;fill:url(#linearGradient7814);fill-opacity:1;stroke-width:4.56656;stroke-linecap:butt;stroke-linejoin:miter;stroke-miterlimit:4;stroke-dasharray:none;stroke-dashoffset:0;stroke-opacity:1;-inkscape-stroke:none;stop-color:#000;stop-opacity:1" transform="matrix(.24444 0 0 .24444 -.222 -.222)"/></g><path id="path2703" fill="#fff" d="M11.998 4.5A7.483 7.483 0 0 0 4.5 11.718a7.47 7.47 0 0 0 6.998 4.806c2.265 0 4.28-.994 5.65-2.572a7.454 7.454 0 0 1-5.044 5.548 7.474 7.474 0 0 0 7.396-7.498 7.477 7.477 0 0 0-7.498-7.499" style="stroke-width:.61772;image-rendering:optimizeSpeed"/></svg>