<svg xmlns="http://www.w3.org/2000/svg" width="24" height="24" viewBox="0 0 6.35 6.35"><defs><radialGradient id="a" cx="0" cy="0" r="1" fx="0" fy="0" gradientTransform="matrix(0 16.5 -16.5 0 9 .75)" gradientUnits="userSpaceOnUse" spreadMethod="pad"><stop offset="0" style="stop-opacity:1;stop-color:#ff9b68"/><stop offset="1" style="stop-opacity:1;stop-color:#f25e0d"/></radialGradient></defs><path d="M7.195.836c.09 0 .176-.012.258-.035a23.86 23.86 0 0 1 3.231.008 10.26 10.26 0 0 1 2.836.636c1.519.625 2.558 1.711 3.121 3.254.316.93.507 1.887.566 2.867a21.227 21.227 0 0 1-.086 3.696 8.976 8.976 0 0 1-.672 2.488c-.637 1.383-1.672 2.336-3.101 2.859a11.693 11.693 0 0 1-3.575.618 15.998 15.998 0 0 1-4.089-.309c-2.481-.551-4.016-2.066-4.594-4.543a14.244 14.244 0 0 1-.336-3.383c-.027-1.215.101-2.41.387-3.59.609-2.312 2.078-3.746 4.406-4.3A10.27 10.27 0 0 1 7.195.836Z" style="fill:url(#a);fill-rule:evenodd;stroke:none" transform="scale(.35277)"/><path fill="#fff" d="M1.607 4.413a.33.33 0 0 1 .102-.245.336.336 0 0 1 .246-.1c.096 0 .176.033.242.1a.33.33 0 0 1 .101.246.332.332 0 0 1-.101.243.329.329 0 0 1-.242.1.339.339 0 0 1-.246-.1.328.328 0 0 1-.102-.244m-.02-1.564v.576a1.337 1.337 0 0 1 1.335 1.337h.579A1.914 1.914 0 0 0 1.587 2.85Zm.001-1.261v.637A2.537 2.537 0 0 1 4.122 4.76h.64a3.175 3.175 0 0 0-3.174-3.173Z" font-family="'Bitstream Vera Serif'" font-size="13.59" font-weight="700" overflow="visible" style="stroke-width:.399968"/></svg>