<svg xmlns="http://www.w3.org/2000/svg" xmlns:xlink="http://www.w3.org/1999/xlink" xml:space="preserve" id="svg154" width="24" height="24" fill="none" version="1.1"><defs id="defs152"><linearGradient id="linearGradient7652"><stop id="stop7648" offset="0" style="stop-color:#304752;stop-opacity:1"/><stop id="stop7650" offset="1" style="stop-color:#fca;stop-opacity:1"/></linearGradient><linearGradient xlink:href="#linearGradient7652" id="linearGradient7654" x1="13.33" x2="11.688" y1="31.144" y2="-18.438" gradientUnits="userSpaceOnUse"/><linearGradient xlink:href="#linearGradient7652" id="linearGradient11097" x1="13.33" x2="11.688" y1="31.144" y2="-18.438" gradientUnits="userSpaceOnUse"/><style id="current-color-scheme" type="text/css">.ColorScheme-Text{color:#31363b}.ColorScheme-Background{color:#eff0f1}.ColorScheme-Highlight{color:#3daee9}.ColorScheme-ViewText{color:#31363b}.ColorScheme-ViewBackground{color:#fcfcfc}.ColorScheme-ViewHover{color:#93cee9}.ColorScheme-ViewFocus{color:#3daee9}.ColorScheme-ButtonText{color:#31363b}.ColorScheme-ButtonBackground{color:#eff0f1}.ColorScheme-ButtonHover{color:#93cee9}.ColorScheme-ButtonFocus{color:#3daee9}</style></defs><g id="g2267" style="fill:url(#linearGradient7654);fill-opacity:1"><path id="path6" d="M50 5C9.09 5 5 25.455 5 50c0 32.727 12.273 45 45 45 32.727 0 45-12.273 45-45 0-24.545-4.09-45-45-45Z" style="font-variation-settings:normal;display:inline;opacity:1;vector-effect:none;fill:url(#linearGradient11097);fill-opacity:1;stroke-width:4.56656;stroke-linecap:butt;stroke-linejoin:miter;stroke-miterlimit:4;stroke-dasharray:none;stroke-dashoffset:0;stroke-opacity:1;-inkscape-stroke:none;stop-color:#000;stop-opacity:1" transform="matrix(.24444 0 0 .24444 -.222 -.222)"/></g><g id="g7335" transform="matrix(.22544 0 0 .22544 -72.953 -24.984)"><path id="path6207" fill="#3c98fe" d="m371.716 171.636-1.598 3.915c4.301 13.353 4.301 13.353 6.703 24.999 2.41-11.646 2.41-11.646 6.719-24.999l-6.719-16.372z" style="stroke-width:7.72274"/><path id="path6209" fill="#ec7a02" d="M371.214 132.79h11.214l24.836 61.304h-10.418l-20.025-46.823-20.017 46.823h-10.418z" style="stroke-width:7.72274"/></g></svg>