<svg xmlns="http://www.w3.org/2000/svg" xmlns:xlink="http://www.w3.org/1999/xlink" xml:space="preserve" id="svg154" width="24" height="24" fill="none" version="1.1"><defs id="defs152"><linearGradient id="linearGradient7652"><stop id="stop7648" offset="0" style="stop-color:#606060;stop-opacity:1"/><stop id="stop7650" offset="1" style="stop-color:#f9f9f9;stop-opacity:1"/></linearGradient><linearGradient xlink:href="#linearGradient7652" id="linearGradient7654" x1="13.33" x2="11.688" y1="31.144" y2="-18.438" gradientUnits="userSpaceOnUse"/><linearGradient xlink:href="#linearGradient7652" id="linearGradient12293" x1="13.33" x2="11.688" y1="31.144" y2="-18.438" gradientUnits="userSpaceOnUse"/><style id="current-color-scheme" type="text/css">.ColorScheme-Text{color:#31363b}.ColorScheme-Background{color:#eff0f1}.ColorScheme-Highlight{color:#3daee9}.ColorScheme-ViewText{color:#31363b}.ColorScheme-ViewBackground{color:#fcfcfc}.ColorScheme-ViewHover{color:#93cee9}.ColorScheme-ViewFocus{color:#3daee9}.ColorScheme-ButtonText{color:#31363b}.ColorScheme-ButtonBackground{color:#eff0f1}.ColorScheme-ButtonHover{color:#93cee9}.ColorScheme-ButtonFocus{color:#3daee9}</style></defs><g id="g2267" style="fill:url(#linearGradient7654);fill-opacity:1"><path id="path6" d="M50 5C9.09 5 5 25.455 5 50c0 32.727 12.273 45 45 45 32.727 0 45-12.273 45-45 0-24.545-4.09-45-45-45Z" style="font-variation-settings:normal;display:inline;opacity:1;vector-effect:none;fill:url(#linearGradient12293);fill-opacity:1;stroke-width:4.56656;stroke-linecap:butt;stroke-linejoin:miter;stroke-miterlimit:4;stroke-dasharray:none;stroke-dashoffset:0;stroke-opacity:1;-inkscape-stroke:none;stop-color:#000;stop-opacity:1" transform="matrix(.24444 0 0 .24444 -.222 -.222)"/></g><path id="path2111" fill="#c5f533" d="M10.512 7.635c-1.922 0-3.326 1.473-4.225 3.19-1.17 2.234-2.405 5.542-.022 5.542 2.507 0 4.592-1.39 6.065-2.444.535.974 1.312 2.444 2.4 2.444 1.087 0 2.077-.429 2.56-.808l1.806-2.516-.197-.223c-2.283 1.132-3.063 1.91-4.346-.533l1.62-1.491 2.38-2.947-.176-.216-4.282 3.747c-.692-1.434-2.117-3.745-3.585-3.747M8.908 9.487c1.359 0 2.158 2.004 2.959 3.49-1.18.67-2.723 1.5-3.855 1.27-1.341-.276-1.68-1.68-1.14-2.732.478-.987 1.065-2.026 2.034-2.026" style="stroke-width:1.78801"/></svg>