<svg xmlns="http://www.w3.org/2000/svg" xmlns:xlink="http://www.w3.org/1999/xlink" xml:space="preserve" id="svg154" width="24" height="24" fill="none" version="1.1"><defs id="defs152"><linearGradient id="linearGradient7652"><stop id="stop7648" offset="0" style="stop-color:#222;stop-opacity:1"/><stop id="stop7650" offset="1" style="stop-color:#555;stop-opacity:1"/></linearGradient><linearGradient xlink:href="#linearGradient7652" id="linearGradient12702" x1="50.148" x2="74.33" y1="82.281" y2="8.92" gradientTransform="matrix(.24444 0 0 .24444 -.222 -.222)" gradientUnits="userSpaceOnUse"/><radialGradient id="radialGradient2-2" cx="0" cy="0" r="1" fx="0" fy="0" gradientTransform="matrix(0 22 -22 0 -8 1)" gradientUnits="userSpaceOnUse" spreadMethod="pad"><stop id="stop1-7-0" offset="0" style="stop-opacity:1;stop-color:#555"/><stop id="stop2-4-6" offset="1" style="stop-opacity:1;stop-color:#222"/></radialGradient><style id="current-color-scheme" type="text/css">.ColorScheme-Text{color:#31363b}.ColorScheme-Background{color:#eff0f1}.ColorScheme-Highlight{color:#3daee9}.ColorScheme-ViewText{color:#31363b}.ColorScheme-ViewBackground{color:#fcfcfc}.ColorScheme-ViewHover{color:#93cee9}.ColorScheme-ViewFocus{color:#3daee9}.ColorScheme-ButtonText{color:#31363b}.ColorScheme-ButtonBackground{color:#eff0f1}.ColorScheme-ButtonHover{color:#93cee9}.ColorScheme-ButtonFocus{color:#3daee9}</style></defs><path id="path6" d="M12 1C2 1 1 6 1 12c0 8 3 11 11 11s11-3 11-11c0-6-1-11-11-11Z" style="font-variation-settings:normal;display:inline;vector-effect:none;fill:url(#linearGradient12702);fill-opacity:1;stroke-width:1.11627;stroke-linecap:butt;stroke-linejoin:miter;stroke-miterlimit:4;stroke-dasharray:none;stroke-dashoffset:0;stroke-opacity:1;-inkscape-stroke:none;stop-color:#000"/><g id="g4342" stroke-width=".714" transform="matrix(.27668 0 0 .27668 3.146 3.146)"><path id="path4338" fill="#5ee05e" d="M9.6 25.67C9.6 40.078 21.495 60 32 60c9.89 0 22.4-19.925 22.4-34.33C54.4 11.266 44.371 4 32 4 19.629 4 9.6 11.264 9.6 25.67Z"/><path id="path4340" fill="#2c3135" d="M38.135 35.335a11.378 11.378 0 0 1 10.418-3.088c.77 3.643-.259 7.59-3.088 10.418a11.378 11.378 0 0 1-10.418 3.088c-.77-3.643.26-7.59 3.088-10.418zm-22.689-2.897c3.643-.759 7.59.256 10.418 3.045a11.117 11.117 0 0 1 3.088 10.273c-3.642.76-7.59-.255-10.418-3.044a11.117 11.117 0 0 1-3.088-10.274Z"/></g></svg>