<svg xmlns="http://www.w3.org/2000/svg" xmlns:xlink="http://www.w3.org/1999/xlink" xml:space="preserve" width="24" height="24" fill="none"><defs><radialGradient id="a" cx="0" cy="0" r="1" gradientTransform="matrix(0 22 -22 0 12 1)" gradientUnits="userSpaceOnUse"><stop offset=".004" stop-color="#8FC8FF" style="stop-color:#ffbe92;stop-opacity:1"/><stop offset=".992" stop-color="#0056A8" style="stop-color:#ffbe92;stop-opacity:1"/></radialGradient><radialGradient id="b" cx="0" cy="0" r="1" gradientTransform="matrix(0 22 -22 0 12 1)" gradientUnits="userSpaceOnUse"><stop offset="0" stop-color="#8FC8FF" style="stop-color:#f6f6f6;stop-opacity:1"/><stop offset="1" stop-color="#0056A8" style="stop-color:#cfcfcf;stop-opacity:1"/></radialGradient><radialGradient xlink:href="#a" id="c" cx=".179" cy="-1.748" r="1" fx=".179" fy="-1.748" gradientTransform="matrix(0 90.05947 -90.00681 0 -107.37 -11.19)" gradientUnits="userSpaceOnUse"/></defs><path d="M50 5C9.09 5 5 25.455 5 50c0 32.727 12.273 45 45 45 32.727 0 45-12.273 45-45 0-24.545-4.09-45-45-45Z" style="font-variation-settings:normal;display:inline;opacity:1;vector-effect:none;fill:url(#c);fill-opacity:1;stroke-width:4.56656;stroke-linecap:butt;stroke-linejoin:miter;stroke-miterlimit:4;stroke-dasharray:none;stroke-dashoffset:0;stroke-opacity:1;-inkscape-stroke:none;stop-color:#000;stop-opacity:1" transform="matrix(.24444 0 0 .24444 -.222 -.222)"/><g style="display:inline"><rect width="2" height="2" x="12" y="-3" rx="0" ry="0" style="display:inline;fill:#3947be;fill-opacity:1;stroke-width:22.6872;paint-order:markers stroke fill"/><rect width="2" height="2" x="9" y="-3" rx="0" ry="0" style="display:inline;fill:#6c7ad8;fill-opacity:1;stroke-width:22.6873;paint-order:markers stroke fill"/><rect width="2" height="2" x="6" y="-3" rx="0" ry="0" style="display:inline;fill:#3c3;fill-opacity:1;stroke-width:22.6873;paint-order:markers stroke fill"/><rect width="2" height="2" x="3" y="-3" rx="0" ry="0" style="display:inline;fill:#ffc328;fill-opacity:1;stroke-width:22.6872;paint-order:markers stroke fill"/><rect width="2" height="2" y="-3" rx="0" ry="0" style="display:inline;fill:#cc5e55;fill-opacity:1;stroke-width:22.6873;paint-order:markers stroke fill"/><rect width="2" height="2" x="-3" y="12" rx="0" ry="0" style="display:inline;fill:#0bb1cb;fill-opacity:1;stroke-width:22.6872;paint-order:markers stroke fill"/><rect width="2" height="2" x="-3" y="9" rx="0" ry="0" style="display:inline;fill:#2a92c9;fill-opacity:1;stroke-width:22.6873;paint-order:markers stroke fill"/><rect width="2" height="2" x="-3" y="6" rx="0" ry="0" style="display:inline;fill:#069;fill-opacity:1;stroke-width:22.6873;paint-order:markers stroke fill"/><rect width="2" height="2" x="-3" y="3" rx="0" ry="0" style="display:inline;fill:#002a44;fill-opacity:1;stroke-width:22.6873;paint-order:markers stroke fill"/><rect width="2" height="2" x="-3" rx="0" ry="0" style="display:inline;fill:#2c2d3d;fill-opacity:1;stroke-width:22.6873;paint-order:markers stroke fill"/><rect width="2" height="2" x="-3" y="-3" rx="0" ry="0" style="display:inline;fill:#16171c;fill-opacity:1;stroke-width:22.6872;paint-order:markers stroke fill"/></g><g stroke-width="1.448" style="image-rendering:optimizeSpeed"><path fill="#c4762f" d="M44.312 38.518c0 8.69-5.793 13.035-13.035 13.035s-13.035-4.345-13.035-13.035C18.242 28.38 25.234 11 31.277 11s13.035 17.38 13.035 27.518Z" style="paint-order:normal" transform="matrix(.34523 0 0 .34523 1.202 1.203)"/><path fill="#f1c852" d="M31.277 12.447c-5.114 0-11.586 15.931-11.586 26.069 0 7.242 4.594 11.586 11.586 11.586 2.338 0 4.399-.494 6.119-1.411 2.274-3.454 4.02-7.365 4.02-11.624.83 1.887.431 5.09-.448 8.399 1.22-1.84 1.895-4.182 1.895-6.95 0-10.138-6.472-26.07-11.586-26.07zm-2.172 2.897s-.725 4.971-.725 7.241c0 2.937 1.449 7.242 1.449 8.69 0 2.15-2.173 5.793-2.173 5.793s.725-2.557.725-5.793c0-1.448-1.449-5.228-1.449-8.69 0-2.462 2.173-7.241 2.173-7.241zm5.069 0s4.345 6.205 4.345 13.035c0 2.896-.52 5.203-1.449 7.241v-7.24c0-5.25-1.448-8.69-2.896-13.035zm-10.138 8.69v4.344c0 2.897-.425 5.47-1.449 8.69v-5.793c0-2.462 1.449-7.242 1.449-7.242z" style="paint-order:normal" transform="matrix(.34523 0 0 .34523 1.202 1.203)"/><path fill="#403b3c" d="M24.76 39.965c-1.2 0-2.172 1.297-2.172 2.897.788-1.448 1.57-1.449 2.172-1.449.602 0 1.341.001 2.172 1.449 0-1.6-.972-2.897-2.172-2.897zm11.586 0c-1.2 0-2.172 1.297-2.172 2.897.788-1.448 1.57-1.449 2.172-1.449.602 0 1.341.001 2.172 1.449 0-1.6-.972-2.897-2.172-2.897zm-7.241 4.345a.724.724 0 0 0-.725.724c0 1.204.97 2.172 2.173 2.172a2.168 2.168 0 0 0 2.172-2.172.724.724 0 0 0-.724-.724.724.724 0 0 0-.724.724.723.723 0 0 1-.724.724.723.723 0 0 1-.724-.724.724.724 0 0 0-.725-.724Z" style="paint-order:normal" transform="matrix(.34523 0 0 .34523 1.202 1.203)"/></g></svg>