<svg xmlns="http://www.w3.org/2000/svg" xml:space="preserve" width="24" height="24" viewBox="0 0 6.35 6.35"><defs><radialGradient id="a" cx="0" cy="0" r="1" gradientTransform="rotate(90 1.455 1.72) scale(5.82072)" gradientUnits="userSpaceOnUse"><stop stop-color="#FAFAFA"/><stop offset="1" stop-color="#B0B0B0"/></radialGradient></defs><path fill="url(#a)" fill-rule="evenodd" d="M2.63.283a.312.312 0 0 1-.091.012c-.197.015-.39.047-.582.094-.822.195-1.34.7-1.555 1.517-.1.416-.146.838-.136 1.266-.008.403.031.801.118 1.194.205.873.745 1.407 1.621 1.603.477.097.957.134 1.443.108.432-.007.852-.08 1.26-.218a1.87 1.87 0 0 0 1.095-1.008c.121-.281.2-.574.236-.879.049-.433.059-.867.03-1.302a3.775 3.775 0 0 0-.2-1.012A1.886 1.886 0 0 0 4.77.51a3.581 3.581 0 0 0-1-.224A8.37 8.37 0 0 0 2.63.283z" clip-rule="evenodd" style="fill:url(#a);stroke-width:.264578"/><g fill-rule="evenodd"><path fill="#201f1f" d="M3.46 2.895c0 .21.004.383-.097.567-.08.15-.21.243-.353.243-.196 0-.31-.156-.31-.387 0-.455.39-.538.76-.538v.116m.514 1.302a.103.103 0 0 1-.12.013c-.17-.147-.2-.216-.294-.356-.28.299-.478.388-.841.388-.43 0-.765-.277-.765-.832 0-.434.225-.73.544-.874.277-.128.664-.15.96-.185v-.07c0-.126.01-.277-.06-.386-.063-.099-.183-.139-.288-.139-.195 0-.368.104-.41.32-.01.049-.042.096-.09.099l-.495-.056c-.041-.01-.087-.045-.076-.112.115-.627.657-.817 1.143-.817.248 0 .573.07.768.266.25.243.225.567.225.919v.832c0 .251.1.36.193.496.033.047.04.106 0 .142a24.557 24.557 0 0 0-.393.355l-.002-.002"/><path fill="#f90" d="M4.778 4.655c-.435.328-1.064.504-1.607.504a2.867 2.867 0 0 1-1.963-.768c-.04-.038-.004-.09.045-.06a3.876 3.876 0 0 0 1.964.534 3.815 3.815 0 0 0 1.498-.314c.073-.032.135.049.063.104"/><path fill="#f90" d="M4.959 4.443c-.056-.072-.368-.034-.507-.017-.043.005-.05-.033-.01-.06.247-.18.655-.128.702-.068.048.06-.012.48-.246.679-.035.03-.07.014-.053-.027.051-.134.17-.434.114-.507"/></g></svg>