<svg xmlns="http://www.w3.org/2000/svg" xmlns:xlink="http://www.w3.org/1999/xlink" xml:space="preserve" id="svg154" width="24" height="24" fill="none" version="1.1"><defs id="defs152"><linearGradient id="linearGradient7652"><stop id="stop7648" offset="0" style="stop-color:#ffbe92;stop-opacity:1"/><stop id="stop7650" offset="1" style="stop-color:#ffe6d5;stop-opacity:1"/></linearGradient><linearGradient xlink:href="#linearGradient7652" id="linearGradient7654" x1="13.33" x2="11.688" y1="31.144" y2="-18.438" gradientUnits="userSpaceOnUse"/><linearGradient xlink:href="#linearGradient7652" id="linearGradient14157" x1="13.33" x2="11.688" y1="31.144" y2="-18.438" gradientUnits="userSpaceOnUse"/><style id="current-color-scheme" type="text/css">.ColorScheme-Text{color:#31363b}.ColorScheme-Background{color:#eff0f1}.ColorScheme-Highlight{color:#3daee9}.ColorScheme-ViewText{color:#31363b}.ColorScheme-ViewBackground{color:#fcfcfc}.ColorScheme-ViewHover{color:#93cee9}.ColorScheme-ViewFocus{color:#3daee9}.ColorScheme-ButtonText{color:#31363b}.ColorScheme-ButtonBackground{color:#eff0f1}.ColorScheme-ButtonHover{color:#93cee9}.ColorScheme-ButtonFocus{color:#3daee9}</style></defs><g id="g2267" style="display:inline;fill:url(#linearGradient7654);fill-opacity:1"><path id="path6" d="M50 5C9.09 5 5 25.455 5 50c0 32.727 12.273 45 45 45 32.727 0 45-12.273 45-45 0-24.545-4.09-45-45-45Z" style="font-variation-settings:normal;display:inline;opacity:1;vector-effect:none;fill:url(#linearGradient14157);fill-opacity:1;stroke-width:4.56656;stroke-linecap:butt;stroke-linejoin:miter;stroke-miterlimit:4;stroke-dasharray:none;stroke-dashoffset:0;stroke-opacity:1;-inkscape-stroke:none;stop-color:#000;stop-opacity:1" transform="matrix(.24444 0 0 .24444 -.222 -.222)"/></g><g id="g8481" transform="matrix(.16063 0 0 .16063 -54.673 -13.724)"><g id="g8468"><circle id="circle7761" cx="433.546" cy="199.922" r="6.119" fill="#f33434" style="stroke-width:1.71518"/><path id="path7763" fill="#965f2e" d="M432.961 114.25c-.905-.012-2.382 1.952-3.556 3.71-2.677 4.008-5.48 8.391-8.219 13.913-2.724 5.49-2.973 5.234-2.647 16.745 2.034.113 6.345 1.183 8.244 2.133.276-.477.547-1.262.803-1.774 4.019-8.065 4.882-20.35 6.03-30.092.403-3.423.05-4.626-.655-4.635zM388.227 129.5c-2.988.191 3.308 11.461 5.161 14.325 1.682 2.599 5.856 7.03 9.195 10.614.715.767 1.353 1.434 1.959 2.064 0 0 .388.538.645.305 1.439-1.301 6.119-6.357 7.904-7.045l-.235-.373c-4.9-7.284-12.931-13.65-22.74-19.234-.846-.483-1.463-.681-1.89-.655z" style="stroke-width:1.71518"/><path id="path7765" fill="#c47831" d="M417.5 147.905c-6.743.627-11.202 4.21-13.837 9.293a13.68 13.68 0 0 0-.632 4.219c0 5.332 1.666 9.45 1.188 14.867-.647 7.339-6.155 11.771-3.71 18.406.052.161.066.31.125.475.506 1.403 1.511 2.857 2.922 4.477.23.262.502.491.78.717 1.11.914 2.573 1.548 4.261 1.96 1.153.28 2.404.465 3.696.574.44.038.884.066 1.33.088l.382-.05c4.53.177 9.278-.33 12.054-.48a18.788 18.788 0 0 0 1.992-.216 21.059 21.059 0 0 0 5.939-1.903h.013c.09-.045.17-.106.26-.152a20.217 20.217 0 0 0 2.059-1.189c2.086-1.398 3.833-3.158 4.971-5.161.974-1.712 1.499-3.603 1.423-5.6-.023-2.068-.657-4.25-2.1-6.475-4.696-7.242-9.793-16.135-10.058-25.819a7.391 7.391 0 0 0-1.416-3.692c-2.65-3.251-7.945-4.321-11.642-4.339z" style="stroke-width:1.71518"/><path id="path7767" fill="#837f7a" d="M427.292 175.456c2.438 0 4.69-.052 6.374.535 1.817.633 2.968 2.01 2.968 4.997 0 2.732-4.25 6.74-5.513 10.485.424 3.217 1.459 6.404 2.883 8.86a20.06 20.06 0 0 0 2.316-1.338c2.086-1.398 3.83-3.158 4.968-5.164 1.921-3.382 2.12-7.462-.677-11.689-6.777-13.203-33.515-3.756-38.6 1.827-.262 1.774-3.366 5.624-1.359 11.201.504 1.402 1.508 2.854 2.92 4.474 1.14 1.31 2.928 2.136 5.036 2.64 1.154.274 2.402.453 3.692.56.441.036.884.065 1.332.087-.004-2.061.145-4.115.1-6.078a28.03 28.03 0 0 0-.016-.509c-.443-4.504-8.723-5.368-8.723-11.696 0-1.312.436-2.443 1.19-3.416 3.753-4.834 15.428-5.777 21.108-5.777z" style="stroke-width:1.71518"/><path id="path7769" fill="#d7d6d6" d="M427.292 175.456c-5.68 0-17.356.94-21.107 5.776 2.525 3.253 4.51 6.25 6.302 9.714.853 1.647 1.15 3.473 1.23 5.396.019.167.022.336.019.511.043 1.96-.106 4.015-.102 6.078 4.642.222 9.576-.323 12.427-.477a18.759 18.759 0 0 0 1.991-.215 21.059 21.059 0 0 0 5.95-1.905c-1.422-2.456-2.457-5.644-2.881-8.861a24.228 24.228 0 0 1-.215-3.165c0-3.262 1.222-8.988 2.76-12.317-1.683-.587-3.936-.535-6.374-.535z" style="stroke-width:1.71518"/><path id="path7773" fill="#3f3f3f" d="M412.487 190.944c-1.793-3.464-3.777-6.46-6.302-9.714a5.441 5.441 0 0 0-1.19 3.416c0 6.327 8.28 7.192 8.723 11.695-.08-1.923-.378-3.75-1.231-5.397zm21.18-14.956c-1.537 3.328-2.76 9.056-2.76 12.316 0 1.043.074 2.106.215 3.165 1.262-3.746 5.513-7.753 5.513-10.484 0-2.988-1.15-4.365-2.968-4.997z" style="stroke-width:1.71518"/><path id="path7775" fill="#fff" d="M424.597 160.28c-1.298.366-3.395 6.012-3.396 7.858-.004 2.41.76 3.335 2.217 4.432 1.458 1.097 8.473 2.437 8.49-.13.017-2.53-.076-4.679-.416-6.1-.34-1.423-1.03-4.117-2.425-5.278-.878-.73-3.173-1.147-4.47-.781z" style="stroke-width:1.71518"/><circle id="circle7777" cx="425.025" cy="168.561" r="2.296" fill="#373737" style="stroke-width:1.71518"/><path id="path7779" fill="#fff" d="M416.516 167.005c-.253-1.889-2.734-5.086-4.302-6.1-3.959-2.564-6.615 1.886-6.285 5.586.245 2.75 1.719 10.332 5.095 8.735 3.377-1.599 6.14-3.37 5.492-8.22z" style="stroke-width:1.71518"/><circle id="circle7781" cx="412.786" cy="168.561" r="2.296" fill="#373737" style="stroke-width:1.71518"/></g></g></svg>