<svg xmlns="http://www.w3.org/2000/svg" xmlns:xlink="http://www.w3.org/1999/xlink" xml:space="preserve" id="svg154" width="24" height="24" fill="none" version="1.1"><defs id="defs152"><linearGradient id="linearGradient7652"><stop id="stop7648" offset="0" style="stop-color:#4db6ac;stop-opacity:1"/><stop id="stop7650" offset="1" style="stop-color:#afe;stop-opacity:1"/></linearGradient><linearGradient xlink:href="#linearGradient7652" id="linearGradient7654" x1="13.33" x2="11.688" y1="31.144" y2="-18.438" gradientUnits="userSpaceOnUse"/><linearGradient xlink:href="#linearGradient7652" id="linearGradient17186" x1="13.33" x2="11.688" y1="31.144" y2="-18.438" gradientUnits="userSpaceOnUse"/><style id="current-color-scheme" type="text/css">.ColorScheme-Text{color:#31363b}.ColorScheme-Background{color:#eff0f1}.ColorScheme-Highlight{color:#3daee9}.ColorScheme-ViewText{color:#31363b}.ColorScheme-ViewBackground{color:#fcfcfc}.ColorScheme-ViewHover{color:#93cee9}.ColorScheme-ViewFocus{color:#3daee9}.ColorScheme-ButtonText{color:#31363b}.ColorScheme-ButtonBackground{color:#eff0f1}.ColorScheme-ButtonHover{color:#93cee9}.ColorScheme-ButtonFocus{color:#3daee9}</style></defs><g id="g2267" style="display:inline;fill:url(#linearGradient7654);fill-opacity:1"><path id="path6" d="M50 5C9.09 5 5 25.455 5 50c0 32.727 12.273 45 45 45 32.727 0 45-12.273 45-45 0-24.545-4.09-45-45-45Z" style="font-variation-settings:normal;display:inline;opacity:1;vector-effect:none;fill:url(#linearGradient17186);fill-opacity:1;stroke-width:4.56656;stroke-linecap:butt;stroke-linejoin:miter;stroke-miterlimit:4;stroke-dasharray:none;stroke-dashoffset:0;stroke-opacity:1;-inkscape-stroke:none;stop-color:#000;stop-opacity:1" transform="matrix(.24444 0 0 .24444 -.222 -.222)"/></g><path id="path618" fill="#d7f1f1" d="M9.547 5.054a.407.407 0 0 0-.284.698l.723.723a3.674 3.674 0 0 0-1.568 2.256h7.163a3.675 3.675 0 0 0-1.823-2.41l.57-.569a.407.407 0 0 0-.283-.699.407.407 0 0 0-.292.123l-.816.817a3.661 3.661 0 0 0-2.185.097l-.914-.914a.407.407 0 0 0-.291-.122Zm1.227 2.043a.409.409 0 0 1 .409.408.409.409 0 0 1-.409.409.409.409 0 0 1-.408-.409.409.409 0 0 1 .408-.408Zm2.452 0a.409.409 0 0 1 .408.408.409.409 0 0 1-.408.409.409.409 0 0 1-.409-.409.409.409 0 0 1 .409-.408ZM6.688 9.548a.815.815 0 0 0-.817.818v2.86c0 .453.364.817.817.817a.815.815 0 0 0 .817-.817v-2.86a.815.815 0 0 0-.817-.818zm1.634 0v5.721c0 .68.547 1.226 1.226 1.226h.409v1.635c0 .452.364.817.817.817a.815.815 0 0 0 .817-.817v-1.635h.818v1.635c0 .452.364.817.817.817a.815.815 0 0 0 .817-.817v-1.635h.409c.679 0 1.226-.547 1.226-1.226V9.55Zm8.99 0a.815.815 0 0 0-.817.818v2.86c0 .453.364.817.817.817a.815.815 0 0 0 .817-.817v-2.86a.815.815 0 0 0-.817-.818z" style="stroke-width:.408622"/></svg>