<svg xmlns="http://www.w3.org/2000/svg" xmlns:xlink="http://www.w3.org/1999/xlink" xml:space="preserve" id="svg154" width="24" height="24" fill="none" version="1.1"><defs id="defs152"><linearGradient id="linearGradient7652"><stop id="stop7648" offset="0" style="stop-color:#955caa;stop-opacity:1"/><stop id="stop7650" offset="1" style="stop-color:#eaf;stop-opacity:1"/></linearGradient><linearGradient xlink:href="#linearGradient7652" id="linearGradient7654" x1="13.33" x2="12.063" y1="31.144" y2="-2.313" gradientUnits="userSpaceOnUse"/><linearGradient xlink:href="#linearGradient7652" id="linearGradient19925" x1="13.33" x2="12.063" y1="31.144" y2="-2.313" gradientUnits="userSpaceOnUse"/><style id="current-color-scheme" type="text/css">.ColorScheme-Text{color:#31363b}.ColorScheme-Background{color:#eff0f1}.ColorScheme-Highlight{color:#3daee9}.ColorScheme-ViewText{color:#31363b}.ColorScheme-ViewBackground{color:#fcfcfc}.ColorScheme-ViewHover{color:#93cee9}.ColorScheme-ViewFocus{color:#3daee9}.ColorScheme-ButtonText{color:#31363b}.ColorScheme-ButtonBackground{color:#eff0f1}.ColorScheme-ButtonHover{color:#93cee9}.ColorScheme-ButtonFocus{color:#3daee9}</style></defs><g id="g2267" style="display:inline;fill:url(#linearGradient7654);fill-opacity:1"><path id="path6" d="M50 5C9.09 5 5 25.455 5 50c0 32.727 12.273 45 45 45 32.727 0 45-12.273 45-45 0-24.545-4.09-45-45-45Z" style="font-variation-settings:normal;display:inline;opacity:1;vector-effect:none;fill:url(#linearGradient19925);fill-opacity:1;stroke-width:4.56656;stroke-linecap:butt;stroke-linejoin:miter;stroke-miterlimit:4;stroke-dasharray:none;stroke-dashoffset:0;stroke-opacity:1;-inkscape-stroke:none;stop-color:#000;stop-opacity:1" transform="matrix(.24444 0 0 .24444 -.222 -.222)"/></g><path id="path8615" fill="#fff" d="M15.312 4.585s-1.45.995-1.55 1.56c0 0-3.07-.97-5.768 1.617h1.362s-3.569 2.23-3.63 3.631c.061-.039.655-.348.907-.454 0 0-.867 1.998-.208 3.945a8.122 8.122 0 0 0 7.408 4.718c.1 0 .196-.01.295-.013.114-.39.64-2.398-.328-3.649-.834-1.079-2.288-4.005-.359-5 0 0 1.22 1.71 2.651 1.877 0 0 .168 1.467 1.898.536.462-.248.634-1.067.168-1.732l-.367-.53s-1.215-2.92-2.08-3.783c0 0-.454-1.361 0-2.269 0 0-.515.382-.681.68 0 0 .115-.97.282-1.134z" style="stroke-width:.336327"/></svg>