<svg xmlns="http://www.w3.org/2000/svg" xmlns:xlink="http://www.w3.org/1999/xlink" xml:space="preserve" id="svg154" width="24" height="24" fill="none" version="1.1"><defs id="defs152"><linearGradient id="linearGradient20155"><stop id="stop20151" offset="0" style="stop-color:#ececec;stop-opacity:1"/><stop id="stop20153" offset="1" style="stop-color:#fff;stop-opacity:1"/></linearGradient><linearGradient xlink:href="#linearGradient20155" id="linearGradient20157" x1="12.75" x2="11.625" y1="29.375" y2="-6.688" gradientUnits="userSpaceOnUse"/><linearGradient xlink:href="#linearGradient20155" id="linearGradient20527" x1="12.75" x2="11.625" y1="29.375" y2="-6.688" gradientUnits="userSpaceOnUse"/><style id="current-color-scheme" type="text/css">.ColorScheme-Text{color:#31363b}.ColorScheme-Background{color:#eff0f1}.ColorScheme-Highlight{color:#3daee9}.ColorScheme-ViewText{color:#31363b}.ColorScheme-ViewBackground{color:#fcfcfc}.ColorScheme-ViewHover{color:#93cee9}.ColorScheme-ViewFocus{color:#3daee9}.ColorScheme-ButtonText{color:#31363b}.ColorScheme-ButtonBackground{color:#eff0f1}.ColorScheme-ButtonHover{color:#93cee9}.ColorScheme-ButtonFocus{color:#3daee9}</style></defs><g id="g2267" style="display:inline;fill:url(#linearGradient20157);fill-opacity:1"><path id="path6" d="M50 5C9.09 5 5 25.455 5 50c0 32.727 12.273 45 45 45 32.727 0 45-12.273 45-45 0-24.545-4.09-45-45-45Z" style="font-variation-settings:normal;display:inline;opacity:1;vector-effect:none;fill:url(#linearGradient20527);fill-opacity:1;stroke-width:4.56656;stroke-linecap:butt;stroke-linejoin:miter;stroke-miterlimit:4;stroke-dasharray:none;stroke-dashoffset:0;stroke-opacity:1;-inkscape-stroke:none;stop-color:#000;stop-opacity:1" transform="matrix(.24444 0 0 .24444 -.222 -.222)"/></g><g id="g9056" transform="matrix(.1908 0 0 .1908 -68.042 -29.626)"><path id="path9015" fill="#fdc409" d="M454.24 248.681a2.101 2.101 0 0 0 2.108-2.109v-35.788a2.101 2.101 0 0 0-2.109-2.109h-12.63v29.477a2.101 2.101 0 0 1-2.109 2.11h-21.057a2.101 2.101 0 0 1-2.101-2.11v-29.477h-12.638a2.101 2.101 0 0 0-2.109 2.109v35.788c0 1.17.94 2.11 2.11 2.11z" style="stroke-width:7.95827;paint-order:stroke fill markers"/><path id="path9017" fill="#b61f1d" d="M397.383 208.717v18.95l18.95-18.95z" style="stroke-width:2.1056;paint-order:stroke fill markers"/><path id="path9019" fill="#e5381f" d="M384.747 187.641a2.101 2.101 0 0 0-2.1 2.11v35.788a2.1 2.1 0 0 0 2.1 2.108h12.638V198.17a2.1 2.1 0 0 1 2.101-2.109h21.058c1.17 0 2.109.94 2.109 2.109v29.477h12.63a2.101 2.101 0 0 0 2.108-2.108V189.75a2.101 2.101 0 0 0-2.109-2.109z" style="stroke-width:7.95827;paint-order:stroke fill markers"/><path id="path9021" fill="#e76f08" d="m441.6 208.717-18.95 18.95h18.95z" style="stroke-width:2.1056;paint-order:stroke fill markers"/><rect id="rect9023" width="8.42" height="8.42" x="443.71" y="193.928" fill="#e76f08" ry="0" style="stroke-width:7.95827;paint-order:stroke fill markers"/><rect id="rect9025" width="8.42" height="8.42" x="440.724" y="-112.333" fill="#f6aa08" ry="0" style="stroke-width:7.95827;paint-order:stroke fill markers" transform="rotate(45)"/></g></svg>