<svg xmlns="http://www.w3.org/2000/svg" xmlns:xlink="http://www.w3.org/1999/xlink" xml:space="preserve" id="svg154" width="24" height="24" fill="none" version="1.1"><defs id="defs152"><linearGradient id="linearGradient20155"><stop id="stop20151" offset="0" style="stop-color:#292929;stop-opacity:1"/><stop id="stop20153" offset="1" style="stop-color:#ababab;stop-opacity:1"/></linearGradient><linearGradient xlink:href="#linearGradient20155" id="linearGradient20157" x1="12.625" x2="12.313" y1="48.813" y2="-.563" gradientUnits="userSpaceOnUse"/><linearGradient xlink:href="#linearGradient20155" id="linearGradient23365" x1="12.625" x2="12.313" y1="48.813" y2="-.563" gradientUnits="userSpaceOnUse"/><style id="current-color-scheme" type="text/css">.ColorScheme-Text{color:#31363b}.ColorScheme-Background{color:#eff0f1}.ColorScheme-Highlight{color:#3daee9}.ColorScheme-ViewText{color:#31363b}.ColorScheme-ViewBackground{color:#fcfcfc}.ColorScheme-ViewHover{color:#93cee9}.ColorScheme-ViewFocus{color:#3daee9}.ColorScheme-ButtonText{color:#31363b}.ColorScheme-ButtonBackground{color:#eff0f1}.ColorScheme-ButtonHover{color:#93cee9}.ColorScheme-ButtonFocus{color:#3daee9}</style></defs><g id="g2267" style="display:inline;fill:url(#linearGradient20157);fill-opacity:1"><path id="path6" d="M50 5C9.09 5 5 25.455 5 50c0 32.727 12.273 45 45 45 32.727 0 45-12.273 45-45 0-24.545-4.09-45-45-45Z" style="font-variation-settings:normal;display:inline;opacity:1;vector-effect:none;fill:url(#linearGradient23365);fill-opacity:1;stroke-width:4.56656;stroke-linecap:butt;stroke-linejoin:miter;stroke-miterlimit:4;stroke-dasharray:none;stroke-dashoffset:0;stroke-opacity:1;-inkscape-stroke:none;stop-color:#000;stop-opacity:1" transform="matrix(.24444 0 0 .24444 -.222 -.222)"/></g><g id="g9316" fill="#78cfff" transform="translate(-2.566 -3.101) scale(.45521)"><path id="path9314" d="M41.414 17.936c-.765.211-2.05 1.903-2.7 2.027-.749.142-2.977-1.33-3.495-.784-.515.55 1.118 2.706 1.027 3.452-.097.743-2.228 2.426-1.862 3.082.367.651 2.944-.224 3.627.091.688.317 1.633 2.807 2.375 2.665.743-.142.693-2.807 1.21-3.356.518-.546 3.214-.679 3.306-1.426.092-.743-2.471-1.504-2.843-2.16-.368-.657.317-3.274-.371-3.591-.082-.037-.17-.027-.28 0M28.56 27.303c-1.49.207-1.688 5.622-2.774 6.668-1.087 1.046-6.42 1-6.685 2.49-.267 1.486 4.742 3.36 5.402 4.73.656 1.363-1.032 6.453.294 7.164 1.33.715 4.654-3.522 6.144-3.728 1.49-.207 5.8 2.985 6.882 1.939 1.092-1.046-1.898-5.526-1.632-7.016.266-1.495 4.618-4.61 3.961-5.966-.656-1.362-5.805.115-7.13-.601-1.33-.715-2.966-5.882-4.462-5.668"/></g></svg>