<svg xmlns="http://www.w3.org/2000/svg" xmlns:xlink="http://www.w3.org/1999/xlink" xml:space="preserve" id="svg154" width="24" height="24" fill="none" version="1.1"><defs id="defs152"><linearGradient id="linearGradient20155"><stop id="stop20151" offset="0" style="stop-color:#666;stop-opacity:1"/><stop id="stop20153" offset="1" style="stop-color:#fff;stop-opacity:1"/></linearGradient><linearGradient xlink:href="#linearGradient20155" id="linearGradient20157" x1="12.625" x2="12.313" y1="48.813" y2="-.563" gradientUnits="userSpaceOnUse"/><linearGradient xlink:href="#linearGradient20155" id="linearGradient24017" x1="12.625" x2="12.313" y1="48.813" y2="-.563" gradientUnits="userSpaceOnUse"/><style id="current-color-scheme" type="text/css">.ColorScheme-Text{color:#31363b}.ColorScheme-Background{color:#eff0f1}.ColorScheme-Highlight{color:#3daee9}.ColorScheme-ViewText{color:#31363b}.ColorScheme-ViewBackground{color:#fcfcfc}.ColorScheme-ViewHover{color:#93cee9}.ColorScheme-ViewFocus{color:#3daee9}.ColorScheme-ButtonText{color:#31363b}.ColorScheme-ButtonBackground{color:#eff0f1}.ColorScheme-ButtonHover{color:#93cee9}.ColorScheme-ButtonFocus{color:#3daee9}</style></defs><g id="g2267" style="display:inline;fill:url(#linearGradient20157);fill-opacity:1"><path id="path6" d="M50 5C9.09 5 5 25.455 5 50c0 32.727 12.273 45 45 45 32.727 0 45-12.273 45-45 0-24.545-4.09-45-45-45Z" style="font-variation-settings:normal;display:inline;opacity:1;vector-effect:none;fill:url(#linearGradient24017);fill-opacity:1;stroke-width:4.56656;stroke-linecap:butt;stroke-linejoin:miter;stroke-miterlimit:4;stroke-dasharray:none;stroke-dashoffset:0;stroke-opacity:1;-inkscape-stroke:none;stop-color:#000;stop-opacity:1" transform="matrix(.24444 0 0 .24444 -.222 -.222)"/></g><g id="g9588" stroke-width=".529" transform="matrix(1.892 0 0 1.892 -4.54 -4.56)"><path id="path9582" fill="#8e8e8e" d="M7.7 5.384a.644.644 0 0 0-.457.186L4.712 8.102a.652.652 0 0 0 0 .914l2.532 2.531a.653.653 0 0 0 .914 0l2.531-2.531a.653.653 0 0 0 0-.914L8.158 5.57a.644.644 0 0 0-.457-.186Z"/><rect id="rect9584" width="3.092" height="3.092" x="9.952" y="-.94" fill="#fff" rx=".168" ry=".168" transform="rotate(45)"/><path id="path9586" fill="#e52e38" d="M9.817 5.384a.644.644 0 0 0-.457.186L6.829 8.102a.652.652 0 0 0 0 .914l2.531 2.531a.653.653 0 0 0 .914 0l2.532-2.531a.653.653 0 0 0 0-.914L10.274 5.57a.644.644 0 0 0-.457-.186Z"/></g></svg>