<svg xmlns="http://www.w3.org/2000/svg" xmlns:xlink="http://www.w3.org/1999/xlink" xml:space="preserve" id="svg5" width="24" height="24" version="1.1" viewBox="0 0 6.35 6.35"><defs id="defs2"><linearGradient id="linearGradient1129"><stop id="stop1125" offset="0" style="stop-color:#ccc;stop-opacity:1"/><stop id="stop1127" offset="1" style="stop-color:#fff;stop-opacity:1"/></linearGradient><linearGradient id="linearGradient1117"><stop id="stop1113" offset="0" style="stop-color:#ccc;stop-opacity:1"/><stop id="stop1115" offset="1" style="stop-color:#f9f9f9;stop-opacity:1"/></linearGradient><linearGradient id="linearGradient1303"><stop id="stop1299" offset="0" style="stop-color:#4c627f;stop-opacity:1"/><stop id="stop1301" offset="1" style="stop-color:#afc6e9;stop-opacity:1"/></linearGradient><linearGradient xlink:href="#linearGradient1303" id="linearGradient981" x1="241.024" x2="249.801" y1="427.25" y2="-246.396" gradientUnits="userSpaceOnUse"/><linearGradient xlink:href="#linearGradient1129" id="linearGradient1119" x1="197.827" x2="207.136" y1="456.613" y2="-132.993" gradientUnits="userSpaceOnUse"/><linearGradient xlink:href="#linearGradient1117" id="linearGradient1121" x1="197.827" x2="207.136" y1="456.613" y2="-132.993" gradientUnits="userSpaceOnUse"/><linearGradient xlink:href="#linearGradient1117" id="linearGradient1123" x1="197.827" x2="207.136" y1="456.613" y2="-132.993" gradientUnits="userSpaceOnUse"/><style id="current-color-scheme" type="text/css">.ColorScheme-Text{color:#31363b}.ColorScheme-Background{color:#eff0f1}.ColorScheme-Highlight{color:#3daee9}.ColorScheme-ViewText{color:#31363b}.ColorScheme-ViewBackground{color:#fcfcfc}.ColorScheme-ViewHover{color:#93cee9}.ColorScheme-ViewFocus{color:#3daee9}.ColorScheme-ButtonText{color:#31363b}.ColorScheme-ButtonBackground{color:#eff0f1}.ColorScheme-ButtonHover{color:#93cee9}.ColorScheme-ButtonFocus{color:#3daee9}</style></defs><g id="g246" style="fill:url(#linearGradient1119);fill-opacity:1;stroke-width:21.9899" transform="translate(.265 .265) scale(.01304)"><g id="g252" style="fill:url(#linearGradient1123);fill-opacity:1;stroke-width:21.9899"><path id="path260" d="M174.406 2.305c2.434.027 4.758-.285 6.973-.93a641.61 641.61 0 0 1 87.387.234c26.41 2.055 51.976 7.786 76.699 17.188 41.097 16.922 69.219 46.269 84.363 88.043 8.66 25.152 13.774 51.015 15.34 77.59a566.972 566.972 0 0 1-2.324 99.89c-2.782 23.352-8.824 45.805-18.129 67.368-17.258 37.382-45.223 63.167-83.899 77.355-31.343 10.59-63.57 16.164-96.687 16.723-37.246 1.937-74.121-.848-110.625-8.36C66.312 422.438 24.867 381.477 9.164 314.52a386.313 386.313 0 0 1-9.066-91.528c-.743-32.832 2.742-65.199 10.461-97.101C27.02 63.285 66.762 24.488 129.785 9.508a282.687 282.687 0 0 1 44.621-7.203Z" style="fill:url(#linearGradient1121);fill-opacity:1;fill-rule:evenodd;stroke:none;stroke-width:21.9899"/></g></g><g id="g888" style="fill:url(#linearGradient981);fill-opacity:1;stroke-width:22.9653" transform="matrix(.0376 0 0 .0376 20.285 -10.47)"><path id="path870" d="M-422.905 358.707c-6.662-3.184-8.775-5.287-15.869-15.794-7.387-10.941-11.462-18.657-12.576-23.814-.623-2.88-.268-4.15 1.713-6.13 2.204-2.204 3.387-2.434 10.053-1.952 25.978 1.877 47.675 33.77 31.967 46.986-4.196 3.531-8.918 3.749-15.288.704z" style="fill:#03c4fe;stroke-width:26.1914"/><path id="path868" d="M-444.667 413.435c-3.333-1.348-8.46-7.736-8.46-10.54 0-4.361 2.586-11.015 5.795-14.908 3.455-4.192 18.522-14.638 28.096-19.479 3.272-1.655 7.745-3.008 9.94-3.008 6.251 0 6.773 2.06 6.501 25.66-.203 17.58-.507 20.734-2.123 21.955-2.182 1.65-35.793 1.92-39.749.32z" style="fill:#fcc107;stroke-width:26.1914"/><path id="path866" d="M-505.735 359.048c-.958-1.156-1.554-4.586-1.536-8.838.035-8.197 4.554-18.853 11.256-26.545 5.797-6.653 16.388-11.768 24.366-11.768 5.535 0 6.623.418 10.082 3.878 3.161 3.16 3.878 4.75 3.878 8.599 0 5.51-3.01 11.933-7.594 16.203-1.782 1.66-7.696 5.903-13.141 9.43-16.435 10.64-23.93 13.122-27.31 9.041z" style="fill:#9329f5;stroke-width:26.1914"/><path id="path864" d="M-476.815 413.963c-8.348-2.317-12.271-4.536-18.856-10.664-6.581-6.125-12.197-16.859-12.199-23.315-.002-12.108 10.323-17.991 21.537-12.27 7.022 3.582 17.475 17.079 24.143 31.174 3.618 7.647 4.236 12.365 1.878 14.322-2.57 2.133-10.267 2.484-16.503.753z" style="fill:#f6006c;stroke-width:26.1914"/></g></svg>