<svg xmlns="http://www.w3.org/2000/svg" width="24" height="24" viewBox="0 0 6.35 6.35"><path d="M2.538.295A.335.335 0 0 0 2.63.283c.38-.025.76-.024 1.14.002a3.62 3.62 0 0 1 1 .225c.536.22.903.603 1.101 1.148.112.328.18.665.2 1.011.028.436.018.87-.03 1.304a3.166 3.166 0 0 1-.237.878c-.225.487-.59.824-1.094 1.008a4.125 4.125 0 0 1-1.261.218 5.644 5.644 0 0 1-1.443-.109C1.13 5.774.588 5.24.385 4.366a5.025 5.025 0 0 1-.12-1.194c-.009-.427.036-.85.137-1.266C.617 1.09 1.135.584 1.957.389c.191-.047.386-.079.581-.094Z" style="fill:#eddf36;fill-opacity:1;fill-rule:evenodd;stroke:none;stroke-width:.352771"/><path d="M3.2.265c-.19-.001-.38.005-.57.018a.333.333 0 0 1-.067.01A176.03 176.03 0 0 0 .291 2.549l-.007.081c.025-.02.048-.04.073-.063.054-.048.12-.106.148-.128a2.75 2.75 0 0 0 .112-.097c.095-.088.32-.287.386-.341l.278-.245.347-.306c.07-.061.216-.193.324-.294a31.1 31.1 0 0 1 .92-.817c.023-.016.045-.028.049-.025.006.007-.034.075-.177.295a802.997 802.61 0 0 0-1.142 1.77l-.573.887-.576.892-.085.132.016.077c.079.334.207.618.383.853a3.133 3.132 0 0 0 .213.236c.265.249.606.42 1.025.513.324.066.65.104.977.114l.011-.173c.09-1.597.634-3.538 1.496-5.34.03-.063.055-.098.073-.13A3.627 3.627 0 0 0 3.77.285c-.19-.013-.38-.02-.57-.02Z" style="fill:#c63166;fill-opacity:1;fill-rule:evenodd;stroke:none;stroke-width:.352771"/><path fill="#d8d342" d="M-7.589.278a2.91 2.909 0 0 0-.186.016 2.91 2.909 0 0 1 .186-.016zm-2.688 2.436v.001a2.91 2.909 0 0 0-.008.042 2.91 2.909 0 0 1 .008-.043z" style="stroke-width:.927999"/></svg>