<svg xmlns="http://www.w3.org/2000/svg" xmlns:xlink="http://www.w3.org/1999/xlink" xml:space="preserve" id="svg154" width="24" height="24" fill="none" version="1.1"><defs id="defs152"><linearGradient id="linearGradient20155"><stop id="stop20151" offset="0" style="stop-color:#0eafd7;stop-opacity:1"/><stop id="stop20153" offset="1" style="stop-color:#8fddf1;stop-opacity:1"/></linearGradient><linearGradient xlink:href="#linearGradient20155" id="linearGradient20157" x1="12.625" x2="12.313" y1="48.813" y2="-.563" gradientUnits="userSpaceOnUse"/><linearGradient xlink:href="#linearGradient20155" id="linearGradient28064" x1="12.625" x2="12.313" y1="48.813" y2="-.563" gradientUnits="userSpaceOnUse"/><style id="current-color-scheme" type="text/css">.ColorScheme-Text{color:#31363b}.ColorScheme-Background{color:#eff0f1}.ColorScheme-Highlight{color:#3daee9}.ColorScheme-ViewText{color:#31363b}.ColorScheme-ViewBackground{color:#fcfcfc}.ColorScheme-ViewHover{color:#93cee9}.ColorScheme-ViewFocus{color:#3daee9}.ColorScheme-ButtonText{color:#31363b}.ColorScheme-ButtonBackground{color:#eff0f1}.ColorScheme-ButtonHover{color:#93cee9}.ColorScheme-ButtonFocus{color:#3daee9}</style></defs><g id="g2267" style="display:inline;fill:url(#linearGradient20157);fill-opacity:1"><path id="path6" d="M50 5C9.09 5 5 25.455 5 50c0 32.727 12.273 45 45 45 32.727 0 45-12.273 45-45 0-24.545-4.09-45-45-45Z" style="font-variation-settings:normal;display:inline;opacity:1;vector-effect:none;fill:url(#linearGradient28064);fill-opacity:1;stroke-width:4.56656;stroke-linecap:butt;stroke-linejoin:miter;stroke-miterlimit:4;stroke-dasharray:none;stroke-dashoffset:0;stroke-opacity:1;-inkscape-stroke:none;stop-color:#000;stop-opacity:1" transform="matrix(.24444 0 0 .24444 -.222 -.222)"/></g><path id="path9876" fill="#fff" d="m10.067 4.335-.17 2.019A6.092 6.092 0 0 0 8.12 7.372l-1.852-.864-1.933 3.32 1.681 1.156c-.06.335-.091.675-.093 1.016 0 .342.029.683.089 1.02l-1.677 1.153 1.933 3.32 1.848-.863a6.091 6.091 0 0 0 1.78 1.012l.17 2.023h3.867l.17-2.019a6.089 6.089 0 0 0 1.777-1.018l1.852.864 1.933-3.32-1.681-1.156c.06-.335.091-.675.093-1.016a5.87 5.87 0 0 0-.088-1.02l1.676-1.153-1.933-3.32-1.848.863a6.09 6.09 0 0 0-1.78-1.012l-.17-2.023ZM12 9.445c.684 0 1.34.269 1.823.748a2.543 2.543 0 0 1 0 3.613 2.59 2.59 0 0 1-1.823.749c-.684 0-1.34-.27-1.823-.748a2.543 2.543 0 0 1 0-3.613A2.59 2.59 0 0 1 12 9.443z" style="stroke-width:1.09503"/></svg>