<svg xmlns="http://www.w3.org/2000/svg" width="24" height="24" fill="none"><rect width="22" height="22" x="1" y="1" fill="url(#a)" rx="6.6"/><path fill="#fff" d="M9.877 12.282c.446-.875.954-1.86 1.36-2.85l.16-.392c-.53-2.018-.848-3.639-.564-4.686.076-.273.393-.44.731-.44l.206.004h.038c.463-.007.681.582.706.81.04.382-.136 1.028-.136 1.028 0-.26.01-.682-.154-1.046-.191-.42-.374-.671-.538-.711-.083.055-.164.17-.191.39a5.617 5.617 0 0 0-.074.9c0 .71.14 1.647.414 2.614.052-.15.098-.294.134-.428.056-.213.415-1.62.415-1.62s-.09 1.873-.217 2.44c-.027.12-.057.238-.088.36.453 1.266 1.184 2.396 2.055 3.209.343.321.777.58 1.187.816a16.214 16.214 0 0 1 2.41-.181c.914.012 1.585.147 1.857.414.133.13.187.287.203.463.004.069-.029.23-.039.27.01-.049.01-.289-.723-.523-.578-.185-1.66-.18-2.956-.041 1.5.734 2.962 1.099 3.425.88.113-.055.25-.243.25-.243s-.08.37-.14.463a.73.73 0 0 1-.36.247c-.732.195-2.636-.256-4.296-1.205a35.102 35.102 0 0 0-5.525 1.313c-1.605 2.812-2.81 4.104-3.792 3.613l-.361-.182c-.147-.084-.17-.288-.135-.454.114-.56.816-1.403 2.226-2.245.152-.092.828-.45.828-.45s-.5.485-.618.58c-1.125.923-1.956 2.083-1.935 2.533l.004.039c.956-.137 2.39-2.082 4.233-5.689Zm.584.3c-.308.58-.609 1.117-.887 1.61 1.537-.643 3.19-1.055 4.765-1.348a7.911 7.911 0 0 1-.61-.464c-.867-.734-1.528-1.65-2.007-2.614a22.416 22.416 0 0 1-1.261 2.816Z"/><defs><radialGradient id="a" cx="0" cy="0" r="1" gradientTransform="rotate(116.565 8.441 5.908) scale(24.5967)" gradientUnits="userSpaceOnUse"><stop stop-color="#EF8A83"/><stop offset="1" stop-color="#E84F43"/></radialGradient></defs></svg>