<svg xmlns="http://www.w3.org/2000/svg" width="24" height="24" fill="none"><defs><radialGradient id="a" cx="0" cy="0" r="1" gradientTransform="matrix(0 22 -22 0 12 1)" gradientUnits="userSpaceOnUse"><stop offset="0" stop-color="#8FC8FF" style="stop-color:#f6f6f6;stop-opacity:1"/><stop offset="1" stop-color="#0056A8" style="stop-color:#cfcfcf;stop-opacity:1"/></radialGradient></defs><path d="M50 5C9.09 5 5 25.455 5 50c0 32.727 12.273 45 45 45 32.727 0 45-12.273 45-45 0-24.545-4.09-45-45-45Z" style="font-variation-settings:normal;display:inline;opacity:1;vector-effect:none;fill:#34b05c;fill-opacity:1;stroke-width:4.56656;stroke-linecap:butt;stroke-linejoin:miter;stroke-miterlimit:4;stroke-dasharray:none;stroke-dashoffset:0;stroke-opacity:1;-inkscape-stroke:none;stop-color:#000;stop-opacity:1" transform="matrix(.24444 0 0 .24444 -.222 -.222)"/><g fill="#fff" stroke-width=".5" transform="matrix(3.30657 0 0 3.30657 -14.244 -944.678)"><path d="m5.82 288.586 2.117-.846 2.117.846-2.117.847"/><ellipse cx="7.938" cy="290.44" rx="1.058" ry=".476"/><path d="M6.88 289.327v1.111h2.116v-1.11l-1.059.447m1.588-1.215h.265v.926h-.265Z"/><circle cx="9.657" cy="289.47" r=".331"/><path fill-rule="evenodd" d="m9.571 289.655-.211.73h.635l-.212-.73z"/></g></svg>