<svg xmlns="http://www.w3.org/2000/svg" width="24" height="24" fill="none"><path fill="url(#a)" fill-rule="evenodd" d="M9.596 1.114c.12 0 .234-.014.344-.046a31.637 31.637 0 0 1 4.307.011c1.301.102 2.561.384 3.78.847 2.025.834 3.412 2.28 4.158 4.34.427 1.24.679 2.514.756 3.824a27.94 27.94 0 0 1-.114 4.923 11.88 11.88 0 0 1-.894 3.32c-.85 1.843-2.229 3.114-4.135 3.813a15.624 15.624 0 0 1-4.765.825 21.413 21.413 0 0 1-5.453-.412c-3.312-.738-5.354-2.757-6.128-6.057a19.045 19.045 0 0 1-.447-4.511 18.49 18.49 0 0 1 .515-4.786c.812-3.086 2.77-4.998 5.877-5.736a13.953 13.953 0 0 1 2.2-.355Z" clip-rule="evenodd"/><path fill="#fff" d="M11.995 3A9 9 0 1 0 21 12.007l-.918-.919a8.143 8.143 0 0 0-7.177-7.176L11.995 3Z"/><path fill="#CCC" d="M7.428 17.335v-.763h6.477v.763H7.428Zm0-1.905v-.763h9.144v.763H7.428Zm0-1.905v-.763h9.144v.763H7.428Zm0-1.905v-.763h9.144v.763H7.428Z"/><defs><radialGradient id="a" cx="0" cy="0" r="1" gradientTransform="matrix(0 22 -22 0 12 1)" gradientUnits="userSpaceOnUse"><stop stop-color="#8B9DFF"/><stop offset="1" stop-color="#202959"/></radialGradient></defs></svg>