<svg xmlns="http://www.w3.org/2000/svg" width="24" height="24" fill="none"><defs><radialGradient id="a" cx="0" cy="0" r="1" gradientTransform="matrix(0 22 -22 0 12 1)" gradientUnits="userSpaceOnUse"><stop offset="0" stop-color="#8FC8FF" style="stop-color:#f6f6f6;stop-opacity:1"/><stop offset="1" stop-color="#0056A8" style="stop-color:#cfcfcf;stop-opacity:1"/></radialGradient></defs><path d="M50 5C9.09 5 5 25.455 5 50c0 32.727 12.273 45 45 45 32.727 0 45-12.273 45-45 0-24.545-4.09-45-45-45Z" style="font-variation-settings:normal;display:inline;opacity:1;vector-effect:none;fill:#48cd7c;fill-opacity:1;stroke-width:4.56656;stroke-linecap:butt;stroke-linejoin:miter;stroke-miterlimit:4;stroke-dasharray:none;stroke-dashoffset:0;stroke-opacity:1;-inkscape-stroke:none;stop-color:#000;stop-opacity:1" transform="matrix(.24444 0 0 .24444 -.222 -.222)"/><path fill="#fff" d="M19.494 280.286a1.525 1.525 0 1 0-2.305 1.668 6.361 6.361 0 0 1-1.396 3.676c-2.78-3.168-3.955-4.466-4.499-4.989.29-.185.538-.299.697-.361a1.525 1.525 0 1 0-.535-1.39c-1.148.487-5.073 2.66-4.49 9.43-4.299.123-6.559 1.262-7.587 2.004a1.53 1.53 0 1 0 1.07 1.494l4.496 4.723c-.105.06-.21.123-.31.177a1.528 1.528 0 1 0 .618 1.375c2.104-1.047 3.844-3.608 3.39-8.287a14.734 14.734 0 0 0 3.71-.451c1.67-.44 3.058-1.193 4.11-2.242 1.327-1.327 2.086-3.067 2.212-5.064a1.528 1.528 0 0 0 .819-1.763zM5.543 296.08l-4.69-4.923a8.684 8.684 0 0 1 1.136-.506l4.391 4.377a4.442 4.442 0 0 1-.837 1.052zm1.18-1.764-3.933-3.922a14.797 14.797 0 0 1 2.158-.424l2.251 2.15a7.473 7.473 0 0 1-.475 2.196zm-.794-4.448c.382-.03.786-.05 1.213-.06.051.464.078.897.084 1.3zm2.54-1.554a12.675 12.675 0 0 1 .012-2.72l2.198 2.576c-.691.099-1.43.15-2.213.144zm3.061-.3-2.884-3.377c.155-.67.37-1.244.622-1.734a340.58 340.58 0 0 1 4.053 4.544c-.547.239-1.145.43-1.79.568zm2.482-.91a179.255 179.255 0 0 0-4.353-4.867 5.815 5.815 0 0 1 1.037-1.157c.586.583 2.87 3.15 4.583 5.1-.37.35-.798.657-1.267.923z" style="stroke-width:2.98929" transform="translate(6.652 -170.27) scale(.63172)"/></svg>