<svg xmlns="http://www.w3.org/2000/svg" width="24" height="24" fill="none"><path fill="url(#a)" fill-rule="evenodd" d="M9.596 1.114c.12 0 .234-.014.344-.046a31.637 31.637 0 0 1 4.307.011c1.301.102 2.561.384 3.78.847 2.025.834 3.412 2.28 4.158 4.34.427 1.24.679 2.514.756 3.824a27.94 27.94 0 0 1-.114 4.923 11.88 11.88 0 0 1-.894 3.32c-.85 1.843-2.229 3.114-4.135 3.813a15.624 15.624 0 0 1-4.765.825 21.413 21.413 0 0 1-5.453-.412c-3.312-.738-5.354-2.757-6.128-6.057a19.045 19.045 0 0 1-.447-4.511 18.49 18.49 0 0 1 .515-4.786c.812-3.086 2.77-4.998 5.877-5.736a13.953 13.953 0 0 1 2.2-.355Z" clip-rule="evenodd"/><path fill="url(#b)" d="M12 5.034a4.967 4.967 0 0 0-3.514 8.482 4.966 4.966 0 0 0 7.027 0A4.97 4.97 0 0 0 12 5.033Zm0 2.259a2.71 2.71 0 1 1-.003 5.42A2.71 2.71 0 0 1 12 7.294Z"/><path fill="url(#c)" d="M11.095 3h1.808v3.16h-1.806L11.095 3Zm0 10.84h1.808V17h-1.806l-.002-3.16ZM19 9.097v1.806h-3.159V9.097H19Zm-10.84 0v1.806H5V9.097h3.16Zm9.428 5.214L16.31 15.59l-2.236-2.235 1.279-1.277 2.234 2.234ZM9.923 6.648 8.646 7.925 6.411 5.689l1.278-1.277 2.234 2.236Zm-2.234 8.941L6.41 14.313l2.235-2.236 1.277 1.277-2.234 2.235Zm7.665-7.664-1.279-1.277 2.236-2.236 1.277 1.277-2.234 2.236Z"/><path fill="#fff" d="M12.025 11.197h-.002c-1.535 0-2.779.983-2.779 2.194v4.415c0 1.212 1.244 2.194 2.779 2.194h.002c1.535 0 2.779-.982 2.779-2.194V13.39c0-1.211-1.244-2.194-2.78-2.194Z"/><path fill="#fff" d="M9.248 4a6.024 6.024 0 1 0 5.558.003v4.412l-2.779 2.779-2.78-2.78L9.247 4Z"/><defs><linearGradient id="b" x1="11.999" x2="11.999" y1="-4.903" y2="14.971" gradientUnits="userSpaceOnUse"><stop stop-color="#3F84AB"/><stop offset="1" stop-color="#1C658F"/></linearGradient><linearGradient id="c" x1="12" x2="12" y1="-11" y2="17" gradientUnits="userSpaceOnUse"><stop stop-color="#3F84AB"/><stop offset="1" stop-color="#1C658F"/></linearGradient><radialGradient id="a" cx="0" cy="0" r="1" gradientTransform="matrix(0 22 -22 0 12 1)" gradientUnits="userSpaceOnUse"><stop stop-color="#A1DEFF"/><stop offset="1" stop-color="#005B90"/></radialGradient></defs></svg>