<svg xmlns="http://www.w3.org/2000/svg" width="24" height="24" fill="none"><path fill="url(#a)" fill-rule="evenodd" d="M9.596 1.114c.12 0 .234-.014.344-.046a31.637 31.637 0 0 1 4.307.011c1.301.102 2.561.384 3.78.847 2.025.834 3.412 2.28 4.158 4.34.427 1.24.679 2.514.756 3.824a27.94 27.94 0 0 1-.114 4.923 11.881 11.881 0 0 1-.894 3.32c-.85 1.843-2.229 3.114-4.135 3.813a15.624 15.624 0 0 1-4.765.825 21.418 21.418 0 0 1-5.453-.412c-3.312-.738-5.354-2.757-6.128-6.057a19.045 19.045 0 0 1-.447-4.511 18.49 18.49 0 0 1 .515-4.786c.812-3.086 2.77-4.998 5.877-5.736a13.953 13.953 0 0 1 2.199-.355Z" clip-rule="evenodd"/><path fill="#2B91C9" d="m21.17 12.87-9.156 4.589-9.185-4.628 9.185-4.552 9.157 4.59Z"/><path fill="#02679A" d="m21.17 14.24-9.156 4.647-9.185-4.685v-1.371l9.185 4.628 9.157-4.59v1.371Z"/><path fill="#37474F" d="m12 21.42-9.17-4.57v-2.648l9.184 4.685 9.157-4.647v2.59L12 21.42Z"/><path fill="#2A2C2B" d="M12 14.907c2.214 0 4.01-.957 4.01-2.137 0-1.18-1.796-2.137-4.01-2.137-2.214 0-4.01.957-4.01 2.137 0 1.18 1.796 2.137 4.01 2.137Z"/><path fill="#AFBEC3" d="M12.66 7.52h-1.32v5.35h.004c.036.191.313.341.649.341s.612-.148.647-.342h.02V7.52Z"/><path fill="#B11F24" d="M6.042 13.638c.746 0 1.35-.292 1.35-.652 0-.36-.604-.652-1.35-.652-.746 0-1.35.292-1.35.652 0 .36.604.652 1.35.652Z"/><path fill="#B11F24" d="M7.393 12.26H4.691v.727h2.7v-.728Z"/><path fill="#E81E28" d="M6.042 12.926c.746 0 1.35-.292 1.35-.652 0-.36-.604-.651-1.35-.651-.746 0-1.35.291-1.35.651 0 .36.604.652 1.35.652Z"/><path fill="url(#b)" d="M12 8.594a3.007 3.007 0 1 0 0-6.015 3.007 3.007 0 0 0 0 6.015Z"/><defs><radialGradient id="a" cx="0" cy="0" r="1" gradientTransform="matrix(0 22 -22 0 12 1)" gradientUnits="userSpaceOnUse"><stop stop-color="#FEFEFE"/><stop offset="1" stop-color="#B0B0B0"/></radialGradient><linearGradient id="b" x1="8.992" x2="15.007" y1="5.587" y2="5.587" gradientUnits="userSpaceOnUse"><stop stop-color="#2E87C8"/><stop offset="1" stop-color="#13BCCD"/></linearGradient></defs></svg>