<svg xmlns="http://www.w3.org/2000/svg" width="24" height="24" fill="none"><path fill="url(#a)" fill-rule="evenodd" d="M9.596 1.114c.12 0 .234-.014.344-.046a31.638 31.638 0 0 1 4.307.011c1.301.102 2.561.384 3.78.847 2.025.834 3.412 2.28 4.158 4.34.427 1.24.679 2.514.756 3.824a27.94 27.94 0 0 1-.114 4.923 11.881 11.881 0 0 1-.894 3.32c-.85 1.843-2.229 3.114-4.135 3.813a15.624 15.624 0 0 1-4.765.825 21.418 21.418 0 0 1-5.453-.412c-3.312-.738-5.354-2.757-6.128-6.057a19.046 19.046 0 0 1-.447-4.511 18.49 18.49 0 0 1 .515-4.786c.812-3.086 2.77-4.998 5.877-5.736a13.953 13.953 0 0 1 2.199-.355Z" clip-rule="evenodd"/><path fill="#fff" d="M11.061 4v1.858a2.561 2.561 0 0 0-1.357 3.704c.229.392.557.715.953.938l-1.233 4.602H8.5v.855h.695l-.69 2.575L8.992 20l1.085-4.043h3.675L14.834 20l.489-1.468-.69-2.575h.698v-.855h-.927L13.17 10.5a2.56 2.56 0 0 0 1.307-2.229A2.56 2.56 0 0 0 12.77 5.86V4.002L11.06 4Zm.855 3.418a.854.854 0 1 1 0 1.707.854.854 0 0 1 0-1.707Zm-.453 3.371c.15.028.301.043.453.044.152 0 .303-.014.452-.04l1.154 4.31h-3.216l1.157-4.314Z"/><defs><radialGradient id="a" cx="0" cy="0" r="1" gradientTransform="matrix(0 22 -22 0 12 1)" gradientUnits="userSpaceOnUse"><stop stop-color="#ADC5FF"/><stop offset="1" stop-color="#3B4D7A"/></radialGradient></defs></svg>