<svg xmlns="http://www.w3.org/2000/svg" width="24" height="24" viewBox="0 0 6.35 6.35"><defs><linearGradient id="b" x1="12" x2="12" y1="2.958" y2="21.042" gradientTransform="matrix(.26458 0 0 .26458 -10.146 4.99)" gradientUnits="userSpaceOnUse"><stop offset="0" stop-color="#FAFAFA" style="stop-color:#fff;stop-opacity:1"/><stop offset="1" stop-color="silver" style="stop-color:#d8d8d8;stop-opacity:1"/></linearGradient><linearGradient id="c" x1="12" x2="12" y1="2.958" y2="21.042" gradientTransform="matrix(.26458 0 0 .26458 -10.146 4.99)" gradientUnits="userSpaceOnUse"><stop offset="0" stop-color="#E1E1E1" style="stop-color:#accd96;stop-opacity:1"/><stop offset="1" stop-color="#828282" style="stop-color:#5a6a4d;stop-opacity:1"/></linearGradient><radialGradient id="a" cx="0" cy="0" r="1" gradientTransform="matrix(0 3.17494 -3.17494 0 -6.97 4.99)" gradientUnits="userSpaceOnUse"><stop offset="0" stop-color="#777" style="stop-color:#bee9a6;stop-opacity:1"/><stop offset="1" stop-color="#444" style="stop-color:#88ba65;stop-opacity:1"/></radialGradient></defs><path fill="url(#a)" fill-rule="evenodd" d="M-7.664 5.023a.34.34 0 0 0 .099-.013 9.13 9.13 0 0 1 1.243.003c.376.03.74.11 1.09.244.586.241.986.659 1.201 1.253.123.358.196.726.218 1.104.031.474.02.948-.033 1.42a3.43 3.43 0 0 1-.258.959 2.04 2.04 0 0 1-1.193 1.1 4.51 4.51 0 0 1-1.376.238 6.184 6.184 0 0 1-1.573-.119c-.956-.213-1.546-.795-1.77-1.748a5.498 5.498 0 0 1-.128-1.302c-.01-.467.039-.927.149-1.381.234-.89.8-1.443 1.696-1.656.209-.05.42-.085.635-.102z" clip-rule="evenodd" style="fill:url(#a);stroke-width:.264578" transform="matrix(.91667 0 0 .91667 9.565 -4.31)"/><path fill="url(#b)" stroke="url(#c)" d="m-5.201 8.314.006.006.007.005.456.346c.027.02.034.057.018.086l-.619 1.07a.066.066 0 0 1-.083.028l-.498-.21c-.046-.02-.139-.044-.221.018a.253.253 0 0 0-.097.173l-.066.53a.066.066 0 0 1-.065.059h-1.215a.066.066 0 0 1-.066-.058l-.066-.535a.228.228 0 0 0-.115-.18.252.252 0 0 0-.22-.005l-.486.207a.066.066 0 0 1-.083-.028l-.613-1.069a.066.066 0 0 1 .017-.085l.434-.33a.19.19 0 0 0 .08-.15v-.055a.19.19 0 0 0-.08-.15l-.434-.329a.066.066 0 0 1-.017-.086l.614-1.06a.066.066 0 0 1 .082-.027l.506.207c.047.02.13.039.21-.01.072-.046.099-.121.105-.176l.067-.543a.066.066 0 0 1 .065-.058h1.214c.034 0 .062.025.066.058l.067.545c.005.041.024.134.116.178a.262.262 0 0 0 .217.003l.488-.203c.03-.013.066-.001.082.027l.613 1.06a.066.066 0 0 1-.017.085l-.433.33a.19.19 0 0 0-.08.15v.026l-.001.007a.162.162 0 0 0 .045.143zm-1.786.771a.891.891 0 0 0 .65-.27.891.891 0 0 0 .27-.65.891.891 0 0 0-.27-.65.891.891 0 0 0-.65-.27.894.894 0 0 0-.647.27.887.887 0 0 0-.274.65c0 .253.093.472.274.65.18.179.398.27.647.27z" style="fill:url(#b);stroke:url(#paint2_linear_1_42);stroke-width:.264578" transform="matrix(.91667 0 0 .91667 9.565 -4.31)"/></svg>