<svg xmlns="http://www.w3.org/2000/svg" width="24" height="24" fill="none"><defs><radialGradient id="a" cx="0" cy="0" r="1" gradientTransform="matrix(0 22 -22 0 12 1)" gradientUnits="userSpaceOnUse"><stop offset="0" stop-color="#8FC8FF" style="stop-color:#f6f6f6;stop-opacity:1"/><stop offset="1" stop-color="#0056A8" style="stop-color:#cfcfcf;stop-opacity:1"/></radialGradient></defs><path d="M50 5C9.09 5 5 25.455 5 50c0 32.727 12.273 45 45 45 32.727 0 45-12.273 45-45 0-24.545-4.09-45-45-45Z" style="font-variation-settings:normal;display:inline;opacity:1;vector-effect:none;fill:#5c86b7;fill-opacity:1;stroke-width:4.56656;stroke-linecap:butt;stroke-linejoin:miter;stroke-miterlimit:4;stroke-dasharray:none;stroke-dashoffset:0;stroke-opacity:1;-inkscape-stroke:none;stop-color:#000;stop-opacity:1" transform="matrix(.24444 0 0 .24444 -.222 -.222)"/><g fill="#fff"><path fill-rule="evenodd" d="m3.004 16.157 1.382-6.75H7.58c1.382.085 2.07.75 2.07 1.918 0 1.998-1.638 3.16-3.105 3.082H4.988L4.64 16.16H3m2.334-3 .432-2.5h1.122c.606 0 1.036.251 1.036.75-.088 1.416-.776 1.667-1.552 1.75m-1.038 0"/><path d="m9.135 14.405 1.382-6.748h1.64l-.345 1.748h1.554c1.382.085 1.9.75 1.726 1.584l-.604 3.416H12.76l.606-3.083c.085-.416.085-.667-.521-.667h-1.293l-.778 3.748H9.137m0 0"/><path fill-rule="evenodd" d="m14.35 16.157 1.382-6.75h3.197c1.382.085 2.071.75 2.071 1.918 0 1.998-1.641 3.16-3.11 3.082h-1.554l-.345 1.752m.691-3 .432-2.5h1.122c.604 0 1.036.251 1.036.75-.085 1.416-.776 1.667-1.557 1.75m-1.033 0"/></g></svg>