<svg xmlns="http://www.w3.org/2000/svg" width="24" height="24" fill="none"><defs><radialGradient id="a" cx="0" cy="0" r="1" gradientTransform="matrix(0 22 -22 0 12 1)" gradientUnits="userSpaceOnUse"><stop offset="0" stop-color="#8FC8FF" style="stop-color:#f6f6f6;stop-opacity:1"/><stop offset="1" stop-color="#0056A8" style="stop-color:#cfcfcf;stop-opacity:1"/></radialGradient></defs><path d="M50 5C9.09 5 5 25.455 5 50c0 32.727 12.273 45 45 45 32.727 0 45-12.273 45-45 0-24.545-4.09-45-45-45Z" style="font-variation-settings:normal;display:inline;opacity:1;vector-effect:none;fill:#df8029;fill-opacity:1;stroke-width:4.56656;stroke-linecap:butt;stroke-linejoin:miter;stroke-miterlimit:4;stroke-dasharray:none;stroke-dashoffset:0;stroke-opacity:1;-inkscape-stroke:none;stop-color:#000;stop-opacity:1" transform="matrix(.24444 0 0 .24444 -.222 -.222)"/><path fill="#fff" d="M30.697-11.219c-2.412.09-3.736.9-4.6 2.64-.554 1.115-1.008 2.97-1.008 4.13 0 4.24-4.286 8.113-8.984 8.113-2.306 0-3.573-.634-8.24-4.132C5.737-2.06 4.397-1.643 1.1 1.6-2.033 4.686-2.11 6.16.663 9.839c1.145 1.524 2.307 3.552 2.58 4.511.675 2.38-.43 6.734-2.202 8.671-1.45 1.586-5.054 2.823-8.198 2.823-2.988 0-4.063 1.702-4.063 6.41 0 3.665.14 4.165 1.4 5 .767.513 2.987 1.156 4.937 1.437 1.95.278 4.2.937 4.997 1.464 1.678 1.115 3.623 5.102 3.639 7.466.013 1.718-1.307 4.754-2.669 6.131-1.485 1.502-2.569 4.241-2.18 5.484.503 1.601 3.895 5.018 5.651 5.694 1.008.389 1.737.275 2.712-.416 2.855-2.026 7.742-4.228 9.392-4.228 2.485 0 6.607 2.197 7.51 4 .429.852.958 2.834 1.182 4.401.549 3.8 1.413 5.592 2.861 5.897.66.14 1.718.378 2.353.524.635.148 2.06.148 3.17 0 2.894-.39 4.436-2.547 4.922-6.885.446-3.969.81-4.606 3.73-6.473 2.967-1.898 5.29-2.268 7.572-1.21 1.891.878 2.658 1.335 5.762 3.404 2.274 1.518 3.69 1.267 6.32-1.14 3.952-3.617 4.03-5.189.49-9.322-3.372-3.933-3.41-8.77-.095-12.487 1.27-1.424 2.407-1.918 6.167-2.67 5.678-1.134 6.599-2.06 6.618-6.671.016-4.6-.719-5.351-6.048-6.186-5.073-.794-6.697-1.94-8.48-5.956-1.48-3.338-1.072-5.297 2.091-9.88 1.621-2.35 2.429-4.069 2.242-4.792-.416-1.613-5.672-6.43-7.017-6.43-.622 0-2.283.898-3.687 1.983-3.877 2.999-6.186 3.674-9.498 2.783-3.892-1.04-5.278-2.685-6.261-7.437-1.13-5.456-1.858-6.44-5.07-6.807a18.7 18.7 0 0 0-2.796-.14zM32 15.793A16.207 16.207 0 0 1 48.206 32 16.207 16.207 0 0 1 32 48.207 16.207 16.207 0 0 1 15.792 32a16.207 16.207 0 0 1 16.207-16.207Z" style="stroke-width:2.70117" transform="matrix(.1851 0 0 .1851 6.077 6.077)"/></svg>