<svg xmlns="http://www.w3.org/2000/svg" xmlns:xlink="http://www.w3.org/1999/xlink" width="24" height="24" fill="none"><defs><radialGradient id="a" cx="0" cy="0" r="1" gradientTransform="matrix(0 22 -22 0 12 1)" gradientUnits="userSpaceOnUse"><stop offset="0" stop-color="#8FC8FF" style="stop-color:#f6f6f6;stop-opacity:1"/><stop offset="1" stop-color="#0056A8" style="stop-color:#cfcfcf;stop-opacity:1"/></radialGradient><linearGradient id="b" x2="0" y1="1" y2="47" gradientTransform="translate(3.826 3.826) scale(1.1739)" gradientUnits="userSpaceOnUse"><stop offset="0" stop-color="#9584f4"/><stop offset="1" stop-color="#8471f2"/></linearGradient></defs><path d="M50 5C9.09 5 5 25.455 5 50c0 32.727 12.273 45 45 45 32.727 0 45-12.273 45-45 0-24.545-4.09-45-45-45Z" style="font-variation-settings:normal;display:inline;opacity:1;vector-effect:none;fill:#f1f1f1;fill-opacity:1;stroke-width:4.56656;stroke-linecap:butt;stroke-linejoin:miter;stroke-miterlimit:4;stroke-dasharray:none;stroke-dashoffset:0;stroke-opacity:1;-inkscape-stroke:none;stop-color:#000;stop-opacity:1" transform="matrix(.24444 0 0 .24444 -.222 -.222)"/><g stroke-width=".784" transform="matrix(.37122 0 0 .37122 2.95 3.58)"><use xlink:href="#b" width="100%" height="100%" fill="#ae1b29"/><path fill="#f55" d="M6.03 37.701 23.977 4.763l19.246 35.625s.111.275-.39.133c-.471-.134-.874-.529-1.362-.487-.411.035-.656.63-1.063.565-.582-.093-.88-1.202-1.469-1.185-.519.015-.391 1.01-1.166 1.072-.687.058-.575-1.827-1.267-1.885-.469-.039-.574 1.942-1.156 1.941-.616 0 .025-2.85-.863-2.897-.695-.037-.313 2.501-.937 2.504-.861.004-.13-4.157-1.192-4.139-.755.012.057 3.851-.926 3.839-.905-.011-.033-5.941-1.049-5.869-.838.059.103 5.304-.819 5.326-1.117.026-.005-7.306-1.114-7.315-.981-.009-.102 6.486-1 6.486-1.094 0 .003-8.38-1.037-8.435-1.132-.06.277 8.418-.957 8.409-1.191-.009.34-10.639-1.04-10.741-1.13-.083.309 9.951-.851 9.995-1.218.046.368-11.688-1.073-11.691-1.055-.003.074 11.242-1.019 11.4-1.01-.223.202-12.413-.978-12.417-1.218-.004.206 12.12-1.055 12.148-1.057.014.449-12.166-.939-12.12-1.276.038.049 12.07-1 12.05-1.132-.013.29-11.13-.979-11.06-.967.5-.037 8.599-.965 11.171-1.017-1.01.073-7.962-1.058-9.186-.928 1.336-.202 9.355-.957 9.385-.927.045-.045-6.291-1.039-6.351-.595-.036-.911 7.177-1.64 7.205-.847.085-.754-4.057-1.34-4.044-.679.087-.501 4.532-1.392 4.543-.512.122-.636-1.752-1.094-1.708-.411.039-.488 1.971-1.167 2.319-.621.084-.319-.592.164-1.647" color="#000"/></g></svg>