<svg xmlns="http://www.w3.org/2000/svg" xmlns:xlink="http://www.w3.org/1999/xlink" width="24" height="24" fill="none"><defs><radialGradient id="a" cx="0" cy="0" r="1" gradientTransform="matrix(0 22 -22 0 12 1)" gradientUnits="userSpaceOnUse"><stop offset="0" stop-color="#8FC8FF" style="stop-color:#23dae4;stop-opacity:1"/><stop offset="1" stop-color="#0056A8" style="stop-color:#169ba1;stop-opacity:1"/></radialGradient><radialGradient id="b" cx="0" cy="0" r="1" gradientTransform="matrix(0 22 -22 0 12 1)" gradientUnits="userSpaceOnUse"><stop offset="0" stop-color="#8FC8FF" style="stop-color:#f6f6f6;stop-opacity:1"/><stop offset="1" stop-color="#0056A8" style="stop-color:#cfcfcf;stop-opacity:1"/></radialGradient><radialGradient xlink:href="#a" id="c" cx=".179" cy="-1.748" r="1" fx=".179" fy="-1.748" gradientTransform="matrix(0 90.05947 -90.00681 0 -107.37 -11.19)" gradientUnits="userSpaceOnUse"/></defs><path d="M50 5C9.09 5 5 25.455 5 50c0 32.727 12.273 45 45 45 32.727 0 45-12.273 45-45 0-24.545-4.09-45-45-45Z" style="font-variation-settings:normal;display:inline;opacity:1;vector-effect:none;fill:url(#c);fill-opacity:1;stroke-width:4.56656;stroke-linecap:butt;stroke-linejoin:miter;stroke-miterlimit:4;stroke-dasharray:none;stroke-dashoffset:0;stroke-opacity:1;-inkscape-stroke:none;stop-color:#000;stop-opacity:1" transform="matrix(.24444 0 0 .24444 -.222 -.222)"/><g style="display:inline"><rect width="2" height="2" x="12" y="-3" rx="0" ry="0" style="display:inline;fill:#3947be;fill-opacity:1;stroke-width:22.6872;paint-order:markers stroke fill"/><rect width="2" height="2" x="9" y="-3" rx="0" ry="0" style="display:inline;fill:#6c7ad8;fill-opacity:1;stroke-width:22.6873;paint-order:markers stroke fill"/><rect width="2" height="2" x="6" y="-3" rx="0" ry="0" style="display:inline;fill:#3c3;fill-opacity:1;stroke-width:22.6873;paint-order:markers stroke fill"/><rect width="2" height="2" x="3" y="-3" rx="0" ry="0" style="display:inline;fill:#ffc328;fill-opacity:1;stroke-width:22.6872;paint-order:markers stroke fill"/><rect width="2" height="2" y="-3" rx="0" ry="0" style="display:inline;fill:#cc5e55;fill-opacity:1;stroke-width:22.6873;paint-order:markers stroke fill"/><rect width="2" height="2" x="-3" y="12" rx="0" ry="0" style="display:inline;fill:#0bb1cb;fill-opacity:1;stroke-width:22.6872;paint-order:markers stroke fill"/><rect width="2" height="2" x="-3" y="9" rx="0" ry="0" style="display:inline;fill:#2a92c9;fill-opacity:1;stroke-width:22.6873;paint-order:markers stroke fill"/><rect width="2" height="2" x="-3" y="6" rx="0" ry="0" style="display:inline;fill:#069;fill-opacity:1;stroke-width:22.6873;paint-order:markers stroke fill"/><rect width="2" height="2" x="-3" y="3" rx="0" ry="0" style="display:inline;fill:#002a44;fill-opacity:1;stroke-width:22.6873;paint-order:markers stroke fill"/><rect width="2" height="2" x="-3" rx="0" ry="0" style="display:inline;fill:#2c2d3d;fill-opacity:1;stroke-width:22.6873;paint-order:markers stroke fill"/><rect width="2" height="2" x="-3" y="-3" rx="0" ry="0" style="display:inline;fill:#16171c;fill-opacity:1;stroke-width:22.6872;paint-order:markers stroke fill"/></g><path fill="#fff" d="M8.408 8.5a3.337 3.337 0 0 0-2.401 1.016A3.514 3.514 0 0 0 5 11.999a3.562 3.562 0 0 0 1.007 2.482 3.345 3.345 0 0 0 2.373 1.016h.03a3.319 3.319 0 0 0 2.526-.976c.425-.417.76-.906 1.065-1.405a7.11 7.11 0 0 0 1.063 1.405c.623.607 1.472 1.025 2.528.976h.03a3.307 3.307 0 0 0 1.266-.263c.414-.174.79-.43 1.107-.753l.001-.003A3.51 3.51 0 0 0 19 11.999c0-.463-.09-.92-.261-1.345l-.004-.009a3.522 3.522 0 0 0-.742-1.13 3.343 3.343 0 0 0-2.403-1.016c-1.109 0-1.987.458-2.635 1.093a6.854 6.854 0 0 0-.956 1.217 6.862 6.862 0 0 0-.954-1.217 3.689 3.689 0 0 0-2.637-1.093zm-.012 1.001c.888 0 1.455.318 1.973.843.413.417.774.984 1.13 1.604-.408.721-.803 1.38-1.246 1.829-.49.493-.995.765-1.824.718h-.033c-.314 0-.633-.067-.924-.194a2.41 2.41 0 0 1-.769-.537l-.01-.009A2.523 2.523 0 0 1 6 11.998a2.523 2.523 0 0 1 .695-1.756l.008-.01a2.325 2.325 0 0 1 1.695-.73zm7.208 0a2.336 2.336 0 0 1 1.695.73l.008.012A2.522 2.522 0 0 1 18 12a2.54 2.54 0 0 1-.694 1.758l-.01.007a2.328 2.328 0 0 1-1.695.73h-.031c-.827.05-1.335-.223-1.824-.715-.443-.447-.838-1.108-1.247-1.83.359-.62.72-1.186 1.131-1.605.52-.524 1.086-.843 1.973-.843zm-.604 1v1h-1v1h1v1h1v-1h1v-1h-1v-1zm-8 1v1h3v-1z"/></svg>