<svg xmlns="http://www.w3.org/2000/svg" width="24" height="24" fill="none"><path fill="url(#a)" fill-rule="evenodd" d="M9.596 1.114c.12 0 .234-.014.344-.046a31.627 31.627 0 0 1 4.307.011c1.301.102 2.561.384 3.78.848 2.025.833 3.412 2.28 4.158 4.339.427 1.24.679 2.514.756 3.824a27.94 27.94 0 0 1-.114 4.923 11.88 11.88 0 0 1-.894 3.32c-.85 1.843-2.229 3.114-4.135 3.813a15.624 15.624 0 0 1-4.765.825 21.423 21.423 0 0 1-5.453-.413c-3.312-.737-5.354-2.756-6.128-6.056a19.047 19.047 0 0 1-.447-4.511 18.491 18.491 0 0 1 .515-4.786c.812-3.086 2.77-4.998 5.877-5.736a13.953 13.953 0 0 1 2.199-.355Z" clip-rule="evenodd"/><path fill="#2C8CF5" d="M18.072 12.001a6.072 6.072 0 1 0-12.143 0 6.072 6.072 0 0 0 12.143 0Z"/><path fill="#C8E4FC" d="M11.916 5.933c-.39.006-.78.05-1.162.13-.123.025-.232.094-.35.14a.621.621 0 0 1-.02.008c-.177.063-.306.144-.378.317-.03.074-.14.154-.215.148-.055-.005-.118-.082-.119-.134 0-.006.001-.012.003-.017.023-.093-.027-.123-.115-.085a6.032 6.032 0 0 0-.905.495c-.05.033-.015.093.044.092.016 0 .032 0 .047.005.067.017.244.211.096.274a1.522 1.522 0 0 1-.251.022c-.052-.009-.082-.08-.134-.089-.168-.03-.36.103-.487.217-.7.622-1.248 1.4-1.597 2.27-.015.037.025.071.06.053.108-.057.2-.148.326-.156.063-.001.154.017.214.03.056.011.101.048.15.052h.033c.193-.014.352-.185.544-.163.071.007.123.084.178.088.046.004.088-.044.133-.037.044.007.119.102.126.156.005.035-.009.068-.02.102a.12.12 0 0 0 .068.15c.127.057.247-.002.221-.139a.25.25 0 0 1-.002-.017c-.002-.034.004-.065 0-.096-.006-.053-.03-.103-.03-.148-.001-.21.17-.31.312-.393.061-.036.11-.1.162-.126.075-.038.131-.047.194-.081.078-.044.149-.083.214-.126.056-.037.1-.093.101-.16a.823.823 0 0 0-.004-.096c-.007-.076.035-.109.112-.115.067-.014.073-.11.111-.148.022-.022.084-.037.111-.06.068-.052.09-.132.148-.155.022-.008.07-.006.104-.015.043-.012.106-.064.177-.088.047-.016.154-.02.171-.037.022-.022 0-.085.008-.119.036-.167.288-.203.437-.259.044-.016.088-.039.132-.057.1-.042.063.01.083.115.025.134.205-.038.252-.058.09-.038.246-.061.364-.104.046-.017.108-.038.155-.066.1-.06-.023-.129-.111-.052-.026.023-.067.037-.089.01-.008-.012-.017-.024-.037-.026-.04-.005-.062.037-.103.03-.041-.007-.098-.071-.104-.12-.01-.08.036-.128.084-.178.05-.053.067-.14-.005-.147-.117-.011-.18-.104-.066-.13a.254.254 0 0 1 .016-.003c.064-.011.207-.005.245.028.022.019.002.066.037.097a.107.107 0 0 0 .027.017c.059.028.097-.046.038-.074-.036-.017-.01-.054.03-.064.098-.025.226.01.328-.005.07-.01.145-.06.207-.096l.057-.033c.089-.048.13.04.054.107a2.392 2.392 0 0 0-.152.144c-.1.103-.065.21.078.226.035.005.08.016.118.022.045.008.092.006.127.015.062.015.079.082.14.082.033 0 .056-.012.069-.03.06-.081.043-.213-.002-.304s-.213-.004-.222-.118c-.008-.106.077-.191.143-.274.028-.036.056-.07.05-.134-.007-.054-.052-.054-.09-.104-.02-.026-.028-.077-.051-.097-.078-.065-.235-.053-.245-.177-.002-.066-.047-.124-.112-.128a2.038 2.038 0 0 0-.094-.004h-.167ZM9.028 7.388c.035.004.077.041.119.044.04.002.072-.021.096-.015.03.008.05.032.059.06.02.067-.065.07-.133.082-.1.017-.14.214-.214.207-.055-.005-.09-.11-.07-.18.01-.038.034-.073.014-.106-.015-.023-.003-.054.021-.067a.194.194 0 0 1 .108-.025m-.333.022c.03.002.046.035.028.06-.024.034-.07.038-.117.066a.446.446 0 0 0-.2.296c-.01.04-.113.145-.163.134-.118-.024.032-.241.059-.274.03-.037.07-.069.104-.111.034-.041.056-.096.09-.119a.438.438 0 0 1 .199-.052Zm.878.267c.056.002.076.064.022.08a.325.325 0 0 1-.12.009c-.078-.008-.094-.074-.016-.082.034-.001.076-.008.114-.007Zm-.48.18c.033 0 .042.04.013.058a.913.913 0 0 1-.195.08c-.057.019-.154.04-.164-.022-.012-.077.082-.06.134-.066.065-.01.136-.047.212-.05m7.448.11a.473.473 0 0 1-.009.169c-.02.08-.092.153-.089.223.005.035.044.07.053.118.005.026-.012.081 0 .105.038.072.14.01.207.022.066.01.142.104.14.177a.468.468 0 0 1-.08.186c-.065.098-.153.102-.245.155-.078.044-.111.117-.156.193-.089.149-.09.351-.232.452a.802.802 0 0 1-.132.074c-.04.019-.096.025-.133.052-.03.021-.047.079-.089.126-.052.058-.106.082-.134.126-.02.034-.028.103-.051.148-.032.063-.1.093-.14.156-.02.03-.033.088-.053.126-.047.086-.128.147-.12.222.01.073.092.085.097.148.002.036-.023.058-.022.097.002.057.04.097.045.14.01.11-.038.155-.059.23-.01.036-.006.076-.015.104-.018.056-.095.106-.097.17 0 .047.048.084.052.149.001.045-.022.093-.014.134.015.08.16.174.222.237.084.084.194.149.23.237.03.075.03.173.089.23.043.042.115.067.17.11.052.041.109.076.164.12.09.07.226.211.37.2.075-.005.152-.067.237-.082.088-.016.201-.024.29-.015.068.007.137.048.207.045.074-.005.16-.06.244-.097.28-.122.56-.352.577-.657a6.047 6.047 0 0 0-.823-3.361c-.025-.042-.068-.073-.117-.071-.075.004-.198.004-.2-.09 0-.094.095-.196.041-.273a6.085 6.085 0 0 0-.426-.535M7.272 10.75a.767.767 0 0 0-.273.044c-.16.073-.13.29-.29.342-.055.018-.131.018-.192.03-.053.009-.117.038-.171.037a.41.41 0 0 1-.214-.104c-.044-.048-.123-.044-.133.02a6.073 6.073 0 0 0-.043.398c-.002.022.013.045.035.045.07 0 .145-.072.223-.075.181-.005.26.232.407.305.037.018.085.019.133.03.038.008.067.024.104.037.078.026.175.023.237.051.06.027.11.109.16.177a.535.535 0 0 1 .087.218c.003.016.01.027.023.038.036.032.084.027.139.057.075.04.098.145.17.177.025.011.087.01.126.022.098.03.13.144.215.119.093-.027.076-.195.17-.225a.082.082 0 0 1 .022-.004c.093-.005.1.095.134.184.02.05.069.095.082.148.023.092.011.368-.008.423-.023.067-.115.096-.171.17-.027.036-.04.087-.06.112-.036.044-.09.056-.117.096-.016.023-.03.072-.045.104-.045.094-.104.16-.067.274.016.047.089.078.09.133 0 .064-.138.122-.149.193-.008.053.043.147.06.216.012.051.11.083.14.118.052.058.094.141.141.214.095.145.168.32.26.46.048.074.116.14.148.216.016.038.014.084.03.118.052.12.286.245.407.305.056.027.12.037.17.066.08.044.235.161.274.23.036.062.058.213.075.311.023.13.001.23.008.371.004.076.028.153.03.23 0 .026-.015.046-.016.073-.001.093.023.197.015.29 0 .031.015.061.043.073a6.086 6.086 0 0 0 2.323.457c.074 0 .147-.007.22-.012a.052.052 0 0 0 .047-.04c.027-.076.096-.101.14-.157.034-.041.05-.09.082-.133.062-.08.101-.18.08-.28-.014-.064-.032-.125-.013-.194.035-.133.22-.214.348-.274.045-.021.09-.055.126-.067.09-.031.2-.014.282-.044.14-.051.154-.2.222-.327.033-.06.075-.12.082-.162.005-.039-.014-.074-.008-.12.006-.044.047-.083.06-.133.015-.064.022-.157.022-.23 0-.058-.027-.11-.03-.163-.009-.192.07-.214.141-.318.036-.052.049-.111.074-.148.119-.178.326-.264.311-.534-.005-.089-.06-.29-.126-.32-.037-.015-.123 0-.178-.021-.175-.066-.278-.283-.46-.297-.039-.005-.074.016-.117.015-.072-.004-.18-.05-.26-.059-.051-.005-.118.015-.149 0-.046-.022-.05-.107-.089-.133-.03-.02-.087-.027-.133-.045-.072-.028-.13-.06-.215-.067-.026 0-.058.013-.089.008-.046-.008-.083-.063-.126-.089-.089-.053-.088-.162-.142-.25-.032-.052-.084-.09-.103-.142-.015-.043-.008-.095-.022-.134-.019-.055-.074-.087-.134-.133-.107-.082-.202-.16-.355-.179-.068-.008-.134.02-.216.016-.086-.006-.194-.082-.259-.156-.063-.072-.093-.136-.148-.17-.052-.034-.12-.033-.156-.067-.016-.015-.012-.04-.03-.074-.009-.02-.02-.036-.03-.052-.03-.049-.043-.095-.088-.062-.022.016-.053-.002-.07-.023-.048-.058-.1-.083-.211-.063-.06.011-.094.087-.164.09-.057.004-.102-.065-.178-.075-.057-.008-.122.015-.162.007-.064-.012-.083-.065-.141-.103a.54.54 0 0 0-.148-.075c-.028.002-.052.024-.077.049-.085.081-.049-.018-.132-.1-.044-.045-.082.02-.118.045-.041.028-.08.057-.126.073-.102.038-.165.018-.245.06-.073.038-.077.102-.118.177-.034.063-.113.153-.164.156-.062.005-.121-.086-.178-.11-.17-.074-.252.064-.393.066-.13.005-.317-.21-.31-.334 0-.074.042-.189.05-.282.009-.073.06-.117.06-.185.002-.09-.12-.16-.177-.17-.097-.018-.22.016-.34.017-.1 0-.13-.065-.097-.159.01-.028.004-.065.014-.096.018-.047.067-.084.09-.134.016-.038.02-.093.036-.14.02-.054.055-.089.06-.127a.167.167 0 0 0-.053-.14m1.982 1.57c.05.004.056.108.005.116-.055.01-.083-.087-.03-.111a.047.047 0 0 1 .025-.005"/><path fill="#18AE46" d="M5.5 4.5a1 1 0 0 0-1 1v3.357a1 1 0 0 0 1 1h1.852a1 1 0 0 1 .64.232l.93.775a.57.57 0 0 0 .935-.437.57.57 0 0 1 .57-.57h.323c.493 0 .893-.4.893-.893V5.5a1 1 0 0 0-1-1H5.5Z"/><path fill="#97FFAD" d="M8.179 6.4c0-.244-.123-.365-.368-.365a.771.771 0 0 0-.326.079c-.065.03-.145 0-.165-.07a.1.1 0 0 1 .044-.116.96.96 0 0 1 .48-.12.71.71 0 0 1 .44.134c.127.097.19.246.19.45 0 .17-.055.332-.166.485-.05.07-.102.138-.155.207-.12.153-.215.325-.28.508a.09.09 0 0 1-.084.06.081.081 0 0 1-.083-.09c.022-.151.078-.308.17-.47.046-.083.092-.162.138-.24.11-.183.164-.334.164-.453m-.261 1.935c-.033.036-.082.055-.147.055-.064 0-.114-.019-.148-.056a.2.2 0 0 1-.05-.136c0-.052.016-.098.05-.134.034-.037.084-.056.148-.056.065 0 .114.019.147.056.034.036.05.082.05.136a.194.194 0 0 1-.05.135Z"/><path fill="#78449B" d="M18.5 19.5a1 1 0 0 0 1-1v-3.357a1 1 0 0 0-1-1h-1.852a1 1 0 0 1-.64-.232l-.93-.775a.57.57 0 0 0-.935.437.57.57 0 0 1-.57.57h-.323c-.493 0-.893.4-.893.893V18.5a1 1 0 0 0 1 1H18.5Z"/><path fill="#E0A8FF" d="M16.093 18.007c-.034.037-.082.057-.147.057-.065 0-.114-.02-.149-.06a.214.214 0 0 1-.05-.14c0-.052.017-.098.05-.137a.188.188 0 0 1 .149-.06c.065 0 .114.02.147.06.034.039.052.085.052.14 0 .054-.018.1-.052.14Zm-.15-.688a.06.06 0 0 1-.06-.057l-.096-1.539v-.053a.152.152 0 1 1 .304 0v.053l-.087 1.539a.06.06 0 0 1-.06.057Z"/><defs><radialGradient id="a" cx="0" cy="0" r="1" gradientTransform="matrix(0 11 -11 0 12 1)" gradientUnits="userSpaceOnUse"><stop stop-color="#FAFAFA"/><stop offset="1" stop-color="#CCC"/></radialGradient></defs></svg>