<svg xmlns="http://www.w3.org/2000/svg" xmlns:xlink="http://www.w3.org/1999/xlink" xml:space="preserve" id="svg154" width="24" height="24" fill="none" version="1.1"><defs id="defs152"><radialGradient xlink:href="#a-2" id="h" cx="24.75" cy="26" r="2.5" gradientTransform="translate(1.331 3.408) scale(.26458)" gradientUnits="userSpaceOnUse"/><radialGradient xlink:href="#b" id="g" cx="26.75" cy="25.25" r="2.5" gradientTransform="translate(1.331 3.408) scale(.26458)" gradientUnits="userSpaceOnUse"/><radialGradient xlink:href="#b" id="f" cx="22.8" cy="25" r="2.5" gradientTransform="translate(1.331 3.408) scale(.26458)" gradientUnits="userSpaceOnUse"/><radialGradient xlink:href="#a-2" id="e" cx="27" cy="22.75" r="2.5" gradientTransform="translate(1.331 3.408) scale(.26458)" gradientUnits="userSpaceOnUse"/><radialGradient xlink:href="#b" id="d" cx="24.75" cy="22" r="2.5" gradientTransform="translate(1.331 3.408) scale(.26458)" gradientUnits="userSpaceOnUse"/><radialGradient xlink:href="#a-2" id="c" cx="23" cy="22.5" r="2.5" gradientTransform="translate(1.331 3.408) scale(.26458)" gradientUnits="userSpaceOnUse"/><linearGradient id="linearGradient20155"><stop id="stop20151" offset="0" style="stop-color:#4d4d4d;stop-opacity:1"/><stop id="stop20153" offset="1" style="stop-color:#ccc;stop-opacity:1"/></linearGradient><linearGradient xlink:href="#linearGradient20155" id="linearGradient20157" x1="12.625" x2="11.938" y1="48.813" y2="-12.375" gradientUnits="userSpaceOnUse"/><linearGradient id="a-2"><stop id="stop2012" offset="0" stop-color="#bfbfef"/><stop id="stop2014" offset="1" stop-color="#a6a6ea"/></linearGradient><linearGradient id="b"><stop id="stop2017" offset="0" stop-color="#dedede"/><stop id="stop2019" offset="1" stop-color="#d3d3d3"/></linearGradient><linearGradient xlink:href="#linearGradient20155" id="linearGradient28858" x1="12.625" x2="11.938" y1="48.813" y2="-12.375" gradientUnits="userSpaceOnUse"/><style id="current-color-scheme" type="text/css">.ColorScheme-Text{color:#31363b}.ColorScheme-Background{color:#eff0f1}.ColorScheme-Highlight{color:#3daee9}.ColorScheme-ViewText{color:#31363b}.ColorScheme-ViewBackground{color:#fcfcfc}.ColorScheme-ViewHover{color:#93cee9}.ColorScheme-ViewFocus{color:#3daee9}.ColorScheme-ButtonText{color:#31363b}.ColorScheme-ButtonBackground{color:#eff0f1}.ColorScheme-ButtonHover{color:#93cee9}.ColorScheme-ButtonFocus{color:#3daee9}</style></defs><g id="g2267" style="display:inline;fill:url(#linearGradient20157);fill-opacity:1"><path id="path6" d="M50 5C9.09 5 5 25.455 5 50c0 32.727 12.273 45 45 45 32.727 0 45-12.273 45-45 0-24.545-4.09-45-45-45Z" style="font-variation-settings:normal;display:inline;opacity:1;vector-effect:none;fill:url(#linearGradient28858);fill-opacity:1;stroke-width:4.56656;stroke-linecap:butt;stroke-linejoin:miter;stroke-miterlimit:4;stroke-dasharray:none;stroke-dashoffset:0;stroke-opacity:1;-inkscape-stroke:none;stop-color:#000;stop-opacity:1" transform="matrix(.24444 0 0 .24444 -.222 -.222)"/></g><g id="g2046" stroke-width=".22" transform="matrix(1.94459 0 0 1.94459 -3.348 -6.975)"><g id="g2032" fill="#e48282" color="#000"><path id="path2026" d="M7.893 7.64c-1.067 0-2.033.175-2.74.54a2.659 2.659 0 0 0-.848.656c-.207.254-.381.556-.381.922s.174.667.381.921c.208.254.496.473.849.656.705.365 1.672.54 2.738.54 1.067 0 2.033-.175 2.74-.54.352-.183.64-.402.848-.656.207-.254.381-.555.381-.921s-.174-.668-.381-.922a2.659 2.659 0 0 0-.849-.655c-.705-.366-1.672-.54-2.739-.54m0 .344c1.053 0 2.002.197 2.684.55.341.176.562.381.743.602a.944.944 0 0 1 .225.62.944.944 0 0 1-.225.62 2.259 2.259 0 0 1-.743.603c-.683.353-1.631.55-2.684.55-1.053 0-2-.197-2.683-.55a2.256 2.256 0 0 1-.743-.602.944.944 0 0 1-.225-.62c0-.182.044-.4.225-.62.181-.222.402-.427.743-.603.683-.353 1.631-.55 2.684-.55"/><path id="path2028" d="M6.059 8.699c-.534.923-.865 1.848-.902 2.642a2.67 2.67 0 0 0 .143 1.064c.116.306.29.608.608.79.317.184.665.184.988.131.323-.053.657-.192.992-.407.67-.429 1.304-1.179 1.837-2.102.534-.923.865-1.848.902-2.642a2.67 2.67 0 0 0-.143-1.064c-.116-.306-.29-.608-.608-.79-.317-.184-.665-.184-.988-.131a2.663 2.663 0 0 0-.992.407c-.67.429-1.304 1.179-1.837 2.102m.298.172c.526-.912 1.171-1.635 1.818-2.05.324-.206.611-.295.893-.341a.944.944 0 0 1 .65.115.947.947 0 0 1 .424.505c.101.267.168.56.15.944-.035.768-.339 1.688-.865 2.6-.526.912-1.171 1.634-1.818 2.05a2.262 2.262 0 0 1-.893.341.944.944 0 0 1-.65-.115.944.944 0 0 1-.424-.505 2.26 2.26 0 0 1-.15-.944c.035-.768.339-1.688.865-2.6"/><path id="path2030" d="M9.726 8.707c.534.917.865 1.835.901 2.623.019.394-.027.75-.143 1.055-.116.304-.29.604-.607.785-.317.182-.665.183-.989.13a2.672 2.672 0 0 1-.992-.404c-.669-.426-1.303-1.17-1.837-2.087-.534-.917-.865-1.835-.901-2.624-.019-.394.027-.75.143-1.055.116-.304.29-.603.607-.785.317-.182.665-.182.989-.13.323.053.657.192.991.405.67.425 1.304 1.17 1.837 2.087Zm-.298.17C8.9 7.974 8.256 7.256 7.609 6.844a2.27 2.27 0 0 0-.893-.34.949.949 0 0 0-.65.115.94.94 0 0 0-.424.502 2.228 2.228 0 0 0-.15.937c.035.762.34 1.676.865 2.581.527.905 1.172 1.623 1.819 2.034.323.206.61.294.893.34a.949.949 0 0 0 .65-.115.94.94 0 0 0 .424-.5c.1-.265.168-.557.15-.939-.035-.762-.34-1.675-.865-2.58z"/></g><circle id="circle2034" cx="7.416" cy="9.361" r=".661" fill="url(#c)" style="fill:url(#c)"/><circle id="circle2036" cx="7.879" cy="9.228" r=".661" fill="url(#d)" style="fill:url(#d)"/><circle id="circle2038" cx="8.475" cy="9.427" r=".661" fill="url(#e)" style="fill:url(#e)"/><circle id="circle2040" cx="7.363" cy="10.022" r=".661" fill="url(#f)" style="fill:url(#f)"/><circle id="circle2042" cx="8.408" cy="10.088" r=".661" fill="url(#g)" style="fill:url(#g)"/><circle id="circle2044" cx="7.879" cy="10.287" r=".661" fill="url(#h)" style="fill:url(#h)"/></g></svg>