<svg xmlns="http://www.w3.org/2000/svg" width="24" height="24" fill="none"><path fill="url(#a)" fill-rule="evenodd" d="M9.596 1.114c.12 0 .234-.014.344-.046a31.626 31.626 0 0 1 4.307.011c1.302.102 2.561.384 3.78.848 2.025.833 3.412 2.28 4.158 4.339.427 1.24.679 2.514.756 3.824a27.94 27.94 0 0 1-.114 4.923 11.88 11.88 0 0 1-.894 3.32c-.85 1.843-2.229 3.114-4.135 3.813a15.625 15.625 0 0 1-4.765.825 21.423 21.423 0 0 1-5.453-.413c-3.312-.737-5.354-2.756-6.128-6.056a19.047 19.047 0 0 1-.447-4.511 18.49 18.49 0 0 1 .515-4.786c.812-3.086 2.77-4.998 5.877-5.736a13.954 13.954 0 0 1 2.2-.355Z" clip-rule="evenodd"/><path fill="url(#b)" d="M7.57 18.023a.738.738 0 0 1-.74-.738V6.692c0-.408.331-.738.74-.738H8.7c.408 0 .738.33.738.738v10.593c0 .407-.33.738-.738.738H7.57Zm3.876 3.37a.738.738 0 0 1-.738-.74V3.347c0-.408.33-.738.738-.738h1.108c.408 0 .738.33.738.738v17.308c0 .408-.33.738-.738.738h-1.108Zm-7.708-6.716A.738.738 0 0 1 3 13.938v-3.877c0-.407.33-.738.738-.738H4.87c.408 0 .739.33.739.739v3.877c0 .407-.33.738-.739.738H3.74ZM15.3 18.023a.739.739 0 0 1-.739-.738V6.692c0-.408.331-.738.739-.738h1.13c.409 0 .74.33.74.738v10.593c0 .407-.331.738-.74.738H15.3Zm3.83-3.346a.738.738 0 0 1-.738-.739v-3.877c0-.407.33-.738.739-.738h1.13c.408 0 .739.33.739.739v3.877c0 .407-.33.738-.738.738H19.13Z"/><path fill="url(#c)" fill-opacity=".95" d="M10.031 18.5a1.5 1.5 0 0 1-1.5 1.5h-1.85a2.555 2.555 0 0 1-1.897-.802C4.261 18.664 4 18.034 4 17.308v-5.297c0-1.11.21-2.15.629-3.117a8.105 8.105 0 0 1 1.72-2.54 8.168 8.168 0 0 1 2.554-1.721A7.743 7.743 0 0 1 12.01 4c1.097 0 2.13.211 3.103.633a8.14 8.14 0 0 1 2.546 1.722 8.104 8.104 0 0 1 1.714 2.54c.418.967.627 2.005.627 3.116v5.298c0 .725-.259 1.355-.777 1.89A2.548 2.548 0 0 1 17.32 20h-1.767a1.5 1.5 0 0 1-1.5-1.5v-4.78a1.5 1.5 0 0 1 1.5-1.5h1.557a.21.21 0 0 0 .21-.21c0-1.472-.515-2.727-1.545-3.764-1.03-1.036-2.286-1.555-3.77-1.555-1.482 0-2.74.519-3.774 1.555-1.033 1.037-1.55 2.292-1.55 3.764 0 .117.095.21.21.21h1.641a1.5 1.5 0 0 1 1.5 1.5v4.78Z" opacity=".95"/><defs><radialGradient id="a" cx="0" cy="0" r="1" gradientTransform="matrix(0 22 -22 0 12 1)" gradientUnits="userSpaceOnUse"><stop stop-color="#fff"/><stop offset="1" stop-color="#B4B4B4"/></radialGradient><radialGradient id="c" cx="0" cy="0" r="1" gradientTransform="matrix(0 16 -16 0 12 4)" gradientUnits="userSpaceOnUse"><stop stop-color="#197CF1"/><stop offset="1" stop-color="#0C289D"/></radialGradient><linearGradient id="b" x1="12" x2="12" y1="21.5" y2="2.5" gradientUnits="userSpaceOnUse"><stop stop-color="#F3E517"/><stop offset=".182" stop-color="#FF7901"/><stop offset=".339" stop-color="#FF5101"/><stop offset=".5" stop-color="#FE0501"/><stop offset=".656" stop-color="#FF5101"/><stop offset=".818" stop-color="#FF7901"/><stop offset="1" stop-color="#F3E517"/></linearGradient></defs></svg>