<svg xmlns="http://www.w3.org/2000/svg" xmlns:xlink="http://www.w3.org/1999/xlink" xml:space="preserve" id="svg154" width="24" height="24" fill="none" version="1.1"><defs id="defs152"><linearGradient id="linearGradient20155"><stop id="stop20151" offset="0" style="stop-color:#999;stop-opacity:1"/><stop id="stop20153" offset="1" style="stop-color:#f9f9f9;stop-opacity:1"/></linearGradient><linearGradient xlink:href="#linearGradient20155" id="linearGradient20157" x1="12.625" x2="11.938" y1="48.813" y2="-12.375" gradientUnits="userSpaceOnUse"/><linearGradient xlink:href="#linearGradient20155" id="linearGradient30400" x1="12.625" x2="11.938" y1="48.813" y2="-12.375" gradientUnits="userSpaceOnUse"/><linearGradient id="linearGradient3838"><stop id="stop3840" offset="0" style="stop-color:#737373;stop-opacity:1"/><stop id="stop3842" offset="1" style="stop-color:#cecece;stop-opacity:1"/></linearGradient><linearGradient id="linearGradient3808"><stop id="stop3810" offset="0" style="stop-color:#fff;stop-opacity:1"/><stop id="stop3812" offset="1" style="stop-color:#fff;stop-opacity:0"/></linearGradient><linearGradient id="linearGradient3795"><stop id="stop3797" offset="0" style="stop-color:#050505;stop-opacity:1"/><stop id="stop3799" offset="1" style="stop-color:#191919;stop-opacity:1"/></linearGradient><linearGradient id="linearGradient3789"><stop id="stop3791" offset="0" style="stop-color:#656565;stop-opacity:1"/><stop id="stop3793" offset="1" style="stop-color:#c1c1c1;stop-opacity:1"/></linearGradient><linearGradient id="ButtonShadow" x1="45.448" x2="45.448" y1="92.54" y2="7.017" gradientTransform="scale(1.00587 .99417)" gradientUnits="userSpaceOnUse"><stop id="stop3750" offset="0" style="stop-color:#000;stop-opacity:1"/><stop id="stop3752" offset="1" style="stop-color:#000;stop-opacity:.58823532"/></linearGradient><linearGradient xlink:href="#linearGradient3808" id="linearGradient3188" x1="36.357" x2="36.357" y1="6" y2="63.893" gradientTransform="matrix(.33609 0 0 .33609 -40.41 -4.323)" gradientUnits="userSpaceOnUse"/><linearGradient xlink:href="#linearGradient3808" id="linearGradient3613" x1="48" x2="48" y1="20.221" y2="138.661" gradientUnits="userSpaceOnUse"/><linearGradient xlink:href="#linearGradient3789" id="linearGradient3617" x1="48" x2="48" y1="90" y2="5.988" gradientTransform="matrix(.33609 0 0 .33609 -40.41 -4.323)" gradientUnits="userSpaceOnUse"/><linearGradient id="ButtonShadow-0" x1="45.448" x2="45.448" y1="92.54" y2="7.017" gradientTransform="matrix(1.00587 0 0 .99417 100 0)" gradientUnits="userSpaceOnUse"><stop id="stop3750-8" offset="0" style="stop-color:#000;stop-opacity:1"/><stop id="stop3752-5" offset="1" style="stop-color:#000;stop-opacity:.58823532"/></linearGradient><linearGradient xlink:href="#ButtonShadow-0" id="linearGradient3780" x1="32.251" x2="32.251" y1="6.132" y2="90.239" gradientTransform="matrix(.34409 0 0 .34009 -40.794 -28.638)" gradientUnits="userSpaceOnUse"/><linearGradient xlink:href="#ButtonShadow-0" id="linearGradient3721" x1="32.251" x2="32.251" y1="6.132" y2="90.239" gradientTransform="matrix(.33609 0 0 .33609 -40.41 -28.278)" gradientUnits="userSpaceOnUse"/><linearGradient xlink:href="#linearGradient3808" id="linearGradient3814" x1="15" x2="108.857" y1="48" y2="47.821" gradientTransform="rotate(-90 -6.234 34.664) scale(.34627)" gradientUnits="userSpaceOnUse"/><linearGradient xlink:href="#linearGradient3838" id="linearGradient3836" x1="49.714" x2="49.714" y1="69.964" y2="34.947" gradientTransform="matrix(.3373 0 0 .33094 -80.484 -4.153)" gradientUnits="userSpaceOnUse"/><linearGradient xlink:href="#linearGradient3795" id="linearGradient3863" x1="16" x2="80" y1="48" y2="48" gradientTransform="rotate(-90 -26.234 54.68) scale(.34659)" gradientUnits="userSpaceOnUse"/><linearGradient xlink:href="#linearGradient3808" id="linearGradient3878" x1="50.596" x2="50.596" y1="63.176" y2="12.88" gradientTransform="matrix(.33609 0 0 .33609 -40.41 -4.323)" gradientUnits="userSpaceOnUse"/><clipPath id="a-26"><circle id="circle1814" cx="8.467" cy="288.53" r="6.879" fill="#d86eb0" stroke-opacity=".039" stroke-width=".491" style="paint-order:stroke markers fill"/></clipPath><clipPath id="clipPath3613"><rect id="rect3615" width="84" height="84" x="6" y="6" rx="6" ry="6" style="fill:#fff;fill-opacity:1;fill-rule:nonzero;stroke:none"/></clipPath><filter id="filter3174" width="1.095" height="1.097" x="-.048" y="-.048" color-interpolation-filters="sRGB"><feGaussianBlur id="feGaussianBlur3176" stdDeviation="1.71"/></filter><filter id="filter3794" width="1.407" height="1.407" x="-.203" y="-.203" color-interpolation-filters="sRGB"><feGaussianBlur id="feGaussianBlur3796" stdDeviation="5.28"/></filter><radialGradient xlink:href="#linearGradient3808" id="radialGradient3619" cx="48" cy="90.172" r="42" fx="48" fy="90.172" gradientTransform="matrix(.38896 0 0 .33471 -42.947 -4.257)" gradientUnits="userSpaceOnUse"/><style id="current-color-scheme" type="text/css">.ColorScheme-Text{color:#31363b}.ColorScheme-Background{color:#eff0f1}.ColorScheme-Highlight{color:#3daee9}.ColorScheme-ViewText{color:#31363b}.ColorScheme-ViewBackground{color:#fcfcfc}.ColorScheme-ViewHover{color:#93cee9}.ColorScheme-ViewFocus{color:#3daee9}.ColorScheme-ButtonText{color:#31363b}.ColorScheme-ButtonBackground{color:#eff0f1}.ColorScheme-ButtonHover{color:#93cee9}.ColorScheme-ButtonFocus{color:#3daee9}</style></defs><g id="g2267" style="display:inline;fill:url(#linearGradient20157);fill-opacity:1"><path id="path6" d="M50 5C9.09 5 5 25.455 5 50c0 32.727 12.273 45 45 45 32.727 0 45-12.273 45-45 0-24.545-4.09-45-45-45Z" style="font-variation-settings:normal;display:inline;opacity:1;vector-effect:none;fill:url(#linearGradient30400);fill-opacity:1;stroke-width:4.56656;stroke-linecap:butt;stroke-linejoin:miter;stroke-miterlimit:4;stroke-dasharray:none;stroke-dashoffset:0;stroke-opacity:1;-inkscape-stroke:none;stop-color:#000;stop-opacity:1" transform="matrix(.24444 0 0 .24444 -.222 -.222)"/></g><path id="path3821" d="M12.003 6.965c-1.048.046-2.908.009-3.63.862-.443.521-.236 1.735.44 1.861.844.157 2.268-.234 3.182-.138.637.067.831.58.313.936-.55.377-1.798.268-2.428.458-2.177.654-2.957 2.035-2.424 3.913.348 1.224 1.57 2.133 2.913 2.184 2.582-.005 2.107-1.308 3.357-.63.412.475 1.24.632 1.67.298.69-.536 1.726-.827.991-1.925-.352-.526.476-1.203.291-3.82-.175-2.475-1.854-4.121-4.675-3.999Zm.175 5.606c.582 0 1.045.408 1.045.915 0 .507-.463.915-1.045.915-.581 0-1.056-.408-1.056-.915 0-.507.475-.915 1.056-.915z" style="fill:#333;fill-opacity:1;stroke:none;stroke-width:1"/><g id="g1831" fill="none" stroke="#fff" stroke-opacity=".937" stroke-width=".122" clip-path="url(#a-26)" transform="translate(-1.508 -448.585) scale(1.59539)"><path id="path1825" d="M1.485 287.74c.72.155 1.391.625 1.983 1.98.674 1.545 1.623 2.23 2.772 2.284 1.48.07 2.673-1.226 3.459-2.385 1.602-2.362 4.519-2.136 5.816-1.251" opacity=".35" style="stroke-width:.12163"/><path id="path1827" d="M1.493 288.13c.894-.35 2.083-.424 2.872.827.722 1.143 1.576 2.867 4.049 2.709 1.478-.095 2.956-.71 3.718-2.15.53-.933 1.26-1.872 2.293-2.104.382-.081.655-.07.976.057" opacity=".35" style="stroke-width:.12163"/><path id="path1829" d="M1.775 290.25c.947-.444 2.745-.953 4.197-.53 1.297.38 2.937 1.847 6.056 1.504.824-.09 1.522-.563 2.183-1.464.478-.652.75-1.02 1.306-1.167" opacity=".35" style="stroke-width:.12163"/></g></svg>