<svg xmlns="http://www.w3.org/2000/svg" xmlns:xlink="http://www.w3.org/1999/xlink" xml:space="preserve" id="svg154" width="24" height="24" fill="none" version="1.1"><defs id="defs152"><linearGradient id="linearGradient6753"><stop id="stop6749" offset="0" style="stop-color:#3f444f;stop-opacity:1"/><stop id="stop6751" offset="1" style="stop-color:#9393ac;stop-opacity:1"/></linearGradient><linearGradient xlink:href="#linearGradient6753" id="linearGradient6755" x1="10.651" x2="10.297" y1="38.847" y2="-11.756" gradientUnits="userSpaceOnUse"/><linearGradient xlink:href="#linearGradient6753" id="linearGradient8312" x1="10.651" x2="10.297" y1="38.847" y2="-11.756" gradientUnits="userSpaceOnUse"/><style id="current-color-scheme" type="text/css">.ColorScheme-Text{color:#31363b}.ColorScheme-Background{color:#eff0f1}.ColorScheme-Highlight{color:#3daee9}.ColorScheme-ViewText{color:#31363b}.ColorScheme-ViewBackground{color:#fcfcfc}.ColorScheme-ViewHover{color:#93cee9}.ColorScheme-ViewFocus{color:#3daee9}.ColorScheme-ButtonText{color:#31363b}.ColorScheme-ButtonBackground{color:#eff0f1}.ColorScheme-ButtonHover{color:#93cee9}.ColorScheme-ButtonFocus{color:#3daee9}</style></defs><g id="g2267" style="display:inline;fill:url(#linearGradient6755);fill-opacity:1"><path id="path6" d="M50 5C9.09 5 5 25.455 5 50c0 32.727 12.273 45 45 45 32.727 0 45-12.273 45-45 0-24.545-4.09-45-45-45Z" style="font-variation-settings:normal;display:inline;opacity:1;vector-effect:none;fill:url(#linearGradient8312);fill-opacity:1;stroke-width:4.56656;stroke-linecap:butt;stroke-linejoin:miter;stroke-miterlimit:4;stroke-dasharray:none;stroke-dashoffset:0;stroke-opacity:1;-inkscape-stroke:none;stop-color:#000;stop-opacity:1" transform="matrix(.24444 0 0 .24444 -.222 -.222)"/></g><path id="path991" fill="#54a1ea" d="M12 5.331a5.557 5.557 0 0 0-5.557 5.557v2.925a2.501 2.501 0 0 0-1.667 2.355 2.501 2.501 0 0 0 3.913 2.063.546.546 0 0 0 .532.437.555.555 0 0 0 .556-.555v-3.89a.554.554 0 0 0-.556-.556.547.547 0 0 0-.533.44 2.501 2.501 0 0 0-.578-.294v-2.925a3.89 3.89 0 0 1 7.78 0v2.925a2.5 2.5 0 0 0-1.667 2.355 2.5 2.5 0 1 0 5.001 0 2.5 2.5 0 0 0-1.667-2.355v-2.925A5.557 5.557 0 0 0 12 5.331zm-4.724 9.447a1.39 1.39 0 1 1 0 2.78 1.39 1.39 0 0 1 0-2.78zm9.447 0a1.39 1.39 0 1 1 0 2.78 1.39 1.39 0 0 1 0-2.78z" style="stroke-width:.426062;paint-order:normal"/></svg>