<svg xmlns="http://www.w3.org/2000/svg" xmlns:xlink="http://www.w3.org/1999/xlink" xml:space="preserve" id="svg154" width="24" height="24" fill="none" version="1.1"><defs id="defs152"><linearGradient id="linearGradient6753"><stop id="stop6749" offset="0" style="stop-color:#3f444f;stop-opacity:1"/><stop id="stop6751" offset="1" style="stop-color:#9393ac;stop-opacity:1"/></linearGradient><linearGradient xlink:href="#linearGradient6753" id="linearGradient6755" x1="10.651" x2="10.297" y1="38.847" y2="-11.756" gradientUnits="userSpaceOnUse"/><linearGradient xlink:href="#linearGradient6753" id="linearGradient8611" x1="10.651" x2="10.297" y1="38.847" y2="-11.756" gradientUnits="userSpaceOnUse"/><style id="current-color-scheme" type="text/css">.ColorScheme-Text{color:#31363b}.ColorScheme-Background{color:#eff0f1}.ColorScheme-Highlight{color:#3daee9}.ColorScheme-ViewText{color:#31363b}.ColorScheme-ViewBackground{color:#fcfcfc}.ColorScheme-ViewHover{color:#93cee9}.ColorScheme-ViewFocus{color:#3daee9}.ColorScheme-ButtonText{color:#31363b}.ColorScheme-ButtonBackground{color:#eff0f1}.ColorScheme-ButtonHover{color:#93cee9}.ColorScheme-ButtonFocus{color:#3daee9}</style></defs><g id="g2267" style="display:inline;fill:url(#linearGradient6755);fill-opacity:1" transform="translate(0 .044)"><path id="path6" d="M50 5C9.09 5 5 25.455 5 50c0 32.727 12.273 45 45 45 32.727 0 45-12.273 45-45 0-24.545-4.09-45-45-45Z" style="font-variation-settings:normal;display:inline;opacity:1;vector-effect:none;fill:url(#linearGradient8611);fill-opacity:1;stroke-width:4.56656;stroke-linecap:butt;stroke-linejoin:miter;stroke-miterlimit:4;stroke-dasharray:none;stroke-dashoffset:0;stroke-opacity:1;-inkscape-stroke:none;stop-color:#000;stop-opacity:1" transform="matrix(.24444 0 0 .24444 -.222 -.222)"/></g><g id="g3811" transform="matrix(1.0057 0 0 1.0057 3.486 3.485)"><path id="path3793" fill="#265791" d="M6.735 5.963 9.044 5.6 7.889 3.88 3.85 6.123m.576 4.637h2.309l3.463.573-2.886.573-2.886-.573m0-.573"/><path id="path3795" fill="#82b6ea" d="M3.848 5.968h2.887v4.792H3.848m0-4.792"/><path id="path3797" fill="#5182bb" d="m10.776 1.587-8.66 2.294v9.172l8.66 2.293M7.889 5.497v5.825l-3.463-.565-.018-4.803m3.48-.457"/><path id="path3799" fill="#82b6ea" d="m10.776 1.587 4.04 1.72v10.319l-4.04 1.72m0-13.759"/></g></svg>