<svg xmlns="http://www.w3.org/2000/svg" xmlns:xlink="http://www.w3.org/1999/xlink" xml:space="preserve" id="svg154" width="24" height="24" fill="none" version="1.1"><defs id="defs152"><linearGradient id="linearGradient9550"><stop id="stop9546" offset="0" style="stop-color:#f59;stop-opacity:1"/><stop id="stop9548" offset="1" style="stop-color:#f9a5c2;stop-opacity:1"/></linearGradient><linearGradient xlink:href="#linearGradient9550" id="linearGradient9552" x1="12.595" x2="11.358" y1="47.155" y2="-9.148" gradientUnits="userSpaceOnUse"/><linearGradient xlink:href="#linearGradient9550" id="linearGradient11710" x1="12.595" x2="11.358" y1="47.155" y2="-9.148" gradientUnits="userSpaceOnUse"/><style id="current-color-scheme" type="text/css">.ColorScheme-Text{color:#31363b}.ColorScheme-Background{color:#eff0f1}.ColorScheme-Highlight{color:#3daee9}.ColorScheme-ViewText{color:#31363b}.ColorScheme-ViewBackground{color:#fcfcfc}.ColorScheme-ViewHover{color:#93cee9}.ColorScheme-ViewFocus{color:#3daee9}.ColorScheme-ButtonText{color:#31363b}.ColorScheme-ButtonBackground{color:#eff0f1}.ColorScheme-ButtonHover{color:#93cee9}.ColorScheme-ButtonFocus{color:#3daee9}</style></defs><g id="g2267" style="display:inline;fill:url(#linearGradient9552);fill-opacity:1" transform="translate(0 .044)"><path id="path6" d="M50 5C9.09 5 5 25.455 5 50c0 32.727 12.273 45 45 45 32.727 0 45-12.273 45-45 0-24.545-4.09-45-45-45Z" style="font-variation-settings:normal;display:inline;opacity:1;vector-effect:none;fill:url(#linearGradient11710);fill-opacity:1;stroke-width:4.56656;stroke-linecap:butt;stroke-linejoin:miter;stroke-miterlimit:4;stroke-dasharray:none;stroke-dashoffset:0;stroke-opacity:1;-inkscape-stroke:none;stop-color:#000;stop-opacity:1" transform="matrix(.24444 0 0 .24444 -.222 -.222)"/></g><path id="path311" fill="#fce4ec" d="M9.149 6.298v1.425h1.425V6.298Zm4.277 0v1.425h1.425V6.298ZM7.01 7.01v1.426h1.426V7.01Zm8.554 0v1.426h1.426V7.01Zm-10.692.713V9.15h1.426V7.723Zm6.415 0V9.15h1.426V7.723Zm6.415 0V9.15h1.426V7.723Zm-8.553.713v1.426h1.425V8.436Zm4.277 0v1.426h1.425V8.436Zm-6.416.713v1.425h1.426V9.15Zm8.554 0v1.425h1.426V9.15Zm-10.692.713v1.425h1.426V9.862Zm6.415 0v1.425h1.426V9.862Zm6.415 0v1.425h1.426V9.862Zm-8.553.712V12h1.425v-1.426zm4.277 0V12h1.425v-1.426zm-6.416.713v1.426h1.426v-1.426zm8.554 0v1.426h1.426v-1.426ZM4.872 12v1.426h1.426V12Zm6.415 0v1.426h1.426V12Zm6.415 0v1.426h1.426V12Zm-8.553.713v1.425h1.425v-1.425zm4.277 0v1.425h1.425v-1.425zm-6.416.713v1.425h1.426v-1.425zm8.554 0v1.425h1.426v-1.425zm-4.277.712v1.426h1.426v-1.426Zm-2.138.713v1.426h1.425V14.85zm4.277 0v1.426h1.425V14.85zm-2.139 1.426v1.425h1.426v-1.425z" style="stroke-width:.356402"/></svg>