<svg xmlns="http://www.w3.org/2000/svg" width="24" height="24"><defs><filter id="a" width="1.001" height="1" x="0" y="0" color-interpolation-filters="sRGB"><feColorMatrix result="result7" values="1 0 0 0 0 0 1 0 0 0 0 0 1 0 0 0 0 0 1 0"/><feGaussianBlur result="result6" stdDeviation="0.001 0"/><feComposite in="result6" in2="result7" operator="atop" result="result91"/><feComposite in2="result91" operator="in"/></filter></defs><path d="M9.593 1.115c.12 0 .235-.016.344-.047a31.814 31.814 0 0 1 4.308.01 13.68 13.68 0 0 1 3.781.849c2.026.833 3.41 2.281 4.162 4.338.42 1.24.676 2.516.754 3.823a28.303 28.303 0 0 1-.114 4.928 11.968 11.968 0 0 1-.896 3.317c-.85 1.844-2.23 3.115-4.135 3.812-1.543.522-3.13.798-4.767.824a21.33 21.33 0 0 1-5.452-.412c-3.308-.734-5.354-2.754-6.125-6.057a18.991 18.991 0 0 1-.448-4.51 18.502 18.502 0 0 1 .516-4.787c.812-3.083 2.77-4.995 5.875-5.734a13.692 13.692 0 0 1 2.197-.354Z" style="fill:#f2f2f2;fill-opacity:1;fill-rule:evenodd;stroke:none;stroke-width:1.33333"/><g style="stroke-width:.996346" transform="matrix(1.00367 0 0 1.00367 -.024 -.582)"><path fill="#1793e6" d="M12.008 7.554a3.229 3.245 0 1 0 0 6.49 3.229 3.245 0 0 0 0-6.49zm.013 1.425a1.823 1.832 0 0 1 1.823 1.832 1.823 1.832 0 0 1-1.823 1.832A1.823 1.832 0 0 1 10.2 10.81a1.823 1.832 0 0 1 1.822-1.832z" style="stroke-width:3.76762"/><path fill="#1793e6" d="M15.66 11.036a3.19 3.19 0 0 0-2.178.87l.923 1.073a1.927 1.937 0 0 1 .245-.204 1.621 1.63 0 0 1 .806-.29c.1-.009.204-.004.317 0a1.7 1.71 0 0 1 1.5.986 1.877 1.887 0 0 1 .193.915v.004a.709.712 0 0 0 1.415 0v-.116a2.022 2.032 0 0 0-.009-.166l-.002-.023-.002-.056h-.003a3.217 3.234 0 0 0-3.208-2.993m-7.367-.01a3.229 3.245 0 1 0 0 6.491 3.229 3.245 0 0 0 0-6.49zm.014 1.425a1.823 1.832 0 0 1 1.82 1.832 1.823 1.832 0 0 1-1.82 1.833 1.823 1.832 0 0 1-1.823-1.833 1.823 1.832 0 0 1 1.823-1.832z" style="stroke-width:3.76762"/><path fill="#f44" d="M6.973 7.471c-.365 0-.744.04-1.094.094a2.842 2.842 0 0 1 1.719 2.594c0 .16-.036.316-.063.469a3.839 3.839 0 0 1 2.938 2.063c.791 1.577.522 3.357-.719 4.594.962-.959 2.934-2.702 4.156-3.844-.512-3.375-3.409-5.969-6.938-5.969Z" filter="url(#a)" style="stroke-width:1.65981" transform="matrix(.46128 0 0 .46367 5.062 7.554)"/><path fill="#1793e6" d="m9.692 16.785-1.477.059 5.196-4.848.929 1.047-4.03 3.762z" style="stroke-width:3.76762"/><ellipse cx="18.207" cy="16.275" fill="#1793e6" rx=".693" ry=".696" style="stroke-width:3.76762"/></g><path d="M8.137 21.422v1.242a21.35 21.35 0 0 0 3.843.332v-1.574z" style="fill:#f44;fill-opacity:1;fill-rule:evenodd;stroke:none;stroke-width:1.33333"/><path d="M11.98 21.422v1.574c.35-.001.699-.008 1.05-.027.946-.016 1.879-.117 2.794-.3v-1.247z" style="fill:#1793e6;fill-opacity:1;stroke-width:.999999;paint-order:stroke fill markers"/></svg>