<svg xmlns="http://www.w3.org/2000/svg" xmlns:xlink="http://www.w3.org/1999/xlink" xml:space="preserve" id="svg154" width="24" height="24" fill="none" version="1.1"><defs id="defs152"><linearGradient id="linearGradient13041"><stop id="stop13037" offset="0" style="stop-color:#2d3542;stop-opacity:1"/><stop id="stop13039" offset="1" style="stop-color:#8a9dba;stop-opacity:1"/></linearGradient><linearGradient xlink:href="#linearGradient13041" id="linearGradient13043" x1="10.783" x2="10.872" y1="68.015" y2="-15.07" gradientUnits="userSpaceOnUse"/><linearGradient xlink:href="#linearGradient13041" id="linearGradient14908" x1="10.783" x2="10.872" y1="68.015" y2="-15.07" gradientUnits="userSpaceOnUse"/><style id="current-color-scheme" type="text/css">.ColorScheme-Text{color:#31363b}.ColorScheme-Background{color:#eff0f1}.ColorScheme-Highlight{color:#3daee9}.ColorScheme-ViewText{color:#31363b}.ColorScheme-ViewBackground{color:#fcfcfc}.ColorScheme-ViewHover{color:#93cee9}.ColorScheme-ViewFocus{color:#3daee9}.ColorScheme-ButtonText{color:#31363b}.ColorScheme-ButtonBackground{color:#eff0f1}.ColorScheme-ButtonHover{color:#93cee9}.ColorScheme-ButtonFocus{color:#3daee9}</style></defs><g id="g2267" style="display:inline;fill:url(#linearGradient13043);fill-opacity:1" transform="translate(0 .044)"><path id="path6" d="M50 5C9.09 5 5 25.455 5 50c0 32.727 12.273 45 45 45 32.727 0 45-12.273 45-45 0-24.545-4.09-45-45-45Z" style="font-variation-settings:normal;display:inline;opacity:1;vector-effect:none;fill:url(#linearGradient14908);fill-opacity:1;stroke-width:4.56656;stroke-linecap:butt;stroke-linejoin:miter;stroke-miterlimit:4;stroke-dasharray:none;stroke-dashoffset:0;stroke-opacity:1;-inkscape-stroke:none;stop-color:#000;stop-opacity:1" transform="matrix(.24444 0 0 .24444 -.222 -.222)"/></g><g id="g1308" transform="matrix(.20926 0 0 .20926 -50.412 10.157)"><path id="path1211" fill="#fff" d="M325.411 18.812c0 12.627-11.518 22.866-25.723 22.866-14.214 0-25.723-10.239-25.723-22.866 0-12.627 11.519-22.865 25.723-22.865 14.203 0 25.723 10.238 25.723 22.865" style="stroke-width:1.82602"/><path id="path1213" fill="#3eacff" fill-rule="evenodd" d="M294.028-24.06c-16.424.638-13.665 8.161-22.923 14.169 9.224.28 11.141-5.905 17.178-5.672v42.516c9.143.883 30.882 1.853 28.347-13.418-1.967-11.714-22.619-3.584-22.619-3.584m9.892 2.244c2.523 0 4.667.568 5.058 3.18 1.185 7.895-14.937 5.917-14.937 5.917V15.62s5.692-3.46 9.879-3.425" style="stroke-width:1.82602"/></g></svg>