<svg xmlns="http://www.w3.org/2000/svg" xmlns:xlink="http://www.w3.org/1999/xlink" xml:space="preserve" id="svg154" width="24" height="24" fill="none" version="1.1"><defs id="defs152"><linearGradient id="linearGradient15311"><stop id="stop15307" offset="0" style="stop-color:#e6e6e6;stop-opacity:1"/><stop id="stop15309" offset="1" style="stop-color:#f9f9f9;stop-opacity:1"/></linearGradient><linearGradient xlink:href="#linearGradient15311" id="linearGradient15313" x1="9.125" x2="10.688" y1="40.143" y2="-5.982" gradientUnits="userSpaceOnUse"/><linearGradient xlink:href="#linearGradient15311" id="linearGradient16931" x1="9.125" x2="10.688" y1="40.143" y2="-5.982" gradientUnits="userSpaceOnUse"/><filter id="a" width="1.195" height="1.242" x="-.098" y="-.121" color-interpolation-filters="sRGB"><feGaussianBlur id="feGaussianBlur1479" stdDeviation=".416"/></filter><style id="current-color-scheme" type="text/css">.ColorScheme-Text{color:#31363b}.ColorScheme-Background{color:#eff0f1}.ColorScheme-Highlight{color:#3daee9}.ColorScheme-ViewText{color:#31363b}.ColorScheme-ViewBackground{color:#fcfcfc}.ColorScheme-ViewHover{color:#93cee9}.ColorScheme-ViewFocus{color:#3daee9}.ColorScheme-ButtonText{color:#31363b}.ColorScheme-ButtonBackground{color:#eff0f1}.ColorScheme-ButtonHover{color:#93cee9}.ColorScheme-ButtonFocus{color:#3daee9}</style></defs><g id="g2267" style="display:inline;fill:url(#linearGradient15313);fill-opacity:1" transform="translate(0 .044)"><path id="path6" d="M50 5C9.09 5 5 25.455 5 50c0 32.727 12.273 45 45 45 32.727 0 45-12.273 45-45 0-24.545-4.09-45-45-45Z" style="font-variation-settings:normal;display:inline;opacity:1;vector-effect:none;fill:url(#linearGradient16931);fill-opacity:1;stroke-width:4.56656;stroke-linecap:butt;stroke-linejoin:miter;stroke-miterlimit:4;stroke-dasharray:none;stroke-dashoffset:0;stroke-opacity:1;-inkscape-stroke:none;stop-color:#000;stop-opacity:1" transform="matrix(.24444 0 0 .24444 -.222 -.222)"/></g><g id="g1729" transform="matrix(.16246 0 0 .16246 -46.724 5.653)"><path id="path1486" fill="#97c33d" d="M348.304 24.159c-.844 15.129-14.496 24.724-22.831 24.724a6.545 6.545 0 1 0 0 13.09c17.001 0 35.116-15.286 35.924-37.73a13.09 13.09 0 0 1-6.47 1.733 13.09 13.09 0 0 1-6.62-1.815z" style="stroke-width:2.10389"/><path id="path1488" d="M23.744 32.827c-1.338 1.826-3.06 3.21-4.767 4.065 1.532 1.772 3.353 3.216 5.414 4.199a18.64 18.64 0 0 0 4.819-4.943c-2.03-.423-3.927-1.593-5.466-3.321z" filter="url(#a)" opacity=".1" transform="translate(293.228 -30.829) scale(2.10389)"/><path id="path1490" fill="#3f96b9" d="M332.232 16.721a9.819 9.819 0 0 1-6.761 2.71 9.819 9.819 0 0 1-6.278-2.268c1.744 20.763 16.094 38.268 35.732 38.268a6.546 6.546 0 1 0 0-13.093c-11.062 0-21.174-10.824-22.693-25.619z" style="stroke-width:2.10389"/><path id="path1492" fill="#196260" d="M325.47 3.067a6.545 6.545 0 0 0-6.545 6.545 6.545 6.545 0 0 0 6.546 6.545 6.545 6.545 0 0 0 6.545-6.543 6.545 6.545 0 0 0-6.545-6.547zm0 3.274a3.274 3.274 0 0 1 3.274 3.271 3.274 3.274 0 0 1-3.273 3.274 3.274 3.274 0 0 1-3.274-3.274 3.274 3.274 0 0 1 3.274-3.271z" style="stroke-width:2.10389;paint-order:normal"/><path id="path1494" fill="#3f96b9" d="M354.925 3.067a9.819 9.819 0 0 0-9.819 9.819 9.819 9.819 0 0 0 9.82 9.817 9.819 9.819 0 0 0 9.818-9.817 9.819 9.819 0 0 0-9.819-9.819zm0 3.274a6.545 6.545 0 0 1 6.545 6.543 6.545 6.545 0 0 1-6.545 6.547 6.545 6.545 0 0 1-6.545-6.545 6.545 6.545 0 0 1 6.545-6.545zm0 3.271a3.274 3.274 0 0 0-3.274 3.274 3.274 3.274 0 0 0 3.274 3.271 3.274 3.274 0 0 0 3.274-3.271 3.274 3.274 0 0 0-3.274-3.274z" style="stroke-width:2.10389;paint-order:normal"/><path id="path1496" fill="#5d7dbd" d="M366.305 6.339c1.117 1.963 1.708 4.285 1.713 6.545a13.09 13.09 0 0 1-1.848 6.673c10.44 1.416 21.483 12.962 21.483 19.51a6.545 6.545 0 1 0 13.09 0c0-16.364-19.635-32.728-34.438-32.728z" style="stroke-width:2.10389"/><path id="path1498" fill="#196260" d="M397.47 16.157c-15.628 0-30.19 16.365-32.217 30.612a16.364 16.364 0 0 1 6.034-1.157 16.368 16.368 0 0 1 7.223 1.7c.625-8.245 12.413-18.064 18.958-18.064a6.545 6.545 0 1 0 0-13.09z" style="stroke-width:2.10389"/><path id="path1500" fill="#5d7dbd" d="M371.29 48.883a13.09 13.09 0 0 0-13.091 13.09 13.09 13.09 0 0 0 13.09 13.091 13.09 13.09 0 0 0 13.09-13.09 13.09 13.09 0 0 0-13.09-13.09Zm0 3.274a9.819 9.819 0 0 1 9.818 9.817 9.819 9.819 0 0 1-9.819 9.819 9.819 9.819 0 0 1-9.819-9.82 9.819 9.819 0 0 1 9.82-9.816zm0 3.272a6.545 6.545 0 0 0-6.546 6.545 6.545 6.545 0 0 0 6.545 6.545 6.545 6.545 0 0 0 6.545-6.543 6.545 6.545 0 0 0-6.545-6.547zm0 3.273a3.274 3.274 0 0 1 3.273 3.272 3.274 3.274 0 0 1-3.274 3.274 3.274 3.274 0 0 1-3.274-3.274 3.274 3.274 0 0 1 3.274-3.272z" style="stroke-width:2.10389"/></g></svg>