<svg xmlns="http://www.w3.org/2000/svg" xmlns:xlink="http://www.w3.org/1999/xlink" xml:space="preserve" id="svg154" width="24" height="24" fill="none" version="1.1"><defs id="defs152"><linearGradient id="linearGradient15311"><stop id="stop15307" offset="0" style="stop-color:#fd5;stop-opacity:1"/><stop id="stop15309" offset="1" style="stop-color:#fdcf71;stop-opacity:1"/></linearGradient><linearGradient xlink:href="#linearGradient15311" id="linearGradient15313" x1="9.625" x2="10.688" y1="43.581" y2="-5.982" gradientUnits="userSpaceOnUse"/><linearGradient xlink:href="#linearGradient15311" id="linearGradient18738" x1="9.625" x2="10.688" y1="43.581" y2="-5.982" gradientUnits="userSpaceOnUse"/><style id="current-color-scheme" type="text/css"></style></defs><g id="g2267" style="display:inline;fill:url(#linearGradient15313);fill-opacity:1" transform="translate(0 .044)"><path id="path6" d="M50 5C9.09 5 5 25.455 5 50c0 32.727 12.273 45 45 45 32.727 0 45-12.273 45-45 0-24.545-4.09-45-45-45Z" style="font-variation-settings:normal;display:inline;opacity:1;vector-effect:none;fill:url(#linearGradient18738);fill-opacity:1;stroke-width:4.56656;stroke-linecap:butt;stroke-linejoin:miter;stroke-miterlimit:4;stroke-dasharray:none;stroke-dashoffset:0;stroke-opacity:1;-inkscape-stroke:none;stop-color:#000;stop-opacity:1" transform="matrix(.24444 0 0 .24444 -.222 -.222)"/></g><path id="path2368" fill="none" stroke="#814b13" stroke-linecap="round" stroke-linejoin="round" stroke-width="1.324" d="M5.513 12.66c1.014-2.874 2.955-6.213 6.873-6.213s5.856 5.153 6.1 8.647c-1.028 1.787-3.494 2.458-6.1 2.458a7.327 7.327 0 0 1-5.595-2.458s1.227-3.312 2.372-3.32c.843 0 1.554 1.554 2.225 1.554.672 0 2.07-2.983 2.07-2.983" class="icon"/></svg>