<svg xmlns="http://www.w3.org/2000/svg" xmlns:xlink="http://www.w3.org/1999/xlink" xml:space="preserve" id="svg154" width="24" height="24" fill="none" version="1.1"><defs id="defs152"><linearGradient id="linearGradient19464"><stop id="stop19460" offset="0" style="stop-color:#2caff8;stop-opacity:1"/><stop id="stop19462" offset="1" style="stop-color:#afdde9;stop-opacity:1"/></linearGradient><linearGradient xlink:href="#linearGradient19464" id="linearGradient19466" x1="11.938" x2="11.875" y1="38.643" y2="-5.169" gradientUnits="userSpaceOnUse"/><linearGradient xlink:href="#linearGradient19464" id="linearGradient20118" x1="11.938" x2="11.875" y1="38.643" y2="-5.169" gradientUnits="userSpaceOnUse"/><style id="current-color-scheme" type="text/css">.ColorScheme-Text{color:#31363b}.ColorScheme-Background{color:#eff0f1}.ColorScheme-Highlight{color:#3daee9}.ColorScheme-ViewText{color:#31363b}.ColorScheme-ViewBackground{color:#fcfcfc}.ColorScheme-ViewHover{color:#93cee9}.ColorScheme-ViewFocus{color:#3daee9}.ColorScheme-ButtonText{color:#31363b}.ColorScheme-ButtonBackground{color:#eff0f1}.ColorScheme-ButtonHover{color:#93cee9}.ColorScheme-ButtonFocus{color:#3daee9}</style></defs><g id="g2267" style="display:inline;fill:url(#linearGradient19466);fill-opacity:1" transform="translate(0 .044)"><path id="path6" d="M50 5C9.09 5 5 25.455 5 50c0 32.727 12.273 45 45 45 32.727 0 45-12.273 45-45 0-24.545-4.09-45-45-45Z" style="font-variation-settings:normal;display:inline;opacity:1;vector-effect:none;fill:url(#linearGradient20118);fill-opacity:1;stroke-width:4.56656;stroke-linecap:butt;stroke-linejoin:miter;stroke-miterlimit:4;stroke-dasharray:none;stroke-dashoffset:0;stroke-opacity:1;-inkscape-stroke:none;stop-color:#000;stop-opacity:1" transform="matrix(.24444 0 0 .24444 -.222 -.222)"/></g><g id="g3060" transform="matrix(.21391 0 0 .21391 -87.925 8.5)"><path id="path1852" fill="#fff" d="M465.006-13.446a14.87 14.87 0 0 0-14.903 14.903 14.87 14.87 0 0 0 14.903 14.903A14.87 14.87 0 0 0 479.91 1.457a14.87 14.87 0 0 0-14.903-14.903zm0 29.806A29.74 29.74 0 0 0 435.2 46.166h34.064v-4.258h-29.422a25.463 25.463 0 0 1 25.164-21.29c1.529 0 3.01.162 4.45.443l1.107-4.143a28.333 28.333 0 0 0-5.557-.558zm0-25.548a10.622 10.622 0 0 1 10.645 10.645 10.622 10.622 0 0 1-10.645 10.645 10.622 10.622 0 0 1-10.645-10.645 10.622 10.622 0 0 1 10.645-10.645z" style="stroke-width:2.12899"/><g id="g1860" fill="#fff" stroke-width=".353" transform="translate(396.879 -51.768) scale(2.12899)"><path id="path1854" d="M44 34v12h2V34Z"/><path id="path1856" d="M36 44h12v-2H36Zm0-6h12v-2H36Z"/><path id="path1858" d="M38 34v12h2V34Z"/></g></g></svg>