<svg xmlns="http://www.w3.org/2000/svg" xmlns:xlink="http://www.w3.org/1999/xlink" xml:space="preserve" id="svg154" width="24" height="24" fill="none" version="1.1"><defs id="defs152"><linearGradient id="linearGradient25901"><stop id="stop25897" offset="0" style="stop-color:#ececec;stop-opacity:1"/><stop id="stop25899" offset="1" style="stop-color:#f9f9f9;stop-opacity:1"/></linearGradient><linearGradient xlink:href="#linearGradient25901" id="linearGradient25903" x1="11.625" x2="11.813" y1="59.268" y2="-9.419" gradientUnits="userSpaceOnUse"/><linearGradient xlink:href="#linearGradient25901" id="linearGradient27719" x1="11.625" x2="11.813" y1="59.268" y2="-9.419" gradientUnits="userSpaceOnUse"/><style id="current-color-scheme" type="text/css">.ColorScheme-Text{color:#31363b}.ColorScheme-Background{color:#eff0f1}.ColorScheme-Highlight{color:#3daee9}.ColorScheme-ViewText{color:#31363b}.ColorScheme-ViewBackground{color:#fcfcfc}.ColorScheme-ViewHover{color:#93cee9}.ColorScheme-ViewFocus{color:#3daee9}.ColorScheme-ButtonText{color:#31363b}.ColorScheme-ButtonBackground{color:#eff0f1}.ColorScheme-ButtonHover{color:#93cee9}.ColorScheme-ButtonFocus{color:#3daee9}</style></defs><g id="g2267" style="display:inline;fill:url(#linearGradient25903);fill-opacity:1" transform="translate(0 .044)"><path id="path6" d="M50 5C9.09 5 5 25.455 5 50c0 32.727 12.273 45 45 45 32.727 0 45-12.273 45-45 0-24.545-4.09-45-45-45Z" style="font-variation-settings:normal;display:inline;opacity:1;vector-effect:none;fill:url(#linearGradient27719);fill-opacity:1;stroke-width:4.56656;stroke-linecap:butt;stroke-linejoin:miter;stroke-miterlimit:4;stroke-dasharray:none;stroke-dashoffset:0;stroke-opacity:1;-inkscape-stroke:none;stop-color:#000;stop-opacity:1" transform="matrix(.24444 0 0 .24444 -.222 -.222)"/></g><g id="g3351" stroke-width=".274" transform="translate(21.093 4.444) scale(.93186)"><path id="path3337" fill="#464646" d="M-2.35 8.108A7.392 7.392 0 0 0-9.758.7c-.734 0-1.087.851-1.755 1.049-2.505.738-4.806 2.014-5.436 4.564a7.475 7.475 0 0 0-.217 1.795 7.392 7.392 0 0 0 7.408 7.408c.377 0 .812-.677 1.174-.73 2.72-.405 4.885-1.63 5.794-4.147.285-.789.44-1.641.44-2.531z"/><circle id="circle3339" cx="-9.758" cy="8.108" r="4.233" fill="#ccc"/><path id="path3341" fill="#fb4848" d="M-16.726 2.287a.447.447 0 0 0-.44.446v3.87a.447.447 0 0 0 .446.446h3.87a.447.447 0 0 0 .316-.762l-3.87-3.87a.447.447 0 0 0-.322-.13z"/><path id="path3343" fill="#486afb" d="M-2.79 13.928a.447.447 0 0 0 .44-.446v-3.87a.447.447 0 0 0-.446-.447h-3.87a.447.447 0 0 0-.316.763l3.87 3.87a.447.447 0 0 0 .322.13z"/><circle id="circle3345" cx="-9.758" cy="8.108" r="1.587" fill="#f2f2f2"/><path id="path3347" fill="#486afb" d="M-2.791 10.633a7.411 7.411 0 0 1-6.967 4.883V12.34a4.232 4.232 0 0 0 3.709-2.191z"/><path id="path3349" fill="#fb4848" d="M-9.758.7a7.408 7.408 0 0 0-6.612 4.064l2.662 1.819a4.235 4.235 0 0 1 3.95-2.709z"/></g></svg>