<svg xmlns="http://www.w3.org/2000/svg" xmlns:xlink="http://www.w3.org/1999/xlink" xml:space="preserve" id="svg154" width="24" height="24" fill="none" version="1.1"><defs id="defs152"><linearGradient id="linearGradient33408"><stop id="stop33404" offset="0" style="stop-color:#f9d73b;stop-opacity:1"/><stop id="stop33406" offset="1" style="stop-color:#fde78a;stop-opacity:1"/></linearGradient><linearGradient xlink:href="#linearGradient33408" id="linearGradient33410" x1="11.938" x2="10.688" y1="50.393" y2="-16.107" gradientUnits="userSpaceOnUse"/><linearGradient xlink:href="#linearGradient33408" id="linearGradient36272" x1="11.938" x2="10.688" y1="50.393" y2="-16.107" gradientUnits="userSpaceOnUse"/><style id="current-color-scheme" type="text/css">.ColorScheme-Text{color:#31363b}.ColorScheme-Background{color:#eff0f1}.ColorScheme-Highlight{color:#3daee9}.ColorScheme-ViewText{color:#31363b}.ColorScheme-ViewBackground{color:#fcfcfc}.ColorScheme-ViewHover{color:#93cee9}.ColorScheme-ViewFocus{color:#3daee9}.ColorScheme-ButtonText{color:#31363b}.ColorScheme-ButtonBackground{color:#eff0f1}.ColorScheme-ButtonHover{color:#93cee9}.ColorScheme-ButtonFocus{color:#3daee9}</style></defs><g id="g2267" style="display:inline;fill:url(#linearGradient33410);fill-opacity:1" transform="translate(0 .044)"><path id="path6" d="M50 5C9.09 5 5 25.455 5 50c0 32.727 12.273 45 45 45 32.727 0 45-12.273 45-45 0-24.545-4.09-45-45-45Z" style="font-variation-settings:normal;display:inline;opacity:1;vector-effect:none;fill:url(#linearGradient36272);fill-opacity:1;stroke-width:4.56656;stroke-linecap:butt;stroke-linejoin:miter;stroke-miterlimit:4;stroke-dasharray:none;stroke-dashoffset:0;stroke-opacity:1;-inkscape-stroke:none;stop-color:#000;stop-opacity:1" transform="matrix(.24444 0 0 .24444 -.222 -.222)"/></g><path id="path5546" fill="#333" d="m8.458 5.135-1.416.791v8.69c0 1.416.708 2.478 3.541 3.895 0 0 .709.354 1.417.354.709 0 1.417-.354 1.417-.354 2.833-1.417 3.541-2.48 3.541-3.896V12.49c0-1.417-.708-2.48-3.541-3.896 0 0-.709-.354-1.417-.354v1.77a3.542 3.542 0 1 1-3.542 3.543zm2.834 3.21c-.401.104-.709.248-.709.248v1.716a3.496 3.496 0 0 1 .709-.228zm-1.417.637a13.522 13.522 0 0 0-.708.418v2.046a3.552 3.552 0 0 1 .708-.71Z" style="stroke-width:.354176;stroke-linecap:round;stroke-linejoin:round"/></svg>