<svg xmlns="http://www.w3.org/2000/svg" xmlns:xlink="http://www.w3.org/1999/xlink" xml:space="preserve" width="24" height="24" fill="none"><defs><linearGradient id="a"><stop offset="0" style="stop-color:#6c7ad8;stop-opacity:1"/><stop offset="1" style="stop-color:#c6cdff;stop-opacity:1"/></linearGradient><linearGradient xlink:href="#a" id="b" x1="52.173" x2="50.384" y1="69.688" y2="7.685" gradientTransform="matrix(.24444 0 0 .24444 -.222 -.222)" gradientUnits="userSpaceOnUse"/></defs><path d="M12 1C2 1 1 6 1 12c0 8 3 11 11 11s11-3 11-11c0-6-1-11-11-11Z" style="font-variation-settings:normal;display:inline;opacity:1;vector-effect:none;fill:url(#b);fill-opacity:1;stroke-width:1.11627;stroke-linecap:butt;stroke-linejoin:miter;stroke-miterlimit:4;stroke-dasharray:none;stroke-dashoffset:0;stroke-opacity:1;-inkscape-stroke:none;stop-color:#000;stop-opacity:1"/><path fill="#3947be" d="M-7.028 6.47a1.253 1.253 0 1 0 0-2.505 1.253 1.253 0 0 0 0 2.506zM-2.445 6.47a1.253 1.253 0 1 0 0-2.505 1.253 1.253 0 0 0 0 2.506z" style="stroke-width:.916667" transform="translate(16.844 -.3)"/><path stroke="#fff" stroke-linecap="round" stroke-linejoin="round" d="M-2.6 5.137v1.177a2.2 2.2 0 0 1-2.22 2.179 2.2 2.2 0 0 1-2.219-2.18V5.138" style="fill:none;stroke-width:.916667" transform="translate(16.844 -.3)"/><path fill="#fff" d="M-2.42 11.498a3.103 3.103 0 0 1 1.631-.923l.62-.04c.24.02.474.081.694.181.346.203.647.476.882.802.348.468.586 1.007.699 1.578.02.195.026.39.02.586-.142-.142-.189-.358-.296-.521a2.608 2.608 0 0 0-.506-.614c-.286-.28-.67-.44-1.07-.444-.15.02-.313-.007-.452.053-.425.095-.782.358-1.085.654-.088.115-.202.216-.29.33-.08.149-.195.283-.263.439a3.483 3.483 0 0 0-.388 1.44c.02.195.02.39.04.586.054.128.027.313.175.384.1.009.2-.017.284-.075.224-.163.427-.352.605-.565.23-.188.391-.439.607-.64.121-.095.203-.223.313-.313.223-.22.467-.416.73-.586a1.31 1.31 0 0 1 .673-.189 1.07 1.07 0 0 1 .72.425c.243.343.417.73.512 1.139.032.212.05.425.055.64a7.384 7.384 0 0 1-.378 2.13 3.16 3.16 0 0 1-.33.686c-.047.055-.074.135-.141.156.006-.142.06-.284.074-.425.024-.156.03-.314.02-.472.04-.242-.006-.485-.014-.73-.06-.242-.066-.498-.14-.73a1.85 1.85 0 0 0-.19-.492 1.041 1.041 0 0 0-.188-.263.657.657 0 0 0-.344-.142c-.095.02-.187.05-.276.088-.21.145-.395.32-.553.521-.154.135-.282.296-.465.405-.255.161-.552.303-.862.25-.424-.02-.815-.217-1.179-.418a2.487 2.487 0 0 1-.465-.364 2.398 2.398 0 0 1-.639-1.314.95.95 0 0 1-.027-.458c-.007-.607.189-1.193.444-1.739.136-.253.296-.493.479-.714.075-.111.164-.212.265-.302zM-7.263 19.673a3.103 3.103 0 0 1-1.63.923l-.626.04a2.058 2.058 0 0 1-.693-.182 2.85 2.85 0 0 1-.883-.802 3.912 3.912 0 0 1-.7-1.577 4.235 4.235 0 0 1-.02-.586c.14.142.188.358.296.522.148.214.296.451.505.613.287.28.67.44 1.07.444.149-.02.314.007.452-.053.425-.095.782-.358 1.086-.654.087-.115.2-.216.288-.33.082-.149.196-.283.263-.439.234-.446.367-.938.391-1.442-.02-.195-.02-.39-.04-.586-.054-.128-.027-.313-.176-.384a.43.43 0 0 0-.282.074 3.447 3.447 0 0 0-.607.566c-.228.188-.39.438-.606.64-.12.095-.202.223-.312.313-.224.219-.468.415-.73.586a1.313 1.313 0 0 1-.674.188 1.072 1.072 0 0 1-.721-.424 3.3 3.3 0 0 1-.512-1.139 5.1 5.1 0 0 1-.053-.64 7.35 7.35 0 0 1 .377-2.13c.082-.24.193-.471.33-.686.047-.055.074-.135.141-.156-.007.142-.06.284-.074.425-.023.156-.03.314-.02.472-.04.242.007.485.013.73.062.242.068.498.142.73.039.175.104.342.192.498.049.097.112.186.188.263a.64.64 0 0 0 .344.14c.095-.019.188-.05.276-.09.21-.145.396-.32.552-.521.156-.135.284-.296.465-.405.257-.161.553-.303.862-.25.426.02.816.217 1.18.418.168.102.325.224.464.364.345.36.569.82.64 1.314a.963.963 0 0 1 .028.458c.006.607-.19 1.193-.445 1.738A4.312 4.312 0 0 1-7 19.37a1.616 1.616 0 0 1-.263.303zM-5.976 12.031c.15-.07.313-.105.478-.104.288-.037.579.03.822.189.128.113.276.228.336.397a.731.731 0 0 1-.04.613 1.252 1.252 0 0 1-.586.58c-.182.1-.385.158-.592.166a1.3 1.3 0 0 1-.661-.082.929.929 0 0 1-.56-.586c-.08-.195.007-.41.089-.586.17-.265.42-.47.714-.587zM-5.936 14.558c.168-.304.512-.458.849-.471.175.011.346.054.505.127a.803.803 0 0 1 .472.521c.002.28.03.56.081.834.148.573.539 1.038.956 1.443.208.241.492.417.7.666a5.568 5.568 0 0 1-.956-.104 3.21 3.21 0 0 1-1.105-.392 2.53 2.53 0 0 1-.549-.367 3.116 3.116 0 0 1-.673-.747 2.386 2.386 0 0 1-.391-1.092c.013-.145.05-.286.111-.418z" style="stroke-width:.916667" transform="translate(16.844 -.3)"/></svg>