<svg xmlns="http://www.w3.org/2000/svg" xml:space="preserve" id="svg154" width="24" height="24" fill="none" version="1.1"><defs id="defs152"><clipPath id="clipPath14076" clipPathUnits="userSpaceOnUse"><path id="path14074" d="M10.012 10.227h4.746v4.746h-4.746z"/></clipPath><clipPath id="clipPath14086" clipPathUnits="userSpaceOnUse"><path id="path14084" d="M0 0h19v19H0Z"/></clipPath><clipPath id="clipPath14098" clipPathUnits="userSpaceOnUse"><path id="path14096" d="M10.762 5.965h3.074v3.078h-3.074z"/></clipPath><clipPath id="clipPath14108" clipPathUnits="userSpaceOnUse"><path id="path14106" d="M0 0h19v19H0Z"/></clipPath><clipPath id="clipPath14130" clipPathUnits="userSpaceOnUse"><path id="path14128" d="M0 0h19v19H0Z"/></clipPath><clipPath id="clipPath574" clipPathUnits="userSpaceOnUse"/><clipPath id="clipPath580" clipPathUnits="userSpaceOnUse"/><clipPath id="clipPath586" clipPathUnits="userSpaceOnUse"/><linearGradient id="linearGradient6063"><stop id="stop6061" offset="0" style="stop-color:#f5f5f5;stop-opacity:1"/></linearGradient><linearGradient id="linearGradient14066" x1="54.786" x2="52.797" y1="82.086" y2=".909" gradientTransform="matrix(.18333 0 0 .18333 -.167 -.167)" gradientUnits="userSpaceOnUse" spreadMethod="pad"><stop id="stop14062" offset="0" style="stop-opacity:1;stop-color:#069"/><stop id="stop14064" offset="1" style="stop-opacity:1;stop-color:#00a0d7"/></linearGradient><style id="style212">.cls-2{fill:#cc5e55}.cls-3{fill:#ffc328}.cls-4{fill:#002a44}.cls-5{fill:#3c3}.cls-6{fill:#fff}</style></defs><g id="g14050" transform="scale(1.33333)"><g id="g14052"><g id="g14054"><g id="g14060"><path id="path14068" d="M9 .75C1.5.75.75 4.5.75 9 .75 15 3 17.25 9 17.25S17.25 15 17.25 9C17.25 4.5 16.5.75 9 .75Z" style="fill:url(#linearGradient14066);stroke:none"/></g></g></g></g><g id="g14070" transform="matrix(1.33333 0 0 1.33333 1.406 -3.031)"><g id="g14072" clip-path="url(#clipPath14076)"><g id="g14078"><g id="g14080"><g id="g14082" clip-path="url(#clipPath14086)"><g id="g14088"><path id="path14090" d="M14.586 12.973a.173.173 0 0 0 .172-.172v-.41a.173.173 0 0 0-.172-.168h-.176a.248.248 0 0 1-.219-.161l-.148-.367a.23.23 0 0 1 .039-.265l.125-.125a.174.174 0 0 0 0-.243l-.289-.289a.173.173 0 0 0-.242 0l-.125.125c-.063.067-.184.082-.266.04l-.367-.149a.24.24 0 0 1-.16-.219v-.175a.173.173 0 0 0-.168-.172h-.41a.173.173 0 0 0-.172.172v.175a.24.24 0 0 1-.16.219l-.364.149a.244.244 0 0 1-.269-.04l-.125-.125a.168.168 0 0 0-.238 0l-.293.289a.18.18 0 0 0 0 .243l.125.125a.23.23 0 0 1 .039.265l-.149.367a.246.246 0 0 1-.219.161h-.175a.169.169 0 0 0-.168.168v.41a.17.17 0 0 0 .168.172h.175a.24.24 0 0 1 .219.16l.149.363a.239.239 0 0 1-.039.27l-.125.125a.173.173 0 0 0 0 .238l.293.293a.175.175 0 0 0 .238 0l.125-.125a.236.236 0 0 1 .269-.039l.364.148a.24.24 0 0 1 .16.219v.176a.17.17 0 0 0 .172.168h.41c.09 0 .168-.074.168-.168v-.176c0-.094.074-.191.16-.219l.367-.148a.23.23 0 0 1 .266.039l.125.125a.18.18 0 0 0 .242 0l.289-.293a.168.168 0 0 0 0-.238l-.125-.125a.246.246 0 0 1-.039-.27l.148-.363a.24.24 0 0 1 .219-.16zm-2.203.601a.977.977 0 1 1 0-1.954.977.977 0 0 1 0 1.954z" style="fill:#002a44;fill-opacity:1;fill-rule:nonzero;stroke:none"/></g></g></g></g></g></g><g id="g14092" transform="matrix(1.33333 0 0 1.33333 .719 -2.313)"><g id="g14094" clip-path="url(#clipPath14098)"><g id="g14100"><g id="g14102"><g id="g14104" clip-path="url(#clipPath14108)"><g id="g14110"><path id="path14112" d="M13.727 7.746a.113.113 0 0 0 .109-.113v-.262a.113.113 0 0 0-.109-.113h-.114a.162.162 0 0 1-.144-.102l-.098-.238c-.027-.051-.016-.133.027-.172l.082-.082a.11.11 0 0 0 0-.156l-.187-.188a.11.11 0 0 0-.156 0l-.082.082c-.043.043-.121.055-.172.024l-.238-.098a.151.151 0 0 1-.106-.14v-.114a.11.11 0 0 0-.109-.109h-.266a.111.111 0 0 0-.109.109v.114a.151.151 0 0 1-.106.14l-.234.098a.154.154 0 0 1-.176-.024l-.078-.082a.11.11 0 0 0-.156 0l-.188.188a.11.11 0 0 0 0 .156l.082.082c.043.039.051.121.024.172l-.098.238c-.016.055-.082.102-.141.102h-.113a.11.11 0 0 0-.109.113v.262a.11.11 0 0 0 .109.113h.113c.059 0 .125.047.141.102l.098.238c.027.051.019.133-.024.172l-.082.082a.11.11 0 0 0 0 .156l.188.188a.11.11 0 0 0 .156 0l.078-.082a.154.154 0 0 1 .176-.024l.234.094a.16.16 0 0 1 .106.144v.114c0 .058.05.109.109.109h.266a.11.11 0 0 0 .109-.109v-.114a.16.16 0 0 1 .106-.144l.238-.094c.051-.031.129-.019.172.024l.082.082a.11.11 0 0 0 .156 0l.187-.188a.11.11 0 0 0 0-.156l-.082-.082c-.043-.039-.054-.121-.027-.172l.098-.238a.162.162 0 0 1 .144-.102zm-1.43.387a.632.632 0 1 1 0-1.262.63.63 0 1 1 0 1.262z" style="fill:#002a44;fill-opacity:1;fill-rule:nonzero;stroke:none"/></g></g></g></g></g></g><g id="g1175" transform="translate(-.531 -2.813)"><path id="path14136" d="M13.057 10.49c0 1.537-1.36 2.789-3.037 2.789-1.677 0-3.036-1.252-3.036-2.789 0-1.54 1.36-2.793 3.036-2.793 1.677 0 3.037 1.252 3.037 2.793z" clip-path="url(#clipPath580)" style="fill:#002a44;fill-opacity:1;fill-rule:nonzero;stroke:none;stroke-width:1.51212" transform="translate(-.719 5.156)"/><g id="g934" transform="rotate(-9.418 41.465 16.05)"><g id="g14122" clip-path="url(#clipPath586)" transform="matrix(1.51212 0 0 1.51212 -.382 -2.9)"><g id="g14124"><g id="g14126" clip-path="url(#clipPath14130)"><g id="g14132"><path id="path14134" d="M10.254 9.379a.267.267 0 0 0 .269-.266v-.648a.27.27 0 0 0-.269-.27h-.277a.382.382 0 0 1-.348-.257l-.238-.575a.377.377 0 0 1 .062-.425l.199-.2a.273.273 0 0 0 0-.379l-.461-.457a.267.267 0 0 0-.379 0l-.195.196a.387.387 0 0 1-.429.062l-.575-.238a.39.39 0 0 1-.258-.348v-.277a.267.267 0 0 0-.269-.266h-.648a.266.266 0 0 0-.266.266v.277a.388.388 0 0 1-.258.348l-.578.238a.383.383 0 0 1-.426-.062l-.195-.196a.267.267 0 0 0-.379 0l-.461.457a.273.273 0 0 0 0 .379l.199.2a.378.378 0 0 1 .063.425l-.239.575a.382.382 0 0 1-.347.257h-.278a.27.27 0 0 0-.269.27v.648c0 .149.121.266.269.266h.278c.148 0 .304.117.347.258l.239.578c.07.129.043.32-.063.426l-.199.195a.273.273 0 0 0 0 .379l.461.461a.267.267 0 0 0 .379 0l.195-.199a.396.396 0 0 1 .426-.063l.578.238c.141.043.258.2.258.348v.277c0 .149.121.27.266.27h.652a.27.27 0 0 0 .265-.27V12a.39.39 0 0 1 .258-.348l.578-.238a.396.396 0 0 1 .426.063l.195.199a.267.267 0 0 0 .379 0l.461-.461a.273.273 0 0 0 0-.379l-.199-.195a.381.381 0 0 1-.062-.426l.238-.578a.388.388 0 0 1 .348-.258Zm-3.492.957a1.547 1.547 0 0 1 0-3.094 1.546 1.546 0 1 1 0 3.094z" style="fill:#002a44;fill-opacity:1;fill-rule:nonzero;stroke:none"/></g></g></g></g><path id="path14138" d="M12.081 8.122c-.065 0-.142.006-.217.019-1.258.211-1.206 1.67-1.206 1.67s0 .65.608.976c.502.289.787-.024.84-.071.046-.053 1.069-1.33.902 1.097 0 0 .362-.388.384-1.323.025-.933-.577-.986-.577-.986s-.266-.07-.787.502c-.526.568-.567.539-.567.539s-.148.106-.164-.154c-.019-.267-.072-1.063.731-1.494.797-.431 1.187.626 1.187.626s-.087-1.395-1.134-1.4zm-2.244.604a.786.786 0 0 0-.166.016c-.307.065-.513.307-.466.539.053.23.342.36.65.295.307-.066.513-.301.466-.533-.04-.189-.242-.313-.484-.317Zm-2.658.183s-.36.388-.384 1.317c-.024.933.58.992.58.992s.26.065.784-.502c.526-.567.562-.543.562-.543s.147-.108.165.159c.018.266.077 1.063-.727 1.494-.803.43-1.193-.626-1.193-.626s.101 1.583 1.36 1.376c1.257-.206 1.198-1.671 1.198-1.671s.006-.644-.603-.97c-.502-.288-.79.025-.838.071-.048.047-1.069 1.33-.904-1.097zm2.805.772a.44.44 0 0 0-.419.573s.254 1.004 1.614 1.035c0 0-.787-.561-.769-1.205a.437.437 0 0 0-.426-.403Z" clip-path="url(#clipPath574)" style="fill:#fff;fill-opacity:1;fill-rule:nonzero;stroke:none;stroke-width:1.51212" transform="matrix(1.12786 0 0 1.14675 -1.431 -1.38)"/></g></g></svg>