<svg xmlns="http://www.w3.org/2000/svg" xmlns:xlink="http://www.w3.org/1999/xlink" xml:space="preserve" id="svg1899" width="24" height="24" version="1.1" viewBox="0 0 6.35 6.35"><defs id="defs1896"><radialGradient id="paint0_radial_3_321" cx="0" cy="0" r="1" gradientTransform="matrix(0 5.82083 -5.82083 0 10.522 -5.814)" gradientUnits="userSpaceOnUse"><stop id="stop180" stop-color="#555"/><stop id="stop182" offset="1" stop-color="#222"/></radialGradient><radialGradient id="a-6" cx="0" cy="0" r="1" gradientTransform="rotate(90 -11.774 -11.51) scale(2.91036)" gradientUnits="userSpaceOnUse"><stop id="stop1" stop-color="#6EBBF7"/><stop id="stop2" offset="1" stop-color="#2196F3"/></radialGradient><radialGradient xlink:href="#paint0_radial_3_321" id="radialGradient26" cx="0" cy="0" r="1" gradientTransform="matrix(0 5.82083 -5.82083 0 3.175 .265)" gradientUnits="userSpaceOnUse"/><linearGradient id="linearGradient31395" x1="12" x2="12" y1="0" y2="12" gradientTransform="matrix(.24253 0 0 .24253 .264 16.14)" gradientUnits="userSpaceOnUse" spreadMethod="pad"><stop id="stop31391" offset="0" style="stop-opacity:1;stop-color:#fff"/><stop id="stop31393" offset="1" style="stop-opacity:1;stop-color:#d9d9d9"/></linearGradient><linearGradient xlink:href="#a" id="linearGradient8909" x1="13.229" x2="2.117" y1="297" y2="280.07" gradientTransform="matrix(.2628 0 0 .20708 .94 -41.157)" gradientUnits="userSpaceOnUse"/><linearGradient id="a" x1="13.229" x2="2.117" y1="297" y2="280.07" gradientTransform="matrix(.99324 0 0 .78268 -16.45 -215.555)" gradientUnits="userSpaceOnUse"><stop id="stop3327" offset="0" stop-color="#66bcff" style="stop-color:#222;stop-opacity:1"/><stop id="stop3329" offset="1" stop-color="#b29aff" style="stop-color:#555;stop-opacity:1"/></linearGradient><style id="style125">.st0{display:none}</style></defs><g id="layer1"><path id="path17" fill="url(#paint0_radial_3_321)" fill-rule="evenodd" d="M2.539.295a.312.312 0 0 0 .09-.012c.38-.025.76-.024 1.14.003.345.026.678.101 1 .224.537.22.903.603 1.1 1.148.114.328.18.665.2 1.012.03.435.019.869-.03 1.302a3.143 3.143 0 0 1-.236.879A1.87 1.87 0 0 1 4.71 5.86c-.409.138-.829.21-1.26.218a5.668 5.668 0 0 1-1.443-.11C1.129 5.774.589 5.24.384 4.367a5.04 5.04 0 0 1-.118-1.193c-.01-.429.036-.85.136-1.267C.617 1.09 1.135.584 1.957.39c.192-.047.386-.079.582-.094Z" clip-rule="evenodd" style="fill:url(#radialGradient26);stroke-width:.264583"/><path id="path3" d="M4.882 3.014a2.249 2.249 0 0 0-2.249 2.249 2.249 2.249 0 0 0 .152.81c.22.015.44.016.662.004.433-.007.854-.08 1.262-.218.504-.185.87-.52 1.094-1.008.121-.281.2-.574.237-.878.023-.204.036-.408.042-.613a2.249 2.249 0 0 0-1.2-.346z" style="fill:#069;fill-opacity:1;stroke-width:.531281;paint-order:markers stroke fill"/><g id="g19" style="stroke-width:.663346" transform="matrix(1.5075 0 0 1.5075 -4.916 -.11)"><path id="path18" fill="#fafafa" d="M4.924 3.295h-.627a.044.044 0 0 0-.045.043c0 .024.02.044.045.044h.627c.025 0 .045-.02.045-.044a.044.044 0 0 0-.045-.043z" style="fill:#0f0;fill-opacity:1;stroke-width:.175511"/><path id="path19" fill="#fafafa" d="M4.028 2.515a.046.046 0 0 0-.025.004.044.044 0 0 0-.025.033.041.041 0 0 0 .01.032.044.044 0 0 0 .012.01l.482.267L4 3.128a.044.044 0 0 0-.02.027.041.041 0 0 0 .004.032c.013.02.04.028.061.016l.544-.301a.043.043 0 0 0 .016-.016.04.04 0 0 0 .005-.02v-.008a.041.041 0 0 0-.005-.021.043.043 0 0 0-.016-.016l-.544-.301a.047.047 0 0 0-.017-.005z" style="fill:#0f0;fill-opacity:1;stroke-width:.175511"/></g><text xml:space="preserve" id="text19" x="5.144" y="2.899" style="font-weight:800;font-size:.0412253px;line-height:2;font-family:LATO;-inkscape-font-specification:&quot;LATO Ultra-Bold&quot;;text-align:end;letter-spacing:0;word-spacing:0;text-anchor:end;fill:#0f0;fill-opacity:1;stroke-width:.500002;stroke-linejoin:round;paint-order:stroke markers fill"><tspan id="tspan19" x="5.144" y="2.899" style="font-style:normal;font-variant:normal;font-weight:400;font-stretch:normal;font-size:1.85759px;font-family:Ubuntu;-inkscape-font-specification:Ubuntu;font-variant-ligatures:normal;font-variant-caps:normal;font-variant-numeric:normal;font-variant-east-asian:normal;fill:#0f0;fill-opacity:1;stroke-width:.500002">grub</tspan></text><path id="path23" d="M3.2.265c-.19 0-.38.005-.57.017a.312.312 0 0 1-.09.013 3.69 3.69 0 0 0-.583.093C1.387.524.961.81.683 1.246h4.985C5.458.916 5.158.67 4.77.51a3.58 3.58 0 0 0-1-.224C3.58.272 3.39.266 3.2.265Z" style="fill:#000;fill-opacity:.298039;stroke-width:.264583"/><rect id="rect23" width=".589" height=".294" x="1.412" y=".769" opacity=".35" ry=".148" style="stroke-width:.24134;paint-order:stroke markers fill"/><rect id="rect24" width=".294" height=".294" x="4.688" y=".769" opacity=".35" ry=".148" style="stroke-width:.24134;paint-order:stroke markers fill"/><rect id="rect25" width=".442" height=".294" x="4.099" y=".769" opacity=".35" ry=".148" style="stroke-width:.24134;paint-order:stroke markers fill"/><rect id="rect26" width=".294" height=".294" x="3.658" y=".769" opacity=".35" ry=".148" style="stroke-width:.24134;paint-order:stroke markers fill"/><path id="path30" d="M4.883 3.857v.418a1.117 1.117 0 0 0-1.117 1.116 1.117 1.117 0 0 0 .205.644c.156-.023.31-.054.461-.094a.684.684 0 0 1-.247-.55c0-.41.287-.697.698-.697v.418l.837-.628z" style="fill:#f2f2f2;fill-opacity:1;stroke-width:.531281;paint-order:markers stroke fill"/></g></svg>