<svg xmlns="http://www.w3.org/2000/svg" xmlns:xlink="http://www.w3.org/1999/xlink" xml:space="preserve" id="svg154" width="24" height="24" fill="none" version="1.1"><defs id="defs152"><linearGradient id="linearGradient37333"><stop id="stop37329" offset="0" style="stop-color:#f89d30;stop-opacity:1"/><stop id="stop37331" offset="1" style="stop-color:#fdbf88;stop-opacity:1"/></linearGradient><linearGradient xlink:href="#linearGradient37333" id="linearGradient37335" x1="12.125" x2="12.563" y1="67.5" y2="-4.313" gradientUnits="userSpaceOnUse"/><linearGradient xlink:href="#linearGradient37333" id="linearGradient39568" x1="12.125" x2="12.563" y1="67.5" y2="-4.313" gradientUnits="userSpaceOnUse"/><style id="current-color-scheme" type="text/css">.ColorScheme-Text{color:#31363b}.ColorScheme-Background{color:#eff0f1}.ColorScheme-Highlight{color:#3daee9}.ColorScheme-ViewText{color:#31363b}.ColorScheme-ViewBackground{color:#fcfcfc}.ColorScheme-ViewHover{color:#93cee9}.ColorScheme-ViewFocus{color:#3daee9}.ColorScheme-ButtonText{color:#31363b}.ColorScheme-ButtonBackground{color:#eff0f1}.ColorScheme-ButtonHover{color:#93cee9}.ColorScheme-ButtonFocus{color:#3daee9}</style></defs><g id="g2267" style="display:inline;fill:url(#linearGradient37335);fill-opacity:1"><path id="path6" d="M50 5C9.09 5 5 25.455 5 50c0 32.727 12.273 45 45 45 32.727 0 45-12.273 45-45 0-24.545-4.09-45-45-45Z" style="font-variation-settings:normal;display:inline;opacity:1;vector-effect:none;fill:url(#linearGradient39568);fill-opacity:1;stroke-width:4.56656;stroke-linecap:butt;stroke-linejoin:miter;stroke-miterlimit:4;stroke-dasharray:none;stroke-dashoffset:0;stroke-opacity:1;-inkscape-stroke:none;stop-color:#000;stop-opacity:1" transform="matrix(.24444 0 0 .24444 -.222 -.222)"/></g><path id="path5817" fill="#fff" d="M9.971 5.045v2.318c-.285.012-.808 0-1.08 0H7.072v1.16s.997-.018.98 0c.534-.009.704.378.76.637v5.738c-.021.164-.004.568-.376.58.017.015-1.364 0-1.364 0v1.159H8.96c.32-.012.704 0 1.012 0v2.318l1.16-.021v-2.297h1.14l.037 2.318h1.159l-.036-2.318c3.496 0 3.496-1.739 3.496-2.61 0-.868-.368-2.026-1.74-2.027.793.001 1.16-1.308 1.16-2.318 0-1.309-1.16-2.319-2.898-2.319V5.045h-1.16v2.318c-.345 0-.807-.013-1.158 0V5.045zm1.16 3.477c1.159 0 2.898 0 2.898 1.45 0 1.448-1.74 1.448-2.898 1.448zm0 4.058c2.318 0 3.477 0 3.477 1.449s-1.159 1.449-3.477 1.449z" style="stroke-width:.429493"/></svg>