<svg xmlns="http://www.w3.org/2000/svg" xmlns:xlink="http://www.w3.org/1999/xlink" xml:space="preserve" id="svg154" width="24" height="24" fill="none" version="1.1"><defs id="defs152"><linearGradient id="linearGradient40506"><stop id="stop40502" offset="0" style="stop-color:#3c5f81;stop-opacity:1"/><stop id="stop40504" offset="1" style="stop-color:#7da0d1;stop-opacity:1"/></linearGradient><linearGradient xlink:href="#linearGradient40506" id="linearGradient40508" x1="11.75" x2="12.5" y1="53.688" y2="-6.563" gradientUnits="userSpaceOnUse"/><linearGradient xlink:href="#linearGradient40506" id="linearGradient42629" x1="11.75" x2="12.5" y1="53.688" y2="-6.563" gradientUnits="userSpaceOnUse"/><style id="current-color-scheme" type="text/css">.ColorScheme-Background{color:#eff0f1}.ColorScheme-Highlight{color:#3daee9}.ColorScheme-ViewText{color:#31363b}.ColorScheme-ViewBackground{color:#fcfcfc}.ColorScheme-ViewHover{color:#93cee9}.ColorScheme-ViewFocus{color:#3daee9}.ColorScheme-ButtonText{color:#31363b}.ColorScheme-ButtonBackground{color:#eff0f1}.ColorScheme-ButtonHover{color:#93cee9}.ColorScheme-ButtonFocus{color:#3daee9}.ColorScheme-Text{color:#4d4d4d}</style></defs><g id="g2267" style="display:inline;fill:url(#linearGradient40508);fill-opacity:1"><path id="path6" d="M50 5C9.09 5 5 25.455 5 50c0 32.727 12.273 45 45 45 32.727 0 45-12.273 45-45 0-24.545-4.09-45-45-45Z" style="font-variation-settings:normal;display:inline;opacity:1;vector-effect:none;fill:url(#linearGradient42629);fill-opacity:1;stroke-width:4.56656;stroke-linecap:butt;stroke-linejoin:miter;stroke-miterlimit:4;stroke-dasharray:none;stroke-dashoffset:0;stroke-opacity:1;-inkscape-stroke:none;stop-color:#000;stop-opacity:1" transform="matrix(.24444 0 0 .24444 -.222 -.222)"/></g><path id="path10294" fill="#fff" d="M11.753 4.57a7.444 7.444 0 0 0-5.016 2.17 7.439 7.439 0 0 0-.608 9.818l1.563-1.563a5.252 5.252 0 0 1 .594-6.707 5.256 5.256 0 0 1 5.466-1.23v1.88l2.807-2.807a7.444 7.444 0 0 0-4.806-1.563zm6.12 2.875-1.565 1.563a5.252 5.252 0 0 1-.594 6.707 5.256 5.256 0 0 1-5.464 1.23v-1.88L8.39 16.92l-.95.95a7.444 7.444 0 0 0 9.822-.609 7.439 7.439 0 0 0 .608-9.817z" style="fill:#fff;fill-opacity:1;stroke-width:1.75653;paint-order:stroke markers fill"/></svg>