<svg xmlns="http://www.w3.org/2000/svg" xmlns:xlink="http://www.w3.org/1999/xlink" xml:space="preserve" id="svg154" width="24" height="24" fill="none" version="1.1"><defs id="defs152"><linearGradient id="linearGradient46156"><stop id="stop46152" offset="0" style="stop-color:#2665d8;stop-opacity:1"/><stop id="stop46154" offset="1" style="stop-color:#6487c8;stop-opacity:1"/></linearGradient><linearGradient xlink:href="#linearGradient46156" id="linearGradient46158" x1="11.875" x2="12.063" y1="56.375" y2="-4.625" gradientUnits="userSpaceOnUse"/><linearGradient xlink:href="#linearGradient46156" id="linearGradient47037" x1="11.875" x2="12.063" y1="56.375" y2="-4.625" gradientUnits="userSpaceOnUse"/><style id="current-color-scheme" type="text/css">.ColorScheme-Background{color:#eff0f1}.ColorScheme-Highlight{color:#3daee9}.ColorScheme-ViewText{color:#31363b}.ColorScheme-ViewBackground{color:#fcfcfc}.ColorScheme-ViewHover{color:#93cee9}.ColorScheme-ViewFocus{color:#3daee9}.ColorScheme-ButtonText{color:#31363b}.ColorScheme-ButtonBackground{color:#eff0f1}.ColorScheme-ButtonHover{color:#93cee9}.ColorScheme-ButtonFocus{color:#3daee9}.ColorScheme-Text{color:#4d4d4d}</style></defs><g id="g2267" style="display:inline;fill:url(#linearGradient46158);fill-opacity:1"><path id="path6" d="M50 5C9.09 5 5 25.455 5 50c0 32.727 12.273 45 45 45 32.727 0 45-12.273 45-45 0-24.545-4.09-45-45-45Z" style="font-variation-settings:normal;display:inline;opacity:1;vector-effect:none;fill:url(#linearGradient47037);fill-opacity:1;stroke-width:4.56656;stroke-linecap:butt;stroke-linejoin:miter;stroke-miterlimit:4;stroke-dasharray:none;stroke-dashoffset:0;stroke-opacity:1;-inkscape-stroke:none;stop-color:#000;stop-opacity:1" transform="matrix(.24444 0 0 .24444 -.222 -.222)"/></g><path id="path943" fill="#fff" d="M6.35 5.064c-.283 0-.283-.043-.283 4.113 0 4.216-.005 4.132.32 4.95.372.94.973 1.735 1.96 2.6.827.724 1.809 1.38 2.903 1.938.37.188.562.274.75.27.188.004.38-.082.75-.27a14.173 14.173 0 0 0 2.903-1.939c.987-.864 1.588-1.659 1.96-2.6.325-.817.32-.733.32-4.95 0-4.155 0-4.112-.283-4.112zM12 7.042h3.839v5.613s-.002.272-.172.7c-.238.6-.569 1.075-1.393 1.797-.626.548-1.415 1.055-2.274 1.513z" style="stroke-width:.395523"/></svg>