<svg xmlns="http://www.w3.org/2000/svg" xmlns:xlink="http://www.w3.org/1999/xlink" xml:space="preserve" id="svg154" width="24" height="24" fill="none" version="1.1"><defs id="defs152"><linearGradient id="linearGradient46156"><stop id="stop46152" offset="0" style="stop-color:#dc1f35;stop-opacity:1"/><stop id="stop46154" offset="1" style="stop-color:#f58389;stop-opacity:1"/></linearGradient><linearGradient xlink:href="#linearGradient46156" id="linearGradient46158" x1="11.875" x2="12.063" y1="56.375" y2="-4.625" gradientUnits="userSpaceOnUse"/><linearGradient xlink:href="#linearGradient46156" id="linearGradient48891" x1="11.875" x2="12.063" y1="56.375" y2="-4.625" gradientUnits="userSpaceOnUse"/><style id="current-color-scheme" type="text/css">.ColorScheme-Text{color:#31363b}.ColorScheme-Background{color:#eff0f1}.ColorScheme-Highlight{color:#3daee9}.ColorScheme-ViewText{color:#31363b}.ColorScheme-ViewBackground{color:#fcfcfc}.ColorScheme-ViewHover{color:#93cee9}.ColorScheme-ViewFocus{color:#3daee9}.ColorScheme-ButtonText{color:#31363b}.ColorScheme-ButtonBackground{color:#eff0f1}.ColorScheme-ButtonHover{color:#93cee9}.ColorScheme-ButtonFocus{color:#3daee9}</style></defs><g id="g2267" style="display:inline;fill:url(#linearGradient46158);fill-opacity:1"><path id="path6" d="M50 5C9.09 5 5 25.455 5 50c0 32.727 12.273 45 45 45 32.727 0 45-12.273 45-45 0-24.545-4.09-45-45-45Z" style="font-variation-settings:normal;display:inline;opacity:1;vector-effect:none;fill:url(#linearGradient48891);fill-opacity:1;stroke-width:4.56656;stroke-linecap:butt;stroke-linejoin:miter;stroke-miterlimit:4;stroke-dasharray:none;stroke-dashoffset:0;stroke-opacity:1;-inkscape-stroke:none;stop-color:#000;stop-opacity:1" transform="matrix(.24444 0 0 .24444 -.222 -.222)"/></g><g id="g6391" transform="translate(-41.226 27.962) scale(.1886)"><path id="path5794" fill="#f9f9f9" d="M278.118-96.917a4.095 4.095 0 0 1-4.095 4.095 4.095 4.095 0 0 1-4.095-4.095 4.095 4.095 0 0 1 4.095-4.095 4.095 4.095 0 0 1 4.095 4.095zm14.332 0a4.095 4.095 0 0 1-4.095 4.095 4.095 4.095 0 0 1-4.095-4.095 4.095 4.095 0 0 1 4.095-4.095 4.095 4.095 0 0 1 4.095 4.095zm14.37 0a4.095 4.095 0 0 1-4.094 4.095 4.095 4.095 0 0 1-4.095-4.095 4.095 4.095 0 0 1 4.095-4.095 4.095 4.095 0 0 1 4.095 4.095zm-43.034 0a4.095 4.095 0 0 1-4.095 4.095 4.095 4.095 0 0 1-4.095-4.095 4.095 4.095 0 0 1 4.095-4.095 4.095 4.095 0 0 1 4.095 4.095z" style="stroke-width:2.04742"/><g id="g5798" fill="#f9f9f9" stroke-width="1.333" transform="translate(216.695 -150.15) scale(2.04742)"><path id="path5796" d="M16 32a2 2 0 0 1-2 2 2 2 0 0 1-2-2 2 2 0 0 1 2-2 2 2 0 0 1 2 2zm7 0a2 2 0 0 1-2 2 2 2 0 0 1-2-2 2 2 0 0 1 2-2 2 2 0 0 1 2 2zm7 0a2 2 0 0 1-2 2 2 2 0 0 1-2-2 2 2 0 0 1 2-2 2 2 0 0 1 2 2zm7 0a2 2 0 0 1-2 2 2 2 0 0 1-2-2 2 2 0 0 1 2-2 2 2 0 0 1 2 2zm7 0a2 2 0 0 1-2 2 2 2 0 0 1-2-2 2 2 0 0 1 2-2 2 2 0 0 1 2 2zm7 0a2 2 0 0 1-2 2 2 2 0 0 1-2-2 2 2 0 0 1 2-2 2 2 0 0 1 2 2z"/></g><path id="path5800" fill="#f9f9f9" d="M255.596-72.348a4.095 4.095 0 0 1-4.094 4.095 4.095 4.095 0 0 1-4.095-4.095 4.095 4.095 0 0 1 4.095-4.095 4.095 4.095 0 0 1 4.094 4.095zm14.332 0a4.095 4.095 0 0 1-4.094 4.095 4.095 4.095 0 0 1-4.095-4.095 4.095 4.095 0 0 1 4.095-4.095 4.095 4.095 0 0 1 4.094 4.095zm38.901 0a4.095 4.095 0 0 1-4.094 4.095 4.095 4.095 0 0 1-4.095-4.095 4.095 4.095 0 0 1 4.095-4.095 4.095 4.095 0 0 1 4.094 4.095zm14.332 0a4.095 4.095 0 0 1-4.094 4.095 4.095 4.095 0 0 1-4.095-4.095 4.095 4.095 0 0 1 4.095-4.095 4.095 4.095 0 0 1 4.094 4.095z" style="stroke-width:2.04742"/></g></svg>