<svg xmlns="http://www.w3.org/2000/svg" xmlns:xlink="http://www.w3.org/1999/xlink" xml:space="preserve" id="svg154" width="24" height="24" fill="none" version="1.1"><defs id="defs152"><linearGradient id="linearGradient49371"><stop id="stop49367" offset="0" style="stop-color:#e6e6e6;stop-opacity:1"/><stop id="stop49369" offset="1" style="stop-color:#f9f9f9;stop-opacity:1"/></linearGradient><linearGradient xlink:href="#linearGradient49371" id="linearGradient49373" x1="10.625" x2="10.875" y1="36.563" y2="-4.813" gradientUnits="userSpaceOnUse"/><linearGradient xlink:href="#linearGradient49371" id="linearGradient50233" x1="10.625" x2="10.875" y1="36.563" y2="-4.813" gradientUnits="userSpaceOnUse"/><style id="current-color-scheme" type="text/css">.ColorScheme-Text{color:#31363b}.ColorScheme-Background{color:#eff0f1}.ColorScheme-Highlight{color:#3daee9}.ColorScheme-ViewText{color:#31363b}.ColorScheme-ViewBackground{color:#fcfcfc}.ColorScheme-ViewHover{color:#93cee9}.ColorScheme-ViewFocus{color:#3daee9}.ColorScheme-ButtonText{color:#31363b}.ColorScheme-ButtonBackground{color:#eff0f1}.ColorScheme-ButtonHover{color:#93cee9}.ColorScheme-ButtonFocus{color:#3daee9}</style></defs><g id="g2267" style="display:inline;fill:url(#linearGradient49373);fill-opacity:1"><path id="path6" d="M50 5C9.09 5 5 25.455 5 50c0 32.727 12.273 45 45 45 32.727 0 45-12.273 45-45 0-24.545-4.09-45-45-45Z" style="font-variation-settings:normal;display:inline;opacity:1;vector-effect:none;fill:url(#linearGradient50233);fill-opacity:1;stroke-width:4.56656;stroke-linecap:butt;stroke-linejoin:miter;stroke-miterlimit:4;stroke-dasharray:none;stroke-dashoffset:0;stroke-opacity:1;-inkscape-stroke:none;stop-color:#000;stop-opacity:1" transform="matrix(.24444 0 0 .24444 -.222 -.222)"/></g><g id="g6530" stroke-linejoin="round" stroke-width="11.739" transform="translate(3.604 3.604) scale(.26237)"><path id="path6524" fill="#a5c8f3" d="M25.5 6 14.667 16.833 19 53.666V58h4.333v-6.5h4.334V58H32v-6.5l6.5-2.166L45 51.5V58h4.333v-6.5h4.334V58H58V45l-4.333-6.5L58 32V19l-8.667-6.5c0-3.6-7.232-6.5-10.833-6.5Z"/><path id="path6526" fill="#428ce6" d="M12.5 6v13H32v-6.5C32 8.9 29.101 6 25.5 6ZM32 19v13h13V19Zm13 0h13v-6.5C58 8.9 55.101 6 51.5 6h-13c3.601 0 6.5 2.9 6.5 6.5zm0 13v13h13V32Zm0 13H32v6.5h4.334V58h4.333v-6.5H45Zm-13 0V32H12.5v13z"/><path id="path6528" fill="#1d5aa5" d="M12.5 6A6.486 6.486 0 0 0 6 12.5v41.167h4.334v-6.5h4.333v6.5h4.334V12.5A6.489 6.489 0 0 0 12.5 6Z"/></g></svg>