<svg xmlns="http://www.w3.org/2000/svg" xml:space="preserve" width="24" height="24" viewBox="0 0 6.35 6.35"><defs><radialGradient id="a" cx="0" cy="0" r="1" gradientTransform="rotate(90 1.455 1.72) scale(5.82072)" gradientUnits="userSpaceOnUse"><stop offset="0" stop-color="#8FC8FF" style="stop-color:#747579;stop-opacity:1"/><stop offset="1" stop-color="#0056A8" style="stop-color:#191722;stop-opacity:1"/></radialGradient></defs><path fill="url(#a)" fill-rule="evenodd" d="M2.539.295a.312.312 0 0 0 .09-.012c.38-.025.76-.024 1.14.003.345.026.678.101 1 .224.536.22.903.603 1.1 1.148.114.328.18.665.2 1.012.029.435.019.869-.03 1.302a3.143 3.143 0 0 1-.236.879 1.87 1.87 0 0 1-1.094 1.008c-.409.139-.829.211-1.26.219a5.668 5.668 0 0 1-1.444-.11C1.13 5.773.59 5.24.385 4.366a5.04 5.04 0 0 1-.12-1.194c-.009-.428.037-.85.137-1.266C.617 1.09 1.135.584 1.957.39c.191-.047.385-.079.582-.094z" clip-rule="evenodd" style="fill:url(#a);stroke-width:.264578"/><g transform="matrix(.29743 0 0 .29743 .593 -82.498)"><path fill="#ff892c" d="M8.069 280.607a1.024 1.024 0 0 0-.727.301 1.025 1.025 0 0 0 0 1.453l2.854 2.854h-7.44a1.025 1.025 0 0 0-1.027 1.027 1.025 1.025 0 0 0 1.027 1.027c1.07-.003 2.587-.003 4.04-.003l-5.264 5.263a1.025 1.025 0 0 0 0 1.452 1.025 1.025 0 0 0 1.452 0c.773-.776 1.88-1.883 2.93-2.933a5.136 5.136 0 0 0 5.082 4.438c2.836 0 5.136-2.3 5.136-5.136a5.136 5.136 0 0 0-1.76-3.866 2564.902 2564.902 0 0 1-5.577-5.576 1.024 1.024 0 0 0-.726-.302zm2.987 8.521a1.199 1.199 0 1 1 0 2.398 1.199 1.199 0 0 1 0-2.398z"/><path fill="#fff" fill-opacity=".099" d="M11.052 286.38a3.946 3.946 0 0 0-3.946 3.946 3.946 3.946 0 0 0 3.946 3.946 3.946 3.946 0 0 0 3.945-3.946 3.946 3.946 0 0 0-3.945-3.946zm0 2.403a1.543 1.543 0 0 1 1.543 1.543 1.543 1.543 0 0 1-1.543 1.543 1.543 1.543 0 0 1-1.544-1.543 1.543 1.543 0 0 1 1.544-1.543z"/><path fill="#fff" d="M11.052 287.25a3.082 3.082 0 0 0-3.082 3.081 3.082 3.082 0 0 0 3.082 3.082 3.082 3.082 0 0 0 3.081-3.082 3.082 3.082 0 0 0-3.081-3.081zm0 1.876a1.205 1.205 0 0 1 1.205 1.205 1.205 1.205 0 0 1-1.205 1.205 1.205 1.205 0 0 1-1.206-1.205 1.205 1.205 0 0 1 1.206-1.205z"/><circle cx="11.052" cy="290.33" r="1.577" fill="#2e57b1" display="block" overflow="visible" paint-order="fill markers stroke" style="isolation:auto;mix-blend-mode:normal"/><path fill="#fff" d="M8.069 280.607a1.024 1.024 0 0 0-.727.301 1.025 1.025 0 0 0 0 1.453l2.854 2.854-2.127-4.609zm-6.095 4.916a1.024 1.024 0 0 0-.3.727 1.025 1.025 0 0 0 1.027 1.027h4.036zm-.656 7.62c0 .262.101.525.302.726a1.025 1.025 0 0 0 1.453 0l2.854-2.854z" opacity=".1"/></g></svg>