<svg xmlns="http://www.w3.org/2000/svg" xmlns:xlink="http://www.w3.org/1999/xlink" xml:space="preserve" id="svg11" width="24" height="24" fill="none" version="1.1"><defs id="defs9"><linearGradient id="linearGradient1820"><stop id="stop1816" offset="0" style="stop-color:#2c3d3d;stop-opacity:1"/><stop id="stop1818" offset="1" style="stop-color:#53676c;stop-opacity:1"/></linearGradient><linearGradient xlink:href="#linearGradient1820" id="linearGradient1936" x1="11.793" x2="11.865" y1="33.006" y2=".288" gradientTransform="matrix(.24444 0 0 .24444 -.222 -.222)" gradientUnits="userSpaceOnUse"/><linearGradient xlink:href="#linearGradient1820" id="linearGradient1940" x1="11.793" x2="11.865" y1="33.006" y2=".288" gradientUnits="userSpaceOnUse"/><linearGradient xlink:href="#linearGradient1820" id="linearGradient1942" x1="11.793" x2="11.865" y1="33.006" y2=".288" gradientUnits="userSpaceOnUse"/><linearGradient xlink:href="#linearGradient1820" id="linearGradient1944" x1="11.793" x2="11.865" y1="33.006" y2=".288" gradientUnits="userSpaceOnUse"/><linearGradient xlink:href="#linearGradient1820" id="linearGradient1946" x1="11.793" x2="11.865" y1="33.006" y2=".288" gradientUnits="userSpaceOnUse"/><linearGradient xlink:href="#linearGradient1820" id="linearGradient1948" x1="11.793" x2="11.865" y1="33.006" y2=".288" gradientUnits="userSpaceOnUse"/><linearGradient xlink:href="#linearGradient1820" id="linearGradient1950" x1="11.793" x2="11.865" y1="33.006" y2=".288" gradientUnits="userSpaceOnUse"/><linearGradient xlink:href="#linearGradient1820" id="linearGradient1952" x1="11.793" x2="11.865" y1="33.006" y2=".288" gradientUnits="userSpaceOnUse"/><linearGradient xlink:href="#linearGradient1820" id="linearGradient1954" x1="11.793" x2="11.865" y1="33.006" y2=".288" gradientUnits="userSpaceOnUse"/><linearGradient xlink:href="#linearGradient1820" id="linearGradient1956" x1="11.793" x2="11.865" y1="33.006" y2=".288" gradientUnits="userSpaceOnUse"/><linearGradient xlink:href="#linearGradient1820" id="linearGradient1958" x1="11.793" x2="11.865" y1="33.006" y2=".288" gradientUnits="userSpaceOnUse"/><linearGradient xlink:href="#linearGradient1820" id="linearGradient1960" x1="11.793" x2="11.865" y1="33.006" y2=".288" gradientUnits="userSpaceOnUse"/><linearGradient xlink:href="#linearGradient1820" id="linearGradient1962" x1="11.793" x2="11.865" y1="33.006" y2=".288" gradientUnits="userSpaceOnUse"/><linearGradient xlink:href="#linearGradient1820" id="linearGradient1964" x1="11.793" x2="11.865" y1="33.006" y2=".288" gradientUnits="userSpaceOnUse"/><linearGradient xlink:href="#linearGradient1820" id="linearGradient1966" x1="11.793" x2="11.865" y1="33.006" y2=".288" gradientUnits="userSpaceOnUse"/><linearGradient xlink:href="#linearGradient1820" id="linearGradient1968" x1="11.793" x2="11.865" y1="33.006" y2=".288" gradientUnits="userSpaceOnUse"/><style id="current-color-scheme" type="text/css">.ColorScheme-Background{color:#eff0f1}.ColorScheme-Highlight{color:#3daee9}.ColorScheme-ViewText{color:#31363b}.ColorScheme-ViewBackground{color:#fcfcfc}.ColorScheme-ViewHover{color:#93cee9}.ColorScheme-ViewFocus{color:#3daee9}.ColorScheme-ButtonText{color:#31363b}.ColorScheme-ButtonBackground{color:#eff0f1}.ColorScheme-ButtonHover{color:#93cee9}.ColorScheme-ButtonFocus{color:#3daee9}.ColorScheme-Text{color:#4d4d4d}</style></defs><path id="path6" d="M12 1C2 1 1 6 1 12c0 8 3 11 11 11s11-3 11-11c0-6-1-11-11-11Z" style="font-variation-settings:normal;display:inline;vector-effect:none;fill:url(#linearGradient1936);fill-opacity:1;stroke-width:1.11627;stroke-linecap:butt;stroke-linejoin:miter;stroke-miterlimit:4;stroke-dasharray:none;stroke-dashoffset:0;stroke-opacity:1;-inkscape-stroke:none;stop-color:#000"/><path id="path9843" fill="#ffb74f" d="M12 4.035A7.948 7.948 0 0 0 4.035 12H12z" style="stroke-width:.295112"/><path id="path9845" fill="#e26c5c" d="M12 4.035A7.948 7.948 0 0 1 19.965 12H12z" style="stroke-width:.295112"/><path id="path9847" fill="#4dce7a" d="M12 19.965A7.948 7.948 0 0 0 19.965 12H12z" style="stroke-width:.295112"/><path id="path9849" fill="#559bcb" d="M12 19.965A7.948 7.948 0 0 1 4.035 12H12z" style="stroke-width:.295112"/><circle id="circle7707" cx="12" cy="12" r="5.383" fill="#2c3d3d" style="stroke-width:.332415"/><path id="path7711" fill="#fff" d="m12.5 8.428-1.27.12v4.906l1.256-.171v-2.098l1.676 2.322 1.312-.396-1.717-2.23 1.731-2.11-1.34-.29-1.662 2.11ZM9.414 9.773a.1.1 0 0 0-.042.014l-.488.475c-.021.02-.03.055-.015.078l.573.898a2.276 2.276 0 0 0-.237.527l-1.061.211c-.03.008-.056.025-.056.054v.659c0 .027.027.059.056.065l1.033.239c.055.215.139.419.251.606l-.6.858c-.016.024-.008.058.014.079l.488.462c.021.018.06.029.084.014l.936-.542a2.524 2.524 0 0 0 .586.238l.224.99c.006.028.026.052.056.052h.698c.03 0 .063-.025.07-.053l.25-.99a2.612 2.612 0 0 0 .616-.25l.922.58c.025.016.061.008.083-.013l.489-.462c.02-.02.029-.055.014-.079l-.335-.527-.112.04c-.016.007-.033 0-.042-.014 0 0-.211-.302-.489-.686-.332.613-1.008 1.029-1.788 1.029-1.107 0-2.01-.84-2.01-1.887 0-.77.49-1.432 1.187-1.729v-.487a2.485 2.485 0 0 0-.363.145h-.014l-.936-.581a.072.072 0 0 0-.042-.012z" color="#4d4d4d" style="stroke-width:.246233"/></svg>