<svg xmlns="http://www.w3.org/2000/svg" xmlns:xlink="http://www.w3.org/1999/xlink" xml:space="preserve" id="svg11" width="24" height="24" fill="none" version="1.1"><defs id="defs9"><linearGradient id="linearGradient2945"><stop id="stop2941" offset="0" style="stop-color:#2076b0;stop-opacity:1"/><stop id="stop2943" offset="1" style="stop-color:#08b6eb;stop-opacity:1"/></linearGradient><linearGradient xlink:href="#linearGradient2945" id="linearGradient2947" x1="12.102" x2="12.051" y1="38.898" y2="-.763" gradientUnits="userSpaceOnUse"/><linearGradient xlink:href="#linearGradient2945" id="linearGradient4207" x1="12.102" x2="12.051" y1="38.898" y2="-.763" gradientUnits="userSpaceOnUse"/><linearGradient xlink:href="#linearGradient2945" id="linearGradient4209" x1="12.102" x2="12.051" y1="38.898" y2="-.763" gradientUnits="userSpaceOnUse"/><linearGradient xlink:href="#linearGradient2945" id="linearGradient4211" x1="12.102" x2="12.051" y1="38.898" y2="-.763" gradientUnits="userSpaceOnUse"/><linearGradient xlink:href="#linearGradient2945" id="linearGradient4213" x1="12.102" x2="12.051" y1="38.898" y2="-.763" gradientUnits="userSpaceOnUse"/><linearGradient xlink:href="#linearGradient2945" id="linearGradient4215" x1="12.102" x2="12.051" y1="38.898" y2="-.763" gradientUnits="userSpaceOnUse"/><linearGradient xlink:href="#linearGradient2945" id="linearGradient4217" x1="12.102" x2="12.051" y1="38.898" y2="-.763" gradientUnits="userSpaceOnUse"/><linearGradient xlink:href="#linearGradient2945" id="linearGradient4219" x1="12.102" x2="12.051" y1="38.898" y2="-.763" gradientUnits="userSpaceOnUse"/><linearGradient xlink:href="#linearGradient2945" id="linearGradient4221" x1="12.102" x2="12.051" y1="38.898" y2="-.763" gradientUnits="userSpaceOnUse"/><linearGradient xlink:href="#linearGradient2945" id="linearGradient4223" x1="12.102" x2="12.051" y1="38.898" y2="-.763" gradientUnits="userSpaceOnUse"/><linearGradient xlink:href="#linearGradient2945" id="linearGradient4225" x1="12.102" x2="12.051" y1="38.898" y2="-.763" gradientUnits="userSpaceOnUse"/><linearGradient xlink:href="#linearGradient2945" id="linearGradient4227" x1="12.102" x2="12.051" y1="38.898" y2="-.763" gradientUnits="userSpaceOnUse"/><linearGradient xlink:href="#linearGradient2945" id="linearGradient4229" x1="12.102" x2="12.051" y1="38.898" y2="-.763" gradientUnits="userSpaceOnUse"/><linearGradient xlink:href="#linearGradient2945" id="linearGradient4231" x1="12.102" x2="12.051" y1="38.898" y2="-.763" gradientUnits="userSpaceOnUse"/><linearGradient xlink:href="#linearGradient2945" id="linearGradient4233" x1="12.102" x2="12.051" y1="38.898" y2="-.763" gradientUnits="userSpaceOnUse"/><linearGradient xlink:href="#linearGradient2945" id="linearGradient4235" x1="12.102" x2="12.051" y1="38.898" y2="-.763" gradientUnits="userSpaceOnUse"/><linearGradient xlink:href="#linearGradient2945" id="linearGradient4237" x1="12.102" x2="12.051" y1="38.898" y2="-.763" gradientUnits="userSpaceOnUse"/><linearGradient xlink:href="#linearGradient2945" id="linearGradient4239" x1="12.102" x2="12.051" y1="38.898" y2="-.763" gradientUnits="userSpaceOnUse"/><style id="current-color-scheme" type="text/css">.ColorScheme-Background{color:#eff0f1}.ColorScheme-Highlight{color:#3daee9}.ColorScheme-ViewText{color:#31363b}.ColorScheme-ViewBackground{color:#fcfcfc}.ColorScheme-ViewHover{color:#93cee9}.ColorScheme-ViewFocus{color:#3daee9}.ColorScheme-ButtonText{color:#31363b}.ColorScheme-ButtonBackground{color:#eff0f1}.ColorScheme-ButtonHover{color:#93cee9}.ColorScheme-ButtonFocus{color:#3daee9}.ColorScheme-Text{color:#4d4d4d}</style></defs><g id="g365" style="fill:url(#linearGradient2947);fill-opacity:1"><g id="g2267" style="fill:url(#linearGradient4209);fill-opacity:1"><path id="path6" d="M50 5C9.09 5 5 25.455 5 50c0 32.727 12.273 45 45 45 32.727 0 45-12.273 45-45 0-24.545-4.09-45-45-45Z" style="font-variation-settings:normal;display:inline;opacity:1;vector-effect:none;fill:url(#linearGradient4207);fill-opacity:1;stroke-width:4.56656;stroke-linecap:butt;stroke-linejoin:miter;stroke-miterlimit:4;stroke-dasharray:none;stroke-dashoffset:0;stroke-opacity:1;-inkscape-stroke:none;stop-color:#000;stop-opacity:1" transform="matrix(.24444 0 0 .24444 -.222 -.222)"/></g></g><g id="g13229" transform="matrix(.43719 0 0 .43719 -127.544 -48.446)"><path id="path11535" fill="#fff" d="M307.644 124.953h7.103c.976 0 1.77.795 1.77 1.77v7.103a1.776 1.776 0 0 1-1.77 1.77h-7.103a1.776 1.776 0 0 1-1.77-1.77v-7.102c0-.976.795-1.77 1.77-1.77m15.97 15.97h7.103c.98 0 1.77.794 1.77 1.77v7.102a1.77 1.77 0 0 1-1.77 1.77h-7.103a1.77 1.77 0 0 1-1.77-1.77v-7.102c0-.976.795-1.77 1.77-1.77m0 0" style="stroke-width:5.02992"/><g id="g11543" fill="#ffcf36" transform="translate(276.595 -1313.041) scale(5.02992)"><path id="path11537" d="M5.82 288.533a.528.528 0 0 0-.528.53v2.116c0 .294.235.53.529.53h2.116c.294 0 .53-.236.53-.53v-2.116a.528.528 0 0 0-.53-.53m-2.116.265h2.116c.147 0 .265.118.265.265v2.116a.264.264 0 0 1-.265.265H5.821a.264.264 0 0 1-.265-.265v-2.116c0-.147.118-.265.265-.265m0 0"/><path id="path11539" d="M6.085 289.063h1.588c.146 0 .264.118.264.264v1.588a.265.265 0 0 1-.264.264H6.085a.265.265 0 0 1-.264-.264v-1.588c0-.146.119-.264.264-.264m2.911-3.705a.528.528 0 0 0-.53.53v2.116c0 .294.236.53.53.53h2.116c.294 0 .53-.236.53-.53v-2.116a.528.528 0 0 0-.53-.53m-2.116.265h2.116c.147 0 .265.118.265.265v2.116a.264.264 0 0 1-.265.265H8.996a.264.264 0 0 1-.265-.265v-2.116c0-.147.118-.265.265-.265m0 0"/><path id="path11541" d="M9.26 285.888h1.588c.146 0 .264.118.264.264v1.588a.265.265 0 0 1-.264.264H9.26a.265.265 0 0 1-.264-.264v-1.588c0-.146.119-.264.264-.264m0 0"/></g></g></svg>