<svg xmlns="http://www.w3.org/2000/svg" xmlns:xlink="http://www.w3.org/1999/xlink" xml:space="preserve" id="svg11" width="24" height="24" fill="none" version="1.1"><defs id="defs9"><linearGradient id="linearGradient4554"><stop id="stop4550" offset="0" style="stop-color:#4b92d6;stop-opacity:1"/><stop id="stop4552" offset="1" style="stop-color:#acf;stop-opacity:1"/></linearGradient><linearGradient xlink:href="#linearGradient4554" id="linearGradient4556" x1="13.22" x2="13.017" y1="35.542" y2="-5.39" gradientUnits="userSpaceOnUse"/><linearGradient xlink:href="#linearGradient4554" id="linearGradient7746" x1="13.22" x2="13.017" y1="35.542" y2="-5.39" gradientUnits="userSpaceOnUse"/><linearGradient xlink:href="#linearGradient4554" id="linearGradient7748" x1="13.22" x2="13.017" y1="35.542" y2="-5.39" gradientUnits="userSpaceOnUse"/><linearGradient xlink:href="#linearGradient4554" id="linearGradient7750" x1="13.22" x2="13.017" y1="35.542" y2="-5.39" gradientUnits="userSpaceOnUse"/><linearGradient xlink:href="#linearGradient4554" id="linearGradient7752" x1="13.22" x2="13.017" y1="35.542" y2="-5.39" gradientUnits="userSpaceOnUse"/><linearGradient xlink:href="#linearGradient4554" id="linearGradient7754" x1="13.22" x2="13.017" y1="35.542" y2="-5.39" gradientUnits="userSpaceOnUse"/><linearGradient xlink:href="#linearGradient4554" id="linearGradient7756" x1="13.22" x2="13.017" y1="35.542" y2="-5.39" gradientUnits="userSpaceOnUse"/><linearGradient xlink:href="#linearGradient4554" id="linearGradient7758" x1="13.22" x2="13.017" y1="35.542" y2="-5.39" gradientUnits="userSpaceOnUse"/><linearGradient xlink:href="#linearGradient4554" id="linearGradient7760" x1="13.22" x2="13.017" y1="35.542" y2="-5.39" gradientUnits="userSpaceOnUse"/><linearGradient xlink:href="#linearGradient4554" id="linearGradient7762" x1="13.22" x2="13.017" y1="35.542" y2="-5.39" gradientUnits="userSpaceOnUse"/><linearGradient xlink:href="#linearGradient4554" id="linearGradient7764" x1="13.22" x2="13.017" y1="35.542" y2="-5.39" gradientUnits="userSpaceOnUse"/><linearGradient xlink:href="#linearGradient4554" id="linearGradient7766" x1="13.22" x2="13.017" y1="35.542" y2="-5.39" gradientUnits="userSpaceOnUse"/><linearGradient xlink:href="#linearGradient4554" id="linearGradient7768" x1="13.22" x2="13.017" y1="35.542" y2="-5.39" gradientUnits="userSpaceOnUse"/><linearGradient xlink:href="#linearGradient4554" id="linearGradient7770" x1="13.22" x2="13.017" y1="35.542" y2="-5.39" gradientUnits="userSpaceOnUse"/><linearGradient xlink:href="#linearGradient4554" id="linearGradient7772" x1="13.22" x2="13.017" y1="35.542" y2="-5.39" gradientUnits="userSpaceOnUse"/><linearGradient xlink:href="#linearGradient4554" id="linearGradient7774" x1="13.22" x2="13.017" y1="35.542" y2="-5.39" gradientUnits="userSpaceOnUse"/><linearGradient xlink:href="#linearGradient4554" id="linearGradient7776" x1="13.22" x2="13.017" y1="35.542" y2="-5.39" gradientUnits="userSpaceOnUse"/><linearGradient xlink:href="#linearGradient4554" id="linearGradient7778" x1="13.22" x2="13.017" y1="35.542" y2="-5.39" gradientUnits="userSpaceOnUse"/><style id="current-color-scheme" type="text/css">.ColorScheme-Background{color:#eff0f1}.ColorScheme-Highlight{color:#3daee9}.ColorScheme-ViewText{color:#31363b}.ColorScheme-ViewBackground{color:#fcfcfc}.ColorScheme-ViewHover{color:#93cee9}.ColorScheme-ViewFocus{color:#3daee9}.ColorScheme-ButtonText{color:#31363b}.ColorScheme-ButtonBackground{color:#eff0f1}.ColorScheme-ButtonHover{color:#93cee9}.ColorScheme-ButtonFocus{color:#3daee9}.ColorScheme-Text{color:#4d4d4d}</style></defs><g id="g365" style="fill:url(#linearGradient4556);fill-opacity:1"><g id="g2267" style="fill:url(#linearGradient7748);fill-opacity:1"><path id="path6" d="M50 5C9.09 5 5 25.455 5 50c0 32.727 12.273 45 45 45 32.727 0 45-12.273 45-45 0-24.545-4.09-45-45-45Z" style="font-variation-settings:normal;display:inline;opacity:1;vector-effect:none;fill:url(#linearGradient7746);fill-opacity:1;stroke-width:4.56656;stroke-linecap:butt;stroke-linejoin:miter;stroke-miterlimit:4;stroke-dasharray:none;stroke-dashoffset:0;stroke-opacity:1;-inkscape-stroke:none;stop-color:#000;stop-opacity:1" transform="matrix(.24444 0 0 .24444 -.222 -.222)"/></g></g><g id="g4410" transform="matrix(.89986 0 0 .89986 -21.905 6.28)"><path id="path13353" fill="#fff" d="M37.535-2.798a9.218 9.218 0 0 0-2.035.259c-.172.154-.426.232-.711.225-.103.097-.079.28-.134.414-.048.112-.212.232-.325.223-.083-.007-.179-.124-.179-.202 0-.094.13-.146.06-.25a9.113 9.113 0 0 0-2.028 1.148c.166-.061.35-.164.5-.167a.27.27 0 0 1 .07.007c.102.028.37.32.147.415-.021.009-.327.042-.38.033-.077-.013-.123-.12-.202-.134-.131-.023-.298.113-.41.052A9.126 9.126 0 0 0 29.11 3.09c.053-.03.108-.063.156-.088.163-.085.301-.222.492-.235.094-.002.232.026.323.045.084.017.152.073.225.079.206.015.255-.146.423-.235.174.025.29-.03.448-.012.107.012.184.126.268.133.07.007.133-.066.2-.055.067.01.18.154.191.235.014.1-.073.19-.045.301.106.107.298.13.448.19.098-.08.013-.23 0-.347-.002-.051.007-.096 0-.144-.01-.08-.044-.154-.044-.224-.002-.318.256-.467.47-.592.092-.055.165-.15.245-.19.113-.058.198-.07.291-.124.17-.095.315-.172.447-.28.062-.144.007-.337.012-.48.062-.037.114.017.179.012.101-.022.11-.166.168-.223.034-.034.126-.057.168-.09.102-.08.135-.2.223-.235.032-.013.106-.009.156-.023.066-.018.16-.096.268-.133.07-.024.232-.03.258-.056.033-.033 0-.128.012-.178.054-.253.435-.306.66-.392.158-.059.32-.168.493-.135-.034.12-.195.078-.168.224.038.202.308-.058.38-.088.136-.058.37-.093.549-.157.157-.058.438-.146.29-.325-.124-.007-.183.145-.29.19-.075.012-.061-.06-.124-.067-.06-.007-.094.054-.155.044-.062-.01-.148-.107-.157-.178-.024-.187.157-.263.234-.403-.05-.168-.284-.034-.425-.1.014-.101.118-.17.235-.19.096-.016.312-.007.37.044.032.028.002.098.055.146.057.051.127.046.201.034.027-.127-.166-.096-.144-.18.15-.099.396-.017.58-.044.107-.016.22-.091.314-.145.09-.05.206-.14.302-.056.026.092-.083.122-.134.167a3.577 3.577 0 0 0-.48.504c.081.08.229.04.368.056.053.007.121.023.178.034.067.011.138.008.19.021.095.023.12.124.212.124.153 0 .155-.166.068-.27.028-.105.07-.159.034-.233-.069-.138-.322-.007-.335-.179-.009-.11.094-.107.134-.19-.018-.215.177-.23.156-.424-.01-.08-.078-.081-.134-.156-.03-.04-.043-.116-.078-.146-.117-.1-.355-.08-.37-.268-.001-.065.008-.122.014-.182-.108-.005-.214-.015-.323-.016zM33.179-.604c.052.007.116.063.178.068.06.002.11-.033.146-.023.094.025.133.166.045.235-.074.009-.102-.032-.157-.022-.152.026-.21.323-.323.313-.107-.009-.165-.27-.057-.347.008-.068-.049-.078-.045-.146.032-.041.124-.085.213-.078m-.504.035c.032.001.054.009.067.022-.015.119-.108.111-.2.167-.16.096-.252.242-.302.447-.015.06-.171.218-.247.202-.177-.037.05-.364.09-.414.044-.054.105-.104.157-.167.05-.061.085-.144.134-.179a.656.656 0 0 1 .301-.077m1.323.402c.057.001.108.01.13.033-.036.148-.353.109-.47.055.008-.055.094-.07.168-.077.051-.002.116-.012.172-.01m-.724.27a.407.407 0 0 1 .117.019c-.103.086-.215.135-.391.19-.085.027-.232.06-.247-.035-.018-.116.124-.088.202-.099.098-.014.205-.07.32-.074m11.229.166a.702.702 0 0 1-.014.255c-.03.12-.139.23-.134.336.008.053.066.106.08.178.007.039-.019.122 0 .157.056.11.211.017.313.033.099.016.213.158.212.269-.001.077-.074.205-.123.28-.098.148-.23.155-.37.233-.115.066-.166.177-.234.291-.074.124-.12.2-.09.38-.1.198-.251.32-.458.413-.062.028-.144.038-.2.078-.045.032-.071.12-.135.19-.078.087-.16.124-.202.19-.032.053-.042.155-.078.224-.047.095-.149.14-.212.235-.028.044-.047.133-.079.19-.07.13-.191.222-.178.335.013.11.137.129.145.224.002.054-.035.087-.033.146.002.086.06.146.067.212.017.166-.057.233-.088.346-.015.054-.009.114-.023.157-.028.083-.143.158-.146.257-.001.07.072.125.078.223.002.068-.034.14-.022.202.024.122.242.264.336.358.127.127.292.225.346.358.046.113.046.26.134.346.066.063.174.102.258.167.077.061.163.114.246.179.136.107.341.32.559.303.113-.009.23-.102.357-.124a1.72 1.72 0 0 1 .437-.022c.102.011.207.072.313.067.112-.007.24-.09.369-.145.201-.088.493-.197.788-.18.056-.412.095-.83.095-1.259a9.119 9.119 0 0 0-1.314-4.722c-.039-.003-.074-.008-.117-.007-.113.007-.3.007-.301-.134-.002-.116.109-.141.24-.15a9.139 9.139 0 0 0-.822-1.069M30.53 4.467c-.186.01-.307.019-.413.067-.242.11-.195.437-.437.514-.084.027-.198.028-.29.045-.079.014-.176.058-.258.056a.62.62 0 0 1-.323-.157c-.04-.043-.105-.193-.147-.292a9.36 9.36 0 0 0-.123.982c.02.004.04.01.057.01.106 0 .22-.11.337-.113.274-.008.393.348.614.458.055.027.128.029.2.045.058.013.102.037.157.056.119.04.263.036.358.078.143.063.247.33.37.402.006.072-.014.17.01.223.058.079.14.062.236.113.113.062.148.22.257.268.037.016.131.015.19.034.148.045.196.216.323.178.083-.025.077-.11.09-.19.056-.06.115-.155.202-.156.138-.007.15.144.202.279.028.076.103.143.123.223a2.08 2.08 0 0 1-.012.638c-.035.102-.173.145-.258.259-.04.052-.06.13-.09.167-.055.066-.137.084-.177.146-.023.034-.045.109-.068.155-.068.143-.158.243-.1.414.023.07.133.118.133.201 0 .098-.207.185-.223.291-.012.08.063.221.09.325.017.077.165.126.211.178.079.088.142.213.213.323.142.218.253.483.391.694.073.11.175.21.224.324.025.058.021.127.044.179.08.18.433.369.614.458.085.042.18.056.259.1.118.066.352.243.413.347.053.094.086.32.112.469.035.196.002.347.012.56.007.114.043.23.044.345.001.04-.02.07-.023.111-.002.14.035.296.023.437a.424.424 0 0 1-.009.08 9.17 9.17 0 0 0 3.574.718c.133 0 .262-.015.394-.02.003-.02.006-.042.01-.059.04-.113.145-.15.212-.235.051-.063.075-.137.123-.2.052-.07.1-.13.134-.19.033-.205-.081-.347-.033-.526.054-.2.33-.323.525-.414.067-.03.136-.082.19-.1.135-.048.302-.022.426-.067.209-.077.231-.301.334-.492.05-.09.113-.181.123-.245.009-.058-.02-.112-.012-.18.01-.068.071-.126.09-.201a1.57 1.57 0 0 0 .035-.346c0-.088-.041-.167-.045-.247-.014-.29.105-.322.212-.48.054-.078.073-.167.111-.223.18-.27.493-.398.47-.805-.007-.134-.091-.438-.19-.481-.057-.025-.186-.002-.268-.033-.264-.099-.42-.427-.694-.448-.058-.007-.112.025-.177.023-.108-.007-.272-.075-.393-.09-.076-.008-.177.024-.223 0-.07-.033-.077-.162-.134-.2-.045-.03-.132-.041-.2-.068-.11-.043-.199-.092-.325-.101-.04-.002-.088.019-.135.012-.07-.012-.125-.095-.19-.134-.081-.05-.157-.074-.19-.145.073-.24-.13-.308-.178-.447-.024-.065-.013-.144-.034-.202-.029-.083-.112-.131-.202-.2-.161-.125-.305-.242-.536-.27-.102-.013-.202.03-.325.022-.13-.008-.293-.122-.39-.233-.096-.108-.142-.206-.224-.258-.078-.05-.182-.05-.235-.1-.024-.022-.02-.06-.045-.112-.039-.081-.105-.126-.056-.224-.089-.045-.091.085-.189.068-.087-.123-.16-.181-.358-.146-.09.017-.14.132-.246.134-.087.008-.155-.096-.268-.112-.087-.012-.184.023-.246.012-.095-.02-.125-.099-.211-.156-.065-.042-.188-.114-.224-.113-.113.008-.192.24-.347.158-.076-.096.122-.146.033-.235-.068-.068-.125.03-.179.068-.062.043-.12.085-.189.111-.153.058-.249.027-.368.09-.112.057-.116.153-.179.268-.052.093-.17.23-.247.234-.093.008-.182-.13-.268-.167-.255-.111-.38.098-.592.1-.198.008-.479-.317-.469-.503.002-.113.065-.285.078-.425.011-.111.088-.178.09-.28.001-.136-.18-.24-.269-.257-.208-.038-.499.085-.738-.012-.046-.075.053-.128.079-.202.014-.042.007-.098.022-.144.026-.071.1-.126.134-.202.024-.058.03-.141.056-.212.03-.081.083-.134.09-.19a.25.25 0 0 0-.08-.212m2.99 2.366c.075.008.084.164.007.177-.084.013-.126-.13-.045-.169a.069.069 0 0 1 .038-.008" opacity=".25" style="fill:#1c2224;stroke-width:.338515"/><g id="g13363" fill="#fff" stroke-linejoin="bevel" transform="matrix(.29245 0 0 .29245 28.32 -3.003)"><g id="g13359" transform="matrix(1.0002 0 0 1.0003 19.97 4.978)"><path id="path13355" d="M11.03 9.02a2 2 0 0 0-1.145 3.637C8.419 17.084 5.74 24.31 3.03 27.02c0 0 3.977 6.02 3.977 10.02h10c0-4 4.02-10.02 4.02-10.02-2.71-2.71-5.387-9.934-6.854-14.361a2 2 0 0 0-1.146-3.639v18.27a2 2 0 1 1-2 .001V13.02Z"/><rect id="rect13357" width="10.02" height="5.05" x="7" y="39.96" opacity=".5" rx="0"/></g><path id="path13361" d="M27.001 42.01h10.002c.831 0 1.5.674 1.5 1.514s-.669 1.514-1.5 1.514H27.001c-.831 0-1.5-.675-1.5-1.514s.669-1.515 1.5-1.515" opacity=".75"/></g></g></svg>