<svg xmlns="http://www.w3.org/2000/svg" xmlns:xlink="http://www.w3.org/1999/xlink" xml:space="preserve" id="svg11" width="24" height="24" fill="none" version="1.1"><defs id="defs9"><linearGradient id="linearGradient8142"><stop id="stop8138" offset="0" style="stop-color:#0065fc;stop-opacity:1"/><stop id="stop8140" offset="1" style="stop-color:#80b3ff;stop-opacity:1"/></linearGradient><linearGradient xlink:href="#linearGradient8142" id="linearGradient8144" x1="12.407" x2="12.305" y1="39.356" y2="-7.932" gradientUnits="userSpaceOnUse"/><linearGradient xlink:href="#linearGradient8142" id="linearGradient8342" x1="12.407" x2="12.305" y1="39.356" y2="-7.932" gradientUnits="userSpaceOnUse"/><linearGradient xlink:href="#linearGradient8142" id="linearGradient8344" x1="12.407" x2="12.305" y1="39.356" y2="-7.932" gradientUnits="userSpaceOnUse"/><linearGradient xlink:href="#linearGradient8142" id="linearGradient8346" x1="12.407" x2="12.305" y1="39.356" y2="-7.932" gradientUnits="userSpaceOnUse"/><linearGradient xlink:href="#linearGradient8142" id="linearGradient8348" x1="12.407" x2="12.305" y1="39.356" y2="-7.932" gradientUnits="userSpaceOnUse"/><linearGradient xlink:href="#linearGradient8142" id="linearGradient8350" x1="12.407" x2="12.305" y1="39.356" y2="-7.932" gradientUnits="userSpaceOnUse"/><linearGradient xlink:href="#linearGradient8142" id="linearGradient8352" x1="12.407" x2="12.305" y1="39.356" y2="-7.932" gradientUnits="userSpaceOnUse"/><linearGradient xlink:href="#linearGradient8142" id="linearGradient8354" x1="12.407" x2="12.305" y1="39.356" y2="-7.932" gradientUnits="userSpaceOnUse"/><linearGradient xlink:href="#linearGradient8142" id="linearGradient8356" x1="12.407" x2="12.305" y1="39.356" y2="-7.932" gradientUnits="userSpaceOnUse"/><linearGradient xlink:href="#linearGradient8142" id="linearGradient8358" x1="12.407" x2="12.305" y1="39.356" y2="-7.932" gradientUnits="userSpaceOnUse"/><linearGradient xlink:href="#linearGradient8142" id="linearGradient8360" x1="12.407" x2="12.305" y1="39.356" y2="-7.932" gradientUnits="userSpaceOnUse"/><linearGradient xlink:href="#linearGradient8142" id="linearGradient8362" x1="12.407" x2="12.305" y1="39.356" y2="-7.932" gradientUnits="userSpaceOnUse"/><linearGradient xlink:href="#linearGradient8142" id="linearGradient8364" x1="12.407" x2="12.305" y1="39.356" y2="-7.932" gradientUnits="userSpaceOnUse"/><linearGradient xlink:href="#linearGradient8142" id="linearGradient8366" x1="12.407" x2="12.305" y1="39.356" y2="-7.932" gradientUnits="userSpaceOnUse"/><linearGradient xlink:href="#linearGradient8142" id="linearGradient8368" x1="12.407" x2="12.305" y1="39.356" y2="-7.932" gradientUnits="userSpaceOnUse"/><linearGradient xlink:href="#linearGradient8142" id="linearGradient8370" x1="12.407" x2="12.305" y1="39.356" y2="-7.932" gradientUnits="userSpaceOnUse"/><linearGradient xlink:href="#linearGradient8142" id="linearGradient8372" x1="12.407" x2="12.305" y1="39.356" y2="-7.932" gradientUnits="userSpaceOnUse"/><linearGradient xlink:href="#linearGradient8142" id="linearGradient8374" x1="12.407" x2="12.305" y1="39.356" y2="-7.932" gradientUnits="userSpaceOnUse"/><style id="current-color-scheme" type="text/css">.ColorScheme-Background{color:#eff0f1}.ColorScheme-Highlight{color:#3daee9}.ColorScheme-ViewText{color:#31363b}.ColorScheme-ViewBackground{color:#fcfcfc}.ColorScheme-ViewHover{color:#93cee9}.ColorScheme-ViewFocus{color:#3daee9}.ColorScheme-ButtonText{color:#31363b}.ColorScheme-ButtonBackground{color:#eff0f1}.ColorScheme-ButtonHover{color:#93cee9}.ColorScheme-ButtonFocus{color:#3daee9}.ColorScheme-Text{color:#4d4d4d}</style></defs><g id="g365" style="fill:url(#linearGradient8144);fill-opacity:1"><g id="g2267" style="fill:url(#linearGradient8344);fill-opacity:1"><path id="path6" d="M50 5C9.09 5 5 25.455 5 50c0 32.727 12.273 45 45 45 32.727 0 45-12.273 45-45 0-24.545-4.09-45-45-45Z" style="font-variation-settings:normal;display:inline;opacity:1;vector-effect:none;fill:url(#linearGradient8342);fill-opacity:1;stroke-width:4.56656;stroke-linecap:butt;stroke-linejoin:miter;stroke-miterlimit:4;stroke-dasharray:none;stroke-dashoffset:0;stroke-opacity:1;-inkscape-stroke:none;stop-color:#000;stop-opacity:1" transform="matrix(.24444 0 0 .24444 -.222 -.222)"/></g></g><path id="path13852" fill="#fff" d="M19.16 4.842c0-.02-.229.136-.51.347-2.635 1.988-5.929 3.726-7.773 4.102l-.348.072-.132.346c-.46 1.207-1.765 2.064-3.813 2.5-.323.069-.67.167-.77.218-.311.158-.672.52-.835.836-.132.256-.153.366-.133.713.017.292.057.446.14.536.11.12.387.184.317.073-.055-.088.205-.366.463-.495.416-.21 1.063-.308 1.74-.3.12.003.267.008.367.016a5.25 5.25 0 0 1 1.429.288c.225.084.415.185.57.298a5.213 5.213 0 0 1 1.47 1.125l.002-.044c.003-.292.013-.531.023-.531a.59.59 0 0 1 .081.166c.086.222.13.457.14.692.774.962 1.231 2.146 1.5 3.29.359-.61.698-1.418.7-1.748.002-.488.346.47.454 1.267l.075.551.136-.334c.228-.558.334-1.142.335-1.83 0-.355-.018-.703-.04-.773-.023-.07-.017-.128.013-.128.075 0 .667.593.819.82.143.213.154.12.036-.314-.31-1.147-1.202-2.228-2.474-3l-.49-.299.244-.007a2.785 2.785 0 0 0 .43-.048l.185-.041-.247-.083-.247-.083.395-.08c.218-.043.594-.17.834-.283l.438-.204-.556.022-.556.021.432-.143c.602-.2 1.756-.795 1.682-.868-.01-.01-.227.035-.48.1-.745.19-.823.148-.241-.129.567-.269 1.364-.775 1.756-1.115l.247-.213-.463.205c-.393.174-1.29.46-1.444.46-.025 0 .133-.091.352-.203.627-.322 1.194-.747 1.895-1.423l.648-.625-.525.272c-.496.258-1.543.72-1.543.682 0-.01.132-.11.293-.221.626-.435 1.734-1.584 2.39-2.479l.238-.325-.584.45c-.623.478-1.897 1.29-1.947 1.241-.017-.016.045-.079.138-.138.272-.176 1.473-1.509 2.132-2.368.337-.439.612-.814.612-.834z" style="stroke-width:.358012"/></svg>