<svg xmlns="http://www.w3.org/2000/svg" width="24" height="24" fill="none"><path fill="url(#a)" fill-rule="evenodd" d="M9.596 1.114c.12 0 .234-.014.344-.046a31.627 31.627 0 0 1 4.307.011c1.301.102 2.561.384 3.78.848 2.025.833 3.412 2.28 4.158 4.339.427 1.24.679 2.514.756 3.824a27.94 27.94 0 0 1-.114 4.923 11.88 11.88 0 0 1-.894 3.32c-.85 1.843-2.229 3.114-4.135 3.813a15.624 15.624 0 0 1-4.765.825 21.423 21.423 0 0 1-5.453-.413c-3.312-.737-5.354-2.756-6.128-6.056a19.047 19.047 0 0 1-.447-4.511 18.491 18.491 0 0 1 .515-4.786c.812-3.086 2.77-4.998 5.877-5.736a13.953 13.953 0 0 1 2.199-.355Z" clip-rule="evenodd"/><path fill="#CBCED1" d="M8.04 6.442s2.002 2.801 1.682 2.977c-.381.21-.711.492-.984.744l-1.627-.003v3.252l1.628.002s2.53.713 4.39.93c.372.043-6.018 3.25-6.018 3.25 1.593 0 15.407-3.38 14.874-6.544-1.223-1.872-5.559-2.668-5.559-2.668s-1.013-.077-1.543-.077c-1.068 0-2.05.108-2.92.302-.623-.482-3.922-2.165-3.922-2.165Z"/><path fill="#EA7D46" fill-rule="evenodd" d="M4.974 9.695c-.374.56-.07.804.326.85-.465.177-.775-.27-1.138-.377-.227-.067-.768.234-1.233-.008.169.464.837.127 1.065.34.107.1.526.575.23.954-.295.38-.585-.317-1.053-.365-.221-.022-.718.36-1.171.168.465.477.65.266.963.545.315.279.64.712.291 1.117-.22.254-.852.208-.79.493.106-.158.898-.006 1.179-.22.922-.574 1.453-.02.937.348-.152.1-.39-.05-.654-.025-.44.043-.924.234-1 .382.149-.043.513-.091.887.045.324.118.652.424.9.4.99-.097 1.27-1.214 2.398-.465V9.695c-.174.075-.343.284-1.027.399-.684.114-1.189.141-1.11-.399Z" clip-rule="evenodd"/><path fill="#373A3D" d="M8.505 10.16v-.465H6.647v4.182h1.858v-.465c2.788 0 4.67-1.04 4.647-1.626-.022-.576-1.858-1.626-4.647-1.626Zm7.91-1.779c-.062.415.23.9.816 1.355.586.454 1.42.843 2.33 1.087.853.228 1.713.313 2.423.238-.089-.563-.627-1.118-1.77-1.647-.977-.512-2.3-.881-3.8-1.033Z"/><defs><radialGradient id="a" cx="0" cy="0" r="1" gradientTransform="matrix(0 11 -11 0 12 1)" gradientUnits="userSpaceOnUse"><stop stop-color="#6EBBF7"/><stop offset="1" stop-color="#2196F3"/></radialGradient></defs></svg>