<svg xmlns="http://www.w3.org/2000/svg" width="24" height="24" fill="none"><path fill="url(#a)" fill-rule="evenodd" d="M9.596 1.114c.12 0 .234-.014.344-.046a31.627 31.627 0 0 1 4.307.011c1.301.102 2.561.384 3.78.848 2.025.833 3.412 2.28 4.158 4.339.427 1.24.679 2.514.756 3.824a27.94 27.94 0 0 1-.114 4.923 11.88 11.88 0 0 1-.894 3.32c-.85 1.843-2.229 3.114-4.135 3.813a15.624 15.624 0 0 1-4.765.825 21.423 21.423 0 0 1-5.453-.413c-3.312-.737-5.354-2.756-6.128-6.056a19.047 19.047 0 0 1-.447-4.511 18.491 18.491 0 0 1 .515-4.786c.812-3.086 2.77-4.998 5.877-5.736a13.953 13.953 0 0 1 2.199-.355Z" clip-rule="evenodd"/><path fill="#fff" d="M12 4a8 8 0 0 0-1.333.114v11.22c0 .369-.298.667-.667.667h-.667a.666.666 0 0 1-.666-.667V4.739A8 8 0 0 0 4 12a8 8 0 1 0 8-8Zm-.33 4c.055 0 .11.016.158.046l6 3.636a.35.35 0 0 1 .125.134.39.39 0 0 1 0 .368.349.349 0 0 1-.125.134l-6 3.636a.311.311 0 0 1-.33-.005.352.352 0 0 1-.12-.133.39.39 0 0 1-.044-.18V8.363a.394.394 0 0 1 .099-.258.332.332 0 0 1 .109-.078A.309.309 0 0 1 11.67 8Z"/><defs><radialGradient id="a" cx="0" cy="0" r="1" gradientTransform="matrix(0 11 -11 0 12 1)" gradientUnits="userSpaceOnUse"><stop stop-color="#FF7886"/><stop offset="1" stop-color="#DD5563"/></radialGradient></defs></svg>