<svg xmlns="http://www.w3.org/2000/svg" width="24" height="24" fill="none"><path fill="url(#a)" stroke="url(#b)" d="M22.442 10.12v.002a27.43 27.43 0 0 1-.112 4.834 11.376 11.376 0 0 1-.854 3.174c-.794 1.716-2.068 2.891-3.844 3.545-1.494.504-3.03.769-4.608.796h-.017a20.92 20.92 0 0 1-5.322-.401c-1.58-.353-2.827-1.003-3.77-1.935-.942-.931-1.606-2.17-1.976-3.744A18.546 18.546 0 0 1 1.505 12V11.98a17.991 17.991 0 0 1 .5-4.653c.387-1.468 1.039-2.63 1.942-3.513.905-.883 2.085-1.507 3.565-1.859h.003a13.453 13.453 0 0 1 2.1-.341c.138 0 .274-.017.407-.05a31.126 31.126 0 0 1 4.188.014c1.251.098 2.462.369 3.633.813 1.89.78 3.173 2.12 3.87 4.042a13.76 13.76 0 0 1 .729 3.686Z"/><path fill="#fff" d="M19 5 3 10.12l5.923 2.464 2.076.416.446 2.13L13.88 21 19 5ZM8.147 14.603c-.067.005-.153.02-.233.04-.607.16-1.488.811-1.96 1.451a4.102 4.102 0 0 0-.82 2.446c0 .242.01.284.081.314.082.035.768-.006 1.046-.064.803-.163 1.486-.54 2.097-1.152.384-.384.612-.702.835-1.166.145-.304.244-.673.193-.724-.01-.01-.09.037-.178.106-.662.425-1.19.732-1.941.88.194-.739.402-1.3.789-1.831.112-.151.204-.28.204-.288 0-.014-.047-.018-.113-.012Z"/><path fill="#C4F1E3" d="m3 10.12 5.923 2.463L11 13l8-8-16 5.12Z"/><defs><radialGradient id="a" cx="0" cy="0" r="1" gradientTransform="matrix(0 11 -11 0 12 1)" gradientUnits="userSpaceOnUse"><stop stop-color="#1ACB92"/><stop offset="1" stop-color="#00C586"/></radialGradient><linearGradient id="b" x1="12" x2="12" y1="1" y2="23" gradientUnits="userSpaceOnUse"><stop stop-color="#00C586"/><stop offset="1" stop-color="#00B576"/></linearGradient></defs></svg>