<svg xmlns="http://www.w3.org/2000/svg" width="24" height="24" fill="none"><path fill="url(#a)" fill-rule="evenodd" d="M9.596 1.114c.12 0 .234-.014.344-.046a31.627 31.627 0 0 1 4.307.011c1.301.102 2.561.384 3.78.848 2.025.833 3.412 2.28 4.158 4.339.427 1.24.679 2.514.756 3.824a27.94 27.94 0 0 1-.114 4.923 11.88 11.88 0 0 1-.894 3.32c-.85 1.843-2.229 3.114-4.135 3.813a15.624 15.624 0 0 1-4.765.825 21.423 21.423 0 0 1-5.453-.413c-3.312-.737-5.354-2.756-6.128-6.056a19.047 19.047 0 0 1-.447-4.511 18.491 18.491 0 0 1 .515-4.786c.812-3.086 2.77-4.998 5.877-5.736a13.953 13.953 0 0 1 2.199-.355Z" clip-rule="evenodd"/><path fill="url(#b)" fill-rule="evenodd" d="M10.314 3.055a.964.964 0 0 1-.28.038c-.608.049-1.208.146-1.8.29-2.542.605-4.144 2.169-4.808 4.694a15.129 15.129 0 0 0-.422 3.915 15.584 15.584 0 0 0 .365 3.691c.634 2.7 2.305 4.352 5.015 4.956 1.472.303 2.959.415 4.46.337a12.784 12.784 0 0 0 3.9-.674c1.56-.573 2.687-1.613 3.383-3.12.375-.87.619-1.775.731-2.717.15-1.34.181-2.682.094-4.028a11.67 11.67 0 0 0-.619-3.129c-.61-1.684-1.745-2.868-3.402-3.55-.997-.38-2.028-.61-3.093-.693a25.877 25.877 0 0 0-3.524-.01Z" clip-rule="evenodd"/><path fill="#424242" d="M7 6a1 1 0 0 0-1 1v10a1 1 0 0 0 1 1h3.25a1 1 0 0 0 1-1v-.625a1 1 0 0 0-1-1h-.625a1 1 0 0 1-1-1v-4.75a1 1 0 0 1 1-1h.625a1 1 0 0 0 1-1V7a1 1 0 0 0-1-1H7Zm6.75 0a1 1 0 0 0-1 1v.625a1 1 0 0 0 1 1h.625a1 1 0 0 1 1 1v4.75a1 1 0 0 1-1 1h-.625a1 1 0 0 0-1 1V17a1 1 0 0 0 1 1H17a1 1 0 0 0 1-1V7a1 1 0 0 0-1-1h-3.25Z"/><defs><radialGradient id="a" cx="0" cy="0" r="1" gradientTransform="matrix(0 11 -11 0 12 1)" gradientUnits="userSpaceOnUse"><stop stop-color="#6EBBF7"/><stop offset="1" stop-color="#2196F3"/></radialGradient><linearGradient id="b" x1="12" x2="12" y1="3" y2="21" gradientUnits="userSpaceOnUse"><stop stop-color="#FAFAFA"/><stop offset="1" stop-color="#CCC"/></linearGradient></defs></svg>