<svg xmlns="http://www.w3.org/2000/svg" width="24" height="24" fill="none"><path fill="url(#a)" fill-rule="evenodd" d="M9.596 1.114c.12 0 .234-.014.344-.046a31.627 31.627 0 0 1 4.307.011c1.301.102 2.561.384 3.78.848 2.025.833 3.412 2.28 4.158 4.339.427 1.24.679 2.514.756 3.824a27.94 27.94 0 0 1-.114 4.923 11.88 11.88 0 0 1-.894 3.32c-.85 1.843-2.229 3.114-4.135 3.813a15.624 15.624 0 0 1-4.765.825 21.423 21.423 0 0 1-5.453-.413c-3.312-.737-5.354-2.756-6.128-6.056a19.047 19.047 0 0 1-.447-4.511 18.491 18.491 0 0 1 .515-4.786c.812-3.086 2.77-4.998 5.877-5.736a13.953 13.953 0 0 1 2.199-.355Z" clip-rule="evenodd"/><path fill="#F06246" fill-rule="evenodd" d="M18.491 7.183h-.021a12.52 12.52 0 0 0-.971-.981 1.535 1.535 0 0 0-.981-.291c-.256-.021-.49.04-.701.183a.054.054 0 0 1-.065 0 106.88 106.88 0 0 1-1.272-1.283A186.835 186.835 0 0 0 9.562 4.8c-.416.438-.84.87-1.272 1.294a.054.054 0 0 1-.065 0 1.087 1.087 0 0 0-.539-.173 1.474 1.474 0 0 0-1.25.367c-.293.296-.587.587-.885.874h-.022A1.77 1.77 0 0 1 5.4 6.87a.336.336 0 0 1 .075-.161c.328-.356.67-.698 1.025-1.025.327-.261.701-.37 1.121-.323.234.014.45.082.647.205.427-.438.859-.873 1.294-1.305a280.05 280.05 0 0 1 4.918 0c.435.432.867.867 1.294 1.305.341-.201.708-.262 1.1-.184.27.048.507.163.711.345a33.5 33.5 0 0 1 1.003 1.025c.024.04.042.084.054.13l-.151.301Z" clip-rule="evenodd"/><path fill="#ED5132" fill-rule="evenodd" d="M18.47 7.183a10.34 10.34 0 0 0-.27.604.14.14 0 0 0 0 .108.911.911 0 0 1 .075.237.64.64 0 0 1-.075.194.14.14 0 0 0 0 .108c.113.32.231.637.356.949a300.629 300.629 0 0 1-1.736 6.707c-.233.513-.581.926-1.046 1.24a87.528 87.528 0 0 1-3.43 2.308.94.94 0 0 1-.884-.13 125.768 125.768 0 0 1-3.256-2.22A2.856 2.856 0 0 1 7.05 15.55a248.066 248.066 0 0 1-1.564-6.125l.367-1.035a1.575 1.575 0 0 1-.086-.28l.086-.28a4.898 4.898 0 0 0-.302-.67c.298-.286.592-.577.884-.873a1.474 1.474 0 0 1 1.251-.367c.195.01.375.068.54.173a.054.054 0 0 0 .064 0c.432-.425.856-.856 1.272-1.294 1.64-.018 3.279-.014 4.918.01.42.432.844.86 1.272 1.284a.054.054 0 0 0 .065 0c.211-.143.445-.204.7-.183.363-.015.69.082.982.29.342.31.666.638.97.982Z" clip-rule="evenodd"/><path fill="#FEFEFE" fill-rule="evenodd" d="M17.52 9.771c-.055.084-.12.164-.194.237-.674.6-1.34 1.21-1.995 1.834-.012.169.02.327.098.474.074.191.142.385.204.582.016.146.005.29-.032.432a2.604 2.604 0 0 1-.27.474l-.593.55a.302.302 0 0 1-.28.065 7.562 7.562 0 0 1-2.049-1.434 62.68 62.68 0 0 1-.183-.238.294.294 0 0 1 .043-.194c.432-.385.86-.773 1.283-1.164a.32.32 0 0 0 .119-.28c-.13-.352-.27-.697-.42-1.036-.128-.298-.07-.554.172-.766a37.64 37.64 0 0 1 1.121-.463c.374-.121.741-.262 1.1-.42a8.776 8.776 0 0 0-1.197-.141 1.688 1.688 0 0 0-.55.097c-.342.117-.68.246-1.013.388a.32.32 0 0 0-.108.205c.024.14.052.277.086.41.105.49.216.979.334 1.466a.305.305 0 0 1-.032.238c-.358.154-.732.24-1.121.258a3.856 3.856 0 0 1-1.143-.237.207.207 0 0 0-.054-.043.78.78 0 0 1 0-.259c.113-.488.225-.977.334-1.466.026-.116.055-.231.086-.345a.337.337 0 0 0-.086-.205c-.41-.175-.827-.333-1.251-.475a7.06 7.06 0 0 0-1.402.065.496.496 0 0 0-.108.043c.364.178.738.332 1.122.464.372.132.739.28 1.1.442.2.198.25.431.15.7-.13.33-.263.661-.398.993a.427.427 0 0 0 .075.367c.06.07.125.139.194.205a9.39 9.39 0 0 1 1.133 1.002.352.352 0 0 1 0 .173.8.8 0 0 1-.162.216c-.31.306-.648.575-1.014.808-.413.181-.8.4-1.164.658a.418.418 0 0 1-.173-.097 10.36 10.36 0 0 0-.571-.55 2.602 2.602 0 0 1-.27-.474 1.106 1.106 0 0 1-.032-.453c.066-.189.134-.376.204-.561a.797.797 0 0 0 .076-.496 90.072 90.072 0 0 0-1.736-1.585c-.135-.13-.264-.264-.388-.4a.667.667 0 0 1-.054-.409c.091-.334.235-.643.431-.927A34.53 34.53 0 0 1 8.441 6.46c.122.004.245.018.367.043.455.138.915.257 1.38.356.326-.08.65-.17.97-.27a2.563 2.563 0 0 1 1.338-.086l1.326.356c.488-.107.973-.226 1.456-.356.107-.025.215-.04.323-.043a20.647 20.647 0 0 1 1.8 2.383c.13.297.17.607.12.927Z" clip-rule="evenodd"/><path fill="#CDCACA" fill-rule="evenodd" d="M5.53 7.162h.021c.117.215.218.437.302.668-.03.094-.058.188-.086.28h-.022a6.517 6.517 0 0 0-.334-.625.273.273 0 0 1 .108-.259.106.106 0 0 0 .01-.064ZM18.47 7.183h.021a.426.426 0 0 1 .14.302c-.14.2-.251.416-.334.647h-.022a.911.911 0 0 0-.075-.237.14.14 0 0 1 0-.108c.084-.205.174-.407.27-.604Z" clip-rule="evenodd"/><path fill="#F06549" fill-rule="evenodd" d="M18.275 8.132h.022c.117.326.232.653.345.981-.03.089-.051.178-.065.27h-.021a24.412 24.412 0 0 1-.356-.949.14.14 0 0 1 0-.108.643.643 0 0 0 .075-.194ZM5.745 8.11h.022c.02.096.048.19.086.28l-.367 1.036h-.021a1.475 1.475 0 0 1-.054-.367c.118-.314.23-.63.334-.949Z" clip-rule="evenodd"/><path fill="#BF432A" fill-rule="evenodd" d="M11.18 9.34c-.42-.185-.851-.346-1.294-.485a1.062 1.062 0 0 0-.302 0 .071.071 0 0 0-.043.032 9.795 9.795 0 0 1-1.122-.464.496.496 0 0 1 .108-.043 7.06 7.06 0 0 1 1.402-.065c.424.142.84.3 1.25.475.053.058.081.126.087.205-.031.114-.06.229-.086.345Z" clip-rule="evenodd"/><path fill="#BE432A" fill-rule="evenodd" d="M14.544 8.844a1.869 1.869 0 0 0-.539.054c-.38.12-.755.26-1.121.42a.067.067 0 0 0-.022.065 5.118 5.118 0 0 1-.086-.41.32.32 0 0 1 .108-.205 14.4 14.4 0 0 1 1.013-.388c.178-.063.361-.095.55-.097.405.02.804.066 1.197.14-.359.16-.726.3-1.1.42Z" clip-rule="evenodd"/><path fill="#ED5233" fill-rule="evenodd" d="M11.18 9.34c-.11.489-.22.978-.334 1.466a.78.78 0 0 0 0 .26c.021.011.039.026.053.042-.03.128-.052.257-.064.388-.005.055.01.101.043.14.394.16.804.25 1.23.27a4.39 4.39 0 0 0 1.056-.27.162.162 0 0 0 .043-.129c-.023-.11-.044-.222-.065-.334.003-.03.01-.06.022-.086a.305.305 0 0 0 .032-.238c-.118-.487-.23-.976-.334-1.466a.067.067 0 0 1 .022-.065c.366-.16.74-.3 1.121-.42.177-.044.357-.062.54-.054a37.64 37.64 0 0 0-1.122.463c-.243.212-.3.468-.173.766a.12.12 0 0 0-.032.065 1.217 1.217 0 0 0 0 .323c.105.312.217.621.334.928-.423.39-.851.779-1.283 1.164a.294.294 0 0 0-.043.194l.183.238c-.163.088-.21.217-.14.388.218.228.444.444.68.647a7.704 7.704 0 0 1-.518-.205 1.11 1.11 0 0 0-.561-.086c-.258.082-.51.179-.755.29.207-.195.419-.403.636-.625.098-.175.059-.312-.118-.41a.8.8 0 0 0 .162-.215.352.352 0 0 0 0-.173 9.39 9.39 0 0 0-1.133-1.002 2.595 2.595 0 0 1-.194-.205c.13-.305.248-.614.356-.928a1.06 1.06 0 0 0-.032-.431c.1-.27.049-.503-.151-.701-.361-.162-.728-.31-1.1-.442a.071.071 0 0 1 .043-.032c.1-.015.201-.015.302 0 .443.139.874.3 1.294.485Z" clip-rule="evenodd"/><path fill="#CDCACA" fill-rule="evenodd" d="M18.556 9.383h.021c0 .098.021.192.065.28a321.759 321.759 0 0 1-1.822 6.988 3.114 3.114 0 0 1-1.003 1.197 95.788 95.788 0 0 1-3.494 2.35.894.894 0 0 1-.776-.086 80.462 80.462 0 0 1-3.58-2.458 3.001 3.001 0 0 1-.766-1.046c-.63-2.313-1.23-4.635-1.801-6.966a.931.931 0 0 0 .065-.216h.021c.496 2.049 1.017 4.09 1.564 6.125a2.856 2.856 0 0 0 1.154 1.736 125.75 125.75 0 0 0 3.256 2.222.94.94 0 0 0 .884.129 87.528 87.528 0 0 0 3.43-2.308 2.926 2.926 0 0 0 1.046-1.24c.604-2.23 1.183-4.465 1.736-6.707Z" clip-rule="evenodd"/><path fill="#BE4229" fill-rule="evenodd" d="M17.52 9.771c.02.158.024.316.011.475a.55.55 0 0 1-.086.194l-1.866 1.693a.606.606 0 0 0-.15.183.857.857 0 0 1-.098-.475 79.836 79.836 0 0 1 1.995-1.833c.075-.073.14-.153.195-.237ZM6.565 9.836c.124.135.253.268.388.399.585.52 1.164 1.049 1.736 1.585a.797.797 0 0 1-.076.496 7.033 7.033 0 0 0-.323-.334 76.347 76.347 0 0 1-1.607-1.456.583.583 0 0 1-.118-.69Z" clip-rule="evenodd"/><path fill="#BF442B" fill-rule="evenodd" d="M10.792 10.03c.04.14.05.285.032.431-.108.314-.227.623-.356.928a.427.427 0 0 1-.075-.367c.135-.332.268-.663.399-.992Z" clip-rule="evenodd"/><path fill="#BF452C" fill-rule="evenodd" d="M13.25 10.073c.15.339.29.684.42 1.035a.32.32 0 0 1-.118.28 23.43 23.43 0 0 1-.334-.927 1.217 1.217 0 0 1 0-.323.12.12 0 0 1 .032-.065Z" clip-rule="evenodd"/><path fill="#BE4229" fill-rule="evenodd" d="M13.164 11.087a.268.268 0 0 0-.021.086c.02.112.041.223.064.334a.162.162 0 0 1-.043.13 4.39 4.39 0 0 1-1.057.27 3.754 3.754 0 0 1-1.229-.27.185.185 0 0 1-.043-.14c.012-.132.034-.261.064-.389.369.137.75.216 1.144.237.39-.018.763-.104 1.121-.258ZM12.41 12.985a7.562 7.562 0 0 0 2.048 1.434.302.302 0 0 0 .28-.065l.594-.55c.107-.15.197-.308.27-.474.074.368-.008.699-.249.992a9.54 9.54 0 0 1-.55.528.889.889 0 0 1-.194.13.14.14 0 0 1-.108 0l-.28-.12c.088-.075.081-.144-.022-.204-.415-.219-.832-.43-1.25-.636a9.546 9.546 0 0 1-.68-.647c-.07-.17-.023-.3.14-.388ZM11.633 12.985c.177.097.216.234.118.41-.217.22-.43.43-.636.625-.454.204-.897.434-1.326.69a.19.19 0 0 0-.032.108 2.726 2.726 0 0 0-.26.162.14.14 0 0 1-.107 0c-.191-.185-.39-.36-.593-.529a1.693 1.693 0 0 1-.388-.69 1.06 1.06 0 0 1 .032-.431c.072.166.162.324.27.474.198.177.388.36.571.55.05.046.107.079.173.097a6.597 6.597 0 0 1 1.164-.658 6.097 6.097 0 0 0 1.014-.808Z" clip-rule="evenodd"/><path fill="#FEFEFD" fill-rule="evenodd" d="M12.948 14.02c.419.205.836.417 1.251.636.103.06.11.129.022.205a1.88 1.88 0 0 0-.259.215c-.428.295-.859.586-1.294.874l-.323.28a.857.857 0 0 1-.324.162.446.446 0 0 1-.237-.097 4.154 4.154 0 0 1-.388-.323c-.442-.295-.88-.593-1.316-.896a1.422 1.422 0 0 1-.323-.258.19.19 0 0 1 .032-.108c.43-.256.872-.486 1.326-.69.245-.112.497-.209.755-.291.194-.02.38.009.56.086.171.075.344.143.518.205Z" clip-rule="evenodd"/><path fill="#BE4128" fill-rule="evenodd" d="M10.08 15.076c.435.303.874.6 1.316.896.123.115.252.223.388.323.07.055.148.088.237.097a.857.857 0 0 0 .323-.162l.324-.28c.435-.288.866-.58 1.294-.873.11.056.213.12.313.194a.26.26 0 0 1-.097.183c-.5.368-1.01.72-1.532 1.057a4.67 4.67 0 0 1-.41.345c-.175.11-.34.095-.495-.043l-.324-.28A21.22 21.22 0 0 1 9.79 15.4a.115.115 0 0 1-.022-.108c.093-.09.197-.163.313-.216Z" clip-rule="evenodd"/><defs><radialGradient id="a" cx="0" cy="0" r="1" gradientTransform="matrix(0 22 -22 0 12 1)" gradientUnits="userSpaceOnUse"><stop stop-color="#FAFAFA"/><stop offset="1" stop-color="silver"/></radialGradient></defs></svg>