<svg xmlns="http://www.w3.org/2000/svg" xml:space="preserve" width="24" height="24"><defs><radialGradient id="e" cx="0" cy="0" r="1" gradientTransform="matrix(0 22 -22 0 12 1)" gradientUnits="userSpaceOnUse"><stop stop-color="#FAFAFA"/><stop offset="1" stop-color="silver" style="stop-color:#fca62b;stop-opacity:.96862745"/></radialGradient><radialGradient id="b" cx="0" cy="0" r="1" fx="0" fy="0" gradientUnits="userSpaceOnUse" spreadMethod="pad"><stop offset="0" style="stop-opacity:1;stop-color:#fff"/><stop offset="1" style="stop-opacity:.96862745;stop-color:#fff"/></radialGradient><radialGradient id="d" cx="0" cy="0" r="1" fx="0" fy="0" gradientUnits="userSpaceOnUse" spreadMethod="pad"><stop offset="0" style="stop-opacity:1;stop-color:#fff"/><stop offset="1" style="stop-opacity:.96862745;stop-color:#fff"/></radialGradient><radialGradient id="h" cx="0" cy="0" r="1" fx="0" fy="0" gradientUnits="userSpaceOnUse" spreadMethod="pad"><stop offset="0" style="stop-opacity:1;stop-color:#fafafa"/><stop offset="1" style="stop-opacity:1;stop-color:#fca62b"/></radialGradient><clipPath id="a" clipPathUnits="userSpaceOnUse"><path d="M-.045-.545h1.09v1.09h-1.09z"/></clipPath><clipPath id="f" clipPathUnits="userSpaceOnUse"><path d="M7.195.836c.09 0 .176-.012.258-.035a23.86 23.86 0 0 1 3.231.008 10.26 10.26 0 0 1 2.836.636c1.519.625 2.558 1.711 3.121 3.254.316.93.507 1.887.566 2.867a21.227 21.227 0 0 1-.086 3.696 8.976 8.976 0 0 1-.672 2.488c-.637 1.383-1.672 2.336-3.101 2.859a11.693 11.693 0 0 1-3.575.618 15.998 15.998 0 0 1-4.089-.309c-2.481-.551-4.016-2.066-4.594-4.543a14.244 14.244 0 0 1-.336-3.383c-.027-1.211.101-2.41.387-3.59.609-2.312 2.078-3.746 4.406-4.3A10.27 10.27 0 0 1 7.195.836Z" clip-rule="evenodd"/></clipPath><clipPath id="c" clipPathUnits="userSpaceOnUse"><path d="M-.045-.545h1.09v1.09h-1.09z"/></clipPath><mask id="g" width="1" height="1" x="0" y="0" maskUnits="userSpaceOnUse"><g clip-path="url(#c)"><path d="M-.045-.545h1.09v1.09h-1.09z" style="fill:url(#d);stroke:none"/></g></mask></defs><path fill="url(#e)" fill-rule="evenodd" d="M9.596 1.114c.12 0 .234-.014.344-.046a31.627 31.627 0 0 1 4.307.011c1.301.102 2.561.384 3.78.848 2.025.833 3.412 2.28 4.158 4.339.427 1.24.679 2.514.756 3.824a27.94 27.94 0 0 1-.115 4.923 11.88 11.88 0 0 1-.893 3.32c-.85 1.843-2.229 3.114-4.135 3.813a15.624 15.624 0 0 1-4.766.825 21.423 21.423 0 0 1-5.452-.412c-3.312-.738-5.354-2.757-6.128-6.057a19.047 19.047 0 0 1-.447-4.511 18.491 18.491 0 0 1 .515-4.786c.812-3.086 2.77-4.998 5.877-5.736a13.953 13.953 0 0 1 2.199-.355z" clip-rule="evenodd" style="fill:url(#e)"/><g clip-path="url(#f)" transform="matrix(1.33333 0 0 1.33333 -.02 -.249)"><g mask="url(#g)" transform="matrix(0 16.5 -16.5 0 9 .75)"><path d="M7.195.836c.09 0 .176-.012.258-.035a23.86 23.86 0 0 1 3.231.008 10.26 10.26 0 0 1 2.836.636c1.519.625 2.558 1.711 3.121 3.254.316.93.507 1.887.566 2.867a21.227 21.227 0 0 1-.086 3.696 8.976 8.976 0 0 1-.672 2.488c-.637 1.383-1.672 2.336-3.101 2.859a11.693 11.693 0 0 1-3.575.618 15.998 15.998 0 0 1-4.089-.309c-2.481-.551-4.016-2.066-4.594-4.543a14.244 14.244 0 0 1-.336-3.383c-.027-1.211.101-2.41.387-3.59.609-2.312 2.078-3.746 4.406-4.3A10.27 10.27 0 0 1 7.195.836Z" style="fill:url(#h);fill-rule:evenodd;stroke:none"/></g></g><path d="M13.867 5.387h-.015a8.691 8.691 0 0 0-.727-.735 1.152 1.152 0 0 0-.738-.218.8.8 0 0 0-.524.136c-.015.012-.031.012-.051 0-.32-.316-.636-.64-.953-.961-1.23-.019-2.457-.023-3.687-.007a45.73 45.73 0 0 1-.953.968.04.04 0 0 1-.051 0 .82.82 0 0 0-.402-.129 1.105 1.105 0 0 0-.938.274c-.219.223-.441.441-.664.656h-.016a1.074 1.074 0 0 1-.097-.219.267.267 0 0 1 .054-.121c.247-.265.504-.523.77-.769a1.1 1.1 0 0 1 .84-.242c.176.011.34.062.488.156.317-.328.641-.656.969-.981 1.23-.011 2.457-.011 3.687 0 .329.325.653.653.973.981.254-.153.531-.199.824-.141.203.039.379.125.532.262.257.25.507.508.753.765.02.032.032.063.039.098-.035.078-.074.152-.113.227z" style="fill:#bf08ca;fill-opacity:1;fill-rule:evenodd;stroke:none" transform="matrix(1.33333 0 0 1.33333 -.02 -.249)"/><path d="M13.852 5.387a9.208 9.208 0 0 0-.204.453.163.163 0 0 0 0 .082.702.702 0 0 1 .059.176.533.533 0 0 1-.059.148.147.147 0 0 0 0 .078c.086.242.176.481.27.715-.414 1.68-.852 3.356-1.305 5.027a2.152 2.152 0 0 1-.781.93 63.208 63.208 0 0 1-2.574 1.731.71.71 0 0 1-.664-.094 93.084 93.084 0 0 1-2.442-1.668 2.134 2.134 0 0 1-.863-1.301A188.51 188.51 0 0 1 4.113 7.07c.094-.258.184-.519.278-.777a1.294 1.294 0 0 1-.067-.211c.024-.07.043-.141.067-.211a3.885 3.885 0 0 0-.227-.5c.223-.215.445-.433.664-.656.266-.235.578-.328.938-.274a.82.82 0 0 1 .402.129.04.04 0 0 0 .051 0c.324-.32.64-.64.953-.968 1.23-.016 2.457-.012 3.687.007.317.321.633.645.953.961.02.012.036.012.051 0a.8.8 0 0 1 .524-.136c.273-.012.519.062.738.218.258.231.5.477.727.735z" style="fill:#9d2ea4;fill-opacity:1;fill-rule:evenodd;stroke:none" transform="matrix(1.33333 0 0 1.33333 -.02 -.249)"/><path d="M13.141 7.328c-.043.063-.09.121-.145.18-.508.449-1.008.906-1.496 1.375a.628.628 0 0 0 .07.355c.059.141.11.289.157.434a.844.844 0 0 1-.028.324 1.8 1.8 0 0 1-.199.356c-.148.14-.297.277-.445.414a.23.23 0 0 1-.211.046 5.607 5.607 0 0 1-1.535-1.074 6.992 6.992 0 0 1-.141-.179.244.244 0 0 1 .035-.145c.324-.289.645-.578.961-.871a.243.243 0 0 0 .09-.211 12.738 12.738 0 0 0-.316-.777.466.466 0 0 1 .128-.575 25.9 25.9 0 0 1 .844-.347c.278-.09.555-.195.824-.317a7.117 7.117 0 0 0-.898-.105 1.356 1.356 0 0 0-.414.074 9.05 9.05 0 0 0-.758.293.228.228 0 0 0-.082.152c.02.106.039.208.066.309.079.367.161.731.25 1.098a.234.234 0 0 1-.023.179c-.27.114-.551.18-.844.192a2.894 2.894 0 0 1-.855-.176.188.188 0 0 0-.043-.031.803.803 0 0 1 0-.196c.086-.367.172-.734.254-1.101.019-.086.039-.172.062-.258a.268.268 0 0 0-.062-.152c-.309-.133-.621-.25-.942-.356a5.279 5.279 0 0 0-1.05.047.565.565 0 0 0-.079.031c.27.133.551.25.84.348.278.102.555.211.824.332a.465.465 0 0 1 .114.527c-.098.247-.199.493-.301.743a.33.33 0 0 0 .059.277c.043.051.093.102.144.152.305.227.586.481.852.754a.399.399 0 0 1 0 .129.75.75 0 0 1-.125.16 4.355 4.355 0 0 1-.758.606 4.894 4.894 0 0 0-.875.496.364.364 0 0 1-.129-.074 8.024 8.024 0 0 0-.43-.414 2.029 2.029 0 0 1-.199-.356.9.9 0 0 1-.027-.34c.05-.14.101-.281.156-.418a.59.59 0 0 0 .055-.375c-.43-.402-.864-.797-1.301-1.187a6.903 6.903 0 0 1-.293-.301.504.504 0 0 1-.039-.305c.07-.25.176-.484.324-.695.355-.523.731-1.035 1.125-1.531.09.004.184.015.273.035.34.101.688.191 1.036.266.246-.059.488-.129.726-.204a1.916 1.916 0 0 1 1.004-.062c.332.09.664.176.996.266.363-.079.731-.168 1.09-.266.082-.02.164-.031.242-.035.496.566.946 1.16 1.352 1.789.097.222.125.457.09.695z" style="fill:#fefefe;fill-opacity:1;fill-rule:evenodd;stroke:none" transform="matrix(1.33333 0 0 1.33333 -.02 -.249)"/><path d="M4.148 5.371h.016c.086.16.164.328.227.5-.024.07-.043.141-.067.211h-.015a6.02 6.02 0 0 0-.25-.469.202.202 0 0 1 .082-.195c.007-.012.007-.031.007-.047ZM13.852 5.387h.015c.067.062.102.14.106.226a2.084 2.084 0 0 0-.25.485h-.016a.702.702 0 0 0-.059-.176.163.163 0 0 1 0-.082c.063-.152.133-.305.204-.453z" style="fill:#343232;fill-opacity:.2;fill-rule:evenodd;stroke:none" transform="matrix(1.33333 0 0 1.33333 -.02 -.249)"/><path d="M13.707 6.098h.016c.086.246.175.492.257.738-.019.066-.039.133-.046.203h-.016a18.886 18.886 0 0 1-.27-.715.147.147 0 0 1 0-.078.533.533 0 0 0 .059-.148zM4.309 6.082h.015c.016.074.039.141.067.211-.094.258-.184.519-.278.777h-.015a1.077 1.077 0 0 1-.039-.277c.089-.234.171-.473.25-.711Z" style="fill:#bf08ca;fill-opacity:1;fill-rule:evenodd;stroke:none" transform="matrix(1.33333 0 0 1.33333 -.02 -.249)"/><path d="M8.387 7.004a10.212 10.212 0 0 0-.973-.363.714.714 0 0 0-.226 0 .048.048 0 0 0-.032.023 6.965 6.965 0 0 1-.84-.348.565.565 0 0 1 .079-.031 5.279 5.279 0 0 1 1.05-.047c.321.106.633.223.942.356a.268.268 0 0 1 .062.152 6.035 6.035 0 0 0-.062.258ZM10.91 6.633a1.412 1.412 0 0 0-.406.039c-.285.094-.566.199-.84.316a.054.054 0 0 0-.016.051c-.027-.101-.046-.203-.066-.309a.228.228 0 0 1 .082-.152 9.62 9.62 0 0 1 .758-.293c.133-.047.273-.07.414-.074.305.016.602.051.898.105a7.856 7.856 0 0 1-.824.317z" style="fill:#6e2073;fill-opacity:1;fill-rule:evenodd;stroke:none" transform="matrix(1.33333 0 0 1.33333 -.02 -.249)"/><path d="M8.387 7.004c-.082.367-.168.734-.254 1.101a.803.803 0 0 0 0 .196.188.188 0 0 1 .043.031 2.297 2.297 0 0 0-.051.289.128.128 0 0 0 .035.106c.293.121.602.187.922.203a3.35 3.35 0 0 0 .793-.203.127.127 0 0 0 .031-.098 5.804 5.804 0 0 1-.051-.25.166.166 0 0 1 .02-.063.234.234 0 0 0 .023-.179 43.354 43.354 0 0 1-.25-1.098.054.054 0 0 1 .016-.051c.274-.117.555-.222.84-.316.133-.031.266-.047.406-.039a25.9 25.9 0 0 0-.844.347.466.466 0 0 0-.128.575.085.085 0 0 0-.024.047.845.845 0 0 0 0 .246c.078.23.16.464.25.695-.316.293-.637.582-.961.871a.244.244 0 0 0-.035.145c.047.062.094.121.141.179-.125.067-.161.164-.106.293.16.168.332.332.508.485a4.608 4.608 0 0 1-.387-.157.873.873 0 0 0-.422-.062 4.933 4.933 0 0 0-.566.219c.156-.149.316-.305.476-.469.075-.133.043-.235-.089-.309a.75.75 0 0 0 .125-.16.399.399 0 0 0 0-.129 7.167 7.167 0 0 0-.852-.754 2.25 2.25 0 0 1-.144-.152c.097-.231.183-.461.265-.695a.755.755 0 0 0-.023-.325.465.465 0 0 0-.114-.527c-.269-.121-.546-.23-.824-.332a.048.048 0 0 1 .032-.023.714.714 0 0 1 .226 0c.332.105.656.226.973.363Z" style="fill:#9d2ea4;fill-opacity:1;fill-rule:evenodd;stroke:none" transform="matrix(1.33333 0 0 1.33333 -.02 -.249)"/><path d="M13.918 7.039h.016c0 .07.015.141.046.207-.433 1.754-.89 3.5-1.367 5.242a2.295 2.295 0 0 1-.75.899 69.269 69.269 0 0 1-2.621 1.761.678.678 0 0 1-.582-.062 61.424 61.424 0 0 1-2.683-1.844 2.264 2.264 0 0 1-.575-.785A200.164 200.164 0 0 1 4.051 7.23a.59.59 0 0 0 .047-.16h.015a188.51 188.51 0 0 0 1.176 4.594c.125.543.41.977.863 1.301.805.57 1.621 1.125 2.442 1.668a.71.71 0 0 0 .664.094 63.208 63.208 0 0 0 2.574-1.731c.348-.234.609-.543.781-.93.453-1.671.891-3.347 1.305-5.027z" style="fill:#353131;fill-opacity:.2;fill-rule:evenodd;stroke:none" transform="matrix(1.33333 0 0 1.33333 -.02 -.249)"/><path d="M13.141 7.328c.015.117.015.238.007.356a.372.372 0 0 1-.066.144c-.465.426-.93.848-1.398 1.27a.505.505 0 0 0-.114.14.628.628 0 0 1-.07-.355c.488-.469.988-.926 1.496-1.375.055-.059.102-.117.145-.18zM4.922 7.375c.094.102.191.203.293.301.437.39.871.785 1.301 1.187a.59.59 0 0 1-.055.375 7.256 7.256 0 0 0-.242-.254 49.194 49.194 0 0 1-1.207-1.089.44.44 0 0 1-.09-.52ZM8.094 7.523a.755.755 0 0 1 .023.325c-.082.234-.168.464-.265.695a.33.33 0 0 1-.059-.277c.102-.25.203-.496.301-.743ZM9.938 7.555c.113.254.218.511.316.777a.243.243 0 0 1-.09.211c-.09-.231-.172-.465-.25-.695a.845.845 0 0 1 0-.246.085.085 0 0 1 .024-.047ZM9.875 8.316a.166.166 0 0 0-.02.063c.016.086.032.168.051.25a.127.127 0 0 1-.031.098 3.35 3.35 0 0 1-.793.203 2.762 2.762 0 0 1-.922-.203.128.128 0 0 1-.035-.106c.012-.098.027-.195.051-.289.273.102.562.16.855.176.293-.012.574-.078.844-.192ZM9.309 9.738c.449.442.961.801 1.535 1.074a.23.23 0 0 0 .211-.046c.148-.137.297-.274.445-.414a1.8 1.8 0 0 0 .199-.356.849.849 0 0 1-.183.746c-.133.137-.27.27-.414.395a.706.706 0 0 1-.145.097.098.098 0 0 1-.082 0c-.07-.031-.141-.058-.211-.089.066-.055.063-.106-.016-.153a34.415 34.415 0 0 0-.937-.476 7.513 7.513 0 0 1-.508-.485c-.055-.129-.019-.226.106-.293ZM8.723 9.738c.132.074.164.176.089.309-.16.164-.32.32-.476.469-.34.152-.672.324-.996.515a.164.164 0 0 0-.024.082c-.066.035-.128.078-.191.121a.098.098 0 0 1-.082 0 9.147 9.147 0 0 0-.445-.394 1.31 1.31 0 0 1-.293-.52.826.826 0 0 1 .027-.324c.055.125.121.246.199.356.149.132.293.273.43.414a.364.364 0 0 0 .129.074c.273-.195.566-.36.875-.496.273-.172.527-.375.758-.606Z" style="fill:#6e2073;fill-opacity:1;fill-rule:evenodd;stroke:none" transform="matrix(1.33333 0 0 1.33333 -.02 -.249)"/><path d="M9.711 10.516c.312.152.625.312.937.476.079.047.082.098.016.153-.066.05-.133.101-.191.164-.321.218-.645.437-.973.652-.078.07-.16.141-.242.211a.62.62 0 0 1-.242.121.343.343 0 0 1-.18-.07 3.505 3.505 0 0 1-.289-.243c-.332-.222-.66-.445-.988-.671a1.187 1.187 0 0 1-.243-.196c0-.027.008-.054.024-.082.324-.191.656-.363.996-.515.184-.086.375-.157.566-.219a.873.873 0 0 1 .422.062c.125.059.258.11.387.157z" style="fill:#fefefd;fill-opacity:1;fill-rule:evenodd;stroke:none" transform="matrix(1.33333 0 0 1.33333 -.02 -.249)"/><path d="M7.559 11.309c.328.226.656.449.988.671.094.086.187.168.289.243a.343.343 0 0 0 .18.07.62.62 0 0 0 .242-.121c.082-.07.164-.141.242-.211.328-.215.652-.434.973-.652.082.043.16.089.234.144a.186.186 0 0 1-.074.137c-.375.277-.758.539-1.149.793a2.806 2.806 0 0 1-.308.258c-.129.082-.254.074-.371-.032l-.243-.211a15.28 15.28 0 0 1-1.222-.847c-.016-.028-.024-.051-.016-.082a.859.859 0 0 1 .235-.16Z" style="fill:#6e2073;fill-opacity:1;fill-rule:evenodd;stroke:none" transform="matrix(1.33333 0 0 1.33333 -.02 -.249)"/></svg>