<svg xmlns="http://www.w3.org/2000/svg" xmlns:xlink="http://www.w3.org/1999/xlink" xml:space="preserve" id="svg11" width="24" height="24" fill="none" version="1.1"><defs id="defs9"><linearGradient id="linearGradient9034"><stop id="stop9030" offset="0" style="stop-color:#c8c8c8;stop-opacity:1"/><stop id="stop9032" offset="1" style="stop-color:#fff;stop-opacity:1"/></linearGradient><linearGradient xlink:href="#linearGradient9034" id="linearGradient9036" x1="12.61" x2="12.203" y1="51.763" y2="-4.78" gradientUnits="userSpaceOnUse"/><linearGradient xlink:href="#linearGradient9034" id="linearGradient9392" x1="12.61" x2="12.203" y1="51.763" y2="-4.78" gradientUnits="userSpaceOnUse"/><linearGradient xlink:href="#linearGradient9034" id="linearGradient9394" x1="12.61" x2="12.203" y1="51.763" y2="-4.78" gradientUnits="userSpaceOnUse"/><linearGradient xlink:href="#linearGradient9034" id="linearGradient9396" x1="12.61" x2="12.203" y1="51.763" y2="-4.78" gradientUnits="userSpaceOnUse"/><linearGradient xlink:href="#linearGradient9034" id="linearGradient9398" x1="12.61" x2="12.203" y1="51.763" y2="-4.78" gradientUnits="userSpaceOnUse"/><linearGradient xlink:href="#linearGradient9034" id="linearGradient9400" x1="12.61" x2="12.203" y1="51.763" y2="-4.78" gradientUnits="userSpaceOnUse"/><linearGradient xlink:href="#linearGradient9034" id="linearGradient9402" x1="12.61" x2="12.203" y1="51.763" y2="-4.78" gradientUnits="userSpaceOnUse"/><linearGradient xlink:href="#linearGradient9034" id="linearGradient9404" x1="12.61" x2="12.203" y1="51.763" y2="-4.78" gradientUnits="userSpaceOnUse"/><linearGradient xlink:href="#linearGradient9034" id="linearGradient9406" x1="12.61" x2="12.203" y1="51.763" y2="-4.78" gradientUnits="userSpaceOnUse"/><linearGradient xlink:href="#linearGradient9034" id="linearGradient9408" x1="12.61" x2="12.203" y1="51.763" y2="-4.78" gradientUnits="userSpaceOnUse"/><linearGradient xlink:href="#linearGradient9034" id="linearGradient9410" x1="12.61" x2="12.203" y1="51.763" y2="-4.78" gradientUnits="userSpaceOnUse"/><linearGradient xlink:href="#linearGradient9034" id="linearGradient9412" x1="12.61" x2="12.203" y1="51.763" y2="-4.78" gradientUnits="userSpaceOnUse"/><linearGradient xlink:href="#linearGradient9034" id="linearGradient9414" x1="12.61" x2="12.203" y1="51.763" y2="-4.78" gradientUnits="userSpaceOnUse"/><linearGradient xlink:href="#linearGradient9034" id="linearGradient9416" x1="12.61" x2="12.203" y1="51.763" y2="-4.78" gradientUnits="userSpaceOnUse"/><linearGradient xlink:href="#linearGradient9034" id="linearGradient9418" x1="12.61" x2="12.203" y1="51.763" y2="-4.78" gradientUnits="userSpaceOnUse"/><linearGradient xlink:href="#linearGradient9034" id="linearGradient9420" x1="12.61" x2="12.203" y1="51.763" y2="-4.78" gradientUnits="userSpaceOnUse"/><linearGradient xlink:href="#linearGradient9034" id="linearGradient9422" x1="12.61" x2="12.203" y1="51.763" y2="-4.78" gradientUnits="userSpaceOnUse"/><linearGradient xlink:href="#linearGradient9034" id="linearGradient9424" x1="12.61" x2="12.203" y1="51.763" y2="-4.78" gradientUnits="userSpaceOnUse"/><style id="current-color-scheme" type="text/css">.ColorScheme-Text{color:#31363b}.ColorScheme-Background{color:#eff0f1}.ColorScheme-Highlight{color:#3daee9}.ColorScheme-ViewText{color:#31363b}.ColorScheme-ViewBackground{color:#fcfcfc}.ColorScheme-ViewHover{color:#93cee9}.ColorScheme-ViewFocus{color:#3daee9}.ColorScheme-ButtonText{color:#31363b}.ColorScheme-ButtonBackground{color:#eff0f1}.ColorScheme-ButtonHover{color:#93cee9}.ColorScheme-ButtonFocus{color:#3daee9}</style></defs><g id="g365" style="fill:url(#linearGradient9036);fill-opacity:1"><g id="g2267" style="fill:url(#linearGradient9394);fill-opacity:1"><path id="path6" d="M50 5C9.09 5 5 25.455 5 50c0 32.727 12.273 45 45 45 32.727 0 45-12.273 45-45 0-24.545-4.09-45-45-45Z" style="font-variation-settings:normal;display:inline;opacity:1;vector-effect:none;fill:url(#linearGradient9392);fill-opacity:1;stroke-width:4.56656;stroke-linecap:butt;stroke-linejoin:miter;stroke-miterlimit:4;stroke-dasharray:none;stroke-dashoffset:0;stroke-opacity:1;-inkscape-stroke:none;stop-color:#000;stop-opacity:1" transform="matrix(.24444 0 0 .24444 -.222 -.222)"/></g></g><g id="g5222" transform="matrix(.12865 0 0 .12865 -28.985 28.371)"><path id="path5200" fill="#ffcf2b" d="M301.352-183.23c-2.153 0-9.689 8.612-10.765 8.612h-5.383c-2.153 0-9.688 7.538-9.688 9.691v6.46c0 1.076-8.566 8.611-8.612 10.764-.046 2.153 15.07 52.746 17.224 54.899 2.153 2.153 25.836 21.53 32.295 21.53h4.306c6.459 0 30.141-19.377 32.294-21.53 2.153-2.153 17.267-52.749 17.224-54.902-.049-2.141-8.612-9.688-8.612-10.765v-6.459c0-2.153-7.535-9.688-9.688-9.688h-5.383c-1.076 0-8.612-8.612-10.765-8.612z" style="stroke-width:2.87065"/><path id="path5202" fill="#f9f9f9" d="M318.576-168.19c-2.145 0-4.28.734-6.46 2.187-6.458 4.306-15.07-2.153-17.223-2.153-2.153 0-15.071 15.685-15.071 21.53 0 4.306 16.147 14.21 16.147 17.224 0 2.153-3.23 3.186-3.23 7.753 0 3.012 4.307 8.394 8.613 8.394 4.306 0 15.08-8.454 15.07-10.547v-1.294c0-2.584-9.688-5.84-9.688-10.765 0-4.306 3.23-5.9 3.23-10.765 0-4.186-8.612-5.383-15.071-6.46-2.153 0 6.459-7.084 18.3.572 2.997 1.938-3.23 9.6-2.153 16.65 1.616 1.51 4.579 2.262 7.536 2.262 2.962 0 5.922-.752 7.535-2.26 1.077-7.053-5.15-14.714-2.153-16.652 11.841-7.656 20.453-.574 18.3-.574-6.459 1.08-15.07 2.276-15.07 6.459 0 4.868 3.229 6.459 3.229 10.765 0 4.929-9.688 8.181-9.688 10.765v1.297c-.01 2.093 10.764 10.547 15.07 10.547 4.306 0 8.612-5.382 8.612-8.394 0-4.564-3.23-5.6-3.23-7.753 0-3.015 16.148-12.918 16.148-17.224 0-5.845-12.918-21.53-15.07-21.53-2.154 0-10.766 6.459-17.224 2.153-2.18-1.453-4.306-2.188-6.46-2.188zm0 51.272c-4.306 0-13.995 6.674-13.995 7.966 0 1.292 9.689 11.842 13.995 11.842 4.306 0 13.994-10.55 13.994-11.842 0-1.292-9.688-7.966-13.994-7.966z" style="stroke-width:2.87065"/></g></svg>