<svg xmlns="http://www.w3.org/2000/svg" xmlns:xlink="http://www.w3.org/1999/xlink" xml:space="preserve" id="svg9263" width="24" height="24" version="1.1" viewBox="0 0 6.35 6.35"><defs id="defs9267"><linearGradient id="linear-gradient" x1="100" x2="100" y1="98.81" y2="117.83" gradientTransform="translate(222.929 -15.207)" gradientUnits="userSpaceOnUse"><stop id="stop324" offset="0" stop-color="#ff4848" stop-opacity=".6"/><stop id="stop326" offset="1" stop-color="#f16060" stop-opacity="0"/></linearGradient><linearGradient id="paint0_linear_24_136" x1="22" x2="2" y1="2" y2="12" gradientTransform="translate(-383.916 10.513) scale(14.91026)" gradientUnits="userSpaceOnUse"><stop id="stop3905" stop-color="#E3C880"/><stop id="stop3907" offset="1" stop-color="#6F5C38"/></linearGradient><linearGradient id="paint1_linear_24_136" x1="22" x2="2.39" y1="6" y2="22.465" gradientTransform="translate(-383.916 10.513) scale(14.91026)" gradientUnits="userSpaceOnUse"><stop id="stop3910" stop-color="#FFE795"/><stop id="stop3912" offset="1" stop-color="#7A653E"/></linearGradient><linearGradient id="paint2_linear_24_136" x1="15.618" x2="7.991" y1="9.411" y2="19.188" gradientUnits="userSpaceOnUse"><stop id="stop3915" stop-color="#6F5C38" stop-opacity="0"/><stop id="stop3917" offset="1" stop-color="#6F5C38" stop-opacity=".45"/></linearGradient><linearGradient id="paint3_linear_24_136" x1="16.25" x2="8.624" y1="9" y2="18.777" gradientTransform="translate(-383.916 10.513) scale(14.91026)" gradientUnits="userSpaceOnUse"><stop id="stop3920" stop-color="#0BB1CB"/><stop id="stop3922" offset="1" stop-color="#006599"/></linearGradient><linearGradient id="linearGradient-1" x1="198.266" x2="198.266" y1="346.526" y2="20.551" gradientTransform="scale(.70864 1.41115)" gradientUnits="userSpaceOnUse"><stop id="stop9487" offset="0%" stop-color="#420C5D"/><stop id="stop9489" offset="100%" stop-color="#951AD1"/></linearGradient><linearGradient id="linearGradient-1-2" x1=".5" x2=".5" y1="1" y2="0"><stop id="stop9569" offset="0%" stop-color="#420C5D"/><stop id="stop9571" offset="100%" stop-color="#951AD1"/></linearGradient><linearGradient xlink:href="#linearGradient-1-2" id="linearGradient9756" x1="256" x2="256" y1="512" y2="0" gradientUnits="userSpaceOnUse"/><linearGradient xlink:href="#linearGradient-1-2" id="linearGradient9758" x1=".5" x2=".5" y1="1" y2="0" gradientUnits="userSpaceOnUse"/><radialGradient id="paint0_radial_1_40" cx="0" cy="0" r="1" gradientTransform="rotate(90 5.5 6.5) scale(22.00003)" gradientUnits="userSpaceOnUse"><stop id="stop550" offset="0" stop-color="#C2E5FF" style="stop-color:#8db9ff;stop-opacity:1"/><stop id="stop552" offset="1" stop-color="#3276AA" style="stop-color:#3e3373;stop-opacity:1"/></radialGradient><radialGradient id="radialGradient4659" cx="0" cy="0" r="1" fx="0" fy="0" gradientTransform="matrix(0 16.50002 -16.50002 0 9 .75)" gradientUnits="userSpaceOnUse" spreadMethod="pad"><stop id="stop4655" offset="0" style="stop-opacity:1;stop-color:#8db9ff"/><stop id="stop4657" offset="1" style="stop-opacity:1;stop-color:#3e3373"/></radialGradient><radialGradient id="paint0_radial_4_408" cx="0" cy="0" r="1" gradientTransform="rotate(90 1.455 1.72) scale(5.82072)" gradientUnits="userSpaceOnUse"><stop id="stop17227" stop-color="#D6B1FF"/><stop id="stop17229" offset="1" stop-color="#A75DFA"/></radialGradient><filter id="filter-3" width="1.242" height="1.104" x="-.139" y="-.052" filterUnits="objectBoundingBox"><feOffset id="feOffset9493" dx="-8" dy="0" in="SourceAlpha" result="shadowOffsetOuter1"/><feGaussianBlur id="feGaussianBlur9495" in="shadowOffsetOuter1" result="shadowBlurOuter1" stdDeviation="10"/><feColorMatrix id="feColorMatrix9497" in="shadowBlurOuter1" type="matrix" values="0 0 0 0 0.250980392 0 0 0 0 0.250980392 0 0 0 0 0.250980392 0 0 0 0.2 0"/></filter><filter id="filter-3-7" width="1.242" height="1.104" x="-.139" y="-.052" filterUnits="objectBoundingBox"><feOffset id="feOffset9575" dx="-8" dy="0" in="SourceAlpha" result="shadowOffsetOuter1"/><feGaussianBlur id="feGaussianBlur9577" in="shadowOffsetOuter1" result="shadowBlurOuter1" stdDeviation="10"/><feColorMatrix id="feColorMatrix9579" in="shadowBlurOuter1" type="matrix" values="0 0 0 0 0.250980392 0 0 0 0 0.250980392 0 0 0 0 0.250980392 0 0 0 0.2 0"/></filter><style id="style322">.cls-1{fill:#faf6f0}.cls-2{fill:#d3d6d8}.cls-3{fill:#f16060}.cls-4{fill:#d4d7d9}.cls-5{fill:#f13c3d}.cls-6{font-size:34.02px;fill:#fff;font-family:Lato-Bold,Lato;font-weight:700}.cls-7{letter-spacing:-.02em}.cls-8{fill:#3e3373}.cls-9{fill:url(#linear-gradient)}</style><path id="path-2" d="M25 29c127.578 0 231 102.975 231 230S152.578 489 25 489Z"/></defs><path id="path17223" fill="url(#paint0_radial_4_408)" fill-rule="evenodd" d="M2.539.295a.312.312 0 0 0 .09-.012c.38-.025.76-.024 1.14.003.345.026.678.101 1 .224.536.22.903.603 1.1 1.148.114.328.18.665.2 1.012.029.435.019.869-.03 1.302a3.143 3.143 0 0 1-.236.879 1.87 1.87 0 0 1-1.094 1.008c-.409.139-.829.211-1.26.219a5.668 5.668 0 0 1-1.444-.11C1.13 5.773.59 5.24.385 4.366a5.04 5.04 0 0 1-.12-1.194c-.009-.428.037-.85.137-1.266C.617 1.09 1.135.584 1.957.39c.191-.047.385-.079.582-.094z" clip-rule="evenodd" style="fill:url(#paint0_radial_4_408);stroke-width:.264578"/><g id="tor-browser-icon" fill="none" fill-rule="evenodd" stroke="none" stroke-width="1" transform="matrix(.00851 0 0 .00851 .996 .992)"><g id="icon_512x512"><g id="Group"><g id="tb_icon/Stable"><g id="Stable"><circle id="background-0" cx="256" cy="256" r="246" fill="#f2e4ff" fill-rule="nonzero"/><path id="center-9" fill="url(#linearGradient-1)" d="M256.525 465.44v-31.033c98.301-.284 177.896-80.042 177.896-178.414 0-98.365-79.595-178.123-177.896-178.407V46.553c115.44.291 208.922 93.937 208.922 209.44 0 115.51-93.483 209.163-208.922 209.447zm0-108.62c55.445-.29 100.324-45.304 100.324-100.827 0-55.516-44.879-100.53-100.324-100.82v-31.026c72.59.283 131.357 59.192 131.357 131.846 0 72.661-58.767 131.57-131.357 131.853zm0-155.101c29.742.284 53.778 24.461 53.778 54.274 0 29.82-24.036 53.997-53.778 54.281zM0 255.993C0 397.384 114.609 512 256 512c141.384 0 256-114.616 256-256.007C512 114.609 397.384 0 256 0 114.609 0 0 114.609 0 255.993Z" style="fill:url(#linearGradient9756)"/><g id="half-3" transform="matrix(-1 0 0 1 281 0)"><use xlink:href="#path-2" id="use9586" fill="#000" fill-opacity="1" filter="url(#filter-3)" style="filter:url(#filter-3-7)"/><use xlink:href="#path-2" id="use9588" fill="url(#linearGradient-1)" fill-rule="evenodd" style="fill:url(#linearGradient9758)"/></g></g></g></g></g></g></svg>