<svg xmlns="http://www.w3.org/2000/svg" width="24" height="24" fill="none"><path fill="url(#a)" fill-rule="evenodd" d="M9.596 1.114c.12 0 .234-.014.344-.046a31.627 31.627 0 0 1 4.307.011c1.301.102 2.561.384 3.78.848 2.025.833 3.412 2.28 4.158 4.339.427 1.24.679 2.514.756 3.824a27.94 27.94 0 0 1-.114 4.923 11.88 11.88 0 0 1-.894 3.32c-.85 1.843-2.229 3.114-4.135 3.813a15.624 15.624 0 0 1-4.765.825 21.423 21.423 0 0 1-5.453-.413c-3.312-.737-5.354-2.756-6.128-6.056a19.047 19.047 0 0 1-.447-4.511 18.491 18.491 0 0 1 .515-4.786c.812-3.086 2.77-4.998 5.877-5.736a13.953 13.953 0 0 1 2.199-.355Z" clip-rule="evenodd"/><path fill="#fff" d="M7.819 7.165H3.963a.89.89 0 0 0-.89.89v2.38c0 .492.4.89.89.89H7.82a.89.89 0 0 0 .89-.89v-2.38a.89.89 0 0 0-.89-.89ZM14.274 7.165h-3.856a.89.89 0 0 0-.89.89v2.38c0 .492.4.89.89.89h3.856a.89.89 0 0 0 .89-.89v-2.38a.89.89 0 0 0-.89-.89ZM7.745 12.206H3.89a.89.89 0 0 0-.89.89v2.381c0 .491.398.89.89.89h3.855a.89.89 0 0 0 .89-.89v-2.381a.89.89 0 0 0-.89-.89ZM14.2 12.206h-3.855a.89.89 0 0 0-.89.89v2.381c0 .491.398.89.89.89H14.2a.89.89 0 0 0 .89-.89v-2.381a.89.89 0 0 0-.89-.89Z"/><path fill="#fff" d="M12.226 3a8.766 8.766 0 0 0-5.86 2.278h2.837a7.175 7.175 0 0 1 3.025-.686 7.175 7.175 0 0 1 7.182 7.165v.01a7.175 7.175 0 0 1-7.174 7.172 7.176 7.176 0 0 1-3.04-.683h-2.84a8.766 8.766 0 0 0 5.88 2.277A8.766 8.766 0 0 0 21 11.768v-.01A8.766 8.766 0 0 0 12.226 3Z"/><defs><radialGradient id="a" cx="0" cy="0" r="1" gradientTransform="matrix(0 11 -11 0 12 1)" gradientUnits="userSpaceOnUse"><stop stop-color="#6EBBF7"/><stop offset="1" stop-color="#2196F3"/></radialGradient></defs></svg>