<svg xmlns="http://www.w3.org/2000/svg" xmlns:xlink="http://www.w3.org/1999/xlink" xml:space="preserve" id="svg11" width="24" height="24" fill="none" version="1.1"><defs id="defs9"><linearGradient id="linearGradient10588"><stop id="stop10584" offset="0" style="stop-color:#ff8057;stop-opacity:1"/><stop id="stop10586" offset="1" style="stop-color:#fca;stop-opacity:1"/></linearGradient><linearGradient xlink:href="#linearGradient10588" id="linearGradient10590" x1="12.814" x2="12.102" y1="53.797" y2="-18.407" gradientUnits="userSpaceOnUse"/><linearGradient xlink:href="#linearGradient10588" id="linearGradient12804" x1="12.814" x2="12.102" y1="53.797" y2="-18.407" gradientUnits="userSpaceOnUse"/><linearGradient xlink:href="#linearGradient10588" id="linearGradient12806" x1="12.814" x2="12.102" y1="53.797" y2="-18.407" gradientUnits="userSpaceOnUse"/><linearGradient xlink:href="#linearGradient10588" id="linearGradient12808" x1="12.814" x2="12.102" y1="53.797" y2="-18.407" gradientUnits="userSpaceOnUse"/><linearGradient xlink:href="#linearGradient10588" id="linearGradient12810" x1="12.814" x2="12.102" y1="53.797" y2="-18.407" gradientUnits="userSpaceOnUse"/><linearGradient xlink:href="#linearGradient10588" id="linearGradient12812" x1="12.814" x2="12.102" y1="53.797" y2="-18.407" gradientUnits="userSpaceOnUse"/><linearGradient xlink:href="#linearGradient10588" id="linearGradient12814" x1="12.814" x2="12.102" y1="53.797" y2="-18.407" gradientUnits="userSpaceOnUse"/><linearGradient xlink:href="#linearGradient10588" id="linearGradient12816" x1="12.814" x2="12.102" y1="53.797" y2="-18.407" gradientUnits="userSpaceOnUse"/><linearGradient xlink:href="#linearGradient10588" id="linearGradient12818" x1="12.814" x2="12.102" y1="53.797" y2="-18.407" gradientUnits="userSpaceOnUse"/><linearGradient xlink:href="#linearGradient10588" id="linearGradient12820" x1="12.814" x2="12.102" y1="53.797" y2="-18.407" gradientUnits="userSpaceOnUse"/><linearGradient xlink:href="#linearGradient10588" id="linearGradient12822" x1="12.814" x2="12.102" y1="53.797" y2="-18.407" gradientUnits="userSpaceOnUse"/><linearGradient xlink:href="#linearGradient10588" id="linearGradient12824" x1="12.814" x2="12.102" y1="53.797" y2="-18.407" gradientUnits="userSpaceOnUse"/><linearGradient xlink:href="#linearGradient10588" id="linearGradient12826" x1="12.814" x2="12.102" y1="53.797" y2="-18.407" gradientUnits="userSpaceOnUse"/><linearGradient xlink:href="#linearGradient10588" id="linearGradient12828" x1="12.814" x2="12.102" y1="53.797" y2="-18.407" gradientUnits="userSpaceOnUse"/><linearGradient xlink:href="#linearGradient10588" id="linearGradient12830" x1="12.814" x2="12.102" y1="53.797" y2="-18.407" gradientUnits="userSpaceOnUse"/><linearGradient xlink:href="#linearGradient10588" id="linearGradient12832" x1="12.814" x2="12.102" y1="53.797" y2="-18.407" gradientUnits="userSpaceOnUse"/><linearGradient xlink:href="#linearGradient10588" id="linearGradient12834" x1="12.814" x2="12.102" y1="53.797" y2="-18.407" gradientUnits="userSpaceOnUse"/><linearGradient xlink:href="#linearGradient10588" id="linearGradient12836" x1="12.814" x2="12.102" y1="53.797" y2="-18.407" gradientUnits="userSpaceOnUse"/><style id="current-color-scheme" type="text/css">.ColorScheme-Text{color:#31363b}.ColorScheme-Background{color:#eff0f1}.ColorScheme-Highlight{color:#3daee9}.ColorScheme-ViewText{color:#31363b}.ColorScheme-ViewBackground{color:#fcfcfc}.ColorScheme-ViewHover{color:#93cee9}.ColorScheme-ViewFocus{color:#3daee9}.ColorScheme-ButtonText{color:#31363b}.ColorScheme-ButtonBackground{color:#eff0f1}.ColorScheme-ButtonHover{color:#93cee9}.ColorScheme-ButtonFocus{color:#3daee9}</style></defs><g id="g365" style="fill:url(#linearGradient10590);fill-opacity:1"><g id="g2267" style="display:inline;fill:url(#linearGradient12806);fill-opacity:1"><path id="path6" d="M50 5C9.09 5 5 25.455 5 50c0 32.727 12.273 45 45 45 32.727 0 45-12.273 45-45 0-24.545-4.09-45-45-45Z" style="font-variation-settings:normal;display:inline;opacity:1;vector-effect:none;fill:url(#linearGradient12804);fill-opacity:1;stroke-width:4.56656;stroke-linecap:butt;stroke-linejoin:miter;stroke-miterlimit:4;stroke-dasharray:none;stroke-dashoffset:0;stroke-opacity:1;-inkscape-stroke:none;stop-color:#000;stop-opacity:1" transform="matrix(.24444 0 0 .24444 -.222 -.222)"/></g></g><path id="path184" fill="none" stroke="#fdfdfd" stroke-width="1.122" d="M12.186 4.895v2.598L9.014 10.69h3.172v2.618h2.954l-2.954 3.572v2.224"/></svg>