<svg xmlns="http://www.w3.org/2000/svg" xmlns:xlink="http://www.w3.org/1999/xlink" xml:space="preserve" id="svg11" width="24" height="24" fill="none" version="1.1"><defs id="defs9"><linearGradient id="linearGradient13739"><stop id="stop13735" offset="0" style="stop-color:#f04964;stop-opacity:1"/><stop id="stop13737" offset="1" style="stop-color:#fb8e96;stop-opacity:1"/></linearGradient><linearGradient xlink:href="#linearGradient13739" id="linearGradient13741" x1="12.305" x2="12" y1="56.034" y2="-4.373" gradientUnits="userSpaceOnUse"/><linearGradient xlink:href="#linearGradient13739" id="linearGradient15914" x1="12.305" x2="12" y1="56.034" y2="-4.373" gradientUnits="userSpaceOnUse"/><linearGradient xlink:href="#linearGradient13739" id="linearGradient15916" x1="12.305" x2="12" y1="56.034" y2="-4.373" gradientUnits="userSpaceOnUse"/><linearGradient xlink:href="#linearGradient13739" id="linearGradient15918" x1="12.305" x2="12" y1="56.034" y2="-4.373" gradientUnits="userSpaceOnUse"/><linearGradient xlink:href="#linearGradient13739" id="linearGradient15920" x1="12.305" x2="12" y1="56.034" y2="-4.373" gradientUnits="userSpaceOnUse"/><linearGradient xlink:href="#linearGradient13739" id="linearGradient15922" x1="12.305" x2="12" y1="56.034" y2="-4.373" gradientUnits="userSpaceOnUse"/><linearGradient xlink:href="#linearGradient13739" id="linearGradient15924" x1="12.305" x2="12" y1="56.034" y2="-4.373" gradientUnits="userSpaceOnUse"/><linearGradient xlink:href="#linearGradient13739" id="linearGradient15926" x1="12.305" x2="12" y1="56.034" y2="-4.373" gradientUnits="userSpaceOnUse"/><linearGradient xlink:href="#linearGradient13739" id="linearGradient15928" x1="12.305" x2="12" y1="56.034" y2="-4.373" gradientUnits="userSpaceOnUse"/><linearGradient xlink:href="#linearGradient13739" id="linearGradient15930" x1="12.305" x2="12" y1="56.034" y2="-4.373" gradientUnits="userSpaceOnUse"/><linearGradient xlink:href="#linearGradient13739" id="linearGradient15932" x1="12.305" x2="12" y1="56.034" y2="-4.373" gradientUnits="userSpaceOnUse"/><linearGradient xlink:href="#linearGradient13739" id="linearGradient15934" x1="12.305" x2="12" y1="56.034" y2="-4.373" gradientUnits="userSpaceOnUse"/><linearGradient xlink:href="#linearGradient13739" id="linearGradient15936" x1="12.305" x2="12" y1="56.034" y2="-4.373" gradientUnits="userSpaceOnUse"/><linearGradient xlink:href="#linearGradient13739" id="linearGradient15938" x1="12.305" x2="12" y1="56.034" y2="-4.373" gradientUnits="userSpaceOnUse"/><linearGradient xlink:href="#linearGradient13739" id="linearGradient15940" x1="12.305" x2="12" y1="56.034" y2="-4.373" gradientUnits="userSpaceOnUse"/><linearGradient xlink:href="#linearGradient13739" id="linearGradient15942" x1="12.305" x2="12" y1="56.034" y2="-4.373" gradientUnits="userSpaceOnUse"/><linearGradient xlink:href="#linearGradient13739" id="linearGradient15944" x1="12.305" x2="12" y1="56.034" y2="-4.373" gradientUnits="userSpaceOnUse"/><linearGradient xlink:href="#linearGradient13739" id="linearGradient15946" x1="12.305" x2="12" y1="56.034" y2="-4.373" gradientUnits="userSpaceOnUse"/><style id="current-color-scheme" type="text/css">.ColorScheme-Text{color:#31363b}.ColorScheme-Background{color:#eff0f1}.ColorScheme-Highlight{color:#3daee9}.ColorScheme-ViewText{color:#31363b}.ColorScheme-ViewBackground{color:#fcfcfc}.ColorScheme-ViewHover{color:#93cee9}.ColorScheme-ViewFocus{color:#3daee9}.ColorScheme-ButtonText{color:#31363b}.ColorScheme-ButtonBackground{color:#eff0f1}.ColorScheme-ButtonHover{color:#93cee9}.ColorScheme-ButtonFocus{color:#3daee9}</style></defs><g id="g365" style="fill:url(#linearGradient13741);fill-opacity:1"><g id="g2267" style="display:inline;fill:url(#linearGradient15916);fill-opacity:1"><path id="path6" d="M50 5C9.09 5 5 25.455 5 50c0 32.727 12.273 45 45 45 32.727 0 45-12.273 45-45 0-24.545-4.09-45-45-45Z" style="font-variation-settings:normal;display:inline;opacity:1;vector-effect:none;fill:url(#linearGradient15914);fill-opacity:1;stroke-width:4.56656;stroke-linecap:butt;stroke-linejoin:miter;stroke-miterlimit:4;stroke-dasharray:none;stroke-dashoffset:0;stroke-opacity:1;-inkscape-stroke:none;stop-color:#000;stop-opacity:1" transform="matrix(.24444 0 0 .24444 -.222 -.222)"/></g></g><g id="g1638" transform="matrix(.23293 0 0 .23293 -82.828 -4.917)"><path id="path1036" d="M416.657 50.654c0 4.292-9.54 17.383-9.54 17.383s-9.541-13.09-9.541-17.383c0-4.293 4.272-7.773 9.54-7.773 5.269 0 9.541 3.48 9.541 7.773z" style="fill:#fff;fill-opacity:1;stroke:none;stroke-width:.945665;stroke-opacity:1;paint-order:markers fill stroke;image-rendering:optimizeSpeed"/><path id="path1038" d="m407.116 68.038 4.725 8.235 4.725 8.235h-18.9l4.726-8.235z" style="fill:#fff;fill-opacity:1;stroke:none;stroke-width:5.39198;stroke-miterlimit:4;stroke-dasharray:none;stroke-opacity:1;paint-order:markers fill stroke;image-rendering:optimizeSpeed"/><path id="path1040" d="M426.756 101.512c-3.694-2.145-10.19-17.004-10.19-17.004s16.036-1.77 19.73.376c3.695 2.146 4.555 7.608 1.92 12.2-2.635 4.591-7.765 6.574-11.458 4.428zm-48.82-16.628c3.695-2.146 19.73-.376 19.73-.376s-6.495 14.859-10.191 17.004c-3.693 2.146-8.823.163-11.458-4.427-2.635-4.593-1.775-10.055 1.92-12.201z" style="fill:#fff;fill-opacity:1;stroke:none;stroke-width:.945665;stroke-opacity:1;paint-order:markers fill stroke;image-rendering:optimizeSpeed"/></g></svg>