<svg xmlns="http://www.w3.org/2000/svg" xmlns:xlink="http://www.w3.org/1999/xlink" xml:space="preserve" id="svg11" width="24" height="24" fill="none" version="1.1"><defs id="defs9"><linearGradient id="linearGradient3"><stop id="stop3" offset="0" style="stop-color:#ead192;stop-opacity:1"/><stop id="stop4" offset="1" style="stop-color:#fef5ec;stop-opacity:1"/></linearGradient><linearGradient xlink:href="#linearGradient3" id="linearGradient4" x1="7.797" x2="17.925" y1="-22.894" y2="-33.441" gradientTransform="translate(-.693 40)" gradientUnits="userSpaceOnUse"/><radialGradient id="paint0_radial_3_321-4" cx="0" cy="0" r="1" gradientTransform="matrix(0 22 -22 0 12 1)" gradientUnits="userSpaceOnUse"><stop id="stop180-5" offset="0" stop-color="#555" style="stop-color:#b16040;stop-opacity:1"/><stop id="stop182-93" offset="1" stop-color="#222" style="stop-color:#5b3326;stop-opacity:1"/></radialGradient><style id="current-color-scheme" type="text/css">.ColorScheme-Text{color:#31363b}.ColorScheme-Background{color:#eff0f1}.ColorScheme-Highlight{color:#3daee9}.ColorScheme-ViewText{color:#31363b}.ColorScheme-ViewBackground{color:#fcfcfc}.ColorScheme-ViewHover{color:#93cee9}.ColorScheme-ViewFocus{color:#3daee9}.ColorScheme-ButtonText{color:#31363b}.ColorScheme-ButtonBackground{color:#eff0f1}.ColorScheme-ButtonHover{color:#93cee9}.ColorScheme-ButtonFocus{color:#3daee9}</style></defs><path id="path174-5" fill="url(#paint0_radial_3_321)" fill-rule="evenodd" d="M9.596 1.114c.12 0 .234-.014.344-.046a31.627 31.627 0 0 1 4.307.011c1.301.102 2.561.384 3.78.848 2.025.833 3.412 2.28 4.158 4.339.427 1.24.679 2.514.756 3.824a27.94 27.94 0 0 1-.115 4.923 11.88 11.88 0 0 1-.893 3.32c-.85 1.843-2.229 3.114-4.135 3.813a15.624 15.624 0 0 1-4.766.825 21.423 21.423 0 0 1-5.452-.412c-3.312-.738-5.354-2.757-6.128-6.057a19.047 19.047 0 0 1-.447-4.511 18.491 18.491 0 0 1 .515-4.786c.812-3.086 2.77-4.998 5.877-5.736a13.953 13.953 0 0 1 2.199-.355z" clip-rule="evenodd" style="fill:url(#paint0_radial_3_321-4)"/><path id="path2321" fill="#fff" d="M6.685 10.613v5.084a1.845 1.845 0 0 0 1.849 1.85h4.622a1.845 1.845 0 0 0 1.848-1.85h.462a1.845 1.845 0 0 0 1.85-1.848v-.463a1.845 1.845 0 0 0-1.85-1.848h-.462v-.925zm8.32 1.85h.461c.512 0 .925.411.925.924v.462a.922.922 0 0 1-.925.924h-.462Zm-6.471-6.01c-.925 0-1.618.74-1.618 1.202 0 .853 1.155 1.11 1.155 1.572 0 .555-.462.696-.924.924.924 0 1.618-.416 1.618-.924 0-.925-1.156-1.076-1.156-1.618 0-.693 1.055-1.155.925-1.155zm2.773 0c-.924 0-1.618.74-1.618 1.202 0 .853 1.156 1.11 1.156 1.572 0 .555-.462.696-.925.924.925 0 1.618-.416 1.618-.924 0-.925-1.155-1.076-1.155-1.618 0-.693 1.054-1.155.924-1.155zm2.542 0c-.925 0-1.618.74-1.618 1.202 0 .853 1.156 1.11 1.156 1.572 0 .555-.463.696-.925.924.925 0 1.618-.416 1.618-.924 0-.925-1.156-1.076-1.156-1.618 0-.693 1.055-1.155.925-1.155z" style="fill:url(#linearGradient4);stroke-width:.393727"/></svg>