<svg xmlns="http://www.w3.org/2000/svg" width="24" height="24"><defs><radialGradient id="a" cx="0" cy="0" r="1" fx="0" fy="0" gradientTransform="matrix(0 22 -22 0 12 1)" gradientUnits="userSpaceOnUse" spreadMethod="pad"><stop offset="0" style="stop-opacity:1;stop-color:#a4a4a4"/><stop offset="1" style="stop-opacity:1;stop-color:#626262"/></radialGradient></defs><path d="M9.593 1.115c.12 0 .235-.016.344-.047a31.814 31.814 0 0 1 4.308.01 13.68 13.68 0 0 1 3.781.849c2.026.833 3.41 2.281 4.162 4.338.42 1.24.676 2.516.754 3.823a28.303 28.303 0 0 1-.114 4.928 11.968 11.968 0 0 1-.896 3.317c-.85 1.844-2.23 3.115-4.135 3.812-1.543.522-3.13.798-4.767.824a21.33 21.33 0 0 1-5.452-.412c-3.308-.734-5.354-2.754-6.125-6.057a18.991 18.991 0 0 1-.448-4.51c-.036-1.62.135-3.214.516-4.787.812-3.083 2.77-4.995 5.875-5.734a13.692 13.692 0 0 1 2.197-.354Z" style="fill:url(#a);fill-rule:evenodd;stroke:none;stroke-width:1.33333"/><g fill="#fff" style="fill:none"><path d="M19.355 12A7.336 7.336 0 0 0 12 4.645 7.337 7.337 0 0 0 4.645 12 7.337 7.337 0 0 0 12 19.355 7.337 7.337 0 0 0 19.355 12zm-4.665 0A2.678 2.678 0 0 1 12 14.692 2.679 2.679 0 0 1 9.307 12c0-1.48 1.091-2.69 2.692-2.69 1.6 0 2.691 1.24 2.691 2.69z" opacity=".75"/><path d="M12 8.32A3.68 3.68 0 1 0 12 15.68 3.68 3.68 0 0 0 12 8.32zm0 1.84a1.841 1.841 0 1 1 0 3.681 1.841 1.841 0 0 1-.002-3.682z" opacity=".35"/></g><g style="fill:none;stroke-width:1.97048"><g style="stroke-width:1.97048"><g style="stroke-width:1.97048" transform="translate(22.137 8.458) scale(.15788)"><rect width="14.609" height="14.609" x="-43.222" y="21.254" rx=".769" ry=".769" style="opacity:1;fill:#eef1f4;fill-opacity:1;stroke-width:1.97048;stroke-linecap:round;stroke-linejoin:round;stroke-dashoffset:1.89038;stroke-opacity:.974255;paint-order:stroke markers fill"/><rect width="14.609" height="14.609" x="-42.32" y="21.254" rx=".769" ry=".769" style="opacity:1;fill:#bfc8d5;fill-opacity:1;stroke-width:1.97048;stroke-linecap:round;stroke-linejoin:round;stroke-dashoffset:1.89038;stroke-opacity:.974255;paint-order:stroke markers fill"/><rect width="14.609" height="14.609" x="-42.728" y="21.254" rx=".769" ry=".769" style="opacity:1;fill:#dce2e9;fill-opacity:1;stroke-width:1.97048;stroke-linecap:round;stroke-linejoin:round;stroke-dashoffset:1.89038;stroke-opacity:.974255;paint-order:stroke markers fill"/></g><g style="stroke-width:1.97048" transform="rotate(-90 15.281 -6.823) scale(.15788)"><rect width="2.591" height="2.591" x="-28.695" y="-39.977" class="cls-15" rx=".332" style="fill:#5a6271;fill-opacity:1;stroke-width:.218052"/><rect width="2.591" height="2.591" x="-28.695" y="-33.134" class="cls-15" rx=".332" style="fill:#5a6271;fill-opacity:1;stroke-width:.218052"/></g></g><g style="stroke-width:1.97048"><path d="M-45.418 34.71v23.808A9.999 9.999 0 0 0-35.396 68.54a10 10 0 0 0 10.023-10.022V34.71Z" style="opacity:1;fill:#02679a;fill-opacity:1;stroke-width:1.97048;stroke-linecap:round;stroke-linejoin:round;stroke-dashoffset:1.89038;stroke-opacity:.974255;paint-order:stroke markers fill" transform="translate(22.126 8.458) scale(.15788)"/><path d="M-32.33 47.479h-1.558v1.559h.476v1.409l-1.694 1.693v-5.335h.82l-1.123-1.943-1.122 1.943h.82v7.167l-1.561-1.56v-1.426a.89.89 0 1 0-.607 0v1.677l.391.39 1.777 1.778v.75a1.42 1.42 0 1 0 .607 0V53l1.962-1.955.341-.342v-1.66h.476z" class="cls-6" style="fill:#fff;stroke-width:.218052" transform="translate(22.126 8.458) scale(.15788)"/></g></g></svg>