<svg xmlns="http://www.w3.org/2000/svg" width="24" height="24" fill="none"><path fill="url(#a)" fill-rule="evenodd" d="M9.596 1.114c.12 0 .234-.014.344-.046a31.627 31.627 0 0 1 4.307.011c1.301.102 2.561.384 3.78.848 2.025.833 3.412 2.28 4.158 4.339.427 1.24.679 2.514.756 3.824a27.94 27.94 0 0 1-.114 4.923 11.885 11.885 0 0 1-.894 3.32c-.85 1.843-2.229 3.114-4.135 3.813a15.624 15.624 0 0 1-4.765.825 21.423 21.423 0 0 1-5.453-.413c-3.312-.737-5.354-2.756-6.128-6.056a19.047 19.047 0 0 1-.447-4.511 18.49 18.49 0 0 1 .515-4.786c.812-3.086 2.77-4.998 5.877-5.736a13.953 13.953 0 0 1 2.199-.355Z" clip-rule="evenodd"/><g style="stroke-width:.996294;fill:#1a1a1a;opacity:.15;fill-opacity:1"><g filter="url(#b)" opacity=".7" style="stroke-width:.996294;fill:#1a1a1a;fill-opacity:1" transform="matrix(1.00745 0 0 1 -.724 .038)"><path fill="#000" fill-opacity=".432" d="M11.497 10.31V6.767c0-1.1-.46-1.544-1.605-1.544H6.985c-1.144 0-1.605.445-1.605 1.544v3.534c0 1.107.46 1.544 1.605 1.544h2.907c1.144.008 1.605-.437 1.605-1.537z" style="stroke-width:.996294;fill:#1a1a1a;fill-opacity:1"/></g><g filter="url(#c)" opacity=".7" style="stroke-width:.996294;fill:#1a1a1a;fill-opacity:1" transform="matrix(1.00745 0 0 1 -.724 .038)"><path fill="#000" fill-opacity=".432" d="M11.497 18.163v-3.54c0-1.1-.46-1.545-1.605-1.545H6.985c-1.144 0-1.605.445-1.605 1.544v3.534c0 1.107.46 1.544 1.605 1.544h2.907c1.144.008 1.605-.437 1.605-1.537z" style="stroke-width:.996294;fill:#1a1a1a;fill-opacity:1"/></g><g filter="url(#d)" opacity=".7" style="stroke-width:.996294;fill:#1a1a1a;fill-opacity:1" transform="matrix(1.00745 0 0 1 -.724 .038)"><path fill="#000" fill-opacity=".432" d="M18.886 10.31V6.767c0-1.1-.461-1.544-1.605-1.544h-2.908c-1.144 0-1.604.445-1.604 1.544v3.534c0 1.107.46 1.544 1.604 1.544h2.908c1.144.008 1.605-.437 1.605-1.537z" style="stroke-width:.996294;fill:#1a1a1a;fill-opacity:1"/></g><g filter="url(#e)" opacity=".7" style="stroke-width:.996294;fill:#1a1a1a;fill-opacity:1" transform="matrix(1.00745 0 0 1 -.724 .038)"><path fill="#000" fill-opacity=".432" d="M18.886 18.163v-3.54c0-1.1-.461-1.545-1.605-1.545h-2.908c-1.144 0-1.604.445-1.604 1.544v3.534c0 1.107.46 1.544 1.604 1.544h2.908c1.144.008 1.605-.437 1.605-1.537z" style="stroke-width:.996294;fill:#1a1a1a;fill-opacity:1"/></g></g><path fill="url(#f)" d="M11.352 9.935v-3.54c0-1.1-.46-1.545-1.605-1.545H6.84c-1.144 0-1.605.445-1.605 1.544v3.533c0 1.108.46 1.545 1.605 1.545h2.907c1.144.008 1.605-.437 1.605-1.537Z"/><path fill="#fff" d="M9.733 8.356H6.854c-.098 0-.18-.089-.18-.195 0-.107.082-.195.18-.195h2.879c.098 0 .18.088.18.195 0 .106-.082.195-.18.195Z"/><path fill="#fff" d="M8.293 9.916c-.098 0-.18-.089-.18-.195V6.6c0-.107.082-.195.18-.195.099 0 .18.088.18.195v3.12c0 .106-.081.195-.18.195Z"/><path fill="url(#g)" d="M11.352 17.79v-3.542c0-1.1-.46-1.544-1.605-1.544H6.84c-1.144 0-1.605.445-1.605 1.544v3.534c0 1.107.46 1.544 1.605 1.544h2.907c1.144.008 1.605-.437 1.605-1.537Z"/><path fill="#fff" d="M9.733 16.21H6.854c-.098 0-.18-.088-.18-.195 0-.107.082-.195.18-.195h2.879c.098 0 .18.088.18.195 0 .107-.082.195-.18.195Z"/><path fill="url(#h)" d="M18.74 9.935v-3.54c0-1.1-.46-1.545-1.604-1.545h-2.908c-1.144 0-1.604.445-1.604 1.544v3.533c0 1.108.46 1.545 1.604 1.545h2.908c1.144.008 1.605-.437 1.605-1.537Z"/><path fill="#fff" d="m16.94 7.12-2.25 2.425a.19.19 0 0 1-.281 0 .229.229 0 0 1-.001-.305l2.249-2.425a.19.19 0 0 1 .282 0 .229.229 0 0 1 0 .305Z"/><path stroke="#fff" stroke-linecap="round" stroke-linejoin="round" stroke-width=".277" d="M14.7 7.619c.244 0 .442-.213.442-.476s-.198-.476-.441-.476c-.244 0-.441.213-.441.476s.197.476.44.476ZM16.663 9.655c.244 0 .441-.213.441-.476s-.197-.476-.44-.476c-.244 0-.442.213-.442.476s.198.476.441.476Z"/><path fill="url(#i)" d="M18.74 17.79v-3.542c0-1.1-.46-1.544-1.604-1.544h-2.908c-1.144 0-1.604.445-1.604 1.544v3.534c0 1.107.46 1.544 1.604 1.544h2.908c1.144.008 1.604-.437 1.604-1.537Z"/><path fill="#fff" d="M17.121 16.771h-2.878c-.099 0-.18-.088-.18-.195 0-.107.081-.195.18-.195h2.878c.099 0 .18.088.18.195 0 .107-.081.195-.18.195ZM17.121 15.65h-2.878c-.099 0-.18-.09-.18-.196 0-.107.081-.195.18-.195h2.878c.099 0 .18.088.18.195 0 .107-.081.195-.18.195Z"/><defs><linearGradient id="a" x1="12" x2="12" y1="1" y2="12" gradientUnits="userSpaceOnUse"><stop stop-color="#fff"/><stop offset="1" stop-color="#DBDBDA"/></linearGradient><linearGradient id="f" x1="8.42" x2="8.42" y1="4.983" y2="11.203" gradientUnits="userSpaceOnUse"><stop stop-color="#959491"/><stop offset="1" stop-color="#7F7D78"/></linearGradient><linearGradient id="g" x1="8.42" x2="8.42" y1="12.837" y2="19.057" gradientUnits="userSpaceOnUse"><stop stop-color="#959491"/><stop offset="1" stop-color="#7F7D78"/></linearGradient><linearGradient id="h" x1="15.809" x2="15.809" y1="4.983" y2="11.203" gradientUnits="userSpaceOnUse"><stop stop-color="#959491"/><stop offset="1" stop-color="#7F7D78"/></linearGradient><linearGradient id="i" x1="15.809" x2="15.809" y1="12.837" y2="19.057" gradientUnits="userSpaceOnUse"><stop stop-color="#F77400"/><stop offset="1" stop-color="#C05A00"/></linearGradient><filter id="b" width="6.189" height="6.694" x="5.344" y="5.188" color-interpolation-filters="sRGB" filterUnits="userSpaceOnUse"><feFlood flood-opacity="0" result="BackgroundImageFix"/><feBlend in="SourceGraphic" in2="BackgroundImageFix" result="shape"/><feGaussianBlur result="effect1_foregroundBlur_8_122" stdDeviation=".018"/></filter><filter id="c" width="6.189" height="6.694" x="5.344" y="13.042" color-interpolation-filters="sRGB" filterUnits="userSpaceOnUse"><feFlood flood-opacity="0" result="BackgroundImageFix"/><feBlend in="SourceGraphic" in2="BackgroundImageFix" result="shape"/><feGaussianBlur result="effect1_foregroundBlur_8_122" stdDeviation=".018"/></filter><filter id="d" width="6.189" height="6.694" x="12.732" y="5.188" color-interpolation-filters="sRGB" filterUnits="userSpaceOnUse"><feFlood flood-opacity="0" result="BackgroundImageFix"/><feBlend in="SourceGraphic" in2="BackgroundImageFix" result="shape"/><feGaussianBlur result="effect1_foregroundBlur_8_122" stdDeviation=".018"/></filter><filter id="e" width="6.189" height="6.694" x="12.732" y="13.042" color-interpolation-filters="sRGB" filterUnits="userSpaceOnUse"><feFlood flood-opacity="0" result="BackgroundImageFix"/><feBlend in="SourceGraphic" in2="BackgroundImageFix" result="shape"/><feGaussianBlur result="effect1_foregroundBlur_8_122" stdDeviation=".018"/></filter></defs></svg>