<svg xmlns="http://www.w3.org/2000/svg" xmlns:xlink="http://www.w3.org/1999/xlink" xml:space="preserve" id="svg11" width="24" height="24" fill="none" version="1.1"><defs id="defs9"><linearGradient id="linearGradient16170"><stop id="stop16166" offset="0" style="stop-color:#cf5252;stop-opacity:1"/><stop id="stop16168" offset="1" style="stop-color:#f29393;stop-opacity:1"/></linearGradient><linearGradient xlink:href="#linearGradient16170" id="linearGradient16172" x1="12.508" x2="12.814" y1="53.492" y2="-13.22" gradientUnits="userSpaceOnUse"/><linearGradient xlink:href="#linearGradient16170" id="linearGradient18927" x1="12.508" x2="12.814" y1="53.492" y2="-13.22" gradientUnits="userSpaceOnUse"/><linearGradient xlink:href="#linearGradient16170" id="linearGradient18929" x1="12.508" x2="12.814" y1="53.492" y2="-13.22" gradientUnits="userSpaceOnUse"/><linearGradient xlink:href="#linearGradient16170" id="linearGradient18931" x1="12.508" x2="12.814" y1="53.492" y2="-13.22" gradientUnits="userSpaceOnUse"/><linearGradient xlink:href="#linearGradient16170" id="linearGradient18933" x1="12.508" x2="12.814" y1="53.492" y2="-13.22" gradientUnits="userSpaceOnUse"/><linearGradient xlink:href="#linearGradient16170" id="linearGradient18935" x1="12.508" x2="12.814" y1="53.492" y2="-13.22" gradientUnits="userSpaceOnUse"/><linearGradient xlink:href="#linearGradient16170" id="linearGradient18937" x1="12.508" x2="12.814" y1="53.492" y2="-13.22" gradientUnits="userSpaceOnUse"/><linearGradient xlink:href="#linearGradient16170" id="linearGradient18939" x1="12.508" x2="12.814" y1="53.492" y2="-13.22" gradientUnits="userSpaceOnUse"/><linearGradient xlink:href="#linearGradient16170" id="linearGradient18941" x1="12.508" x2="12.814" y1="53.492" y2="-13.22" gradientUnits="userSpaceOnUse"/><linearGradient xlink:href="#linearGradient16170" id="linearGradient18943" x1="12.508" x2="12.814" y1="53.492" y2="-13.22" gradientUnits="userSpaceOnUse"/><linearGradient xlink:href="#linearGradient16170" id="linearGradient18945" x1="12.508" x2="12.814" y1="53.492" y2="-13.22" gradientUnits="userSpaceOnUse"/><linearGradient xlink:href="#linearGradient16170" id="linearGradient18947" x1="12.508" x2="12.814" y1="53.492" y2="-13.22" gradientUnits="userSpaceOnUse"/><linearGradient xlink:href="#linearGradient16170" id="linearGradient18949" x1="12.508" x2="12.814" y1="53.492" y2="-13.22" gradientUnits="userSpaceOnUse"/><linearGradient xlink:href="#linearGradient16170" id="linearGradient18951" x1="12.508" x2="12.814" y1="53.492" y2="-13.22" gradientUnits="userSpaceOnUse"/><linearGradient xlink:href="#linearGradient16170" id="linearGradient18953" x1="12.508" x2="12.814" y1="53.492" y2="-13.22" gradientUnits="userSpaceOnUse"/><linearGradient xlink:href="#linearGradient16170" id="linearGradient18955" x1="12.508" x2="12.814" y1="53.492" y2="-13.22" gradientUnits="userSpaceOnUse"/><linearGradient xlink:href="#linearGradient16170" id="linearGradient18957" x1="12.508" x2="12.814" y1="53.492" y2="-13.22" gradientUnits="userSpaceOnUse"/><linearGradient xlink:href="#linearGradient16170" id="linearGradient18959" x1="12.508" x2="12.814" y1="53.492" y2="-13.22" gradientUnits="userSpaceOnUse"/><style id="current-color-scheme" type="text/css">.ColorScheme-Text{color:#31363b}.ColorScheme-Background{color:#eff0f1}.ColorScheme-Highlight{color:#3daee9}.ColorScheme-ViewText{color:#31363b}.ColorScheme-ViewBackground{color:#fcfcfc}.ColorScheme-ViewHover{color:#93cee9}.ColorScheme-ViewFocus{color:#3daee9}.ColorScheme-ButtonText{color:#31363b}.ColorScheme-ButtonBackground{color:#eff0f1}.ColorScheme-ButtonHover{color:#93cee9}.ColorScheme-ButtonFocus{color:#3daee9}</style></defs><g id="g365" style="fill:url(#linearGradient16172);fill-opacity:1"><g id="g2267" style="display:inline;fill:url(#linearGradient18929);fill-opacity:1"><path id="path6" d="M50 5C9.09 5 5 25.455 5 50c0 32.727 12.273 45 45 45 32.727 0 45-12.273 45-45 0-24.545-4.09-45-45-45Z" style="font-variation-settings:normal;display:inline;opacity:1;vector-effect:none;fill:url(#linearGradient18927);fill-opacity:1;stroke-width:4.56656;stroke-linecap:butt;stroke-linejoin:miter;stroke-miterlimit:4;stroke-dasharray:none;stroke-dashoffset:0;stroke-opacity:1;-inkscape-stroke:none;stop-color:#000;stop-opacity:1" transform="matrix(.24444 0 0 .24444 -.222 -.222)"/></g></g><g id="g16775" transform="matrix(.97013 0 0 .97013 -41.038 3.344)"><path id="path1057" fill="#f9f9f9" d="M47.86 2.042v8.605l4.556 3.038V4.826Zm1.013 0 4.05 2.531h2.024l4.05-2.53c-2.025 0-3.037.262-5.062 2.024-2.025-1.719-3.037-2.025-5.062-2.025Zm11.136 0-4.556 2.784v8.859l4.556-3.038zM52.922 5.08v9.112h2.025V5.079Z" style="stroke-width:.367391"/><g id="g2063" transform="matrix(.15228 0 0 .15228 43.92 -12.046)"><g id="g2073" transform="matrix(.81749 0 0 .81749 -208.323 -6.462)"><circle id="circle1061" cx="365.626" cy="212.744" r="30.262" fill="#8561c5" style="stroke-width:2.01746"/><path id="path1063" fill="#fff" d="m361.591 196.604-.355 4.25A12.682 12.682 0 0 0 357.53 203l-3.865-1.82-4.035 6.99 3.51 2.436a12.682 12.682 0 0 0-.195 2.139 12.682 12.682 0 0 0 .185 2.148l-3.498 2.43 4.035 6.988 3.853-1.816a12.682 12.682 0 0 0 3.716 2.13l.355 4.261h8.07l.357-4.25a12.682 12.682 0 0 0 3.706-2.145l3.864 1.82 4.035-6.989-3.509-2.437a12.682 12.682 0 0 0 .194-2.138 12.682 12.682 0 0 0-.184-2.149l3.499-2.427-4.035-6.988-3.854 1.815a12.682 12.682 0 0 0-3.716-2.13l-.357-4.263zm4.035 11.528a4.612 4.612 0 0 1 4.612 4.612 4.612 4.612 0 0 1-4.612 4.612 4.612 4.612 0 0 1-4.612-4.612 4.612 4.612 0 0 1 4.612-4.612z" style="stroke-width:2.01746"/></g></g></g></svg>