<svg xmlns="http://www.w3.org/2000/svg" xmlns:xlink="http://www.w3.org/1999/xlink" xml:space="preserve" width="24" height="24" fill="none"><defs><linearGradient id="a"><stop offset="0" style="stop-color:#b3b3b3;stop-opacity:1"/><stop offset="1" style="stop-color:#fcfcfc;stop-opacity:1"/></linearGradient><linearGradient xlink:href="#a" id="b" x1="47.475" x2="46.791" y1="85.062" y2="-23.261" gradientUnits="userSpaceOnUse"/><linearGradient xlink:href="#a" id="e" x1="47.475" x2="46.791" y1="85.062" y2="-23.261" gradientUnits="userSpaceOnUse"/><linearGradient xlink:href="#a" id="d" x1="47.475" x2="46.791" y1="85.062" y2="-23.261" gradientUnits="userSpaceOnUse"/><linearGradient xlink:href="#a" id="c" x1="47.475" x2="46.791" y1="85.062" y2="-23.261" gradientUnits="userSpaceOnUse"/></defs><g style="fill:url(#b);fill-opacity:1;stroke-width:5.54546"><g style="fill:url(#c);fill-opacity:1;stroke-width:5.54546" transform="matrix(.24044 0 0 .24044 1 1)"><g style="fill:url(#d);fill-opacity:1;stroke-width:5.54546"><path d="M35.75.473c.5.004.977-.059 1.43-.192a131.89 131.89 0 0 1 17.914.047 56.345 56.345 0 0 1 15.722 3.524c8.426 3.468 14.192 9.484 17.293 18.05a59.214 59.214 0 0 1 3.145 15.903 116.03 116.03 0 0 1-.477 20.476 49.45 49.45 0 0 1-3.715 13.813c-3.539 7.66-9.269 12.945-17.199 15.855a65.014 65.014 0 0 1-19.82 3.43 89.267 89.267 0 0 1-22.676-1.715C13.594 86.594 5.098 78.199 1.879 64.473A79.31 79.31 0 0 1 .02 45.711a76.872 76.872 0 0 1 2.144-19.906C5.539 12.973 13.684 5.02 26.605 1.949A57.513 57.513 0 0 1 35.75.473Z" style="fill:url(#e);fill-opacity:1;fill-rule:evenodd;stroke:none;stroke-width:5.54546"/></g></g></g><g style="stroke-width:1.16296"><g stroke-linejoin="round" stroke-width="9.558" transform="matrix(.36562 0 0 .36562 3.225 -2.625)"><circle cx="24" cy="24" r="20" fill="#b3b3b3" style="stroke-width:9.55769" transform="translate(0 16)"/><path fill="#39c458" d="M24 20A20 20 0 0 0 4 40a20 20 0 0 0 20 20 20 20 0 0 0 14.133-5.867L24 40l14.13-14.133A20 20 0 0 0 24 20" style="stroke-width:9.55769"/><circle cx="24" cy="40" r="16" fill="#fcfcfc" style="stroke-width:9.55769"/></g><path fill="#4d4d4d" fill-rule="evenodd" d="m12 3.223 1.308.436s.542 1.667.978 2.103c.69.69 3.383 2.259 3.383 5.747 0 2.617-1.744 4.361-3.925 5.67 2.18-2.18 3.053-3.053 3.053-5.67 0-3.489-3.489-3.925-3.489-3.925v9.497c0 .97-.914 2.58-2.407 3.2-1.892.784-3.874.337-4.426-.999-.553-1.335.532-3.052 2.423-3.835 1.13-.469 2.19-.576 3.103-.182Z" style="stroke-width:2.03128" transform="matrix(.85987 0 0 .85987 1.682 1.729)"/></g></svg>