<svg xmlns="http://www.w3.org/2000/svg" xmlns:xlink="http://www.w3.org/1999/xlink" xml:space="preserve" width="24" height="24" fill="none"><defs><linearGradient id="d" x1="0" x2="1" y1="0" y2="0" gradientTransform="rotate(-27.533 959.832 -107.303) scale(440.04492)" gradientUnits="userSpaceOnUse" spreadMethod="pad"><stop offset="0" style="stop-opacity:.99607843;stop-color:#fff"/><stop offset=".341" style="stop-opacity:1;stop-color:#fff"/><stop offset="1" style="stop-opacity:.99607843;stop-color:#fff"/></linearGradient><linearGradient id="j" x1="0" x2="1" y1="0" y2="0" gradientTransform="rotate(-90 277.932 105.877) scale(204.88353)" gradientUnits="userSpaceOnUse" spreadMethod="pad"><stop offset="0" style="stop-opacity:1;stop-color:#fff"/><stop offset=".209" style="stop-opacity:1;stop-color:#fff"/><stop offset="1" style="stop-opacity:0;stop-color:#fff"/></linearGradient><linearGradient id="b" x1="0" x2="1" y1="0" y2="0" gradientTransform="translate(286.883 536.985) scale(119.59705)" gradientUnits="userSpaceOnUse" spreadMethod="pad"><stop offset="0" style="stop-opacity:1;stop-color:#fff"/><stop offset=".875" style="stop-opacity:0;stop-color:#fff"/><stop offset="1" style="stop-opacity:0;stop-color:#fff"/></linearGradient><linearGradient id="h" x1="0" x2="1" y1="0" y2="0" gradientTransform="scale(77.80141) rotate(46.017 -4.872 6.051)" gradientUnits="userSpaceOnUse" spreadMethod="pad"><stop offset="0" style="stop-opacity:1;stop-color:#fff"/><stop offset=".536" style="stop-opacity:1;stop-color:#fff"/><stop offset="1" style="stop-opacity:0;stop-color:#fff"/></linearGradient><linearGradient id="l" x1="0" x2="1" y1="0" y2="0" gradientTransform="scale(-158.43383) rotate(49.874 .59 -4.16)" gradientUnits="userSpaceOnUse" spreadMethod="pad"><stop offset="0" style="stop-opacity:0;stop-color:#fff"/><stop offset=".077" style="stop-opacity:0;stop-color:#fff"/><stop offset="1" style="stop-opacity:.99607843;stop-color:#fff"/></linearGradient><linearGradient xlink:href="#b" id="a" x1="0" x2="1" y1="0" y2="0" gradientTransform="translate(286.883 536.985) scale(119.59705)" gradientUnits="userSpaceOnUse" spreadMethod="pad"/><linearGradient xlink:href="#d" id="c" x1="0" x2="1" y1="0" y2="0" gradientTransform="rotate(-27.533 959.832 -107.303) scale(440.04492)" gradientUnits="userSpaceOnUse" spreadMethod="pad"/><linearGradient xlink:href="#h" id="g" x1="0" x2="1" y1="0" y2="0" gradientTransform="scale(77.80141) rotate(46.017 -4.872 6.051)" gradientUnits="userSpaceOnUse" spreadMethod="pad"/><linearGradient xlink:href="#j" id="i" x1="0" x2="1" y1="0" y2="0" gradientTransform="rotate(-90 277.932 105.877) scale(204.88353)" gradientUnits="userSpaceOnUse" spreadMethod="pad"/><linearGradient xlink:href="#l" id="k" x1="0" x2="1" y1="0" y2="0" gradientTransform="scale(-158.43383) rotate(49.874 .59 -4.16)" gradientUnits="userSpaceOnUse" spreadMethod="pad"/><radialGradient id="m" cx="0" cy="0" r="1" fx="0" fy="0" gradientTransform="matrix(0 11 -11 0 -22 1)" gradientUnits="userSpaceOnUse" spreadMethod="pad"><stop offset="0" style="stop-color:#ff9aaf;stop-opacity:1"/><stop offset="1" style="stop-color:#ff8080;stop-opacity:1"/></radialGradient><radialGradient id="f" cx="0" cy="0" r="1" fx="0" fy="0" gradientTransform="matrix(-547.24042 -131.02512 152.52774 -637.04834 566.544 160.383)" gradientUnits="userSpaceOnUse" spreadMethod="pad"><stop offset="0" style="stop-opacity:1;stop-color:#fff"/><stop offset=".212" style="stop-opacity:1;stop-color:#fff"/><stop offset=".688" style="stop-opacity:1;stop-color:#fff"/><stop offset="1" style="stop-opacity:.99607843;stop-color:#fff"/></radialGradient><radialGradient xlink:href="#f" id="e" cx="0" cy="0" r="1" fx="0" fy="0" gradientTransform="matrix(-547.24042 -131.02512 152.52774 -637.04834 566.544 160.383)" gradientUnits="userSpaceOnUse" spreadMethod="pad"/></defs><path d="M-24.407 1.115c.12 0 .235-.016.344-.047a31.813 31.813 0 0 1 4.308.01 13.68 13.68 0 0 1 3.781.849c2.026.833 3.41 2.281 4.162 4.338.42 1.24.676 2.516.754 3.823a28.303 28.303 0 0 1-.114 4.928 11.968 11.968 0 0 1-.896 3.317c-.85 1.844-2.23 3.115-4.135 3.812-1.543.522-3.13.798-4.767.824a21.331 21.331 0 0 1-5.452-.412c-3.308-.734-5.354-2.754-6.125-6.057a18.991 18.991 0 0 1-.448-4.51 18.502 18.502 0 0 1 .516-4.787c.812-3.083 2.77-4.995 5.875-5.734a13.692 13.692 0 0 1 2.197-.354z" style="fill:url(#m);fill-rule:evenodd;stroke:none;stroke-width:1.33333" transform="translate(34)"/><g transform="translate(68.907 4.907)"><rect width="14.187" height="14.187" x="-64" fill="#3d3d3d" rx="1.182" style="stroke-width:.443338;paint-order:normal;image-rendering:optimizeSpeed"/><circle cx="-11.527" cy="-56.907" r="1.33" fill="gray" style="stroke-width:.443338;paint-order:normal;image-rendering:optimizeSpeed" transform="rotate(-90)"/><path fill="#fff" d="M-55.577 11.527a1.33 1.33 0 0 0-.18-.665h-1.15a.665.665 0 0 0-.665.665.665.665 0 0 0 .665.665h1.151a1.33 1.33 0 0 0 .18-.665z" opacity=".25" style="stroke-width:.443338;paint-order:normal;image-rendering:optimizeSpeed"/><circle cx="-11.527" cy="-61.16" r="1.33" fill="gray" style="stroke-width:.443338;paint-order:normal;image-rendering:optimizeSpeed" transform="rotate(-90)"/><path fill="#fff" d="M-61.16 10.197a1.33 1.33 0 0 0-.665.18v1.15a.665.665 0 0 0 .665.665.665.665 0 0 0 .665-.665v-1.151a1.33 1.33 0 0 0-.665-.18z" opacity=".25" style="stroke-width:.443338;paint-order:normal;image-rendering:optimizeSpeed"/><circle cx="-11.527" cy="-52.917" r="1.33" fill="gray" style="stroke-width:.443338;paint-order:normal;image-rendering:optimizeSpeed" transform="rotate(-90)"/><path fill="#fff" d="M-52.917 12.857a1.33 1.33 0 0 0 .665-.18v-1.15a.665.665 0 0 0-.665-.665.665.665 0 0 0-.665.665v1.15a1.33 1.33 0 0 0 .665.18z" opacity=".25" style="stroke-width:.443338;paint-order:normal;image-rendering:optimizeSpeed"/><rect width="11.527" height="7.98" x="-62.67" y="1.33" fill="#202020" ry=".443" style="stroke-width:.443338;paint-order:normal;image-rendering:optimizeSpeed"/><path fill="#3af684" d="M-61.783 1.773h2.216v7.094h-2.216zm3.546 4.434h2.66v2.66h-2.66z" style="stroke-width:.443338;paint-order:normal;image-rendering:optimizeSpeed"/><path fill="#0eabe7" d="M-54.247 4.433h2.217v4.434h-2.217z" style="stroke-width:.443338;paint-order:normal;image-rendering:optimizeSpeed"/></g></svg>