<svg xmlns="http://www.w3.org/2000/svg" xmlns:xlink="http://www.w3.org/1999/xlink" xml:space="preserve" id="svg11" width="24" height="24" fill="none" version="1.1"><defs id="defs9"><linearGradient id="linearGradient2403"><stop id="stop2399" offset="0" style="stop-color:gray;stop-opacity:1"/><stop id="stop2401" offset="1" style="stop-color:#f2f2f2;stop-opacity:1"/></linearGradient><linearGradient xlink:href="#linearGradient2403" id="linearGradient2405" x1="11.593" x2="11.39" y1="28.983" y2="-3.966" gradientUnits="userSpaceOnUse"/><linearGradient xlink:href="#linearGradient2403" id="linearGradient2545" x1="11.593" x2="11.39" y1="28.983" y2="-3.966" gradientUnits="userSpaceOnUse"/><linearGradient xlink:href="#linearGradient2403" id="linearGradient2547" x1="11.593" x2="11.39" y1="28.983" y2="-3.966" gradientUnits="userSpaceOnUse"/><linearGradient xlink:href="#linearGradient2403" id="linearGradient2549" x1="11.593" x2="11.39" y1="28.983" y2="-3.966" gradientUnits="userSpaceOnUse"/><linearGradient xlink:href="#linearGradient2403" id="linearGradient2551" x1="11.593" x2="11.39" y1="28.983" y2="-3.966" gradientUnits="userSpaceOnUse"/><linearGradient xlink:href="#linearGradient2403" id="linearGradient2553" x1="11.593" x2="11.39" y1="28.983" y2="-3.966" gradientUnits="userSpaceOnUse"/><linearGradient xlink:href="#linearGradient2403" id="linearGradient2555" x1="11.593" x2="11.39" y1="28.983" y2="-3.966" gradientUnits="userSpaceOnUse"/><linearGradient xlink:href="#linearGradient2403" id="linearGradient2557" x1="11.593" x2="11.39" y1="28.983" y2="-3.966" gradientUnits="userSpaceOnUse"/><linearGradient xlink:href="#linearGradient2403" id="linearGradient2559" x1="11.593" x2="11.39" y1="28.983" y2="-3.966" gradientUnits="userSpaceOnUse"/><linearGradient xlink:href="#linearGradient2403" id="linearGradient2561" x1="11.593" x2="11.39" y1="28.983" y2="-3.966" gradientUnits="userSpaceOnUse"/><linearGradient xlink:href="#linearGradient2403" id="linearGradient2563" x1="11.593" x2="11.39" y1="28.983" y2="-3.966" gradientUnits="userSpaceOnUse"/><linearGradient xlink:href="#linearGradient2403" id="linearGradient2565" x1="11.593" x2="11.39" y1="28.983" y2="-3.966" gradientUnits="userSpaceOnUse"/><linearGradient xlink:href="#linearGradient2403" id="linearGradient2567" x1="11.593" x2="11.39" y1="28.983" y2="-3.966" gradientUnits="userSpaceOnUse"/><linearGradient xlink:href="#linearGradient2403" id="linearGradient2569" x1="11.593" x2="11.39" y1="28.983" y2="-3.966" gradientUnits="userSpaceOnUse"/><linearGradient xlink:href="#linearGradient2403" id="linearGradient2571" x1="11.593" x2="11.39" y1="28.983" y2="-3.966" gradientUnits="userSpaceOnUse"/><linearGradient xlink:href="#linearGradient2403" id="linearGradient2573" x1="11.593" x2="11.39" y1="28.983" y2="-3.966" gradientUnits="userSpaceOnUse"/><linearGradient xlink:href="#linearGradient2403" id="linearGradient2575" x1="11.593" x2="11.39" y1="28.983" y2="-3.966" gradientUnits="userSpaceOnUse"/><linearGradient xlink:href="#linearGradient2403" id="linearGradient2577" x1="11.593" x2="11.39" y1="28.983" y2="-3.966" gradientUnits="userSpaceOnUse"/><style id="current-color-scheme" type="text/css">.ColorScheme-Text{color:#31363b}.ColorScheme-Background{color:#eff0f1}.ColorScheme-Highlight{color:#3daee9}.ColorScheme-ViewText{color:#31363b}.ColorScheme-ViewBackground{color:#fcfcfc}.ColorScheme-ViewHover{color:#93cee9}.ColorScheme-ViewFocus{color:#3daee9}.ColorScheme-ButtonText{color:#31363b}.ColorScheme-ButtonBackground{color:#eff0f1}.ColorScheme-ButtonHover{color:#93cee9}.ColorScheme-ButtonFocus{color:#3daee9}</style></defs><g id="g365" style="fill:url(#linearGradient2405);fill-opacity:1"><g id="g2267" style="fill:url(#linearGradient2547);fill-opacity:1"><path id="path6" d="M50 5C9.09 5 5 25.455 5 50c0 32.727 12.273 45 45 45 32.727 0 45-12.273 45-45 0-24.545-4.09-45-45-45Z" style="font-variation-settings:normal;display:inline;opacity:1;vector-effect:none;fill:url(#linearGradient2545);fill-opacity:1;stroke-width:4.56656;stroke-linecap:butt;stroke-linejoin:miter;stroke-miterlimit:4;stroke-dasharray:none;stroke-dashoffset:0;stroke-opacity:1;-inkscape-stroke:none;stop-color:#000;stop-opacity:1" transform="matrix(.24444 0 0 .24444 -.222 -.222)"/></g></g><g id="g3883" transform="matrix(.243 0 0 .243 -76.452 -27.83)"><rect id="rect2853" width="60.297" height="60.297" x="333.865" y="133.768" fill="#3d3d3d" rx="5.025" style="stroke-width:1.88429;paint-order:normal;image-rendering:optimizeSpeed"/><circle id="circle2855" cx="-182.759" cy="364.014" r="5.653" fill="gray" style="stroke-width:1.88429;paint-order:normal;image-rendering:optimizeSpeed" transform="rotate(-90)"/><path id="path2857" fill="#fff" d="M369.667 182.76a5.653 5.653 0 0 0-.767-2.827h-4.886a2.826 2.826 0 0 0-2.827 2.826 2.826 2.826 0 0 0 2.827 2.827h4.891a5.653 5.653 0 0 0 .762-2.827z" opacity=".25" style="stroke-width:1.88429;paint-order:normal;image-rendering:optimizeSpeed"/><circle id="circle2859" cx="-182.759" cy="345.938" r="5.653" fill="gray" style="stroke-width:1.88429;paint-order:normal;image-rendering:optimizeSpeed" transform="rotate(-90)"/><path id="path2861" fill="#fff" d="M345.938 177.106a5.653 5.653 0 0 0-2.827.767v4.886a2.826 2.826 0 0 0 2.827 2.827 2.826 2.826 0 0 0 2.826-2.827v-4.891a5.653 5.653 0 0 0-2.826-.762z" opacity=".25" style="stroke-width:1.88429;paint-order:normal;image-rendering:optimizeSpeed"/><circle id="circle2863" cx="-182.759" cy="380.972" r="5.653" fill="gray" style="stroke-width:1.88429;paint-order:normal;image-rendering:optimizeSpeed" transform="rotate(-90)"/><path id="path2865" fill="#fff" d="M380.972 188.412a5.653 5.653 0 0 0 2.827-.767v-4.886a2.826 2.826 0 0 0-2.827-2.826 2.826 2.826 0 0 0-2.826 2.826v4.892a5.653 5.653 0 0 0 2.826.761z" opacity=".25" style="stroke-width:1.88429;paint-order:normal;image-rendering:optimizeSpeed"/><rect id="rect2867" width="48.991" height="33.917" x="339.518" y="139.421" fill="#202020" ry="1.884" style="stroke-width:1.88429;paint-order:normal;image-rendering:optimizeSpeed"/><path id="path2871" fill="#3af684" d="M343.287 141.305h9.421v30.148h-9.421zm15.074 18.843h11.306v11.305H358.36z" style="stroke-width:1.88429;paint-order:normal;image-rendering:optimizeSpeed"/><path id="path2873" fill="#0eabe7" d="M375.32 152.61h9.42v18.843h-9.42z" style="stroke-width:1.88429;paint-order:normal;image-rendering:optimizeSpeed"/></g></svg>