<svg xmlns="http://www.w3.org/2000/svg" width="24" height="24" image-rendering="optimizeSpeed"><path d="M9.593 1.115c.12 0 .235-.016.344-.047a31.814 31.814 0 0 1 4.308.01 13.68 13.68 0 0 1 3.781.849c2.026.833 3.41 2.281 4.162 4.338.42 1.24.676 2.516.754 3.823a28.303 28.303 0 0 1-.114 4.928 11.968 11.968 0 0 1-.896 3.317c-.85 1.844-2.23 3.115-4.135 3.812-1.543.522-3.13.798-4.767.824a21.33 21.33 0 0 1-5.452-.412c-3.308-.734-5.354-2.754-6.125-6.057a18.991 18.991 0 0 1-.448-4.51 18.502 18.502 0 0 1 .516-4.787c.812-3.083 2.77-4.995 5.875-5.734a13.692 13.692 0 0 1 2.197-.354Z" style="fill:#4d4d4d;fill-opacity:1;fill-rule:evenodd;stroke:none;stroke-width:1.33333"/><g style="stroke-width:2.86153852;stroke-dasharray:none" transform="matrix(.41935 0 0 .41935 15.355 -1.804)"><path d="M-16.727 20.636c4.704 0 12.813 14.546 17.454 14.546" style="fill:none;fill-opacity:1;stroke:#fff;stroke-width:2.86153852;stroke-linecap:butt;stroke-linejoin:miter;stroke-miterlimit:4;stroke-dasharray:none;stroke-opacity:1"/><rect width="7.273" height="7.273" x="-24" y="17" ry="2.221" style="fill:#fff;fill-opacity:1;stroke:none;stroke-width:2.86153852;stroke-miterlimit:4;stroke-dasharray:none;stroke-opacity:1;paint-order:markers fill stroke"/><rect width="7.273" height="7.273" x="-24" y="27.182" ry="2.221" style="fill:#fff;fill-opacity:1;stroke:none;stroke-width:2.86153852;stroke-miterlimit:4;stroke-dasharray:none;stroke-opacity:1;paint-order:markers fill stroke"/><rect width="7.273" height="7.273" x=".727" y="31.545" ry="2.221" style="fill:#fff;fill-opacity:1;stroke:none;stroke-width:2.86153852;stroke-miterlimit:4;stroke-dasharray:none;stroke-opacity:1;paint-order:markers fill stroke"/><rect width="7.273" height="7.273" x=".727" y="40.727" ry="2.221" style="fill:#fff;fill-opacity:1;stroke:none;stroke-width:2.86153852;stroke-miterlimit:4;stroke-dasharray:none;stroke-opacity:1;paint-order:markers fill stroke"/><path d="M-16.727 30.818c4.704 0 12.813 14.546 17.454 14.546" style="fill:none;fill-opacity:1;stroke:#fff;stroke-width:2.86153852;stroke-linecap:butt;stroke-linejoin:miter;stroke-miterlimit:4;stroke-dasharray:none;stroke-opacity:1"/></g></svg>