<svg xmlns="http://www.w3.org/2000/svg" xml:space="preserve" width="24" height="24" image-rendering="optimizeSpeed"><defs><radialGradient id="a" cx="0" cy="0" r="1" fx="0" fy="0" gradientTransform="matrix(0 22 -22 0 46 1)" gradientUnits="userSpaceOnUse" spreadMethod="pad"><stop offset="0" style="stop-opacity:1;stop-color:#f698a8"/><stop offset="1" style="stop-opacity:1;stop-color:#ef4360"/></radialGradient></defs><path d="M43.593 1.115c.12 0 .235-.016.344-.047a31.814 31.814 0 0 1 4.308.01 13.68 13.68 0 0 1 3.782.849c2.025.833 3.41 2.281 4.161 4.338.421 1.24.676 2.516.755 3.823a28.303 28.303 0 0 1-.115 4.928 11.968 11.968 0 0 1-.896 3.317c-.85 1.844-2.23 3.115-4.135 3.812-1.542.522-3.13.798-4.766.824a21.331 21.331 0 0 1-5.452-.412c-3.308-.734-5.355-2.754-6.126-6.057a18.991 18.991 0 0 1-.448-4.51 18.502 18.502 0 0 1 .516-4.787c.812-3.083 2.771-4.995 5.875-5.734a13.692 13.692 0 0 1 2.197-.354Z" style="fill:url(#a);fill-rule:evenodd;stroke:none;stroke-width:1.33333" transform="translate(-34)"/><path d="M42.453 6.995c1.911 0 5.208 5.9 7.094 5.9" style="fill:none;stroke:#fff;stroke-width:.899998;stroke-linecap:butt;stroke-linejoin:miter;stroke-miterlimit:4;stroke-dasharray:none;stroke-opacity:1" transform="translate(-34)"/><path d="M40.401 5.516h1.151c.5 0 .901.401.901.9v1.152c0 .5-.401.901-.901.901h-1.15a.899.899 0 0 1-.902-.901V6.416c0-.499.401-.9.901-.9zM40.401 9.65h1.151c.5 0 .901.402.901.902v1.145c0 .5-.401.902-.901.902h-1.15a.899.899 0 0 1-.902-.902v-1.145c0-.5.401-.901.901-.901zM50.448 11.421h1.15c.5 0 .902.402.902.902v1.146c0 .5-.401.906-.901.906h-1.151a.902.902 0 0 1-.901-.906v-1.146c0-.5.401-.902.901-.902zM50.448 15.145h1.15c.5 0 .902.402.902.902v1.15c0 .5-.401.902-.901.902h-1.151a.899.899 0 0 1-.901-.902v-1.15c0-.5.401-.902.901-.902z" style="fill:#fff;fill-opacity:1;fill-rule:nonzero;stroke:none;stroke-width:1.33333" transform="translate(-34)"/><path d="M42.453 11.125c1.911 0 5.208 5.907 7.094 5.907" style="fill:none;stroke:#fff;stroke-width:.899998;stroke-linecap:butt;stroke-linejoin:miter;stroke-miterlimit:4;stroke-dasharray:none;stroke-opacity:1" transform="translate(-34)"/></svg>