<svg xmlns="http://www.w3.org/2000/svg" xmlns:xlink="http://www.w3.org/1999/xlink" xml:space="preserve" id="svg154" width="24" height="24" fill="none" version="1.1"><defs id="defs152"><linearGradient id="linearGradient2348"><stop id="stop2344" offset="0" style="stop-color:#70487e;stop-opacity:1"/><stop id="stop2346" offset="1" style="stop-color:#caf;stop-opacity:1"/></linearGradient><linearGradient id="linearGradient29319"><stop id="stop29317" offset="0" style="stop-color:#d2d8db;stop-opacity:1"/></linearGradient><linearGradient id="fffff"><stop id="stop28389" offset="0" style="stop-color:#fff;stop-opacity:1"/></linearGradient><linearGradient xlink:href="#linearGradient2348" id="linearGradient2350" x1="12.125" x2="10.813" y1="57.125" y2="-11.125" gradientUnits="userSpaceOnUse"/><linearGradient xlink:href="#linearGradient2348" id="linearGradient5241" x1="12.125" x2="10.813" y1="57.125" y2="-11.125" gradientUnits="userSpaceOnUse"/><style id="current-color-scheme" type="text/css">.ColorScheme-Text{color:#31363b}.ColorScheme-Background{color:#eff0f1}.ColorScheme-Highlight{color:#3daee9}.ColorScheme-ViewText{color:#31363b}.ColorScheme-ViewBackground{color:#fcfcfc}.ColorScheme-ViewHover{color:#93cee9}.ColorScheme-ViewFocus{color:#3daee9}.ColorScheme-ButtonText{color:#31363b}.ColorScheme-ButtonBackground{color:#eff0f1}.ColorScheme-ButtonHover{color:#93cee9}.ColorScheme-ButtonFocus{color:#3daee9}</style></defs><g id="g2267" style="display:inline;fill:url(#linearGradient2350);fill-opacity:1"><path id="path6" d="M50 5C9.09 5 5 25.455 5 50c0 32.727 12.273 45 45 45 32.727 0 45-12.273 45-45 0-24.545-4.09-45-45-45Z" style="font-variation-settings:normal;display:inline;opacity:1;vector-effect:none;fill:url(#linearGradient5241);fill-opacity:1;stroke-width:4.56656;stroke-linecap:butt;stroke-linejoin:miter;stroke-miterlimit:4;stroke-dasharray:none;stroke-dashoffset:0;stroke-opacity:1;-inkscape-stroke:none;stop-color:#000;stop-opacity:1" transform="matrix(.24444 0 0 .24444 -.222 -.222)"/></g><g id="g5105" transform="matrix(.23835 0 0 .23835 -69.58 5.627)"><path id="path4241" fill="#fff" d="M328.598-.47c-9.23-.005-16.713 7.444-16.713 16.626 0 9.181 7.482 16.628 16.713 16.628h27.348c9.231 0 16.713-7.444 16.713-16.628 0-9.185-7.482-16.627-16.713-16.627a16.762 16.861 0 0 0-13.68 7.092 16.755 16.854 0 0 0-13.668-7.092z" style="stroke-width:2.34439;paint-order:normal;image-rendering:optimizeSpeed"/><path id="path4243" fill="#c6557f" d="M342.275 23.715c-6.076 0-12.158 4.536-12.158 9.07 0 4.535 9.804 21.16 12.158 21.16 2.353 0 12.152-16.625 12.152-21.16 0-4.537-6.077-9.07-12.152-9.07z" style="stroke-width:2.34439;image-rendering:optimizeSpeed"/><path id="path4245" fill="#2f5b93" d="M330.117 11.622c-3.356 0-6.077 2.707-6.077 6.045 0 3.34 2.72 6.048 6.077 6.048 3.357 0 6.078-2.706 6.078-6.048 0-3.338-2.721-6.045-6.078-6.045zm24.31 0c-3.357 0-6.077 2.707-6.077 6.045 0 3.34 2.72 6.048 6.077 6.048 3.357 0 6.078-2.706 6.078-6.048 0-3.338-2.721-6.045-6.078-6.045zm-25.83 3.024c.84 0 1.52.677 1.52 1.512s-.68 1.51-1.52 1.51c-.838 0-1.518-.675-1.518-1.51s.68-1.512 1.519-1.512zm24.31 0c.84 0 1.52.677 1.52 1.512s-.68 1.51-1.52 1.51c-.838 0-1.519-.675-1.519-1.51s.68-1.512 1.52-1.512z" style="stroke-width:2.34439;paint-order:normal;image-rendering:optimizeSpeed"/></g></svg>