<svg xmlns="http://www.w3.org/2000/svg" xml:space="preserve" width="24" height="24" fill="none"><defs><clipPath id="b" clipPathUnits="userSpaceOnUse"><path d="M0 0h19v19H0Z"/></clipPath><clipPath id="c" clipPathUnits="userSpaceOnUse"><path d="M0 0h19v19H0Z"/></clipPath><radialGradient id="a" cx="0" cy="0" r="1" fx="0" fy="0" gradientTransform="matrix(0 16.5 -16.5 0 9 .75)" gradientUnits="userSpaceOnUse" spreadMethod="pad"><stop offset="0" style="stop-opacity:1;stop-color:#8fc8ff"/><stop offset="1" style="stop-opacity:1;stop-color:#0056a8"/></radialGradient></defs><path d="M7.195.836c.09 0 .176-.012.258-.035a23.86 23.86 0 0 1 3.231.008 10.26 10.26 0 0 1 2.836.636c1.519.625 2.558 1.711 3.121 3.254.316.93.507 1.887.566 2.867a21.227 21.227 0 0 1-.086 3.696 8.976 8.976 0 0 1-.672 2.488c-.637 1.383-1.672 2.336-3.101 2.859a11.693 11.693 0 0 1-3.575.618 15.998 15.998 0 0 1-4.089-.309c-2.481-.551-4.016-2.066-4.594-4.543a14.244 14.244 0 0 1-.336-3.383c-.027-1.211.101-2.41.387-3.59.609-2.312 2.078-3.746 4.406-4.3A10.27 10.27 0 0 1 7.195.836Z" style="fill:url(#a);fill-rule:evenodd;stroke:none" transform="matrix(1.33333 0 0 1.33333 0 0)"/><g clip-path="url(#b)" opacity=".194" transform="matrix(1.33333 0 0 1.33333 0 0)"><path d="M11.371 3.418v11.184a.389.389 0 0 1-.379.398h-.035a.39.39 0 0 1-.383-.398V3.418a.39.39 0 0 1 .383-.402h.035c.211 0 .379.179.379.402z" style="fill:#fff;fill-opacity:1;fill-rule:evenodd;stroke:none"/></g><path d="M11.375 3.402A.399.399 0 0 0 10.977 3a.402.402 0 0 0-.403.402v8.41h.801z" style="fill:#fff;fill-opacity:1;fill-rule:evenodd;stroke:none" transform="matrix(1.33333 0 0 1.33333 0 0)"/><path d="M10.996 13.355a1.164 1.164 0 0 1-1.164-1.164 1.164 1.164 0 0 1 2.328 0c0 .645-.519 1.164-1.164 1.164z" style="fill:#fff;fill-opacity:1;fill-rule:evenodd;stroke:none" transform="matrix(1.33333 0 0 1.33333 0 0)"/><g clip-path="url(#c)" opacity=".194" transform="matrix(1.33333 0 0 1.33333 0 0)"><path d="M7.379 3.418v11.184c0 .218-.149.398-.328.398h-.145c-.179 0-.328-.18-.328-.398V3.418c0-.223.149-.402.328-.402h.145c.179 0 .328.179.328.402z" style="fill:#fff;fill-opacity:1;fill-rule:evenodd;stroke:none"/></g><path d="M7.383 3.402a.402.402 0 0 0-.805 0v4.414h.805z" style="fill:#fff;fill-opacity:1;fill-rule:evenodd;stroke:none" transform="matrix(1.33333 0 0 1.33333 0 0)"/><path d="M7.004 8.562a1.161 1.161 0 1 1 0-2.324c.641 0 1.164.52 1.164 1.16 0 .645-.523 1.164-1.164 1.164z" style="fill:#fff;fill-opacity:1;fill-rule:evenodd;stroke:none" transform="matrix(1.33333 0 0 1.33333 0 0)"/></svg>