<svg xmlns="http://www.w3.org/2000/svg" width="24" height="24"><path d="M9.593 1.115c.12 0 .235-.016.344-.047a31.814 31.814 0 0 1 4.308.01 13.68 13.68 0 0 1 3.781.849c2.026.833 3.41 2.281 4.162 4.338.42 1.24.676 2.516.754 3.823a28.303 28.303 0 0 1-.114 4.928 11.968 11.968 0 0 1-.896 3.317c-.85 1.844-2.23 3.115-4.135 3.812-1.543.522-3.13.798-4.767.824a21.33 21.33 0 0 1-5.452-.412c-3.308-.734-5.354-2.754-6.125-6.057a18.991 18.991 0 0 1-.448-4.51 18.502 18.502 0 0 1 .516-4.787c.812-3.083 2.77-4.995 5.875-5.734a13.692 13.692 0 0 1 2.197-.354Z" style="fill:#f2f2f2;fill-opacity:1;fill-rule:evenodd;stroke:none;stroke-width:1.33333"/><g style="stroke-width:2.34777"><path fill="#969696" fill-rule="evenodd" d="M-23.261 21.434v21.13H7.26v-21.13h-30.52zm1.174 1.174h12.913V41.39h-12.913zm15.26 0H6.086V41.39H-6.826Z" style="stroke-width:2.0003" transform="matrix(.42594 0 0 .42594 15.408 -1.63)"/><path fill="#333" d="M-16.664 37.638c-1.908-.594-3.79-2.405-3.655-4.73.13-2.649 1.973-4.743 3.957-6.059.594-.536 1.923-1.28 2.257-.073.265 1.253-1.155 1.417-1.95 1.582-1.597.814-2.749 2.711-2.74 4.641.284 2.04 2.186 3.21 3.903 3.557 1.32.285 2.731.15 3.958-.47-1.52 1.475-3.914 2.171-5.729 1.547zm12.35-.157c-1.392-1.938-.45-6.378-.36-8.832 0 0 1.272-.139 1.274.435-.95 1.628-.771 8.664 1.232 5.426.54-.875.702-1.923 1.109-2.864.312-.722 1.224-.794 1.487-.04.314.897 1.411 4.275 1.922 3.095.376-.866.52-1.804.621-2.728.151-2.527-.706-4.954-1.098-7.42 1.49 2.403 2.513 7.079 2.444 9.462-.034 1.213-.47 2.63-1.535 3.22-2.463.979-2.62-4.583-3.917-1.584-.706 1.63-2.423 2.885-3.18 1.832z" style="stroke-width:2.0003" transform="matrix(.42594 0 0 .42594 15.408 -1.63)"/></g></svg>