<svg xmlns="http://www.w3.org/2000/svg" xmlns:xlink="http://www.w3.org/1999/xlink" xml:space="preserve" id="svg5" width="24" height="24" version="1.1" viewBox="0 0 6.35 6.35"><defs id="defs2"><linearGradient id="linearGradient2597"><stop id="stop2593" offset="0" style="stop-color:#4d4d4d;stop-opacity:1"/><stop id="stop2595" offset="1" style="stop-color:#ccc;stop-opacity:1"/></linearGradient><linearGradient xlink:href="#linearGradient2597" id="linearGradient2599" x1="236.059" x2="222.894" y1="-.636" y2="515.021" gradientUnits="userSpaceOnUse"/><linearGradient xlink:href="#linearGradient2597" id="linearGradient7841" x1="236.059" x2="222.894" y1="-.636" y2="515.021" gradientUnits="userSpaceOnUse"/><linearGradient xlink:href="#linearGradient2597" id="linearGradient7843" x1="236.059" x2="222.894" y1="-.636" y2="515.021" gradientUnits="userSpaceOnUse"/><linearGradient xlink:href="#linearGradient2597" id="linearGradient7845" x1="236.059" x2="222.894" y1="-.636" y2="515.021" gradientUnits="userSpaceOnUse"/><style id="current-color-scheme" type="text/css">.ColorScheme-Text{color:#31363b}.ColorScheme-Background{color:#eff0f1}.ColorScheme-Highlight{color:#3daee9}.ColorScheme-ViewText{color:#31363b}.ColorScheme-ViewBackground{color:#fcfcfc}.ColorScheme-ViewHover{color:#93cee9}.ColorScheme-ViewFocus{color:#3daee9}.ColorScheme-ButtonText{color:#31363b}.ColorScheme-ButtonBackground{color:#eff0f1}.ColorScheme-ButtonHover{color:#93cee9}.ColorScheme-ButtonFocus{color:#3daee9}</style></defs><g id="layer1" transform="translate(-41 -84.5)"><g id="g1" style="stroke-width:21.9899" transform="matrix(.04548 0 0 .04548 39.4 80.922)"><g id="g244" style="fill:url(#linearGradient2599);fill-opacity:1;stroke-width:21.9899" transform="rotate(180 84.5 106.25) scale(.28676)"><g id="g246" style="fill:url(#linearGradient7845);fill-opacity:1;stroke-width:21.9899"><g id="g252" style="fill:url(#linearGradient7843);fill-opacity:1;stroke-width:21.9899"><path id="path260" d="M174.406 2.305c2.434.027 4.758-.285 6.973-.93a641.61 641.61 0 0 1 87.387.234c26.41 2.055 51.976 7.786 76.699 17.188 41.097 16.922 69.219 46.269 84.363 88.043 8.66 25.152 13.774 51.015 15.34 77.59a566.972 566.972 0 0 1-2.324 99.89c-2.782 23.352-8.824 45.805-18.129 67.368-17.258 37.382-45.223 63.167-83.899 77.355-31.343 10.59-63.57 16.164-96.687 16.723-37.246 1.937-74.121-.848-110.625-8.36C66.312 422.438 24.867 381.477 9.164 314.52a386.313 386.313 0 0 1-9.066-91.528c-.743-32.832 2.742-65.199 10.461-97.101C27.02 63.285 66.762 24.488 129.785 9.508a282.687 282.687 0 0 1 44.621-7.203Z" style="fill:url(#linearGradient7841);fill-opacity:1;fill-rule:evenodd;stroke:none;stroke-width:21.9899"/></g></g></g><g id="g7614" style="stroke-width:21.9899" transform="translate(-297.707 -2.57)"><circle id="circle5237" cx="377.819" cy="126.2" r="22.516" fill="#fff" style="stroke-width:52.1189"/><circle id="circle5239" cx="427.589" cy="126.179" r="22.516" fill="#333" style="stroke-width:52.1189"/><circle id="circle5241" cx="377.819" cy="175.96" r="22.516" fill="#333" style="stroke-width:52.1189"/><circle id="circle5243" cx="427.594" cy="175.961" r="22.516" fill="#fff" style="stroke-width:52.1189"/></g></g></g></svg>