<svg xmlns="http://www.w3.org/2000/svg" width="24" height="24" fill="none"><path fill="url(#a)" fill-rule="evenodd" d="M1 11.573c0 .14.002.278.005.418-.03 1.521.118 3.025.447 4.51.774 3.3 2.816 5.32 6.128 6.057 1.8.37 3.617.508 5.453.413a15.624 15.624 0 0 0 4.765-.825c1.906-.699 3.284-1.97 4.135-3.812a11.88 11.88 0 0 0 .893-3.32c.184-1.638.222-3.28.115-4.924a14.264 14.264 0 0 0-.756-3.824c-.746-2.06-2.133-3.506-4.158-4.34a13.537 13.537 0 0 0-3.78-.847 31.627 31.627 0 0 0-4.307-.011c-.11.032-.224.047-.344.046-.742.06-1.476.178-2.2.355-3.106.738-5.064 2.65-5.876 5.736A18.48 18.48 0 0 0 1 11.573Z" clip-rule="evenodd"/><path fill="#F9F9F9" fill-rule="evenodd" d="M22.965 13.303c-.029.57-.075 1.14-.139 1.71a11.876 11.876 0 0 1-.893 3.32c-.85 1.843-2.229 3.114-4.135 3.813a15.624 15.624 0 0 1-4.765.825c-.747.038-1.49.039-2.23 0a7.821 7.821 0 0 1-.8-3.453c0-4.374 3.583-7.92 8.002-7.92a8.02 8.02 0 0 1 4.96 1.705Z" clip-rule="evenodd"/><path fill="#fff" d="M12.003 4.667c-1.857 0-3.637.73-4.95 2.03a6.894 6.894 0 0 0-2.051 4.9c0 1.837.737 3.6 2.05 4.9a7.039 7.039 0 0 0 4.951 2.03c1.857 0 3.638-.73 4.951-2.03a6.894 6.894 0 0 0 2.051-4.9c0-1.838-.738-3.601-2.05-4.9a7.039 7.039 0 0 0-4.952-2.03ZM9.002 8.63a1.011 1.011 0 0 1 .747.267.992.992 0 0 1 .316.723.984.984 0 0 1-.316.722 1.003 1.003 0 0 1-.747.268 1.006 1.006 0 0 1-.669-.31.986.986 0 0 1 0-1.36c.175-.183.414-.294.669-.31Zm6.001 0a1.012 1.012 0 0 1 .748.267.993.993 0 0 1 .316.723.984.984 0 0 1-.316.722 1.003 1.003 0 0 1-.748.268 1.006 1.006 0 0 1-.668-.31.986.986 0 0 1 0-1.36c.175-.183.414-.294.668-.31ZM9.175 13.41a4.019 4.019 0 0 0 2.827 1.16c1.06 0 2.078-.418 2.827-1.16l.707.7a5.043 5.043 0 0 1-3.535 1.452 5.028 5.028 0 0 1-3.532-1.452l.706-.7Z" opacity=".35"/><path fill="#000" fill-rule="evenodd" d="M22.153 17.787a12.12 12.12 0 0 1-.22.547c-.85 1.842-2.229 3.113-4.135 3.812-.923.312-1.862.536-2.817.671a4.423 4.423 0 0 1-1.477-3.3c0-2.46 2.015-4.454 4.501-4.454a4.503 4.503 0 0 1 4.148 2.724Z" clip-rule="evenodd" opacity=".75"/><path fill="#E91E63" fill-rule="evenodd" d="M21.488 19.168c-.856 1.397-2.087 2.39-3.69 2.978-.484.164-.971.303-1.463.418a3.46 3.46 0 0 1-1.83-3.046c0-1.914 1.567-3.465 3.5-3.465 1.814 0 3.306 1.365 3.483 3.115Z" clip-rule="evenodd"/><path fill="#fff" d="M19.773 17.767a2.514 2.514 0 0 0-1.768-.724c-.663 0-1.298.26-1.767.724l1.767 1.749 1.768-1.75Z" opacity=".2"/><path fill="#fff" fill-rule="evenodd" d="M20.17 20.75c-.16.144-.33.28-.505.409l-1.66-1.643 1.768-1.75a2.462 2.462 0 0 1 .398 2.985Zm-2.165-1.234-1.767 1.75a2.462 2.462 0 0 1-.732-1.75c0-.656.263-1.285.732-1.75l1.767 1.75Z" clip-rule="evenodd" opacity=".4"/><path fill="#fff" fill-rule="evenodd" d="M19.664 21.16a7.37 7.37 0 0 1-1.454.823 2.514 2.514 0 0 1-1.972-.716l1.767-1.75 1.659 1.643Z" clip-rule="evenodd" opacity=".6"/><defs><linearGradient id="a" x1="12" x2="12" y1="1" y2="12" gradientUnits="userSpaceOnUse"><stop stop-color="#EEA5FF"/><stop offset="1" stop-color="#A159B2"/></linearGradient></defs></svg>