<svg xmlns="http://www.w3.org/2000/svg" width="24" height="24" viewBox="0 0 6.35 6.35"><path d="M2.538.295A.335.335 0 0 0 2.63.283c.38-.025.76-.024 1.14.002a3.62 3.62 0 0 1 1 .225c.536.22.903.603 1.101 1.148.112.328.18.665.2 1.011.028.436.018.87-.03 1.304a3.166 3.166 0 0 1-.237.878c-.225.487-.59.824-1.094 1.008a4.125 4.125 0 0 1-1.261.218 5.644 5.644 0 0 1-1.443-.109C1.13 5.774.588 5.24.385 4.366a5.025 5.025 0 0 1-.12-1.194c-.009-.427.036-.85.137-1.266C.617 1.09 1.135.584 1.957.389c.191-.047.386-.079.581-.094Z" style="fill:#f2f2f2;fill-opacity:1;fill-rule:evenodd;stroke:none;stroke-width:.352771"/><g stroke-width="1.909"><path fill="#50b721" d="M76.025 10.148c-4.097-.021-7.346 6.984-5.662 11.203 4.653-4.534 9.09-3.73 8.184-9.443.491.591 1.173 1.605 1.318 2.982.227 2.155-.843 5.189-6.754 8.637l.504.865c6.091-3.553 7.519-7.02 7.246-9.613-.191-1.808-.939-2.289-1.516-2.928 1.555.236 2.959.589 3.619 1.447.839 1.091 1.142 2.597 1.143 4.158 0 3.122-1.211 6.326-1.211 6.326l.934.359s1.282-3.307 1.281-6.686c0-1.689-.322-3.421-1.357-4.768-1.851-1.9-3.914-2.137-6.27-2.229a3.8 3.8 0 0 0-1.459-.313z" color="#000" style="white-space:normal;isolation:auto;mix-blend-mode:normal;stroke-width:1.90853" transform="translate(-7.702 .048) scale(.13868)"/><path fill="#e94040" d="M6.783 8.601a2.021 2.021 0 0 0 0 4.041c.578 0 1.095-.243 1.463-.631a2.329 2.329 0 0 1-.453-1.39c0-.522.166-.998.453-1.388A2.009 2.009 0 0 0 6.783 8.6" style="stroke-width:1.90853" transform="matrix(.41184 0 0 .41184 -.321 -.312)"/><path fill="#e94040" d="M12.171 10.622a2.021 2.021 0 1 1-4.042-.001 2.021 2.021 0 0 1 4.042 0" style="stroke-width:1.90853" transform="matrix(.41184 0 0 .41184 -.321 -.312)"/></g></svg>