<svg xmlns="http://www.w3.org/2000/svg" xml:space="preserve" width="24" height="24" fill="none"><defs><radialGradient id="a" cx="0" cy="0" r="1" fx="0" fy="0" gradientTransform="matrix(0 22 -22 0 12 1)" gradientUnits="userSpaceOnUse" spreadMethod="pad"><stop offset="0" style="stop-color:#daa079;stop-opacity:1"/><stop offset="1" style="stop-color:#c97339;stop-opacity:1"/></radialGradient></defs><path d="M9.593 1.115c.12 0 .235-.016.344-.047a31.813 31.813 0 0 1 4.308.01 13.68 13.68 0 0 1 3.781.849c2.026.833 3.41 2.281 4.162 4.338.42 1.24.676 2.516.754 3.823a28.303 28.303 0 0 1-.114 4.928 11.968 11.968 0 0 1-.896 3.317c-.85 1.844-2.23 3.115-4.135 3.812-1.543.522-3.13.798-4.767.824a21.331 21.331 0 0 1-5.452-.412c-3.308-.734-5.354-2.754-6.125-6.057a18.991 18.991 0 0 1-.448-4.51 18.502 18.502 0 0 1 .516-4.787c.812-3.083 2.77-4.995 5.875-5.734a13.692 13.692 0 0 1 2.197-.354z" style="fill:url(#a);fill-rule:evenodd;stroke:none;stroke-width:1.33333"/><g style="stroke-width:1.00707"><path fill="#fff" d="M8.14 2S9.6 3.001 9.7 3.57c0 0 3.09-.977 5.803 1.627h-1.37s3.591 2.244 3.654 3.653c-.063-.04-.66-.35-.914-.457 0 0 .873 2.01.21 3.97-1.24 2.347-3.553 4.398-6.937 4.706-.91.083 0 .001-.914.001v-2.74h.914v-1.37c1.463-.07 1.819-3.565-.123-4.567 0 0-1.227 1.723-2.667 1.89 0 0-.169 1.476-1.91.539-.465-.25-.638-1.074-.169-1.743l.37-.534S6.869 5.609 7.74 4.74c0 0 .457-1.37 0-2.283 0 0 .517.384.685.685 0 0-.116-.976-.284-1.142z" style="stroke-width:.459898" transform="translate(.687 2.514) scale(.99298)"/><path fill="#f2f2f2" fill-rule="evenodd" d="M15.698 14.33c-2.153.002-4.314 0-6.467 0l-.006.458 6.023.002c.368-.365.207-.2.45-.46zm1.046-1.374c-2.153.002-4.444.001-6.597.001v.457l6.288.002c.277-.416.153-.22.31-.46z" color="#000" style="font-variant-ligatures:normal;font-variant-position:normal;font-variant-caps:normal;font-variant-numeric:normal;font-variant-alternates:normal;font-feature-settings:normal;text-indent:0;text-decoration-line:none;text-decoration-style:solid;text-decoration-color:#000;text-transform:none;text-orientation:mixed;white-space:normal;shape-padding:0;isolation:auto;mix-blend-mode:normal;stroke-width:.459898" transform="translate(.687 2.514) scale(.99298)"/></g></svg>