<svg xmlns="http://www.w3.org/2000/svg" width="24" height="24" fill="none"><g transform="translate(40)"><path fill="url(#a)" fill-rule="evenodd" d="M-30.404 1.114c.12 0 .234-.014.344-.046a31.627 31.627 0 0 1 4.307.011c1.301.102 2.561.384 3.78.848 2.025.833 3.412 2.28 4.158 4.339.427 1.24.679 2.514.756 3.824a27.94 27.94 0 0 1-.115 4.923 11.876 11.876 0 0 1-.893 3.32c-.85 1.843-2.229 3.114-4.135 3.813a15.624 15.624 0 0 1-4.765.825 21.423 21.423 0 0 1-5.453-.412c-3.312-.738-5.354-2.757-6.128-6.057a19.047 19.047 0 0 1-.447-4.511 18.491 18.491 0 0 1 .515-4.786c.812-3.086 2.77-4.998 5.877-5.736a13.954 13.954 0 0 1 2.199-.355z" clip-rule="evenodd" style="fill:url(#a)"/><path fill="#000" fill-rule="evenodd" d="M-28.008 1c-.684 0-1.368.023-2.052.068-.11.032-.224.047-.344.046-.742.06-1.476.178-2.2.355-1.576.374-2.857 1.052-3.842 2.031h16.897c-.668-.659-1.476-1.183-2.424-1.573a13.537 13.537 0 0 0-3.78-.848A31.656 31.656 0 0 0-28.008 1z" clip-rule="evenodd" opacity=".35"/><rect width="1.488" height=".744" x="-34.013" y="2.059" opacity=".35" ry=".373" style="fill:#000;stroke-width:1.40646;paint-order:stroke markers fill"/><rect width="3.721" height=".744" x="-29.861" y="2.059" opacity=".35" ry=".373" style="fill:#000;stroke-width:1.40646;paint-order:stroke markers fill"/><rect width=".744" height=".744" x="-22.743" y="2.059" opacity=".35" ry=".373" style="fill:#000;stroke-width:1.40646;paint-order:stroke markers fill"/><rect width="1.117" height=".744" x="-24.231" y="2.059" opacity=".35" ry=".373" style="fill:#000;stroke-width:1.40646;paint-order:stroke markers fill"/><rect width=".744" height=".744" x="-25.348" y="2.059" opacity=".35" ry=".373" style="fill:#000;stroke-width:1.40646;paint-order:stroke markers fill"/></g><path fill="#525292" d="M13.531 14.714s1.944 1.72 1.967 4.36a.87.87 0 0 1-.526.854.879.879 0 0 1-1.172-.504.87.87 0 0 1-.05-.35c.329-3.06-.657-3.05-.657-3.05l.438-1.31Z"/><path fill="#6969A6" d="M10.469 14.714s-1.944 1.72-1.967 4.36a.87.87 0 0 0 .526.854.878.878 0 0 0 1.172-.504.87.87 0 0 0 .05-.35c-.327-3.06.657-3.05.657-3.05l-.438-1.31Z"/><path fill="#6969A6" d="M12 6.002s-.946 1.296-1.482 3.485h.607v1.307h1.75V9.487h.608c-.537-2.19-1.482-3.485-1.482-3.485Zm1.483 3.485c.042.17.085.345.123.523-.037-.182-.081-.352-.123-.523Zm-.608 1.307V12.1h.964c-.01-.436-.042-.872-.096-1.306h-.868Zm.93 2.614h-.93v1.308h-1.75v-1.308h-.93c.034.423.083.858.166 1.308l.546 3.05h2.186l.546-3.05c.077-.433.132-.87.165-1.308h.002ZM10.164 12.1h.962v-1.306h-.868c-.054.434-.085.87-.094 1.306Zm.962 0v1.308h1.75V12.1h-1.75Zm-.607-2.613c-.043.17-.087.34-.124.523.038-.178.083-.354.124-.523Z"/><path fill="#fff" d="M10.518 9.487c-.1.408-.198.838-.261 1.307h.868V9.487h-.607Zm.607 1.307V12.1h1.75v-1.306h-1.75Zm1.75 0h.868c-.062-.44-.149-.877-.26-1.307h-.608v1.307Zm0 1.306v1.308h.93c.034-.453.045-.888.032-1.308h-.962Zm0 1.308h-1.75v1.308h1.75v-1.308Zm-1.75 0V12.1h-.962c-.012.42 0 .855.033 1.308h.929Z" opacity=".5"/><defs><radialGradient id="a" cx="0" cy="0" r="1" fx="0" fy="0" gradientTransform="matrix(0 19.40524 -26.58722 0 -28 1)" gradientUnits="userSpaceOnUse"><stop offset="0" stop-color="#68BBFF" stop-opacity=".875" style="stop-color:#66bcff;stop-opacity:1"/><stop offset="1" stop-color="#A99EFF" style="stop-color:#b29aff;stop-opacity:1"/></radialGradient></defs></svg>