<svg xmlns="http://www.w3.org/2000/svg" xml:space="preserve" width="24" height="24" fill="none"><defs><radialGradient id="a" cx="0" cy="0" r="1" fx="0" fy="0" gradientTransform="rotate(90 2 -30) scale(22)" gradientUnits="userSpaceOnUse" spreadMethod="pad"><stop offset="0" style="stop-opacity:1;stop-color:#ff8080"/><stop offset="1" style="stop-opacity:1;stop-color:#f04661"/></radialGradient></defs><path d="M-30.407-31.886c.12 0 .234-.016.344-.046a31.813 31.813 0 0 1 4.308.01 13.68 13.68 0 0 1 3.781.848c2.025.834 3.41 2.282 4.161 4.34.422 1.24.676 2.515.755 3.822a28.303 28.303 0 0 1-.115 4.928 11.968 11.968 0 0 1-.896 3.317c-.849 1.844-2.229 3.115-4.134 3.812-1.543.521-3.131.797-4.767.824a21.331 21.331 0 0 1-5.452-.412c-3.308-.735-5.355-2.755-6.125-6.057a18.991 18.991 0 0 1-.448-4.51 18.502 18.502 0 0 1 .516-4.788c.812-3.082 2.77-4.994 5.874-5.733a13.692 13.692 0 0 1 2.198-.355z" style="fill:url(#a);fill-rule:evenodd;stroke:none;stroke-width:1.33333" transform="translate(40 33)"/><path d="M-25.271-28c-.568 0-1.027.47-1.027 1.052v8.978a6.239 6.239 0 0 0-1.703-.228c-2.068 0-3.749.938-3.749 2.1C-31.75-14.944-30.074-14-28-14c2.073 0 3.749-.943 3.749-2.099v-10.85c0-.578-.458-1.051-1.02-1.051z" style="fill:#fff;fill-opacity:1;fill-rule:nonzero;stroke:none;stroke-width:1.33333" transform="translate(40 33)"/></svg>