<svg xmlns="http://www.w3.org/2000/svg" xml:space="preserve" width="24" height="24" viewBox="0 0 6.35 6.35"><defs><radialGradient id="a" cx="0" cy="0" r="1" fx="0" fy="0" gradientTransform="matrix(0 8.25 -8.25 0 9 .75)" gradientUnits="userSpaceOnUse" spreadMethod="pad"><stop offset="0" style="stop-opacity:1;stop-color:#ffcca7"/><stop offset="1" style="stop-opacity:1;stop-color:#ff8830"/></radialGradient></defs><path d="M7.195.836c.09 0 .176-.012.258-.035a23.86 23.86 0 0 1 3.231.008 10.26 10.26 0 0 1 2.836.636c1.519.625 2.558 1.711 3.121 3.254.316.93.507 1.887.566 2.867a21.227 21.227 0 0 1-.086 3.696 8.976 8.976 0 0 1-.672 2.488c-.637 1.383-1.672 2.336-3.101 2.859a11.693 11.693 0 0 1-3.575.618 15.998 15.998 0 0 1-4.089-.309c-2.481-.551-4.016-2.066-4.594-4.543a14.244 14.244 0 0 1-.336-3.383c-.027-1.211.101-2.41.387-3.59.609-2.312 2.078-3.746 4.406-4.3A10.27 10.27 0 0 1 7.195.836Z" style="fill:url(#a);fill-rule:evenodd;stroke:none" transform="scale(.35277)"/><path d="M2.045 1.336a2.932 2.968 0 0 0-1.622.496l-.021.074c-.046.192-.08.385-.104.58.16-.17.313-.302.467-.405.46 1.273.485 1.278.143-.084.338-.189.688-.25 1.137-.253.04 0 .077.002.116.004-.006.709-.116 2.171-.506 2.704-.564-1.47-.495-1.207-.115.045a.443.448 0 0 0-.08.056l-.174-.133.087.254c-.295.045-.588-.004-.882.041.038.098.08.19.129.276.256-.112.476-.272.757-.111.006.028.02.053.032.077l-.643.262.056.07c.219-.084.439-.14.643-.252a.278.278 0 0 0 .096.053l-.385.526c.029.02.058.04.088.058.113-.182.204-.377.38-.568.03.002.065.007.1.003a2.988 3.024 0 0 0 .014.792 2.761 2.761 0 0 0 .317.081c-.104-.293-.228-.582-.212-.898.113.044.172.101.299.19-.057-.086-.127-.142-.175-.25a.265.269 0 0 0 .027-.056c.58.223 1.122.286 1.71.644l.323.24a1.528 1.546 0 0 1-.153.194c.199-.025.395-.064.589-.117a2.908 2.942 0 0 0 .005-.003 2.905 2.94 0 0 0 .494-1.635c0-1.622-1.309-2.955-2.936-2.955zm.482.456c.97.193 1.817.963 2.001 1.867l-.044.056c-.081.143-.847.39-1.125.48-.531.114-.91.387-1.42.406a.38.386 0 0 0-.112-.105c.31-.557.209-2.047.7-2.704Zm1.926 2.117.115.112c0 .09-.01.179-.024.27-.075.482-.17.958-.37 1.348l-.421-.14c-.481-.237-1.202-.39-1.715-.733.735-.427 1.608-.599 2.415-.857ZM2.579 5.99a.521.521 0 0 0 .03.069l.037.004a2.602 2.602 0 0 1-.067-.073Z" style="fill:#f9f9f9;fill-opacity:1;stroke-width:.39154"/></svg>