<svg xmlns="http://www.w3.org/2000/svg" xml:space="preserve" width="24" height="24" fill="none"><path fill="url(#a)" fill-rule="evenodd" d="M9.596 1.114c.12 0 .234-.014.344-.046a31.627 31.627 0 0 1 4.307.011c1.301.102 2.561.384 3.78.848 2.025.833 3.412 2.28 4.158 4.339.427 1.24.679 2.514.756 3.824a27.94 27.94 0 0 1-.114 4.923 11.88 11.88 0 0 1-.894 3.32c-.85 1.843-2.229 3.114-4.135 3.813a15.624 15.624 0 0 1-4.765.825 21.423 21.423 0 0 1-5.453-.413c-3.312-.737-5.354-2.756-6.128-6.056a19.047 19.047 0 0 1-.447-4.511 18.491 18.491 0 0 1 .515-4.786c.812-3.086 2.77-4.998 5.877-5.736a13.953 13.953 0 0 1 2.199-.355Z" clip-rule="evenodd"/><defs><radialGradient id="a" cx="0" cy="0" r="1" gradientTransform="matrix(0 22 -22 0 12 1)" gradientUnits="userSpaceOnUse"><stop stop-color="#FAFAFA"/><stop offset="1" stop-color="#CCC"/></radialGradient></defs><g style="stroke-width:1.03451"><path fill="#ff6d6f" d="m-1.96 14-6.92 5.781 2.114 2.431 4.806-4.015 4.808 4.015 2.113-2.431z" style="stroke-width:.517836;paint-order:stroke markers fill" transform="translate(13.894 -9.033) scale(.96664)"/><path fill="#6a7efb" d="M2.815 23.864A5.506 5.506 0 0 1-2.12 26.51a5.506 5.506 0 0 1-4.476-2.646L-9 25.674a8.51 8.51 0 0 0 6.755 3.836 8.51 8.51 0 0 0 7.326-3.626z" style="stroke-width:.517836;paint-order:stroke markers fill" transform="translate(13.894 -9.033) scale(.96664)"/></g></svg>