<svg xmlns="http://www.w3.org/2000/svg" width="24" height="24" fill="none"><path fill="url(#a)" fill-rule="evenodd" d="M9.596 1.114c.12 0 .234-.014.344-.046a31.627 31.627 0 0 1 4.307.011c1.301.102 2.561.384 3.78.848 2.025.833 3.412 2.28 4.158 4.339.427 1.24.679 2.514.756 3.824a27.94 27.94 0 0 1-.114 4.923 11.88 11.88 0 0 1-.894 3.32c-.85 1.843-2.229 3.114-4.135 3.813a15.624 15.624 0 0 1-4.765.825 21.423 21.423 0 0 1-5.453-.413c-3.312-.737-5.354-2.756-6.128-6.056a19.047 19.047 0 0 1-.447-4.511 18.491 18.491 0 0 1 .515-4.786c.812-3.086 2.77-4.998 5.877-5.736a13.953 13.953 0 0 1 2.199-.355Z" clip-rule="evenodd"/><path fill="#D7D7F4" d="M12 15.625c3.313 0 6-2.602 6-5.812C18 6.603 15.313 4 12 4 8.686 4 6 6.602 6 9.813c0 3.21 2.686 5.812 6 5.812Z" opacity=".3"/><path fill="url(#b)" d="M12 15.116c2.79 0 5.053-2.192 5.053-4.896 0-2.704-2.262-4.896-5.053-4.896S6.946 7.516 6.946 10.22c0 2.704 2.263 4.896 5.054 4.896Z"/><path fill="#6746C3" d="M12 14.188c2.485 0 4.5-1.952 4.5-4.36 0-2.407-2.015-4.36-4.5-4.36-2.486 0-4.5 1.953-4.5 4.36 0 2.408 2.014 4.36 4.5 4.36Z"/><path fill="#fff" fill-rule="evenodd" d="M10.484 7.38a.499.499 0 0 0-.5.49v3.916c0 .39.45.624.786.407l3.537-1.958c.3-.194.3-.62 0-.814L10.77 7.463a.517.517 0 0 0-.286-.083Z" clip-rule="evenodd"/><path fill="#fff" d="M18.25 18.547H5.75a.739.739 0 0 0-.75.726c0 .402.336.727.75.727h12.5c.414 0 .75-.325.75-.727a.739.739 0 0 0-.75-.726Z" opacity=".2"/><path fill="#6746C3" d="M13.75 18.547h-8a.739.739 0 0 0-.75.726c0 .402.336.727.75.727h8c.414 0 .75-.325.75-.727a.739.739 0 0 0-.75-.726Z"/><defs><radialGradient id="a" cx="0" cy="0" r="1" gradientTransform="matrix(0 22 -22 0 12 1)" gradientUnits="userSpaceOnUse"><stop stop-color="#BF61CA"/><stop offset="1" stop-color="#8F56C7"/></radialGradient><radialGradient id="b" cx="0" cy="0" r="1" gradientTransform="matrix(5.05349 0 0 4.89561 12 10.219)" gradientUnits="userSpaceOnUse"><stop/><stop offset="1" stop-opacity="0"/></radialGradient></defs></svg>