<svg xmlns="http://www.w3.org/2000/svg" width="24" height="24" fill="none"><defs><radialGradient id="a" cx="0" cy="0" r="1" gradientTransform="matrix(0 22 -22 0 12 1)" gradientUnits="userSpaceOnUse"><stop offset="0" stop-color="#8FC8FF" style="stop-color:#f6f6f6;stop-opacity:1"/><stop offset="1" stop-color="#0056A8" style="stop-color:#cfcfcf;stop-opacity:1"/></radialGradient></defs><path d="M50 5C9.09 5 5 25.455 5 50c0 32.727 12.273 45 45 45 32.727 0 45-12.273 45-45 0-24.545-4.09-45-45-45Z" style="font-variation-settings:normal;display:inline;opacity:1;vector-effect:none;fill:#fdfdfd;fill-opacity:1;stroke-width:4.56656;stroke-linecap:butt;stroke-linejoin:miter;stroke-miterlimit:4;stroke-dasharray:none;stroke-dashoffset:0;stroke-opacity:1;-inkscape-stroke:none;stop-color:#000;stop-opacity:1" transform="matrix(.24444 0 0 .24444 -.222 -.222)"/><g stroke-width=".927"><path fill="#fff" d="M12.413 8.257 7.08 17.496h10.666z"/><path fill="#4caf50" d="M12 14.76c-.547 1.186-.845 2.363 0 3.505h8c-2.14-1.083-2.8-3.26-6.791-2.976Z"/><path fill="#4caf50" d="M9.972 13.87c-2.824.631-4.384 2.526-5.972 4.395h8V14.76z"/><path fill="#2196f3" d="M12 4.409 4 18.265l8.82-6.49c1.121-2.834-.038-5.05-.818-7.366Z"/><path fill="#f44336" d="m12 4.409 1.21 10.88L20 18.265z"/><path d="M19.993 18.265 13.21 15.29l-.195-1.756ZM12.001 4.41l.815 7.363-1.424 1.047ZM4 18.265l5.97-4.39 1.617.71z" opacity=".1"/></g></svg>