<svg xmlns="http://www.w3.org/2000/svg" width="24" height="24" fill="none"><path fill="#465051" fill-rule="evenodd" d="M1.187 15.04a19.057 19.057 0 0 1-.182-3.05 18.491 18.491 0 0 1 .515-4.785 9.41 9.41 0 0 1 .59-1.638l.038-.044c.225-.263.464-.514.717-.751l.052-.051c.025-.025.05-.05.077-.074l.019-.017a.525.525 0 0 0 .016-.014l.061-.051.052-.043c.085-.073.17-.145.258-.216l.053-.044.072-.06a9.3 9.3 0 0 1 .233-.175l.043-.033c.51-.37 1.048-.698 1.61-.983.084-.043.17-.082.255-.12l.144-.067C8.005 1.793 10.383 1.367 12 1.367c2.64 0 7.313 1.109 9.89 4.185.107.23.206.467.295.714.427 1.24.679 2.514.756 3.824a27.928 27.928 0 0 1-.114 4.919c-.904 2.385-2.395 4.751-4.005 6.68a7.984 7.984 0 0 1-1.024.457 15.624 15.624 0 0 1-4.765.825 21.423 21.423 0 0 1-5.453-.413 9.182 9.182 0 0 1-2.406-.878c-1.6-1.918-3.083-4.269-3.987-6.64Z" clip-rule="evenodd"/><path fill="#E45E3E" fill-rule="evenodd" d="M21.329 19.416c-.847 1.267-2.024 2.177-3.531 2.73a15.624 15.624 0 0 1-4.765.825c-.297.015-.594.024-.89.028.423-1.893.593-3.444.573-4.75-.024-1.522-.308-2.71-.757-3.718v-.001c-.626-1.407-1.573-2.462-2.579-3.581-.435-.485-.88-.981-1.316-1.524a16.64 16.64 0 0 1-.61-.803 14.11 14.11 0 0 1-.583-.888c1.374-.654 2.684-1.099 3.962-1.335h.001c.749-.14 1.51-.207 2.272-.199 2.268.027 4.613.465 6.876 2.14 1.196.885 2.098 1.852 3.012 2.98a27.923 27.923 0 0 1-.168 3.693 11.88 11.88 0 0 1-.893 3.32 8.083 8.083 0 0 1-.604 1.083Z" clip-rule="evenodd"/><path fill="#519C26" fill-rule="evenodd" d="M1 11.424c.011-1.424.184-2.83.52-4.22.074-.28.158-.552.25-.813 1.21-.289 2.493-.007 2.493-.007.31.74.68 1.452 1.106 2.131-1.375.776-2.821 1.745-4.368 2.91Z" clip-rule="evenodd"/><path fill="#2194CD" fill-rule="evenodd" d="M22.995 11.368a28.174 28.174 0 0 0-.054-1.278 14.269 14.269 0 0 0-.756-3.824c-.746-2.06-2.133-3.506-4.158-4.34a13.537 13.537 0 0 0-3.78-.847 31.627 31.627 0 0 0-4.307-.011c-.11.032-.224.047-.344.046-.742.06-1.476.178-2.2.355-3.106.738-5.064 2.65-5.876 5.736l-.052.22a43.541 43.541 0 0 1 2.795-1.042c.574-.19 1.133-.359 1.679-.508 5.912-1.613 10.145-.77 14.04 2.464 1.019.847 2.015 1.856 3.013 3.03Z" clip-rule="evenodd"/><path fill="#65C32F" fill-rule="evenodd" d="M11.96 23a21.41 21.41 0 0 1-4.38-.442c-3.312-.737-5.354-2.756-6.128-6.056a19.047 19.047 0 0 1-.447-4.511C1 11.8.999 11.613 1 11.424c1.546-1.164 2.993-2.133 4.368-2.909.19.299.39.59.603.872.29.383.599.752.925 1.104.103.11.206.22.31.327.203.208.409.413.618.614.122.119.244.235.364.35.282.27.558.536.825.807.191.194.376.393.556.598.09.103.178.208.265.315.779.967 1.42 2.144 1.794 3.937.089.427.159.859.21 1.292.029.24.053.481.072.723.043.537.069 1.077.076 1.616a33.223 33.223 0 0 1-.024 1.868L11.96 23Z" clip-rule="evenodd"/><path fill="#465051" fill-rule="evenodd" d="m1.468 7.425.052-.22c.371-1.41.982-2.576 1.832-3.496.276 1.019.583 1.9.91 2.674a43.46 43.46 0 0 0-2.794 1.042Z" clip-rule="evenodd"/><path fill="#000" fill-rule="evenodd" d="M3.352 3.71A7.09 7.09 0 0 1 5.4 2.181c.042 1.277.254 2.5.648 3.667l-.108.027c-.545.148-1.103.317-1.678.507a20.77 20.77 0 0 1-.91-2.674Z" clip-rule="evenodd" opacity=".2"/><path fill="#fff" fill-rule="evenodd" d="M12.14 22.999h-.18l.002-.061v-.002a31.632 31.632 0 0 0 .024-1.866v-.001a24.61 24.61 0 0 0-.075-1.616c-.02-.25-.045-.49-.073-.723a15.11 15.11 0 0 0-.21-1.291c-.374-1.794-1.015-2.971-1.794-3.938a13.764 13.764 0 0 0-.82-.913c-.263-.268-.535-.528-.812-.793l-.378-.363c-.204-.198-.41-.402-.617-.615a18.95 18.95 0 0 1-.31-.327A13.106 13.106 0 0 1 5.37 8.515a14.643 14.643 0 0 1-1.108-2.132 32.364 32.364 0 0 1 1.678-.508c1.848-.503 3.532-.768 5.093-.795 3.433-.058 6.27 1.035 8.949 3.259-2.264-1.675-4.608-2.113-6.877-2.14a11.408 11.408 0 0 0-1.272.063 12.22 12.22 0 0 0-1 .137.427.427 0 0 0-.016.003l-.021.004c-.282.054-.563.117-.841.19-.062.015-.123.032-.184.05-.034.01-.068.02-.102.028a15.091 15.091 0 0 0-1.697.58 19.871 19.871 0 0 0-1.101.48c.188.311.382.607.582.888.195.273.399.541.61.803v.001c.337.415.685.82 1.043 1.215l.154.175.172.195a36.53 36.53 0 0 1 1.142 1.32c.113.143.223.287.33.434l.006.008c.064.086.128.172.19.26.1.146.196.297.291.45l.062.097c.037.057.073.115.108.175.146.25.279.51.398.774v.002a.228.228 0 0 1 .01.026 8.146 8.146 0 0 1 .314.836c.017.055.032.114.047.172.008.036.017.072.027.107.06.216.117.436.162.668a9.71 9.71 0 0 1 .13.85l.007.06c.034.332.054.665.06.998v.003c.004.283-.01.59-.025.897a17.167 17.167 0 0 1-.085 1.067c-.01.115-.021.232-.037.353-.044.355-.108.736-.176 1.122l-.032.193c-.015.098-.03.197-.051.3-.052.266-.108.537-.17.816Z" clip-rule="evenodd"/></svg>