<svg xmlns="http://www.w3.org/2000/svg" width="24" height="24" fill="none"><path fill="#4783B0" fill-rule="evenodd" d="M23 12a27.937 27.937 0 0 1-.174 3.013 11.88 11.88 0 0 1-.893 3.32c-.85 1.843-2.229 3.114-4.135 3.813a15.624 15.624 0 0 1-4.765.825c-.345.018-.69.027-1.033.029V12h11Z" clip-rule="evenodd"/><path fill="#DA4339" fill-rule="evenodd" d="M12 23a21.406 21.406 0 0 1-4.42-.442c-3.312-.737-5.354-2.756-6.128-6.056A19.046 19.046 0 0 1 1.005 12H12v11Z" clip-rule="evenodd"/><path fill="#4AB871" fill-rule="evenodd" d="M23 12a28.024 28.024 0 0 0-.059-1.91 14.269 14.269 0 0 0-.756-3.824c-.746-2.06-2.133-3.506-4.158-4.34a13.537 13.537 0 0 0-3.78-.847A31.653 31.653 0 0 0 12 1v11h11Z" clip-rule="evenodd"/><path fill="#FFB750" fill-rule="evenodd" d="M12 1c-.687 0-1.373.023-2.06.068-.11.032-.224.047-.344.046-.742.06-1.476.178-2.2.355-3.106.738-5.064 2.65-5.876 5.736A18.48 18.48 0 0 0 1 11.563v.003c0 .141.002.283.005.425V12H12V1Z" clip-rule="evenodd"/></svg>