<svg xmlns="http://www.w3.org/2000/svg" width="24" height="24" viewBox="0 0 6.35 6.35"><defs><radialGradient id="a" cx="0" cy="0" r="1" gradientTransform="rotate(90 3.483 19.752) scale(5.82072)" gradientUnits="userSpaceOnUse"><stop stop-color="#555"/><stop offset="1" stop-color="#222"/></radialGradient></defs><path fill="url(#a)" fill-rule="evenodd" d="M22.598 16.3a.312.312 0 0 0 .091-.013 8.37 8.37 0 0 1 1.14.003c.344.027.678.102 1 .224.536.22.903.604 1.1 1.148.113.328.18.666.2 1.012.029.435.018.87-.03 1.303a3.143 3.143 0 0 1-.236.878 1.87 1.87 0 0 1-1.095 1.009c-.408.138-.828.21-1.26.218a5.668 5.668 0 0 1-1.443-.11c-.876-.194-1.417-.728-1.621-1.602a5.04 5.04 0 0 1-.119-1.193c-.01-.428.036-.85.137-1.266.214-.817.733-1.323 1.555-1.518.191-.047.385-.078.581-.094z" clip-rule="evenodd" style="fill:url(#a);stroke-width:.264578" transform="translate(-20.06 -16.004)"/><path fill="#2268ab" d="M-5.63 1.007a.527.527 0 0 0-.527.527V4.71a.527.527 0 0 0 .528.522h3.169l.527-.527v-3.17a.527.527 0 0 0-.528-.528z" color="#000" style="isolation:auto;mix-blend-mode:normal;stroke-width:.0880166;paint-order:fill markers stroke" transform="translate(6.785 .161) scale(.89064)"/><path fill="#3d8dd8" d="M-4.75 2.415h1.41v1.409H-4.75z" color="#000" display="block" overflow="visible" style="isolation:auto;mix-blend-mode:normal;stroke-width:.332665;paint-order:fill markers stroke" transform="translate(6.785 .161) scale(.89064)"/><path fill="#2777c4" d="M-4.75 1.007h1.41v1.409H-4.75z" color="#000" display="block" overflow="visible" style="isolation:auto;mix-blend-mode:normal;stroke-width:.332665;paint-order:fill markers stroke" transform="translate(6.785 .161) scale(.89064)"/><path fill="#3b83c8" d="M-6.157 2.415h1.408v1.409h-1.408z" color="#000" display="block" overflow="visible" style="isolation:auto;mix-blend-mode:normal;stroke-width:.332665;paint-order:fill markers stroke" transform="translate(6.785 .161) scale(.89064)"/><path fill="#63a3e0" d="M-3.34 2.415h1.407v1.409h-1.408z" color="#000" display="block" overflow="visible" style="isolation:auto;mix-blend-mode:normal;stroke-width:.332665;paint-order:fill markers stroke" transform="translate(6.785 .161) scale(.89064)"/><path fill="#3b8bd8" d="M-3.34 1.007v1.409h1.407v-.884a.527.527 0 0 0-.524-.525z" color="#000" style="isolation:auto;mix-blend-mode:normal;stroke-width:.0880166;paint-order:fill markers stroke" transform="translate(6.785 .161) scale(.89064)"/><path fill="#61a2e0" d="M-4.75 3.824h1.41v1.408H-4.75z" color="#000" display="block" overflow="visible" style="isolation:auto;mix-blend-mode:normal;stroke-width:.332665;paint-order:fill markers stroke" transform="translate(6.785 .161) scale(.89064)"/><path fill="#4893db" d="M-6.157 3.824v.88c0 .292.235.528.528.528h.88V3.824Z" color="#000" style="isolation:auto;mix-blend-mode:normal;stroke-width:.0880166;paint-order:fill markers stroke" transform="translate(6.785 .161) scale(.89064)"/><path fill="#86b8e9" d="M-3.34 3.824v1.408h.88a.527.527 0 0 0 .528-.528v-.88Z" color="#000" style="isolation:auto;mix-blend-mode:normal;stroke-width:.0880166;paint-order:fill markers stroke" transform="translate(6.785 .161) scale(.89064)"/><path d="M-2.989 2.592a1.584 1.584 0 0 0-.052.002l-.008-.002h-1.46a.063.063 0 0 0-.062.063V4.14a1.584 1.584 0 0 0-.002.037A1.584 1.584 0 0 0-2.989 5.76a1.584 1.584 0 0 0 1.584-1.584 1.584 1.584 0 0 0-1.584-1.584Zm.034.792a.748.748 0 0 1 .01 0 .748.748 0 0 1 .748.748.748.748 0 0 1-.748.748.748.748 0 0 1-.748-.748.748.748 0 0 1 .738-.748zm-.034.44v.264h-.264v.088h.264v.264h.088v-.264h.265v-.088h-.265v-.264z" style="isolation:auto;mix-blend-mode:normal;fill:#fff;fill-opacity:1;stroke-width:.332665;paint-order:fill markers stroke" transform="translate(6.785 .161) scale(.89064)"/></svg>