<svg xmlns="http://www.w3.org/2000/svg" width="24" height="24" fill="none"><path fill="url(#a)" fill-rule="evenodd" d="M9.596 1.114c.12 0 .234-.014.344-.046a31.627 31.627 0 0 1 4.307.011c1.301.102 2.561.384 3.78.848 2.025.833 3.412 2.28 4.158 4.339.427 1.24.679 2.514.756 3.824a27.94 27.94 0 0 1-.114 4.923 11.88 11.88 0 0 1-.894 3.32c-.85 1.843-2.229 3.114-4.135 3.813a15.624 15.624 0 0 1-4.765.825 21.423 21.423 0 0 1-5.453-.413c-3.312-.737-5.354-2.756-6.128-6.056a19.047 19.047 0 0 1-.447-4.511 18.491 18.491 0 0 1 .515-4.786c.812-3.086 2.77-4.998 5.877-5.736a13.953 13.953 0 0 1 2.199-.355Z" clip-rule="evenodd"/><path fill="#DA4D45" d="M11 1h.211v22H11V1Z" opacity=".15"/><g fill="#000" opacity=".25"><path d="M20.667 6H3.333a.095.095 0 1 0 0 .19h17.334a.095.095 0 1 0 0-.19ZM20.667 9.047H3.333a.095.095 0 1 0 0 .19h17.334a.095.095 0 1 0 0-.19ZM20.667 12.095H3.333a.095.095 0 0 0 0 .19h17.334a.095.095 0 0 0 0-.19ZM20.667 14.762H3.333a.095.095 0 1 0 0 .19h17.334a.095.095 0 0 0 0-.19ZM20.667 17.81H3.333a.095.095 0 0 0 0 .19h17.334a.095.095 0 1 0 0-.19Z" opacity=".75"/></g><path fill="#333" d="M7.79 8.151a.361.361 0 0 1-.047-.003l-.043-.01a.117.117 0 0 1-.08-.067.216.216 0 0 1 0-.156c.021-.062.056-.142.103-.239a.4.4 0 0 0 .026-.058l.029-.061a.303.303 0 0 0-.091.054l-.094.075a.092.092 0 0 1-.072.019.104.104 0 0 1-.066-.036.09.09 0 0 1-.02-.072.126.126 0 0 1 .036-.066l.093-.072a.534.534 0 0 1 .104-.065.32.32 0 0 1 .242-.035c.035.006.06.028.078.065.017.037.016.08-.003.13a2.3 2.3 0 0 1-.09.208l-.035.078-.034.075-.01.023-.005.019a.684.684 0 0 0 .196-.068c.046-.024.098-.055.156-.093.058-.039.125-.087.2-.146l.166-.14.136-.122.093-.09.036-.037a.085.085 0 0 1 .094-.028.104.104 0 0 1 .043.023c.01.01.018.02.024.031.016.031.017.066.003.107a2.364 2.364 0 0 1-.072.191l-.037.084a.758.758 0 0 1-.033.078l-.009.036a.3.3 0 0 0 .097-.036 1.225 1.225 0 0 0 .2-.139c.03-.028.058-.052.082-.072a.092.092 0 0 1 .07-.026.101.101 0 0 1 .068.034.099.099 0 0 1 .023.072.086.086 0 0 1-.033.066 1.599 1.599 0 0 1-.31.233.61.61 0 0 1-.158.062.382.382 0 0 1-.158-.004.13.13 0 0 1-.075-.064.178.178 0 0 1-.013-.098.997.997 0 0 1 .039-.138 1.15 1.15 0 0 1-.075.06l-.078.065c-.298.236-.53.353-.696.353Z" opacity=".25"/><path fill="#333" d="M9.99 7.967a.096.096 0 0 1-.067-.023c-.035-.028-.044-.064-.029-.107l.023-.077.058-.169.029-.094.023-.073-.156.058-.187.072-.202.073-.2.075a.09.09 0 0 1-.07-.003.114.114 0 0 1-.055-.058.08.08 0 0 1 .006-.072.101.101 0 0 1 .056-.054l.3-.111.287-.107.215-.08.086-.033.03-.003a.064.064 0 0 1 .032.003c.03.004.051.022.065.051.01.018.015.04.013.068a.617.617 0 0 1-.016.115l-.026.092-.036.114-.006.023-.007.022c.087-.048.192-.098.317-.148a.086.086 0 0 1 .072 0c.023.008.04.024.052.048a.082.082 0 0 1 .003.074.11.11 0 0 1-.052.056 4.304 4.304 0 0 0-.366.174l-.145.078a.077.077 0 0 1-.05.016h.002Z" opacity=".25"/><path fill="#333" d="M10.767 8.151a.394.394 0 0 1-.05-.003l-.041-.01a.118.118 0 0 1-.08-.067.216.216 0 0 1 0-.156c.02-.062.055-.142.103-.239l.026-.058a.513.513 0 0 1 .029-.061.28.28 0 0 0-.09.054l-.095.075a.094.094 0 0 1-.072.019.105.105 0 0 1-.067-.036.085.085 0 0 1-.019-.072.114.114 0 0 1 .036-.066l.094-.072a.535.535 0 0 1 .103-.065.32.32 0 0 1 .242-.035c.035.006.06.028.078.065.017.037.016.08-.003.13a2.306 2.306 0 0 1-.09.208.9.9 0 0 1-.037.078l-.031.075-.01.023-.007.019a.682.682 0 0 0 .197-.068c.046-.024.098-.055.155-.093.059-.039.126-.087.202-.146l.164-.14.137-.122.093-.09.035-.037a.086.086 0 0 1 .095-.028.093.093 0 0 1 .042.023c.01.01.019.02.026.031.014.031.015.066.002.107a3.569 3.569 0 0 1-.071.191l-.038.084-.033.078a.23.23 0 0 1-.01.036.3.3 0 0 0 .098-.036 1.224 1.224 0 0 0 .2-.139c.03-.028.056-.052.08-.072a.096.096 0 0 1 .072-.026.101.101 0 0 1 .068.034.099.099 0 0 1 .023.072.086.086 0 0 1-.033.066 1.406 1.406 0 0 1-.311.233.608.608 0 0 1-.158.062.382.382 0 0 1-.159-.004.124.124 0 0 1-.073-.064.19.19 0 0 1-.014-.098.912.912 0 0 1 .04-.138 1.151 1.151 0 0 1-.075.06l-.078.065c-.297.236-.53.353-.695.353Z" opacity=".25"/><path fill="#333" d="M12.485 8.151a.36.36 0 0 1-.048-.003l-.043-.01a.117.117 0 0 1-.08-.067.216.216 0 0 1 0-.156 2.45 2.45 0 0 1 .103-.239.402.402 0 0 0 .026-.058l.029-.061a.304.304 0 0 0-.091.054l-.094.075a.092.092 0 0 1-.072.019.104.104 0 0 1-.066-.036.089.089 0 0 1-.02-.072.126.126 0 0 1 .036-.066l.094-.072a.535.535 0 0 1 .103-.065.32.32 0 0 1 .242-.035c.035.006.06.028.078.065.017.037.016.08-.003.13a2.306 2.306 0 0 1-.09.208l-.035.078-.034.075-.01.023-.005.019a.682.682 0 0 0 .196-.068 1.86 1.86 0 0 0 .156-.093c.058-.039.125-.087.2-.146l.166-.14.135-.122.094-.09.036-.037a.085.085 0 0 1 .094-.028.104.104 0 0 1 .043.023c.01.01.018.02.024.031.016.031.017.066.003.107a2.385 2.385 0 0 1-.072.191l-.037.084a.75.75 0 0 1-.033.078l-.009.036a.301.301 0 0 0 .097-.036 1.224 1.224 0 0 0 .2-.139 1.41 1.41 0 0 1 .082-.072.092.092 0 0 1 .07-.026.102.102 0 0 1 .068.034.098.098 0 0 1 .023.072.086.086 0 0 1-.033.066c-.049.045-.1.088-.151.13a1.59 1.59 0 0 1-.159.103.61.61 0 0 1-.158.062.382.382 0 0 1-.158-.004.13.13 0 0 1-.075-.064.179.179 0 0 1-.013-.098c.006-.036.02-.082.039-.138a1.127 1.127 0 0 1-.075.06l-.078.065c-.298.236-.53.353-.695.353Z" opacity=".25"/><path fill="#333" d="M14.204 8.151a.394.394 0 0 1-.05-.003l-.042-.01a.113.113 0 0 1-.08-.067.216.216 0 0 1 0-.156c.021-.062.056-.142.104-.239l.026-.058a.513.513 0 0 1 .029-.061.282.282 0 0 0-.09.054l-.095.075a.094.094 0 0 1-.072.019.105.105 0 0 1-.067-.036.085.085 0 0 1-.019-.072.117.117 0 0 1 .035-.066c.03-.022.062-.046.093-.072a.484.484 0 0 1 .104-.065.323.323 0 0 1 .243-.035c.035.006.06.028.078.065.017.037.016.08-.003.13a2.306 2.306 0 0 1-.09.208l-.037.078-.033.075-.008.023-.008.019a.727.727 0 0 0 .197-.068c.046-.024.098-.055.156-.093.058-.039.125-.087.202-.146l.164-.14a4.28 4.28 0 0 0 .265-.249.085.085 0 0 1 .094-.028.104.104 0 0 1 .043.023l.026.031c.014.031.015.066.002.107a3.4 3.4 0 0 1-.072.191l-.038.084a.584.584 0 0 1-.032.078.23.23 0 0 1-.01.036.3.3 0 0 0 .098-.036 1.387 1.387 0 0 0 .28-.21.093.093 0 0 1 .072-.027.105.105 0 0 1 .068.034.094.094 0 0 1 .022.072c0 .025-.01.047-.032.066a1.59 1.59 0 0 1-.311.233.608.608 0 0 1-.158.062.382.382 0 0 1-.159-.004.13.13 0 0 1-.075-.064.198.198 0 0 1-.012-.098.994.994 0 0 1 .038-.138.91.91 0 0 1-.073.06l-.078.065c-.297.236-.53.353-.695.353Zm3.291 0a.393.393 0 0 1-.049-.003l-.041-.01a.117.117 0 0 1-.081-.067.216.216 0 0 1 0-.156c.021-.062.056-.142.104-.239l.026-.058a.513.513 0 0 1 .028-.061.282.282 0 0 0-.09.054l-.094.075a.092.092 0 0 1-.072.019.105.105 0 0 1-.068-.036.085.085 0 0 1-.018-.072.114.114 0 0 1 .036-.066l.093-.072a.535.535 0 0 1 .104-.065.32.32 0 0 1 .242-.035c.034.006.06.028.078.065.017.037.016.08-.003.13a2.306 2.306 0 0 1-.091.208.963.963 0 0 1-.036.078l-.032.075-.01.023-.006.019a.682.682 0 0 0 .196-.068c.046-.024.098-.055.156-.093.058-.039.126-.087.201-.146l.165-.14.136-.122.094-.09.034-.037a.086.086 0 0 1 .096-.028.093.093 0 0 1 .041.023c.01.01.02.02.026.031.015.031.017.066.003.107a2.385 2.385 0 0 1-.072.191l-.037.084-.034.078a.23.23 0 0 1-.01.036.299.299 0 0 0 .098-.036 1.224 1.224 0 0 0 .2-.139l.081-.072a.096.096 0 0 1 .072-.026.102.102 0 0 1 .068.034.098.098 0 0 1 .023.072.086.086 0 0 1-.033.066c-.05.045-.1.088-.151.13a1.59 1.59 0 0 1-.159.103.61.61 0 0 1-.158.062.381.381 0 0 1-.159-.004.125.125 0 0 1-.075-.064.19.19 0 0 1-.014-.098.912.912 0 0 1 .04-.138 1.127 1.127 0 0 1-.075.06l-.077.065c-.298.236-.53.353-.696.353Z" opacity=".25"/><path fill="#333" d="m19.361 8.157-.031-.003-.036-.003a.122.122 0 0 1-.065-.055.163.163 0 0 1-.014-.046.45.45 0 0 1 .007-.083l.039-.148a9.78 9.78 0 0 1 .077-.25l-.164.061-.187.072a.09.09 0 0 1-.072-.004.107.107 0 0 1-.055-.058.08.08 0 0 1 .006-.072.108.108 0 0 1 .055-.055l.201-.073.172-.062.12-.045.044-.02a.087.087 0 0 1 .062-.003c.029.007.05.023.062.05.01.018.013.036.008.051l-.008.048a.118.118 0 0 0-.01.028l-.01.034c-.015.036-.03.081-.048.135l-.049.158-.026.078-.016.058c.04-.008.1-.033.177-.074.068-.036.14-.079.215-.127.076-.048.154-.099.236-.154l.05-.033a.463.463 0 0 0 .052-.036.1.1 0 0 1 .075-.013c.026.005.048.02.065.044.015.023.02.047.013.073a.08.08 0 0 1-.043.058l-.054.04-.056.034a9.671 9.671 0 0 1-.239.156 2.66 2.66 0 0 1-.22.13c-.14.072-.252.109-.333.109ZM7.642 11.197a.4.4 0 0 1-.049-.003.353.353 0 0 1-.043-.01.113.113 0 0 1-.08-.068.216.216 0 0 1 0-.156c.022-.062.057-.142.105-.239l.025-.057a.525.525 0 0 1 .03-.062.32.32 0 0 0-.091.055l-.094.075a.087.087 0 0 1-.072.018.105.105 0 0 1-.068-.036.083.083 0 0 1-.018-.07.118.118 0 0 1 .034-.068l.095-.072a.546.546 0 0 1 .102-.065.323.323 0 0 1 .244-.034c.034.005.06.027.077.064.018.037.017.08-.002.13a2.416 2.416 0 0 1-.091.21c-.01.025-.023.05-.036.077l-.032.074-.01.023-.007.02a.389.389 0 0 0 .082-.02.75.75 0 0 0 .115-.049 1.71 1.71 0 0 0 .156-.093 4.03 4.03 0 0 0 .201-.146l.164-.14a4.194 4.194 0 0 0 .265-.248.084.084 0 0 1 .094-.03.104.104 0 0 1 .043.024l.026.032c.014.03.015.066.003.106a3.493 3.493 0 0 1-.072.192l-.039.083a.59.59 0 0 1-.032.078.182.182 0 0 1-.01.036.26.26 0 0 0 .098-.036 1.225 1.225 0 0 0 .2-.138c.03-.03.057-.053.081-.072a.096.096 0 0 1 .072-.026.116.116 0 0 1 .068.033.094.094 0 0 1 .021.072c0 .025-.01.047-.031.066a1.595 1.595 0 0 1-.311.233.61.61 0 0 1-.159.062.366.366 0 0 1-.158-.003.136.136 0 0 1-.075-.064.198.198 0 0 1-.013-.098 1 1 0 0 1 .039-.138.916.916 0 0 1-.074.06l-.077.065c-.298.235-.53.353-.696.353Z" opacity=".25"/><path fill="#333" d="M9.36 11.197a.286.286 0 0 1-.09-.013.118.118 0 0 1-.081-.068.216.216 0 0 1 0-.156c.022-.062.056-.142.103-.239a.402.402 0 0 0 .026-.057l.029-.062a.349.349 0 0 0-.09.055l-.094.075a.085.085 0 0 1-.072.018.104.104 0 0 1-.067-.036.087.087 0 0 1-.02-.07.126.126 0 0 1 .036-.068l.094-.072a.527.527 0 0 1 .104-.065.32.32 0 0 1 .241-.034c.035.005.061.027.078.064.018.037.017.08-.003.13a2.42 2.42 0 0 1-.09.21l-.035.077-.033.074-.01.023-.006.02a.678.678 0 0 0 .196-.068c.046-.024.098-.056.157-.094.057-.038.124-.087.2-.146l.166-.14.135-.122.094-.09.036-.036a.084.084 0 0 1 .093-.03.106.106 0 0 1 .043.024c.01.01.018.021.025.032.015.03.016.066.003.106a2.398 2.398 0 0 1-.072.192l-.038.083a.766.766 0 0 1-.033.078l-.008.036a.26.26 0 0 0 .096-.036 1.225 1.225 0 0 0 .2-.138c.03-.03.058-.053.082-.072a.092.092 0 0 1 .07-.026.11.11 0 0 1 .068.033.099.099 0 0 1 .023.072.086.086 0 0 1-.033.066c-.049.046-.099.09-.15.13a1.598 1.598 0 0 1-.16.103.609.609 0 0 1-.158.062.366.366 0 0 1-.158-.003.136.136 0 0 1-.075-.064.179.179 0 0 1-.013-.098.998.998 0 0 1 .04-.138 1.157 1.157 0 0 1-.076.06l-.078.065c-.297.235-.529.353-.695.353Z" opacity=".25"/><path fill="#333" d="M11.25 10.916a.06.06 0 0 1-.025-.005.146.146 0 0 1-.075-.038.383.383 0 0 1-.026-.045.171.171 0 0 1 .014-.146c.027-.051.061-.105.103-.16a.661.661 0 0 0 .036-.057 4.34 4.34 0 0 1 .031-.055l.01-.013-.049.02a.473.473 0 0 0-.062.04.793.793 0 0 0-.122.093l-.133.115a.303.303 0 0 1-.036.033l-.031.03a.098.098 0 0 1-.068.025.094.094 0 0 1-.069-.034.081.081 0 0 1-.024-.07.097.097 0 0 1 .031-.067l.036-.03.032-.03a2.976 2.976 0 0 1 .3-.244.612.612 0 0 1 .146-.065.241.241 0 0 1 .143-.003.15.15 0 0 1 .078.045c.015.02.024.036.028.052.02.05.015.1-.013.152a2.288 2.288 0 0 1-.122.195l-.016.026c.032-.014.073-.03.123-.046l.19-.074a.09.09 0 0 1 .077.006c.024.01.04.029.05.055.01.024.009.048-.004.074a.098.098 0 0 1-.051.052l-.188.065a3.6 3.6 0 0 0-.144.052l-.057.021-.042.015-.043.011a.074.074 0 0 1-.027.005Z" opacity=".25"/><path fill="#333" d="M11.969 11.197a.289.289 0 0 1-.09-.013.118.118 0 0 1-.081-.068.216.216 0 0 1 0-.156c.022-.062.056-.142.103-.239a.404.404 0 0 0 .026-.057l.03-.062a.347.347 0 0 0-.092.055l-.093.075a.085.085 0 0 1-.072.018.104.104 0 0 1-.066-.036.088.088 0 0 1-.02-.07.126.126 0 0 1 .035-.068l.094-.072a.525.525 0 0 1 .104-.065.32.32 0 0 1 .242-.034c.034.005.06.027.077.064.018.037.017.08-.003.13a2.425 2.425 0 0 1-.09.21l-.035.077-.033.074-.01.023-.006.02a.676.676 0 0 0 .196-.068c.046-.024.098-.056.157-.094.058-.038.124-.087.2-.146l.166-.14.135-.122.094-.09.036-.036c.026-.03.057-.04.093-.03a.104.104 0 0 1 .043.024.24.24 0 0 1 .025.032c.015.03.016.066.003.106a2.398 2.398 0 0 1-.072.192l-.038.083a.743.743 0 0 1-.033.078l-.008.036a.26.26 0 0 0 .096-.036 1.224 1.224 0 0 0 .2-.138c.03-.03.058-.053.082-.072a.092.092 0 0 1 .07-.026.11.11 0 0 1 .069.033.099.099 0 0 1 .023.072.086.086 0 0 1-.034.066c-.049.046-.099.09-.15.13a1.61 1.61 0 0 1-.16.103.611.611 0 0 1-.158.062.366.366 0 0 1-.158-.003.136.136 0 0 1-.075-.064.189.189 0 0 1-.014-.098 1.21 1.21 0 0 1 .04-.138 1.155 1.155 0 0 1-.075.06l-.078.065c-.297.235-.529.353-.695.353Z" opacity=".25"/><path fill="#333" d="M14.166 11.012a.094.094 0 0 1-.065-.023c-.034-.028-.044-.063-.028-.106l.023-.078.057-.167.03-.095.022-.074-.155.058-.188.072-.201.073-.2.075a.09.09 0 0 1-.07-.003.114.114 0 0 1-.056-.057.08.08 0 0 1 .006-.072.101.101 0 0 1 .056-.055l.3-.11.288-.107.214-.08.087-.034.029-.003a.064.064 0 0 1 .033.003c.03.005.051.022.064.052.011.017.015.04.013.069a.577.577 0 0 1-.015.112l-.026.094-.036.114-.006.023-.007.021c.086-.047.192-.096.316-.148a.085.085 0 0 1 .072 0c.024.01.04.026.052.049a.082.082 0 0 1 .003.073.103.103 0 0 1-.052.056 4.338 4.338 0 0 0-.365.175l-.146.077a.077.077 0 0 1-.049.016Z" opacity=".25"/><path fill="#333" d="M15.822 10.98a.127.127 0 0 1-.043-.007.117.117 0 0 1-.086-.075.168.168 0 0 1 .01-.122 1.04 1.04 0 0 1 .083-.152.648.648 0 0 0 .036-.058l.032-.058a.152.152 0 0 0 .017-.033 1.374 1.374 0 0 0-.511.042 4.496 4.496 0 0 0-.638.228.103.103 0 0 1-.072.002.099.099 0 0 1-.05-.052.08.08 0 0 1-.003-.074.091.091 0 0 1 .052-.055c.123-.054.238-.1.345-.14.11-.04.216-.072.317-.096.265-.068.482-.078.65-.032a.147.147 0 0 1 .104.09c.02.05.015.104-.014.162a2.043 2.043 0 0 1-.1.177l-.012.017-.01.022c.05-.01.122-.031.216-.065.098-.032.233-.079.404-.14a.08.08 0 0 1 .072.005c.026.01.044.029.052.055.01.024.01.048 0 .074a.097.097 0 0 1-.057.052l-.274.094-.219.072-.202.055a.532.532 0 0 1-.099.013Z" opacity=".25"/><path fill="#333" d="M17.331 11.012a.094.094 0 0 1-.065-.023c-.034-.028-.044-.063-.028-.106l.023-.078.057-.167.029-.095.023-.074-.155.058-.188.072-.201.073-.2.075a.094.094 0 0 1-.072-.003.115.115 0 0 1-.054-.057.08.08 0 0 1 .006-.072.096.096 0 0 1 .055-.055l.302-.11.288-.107.212-.08.088-.034.029-.003a.064.064 0 0 1 .033.003c.03.005.051.022.064.052.011.017.015.04.013.069a.909.909 0 0 1-.042.206l-.035.114-.008.023-.005.021c.086-.047.192-.096.316-.148a.085.085 0 0 1 .072 0c.023.01.04.026.05.049a.08.08 0 0 1 .005.073.11.11 0 0 1-.052.056 4.344 4.344 0 0 0-.365.175l-.146.077a.076.076 0 0 1-.049.016Z" opacity=".25"/><path fill="#333" d="M18.588 11.012a.094.094 0 0 1-.065-.023c-.034-.028-.044-.063-.028-.106l.023-.078.057-.167.029-.095.023-.074-.155.058-.188.072-.201.073-.2.075a.094.094 0 0 1-.072-.003.114.114 0 0 1-.054-.057.08.08 0 0 1 .006-.072.096.096 0 0 1 .055-.055l.302-.11.288-.107.212-.08.088-.034.029-.003a.064.064 0 0 1 .033.003c.03.005.051.022.064.052.011.017.015.04.013.069a.909.909 0 0 1-.042.206l-.035.114-.008.023-.005.021a3.37 3.37 0 0 1 .316-.148.085.085 0 0 1 .072 0c.024.01.04.026.05.049a.08.08 0 0 1 .005.073.11.11 0 0 1-.052.056 4.344 4.344 0 0 0-.365.175l-.146.077a.077.077 0 0 1-.049.016ZM7.625 14.086a.399.399 0 0 1-.05-.002l-.042-.01a.117.117 0 0 1-.08-.068.212.212 0 0 1 0-.154c.022-.064.056-.144.104-.24l.026-.058a.532.532 0 0 1 .029-.062.322.322 0 0 0-.09.054l-.094.075a.091.091 0 0 1-.072.02.114.114 0 0 1-.068-.036.087.087 0 0 1-.019-.072.118.118 0 0 1 .035-.067 1.37 1.37 0 0 0 .095-.072.425.425 0 0 1 .102-.063.329.329 0 0 1 .243-.037c.035.007.06.029.078.065.017.037.016.08-.003.13a2.18 2.18 0 0 1-.09.21.939.939 0 0 1-.036.078l-.032.075-.01.021-.007.02a.652.652 0 0 0 .197-.068c.046-.023.098-.055.155-.094.058-.039.125-.087.202-.144l.164-.14c.052-.045.097-.086.135-.124a2.78 2.78 0 0 1 .096-.089c.024-.022.036-.034.034-.036.026-.03.057-.04.094-.029a.091.091 0 0 1 .043.022l.026.033c.014.03.015.065.003.107a3.259 3.259 0 0 1-.072.19l-.04.084a.73.73 0 0 1-.03.078.194.194 0 0 1-.011.035.275.275 0 0 0 .098-.035 1.223 1.223 0 0 0 .2-.14l.08-.071a.091.091 0 0 1 .073-.025.108.108 0 0 1 .067.032.096.096 0 0 1 .022.072c0 .026-.01.048-.032.067a1.594 1.594 0 0 1-.311.233.642.642 0 0 1-.158.061.368.368 0 0 1-.158-.003.129.129 0 0 1-.075-.065.191.191 0 0 1-.013-.096c.006-.037.02-.083.039-.14a.756.756 0 0 1-.074.062l-.078.065c-.297.235-.529.351-.695.351Z" opacity=".25"/><path fill="#333" d="M9.343 14.086a.399.399 0 0 1-.05-.002l-.041-.01a.122.122 0 0 1-.08-.068.212.212 0 0 1 0-.154c.021-.064.056-.144.103-.24l.026-.058a.534.534 0 0 1 .029-.062.352.352 0 0 0-.091.054l-.094.075a.09.09 0 0 1-.072.02.113.113 0 0 1-.066-.036.091.091 0 0 1-.02-.072.127.127 0 0 1 .036-.067c.03-.021.061-.045.094-.072a.416.416 0 0 1 .103-.063.325.325 0 0 1 .242-.037c.035.007.06.029.078.065.017.037.016.08-.003.13-.017.05-.047.12-.09.21a.936.936 0 0 1-.037.078.88.88 0 0 1-.031.075l-.01.021-.006.02a.349.349 0 0 0 .08-.02.599.599 0 0 0 .116-.047c.046-.024.098-.056.157-.095.057-.039.124-.087.2-.144l.164-.14c.052-.045.097-.086.137-.124l.093-.089.036-.036c.026-.03.057-.04.094-.029a.082.082 0 0 1 .042.022c.01.011.019.022.026.033.015.03.016.065.002.107a2.206 2.206 0 0 1-.072.19l-.037.084c-.01.028-.022.054-.033.078l-.009.035a.275.275 0 0 0 .097-.035 1.225 1.225 0 0 0 .2-.14l.08-.071a.091.091 0 0 1 .072-.025.104.104 0 0 1 .068.032.102.102 0 0 1 .023.072.087.087 0 0 1-.033.067 1.586 1.586 0 0 1-.31.233.641.641 0 0 1-.158.061.367.367 0 0 1-.158-.003.129.129 0 0 1-.075-.065.18.18 0 0 1-.014-.096c.007-.037.02-.083.04-.14a.915.915 0 0 1-.075.062l-.078.065c-.297.235-.53.351-.695.351Z" opacity=".25"/><path fill="#333" d="M11.937 13.87a.15.15 0 0 1-.041-.005.12.12 0 0 1-.087-.075.167.167 0 0 1 .009-.124.93.93 0 0 1 .085-.151l.034-.058.034-.059a.098.098 0 0 0 .015-.031.892.892 0 0 0-.226-.008c-.084.005-.18.021-.285.05a4.453 4.453 0 0 0-.636.226.094.094 0 0 1-.072.002.098.098 0 0 1-.052-.052.082.082 0 0 1-.003-.073.103.103 0 0 1 .052-.056c.123-.054.238-.1.345-.138.11-.042.216-.074.317-.098.266-.068.483-.078.651-.032.05.012.085.043.104.09.019.05.014.104-.015.162-.027.056-.06.116-.099.178l-.013.015-.009.024c.05-.011.121-.033.216-.065.097-.032.232-.08.404-.144a.09.09 0 0 1 .072.008.09.09 0 0 1 .051.056c.01.023.01.047 0 .073a.096.096 0 0 1-.057.052l-.272.094a4.394 4.394 0 0 1-.42.127.554.554 0 0 1-.102.012Z" opacity=".25"/><path fill="#333" d="M13.141 13.806a.16.16 0 0 1-.1-.042.31.31 0 0 1-.027-.046.167.167 0 0 1 .015-.144c.027-.053.06-.107.102-.163l.036-.055.032-.054.01-.015-.05.02a.927.927 0 0 0-.184.133 4.42 4.42 0 0 0-.132.117l-.036.033-.032.028a.098.098 0 0 1-.067.026.091.091 0 0 1-.07-.036.079.079 0 0 1-.024-.067.093.093 0 0 1 .032-.068.147.147 0 0 1 .036-.029 2.98 2.98 0 0 1 .333-.277c.05-.029.098-.05.145-.063a.25.25 0 0 1 .142-.004.157.157 0 0 1 .078.046c.015.02.025.037.029.052.02.049.015.1-.013.151-.029.052-.064.11-.107.173l-.015.022-.016.025.122-.044c.052-.02.115-.044.19-.075a.098.098 0 0 1 .078.006c.024.011.04.03.049.056.01.023.01.047-.003.073a.097.097 0 0 1-.052.052l-.187.065-.144.052a.578.578 0 0 1-.058.023l-.041.013a.216.216 0 0 0-.042.013.128.128 0 0 1-.029.003Z" opacity=".25"/><path fill="#333" d="M14.031 13.806a.15.15 0 0 1-.1-.042.17.17 0 0 1-.013-.19c.028-.053.063-.107.104-.163a.533.533 0 0 0 .035-.055.72.72 0 0 1 .033-.054l.009-.015-.048.02a.927.927 0 0 0-.184.133 4.549 4.549 0 0 0-.133.117l-.036.033-.033.028a.098.098 0 0 1-.067.026.09.09 0 0 1-.068-.036.083.083 0 0 1-.026-.067.09.09 0 0 1 .033-.068.127.127 0 0 1 .035-.029l.033-.033a3.47 3.47 0 0 1 .15-.132c.053-.044.103-.08.15-.111a.551.551 0 0 1 .145-.064.254.254 0 0 1 .144-.004.158.158 0 0 1 .077.046c.016.02.025.037.03.052a.17.17 0 0 1-.015.151 1.72 1.72 0 0 1-.137.22l.122-.044.19-.075a.098.098 0 0 1 .078.006c.024.011.04.03.05.056a.086.086 0 0 1-.005.073.092.092 0 0 1-.05.052l-.188.065a2.637 2.637 0 0 0-.201.075l-.043.013a.22.22 0 0 0-.04.013l-.03.003h-.001Z" opacity=".25"/><path fill="#333" d="M15.229 13.902a.098.098 0 0 1-.065-.021.088.088 0 0 1-.029-.107l.023-.078.058-.168.029-.094.023-.075-.156.058-.187.072-.202.075-.2.073a.086.086 0 0 1-.072-.003.108.108 0 0 1-.053-.057.08.08 0 0 1 .006-.072.096.096 0 0 1 .055-.055l.302-.11c.106-.038.202-.074.288-.107l.212-.081.088-.032.028-.003a.05.05 0 0 1 .033.003c.03.004.052.021.065.052.01.017.015.04.013.068a1.061 1.061 0 0 1-.042.207l-.036.112a.1.1 0 0 1-.007.023l-.006.023c.087-.048.192-.097.317-.15a.094.094 0 0 1 .072 0c.023.01.04.027.05.05a.082.082 0 0 1 .005.075.104.104 0 0 1-.052.054 7.379 7.379 0 0 0-.204.094l-.162.08-.145.078a.077.077 0 0 1-.05.016Zm2.353.184a.397.397 0 0 1-.05-.002l-.041-.01a.122.122 0 0 1-.08-.068.212.212 0 0 1 0-.154c.02-.064.055-.144.103-.24l.026-.058a.52.52 0 0 1 .029-.062.323.323 0 0 0-.091.054l-.094.075a.09.09 0 0 1-.072.02.114.114 0 0 1-.067-.036.087.087 0 0 1-.019-.072.114.114 0 0 1 .036-.067c.03-.021.061-.045.094-.072a.414.414 0 0 1 .103-.063.325.325 0 0 1 .242-.037c.035.007.06.029.078.065.017.037.016.08-.003.13-.017.05-.047.12-.09.21a.963.963 0 0 1-.037.078l-.031.075-.01.021-.006.02a.348.348 0 0 0 .08-.02.603.603 0 0 0 .116-.047c.046-.024.098-.056.155-.095.058-.04.125-.088.202-.144l.164-.14a4.12 4.12 0 0 0 .137-.124l.093-.089.035-.036a.083.083 0 0 1 .095-.029.082.082 0 0 1 .042.022c.01.011.019.022.026.033.014.03.015.065.003.107a3.35 3.35 0 0 1-.073.19l-.037.084-.033.078a.192.192 0 0 1-.01.035.274.274 0 0 0 .098-.035 1.21 1.21 0 0 0 .2-.14l.08-.071a.091.091 0 0 1 .072-.025.104.104 0 0 1 .068.032.101.101 0 0 1 .023.072.087.087 0 0 1-.033.067 1.586 1.586 0 0 1-.31.233.641.641 0 0 1-.158.061.366.366 0 0 1-.158-.003.123.123 0 0 1-.075-.065.18.18 0 0 1-.014-.096.944.944 0 0 1 .04-.14.915.915 0 0 1-.075.062l-.078.065c-.297.235-.53.351-.695.351Z" opacity=".25"/><path fill="#333" d="m19.448 14.094-.032-.003-.036-.003a.13.13 0 0 1-.065-.056.145.145 0 0 1-.014-.045.45.45 0 0 1 .007-.084l.039-.15.078-.248a4.625 4.625 0 0 0-.164.062l-.188.072a.099.099 0 0 1-.072-.005.107.107 0 0 1-.054-.057.08.08 0 0 1 .006-.072.101.101 0 0 1 .054-.055l.202-.075.171-.06.12-.046.044-.02a.078.078 0 0 1 .062-.002c.029.006.05.021.062.047.01.02.014.037.009.052l-.009.05a.094.094 0 0 0-.01.028l-.01.033-.048.135-.049.159-.025.078-.016.057c.04-.008.1-.033.177-.073.067-.037.139-.079.214-.127a8.218 8.218 0 0 0 .287-.187.527.527 0 0 0 .052-.036.091.091 0 0 1 .075-.013c.025.005.047.02.064.043.016.023.02.048.013.074a.08.08 0 0 1-.043.057.596.596 0 0 1-.053.04l-.056.035-.24.156c-.076.05-.15.093-.22.13-.14.072-.25.109-.33.109h-.002ZM7.897 16.636c-.01 0-.02 0-.026-.002a.16.16 0 0 1-.075-.04.313.313 0 0 1-.026-.045.168.168 0 0 1 .015-.144c.027-.053.06-.107.102-.163a.415.415 0 0 0 .036-.055l.032-.055.01-.014-.05.02a.68.68 0 0 0-.06.04 1 1 0 0 0-.124.093 4.458 4.458 0 0 0-.132.116l-.036.033-.032.03a.098.098 0 0 1-.067.025.088.088 0 0 1-.068-.036.083.083 0 0 1-.026-.067.093.093 0 0 1 .032-.068.15.15 0 0 1 .036-.029l.031-.033a2.992 2.992 0 0 1 .301-.243c.05-.03.099-.051.146-.064a.254.254 0 0 1 .144-.004.157.157 0 0 1 .076.046c.015.02.025.036.029.052.02.049.015.1-.013.151-.028.052-.063.11-.107.173l-.015.021-.016.026.122-.044.192-.075a.099.099 0 0 1 .077.006c.023.011.04.03.048.056.01.023.01.047-.003.073a.098.098 0 0 1-.052.052l-.187.065a3.803 3.803 0 0 0-.2.075l-.043.013a.215.215 0 0 0-.042.013.128.128 0 0 1-.029.002Z" opacity=".25"/><path fill="#333" d="M8.617 16.917a.275.275 0 0 1-.092-.013.117.117 0 0 1-.08-.067.216.216 0 0 1 0-.156c.021-.062.056-.142.103-.239a.392.392 0 0 0 .026-.058l.029-.061a.331.331 0 0 0-.09.054l-.095.075a.083.083 0 0 1-.07.019.1.1 0 0 1-.068-.036.09.09 0 0 1-.02-.072.126.126 0 0 1 .036-.066l.093-.072a.484.484 0 0 1 .104-.065.323.323 0 0 1 .243-.035c.035.006.061.028.078.065.018.037.016.08-.004.13a2.42 2.42 0 0 1-.09.21.758.758 0 0 1-.035.076l-.033.075-.01.023-.006.019a.733.733 0 0 0 .197-.068c.045-.024.097-.055.155-.093a3.98 3.98 0 0 0 .202-.146l.164-.14a4.432 4.432 0 0 0 .23-.213l.035-.036A.084.084 0 0 1 9.713 16a.103.103 0 0 1 .043.023c.01.01.018.02.024.031.016.031.017.066.003.107a2.618 2.618 0 0 1-.07.191l-.04.084c-.01.029-.02.055-.03.078l-.01.036a.3.3 0 0 0 .096-.036 1.223 1.223 0 0 0 .201-.139l.08-.072a.093.093 0 0 1 .073-.026.1.1 0 0 1 .066.034.099.099 0 0 1 .023.072c0 .024-.01.047-.032.066a1.613 1.613 0 0 1-.311.233.61.61 0 0 1-.158.062.368.368 0 0 1-.158-.003.135.135 0 0 1-.075-.065.198.198 0 0 1-.013-.098.994.994 0 0 1 .039-.138 1.147 1.147 0 0 1-.075.06l-.077.065c-.297.236-.529.353-.695.353Z" opacity=".25"/><path fill="#333" d="M11.212 16.701a.158.158 0 0 1-.043-.006.121.121 0 0 1-.087-.074.162.162 0 0 1 .01-.124.98.98 0 0 1 .084-.151l.036-.058.031-.06a.098.098 0 0 0 .016-.03.892.892 0 0 0-.226-.008 1.483 1.483 0 0 0-.285.049 4.63 4.63 0 0 0-.636.226.094.094 0 0 1-.072.003.099.099 0 0 1-.05-.052.08.08 0 0 1-.005-.073.11.11 0 0 1 .052-.056c.123-.054.238-.1.345-.139.11-.041.216-.074.317-.098.266-.067.483-.077.65-.031.05.012.085.042.105.09.019.05.014.104-.013.162a1.93 1.93 0 0 1-.101.178l-.012.013-.01.025c.05-.012.122-.033.216-.065.097-.033.232-.08.405-.144a.09.09 0 0 1 .072.007.09.09 0 0 1 .052.056c.01.023.01.048 0 .074a.102.102 0 0 1-.058.052l-.274.093a4.748 4.748 0 0 1-.42.127.547.547 0 0 1-.1.013v.001Z" opacity=".25"/><path fill="#333" d="m12.39 16.924-.03-.002-.037-.003a.129.129 0 0 1-.065-.056.12.12 0 0 1-.012-.045.324.324 0 0 1 .007-.084c.008-.037.021-.087.039-.15l.076-.248a4.625 4.625 0 0 0-.164.061l-.187.072a.099.099 0 0 1-.072-.004.107.107 0 0 1-.055-.058.087.087 0 0 1 .006-.072.1.1 0 0 1 .056-.054l.2-.075.171-.06.12-.047.046-.018a.074.074 0 0 1 .06-.003c.03.006.05.021.062.047.01.02.014.037.01.052l-.01.05a.092.092 0 0 0-.01.028l-.009.033a1.687 1.687 0 0 0-.048.135l-.05.159-.025.078-.016.057a.788.788 0 0 0 .178-.073 3.44 3.44 0 0 0 .213-.127c.075-.048.154-.1.237-.156l.052-.031.051-.036a.088.088 0 0 1 .074-.013.1.1 0 0 1 .065.043c.015.023.02.047.014.073a.086.086 0 0 1-.043.058l-.055.039-.055.036-.24.155c-.077.05-.15.094-.219.13-.14.073-.252.11-.334.11Z" opacity=".25"/><path fill="#333" d="M13.505 16.917a.272.272 0 0 1-.09-.013.117.117 0 0 1-.08-.067.216.216 0 0 1 0-.156c.021-.062.056-.142.103-.239a.384.384 0 0 0 .026-.058l.028-.061a.33.33 0 0 0-.089.054l-.095.075a.083.083 0 0 1-.07.019.1.1 0 0 1-.068-.036.09.09 0 0 1-.02-.072.126.126 0 0 1 .036-.066l.093-.072a.537.537 0 0 1 .104-.065.323.323 0 0 1 .243-.035c.034.006.06.028.077.065.017.037.016.08-.003.13a2.425 2.425 0 0 1-.09.21.746.746 0 0 1-.035.076l-.034.075-.01.023-.005.019a.735.735 0 0 0 .197-.068c.045-.024.097-.055.155-.093a3.98 3.98 0 0 0 .202-.146l.164-.14a4.485 4.485 0 0 0 .229-.213l.036-.036a.084.084 0 0 1 .094-.028.103.103 0 0 1 .043.023c.01.01.018.02.024.031.016.031.017.066.003.107a2.601 2.601 0 0 1-.07.191l-.04.084a1.03 1.03 0 0 1-.031.078l-.01.036a.3.3 0 0 0 .096-.036 1.225 1.225 0 0 0 .202-.139l.08-.072a.093.093 0 0 1 .073-.026.1.1 0 0 1 .066.034.099.099 0 0 1 .023.072c0 .024-.01.047-.032.066a1.604 1.604 0 0 1-.311.233.609.609 0 0 1-.158.062.368.368 0 0 1-.159-.003.135.135 0 0 1-.074-.065.198.198 0 0 1-.013-.098.99.99 0 0 1 .039-.138 1.156 1.156 0 0 1-.075.06l-.078.065c-.298.236-.53.353-.696.353Z" opacity=".25"/><path fill="#333" d="m15.373 16.924-.032-.002-.036-.003a.129.129 0 0 1-.064-.056.14.14 0 0 1-.015-.045.433.433 0 0 1 .007-.084l.04-.15.077-.248a4.625 4.625 0 0 0-.164.061l-.187.072a.099.099 0 0 1-.072-.004.107.107 0 0 1-.055-.058.08.08 0 0 1 .006-.072.102.102 0 0 1 .054-.054l.202-.075.171-.06.12-.047.044-.018a.078.078 0 0 1 .062-.003c.03.006.05.021.062.047.01.02.014.037.009.052l-.009.05a.092.092 0 0 0-.01.028l-.01.033c-.014.037-.03.082-.047.135l-.05.159-.025.078-.016.057c.04-.009.1-.033.177-.073.067-.037.139-.08.214-.127a11.83 11.83 0 0 0 .339-.223.091.091 0 0 1 .075-.013.1.1 0 0 1 .065.043c.015.023.02.047.012.073-.003.024-.018.044-.043.058a.596.596 0 0 1-.053.039l-.056.036-.24.155c-.076.05-.15.094-.22.13-.14.073-.25.11-.33.11h-.002Z" opacity=".25"/><path fill="url(#b)" d="M5.569 6.524 4.518 7.777l-.57-.478-.38.455 1.023.86 1.431-1.707-.453-.383Z" opacity=".2"/><path fill="url(#c)" d="m5.569 12.33-1.051 1.252-.57-.478-.38.455 1.023.86 1.431-1.706-.453-.383Z" opacity=".2"/><path fill="url(#d)" d="M5.569 15.289 4.518 16.54l-.57-.477-.38.454 1.023.86 1.431-1.707-.453-.381Z" opacity=".2"/><path stroke="url(#e)" stroke-linecap="square" stroke-linejoin="round" stroke-width=".376" d="M16.487 7.292a.748.748 0 0 0-1.06.093l-4.832 5.76-2.303-1.934a.75.75 0 0 0-1.059.092l-.966 1.152a.748.748 0 0 0 .092 1.06l4.032 3.382a.75.75 0 0 0 1.06-.093l6.28-7.487a.75.75 0 0 0-.092-1.058l-1.152-.967Z" opacity=".5"/><path fill="#1F9BFF" d="M16.487 7.292a.748.748 0 0 0-1.06.093l-4.832 5.76-2.303-1.934a.75.75 0 0 0-1.059.092l-.966 1.152a.748.748 0 0 0 .092 1.06l4.032 3.382a.75.75 0 0 0 1.06-.093l6.28-7.487a.75.75 0 0 0-.092-1.058l-1.152-.967Z"/><defs><linearGradient id="b" x1="4.797" x2="4.797" y1="5.985" y2="9.152" gradientUnits="userSpaceOnUse"><stop stop-color="#64BAFF"/><stop offset="1" stop-color="#0D52BF"/></linearGradient><linearGradient id="c" x1="4.797" x2="4.797" y1="11.792" y2="14.959" gradientUnits="userSpaceOnUse"><stop stop-color="#64BAFF"/><stop offset="1" stop-color="#0D52BF"/></linearGradient><linearGradient id="d" x1="4.797" x2="4.797" y1="14.748" y2="17.915" gradientUnits="userSpaceOnUse"><stop stop-color="#64BAFF"/><stop offset="1" stop-color="#0D52BF"/></linearGradient><linearGradient id="e" x1="12.003" x2="12.002" y1="18.288" y2="12.088" gradientUnits="userSpaceOnUse"><stop stop-color="#fff"/><stop offset="1" stop-color="#fff" stop-opacity="0"/></linearGradient><radialGradient id="a" cx="0" cy="0" r="1" gradientTransform="matrix(0 22 -22 0 12 1)" gradientUnits="userSpaceOnUse"><stop stop-color="#FAFAFA"/><stop offset="1" stop-color="#CCC"/></radialGradient></defs></svg>