<svg xmlns="http://www.w3.org/2000/svg" width="24" height="24" viewBox="0 0 6.35 6.35"><defs><radialGradient id="a" cx="0" cy="0" r="1" fx="0" fy="0" gradientTransform="matrix(0 16.5 -16.5 0 9 .75)" gradientUnits="userSpaceOnUse" spreadMethod="pad"><stop offset="0" style="stop-opacity:1;stop-color:#fafafa"/><stop offset="1" style="stop-opacity:1;stop-color:silver"/></radialGradient></defs><path d="M7.195.836c.09 0 .176-.012.258-.035a23.86 23.86 0 0 1 3.231.008 10.26 10.26 0 0 1 2.836.636c1.519.625 2.558 1.711 3.121 3.254.316.93.507 1.887.566 2.867a21.227 21.227 0 0 1-.086 3.696 8.976 8.976 0 0 1-.672 2.488c-.637 1.383-1.672 2.336-3.101 2.859a11.693 11.693 0 0 1-3.575.618 15.998 15.998 0 0 1-4.089-.309c-2.481-.551-4.016-2.066-4.594-4.543a14.244 14.244 0 0 1-.336-3.383c-.027-1.211.101-2.41.387-3.59.609-2.312 2.078-3.746 4.406-4.3A10.27 10.27 0 0 1 7.195.836Z" style="fill:url(#a);fill-rule:evenodd;stroke:none" transform="matrix(.35278 0 0 .35278 0 0)"/><path d="M1.656 2.037c-.248.33-.38.732-.38 1.144a1.888 1.888 0 0 0 1.899 1.893l.664-1.362-1.233-.252Z" style="fill:#17a05e;fill-opacity:1;fill-rule:evenodd;stroke:none;stroke-width:.352778" transform="matrix(1.04495 0 0 1.04495 -.143 -.143)"/><path d="m3.27 2.32.57 1.387-.665 1.367A1.894 1.894 0 0 0 4.87 2.321z" style="fill:#ffce42;fill-opacity:1;fill-rule:evenodd;stroke:none;stroke-width:.352778" transform="matrix(1.04495 0 0 1.04495 -.143 -.143)"/><path d="M3.175 1.276a1.889 1.889 0 0 0-1.519.76l.948 1.424 1.235.247-.569-1.386h1.6a1.891 1.891 0 0 0-1.695-1.045Z" style="fill:#de5347;fill-opacity:1;fill-rule:evenodd;stroke:none;stroke-width:.352778" transform="matrix(1.04495 0 0 1.04495 -.143 -.143)"/><path d="M3.175 2.325c.47-.002.851.38.85.85a.848.848 0 0 1-.85.85.848.848 0 0 1-.85-.85.848.848 0 0 1 .85-.85z" style="fill:#fff;fill-opacity:1;fill-rule:nonzero;stroke:none;stroke-width:.352778" transform="matrix(1.04495 0 0 1.04495 -.143 -.143)"/><path d="M3.175 2.537a.637.637 0 1 1 0 1.276.638.638 0 1 1 0-1.276z" style="fill:#4a8af4;fill-opacity:1;fill-rule:nonzero;stroke:none;stroke-width:.352778" transform="matrix(1.04495 0 0 1.04495 -.143 -.143)"/></svg>