<svg xmlns="http://www.w3.org/2000/svg" width="24" height="24" fill="none"><path fill="url(#a)" stroke="#FA6E6E" stroke-width="2" d="M21.943 10.149v.006a26.937 26.937 0 0 1-.11 4.744 10.879 10.879 0 0 1-.813 3.027c-.738 1.59-1.908 2.67-3.555 3.277a14.625 14.625 0 0 1-4.45.768h-.017l-.017.001a20.42 20.42 0 0 1-5.191-.391c-1.503-.336-2.66-.948-3.523-1.801-.864-.854-1.488-2.003-1.84-3.5a18.046 18.046 0 0 1-.422-4.27V11.969A17.49 17.49 0 0 1 2.49 7.45c.368-1.393.979-2.47 1.806-3.278.83-.81 1.925-1.396 3.332-1.73l.006-.002c.66-.161 1.328-.27 2.004-.327.153-.001.307-.019.458-.053a30.627 30.627 0 0 1 4.076.016c1.201.094 2.363.354 3.487.78 1.756.727 2.934 1.957 3.583 3.743.396 1.151.63 2.334.7 3.55Z"/><path stroke="#FA6E6E" stroke-linecap="round" stroke-width="1.5" d="M10.47 5.072h.003c.145.001.29-.034.434-.042.841-.046 1.682-.04 2.523.02.828.065 1.63.245 2.405.54 1.29.53 2.171 1.45 2.646 2.761.272.789.432 1.6.481 2.433a17.782 17.782 0 0 1-.072 3.133 7.56 7.56 0 0 1-.569 2.114c-.541 1.172-1.418 1.98-2.632 2.426a9.941 9.941 0 0 1-3.032.524 13.631 13.631 0 0 1-3.47-.262c-2.107-.47-3.407-1.754-3.9-3.854a12.12 12.12 0 0 1-.284-2.871c-.023-1.03.086-2.045.328-3.046"/><path fill="#65B5F7" d="M13.009 9c0-.552-.452-1-1.01-1-.556 0-1.008.448-1.008 1v6c0 .552.452 1 1.009 1 .557 0 1.009-.448 1.009-1V9Z"/><path fill="#65B5F7" d="M8.874 12.634A.995.995 0 0 0 8.504 14c.28.478.896.642 1.379.366l5.243-3a.995.995 0 0 0 .37-1.366 1.014 1.014 0 0 0-1.38-.366l-5.242 3Z"/><path fill="#65B5F7" d="M14.117 14.366c.483.276 1.1.112 1.378-.366a.995.995 0 0 0-.369-1.366l-5.243-3A1.014 1.014 0 0 0 8.505 10a.995.995 0 0 0 .37 1.366l5.242 3Z"/><defs><radialGradient id="a" cx="0" cy="0" r="1" gradientTransform="matrix(0 22 -22 0 12 1)" gradientUnits="userSpaceOnUse"><stop stop-color="#FAFAFA"/><stop offset="1" stop-color="#CCC"/></radialGradient></defs></svg>