<svg xmlns="http://www.w3.org/2000/svg" xmlns:xlink="http://www.w3.org/1999/xlink" xml:space="preserve" width="24" height="24" fill="none"><defs><linearGradient id="a"><stop offset="0" style="stop-color:#000;stop-opacity:1"/><stop offset="1" style="stop-color:#e6e6e6;stop-opacity:1"/></linearGradient><linearGradient xlink:href="#a" id="b" x1="53.58" x2="52.813" y1="105.099" y2="1.676" gradientTransform="matrix(.24444 0 0 .24444 -.222 -.222)" gradientUnits="userSpaceOnUse"/></defs><path d="M12 1C2 1 1 6 1 12c0 8 3 11 11 11s11-3 11-11c0-6-1-11-11-11Z" style="font-variation-settings:normal;display:inline;opacity:1;vector-effect:none;fill:url(#b);fill-opacity:1;stroke-width:1.11627;stroke-linecap:butt;stroke-linejoin:miter;stroke-miterlimit:4;stroke-dasharray:none;stroke-dashoffset:0;stroke-opacity:1;-inkscape-stroke:none;stop-color:#000;stop-opacity:1"/><path fill="#fbc02d" d="M5.733 5.219a.513.513 0 0 0-.514.514V8.27l1.017.679-1.017.678v8.64c0 .285.23.514.514.514h12.534c.285 0 .514-.23.514-.514V5.733a.513.513 0 0 0-.514-.514z" style="fill-rule:evenodd"/><path fill="#388e3c" d="M5.74 5.242a.517.517 0 0 0-.521.515v2.16l1.017.669-1.017.669v8.514c0 .285.232.514.521.514h12.52c.289 0 .521-.23.521-.515V5.757a.517.517 0 0 0-.521-.515Z" style="fill-rule:evenodd;stroke-width:.260817;paint-order:normal"/><path fill="#e6ea97" d="m18.52 17.5-.521.522h.521z" style="fill-rule:evenodd;stroke-width:.260817"/><rect width="10.433" height="10.433" x="6.784" y="6.546" fill="#263238" ry=".522" style="fill-rule:evenodd;stroke-width:.260817"/><path fill="#fff" d="M7.305 7.068v9.39h9.39v-9.39Z" opacity=".15" style="opacity:.397237;fill:#ccc;fill-rule:evenodd;stroke-width:.260817"/><g style="opacity:.739206;fill:#e6e6e6;fill-rule:evenodd"><path fill="#959595" stroke-width=".769" d="M18 16.03h13v1H18Zm15 0h6v1h-6zm-15 1.95h9v1h-9zm11 0h5v1h-5z" style="fill:#e6e6e6" transform="matrix(.26082 0 0 .26082 3.654 3.677)"/></g><g fill="#dee372" fill-rule="evenodd" transform="matrix(.26082 0 0 .26082 3.654 3.677)"><rect width="1" height="1" x="12" y="52" opacity=".6" ry="0" style="paint-order:normal"/><rect width="1" height="1" x="14" y="52" opacity=".6" ry="0" style="paint-order:normal"/><rect width="1" height="1" x="16" y="52" opacity=".6" ry="0" style="paint-order:normal"/><rect width="1" height="1" x="18" y="52" opacity=".6" ry="0" style="paint-order:normal"/><rect width="1" height="1" x="20" y="52" opacity=".6" ry="0" style="paint-order:normal"/><rect width="1" height="1" x="22" y="52" opacity=".6" ry="0" style="paint-order:normal"/><rect width="1" height="1" x="24" y="52" opacity=".6" ry="0" style="paint-order:normal"/><rect width="1" height="1" x="26" y="52" opacity=".6" ry="0" style="paint-order:normal"/><rect width="1" height="1" x="28" y="52" opacity=".6" ry="0" style="paint-order:normal"/><rect width="1" height="1" x="30" y="52" opacity=".6" ry="0" style="paint-order:normal"/><rect width="1" height="1" x="13" y="53" opacity=".6" ry="0" style="paint-order:normal"/><rect width="1" height="1" x="15" y="53" opacity=".6" ry="0" style="paint-order:normal"/><rect width="1" height="1" x="17" y="53" opacity=".6" ry="0" style="paint-order:normal"/><rect width="1" height="1" x="19" y="53" opacity=".6" ry="0" style="paint-order:normal"/><rect width="1" height="1" x="21" y="53" opacity=".6" ry="0" style="paint-order:normal"/><rect width="1" height="1" x="23" y="53" opacity=".6" ry="0" style="paint-order:normal"/><rect width="1" height="1" x="25" y="53" opacity=".6" ry="0" style="paint-order:normal"/><rect width="1" height="1" x="27" y="53" opacity=".6" ry="0" style="paint-order:normal"/><rect width="1" height="1" x="29" y="53" opacity=".6" ry="0" style="paint-order:normal"/><rect width="1" height="1" x="31" y="53" opacity=".6" ry="0" style="paint-order:normal"/></g><g fill="#dee372" fill-rule="evenodd" transform="matrix(.26082 0 0 .26082 9.131 3.677)"><rect width="1" height="1" x="26" y="52" opacity=".6" ry="0" style="paint-order:normal"/><rect width="1" height="1" x="28" y="52" opacity=".6" ry="0" style="paint-order:normal"/><rect width="1" height="1" x="30" y="52" opacity=".6" ry="0" style="paint-order:normal"/><rect width="1" height="1" x="25" y="53" opacity=".6" ry="0" style="paint-order:normal"/><rect width="1" height="1" x="27" y="53" opacity=".6" ry="0" style="paint-order:normal"/><rect width="1" height="1" x="29" y="53" opacity=".6" ry="0" style="paint-order:normal"/><rect width="1" height="1" x="31" y="53" opacity=".6" ry="0" style="paint-order:normal"/></g><g fill="#dee372" fill-rule="evenodd" transform="matrix(0 .26082 -.26082 0 31.822 4.199)"><rect width="1" height="1" x="12" y="52" opacity=".6" ry="0" style="paint-order:normal"/><rect width="1" height="1" x="14" y="52" opacity=".6" ry="0" style="paint-order:normal"/><rect width="1" height="1" x="16" y="52" opacity=".6" ry="0" style="paint-order:normal"/><rect width="1" height="1" x="18" y="52" opacity=".6" ry="0" style="paint-order:normal"/><rect width="1" height="1" x="20" y="52" opacity=".6" ry="0" style="paint-order:normal"/><rect width="1" height="1" x="22" y="52" opacity=".6" ry="0" style="paint-order:normal"/><rect width="1" height="1" x="24" y="52" opacity=".6" ry="0" style="paint-order:normal"/><rect width="1" height="1" x="26" y="52" opacity=".6" ry="0" style="paint-order:normal"/><rect width="1" height="1" x="28" y="52" opacity=".6" ry="0" style="paint-order:normal"/><rect width="1" height="1" x="30" y="52" opacity=".6" ry="0" style="paint-order:normal"/><rect width="1" height="1" x="13" y="53" opacity=".6" ry="0" style="paint-order:normal"/><rect width="1" height="1" x="15" y="53" opacity=".6" ry="0" style="paint-order:normal"/><rect width="1" height="1" x="17" y="53" opacity=".6" ry="0" style="paint-order:normal"/><rect width="1" height="1" x="19" y="53" opacity=".6" ry="0" style="paint-order:normal"/><rect width="1" height="1" x="21" y="53" opacity=".6" ry="0" style="paint-order:normal"/><rect width="1" height="1" x="23" y="53" opacity=".6" ry="0" style="paint-order:normal"/><rect width="1" height="1" x="25" y="53" opacity=".6" ry="0" style="paint-order:normal"/><rect width="1" height="1" x="27" y="53" opacity=".6" ry="0" style="paint-order:normal"/><rect width="1" height="1" x="29" y="53" opacity=".6" ry="0" style="paint-order:normal"/><rect width="1" height="1" x="31" y="53" opacity=".6" ry="0" style="paint-order:normal"/></g><g fill-rule="evenodd" transform="matrix(.26082 0 0 .26082 3.654 3.677)"><circle cx="9.5" cy="9.5" r="1.5" fill="#fbc02d" style="paint-order:normal"/><circle cx="9.5" cy="9.5" r=".5" fill="#263238" style="paint-order:normal"/><circle cx="54.5" cy="9.5" r="1.5" fill="#fbc02d" style="paint-order:normal"/><circle cx="54.5" cy="9.5" r=".5" fill="#263238" style="paint-order:normal"/><circle cx="9.5" cy="52.5" r="1.5" fill="#fbc02d" style="paint-order:normal"/><circle cx="9.5" cy="52.5" r=".5" fill="#263238" style="paint-order:normal"/></g><path d="M8.542 9.437a.121.121 0 0 0-.012.207c.101.071.247-.005.356.038.16.062.097.393.097.528v4.143c0 .101.006.287.165.224.117-.045.083-.223.083-.32V9.864c0-.107.028-.259-.012-.36-.057-.143-.387-.082-.512-.082-.051 0-.119-.01-.165.014m.938.994V13.69c0 .062-.026.203.014.254.046.057.263.022.331.022h5.331c.096 0 .26.03.34-.037.056-.049.046-.131.046-.198v-3.065c0-.074.013-.163-.056-.211-.097-.067-.326-.024-.44-.024H9.48m-.76 1.008v-.76c-.07 0-.162-.013-.213.046-.04.044-.035.107-.035.162 0 .126-.052.406.037.505.052.059.14.047.212.047m1.27-.51v.192c0 .112-.108.28-.223.147-.075-.087-.078-.475.008-.555.064-.06.203-.033.284-.033.087 0 .222-.027.28.056.152.219-.247.192-.349.192m1.505 1.52c-.045 0-.093.004-.138-.004-.1-.019-.145-.141-.066-.214.063-.057.34-.058.41-.01.083.06.057.195.057.282 0 .306-.19.59-.525.58-.561-.018-.497-.644-.497-1.035 0-.244.001-.512.234-.657.293-.181.896.028.782.45-.023.084-.126.13-.2.075-.13-.1-.053-.336-.292-.348-.109-.005-.21.076-.246.176-.028.076-.016.168-.016.248 0 .2-.07.568.06.732.115.143.32.115.408-.041.04-.07.03-.158.03-.235m.759-.124c0 .208.021.429-.002.635-.009.081-.081.143-.164.112-.123-.047-.083-.243-.083-.347v-1.05c0-.11-.044-.336.11-.356.223-.03.536-.038.718.107.288.228.218.701-.11.853-.144.067-.315.046-.47.046m1.106-1.002c.204-.056.165.238.165.353 0 .299-.048.645.005.939.02.107.12.2.23.205a.258.258 0 0 0 .258-.205c.053-.294.004-.64.004-.94 0-.112-.033-.432.18-.348.143.057.083.39.083.515 0 .41.135 1.121-.415 1.231a.483.483 0 0 1-.193 0c-.54-.108-.414-.786-.414-1.19 0-.13-.067-.516.097-.56m-1.105.242v.497c.112 0 .27.029.373-.023.172-.086.173-.334.013-.434-.106-.067-.266-.04-.386-.04M8.72 13.58V12.2c-.082 0-.187-.016-.233.07-.04.075-.016.205-.016.289v.662c0 .086-.027.23.024.303.05.072.148.056.225.056m1.27.636c0 .272.14.248.373.248v-.248H9.99m.635 0v.248H11v-.248h-.373m.622 0v.248c.094 0 .302.04.356-.057.03-.052.017-.133.017-.191h-.373m1.146 0c0 .058-.014.138.016.191.055.097.263.057.357.057v-.248h-.373m.621 0v.248h.373v-.248h-.373m.635 0v.248h.373v-.248h-.373m.636 0v.248h.373v-.248h-.373m.621 0v.248c.228 0 .387.027.387-.248z" style="fill:#fbc02d;fill-opacity:1;stroke:none;stroke-width:.0138092"/></svg>