<svg xmlns="http://www.w3.org/2000/svg" width="24" height="24" fill="none"><path fill="url(#a)" fill-rule="evenodd" d="M9.596 1.114c.12 0 .234-.014.344-.046a31.627 31.627 0 0 1 4.307.011c1.301.102 2.561.384 3.78.848 2.025.833 3.412 2.28 4.158 4.339.427 1.24.679 2.514.756 3.824a27.94 27.94 0 0 1-.114 4.923 11.88 11.88 0 0 1-.894 3.32c-.85 1.843-2.229 3.114-4.135 3.813a15.624 15.624 0 0 1-4.765.825 21.423 21.423 0 0 1-5.453-.413c-3.312-.737-5.354-2.756-6.128-6.056a19.047 19.047 0 0 1-.447-4.511 18.491 18.491 0 0 1 .515-4.786c.812-3.086 2.77-4.998 5.877-5.736a13.953 13.953 0 0 1 2.199-.355Z" clip-rule="evenodd"/><path fill="#F9F9F9" d="M19.525 10.542H4.457c-.587 0-1.082-.525-1.082-1.192V6.483c0-.646.476-1.191 1.082-1.191h15.087c.586 0 1.081.525 1.081 1.191v2.888c-.018.646-.495 1.17-1.1 1.17Z"/><path stroke="#ABACAE" stroke-miterlimit="10" stroke-width=".326" d="M4.513 6.333v3.105M5.791 6.88V8.89m1.096-2.01v2.01m1.278-2.557v3.105M9.444 6.88V8.89m1.278-2.01v2.01M12 6.333v3.105m1.278-2.557V8.89m1.278-2.01v2.01m1.279-2.557v3.105m3.652-3.105v3.105M17.113 6.88V8.89m1.096-2.01v2.01"/><path stroke="#DE3E80" stroke-miterlimit="10" stroke-width=".4" d="M10.174 5.603v4.747"/><path fill="#F2F2F2" d="M12 18.042a3 3 0 1 0 0-6 3 3 0 0 0 0 6Z"/><path fill="#000" d="M12.375 12.792a.375.375 0 0 0-.75 0v1.125a.375.375 0 0 0 .75 0v-1.125Z" opacity=".15"/><path fill="#1A1A1A" d="M7.125 12.792h-3.75a.375.375 0 0 0 0 .75h3.75a.375.375 0 0 0 0-.75ZM7.125 16.542h-3.75a.375.375 0 0 0 0 .75h3.75a.375.375 0 0 0 0-.75ZM6.375 14.667h-3a.375.375 0 0 0 0 .75h3a.375.375 0 0 0 0-.75ZM16.875 12.792h3.75a.375.375 0 0 1 0 .75h-3.75a.375.375 0 0 1 0-.75ZM16.875 16.542h3.75a.375.375 0 0 1 0 .75h-3.75a.375.375 0 0 1 0-.75ZM17.625 14.667h3a.375.375 0 0 1 0 .75h-3a.375.375 0 0 1 0-.75Z"/><defs><radialGradient id="a" cx="0" cy="0" r="1" gradientTransform="matrix(0 22 -22 0 12 1)" gradientUnits="userSpaceOnUse"><stop stop-color="#DD3F80"/><stop offset="1" stop-color="#AA0042"/></radialGradient></defs></svg>