<svg xmlns="http://www.w3.org/2000/svg" width="24" height="24" fill="none"><path fill="url(#a)" fill-rule="evenodd" d="M9.596 1.114c.12 0 .234-.014.344-.046a31.627 31.627 0 0 1 4.307.011c1.301.102 2.561.384 3.78.848 2.025.833 3.412 2.28 4.158 4.339.427 1.24.679 2.514.756 3.824a27.94 27.94 0 0 1-.114 4.923 11.88 11.88 0 0 1-.894 3.32c-.85 1.843-2.229 3.114-4.135 3.813a15.624 15.624 0 0 1-4.765.825 21.423 21.423 0 0 1-5.453-.413c-3.312-.737-5.354-2.756-6.128-6.056a19.047 19.047 0 0 1-.447-4.511 18.491 18.491 0 0 1 .515-4.786c.812-3.086 2.77-4.998 5.877-5.736a13.953 13.953 0 0 1 2.199-.355Z" clip-rule="evenodd"/><path fill="#CCC" d="M7.816 3h7.981c1.053 0 1.712.826 1.9 1.816l2.28 11.987c.19.99-.847 1.816-1.9 1.816H5.917c-1.053 0-2.058-.821-1.9-1.816L5.915 4.816C6.074 3.821 6.763 3 7.816 3Z"/><path fill="#333" d="M18.077 15.19H5.916c-1.05 0-1.9.853-1.9 1.905S4.866 19 5.916 19h12.161c1.05 0 1.9-.853 1.9-1.905s-.85-1.904-1.9-1.904Z"/><path fill="#3889E9" d="M14.657 16.714h-6.84a.38.38 0 0 0 0 .762h6.84a.38.38 0 0 0 0-.762Z"/><path fill="url(#b)" d="M5.915 17.857a.761.761 0 1 0-.002-1.522.761.761 0 0 0 .002 1.522Z" opacity=".452"/><path fill="#fff" d="M5.916 16.743a.053.053 0 0 0-.04.017.052.052 0 0 0-.016.04v.283a.056.056 0 0 0 .056.056.053.053 0 0 0 .04-.017.055.055 0 0 0 .016-.039v-.284a.054.054 0 0 0-.017-.039.054.054 0 0 0-.04-.017Zm-.163.083c-.015 0-.029 0-.042.012a.332.332 0 0 0-.108.402.341.341 0 0 0 .073.109.345.345 0 0 0 .37.072.33.33 0 0 0 .18-.181.336.336 0 0 0-.108-.403.054.054 0 0 0-.042-.011c-.015 0-.028.01-.037.022a.054.054 0 0 0-.01.042c.002.015.009.028.021.038a.226.226 0 0 1-.222.388.224.224 0 0 1-.049-.389.057.057 0 0 0 .023-.038.054.054 0 0 0-.012-.041.052.052 0 0 0-.037-.022Z"/><path fill="#000" d="M5.916 15.19c-1.053 0-1.9.85-1.9 1.905 0 .023.002.044.003.067a1.794 1.794 0 0 1 1.798-1.772h12.36a1.793 1.793 0 0 1 1.798 1.771c0-.022.003-.043.003-.066a1.898 1.898 0 0 0-1.9-1.904H5.915Zm8.512-8.656-1.065-.001a.173.173 0 0 0-.108.036.114.114 0 0 0-.045.087l-.002.86c0 .069.068.124.153.124h.148l-.001.656-1.13.611.005-2.505h.394a.129.129 0 0 0 .103-.046.081.081 0 0 0 .004-.095l-.774-1.213a.127.127 0 0 0-.108-.053.127.127 0 0 0-.107.053l-.78 1.21a.082.082 0 0 0 .004.095.13.13 0 0 0 .103.047h.393l-.007 3.471-1.216-.663.002-.52c.188-.101.313-.274.313-.47.001-.31-.31-.563-.696-.564-.385 0-.697.252-.698.562 0 .197.124.37.312.47l-.001.686c0 .103.063.2.17.258l1.812.989-.002 1.07c-.256.11-.432.326-.432.577 0 .364.363.66.813.66.451 0 .817-.294.817-.657 0-.252-.175-.467-.43-.579l.005-2.034 1.728-.936a.408.408 0 0 0 .057-.038.283.283 0 0 0 .114-.22v-.82h.15a.174.174 0 0 0 .107-.037.112.112 0 0 0 .046-.087l.001-.86c0-.069-.067-.124-.152-.124Z" opacity=".15"/><path fill="#F2F2F2" d="M20.709 15.469a3.73 3.73 0 0 0-.274-.537 4.179 4.179 0 0 0-.606-.76A3.854 3.854 0 0 0 17 13c-1.105 0-2.047.39-2.828 1.171A3.854 3.854 0 0 0 13 17c0 1.105.39 2.048 1.172 2.829A3.853 3.853 0 0 0 17 21c1.105 0 2.048-.39 2.829-1.171.43-.43.742-.91.935-1.439.157-.43.236-.894.236-1.39a4.127 4.127 0 0 0-.172-1.2 4.137 4.137 0 0 0-.119-.332Z"/><path fill="#3889E9" d="M15 17.25a2 2 0 0 0 2 2c1.093 0 1.98-.803 1.998-1.892a.304.304 0 0 0 .002-.033c0-.184-.191-.325-.375-.325s-.375.14-.375.325c0 .736-.514 1.175-1.25 1.175s-1.25-.514-1.25-1.25S16.264 16 17 16v.75l1.5-1.125L17 14.5v.75a2 2 0 0 0-2 2Z"/><defs><radialGradient id="a" cx="0" cy="0" r="1" gradientTransform="matrix(0 22 -22 0 12 1)" gradientUnits="userSpaceOnUse"><stop stop-color="#999"/><stop offset="1" stop-color="#4D4D4D"/></radialGradient><linearGradient id="b" x1="5.956" x2="5.956" y1="17.76" y2="16.231" gradientUnits="userSpaceOnUse"><stop stop-color="#040404"/><stop offset="1" stop-color="#121212" stop-opacity=".908"/></linearGradient></defs></svg>