<svg xmlns="http://www.w3.org/2000/svg" width="24" height="24" fill="none"><path fill="url(#a)" fill-rule="evenodd" d="M9.596 1.114c.12 0 .234-.014.344-.046a31.627 31.627 0 0 1 4.307.011c1.301.102 2.561.384 3.78.848 2.025.833 3.412 2.28 4.158 4.339.427 1.24.679 2.514.756 3.824a27.94 27.94 0 0 1-.114 4.923 11.88 11.88 0 0 1-.894 3.32c-.85 1.843-2.229 3.114-4.135 3.813a15.624 15.624 0 0 1-4.765.825 21.423 21.423 0 0 1-5.453-.413c-3.312-.737-5.354-2.756-6.128-6.056a19.047 19.047 0 0 1-.447-4.511 18.491 18.491 0 0 1 .515-4.786c.812-3.086 2.77-4.998 5.877-5.736a13.953 13.953 0 0 1 2.199-.355Z" clip-rule="evenodd"/><path stroke="#E01B24" stroke-linecap="round" stroke-width=".695" d="M3 12.274c2.327.79-.972 3.077 2.42 3.294 1.994.127 1.978 2.878 1.978 2.878"/><path fill="#EA3A38" d="m10.673 17.786-2.46-2.459L18.542 5 21 7.459 10.673 17.786Z"/><path fill="#3D3846" d="m19.033 9.426-2.459-2.459.492-.492 2.459 2.46-.492.491Zm-6.885 6.885L9.69 13.85l.492-.49 2.459 2.458-.492.492Z"/><path fill="#EA3C39" d="M10.427 17.54 8.46 15.573l-1.23 2.705.492.492 2.705-1.23Z"/><path fill="#000" fill-opacity=".259" d="m10.919 17.54-2.46-2.458-.245.245 2.459 2.46.246-.246Z"/><path fill="#3D3846" d="M12.148 11.393c.163.163.45.19.795.075.346-.116.723-.363 1.05-.69.325-.326.573-.703.689-1.049.115-.346.088-.632-.075-.795l-2.459 2.46Z"/><defs><radialGradient id="a" cx="0" cy="0" r="1" gradientTransform="matrix(0 22 -22 0 12 1)" gradientUnits="userSpaceOnUse"><stop stop-color="#F2F2F2"/><stop offset="1" stop-color="#B3B3B3"/></radialGradient></defs></svg>