<svg xmlns="http://www.w3.org/2000/svg" width="24" height="24" fill="none"><defs><radialGradient id="a" cx="0" cy="0" r="1" gradientTransform="matrix(0 22 -22 0 12 1)" gradientUnits="userSpaceOnUse"><stop offset="0" stop-color="#8FC8FF" style="stop-color:#f6f6f6;stop-opacity:1"/><stop offset="1" stop-color="#0056A8" style="stop-color:#cfcfcf;stop-opacity:1"/></radialGradient></defs><path d="M50 5C9.09 5 5 25.455 5 50c0 32.727 12.273 45 45 45 32.727 0 45-12.273 45-45 0-24.545-4.09-45-45-45Z" style="font-variation-settings:normal;display:inline;opacity:1;vector-effect:none;fill:#7c8ea3;fill-opacity:1;stroke-width:4.56656;stroke-linecap:butt;stroke-linejoin:miter;stroke-miterlimit:4;stroke-dasharray:none;stroke-dashoffset:0;stroke-opacity:1;-inkscape-stroke:none;stop-color:#000;stop-opacity:1" transform="matrix(.24444 0 0 .24444 -.222 -.222)"/><path fill="#f9f9f9" d="M34.22 11.582v8.217l-6.042 6.042-1.173-1.174a.585.585 0 0 0-.83 0c-.23.23-.23.6 0 .83l1.174 1.174-1.69 1.69-2.105-2.105.93-.931a1.174 1.174 0 1 0-1.66-1.66l-3.52 3.522a1.174 1.174 0 1 0 1.66 1.66l.93-.931 2.105 2.105-1.69 1.69-1.174-1.174a.585.585 0 0 0-.83 0c-.23.229-.23.6 0 .83l1.174 1.173-4.868 4.868H13.09l4.695 4.696v-3.522l1.197-1.197c.117.87.491 1.71 1.151 2.37 1.605 1.605 4.265 1.605 5.87 0l1.346-1.345 1.174 1.174a.587.587 0 1 0 .83-.83l-1.174-1.174 1.69-1.69 2.347 2.348a1.174 1.174 0 1 0 1.66-1.66l-2.348-2.348 1.69-1.69 1.174 1.174a.587.587 0 1 0 .83-.83l-1.174-1.174 1.346-1.345c1.605-1.605 1.605-4.266 0-5.87a4.097 4.097 0 0 0-2.37-1.151l2.37-2.37h8.218zm-1.76 14.087a1.76 1.76 0 0 1 1.245 3.006l-1.347 1.346-2.49-2.49 1.346-1.346a1.755 1.755 0 0 1 1.245-.516zm-3.422 2.692 2.49 2.49-1.69 1.69-2.49-2.49zm-3.35 3.35 2.49 2.49-1.69 1.69-2.49-2.49zm-2.52 2.52 2.49 2.49-1.345 1.345a1.76 1.76 0 1 1-2.49-2.49z" style="paint-order:normal" transform="matrix(.44389 0 0 .44389 -.516 -.141)"/></svg>