<svg xmlns="http://www.w3.org/2000/svg" width="24" height="24" fill="none"><path fill="url(#a)" fill-rule="evenodd" d="M9.596 1.114c.12 0 .234-.014.344-.046a31.627 31.627 0 0 1 4.307.011c1.301.102 2.561.384 3.78.848 2.025.833 3.412 2.28 4.158 4.339.427 1.24.679 2.514.756 3.824a27.94 27.94 0 0 1-.114 4.923 11.88 11.88 0 0 1-.894 3.32c-.85 1.843-2.229 3.114-4.135 3.813a15.624 15.624 0 0 1-4.765.825 21.423 21.423 0 0 1-5.453-.413c-3.312-.737-5.354-2.756-6.128-6.056a19.047 19.047 0 0 1-.447-4.511 18.491 18.491 0 0 1 .515-4.786c.812-3.086 2.77-4.998 5.877-5.736a13.953 13.953 0 0 1 2.199-.355Z" clip-rule="evenodd"/><path fill="#274C61" d="M5.7 7.883c0-.546-.003-1.08 0-1.614a2.446 2.446 0 0 1 .549-1.552c.512-.64 1.182-1.018 1.986-1.163.76-.136 1.481-.012 2.164.333.597.3 1.073.736 1.374 1.344.16.322.24.663.24 1.024v1.621c.125.01.246.007.362.03.685.129 1.07.535 1.18 1.218.003.015.002.032.002.047v1.878l-.002.034c-2.044.975-3.12 2.578-3.22 4.85h-.09c-1.646 0-3.292.014-4.939-.005-.673-.008-1.179-.383-1.288-1.113a1.416 1.416 0 0 1-.016-.207c-.001-1.783-.005-3.566.002-5.35.002-.684.386-1.185 1.054-1.331.178-.039.365-.03.547-.043.028.001.056 0 .094-.001Zm5.117 0c-.015-.498-.01-.985-.05-1.468a1.978 1.978 0 0 0-.663-1.33c-.588-.536-1.42-.668-2.093-.31-.738.394-1.078 1.049-1.124 1.862-.022.384-.004.77-.004 1.154v.091h3.934Zm-1.343 5.57V11.71c0-.058.013-.1.06-.137.237-.186.364-.431.404-.729.096-.721-.599-1.352-1.304-1.173-.435.11-.717.392-.809.83-.092.437.05.807.405 1.085a.149.149 0 0 1 .065.134c-.002.54-.001 1.08-.001 1.62v.111l1.18.001Z"/><path fill="#fff" d="M15.544 11.435c2.483.022 4.457 1.992 4.456 4.464a4.44 4.44 0 0 1-4.468 4.457 4.44 4.44 0 0 1-4.45-4.465c.005-2.483 1.992-4.44 4.463-4.456Zm-1.249 7.27c.41 0 .8-.002 1.191.001.073.001.103-.024.13-.09.583-1.44 1.169-2.881 1.753-4.32l.236-.586c-.023-.005-.034-.01-.046-.01-.369 0-.737.003-1.106-.002-.069 0-.076.042-.092.086l-.542 1.544-.253.714-.049-.125c-.263-.71-.527-1.421-.788-2.133-.023-.064-.053-.086-.12-.085-.354.004-.707.002-1.06.002-.026 0-.053.003-.09.005l.035.097.246.63c.362.924.722 1.849 1.087 2.773.034.087.042.162-.001.251-.08.162-.144.333-.214.498l-.317.75Z"/><defs><radialGradient id="a" cx="0" cy="0" r="1" gradientTransform="matrix(0 22 -22 0 12 1)" gradientUnits="userSpaceOnUse"><stop stop-color="#93D32C"/><stop offset="1" stop-color="#67A700"/></radialGradient></defs></svg>