<svg xmlns="http://www.w3.org/2000/svg" width="24" height="24" fill="none"><path fill="url(#a)" stroke="url(#b)" d="M22.442 10.12v.002a27.43 27.43 0 0 1-.112 4.834 11.376 11.376 0 0 1-.854 3.174c-.794 1.716-2.068 2.891-3.844 3.545-1.494.504-3.03.769-4.608.796h-.017a20.92 20.92 0 0 1-5.322-.401c-1.58-.353-2.827-1.003-3.77-1.935-.942-.931-1.606-2.17-1.976-3.744A18.546 18.546 0 0 1 1.505 12V11.98a17.991 17.991 0 0 1 .5-4.653c.387-1.468 1.039-2.63 1.942-3.513.905-.883 2.085-1.507 3.565-1.859h.003a13.453 13.453 0 0 1 2.1-.341c.138 0 .274-.017.407-.05a31.126 31.126 0 0 1 4.188.014c1.251.098 2.462.369 3.633.813 1.89.78 3.173 2.12 3.87 4.042a13.76 13.76 0 0 1 .729 3.686Z"/><path fill="#fff" d="m9.743 8.71-2.345 4.08h1.35l2.33-4.06h1.858l2.344 4.06h1.344l-2.353-4.08H9.743Z" opacity=".35"/><path fill="#fff" d="M9.6 3c-.443 0-.8.364-.8.816v4.079c0 .452.357.816.8.816h4.8c.443 0 .8-.364.8-.816v-4.08A.806.806 0 0 0 14.4 3H9.6Zm0 .816h4.8v4.079H9.6v-4.08Z"/><path fill="#fff" d="M14.4 3.816H9.6v4.079h4.8v-4.08Z" opacity=".5"/><path fill="#fff" d="M4.8 12.79c-.443 0-.8.363-.8.815v4.08c0 .451.357.815.8.815h4.8c.443 0 .8-.364.8-.816v-4.079a.806.806 0 0 0-.8-.816H4.8Zm0 .815h4.8v4.08H4.8v-4.08Zm9.6-.816c-.443 0-.8.364-.8.816v4.08c0 .451.357.815.8.815h4.8c.443 0 .8-.364.8-.816v-4.079a.806.806 0 0 0-.8-.816h-4.8Zm0 .816h4.8v4.08h-4.8v-4.08Z"/><path fill="#fff" d="M9.6 13.605H4.8v4.08h4.8v-4.08ZM19.2 13.605h-4.8v4.08h4.8v-4.08Z" opacity=".5"/><defs><radialGradient id="a" cx="0" cy="0" r="1" gradientTransform="matrix(0 22 -22 0 12 1)" gradientUnits="userSpaceOnUse"><stop stop-color="#F8C98E"/><stop offset="1" stop-color="#F1931E"/></radialGradient><linearGradient id="b" x1="12" x2="12" y1="1" y2="23" gradientUnits="userSpaceOnUse"><stop stop-color="#F1931E"/><stop offset="1" stop-color="#F08705"/></linearGradient></defs></svg>