<svg xmlns="http://www.w3.org/2000/svg" width="24" height="24" fill="none"><defs><radialGradient id="a" cx="0" cy="0" r="1" gradientTransform="matrix(0 22 -22 0 12 1)" gradientUnits="userSpaceOnUse"><stop offset="0" stop-color="#8FC8FF" style="stop-color:#f6f6f6;stop-opacity:1"/><stop offset="1" stop-color="#0056A8" style="stop-color:#cfcfcf;stop-opacity:1"/></radialGradient><linearGradient id="b" x2="0" y1="1" y2="47" gradientTransform="translate(3.826 3.826) scale(1.1739)" gradientUnits="userSpaceOnUse"><stop offset="0" stop-color="#9584f4"/><stop offset="1" stop-color="#8471f2"/></linearGradient><filter id="c" width="1.21" height="1.222" x="-.105" y="-.111" color-interpolation-filters="sRGB"><feGaussianBlur stdDeviation=".392"/></filter></defs><path d="M50 5C9.09 5 5 25.455 5 50c0 32.727 12.273 45 45 45 32.727 0 45-12.273 45-45 0-24.545-4.09-45-45-45Z" style="font-variation-settings:normal;display:inline;opacity:1;vector-effect:none;fill:#263541;fill-opacity:1;stroke-width:4.56656;stroke-linecap:butt;stroke-linejoin:miter;stroke-miterlimit:4;stroke-dasharray:none;stroke-dashoffset:0;stroke-opacity:1;-inkscape-stroke:none;stop-color:#000;stop-opacity:1" transform="matrix(.24444 0 0 .24444 -.222 -.222)"/><g stroke-width=".311" font-family="'URW Bookman'" font-size="12.432" font-style="italic" font-weight="300" word-spacing="0"><text xml:space="preserve" x="3.717" y="13.054" filter="url(#b)" opacity=".15" style="line-height:1.25;filter:url(#c)" transform="matrix(1.28943 0 0 1.28943 1.084 .982)"><tspan x="3.717" y="13.054">F</tspan></text><text xml:space="preserve" x="3.717" y="12.7" fill="#fff" style="line-height:1.25" transform="matrix(1.28943 0 0 1.28943 1.084 .982)"><tspan x="3.717" y="12.7">F</tspan></text></g></svg>