<svg xmlns="http://www.w3.org/2000/svg" width="24" height="24" fill="none"><defs><radialGradient id="a" cx="0" cy="0" r="1" gradientTransform="matrix(0 22 -22 0 12 1)" gradientUnits="userSpaceOnUse"><stop offset="0" stop-color="#8FC8FF" style="stop-color:#f6f6f6;stop-opacity:1"/><stop offset="1" stop-color="#0056A8" style="stop-color:#cfcfcf;stop-opacity:1"/></radialGradient></defs><path d="M50 5C9.09 5 5 25.455 5 50c0 32.727 12.273 45 45 45 32.727 0 45-12.273 45-45 0-24.545-4.09-45-45-45Z" style="font-variation-settings:normal;display:inline;opacity:1;vector-effect:none;fill:#1da0f6;fill-opacity:1;stroke-width:4.56656;stroke-linecap:butt;stroke-linejoin:miter;stroke-miterlimit:4;stroke-dasharray:none;stroke-dashoffset:0;stroke-opacity:1;-inkscape-stroke:none;stop-color:#000;stop-opacity:1" transform="matrix(.24444 0 0 .24444 -.222 -.222)"/><path fill="#fff" fill-rule="evenodd" stroke-width=".741" d="M410.087 503.8c4.923 4.25 6.154 8.557 6.154 15.325l2.018-5.23a13.772 13.772 0 0 1 4 7.96c.157 2.384-.233 4.496-.848 6.342 2.51-1.599 5.681-3.425 7.038-6.342-.906-9.65-8.663-17.317-18.362-18.055zm-3.459.114c-9.652.905-17.317 8.664-18.055 18.363 4.25-4.924 8.556-6.154 15.325-6.154l-5.23-2.018a13.77 13.77 0 0 1 7.96-4c2.385-.157 4.497.233 6.342.848-1.599-2.51-3.425-5.681-6.342-7.04zm-10.902 15.48c-2.51 1.598-5.681 3.425-7.04 6.343.906 9.65 8.664 17.317 18.362 18.055-4.921-4.25-6.152-8.557-6.152-15.325l-2.019 5.23a13.77 13.77 0 0 1-3.999-7.961c-.157-2.385.233-4.497.848-6.343zm32.838 5.921c-4.25 4.922-8.556 6.152-15.325 6.152l5.23 2.02a13.772 13.772 0 0 1-7.96 3.999c-2.386.157-4.497-.232-6.342-.849 1.597 2.512 3.425 5.682 6.342 7.04 9.65-.906 17.317-8.663 18.055-18.362z" style="stroke-width:.952498" transform="matrix(.4 0 0 .4 -151.428 -197.52)"/></svg>