<svg xmlns="http://www.w3.org/2000/svg" width="24" height="24" fill="none"><defs><radialGradient id="a" cx="0" cy="0" r="1" gradientTransform="matrix(0 22 -22 0 12 1)" gradientUnits="userSpaceOnUse"><stop offset="0" stop-color="#8FC8FF" style="stop-color:#f6f6f6;stop-opacity:1"/><stop offset="1" stop-color="#0056A8" style="stop-color:#cfcfcf;stop-opacity:1"/></radialGradient></defs><path d="M50 5C9.09 5 5 25.455 5 50c0 32.727 12.273 45 45 45 32.727 0 45-12.273 45-45 0-24.545-4.09-45-45-45Z" style="font-variation-settings:normal;display:inline;opacity:1;vector-effect:none;fill:#6373bf;fill-opacity:1;stroke-width:4.56656;stroke-linecap:butt;stroke-linejoin:miter;stroke-miterlimit:4;stroke-dasharray:none;stroke-dashoffset:0;stroke-opacity:1;-inkscape-stroke:none;stop-color:#000;stop-opacity:1" transform="matrix(.24444 0 0 .24444 -.222 -.222)"/><path fill="#6373bf" d="M3.88 8.4A7.939 7.939 0 0 0 3 12c0 4.64 4.03 8.4 9 8.4s9-3.76 9-8.4a7.94 7.94 0 0 0-.879-3.6L12 7.8Z"/><path fill="#ee4b5f" d="M12 3.6a9 8.4 0 0 0-8.12 4.8h16.24A9 8.4 0 0 0 12 3.6Z"/><path fill="#952f5b" d="M12.368 3.665v.002c-.824 0-1.537.281-1.895.696a3.471 3.471 0 0 0-1.077-.158c-1.01 0-1.859.396-2.176.954-.054-.056-.126-.1-.192-.148a9 8.4 0 0 0-.355.238c.279.104.517.253.693.437.317-.56 1.17-.955 2.178-.955.39 0 .753.054 1.076.159.356-.414 1.071-.698 1.895-.698.968 0 1.783.396 2.042.93.285-.016.598-.006.844.06.39.107.726.465.906.894.124.299.149.6.089.868a1.726 1.305 0 0 1 .205.133l.048-.035c.205-.33.236-.782.048-1.224a1.626 1.626 0 0 0-.367-.55 2.327 2.327 0 0 1 .623-.147c.088.002.173.022.26.04a9 8.4 0 0 0-.814-.478c-.18.047-.354.105-.508.193-.314-.18-.783-.293-1.31-.293-.055 0-.113.01-.17.011-.261-.536-1.077-.929-2.043-.929zm.363 1.899c-.583.003-1.097.23-1.34.646a.771.771 0 0 0-.087.183v.013l-.147.525c.024-.063.05-.122.086-.182.391-.667 1.482-.86 2.434-.417a2.237 2.237 0 0 1 .763.567 1.726 1.305 0 0 1 .325-.124c-.252-.4-.596-.787-.953-.969a2.546 2.546 0 0 0-1.081-.242zm-4.84.23a2.41 2.41 0 0 0-.855.16 2.174 2.174 0 0 0-.673.403 2.174 2.174 0 0 0-1.054.053 9 8.4 0 0 0-.706.838C5.093 6.795 6 6.71 6.814 7.09c.22.102.408.228.57.369a1.316 1.136 0 0 1 .336-.327 2.291 2.291 0 0 0-.759-.568c.124-.078.267-.15.416-.208.569-.214 1.173-.196 1.615 0v-.012l-.343-.39a1.92 1.92 0 0 0-.756-.16Zm10.679.479.032.072c.233.56.2 1.135-.06 1.553l.5-.305c.103-.165.167-.36.198-.564a9 8.4 0 0 0-.67-.757z"/><path fill="#fff" d="M25.48 20.261c-4.322 0-7.826 3.796-7.826 8.478s3.504 8.479 7.826 8.479h13.043c4.322 0 7.826-3.796 7.826-8.479s-3.504-8.478-7.826-8.478c-2.625.003-5.074 1.431-6.522 3.804-1.447-2.373-3.896-3.801-6.521-3.804z" style="paint-order:normal" transform="matrix(.46 0 0 .46 -2.72 -2.72)"/><path fill="#ffd10a" d="M12 12.6c-1.18.001-2.4.6-2.4 1.8 0 1.2 1.936 4.2 2.4 4.2.465 0 2.4-3 2.4-4.2 0-1.2-1.22-1.802-2.4-1.8z"/><path fill="#034c77" d="M28.088 26.783a2.609 2.609 0 0 0-2.609 2.609A2.609 2.609 0 0 0 28.088 32a2.609 2.609 0 0 0 2.609-2.608 2.609 2.609 0 0 0-2.609-2.609zm7.826 0a2.609 2.609 0 0 0-2.609 2.609A2.609 2.609 0 0 0 35.915 32a2.609 2.609 0 0 0 2.608-2.608 2.609 2.609 0 0 0-2.609-2.609zm-8.478 1.304a.652.652 0 0 1 .652.652.652.652 0 0 1-.652.653.652.652 0 0 1-.652-.653.652.652 0 0 1 .652-.652zm7.826 0a.652.652 0 0 1 .652.652.652.652 0 0 1-.652.653.652.652 0 0 1-.652-.653.652.652 0 0 1 .652-.652z" style="paint-order:normal" transform="matrix(.46 0 0 .46 -2.72 -2.72)"/></svg>