<svg xmlns="http://www.w3.org/2000/svg" xmlns:xlink="http://www.w3.org/1999/xlink" xml:space="preserve" id="svg154" width="24" height="24" fill="none" version="1.1"><defs id="defs152"><linearGradient id="linearGradient592"><stop id="stop588" offset="0" style="stop-color:#797979;stop-opacity:1"/><stop id="stop590" offset="1" style="stop-color:#505050;stop-opacity:1"/></linearGradient><linearGradient xlink:href="#linearGradient592" id="linearGradient594" x1="51.918" x2="54.091" y1="95.511" y2="-1.392" gradientTransform="matrix(.24444 0 0 .24444 -.222 -.222)" gradientUnits="userSpaceOnUse"/><style id="current-color-scheme" type="text/css">.ColorScheme-Text{color:#31363b}.ColorScheme-Background{color:#eff0f1}.ColorScheme-Highlight{color:#3daee9}.ColorScheme-ViewText{color:#31363b}.ColorScheme-ViewBackground{color:#fcfcfc}.ColorScheme-ViewHover{color:#93cee9}.ColorScheme-ViewFocus{color:#3daee9}.ColorScheme-ButtonText{color:#31363b}.ColorScheme-ButtonBackground{color:#eff0f1}.ColorScheme-ButtonHover{color:#93cee9}.ColorScheme-ButtonFocus{color:#3daee9}</style></defs><path id="path6" d="M12 1C2 1 1 6 1 12c0 8 3 11 11 11s11-3 11-11c0-6-1-11-11-11Z" style="font-variation-settings:normal;display:inline;opacity:1;vector-effect:none;fill:url(#linearGradient594);fill-opacity:1;stroke-width:1.11627;stroke-linecap:butt;stroke-linejoin:miter;stroke-miterlimit:4;stroke-dasharray:none;stroke-dashoffset:0;stroke-opacity:1;-inkscape-stroke:none;stop-color:#000;stop-opacity:1"/><g id="g961" style="clip-rule:evenodd;fill-rule:evenodd;stroke-linejoin:round;stroke-miterlimit:1.41421" transform="matrix(.11042 0 0 .11042 4.712 8.135)"><g id="g1074" transform="translate(7)"><path id="path1072" d="M13 99V-29h4V99Z" style="fill:#8e8e8e;fill-opacity:1;fill-rule:evenodd;stroke-width:2"/><path id="path1231" d="M21 99V-29h4V99Z" style="fill:#8e8e8e;fill-opacity:1;fill-rule:evenodd;stroke-width:2"/><path id="path1233" d="M29 99V-29h4V99Z" style="fill:#8e8e8e;fill-opacity:1;fill-rule:evenodd;stroke-width:2"/><path id="path1235" d="M37 99V-29h4V99Z" style="fill:#8e8e8e;fill-opacity:1;fill-rule:evenodd;stroke-width:2"/><path id="path1237" d="M45 99V-29h4V99Z" style="fill:#8e8e8e;fill-opacity:1;fill-rule:evenodd;stroke-width:2"/><path id="path1239" d="M53 99V-29h4V99Z" style="fill:#8e8e8e;fill-opacity:1;fill-rule:evenodd;stroke-width:2"/><path id="path1241" d="M61 99V-29h4V99Z" style="fill:#8e8e8e;fill-opacity:1;fill-rule:evenodd;stroke-width:2"/><path id="path1243" d="M69 99V-29h4V99Z" style="fill:#8e8e8e;fill-opacity:1;fill-rule:evenodd;stroke-width:2"/><path id="path1245" d="M77 99V-29h4V99Z" style="fill:#8e8e8e;fill-opacity:1;fill-rule:evenodd;stroke-width:2"/><path id="path1247" d="M85 99V-29h4V99Z" style="fill:#8e8e8e;fill-opacity:1;fill-rule:evenodd;stroke-width:2"/><path id="path1249" d="M93 99V-29h4V99Z" style="fill:#8e8e8e;fill-opacity:1;fill-rule:evenodd;stroke-width:2"/><path id="path1251" d="M101 99V-29h4V99Z" style="fill:#8e8e8e;fill-opacity:1;fill-rule:evenodd;stroke-width:2"/><path id="path1253" d="M-5-11h128v4H-5Z" style="fill:#8e8e8e;fill-opacity:1;fill-rule:evenodd;stroke-width:2"/><path id="path1255" d="M-5-3h128v4H-5Z" style="fill:#8e8e8e;fill-opacity:1;fill-rule:evenodd;stroke-width:2"/><path id="path1257" d="M-5 5h128v4H-5Z" style="fill:#8e8e8e;fill-opacity:1;fill-rule:evenodd;stroke-width:2"/><path id="path1259" d="M-5 13h128v4H-5Z" style="fill:#8e8e8e;fill-opacity:1;fill-rule:evenodd;stroke-width:2"/><path id="path1261" d="M-5 21h128v4H-5Z" style="fill:#8e8e8e;fill-opacity:1;fill-rule:evenodd;stroke-width:2"/><path id="path1263" d="M-5 29h128v4H-5Z" style="fill:#8e8e8e;fill-opacity:1;fill-rule:evenodd;stroke-width:2"/><path id="path1265" d="M-5 37h128v4H-5Z" style="fill:#8e8e8e;fill-opacity:1;fill-rule:evenodd;stroke-width:2"/><path id="path1267" d="M-5 45h128v4H-5Z" style="fill:#8e8e8e;fill-opacity:1;fill-rule:evenodd;stroke-width:2"/><path id="path1269" d="M-5 53h128v4H-5Z" style="fill:#8e8e8e;fill-opacity:1;fill-rule:evenodd;stroke-width:2"/><path id="path1271" d="M-5 61h128v4H-5Z" style="fill:#8e8e8e;fill-opacity:1;fill-rule:evenodd;stroke-width:2"/><path id="path1273" d="M-5 69h128v4H-5Z" style="fill:#8e8e8e;fill-opacity:1;fill-rule:evenodd;stroke-width:2"/><path id="path1275" d="M-5 77h128v4H-5Z" style="fill:#8e8e8e;fill-opacity:1;fill-rule:evenodd;stroke-width:2"/></g><g id="g947" transform="matrix(3.9905 0 0 3.97746 2.285 -28.955)"><rect id="rect941" width="28.067" height="28.144" x="1.933" y="3.02" rx="1.504" ry="1.508" style="opacity:.2;stroke-width:1.00377"/><rect id="rect943" width="28.067" height="28.159" x="1.933" y="2" rx="1.504" ry="1.508" style="fill:#363636;fill-opacity:1;stroke-width:1.00402"/><path id="path945" d="M3.43 2.006c-.83 0-1.495.671-1.496 1.502l-.002 1.006c0-.83.666-1.502 1.497-1.503l25.07-.005c.83 0 1.5.669 1.5 1.5L30 3.5A1.496 1.496 0 0 0 28.5 2Z" style="opacity:.1;fill:#fff"/></g><g id="g955" transform="translate(12.601 -36.657) scale(4.14064)"><path id="path949" d="m7.1 7.887-.005 7.295h1.213V7.887Z" style="opacity:1;fill:#fff;fill-opacity:1;stroke-width:.787293"/><path id="path951" d="M7.095 15.182 7.1 26h1.208c0-3.155-.002-7.662 0-10.818z" style="fill:#ff4500;fill-opacity:1;stroke-width:.603523"/><path id="path953" d="M4.232 12.959h6.732v2.656H4.232Z" style="fill:#ff4500;fill-opacity:1;fill-rule:evenodd;stroke-width:1.33609"/></g><path id="path959" d="m101 5-.045-9H75v33h26V17h-5v7H84v-7l-4-4V1h13v4" style="clip-rule:evenodd;fill:#ff9a0a;fill-opacity:1;fill-rule:evenodd;stroke-width:4.22976;stroke-linejoin:round;stroke-miterlimit:1.41421"/><path id="path851" d="m101 47-.045-9H75v33h26V59h-5v7H84v-7l-4-4V43h13v4" style="clip-rule:evenodd;fill:#ff4500;fill-opacity:1;fill-rule:evenodd;stroke-width:4.22976;stroke-linejoin:round;stroke-miterlimit:1.41421"/></g></svg>