<svg xmlns="http://www.w3.org/2000/svg" width="24" height="24" fill="none"><defs><radialGradient id="a" cx="0" cy="0" r="1" gradientTransform="matrix(0 22 -22 0 12 1)" gradientUnits="userSpaceOnUse"><stop offset="0" stop-color="#8FC8FF" style="stop-color:#f6f6f6;stop-opacity:1"/><stop offset="1" stop-color="#0056A8" style="stop-color:#cfcfcf;stop-opacity:1"/></radialGradient></defs><path d="M50 5C9.09 5 5 25.455 5 50c0 32.727 12.273 45 45 45 32.727 0 45-12.273 45-45 0-24.545-4.09-45-45-45Z" style="font-variation-settings:normal;display:inline;opacity:1;vector-effect:none;fill:#f2f2f2;fill-opacity:1;stroke-width:4.56656;stroke-linecap:butt;stroke-linejoin:miter;stroke-miterlimit:4;stroke-dasharray:none;stroke-dashoffset:0;stroke-opacity:1;-inkscape-stroke:none;stop-color:#000;stop-opacity:1" transform="matrix(.24444 0 0 .24444 -.222 -.222)"/><path fill="#ffd300" d="M12.7 4c8.773 10.667 6.348 14.867-7.276 12.601 9.147-.32 11.572-4.52 7.275-12.601"/><path fill="#008add" d="M12.094 6.8c-6.476.108-7.647 3.274-3.547 9.489a15.844 15.844 0 0 0 1.102-.228c-1.565-5.509 1.408-8.406 8.928-8.662-2.556-.424-4.718-.62-6.487-.591M9.074 17.076c.64.913 1.375 1.89 2.226 2.925-.536-1.01-.975-1.96-1.302-2.85-.3-.017-.608-.047-.924-.075"/></svg>