<svg xmlns="http://www.w3.org/2000/svg" width="24" height="24" fill="none"><defs><radialGradient id="a" cx="0" cy="0" r="1" gradientTransform="matrix(0 22 -22 0 12 1)" gradientUnits="userSpaceOnUse"><stop offset="0" stop-color="#8FC8FF" style="stop-color:#f6f6f6;stop-opacity:1"/><stop offset="1" stop-color="#0056A8" style="stop-color:#cfcfcf;stop-opacity:1"/></radialGradient></defs><path d="M50 5C9.09 5 5 25.455 5 50c0 32.727 12.273 45 45 45 32.727 0 45-12.273 45-45 0-24.545-4.09-45-45-45Z" style="font-variation-settings:normal;display:inline;opacity:1;vector-effect:none;fill:#f2f2f2;fill-opacity:1;stroke-width:4.56656;stroke-linecap:butt;stroke-linejoin:miter;stroke-miterlimit:4;stroke-dasharray:none;stroke-dashoffset:0;stroke-opacity:1;-inkscape-stroke:none;stop-color:#000;stop-opacity:1" transform="matrix(.24444 0 0 .24444 -.222 -.222)"/><g stroke-width=".8"><path fill="#e9e9f8" d="M9.953 9.527h2.828v4.524H9.95Z"/><path fill="#351135" d="M7.691 7.266v1.131h1.132V7.266Zm0 1.131h-1.13v1.13h1.13Zm-1.13 1.13H5.43v4.524h1.132zm0 4.524v1.13h1.13v-1.13Zm1.13 1.13v1.132h1.132V15.18zm0 1.132h-1.13v1.13h1.13Zm-1.13 1.13H5.43v1.131h1.132zm7.351-10.177v1.131h1.129V7.266Zm1.129 1.131v1.13h1.131v-1.13Zm1.131 1.13v3.392h-5.089v1.132h6.787v-1.132h-.568V9.527Zm1.696 4.524v2.262H19V14.05Zm0 2.262h-6.785v1.13h2.262v1.131h2.261v-1.131h2.262zm-6.785 0V14.05h-1.13v2.262z"/><path fill="#684fc9" d="M8.823 5.004v1.132H7.69v1.13h1.132v1.131h5.088V6.136h-1.13V5.004Z"/><path fill="#e9e9f8" d="M9.387 6.136h3.394v1.13H9.387Z"/><path fill="#996000" d="M7.691 8.397v1.13h1.132v-1.13Zm0 1.13h-1.13v4.524h1.13v1.13h1.132v1.132H7.69v1.13h2.828v1.131h2.826v-1.131h-2.262v-1.13h-1.13v-2.83h-1.13v-1.128H7.69Zm3.392 6.786h6.787V15.18h-5.091v-1.13H11.08v1.13zm-3.392 1.13h-1.13v1.131h1.13Zm6.22-9.046v1.13h1.13v-1.13Z"/><path fill="#f8c123" d="M8.823 8.397v1.13H7.69v2.828h1.132v1.13h1.13V9.527h2.828v3.392h1.13V8.397h-1.13ZM7.69 17.443v1.131h2.828v-1.131z"/><path fill="#f88107" d="M12.78 14.05h5.088v1.13h-5.087Z"/><path fill="#684fc9" d="M11.649 10.093h1.132v2.262h-1.132Z"/><path fill="#e9e9f8" d="M13.91 9.527h2.262v3.392h-2.261Z"/><path fill="#684fc9" d="M13.91 10.093h1.13v2.262h-1.128z"/></g></svg>