<svg xmlns="http://www.w3.org/2000/svg" xmlns:xlink="http://www.w3.org/1999/xlink" width="24" height="24" fill="none"><defs><radialGradient id="a" cx="0" cy="0" r="1" gradientTransform="matrix(0 22 -22 0 12 1)" gradientUnits="userSpaceOnUse"><stop offset=".004" stop-color="#8FC8FF" style="stop-color:#f2f2f2;stop-opacity:1"/><stop offset=".996" stop-color="#0056A8" style="stop-color:#f2f2f2;stop-opacity:1"/></radialGradient><radialGradient id="b" cx="0" cy="0" r="1" gradientTransform="matrix(0 22 -22 0 12 1)" gradientUnits="userSpaceOnUse"><stop offset="0" stop-color="#8FC8FF" style="stop-color:#f6f6f6;stop-opacity:1"/><stop offset="1" stop-color="#0056A8" style="stop-color:#cfcfcf;stop-opacity:1"/></radialGradient><radialGradient xlink:href="#a" id="c" cx=".179" cy="-1.748" r="1" fx=".179" fy="-1.748" gradientTransform="matrix(0 90.05947 -90.00681 0 -107.37 -11.19)" gradientUnits="userSpaceOnUse"/></defs><path d="M50 5C9.09 5 5 25.455 5 50c0 32.727 12.273 45 45 45 32.727 0 45-12.273 45-45 0-24.545-4.09-45-45-45Z" style="font-variation-settings:normal;display:inline;opacity:1;vector-effect:none;fill:url(#c);fill-opacity:1;stroke-width:4.56656;stroke-linecap:butt;stroke-linejoin:miter;stroke-miterlimit:4;stroke-dasharray:none;stroke-dashoffset:0;stroke-opacity:1;-inkscape-stroke:none;stop-color:#000;stop-opacity:1" transform="matrix(.24444 0 0 .24444 -.222 -.222)"/><g style="display:inline"><rect width="2" height="2" x="12" y="-3" rx="0" ry="0" style="display:inline;fill:#3947be;fill-opacity:1;stroke-width:22.6872;paint-order:markers stroke fill"/><rect width="2" height="2" x="9" y="-3" rx="0" ry="0" style="display:inline;fill:#6c7ad8;fill-opacity:1;stroke-width:22.6873;paint-order:markers stroke fill"/><rect width="2" height="2" x="6" y="-3" rx="0" ry="0" style="display:inline;fill:#3c3;fill-opacity:1;stroke-width:22.6873;paint-order:markers stroke fill"/><rect width="2" height="2" x="3" y="-3" rx="0" ry="0" style="display:inline;fill:#ffc328;fill-opacity:1;stroke-width:22.6872;paint-order:markers stroke fill"/><rect width="2" height="2" y="-3" rx="0" ry="0" style="display:inline;fill:#cc5e55;fill-opacity:1;stroke-width:22.6873;paint-order:markers stroke fill"/><rect width="2" height="2" x="-3" y="12" rx="0" ry="0" style="display:inline;fill:#0bb1cb;fill-opacity:1;stroke-width:22.6872;paint-order:markers stroke fill"/><rect width="2" height="2" x="-3" y="9" rx="0" ry="0" style="display:inline;fill:#2a92c9;fill-opacity:1;stroke-width:22.6873;paint-order:markers stroke fill"/><rect width="2" height="2" x="-3" y="6" rx="0" ry="0" style="display:inline;fill:#069;fill-opacity:1;stroke-width:22.6873;paint-order:markers stroke fill"/><rect width="2" height="2" x="-3" y="3" rx="0" ry="0" style="display:inline;fill:#002a44;fill-opacity:1;stroke-width:22.6873;paint-order:markers stroke fill"/><rect width="2" height="2" x="-3" rx="0" ry="0" style="display:inline;fill:#2c2d3d;fill-opacity:1;stroke-width:22.6873;paint-order:markers stroke fill"/><rect width="2" height="2" x="-3" y="-3" rx="0" ry="0" style="display:inline;fill:#16171c;fill-opacity:1;stroke-width:22.6872;paint-order:markers stroke fill"/></g><g fill-rule="evenodd"><path fill="#4d4d4d" d="M12.695 9.574 11.579 5.39c0-.012-.012-.025-.037-.037l-4.181-1.12c-.013 0-.037 0-.05.012L4.246 7.31c-.012.012-.012.024-.012.049l1.116 4.184c0 .012.012.025.036.037l4.182 1.12c.012 0 .037 0 .05-.013l3.065-3.064c.012-.024.024-.037.012-.05zM8.599 6.288l-1.104 4.11c0 .013-.012.013-.024 0L4.479 7.396c-.012-.013 0-.013 0-.025l4.108-1.107c0 .012.012.012.012.024z" style="isolation:isolate" transform="matrix(1.65348 0 0 1.65348 -2 -2)"/><path d="m46.113 29.186-16.236 4.352-1.549 5.765c0 .047-.045.047-.092 0l-4.19-4.205-5.696 1.527 1.869 7.002c0 .047.046.094.138.141L36.162 48c.047 0 .14 0 .186-.046l11.586-11.582c.046-.094.093-.14.047-.186l-1.867-7z" opacity=".25" style="paint-order:stroke fill markers" transform="matrix(.43748 0 0 .43748 -2 -2)"/><path d="M27.818 16c-.014 0-.035.003-.055.004l2.233 8.332 2.457-.662c0 .046.047.047.047.094l-1.33 4.949 5.158 19.246c.006-.004.014-.005.02-.01l11.585-11.582c.047-.093.094-.139.047-.186l-4.217-15.812c0-.046-.048-.094-.14-.14z" opacity=".35" style="paint-order:stroke fill markers" transform="matrix(.43748 0 0 .43748 -2 -2)"/></g></svg>