<svg xmlns="http://www.w3.org/2000/svg" xmlns:xlink="http://www.w3.org/1999/xlink" xml:space="preserve" width="24" height="24" viewBox="0 0 6.35 6.35"><defs><pattern xlink:href="#a" id="c" patternTransform="matrix(10 0 0 10 18.193 4.603)"/><pattern id="a" width="2" height="1" patternTransform="scale(10)" patternUnits="userSpaceOnUse"><path d="M0-.5h1v2H0z" style="fill:#fff;stroke:none"/></pattern><radialGradient id="b" cx="0" cy="0" r="1" gradientTransform="matrix(0 22 -22 0 12 1)" gradientUnits="userSpaceOnUse"><stop stop-color="#8FC8FF"/><stop offset="1" stop-color="#0056A8"/></radialGradient></defs><g style="fill:none"><path fill="url(#b)" fill-rule="evenodd" d="M9.596 1.114c.12 0 .234-.014.344-.046a31.627 31.627 0 0 1 4.307.011c1.301.102 2.562.384 3.78.848 2.026.833 3.412 2.28 4.158 4.339.427 1.24.679 2.514.756 3.824a27.94 27.94 0 0 1-.114 4.923 11.88 11.88 0 0 1-.894 3.32c-.85 1.843-2.229 3.114-4.135 3.813a15.624 15.624 0 0 1-4.765.825 21.423 21.423 0 0 1-5.453-.413c-3.312-.737-5.354-2.756-6.128-6.056a19.047 19.047 0 0 1-.447-4.511 18.491 18.491 0 0 1 .515-4.786c.812-3.086 2.77-4.998 5.877-5.736a13.953 13.953 0 0 1 2.199-.355Z" clip-rule="evenodd" style="fill:url(#b)" transform="matrix(.26458 0 0 .26458 0 0)"/></g><g transform="matrix(.35957 0 0 .35957 -6.411 -1.62)"><rect width="12.141" height="10.407" x="20.589" y="8.386" fill="#363842" color="#000" overflow="visible" rx=".651" ry=".651" style="fill:#cdc9c9;fill-opacity:.501961;stroke-width:.819458"/><rect width="12.141" height="10.407" x="20.589" y="7.876" fill="#363842" color="#000" overflow="visible" rx=".651" ry=".651" style="fill:#363842;fill-opacity:1;stroke-width:.819458"/><path fill="#fff" d="M21.89 14.81h2.169v2.169H21.89z" opacity=".1" style="fill:#fff;fill-opacity:1;stroke-width:1.32097"/><path fill="#fff" d="m22.697 10.255-.807 1.74c.13-.073.272-.126.419-.16l.392 3.8.39-3.801c.146.034.287.087.414.162zm4.312 5.11c.073.13.127.273.161.42l-3.935.39 3.936.393a1.508 1.508 0 0 1-.162.412l1.741-.807z" style="fill:#fff;fill-opacity:1;stroke-width:1.32097"/><path fill="none" stroke="#fff" stroke-dasharray="0.852958, 0.852958" stroke-dashoffset="1" stroke-width=".529" d="M22.155 12.118h4.596v4.596h-4.596z" opacity=".2" style="fill:#000;fill-opacity:0;stroke:url(#c);stroke-width:.528892;stroke-dasharray:.852783,.852783;stroke-dashoffset:.999795;stroke-opacity:1"/></g></svg>