<?xml version="1.0" encoding="UTF-8" standalone="no"?>
<svg
   width="24"
   height="24"
   fill="none"
   version="1.1"
   id="svg8"
   sodipodi:docname="yast-users.svg"
   inkscape:version="1.3 (0e150ed6c4, 2023-07-21)"
   xmlns:inkscape="http://www.inkscape.org/namespaces/inkscape"
   xmlns:sodipodi="http://sodipodi.sourceforge.net/DTD/sodipodi-0.dtd"
   xmlns:xlink="http://www.w3.org/1999/xlink"
   xmlns="http://www.w3.org/2000/svg"
   xmlns:svg="http://www.w3.org/2000/svg">
  <sodipodi:namedview
     id="namedview8"
     pagecolor="#ffffff"
     bordercolor="#000000"
     borderopacity="0.25"
     inkscape:showpageshadow="2"
     inkscape:pageopacity="0.0"
     inkscape:pagecheckerboard="0"
     inkscape:deskcolor="#d1d1d1"
     inkscape:zoom="16.985294"
     inkscape:cx="14.12987"
     inkscape:cy="4.5038961"
     inkscape:window-width="3440"
     inkscape:window-height="1358"
     inkscape:window-x="2560"
     inkscape:window-y="0"
     inkscape:window-maximized="1"
     inkscape:current-layer="svg8" />
  <path
     d="M 12,1 C 2,1 1,6 1,12 1,20 4,23 12,23 20,23 23,20 23,12 23,6 22,1 12,1 Z"
     style="font-variation-settings:normal;display:inline;vector-effect:none;fill:url(#b);fill-opacity:1;stroke-width:1.11627;stroke-linecap:butt;stroke-linejoin:miter;stroke-miterlimit:4;stroke-dasharray:none;stroke-dashoffset:0;stroke-opacity:1;-inkscape-stroke:none;stop-color:#000000"
     id="path2-5" />
  <path
     id="path1"
     style="fill:url(#a);stroke-width:0.999996"
     d="m 12.014634,5.5000001 c -1.092852,0 -1.979955,0.8848791 -1.979955,1.9750843 V 7.8062945 L 9.1725584,6.8905958 8.843784,7.2899962 10.041986,8.4857624 10.387807,8.8315848 10.70197,8.4321843 11.810063,7.2364181 11.46424,6.8905958 10.546106,7.8062945 V 7.4750844 c 0,-0.778719 0.687922,-1.4100787 1.468528,-1.4100787 0.780606,0 1.059385,0.2782311 1.059385,1.0569501 h 0.538217 c 0,-1.1279965 -0.600701,-1.6009666 -1.597602,-1.6219557 z m 1.059385,2.2575869 c -0.690625,0 -1.297119,0.331398 -1.690146,0.837767 0.176854,0.060226 0.345773,0.1342719 0.506557,0.2240538 0.294532,-0.320864 0.71371,-0.5260394 1.183589,-0.5260394 0.889892,0 1.612215,0.7223225 1.612215,1.6122134 0,0.7512542 -0.51721,1.3777732 -1.212814,1.5562012 3.33e-4,0.01869 0.0025,0.03723 0.0025,0.05601 0,0.17085 -0.01717,0.335949 -0.04384,0.499251 1.014897,-0.171442 1.789995,-1.047765 1.789995,-2.1114651 0,-1.186521 -0.96147,-2.1479954 -2.147995,-2.1479954 z m -2.686212,1.6097789 c -1.1865236,0 -2.1479945,0.9639071 -2.1479945,2.1504311 0,1.186522 0.9614709,2.147996 2.1479945,2.147996 1.186526,0 2.150432,-0.961474 2.150432,-2.147996 0,-1.186524 -0.963906,-2.1504311 -2.150432,-2.1504311 z m 0,0.538216 c 0.889893,0 1.612215,0.7223221 1.612215,1.6122151 0,0.889892 -0.722322,1.609779 -1.612215,1.609779 -0.8898906,0 -1.6097779,-0.719887 -1.6097779,-1.609779 0,-0.889893 0.7198873,-1.6122141 1.6097779,-1.6122151 z m 3.358375,2.6862121 c -0.137956,0 -0.272758,0.0075 -0.406707,0.02192 -0.0676,0.206081 -0.157308,0.4032 -0.265456,0.589359 0.22043,-0.04897 0.445951,-0.07425 0.672163,-0.0755 1.693913,0 3.066129,1.322623 3.066129,2.954103 -4.84e-4,0.08968 -0.0027,0.178625 -0.01222,0.26789 h -2.435369 c 0.0584,0.172511 0.110077,0.349623 0.146123,0.53091 l 2.756837,0.0074 c 0.06653,-0.263802 0.1008,-0.534635 0.102284,-0.806107 0,-1.928111 -1.621934,-3.489884 -3.623829,-3.489884 z m -3.358375,1.60978 c -2.0845076,0 -3.7577733,1.446292 -3.7577733,3.458223 0.00187,0.283273 0.035455,0.564933 0.1047204,0.840203 h 0.5966654 6.2637685 0.477332 c 0.06928,-0.27527 0.07395,-0.55693 0.0755,-0.840203 0,-2.01193 -1.675701,-3.458223 -3.76021,-3.458223 z m -0.01461,0.533345 h 0.02923 c 2.048419,0 3.209817,1.222474 3.209817,2.924878 -5.9e-4,0.09358 -0.0076,0.186941 -0.01705,0.280068 H 7.1828624 c -0.00935,-0.09313 -0.016225,-0.186476 -0.017048,-0.280068 0,-1.702404 1.170155,-2.924878 3.2073786,-2.924878 z" />
  <defs
     id="defs8">
    <radialGradient
       id="a"
       cx="0"
       cy="0"
       r="1"
       gradientTransform="matrix(0,27.431607,-27.431607,0,11.999979,-1.7157656)"
       gradientUnits="userSpaceOnUse">
      <stop
         stop-color="#C2E5FF"
         id="stop7" />
      <stop
         offset="1"
         stop-color="#3276AA"
         id="stop8" />
    </radialGradient>
    <linearGradient
       xlink:href="#a-6"
       id="b"
       x1="57.159"
       x2="58.181999"
       y1="115.199"
       y2="-26.193001"
       gradientTransform="matrix(0.24444,0,0,0.24444,-0.222,-0.222)"
       gradientUnits="userSpaceOnUse" />
    <linearGradient
       id="a-6">
      <stop
         offset="0"
         style="stop-color:#d9d9d9;stop-opacity:1"
         id="stop1" />
      <stop
         offset="1"
         style="stop-color:#fff;stop-opacity:1"
         id="stop2-7" />
    </linearGradient>
  </defs>
</svg>
