<svg width="256" height="256" viewBox="0 0 256 256" fill="none" xmlns="http://www.w3.org/2000/svg">
<path fill-rule="evenodd" clip-rule="evenodd" d="M100.027 1.32176C101.421 1.33661 102.754 1.15896 104.025 0.788843C120.733 -0.305617 137.439 -0.261225 154.144 0.922073C169.291 2.10225 183.953 5.38862 198.131 10.7811C221.702 20.4851 237.831 37.3166 246.517 61.2754C251.484 75.7003 254.417 90.5333 255.314 105.774C256.556 124.913 256.112 144.01 253.981 163.063C252.387 176.456 248.921 189.335 243.584 201.7C233.686 223.14 217.647 237.928 195.465 246.066C177.491 252.139 159.007 255.337 140.015 255.658C118.652 256.769 97.5026 255.171 76.5669 250.862C38.0322 242.278 14.2614 218.785 5.25472 180.383C1.43259 163.097 -0.300228 145.599 0.0562535 127.891C-0.370314 109.061 1.6291 90.4971 6.05448 72.2003C15.4963 36.2947 38.2895 14.0452 74.4342 5.4519C82.8566 3.39283 91.3874 2.01611 100.027 1.32176Z" fill="#78BCF0"/>
<path opacity="0.4" d="M109.154 61.6C92.5706 61.6 79.0887 75.0819 79.0887 91.6652C79.0887 107.932 91.811 121.098 108.394 121.667C108.901 121.604 109.407 121.604 109.787 121.667H110.103H110.23C126.434 121.098 139.156 107.932 139.219 91.6652C139.219 75.0819 125.737 61.6 109.154 61.6Z" fill="#FAFAFA"/>
<path d="M141.314 138.503C123.654 126.73 94.8551 126.73 77.0692 138.503C69.0307 143.883 64.6 151.162 64.6 158.947C64.6 166.733 69.0307 173.948 77.0059 179.265C85.8672 185.215 97.5135 188.19 109.16 188.19C120.806 188.19 132.452 185.215 141.314 179.265C149.289 173.885 153.719 166.669 153.719 158.821C153.656 151.036 149.289 143.82 141.314 138.503Z" fill="#FAFAFA"/>
<path opacity="0.4" d="M178.712 95.4003C179.724 107.68 170.99 118.44 158.9 119.896C158.837 119.896 158.837 119.896 158.774 119.896H158.584C158.204 119.896 157.824 119.896 157.508 120.022C151.368 120.339 145.735 118.376 141.494 114.769C148.013 108.945 151.748 100.211 150.988 90.7164C150.545 85.5895 148.773 80.9057 146.115 76.9181C148.52 75.7155 151.305 74.9559 154.153 74.7027C166.559 73.6267 177.636 82.8678 178.712 95.4003Z" fill="#FAFAFA"/>
<path d="M191.376 153.947C190.869 160.087 186.945 165.404 180.362 169.011C174.033 172.493 166.058 174.138 158.146 173.948C162.703 169.834 165.361 164.707 165.868 159.264C166.501 151.415 162.766 143.883 155.297 137.87C151.057 134.515 146.12 131.857 140.739 129.895C154.728 125.844 172.324 128.566 183.147 137.3C188.97 141.984 191.945 147.871 191.376 153.947Z" fill="#FAFAFA"/>
<path opacity="0.4" d="M98.2384 233.5C56.2335 233.5 22 199.267 22 157.262C22 153.228 25.3447 149.884 29.3779 149.884C33.4112 149.884 36.7558 153.228 36.7558 157.262C36.7558 186.38 57.0204 210.776 84.2695 217.17L81.6135 212.744C79.5477 209.202 80.6299 204.677 84.1713 202.611C87.6143 200.545 92.2378 201.628 94.3036 205.169L104.633 222.384C106.01 224.647 106.01 227.499 104.731 229.762C103.354 232.025 100.894 233.5 98.2384 233.5Z" fill="#FAFAFA"/>
<path opacity="0.4" d="M226.126 105.616C222.093 105.616 218.748 102.272 218.748 98.2384C218.748 69.1203 198.484 44.7237 171.235 38.3295L173.891 42.7564C175.956 46.2978 174.874 50.8231 171.333 52.889C167.89 54.9548 163.266 53.8727 161.201 50.3312L150.871 33.1161C149.494 30.8535 149.494 28.0007 150.773 25.7381C152.052 23.3772 154.511 22 157.167 22C199.172 22 233.406 56.2335 233.406 98.2384C233.504 102.272 230.159 105.616 226.126 105.616Z" fill="#FAFAFA"/>
</svg>
