<svg xmlns="http://www.w3.org/2000/svg" width="24" height="24" fill="none"><defs><radialGradient id="a" cx="0" cy="0" r="1" gradientTransform="matrix(0 22 -22 0 12 1)" gradientUnits="userSpaceOnUse"><stop offset="0" stop-color="#8FC8FF" style="stop-color:#f6f6f6;stop-opacity:1"/><stop offset="1" stop-color="#0056A8" style="stop-color:#cfcfcf;stop-opacity:1"/></radialGradient></defs><path d="M50 5C9.09 5 5 25.455 5 50c0 32.727 12.273 45 45 45 32.727 0 45-12.273 45-45 0-24.545-4.09-45-45-45Z" style="font-variation-settings:normal;display:inline;opacity:1;vector-effect:none;fill:#6fafd1;fill-opacity:1;stroke-width:4.56656;stroke-linecap:butt;stroke-linejoin:miter;stroke-miterlimit:4;stroke-dasharray:none;stroke-dashoffset:0;stroke-opacity:1;-inkscape-stroke:none;stop-color:#000;stop-opacity:1" transform="matrix(.24444 0 0 .24444 -.222 -.222)"/><path d="M12.001 6.323A5.676 5.676 0 0 0 6.325 12a5.676 5.676 0 0 0 5.676 5.676 5.676 5.676 0 0 0 5.676-5.676A5.676 5.676 0 0 0 12 6.323Zm0 2.58A3.095 3.095 0 0 1 15.096 12a3.095 3.095 0 0 1-3.095 3.097A3.095 3.095 0 0 1 8.904 12 3.095 3.095 0 0 1 12 8.904Z" style="fill:#fff;fill-opacity:1;stroke-width:1.9505"/><path d="M10.97 4.002h2.063v3.612h-2.064zm0 12.386h2.063V20h-2.064ZM20 10.969v2.064h-3.612v-2.064zm-12.386 0v2.064H4.002v-2.064zm10.771 5.96-1.457 1.458-2.555-2.555 1.459-1.457zM9.627 8.173 8.17 9.63 5.615 7.074l1.459-1.457ZM7.074 18.387l-1.459-1.459 2.555-2.555 1.46 1.46Zm8.758-8.758-1.46-1.459 2.556-2.555 1.459 1.461z" style="fill:#fff;fill-opacity:1;stroke-width:1.9505"/></svg>