<svg xmlns="http://www.w3.org/2000/svg" width="24" height="24"><defs><radialGradient id="a" cx="0" cy="0" r="1" gradientTransform="matrix(0 11 -11 0 12 1)" gradientUnits="userSpaceOnUse"><stop stop-color="#777"/><stop offset="1" stop-color="#444"/></radialGradient><linearGradient id="b" x1="50" x2="50" y1="63" y2="37" gradientTransform="translate(40)" gradientUnits="userSpaceOnUse"><stop offset="0"/><stop offset="1" stop-opacity="0"/></linearGradient></defs><path fill="url(#a)" fill-rule="evenodd" d="M9.596 1.114c.12 0 .234-.014.344-.046a31.627 31.627 0 0 1 4.307.011c1.301.102 2.561.384 3.78.847 2.025.834 3.412 2.28 4.158 4.34.427 1.24.679 2.514.756 3.824a27.941 27.941 0 0 1-.115 4.923 11.88 11.88 0 0 1-.893 3.32c-.85 1.843-2.229 3.114-4.135 3.813a15.624 15.624 0 0 1-4.766.825 21.423 21.423 0 0 1-5.452-.413c-3.312-.737-5.354-2.756-6.128-6.056a19.047 19.047 0 0 1-.447-4.511 18.491 18.491 0 0 1 .515-4.786c.812-3.086 2.77-4.998 5.877-5.736a13.953 13.953 0 0 1 2.199-.355z" clip-rule="evenodd" style="fill:url(#a);stroke-width:1"/><g style="stroke-width:3.5" transform="matrix(.28571 0 0 .28571 -8.571 2.857)"><rect width="48" height="56" x="48" y="4" fill="#eee" ry="3.231" style="stroke-width:3.5"/><rect width="48" height="9" x="48" y="12" fill="#e0e0e0" ry="0" style="stroke-width:3.5"/><rect width="48" height="56" x="48" y="4" fill="#eee" rx="3" ry="3" style="stroke-width:3.5"/><path fill="#b3b3b3" d="M51 4c-1.662 0-3 1.338-3 3v5h48V7c0-1.662-1.338-3-3-3Z" style="stroke-width:3.5"/><path fill="url(#b)" d="M96 31.697A55 55 0 0 1 77.068 60H93c1.662 0 3-1.338 3-3z" opacity=".15" style="fill:url(#b);stroke-width:3.5"/><g fill="#bdbdbd" style="stroke-width:3.5" transform="translate(40)"><rect width="20" height="2" x="18" y="25.999" ry="0" style="stroke-width:3.5"/><path d="M18 30h23v2H18Z" style="stroke-width:3.5"/><rect width="7" height="1.999" x="18" y="35" ry="0" style="stroke-width:3.5"/><path d="M18 39h9v2h-9zm0 4h5v2h-5z" style="stroke-width:3.5"/></g><g fill="#757575" style="stroke-width:3.5" transform="translate(40)"><circle cx="15" cy="36" r="1" style="stroke-width:3.5"/><circle cx="15" cy="40" r="1" style="stroke-width:3.5"/><circle cx="15" cy="44" r="1" style="stroke-width:3.5"/></g><path fill="#616161" d="M73 44c-1.108 0-2 .892-2 2v7c0 1.108.892 2 2 2h15c1.108 0 2-.892 2-2v-7c0-1.108-.892-2-2-2zm0 1h15c.554 0 1 .446 1 1v7c0 .554-.446 1-1 1H73c-.554 0-1-.446-1-1v-7c0-.554.446-1 1-1zm0 1v7h2v-4.172l2 2 2-2V53h2v-7h-2l-2 2-2-2zm11 0v4h-2l3 3 3-3h-2v-4z" style="stroke-width:3.5"/><circle cx="89.5" cy="8.5" r="1.5" fill="#ef5350" style="stroke-width:3.5"/><circle cx="89.5" cy="8.5" r=".5" fill="#ef9a9a" style="stroke-width:3.5"/><path fill="#757575" d="M54 27h3v1h-3zm28 4h3v1h-3z" style="stroke-width:3.5"/><g fill="#616161" fill-rule="evenodd" style="stroke-width:3.5"><path d="M14 14h4v4h-4z" opacity=".9" style="stroke-width:3.5;paint-order:stroke fill markers" transform="translate(40)"/><path d="M20 14h4v4h-4z" opacity=".5" style="stroke-width:3.5;paint-order:stroke fill markers" transform="translate(40)"/><path d="M26 16h4v2h-4zm6 0h4v2h-4zm6 0h4v2h-4zm6 0h4v2h-4z" opacity=".9" style="stroke-width:3.5;paint-order:stroke fill markers" transform="translate(40)"/></g><rect width="48" height="9" x="48" y="12" fill="#e0e0e0" ry="0" style="stroke-width:3.5"/></g></svg>