<svg xmlns="http://www.w3.org/2000/svg" width="24" height="24" fill="none"><path fill="#33393E" fill-rule="evenodd" d="M9.94 1.068c-.11.032-.224.047-.344.046-.742.06-1.476.178-2.2.355-3.106.738-5.064 2.65-5.876 5.736a18.491 18.491 0 0 0-.515 4.786c-.03 1.521.118 3.025.447 4.51.774 3.3 2.816 5.32 6.128 6.057 1.8.37 3.617.508 5.453.413a15.624 15.624 0 0 0 4.765-.825c1.906-.699 3.284-1.97 4.135-3.812a11.88 11.88 0 0 0 .893-3.32c.184-1.638.222-3.28.115-4.924a14.265 14.265 0 0 0-.756-3.824c-.746-2.06-2.133-3.506-4.158-4.34a13.537 13.537 0 0 0-3.78-.847 31.627 31.627 0 0 0-4.307-.011Z" clip-rule="evenodd"/><path fill="#E99F4B" fill-rule="evenodd" d="M22.21 6.34 11.295 8.164l2.515-7.113.437.028c1.301.102 2.561.384 3.78.848 2.025.833 3.412 2.28 4.158 4.339l.025.074Z" clip-rule="evenodd"/><path fill="#F6D152" fill-rule="evenodd" d="M22.712 8.243c.116.608.192 1.223.23 1.847a27.94 27.94 0 0 1-.116 4.923 11.877 11.877 0 0 1-.82 3.148L14.963 9.69l7.749-1.447Z" clip-rule="evenodd"/><path fill="#369557" fill-rule="evenodd" d="M21.059 19.794c-.821 1.072-1.908 1.856-3.261 2.352a15.624 15.624 0 0 1-4.765.825 21.66 21.66 0 0 1-1.09.029l3.601-9.589 5.515 6.383Z" clip-rule="evenodd"/><path fill="#4C8FBF" fill-rule="evenodd" d="M10.123 22.926c-.851-.071-1.7-.194-2.543-.367-2.907-.648-4.837-2.283-5.788-4.906l10.836-1.811-2.505 7.084Z" clip-rule="evenodd"/><path fill="#8E52A8" fill-rule="evenodd" d="M1.3 15.748a19.04 19.04 0 0 1-.295-3.757 18.491 18.491 0 0 1 .515-4.786c.129-.488.286-.947.472-1.377l7.046 8.476L1.3 15.747Z" clip-rule="evenodd"/><path fill="#fff" fill-rule="evenodd" d="M13.852 12a1.852 1.852 0 1 1-3.704 0 1.852 1.852 0 0 1 3.704 0Z" clip-rule="evenodd"/><path fill="#E06959" fill-rule="evenodd" d="M12.028 1c-.696 0-1.392.022-2.088.068-.11.032-.224.047-.344.046-.742.06-1.476.178-2.2.355-1.936.46-3.427 1.377-4.471 2.75l5.504 6.37L12.03 1Z" clip-rule="evenodd"/></svg>