<svg xmlns="http://www.w3.org/2000/svg" width="24" height="24" fill="none"><path fill="url(#a)" fill-rule="evenodd" d="M9.596 1.114c.12 0 .234-.014.344-.046a31.627 31.627 0 0 1 4.307.011c1.301.102 2.561.384 3.78.848 2.025.833 3.412 2.28 4.158 4.339.427 1.24.679 2.514.756 3.824a27.94 27.94 0 0 1-.114 4.923 11.88 11.88 0 0 1-.894 3.32c-.85 1.843-2.229 3.114-4.135 3.813a15.624 15.624 0 0 1-4.765.825 21.423 21.423 0 0 1-5.453-.413c-3.312-.737-5.354-2.756-6.128-6.056a19.047 19.047 0 0 1-.447-4.511 18.491 18.491 0 0 1 .515-4.786c.812-3.086 2.77-4.998 5.877-5.736a13.953 13.953 0 0 1 2.199-.355Z" clip-rule="evenodd"/><path fill="#6D4C41" d="M6.09 13.091a4.09 4.09 0 1 0 0-8.181 4.09 4.09 0 0 0 0 8.181ZM17.909 13.091a4.09 4.09 0 1 0 0-8.181 4.09 4.09 0 0 0 0 8.181Z"/><path fill="#A1887F" fill-rule="evenodd" d="m22 18.175-.067.159c-.85 1.842-2.229 3.113-4.135 3.812a15.624 15.624 0 0 1-4.765.825 21.423 21.423 0 0 1-5.453-.413c-2.71-.603-4.57-2.064-5.58-4.382V16.41C2 10.384 5.975 5.5 12 5.5s10 4.884 10 10.91v1.765Z" clip-rule="evenodd"/><path fill="#fff" d="M9.273 17.636H12v3.637H9.273v-3.637Z"/><path fill="#F2F2F2" d="M12 17.182h2.727v4.09H12v-4.09Z"/><path fill="#6D4C41" stroke="#000" stroke-opacity=".098" stroke-width=".471" d="M9.365 14.91c-1.254-.038-1.91 2.011-1.91 3.236s1.018 2.218 2.272 2.218c1.157 0 2.258-.986 2.258-.986h.031s1.1.984 2.257.986c1.255 0 2.273-.993 2.273-2.218s-.617-3.043-1.871-3.08l-5.31-.157Z"/><path fill="#3E2723" d="M14.7 14.81c.273 1.115-1.517 2.372-2.671 2.372-1.155 0-3.003-1.244-2.729-2.372.21-.866 1.574-.81 2.729-.81 1.154 0 2.462-.038 2.67.81Z"/><path fill="#FEFEFE" stroke="#000" stroke-opacity=".098" stroke-width=".471" d="M7 14.007a2.273 2.273 0 1 0 0-4.545 2.273 2.273 0 0 0 0 4.545Z"/><path fill="#333" d="M6.546 12.186a.91.91 0 1 1 0-1.818.91.91 0 0 1 0 1.818Z"/><path fill="#FEFEFE" stroke="#000" stroke-opacity=".098" stroke-width=".471" d="M17.003 14.007a2.273 2.273 0 1 0 0-4.545 2.273 2.273 0 0 0 0 4.545Z"/><path fill="#333" d="M16.549 12.186a.91.91 0 1 1 0-1.818.91.91 0 0 1 0 1.818Z"/><defs><radialGradient id="a" cx="0" cy="0" r="1" gradientTransform="matrix(0 22 -22 0 12 1)" gradientUnits="userSpaceOnUse"><stop stop-color="#FAFAFA"/><stop offset="1" stop-color="#CCC"/></radialGradient></defs></svg>