<svg xmlns="http://www.w3.org/2000/svg" xml:space="preserve" width="24" height="24" fill="none"><defs><radialGradient id="a" cx="0" cy="0" r="1" fx="0" fy="0" gradientTransform="matrix(0 22 -22 0 46 1)" gradientUnits="userSpaceOnUse" spreadMethod="pad"><stop offset="0" style="stop-opacity:1;stop-color:#818181"/><stop offset="1" style="stop-opacity:1;stop-color:#35393c"/></radialGradient><clipPath id="b" clipPathUnits="userSpaceOnUse"><path d="M0 0h19v19H0Z"/></clipPath></defs><path d="M43.593 1.115c.12 0 .235-.016.344-.047a31.814 31.814 0 0 1 4.308.01 13.68 13.68 0 0 1 3.782.849c2.025.833 3.41 2.281 4.161 4.338.421 1.24.676 2.516.755 3.823a28.303 28.303 0 0 1-.115 4.928 11.968 11.968 0 0 1-.896 3.317c-.85 1.844-2.23 3.115-4.135 3.812-1.542.522-3.13.798-4.766.824a21.331 21.331 0 0 1-5.452-.412c-3.308-.734-5.355-2.754-6.126-6.057a18.991 18.991 0 0 1-.448-4.51 18.502 18.502 0 0 1 .516-4.787c.812-3.083 2.771-4.995 5.875-5.734a13.692 13.692 0 0 1 2.197-.354Z" style="fill:url(#a);fill-rule:evenodd;stroke:none;stroke-width:1.33333" transform="translate(-34)"/><path d="M50.64 7.823H46a1.392 1.392 0 1 0 0 2.781h4.64a1.391 1.391 0 1 0 0-2.781z" style="fill:#3daee9;fill-opacity:1;fill-rule:nonzero;stroke:none;stroke-width:1.33333" transform="translate(-34)"/><path d="M50.64 11.073a1.856 1.856 0 1 0 0-3.713 1.851 1.851 0 0 0-1.853 1.853c0 1.027.828 1.86 1.853 1.86z" style="fill:#fafafa;fill-opacity:1;fill-rule:nonzero;stroke:none;stroke-width:1.33333" transform="translate(-34)"/><path d="M9.348 10.043h3.48c.578 0 1.047.469 1.047 1.047 0 .574-.469 1.043-1.047 1.043h-3.48a1.045 1.045 0 0 1 0-2.09z" clip-path="url(#b)" opacity=".5" style="fill:#fff;fill-opacity:1;fill-rule:nonzero;stroke:none" transform="matrix(1.33333 0 0 1.33333 0 0)"/><path d="M46.464 16.64a1.856 1.856 0 1 1 0-3.713c1.025 0 1.853.833 1.853 1.86a1.851 1.851 0 0 1-1.853 1.853z" style="fill:#fafafa;fill-opacity:1;fill-rule:nonzero;stroke:none;stroke-width:1.33333" transform="translate(-34)"/><path d="M40.427 10.14c.516 0 .928-.41.928-.927a.926.926 0 0 0-.928-.926.926.926 0 1 0 0 1.853z" style="fill:#3daee9;fill-opacity:1;fill-rule:nonzero;stroke:none;stroke-width:1.33333" transform="translate(-34)"/><path d="M40.427 15.713a.926.926 0 0 0 .928-.926.922.922 0 0 0-.928-.927.926.926 0 1 0 0 1.853z" style="fill:#a9aaab;fill-opacity:1;fill-rule:nonzero;stroke:none;stroke-width:1.33333" transform="translate(-34)"/></svg>