<svg xmlns="http://www.w3.org/2000/svg" width="24" height="24" fill="none"><path fill="#1c71d8" fill-rule="evenodd" d="M20.095 3.173a7.605 7.605 0 0 0-2.068-1.246 13.537 13.537 0 0 0-3.78-.848 31.626 31.626 0 0 0-4.307-.011c-.11.032-.224.047-.344.046-.742.06-1.476.178-2.2.355-1.4.332-2.566.904-3.5 1.713l-.69.69c-.774.893-1.336 2.004-1.686 3.333a18.491 18.491 0 0 0-.515 4.786c-.03 1.521.118 3.025.447 4.51.774 3.3 2.816 5.32 6.128 6.058 1.8.37 3.617.507 5.452.412a15.624 15.624 0 0 0 4.766-.825c1.906-.699 3.284-1.97 4.135-3.812a11.88 11.88 0 0 0 .893-3.32c.184-1.638.222-3.28.115-4.924a14.265 14.265 0 0 0-.756-3.824 7.495 7.495 0 0 0-1.34-2.343Z" clip-rule="evenodd"/><path fill="#26a269" fill-rule="evenodd" d="M12 3.514 7.782 7.733v8.436L12 11.951Z" clip-rule="evenodd"/><path fill="#813d9c" fill-rule="evenodd" d="M3.564 20.49c-1.021-1.009-1.725-2.339-2.112-3.988a19.102 19.102 0 0 1-.343-2.096l2.46-2.461 4.213 4.225-4.218 4.218z" clip-rule="evenodd"/><path fill="#98c1f1" fill-rule="evenodd" d="M9.521 22.867a21.513 21.513 0 0 1-1.74-.268v-6.43l8.409-8.5.028 8.5z" clip-rule="evenodd"/><path fill="#2ec27e" fill-rule="evenodd" d="M20.095 3.173a7.605 7.605 0 0 0-2.068-1.246 13.531 13.531 0 0 0-3.606-.833l-2.42 2.421v8.435l8.435-8.436z" clip-rule="evenodd"/><path fill="#613583" fill-rule="evenodd" d="M1.109 14.406c-.086-.8-.12-1.605-.104-2.415a18.491 18.491 0 0 1 .515-4.786c.35-1.327.91-2.437 1.684-3.33l.368-.369 4.209 4.228z" clip-rule="evenodd"/><path fill="#f5c211" fill-rule="evenodd" d="m14.415 1.093-.168-.014a31.626 31.626 0 0 0-4.307-.011c-.11.032-.224.047-.344.046-.742.06-1.476.178-2.2.355-1.398.332-2.564.902-3.497 1.71l-.335.336L7.78 7.734z" clip-rule="evenodd"/><path fill="#e01b24" fill-rule="evenodd" d="M20.84 3.918a7.495 7.495 0 0 1 1.345 2.348c.427 1.24.679 2.514.756 3.824a27.94 27.94 0 0 1-.1 4.785l-2.422-2.423.017-8.937h.001z" clip-rule="evenodd"/><path fill="#ff7800" fill-rule="evenodd" d="M20.436 3.515 12 11.951l4.218 4.219 4.218-4.219z" clip-rule="evenodd"/><path fill="#fff" fill-rule="evenodd" d="M16.218 7.734 12 3.515l2.421-2.421c1.24.112 2.442.39 3.606.833a7.606 7.606 0 0 1 2.065 1.243l.344.345z" clip-rule="evenodd" opacity=".2"/><path fill="#e5a50a" fill-rule="evenodd" d="M7.782 7.734 3.563 3.515h8.436z" clip-rule="evenodd"/><path fill="#ffa348" fill-rule="evenodd" d="m20.44 20.385-4.222-4.215 4.218-4.218Z" clip-rule="evenodd"/><path fill="#3584e4" fill-rule="evenodd" d="M12 11.951 7.782 16.17l.003-8.406z" clip-rule="evenodd"/><path fill="#f66151" fill-rule="evenodd" d="M22.888 14.406c-.018.202-.039.405-.062.607a11.88 11.88 0 0 1-.893 3.32 7.356 7.356 0 0 1-1.493 2.165l-.004-8.547z" clip-rule="evenodd"/><path fill="#c061cb" fill-rule="evenodd" d="M7.782 22.599a20.232 20.232 0 0 1-.202-.04c-1.656-.37-2.994-1.059-4.016-2.068v-.104l4.218-4.217z" clip-rule="evenodd"/><path fill="#1a5fb4" d="M12 11.951 7.782 7.733l-4.218 4.218Z"/><path fill="#3584e4" d="M12 11.951 7.782 16.17 3.57 11.945z"/><path fill="#fff" d="M52 20.784c4.875 0 8.828-3.955 8.828-8.834 0-4.878-3.953-8.833-8.828-8.833s-8.828 3.955-8.828 8.833c0 4.879 3.953 8.834 8.828 8.834z" style="fill:#fff;fill-opacity:.85" transform="translate(-40)"/><path fill="#4d4d4d" d="M12 6.433c-.611 0-1.103.492-1.103 1.104V13.7l-1.239-1.238a1.1 1.1 0 0 0-1.8.358 1.1 1.1 0 0 0 .24 1.203l3.1 3.1c.107.112.237.203.383.263l.033.012.064.022.01.002.045.013.052.011.004.001h.002l.022.004c.026.004.053.009.08.011h.003c.028.003.058.004.088.005h.017c.035 0 .069-.001.103-.005h.002c.027-.002.053-.007.08-.011l.023-.004.007-.001.072-.017.024-.007.011-.003c.015-.004.029-.01.043-.015l.05-.017.005-.002a1.097 1.097 0 0 0 .38-.262l3.101-3.1a1.101 1.101 0 0 0-.358-1.8 1.1 1.1 0 0 0-1.203.24L13.103 13.7V7.537c0-.612-.492-1.104-1.103-1.104Z"/></svg>