<svg xmlns="http://www.w3.org/2000/svg" width="24" height="24" fill="none"><path fill="url(#a)" fill-rule="evenodd" d="M9.596 1.114c.12 0 .234-.014.344-.046a31.627 31.627 0 0 1 4.307.011c1.301.102 2.561.384 3.78.848 2.025.833 3.412 2.28 4.158 4.339.427 1.24.679 2.514.756 3.824a27.94 27.94 0 0 1-.114 4.923 11.88 11.88 0 0 1-.894 3.32c-.85 1.843-2.229 3.114-4.135 3.813a15.624 15.624 0 0 1-4.765.825 21.423 21.423 0 0 1-5.453-.413c-3.312-.737-5.354-2.756-6.128-6.056a19.047 19.047 0 0 1-.447-4.511 18.491 18.491 0 0 1 .515-4.786c.812-3.086 2.77-4.998 5.877-5.736a13.953 13.953 0 0 1 2.199-.355Z" clip-rule="evenodd"/><path fill="#FFFEFF" d="M10.301 4.5a1 1 0 0 1 1-1h1.485a1 1 0 0 1 1 1v3.956a1 1 0 0 0 1.5.866l3.106-1.792a1 1 0 0 1 1.366.366L20.5 9.18a1 1 0 0 1-.366 1.366l-3.862 2.23a1 1 0 0 0-.207 1.573l2.735 2.735a1 1 0 0 1 0 1.414l-1.05 1.05a1 1 0 0 1-1.414 0l-3.629-3.629a1 1 0 0 0-1.414 0L7.664 19.55a1 1 0 0 1-1.414 0l-1.05-1.05a1 1 0 0 1 0-1.414l2.736-2.735a1 1 0 0 0-.208-1.573l-3.862-2.23A1 1 0 0 1 3.5 9.181l.743-1.286a1 1 0 0 1 1.366-.366L8.8 9.372a1 1 0 0 0 1.5-.866V4.5Z"/><defs><radialGradient id="a" cx="0" cy="0" r="1" gradientTransform="matrix(0 22 -22 0 12 1)" gradientUnits="userSpaceOnUse"><stop stop-color="#38AEFF"/><stop offset="1" stop-color="#0076C7"/></radialGradient></defs></svg>