<svg xmlns="http://www.w3.org/2000/svg" width="24" height="24" fill="none"><path fill="url(#a)" fill-rule="evenodd" d="M9.596 1.114c.12 0 .234-.014.344-.046a31.627 31.627 0 0 1 4.307.011c1.301.102 2.561.384 3.78.848 2.025.833 3.412 2.28 4.158 4.339.427 1.24.679 2.514.756 3.824a27.94 27.94 0 0 1-.114 4.923 11.88 11.88 0 0 1-.894 3.32c-.85 1.843-2.229 3.114-4.135 3.813a15.624 15.624 0 0 1-4.765.825 21.423 21.423 0 0 1-5.453-.413c-3.312-.737-5.354-2.756-6.128-6.056a19.047 19.047 0 0 1-.447-4.511 18.491 18.491 0 0 1 .515-4.786c.812-3.086 2.77-4.998 5.877-5.736a13.953 13.953 0 0 1 2.199-.355Z" clip-rule="evenodd"/><path fill="#F9F9F9" d="M16.473 7.836a8.617 8.617 0 0 0-8.637 8.637 8.66 8.66 0 0 0 .575 3.108h3.486a5.51 5.51 0 0 1-.952-3.108 5.511 5.511 0 0 1 3.41-5.11 5.513 5.513 0 0 1 2.118-.418 5.51 5.51 0 0 1 3.108.953V8.412a8.654 8.654 0 0 0-3.108-.576Z" opacity=".1"/><path fill="#000" d="M5.418 6.455a1.037 1.037 0 1 0 0-2.074 1.037 1.037 0 0 0 0 2.074Z" opacity=".15"/><path fill="#0090FF" d="M5.418 6.109a.69.69 0 1 0 0-1.382.69.69 0 0 0 0 1.382Z"/><path fill="#F9F9F9" d="M16.373 7.145h.184V5.513h-.113l-.577.298.07.133.436-.207v1.408ZM13.526 7.599l.992-.266-.043-.163-.72.193c.368-.599.466-.895.395-1.16-.073-.275-.306-.391-.595-.314a.729.729 0 0 0-.431.305l.085.118a.667.667 0 0 1 .353-.249c.201-.054.357.033.407.22.06.226-.058.514-.478 1.193l.035.123ZM11.616 8.48c.307-.177.427-.461.286-.705-.105-.182-.307-.244-.517-.165a.381.381 0 0 0 .056-.467c-.129-.222-.393-.262-.653-.111a1.044 1.044 0 0 0-.36.362l.11.103a.98.98 0 0 1 .305-.303c.181-.104.366-.087.45.058.088.152-.002.343-.209.462l-.11.063.084.144.147-.085c.234-.135.44-.119.536.046.091.159.003.324-.206.445a1.169 1.169 0 0 1-.473.147l.042.156a1.19 1.19 0 0 0 .512-.15ZM9.816 9.92l.13-.131L9.66 9.5l.205-.205-.112-.113-.206.206-.764-.764-.127.128.23 1.38.07.071.573-.572.287.288Zm-.4-.4-.41.41-.178-1.002.588.592ZM8.402 11.754c.18-.311.123-.624-.152-.783-.263-.152-.54-.058-.721.258a1.053 1.053 0 0 0-.087.192l-.405-.26.347-.6-.144-.084-.434.752.699.449a1.72 1.72 0 0 1 .137-.316c.138-.239.333-.32.523-.211.182.105.214.302.095.508a.914.914 0 0 1-.298.308l.104.125a.966.966 0 0 0 .336-.338ZM7.47 14.005a.513.513 0 0 0-.378-.656c-.282-.076-.519.06-.591.33a.492.492 0 0 0 .13.5l-.046-.013c-.44-.118-.618-.337-.529-.669a.732.732 0 0 1 .162-.302l-.131-.094a.79.79 0 0 0-.194.343c-.116.434.136.77.668.912.481.129.815.002.91-.351Zm-.68.202a.392.392 0 0 1-.148-.434c.054-.203.22-.294.425-.239.2.053.3.208.247.404-.056.21-.235.302-.525.27ZM7.14 16.571v-.198l-1.527-.674h-.094v1.088h.17v-.86l1.451.644Z"/><path fill="#000" d="M16.818 8.874a.346.346 0 1 0-.69 0V9.91a.346.346 0 1 0 .69 0V8.874ZM14.84 9.043a.346.346 0 1 0-.668.179l.268 1a.346.346 0 1 0 .667-.18l-.268-1ZM12.972 9.719a.346.346 0 1 0-.598.345l.517.897a.346.346 0 1 0 .598-.345l-.517-.897Z" opacity=".35"/><path fill="#F9F9F9" d="M16.473 10.946a5.527 5.527 0 1 1 0 11.054 5.527 5.527 0 0 1 0-11.054Z" opacity=".9"/><path fill="#000" d="M11.343 10.855a.346.346 0 1 0-.488.489l.732.732a.346.346 0 1 0 .488-.488l-.732-.732ZM10.064 12.373a.346.346 0 1 0-.345.599l.897.517a.346.346 0 1 0 .345-.598l-.897-.518ZM9.222 14.172a.346.346 0 1 0-.18.667l1 .268a.346.346 0 1 0 .18-.667l-1-.268ZM8.873 16.127a.346.346 0 1 0 0 .69h1.035a.346.346 0 1 0 0-.69H8.873Z" opacity=".35"/><path fill="#3D3D3D" d="m16.473 12.675-1.026 1.231a2.764 2.764 0 1 0 2.05 0l-1.024-1.231Z"/><defs><radialGradient id="a" cx="0" cy="0" r="1" gradientTransform="matrix(0 22 -22 0 12 1)" gradientUnits="userSpaceOnUse"><stop stop-color="#5E5E5E"/><stop offset="1" stop-color="#3D3D3D"/></radialGradient></defs></svg>