<svg xmlns="http://www.w3.org/2000/svg" width="24" height="24" fill="none"><defs><radialGradient id="a" cx="0" cy="0" r="1" gradientTransform="matrix(0 22 -22 0 12 1)" gradientUnits="userSpaceOnUse"><stop stop-color="#68BBFF" stop-opacity=".875"/><stop offset="1" stop-color="#A99EFF"/></radialGradient><radialGradient id="b" cx="0" cy="0" r="1" fx="0" fy="0" gradientTransform="matrix(0 19.40524 -26.58722 0 12 1)" gradientUnits="userSpaceOnUse"><stop offset="0" stop-color="#68BBFF" stop-opacity=".875" style="stop-color:#66bcff;stop-opacity:1"/><stop offset="1" stop-color="#A99EFF" style="stop-color:#b29aff;stop-opacity:1"/></radialGradient></defs><path fill="url(#a)" fill-rule="evenodd" d="M9.596 1.114c.12 0 .234-.014.344-.046a31.627 31.627 0 0 1 4.307.011c1.301.102 2.562.384 3.78.848 2.026.833 3.412 2.28 4.158 4.339.427 1.24.679 2.514.756 3.824a27.94 27.94 0 0 1-.114 4.923 11.876 11.876 0 0 1-.894 3.32c-.85 1.843-2.229 3.114-4.135 3.813a15.624 15.624 0 0 1-4.765.825 21.423 21.423 0 0 1-5.453-.413c-3.312-.737-5.354-2.756-6.128-6.056a19.047 19.047 0 0 1-.447-4.511 18.491 18.491 0 0 1 .515-4.786c.812-3.086 2.77-4.998 5.877-5.736a13.954 13.954 0 0 1 2.199-.355Z" clip-rule="evenodd" style="fill:url(#b)"/><path fill="#000" fill-rule="evenodd" d="M11.992 1c-.684 0-1.368.023-2.052.068-.11.032-.224.047-.344.046-.742.06-1.476.178-2.2.355C5.82 1.843 4.54 2.52 3.555 3.5H20.45c-.668-.659-1.476-1.183-2.424-1.573a13.537 13.537 0 0 0-3.78-.848A31.656 31.656 0 0 0 11.992 1z" clip-rule="evenodd" opacity=".35"/><rect width="1.488" height=".744" x="5.987" y="2.059" opacity=".35" ry=".373" style="fill:#000;stroke-width:1.40646;paint-order:stroke markers fill"/><rect width="3.721" height=".744" x="10.139" y="2.059" opacity=".35" ry=".373" style="fill:#000;stroke-width:1.40646;paint-order:stroke markers fill"/><rect width=".744" height=".744" x="17.257" y="2.059" opacity=".35" ry=".373" style="fill:#000;stroke-width:1.40646;paint-order:stroke markers fill"/><rect width="1.117" height=".744" x="15.769" y="2.059" opacity=".35" ry=".373" style="fill:#000;stroke-width:1.40646;paint-order:stroke markers fill"/><rect width=".744" height=".744" x="14.652" y="2.059" opacity=".35" ry=".373" style="fill:#000;stroke-width:1.40646;paint-order:stroke markers fill"/><g fill="#ccdfff" style="stroke-width:3.78" transform="matrix(.36814 0 0 .36814 .226 1.295)"><rect width="5" height="5" x="17.001" y="48.001" ry=".499" style="paint-order:stroke markers fill"/><rect width="5" height="5" x="25.335" y="48.001" ry=".499" style="paint-order:stroke markers fill"/><rect width="5" height="5" x="33.669" y="48.001" ry=".499" style="paint-order:stroke markers fill"/><rect width="5" height="5" x="42.003" y="48.001" ry=".499" style="paint-order:stroke markers fill"/></g><path d="M5.748 20.084a.735.735 0 0 0-.736.736v.764c.75.433 1.603.76 2.568.975 1.8.37 3.617.507 5.453.412a15.614 15.614 0 0 0 4.764-.825c.428-.157.83-.343 1.205-.558v-.768a.735.735 0 0 0-.736-.736z" style="opacity:.35;fill:#fff"/><path d="M18.453 11.39a8.5 8.5 0 0 0-8.5 8.5 8.5 8.5 0 0 0 .574 3.065c.831.054 1.665.059 2.502.014a15.597 15.597 0 0 0 4.768-.824c1.905-.698 3.285-1.967 4.135-3.811.458-1.063.756-2.168.896-3.318.086-.772.137-1.543.158-2.315a8.5 8.5 0 0 0-4.533-1.31Z" style="fill:#f9f9f9;fill-opacity:1;stroke-width:2.00803;paint-order:markers stroke fill"/><path d="M18.06 13.518A1.584 1.584 0 0 0 16.48 15.1a.783.783 0 0 1-.79.779.737.737 0 0 1-.367-.104.398.398 0 0 0-.005-.002 1.594 1.594 0 0 0-2.165.584l-.412.676a.398.398 0 0 0-.003.01 1.592 1.592 0 0 0 .576 2.164.79.79 0 0 1 0 1.371 1.588 1.588 0 0 0-.576 2.16l.136.239.157-.008c.249-.004.497-.014.744-.03l-.346-.597a.78.78 0 0 1 .285-1.072 1.59 1.59 0 0 0 0-2.752.783.783 0 0 1-.285-1.079l.408-.673a.398.398 0 0 0 .006-.008.785.785 0 0 1 1.08-.295 1.54 1.54 0 0 0 .762.213.398.398 0 0 0 .003 0c.864 0 1.574-.703 1.586-1.567a.398.398 0 0 0 .002 0 .398.398 0 0 0 0-.002.398.398 0 0 0 0-.002.398.398 0 0 0-.002-.002.783.783 0 0 1 .79-.789h.777a.791.791 0 0 1 .793.815.398.398 0 0 0 0 .015 1.582 1.582 0 0 0 2.377 1.332.783.783 0 0 1 .568-.087c.062-.257.115-.515.16-.776a1.594 1.594 0 0 0-1.123.17.398.398 0 0 0-.006.004.785.785 0 0 1-1.076-.281.737.737 0 0 1-.103-.37 1.59 1.59 0 0 0-1.588-1.619h-.78zm.393 3.984a2.394 2.394 0 0 0-2.39 2.389c0 1.061.698 1.969 1.66 2.279l.074-.025c1.234-.452 2.247-1.144 3.039-2.077a2.394 2.394 0 0 0-2.383-2.564zm0 .797c.884 0 1.592.708 1.592 1.594 0 .885-.708 1.593-1.592 1.593a1.59 1.59 0 0 1-1.594-1.593c0-.884.709-1.594 1.594-1.594z" style="font-variant-ligatures:normal;font-variant-position:normal;font-variant-caps:normal;font-variant-numeric:normal;font-variant-alternates:normal;font-variant-east-asian:normal;font-feature-settings:normal;font-variation-settings:normal;text-indent:0;text-decoration-line:none;text-decoration-style:solid;text-decoration-color:#000;text-transform:none;text-orientation:mixed;white-space:normal;shape-padding:0;shape-margin:0;inline-size:0;isolation:auto;mix-blend-mode:normal;fill:#666;fill-opacity:1;stroke-width:2.00803"/></svg>