<svg xmlns="http://www.w3.org/2000/svg" width="24" height="24" fill="none"><path fill="url(#a)" fill-rule="evenodd" d="M9.596 1.114c.12 0 .234-.014.344-.046a31.627 31.627 0 0 1 4.307.011c1.301.102 2.561.384 3.78.848 2.025.833 3.412 2.28 4.158 4.339.427 1.24.679 2.514.756 3.824a27.94 27.94 0 0 1-.114 4.923 11.88 11.88 0 0 1-.894 3.32c-.85 1.843-2.229 3.114-4.135 3.813a15.624 15.624 0 0 1-4.765.825 21.423 21.423 0 0 1-5.453-.413c-3.312-.737-5.354-2.756-6.128-6.056a19.047 19.047 0 0 1-.447-4.511 18.491 18.491 0 0 1 .515-4.786c.812-3.086 2.77-4.998 5.877-5.736a13.953 13.953 0 0 1 2.199-.355Z" clip-rule="evenodd"/><path fill="#fff" d="M12 4a7.999 7.999 0 0 0-6.14 2.887.475.475 0 0 0 .133.71l.294.176c.22.133.502.075.67-.12A6.667 6.667 0 0 1 12 5.335a6.667 6.667 0 0 1 0 13.332 6.667 6.667 0 0 1-5.045-2.317.529.529 0 0 0-.669-.12l-.294.177a.475.475 0 0 0-.134.71A7.999 7.999 0 0 0 12.001 20a8 8 0 0 0 0-16ZM4.753 7.772A.5.5 0 0 0 4 8.204v7.592a.5.5 0 0 0 .752.432l6.509-3.797a.5.5 0 0 0 0-.864L4.75 7.772ZM12 7.333a4.667 4.667 0 0 0-3.207 1.283c-.222.21-.16.565.102.722l.315.188c.203.122.461.082.642-.071A3.333 3.333 0 0 1 12 8.665a3.333 3.333 0 1 1-1.332 6.387c-.296-.13-.57-.3-.816-.508a.556.556 0 0 0-.642-.071l-.318.19c-.261.158-.323.513-.101.723a4.668 4.668 0 0 0 6.51-.086 4.668 4.668 0 0 0-1.515-7.613 4.665 4.665 0 0 0-1.786-.354Z"/><defs><radialGradient id="a" cx="0" cy="0" r="1" gradientTransform="matrix(0 22 -22 0 12 1)" gradientUnits="userSpaceOnUse"><stop stop-color="#CBF168"/><stop offset="1" stop-color="#71970E"/></radialGradient></defs></svg>