<svg xmlns="http://www.w3.org/2000/svg" xml:space="preserve" width="24" height="24" viewBox="0 0 6.35 6.35"><defs><radialGradient id="a" cx="0" cy="0" r="1" fx="0" fy="0" gradientTransform="matrix(0 16.5 -16.5 0 9 .75)" gradientUnits="userSpaceOnUse" spreadMethod="pad"><stop offset="0" style="stop-opacity:1;stop-color:#bddc95"/><stop offset="1" style="stop-opacity:1;stop-color:#73b72f"/></radialGradient><radialGradient id="b" cx="8.466" cy="11.641" r="7.408" fx="8.466" fy="11.641" gradientTransform="matrix(.74882 0 0 .37441 2.66 7.117)" gradientUnits="userSpaceOnUse" spreadMethod="pad"><stop offset="0" style="stop-opacity:1;stop-color:#4d8e34"/><stop offset="1" style="stop-opacity:1;stop-color:#5eab40"/></radialGradient></defs><path d="M7.195.836c.09 0 .176-.012.258-.035a23.86 23.86 0 0 1 3.231.008 10.26 10.26 0 0 1 2.836.636c1.519.625 2.558 1.711 3.121 3.254.316.93.507 1.887.566 2.867a21.227 21.227 0 0 1-.086 3.696 8.976 8.976 0 0 1-.672 2.488c-.637 1.383-1.672 2.336-3.101 2.859a11.693 11.693 0 0 1-3.575.618 15.998 15.998 0 0 1-4.089-.309c-2.481-.551-4.016-2.066-4.594-4.543a14.244 14.244 0 0 1-.336-3.383c-.027-1.215.101-2.41.387-3.59.609-2.312 2.078-3.746 4.406-4.3A10.27 10.27 0 0 1 7.195.836Z" style="fill:url(#a);fill-rule:evenodd;stroke:none" transform="scale(.35277)"/><path d="M14.547 11.477c0 1.531-2.485 2.773-5.547 2.773s-5.547-1.242-5.547-2.773c0-1.532 2.485-2.774 5.547-2.774s5.547 1.242 5.547 2.774z" style="fill:url(#b);stroke:none" transform="scale(.35277)"/><path d="M12.031 3.75c-1.879 0-2.23 2.852-1.176 2.852 1.059 0 3.051-2.852 1.176-2.852zm-2.98.324c-1.074.153-.699 2.176-.125 2.211.57.039 1.199-2.363.121-2.211Zm-1.946.629a.7.7 0 0 0-.175.043c-1.004.383-.153 1.957.41 1.852.527-.098.59-1.977-.235-1.895Zm-1.32 1.266a.562.562 0 0 0-.293.082c-.824.488.281 1.668.766 1.484.426-.16.156-1.547-.473-1.566Zm3.856.953c-1.481-.027-3.434.75-3.766 2.308-.359 1.688 1.484 4.032 3.41 4.032.945 0 2.039-.899 2.242-2.032.157-.863-1.961-.515-1.89.055.058.469-.188.711-.524.719-.461-.055-.683-.32-.746-.723-.082-1.054 3.238-1.808 2.977-3.441-.098-.598-.817-.902-1.703-.918Z" style="fill:#f9f9f9;fill-opacity:1;fill-rule:nonzero;stroke:none" transform="scale(.35277)"/></svg>