<svg xmlns="http://www.w3.org/2000/svg" width="24" height="24" fill="none"><defs><radialGradient id="a" cx="0" cy="0" r="1" gradientTransform="matrix(0 22 -22 0 12 1)" gradientUnits="userSpaceOnUse"><stop offset="0" stop-color="#8FC8FF" style="stop-color:#f6f6f6;stop-opacity:1"/><stop offset="1" stop-color="#0056A8" style="stop-color:#cfcfcf;stop-opacity:1"/></radialGradient></defs><path d="M50 5C9.09 5 5 25.455 5 50c0 32.727 12.273 45 45 45 32.727 0 45-12.273 45-45 0-24.545-4.09-45-45-45Z" style="font-variation-settings:normal;display:inline;opacity:1;vector-effect:none;fill:#04a;fill-opacity:1;stroke-width:4.56656;stroke-linecap:butt;stroke-linejoin:miter;stroke-miterlimit:4;stroke-dasharray:none;stroke-dashoffset:0;stroke-opacity:1;-inkscape-stroke:none;stop-color:#000;stop-opacity:1" transform="matrix(.24444 0 0 .24444 -.222 -.222)"/><path fill="#f9f9f9" d="m4.085 7.684-.098.192c.499.277 1.934.998 2.615 1.425.862.528 2.027 1.604 2.117 1.784-.897 1.56-.49 2.941-.595 3.088-.076.122-.78.896-.553 1.01.224.113.581-.063.636-.099.113-.068.228-.17.18.03-.096.405-.527 1.383.07 1.176.073-.041 1.034-1.1 1.148-1.136 1.91.497 4.045.268 4.44.084.206.013.79.38 1.122.556.331.173 1.237.607.969-.183-.083-.249-.679-.883-.582-.927.213-.084.739.22.94.277.607.17.688-.065.306-.583-.379-.517-.435-.437-.554-.677-.093-.19 0-.403.068-.454.123-.094 1.932-1.098 2.355-1.481.628-.573 0-1.284-.154-1.384-1.301-.938-2.638-.737-2.657-.886-.009-.17-.005-.659-.026-.829-.13-1.148-.663-.859-.735-.859-.53.084-.336.897-.11 1.66.016.197-.187.11-.305-.096-.407-1.095-.58-1.077-.694-1.108-.109-.026-.491.21-.484.652.002.126.151.728.151.913-.25.219-.261.718-.526.898-.766.16-2.606-.377-2.835-.402-.797-.15-1.142.45-1.272.305C7.99 9.446 6.412 8.568 5.73 8.416c-.266-.058-1.16-.452-1.482-.651-.052-.03-.11-.054-.167-.083M18.28 8.72c-.25.268-.205 1.27-.154 1.26.255-.052.231-1.34.154-1.26m.72.153c-.026-.083-.684.838-.568 1.178.052.146.658-.921.57-1.178m-3.406 1.564c.008-.008.02.003.03.013.075.254.16.493.662.555.059.006-.278.204-.511.081-.21-.126-.23-.59-.18-.648m1.3 1.27a.34.34 0 0 1 .112 0c.122.032-.89.56-.969.487-.048-.046.541-.427.858-.487m.263.335c.106.008-.585.725-.662.65-.058-.052.448-.667.662-.65" style="stroke-width:1.30962"/></svg>