<svg xmlns="http://www.w3.org/2000/svg" width="24" height="24" fill="none"><path fill="url(#a)" fill-rule="evenodd" d="M9.596 1.114c.12 0 .234-.014.344-.046a31.627 31.627 0 0 1 4.307.011c1.301.102 2.561.384 3.78.848 2.025.833 3.412 2.28 4.158 4.339.427 1.24.679 2.514.756 3.824a27.94 27.94 0 0 1-.114 4.923 11.88 11.88 0 0 1-.894 3.32c-.85 1.843-2.229 3.114-4.135 3.813a15.624 15.624 0 0 1-4.765.825 21.423 21.423 0 0 1-5.453-.413c-3.312-.737-5.354-2.756-6.128-6.056a19.047 19.047 0 0 1-.447-4.511 18.491 18.491 0 0 1 .515-4.786c.812-3.086 2.77-4.998 5.877-5.736a13.953 13.953 0 0 1 2.199-.355Z" clip-rule="evenodd"/><path fill="#fff" d="M15.49 9.176c-.983-1.14-1.865-1.877-3.173.043-.78 1.14-5.45 7.684-6.306 8.725-.25.302-.396.51-.585.637 0-.416 3.225-5.675 4.125-7.2 1.086-1.83 1.052-1.723.922-1.723-.183 0-.558.28-1.126.903-1.038 1.14-4.11 5.38-4.324 5.316.074-.308 2.48-4.105 3.572-5.675.939-1.353.58-1.459.041-1.325-2.298.567-5.045 1.928-5.136 1.877.034-.07 9.26-6.745 10.492-6.871.143-.017.445-.28.984-.5.586-.237.98-.434 1.077-.371-.429.618-.652.742-.657.94-.006.326-.118.851-.242 1.021 2.384 1.635 3.316 7.206 3.994 11.69.161 1.062.314 1.863.352 2.337-.2-.533-2.107-7.615-4.014-9.824"/><defs><radialGradient id="a" cx="0" cy="0" r="1" gradientTransform="matrix(0 22 -22 0 12 1)" gradientUnits="userSpaceOnUse"><stop stop-color="#6196DD"/><stop offset="1" stop-color="#184480"/></radialGradient></defs></svg>