<svg xmlns="http://www.w3.org/2000/svg" width="24" height="24" viewBox="0 0 6.35 6.35"><defs><radialGradient id="a" cx="0" cy="0" r="1" fx="0" fy="0" gradientTransform="rotate(90 1.455 1.72) scale(5.82072)" gradientUnits="userSpaceOnUse" spreadMethod="pad"><stop offset="0" style="stop-color:#fbcfcf;stop-opacity:1"/><stop offset="1" style="stop-color:#ff8080;stop-opacity:1"/></radialGradient></defs><path d="M2.538.295A.335.335 0 0 0 2.63.283c.38-.025.76-.024 1.14.002a3.62 3.62 0 0 1 1 .225c.536.22.903.603 1.101 1.148.112.328.18.665.2 1.011.028.436.018.87-.03 1.304a3.166 3.166 0 0 1-.237.878c-.225.487-.59.824-1.094 1.008a4.125 4.125 0 0 1-1.261.218 5.643 5.643 0 0 1-1.443-.109C1.13 5.774.588 5.24.385 4.366a5.025 5.025 0 0 1-.12-1.194c-.009-.427.036-.85.137-1.266C.617 1.09 1.135.584 1.957.389c.191-.047.386-.079.581-.094Z" style="fill:url(#a);fill-rule:evenodd;stroke:none;stroke-width:.352683;stroke-dasharray:none"/><path d="m4.326.367-.028 1.047c-.014.548.437 1 1.011 1.016l.747.02a3.914 3.914 0 0 0-.151-.733A1.899 1.899 0 0 0 4.835.533a3.594 3.594 0 0 0-.51-.166Z" style="opacity:.727273;mix-blend-mode:normal;fill:#f8f9f9;fill-opacity:1;stroke-width:.637964;paint-order:stroke fill markers"/><path d="M4.882 3.014a2.249 2.249 0 0 0-2.249 2.249 2.249 2.249 0 0 0 .152.81c.22.015.44.016.662.004.433-.007.854-.08 1.262-.218.504-.185.869-.52 1.094-1.008.121-.281.2-.574.237-.878.023-.204.036-.408.042-.613a2.249 2.249 0 0 0-1.2-.346Z" style="fill:#ff8080;fill-opacity:1;stroke-width:.531281;paint-order:markers stroke fill"/><path fill="#fff" fill-rule="evenodd" d="M5.537 4.325a.105.105 0 0 0-.075.027l-.408.363a.102.102 0 0 0-.029.112c-.028.027-.007.15-.014.193-.01.053-.119.077-.21.073a.493.493 0 0 0-.314.105c-.047.042-.412.633-.386.68.015.027.772-.307 1.009-.456.042-.027.04-.06.033-.115-.005-.037-.02-.075-.033-.108-.056-.083-.037-.206.001-.29.034.01.072.004.1-.021l.409-.363a.102.102 0 0 0 .008-.146l-.018-.02a.105.105 0 0 0-.072-.034" opacity=".35" style="stroke-width:.291661"/><path d="M4.855 4.177c-.233.004-.518.076-.518.386 0 .085.08.154.154.154s.155-.07.155-.155v-.077c0-.068.069-.154.231-.154s.232.108.232.232c0 .309-.31.309-.31.926h.156c0-.533.462-.494.462-.926 0-.247-.27-.386-.54-.386h-.022zm.022 1.542a.154.154 0 0 0-.153.134c.084-.031.164-.067.24-.107a.154.154 0 0 0-.087-.027z" style="fill:#fff;fill-opacity:1;stroke-width:.531281;paint-order:markers stroke fill"/></svg>