<svg xmlns="http://www.w3.org/2000/svg" width="24" height="24" fill="none"><path fill="url(#a)" fill-rule="evenodd" d="M9.596 1.114c.12 0 .234-.014.344-.046a31.627 31.627 0 0 1 4.307.011c1.301.102 2.561.384 3.78.848 2.025.833 3.412 2.28 4.158 4.339.427 1.24.679 2.514.756 3.824a27.94 27.94 0 0 1-.114 4.923 11.88 11.88 0 0 1-.894 3.32c-.85 1.843-2.229 3.114-4.135 3.813a15.624 15.624 0 0 1-4.765.825 21.423 21.423 0 0 1-5.453-.413c-3.312-.737-5.354-2.756-6.128-6.056a19.047 19.047 0 0 1-.447-4.511 18.491 18.491 0 0 1 .515-4.786c.812-3.086 2.77-4.998 5.877-5.736a13.953 13.953 0 0 1 2.199-.355Z" clip-rule="evenodd"/><path fill="#000" d="M7.25 4.286h1.286v1.283H7.25" opacity=".1"/><path fill="#FF9409" d="m12.072 8.786-3.215 5.786h6.43m-2.058-1.286h-2.315l1.157-2.186"/><path fill="#F9F9F9" d="M5.643 3v1.929h.643v.643H5V7.5h1.286v9H5v1.928h1.286v.564h-.643L6.928 21l1.286-2.008H7.57v-.564h5.786A6.415 6.415 0 0 0 19.785 12a6.415 6.415 0 0 0-6.428-6.428H7.572v-.643h.642V3h-2.57Zm1.929 4.5h5.785a4.49 4.49 0 0 1 4.5 4.5 4.49 4.49 0 0 1-4.5 4.5H7.572v-9Z"/><defs><radialGradient id="a" cx="0" cy="0" r="1" gradientTransform="matrix(0 22 -22 0 12 1)" gradientUnits="userSpaceOnUse"><stop stop-color="#5E5E5E"/><stop offset="1" stop-color="#3D3D3D"/></radialGradient></defs></svg>