<svg xmlns="http://www.w3.org/2000/svg" xml:space="preserve" width="24" height="24" version="1"><defs><clipPath id="b" clipPathUnits="userSpaceOnUse"><path d="M0 0h19v19H0Z"/></clipPath><clipPath id="c" clipPathUnits="userSpaceOnUse"><path d="M0 0h19v19H0Z"/></clipPath><radialGradient id="a" cx="0" cy="0" r="1" fx="0" fy="0" gradientTransform="matrix(0 16.5 -16.5 0 9 .75)" gradientUnits="userSpaceOnUse" spreadMethod="pad"><stop offset="0" style="stop-opacity:1;stop-color:#a4a4a4"/><stop offset="1" style="stop-opacity:1;stop-color:#626262"/></radialGradient></defs><path d="M7.195.836c.09 0 .176-.012.258-.035a23.86 23.86 0 0 1 3.231.008 10.26 10.26 0 0 1 2.836.636c1.519.625 2.558 1.711 3.121 3.254.316.93.507 1.887.566 2.867a21.227 21.227 0 0 1-.086 3.696 8.976 8.976 0 0 1-.672 2.488c-.637 1.383-1.672 2.336-3.101 2.859a11.693 11.693 0 0 1-3.575.618 15.998 15.998 0 0 1-4.089-.309c-2.481-.551-4.016-2.066-4.594-4.543a14.244 14.244 0 0 1-.336-3.383c-.027-1.215.101-2.41.387-3.59.609-2.312 2.078-3.746 4.406-4.3A10.27 10.27 0 0 1 7.195.836Z" style="fill:url(#a);fill-rule:evenodd;stroke:none" transform="matrix(1.33333 0 0 1.33333 0 0)"/><g clip-path="url(#b)" opacity=".75" transform="matrix(1.33333 0 0 1.33333 0 0)"><path d="M14.516 9a5.525 5.525 0 0 0-.414-2.113 5.548 5.548 0 0 0-1.196-1.793 5.548 5.548 0 0 0-1.793-1.196A5.45 5.45 0 0 0 9 3.484a5.45 5.45 0 0 0-2.113.414 5.548 5.548 0 0 0-1.793 1.196 5.548 5.548 0 0 0-1.196 1.793A5.45 5.45 0 0 0 3.484 9a5.45 5.45 0 0 0 .414 2.113 5.548 5.548 0 0 0 1.196 1.793 5.548 5.548 0 0 0 1.793 1.196A5.525 5.525 0 0 0 9 14.516a5.525 5.525 0 0 0 2.113-.414 5.548 5.548 0 0 0 1.793-1.196 5.548 5.548 0 0 0 1.196-1.793A5.525 5.525 0 0 0 14.516 9ZM11.02 9A2.01 2.01 0 0 1 9 11.02a2.01 2.01 0 0 1-1.43-.59 1.949 1.949 0 0 1-.437-.657A2.01 2.01 0 0 1 6.98 9c0-1.109.821-2.02 2.02-2.02s2.02.93 2.02 2.02z" style="fill:#fa4d6f;fill-opacity:1;fill-rule:nonzero;stroke:none"/></g><g clip-path="url(#c)" opacity=".35" transform="scale(1.33333)"><path d="M9 6.242c-.363 0-.723.07-1.055.207a2.79 2.79 0 0 0-1.496 1.496 2.785 2.785 0 0 0 0 2.11 2.79 2.79 0 0 0 1.496 1.496c.336.137.692.207 1.055.207A2.753 2.753 0 0 0 11.758 9 2.753 2.753 0 0 0 9 6.242Zm0 1.379c.18 0 .359.035.527.102.168.07.321.172.45.3.125.129.226.282.296.45a1.352 1.352 0 0 1 0 1.054c-.07.168-.171.321-.3.45a1.28 1.28 0 0 1-.446.296 1.385 1.385 0 0 1-1.504-.296A1.38 1.38 0 0 1 9 7.621Z" style="fill:#a34456;fill-opacity:1;fill-rule:nonzero;stroke:none"/></g></svg>