<svg xmlns="http://www.w3.org/2000/svg" xml:space="preserve" width="24" height="24" fill="none"><defs><radialGradient id="a" cx="0" cy="0" r="1" gradientTransform="matrix(0 22 -22 0 12 1)" gradientUnits="userSpaceOnUse"><stop offset="0" stop-color="#8FC8FF" style="stop-color:#f6f6f6;stop-opacity:1"/><stop offset="1" stop-color="#0056A8" style="stop-color:#cfcfcf;stop-opacity:1"/></radialGradient></defs><path d="M50 5C9.09 5 5 25.455 5 50c0 32.727 12.273 45 45 45 32.727 0 45-12.273 45-45 0-24.545-4.09-45-45-45Z" style="font-variation-settings:normal;display:inline;opacity:1;vector-effect:none;fill:#3d424e;fill-opacity:1;stroke-width:4.56656;stroke-linecap:butt;stroke-linejoin:miter;stroke-miterlimit:4;stroke-dasharray:none;stroke-dashoffset:0;stroke-opacity:1;-inkscape-stroke:none;stop-color:#000;stop-opacity:1" transform="matrix(.24444 0 0 .24444 -.222 -.222)"/><path fill="#fff" d="M11.328 1.774c-.922-.032-1.98.119-2.602.41-2.552 1.065-3.839 5.55-6.537 5.29-.94-.112-1.67-.604-2.224-1.5-.879.28-.756 2.43-.214 3.55C1.938 14.017 6 15.96 10.585 14.861c3.545-1.06 5.912-3.748 6.218-7.131.024-.188.037-.324.05-.47.056-.19.173-.264.423-.42.447-.276.451-.382-.071-.56-.313-.109-.458-.202-.678-.962-1.205-2.424-3.26-3.465-5.2-3.545Zm1.336 2.457a.788.788 0 1 1 0 1.574.788.788 0 0 1 0-1.576zm.268.313a.263.263 0 1 0 0 .525.263.263 0 0 0 0-.525zM7.252 7.52a1.621 1.621 0 0 1 .257.03c.548.104 1.129.73 1.196 1.296.064.549-.311 1.261-.82 1.546-.361.203-1.216.315-1.896.253-.596-.059-1.965-.342-2.354-.488l-.337-.13.937-.458c.782-.38 1.024-.567 1.464-1.14.51-.662.972-.939 1.553-.909Z" style="stroke-width:2.15904" transform="matrix(.76569 0 0 .76569 5.519 5.517)"/></svg>