<svg xmlns="http://www.w3.org/2000/svg" xml:space="preserve" width="24" height="24" fill="none"><defs><radialGradient id="a" cx="0" cy="0" r="1" gradientTransform="matrix(0 22 -22 0 12 1)" gradientUnits="userSpaceOnUse"><stop offset="0" stop-color="#8FC8FF" style="stop-color:#f6f6f6;stop-opacity:1"/><stop offset="1" stop-color="#0056A8" style="stop-color:#cfcfcf;stop-opacity:1"/></radialGradient></defs><path d="M50 5C9.09 5 5 25.455 5 50c0 32.727 12.273 45 45 45 32.727 0 45-12.273 45-45 0-24.545-4.09-45-45-45Z" style="font-variation-settings:normal;display:inline;opacity:1;vector-effect:none;fill:#225a84;fill-opacity:1;stroke-width:4.56656;stroke-linecap:butt;stroke-linejoin:miter;stroke-miterlimit:4;stroke-dasharray:none;stroke-dashoffset:0;stroke-opacity:1;-inkscape-stroke:none;stop-color:#000;stop-opacity:1" transform="matrix(.24444 0 0 .24444 -.222 -.222)"/><path fill="#fff" d="M12.052 5a7 7 0 0 0-6.999 6.996v5.918c0 .602.484 1.086 1.086 1.086h5.916a7 7 0 0 0-.003-14Zm2.11 1.534c.281 0 .481.033.74.1.381.099.69.411.69.773 0 .437-.316.756-.792.756-.225 0-.307-.045-.638-.045-.977 0-1.77.794-1.77 1.77v1.53a.248.248 0 0 0 .247.252h1.166a.781.781 0 1 1 0 1.563H12.39v1.787a3.357 3.357 0 0 1-3.356 3.357c-.282 0-.482-.033-.741-.101-.38-.1-.691-.41-.691-.772 0-.439.317-.756.793-.756.225 0 .308.043.639.043.977 0 1.769-.792 1.77-1.77v-1.537a.25.25 0 0 0-.25-.251H9.393A.782.782 0 1 1 9.4 11.67h1.405V9.891a3.357 3.357 0 0 1 3.357-3.357z"/></svg>