<svg xmlns="http://www.w3.org/2000/svg" xml:space="preserve" width="24" height="24" fill="none"><defs><radialGradient id="a" cx="0" cy="0" r="1" gradientTransform="matrix(0 22 -22 0 12 1)" gradientUnits="userSpaceOnUse"><stop offset="0" stop-color="#8FC8FF" style="stop-color:#f6f6f6;stop-opacity:1"/><stop offset="1" stop-color="#0056A8" style="stop-color:#cfcfcf;stop-opacity:1"/></radialGradient></defs><path d="M50 5C9.09 5 5 25.455 5 50c0 32.727 12.273 45 45 45 32.727 0 45-12.273 45-45 0-24.545-4.09-45-45-45Z" style="font-variation-settings:normal;display:inline;opacity:1;vector-effect:none;fill:#49bf3d;fill-opacity:1;stroke-width:4.56656;stroke-linecap:butt;stroke-linejoin:miter;stroke-miterlimit:4;stroke-dasharray:none;stroke-dashoffset:0;stroke-opacity:1;-inkscape-stroke:none;stop-color:#000;stop-opacity:1" transform="matrix(.24444 0 0 .24444 -.222 -.222)"/><path fill="#fff" d="M12.002 4a7.998 7.998 0 1 0 0 15.997 7.998 7.998 0 0 0 0-15.997zm0 1.778a6.222 6.222 0 1 1 0 12.441 6.174 6.174 0 0 1-4.223-1.666c.359-.05.926-.057 1.666.028 1.083.123 1.676.164 2.388.111 1.625-.122 2.698-.39 3.889-.973.623-.302.755-.44.888-.804.13-.346.177-.667.113-.667-.025 0-.229.079-.472.194-.917.435-1.72.648-2.419.612-.723-.037-1.893-.46-3.302-1.139l-.667-.306-.5-1.249.472.304a14.028 14.028 0 0 0 2.917 1.417c1.213.384 2.16.331 3.136-.166.346-.176 1.001-.604 1.001-.667 0-.113-.336-1.24-.529-1.75-.48-1.273-.818-1.703-1.61-2.081-.88-.42-1.855-.705-3.638-1.111-.85-.182-1.69-.365-2.555-.473L8.53 8.888a28.755 28.755 0 0 0-1.638-.444 6.235 6.235 0 0 1 5.11-2.664Zm1.471 4.498a1.323 1.323 0 0 1 1.304 1.028c.085.33.059.567-.11.916a1.277 1.277 0 0 1-1.388.696 1.298 1.298 0 0 1-.973-.75c-.23-.501-.123-1.166.277-1.529a1.374 1.374 0 0 1 .888-.359zm.305.696c-.465 0-.756.34-.5.582.209.196.556.226.832.085.181-.093.242-.233.197-.416-.034-.138-.303-.251-.53-.251Z" overflow="visible"/></svg>