<svg xmlns="http://www.w3.org/2000/svg" xml:space="preserve" width="24" height="24" fill="none"><defs><radialGradient id="a" cx="0" cy="0" r="1" gradientTransform="matrix(0 22 -22 0 12 1)" gradientUnits="userSpaceOnUse"><stop offset="0" stop-color="#8FC8FF" style="stop-color:#f6f6f6;stop-opacity:1"/><stop offset="1" stop-color="#0056A8" style="stop-color:#cfcfcf;stop-opacity:1"/></radialGradient></defs><path d="M50 5C9.09 5 5 25.455 5 50c0 32.727 12.273 45 45 45 32.727 0 45-12.273 45-45 0-24.545-4.09-45-45-45Z" style="font-variation-settings:normal;display:inline;opacity:1;vector-effect:none;fill:#4380b4;fill-opacity:1;stroke-width:4.56656;stroke-linecap:butt;stroke-linejoin:miter;stroke-miterlimit:4;stroke-dasharray:none;stroke-dashoffset:0;stroke-opacity:1;-inkscape-stroke:none;stop-color:#000;stop-opacity:1" transform="matrix(.24444 0 0 .24444 -.222 -.222)"/><path fill="#fff" d="M13.867 5a5.132 5.132 0 0 0-4.976 3.894A5.132 5.132 0 0 0 5 13.867V19h5.133a5.132 5.132 0 0 0 4.977-3.892A5.132 5.132 0 0 0 19 10.134V5Zm0 .734h4.399v4.399a4.4 4.4 0 0 1-3.021 4.173 5.132 5.132 0 0 0 .021-.439 5.132 5.132 0 0 0-5.132-5.135 5.132 5.132 0 0 0-.443.022 4.4 4.4 0 0 1 4.176-3.021Zm-3.733 3.734a4.4 4.4 0 0 1 4.398 4.398 4.4 4.4 0 0 1-.05.618 4.4 4.4 0 0 1-.615.05 4.4 4.4 0 0 1-4.4-4.4 4.4 4.4 0 0 1 .05-.618 4.4 4.4 0 0 1 .617-.05Zm-1.379.226a5.132 5.132 0 0 0-.021.44 5.132 5.132 0 0 0 5.133 5.132 5.132 5.132 0 0 0 .442-.021 4.4 4.4 0 0 1-4.175 3.02H5.736v-4.398a4.4 4.4 0 0 1 3.02-4.173Z"/></svg>