<svg xmlns="http://www.w3.org/2000/svg" xml:space="preserve" width="24" height="24" fill="none"><defs><radialGradient id="a" cx="0" cy="0" r="1" gradientTransform="matrix(0 22 -22 0 12 1)" gradientUnits="userSpaceOnUse"><stop offset="0" stop-color="#8FC8FF" style="stop-color:#f6f6f6;stop-opacity:1"/><stop offset="1" stop-color="#0056A8" style="stop-color:#cfcfcf;stop-opacity:1"/></radialGradient></defs><path d="M50 5C9.09 5 5 25.455 5 50c0 32.727 12.273 45 45 45 32.727 0 45-12.273 45-45 0-24.545-4.09-45-45-45Z" style="font-variation-settings:normal;display:inline;opacity:1;vector-effect:none;fill:#04a;fill-opacity:1;stroke-width:4.56656;stroke-linecap:butt;stroke-linejoin:miter;stroke-miterlimit:4;stroke-dasharray:none;stroke-dashoffset:0;stroke-opacity:1;-inkscape-stroke:none;stop-color:#000;stop-opacity:1" transform="matrix(.24444 0 0 .24444 -.222 -.222)"/><g fill="#fff"><path d="M15.676 4.98c-.033.02-.05.039-.04.026-.38.645-.385 1.49-.557 2.248a.281.281 0 0 1 0 .038c-.084.83-.355 1.675-.138 2.472a.281.281 0 0 1 .023.05c.04.053.09.1.12.107.024.004.057-.006.136-.06.084-.06.139-.168.165-.325a.281.281 0 0 1 .048-.116c.34-1.35.582-2.767.491-4.155a.281.281 0 0 1 0-.015c-.011-.064-.031-.102-.092-.176a.637.637 0 0 0-.08-.085c-.01-.008 0-.01-.04-.006a.281.281 0 0 1-.036-.002Zm3.129.657a.263.263 0 0 1-.028 0c-.586.286-.887.976-1.29 1.528a.263.263 0 0 1-.032.078c-.509.903-1.157 1.799-1.226 2.844.003.165.097.26.195.28a.377.377 0 0 0 .33-.143c.005-.017 0-.03.01-.043a.263.263 0 0 1 .007-.01c.924-1.27 1.622-2.778 2.196-4.241a.263.263 0 0 1 .001-.003c.04-.098.042-.134.007-.207-.01-.021-.114-.09-.17-.083Z"/><path d="M9.714 6.059c-.094.017-.233.1-.334.14-.352.133-.545.437-.631.79-.085.363-.057.765 0 1.176.057.41.138.834.228 1.158.077.28.132.416.158.51v.069c0 .03-.014.028-.034.052-.012.007.01.035 0 .035a.149.149 0 0 1-.088.037c-.063.003-.112-.02-.177-.037-.043-.01-.099-.044-.087-.033-.02-.013-.057-.016-.07-.036 0 .008.012.008 0-.017-.015-.028-.03-.094-.053-.142-.05-.106-.09-.23-.157-.385a14.021 14.021 0 0 0-.51-1.053 3.386 3.386 0 0 0-.684-.913 1.15 1.15 0 0 0-.438-.263.711.711 0 0 0-.474.07 1.432 1.432 0 0 0-.703.948c-.086.377-.045.814.018 1.193.065.38.165.69.228.947.028.11.061.21.07.265a1.541 1.541 0 0 1-.033.244c-.066.232-.23.615-.23.615s-3.062 8.133 3.51 7.563c.055-.003.177-.035.228-.035 1.29-.26 2.513-.65 3.598-1.088.213-.102.493-.203.807-.35a39.718 39.718 0 0 0 2.176-1.088c.759-.418 1.463-.862 2-1.334.54-.473.933-.992.86-1.51-.115-.833-.668-1.452-1.403-1.93-.74-.479-1.66-.811-2.58-1.053a26.344 26.344 0 0 0-2.492-.545c-.34-.052-.66-.067-.86-.105-.059-.01-.09-.024-.123-.034-.017-.002-.019-.009-.033-.017-.022-.013-.06-.015-.071-.036-.012-.02 0-.046 0-.07v-.544a11.053 11.053 0 0 0-.124-1.493c-.088-.519-.224-1.015-.508-1.35a.995.995 0 0 0-.703-.351.959.959 0 0 0-.28 0z"/></g></svg>