<svg xmlns="http://www.w3.org/2000/svg" xml:space="preserve" width="24" height="24" fill="none"><defs><radialGradient id="a" cx="0" cy="0" r="1" gradientTransform="matrix(0 22 -22 0 12 1)" gradientUnits="userSpaceOnUse"><stop offset="0" stop-color="#8FC8FF" style="stop-color:#f6f6f6;stop-opacity:1"/><stop offset="1" stop-color="#0056A8" style="stop-color:#cfcfcf;stop-opacity:1"/></radialGradient></defs><path d="M50 5C9.09 5 5 25.455 5 50c0 32.727 12.273 45 45 45 32.727 0 45-12.273 45-45 0-24.545-4.09-45-45-45Z" style="font-variation-settings:normal;display:inline;opacity:1;vector-effect:none;fill:#3d424e;fill-opacity:1;stroke-width:4.56656;stroke-linecap:butt;stroke-linejoin:miter;stroke-miterlimit:4;stroke-dasharray:none;stroke-dashoffset:0;stroke-opacity:1;-inkscape-stroke:none;stop-color:#000;stop-opacity:1" transform="matrix(.24444 0 0 .24444 -.222 -.222)"/><path fill="#fff" d="M12.001 4a7.999 7.999 0 0 0-8 8 7.999 7.999 0 0 0 8 8A7.999 7.999 0 0 0 20 12a7.999 7.999 0 0 0-7.999-8Zm2.14 1.87c.226-.003.413.023.636.06.816.132 1.603.655 2.101 1.52.675 1.168.516 2.646-.238 3.458-.41.378-.497.407-.75.579.174-.273.204-.325.246-.577-.01-.14-.006-.198-.08-.387a1.013 1.013 0 0 0-.453-.49 1.636 1.636 0 0 0-.705-.14c-.142 0-.229-.003-.42.025-.876.242-1.859-.094-2.32-.895-.552-.957-.151-2.225.84-2.795a2.362 2.362 0 0 1 .9-.338c.087-.012.167-.016.242-.02ZM8.321 8.477c.142.004.28.023.416.055.531.165.599.225.875.36-.321-.014-.384-.016-.622.075-.117.077-.17.104-.295.263a1.013 1.013 0 0 0-.198.636 1.636 1.636 0 0 0 .23.68c.072.123.112.2.233.35.648.64.847 1.66.384 2.459-.552.958-1.852 1.241-2.84.67a2.362 2.362 0 0 1-.743-.612 2.85 2.85 0 0 1-.406-.782c-.295-.771-.235-1.714.264-2.58.592-1.022 1.706-1.611 2.7-1.575Zm6.18 5.15c1.105 0 2 .982 2 2.125 0 .337-.032.654-.158.949-.138.321-.284.506-.473.74-.521.643-1.37 1.06-2.37 1.06-1.347 0-2.55-.876-2.873-1.936-.123-.542-.104-.631-.125-.937.15.287.178.34.374.499.127.064.176.094.376.126a1.02 1.02 0 0 0 .65-.15 1.63 1.63 0 0 0 .474-.538c.07-.122.12-.196.19-.376.226-.88 1.012-1.56 1.936-1.56z"/></svg>