<svg xmlns="http://www.w3.org/2000/svg" xml:space="preserve" width="24" height="24" fill="none"><defs><radialGradient id="a" cx="0" cy="0" r="1" gradientTransform="matrix(0 22 -22 0 12 1)" gradientUnits="userSpaceOnUse"><stop offset="0" stop-color="#8FC8FF" style="stop-color:#f6f6f6;stop-opacity:1"/><stop offset="1" stop-color="#0056A8" style="stop-color:#cfcfcf;stop-opacity:1"/></radialGradient></defs><path d="M50 5C9.09 5 5 25.455 5 50c0 32.727 12.273 45 45 45 32.727 0 45-12.273 45-45 0-24.545-4.09-45-45-45Z" style="font-variation-settings:normal;display:inline;opacity:1;vector-effect:none;fill:#1d89db;fill-opacity:1;stroke-width:4.56656;stroke-linecap:butt;stroke-linejoin:miter;stroke-miterlimit:4;stroke-dasharray:none;stroke-dashoffset:0;stroke-opacity:1;-inkscape-stroke:none;stop-color:#000;stop-opacity:1" transform="matrix(.24444 0 0 .24444 -.222 -.222)"/><path fill="#fff" fill-rule="evenodd" d="M12.003 4.002a7.992 7.992 0 0 0-7.983 7.686c2.65-1.87 7.16-4.94 8.28-5.022.37-.47 1.647-.85 1.877-.84l-.67.84s-.012.85-.26 1.015c2.311 1.543 3.415 7.085 3.887 10.448l-.198.158A7.977 7.977 0 0 0 20 12.002a7.997 7.997 0 0 0-7.997-8Zm-.114 6.571c-.623.02-1.885 1.876-3.325 3.864-.692.956-1.587 2.263-2.248 3.17l-.473-.52c1.353-2.217 3.04-4.925 2.959-5.025-.019-.01-.04-.024-.066-.019-.457.068-2.301 2.364-3.618 4.015A7.988 7.988 0 0 0 12.003 20a7.954 7.954 0 0 0 4.75-1.574c-.985-3.01-2.888-7.818-4.8-7.829-.019-.004-.045-.023-.064-.023Zm-4.642.779c-.567-.004-2.021.51-3.227.973a7.91 7.91 0 0 0 .87 3.32c.241-.367.66-.968.912-1.336.958-1.41 1.9-2.657 1.681-2.914-.038-.043-.124-.043-.236-.043Zm-3.236.504c0 .05-.008.095-.008.146 0 .066.01.132.011.198zm.893 3.82c.05.097.102.191.155.286z" overflow="visible"/></svg>