<svg xmlns="http://www.w3.org/2000/svg" xml:space="preserve" width="24" height="24" fill="none"><defs><radialGradient id="a" cx="0" cy="0" r="1" gradientTransform="matrix(0 22 -22 0 12 1)" gradientUnits="userSpaceOnUse"><stop offset="0" stop-color="#8FC8FF" style="stop-color:#f6f6f6;stop-opacity:1"/><stop offset="1" stop-color="#0056A8" style="stop-color:#cfcfcf;stop-opacity:1"/></radialGradient></defs><path d="M50 5C9.09 5 5 25.455 5 50c0 32.727 12.273 45 45 45 32.727 0 45-12.273 45-45 0-24.545-4.09-45-45-45Z" style="font-variation-settings:normal;display:inline;opacity:1;vector-effect:none;fill:#2883b6;fill-opacity:1;stroke-width:4.56656;stroke-linecap:butt;stroke-linejoin:miter;stroke-miterlimit:4;stroke-dasharray:none;stroke-dashoffset:0;stroke-opacity:1;-inkscape-stroke:none;stop-color:#000;stop-opacity:1" transform="matrix(.24444 0 0 .24444 -.222 -.222)"/><path fill="#fff" d="M10.896 4c.381 1.02.834 2.18 1.51 3.064-.744-.368-1.571-.613-2.218-1.137.08.204.051.424.044.596a9.051 9.051 0 0 1-1.62-.642c.136.255.158.528.124.766-.555.051-1.156-.122-1.668-.214.234.212.345.493.44.776-.548.095-1.113.196-1.668.248.235.159.409.389.543.608-.43.361-.975.686-1.42.959a1.086 1.086 0 0 1 .789.212 16.077 16.077 0 0 1-.959 1.498 3.439 3.439 0 0 1 .834-.124c-.105.6-.18 1.226-.405 1.79.25-.181.521-.273.8-.37.268.454.295 1.197.394 1.597a.848.848 0 0 1 .439-.494c3.03 2.976 8.018 2.455 8.455 6.867.136-1.72-.677-2.935-1.62-3.77-.784-.695-4.35-2.346-4.517-2.455-3.066-2.033-2.652-4.779-.493-5.473a4.642 4.642 0 0 1 5.132 1.61c.3.38.727 1.074 1.127 1.374.758.568 3.466 1.888 2.399 3.456.927-.239 1.636-.903 1.869-1.834-.727-.311-1.822-.97-1.735-1.893.106-.044.221-.034.339-.034-2.445-4.256-3.097-2.775-5.551-6.732.306 1.096.973 2.447 1.777 3.198-1.333-.8-2.198-2.235-3.14-3.447Zm5.022 5.37c.277.387.51.818.844 1.15-.323-.113-1.608-.959-.844-1.15z"/></svg>