<svg xmlns="http://www.w3.org/2000/svg" xml:space="preserve" width="24" height="24" fill="none"><defs><radialGradient id="a" cx="0" cy="0" r="1" gradientTransform="matrix(0 22 -22 0 12 1)" gradientUnits="userSpaceOnUse"><stop offset="0" stop-color="#8FC8FF" style="stop-color:#f6f6f6;stop-opacity:1"/><stop offset="1" stop-color="#0056A8" style="stop-color:#cfcfcf;stop-opacity:1"/></radialGradient></defs><path d="M50 5C9.09 5 5 25.455 5 50c0 32.727 12.273 45 45 45 32.727 0 45-12.273 45-45 0-24.545-4.09-45-45-45Z" style="font-variation-settings:normal;display:inline;opacity:1;vector-effect:none;fill:#f6476b;fill-opacity:1;stroke-width:4.56656;stroke-linecap:butt;stroke-linejoin:miter;stroke-miterlimit:4;stroke-dasharray:none;stroke-dashoffset:0;stroke-opacity:1;-inkscape-stroke:none;stop-color:#000;stop-opacity:1" transform="matrix(.24444 0 0 .24444 -.222 -.222)"/><g style="display:inline"><rect width="2" height="2" x="12" y="-3" rx="0" ry="0" style="display:inline;fill:#3947be;fill-opacity:1;stroke-width:22.6872;paint-order:markers stroke fill"/><rect width="2" height="2" x="9" y="-3" rx="0" ry="0" style="display:inline;fill:#6c7ad8;fill-opacity:1;stroke-width:22.6873;paint-order:markers stroke fill"/><rect width="2" height="2" x="6" y="-3" rx="0" ry="0" style="display:inline;fill:#3c3;fill-opacity:1;stroke-width:22.6873;paint-order:markers stroke fill"/><rect width="2" height="2" x="3" y="-3" rx="0" ry="0" style="display:inline;fill:#ffc328;fill-opacity:1;stroke-width:22.6872;paint-order:markers stroke fill"/><rect width="2" height="2" y="-3" rx="0" ry="0" style="display:inline;fill:#cc5e55;fill-opacity:1;stroke-width:22.6873;paint-order:markers stroke fill"/><rect width="2" height="2" x="-3" y="12" rx="0" ry="0" style="display:inline;fill:#0bb1cb;fill-opacity:1;stroke-width:22.6872;paint-order:markers stroke fill"/><rect width="2" height="2" x="-3" y="9" rx="0" ry="0" style="display:inline;fill:#2a92c9;fill-opacity:1;stroke-width:22.6873;paint-order:markers stroke fill"/><rect width="2" height="2" x="-3" y="6" rx="0" ry="0" style="display:inline;fill:#069;fill-opacity:1;stroke-width:22.6873;paint-order:markers stroke fill"/><rect width="2" height="2" x="-3" y="3" rx="0" ry="0" style="display:inline;fill:#002a44;fill-opacity:1;stroke-width:22.6873;paint-order:markers stroke fill"/><rect width="2" height="2" x="-3" rx="0" ry="0" style="display:inline;fill:#2c2d3d;fill-opacity:1;stroke-width:22.6873;paint-order:markers stroke fill"/><rect width="2" height="2" x="-3" y="-3" rx="0" ry="0" style="display:inline;fill:#16171c;fill-opacity:1;stroke-width:22.6872;paint-order:markers stroke fill"/></g><path fill="#fff" d="M16.316 10.992c.014.379-.11.562-.222.886l-.202.1c-.165.322.017.205-.102.46-.258.23-.784.717-.951.762-.122 0 .083-.144.11-.199-.345.237-.277.356-.806.5l-.017-.035c-1.3.612-3.11-.602-3.087-2.259-.013.106-.04.08-.067.12-.067-.85.393-1.707 1.17-2.058.76-.375 1.654-.221 2.196.286-.298-.392-.893-.807-1.599-.769-.691.01-1.34.452-1.554.928-.354.223-.395.86-.55.976-.207 1.527.391 2.186 1.403 2.961.159.107.045.124.066.207a2.745 2.745 0 0 1-.898-.687c.136.197.281.387.468.538-.317-.108-.74-.769-.865-.795.546.978 2.216 1.716 3.092 1.349-.405.016-.919.008-1.374-.159-.191-.1-.45-.303-.405-.34 1.194.446 2.428.337 3.461-.49.263-.205.55-.554.633-.559-.125.189.022.091-.074.256.261-.421-.116-.172.27-.727l.142.195c-.053-.352.435-.777.385-1.331.112-.17.126.182.007.572.165-.433.043-.503.086-.86.046.12.105.248.137.376-.108-.419.109-.705.163-.948-.052-.023-.165.185-.191-.31.005-.214.06-.111.082-.164-.043-.025-.153-.189-.221-.505.05-.074.13.192.198.204-.044-.252-.117-.442-.12-.635-.194-.405-.068.054-.225-.174-.207-.643.17-.149.196-.441.311.453.49 1.154.572 1.445a5.911 5.911 0 0 0-.287-1.03c.096.04-.152-.728.124-.22-.295-1.085-1.263-2.1-2.153-2.576.107.099.246.224.197.244-.443-.264-.366-.284-.43-.396-.359-.146-.384.013-.622 0-.68-.361-.81-.321-1.438-.546l.03.132c-.45-.15-.525.056-1.013 0-.03-.023.157-.083.31-.106-.435.058-.415-.086-.842.015.106-.074.215-.122.329-.185-.355.021-.848.207-.696.038-.579.258-1.609.622-2.186 1.162l-.018-.12c-.265.317-1.154.949-1.224 1.36l-.072.017c-.138.232-.227.496-.336.736-.18.307-.265.119-.238.165-.354.72-.53 1.323-.681 1.819.107.16 0 .974.043 1.624-.18 3.212 2.253 6.33 4.912 7.05.39.14.969.134 1.462.149-.58-.165-.657-.09-1.224-.286-.408-.192-.496-.413-.787-.663l.116.202c-.569-.2-.33-.248-.794-.394l.122-.16c-.181-.014-.486-.31-.568-.475l-.202.008c-.241-.297-.37-.512-.362-.677l-.065.115c-.072-.127-.89-1.12-.466-.89-.08-.07-.182-.115-.298-.322l.088-.099c-.203-.261-.375-.597-.364-.711.111.149.186.175.26.2-.513-1.276-.542-.07-.933-1.298l.083-.006c-.063-.096-.102-.199-.152-.301l.035-.358c-.37-.428-.103-1.82-.05-2.584.036-.31.31-.641.516-1.16l-.126-.022C7.865 8.699 9 7.432 9.525 7.497c.256-.321-.05 0-.1-.083.56-.579.736-.408 1.113-.512.407-.242-.349.094-.157-.093.705-.18.5-.409 1.417-.5.098.055-.225.085-.304.156.585-.286 1.855-.222 2.679.16.959.447 2.033 1.77 2.075 3.013l.05.013c-.025.495.074 1.065-.1 1.59l.118-.247"/></svg>