<svg xmlns="http://www.w3.org/2000/svg" xml:space="preserve" width="24" height="24" fill="none"><defs><radialGradient id="a" cx="0" cy="0" r="1" gradientTransform="matrix(0 22 -22 0 12 1)" gradientUnits="userSpaceOnUse"><stop offset="0" stop-color="#8FC8FF" style="stop-color:#f6f6f6;stop-opacity:1"/><stop offset="1" stop-color="#0056A8" style="stop-color:#cfcfcf;stop-opacity:1"/></radialGradient></defs><path d="M50 5C9.09 5 5 25.455 5 50c0 32.727 12.273 45 45 45 32.727 0 45-12.273 45-45 0-24.545-4.09-45-45-45Z" style="font-variation-settings:normal;display:inline;opacity:1;vector-effect:none;fill:#f16f41;fill-opacity:1;stroke-width:4.56656;stroke-linecap:butt;stroke-linejoin:miter;stroke-miterlimit:4;stroke-dasharray:none;stroke-dashoffset:0;stroke-opacity:1;-inkscape-stroke:none;stop-color:#000;stop-opacity:1" transform="matrix(.24444 0 0 .24444 -.222 -.222)"/><path fill="#fff" d="M12.002 4a7.998 7.998 0 1 0 0 15.997 7.998 7.998 0 0 0 0-15.997zm2.85 2.229a1.065 1.065 0 0 1 .794 1.593 1.068 1.068 0 1 1-.794-1.593ZM12 7.359c.43 0 .846.059 1.241.168A1.498 1.498 0 0 0 15.25 8.69a4.622 4.622 0 0 1 1.377 3.01l-1.52.021a3.119 3.119 0 0 0-4.42-2.55l-.743-1.333a4.624 4.624 0 0 1 2.058-.48Zm-2.573.78.78 1.31a3.115 3.115 0 0 0 0 5.101l-.78 1.307a4.644 4.644 0 0 1-1.916-2.694 1.495 1.495 0 0 0 0-2.326A4.647 4.647 0 0 1 9.425 8.14zm-2.865 2.79a1.069 1.069 0 1 1 0 2.138 1.068 1.068 0 0 1 0-2.136zm8.545 1.344 1.521.025a4.625 4.625 0 0 1-1.378 3.006 1.493 1.493 0 0 0-2.009 1.164 4.635 4.635 0 0 1-3.297-.31l.743-1.33a3.117 3.117 0 0 0 4.42-2.553zm-.52 3.376a1.07 1.07 0 1 1 .261 2.123 1.07 1.07 0 0 1-.26-2.125z"/></svg>