<svg xmlns="http://www.w3.org/2000/svg" xml:space="preserve" width="24" height="24" fill="none"><defs><radialGradient id="a" cx="0" cy="0" r="1" gradientTransform="matrix(0 22 -22 0 12 1)" gradientUnits="userSpaceOnUse"><stop offset="0" stop-color="#8FC8FF" style="stop-color:#f6f6f6;stop-opacity:1"/><stop offset="1" stop-color="#0056A8" style="stop-color:#cfcfcf;stop-opacity:1"/></radialGradient></defs><path d="M50 5C9.09 5 5 25.455 5 50c0 32.727 12.273 45 45 45 32.727 0 45-12.273 45-45 0-24.545-4.09-45-45-45Z" style="font-variation-settings:normal;display:inline;opacity:1;vector-effect:none;fill:#f22c65;fill-opacity:1;stroke-width:4.56656;stroke-linecap:butt;stroke-linejoin:miter;stroke-miterlimit:4;stroke-dasharray:none;stroke-dashoffset:0;stroke-opacity:1;-inkscape-stroke:none;stop-color:#000;stop-opacity:1" transform="matrix(.24444 0 0 .24444 -.222 -.222)"/><path fill="#f22c65" d="M12 1a11 11 0 1 1 0 22 11 11 0 0 1 0-22z"/><g stroke-width=".103"><path fill="#282828" d="M9.658 5.48a.363.363 0 0 0-.216.09c-.198-.077-.39-.103-.56.052-.265-.034-.35.036-.416.119-.057 0-.434-.06-.606.197-.433-.05-.57.256-.415.54-.087.137-.18.273.028.535-.074.144-.03.303.143.492-.046.207.045.35.205.462-.03.28.257.442.342.5.032.162.102.318.428.403.054.243.251.285.442.335-.63.367-1.17.847-1.166 2.03l-.092.164c-.72.44-1.37 1.848-.354 2.997.064.359.175.616.275.9.148 1.15 1.115 1.69 1.37 1.753.373.285.77.554 1.31.744.508.523 1.059.723 1.612.723h.023c.554 0 1.104-.2 1.612-.723.539-.19.936-.46 1.309-.744.255-.062 1.222-.602 1.37-1.752.1-.285.211-.542.277-.901 1.016-1.147.367-2.558-.355-2.997l-.093-.166c.005-1.18-.536-1.663-1.165-2.028.19-.05.388-.092.441-.337.327-.085.396-.237.429-.4.086-.059.372-.222.341-.5.16-.113.25-.258.205-.463.173-.19.217-.348.145-.492.206-.262.114-.398.026-.535.154-.284.019-.59-.416-.538-.172-.26-.548-.2-.605-.2-.066-.082-.15-.153-.416-.118-.169-.154-.361-.129-.558-.052-.235-.185-.39-.037-.567.02-.283-.092-.348.034-.488.085-.308-.065-.402.077-.551.228l-.173-.005c-.466.276-.697.836-.779 1.124-.083-.288-.314-.848-.78-1.124l-.173.005c-.15-.151-.243-.293-.553-.228-.138-.051-.203-.179-.486-.085-.117-.037-.224-.114-.35-.11Zm2.336 3.66c.607-.004 1.356.453 1.355.886-.005.382-.528.69-1.349.685-.805-.01-1.347-.39-1.346-.759.002-.305.658-.828 1.34-.811Zm-2.063.258c.137 0 .277.01.42.034.42.07-2.022 2.202-2.059 1.726-.034-1.086.692-1.742 1.64-1.76Zm4 .037c.948.018 1.674.674 1.64 1.76-.037.477-2.48-1.657-2.057-1.728a2.16 2.16 0 0 1 .417-.03Zm-.404 1.324a1.569 1.33 55.966 0 1 1.032 2.807 1.569 1.33 55.966 1 1-1.73-2.618 1.569 1.33 55.966 0 1 .698-.189zm-2.994.074a1.33 1.569 34.034 0 1 .639.188 1.33 1.569 34.034 1 1-1.731 2.617 1.33 1.569 34.034 0 1 1.035-2.805 1.33 1.569 34.034 0 1 .057 0zm5.233.81c1.101.628.909 2.026.316 2.503-.539.24-.98-2.682-.316-2.503zm-7.665.037c.662-.179.225 2.742-.314 2.503-.594-.477-.785-1.875.314-2.503Zm3.965 1.874a1.483 1.367 0 0 1 1.448 1.375 1.483 1.367 0 1 1-2.966 0 1.483 1.367 0 0 1 1.518-1.375zm3.241.515a.487.487 0 0 1 .322.105c.262.262.416 1.25-.044 1.842-.635.88-1.494.914-1.814.67-.334-.316-.077-1.297.38-1.833.394-.446.808-.774 1.155-.785Zm-6.656.21c.374.015.82.31 1.186.734.423.511.617 1.41.263 1.674-.334.202-1.147.119-1.725-.711-.39-.698-.338-1.406-.066-1.614a.599.599 0 0 1 .342-.083Zm3.386 2.448c.596-.026 1.393.191 1.395.48.01.28-.724.915-1.435.903-.736.03-1.458-.604-1.449-.824-.01-.323.896-.574 1.489-.559Z"/><path fill="#75a928" d="M9.675 5.807c.065.08.154.16.06.251a1.417 1.417 0 0 0-.58-.226c.07.08.217.16.127.24a2.405 2.405 0 0 0-.552-.139c.097.082.178.162.098.225-.177-.055-.422-.13-.662-.066l.152.154c.016.021-.354.015-.6.02.09.126.182.248.234.465-.023.025-.145.01-.259 0 .117.25.32.314.368.42-.072.056-.17.042-.28.005.085.177.262.297.402.442-.035.024-.097.04-.243.021.129.14.285.268.47.382-.032.039-.145.039-.25.04.168.168.385.254.585.364-.1.069-.172.052-.25.052.144.119.387.182.613.254-.043.068-.086.086-.178.105.24.134.582.074.679.141-.023.068-.09.111-.168.148.385.023 1.438-.014 1.64-.824-.394-.438-1.113-.954-2.348-1.592.96.328 1.829.764 2.556 1.363.854-.405.266-1.423-.151-1.828-.022.108-.046.174-.074.194-.136-.147-.247-.298-.42-.44 0 .083.041.172-.064.239a1.235 1.235 0 0 0-.388-.34c.08.143.013.186-.03.244-.128-.11-.25-.225-.487-.312Zm4.676 0c-.235.088-.359.202-.486.314-.043-.06-.111-.101-.031-.243a1.235 1.235 0 0 0-.388.339c-.103-.067-.062-.157-.062-.24-.175.141-.286.292-.422.44-.027-.019-.052-.086-.074-.194-.415.405-1.005 1.424-.15 1.828.726-.601 1.596-1.037 2.559-1.363-1.238.637-1.956 1.153-2.352 1.593.202.809 1.255.846 1.64.823-.078-.037-.144-.08-.168-.148.097-.068.44-.008.678-.142-.09-.018-.134-.037-.177-.104.226-.073.47-.136.613-.255-.077 0-.15.017-.25-.052.202-.108.417-.195.585-.363-.104 0-.217 0-.25-.039.186-.115.341-.243.47-.382-.146.017-.207.002-.243-.023.14-.143.317-.265.402-.442-.108.037-.208.053-.28-.003.048-.107.25-.17.37-.422-.116.011-.238.025-.262 0 .054-.215.146-.338.235-.465-.246-.003-.616 0-.6-.02l.152-.154c-.24-.064-.485.01-.662.067-.08-.063 0-.144.099-.225a2.405 2.405 0 0 0-.555.138c-.087-.08.059-.16.13-.24a1.417 1.417 0 0 0-.58.227c-.096-.093-.005-.17.06-.25Z"/></g></svg>