<svg xmlns="http://www.w3.org/2000/svg" xml:space="preserve" width="24" height="24" fill="none"><defs><radialGradient id="a" cx="0" cy="0" r="1" gradientTransform="matrix(0 22 -22 0 12 1)" gradientUnits="userSpaceOnUse"><stop offset="0" stop-color="#8FC8FF" style="stop-color:#f6f6f6;stop-opacity:1"/><stop offset="1" stop-color="#0056A8" style="stop-color:#cfcfcf;stop-opacity:1"/></radialGradient></defs><path d="M50 5C9.09 5 5 25.455 5 50c0 32.727 12.273 45 45 45 32.727 0 45-12.273 45-45 0-24.545-4.09-45-45-45Z" style="font-variation-settings:normal;display:inline;opacity:1;vector-effect:none;fill:#78b75b;fill-opacity:1;stroke-width:4.56656;stroke-linecap:butt;stroke-linejoin:miter;stroke-miterlimit:4;stroke-dasharray:none;stroke-dashoffset:0;stroke-opacity:1;-inkscape-stroke:none;stop-color:#000;stop-opacity:1" transform="matrix(.24444 0 0 .24444 -.222 -.222)"/><path fill="#fff" fill-rule="evenodd" d="M5 5.725v4.012h1.652v.805l.002 3.158c0 2.6 2.258 4.575 4.86 4.575H19v-7.94c0-2.604-2.257-4.575-4.861-4.575l-2.178-.005Zm1.064 1.067 5.894.026v.005h2.18c2.1 0 3.803 1.573 3.803 3.514v5.808c0 .645-.582 1.066-1.245 1.066h-5.18c-2.098 0-3.8-1.572-3.8-3.513l-.004-3.981a1.05 1.05 0 0 0-.987-1.04h-.661zm2.67 1.18v5.77c0 .612.223 1.15.66 1.583.371.369.82.607 1.322.661h1.424v-1.132l-1.224-.005c-.592 0-1.1-.579-1.1-1.321V7.972zm4.08.95c-.492 0-.929.181-1.281.537a1.797 1.797 0 0 0-.534 1.296v2.523h1.144v-2.523c0-.192.063-.342.198-.48a.62.62 0 0 1 .473-.201c.192 0 .336.063.473.202a.636.636 0 0 1 .199.479v2.523h1.145v-2.523c0-.192.063-.342.199-.48a.618.618 0 0 1 .473-.201.62.62 0 0 1 .47.202.636.636 0 0 1 .2.479l.008 2.51h1.14l-.003-2.51c0-.5-.182-.942-.534-1.296a1.756 1.756 0 0 0-1.281-.538c-.483 0-.905.179-1.245.508a1.748 1.748 0 0 0-1.244-.508Z" overflow="visible"/></svg>