<svg xmlns="http://www.w3.org/2000/svg" xml:space="preserve" width="24" height="24" fill="none"><defs><radialGradient id="a" cx="0" cy="0" r="1" gradientTransform="matrix(0 22 -22 0 12 1)" gradientUnits="userSpaceOnUse"><stop offset="0" stop-color="#8FC8FF" style="stop-color:#f6f6f6;stop-opacity:1"/><stop offset="1" stop-color="#0056A8" style="stop-color:#cfcfcf;stop-opacity:1"/></radialGradient></defs><path d="M50 5C9.09 5 5 25.455 5 50c0 32.727 12.273 45 45 45 32.727 0 45-12.273 45-45 0-24.545-4.09-45-45-45Z" style="font-variation-settings:normal;display:inline;opacity:1;vector-effect:none;fill:#f2f2f2;fill-opacity:1;stroke-width:4.56656;stroke-linecap:butt;stroke-linejoin:miter;stroke-miterlimit:4;stroke-dasharray:none;stroke-dashoffset:0;stroke-opacity:1;-inkscape-stroke:none;stop-color:#000;stop-opacity:1" transform="matrix(.24444 0 0 .24444 -.222 -.222)"/><g stroke-width=".821"><path fill="#181818" d="M17.029 14.338c-.194.742-1.683 2.155-2.205 2.837-.52.685.053 1.436-.908 1.195-.96-.237-1.227-.194-2.222-.142-.982.055-.771-.026-1.387.233-.613.257-2.675-3.141-2.844-3.776-.163-.632-.243-.555.187-1.237.423-.685.489-1.363 1.052-2.19.563-.832 1.217-1.257 1.168-1.89-.186-2.356-.33-3.536.794-4.08a2.615 2.615 0 0 1 2.318-.034c.152.077.464.227.695.485.229.256.438.638.555 1.123.24.973-.101.651.172 1.767.27 1.112.814 1.66 1.482 2.538.668.88 1.363 2.332 1.141 3.171"/><path fill="#f9f9f9" d="M10.798 8.567c.119-.02.18-.132.224-.235.078-.184.202-.354.21-.563a.835.835 0 0 0-.182-.538.54.54 0 0 0-.408-.223c-.185-.006-.316.147-.375.302a1.337 1.337 0 0 0 0 .804c.053.196.168.413.384.462a.272.272 0 0 0 .147-.01"/><path fill="#181818" d="M10.637 7.454c.086 0 .194.053.25.127a.485.485 0 0 1 .094.297c0 .173-.019.367-.13.426a.557.557 0 0 1-.155.035c-.097 0-.107-.062-.2-.151a.582.582 0 0 1-.128-.322c0-.081-.019-.197.058-.301a.238.238 0 0 1 .211-.112"/><path fill="#f9f9f9" d="M12.598 8.59c.204-.017.433-.069.558-.242.21-.294.196-.708.024-1.017-.088-.159-.196-.335-.378-.394-.233-.076-.52-.051-.707.123a.823.823 0 0 0-.264.634c.007.147.037.297.134.411.111.133.2.29.357.375.086.049.177.088.274.112"/><path fill="#181818" d="M12.563 7.443c.219 0 .344.183.388.415a.412.412 0 0 1-.077.315.447.447 0 0 1-.33.157c-.11 0-.228.016-.294-.064-.065-.086-.077-.27-.077-.406a.47.47 0 0 1 .127-.341c.061-.062.17-.075.264-.075"/><path fill="#676767" d="M12.663 7.57c-.022-.008-.042-.008-.053.002h-.002c-.045.041-.003.065.05.115.03.03.05.119.093.083.047-.033.044-.08-.015-.142a.242.242 0 0 0-.073-.058Zm-1.927.06c-.032-.011-.063-.005-.077.014-.026.037.006.073.064.151.058.081.038.174.104.153.026-.007.03-.173-.004-.25a.138.138 0 0 0-.089-.07Zm.863.073a.195.195 0 0 0-.083.006c-.1.023-.084.063.022.08l.125.025c.085.02.122-.029.044-.073a.35.35 0 0 0-.108-.04Z"/><path fill="#f9f9f9" d="M11.265 9.857c-.38.015-.873-1.008-.89-.595v.708c0 .227-.202.246-.44.585-.238.374-.348.741-.475 1.114-.116.412-.542.92-.64 1.332-.099.408-.271.583-.271 1.131 0 .231.091.475.267.613.177.136.353.265.63.493.292.242.895.65.975.782a.686.686 0 0 1 .033.518c-.052.093-.628.146-.628.146s.519.58.6.652c.076.072.401.416 1.724.184.746-.137 1.322-.588 1.74-.963.54-.496.266-.636.335-.883.103-.36.432-.492.505-.896a.482.482 0 0 1 .087-.191c.084-.115.063-.358.063-.572 0-.57-.069-1.143-.208-1.568-.13-.4-.331-.678-.504-1.036-.347-.716-.331-1.04-.643-1.496-.352-.528-.178-.88-.648-.859-.585.031-1.058.785-1.612.807"/><path fill="#ffcf33" d="M11.463 7.988c.213-.024.504.023.638.117.124.086.212.133.326.165.378.118.88.173.856.495-.027.385-.146.556-.485.659-.274.078-.761.461-1.136.461-.17 0-.404.01-.541-.038-.13-.043-.313-.188-.528-.356-.216-.166-.413-.344-.42-.573-.01-.24.16-.32.397-.514.123-.103.353-.277.507-.35.144-.07.238-.054.386-.072"/><path fill="#995900" d="M10.977 8.271c-.013.03.078.089.125.047.05-.04.107-.076.126-.088.088-.054.059-.095-.092-.07-.144.023-.144.08-.162.111"/><path fill="#ffcf33" d="M17.02 14.96c.18.244-.004.566.127.76.216.322.676.63.843.72.118.069.288.132.28.33-.01.228-.127.289-.195.349-.132.126-.805.44-1.252.726-.561.361-.757.522-.94.694-.284.268-.553.461-.985.461-.43 0-.628-.188-.758-.3-.134-.109-.284-.386-.27-.8.012-.414.152-.787.22-1.43.028-.276.025-.617.025-.916 0-.382.007-.647.092-.696.157-.092.193-.098.378-.098s.269.01.33.07c.06.052.034.117.015.295-.016.179.074.235.162.308.09.074.17.165.454.184.412.03.653-.147.947-.397.077-.068.232-.351.264-.351.025 0 .156-.053.265.094M6.93 15.36c-.26.176-.923.162-1.092.368-.165.207.007.507.003 1.062 0 .238-.044.416-.072.562-.043.183-.068.311.015.442.15.23.385.29 1.747.557.727.142 1.417.508 1.875.545.462.032.562-.113.842-.347.28-.235.368-.163.359-.676-.009-.514-.359-.667-.755-1.258-.397-.592-.462-.7-.725-1.093-.264-.388-.788-1.092-1.085-1.1-.238-.004-.37.115-.52.258-.15.142-.33.504-.592.68"/><path fill="#676767" d="M14.695 11.487c-.048 0-.069.015-.056.059.01.023.478.16.762.626.395.65.396.98.246 1.693-.05.242-.161.39-.146.457-.025.003-.037.002-.071.006a.573.573 0 0 0-.359.187c-.066.07-.14.174-.108.208.061.058.113-.085.176-.132.059-.046.159-.147.353-.147.197 0 .186-.006.176-.075-.004-.041-.037-.051-.091-.053.107-.106.259-.57.295-.774.044-.235.052-.78-.14-1.16-.224-.44-.633-.688-1.037-.895Zm1.235 2.84c-.2-.01-.181.038-.181.038 0 .085.185.116.367.142.177.024.32.058.33.231.007.17-.039.294.042.28.174-.03.235-.207.235-.29 0-.081-.128-.228-.355-.309a1.293 1.293 0 0 0-.438-.093Z"/><path fill="#995900" d="M10.368 9.14c.081.051.083.059.199.132.188.143.519.177.68.181.374.054 1.04-.273 1.301-.42.132-.093.378-.288.47-.291.058.059-.026.066-.144.142a4.723 4.723 0 0 1-.53.324c-.255.126-.647.333-1.15.304-.264-.035-.266-.038-.426-.116-.098-.065-.319-.174-.4-.257m1.645-.853c.012.03-.078.088-.126.05a.877.877 0 0 0-.128-.088c-.088-.059-.055-.096.092-.072.147.023.147.08.162.11"/></g></svg>