<svg xmlns="http://www.w3.org/2000/svg" xml:space="preserve" width="24" height="24" fill="none"><defs><radialGradient id="a" cx="0" cy="0" r="1" gradientTransform="matrix(0 22 -22 0 12 1)" gradientUnits="userSpaceOnUse"><stop offset="0" stop-color="#8FC8FF" style="stop-color:#f6f6f6;stop-opacity:1"/><stop offset="1" stop-color="#0056A8" style="stop-color:#cfcfcf;stop-opacity:1"/></radialGradient></defs><path d="M50 5C9.09 5 5 25.455 5 50c0 32.727 12.273 45 45 45 32.727 0 45-12.273 45-45 0-24.545-4.09-45-45-45Z" style="font-variation-settings:normal;display:inline;opacity:1;vector-effect:none;fill:#666;fill-opacity:1;stroke-width:4.56656;stroke-linecap:butt;stroke-linejoin:miter;stroke-miterlimit:4;stroke-dasharray:none;stroke-dashoffset:0;stroke-opacity:1;-inkscape-stroke:none;stop-color:#000;stop-opacity:1" transform="matrix(.24444 0 0 .24444 -.222 -.222)"/><path fill="#fff" d="M12.124 4a7.998 7.998 0 1 0 0 15.996 7.998 7.998 0 0 0 0-15.995zm0 .668a7.333 7.333 0 0 1 7.056 5.338 12.72 12.72 0 0 1-3.107 4.052c-.624.539-1.302 1.02-2.052 1.359-.752.338-1.577.529-2.399.481a4.15 4.15 0 0 1-1.768-.506 13.339 13.339 0 0 0 3.786-3.053c.695-.812 1.303-1.738 1.535-2.782a3.778 3.778 0 0 0 .029-1.593 2.943 2.943 0 0 0-.718-1.413 2.883 2.883 0 0 0-1.332-.79 3.502 3.502 0 0 0-1.555-.056c-1.03.189-1.945.786-2.682 1.528-1.3 1.307-2.103 3.155-1.955 4.991a5.26 5.26 0 0 0 .91 2.577c.117.168.246.329.385.482a11.992 11.992 0 0 1-2.37.566 7.33 7.33 0 0 1 6.237-11.183zm.046 1.48a2.41 2.41 0 0 1 1.445.467c.372.28.646.68.801 1.115.157.438.196.914.144 1.375-.108.922-.573 1.768-1.134 2.507a10.811 10.811 0 0 1-4.25 3.306 3.786 3.786 0 0 1-.803-.984c-.437-.775-.58-1.695-.495-2.579.083-.884.387-1.738.795-2.527.472-.917 1.118-1.784 2.021-2.28.45-.25.962-.401 1.476-.4Zm7.218 4.87a7.33 7.33 0 0 1-12.916 5.651c.832-.189 1.644-.459 2.42-.805.34.261.718.473 1.115.626 1.152.442 2.456.378 3.621-.027 1.164-.402 2.197-1.126 3.098-1.966a13.33 13.33 0 0 0 2.664-3.48z"/></svg>