<svg xmlns="http://www.w3.org/2000/svg" xml:space="preserve" width="24" height="24" fill="none"><defs><radialGradient id="a" cx="0" cy="0" r="1" gradientTransform="matrix(0 22 -22 0 12 1)" gradientUnits="userSpaceOnUse"><stop offset="0" stop-color="#8FC8FF" style="stop-color:#f6f6f6;stop-opacity:1"/><stop offset="1" stop-color="#0056A8" style="stop-color:#cfcfcf;stop-opacity:1"/></radialGradient></defs><path d="M50 5C9.09 5 5 25.455 5 50c0 32.727 12.273 45 45 45 32.727 0 45-12.273 45-45 0-24.545-4.09-45-45-45Z" style="font-variation-settings:normal;display:inline;opacity:1;vector-effect:none;fill:#87a556;fill-opacity:1;stroke-width:4.56656;stroke-linecap:butt;stroke-linejoin:miter;stroke-miterlimit:4;stroke-dasharray:none;stroke-dashoffset:0;stroke-opacity:1;-inkscape-stroke:none;stop-color:#000;stop-opacity:1" transform="matrix(.24444 0 0 .24444 -.222 -.222)"/><path fill="#fff" d="M14 4v4.8l4-2.4zm-1.6.801a7.2 7.2 0 0 0-6.724 4.632l.703.421a6.4 6.4 0 0 1 6.02-4.253 6.4 6.4 0 0 1 .802.056v-.803a7.2 7.2 0 0 0-.801-.053Zm0 2.4a4.8 4.8 0 0 0-4.619 3.496l.718.429A4 4 0 0 1 12.402 8a4 4 0 0 1 .8.082v-.813a4.8 4.8 0 0 0-.8-.068Zm5.52.18-.7.421a6.4 6.4 0 0 1 1.58 4.199 6.4 6.4 0 0 1-1.576 4.2l.692.416a7.2 7.2 0 0 0 1.683-4.616 7.2 7.2 0 0 0-1.68-4.62Zm-2.098 1.258-.71.427a4 4 0 0 1 1.288 2.935 4 4 0 0 1-1.287 2.933l.71.429a4.8 4.8 0 0 0 1.376-3.364 4.8 4.8 0 0 0-1.377-3.36ZM4.4 9.601v4.8l4-2.4zm4.1 3.271-.718.43A4.8 4.8 0 0 0 12.4 16.8a4.8 4.8 0 0 0 .8-.072v-.813a4 4 0 0 1-.8.084A4 4 0 0 1 8.5 12.872Zm-2.124 1.276-.695.415a7.2 7.2 0 0 0 6.718 4.638 7.2 7.2 0 0 0 .8-.05v-.808a6.4 6.4 0 0 1-.8.056 6.4 6.4 0 0 1-6.023-4.251zM14 15.2V20l4-2.4z"/></svg>