<svg xmlns="http://www.w3.org/2000/svg" xml:space="preserve" width="24" height="24" fill="none"><defs><radialGradient id="a" cx="0" cy="0" r="1" gradientTransform="matrix(0 22 -22 0 12 1)" gradientUnits="userSpaceOnUse"><stop offset="0" stop-color="#8FC8FF" style="stop-color:#f6f6f6;stop-opacity:1"/><stop offset="1" stop-color="#0056A8" style="stop-color:#cfcfcf;stop-opacity:1"/></radialGradient></defs><path d="M50 5C9.09 5 5 25.455 5 50c0 32.727 12.273 45 45 45 32.727 0 45-12.273 45-45 0-24.545-4.09-45-45-45Z" style="font-variation-settings:normal;display:inline;opacity:1;vector-effect:none;fill:#4c5263;fill-opacity:1;stroke-width:4.56656;stroke-linecap:butt;stroke-linejoin:miter;stroke-miterlimit:4;stroke-dasharray:none;stroke-dashoffset:0;stroke-opacity:1;-inkscape-stroke:none;stop-color:#000;stop-opacity:1" transform="matrix(.24444 0 0 .24444 -.222 -.222)"/><g stroke-width=".881" transform="matrix(1.37407 0 0 1.3734 25.763 -385.356)"><circle cx="-10.015" cy="289.32" r="5.821" fill="#4c5263"/><path fill="#fff" fill-rule="evenodd" d="M-4.331 290.52c-.85 1.145-2.418 1.757-4.286 2.029-1.95.283-4.21.199-6.226.027.096.144.202.284.311.419 1.942.154 3.964.755 5.854.48 1.577-.23 3.119-1.232 4.096-2.096a5.61 5.61 0 0 0 .25-.86z" color="#000" font-weight="400" overflow="visible" style="text-indent:0;text-decoration-line:none;text-decoration-style:solid;text-decoration-color:#000;text-transform:none;white-space:normal;isolation:auto;mix-blend-mode:normal"/><path fill="#5294e2" d="M-8.561 292.94c-1.976.279-3.988.21-5.97.058 1.275 1.627 3.493 2.447 5.54 2.052 1.978-.34 3.71-1.788 4.408-3.666-1.174.833-2.56 1.338-3.978 1.556z"/></g><path fill="#fff" fill-rule="evenodd" d="M9.36 5.776c-.742 3.029-2.877 6.753-4.222 9.13 2.344.563 4.945.728 6.96.911-.033-.457-.374-5.43-.457-6.39-.828-1.502-1.502-2.28-2.28-3.651Zm2.853 3.878c1.1 2.266 1.1 4.507.456 6.162.907.006 2.389.108 3.994-.685-1.32-3.012-4.45-5.477-4.45-5.477Zm2.168 1.371c.682.457 1.333.873 1.825 1.368a3.099 3.099 0 0 1 .914 2.512c.894-.45 1.486-1.2 1.826-1.827-.595-.548-1.628-1.089-2.74-1.483a26.514 26.514 0 0 0-1.826-.571z"/></svg>