<svg xmlns="http://www.w3.org/2000/svg" xml:space="preserve" width="24" height="24" fill="none"><defs><radialGradient id="a" cx="0" cy="0" r="1" gradientTransform="matrix(0 22 -22 0 12 1)" gradientUnits="userSpaceOnUse"><stop offset="0" stop-color="#8FC8FF" style="stop-color:#f6f6f6;stop-opacity:1"/><stop offset="1" stop-color="#0056A8" style="stop-color:#cfcfcf;stop-opacity:1"/></radialGradient></defs><path d="M50 5C9.09 5 5 25.455 5 50c0 32.727 12.273 45 45 45 32.727 0 45-12.273 45-45 0-24.545-4.09-45-45-45Z" style="font-variation-settings:normal;display:inline;opacity:1;vector-effect:none;fill:#364b7b;fill-opacity:1;stroke-width:4.56656;stroke-linecap:butt;stroke-linejoin:miter;stroke-miterlimit:4;stroke-dasharray:none;stroke-dashoffset:0;stroke-opacity:1;-inkscape-stroke:none;stop-color:#000;stop-opacity:1" transform="matrix(.24444 0 0 .24444 -.222 -.222)"/><g fill="#fbfdfc" fill-rule="evenodd" transform="translate(-2.933 -2.933) scale(1.76379)"><circle cx="8.466" cy="5.556" r=".794" style="paint-order:fill markers stroke"/><circle cx="8.466" cy="8.466" r=".794" style="paint-order:fill markers stroke"/><circle cx="8.466" cy="11.377" r=".794" style="paint-order:fill markers stroke"/><circle cx="5.292" cy="8.466" r=".794" style="paint-order:fill markers stroke"/><circle cx="11.641" cy="8.466" r=".794" style="paint-order:fill markers stroke"/><circle cx="6.879" cy="7.006" r=".794" style="paint-order:fill markers stroke"/><circle cx="6.879" cy="9.912" r=".794" style="paint-order:fill markers stroke"/><circle cx="10.054" cy="7.006" r=".794" style="paint-order:fill markers stroke"/><circle cx="10.054" cy="9.912" r=".794" style="paint-order:fill markers stroke"/></g></svg>