<svg xmlns="http://www.w3.org/2000/svg" xml:space="preserve" width="24" height="24" fill="none"><defs><radialGradient id="a" cx="0" cy="0" r="1" gradientTransform="matrix(0 22 -22 0 12 1)" gradientUnits="userSpaceOnUse"><stop offset="0" stop-color="#8FC8FF" style="stop-color:#f6f6f6;stop-opacity:1"/><stop offset="1" stop-color="#0056A8" style="stop-color:#cfcfcf;stop-opacity:1"/></radialGradient></defs><path d="M50 5C9.09 5 5 25.455 5 50c0 32.727 12.273 45 45 45 32.727 0 45-12.273 45-45 0-24.545-4.09-45-45-45Z" style="font-variation-settings:normal;display:inline;opacity:1;vector-effect:none;fill:#f2f2f2;fill-opacity:1;stroke-width:4.56656;stroke-linecap:butt;stroke-linejoin:miter;stroke-miterlimit:4;stroke-dasharray:none;stroke-dashoffset:0;stroke-opacity:1;-inkscape-stroke:none;stop-color:#000;stop-opacity:1" transform="matrix(.24444 0 0 .24444 -.222 -.222)"/><g stroke-width=".833"><path fill="#2c2c2c" d="M12 4.922a7.993 7.993 0 0 0-7.998 7.998c0 .87.149 1.735.431 2.56.857-.012 1.491-.13 1.936-.346.77-.377.92.84 1.63.782.799-.067.028-.591-.27-.942-.386-.453-.527-1.264.323-1.34.645-.055 1.03 1.098 1.248.944.567-.4.856.451 1.276.772.554.425 1.293.527 1.887.269.603-.262.877.252 1.592-.05.53-.222.548.329 1.554-.078-.029.475-.198.936-.29 1.38-.108.533-.973 1.69-1.41 2.207.494-.119.892-.292.958-.415.507-.945 1.363-.55 1.366-1.106 0-.371.94-.371 1.099-.371.287 0 .88.003 1.368.085A7.987 7.987 0 0 0 12 4.923Zm1.73 11.604c-.103.216-.387.408-.568.223-.201-.207-.786-.228-.756.102.024.252.126.002.415.21.433.313 1.248.113.907-.532zm6.001.126a.267.267 0 1 0 0 .534.267.267 0 0 0 0-.534zm0 .053a.213.213 0 1 1 0 .427.213.213 0 0 1 0-.427zm-.105.08v.268h.048v-.106h.044l.064.104h.055l-.067-.11c.04-.016.06-.04.06-.078 0-.052-.038-.079-.114-.079zm.048.043h.036c.037 0 .07.005.07.039 0 .035-.038.037-.082.037h-.024z"/><path fill="#f03030" d="M16.393 10.786c-.029.342-.494.949-.717.739.463-.605.269-1.407.02-2.064-.342-.904-.604-1.925-1.337-2.576-.675-.603-1.66-.29-2.466-.09-.86.214-1.841-.508-2.632.041-.655.455-.556 1.374-.777 2.077-.23.723.572 1.201 1.167 1.406.755.26 1.655.176 2.29.689.35.285.591.856.591 1.39-1.598 0-3.23-.648-4.242-1.634-.339-.34.091-1.033-.665-1.033-.638 0-1.27-.033-1.741.358-.48.4-.29 1.167.14 1.584 1.4 1.363 3.17 2.246 4.987 2.844 1.887.622 4.03.828 5.893.005.85-.378 1.669-1.28 1.462-2.275-.185-.899-1.175-1.276-1.973-1.461zM12.25 7.202c.509-.34 1.412-.51 1.805-.042.464.554-.787.84-1.175.56.218-.054.683-.482.151-.533-.274-.033-.55 0-.78.017zm-.965 1.503c-.644-.072-1.206.674-1.807.077-.345-.34-.298-1.141.265-.693.56.445 1.532-.333 1.948.33.155.24-.205.31-.406.286Z"/></g></svg>