<svg xmlns="http://www.w3.org/2000/svg" xml:space="preserve" width="24" height="24" fill="none"><defs><radialGradient id="a" cx="0" cy="0" r="1" gradientTransform="matrix(0 22 -22 0 12 1)" gradientUnits="userSpaceOnUse"><stop offset="0" stop-color="#8FC8FF" style="stop-color:#f6f6f6;stop-opacity:1"/><stop offset="1" stop-color="#0056A8" style="stop-color:#cfcfcf;stop-opacity:1"/></radialGradient></defs><path d="M50 5C9.09 5 5 25.455 5 50c0 32.727 12.273 45 45 45 32.727 0 45-12.273 45-45 0-24.545-4.09-45-45-45Z" style="font-variation-settings:normal;display:inline;opacity:1;vector-effect:none;fill:#f2f2f2;fill-opacity:1;stroke-width:4.56656;stroke-linecap:butt;stroke-linejoin:miter;stroke-miterlimit:4;stroke-dasharray:none;stroke-dashoffset:0;stroke-opacity:1;-inkscape-stroke:none;stop-color:#000;stop-opacity:1" transform="matrix(.24444 0 0 .24444 -.222 -.222)"/><path fill="#efa724" d="m11.998 4.983-1.6 1.602h1.15v3.682l.45.451.452-.451V6.585h1.15z"/><path fill="#262577" d="M17.404 10.39v1.152h-3.68l-.45.45.45.45h3.682v1.152l1.602-1.6"/><path fill="#9ccd2a" d="m11.998 13.265-.45.451v3.682h-1.152L11.998 19l1.603-1.6H12.45v-3.685"/><path fill="#932279" d="m6.592 10.39-1.6 1.602 1.6 1.602v-1.151h3.681l.452-.451-.452-.45h-3.68"/><path fill="#efa724" d="M12.899 12.894v.637l2.603 2.603-.813.814h2.264v-2.266l-.812.814-2.605-2.602zm1.275 0 1.967 1.965.814-.814v-1.153h-2.78ZM12.9 14.168v2.78h1.153l.814-.814-1.965-1.966Z"/><path fill="#262577" d="M7.043 12.894v1.151l.814.814 1.967-1.963h-2.78Zm3.418 0-2.605 2.602-.813-.814v2.265h2.265l-.812-.813 2.602-2.605v-.633Zm.637 1.274-1.965 1.966.814.814h1.15z"/><path fill="#932279" d="M12.899 7.037v2.78l1.967-1.966-.814-.814Zm1.79 0 .813.814-2.601 2.603v.637h.637l2.603-2.602.814.814V7.037Zm1.452 2.089-1.967 1.965h2.78V9.94l-.813-.816Z"/><path fill="#9ccd2a" d="M7.043 7.037V9.3l.814-.812 2.604 2.602h.637v-.637l-2.6-2.603.813-.814Zm2.904 0-.816.814 1.967 1.966v-2.78H9.945Zm-2.09 2.089-.814.814v1.15h2.78z"/></svg>