<svg xmlns="http://www.w3.org/2000/svg" xml:space="preserve" width="24" height="24" fill="none"><defs><radialGradient id="a" cx="0" cy="0" r="1" gradientTransform="matrix(0 22 -22 0 12 1)" gradientUnits="userSpaceOnUse"><stop offset="0" stop-color="#8FC8FF" style="stop-color:#f6f6f6;stop-opacity:1"/><stop offset="1" stop-color="#0056A8" style="stop-color:#cfcfcf;stop-opacity:1"/></radialGradient></defs><path d="M50 5C9.09 5 5 25.455 5 50c0 32.727 12.273 45 45 45 32.727 0 45-12.273 45-45 0-24.545-4.09-45-45-45Z" style="font-variation-settings:normal;display:inline;opacity:1;vector-effect:none;fill:#00bcfb;fill-opacity:1;stroke-width:4.56656;stroke-linecap:butt;stroke-linejoin:miter;stroke-miterlimit:4;stroke-dasharray:none;stroke-dashoffset:0;stroke-opacity:1;-inkscape-stroke:none;stop-color:#000;stop-opacity:1" transform="matrix(.24444 0 0 .24444 -.222 -.222)"/><path fill="#fff" d="M7.762-1.32c-1.194.026-1.112.24-1.617 1.27C5.33 1.602 4.76 4 4.877 5.415c.124 1.511.53 2.498 1.315 3.234.94.895 2.091.778 3.06-.262.87-.934 1.19-1.905 1.27-4.023.045-1.339.071-1.5.172-1.27.386.892.487 2.985.22 4.023-.223.86-.778 1.908-1.226 2.32-.59.543-1.225.79-2.098.83-.588.026-.818.018-1.27-.13-1.16-.387-2.592-1.493-3.412-2.58C1.741 6.012.579 2.876.283.383a5.039 5.039 0 0 0-.172-.96C-.1-.816-.903.185-1.157.997c-.164.521-.175.768-.175 5.38v4.857l.22.132c.31.199 1.66.604 2.76.828.837.173 1.173.22 3.15.22 1.977 0 2.347-.053 3.107-.22 1.238-.272 2.162-.714 2.932-1.487 1.082-1.085 1.482-2.186 1.487-3.89 0-1.136-.159-2.04-.616-2.935-.162-.326-.323-.593-.307-.612.103-.103 1.233 1.247 1.49 1.792 1.62 3.427.847 6.222-2.496 9.009-1.482 1.236-4.044 2.932-5.513 3.673-.513.257-.608.355-.481.482.031.032 2.588.058 5.684.042l5.645-.042.482-.22c.974-.466 1.588-1.154 1.879-2.101.17-.54.175-.786.175-7.434 0-6.984-.01-7.585-.305-7.699-.068-.024-.727.05-1.447.172-.794.143-1.916.257-2.885.31-1.694.087-2.546.251-3.546.656-.927.379-1.464.683-1.97 1.093-.45.37-.513.418-.656 1.008-.2.813-.325 1.176-.659 1.618-.248.322-.49.481-.487.306.014-.312.297-1.291.572-1.839.813-1.614 1.871-2.77 3.938-4.33.635-.484 1.18-.9 1.18-.965 0-.096-.46-.133-2.54-.133-.741 0-1.308-.005-1.705 0m1.705 4.118c.132 0 .135.132-.043 1.445-.19 1.382-.688 2.488-1.315 3.15-.442.468-.92.592-1.265.346a1.403 1.403 0 0 1-.437-.828c0-.111.04-.117.172-.043.265.14.376.109.702-.174.542-.48 1.111-1.853 1.402-3.414.03-.18.53-.487.784-.487m0 0" style="stroke-width:2.64651" transform="matrix(.71402 0 0 .71402 5.954 5.952)"/></svg>