<svg xmlns="http://www.w3.org/2000/svg" xml:space="preserve" width="24" height="24" fill="none"><defs><radialGradient id="a" cx="0" cy="0" r="1" gradientTransform="matrix(0 22 -22 0 12 1)" gradientUnits="userSpaceOnUse"><stop offset="0" stop-color="#8FC8FF" style="stop-color:#f6f6f6;stop-opacity:1"/><stop offset="1" stop-color="#0056A8" style="stop-color:#cfcfcf;stop-opacity:1"/></radialGradient></defs><path d="M50 5C9.09 5 5 25.455 5 50c0 32.727 12.273 45 45 45 32.727 0 45-12.273 45-45 0-24.545-4.09-45-45-45Z" style="font-variation-settings:normal;display:inline;opacity:1;vector-effect:none;fill:#405474;fill-opacity:1;stroke-width:4.56656;stroke-linecap:butt;stroke-linejoin:miter;stroke-miterlimit:4;stroke-dasharray:none;stroke-dashoffset:0;stroke-opacity:1;-inkscape-stroke:none;stop-color:#000;stop-opacity:1" transform="matrix(.24444 0 0 .24444 -.222 -.222)"/><path fill="#f9f9f9" d="M9.502 10.42a.684.684 0 0 0-.436.155 4.753 4.753 0 0 0-1.734 3.685C7.332 16.874 9.428 19 12 19c2.572 0 4.667-2.126 4.667-4.74a4.745 4.745 0 0 0-1.734-3.685.688.688 0 0 0-.87 0 3.215 3.215 0 0 1-2.063.744c-.757 0-1.47-.256-2.063-.744a.691.691 0 0 0-.436-.155Zm.298 1.716a4.03 4.03 0 0 0 2.2.641c.796 0 1.572-.226 2.202-.641a3.11 3.11 0 1 1-4.402 0zM11.482 5a.52.52 0 1 0 .001 1.04.52.52 0 0 0 0-1.04zm1.608 1.036a.52.52 0 1 0 0 1.04.52.52 0 0 0 0-1.04zm-1.35.52a.78.78 0 0 0 0 1.555.78.78 0 0 0 0-1.556zM13.3 8.11a.78.78 0 0 0 0 1.557.78.78 0 0 0 0-1.557zm-2.593.519a.78.78 0 0 0 0 1.555.78.78 0 0 0 0-1.555z"/></svg>