<svg xmlns="http://www.w3.org/2000/svg" xml:space="preserve" width="24" height="24" fill="none"><defs><radialGradient id="a" cx="0" cy="0" r="1" gradientTransform="matrix(0 22 -22 0 12 1)" gradientUnits="userSpaceOnUse"><stop offset="0" stop-color="#8FC8FF" style="stop-color:#f6f6f6;stop-opacity:1"/><stop offset="1" stop-color="#0056A8" style="stop-color:#cfcfcf;stop-opacity:1"/></radialGradient></defs><path d="M50 5C9.09 5 5 25.455 5 50c0 32.727 12.273 45 45 45 32.727 0 45-12.273 45-45 0-24.545-4.09-45-45-45Z" style="font-variation-settings:normal;display:inline;opacity:1;vector-effect:none;fill:#f2f2f2;fill-opacity:1;stroke-width:4.56656;stroke-linecap:butt;stroke-linejoin:miter;stroke-miterlimit:4;stroke-dasharray:none;stroke-dashoffset:0;stroke-opacity:1;-inkscape-stroke:none;stop-color:#000;stop-opacity:1" transform="matrix(.24444 0 0 .24444 -.222 -.222)"/><g transform="matrix(.36357 0 0 .36357 .366 .366)"><path fill="#91cd91" d="M32 10a22 22 0 0 0-12.92 4.219l4.941 4.941a15.125 15.125 0 0 1 7.98-2.285A15.125 15.125 0 0 1 47.124 32a15.125 15.125 0 0 1-2.293 7.97l4.944 4.945A22 22 0 0 0 54 32a22 22 0 0 0-22-22Z"/><path fill="#33855a" d="M14.224 19.085A22 22 0 0 0 10 32a22 22 0 0 0 22 22 22 22 0 0 0 12.92-4.219l-4.942-4.941A15.125 15.125 0 0 1 32 47.125 15.125 15.125 0 0 1 16.874 32a15.125 15.125 0 0 1 2.294-7.97Z"/><circle cx="32" cy="32" r="8" fill="#91cd91"/></g></svg>