<svg xmlns="http://www.w3.org/2000/svg" xml:space="preserve" width="24" height="24" fill="none"><defs><radialGradient id="a" cx="0" cy="0" r="1" gradientTransform="matrix(0 22 -22 0 12 1)" gradientUnits="userSpaceOnUse"><stop offset="0" stop-color="#8FC8FF" style="stop-color:#f6f6f6;stop-opacity:1"/><stop offset="1" stop-color="#0056A8" style="stop-color:#cfcfcf;stop-opacity:1"/></radialGradient></defs><path d="M50 5C9.09 5 5 25.455 5 50c0 32.727 12.273 45 45 45 32.727 0 45-12.273 45-45 0-24.545-4.09-45-45-45Z" style="font-variation-settings:normal;display:inline;opacity:1;vector-effect:none;fill:#17b5f9;fill-opacity:1;stroke-width:4.56656;stroke-linecap:butt;stroke-linejoin:miter;stroke-miterlimit:4;stroke-dasharray:none;stroke-dashoffset:0;stroke-opacity:1;-inkscape-stroke:none;stop-color:#000;stop-opacity:1" transform="matrix(.24444 0 0 .24444 -.222 -.222)"/><g fill="#fff"><path d="M8.685 19.224c-.441 0-.983-.317-1.203-.703l-3.315-5.818c-.22-.387-.22-1.02 0-1.406l3.315-5.818c.22-.386.762-.703 1.203-.703h6.63c.441 0 .983.317 1.203.703l3.315 5.818c.22.386.22 1.02 0 1.406l-3.315 5.818c-.22.386-.762.703-1.203.703z" opacity=".35"/><path d="M6.413 7.356 5.236 9.42h9.498l-9.6 4.978 1.28 2.246h11.172l1.177-2.064H9.266l9.6-4.979-1.28-2.245Z"/></g></svg>