<svg xmlns="http://www.w3.org/2000/svg" xml:space="preserve" width="24" height="24" fill="none"><defs><radialGradient id="a" cx="0" cy="0" r="1" gradientTransform="matrix(0 22 -22 0 12 1)" gradientUnits="userSpaceOnUse"><stop offset="0" stop-color="#8FC8FF" style="stop-color:#f6f6f6;stop-opacity:1"/><stop offset="1" stop-color="#0056A8" style="stop-color:#cfcfcf;stop-opacity:1"/></radialGradient></defs><path d="M50 5C9.09 5 5 25.455 5 50c0 32.727 12.273 45 45 45 32.727 0 45-12.273 45-45 0-24.545-4.09-45-45-45Z" style="font-variation-settings:normal;display:inline;opacity:1;vector-effect:none;fill:#4d4d4d;fill-opacity:1;stroke-width:4.56656;stroke-linecap:butt;stroke-linejoin:miter;stroke-miterlimit:4;stroke-dasharray:none;stroke-dashoffset:0;stroke-opacity:1;-inkscape-stroke:none;stop-color:#000;stop-opacity:1" transform="matrix(.24444 0 0 .24444 -.222 -.222)"/><path fill="#fff" d="M7.546 18.745h.593c.113-.226.255-.339.424-.339.114 0 .369.057.764.169 1.245.283 2.236.425 2.97.425 2.885-.112 4.442-1.414 4.667-3.903 0-1.018-.424-1.98-1.274-2.885-.678-.678-1.809-1.414-3.393-2.206-1.753-.963-2.63-1.811-2.63-2.547.113-.96.82-1.47 2.12-1.526 1.753.056 2.944 1.018 3.566 2.884h.848l-.425-3.476h-.423c-.114.056-.142.082-.086.082a.825.825 0 0 1-.424.172c-.057 0-.254-.058-.595-.17C13.231 5.142 12.325 5 11.533 5 8.76 5.17 7.29 6.358 7.12 8.564c.339 2.093 1.612 3.507 3.82 4.243 1.865.736 2.912 1.783 3.138 3.14-.114 1.356-.934 2.064-2.46 2.122-1.81 0-3.056-1.075-3.734-3.225h-.849l.51 3.903" font-family="'刘德华字体叶根友仿版'" font-size="62.261" font-weight="700" letter-spacing="0" word-spacing="0"/></svg>