<svg xmlns="http://www.w3.org/2000/svg" xml:space="preserve" width="24" height="24" fill="none"><defs><radialGradient id="a" cx="0" cy="0" r="1" gradientTransform="matrix(0 22 -22 0 12 1)" gradientUnits="userSpaceOnUse"><stop offset="0" stop-color="#8FC8FF" style="stop-color:#f6f6f6;stop-opacity:1"/><stop offset="1" stop-color="#0056A8" style="stop-color:#cfcfcf;stop-opacity:1"/></radialGradient></defs><path d="M50 5C9.09 5 5 25.455 5 50c0 32.727 12.273 45 45 45 32.727 0 45-12.273 45-45 0-24.545-4.09-45-45-45Z" style="font-variation-settings:normal;display:inline;opacity:1;vector-effect:none;fill:#0094f0;fill-opacity:1;stroke-width:4.56656;stroke-linecap:butt;stroke-linejoin:miter;stroke-miterlimit:4;stroke-dasharray:none;stroke-dashoffset:0;stroke-opacity:1;-inkscape-stroke:none;stop-color:#000;stop-opacity:1" transform="matrix(.24444 0 0 .24444 -.222 -.222)"/><g stroke="#fff" stroke-linecap="round" stroke-width="4" transform="matrix(.34136 0 0 .34136 1.272 1.077)"><circle cx="32" cy="32" r="6"/><path d="M22.015 22.187a14 14 0 0 1 15.286-3.144A14 14 0 0 1 46 32a14 14 0 0 1-8.699 12.958 14 14 0 0 1-15.286-3.145m-11.163-3.748a22 22 0 0 1 0-12.128m26.097-15.373a22 22 0 0 1 11.141 6.432m0 30.008a22 22 0 0 1-11.141 6.432M18.612 36.093a14 14 0 0 1-.07-7.952"/></g></svg>