<svg xmlns="http://www.w3.org/2000/svg" xml:space="preserve" width="24" height="24" fill="none"><defs><radialGradient id="a" cx="0" cy="0" r="1" gradientTransform="matrix(0 22 -22 0 12 1)" gradientUnits="userSpaceOnUse"><stop offset="0" stop-color="#8FC8FF" style="stop-color:#f6f6f6;stop-opacity:1"/><stop offset="1" stop-color="#0056A8" style="stop-color:#cfcfcf;stop-opacity:1"/></radialGradient></defs><path d="M50 5C9.09 5 5 25.455 5 50c0 32.727 12.273 45 45 45 32.727 0 45-12.273 45-45 0-24.545-4.09-45-45-45Z" style="font-variation-settings:normal;display:inline;opacity:1;vector-effect:none;fill:#9991d9;fill-opacity:1;stroke-width:4.56656;stroke-linecap:butt;stroke-linejoin:miter;stroke-miterlimit:4;stroke-dasharray:none;stroke-dashoffset:0;stroke-opacity:1;-inkscape-stroke:none;stop-color:#000;stop-opacity:1" transform="matrix(.24444 0 0 .24444 -.222 -.222)"/><path fill="#fff" fill-rule="evenodd" d="M10.553 5.004c-3.006.143-5.359 2.87-5.238 4.35.116 1.444 3.772 2.711 3.729 2.754a59.327 59.327 0 0 0-1.865 1.629c-1.502 1.372-2.539 2.389-2.013 3.818.607 1.647 1.935 1.579 3.492 1.273 4.022-.794 10.638-5.88 10.302-7.755-.273-1.52-3.972-4.52-6.158-5.596a4.627 4.627 0 0 0-2.249-.473Zm.622 2.605c.375-.035.814.06 1.301.297 1.067.515 2.172 1.884 0 2.663-.59.211-2.483-.51-2.425-1.51.051-.923.496-1.39 1.124-1.45Z"/></svg>