<svg xmlns="http://www.w3.org/2000/svg" xml:space="preserve" width="24" height="24" fill="none"><defs><radialGradient id="a" cx="0" cy="0" r="1" gradientTransform="matrix(0 22 -22 0 12 1)" gradientUnits="userSpaceOnUse"><stop offset="0" stop-color="#8FC8FF" style="stop-color:#f6f6f6;stop-opacity:1"/><stop offset="1" stop-color="#0056A8" style="stop-color:#cfcfcf;stop-opacity:1"/></radialGradient></defs><path d="M50 5C9.09 5 5 25.455 5 50c0 32.727 12.273 45 45 45 32.727 0 45-12.273 45-45 0-24.545-4.09-45-45-45Z" style="font-variation-settings:normal;display:inline;opacity:1;vector-effect:none;fill:#0087ed;fill-opacity:1;stroke-width:4.56656;stroke-linecap:butt;stroke-linejoin:miter;stroke-miterlimit:4;stroke-dasharray:none;stroke-dashoffset:0;stroke-opacity:1;-inkscape-stroke:none;stop-color:#000;stop-opacity:1" transform="matrix(.24444 0 0 .24444 -.222 -.222)"/><path fill="#fff" d="M10.672 5a20.597 20.597 0 0 0-1.26.84c-.503.353-1.037.814-1.605 1.382-.494.493-.84.979-1.037 1.456a2.926 2.926 0 0 0-.197 1.433c.057.47.218.925.48 1.37a6.98 6.98 0 0 0 1.062 1.332l3.605 3.604 1.15-1.146-3.36-3.36c-.78-.779-1.218-1.464-1.307-2.048-.091-.585.156-1.169.74-1.753.123-.124.255-.247.394-.37l.396-.346a8.667 8.667 0 0 0 .346-.271 1.604 1.604 0 0 1 .26-.16l7.385 7.384L18.87 13.2Zm-.358 3.645-1.149 1.15 5.421 5.417a1.599 1.599 0 0 1-.162.26 8.732 8.732 0 0 0-.271.346l-.346.394a8.703 8.703 0 0 1-.37.396c-.584.584-1.168.831-1.753.74-.584-.09-1.267-.526-2.05-1.308l-3.356-3.356-1.15 1.149 3.606 3.603a6.98 6.98 0 0 0 1.334 1.061c.443.265.9.426 1.37.482a2.9 2.9 0 0 0 1.431-.198c.477-.196.963-.542 1.456-1.035a12.447 12.447 0 0 0 1.383-1.607c.362-.51.643-.928.839-1.258z"/></svg>