<svg xmlns="http://www.w3.org/2000/svg" xml:space="preserve" width="24" height="24" fill="none"><defs><radialGradient id="a" cx="0" cy="0" r="1" gradientTransform="matrix(0 22 -22 0 12 1)" gradientUnits="userSpaceOnUse"><stop offset="0" stop-color="#8FC8FF" style="stop-color:#f6f6f6;stop-opacity:1"/><stop offset="1" stop-color="#0056A8" style="stop-color:#cfcfcf;stop-opacity:1"/></radialGradient></defs><path d="M50 5C9.09 5 5 25.455 5 50c0 32.727 12.273 45 45 45 32.727 0 45-12.273 45-45 0-24.545-4.09-45-45-45Z" style="font-variation-settings:normal;display:inline;opacity:1;vector-effect:none;fill:#4e7ba0;fill-opacity:1;stroke-width:4.56656;stroke-linecap:butt;stroke-linejoin:miter;stroke-miterlimit:4;stroke-dasharray:none;stroke-dashoffset:0;stroke-opacity:1;-inkscape-stroke:none;stop-color:#000;stop-opacity:1" transform="matrix(.24444 0 0 .24444 -.222 -.222)"/><path fill="#fff" fill-rule="evenodd" d="M8.686 3.936c-1.042.033 2.772 5.14-.165 4.815 2.45.659 3.01-2.411 2.51-3.913-.497-1.487-.754-.559-2.23-.889a.464.464 0 0 0-.115-.013Zm-2.92.712c-1.609-.003-.78.522-1.56 1.784-.744 1.205 5.884-.953 4.618 1.743 1.4-2.058-1.431-3.525-3.056-3.527ZM6.9 6.953c-1.288 0-2.584 1.419-2.946 2.498-.5 1.486.27.882 1.264 1.992.95 1.059.885-5.728 3.133-3.725-.444-.543-.947-.763-1.451-.764Zm5.58.242c-.8-.06-4.076 4.042-4.616 1.456.11 2.464 3.29 2.034 4.606 1.109 1.304-.918.316-.869.182-2.335-.013-.153-.073-.223-.172-.231ZM7.76 8.01c-2.38.866-.976 3.67.338 4.598 1.301.921.948.022 2.342-.552 1.331-.55-5.336-2.588-2.681-4.045Z" style="stroke-width:1.10314" transform="matrix(1.49891 0 0 1.49891 -.691 -.696)"/></svg>