<svg xmlns="http://www.w3.org/2000/svg" width="24" height="24" fill="none"><path fill="url(#a)" fill-rule="evenodd" d="M9.596 1.114c.12 0 .234-.014.344-.046a31.627 31.627 0 0 1 4.307.011c1.301.102 2.561.384 3.78.848 2.025.833 3.412 2.28 4.158 4.339.427 1.24.679 2.514.756 3.824a27.94 27.94 0 0 1-.114 4.923 11.876 11.876 0 0 1-.894 3.32c-.85 1.843-2.229 3.114-4.135 3.813a15.624 15.624 0 0 1-4.765.825 21.423 21.423 0 0 1-5.453-.413c-3.312-.737-5.354-2.756-6.128-6.056a19.047 19.047 0 0 1-.447-4.511 18.491 18.491 0 0 1 .515-4.786c.812-3.086 2.77-4.998 5.877-5.736a13.954 13.954 0 0 1 2.199-.355Z" clip-rule="evenodd"/><path fill="#F9F9F9" fill-rule="evenodd" d="M2.536 19.2c-.483-.776-.845-1.676-1.084-2.698A19.186 19.186 0 0 1 1.21 15.2H2.8v1a.998.998 0 0 0 1 1h2c.554 0 1-.446 1-1v-1h.82a.997.997 0 0 0 .98.8h2a.996.996 0 0 0 .98-.8h.82v1a.996.996 0 0 0 1 1h2c.554 0 1-.446 1-1v-1h.8v1a.996.996 0 0 0 1 1h2c.554 0 1-.446 1-1v-1h1.603a11.872 11.872 0 0 1-.87 3.134 8.02 8.02 0 0 1-.465.866H2.536Z" clip-rule="evenodd" opacity=".9"/><path fill="#F9F9F9" d="M8.6 12a.997.997 0 0 0-1 1v2c0 .554.446 1 1 1h2c.554 0 1-.446 1-1v-2c0-.554-.446-1-1-1h-2Zm-4.8 1.2a.997.997 0 0 0-1 1v2c0 .554.446 1 1 1h2c.554 0 1-.446 1-1v-2c0-.554-.446-1-1-1h-2Zm9.6 0a.996.996 0 0 0-1 1v2c0 .554.446 1 1 1h2c.554 0 1-.446 1-1v-2c0-.554-.446-1-1-1h-2Zm4.8 0a.996.996 0 0 0-1 1v2c0 .554.446 1 1 1h2c.554 0 1-.446 1-1v-2c0-.554-.446-1-1-1h-2Z" opacity=".5"/><defs><radialGradient id="a" cx="0" cy="0" r="1" gradientTransform="matrix(0 22 -22 0 12 1)" gradientUnits="userSpaceOnUse"><stop stop-color="#68BBFF" stop-opacity=".875"/><stop offset="1" stop-color="#5C87FF"/></radialGradient></defs></svg>