<svg xmlns="http://www.w3.org/2000/svg" xmlns:xlink="http://www.w3.org/1999/xlink" xml:space="preserve" width="24" height="24" fill="none"><defs><linearGradient id="d" x1="0" x2="1" y1="0" y2="0" gradientTransform="rotate(-27.533 959.832 -107.303) scale(440.04492)" gradientUnits="userSpaceOnUse" spreadMethod="pad"><stop offset="0" style="stop-opacity:.99607843;stop-color:#fff"/><stop offset=".341" style="stop-opacity:1;stop-color:#fff"/><stop offset="1" style="stop-opacity:.99607843;stop-color:#fff"/></linearGradient><linearGradient id="j" x1="0" x2="1" y1="0" y2="0" gradientTransform="rotate(-90 277.932 105.877) scale(204.88353)" gradientUnits="userSpaceOnUse" spreadMethod="pad"><stop offset="0" style="stop-opacity:1;stop-color:#fff"/><stop offset=".209" style="stop-opacity:1;stop-color:#fff"/><stop offset="1" style="stop-opacity:0;stop-color:#fff"/></linearGradient><linearGradient id="b" x1="0" x2="1" y1="0" y2="0" gradientTransform="translate(286.883 536.985) scale(119.59705)" gradientUnits="userSpaceOnUse" spreadMethod="pad"><stop offset="0" style="stop-opacity:1;stop-color:#fff"/><stop offset=".875" style="stop-opacity:0;stop-color:#fff"/><stop offset="1" style="stop-opacity:0;stop-color:#fff"/></linearGradient><linearGradient id="h" x1="0" x2="1" y1="0" y2="0" gradientTransform="scale(77.80141) rotate(46.017 -4.872 6.051)" gradientUnits="userSpaceOnUse" spreadMethod="pad"><stop offset="0" style="stop-opacity:1;stop-color:#fff"/><stop offset=".536" style="stop-opacity:1;stop-color:#fff"/><stop offset="1" style="stop-opacity:0;stop-color:#fff"/></linearGradient><linearGradient id="l" x1="0" x2="1" y1="0" y2="0" gradientTransform="scale(-158.43383) rotate(49.874 .59 -4.16)" gradientUnits="userSpaceOnUse" spreadMethod="pad"><stop offset="0" style="stop-opacity:0;stop-color:#fff"/><stop offset=".077" style="stop-opacity:0;stop-color:#fff"/><stop offset="1" style="stop-opacity:.99607843;stop-color:#fff"/></linearGradient><linearGradient xlink:href="#b" id="a" x1="0" x2="1" y1="0" y2="0" gradientTransform="translate(286.883 536.985) scale(119.59705)" gradientUnits="userSpaceOnUse" spreadMethod="pad"/><linearGradient xlink:href="#d" id="c" x1="0" x2="1" y1="0" y2="0" gradientTransform="rotate(-27.533 959.832 -107.303) scale(440.04492)" gradientUnits="userSpaceOnUse" spreadMethod="pad"/><linearGradient xlink:href="#h" id="g" x1="0" x2="1" y1="0" y2="0" gradientTransform="scale(77.80141) rotate(46.017 -4.872 6.051)" gradientUnits="userSpaceOnUse" spreadMethod="pad"/><linearGradient xlink:href="#j" id="i" x1="0" x2="1" y1="0" y2="0" gradientTransform="rotate(-90 277.932 105.877) scale(204.88353)" gradientUnits="userSpaceOnUse" spreadMethod="pad"/><linearGradient xlink:href="#l" id="k" x1="0" x2="1" y1="0" y2="0" gradientTransform="scale(-158.43383) rotate(49.874 .59 -4.16)" gradientUnits="userSpaceOnUse" spreadMethod="pad"/><radialGradient id="m" cx="0" cy="0" r="1" fx="0" fy="0" gradientTransform="matrix(0 11 -11 0 -22 1)" gradientUnits="userSpaceOnUse" spreadMethod="pad"><stop offset="0" style="stop-color:#81def9;stop-opacity:1"/><stop offset="1" style="stop-color:#01ade7;stop-opacity:1"/></radialGradient><radialGradient id="f" cx="0" cy="0" r="1" fx="0" fy="0" gradientTransform="matrix(-547.24042 -131.02512 152.52774 -637.04834 566.544 160.383)" gradientUnits="userSpaceOnUse" spreadMethod="pad"><stop offset="0" style="stop-opacity:1;stop-color:#fff"/><stop offset=".212" style="stop-opacity:1;stop-color:#fff"/><stop offset=".688" style="stop-opacity:1;stop-color:#fff"/><stop offset="1" style="stop-opacity:.99607843;stop-color:#fff"/></radialGradient><radialGradient xlink:href="#f" id="e" cx="0" cy="0" r="1" fx="0" fy="0" gradientTransform="matrix(-547.24042 -131.02512 152.52774 -637.04834 566.544 160.383)" gradientUnits="userSpaceOnUse" spreadMethod="pad"/></defs><path d="M-24.407 1.115c.12 0 .235-.016.344-.047a31.813 31.813 0 0 1 4.308.01 13.68 13.68 0 0 1 3.781.849c2.026.833 3.41 2.281 4.162 4.338.42 1.24.676 2.516.754 3.823a28.303 28.303 0 0 1-.114 4.928 11.968 11.968 0 0 1-.896 3.317c-.85 1.844-2.23 3.115-4.135 3.812-1.543.522-3.13.798-4.767.824a21.331 21.331 0 0 1-5.452-.412c-3.308-.734-5.354-2.754-6.125-6.057a18.991 18.991 0 0 1-.448-4.51 18.502 18.502 0 0 1 .516-4.787c.812-3.083 2.77-4.995 5.875-5.734a13.692 13.692 0 0 1 2.197-.354z" style="fill:url(#m);fill-rule:evenodd;stroke:none;stroke-width:1.33333" transform="translate(34)"/><path d="M-14.106 16.278c-2.256-5.83-5.503-6.288-5.5-7.246.003-.695 1.479-1.236 1.479-1.236-1.552-.27-2.508.23-3.274.977-2.05-1.023-7.786-.622-7.883 3.454 0 0-.852.956-.543 1.294.304.33 1.562-1.141 4.418-1.377.761 1.625 2.019 2.219 3.626 2.084-.702-.418-1.521-.703-1.601-1.994 2.194.124 3.783.997 5.249 1.948-.959-1.305-4.338-3.968-9.3-2.448 1.84-4.853 10.532-1.448 13.33 4.544z" style="color:#000;display:inline;overflow:visible;visibility:visible;fill:#fff;fill-opacity:1;fill-rule:nonzero;stroke:none;stroke-width:.999999;marker:none;enable-background:accumulate" transform="translate(34)"/></svg>