<svg xmlns="http://www.w3.org/2000/svg" xmlns:xlink="http://www.w3.org/1999/xlink" width="24" height="24" fill="none"><defs><radialGradient id="a" cx="0" cy="0" r="1" gradientTransform="matrix(0 22 -22 0 12 1)" gradientUnits="userSpaceOnUse"><stop offset="0" stop-color="#8FC8FF" style="stop-color:#d1d1d1;stop-opacity:1"/><stop offset="1" stop-color="#0056A8" style="stop-color:#9e9e9e;stop-opacity:1"/></radialGradient><radialGradient id="b" cx="0" cy="0" r="1" gradientTransform="matrix(0 22 -22 0 12 1)" gradientUnits="userSpaceOnUse"><stop offset="0" stop-color="#8FC8FF" style="stop-color:#f6f6f6;stop-opacity:1"/><stop offset="1" stop-color="#0056A8" style="stop-color:#cfcfcf;stop-opacity:1"/></radialGradient><radialGradient xlink:href="#a" id="c" cx=".179" cy="-1.748" r="1" fx=".179" fy="-1.748" gradientTransform="matrix(0 90.05947 -90.00681 0 -107.37 -11.19)" gradientUnits="userSpaceOnUse"/></defs><path d="M50 5C9.09 5 5 25.455 5 50c0 32.727 12.273 45 45 45 32.727 0 45-12.273 45-45 0-24.545-4.09-45-45-45Z" style="font-variation-settings:normal;display:inline;opacity:1;vector-effect:none;fill:url(#c);fill-opacity:1;stroke-width:4.56656;stroke-linecap:butt;stroke-linejoin:miter;stroke-miterlimit:4;stroke-dasharray:none;stroke-dashoffset:0;stroke-opacity:1;-inkscape-stroke:none;stop-color:#000;stop-opacity:1" transform="matrix(.24444 0 0 .24444 -.222 -.222)"/><g style="display:inline"><rect width="2" height="2" x="12" y="-3" rx="0" ry="0" style="display:inline;fill:#3947be;fill-opacity:1;stroke-width:22.6872;paint-order:markers stroke fill"/><rect width="2" height="2" x="9" y="-3" rx="0" ry="0" style="display:inline;fill:#6c7ad8;fill-opacity:1;stroke-width:22.6873;paint-order:markers stroke fill"/><rect width="2" height="2" x="6" y="-3" rx="0" ry="0" style="display:inline;fill:#3c3;fill-opacity:1;stroke-width:22.6873;paint-order:markers stroke fill"/><rect width="2" height="2" x="3" y="-3" rx="0" ry="0" style="display:inline;fill:#ffc328;fill-opacity:1;stroke-width:22.6872;paint-order:markers stroke fill"/><rect width="2" height="2" y="-3" rx="0" ry="0" style="display:inline;fill:#cc5e55;fill-opacity:1;stroke-width:22.6873;paint-order:markers stroke fill"/><rect width="2" height="2" x="-3" y="12" rx="0" ry="0" style="display:inline;fill:#0bb1cb;fill-opacity:1;stroke-width:22.6872;paint-order:markers stroke fill"/><rect width="2" height="2" x="-3" y="9" rx="0" ry="0" style="display:inline;fill:#2a92c9;fill-opacity:1;stroke-width:22.6873;paint-order:markers stroke fill"/><rect width="2" height="2" x="-3" y="6" rx="0" ry="0" style="display:inline;fill:#069;fill-opacity:1;stroke-width:22.6873;paint-order:markers stroke fill"/><rect width="2" height="2" x="-3" y="3" rx="0" ry="0" style="display:inline;fill:#002a44;fill-opacity:1;stroke-width:22.6873;paint-order:markers stroke fill"/><rect width="2" height="2" x="-3" rx="0" ry="0" style="display:inline;fill:#2c2d3d;fill-opacity:1;stroke-width:22.6873;paint-order:markers stroke fill"/><rect width="2" height="2" x="-3" y="-3" rx="0" ry="0" style="display:inline;fill:#16171c;fill-opacity:1;stroke-width:22.6872;paint-order:markers stroke fill"/></g><path fill="#fec786" d="M15.876 13.24c.356 2.485-1.306 5.595-2.008 5.758-.326.07-3.883-2.035-4.31-4.476-.04-.227-1.063-1.822-.595-1.324.667.708-.688-1.4-.387-2.049.446-.957 2.915-1.097 4.072-1.097 1.056 0 2.293-.48 2.824.124.444.506.25 1.99.404 3.065z"/><g fill="#4f4f4f" transform="translate(3.998 4) scale(.25006)"><path d="M35 51.732c0-.277.6-.623 2.472-1.419.862-.366 1.158-.4 1.357-.16.14.168.208.365.15.435-.097.116-3.652 1.412-3.877 1.412-.056 0-.102-.12-.102-.269Zm.929-3.355c-1.017-.435-1.3-1.087-.337-.776 1.547.5 1.598.417 1.482-2.39-.073-1.752.003-2.562.223-2.387.183.148.39 1.549.46 3.118.137 3.132.056 3.24-1.828 2.435zM14.618 38.68c-.954-.651-1.734-1.236-1.732-1.3.002-.063.497-.518 1.1-1.011 1.044-.854 1.184-1.606 1.182-2.197-.002-.32-3.873-5.666-6.29-8.686-.934-1.169-1.766-2.31-1.847-2.537-.092-.256.025-.638.31-1.01.954-1.246 2.57-3.232 3.462-4.94.885-1.694 1.947-3.085 2.13-2.79.263.428.53.16 2.63-2.651 2.113-2.826 3.844-5.466 4.267-5.466.478 0 .28.475-.628 1.508-1.622 1.731-2.127 4.122-2.13 5.685-.143 2.949 2.256 5.073 4.868 6.274 3.344.788 6.457.435 7.045-2.358.488-2.322-1.154-3.746-3.056-4.318-.464.212-1.81 1.635-2.239 2.99-.149.474-.579.299-.579-.235 0-1.112 1.254-3.945 1.919-5.155.933-1.696 1.952-1.779 2.788-1.611.467.094.822-.198 1.246-.535l.593-.467c2.066 1.52 4.38 2.635 6.585 3.919 2.474 1.759 4.856 2.752 4.882 3.003.015.148.005.156-.022 1.235-.049 1.871-.029 1.962.428 1.962.928 0 1.861-.52 3.099-2.013 2.167-2.617 2.447-2.641 2.447-4.837.157-1.681-2.059-5.282-3.447-3.932-.582.583-1.257 2.636-1.047 3.184.141.37 1.031.625 1.523.436.515-.198.432.21-.15.74-.764.695-1.597.814-2.21.317-.757-.614-.961-3.055-.386-4.621.546-1.488 2.496-3.068 2.905-3.225.461-.178.979.192 2.822 2.615 2.97 4.467 6.209 8.467 9.106 12.734.36.528.71 1.3.778 1.718.112.694-.023.925-1.608 2.74-2.61 2.99-4.367 5.416-4.367 6.029 0 .66 1.351 1.196 2.535 1.378.858.132 1.423.425 1.423.738-1.407 1.92-6.964 9.767-7.633 9.232-.066-.106-.175-1.367-.243-2.803-.513-3.89-.698-5.986-1.152-9.782-.136-.74-.157-.753-1.061-.627-2.218.309-4.947.48-7.128.843-1.76.293-3.301 1.523-4.019 1.139-.735-.394-4.606-1.093-6.905-1.38-6.783-.85-5.67-.706-5.67.128l1.486 12.03s.713 3.23.117 3.23c-3.235-1.234-5.608-3.586-8.127-5.322z"/><circle cx="31" cy="42" r="2"/><path d="M25.55 38.001a.777.777 0 0 0-.266.034c-.11.07-.217.482-.241.916l-.043.79 2.758.133c1.553.132 3.28.168 4.739.068.513 0 .57-.04.449-.301-.328-.7-.848-1.104-1.468-1.14-.34-.02-1.828-.162-3.306-.315-1.27-.132-2.19-.196-2.622-.186ZM37.48 36c-.196 0-.316.02-.344.042-.107.098-.162.575-.124 1.058.062.797.117.874.61.841 1.374.07 2.759.058 4.157.058 1.097-.044 2.449-.74 3.221-1.117 0-.112-.103-.204-.231-.204-.129 0-1.856-.184-3.837-.407-1.587-.18-2.865-.278-3.452-.27z"/><circle cx="39" cy="40" r="2"/></g></svg>