<svg xmlns="http://www.w3.org/2000/svg" xmlns:xlink="http://www.w3.org/1999/xlink" xml:space="preserve" width="24" height="24" fill="none"><defs><linearGradient id="d" x1="0" x2="1" y1="0" y2="0" gradientTransform="rotate(-27.533 959.832 -107.303) scale(440.04492)" gradientUnits="userSpaceOnUse" spreadMethod="pad"><stop offset="0" style="stop-opacity:.99607843;stop-color:#fff"/><stop offset=".341" style="stop-opacity:1;stop-color:#fff"/><stop offset="1" style="stop-opacity:.99607843;stop-color:#fff"/></linearGradient><linearGradient id="j" x1="0" x2="1" y1="0" y2="0" gradientTransform="rotate(-90 277.932 105.877) scale(204.88353)" gradientUnits="userSpaceOnUse" spreadMethod="pad"><stop offset="0" style="stop-opacity:1;stop-color:#fff"/><stop offset=".209" style="stop-opacity:1;stop-color:#fff"/><stop offset="1" style="stop-opacity:0;stop-color:#fff"/></linearGradient><linearGradient id="b" x1="0" x2="1" y1="0" y2="0" gradientTransform="translate(286.883 536.985) scale(119.59705)" gradientUnits="userSpaceOnUse" spreadMethod="pad"><stop offset="0" style="stop-opacity:1;stop-color:#fff"/><stop offset=".875" style="stop-opacity:0;stop-color:#fff"/><stop offset="1" style="stop-opacity:0;stop-color:#fff"/></linearGradient><linearGradient id="h" x1="0" x2="1" y1="0" y2="0" gradientTransform="scale(77.80141) rotate(46.017 -4.872 6.051)" gradientUnits="userSpaceOnUse" spreadMethod="pad"><stop offset="0" style="stop-opacity:1;stop-color:#fff"/><stop offset=".536" style="stop-opacity:1;stop-color:#fff"/><stop offset="1" style="stop-opacity:0;stop-color:#fff"/></linearGradient><linearGradient id="l" x1="0" x2="1" y1="0" y2="0" gradientTransform="scale(-158.43383) rotate(49.874 .59 -4.16)" gradientUnits="userSpaceOnUse" spreadMethod="pad"><stop offset="0" style="stop-opacity:0;stop-color:#fff"/><stop offset=".077" style="stop-opacity:0;stop-color:#fff"/><stop offset="1" style="stop-opacity:.99607843;stop-color:#fff"/></linearGradient><linearGradient xlink:href="#b" id="a" x1="0" x2="1" y1="0" y2="0" gradientTransform="translate(286.883 536.985) scale(119.59705)" gradientUnits="userSpaceOnUse" spreadMethod="pad"/><linearGradient xlink:href="#d" id="c" x1="0" x2="1" y1="0" y2="0" gradientTransform="rotate(-27.533 959.832 -107.303) scale(440.04492)" gradientUnits="userSpaceOnUse" spreadMethod="pad"/><linearGradient xlink:href="#h" id="g" x1="0" x2="1" y1="0" y2="0" gradientTransform="scale(77.80141) rotate(46.017 -4.872 6.051)" gradientUnits="userSpaceOnUse" spreadMethod="pad"/><linearGradient xlink:href="#j" id="i" x1="0" x2="1" y1="0" y2="0" gradientTransform="rotate(-90 277.932 105.877) scale(204.88353)" gradientUnits="userSpaceOnUse" spreadMethod="pad"/><linearGradient xlink:href="#l" id="k" x1="0" x2="1" y1="0" y2="0" gradientTransform="scale(-158.43383) rotate(49.874 .59 -4.16)" gradientUnits="userSpaceOnUse" spreadMethod="pad"/><linearGradient id="m"><stop offset=".592" style="stop-color:#391f10;stop-opacity:1"/><stop offset="1" style="stop-color:#a05a2c;stop-opacity:1"/></linearGradient><radialGradient id="n" cx="0" cy="0" r="1" fx="0" fy="0" gradientTransform="matrix(0 11 -11 0 -22 1)" gradientUnits="userSpaceOnUse" spreadMethod="pad"><stop offset="0" style="stop-color:#fff;stop-opacity:1"/><stop offset="1" style="stop-color:#f9f9f9;stop-opacity:1"/></radialGradient><radialGradient id="f" cx="0" cy="0" r="1" fx="0" fy="0" gradientTransform="matrix(-547.24042 -131.02512 152.52774 -637.04834 566.544 160.383)" gradientUnits="userSpaceOnUse" spreadMethod="pad"><stop offset="0" style="stop-opacity:1;stop-color:#fff"/><stop offset=".212" style="stop-opacity:1;stop-color:#fff"/><stop offset=".688" style="stop-opacity:1;stop-color:#fff"/><stop offset="1" style="stop-opacity:.99607843;stop-color:#fff"/></radialGradient><radialGradient xlink:href="#f" id="e" cx="0" cy="0" r="1" fx="0" fy="0" gradientTransform="matrix(-547.24042 -131.02512 152.52774 -637.04834 566.544 160.383)" gradientUnits="userSpaceOnUse" spreadMethod="pad"/><radialGradient xlink:href="#m" id="o" cx="-12" cy="-22" r="7.5" fx="-12" fy="-22" gradientTransform="matrix(1.15 0 0 1.15 1.8 3.3)" gradientUnits="userSpaceOnUse"/></defs><g transform="translate(34)"><path d="M-24.407 1.115c.12 0 .235-.016.344-.047a31.813 31.813 0 0 1 4.308.01 13.68 13.68 0 0 1 3.781.849c2.026.833 3.41 2.281 4.162 4.338.42 1.24.676 2.516.754 3.823a28.303 28.303 0 0 1-.114 4.928 11.968 11.968 0 0 1-.896 3.317c-.85 1.844-2.23 3.115-4.135 3.812-1.543.522-3.13.798-4.767.824a21.331 21.331 0 0 1-5.452-.412c-3.308-.734-5.354-2.754-6.125-6.057a18.991 18.991 0 0 1-.448-4.51 18.502 18.502 0 0 1 .516-4.787c.812-3.083 2.77-4.995 5.875-5.734a13.692 13.692 0 0 1 2.197-.354z" style="fill:url(#n);fill-rule:evenodd;stroke:none;stroke-width:1.33333"/><rect width="15" height="15" x="-19.5" y="-29.5" fill="#a05a2c" rx="7.5" ry="7.5" style="fill:url(#o);stroke-width:.285689" transform="rotate(-90)"/><path fill="#fff" d="M-26.821 7.714v.477h.482v2.857h-.482v.476h2.41v-.476h.482V8.19h-.482v-.477Zm3.857 0v.477h-.482v2.857h.482v.476h1.928v-.476h.482V8.19h-.482v-.477Zm3.375 0v.477h-.482v.952h.482v.476h.964v.476h.482v.953h-.964v-.953h-.964v.953h.482v.476h1.928v-.476h.482v-.953h-.482V9.62h-.482v-.476h-.964V8.19h.964v.952h.964V8.19h-.482v-.477Zm-5.786.477h.482v2.857h-.482Zm2.893 0h.964v2.857h-.964zm-4.34 4.285v.476h.483v2.858h-.482v.476h2.41v-.476h.482V14.38h-.482v-.476h.482v-.953h-.482v-.476Zm3.858 0v.476h-.482v2.858h.482v.476h1.928v-.476h.482v-2.858h-.482v-.476Zm2.41 0v.476h.483v.953h.482v.952h-.482v.952h-.483v.477h.965v-.477h.482v-.476h.482v.476h.482v.477h.964v-.477h-.482v-.952h-.482v-.953h.482v-.952h.482v-.476h-.964v.476h-.482v.476h-.482v-.476h-.482v-.476Zm-4.821.476h.482v.953h-.482Zm2.893 0h.964v2.858h-.964zm-2.893 1.429h.482v1.428h-.482Z" style="stroke-width:.285689"/></g></svg>