<svg xmlns="http://www.w3.org/2000/svg" xml:space="preserve" width="24" height="24" viewBox="0 0 6.35 6.35"><defs><linearGradient id="a" x1="12" x2="12" y1="1" y2="12" gradientTransform="matrix(.75 0 0 .75 -.75 -.75)" gradientUnits="userSpaceOnUse" spreadMethod="pad"><stop offset="0" style="stop-opacity:1;stop-color:#fd807c"/><stop offset="1" style="stop-opacity:1;stop-color:#f4605d"/></linearGradient><clipPath id="b" clipPathUnits="userSpaceOnUse"><path d="M0 0h17v17H0Z"/></clipPath></defs><path d="M2.098 14.781c-.864-.773-1.45-1.828-1.758-3.156-.074-.32-.133-.645-.18-.969h16.192A8.89 8.89 0 0 1 15.699 13a5.4 5.4 0 0 1-1.285 1.781z" style="fill:#fff;fill-opacity:1;fill-rule:evenodd;stroke:none" transform="translate(.264 .265) scale(.35277)"/><path d="M8.238 0c-.511 0-1.023.016-1.535.051a.951.951 0 0 1-.258.035 10.27 10.27 0 0 0-1.648.266C2.469.906 1 2.34.391 4.652a13.877 13.877 0 0 0-.387 3.59c-.016.813.035 1.617.156 2.414h16.192c.007-.047.011-.097.019-.144.082-.731.125-1.461.129-2.192v-.285a21.613 21.613 0 0 0-.043-1.219 10.762 10.762 0 0 0-.566-2.867C15.328 2.406 14.289 1.32 12.77.695A10.26 10.26 0 0 0 9.934.059 23.519 23.519 0 0 0 8.277 0Zm6.176 14.781H2.098c.742.668 1.687 1.133 2.836 1.387 1.07.223 2.148.332 3.234.332h.023c.278 0 .555-.008.832-.023a11.693 11.693 0 0 0 3.575-.618 5.537 5.537 0 0 0 1.816-1.078z" style="fill:url(#a);fill-rule:evenodd;stroke:none" transform="translate(.264 .265) scale(.35277)"/><path d="M6.781 2.75a.923.923 0 0 0-.867.559.925.925 0 0 0-.07.355v4.238a.918.918 0 0 0 1.375.793l3.668-2.117a.925.925 0 0 0 .336-.336.94.94 0 0 0 0-.918.965.965 0 0 0-.336-.336L7.219 2.871a.9.9 0 0 0-.438-.121Z" style="fill:#fff;fill-opacity:1;fill-rule:evenodd;stroke:none" transform="translate(.264 .265) scale(.35277)"/><g clip-path="url(#b)" opacity=".25" transform="translate(.264 .265) scale(.35277)"><path d="M14.438 12.375H9.625a.342.342 0 0 0-.344.344c0 .187.153.343.344.343h4.813a.344.344 0 0 0 0-.687z" style="fill:#000;fill-opacity:1;fill-rule:nonzero;stroke:none"/></g><path d="M8.938 12.375H2.062a.344.344 0 0 0 0 .687h6.876a.344.344 0 0 0 0-.687z" style="fill:#f4605d;fill-opacity:1;fill-rule:nonzero;stroke:none" transform="translate(.264 .265) scale(.35277)"/><path d="M9.281 13.75a1.03 1.03 0 0 0 1.031-1.031c0-.571-.46-1.031-1.031-1.031a1.03 1.03 0 1 0 0 2.062z" style="fill:#fff;fill-opacity:1;fill-rule:nonzero;stroke:none" transform="translate(.264 .265) scale(.35277)"/></svg>