<svg xmlns="http://www.w3.org/2000/svg" xml:space="preserve" width="24" height="24" fill="none"><defs><radialGradient id="a" cx="0" cy="0" r="1" gradientTransform="matrix(0 22 -22 0 12 1)" gradientUnits="userSpaceOnUse"><stop offset="0" stop-color="#8FC8FF" style="stop-color:#f6f6f6;stop-opacity:1"/><stop offset="1" stop-color="#0056A8" style="stop-color:#cfcfcf;stop-opacity:1"/></radialGradient></defs><path d="M50 5C9.09 5 5 25.455 5 50c0 32.727 12.273 45 45 45 32.727 0 45-12.273 45-45 0-24.545-4.09-45-45-45Z" style="font-variation-settings:normal;display:inline;opacity:1;vector-effect:none;fill:#ff7008;fill-opacity:1;stroke-width:4.56656;stroke-linecap:butt;stroke-linejoin:miter;stroke-miterlimit:4;stroke-dasharray:none;stroke-dashoffset:0;stroke-opacity:1;-inkscape-stroke:none;stop-color:#000;stop-opacity:1" transform="matrix(.24444 0 0 .24444 -.222 -.222)"/><path fill="#fff" d="m10.445 9.507-3.89 6.736 1.011.583 3.889-6.735zm3.11 0-1.01.584 3.889 6.735 1.01-.583z" opacity=".5"/><path fill="#ffd1ba" d="M10.445 5.778c-.647 0-1.167.52-1.167 1.167v2.333c0 .646.52 1.167 1.167 1.167h3.11c.647 0 1.167-.52 1.167-1.167V6.945c0-.647-.52-1.167-1.167-1.167zm-4.278 7.777c-.646 0-1.167.52-1.167 1.167v2.333c0 .647.52 1.167 1.167 1.167h3.11c.647 0 1.168-.52 1.168-1.167v-2.333c0-.646-.52-1.167-1.167-1.167zm8.555 0c-.646 0-1.167.52-1.167 1.167v2.333c0 .647.52 1.167 1.167 1.167h3.111c.646 0 1.167-.52 1.167-1.167v-2.333c0-.646-.52-1.167-1.167-1.167z"/></svg>