<svg xmlns="http://www.w3.org/2000/svg" xmlns:xlink="http://www.w3.org/1999/xlink" xml:space="preserve" width="24" height="24" fill="none"><defs><linearGradient id="a"><stop offset="0" style="stop-color:#1a1a1a;stop-opacity:1"/><stop offset="1" style="stop-color:#666;stop-opacity:1"/></linearGradient><linearGradient xlink:href="#a" id="b" x1="53.707" x2="52.685" y1="89.631" y2="-2.415" gradientTransform="matrix(.24444 0 0 .24444 -.222 -.222)" gradientUnits="userSpaceOnUse"/></defs><path d="M12 1C2 1 1 6 1 12c0 8 3 11 11 11s11-3 11-11c0-6-1-11-11-11Z" style="font-variation-settings:normal;display:inline;opacity:1;vector-effect:none;fill:url(#b);fill-opacity:1;stroke-width:1.11627;stroke-linecap:butt;stroke-linejoin:miter;stroke-miterlimit:4;stroke-dasharray:none;stroke-dashoffset:0;stroke-opacity:1;-inkscape-stroke:none;stop-color:#000;stop-opacity:1"/><path fill="#ff4d5b" d="M-10.67 6.669c-2.162 0-3.919 1.718-3.919 3.828 0 2.028 1.62 3.668 3.667 3.792 0-2.294 1.835-4.165 4.115-4.367-.283-1.84-1.903-3.253-3.864-3.253m0 2.624c.674 0 1.222.546 1.222 1.204 0 .659-.548 1.187-1.222 1.187-.674 0-1.222-.528-1.222-1.187 0-.658.548-1.204 1.222-1.204m0 .252c-.541 0-.989.424-.989.952 0 .53.447.952.99.952.54 0 .97-.422.97-.952a.957.957 0 0 0-.97-.952m0 .36a.6.6 0 0 1 .61.592.6.6 0 0 1-.61.593.6.6 0 0 1-.612-.593.6.6 0 0 1 .611-.593" style="stroke-width:.407407" transform="translate(19.913 .452) scale(1.02943)"/><path fill="#4ca3e5" d="M-6.41 10.476c-2.162 0-3.914 1.71-3.914 3.822s1.752 3.821 3.913 3.821c2.164 0 3.916-1.71 3.916-3.821 0-2.112-1.752-3.822-3.916-3.822m0 2.629c.677 0 1.225.535 1.225 1.193s-.548 1.194-1.225 1.194c-.674 0-1.222-.537-1.222-1.194 0-.66.548-1.193 1.222-1.193m0 .238a.963.963 0 0 0-.977.955c0 .53.436.957.977.957.544 0 .98-.427.98-.958a.964.964 0 0 0-.98-.954m0 .357c.34 0 .613.268.613.598 0 .33-.274.597-.613.597a.605.605 0 0 1-.61-.597c0-.33.273-.598.61-.598" style="stroke-width:.407407" transform="translate(19.913 .452) scale(1.02943)"/><path fill="#f2f2f2" fill-rule="evenodd" d="M-8.851 4.316a6.332 6.332 0 0 0-6.313 5.863 4.605 4.605 0 0 1 4.585-4.137c2.544 0 4.618 2.06 4.618 4.6v1.15h-2.312l4.031 4.026 4.032-4.025h-2.3v-1.15c0-3.494-2.841-6.327-6.338-6.327" style="stroke-width:.407407" transform="translate(19.913 .452) scale(1.02943)"/></svg>