<svg xmlns="http://www.w3.org/2000/svg" xmlns:xlink="http://www.w3.org/1999/xlink" xml:space="preserve" width="24" height="24" fill="none"><defs><linearGradient id="a"><stop offset="0" style="stop-color:gray;stop-opacity:1"/><stop offset="1" style="stop-color:#ccc;stop-opacity:1"/></linearGradient><linearGradient xlink:href="#a" id="b" x1="53.707" x2="52.685" y1="89.631" y2="-2.415" gradientTransform="matrix(.24444 0 0 .24444 -.222 -.222)" gradientUnits="userSpaceOnUse"/></defs><path d="M12 1C2 1 1 6 1 12c0 8 3 11 11 11s11-3 11-11c0-6-1-11-11-11Z" style="font-variation-settings:normal;display:inline;opacity:1;vector-effect:none;fill:url(#b);fill-opacity:1;stroke-width:1.11627;stroke-linecap:butt;stroke-linejoin:miter;stroke-miterlimit:4;stroke-dasharray:none;stroke-dashoffset:0;stroke-opacity:1;-inkscape-stroke:none;stop-color:#000;stop-opacity:1"/><g style="opacity:.355786;fill:#414141;fill-opacity:1"><path fill="#70c04b" d="M59.196 33.055 35.183 9.043a1.367 1.367 0 0 0-.565-.34L20.245 4.275a2.739 2.739 0 0 0-2.744.681L4.803 17.654a2.741 2.741 0 0 0-.644 2.858l5.145 14.434a1.4 1.4 0 0 0 .321.51L33.211 59.04a2.74 2.74 0 0 0 3.875 0l22.11-22.11a2.742 2.742 0 0 0 0-3.876zM18.162 22.618a4.11 4.11 0 1 1 0-8.219 4.11 4.11 0 0 1 0 8.22z" style="fill:#414141;fill-opacity:1" transform="matrix(.2571 0 0 .2571 3.586 4.008)"/><path fill="#f0f1f1" d="m45.243 50.882 5.149-5.15-.465-5.32-19.633 5.135-.788-6.208 16.109-4.244a4.564 4.564 0 0 0 3.244-4.838l-.85-8.388-9.28-9.278-16.432 4.454-.732 5.047-5.335.8 2.995 22.164 9.79 9.79zm-8.299-27.664.442 5.008a1.37 1.37 0 0 1-.972 1.433l-7.719 1.907-.778-6.313a1.371 1.371 0 0 1 .993-1.477l6.302-1.755a1.367 1.367 0 0 1 1.732 1.197z" style="fill:#414141;fill-opacity:1" transform="matrix(.2571 0 0 .2571 3.586 4.008)"/><path fill="#b5b5b6" d="M18.162 13.135a5.373 5.373 0 1 0 0 10.746 5.373 5.373 0 1 0 0-10.746zm0 8.598a3.225 3.225 0 1 1 .002-6.45 3.225 3.225 0 0 1-.002 6.45z" style="fill:#414141;fill-opacity:1" transform="matrix(.2571 0 0 .2571 3.586 4.008)"/><path fill="#dcdddd" d="M18.162 14.285a4.224 4.224 0 1 0 0 8.448 4.224 4.224 0 0 0 0-8.448zm0 7.37a3.145 3.145 0 1 1 0-6.29 3.145 3.145 0 0 1 0 6.29z" style="fill:#414141;fill-opacity:1" transform="matrix(.2571 0 0 .2571 3.586 4.008)"/><path fill="#40220f" d="M17.078 20.035a.686.686 0 0 0-.492.184C16.12 20.65 5.19 30.939 4.494 43.7c-.016.184-.382 4.545 1.982 6.949.994 1.01 2.303 1.52 3.899 1.52.181 0 .366-.007.554-.02.901-.08 5.165-1.607 6.42-8.993l-1.224-1.223c-1.066 7.407-5.158 8.847-5.19 8.847l-.039-.002-.039.004c-1.46.106-2.571-.25-3.4-1.092-1.919-1.948-1.603-5.828-1.598-5.89.667-12.226 11.549-22.476 11.658-22.579a.686.686 0 0 0-.44-1.187z" style="fill:#414141;fill-opacity:1" transform="matrix(.2571 0 0 .2571 3.586 4.008)"/></g><path fill="#70c04b" d="M18.992 12.272 12.82 6.098a.351.351 0 0 0-.146-.087L8.978 4.873a.704.704 0 0 0-.705.175L5.008 8.312a.705.705 0 0 0-.166.735l1.323 3.71a.36.36 0 0 0 .083.132l6.064 6.063a.704.704 0 0 0 .996 0l5.684-5.684a.705.705 0 0 0 0-.997zM8.442 9.588a1.057 1.057 0 1 1 0-2.113 1.057 1.057 0 0 1 0 2.114z"/><path fill="#f0f1f1" d="m15.405 16.855 1.324-1.324-.12-1.368-5.047 1.32-.203-1.596 4.142-1.09a1.173 1.173 0 0 0 .834-1.245l-.219-2.156L13.73 7.01 9.506 8.156l-.189 1.297-1.371.206.77 5.698 2.517 2.517zM13.27 9.743l.114 1.287a.352.352 0 0 1-.25.369l-1.984.49-.2-1.623a.352.352 0 0 1 .255-.38l1.62-.451a.351.351 0 0 1 .445.308z"/><path fill="#b5b5b6" d="M8.443 7.15a1.381 1.381 0 1 0 0 2.763 1.381 1.381 0 1 0 0-2.763zm0 2.21a.83.83 0 1 1 0-1.657.83.83 0 0 1 0 1.658z"/><path fill="#dcdddd" d="M8.443 7.446a1.086 1.086 0 1 0 0 2.172 1.086 1.086 0 0 0 0-2.172zm0 1.895a.809.809 0 1 1 0-1.617.809.809 0 0 1 0 1.617z"/><path fill="#40220f" d="M8.164 8.924a.176.176 0 0 0-.127.048c-.12.11-2.93 2.756-3.108 6.036-.004.048-.099 1.169.51 1.787.255.26.591.39 1.002.39.046 0 .094-.001.142-.004.232-.02 1.328-.413 1.65-2.312l-.314-.315c-.274 1.905-1.326 2.275-1.334 2.275h-.02c-.376.027-.661-.064-.875-.28-.493-.501-.412-1.499-.41-1.515.171-3.143 2.969-5.778 2.997-5.805a.176.176 0 0 0-.113-.305z"/></svg>