<svg xmlns="http://www.w3.org/2000/svg" width="24" height="24" fill="none"><path fill="url(#a)" fill-rule="evenodd" d="M9.596 1.114c.12 0 .234-.014.344-.046a31.627 31.627 0 0 1 4.307.011c1.301.102 2.561.384 3.78.848 2.025.833 3.412 2.28 4.158 4.339.427 1.24.679 2.514.756 3.824a27.94 27.94 0 0 1-.114 4.923 11.88 11.88 0 0 1-.894 3.32c-.85 1.843-2.229 3.114-4.135 3.813a15.624 15.624 0 0 1-4.765.825 21.423 21.423 0 0 1-5.453-.413c-3.312-.737-5.354-2.756-6.128-6.056a19.047 19.047 0 0 1-.447-4.511 18.491 18.491 0 0 1 .515-4.786c.812-3.086 2.77-4.998 5.877-5.736a13.953 13.953 0 0 1 2.199-.355Z" clip-rule="evenodd"/><path fill="#000" d="M12.001 4.59a7.877 7.877 0 0 0-7.877 7.873 7.877 7.877 0 0 0 13.446 5.57 7.877 7.877 0 0 0 2.306-5.57 7.877 7.877 0 0 0-7.875-7.873Zm0 3.936a3.937 3.937 0 0 1 2.786 6.724 3.938 3.938 0 0 1-6.723-2.787A3.937 3.937 0 0 1 12 8.526Z" opacity=".15"/><path fill="#fff" d="M11.999 3c-1.616 0-3.04.878-3.976 2.173-.85 1.173-1.26 2.721-1.212 4.358-1.482.774-2.653 1.893-3.276 3.2-.687 1.44-.759 3.098.057 4.475.819 1.376 2.314 2.133 3.923 2.271 1.471.128 3.051-.297 4.486-1.163 1.43.863 3.01 1.293 4.482 1.163 1.61-.138 3.104-.893 3.925-2.27.816-1.378.744-3.037.057-4.476-.625-1.31-1.796-2.428-3.278-3.202.04-1.586-.368-3.119-1.21-4.303C15.047 3.918 13.63 3 12 3H12Zm0 1.501c1.07 0 2.043.595 2.755 1.595.54.76.813 1.758.898 2.798a11.647 11.647 0 0 0-7.308.002c.077-1.08.351-2.095.893-2.845.708-.978 1.682-1.552 2.764-1.552L12 4.5Zm0 5.243c1.233 0 2.453.266 3.618.708-.382 2.492-1.647 4.556-3.614 6.066a9.546 9.546 0 0 1-3.618-6.066 10.212 10.212 0 0 1 3.614-.708Zm-4.986 1.43a11.013 11.013 0 0 0 3.63 6.14c-1.006.475-2.052.751-2.998.67-1.233-.108-2.228-.648-2.762-1.545-.532-.895-.51-1.977.004-3.062.402-.84 1.182-1.59 2.126-2.202Zm9.976.003c.944.612 1.722 1.36 2.124 2.2.517 1.085.536 2.167.004 3.062-.531.897-1.527 1.437-2.764 1.546-.942.08-1.986-.196-2.99-.668a10.8 10.8 0 0 0 3.626-6.14Z"/><defs><radialGradient id="a" cx="0" cy="0" r="1" gradientTransform="matrix(0 22 -22 0 12 1)" gradientUnits="userSpaceOnUse"><stop stop-color="#7091E3"/><stop offset="1" stop-color="#5F7BC1"/></radialGradient></defs></svg>