<svg xmlns="http://www.w3.org/2000/svg" xml:space="preserve" width="24" height="24" viewBox="0 0 6.35 6.35"><defs><radialGradient id="a" cx="0" cy="0" r="1" fx="0" fy="0" gradientTransform="matrix(0 16.5 -16.5 0 9 .75)" gradientUnits="userSpaceOnUse" spreadMethod="pad"><stop offset="0" style="stop-color:#fff;stop-opacity:1"/><stop offset="1" style="stop-color:#6e5dae;stop-opacity:1"/></radialGradient></defs><path d="M7.195.836c.09 0 .176-.012.258-.035a23.86 23.86 0 0 1 3.231.008 10.26 10.26 0 0 1 2.836.636c1.519.625 2.558 1.711 3.121 3.254.316.93.507 1.887.566 2.867a21.227 21.227 0 0 1-.086 3.696 8.976 8.976 0 0 1-.672 2.488c-.637 1.383-1.672 2.336-3.101 2.859a11.693 11.693 0 0 1-3.575.618 15.998 15.998 0 0 1-4.089-.309c-2.481-.551-4.016-2.066-4.594-4.543a14.244 14.244 0 0 1-.336-3.383c-.027-1.211.101-2.41.387-3.59.609-2.312 2.078-3.746 4.406-4.3A10.27 10.27 0 0 1 7.195.836Z" style="fill:url(#a);fill-rule:evenodd;stroke:none;stroke-width:.99975;stroke-dasharray:none" transform="scale(.35277)"/><g transform="matrix(.06843 0 0 .07632 .78 .733)"><rect width="52" height="52" x="-58" y="-58" fill="#f7941e" rx="26" ry="26" transform="matrix(0 -1 -1 0 0 0)"/><g stroke-width=".871"><path fill="#4c3a91" d="M38 6a25.938 25.938 0 0 0-24.63 17.642h49.26A25.938 25.938 0 0 0 37.999 6ZM12.42 27.358a26.183 26.183 0 0 0-.346 2.785h51.855a26.183 26.183 0 0 0-.346-2.786zm-.347 6.498c.066.945.183 1.873.346 2.786h51.163c.163-.913.28-1.841.346-2.786zm1.297 6.501A25.938 25.938 0 0 0 38.001 58a25.938 25.938 0 0 0 24.63-17.643Z"/><path fill="#6e5dae" d="M21.245 39.429A18.2 18.2 0 0 0 38 50.57a18.2 18.2 0 0 0 16.747-11.142Z"/><path fill="#fff" d="M13.37 23.643a25.884 25.884 0 0 0-.952 3.714h51.163a25.884 25.884 0 0 0-.95-3.714zm-1.298 6.5A26.547 26.547 0 0 0 12 32c0 .625.03 1.243.072 1.857h51.855A26.71 26.71 0 0 0 64 32c0-.625-.03-1.243-.073-1.857zm.346 6.5a25.884 25.884 0 0 0 .951 3.714h49.26a25.884 25.884 0 0 0 .951-3.714z"/></g></g></svg>