<svg xmlns="http://www.w3.org/2000/svg" width="24" height="24" fill="none"><path fill="url(#a)" fill-rule="evenodd" d="M9.596 1.114c.12 0 .234-.014.344-.046a31.627 31.627 0 0 1 4.307.011c1.301.102 2.561.384 3.78.848 2.025.833 3.412 2.28 4.158 4.339.427 1.24.679 2.514.756 3.824a27.94 27.94 0 0 1-.114 4.923 11.876 11.876 0 0 1-.894 3.32c-.85 1.843-2.229 3.114-4.135 3.813a15.624 15.624 0 0 1-4.765.825 21.423 21.423 0 0 1-5.453-.413c-3.312-.737-5.354-2.756-6.128-6.056a19.047 19.047 0 0 1-.447-4.511 18.491 18.491 0 0 1 .515-4.786c.812-3.086 2.77-4.998 5.877-5.736a13.954 13.954 0 0 1 2.199-.355Z" clip-rule="evenodd"/><path fill="#F49A2A" fill-rule="evenodd" d="M10.2 5.003c-3.989 0-7.2 3.21-7.2 7.2 0 3.989 3.21 7.2 7.2 7.2.061 0 .063-.102.003-.112A7.176 7.176 0 0 1 4.2 12.202c0-3.58 2.59-6.522 6.003-7.089.063-.01.06-.113-.003-.113" clip-rule="evenodd"/><path fill="#473286" d="M13.098 5.004a7.2 7.2 0 0 0-6.68 4.781c-.109.308.13.617.457.617h1.542a.534.534 0 0 0 .474-.307 4.8 4.8 0 0 1 4.31-2.692 4.8 4.8 0 0 1 3.564 1.592c.184.206.495.257.719.095l1.136-.825a.474.474 0 0 0 .097-.688 7.201 7.201 0 0 0-5.619-2.573Zm.12 3.599a3.732 3.732 0 0 0-1.082.175 3.656 3.656 0 0 0-1.507.93c-.271.277-.043.694.344.694H13.2a1.798 1.798 0 0 1 1.144.412c.216.179.532.243.76.08l.719-.512c.228-.162.28-.483.084-.682a3.706 3.706 0 0 0-2.69-1.097Zm-6.847 2.4a.304.304 0 0 0-.304.262.302.302 0 0 0 .304.337h1.824c.142 0 .26-.105.285-.244a.298.298 0 0 0-.285-.356H6.371Zm3.672 0a.311.311 0 0 0-.302.219c-.057.196.098.38.302.38h1.295c.1 0 .19-.064.232-.156.086-.187-.036-.444-.242-.444h-1.285Zm6.457 0a.3.3 0 0 0-.3.3.3.3 0 0 1-.3.299.3.3 0 0 0-.3.3v.6a.3.3 0 0 0 .3.3.3.3 0 0 1 .3.3.3.3 0 0 0 .3.3h.6a.3.3 0 0 0 .3-.3.3.3 0 0 1 .3-.3.3.3 0 0 0 .3-.3v-.6a.3.3 0 0 0-.3-.3.3.3 0 0 1-.3-.3.3.3 0 0 0-.3-.3h-.6Zm3 0a.3.3 0 0 0-.3.3.3.3 0 0 1-.3.299.3.3 0 0 0-.3.3v.6a.3.3 0 0 0 .3.3.3.3 0 0 1 .3.3.3.3 0 0 0 .3.3h.6a.3.3 0 0 0 .3-.3.3.3 0 0 1 .3-.3.3.3 0 0 0 .3-.3v-.6a.3.3 0 0 0-.3-.3.3.3 0 0 1-.3-.3.3.3 0 0 0-.3-.3h-.6Zm-13.128 1.8a.302.302 0 0 0-.303.339c.02.15.151.26.303.26h1.821a.299.299 0 0 0 .287-.354.293.293 0 0 0-.285-.246H6.372Zm3.674 0c-.204 0-.36.183-.303.38a.31.31 0 0 0 .302.219h1.282c.206 0 .328-.257.241-.444a.26.26 0 0 0-.232-.156h-1.29Zm5.059.708c-.229-.162-.543-.098-.76.08a1.804 1.804 0 0 1-1.145.411h-2.228c-.387 0-.616.417-.345.694.416.426.933.747 1.51.93a3.718 3.718 0 0 0 3.77-.92c.196-.2.144-.52-.084-.683l-.718-.512Zm-8.222.491c-.326 0-.565.31-.456.617a7.2 7.2 0 0 0 4.548 4.43 7.201 7.201 0 0 0 7.743-2.221.474.474 0 0 0-.096-.688l-1.137-.826c-.223-.162-.534-.11-.719.095a4.8 4.8 0 0 1-3.565 1.593 4.8 4.8 0 0 1-4.31-2.692.535.535 0 0 0-.475-.308H6.883Z"/><defs><radialGradient id="a" cx="0" cy="0" r="1" gradientTransform="matrix(0 22 -22 0 12 1)" gradientUnits="userSpaceOnUse"><stop stop-color="#F2F2F2"/><stop offset="1" stop-color="#CCC"/></radialGradient></defs></svg>