<svg xmlns="http://www.w3.org/2000/svg" xmlns:xlink="http://www.w3.org/1999/xlink" width="24" height="24" fill="none"><defs><radialGradient id="a" cx="0" cy="0" r="1" gradientTransform="matrix(0 22 -22 0 12 1)" gradientUnits="userSpaceOnUse"><stop offset="0" stop-color="#8FC8FF" style="stop-color:#373a4b;stop-opacity:1"/><stop offset="1" stop-color="#0056A8" style="stop-color:#2b2e3a;stop-opacity:1"/></radialGradient><radialGradient id="b" cx="0" cy="0" r="1" gradientTransform="matrix(0 22 -22 0 12 1)" gradientUnits="userSpaceOnUse"><stop offset="0" stop-color="#8FC8FF" style="stop-color:#f6f6f6;stop-opacity:1"/><stop offset="1" stop-color="#0056A8" style="stop-color:#cfcfcf;stop-opacity:1"/></radialGradient><radialGradient xlink:href="#a" id="c" cx=".179" cy="-1.748" r="1" fx=".179" fy="-1.748" gradientTransform="matrix(0 90.05947 -90.00681 0 -107.37 -11.19)" gradientUnits="userSpaceOnUse"/></defs><path d="M50 5C9.09 5 5 25.455 5 50c0 32.727 12.273 45 45 45 32.727 0 45-12.273 45-45 0-24.545-4.09-45-45-45Z" style="font-variation-settings:normal;display:inline;opacity:1;vector-effect:none;fill:url(#c);fill-opacity:1;stroke-width:4.56656;stroke-linecap:butt;stroke-linejoin:miter;stroke-miterlimit:4;stroke-dasharray:none;stroke-dashoffset:0;stroke-opacity:1;-inkscape-stroke:none;stop-color:#000;stop-opacity:1" transform="matrix(.24444 0 0 .24444 -.222 -.222)"/><path fill="#fff" d="M12 5a1 1 0 0 0-1 1.001A1 1 0 0 0 12 7a1 1 0 0 0 .914-.597c1.201.857 1.8 2.523 1.996 4.291.215 1.904-.04 3.906-.397 4.978a.25.25 0 0 0 .476.158c.391-1.177.642-3.207.419-5.192-.217-1.935-.89-3.848-2.42-4.782a1 1 0 0 0-.987-.853Zm0 .5a.5.5 0 0 1 .5.466.25.25 0 0 0-.002.061.5.5 0 0 1-.497.473.5.5 0 0 1-.5-.5.5.5 0 0 1 .5-.5zm3.67 2.235a3.593 3.593 0 0 0-.445.015.25.25 0 1 0 .05.499c1.045-.108 1.854.3 2.15 1.029.295.727.1 1.874-1.116 3.312a.25.25 0 1 0 .382.322c1.284-1.517 1.588-2.859 1.198-3.823-.344-.845-1.204-1.33-2.22-1.356Zm-6.978.015c-1.218.021-2.05.4-2.506 1.016-.606.823-.464 1.981.204 3.02a.25.25 0 0 0 .421-.27c-.596-.926-.672-1.842-.223-2.453.452-.611 1.504-1.007 3.374-.716a.25.25 0 1 0 .076-.494 7.87 7.87 0 0 0-1.346-.102Zm5.024.149a.25.25 0 0 0-.03 0 .25.25 0 0 0-.042.01 13.3 13.3 0 0 0-5.34 2.657c-1.475 1.228-2.519 2.728-2.55 4.27a1 1 0 0 0-.254.665 1 1 0 0 0 1 1 1 1 0 0 0 .999-1A1 1 0 0 0 6.5 14.5a1 1 0 0 0-.218.024c.155-1.222 1.044-2.495 2.34-3.576a12.865 12.865 0 0 1 5.134-2.555.25.25 0 0 0-.041-.494ZM12 11A1 1 0 0 0 11 12.002 1 1 0 0 0 12 13a1 1 0 0 0 .999-.998A1 1 0 0 0 12 11zm-4.499 1.648a.25.25 0 0 0-.181.427c1.53 1.581 3.433 2.748 5.223 3.356 1.754.596 3.412.667 4.52-.03a1 1 0 0 0 .437.1 1 1 0 0 0 1-1 1 1 0 0 0-1-1 1 1 0 0 0-1.001 1 1 1 0 0 0 .165.548c-.913.485-2.366.45-3.961-.092-1.707-.58-3.553-1.71-5.024-3.23a.25.25 0 0 0-.178-.079zm-1.003 2.354a.5.5 0 0 1 .5.499.5.5 0 0 1-.5.5.5.5 0 0 1-.499-.5.5.5 0 0 1 .5-.5zm11.002 0A.5.5 0 0 1 18 15.5a.5.5 0 0 1-.5.5.5.5 0 0 1-.5-.5.5.5 0 0 1 .5-.5zm-8.273.744a.25.25 0 0 0-.22.32s.195.718.656 1.443C10.124 18.232 10.886 19 12 19c1.468 0 2.318-1.628 2.318-1.628a.25.25 0 1 0-.437-.242s-.806 1.371-1.883 1.371c-.884 0-1.498-.608-1.913-1.26a5.422 5.422 0 0 1-.596-1.306.25.25 0 0 0-.236-.189.25.25 0 0 0-.026 0z" style="fill:#9feaf9;fill-opacity:1;stroke-width:1.53542"/></svg>