<svg xmlns="http://www.w3.org/2000/svg" xmlns:xlink="http://www.w3.org/1999/xlink" xml:space="preserve" width="24" height="24" fill="none"><defs><linearGradient id="a"><stop offset="0" style="stop-color:#0dbc8a;stop-opacity:1"/><stop offset="1" style="stop-color:#0dbc8a;stop-opacity:1"/></linearGradient><linearGradient xlink:href="#a" id="b" x1="57.287" x2="55.753" y1="95.767" y2="-1.264" gradientTransform="matrix(.24444 0 0 .24444 -.222 -.222)" gradientUnits="userSpaceOnUse"/></defs><path d="M12 1C2 1 1 6 1 12c0 8 3 11 11 11s11-3 11-11c0-6-1-11-11-11Z" style="font-variation-settings:normal;display:inline;opacity:1;vector-effect:none;fill:url(#b);fill-opacity:1;stroke-width:1.11627;stroke-linecap:butt;stroke-linejoin:miter;stroke-miterlimit:4;stroke-dasharray:none;stroke-dashoffset:0;stroke-opacity:1;-inkscape-stroke:none;stop-color:#000;stop-opacity:1"/><path fill="#fff" d="M10.751 4.195a.937.937 0 1 0 0 1.873 4.37 4.37 0 0 1 4.372 4.37.937.937 0 1 0 1.872 0 6.244 6.244 0 0 0-6.244-6.243Zm-.312 2.81a6.244 6.244 0 0 0-6.244 6.244.937.937 0 1 0 1.873 0 4.37 4.37 0 0 1 4.37-4.37.937.937 0 1 0 0-1.873zm8.43 2.81a.937.937 0 0 0-.937.936 4.37 4.37 0 0 1-4.37 4.37.937.937 0 1 0 0 1.874 6.244 6.244 0 0 0 6.243-6.244.937.937 0 0 0-.936-.936ZM7.94 12.625a.937.937 0 0 0-.936.936 6.244 6.244 0 0 0 6.244 6.244.937.937 0 1 0 0-1.873 4.37 4.37 0 0 1-4.37-4.37.937.937 0 0 0-.938-.937Z" style="stroke-width:1.47505"/></svg>