<svg xmlns="http://www.w3.org/2000/svg" xml:space="preserve" width="24" height="24" viewBox="0 0 6.35 6.35"><defs><radialGradient id="a" cx="0" cy="0" r="1" gradientTransform="matrix(0 22 -22 0 12 1)" gradientUnits="userSpaceOnUse"><stop offset="0" stop-color="#8FC8FF" style="stop-color:#f6f6f6;stop-opacity:1"/><stop offset="1" stop-color="#0056A8" style="stop-color:#cfcfcf;stop-opacity:1"/></radialGradient><radialGradient id="b" cx="0" cy="0" r="1" fx="0" fy="0" gradientTransform="matrix(0 16.5 -16.5 0 9 .75)" gradientUnits="userSpaceOnUse" spreadMethod="pad"><stop offset="0" style="stop-opacity:1;stop-color:#fafafa"/><stop offset="1" style="stop-opacity:1;stop-color:silver"/></radialGradient></defs><path d="M7.195.836c.09 0 .176-.012.258-.035a23.86 23.86 0 0 1 3.231.008 10.26 10.26 0 0 1 2.836.636c1.519.625 2.558 1.711 3.121 3.254.316.93.507 1.887.566 2.867a21.227 21.227 0 0 1-.086 3.696 8.976 8.976 0 0 1-.672 2.488c-.637 1.383-1.672 2.336-3.101 2.859a11.693 11.693 0 0 1-3.575.618 15.998 15.998 0 0 1-4.089-.309c-2.481-.551-4.016-2.066-4.594-4.543a14.244 14.244 0 0 1-.336-3.383c-.027-1.211.101-2.41.387-3.59.609-2.312 2.078-3.746 4.406-4.3A10.27 10.27 0 0 1 7.195.836Z" style="fill:url(#b);fill-rule:evenodd;stroke:none" transform="scale(.35277)"/><path fill="#a0ecff" d="M3.106 1.395a.41.41 0 0 0-.41.41v.959c0 .227.183.41.41.41h.822v.288c0 .04.015.062.053.053l.384-.34h.384a.41.41 0 0 0 .41-.411v-.958a.41.41 0 0 0-.41-.41z" opacity=".9" style="stroke-width:.0684262;paint-order:stroke markers fill"/><path fill="#a0ecff" d="M2.286 2.216a.41.41 0 0 0-.41.411v.958c0 .227.183.41.41.41h.822v.288c0 .04.015.062.053.054l.384-.341h.384a.41.41 0 0 0 .41-.411v-.958a.41.41 0 0 0-.41-.41z" opacity=".9" style="opacity:.25734;fill:#5ca4ed;fill-opacity:1;stroke-width:.0684262;paint-order:stroke markers fill"/><path d="M1.601 2.216a.41.41 0 0 0-.41.41v1.37a.41.41 0 0 0 .41.41h.413l.615.546c.05.01.068-.018.068-.068v-.478h1.23a.41.41 0 0 0 .411-.41v-.798l-.357.317a.082.082 0 0 1-.02.002h-.005a.033.033 0 0 1-.009-.004.038.038 0 0 1-.016-.025.083.083 0 0 1-.003-.026v-.288h-.821a.41.41 0 0 1-.411-.41v-.548Z" style="fill:#5ca4ed;fill-opacity:1;stroke-width:.0684262;paint-order:stroke markers fill"/><circle cx="2.057" cy="3.407" r=".177" fill="#fff" opacity=".35" paint-order="markers stroke fill" style="stroke-width:.267241"/><circle cx="2.764" cy="3.407" r=".177" fill="#fff" opacity=".35" paint-order="markers stroke fill" style="stroke-width:.267241"/><circle cx="3.471" cy="3.407" r=".177" fill="#fff" opacity=".35" paint-order="markers stroke fill" style="stroke-width:.267241"/></svg>