<svg xmlns="http://www.w3.org/2000/svg" xmlns:xlink="http://www.w3.org/1999/xlink" xml:space="preserve" width="24" height="24" fill="none"><defs><linearGradient id="d" x1="0" x2="1" y1="0" y2="0" gradientTransform="rotate(-27.533 959.832 -107.303) scale(440.04492)" gradientUnits="userSpaceOnUse" spreadMethod="pad"><stop offset="0" style="stop-opacity:.99607843;stop-color:#fff"/><stop offset=".341" style="stop-opacity:1;stop-color:#fff"/><stop offset="1" style="stop-opacity:.99607843;stop-color:#fff"/></linearGradient><linearGradient id="j" x1="0" x2="1" y1="0" y2="0" gradientTransform="rotate(-90 277.932 105.877) scale(204.88353)" gradientUnits="userSpaceOnUse" spreadMethod="pad"><stop offset="0" style="stop-opacity:1;stop-color:#fff"/><stop offset=".209" style="stop-opacity:1;stop-color:#fff"/><stop offset="1" style="stop-opacity:0;stop-color:#fff"/></linearGradient><linearGradient id="b" x1="0" x2="1" y1="0" y2="0" gradientTransform="translate(286.883 536.985) scale(119.59705)" gradientUnits="userSpaceOnUse" spreadMethod="pad"><stop offset="0" style="stop-opacity:1;stop-color:#fff"/><stop offset=".875" style="stop-opacity:0;stop-color:#fff"/><stop offset="1" style="stop-opacity:0;stop-color:#fff"/></linearGradient><linearGradient id="h" x1="0" x2="1" y1="0" y2="0" gradientTransform="scale(77.80141) rotate(46.017 -4.872 6.051)" gradientUnits="userSpaceOnUse" spreadMethod="pad"><stop offset="0" style="stop-opacity:1;stop-color:#fff"/><stop offset=".536" style="stop-opacity:1;stop-color:#fff"/><stop offset="1" style="stop-opacity:0;stop-color:#fff"/></linearGradient><linearGradient id="l" x1="0" x2="1" y1="0" y2="0" gradientTransform="scale(-158.43383) rotate(49.874 .59 -4.16)" gradientUnits="userSpaceOnUse" spreadMethod="pad"><stop offset="0" style="stop-opacity:0;stop-color:#fff"/><stop offset=".077" style="stop-opacity:0;stop-color:#fff"/><stop offset="1" style="stop-opacity:.99607843;stop-color:#fff"/></linearGradient><linearGradient xlink:href="#b" id="a" x1="0" x2="1" y1="0" y2="0" gradientTransform="translate(286.883 536.985) scale(119.59705)" gradientUnits="userSpaceOnUse" spreadMethod="pad"/><linearGradient xlink:href="#d" id="c" x1="0" x2="1" y1="0" y2="0" gradientTransform="rotate(-27.533 959.832 -107.303) scale(440.04492)" gradientUnits="userSpaceOnUse" spreadMethod="pad"/><linearGradient xlink:href="#h" id="g" x1="0" x2="1" y1="0" y2="0" gradientTransform="scale(77.80141) rotate(46.017 -4.872 6.051)" gradientUnits="userSpaceOnUse" spreadMethod="pad"/><linearGradient xlink:href="#j" id="i" x1="0" x2="1" y1="0" y2="0" gradientTransform="rotate(-90 277.932 105.877) scale(204.88353)" gradientUnits="userSpaceOnUse" spreadMethod="pad"/><linearGradient xlink:href="#l" id="k" x1="0" x2="1" y1="0" y2="0" gradientTransform="scale(-158.43383) rotate(49.874 .59 -4.16)" gradientUnits="userSpaceOnUse" spreadMethod="pad"/><radialGradient id="m" cx="0" cy="0" r="1" fx="0" fy="0" gradientTransform="matrix(0 11 -11 0 -22 1)" gradientUnits="userSpaceOnUse" spreadMethod="pad"><stop offset="0" style="stop-color:#646464;stop-opacity:1"/><stop offset="1" style="stop-color:#333;stop-opacity:1"/></radialGradient><radialGradient id="f" cx="0" cy="0" r="1" fx="0" fy="0" gradientTransform="matrix(-547.24042 -131.02512 152.52774 -637.04834 566.544 160.383)" gradientUnits="userSpaceOnUse" spreadMethod="pad"><stop offset="0" style="stop-opacity:1;stop-color:#fff"/><stop offset=".212" style="stop-opacity:1;stop-color:#fff"/><stop offset=".688" style="stop-opacity:1;stop-color:#fff"/><stop offset="1" style="stop-opacity:.99607843;stop-color:#fff"/></radialGradient><radialGradient xlink:href="#f" id="e" cx="0" cy="0" r="1" fx="0" fy="0" gradientTransform="matrix(-547.24042 -131.02512 152.52774 -637.04834 566.544 160.383)" gradientUnits="userSpaceOnUse" spreadMethod="pad"/></defs><path d="M-24.407 1.115c.12 0 .235-.016.344-.047a31.813 31.813 0 0 1 4.308.01 13.68 13.68 0 0 1 3.781.849c2.026.833 3.41 2.281 4.162 4.338.42 1.24.676 2.516.754 3.823a28.303 28.303 0 0 1-.114 4.928 11.968 11.968 0 0 1-.896 3.317c-.85 1.844-2.23 3.115-4.135 3.812-1.543.522-3.13.798-4.767.824a21.331 21.331 0 0 1-5.452-.412c-3.308-.734-5.354-2.754-6.125-6.057a18.991 18.991 0 0 1-.448-4.51 18.502 18.502 0 0 1 .516-4.787c.812-3.083 2.77-4.995 5.875-5.734a13.692 13.692 0 0 1 2.197-.354z" style="fill:url(#m);fill-rule:evenodd;stroke:none;stroke-width:1.33333" transform="translate(34)"/><g style="stroke-width:1.00485"><path fill="#e4c82f" d="M-36.12 24.827h2.427c.008 0 .013.002.013.002v1.222s-.005.002-.013.002h-2.427l-.014-.002v-1.222s.007-.003.014-.003" style="stroke-width:.411415" transform="translate(43.886 -8.428) scale(.99517)"/><path fill="#e4c82f" fill-opacity=".902" d="M-36.12 23.18h2.427a.03.03 0 0 1 .013.003v1.222s-.005.003-.013.003h-2.427c-.007 0-.014-.003-.014-.003v-1.222l.014-.002" style="stroke-width:.411415" transform="translate(43.886 -8.428) scale(.99517)"/><path fill="#e4c82f" fill-opacity=".8" d="M-36.12 21.535h2.427c.008 0 .013 0 .013.002v1.206c0 .003-.005.003-.013.003h-2.427c-.007 0-.014 0-.014-.003v-1.206c0-.002.007-.002.014-.002" style="stroke-width:.411415" transform="translate(43.886 -8.428) scale(.99517)"/><path fill="#e4c82f" fill-opacity=".702" d="M-36.12 19.914h2.427a.03.03 0 0 1 .013.002v1.199s-.005.002-.013.002h-2.427l-.014-.002v-1.199l.014-.002" style="stroke-width:.411415" transform="translate(43.886 -8.428) scale(.99517)"/><path fill="#e4c82f" fill-opacity=".6" d="M-36.12 18.277h2.427c.008 0 .013 0 .013.002v1.191s-.005.003-.013.003h-2.427c-.007 0-.014-.003-.014-.003v-1.19c0-.003.007-.003.014-.003" style="stroke-width:.411415" transform="translate(43.886 -8.428) scale(.99517)"/><path fill="#3e8ded" d="M-30.39 24.832h2.43c.008 0 .013 0 .013.003v1.213s-.005.003-.013.003h-2.43c-.007 0-.012-.003-.012-.003v-1.213c0-.003.005-.003.013-.003" style="stroke-width:.411415" transform="translate(43.886 -8.428) scale(.99517)"/><path fill="#3e8ded" fill-opacity=".902" d="M-30.39 23.203h2.43a.03.03 0 0 1 .013.002v1.206c0 .003-.005.003-.013.003h-2.43c-.007 0-.012 0-.012-.003v-1.206s.005-.002.013-.002" style="stroke-width:.411415" transform="translate(43.886 -8.428) scale(.99517)"/><path fill="#3e8ded" fill-opacity=".8" d="M-30.39 21.553h2.43a.03.03 0 0 1 .013.003v1.2s-.005.003-.013.003h-2.43c-.007 0-.012-.002-.012-.002v-1.202s.005-.002.013-.002" style="stroke-width:.411415" transform="translate(43.886 -8.428) scale(.99517)"/><path fill="#3e8ded" fill-opacity=".702" d="M-30.39 19.945h2.43c.008 0 .013 0 .013.002v1.191s-.005.003-.013.003h-2.43c-.007 0-.012-.003-.012-.003v-1.19c0-.003.005-.003.013-.003" style="stroke-width:.411415" transform="translate(43.886 -8.428) scale(.99517)"/><path fill="#3e8ded" fill-opacity=".6" d="M-30.39 18.314h2.43a.03.03 0 0 1 .013.002v1.182c0 .002-.005.002-.013.002h-2.43c-.007 0-.012 0-.012-.002v-1.182s.005-.002.013-.002" style="stroke-width:.411415" transform="translate(43.886 -8.428) scale(.99517)"/><path fill="#3e8ded" fill-opacity=".502" d="M-30.39 16.634h2.43a.03.03 0 0 1 .013.003v1.222c0 .002-.005.002-.013.002h-2.43c-.007 0-.012 0-.012-.002v-1.222s.005-.003.013-.003" style="stroke-width:.411415" transform="translate(43.886 -8.428) scale(.99517)"/><path fill="#db4ddb" d="M-27.523 24.827h2.43c.007 0 .012.002.012.002v1.222s-.005.002-.013.002h-2.43c-.007 0-.012-.002-.012-.002v-1.222s.005-.003.013-.003" style="stroke-width:.411415" transform="translate(43.886 -8.428) scale(.99517)"/><path fill="#db4ddb" fill-opacity=".902" d="M-27.523 23.19h2.43c.007 0 .012 0 .012.003v1.215s-.005.002-.013.002h-2.43c-.007 0-.012-.002-.012-.002v-1.215c0-.002.005-.002.013-.002" style="stroke-width:.411415" transform="translate(43.886 -8.428) scale(.99517)"/><path fill="#db4ddb" fill-opacity=".8" d="M-27.523 21.535h2.43c.007 0 .012 0 .012.002v1.206c0 .003-.005.003-.013.003h-2.43c-.007 0-.012 0-.012-.003v-1.206c0-.002.005-.002.013-.002" style="stroke-width:.411415" transform="translate(43.886 -8.428) scale(.99517)"/><path fill="#db4ddb" fill-opacity=".702" d="M-27.523 19.914h2.43a.03.03 0 0 1 .012.002v1.199s-.005.002-.013.002h-2.43c-.007 0-.012-.002-.012-.002v-1.199s.005-.002.013-.002" style="stroke-width:.411415" transform="translate(43.886 -8.428) scale(.99517)"/><path fill="#db4ddb" fill-opacity=".6" d="M-27.523 18.277h2.43c.007 0 .012 0 .012.002v1.191s-.005.003-.013.003h-2.43c-.007 0-.012-.003-.012-.003v-1.19c0-.003.005-.003.013-.003" style="stroke-width:.411415" transform="translate(43.886 -8.428) scale(.99517)"/><path fill="#7fcf5b" d="M-33.254 24.827h2.427c.008 0 .013.002.013.002v1.222s-.005.002-.013.002h-2.427l-.014-.002v-1.222s.007-.003.014-.003" style="stroke-width:.411415" transform="translate(43.886 -8.428) scale(.99517)"/><path fill="#7fcf5b" fill-opacity=".902" d="M-33.254 23.19h2.427c.008 0 .013 0 .013.003v1.215s-.005.002-.013.002h-2.427l-.014-.002v-1.215c0-.002.007-.002.014-.002" style="stroke-width:.411415" transform="translate(43.886 -8.428) scale(.99517)"/><path fill="#7fcf5b" fill-opacity=".8" d="M-33.254 21.535h2.427c.008 0 .013 0 .013.002v1.206c0 .003-.005.003-.013.003h-2.427c-.007 0-.014 0-.014-.003v-1.206c0-.002.007-.002.014-.002" style="stroke-width:.411415" transform="translate(43.886 -8.428) scale(.99517)"/><path fill="#c52f2f" d="M-38.986 24.827h2.427c.008 0 .013.002.013.002v1.222s-.005.002-.013.002h-2.427l-.014-.002v-1.222s.007-.003.014-.003" style="stroke-width:.411415" transform="translate(43.886 -8.428) scale(.99517)"/><path fill="#c52f2f" fill-opacity=".902" d="M-38.986 23.203h2.427a.03.03 0 0 1 .013.002v1.208H-39v-1.208l.014-.002" style="stroke-width:.411415" transform="translate(43.886 -8.428) scale(.99517)"/><path fill="#c52f2f" fill-opacity=".8" d="M-38.986 21.547h2.44v1.201c0 .003-.005.003-.013.003h-2.427c-.007 0-.014 0-.014-.003v-1.2h.014" style="stroke-width:.411415" transform="translate(43.886 -8.428) scale(.99517)"/><path fill="#c52f2f" fill-opacity=".702" d="M-38.986 19.945h2.427c.008 0 .013 0 .013.002v1.191s-.005.003-.013.003h-2.427c-.007 0-.014-.003-.014-.003v-1.19c0-.003.007-.003.014-.003" style="stroke-width:.411415" transform="translate(43.886 -8.428) scale(.99517)"/><path fill="#c52f2f" fill-opacity=".6" d="M-38.986 18.314h2.427a.03.03 0 0 1 .013.002V19.5H-39v-1.184l.014-.002" style="stroke-width:.411415" transform="translate(43.886 -8.428) scale(.99517)"/><path fill="#c52f2f" fill-opacity=".502" d="M-38.986 16.634h2.427c.008 0 .013 0 .013.003v1.22c0 .002-.005.002-.013.002h-2.427c-.007 0-.014 0-.014-.003v-1.22c0-.002.007-.002.014-.002" style="stroke-width:.411415" transform="translate(43.886 -8.428) scale(.99517)"/><path fill="#c52f2f" fill-opacity=".4" d="M-38.986 15h2.427c.008 0 .013.003.013.003v1.222s-.005.002-.013.002h-2.427l-.014-.002v-1.223l.014-.002" style="stroke-width:.411415" transform="translate(43.886 -8.428) scale(.99517)"/></g></svg>