<svg xmlns="http://www.w3.org/2000/svg" xmlns:xlink="http://www.w3.org/1999/xlink" width="24" height="24" viewBox="0 0 6.35 6.35"><defs><linearGradient id="a" x1="8.996" x2="8.996" y1="1.852" y2="3.439" gradientTransform="translate(10.495 -.2)" gradientUnits="userSpaceOnUse"><stop offset="0" stop-color="#3db0ff"/><stop offset="1" stop-color="#85cdff"/></linearGradient><linearGradient xlink:href="#a" id="c" x1="8.996" x2="8.996" y1="1.852" y2="3.439" gradientTransform="matrix(.4443 0 0 .4443 -.822 -.202)" gradientUnits="userSpaceOnUse"/><radialGradient id="b" cx="0" cy="0" r="1" fx="0" fy="0" gradientTransform="rotate(90 1.455 1.72) scale(5.82072)" gradientUnits="userSpaceOnUse" spreadMethod="pad"><stop offset="0" style="stop-color:#f8f8f8;stop-opacity:1"/><stop offset="1" style="stop-color:#474747;stop-opacity:1"/></radialGradient></defs><path d="M2.538.295A.334.334 0 0 0 2.63.283a8.42 8.42 0 0 1 1.14.002 3.62 3.62 0 0 1 1 .225c.536.22.903.603 1.101 1.148.112.328.18.665.2 1.011.028.436.018.87-.03 1.304a3.166 3.166 0 0 1-.237.878c-.225.487-.59.824-1.094 1.008a4.125 4.125 0 0 1-1.261.218 5.644 5.644 0 0 1-1.443-.109C1.13 5.774.588 5.24.385 4.366a5.025 5.025 0 0 1-.12-1.194c-.009-.427.036-.85.137-1.266C.617 1.09 1.135.584 1.957.389c.191-.047.386-.079.581-.094Z" style="fill:url(#b);fill-rule:evenodd;stroke:none;stroke-width:.352683;stroke-dasharray:none"/><path d="M4.32 5.987 4.29 4.94c-.014-.548.437-1 1.011-1.016l.747-.02a3.914 3.914 0 0 1-.151.733c-.184.553-.54.948-1.07 1.184a3.595 3.595 0 0 1-.509.166Z" style="opacity:.727273;mix-blend-mode:normal;fill:#f8f9f9;fill-opacity:1;stroke-width:.637963;paint-order:stroke fill markers"/><path fill="#fafafa" d="M1.477 4.63v-.242h2.426v.242zm0-.727V3.66h3.396v.243zm0-.728v-.243h3.396v.243zm0-.728v-.242h3.396v.242z" style="fill:#fff;fill-opacity:1;stroke-width:.264578"/><path fill="#008fff" d="M3.175.268a.384.384 0 0 0-.382.382c0 .21.173.382.382.382.21 0 .382-.173.382-.382a.384.384 0 0 0-.382-.382zm0 .235c.083 0 .147.064.147.147a.145.145 0 0 1-.147.147.145.145 0 0 1-.147-.147c0-.083.065-.147.147-.147z" color="#000" style="font-variant-ligatures:normal;font-variant-position:normal;font-variant-caps:normal;font-variant-numeric:normal;font-variant-alternates:normal;font-variant-east-asian:normal;font-feature-settings:normal;font-variation-settings:normal;text-indent:0;text-decoration-line:none;text-decoration-style:solid;text-decoration-color:#000;text-transform:none;text-orientation:mixed;white-space:normal;shape-padding:0;shape-margin:0;inline-size:0;isolation:auto;mix-blend-mode:normal;stroke-width:.444296"/><path fill="url(#a)" fill-rule="evenodd" d="M2.352 1.326s.117-.705.352-.705h.941c.235 0 .353.705.353.705z" style="fill:url(#c);stroke-width:.444296"/></svg>