<svg xmlns="http://www.w3.org/2000/svg" width="24" height="24" fill="none"><path fill="url(#a)" fill-rule="evenodd" d="M9.596 1.114c.12 0 .234-.014.344-.046a31.627 31.627 0 0 1 4.307.011c1.301.102 2.561.384 3.78.848 2.025.833 3.412 2.28 4.158 4.339.427 1.24.679 2.514.756 3.824a27.94 27.94 0 0 1-.114 4.923 11.876 11.876 0 0 1-.894 3.32c-.85 1.843-2.229 3.114-4.135 3.813a15.624 15.624 0 0 1-4.765.825 21.423 21.423 0 0 1-5.453-.413c-3.312-.737-5.354-2.756-6.128-6.056a19.047 19.047 0 0 1-.447-4.511 18.491 18.491 0 0 1 .515-4.786c.812-3.086 2.77-4.998 5.877-5.736a13.954 13.954 0 0 1 2.199-.355Z" clip-rule="evenodd"/><path fill="#F9F9F9" d="M12.308 4.615a.615.615 0 1 0-1.231 0v12.923a.615.615 0 1 0 1.23 0V4.615Z"/><path fill="#F0D069" d="M11.692 11.385a4.295 4.295 0 0 0-4.127 3.077l.435.615-.615.615V20H16v-4.308l-.615-.615.435-.615a4.295 4.295 0 0 0-4.128-3.077Z"/><path fill="#F77D58" d="M7.565 14.462c-.119.4-.18.814-.18 1.23H16c0-.428-.065-.84-.18-1.23H7.565Z"/><path fill="#F9F9F9" d="M5.846 6.154A1.846 1.846 0 0 1 4 8a1.846 1.846 0 0 1 1.846 1.846A1.846 1.846 0 0 1 7.693 8a1.846 1.846 0 0 1-1.847-1.846Zm12.308 3.077a1.846 1.846 0 0 1-1.846 1.846 1.847 1.847 0 0 1 1.846 1.846A1.846 1.846 0 0 1 20 11.077a1.846 1.846 0 0 1-1.846-1.846Z"/><defs><radialGradient id="a" cx="0" cy="0" r="1" gradientTransform="matrix(0 22 -22 0 12 1)" gradientUnits="userSpaceOnUse"><stop stop-color="#CF70A4"/><stop offset="1" stop-color="#711246"/></radialGradient></defs></svg>