<svg xmlns="http://www.w3.org/2000/svg" xmlns:xlink="http://www.w3.org/1999/xlink" xml:space="preserve" width="24" height="24" fill="none"><defs><linearGradient id="d" x1="0" x2="1" y1="0" y2="0" gradientTransform="rotate(-27.533 959.832 -107.303) scale(440.04492)" gradientUnits="userSpaceOnUse" spreadMethod="pad"><stop offset="0" style="stop-opacity:.99607843;stop-color:#fff"/><stop offset=".341" style="stop-opacity:1;stop-color:#fff"/><stop offset="1" style="stop-opacity:.99607843;stop-color:#fff"/></linearGradient><linearGradient id="j" x1="0" x2="1" y1="0" y2="0" gradientTransform="rotate(-90 277.932 105.877) scale(204.88353)" gradientUnits="userSpaceOnUse" spreadMethod="pad"><stop offset="0" style="stop-opacity:1;stop-color:#fff"/><stop offset=".209" style="stop-opacity:1;stop-color:#fff"/><stop offset="1" style="stop-opacity:0;stop-color:#fff"/></linearGradient><linearGradient id="b" x1="0" x2="1" y1="0" y2="0" gradientTransform="translate(286.883 536.985) scale(119.59705)" gradientUnits="userSpaceOnUse" spreadMethod="pad"><stop offset="0" style="stop-opacity:1;stop-color:#fff"/><stop offset=".875" style="stop-opacity:0;stop-color:#fff"/><stop offset="1" style="stop-opacity:0;stop-color:#fff"/></linearGradient><linearGradient id="h" x1="0" x2="1" y1="0" y2="0" gradientTransform="scale(77.80141) rotate(46.017 -4.872 6.051)" gradientUnits="userSpaceOnUse" spreadMethod="pad"><stop offset="0" style="stop-opacity:1;stop-color:#fff"/><stop offset=".536" style="stop-opacity:1;stop-color:#fff"/><stop offset="1" style="stop-opacity:0;stop-color:#fff"/></linearGradient><linearGradient id="l" x1="0" x2="1" y1="0" y2="0" gradientTransform="scale(-158.43383) rotate(49.874 .59 -4.16)" gradientUnits="userSpaceOnUse" spreadMethod="pad"><stop offset="0" style="stop-opacity:0;stop-color:#fff"/><stop offset=".077" style="stop-opacity:0;stop-color:#fff"/><stop offset="1" style="stop-opacity:.99607843;stop-color:#fff"/></linearGradient><linearGradient xlink:href="#b" id="a" x1="0" x2="1" y1="0" y2="0" gradientTransform="translate(286.883 536.985) scale(119.59705)" gradientUnits="userSpaceOnUse" spreadMethod="pad"/><linearGradient xlink:href="#d" id="c" x1="0" x2="1" y1="0" y2="0" gradientTransform="rotate(-27.533 959.832 -107.303) scale(440.04492)" gradientUnits="userSpaceOnUse" spreadMethod="pad"/><linearGradient xlink:href="#h" id="g" x1="0" x2="1" y1="0" y2="0" gradientTransform="scale(77.80141) rotate(46.017 -4.872 6.051)" gradientUnits="userSpaceOnUse" spreadMethod="pad"/><linearGradient xlink:href="#j" id="i" x1="0" x2="1" y1="0" y2="0" gradientTransform="rotate(-90 277.932 105.877) scale(204.88353)" gradientUnits="userSpaceOnUse" spreadMethod="pad"/><linearGradient xlink:href="#l" id="k" x1="0" x2="1" y1="0" y2="0" gradientTransform="scale(-158.43383) rotate(49.874 .59 -4.16)" gradientUnits="userSpaceOnUse" spreadMethod="pad"/><radialGradient id="m" cx="0" cy="0" r="1" fx="0" fy="0" gradientTransform="matrix(0 11 -11 0 -22 1)" gradientUnits="userSpaceOnUse" spreadMethod="pad"><stop offset="0" style="stop-color:#647083;stop-opacity:1"/><stop offset="1" style="stop-color:#3c4553;stop-opacity:1"/></radialGradient><radialGradient id="f" cx="0" cy="0" r="1" fx="0" fy="0" gradientTransform="matrix(-547.24042 -131.02512 152.52774 -637.04834 566.544 160.383)" gradientUnits="userSpaceOnUse" spreadMethod="pad"><stop offset="0" style="stop-opacity:1;stop-color:#fff"/><stop offset=".212" style="stop-opacity:1;stop-color:#fff"/><stop offset=".688" style="stop-opacity:1;stop-color:#fff"/><stop offset="1" style="stop-opacity:.99607843;stop-color:#fff"/></radialGradient><radialGradient xlink:href="#f" id="e" cx="0" cy="0" r="1" fx="0" fy="0" gradientTransform="matrix(-547.24042 -131.02512 152.52774 -637.04834 566.544 160.383)" gradientUnits="userSpaceOnUse" spreadMethod="pad"/></defs><path d="M-24.407 1.115c.12 0 .235-.016.344-.047a31.813 31.813 0 0 1 4.308.01 13.68 13.68 0 0 1 3.781.849c2.026.833 3.41 2.281 4.162 4.338.42 1.24.676 2.516.754 3.823a28.303 28.303 0 0 1-.114 4.928 11.968 11.968 0 0 1-.896 3.317c-.85 1.844-2.23 3.115-4.135 3.812-1.543.522-3.13.798-4.767.824a21.331 21.331 0 0 1-5.452-.412c-3.308-.734-5.354-2.754-6.125-6.057a18.991 18.991 0 0 1-.448-4.51 18.502 18.502 0 0 1 .516-4.787c.812-3.083 2.77-4.995 5.875-5.734a13.692 13.692 0 0 1 2.197-.354z" style="fill:url(#m);fill-rule:evenodd;stroke:none;stroke-width:1.33333" transform="translate(34)"/><path fill="#12a1ff" d="M-23.057 5.501c-.386-.005-.468.01-.58.105-.082.07-.149.211-.174.366-.011.07-.017.556-.017 1.324 0 .97-.005 1.215-.022 1.215-.012 0-.63-.61-1.375-1.356a70.108 70.108 0 0 0-1.427-1.406 1.688 1.688 0 0 0-.453-.204c-.125-.034-.18-.037-.749-.043-.337-.004-.614 0-.614.007 0 .008 1.29 1.303 2.866 2.88 1.464 1.463 2.5 2.495 2.673 2.66V5.503Zm2.113 0-.128.002v5.546c.173-.165 1.21-1.197 2.674-2.661a426.248 426.248 0 0 0 2.865-2.879c0-.008-.276-.01-.614-.007-.568.006-.623.009-.749.043a1.693 1.693 0 0 0-.452.204c-.04.028-.682.66-1.427 1.406A61.826 61.826 0 0 1-20.15 8.51c-.017 0-.022-.243-.022-1.214 0-.768-.006-1.255-.017-1.324-.025-.155-.093-.295-.175-.366-.111-.095-.194-.11-.58-.105zm-7.538 2.367c-.018 0-.02.104-.015.58.007.56.007.585.05.74a1.741 1.741 0 0 0 .228.515c.058.089.364.406 1.163 1.208l1.085 1.088-1.084 1.087c-.8.802-1.106 1.12-1.164 1.208a1.74 1.74 0 0 0-.228.515c-.043.155-.044.181-.05.741-.006.475-.003.58.015.58.032 0 4.13-4.1 4.13-4.13 0-.032-4.098-4.132-4.13-4.132zm12.964 0c-.031 0-4.129 4.1-4.129 4.13 0 .032 4.097 4.131 4.13 4.131.017 0 .02-.104.014-.58-.006-.56-.007-.585-.05-.74a1.741 1.741 0 0 0-.228-.515c-.058-.088-.364-.406-1.163-1.208L-18.03 12l1.085-1.088c.8-.802 1.105-1.12 1.163-1.208.104-.16.175-.32.228-.515.043-.156.044-.18.05-.74.006-.476.004-.58-.015-.58zm-7.41 5.08c-.396.38-5.54 5.523-5.54 5.54 0 .008.277.012.615.008.567-.006.623-.01.749-.044a1.69 1.69 0 0 0 .452-.203c.04-.028.681-.66 1.427-1.406a63.24 63.24 0 0 1 1.375-1.356c.017 0 .022.243.022 1.214 0 .768.006 1.255.017 1.325.038.238.155.397.327.448.062.019.173.026.417.026.074 0 .082-.003.138-.005zm1.857 0v5.547c.056.001.064.005.137.005.245 0 .356-.007.418-.026.172-.051.288-.21.327-.449.011-.069.017-.556.017-1.324 0-.97.005-1.215.022-1.215.012 0 .63.61 1.375 1.356a70.15 70.15 0 0 0 1.427 1.407c.108.075.3.161.452.203.126.034.182.038.75.044.337.004.613 0 .613-.008 0-.017-5.143-5.16-5.538-5.54z" style="stroke-width:.351256" transform="translate(34)"/></svg>