<svg xmlns="http://www.w3.org/2000/svg" width="24" height="24"><defs><radialGradient id="a" cx="0" cy="0" r="1" fx="0" fy="0" gradientTransform="matrix(0 22 -22 0 12 1)" gradientUnits="userSpaceOnUse" spreadMethod="pad"><stop offset="0" style="stop-color:#f5f7f2;stop-opacity:1"/><stop offset="1" style="stop-color:#a2ca4c;stop-opacity:1"/></radialGradient></defs><path d="M9.593 1.115c.12 0 .235-.016.344-.047a31.815 31.815 0 0 1 4.308.01 13.68 13.68 0 0 1 3.781.849c2.026.833 3.41 2.281 4.162 4.338.42 1.24.676 2.516.754 3.823a28.303 28.303 0 0 1-.114 4.928 11.967 11.967 0 0 1-.896 3.317c-.85 1.844-2.23 3.115-4.135 3.812-1.543.522-3.13.798-4.767.824a21.33 21.33 0 0 1-5.452-.412c-3.308-.734-5.354-2.754-6.125-6.057a18.992 18.992 0 0 1-.448-4.51 18.506 18.506 0 0 1 .516-4.787c.812-3.083 2.77-4.995 5.875-5.734a13.692 13.692 0 0 1 2.197-.354Z" style="fill:url(#a);fill-rule:evenodd;stroke:none;stroke-width:1.333;stroke-dasharray:none"/><path d="m16.35 1.388-.105 3.957c-.055 2.07 1.65 3.782 3.822 3.84l2.823.076a14.795 14.795 0 0 0-.573-2.773c-.696-2.087-2.043-3.58-4.045-4.473a13.586 13.586 0 0 0-1.922-.627Z" style="opacity:.727273;mix-blend-mode:normal;fill:#f8f9f9;fill-opacity:1;stroke-width:2.41125;paint-order:stroke fill markers"/><path fill="#f9f9f9" d="M12.093 5.292c-.774 0-1.402.434-1.402.97.023.2.15.453.216.54.323.43.323.7.243.862H8.534a.861.861 0 0 0-.863.863v2.184c.162.08.432.08.863-.243.087-.066.34-.193.54-.216.536 0 .97.628.97 1.403 0 .774-.434 1.401-.97 1.401-.165-.002-.415-.15-.54-.215-.431-.324-.7-.324-.863-.243v2.83c0 .479.385.864.863.864h3.478c.081-.162.081-.432-.242-.863a1.349 1.349 0 0 1-.216-.54c0-.535.628-.97 1.402-.97.774 0 1.402.435 1.402.97-.003.165-.15.416-.216.54-.323.431-.323.7-.242.863h1.536a.86.86 0 0 0 .863-.863v-2.4c.162-.08.432-.08.863.243.124.066.374.213.539.216.536 0 .97-.628.97-1.402 0-.774-.434-1.402-.97-1.402-.2.022-.452.149-.54.216-.43.323-.7.323-.862.242V8.527a.86.86 0 0 0-.863-.863h-2.4c-.08-.161-.08-.431.243-.862.066-.125.214-.375.216-.54 0-.536-.627-.97-1.402-.97z" style="stroke-width:.34375"/></svg>