<svg xmlns="http://www.w3.org/2000/svg" xmlns:xlink="http://www.w3.org/1999/xlink" xml:space="preserve" width="24" height="24" fill="none"><defs><linearGradient xlink:href="#a" id="e" x1="49.298" x2="95.398" y1="81.098" y2="56.09" gradientTransform="matrix(.37868 0 0 .26203 4.272 4.257)" gradientUnits="userSpaceOnUse"/><linearGradient id="a"><stop offset="0" stop-color="#fff"/><stop offset="1" stop-color="#dadada"/></linearGradient><linearGradient xlink:href="#a" id="g" x1="61.021" x2="27.009" y1="119.444" y2="77.338" gradientTransform="matrix(.35013 0 0 .2834 4.272 4.257)" gradientUnits="userSpaceOnUse"/><linearGradient id="c" x1="87.486" x2="39.143" y1="37.283" y2="58.524" gradientTransform="matrix(.42584 0 0 .23301 4.272 4.257)" gradientUnits="userSpaceOnUse"><stop offset="0" stop-color="#d0d0d0"/><stop offset="1" stop-color="#fff"/></linearGradient><linearGradient xlink:href="#b" id="j" x1="39.132" x2="-14.568" y1="94.824" y2="160.96" gradientTransform="matrix(.36573 0 0 .2713 4.272 4.257)" gradientUnits="userSpaceOnUse"/><linearGradient id="b"><stop offset="0" stop-color="#ffdc68"/><stop offset="1" stop-color="#ce4300"/></linearGradient><linearGradient xlink:href="#b" id="l" x1="24.439" x2="12.066" y1="54.424" y2="58.197" gradientTransform="matrix(.67462 0 0 .14709 4.272 4.257)" gradientUnits="userSpaceOnUse"/><linearGradient xlink:href="#b" id="n" x1="32.174" x2="-13.135" y1="91.75" y2="161.326" gradientTransform="matrix(.47125 0 0 .21056 4.272 4.257)" gradientUnits="userSpaceOnUse"/><linearGradient xlink:href="#a" id="f" x1="49.298" x2="95.398" y1="81.098" y2="56.09" gradientTransform="matrix(.1783 0 0 .12338 2.408 1.186)" gradientUnits="userSpaceOnUse"/><linearGradient xlink:href="#a" id="h" x1="61.021" x2="27.009" y1="119.444" y2="77.338" gradientTransform="matrix(.16486 0 0 .13344 2.408 1.186)" gradientUnits="userSpaceOnUse"/><linearGradient xlink:href="#c" id="i" x1="87.486" x2="39.143" y1="37.283" y2="58.524" gradientTransform="matrix(.20051 0 0 .10972 2.408 1.186)" gradientUnits="userSpaceOnUse"/><linearGradient xlink:href="#b" id="k" x1="39.132" x2="-14.568" y1="94.824" y2="160.96" gradientTransform="matrix(.1722 0 0 .12775 2.408 1.186)" gradientUnits="userSpaceOnUse"/><linearGradient xlink:href="#b" id="m" x1="24.439" x2="12.066" y1="54.424" y2="58.197" gradientTransform="matrix(.31765 0 0 .06926 2.408 1.186)" gradientUnits="userSpaceOnUse"/><linearGradient xlink:href="#b" id="o" x1="32.174" x2="-13.135" y1="91.75" y2="161.326" gradientTransform="matrix(.2219 0 0 .09914 2.408 1.186)" gradientUnits="userSpaceOnUse"/><radialGradient id="d" cx="0" cy="0" r="1" fx="0" fy="0" gradientTransform="matrix(0 8.25 -8.25 0 9 .75)" gradientUnits="userSpaceOnUse" spreadMethod="pad"><stop offset="0" style="stop-opacity:1;stop-color:#abb8ff"/><stop offset="1" style="stop-opacity:1;stop-color:#bf80ff"/></radialGradient></defs><path d="M7.195.836c.09 0 .176-.012.258-.035a23.86 23.86 0 0 1 3.231.008 10.26 10.26 0 0 1 2.836.636c1.519.625 2.558 1.711 3.121 3.254.316.93.507 1.887.566 2.867a21.227 21.227 0 0 1-.086 3.696 8.976 8.976 0 0 1-.672 2.488c-.637 1.383-1.672 2.336-3.101 2.859a11.693 11.693 0 0 1-3.575.618 15.998 15.998 0 0 1-4.089-.309c-2.481-.551-4.016-2.066-4.594-4.543a14.244 14.244 0 0 1-.336-3.383c-.027-1.211.101-2.41.387-3.59.609-2.312 2.078-3.746 4.406-4.3A10.27 10.27 0 0 1 7.195.836Z" style="fill:url(#d);fill-rule:evenodd;stroke:none" transform="matrix(1.33333 0 0 1.33333 0 0)"/><path fill="url(#e)" d="M5.7 19.56S8.64 9.22 20.09 10.534c0 0-7.277-4.34-14.341 1.51C3.663 16.9 5.7 19.56 5.7 19.56z" style="fill:url(#f);fill-rule:evenodd;stroke-width:1.48793"/><path fill="url(#g)" d="M6.575 18.252s3.07-7.435 11.262-7.565c-6.227 1.524.01 6.928.01 6.928s-4.926 4.484-11.272.637z" style="fill:url(#h);fill-rule:evenodd;stroke-width:1.48793"/><path fill="url(#c)" d="M4.866 12.553s6.13-6.775 15.286-2.094c-.164-1.273-1.247-2.71-3.188-3.12-.43-.206-3.576-5.092-10.34-2.28 2.08.163 2.973.456 3.024.678-3.599-.621-4.665 4.523-4.782 6.816Z" style="fill:url(#i);fill-rule:evenodd;stroke-width:1.48793"/><path fill="#202020" d="M13.658 6.806s1.569-.565 1.773 1.114c-1.547.146-1.773-1.114-1.773-1.114Z" style="fill-rule:evenodd;stroke-width:1.48793"/><path fill="url(#j)" d="M5.658 19.593s2.682-8.787 11.647-9.127c0 0-7.275-1.334-12.413 6.843-.028 1.157.766 2.285.766 2.285z" style="fill:url(#k);fill-rule:evenodd;stroke-width:1.48793"/><path fill="url(#l)" d="M6.63 5.06s2.237.131 3.035.683c.334-.07.617-.299.665-.61-.286-.12-2.904-.334-3.699-.073Z" style="fill:url(#m);fill-rule:evenodd;stroke-width:1.48793"/><path fill="url(#n)" d="M4.886 12.565s2.8-3.379 8.451-3.782c0 0-7.694.35-8.339 2.532-.18.525-.112 1.25-.112 1.25z" style="fill:url(#o);fill-rule:evenodd;stroke-width:1.48793"/></svg>