<svg xmlns="http://www.w3.org/2000/svg" width="24" height="24" fill="none"><path fill="url(#a)" fill-rule="evenodd" d="M9.596 1.114c.12 0 .234-.014.344-.046a31.627 31.627 0 0 1 4.307.011c1.301.102 2.561.384 3.78.848 2.025.833 3.412 2.28 4.158 4.339.427 1.24.679 2.514.756 3.824a27.94 27.94 0 0 1-.114 4.923 11.876 11.876 0 0 1-.894 3.32c-.85 1.843-2.229 3.114-4.135 3.813a15.624 15.624 0 0 1-4.765.825 21.423 21.423 0 0 1-5.453-.413c-3.312-.737-5.354-2.756-6.128-6.056a19.047 19.047 0 0 1-.447-4.511 18.491 18.491 0 0 1 .515-4.786c.812-3.086 2.77-4.998 5.877-5.736a13.954 13.954 0 0 1 2.199-.355Z" clip-rule="evenodd"/><path fill="#43557D" d="m4.47 6.757 3.727 3.256 3.847 3.36a.815.815 0 0 0 .939.145c.058-.03 1.686-1.437 3.784-3.27l3.813-3.33.132-.112v10.065l-.071.137a.679.679 0 0 1-.338.329l-.104.047-7.569.004c-5.891.004-7.591 0-7.672-.024a.69.69 0 0 1-.47-.454L4.47 6.757Zm7.99 5.135a1.125 1.125 0 0 1-.358-.212 694.485 694.485 0 0 0-3.608-2.768C5.947 6.962 5 6.227 4.99 6.188c-.01-.04 0-.076.031-.118l.045-.058 7.54-.006L20.143 6l.057.055c.06.06.07.12.027.176-.016.02-1.593 1.23-3.506 2.692a568.66 568.66 0 0 0-3.589 2.753c-.174.149-.315.216-.477.225a.777.777 0 0 1-.196-.01Z"/><path fill="#CAA343" d="M20.708 9.238v1.728l-.186-.016c-.45-.037-1.206.133-1.918.407-.156.059-.47.196-.692.306-.646.313-.979.512-2.628 1.575-.274.174-.55.344-.83.508-1.996 1.176-4.011 1.889-6.1 2.135-.363.043-1.658.065-2.153.033-.609-.037-1.663-.156-1.712-.185l-.033-.713c.005.051 0 .151 0 .34 0 .29-.012.373-.034.373-.058 0-.833-.132-1.086-.186a4.324 4.324 0 0 1-.931-.323 1.18 1.18 0 0 0-.203-.084c0 .013.461.301.626.391.364.196.825.384 1.322.524l.288.085h.035c.004 0 .19.043.405.084.853.168 1.613.223 2.697.203 1.07-.02 1.811-.09 2.745-.27 1.833-.358 3.565-1.01 5.862-2.187.509-.26 1.305-.675 2.712-1.44A7.12 7.12 0 0 1 20.013 12c.205-.07.503-.137.626-.137h.069l.101.018a.816.816 0 0 1 .626.422c.055.112.053.163.051.34-.002.32-.111.588-.407.932l-.152.17.152-.119c.337-.254.69-.634.814-.865.157-.293.137-.616-.033-.966a1.592 1.592 0 0 0-1-.797l-.137-.015c0-.582-.006-1.164-.015-1.746ZM4.456 15.016l-.018-.56c-.07 0-.877-.105-1.186-.152-.421-.064-.839-.15-1.252-.254v.22c.61.279 1.311.502 2.066.627.157.027.311.063.339.068.025.004.045.002.05.051Z"/><defs><radialGradient id="a" cx="0" cy="0" r="1" gradientTransform="matrix(0 22 -22 0 12 1)" gradientUnits="userSpaceOnUse"><stop stop-color="#FAFAFA"/><stop offset="1" stop-color="#CCC"/></radialGradient></defs></svg>