<svg xmlns="http://www.w3.org/2000/svg" width="24" height="24" viewBox="0 0 6.35 6.35"><defs><radialGradient id="a" cx="0" cy="0" r="1" fx="0" fy="0" gradientTransform="rotate(90 1.455 1.72) scale(5.82072)" gradientUnits="userSpaceOnUse" spreadMethod="pad"><stop offset="0" style="stop-color:#fbcbb9;stop-opacity:1"/><stop offset="1" style="stop-color:#ff7643;stop-opacity:1"/></radialGradient></defs><path d="M2.538.295A.335.335 0 0 0 2.63.283c.38-.025.76-.024 1.14.002a3.62 3.62 0 0 1 1 .225c.536.22.903.603 1.101 1.148.112.328.18.665.2 1.011.028.436.018.87-.03 1.304a3.166 3.166 0 0 1-.237.878c-.225.487-.59.824-1.094 1.008a4.125 4.125 0 0 1-1.261.218 5.644 5.644 0 0 1-1.443-.109C1.13 5.774.588 5.24.385 4.366a5.025 5.025 0 0 1-.12-1.194c-.009-.427.036-.85.137-1.266C.617 1.09 1.135.584 1.957.389c.191-.047.386-.079.581-.094Z" style="fill:url(#a);fill-rule:evenodd;stroke:none;stroke-width:.352771"/><path fill="#fff" d="M3.059 1.324a3.295 3.295 0 0 0-.365.021c-.402.062-.725.203-.932.409a.829.829 0 0 0-.226.387c-.024.094-.032.31-.007.392.085.29.285.514.662.738.16.095.285.157.641.318.428.192.558.27.62.366.023.039.032.06.028.106-.006.075-.043.112-.13.144a.443.443 0 0 1-.19.026 1.824 1.824 0 0 1-.626-.127 2.279 2.279 0 0 1-.487-.24c-.144-.093-.155-.096-.198-.074a6.092 6.092 0 0 0-.436.394c-.112.109-.114.13-.036.206.076.075.29.235.407.302.128.075.213.117.357.17.241.09.443.127.823.16.086.006.394.007.502 0 .593-.048 1.077-.242 1.332-.526a.848.848 0 0 0 .19-.308c.042-.117.052-.347.021-.487-.05-.227-.187-.432-.408-.605-.22-.173-.445-.289-.982-.504-.376-.15-.517-.23-.554-.313-.02-.045-.008-.124.022-.154.06-.06.173-.081.32-.063.276.033.629.16.94.333.06.034.118.062.131.064.05.013.08-.007.284-.239.25-.285.247-.274.11-.371a2.854 2.854 0 0 0-1.428-.514 3.803 3.803 0 0 0-.386-.011z" style="stroke-width:.500003"/></svg>