<svg xmlns="http://www.w3.org/2000/svg" width="24" height="24" fill="none"><path fill="#498CD8" fill-rule="evenodd" d="M20.445 20.492c-.725.722-1.608 1.273-2.647 1.654a15.624 15.624 0 0 1-4.765.825 21.423 21.423 0 0 1-5.453-.413c-3.312-.737-5.354-2.756-6.128-6.056a19.047 19.047 0 0 1-.447-4.511 18.491 18.491 0 0 1 .515-4.786c.392-1.49 1.052-2.708 1.98-3.65h14.28a2.666 2.666 0 0 1 2.665 2.665v14.272Z" clip-rule="evenodd"/><path fill="#E5E5E5" fill-rule="evenodd" d="M20.492 20.445a7.374 7.374 0 0 0 1.441-2.111c.459-1.063.756-2.17.893-3.32a27.94 27.94 0 0 0 .115-4.924 14.268 14.268 0 0 0-.756-3.824c-.746-2.06-2.133-3.506-4.158-4.34a13.537 13.537 0 0 0-3.78-.847 31.627 31.627 0 0 0-4.307-.011c-.11.032-.224.047-.344.046-.742.06-1.476.178-2.2.355-1.575.374-2.856 1.051-3.841 2.03v14.28a2.666 2.666 0 0 0 2.665 2.666h14.272Z" clip-rule="evenodd" opacity=".625"/><path fill="#fff" d="M11.78 7.668 9.495 13.86h4.576L11.78 7.668Zm-.951-1.658h1.91l4.74 12.444h-1.75l-1.132-3.192h-5.61l-1.133 3.192H6.075L10.829 6.01Z"/></svg>