<svg xmlns="http://www.w3.org/2000/svg" width="24" height="24" fill="none"><defs><radialGradient id="a" cx="0" cy="0" r="1" gradientTransform="matrix(0 22 -22 0 12 1)" gradientUnits="userSpaceOnUse"><stop offset="0" stop-color="#8FC8FF" style="stop-color:#f6f6f6;stop-opacity:1"/><stop offset="1" stop-color="#0056A8" style="stop-color:#cfcfcf;stop-opacity:1"/></radialGradient></defs><path d="M50 5C9.09 5 5 25.455 5 50c0 32.727 12.273 45 45 45 32.727 0 45-12.273 45-45 0-24.545-4.09-45-45-45Z" style="font-variation-settings:normal;display:inline;opacity:1;vector-effect:none;fill:#9b8af5;fill-opacity:1;stroke-width:4.56656;stroke-linecap:butt;stroke-linejoin:miter;stroke-miterlimit:4;stroke-dasharray:none;stroke-dashoffset:0;stroke-opacity:1;-inkscape-stroke:none;stop-color:#000;stop-opacity:1" transform="matrix(.24444 0 0 .24444 -.222 -.222)"/><path fill="#fff" fill-rule="evenodd" d="M10 6.857c-1.926 0-2.286 2.857-4.286 2.857-1.142 0-1.142-1.143-1.714-1.143 0 1.715 2 2.858 3.714 2.858 2.858 0 2.572-1.715 4.286-1.715 1.714 0 1.428 1.715 4.286 1.715C18 11.429 20 10.285 20 8.57c-.572 0-.572 1.143-1.714 1.143-2 0-2.36-2.857-4.286-2.857-.857 0-.857.572-2 .572s-1.143-.572-2-.572zm2 5.714c-.602 0-1.714 0-1.714.572 0 1.428 1.142 4 1.714 4 .572 0 1.714-2.572 1.714-4 0-.572-1.112-.572-1.714-.572z"/></svg>