<svg xmlns="http://www.w3.org/2000/svg" xml:space="preserve" width="24" height="24" viewBox="0 0 6.35 6.35"><defs><radialGradient id="a" cx="0" cy="0" r="1" gradientTransform="rotate(116.565 8.441 5.908) scale(24.5967)" gradientUnits="userSpaceOnUse"><stop stop-color="#B1E0AA"/><stop offset="1" stop-color="#7ABC71"/></radialGradient></defs><g style="fill:none" transform="scale(.26458)"><rect width="22" height="22" x="1" y="1" fill="url(#a)" rx="6.6" style="fill:url(#a)"/><path fill="#fafafa" d="M11 13.994v3.249c0 .138.111.25.25.25h1.5a.25.25 0 0 0 .25-.25v-3.249zm.5 2h1v.999h-1z"/><path fill="#fafafa" d="M12 1v1h1V1Zm0 1h-1v1h1zm0 1v.999h1v-1Zm0 .999h-1v1h1zm0 1v.999h1v-1Zm0 .999h-1v1h1zm0 1v.999h1v-1Zm0 .999h-1v1h1zm0 1v.999h1v-1Zm0 .999h-1v1h1zm0 1v1h1v-1zm0 1h-1v.999h1zm0 .999v1h1v-1z"/></g></svg>