<svg xmlns="http://www.w3.org/2000/svg" width="24" height="24"><defs><radialGradient id="a" cx="0" cy="0" r="1" fx="0" fy="0" gradientTransform="matrix(0 11 -11 0 12 1)" gradientUnits="userSpaceOnUse" spreadMethod="pad"><stop offset="0" style="stop-color:#d179c1;stop-opacity:.81176466"/><stop offset="1" style="stop-color:#8f3380;stop-opacity:.81176472"/></radialGradient></defs><path d="M9.593 1.115c.12 0 .235-.016.344-.047a31.813 31.813 0 0 1 4.308.01 13.68 13.68 0 0 1 3.781.849c2.026.833 3.41 2.281 4.162 4.338.42 1.24.676 2.516.754 3.823a28.303 28.303 0 0 1-.114 4.928 11.968 11.968 0 0 1-.896 3.317c-.85 1.844-2.23 3.115-4.135 3.812-1.543.522-3.13.798-4.767.824a21.331 21.331 0 0 1-5.452-.412c-3.308-.734-5.354-2.754-6.125-6.057a18.991 18.991 0 0 1-.448-4.51 18.502 18.502 0 0 1 .516-4.787c.812-3.083 2.77-4.995 5.875-5.734a13.692 13.692 0 0 1 2.197-.354z" style="fill:url(#a);fill-rule:evenodd;stroke:none;stroke-width:1.33333"/><g fill="#fff"><path d="M3.723 10.093c-1.385-.006-2.574.25-3.654.792-.36.18-.416.243-.393.438.048.396.253.435.86.162 1.128-.506 1.677-.614 3.1-.615 1.633-.002 2.235.138 3.574.832.23.119.958.681 1.23.379.27-.27.128-.492-.566-.886-1.368-.778-2.563-1.095-4.15-1.103Zm-.042 1.604a6.773 6.773 0 0 0-4.996 2.168c-.518.56-1.123 1.477-1.123 1.705 0 .264.11.41.307.41.155 0 .313-.167.689-.731.84-1.262 1.927-2.1 3.33-2.562 1.087-.355 2.361-.315 3.585 0 1.58.519 2.936 1.677 3.679 3.14.162.319.258.416.417.416.272 0 .432-.203.358-.455-.12-.407-.761-1.39-1.246-1.915a6.798 6.798 0 0 0-5-2.176Zm.087 1.592a5.314 5.314 0 0 0-1.18.113c-1.878.393-3.448 1.913-3.95 3.827-.267 1.015-.144 2.674.296 4 .131.397.195.48.383.502.433.05.476-.156.216-1.053-.741-2.565-.103-4.748 1.737-5.938 1.82-1.177 4.32-.829 5.744.798.893 1.02 1.382 2.745.993 3.498-.258.497-.883.796-1.398.667-.376-.094-.821-.556-.879-.91-.2-1.25-.485-1.74-1.204-2.075-.613-.286-1.125-.278-1.726.027-.562.284-.991.858-1.078 1.438-.032.209-.018.662.03 1.005a5.199 5.199 0 0 0 3.937 4.353 4.215 4.215 0 0 0 .961.103l.481-.016c.272-.138.287-.456 0-.612l-.68-.103c-.856-.131-1.21-.244-1.8-.575-1.279-.72-2.196-2.283-2.196-3.742 0-.643.244-1.018.811-1.253.41-.17.416-.17.826 0 .52.215.77.575.833 1.198.119 1.144.912 1.897 2 1.897.874 0 1.61-.567 1.87-1.44.256-.856-.087-2.293-.806-3.386a5.142 5.142 0 0 0-4.222-2.323Zm-.057 1.658a4.58 4.58 0 0 0-1.561.286c-.707.346-1.38 1.037-1.729 1.772-.265.56-.28.647-.28 1.598 0 1.168.14 1.79.644 2.839.434.904 1.035 1.693 1.703 2.234.578.468.64.491.88.315.248-.18.11-.49-.388-.873-.541-.414-1.125-1.164-1.519-1.95-.647-1.29-.81-2.887-.388-3.8.306-.663.773-1.158 1.369-1.45.715-.351 1.76-.351 2.475 0 .853.419 1.4 1.182 1.592 2.23.116.625.29.832.557.66.123-.08.15-.212.139-.688-.028-1.157-.839-2.319-2.024-2.9-.397-.194-.926-.28-1.47-.274Z" style="stroke-width:.381749" transform="translate(8.246 -5.092)"/><path d="M6.129 21.98c-1.494-.326-2.645-1.642-2.774-3.17-.04-.484-.026-.548.14-.638.32-.17.504.01.567.552.161 1.363 1.163 2.392 2.511 2.577.66.09.873.343.555.66-.16.16-.337.163-1 .019z" style="stroke-width:.381749" transform="translate(8.246 -5.092)"/></g></svg>