<svg xmlns="http://www.w3.org/2000/svg" xml:space="preserve" width="24" height="24" fill="none"><defs><linearGradient id="a" x1="12" x2="12" y1="1" y2="12" gradientTransform="scale(.75)" gradientUnits="userSpaceOnUse" spreadMethod="pad"><stop offset="0" style="stop-opacity:1;stop-color:#2b1466"/><stop offset="1" style="stop-opacity:1;stop-color:#2b1345"/></linearGradient></defs><path d="M7.453.801a.951.951 0 0 1-.258.035 10.27 10.27 0 0 0-1.648.266c-2.328.554-3.797 1.988-4.406 4.3a13.877 13.877 0 0 0-.387 3.59c-.024 1.141.09 2.27.336 3.383.578 2.477 2.113 3.992 4.594 4.543 1.074.223 2.152.332 3.242.332h.008c.281 0 .558-.008.839-.023a11.693 11.693 0 0 0 3.575-.618c1.429-.523 2.464-1.476 3.101-2.859a8.976 8.976 0 0 0 .672-2.488c.086-.778.129-1.555.129-2.332v-.004a22.9 22.9 0 0 0-.043-1.36c-.059-.98-.25-1.937-.566-2.867-.563-1.543-1.602-2.629-3.121-3.254a10.26 10.26 0 0 0-2.836-.636A24.082 24.082 0 0 0 9.008.75h-.004c-.516 0-1.031.016-1.551.051z" style="fill:url(#a);fill-rule:evenodd;stroke:none" transform="matrix(1.33333 0 0 1.33333 0 0)"/><path d="M-434.154-67.846c-26.56 3.803-47.292 23.788-56.16 48.497-3.806 10.607-9.338 39.72 9.618 37.685 8.559-.919 17.373-5.87 24.64-10.198 15.892-9.464 35.668-20.176 44.931-36.796 3.321-5.956 5.717-13.361 4.731-20.259-1.83-12.804-15.465-20.69-27.76-18.93" style="fill:#8427e0;fill-opacity:1;stroke:none;stroke-width:.547544" transform="matrix(.07668 0 0 .07668 42.812 10.275)"/><path d="M-431.837-68.064c-.776.035-1.55.108-2.319.218-9.888 1.416-18.966 5.08-26.927 10.39-7.48 5.782-13.95 12.99-18.996 21.15-5.927 9.584-17.388 36.912 1.578 38.859 8.562.879 18.214-2.133 26.22-4.856 8.574-2.916 18.116-5.937 27.096-9.937 5.655-4.809 10.595-10.198 14.06-16.416 3.322-5.957 5.717-13.363 4.731-20.26-1.715-12.004-13.808-19.686-25.443-19.148z" style="fill:#9327ff;fill-opacity:1;stroke:none;stroke-width:.547544" transform="matrix(.07668 0 0 .07668 42.812 10.275)"/><path d="M-309.52-8.84C-313.323-35.4-333.31-56.132-358.017-65c-10.607-3.806-39.721-9.338-37.685 9.618.918 8.558 5.87 17.373 10.198 24.639C-376.04-14.85-365.33 4.926-348.71 14.19c5.957 3.32 13.362 5.716 20.26 4.73 12.803-1.829 20.69-15.465 18.929-27.76" style="fill:#00b5ff;fill-opacity:1;stroke:none;stroke-width:.547544" transform="matrix(.07668 0 0 .07668 42.812 10.275)"/><path d="M-309.302-6.523a24.246 24.246 0 0 0-.219-2.318c-1.416-9.889-5.08-18.967-10.39-26.928-5.782-7.48-12.989-13.95-21.149-18.996-9.585-5.927-36.912-17.387-38.86 1.578-.878 8.562 2.133 18.214 4.856 26.22 2.916 8.574 5.938 18.116 9.938 27.096 4.808 5.656 10.197 10.595 16.416 14.06 5.956 3.322 13.362 5.717 20.26 4.731 12.003-1.715 19.685-13.807 19.148-25.443z" style="fill:#00c8ff;fill-opacity:1;stroke:none;stroke-width:.547544" transform="matrix(.07668 0 0 .07668 42.812 10.275)"/><path d="m-320.049 37.463-59.244 55.887v10.154c0 4.819 4.083 8.7 9.156 8.7h50.535c5.074 0 9.159-3.881 9.159-8.7V46.162c0-4.819-4.085-8.7-9.159-8.7z" style="fill:#f7931e;fill-opacity:1;stroke-width:.883987;stroke-linecap:round;stroke-linejoin:round;paint-order:stroke markers fill" transform="matrix(.07668 0 0 .07668 42.812 10.275)"/><path d="M-370.526 112.193c26.559-3.803 47.292-23.789 56.158-48.497 3.807-10.607 9.339-39.721-9.617-37.685-8.558.918-17.373 5.87-24.64 10.198-15.891 9.464-35.667 20.176-44.931 36.795-3.32 5.957-5.716 13.362-4.73 20.26 1.829 12.803 15.465 20.69 27.76 18.929" style="fill:#ffbd00;fill-opacity:1;stroke:none;stroke-width:.547544" transform="matrix(.07668 0 0 .07668 42.812 10.275)"/><path d="M-372.843 112.411c.775-.036 1.55-.109 2.318-.219 9.889-1.416 18.966-5.08 26.928-10.39 7.48-5.782 13.95-12.989 18.996-21.149 5.927-9.585 17.387-36.912-1.578-38.86-8.563-.878-18.214 2.133-26.221 4.856-8.573 2.916-18.116 5.938-27.096 9.938-5.655 4.808-10.594 10.198-14.06 16.416-3.321 5.957-5.716 13.362-4.73 20.26 1.714 12.004 13.807 19.685 25.443 19.148z" style="fill:#ffce00;fill-opacity:1;stroke:none;stroke-width:.547544" transform="matrix(.07668 0 0 .07668 42.812 10.275)"/><path d="M-494.166 53.827c3.803 26.56 23.789 47.292 48.497 56.159 10.607 3.806 39.721 9.338 37.685-9.618-.918-8.558-5.87-17.373-10.198-24.639-9.464-15.892-20.176-35.668-36.795-44.931-5.957-3.321-13.362-5.717-20.26-4.731-12.803 1.83-20.69 15.465-18.929 27.76" style="fill:#e3006d;fill-opacity:1;stroke:none;stroke-width:.547544" transform="matrix(.07668 0 0 .07668 42.812 10.275)"/><path d="M-494.384 51.51c.036.776.109 1.55.219 2.318 1.416 9.889 5.08 18.967 10.39 26.928 5.782 7.48 12.989 13.95 21.149 18.996 9.585 5.927 36.912 17.387 38.86-1.578.878-8.562-2.133-18.214-4.856-26.22-2.916-8.574-5.938-18.116-9.938-27.096-4.808-5.656-10.197-10.595-16.416-14.06-5.957-3.322-13.362-5.717-20.26-4.731-12.003 1.715-19.685 13.807-19.148 25.443z" style="fill:#fb006d;fill-opacity:1;stroke:none;stroke-width:.547544" transform="matrix(.07668 0 0 .07668 42.812 10.275)"/></svg>