<svg xmlns="http://www.w3.org/2000/svg" xmlns:xlink="http://www.w3.org/1999/xlink" xml:space="preserve" width="24" height="24" fill="none"><defs><linearGradient id="a"><stop offset="0" style="stop-color:#c4f2ef;stop-opacity:1"/><stop offset="1" style="stop-color:#6fe7df;stop-opacity:1"/></linearGradient><linearGradient xlink:href="#a" id="c" x1="57.159" x2="58.182" y1="115.199" y2="-26.193" gradientTransform="matrix(.24444 0 0 .24444 -.222 -.222)" gradientUnits="userSpaceOnUse"/><linearGradient id="b" x1="59.092" x2="46.289" y1="216.78" y2="169" gradientTransform="matrix(2.71449 0 0 2.71449 -103.406 -458.684)" gradientUnits="userSpaceOnUse" spreadMethod="pad"><stop offset="0" style="stop-opacity:1;stop-color:#0cc"/><stop offset="1" style="stop-opacity:1;stop-color:#31e5d2"/></linearGradient><linearGradient xlink:href="#b" id="e" x1="59.092" x2="46.289" y1="216.78" y2="169" gradientTransform="matrix(2.71449 0 0 2.71449 -103.406 -458.684)" gradientUnits="userSpaceOnUse" spreadMethod="pad"/><linearGradient xlink:href="#b" id="d" x1="59.092" x2="46.289" y1="216.78" y2="169" gradientTransform="matrix(2.71449 0 0 2.71449 -103.406 -458.684)" gradientUnits="userSpaceOnUse" spreadMethod="pad"/></defs><path d="M12 1C2 1 1 6 1 12c0 8 3 11 11 11s11-3 11-11c0-6-1-11-11-11Z" style="font-variation-settings:normal;display:inline;opacity:1;vector-effect:none;fill:url(#c);fill-opacity:1;stroke-width:1.11627;stroke-linecap:butt;stroke-linejoin:miter;stroke-miterlimit:4;stroke-dasharray:none;stroke-dashoffset:0;stroke-opacity:1;-inkscape-stroke:none;stop-color:#000;stop-opacity:1"/><path fill="#1ca8a8" d="M-8.694-.208V.837a1.255 1.255 0 0 1-1.258 1.258h-3.46a3.774 3.774 0 0 0-3.43 2.202h-1.316a3.774 3.774 0 0 0-3.431-2.202h-3.46A1.255 1.255 0 0 1-26.306.837V-.207Z" style="stroke-width:.352288;image-rendering:optimizeSpeed" transform="matrix(.82195 0 0 .82195 26.384 16.202)"/><path fill="#ccc" d="M-17.134-6.551a4.454 4.454 0 0 0-.052.468h-.314v9.908h.658a3.774 3.774 0 0 1 3.431-2.202h3.46A1.255 1.255 0 0 0-8.694.365V-5.24a1.255 1.255 0 0 0-1.258-1.258Zm-.732 0c.025.155.042.311.051.468h.315v9.908h-.658a3.774 3.774 0 0 0-3.431-2.202h-3.46A1.255 1.255 0 0 1-26.307.365V-5.24a1.255 1.255 0 0 1 1.258-1.258z" style="stroke-width:.352288;image-rendering:optimizeSpeed" transform="matrix(.82195 0 0 .82195 26.384 16.202)"/><path d="M-8.693-.632A1.174 1.174 0 0 1-9.871.523h-.08v.158h.08a1.335 1.335 0 0 0 1.178-.705zM-13.726.523l3.775.158V.523Z" opacity=".25" style="stroke-width:.352288;image-rendering:optimizeSpeed" transform="matrix(.82195 0 0 .82195 26.384 16.202)"/><path d="M-8.693-.024A1.174 1.174 0 0 1-9.871 1.13h-.08v.157h.08A1.336 1.336 0 0 0-8.697.592c.001-.03.004-.06.004-.09zm-4.089 1.155 2.83.157V1.13Z" opacity=".25" style="stroke-width:.352288;image-rendering:optimizeSpeed" transform="matrix(.82195 0 0 .82195 26.384 16.202)"/><path fill="#f9f9f9" d="M-9.952-11.744a1.255 1.255 0 0 1 1.258 1.259v9.278A1.255 1.255 0 0 1-9.952.05h-3.774A3.774 3.774 0 0 0-17.5 3.825v-11.48c0-2.084 1.69-4.089 3.774-4.089z" style="stroke-width:.352288;image-rendering:optimizeSpeed" transform="matrix(.82195 0 0 .82195 26.384 16.202)"/><path fill="#ececec" d="M-25.05-11.744a1.255 1.255 0 0 0-1.257 1.259v9.278A1.255 1.255 0 0 0-25.049.05h3.775A3.775 3.775 0 0 1-17.5 3.825v-11.48c0-2.084-1.69-4.089-3.774-4.089z" style="stroke-width:.352288;image-rendering:optimizeSpeed" transform="matrix(.82195 0 0 .82195 26.384 16.202)"/><path fill="#0cc" d="M-11.524-10.014v.944h-1.887a4.198 4.198 0 0 0-1.888.516v-.873a3.41 3.41 0 0 1 1.888-.587z" style="stroke-width:.352288;image-rendering:optimizeSpeed" transform="matrix(.82195 0 0 .82195 26.384 16.202)"/><path fill="#dedcd9" d="M-10.58-8.127v.629h-2.831a4.201 4.201 0 0 0-1.887.516v-.558a3.407 3.407 0 0 1 1.887-.587zm0 1.259v.628h-2.831a4.201 4.201 0 0 0-1.887.516v-.558a3.407 3.407 0 0 1 1.887-.586zm0 1.258v.628h-2.831a4.201 4.201 0 0 0-1.887.516v-.558a3.407 3.407 0 0 1 1.887-.586zm-11.323 2.516h-2.517v.629h2.516zm-2.517-5.033v.629h3.145a4.276 4.276 0 0 1 1.573.36v-.587a3.34 3.34 0 0 0-1.573-.402zm0 1.259v.628h3.145a4.276 4.276 0 0 1 1.573.361v-.587a3.34 3.34 0 0 0-1.573-.402zm0 1.258v.628h3.145a4.276 4.276 0 0 1 1.573.361v-.587a3.34 3.34 0 0 0-1.573-.402zm0-3.775v.63h3.145a4.276 4.276 0 0 1 1.573.36v-.588a3.34 3.34 0 0 0-1.573-.402zm0 5.032v.63h3.145a4.27 4.27 0 0 1 1.573.36v-.587a3.34 3.34 0 0 0-1.573-.403zm12.58 0v.63h-1.572a4.197 4.197 0 0 0-1.887.516v-.559a3.407 3.407 0 0 1 1.887-.586z" style="stroke-width:.352288;image-rendering:optimizeSpeed" transform="matrix(.82195 0 0 .82195 26.384 16.202)"/><path d="M22.273.008S-.062 55.484 0 84.66c.039 21.715 2.984 46.219 16.855 62.934 10.661 12.832 45.141 21.617 45.141 21.617l10.481-2.801s25.464-24.867 28.281-41.297c3.664-21.41-6.039-44.101-16.856-62.933C69.363 36.875 22.273 0 22.273 0Z" style="fill:url(#d);stroke:none" transform="matrix(.03457 0 0 .03457 7.022 4.266)"/><path d="M73.25 211.242C44.008 102.117 44.781 89.93 30.48 29.875c17.731 58.914 24.016 69.434 53.262 178.563Z" style="fill:#1ca8a8;fill-opacity:1;fill-rule:nonzero;stroke:none" transform="matrix(.03457 0 0 .03457 7.022 4.266)"/><path d="M22.273.008S-.062 55.484 0 84.66c.039 21.715 2.984 46.219 16.855 62.934 10.661 12.832 45.141 21.617 45.141 21.617l10.481-2.801s25.464-24.867 28.281-41.297c3.664-21.41-6.039-44.101-16.856-62.933C69.363 36.875 22.273 0 22.273 0Z" style="fill:url(#e);stroke:none" transform="matrix(.03457 0 0 .03457 7.022 4.266)"/><path d="M43.047 81.617c9.82-16.996 13.344-20.394 16.82-26.051-3.148 5.84-4.437 10.536-14.258 27.532zm6.812 26.379C63.48 84.398 68.375 79.668 73.195 71.809c-4.351 8.125-6.16 14.632-19.793 38.238zm7.496 28.309c14.426-24.969 19.583-29.981 24.696-38.282-4.621 8.594-6.531 15.469-20.942 40.438z" style="fill:#1ca8a8;fill-opacity:1;fill-rule:nonzero;stroke:none" transform="matrix(.03457 0 0 .03457 7.022 4.266)"/><path d="M45.074 81.078c-17.008-9.808-21.746-10.996-27.59-14.156 5.645 3.488 9.11 6.902 26.106 16.711zm7.297 26.254C28.77 93.699 22.172 92.047 14.062 87.664c7.844 4.844 12.645 9.59 36.266 23.215zm7.66 28.254c-24.972-14.426-31.949-16.176-40.527-20.805 8.289 5.133 13.391 10.137 38.363 24.555z" style="fill:#1ca8a8;fill-opacity:1;fill-rule:nonzero;stroke:none" transform="matrix(.03457 0 0 .03457 7.022 4.266)"/><path d="M73.25 211.242C44.008 102.117 44.781 89.93 30.48 29.875c17.731 58.914 24.016 69.434 53.262 178.563Z" style="fill:#1ca8a8;fill-opacity:1;fill-rule:nonzero;stroke:none" transform="matrix(.03457 0 0 .03457 7.022 4.266)"/></svg>