<svg xmlns="http://www.w3.org/2000/svg" xmlns:xlink="http://www.w3.org/1999/xlink" width="24" height="24" fill="none"><defs><radialGradient id="a" cx="0" cy="0" r="1" gradientTransform="matrix(0 22 -22 0 12 1)" gradientUnits="userSpaceOnUse"><stop offset="0" stop-color="#8FC8FF" style="stop-color:#8144a3;stop-opacity:1"/><stop offset="1" stop-color="#0056A8" style="stop-color:#8144a3;stop-opacity:1"/></radialGradient><radialGradient id="b" cx="0" cy="0" r="1" gradientTransform="matrix(0 22 -22 0 12 1)" gradientUnits="userSpaceOnUse"><stop offset="0" stop-color="#8FC8FF" style="stop-color:#f6f6f6;stop-opacity:1"/><stop offset="1" stop-color="#0056A8" style="stop-color:#cfcfcf;stop-opacity:1"/></radialGradient><radialGradient xlink:href="#a" id="c" cx=".179" cy="-1.748" r="1" fx=".179" fy="-1.748" gradientTransform="matrix(0 90.05947 -90.00681 0 -107.37 -11.19)" gradientUnits="userSpaceOnUse"/></defs><path d="M50 5C9.09 5 5 25.455 5 50c0 32.727 12.273 45 45 45 32.727 0 45-12.273 45-45 0-24.545-4.09-45-45-45Z" style="font-variation-settings:normal;display:inline;opacity:1;vector-effect:none;fill:url(#c);fill-opacity:1;stroke-width:4.56656;stroke-linecap:butt;stroke-linejoin:miter;stroke-miterlimit:4;stroke-dasharray:none;stroke-dashoffset:0;stroke-opacity:1;-inkscape-stroke:none;stop-color:#000;stop-opacity:1" transform="matrix(.24444 0 0 .24444 -.222 -.222)"/><g style="display:inline"><rect width="2" height="2" x="12" y="-3" rx="0" ry="0" style="display:inline;fill:#3947be;fill-opacity:1;stroke-width:22.6872;paint-order:markers stroke fill"/><rect width="2" height="2" x="9" y="-3" rx="0" ry="0" style="display:inline;fill:#6c7ad8;fill-opacity:1;stroke-width:22.6873;paint-order:markers stroke fill"/><rect width="2" height="2" x="6" y="-3" rx="0" ry="0" style="display:inline;fill:#3c3;fill-opacity:1;stroke-width:22.6873;paint-order:markers stroke fill"/><rect width="2" height="2" x="3" y="-3" rx="0" ry="0" style="display:inline;fill:#ffc328;fill-opacity:1;stroke-width:22.6872;paint-order:markers stroke fill"/><rect width="2" height="2" y="-3" rx="0" ry="0" style="display:inline;fill:#cc5e55;fill-opacity:1;stroke-width:22.6873;paint-order:markers stroke fill"/><rect width="2" height="2" x="-3" y="12" rx="0" ry="0" style="display:inline;fill:#0bb1cb;fill-opacity:1;stroke-width:22.6872;paint-order:markers stroke fill"/><rect width="2" height="2" x="-3" y="9" rx="0" ry="0" style="display:inline;fill:#2a92c9;fill-opacity:1;stroke-width:22.6873;paint-order:markers stroke fill"/><rect width="2" height="2" x="-3" y="6" rx="0" ry="0" style="display:inline;fill:#069;fill-opacity:1;stroke-width:22.6873;paint-order:markers stroke fill"/><rect width="2" height="2" x="-3" y="3" rx="0" ry="0" style="display:inline;fill:#002a44;fill-opacity:1;stroke-width:22.6873;paint-order:markers stroke fill"/><rect width="2" height="2" x="-3" rx="0" ry="0" style="display:inline;fill:#2c2d3d;fill-opacity:1;stroke-width:22.6873;paint-order:markers stroke fill"/><rect width="2" height="2" x="-3" y="-3" rx="0" ry="0" style="display:inline;fill:#16171c;fill-opacity:1;stroke-width:22.6872;paint-order:markers stroke fill"/></g><path fill="#fff" d="M7.8 17.6A1.4 1.4 0 0 1 6.4 19 1.4 1.4 0 0 1 5 17.6a1.4 1.4 0 0 1 1.4-1.4 1.4 1.4 0 0 1 1.4 1.4z"/><path fill="#f55" d="M11.533 17.6a1.4 1.4 0 0 1-1.4 1.4 1.4 1.4 0 0 1-1.4-1.4 1.4 1.4 0 0 1 1.4-1.4 1.4 1.4 0 0 1 1.4 1.4z"/><path fill="#fff" d="M15.265 17.6a1.4 1.4 0 0 1-1.4 1.4 1.4 1.4 0 0 1-1.4-1.4 1.4 1.4 0 0 1 1.4-1.4 1.4 1.4 0 0 1 1.4 1.4zm3.735 0a1.4 1.4 0 0 1-1.4 1.4 1.4 1.4 0 0 1-1.4-1.4 1.4 1.4 0 0 1 1.4-1.4 1.4 1.4 0 0 1 1.4 1.4z"/><path fill="#f55" d="M7.8 13.867a1.4 1.4 0 0 1-1.4 1.4 1.4 1.4 0 0 1-1.4-1.4 1.4 1.4 0 0 1 1.4-1.4 1.4 1.4 0 0 1 1.4 1.4z"/><path fill="#fff" d="M11.533 13.867a1.4 1.4 0 0 1-1.4 1.4 1.4 1.4 0 0 1-1.4-1.4 1.4 1.4 0 0 1 1.4-1.4 1.4 1.4 0 0 1 1.4 1.4Z"/><path fill="#f55" d="M15.265 13.867a1.4 1.4 0 0 1-1.4 1.4 1.4 1.4 0 0 1-1.4-1.4 1.4 1.4 0 0 1 1.4-1.4 1.4 1.4 0 0 1 1.4 1.4zm3.735 0a1.4 1.4 0 0 1-1.4 1.4 1.4 1.4 0 0 1-1.4-1.4 1.4 1.4 0 0 1 1.4-1.4 1.4 1.4 0 0 1 1.4 1.4z"/><path fill="#fff" d="M15.265 10.135a1.4 1.4 0 0 1-1.4 1.4 1.4 1.4 0 0 1-1.4-1.4 1.4 1.4 0 0 1 1.4-1.4 1.4 1.4 0 0 1 1.4 1.4z"/><path fill="#f55" d="M19 10.135a1.4 1.4 0 0 1-1.4 1.4 1.4 1.4 0 0 1-1.4-1.4 1.4 1.4 0 0 1 1.4-1.4 1.4 1.4 0 0 1 1.4 1.4z"/><path fill="#fff" d="M19 6.4a1.4 1.4 0 0 1-1.4 1.4 1.4 1.4 0 0 1-1.4-1.4A1.4 1.4 0 0 1 17.6 5 1.4 1.4 0 0 1 19 6.4z"/></svg>