<svg xmlns="http://www.w3.org/2000/svg" xmlns:xlink="http://www.w3.org/1999/xlink" xml:space="preserve" width="24" height="24" fill="none"><defs><linearGradient id="a"><stop offset="0" style="stop-color:#fa4879;stop-opacity:1"/><stop offset="1" style="stop-color:#f095ae;stop-opacity:1"/></linearGradient><linearGradient xlink:href="#a" id="b" x1="54.243" x2="52.074" y1="99.804" y2="-16.628" gradientTransform="matrix(.24444 0 0 .24444 -.222 -.222)" gradientUnits="userSpaceOnUse"/></defs><path d="M12 1C2 1 1 6 1 12c0 8 3 11 11 11s11-3 11-11c0-6-1-11-11-11Z" style="font-variation-settings:normal;display:inline;opacity:1;vector-effect:none;fill:url(#b);fill-opacity:1;stroke-width:1.11627;stroke-linecap:butt;stroke-linejoin:miter;stroke-miterlimit:4;stroke-dasharray:none;stroke-dashoffset:0;stroke-opacity:1;-inkscape-stroke:none;stop-color:#000;stop-opacity:1"/><path fill="#fff" d="M15.3 8.143c-.024.123-.244.369-.367.369h-3.671a.526.526 0 0 0-.49.49v.245a.525.525 0 0 0 .49.489h3.181c.246 0 .43.22.368.49a14.48 14.48 0 0 1-.368 1.224c-.122.305-.244.734-.733.734h-2.448c-.368 0-.49.27-.735.612-.221.268-2.203 3.06-2.203 3.06V7.41c0-.736.49-1.348 1.346-1.348h5.63c.246 0 .43.246.368.49zM9.67 4.839c-1.96 0-2.57.49-2.57 2.57v11.14c0 .49.183.612.305.612.124 0 .281-.134.43-.367.097-.147 3.794-5.387 3.794-5.387h2.385c1.224 0 1.346-.733 1.59-1.59.124-.613.859-3.427 1.225-5.14.245-1.227-.122-1.838-1.347-1.838Z" style="stroke-width:1.54381"/></svg>