<svg xmlns="http://www.w3.org/2000/svg" width="24" height="24" fill="none"><path fill="url(#a)" fill-rule="evenodd" d="M9.596 1.114c.12 0 .234-.014.344-.046a31.627 31.627 0 0 1 4.307.011c1.301.102 2.561.384 3.78.848 2.025.833 3.412 2.28 4.158 4.339.427 1.24.679 2.514.756 3.824a27.94 27.94 0 0 1-.114 4.923 11.876 11.876 0 0 1-.894 3.32c-.85 1.843-2.229 3.114-4.135 3.813a15.624 15.624 0 0 1-4.765.825 21.423 21.423 0 0 1-5.453-.413c-3.312-.737-5.354-2.756-6.128-6.056a19.047 19.047 0 0 1-.447-4.511 18.491 18.491 0 0 1 .515-4.786c.812-3.086 2.77-4.998 5.877-5.736a13.954 13.954 0 0 1 2.199-.355Z" clip-rule="evenodd"/><path fill="#813D9C" d="M11.215 2.268c-.88.001-1.876.219-3.007.708-1.342.579-2.222 1.454-2.706 2.463-.484 1.01-.577 2.132-.452 3.223.25 2.183 1.347 4.27 2.253 5.416a.47.47 0 0 0 .739-.585c-.784-.989-1.835-3.007-2.056-4.938-.11-.966-.02-1.903.365-2.709.386-.806 1.062-1.503 2.229-2.006 1.589-.686 2.753-.75 3.671-.497.918.252 1.627.84 2.253 1.59.627.75 1.153 1.653 1.69 2.471.538.819 1.08 1.574 1.863 1.965a.47.47 0 1 0 .421-.842c-.483-.241-.98-.853-1.496-1.64-.517-.786-1.058-1.724-1.755-2.558-.697-.835-1.567-1.575-2.726-1.894a4.658 4.658 0 0 0-1.287-.168Zm-.038 1.81c-.718-.013-1.535.199-2.46.675-1.59.82-2.216 2.562-1.845 4.491.371 1.93 1.66 4.116 3.85 6.195a.47.47 0 1 0 .649-.684c-2.084-1.977-3.255-4.032-3.574-5.689-.319-1.657.135-2.849 1.352-3.476 1.263-.65 2.089-.683 2.737-.433.649.25 1.189.844 1.712 1.636 1.045 1.585 1.929 3.917 3.985 4.886a.47.47 0 1 0 .402-.852c-1.6-.754-2.47-2.839-3.601-4.553-.565-.856-1.219-1.633-2.159-1.996a2.981 2.981 0 0 0-1.048-.2Zm-.343 1.858c-.192.004-.384.03-.571.078-.936.233-1.53.89-1.648 1.671-.118.781.132 1.631.552 2.519.837 1.774 2.415 3.716 3.878 5.118a.47.47 0 1 0 .652-.68c-1.391-1.333-2.925-3.244-3.679-4.84-.377-.798-.541-1.513-.471-1.976.07-.463.265-.73.944-.899.58-.144.8-.057 1.073.198.274.255.556.766.9 1.423.686 1.315 1.684 3.176 4.105 4.587a.47.47 0 0 0 .474-.814c-2.212-1.29-3.06-2.9-3.744-4.208-.343-.655-.627-1.245-1.092-1.677-.349-.325-.824-.51-1.373-.5Zm.052 1.958a.471.471 0 0 0-.446.639c1.523 3.99 4.785 5.95 4.785 5.95a.47.47 0 1 0 .486-.806s-2.992-1.813-4.392-5.48a.47.47 0 0 0-.433-.303Z"/><path fill="#fff" fill-rule="evenodd" d="M23 11.909c0 .734-.03 1.468-.087 2.202-2.955 1.575-6.055 5.739-6.055 5.739l-9.221-4.886s5.09-8.33 12.154-12.036c1.091.832 1.889 1.945 2.394 3.338.427 1.24.679 2.514.756 3.824.04.605.059 1.209.059 1.812v.007Z" clip-rule="evenodd" opacity=".75"/><path fill="#F5C211" d="m6.732 14.911 1.527-2.937c.634-1.22 2.09-1.672 3.261-1.011.953.537 1.487 1.787 2.44 2.324.928.522 2.275.332 3.204.855 1.172.66 1.605 2.174.971 3.395l-1.527 2.938c-.635 1.22-2.09 1.671-3.261 1.01-.938-.527-1.503-1.796-2.44-2.323-.945-.532-2.26-.324-3.204-.855-1.172-.66-1.605-2.175-.971-3.396Z"/><path fill="#E5A50A" d="M9.665 14.315c.31 0 .563-.155.563-.347 0-.192-.252-.347-.563-.347-.311 0-.563.155-.563.347 0 .192.252.347.563.347ZM12.613 14.008c.383 0 .693-.171.693-.382s-.31-.383-.693-.383c-.382 0-.692.172-.692.383 0 .21.31.382.692.382ZM11.082 16.949c.43 0 .779-.206.779-.46 0-.253-.349-.458-.779-.458-.43 0-.778.205-.778.459 0 .253.348.459.778.459ZM14.52 16.132c.429 0 .777-.195.777-.436 0-.24-.348-.435-.778-.435-.43 0-.778.195-.778.436 0 .24.349.435.778.435ZM8.05 16.375c.319 0 .578-.166.578-.372 0-.205-.259-.371-.578-.371-.319 0-.577.166-.577.371 0 .206.258.372.577.372ZM10.453 12.904c.336 0 .607-.17.607-.379s-.271-.378-.607-.378c-.335 0-.607.17-.607.378 0 .21.271.38.607.38ZM14.06 19.45c.453 0 .82-.253.82-.566 0-.313-.367-.566-.82-.566-.453 0-.82.253-.82.566 0 .313.367.567.82.567ZM13.036 17.323c.25 0 .452-.14.452-.314 0-.173-.202-.313-.452-.313s-.452.14-.452.313c0 .174.202.314.452.314ZM16.795 17.4c.326 0 .59-.16.59-.357 0-.198-.264-.358-.59-.358-.326 0-.59.16-.59.358 0 .198.264.358.59.358ZM9.825 18.486c.298 0 .54-.13.54-.29 0-.16-.242-.29-.54-.29-.299 0-.54.13-.54.29 0 .16.241.29.54.29ZM16.755 14.678c.234 0 .424-.104.424-.232s-.19-.232-.424-.232c-.235 0-.424.104-.424.232s.19.232.424.232ZM13.856 21.426c.324 0 .586-.13.586-.29 0-.16-.262-.289-.586-.289-.324 0-.587.13-.587.29 0 .16.263.289.587.289Z"/><defs><radialGradient id="a" cx="0" cy="0" r="1" gradientTransform="matrix(0 22 -22 0 12 1)" gradientUnits="userSpaceOnUse"><stop stop-color="#FAFAFA"/><stop offset="1" stop-color="#CCC"/></radialGradient></defs></svg>