<svg xmlns="http://www.w3.org/2000/svg" width="24" height="24" fill="none"><path fill="#3C6EAC" fill-rule="evenodd" d="M20.299 20.634H5.384a1.57 1.57 0 0 1-1.57-1.57V3.254c.947-.847 2.141-1.443 3.583-1.785a13.954 13.954 0 0 1 2.199-.355c.12 0 .234-.014.344-.046a31.627 31.627 0 0 1 4.307.011c1.301.102 2.561.384 3.78.848 2.025.833 3.412 2.28 4.158 4.339.427 1.24.679 2.514.756 3.824a27.94 27.94 0 0 1-.114 4.923 11.876 11.876 0 0 1-.894 3.32 7.297 7.297 0 0 1-1.634 2.3Z" clip-rule="evenodd"/><path fill="#6AE5E8" fill-opacity=".749" fill-rule="evenodd" d="M20.311 3.366c.828.772 1.453 1.738 1.874 2.9.427 1.24.679 2.514.756 3.824a27.94 27.94 0 0 1-.114 4.923 11.876 11.876 0 0 1-.894 3.32c-.85 1.843-2.229 3.114-4.135 3.813a15.624 15.624 0 0 1-4.765.825 21.423 21.423 0 0 1-5.453-.413c-3.312-.737-5.354-2.756-6.128-6.056a19.047 19.047 0 0 1-.447-4.511 18.491 18.491 0 0 1 .515-4.786c.419-1.592 1.143-2.872 2.172-3.839h16.62Z" clip-rule="evenodd"/><path fill="#6AE5E8" fill-rule="evenodd" d="M20.317 3.372c.825.77 1.448 1.735 1.868 2.894.427 1.24.679 2.514.756 3.824a27.94 27.94 0 0 1-.114 4.923 11.876 11.876 0 0 1-.894 3.32c-.85 1.84-2.224 3.11-4.126 3.81.095-.077.19-.154.283-.232 3.747-3.262 4.89-9.28 1.414-13.169-2.38-2.657-6.632-3.456-9.4-.911-1.843 1.694-2.39 4.76-.565 6.677 1.178 1.238 3.19 1.6 4.484.323.803-.793 1.034-2.393.164-3.233-.516-.5-1.423-.641-1.945-.072-.297.325-.378 1.078-.018 1.389.191.166.522.205.692-.012.085-.107.107-.287-.02-.376-.055-.04-.146-.047-.186.018-.012.024-.012.067.018.083.012.006.036.008.036-.006v-.01c-.02-.006 0-.008 0-.008.01-.006.025.004.025.014.006.034-.024.063-.053.07-.075.015-.129-.056-.149-.123-.021-.149.121-.258.256-.277.276-.032.476.23.496.482.037.475-.415.813-.85.83-.775.036-1.317-.703-1.333-1.423-.02-1.206 1.139-2.039 2.27-2.033 1.817.01 3.053 1.758 3.01 3.465-.068 2.647-2.623 4.44-5.126 4.336-3.757-.158-6.501-3.806-6.3-7.366.184-3.256 2.324-5.823 5.116-7.207h-.65l.005-.002 10.836.002Z" clip-rule="evenodd"/></svg>