<svg xmlns="http://www.w3.org/2000/svg" xmlns:xlink="http://www.w3.org/1999/xlink" xml:space="preserve" id="svg154" width="24" height="24" fill="none" version="1.1"><defs id="defs152"><linearGradient id="linearGradient6767"><stop id="stop6763" offset="0" style="stop-color:#348bb7;stop-opacity:1"/><stop id="stop6765" offset="1" style="stop-color:#9ed1e6;stop-opacity:1"/></linearGradient><linearGradient xlink:href="#linearGradient6767" id="linearGradient6769" x1="52.255" x2="51.532" y1="99.08" y2="-26.572" gradientTransform="matrix(.24444 0 0 .24444 -.222 -.222)" gradientUnits="userSpaceOnUse"/><style id="current-color-scheme" type="text/css">.ColorScheme-Text{color:#31363b}.ColorScheme-Background{color:#eff0f1}.ColorScheme-Highlight{color:#3daee9}.ColorScheme-ViewText{color:#31363b}.ColorScheme-ViewBackground{color:#fcfcfc}.ColorScheme-ViewHover{color:#93cee9}.ColorScheme-ViewFocus{color:#3daee9}.ColorScheme-ButtonText{color:#31363b}.ColorScheme-ButtonBackground{color:#eff0f1}.ColorScheme-ButtonHover{color:#93cee9}.ColorScheme-ButtonFocus{color:#3daee9}</style></defs><path id="path6" d="M12 1C2 1 1 6 1 12c0 8 3 11 11 11s11-3 11-11c0-6-1-11-11-11Z" style="font-variation-settings:normal;display:inline;opacity:1;vector-effect:none;fill:url(#linearGradient6769);fill-opacity:1;stroke-width:1.11627;stroke-linecap:butt;stroke-linejoin:miter;stroke-miterlimit:4;stroke-dasharray:none;stroke-dashoffset:0;stroke-opacity:1;-inkscape-stroke:none;stop-color:#000;stop-opacity:1"/><g id="g10745" transform="matrix(.2825 0 0 .2825 -85.238 -56.8)"><path id="path10141" fill="#fff" d="M324.942 227.841c-.16-.023-.338.107-.552.338-.344.386-.415 1.395-.534 6.93a136.802 136.802 0 0 0-.041 6.68c.255.628 3.144-.54 4.17-1.691l.516-.576-.634-1.21c-.41-.783-.872-2.533-1.33-4.995-.74-3.98-1.103-5.41-1.595-5.476zm38.733 0c-.148-.03-.326.125-.558.386-.338.386-.652 1.519-1.062 3.874-.688 3.945-1.145 5.6-1.797 6.537-.261.38-.415.86-.35 1.068.178.546 1.198 1.246 2.598 1.798 1.448.563 1.958.605 2.077.154.053-.184-.018-3.251-.149-6.822-.195-5.22-.326-6.912-.759-6.995zm-26.115 7.843a2.74 2.74 0 0 0-1.376.368c-.51.285-2.415 2.058-4.224 3.939-2.753 2.865-3.56 3.536-4.924 4.081-2.136.855-3.939 1.062-5.416.617-2.017-.605-3.103.523-2.237 2.314.825 1.709 4.117 3.257 8.484 3.987 6.063 1.008 10.085.07 14.344-3.358.813-.659 1.72-1.198 2.017-1.198.285 0 1.276.605 2.195 1.346 2.184 1.756 3.251 2.314 5.838 3.085 1.839.534 2.563.593 5.15.44 5.445-.345 9.094-1.49 11.01-3.477.647-.67.89-1.187.89-1.88 0-1.39-.754-1.745-2.67-1.253a5.41 5.41 0 0 1-2.99.048c-2.871-.647-4.17-1.53-7.516-5.126-4.159-4.461-4.408-4.556-8.412-3.055-1.59.593-3.228 1.092-3.637 1.092-.415 0-1.673-.398-2.806-.878-1.762-.754-2.865-1.092-3.72-1.092zm26.696 17.27a3.026 3.026 0 0 0-.385.076c-1.958.505-3.98.784-6.93.938l-3.22.178-.084 1.857c-.07 1.673-.012 1.928.594 2.55.622.641.854.689 3.167.677 2.605-.012 4.153-.398 5.108-1.27.706-.646 2.094-3.607 2.094-4.467 0-.427-.047-.563-.344-.534zm-40.441.023c-.083.09.065.89.326 1.786.57 1.963 1.792 3.488 3.251 4.046 1.448.557 5.31.563 6.289.012.783-.44 1.097-1.365 1.097-3.234 0-1.839-.06-1.88-3.05-1.88-1.5 0-3.855-.202-5.25-.445-1.388-.237-2.586-.368-2.67-.285z" style="stroke-width:5.93245"/></g></svg>