<svg xmlns="http://www.w3.org/2000/svg" xmlns:xlink="http://www.w3.org/1999/xlink" width="24" height="24" fill="none"><defs><radialGradient id="a" cx="0" cy="0" r="1" gradientTransform="matrix(0 22 -22 0 12 1)" gradientUnits="userSpaceOnUse"><stop offset="0" stop-color="#8FC8FF" style="stop-color:#f0f0f0;stop-opacity:1"/><stop offset="1" stop-color="#0056A8" style="stop-color:#e5e5e5;stop-opacity:1"/></radialGradient><radialGradient id="b" cx="0" cy="0" r="1" gradientTransform="matrix(0 22 -22 0 12 1)" gradientUnits="userSpaceOnUse"><stop offset="0" stop-color="#8FC8FF" style="stop-color:#f6f6f6;stop-opacity:1"/><stop offset="1" stop-color="#0056A8" style="stop-color:#cfcfcf;stop-opacity:1"/></radialGradient><radialGradient xlink:href="#a" id="c" cx=".179" cy="-1.748" r="1" fx=".179" fy="-1.748" gradientTransform="matrix(0 90.05947 -90.00681 0 -107.37 -11.19)" gradientUnits="userSpaceOnUse"/></defs><path d="M50 5C9.09 5 5 25.455 5 50c0 32.727 12.273 45 45 45 32.727 0 45-12.273 45-45 0-24.545-4.09-45-45-45Z" style="font-variation-settings:normal;display:inline;opacity:1;vector-effect:none;fill:url(#c);fill-opacity:1;stroke-width:4.56656;stroke-linecap:butt;stroke-linejoin:miter;stroke-miterlimit:4;stroke-dasharray:none;stroke-dashoffset:0;stroke-opacity:1;-inkscape-stroke:none;stop-color:#000;stop-opacity:1" transform="matrix(.24444 0 0 .24444 -.222 -.222)"/><g style="display:inline"><rect width="2" height="2" x="12" y="-3" rx="0" ry="0" style="display:inline;fill:#3947be;fill-opacity:1;stroke-width:22.6872;paint-order:markers stroke fill"/><rect width="2" height="2" x="9" y="-3" rx="0" ry="0" style="display:inline;fill:#6c7ad8;fill-opacity:1;stroke-width:22.6873;paint-order:markers stroke fill"/><rect width="2" height="2" x="6" y="-3" rx="0" ry="0" style="display:inline;fill:#3c3;fill-opacity:1;stroke-width:22.6873;paint-order:markers stroke fill"/><rect width="2" height="2" x="3" y="-3" rx="0" ry="0" style="display:inline;fill:#ffc328;fill-opacity:1;stroke-width:22.6872;paint-order:markers stroke fill"/><rect width="2" height="2" y="-3" rx="0" ry="0" style="display:inline;fill:#cc5e55;fill-opacity:1;stroke-width:22.6873;paint-order:markers stroke fill"/><rect width="2" height="2" x="-3" y="12" rx="0" ry="0" style="display:inline;fill:#0bb1cb;fill-opacity:1;stroke-width:22.6872;paint-order:markers stroke fill"/><rect width="2" height="2" x="-3" y="9" rx="0" ry="0" style="display:inline;fill:#2a92c9;fill-opacity:1;stroke-width:22.6873;paint-order:markers stroke fill"/><rect width="2" height="2" x="-3" y="6" rx="0" ry="0" style="display:inline;fill:#069;fill-opacity:1;stroke-width:22.6873;paint-order:markers stroke fill"/><rect width="2" height="2" x="-3" y="3" rx="0" ry="0" style="display:inline;fill:#002a44;fill-opacity:1;stroke-width:22.6873;paint-order:markers stroke fill"/><rect width="2" height="2" x="-3" rx="0" ry="0" style="display:inline;fill:#2c2d3d;fill-opacity:1;stroke-width:22.6873;paint-order:markers stroke fill"/><rect width="2" height="2" x="-3" y="-3" rx="0" ry="0" style="display:inline;fill:#16171c;fill-opacity:1;stroke-width:22.6872;paint-order:markers stroke fill"/></g><g transform="matrix(.30435 0 0 .30435 6.53 7.28)"><path fill="#3b6dbb" d="M3.784 24.51h-6.17v-32h21.44v5.851H3.783v6.72h9.691v5.852h-9.69z" style="isolation:isolate"/><circle cx="24.333" cy="24.51" r="14" fill="#666" fill-rule="evenodd" style="paint-order:stroke fill markers"/><path fill="#fff" d="M21.508 15.948c-.096.018-.139.108-.139.205v2.985a6.138 6.138 0 0 0-.818.544L17.8 18.516c-.09-.038-.19-.033-.244.048l-1.274 1.889c-.054.08-.02.175.048.244l2.108 2.11a6.138 6.138 0 0 0-.19.964l-2.772 1.12c-.09.036-.157.11-.139.205l.435 2.24c.018.095.108.138.205.138h2.985a6.138 6.138 0 0 0 .544.819l-1.166 2.751c-.038.09-.033.19.048.244l1.89 1.274c.08.054.174.02.243-.048l2.11-2.107a6.138 6.138 0 0 0 .964.189l1.12 2.772c.036.09.11.157.205.139l2.24-.435c.095-.018.138-.108.138-.205v-2.985a6.138 6.138 0 0 0 .82-.544l2.75 1.166c.09.038.19.033.244-.047l1.274-1.89c.054-.08.02-.175-.048-.244l-2.107-2.11a6.138 6.138 0 0 0 .19-.964l2.771-1.12c.09-.036.157-.109.14-.205l-.436-2.239c-.018-.096-.108-.139-.205-.139h-2.985a6.138 6.138 0 0 0-.544-.818l1.166-2.752c.038-.09.033-.19-.047-.244l-1.89-1.274c-.08-.054-.175-.02-.244.048l-2.11 2.108a6.138 6.138 0 0 0-.964-.19l-1.12-2.772c-.036-.09-.109-.157-.205-.139zm2.324 5.979a2.63 2.63 0 0 1 3.084 2.08 2.63 2.63 0 0 1-2.08 3.084 2.63 2.63 0 0 1-3.083-2.08 2.63 2.63 0 0 1 2.08-3.084z"/></g></svg>