<svg xmlns="http://www.w3.org/2000/svg" width="24" height="24" fill="none"><path fill="#68D177" fill-rule="evenodd" d="M21 4.111c-.757-.952-1.748-1.68-2.973-2.184a13.537 13.537 0 0 0-3.78-.848 31.653 31.653 0 0 0-4.307-.011c-.11.032-.224.047-.344.046-.742.06-1.476.178-2.2.355-3.106.738-5.064 2.65-5.876 5.736a18.491 18.491 0 0 0-.515 4.786c-.03 1.521.118 3.025.447 4.51.456 1.945 1.352 3.444 2.688 4.499h13.63c1.784 0 3.23-1.377 3.23-3.076V4.111Z" clip-rule="evenodd"/><path fill="#E5E5E5" fill-rule="evenodd" d="M18.313 21.938a8.312 8.312 0 0 1-.515.208 15.624 15.624 0 0 1-4.765.825 21.423 21.423 0 0 1-5.453-.413c-1.416-.315-2.6-.865-3.553-1.649a2.994 2.994 0 0 1-.026-.408V7C4 5.339 5.337 4 7 4H20.5c.148 0 .293.011.435.031.525.641.941 1.386 1.249 2.235.427 1.24.679 2.514.756 3.824a27.94 27.94 0 0 1-.114 4.923 11.88 11.88 0 0 1-.882 3.293l-3.633 3.632Z" clip-rule="evenodd" opacity=".625"/><path fill="#fff" d="M10.687 8.723v4.134h1.87c.692 0 1.228-.18 1.607-.538.378-.36.567-.87.567-1.533 0-.658-.19-1.167-.567-1.525-.379-.358-.915-.538-1.607-.538h-1.87ZM9.2 7.5h3.358c1.232 0 2.163.28 2.793.841.633.554.95 1.37.95 2.446 0 1.085-.317 1.905-.95 2.46-.63.556-1.56.833-2.793.833h-1.868v4.42h-1.49v-11Z"/><path fill="#fff" fill-rule="evenodd" d="M22.667 16a11.87 11.87 0 0 1-.734 2.334c-.85 1.842-2.229 3.113-4.135 3.812-.593.2-1.192.364-1.798.492v-1.75A4.877 4.877 0 0 1 20.888 16h1.78Z" clip-rule="evenodd"/><path fill="#fff" d="M7 5.124A1.87 1.87 0 0 0 5.124 7v13.5c0 1.039.837 1.875 1.876 1.875h10V22H7a1.499 1.499 0 0 1-1.5-1.5V7c0-.83.67-1.5 1.5-1.5h13.5c.83 0 1.5.67 1.5 1.5v9.751h.375V7A1.873 1.873 0 0 0 20.5 5.124H7Z"/></svg>