<svg xmlns="http://www.w3.org/2000/svg" xmlns:xlink="http://www.w3.org/1999/xlink" width="24" height="24" fill="none"><defs><radialGradient id="a" cx="0" cy="0" r="1" gradientTransform="matrix(0 22 -22 0 12 1)" gradientUnits="userSpaceOnUse"><stop offset=".004" stop-color="#8FC8FF" style="stop-color:#3aa5ff;stop-opacity:1"/><stop offset=".996" stop-color="#0056A8" style="stop-color:#3aa5ff;stop-opacity:1"/></radialGradient><radialGradient id="b" cx="0" cy="0" r="1" gradientTransform="matrix(0 22 -22 0 12 1)" gradientUnits="userSpaceOnUse"><stop offset="0" stop-color="#8FC8FF" style="stop-color:#f6f6f6;stop-opacity:1"/><stop offset="1" stop-color="#0056A8" style="stop-color:#cfcfcf;stop-opacity:1"/></radialGradient><radialGradient xlink:href="#a" id="c" cx=".179" cy="-1.748" r="1" fx=".179" fy="-1.748" gradientTransform="matrix(0 90.05947 -90.00681 0 -107.37 -11.19)" gradientUnits="userSpaceOnUse"/></defs><path d="M50 5C9.09 5 5 25.455 5 50c0 32.727 12.273 45 45 45 32.727 0 45-12.273 45-45 0-24.545-4.09-45-45-45Z" style="font-variation-settings:normal;display:inline;opacity:1;vector-effect:none;fill:url(#c);fill-opacity:1;stroke-width:4.56656;stroke-linecap:butt;stroke-linejoin:miter;stroke-miterlimit:4;stroke-dasharray:none;stroke-dashoffset:0;stroke-opacity:1;-inkscape-stroke:none;stop-color:#000;stop-opacity:1" transform="matrix(.24444 0 0 .24444 -.222 -.222)"/><g style="display:inline"><rect width="2" height="2" x="12" y="-3" rx="0" ry="0" style="display:inline;fill:#3947be;fill-opacity:1;stroke-width:22.6872;paint-order:markers stroke fill"/><rect width="2" height="2" x="9" y="-3" rx="0" ry="0" style="display:inline;fill:#6c7ad8;fill-opacity:1;stroke-width:22.6873;paint-order:markers stroke fill"/><rect width="2" height="2" x="6" y="-3" rx="0" ry="0" style="display:inline;fill:#3c3;fill-opacity:1;stroke-width:22.6873;paint-order:markers stroke fill"/><rect width="2" height="2" x="3" y="-3" rx="0" ry="0" style="display:inline;fill:#ffc328;fill-opacity:1;stroke-width:22.6872;paint-order:markers stroke fill"/><rect width="2" height="2" y="-3" rx="0" ry="0" style="display:inline;fill:#cc5e55;fill-opacity:1;stroke-width:22.6873;paint-order:markers stroke fill"/><rect width="2" height="2" x="-3" y="12" rx="0" ry="0" style="display:inline;fill:#0bb1cb;fill-opacity:1;stroke-width:22.6872;paint-order:markers stroke fill"/><rect width="2" height="2" x="-3" y="9" rx="0" ry="0" style="display:inline;fill:#2a92c9;fill-opacity:1;stroke-width:22.6873;paint-order:markers stroke fill"/><rect width="2" height="2" x="-3" y="6" rx="0" ry="0" style="display:inline;fill:#069;fill-opacity:1;stroke-width:22.6873;paint-order:markers stroke fill"/><rect width="2" height="2" x="-3" y="3" rx="0" ry="0" style="display:inline;fill:#002a44;fill-opacity:1;stroke-width:22.6873;paint-order:markers stroke fill"/><rect width="2" height="2" x="-3" rx="0" ry="0" style="display:inline;fill:#2c2d3d;fill-opacity:1;stroke-width:22.6873;paint-order:markers stroke fill"/><rect width="2" height="2" x="-3" y="-3" rx="0" ry="0" style="display:inline;fill:#16171c;fill-opacity:1;stroke-width:22.6872;paint-order:markers stroke fill"/></g><g stroke-width=".741" color="#000"><path fill="#b5ddff" d="M44.053 34.996a1 1 0 0 0-.129.008s-1.437.13-3.135.521c-1.698.391-3.688.973-4.982 2.268-.347.347-.68.632-1.012.92-1.217-.866-2.404-1.436-3.566-1.691a1 1 0 0 0-.215-.024h-.33l-.875 2h1.043c.676.156 1.437.483 2.262 1.002-.827.52-1.59.845-2.266 1h-1.916l-.875 2h2.957a1 1 0 0 0 .215-.023c1.163-.256 2.35-.823 3.568-1.69.333.288.664.572 1.01.918 1.295 1.295 3.284 1.876 4.982 2.268a25.97 25.97 0 0 0 3.135.521 1 1 0 0 0 .18-1.992s-1.313-.12-2.865-.478c-1.552-.358-3.312-1.027-4.018-1.733-.28-.28-.556-.54-.832-.79a23.1 23.1 0 0 0 .832-.794c.705-.705 2.466-1.376 4.018-1.734a23.99 23.99 0 0 1 2.865-.479 1 1 0 0 0-.05-1.998zm-40.063.002a1 1 0 0 0-.082 1.996s1.313.12 2.865.479c1.552.358 3.315 1.029 4.02 1.734.28.28.558.543.834.793-.276.25-.554.511-.834.791-.705.705-2.468 1.374-4.02 1.732a23.99 23.99 0 0 1-2.865.479 1 1 0 0 0 .182 1.992s1.437-.13 3.135-.521c1.698-.392 3.687-.973 4.982-2.268.346-.346.68-.63 1.012-.918 1.217.867 2.403 1.434 3.566 1.69A1 1 0 0 0 17 43h.314l.875-2h-1.025c-.677-.155-1.436-.48-2.262-1 .825-.52 1.582-.846 2.258-1.002h1.904l.875-2H17a1 1 0 0 0-.215.023c-1.163.256-2.349.825-3.566 1.692-.333-.288-.665-.574-1.012-.92-1.295-1.295-3.284-1.876-4.982-2.268-1.698-.392-3.135-.521-3.135-.521a1 1 0 0 0-.1-.006z" style="text-indent:0;text-decoration-line:none;text-decoration-style:solid;text-decoration-color:#000;text-transform:none;white-space:normal;isolation:auto;mix-blend-mode:normal" transform="matrix(.33296 0 0 .33296 4.002 -1.32)"/><path fill="#fff" d="M16.014 27.986a1 1 0 0 0-.908 1.46l3.275 6.552h1.559a1 1 0 0 1 .4.086l.15-.342-3.595-7.19a1 1 0 0 0-.881-.566zm15.988 0a1 1 0 0 0-.92.611l-7 16a1.001 1.001 0 0 0 1.834.803l7-16a1 1 0 0 0-.914-1.414zm-9 6a1 1 0 0 0-.92.611l-7 16a1.001 1.001 0 0 0 1.834.803l7-16a1 1 0 0 0-.914-1.414zm2.967 0a1 1 0 0 0-.899.64l-4 10a1 1 0 1 0 1.858.745l4-10a1 1 0 0 0-.96-1.385zm1.687 9.928-.324.744 3.793 6.826a1 1 0 1 0 1.748-.97L29.254 44h-1.197a1 1 0 0 1-.4-.086z" style="text-indent:0;text-decoration-line:none;text-decoration-style:solid;text-decoration-color:#000;text-transform:none;white-space:normal;isolation:auto;mix-blend-mode:normal" transform="matrix(.33296 0 0 .33296 4.002 -1.32)"/></g></svg>