<svg xmlns="http://www.w3.org/2000/svg" width="24" height="24" fill="none"><path fill="url(#a)" fill-rule="evenodd" d="M9.596 1.114c.12 0 .234-.014.344-.046a31.627 31.627 0 0 1 4.307.011c1.301.102 2.561.384 3.78.848 2.025.833 3.412 2.28 4.158 4.339.427 1.24.679 2.514.756 3.824a27.94 27.94 0 0 1-.114 4.923 11.876 11.876 0 0 1-.894 3.32c-.85 1.843-2.229 3.114-4.135 3.813a15.624 15.624 0 0 1-4.765.825 21.423 21.423 0 0 1-5.453-.413c-3.312-.737-5.354-2.756-6.128-6.056a19.047 19.047 0 0 1-.447-4.511 18.491 18.491 0 0 1 .515-4.786c.812-3.086 2.77-4.998 5.877-5.736a13.954 13.954 0 0 1 2.199-.355Z" clip-rule="evenodd"/><path fill="#000" d="M7.923 8.11C5.653 8.613 4 10.15 4 11.878c.966.222 1.276.29 2.363.464v2.141s.04.545.59.545h5.12c.552 0 .591-.545.591-.545v-2.141c1.107-.204 1.33-.242 2.363-.464 0-1.726-1.653-3.265-3.922-3.766a2.363 2.363 0 1 0-3.182 0Z" opacity=".25"/><path fill="#D6EBFE" d="M10.935 11.063c1.002-.888 2.333-1.378 3.748-1.378s2.746.49 3.749 1.378c1.011.896 1.568 2.09 1.568 3.363 0 1.215-.508 2.358-1.433 3.239.017.04.03.083.038.129l.305 1.629c.035.193-.013.308-.06.371a.276.276 0 0 1-.227.113.456.456 0 0 1-.223-.067l-1.768-1a5.903 5.903 0 0 1-1.949.327c-1.415 0-2.746-.49-3.748-1.378-1.012-.896-1.569-2.09-1.569-3.363 0-1.272.557-2.467 1.569-3.363Z"/><path fill="#1C95F5" d="M12.475 15.392a.966.966 0 1 0 0-1.932.966.966 0 0 0 0 1.932ZM14.677 15.392a.966.966 0 1 0 0-1.932.966.966 0 0 0 0 1.932ZM16.99 15.392a.966.966 0 1 0 0-1.932.966.966 0 0 0 0 1.932Z" opacity=".837"/><defs><radialGradient id="a" cx="0" cy="0" r="1" gradientTransform="matrix(0 22 -22 0 12 1)" gradientUnits="userSpaceOnUse"><stop stop-color="#269FFF"/><stop offset="1" stop-color="#0079D9"/></radialGradient></defs></svg>