<svg xmlns="http://www.w3.org/2000/svg" xmlns:xlink="http://www.w3.org/1999/xlink" xml:space="preserve" width="24" height="24" fill="none"><defs><linearGradient id="a"><stop offset="0" style="stop-color:#298cfe;stop-opacity:1"/><stop offset="1" style="stop-color:#7eb8fc;stop-opacity:1"/></linearGradient><linearGradient xlink:href="#a" id="b" x1="47.524" x2="44.343" y1="90.82" y2="-33.153" gradientTransform="matrix(.24444 0 0 .24444 -.222 -.222)" gradientUnits="userSpaceOnUse"/></defs><path d="M12 1C2 1 1 6 1 12c0 8 3 11 11 11s11-3 11-11c0-6-1-11-11-11Z" style="font-variation-settings:normal;display:inline;opacity:1;vector-effect:none;fill:url(#b);fill-opacity:1;stroke-width:1.11627;stroke-linecap:butt;stroke-linejoin:miter;stroke-miterlimit:4;stroke-dasharray:none;stroke-dashoffset:0;stroke-opacity:1;-inkscape-stroke:none;stop-color:#000;stop-opacity:1"/><path fill="#fff" d="M621.357 291.46c1.274-.48 2.356-.996 2.403-1.149.047-.152-.647-1.664-1.54-3.36-1.4-2.652-1.8-3.167-2.87-3.68a90.76 90.76 0 0 1-1.701-.83c-.251-.132-.872-1.206-1.38-2.386-.508-1.181-.944-2.186-.968-2.227-.12-.207-5.126.978-5.126 1.215 0 .15.62 1.494 1.376 2.988 1.11 2.188 1.698 2.961 3.033 3.98 1.49 1.137 1.747 1.517 2.575 3.81.623 1.723 1.072 2.54 1.4 2.527.263-.02 1.522-.41 2.798-.889zm11.396-8.727c3.62-1.781 5.376-4.891 5.005-8.86-.156-1.677-.09-2.106.423-2.76 1.314-1.668.612-1.893-5.333-1.702-4.175.133-4.36.169-4.858.895-1.542 2.261-2.998 3.146-8.173 4.97l-3.266 1.15.026 1.265c.105 5.247 9.691 8.235 16.176 5.042zm-20.483-5.602c3.558-.75 9.631-2.826 11.722-4.007 4.041-2.284 5.487-8.552 2.857-12.402-.766-1.122-1.618-1.819-3.527-2.879-1.383-.77-3.104-1.815-3.825-2.321l-1.312-.923-.66.784c-1.007 1.191-2.023 1.7-4.24 2.12-1.305.249-2.766.831-4.132 1.647-1.912 1.147-2.314 1.268-4.342 1.3l-2.235.037-.67 1.193c-.39.696-1.414 1.689-2.454 2.378-1.847 1.228-5.14 5.181-5.137 6.169.007 2.138 1.82 4.802 3.971 5.838 3.66 1.76 8.834 2.154 13.986 1.066zm-17.458-8.975c1.59-2.269 3.206-3.97 4.652-4.895 1.073-.688 1.91-1.516 2.299-2.276.648-1.273 1.507-1.693 2.8-1.368.773.194.777.189.24-.557-.964-1.334-1.273-2.273-1.294-3.915-.022-1.83.6-2.911 2.34-4.077 4.37-2.92 6.66-7.997 4.611-10.217-.413-.45-2.01-1.438-3.55-2.2-2.635-1.302-2.91-1.373-4.679-1.202-8.491.821-16.967 6.71-20.238 14.058-1.008 2.262-2.018 7.02-1.769 8.321.588 3.048 3.32 6.744 5.92 8.004 2.022.977 3.29 1.198 5.964 1.036 1.779-.11 2.394-.27 2.704-.712zm46.255-.29c.46-3.007-.771-12.287-1.855-14l-.452-.711-1.284 1.1c-1.86 1.59-3.05 1.52-5.183-.3-.902-.769-1.903-1.4-2.227-1.4-.321 0-1.063.42-1.647.934-1.314 1.153-1.96 1.165-3.924.077-1.456-.805-1.598-.828-2.409-.38-1.08.6-1.607 1.931-1.037 2.62.225.269 1.331.926 2.464 1.458 2.91 1.37 3.969 2.251 4.923 4.097.664 1.283.837 2.06.85 3.792.01 1.196-.08 2.525-.2 2.954l-.218.778 12.022.138zm-32.188-9.234c1.046-1.108 2.271-1.605 4.72-1.91 2.169-.27 2.967-.69 3.52-1.85.594-1.245.782-1.29 1.85-.45 1.069.84 1.361.785 1.577-.297.121-.602.507-1.088 1.112-1.4 1.244-.644 1.556-.612 2.892.297 1.535 1.042 2.265.982 3.857-.323 1.28-1.05 1.386-1.08 2.21-.656.476.248 1.145.758 1.486 1.134.902.996 2.028 1.465 3.247 1.345 1.21-.117 2.506-1.166 2.506-2.03 0-1.114-1.563-3.65-3.33-5.403-6.44-6.392-16.333-10.378-25.775-10.39-2.068 0-3.854.09-3.968.206-.116.115 1.224.92 2.98 1.787 3.337 1.651 4.59 2.863 4.59 4.436 0 .837-1.536 4.215-2.432 5.345-.321.408-1.545 1.458-2.718 2.334-2.669 1.992-3.212 3.135-2.662 5.593.742 3.314 2.476 4.206 4.34 2.23z" style="stroke-width:1.72877" transform="matrix(.23567 0 0 .23567 -131.92 -50.341)"/></svg>