<svg xmlns="http://www.w3.org/2000/svg" width="24" height="24" fill="none"><path fill="url(#a)" stroke="url(#b)" stroke-width="1.4" d="M22.242 10.131v.004a27.24 27.24 0 0 1-.11 4.798 11.18 11.18 0 0 1-.838 3.115c-.772 1.667-2.004 2.803-3.729 3.438a14.921 14.921 0 0 1-4.544.785h-.025a20.72 20.72 0 0 1-5.27-.397c-1.548-.346-2.759-.98-3.67-1.88-.91-.901-1.56-2.105-1.922-3.648a18.346 18.346 0 0 1-.43-4.341l.001-.015v-.015a17.79 17.79 0 0 1 .494-4.599c.38-1.437 1.015-2.566 1.888-3.419.874-.853 2.021-1.463 3.472-1.807l.004-.002a13.253 13.253 0 0 1 2.061-.334c.144-.001.288-.018.428-.052a30.924 30.924 0 0 1 4.143.015c1.231.096 2.422.363 3.574.8 1.837.76 3.077 2.054 3.756 3.922.405 1.178.644 2.388.717 3.632Z"/><path fill="#E4E4E4" d="M12.003 8.991a1.532 1.532 0 0 1 1.531 1.532v6.945a1.533 1.533 0 0 1-3.064 0v-6.944a1.533 1.533 0 0 1 1.533-1.533Z"/><path fill="#FA512F" d="M12.003 10.153c.362 0 .656.294.656.656v6.194a.657.657 0 0 1-1.313 0v-6.194c0-.362.294-.656.657-.656Z"/><path fill="#fff" d="M13.316 5v2.109l-1.314.875-1.313-.876V5.003a3.063 3.063 0 0 0-1.751 2.762 3.065 3.065 0 1 0 6.129 0A3.063 3.063 0 0 0 13.317 5Z"/><defs><radialGradient id="a" cx="0" cy="0" r="1" gradientTransform="matrix(0 22 -22 0 12 1)" gradientUnits="userSpaceOnUse"><stop stop-color="#89FFF1"/><stop offset="1" stop-color="#028E7D"/></radialGradient><linearGradient id="b" x1="12" x2="12" y1="1" y2="23" gradientUnits="userSpaceOnUse"><stop stop-color="#2AB6A5"/><stop offset="1" stop-color="#007A69"/></linearGradient></defs></svg>