<svg xmlns="http://www.w3.org/2000/svg" width="24" height="24" fill="none"><path fill="url(#a)" fill-rule="evenodd" d="M9.596 1.114c.12 0 .234-.014.344-.046a31.627 31.627 0 0 1 4.307.011c1.301.102 2.561.384 3.78.848 2.025.833 3.412 2.28 4.158 4.339.427 1.24.679 2.514.756 3.824a27.94 27.94 0 0 1-.114 4.923 11.876 11.876 0 0 1-.894 3.32c-.85 1.843-2.229 3.114-4.135 3.813a15.624 15.624 0 0 1-4.765.825 21.423 21.423 0 0 1-5.453-.413c-3.312-.737-5.354-2.756-6.128-6.056a19.047 19.047 0 0 1-.447-4.511 18.491 18.491 0 0 1 .515-4.786c.812-3.086 2.77-4.998 5.877-5.736a13.954 13.954 0 0 1 2.199-.355Z" clip-rule="evenodd"/><path fill="#E6A345" d="M4.54 5c-.293 0-.54.305-.54.601v10.067c0 .314.354.66.668.66h5.005L7.338 21h1.33l2.343-4.673h.328V21h1.33v-4.673h.346L15.351 21h1.335l-2.338-4.673h4.987c.315 0 .665-.348.665-.659V5.601A.622.622 0 0 0 19.403 5H4.541Z"/><path fill="#43953B" d="M18.004 6.333h-12a.668.668 0 0 0-.667.668v7.332c0 .369.3.668.668.668h11.999a.668.668 0 0 0 .667-.668V7.001a.668.668 0 0 0-.667-.668Z"/><path fill="#F9F9F9" d="M8.862 7.713c-.322.065-.18.31-.204.515-.037.194-.258.518-.185.588-.081.333-.13.797-.257 1.168a9.063 9.063 0 0 0-.305.979c-.088.307-.161.618-.219.932.116.304-.097.485-.067.779.28-.168.187.225-.021.234.44-.015.333-.573.346-.848.186-.142.184-.522.291-.751-.208.143.131-.194.071-.31.101-.465.657-.27.996-.358.163.14.114.487.34.487-.136.314.152.475.193.752-.018.291.152.897.526.74.047.168-.198.2-.258.107.077.584.687-.12.305-.176-.13-.193-.172-.52-.232-.772-.2-.27-.112-.49-.273-.816-.167-.324.294-.434-.088-.614-.38.069.022-.46-.298-.58.064-.165-.31-.403-.043-.22-.14-.314-.103-1.037-.51-1.024.008-.108.227-.21.064-.318-.164-.15.019-.419-.172-.494Zm1.129 2.812c.021.006-.026.039 0 0Zm.322 2.119c.032.051-.065.01 0 0Zm-2.162-1.04c.082.054.026-.08 0 0Zm.769-3.78c.09.052-.093.044 0 0Zm-.028.179c.073.056-.067.043 0 0Zm2.322.204c.108.077-.11.056 0 0Zm-2.597.021c.039.069-.047.035 0 0Zm2.275.018c-.21.103-.246.268-.068.45.013.481.008.966.094 1.44-.043.402.138.778.082 1.179.034.322.015.52.032.811.028.226-.36.631-.07.752.437-.007.95.073 1.31-.041.202-.14.62-.024.763-.406.231-.032-.097-.431.137-.225.236.129.161-.39.255-.365-.279-.118.194-.013.018-.27.088-.43-.443-.724-.5-1.046-.209-.07-.82-.086-.679-.315-.167-.177.163-.076.133-.316.21.221.108-.326.32-.365.065-.388-.004-.85-.34-1.103a2.421 2.421 0 0 0-1.28-.135c-.067-.02-.134-.056-.207-.046Zm-.034.12c.088.07-.103.045 0 0Zm.672.008c.069.065-.069.052 0 0Zm-.243.035c.067.083-.075.038 0 0Zm.578 0c.09.081-.086.058 0 0Zm-3.218.023c.086.058-.086.045 0 0Zm3.344 0c.093.082-.085.058 0 0Zm-.802.005c.081.032-.063.053 0 0Zm.375.034c.344.008.842.073.827.543.18.075.002.46-.15.659-.202.253-.353.464-.634.526-.24.043-.584.217-.436-.123-.085-.42-.025-.858-.118-1.296-.032-.356.318-.258.511-.31Zm.9.648c-.024-.058-.026.01 0 0Zm-.305-.633c.18.051-.129.13 0 0Zm-3.377.006c.26.228.14.687.316 1.018.039.294.185.682.152.893-.264-.013-.794.156-.923.02.176.042.174-.319.21-.4-.233-.112.087-.494.072-.721.066-.258.079-.58.173-.81Zm-.193.022c.103 0-.159.094 0 0Zm.322.013c.09.075-.086.053 0 0Zm3.126.01c.062-.008.008.065 0 0Zm.377.005c.086.124.075-.022 0 0Zm-3.389.021c.073.054-.067.043 0 0Zm.159.08c.096.085-.095.058 0 0Zm-.683.034c.075.069-.084.051 0 0Zm7.303.073a1.91 1.91 0 0 0-.872.311c-.215.004.077.43-.27.281-.413.093-.322.567-.589.833-.124.292-.051.616-.223.897.13.359.116.812.457 1.082.022.166.438.438.698.5.294.073.62.009.893.17.221.01.846.07.541-.29.092-.23-.27-.062-.343-.165a1.679 1.679 0 0 1-1.33-.378c-.268-.182-.411-.54-.435-.858.062-.27.129-.546.223-.803.063-.196.202-.342-.038-.46.1.003.167-.31.236-.032.257-.298.545-.588.938-.685.247-.165.682-.092.858-.203-.115-.275-.513-.185-.744-.2Zm-3.392-.043c.084.07-.088.06 0 0Zm-3.39 0c.08.064-.068.064 0 0Zm6.752.092c.146.06-.125.116 0 0Zm-6.597-.036c.048.062-.068.021 0 0Zm-.35.021c.116.035-.098.078 0 0Zm.256 0c.086.065-.107.043 0 0Zm6.982.084c.157.064-.1.118 0 0Zm.365.002c.15.056-.096.107 0 0Zm-5.538-.062c.093.077-.085.056 0 0Zm-2.215.05c.062.074-.075.036 0 0Zm-.056.016c.084.056-.085.048 0 0Zm.434.02c.157.043-.137.092 0 0Zm3.417.006c.086.037-.083.045 0 0Zm-1.425.028c.082.07-.088.06 0 0Zm4.183.086c.116.1-.126.056 0 0Zm-6.12-.06c.091.073-.085.051 0 0Zm3.568.03c.086.084-.09.043 0 0Zm-3.672 0c.068.073-.08.047 0 0Zm6.117.069c.135.06-.116.113 0 0Zm.365 0c.15.058-.12.115 0 0Zm-.539.038c.13.082-.114.088 0 0Zm.322.032c.123.054-.056.123 0 0ZM9.218 9.06c.075.069-.084.05 0 0Zm3.409 0c.062.052-.058.032 0 0Zm2.726.086c.135.008.08.172 0 0ZM9.11 9.08c.08.058-.077.054 0 0Zm3.55.01c.08.061-.086.04 0 0Zm-3.492.025c.077.051-.069.05 0 0Zm5.624.073c.174.099-.125.154 0 0Zm-3.72-.043c.092.084-.086.058 0 0Zm3.996.107c.05.24-.244.067 0 0Zm-5.907.03c.086.037-.09.127 0 0Zm5.455.086c.122.086-.134.092 0 0Zm-6.221-.06c.077.073-.073.054 0 0Zm4.241.037c.07.012-.055.077 0 0Zm-4.325.015c.082.049-.088.042 0 0Zm.966.021c.088.07-.1.045 0 0Zm-.133.004c.065.069-.069.039 0 0Zm.163.095c.086.081-.09.047 0 0Zm5.588.066c.14.069-.103.108 0 0Zm-.376.03c.133.103-.043.166 0 0Zm-1.889-.053c.06-.013-.021.066 0 0Zm1.794.094c.1.024-.098.032 0 0Zm-1.923.017c.088.073-.1.05 0 0Zm-.16.005c.12.043-.108.09 0 0Zm.3.021c.086.054-.077.075 0 0Zm1.822.069c.129.081-.118.073 0 0ZM9.508 9.69c-.03.101-.107.022 0 0Zm1.423.043c.075.069-.081.05 0 0Zm-2.481.006c.092.08-.095.05 0 0Zm4.03.013c.082.084-.02.065 0 0Zm1.748.082c.007-.004-.004.008 0 0Zm0 0c.032.122-.127.105 0 0Zm-4.836-.026c.092.084-.11.052 0 0Zm1.556.017c.116.056-.118.086 0 0Zm-1.59.043c-.035.22-.15.058 0 0Zm2.794.005c.073.064-.083.047 0 0Zm2.465.107c.15.077-.1.092 0 0Zm-3.478-.058c.086.07-.077.056 0 0Zm-2.638.021c.086.054-.081.065 0 0Zm3.58.039c.14.062-.066.112 0 0Zm2.044.202c.129.08-.133.105 0 0Zm-5.686-.05c.032.236-.135-.015 0 0Zm1.144.056c.056.09-.077.043 0 0Zm2.391.005c.086.075-.075.07 0 0Zm2.288.066c.078.022-.064.05 0 0Zm-.085.022c-.056.238-.228.004 0 0Zm-6-.07c.09.078-.092.052 0 0Zm.202.027c.006.079-.082-.013 0 0Zm1.305.002c.107.021-.075.092 0 0Zm2.355.002c.122.026-.16.094 0 0Zm.118.01c.086.059-.088.044 0 0Zm-2.705.018c.07.056-.069.043 0 0Zm1.496.017c.114.052-.111.082 0 0Zm-1.608.002c.065.073-.068.043 0 0Zm1.789 0c.01.215-.112.039 0 0Zm-.028.064c.012 0 0-.021 0 0Zm3.166.005c.137.073-.133.11 0 0Zm-2.962-.062c.105.043-.093.09 0 0Zm-1.77.023c.065.065-.076.028 0 0Zm.11.02c.078.06-.081.04 0 0Zm-1.273.019c.065.086-.077.038 0 0Zm1.209 0c.092.08-.086.056 0 0Zm-1.277.021c.062.099-.114.037 0 0Zm3.55.009c.084.058-.086.045 0 0Zm-.597.028c.112.425.481.066.762.227.473-.043.726.34 1.043.6.174.143-.07.302.065.448-.072.22-.21.411-.395.55-.073.22-.633.034-.706.248-.191-.253-.305.16-.397.166-.052-.028.171-.301-.12-.258-.204.064-.23.118-.18-.112-.087-.34-.078-.247-.08-.508.086-.191-.13-.451.077-.657-.127-.206-.215-.511-.069-.704Zm0 1.48c.026.007.011.091 0 0Zm1.806-.654c.1.067-.07.12 0 0ZM9.91 10.42c.123.086-.094.056 0 0Zm-.193 0c.09.064-.103.043 0 0Zm2.398.008c.092.08-.092.052 0 0Zm2.24.071c.151.069-.102.114 0 0Zm-4.633-.021c.152.064-.086.099 0 0Zm1.264 0c.1.097-.133.036 0 0Zm-2.928.008c.088.078-.08.058 0 0Zm5.924.086c.035.086-.088.075 0 0Zm-2.49-.038c.086.08-.103.055 0 0Zm-1.603.01c.084.06-.086.037 0 0Zm-.61.005c.076.058-.09.03 0 0Zm.144.004c.069.075-.08.026 0 0Zm-.418.013c.068.07-.08.045 0 0Zm.777 0c.064.075-.073.036 0 0Zm3.04.034c.104.035-.091.069 0 0Zm-4.105.013c.112.054-.107.08 0 0Zm.895.004c.082.065-.086.056 0 0Zm2.831.005c.075.068-.083.049 0 0Zm-4.213.017c.09.077-.093.051 0 0Zm4.499 0c.114.051-.114.08 0 0Zm-.348 0c.101.099-.133.034 0 0Zm2.097.086c.15.058-.116.11 0 0Zm-6.298-.058c.082.064-.085.038 0 0Zm5.903.077c.116.021-.096.05 0 0Zm-1.268-.051c-.005.152-.138-.046 0 0Zm-3.366.004c.073.054-.067.043 0 0Zm-1.31.06c.112.045-.04.116 0 0Zm.202.032c.09.08-.092.052 0 0Zm-.08.004c.065.078-.074.037 0 0Zm1.295.02c.075.184-.189.045 0 0Zm.3.03c0 .184-.12.124 0 0Zm2.905.006c.099.09-.116.039 0 0Zm1.185.084c.144.08-.107.086 0 0Zm-4.19-.05c.086.059-.086.048 0 0Zm3.273.016c.086.073-.085.06 0 0Zm.03.077c.08.073-.126.036 0 0Zm-4.915.006c.107 0-.054.065 0 0Zm1.563.007c.079.043-.108.015 0 0Zm1.566.025c.041.114-.107-.014 0 0Zm-3.13.016c.091.079-.085.053 0 0Zm-.079 0c.065.053-.088.021 0 0Zm5.208.049c.081.073-.073.073 0 0Zm-.27.008c.09.08-.084.054 0 0Zm-3.253.007c.093.08-.092.051 0 0Zm.131.021c.09.075-.092.054 0 0Zm-.193 0c.11.035-.09.101 0 0Zm-1.575.03c.156-.004-.086.144 0 0Zm1.446.024c.076.037-.064.077 0 0Zm3.652.004c.098.09-.116.043 0 0Zm-3.24.028c.093.058-.094.05 0 0Zm4.057.082c.071.045-.116.07 0 0Zm-5.92-.02c-.023.043-.073.018 0 0Zm5.291.01c.084.079-.09.05 0 0Zm-3.679.005c.086.065-.105.041 0 0Zm-1.781.037c.103.002-.026.129 0 0Zm6.055.09c.14.035-.086.116 0 0Zm-4.192-.062c.086.075-.075.073 0 0Zm.197.06c.082.058-.085.037 0 0Zm4.085.069c.108.034-.064.077 0 0Zm-6.1-.054c0 .086-.144-.021 0 0Zm.122.082c.073.058-.081.023 0 0Zm-.236.047c.082.051-.088.045 0 0Zm5.489.026c.092.081-.086.055 0 0Zm-3.469.004c.08.064-.082.039 0 0Zm-1.996.013c.118.066-.163.081 0 0Zm.171.006c.09.08-.094.05 0 0Zm2.098 0c.085.056-.09.073 0 0Zm.94.041c.086.07-.086.058 0 0Zm-3.147.064c.086.058-.088.045 0 0Zm-.112 0c.08.065-.085.039 0 0Zm2.383.002c.086.048-.086.059 0 0Zm2.923.005c.093.077-.085.053 0 0Zm-3.19.017c.084.137-.15.086 0 0Zm.095.054c.078.068-.081.049 0 0Zm.052.025c.081.015-.007.058 0 0Zm-2.123.022c.086.056-.09.047 0 0Zm1.788.006c.09-.028-.022.071 0 0Zm-1.846.013c.092.069-.09.043 0 0Zm6.596.09c.142.073-.116.11 0 0Zm-4.41-.064c.08.062-.085.043 0 0Zm-.145.028c.09.073-.086.056 0 0Zm.054 0c.09.073-.084.056 0 0Zm3.278.013c.15 0-.08.064 0 0Zm.116 0c.184.08-.065.15 0 0Zm.826.07c.073.03-.056.065 0 0Zm-6.296-.057c.047.122-.105.14 0 0Zm5.122.021c.107.097-.009.092 0 0Zm-2.902.007c.075.068-.082.051 0 0Zm-.17.021c.093.077-.092.051 0 0Zm2.945.017c.107.043-.096.088 0 0Zm.39.007c.102.094-.134.034 0 0Zm-3.232.019c.069.03-.141.088 0 0Zm-2.335.04c.069.074-.095.026 0 0Zm.107.022c.09.05-.092.045 0 0Zm-.03.047c.092.08-.094.052 0 0Zm.086.05c.086.056-.09.045 0 0Zm3.34.017c.077.064-.086.043 0 0Zm-3.447.013c.146.034-.157.13 0 0Zm5.198.02c.07.07-.081.044 0 0Zm-.113.012c.068.077-.075.06 0 0Zm-.404.009c.107.094-.111.077 0 0Zm-2.389.006c.09.075-.086.054 0 0Zm-2.207.004c.065-.006-.015.075 0 0Zm2.126.013c.019.058-.086.015 0 0Zm1.077 0c.084.078-.09.052 0 0Zm1.919.015c.086.114-.086.125 0 0Zm3.505.08c.314.058-.092.3 0 0Zm-8.972-.058c.099.06-.099.038 0 0Zm2.627.004c.069.088-.081.064 0 0Zm1.03.002c.16.064-.079.086 0 0Zm-.886.002c.118-.021.013.155 0 0Zm-.253.007c-.022.133-.187.015 0 0Zm-2.125.004c.03.092-.065.037 0 0Zm-.114.002c.075.058-.022.112 0 0Zm5.068 0c.058.077-.075.039 0 0Zm-.311.026c.09.075-.095.054 0 0Zm-.574.015c.112.043-.09.073 0 0Zm.741 0c.099.09-.116.04 0 0Zm.414 0c.108.039-.081.075 0 0Zm1.76.069c.08.126-.094.133 0 0Zm-4.823-.06c.082.057-.088.036 0 0Zm-2.543 0c.066.07-.067.079 0 0Zm3.619.032c.098.038-.095.064 0 0Zm.665.002c.082.058-.086.045 0 0Zm4.531.073c.108.182-.114.116 0 0Zm-3.969-.022c.112.054-.113.065 0 0Zm-.888.007c.073.043-.08.058 0 0Zm3.64.069c.144.077-.1.098 0 0Zm-4.883-.046c.082.056-.086.046 0 0Zm1.72.003c.053.094-.059.068 0 0Zm-4.133.021c.084.058-.086.05 0 0Zm3.971.009c.078.073-.086.055 0 0Zm.269 0c.096.085-.095.058 0 0Zm-.22.002c.123.047-.104.09 0 0Zm.421.004c.088.08-.103.052 0 0Zm-.532.03c.099.09-.116.039 0 0Zm-1.507.002c.088.082-.086.058 0 0Zm.058 0c.088.082-.086.06 0 0Zm-2.55.005c.084.072-.07.072 0 0Zm4.564.03c.094.036-.082.053 0 0Zm.386 0c.103.03-.088.07 0 0Zm3.692.068c.096.052-.09.058 0 0Zm-.232.013c.122.05-.073.086 0 0Zm-3.602-.056c.103.07-.058.168 0 0Zm3.722.07c.136.07-.133.096 0 0Zm-.189 0c.048.038-.06.04 0 0Zm.327.027c.13.094-.14.07 0 0Zm-4.916-.064c.05.062-.069.015 0 0Zm.764.002c.123.152-.201.028 0 0Zm-4.576.015c.116.043-.097.088 0 0Zm3.125.01c.067.202-.15.028 0 0Zm.709 0c.098.026-.078.071 0 0Zm-.264 0c.064.071-.075.03 0 0ZM7.51 12.7c.036.171-.149-.01 0 0Zm4.277.012c.086.078-.113.03 0 0Zm-.122.022c.092.08-.086.056 0 0Zm.614.01c.105.046-.09.1 0 0Zm-1.33.003c.117.058-.119.088 0 0Zm-3.246.051c-.013.037-.043-.038 0 0Zm3.428 0c.094.086-.095.056 0 0Zm.31.005c.194.021-.17.12 0 0Zm-1.08.064c.085.092-.087.064 0 0Z"/><defs><radialGradient id="a" cx="0" cy="0" r="1" gradientTransform="matrix(0 22 -22 0 12 1)" gradientUnits="userSpaceOnUse"><stop stop-color="#F9F9F9"/><stop offset="1" stop-color="#CCC"/></radialGradient></defs></svg>