<svg xmlns="http://www.w3.org/2000/svg" xmlns:xlink="http://www.w3.org/1999/xlink" width="24" height="24" fill="none"><defs><radialGradient id="a" cx="0" cy="0" r="1" gradientTransform="matrix(0 22 -22 0 12 1)" gradientUnits="userSpaceOnUse"><stop offset=".004" stop-color="#8FC8FF" style="stop-color:#268bcf;stop-opacity:1"/><stop offset=".996" stop-color="#0056A8" style="stop-color:#268bcf;stop-opacity:1"/></radialGradient><radialGradient id="b" cx="0" cy="0" r="1" gradientTransform="matrix(0 22 -22 0 12 1)" gradientUnits="userSpaceOnUse"><stop offset="0" stop-color="#8FC8FF" style="stop-color:#f6f6f6;stop-opacity:1"/><stop offset="1" stop-color="#0056A8" style="stop-color:#cfcfcf;stop-opacity:1"/></radialGradient><radialGradient xlink:href="#a" id="c" cx=".179" cy="-1.748" r="1" fx=".179" fy="-1.748" gradientTransform="matrix(0 90.05947 -90.00681 0 -107.37 -11.19)" gradientUnits="userSpaceOnUse"/></defs><path d="M50 5C9.09 5 5 25.455 5 50c0 32.727 12.273 45 45 45 32.727 0 45-12.273 45-45 0-24.545-4.09-45-45-45Z" style="font-variation-settings:normal;display:inline;opacity:1;vector-effect:none;fill:url(#c);fill-opacity:1;stroke-width:4.56656;stroke-linecap:butt;stroke-linejoin:miter;stroke-miterlimit:4;stroke-dasharray:none;stroke-dashoffset:0;stroke-opacity:1;-inkscape-stroke:none;stop-color:#000;stop-opacity:1" transform="matrix(.24444 0 0 .24444 -.222 -.222)"/><g style="display:inline"><rect width="2" height="2" x="12" y="-3" rx="0" ry="0" style="display:inline;fill:#3947be;fill-opacity:1;stroke-width:22.6872;paint-order:markers stroke fill"/><rect width="2" height="2" x="9" y="-3" rx="0" ry="0" style="display:inline;fill:#6c7ad8;fill-opacity:1;stroke-width:22.6873;paint-order:markers stroke fill"/><rect width="2" height="2" x="6" y="-3" rx="0" ry="0" style="display:inline;fill:#3c3;fill-opacity:1;stroke-width:22.6873;paint-order:markers stroke fill"/><rect width="2" height="2" x="3" y="-3" rx="0" ry="0" style="display:inline;fill:#ffc328;fill-opacity:1;stroke-width:22.6872;paint-order:markers stroke fill"/><rect width="2" height="2" y="-3" rx="0" ry="0" style="display:inline;fill:#cc5e55;fill-opacity:1;stroke-width:22.6873;paint-order:markers stroke fill"/><rect width="2" height="2" x="-3" y="12" rx="0" ry="0" style="display:inline;fill:#0bb1cb;fill-opacity:1;stroke-width:22.6872;paint-order:markers stroke fill"/><rect width="2" height="2" x="-3" y="9" rx="0" ry="0" style="display:inline;fill:#2a92c9;fill-opacity:1;stroke-width:22.6873;paint-order:markers stroke fill"/><rect width="2" height="2" x="-3" y="6" rx="0" ry="0" style="display:inline;fill:#069;fill-opacity:1;stroke-width:22.6873;paint-order:markers stroke fill"/><rect width="2" height="2" x="-3" y="3" rx="0" ry="0" style="display:inline;fill:#002a44;fill-opacity:1;stroke-width:22.6873;paint-order:markers stroke fill"/><rect width="2" height="2" x="-3" rx="0" ry="0" style="display:inline;fill:#2c2d3d;fill-opacity:1;stroke-width:22.6873;paint-order:markers stroke fill"/><rect width="2" height="2" x="-3" y="-3" rx="0" ry="0" style="display:inline;fill:#16171c;fill-opacity:1;stroke-width:22.6872;paint-order:markers stroke fill"/></g><path fill="#f9f9f9" d="M12.35 6.11C9.162 6.11 6 6.916 6 7.913v1.444c0 .996 3.162 1.948 6.35 1.948 3.187 0 6.349-.952 6.349-1.95V7.913c0-.997-3.162-1.803-6.35-1.803" opacity=".5"/><path fill="#f9f9f9" d="M12.927 12.458c-2.584 0-5.938-.528-6.673-1.261a.76.76 0 0 0-.253.541v1.444c0 .994 3.739 1.587 6.926 1.587 3.188 0 5.772-.591 5.772-1.589v-1.443c0-.188-.102-.37-.274-.54-.735.73-2.916 1.261-5.498 1.261m0 4.041c-2.584 0-5.938-.748-6.673-1.48a.76.76 0 0 0-.253.545v1.442c0 .995 3.739 1.803 6.926 1.803 3.188 0 5.772-.806 5.772-1.803v-1.444c0-.188-.102-.37-.274-.542-.735.731-2.916 1.481-5.498 1.481" opacity=".5"/><path fill="#fff" d="m14.746 11.18-.225 1.14c-.28.075-.544.187-.787.32L12.72 12l-.98.946.657.98a3.283 3.283 0 0 0-.32.756l-1.174.225v1.365l1.174.225c.075.27.182.535.32.773l-.656.964.979.963 1.013-.66c.243.135.508.248.787.323l.225 1.14h1.414l.225-1.14c.277-.075.542-.188.787-.323l1.013.66.979-.963-.658-.964a3.375 3.375 0 0 0 .32-.773L20 16.272v-1.365l-1.174-.225a3.229 3.229 0 0 0-.32-.755l.656-.981-.979-.947-1.012.641a3.574 3.574 0 0 0-.788-.32l-.225-1.14zm.707 2.86a1.542 1.542 0 1 1 0 3.084 1.542 1.542 0 0 1 0-3.085z"/></svg>