<svg xmlns="http://www.w3.org/2000/svg" width="24" height="24" fill="none"><path fill="url(#a)" fill-rule="evenodd" d="M9.596 1.114c.12 0 .234-.014.344-.046a31.627 31.627 0 0 1 4.307.011c1.301.102 2.561.384 3.78.848 2.025.833 3.412 2.28 4.158 4.339.427 1.24.679 2.514.756 3.824a27.94 27.94 0 0 1-.114 4.923 11.876 11.876 0 0 1-.894 3.32c-.85 1.843-2.229 3.114-4.135 3.813a15.624 15.624 0 0 1-4.765.825 21.423 21.423 0 0 1-5.453-.413c-3.312-.737-5.354-2.756-6.128-6.056a19.047 19.047 0 0 1-.447-4.511 18.491 18.491 0 0 1 .515-4.786c.812-3.086 2.77-4.998 5.877-5.736a13.954 13.954 0 0 1 2.199-.355Z" clip-rule="evenodd"/><path fill="#F95050" d="M18.974 4.501c1.562 1.524 1.562 6.092-1.564 7.616L14.282 9.07c3.128 0 4.692-3.045 4.692-4.568Zm-13.947 0c-1.564 1.524-1.564 6.091 1.564 7.615l3.127-3.048c-3.127 0-4.69-3.045-4.69-4.568v.001Z"/><path fill="#FFD059" d="M12 20.493a6.72 6.72 0 1 0 0-13.44 6.72 6.72 0 0 0 0 13.44Z"/><path fill="#000" d="M12.001 12.5s-.554-.841-.704-1.225c-.151-.383-.314-.774-.236-1.05.08-.276.208-.421.47-.525.263-.106.678-.106.94 0 .26.105.39.249.47.524.078.277-.085.668-.236 1.051-.15.384-.704 1.226-.704 1.226Zm0 2.561s-.554.842-.704 1.225c-.151.384-.314.774-.236 1.051.08.276.208.421.47.525.263.106.678.106.94 0 .26-.105.39-.249.47-.525.078-.277-.085-.667-.236-1.05-.15-.384-.704-1.226-.704-1.226Zm1.28-1.28s.841-.553 1.225-.705c.384-.15.774-.314 1.05-.234.278.08.422.207.526.469.105.262.105.677 0 .94-.104.262-.248.39-.525.47-.277.079-.667-.086-1.051-.236-.383-.15-1.225-.704-1.225-.704Zm-2.56 0s-.843-.553-1.226-.705c-.385-.15-.774-.314-1.051-.234-.277.08-.42.207-.525.469a1.438 1.438 0 0 0 0 .94c.104.262.248.39.525.47.277.079.666-.086 1.051-.236.383-.15 1.225-.704 1.225-.704Zm2.185.905s.987.203 1.364.37c.379.164.77.323.91.575.139.253.15.444.038.704-.14.29-.374.523-.664.665-.259.11-.45.1-.703-.04-.251-.14-.412-.532-.576-.91-.165-.377-.37-1.364-.37-1.364Zm-1.81-1.81s-.205-.987-.37-1.365c-.164-.378-.325-.77-.577-.91-.251-.138-.444-.15-.702-.038-.29.141-.524.375-.666.664-.11.259-.099.451.04.703.14.253.533.412.91.577.377.164 1.364.369 1.364.369Zm0 1.81s-.988.203-1.365.37c-.379.164-.77.323-.91.575-.139.253-.15.444-.038.704.11.26.404.552.664.665.258.11.45.1.702-.04.252-.14.413-.532.577-.91.165-.377.37-1.364.37-1.364Zm1.81-1.81s.204-.987.369-1.365c.164-.378.325-.77.576-.91.252-.138.444-.15.703-.038.26.111.553.404.665.664.112.259.1.451-.04.703-.139.253-.532.412-.909.577-.377.164-1.364.369-1.364.369Z" opacity=".4"/><defs><radialGradient id="a" cx="0" cy="0" r="1" gradientTransform="matrix(0 22 -22 0 12 1)" gradientUnits="userSpaceOnUse"><stop stop-color="#FD8C01"/><stop offset="1" stop-color="#C35200"/></radialGradient></defs></svg>