<svg xmlns="http://www.w3.org/2000/svg" xmlns:xlink="http://www.w3.org/1999/xlink" xml:space="preserve" width="24" height="24" fill="none"><defs><radialGradient id="a" cx="0" cy="0" r="1" gradientTransform="matrix(0 22 -22 0 12 1)" gradientUnits="userSpaceOnUse"><stop offset=".004" stop-color="#8FC8FF" style="stop-color:#faeb96;stop-opacity:1"/><stop offset=".992" stop-color="#0056A8" style="stop-color:#fedb60;stop-opacity:1"/></radialGradient><radialGradient id="b" cx="0" cy="0" r="1" gradientTransform="matrix(0 22 -22 0 12 1)" gradientUnits="userSpaceOnUse"><stop offset="0" stop-color="#8FC8FF" style="stop-color:#f6f6f6;stop-opacity:1"/><stop offset="1" stop-color="#0056A8" style="stop-color:#cfcfcf;stop-opacity:1"/></radialGradient><radialGradient xlink:href="#a" id="c" cx=".179" cy="-1.748" r="1" fx=".179" fy="-1.748" gradientTransform="matrix(0 90.05947 -90.00681 0 -107.37 -11.19)" gradientUnits="userSpaceOnUse"/></defs><path d="M50 5C9.09 5 5 25.455 5 50c0 32.727 12.273 45 45 45 32.727 0 45-12.273 45-45 0-24.545-4.09-45-45-45Z" style="font-variation-settings:normal;display:inline;opacity:1;vector-effect:none;fill:url(#c);fill-opacity:1;stroke-width:4.56656;stroke-linecap:butt;stroke-linejoin:miter;stroke-miterlimit:4;stroke-dasharray:none;stroke-dashoffset:0;stroke-opacity:1;-inkscape-stroke:none;stop-color:#000;stop-opacity:1" transform="matrix(.24444 0 0 .24444 -.222 -.222)"/><g style="display:inline"><rect width="2" height="2" x="12" y="-3" rx="0" ry="0" style="display:inline;fill:#3947be;fill-opacity:1;stroke-width:22.6872;paint-order:markers stroke fill"/><rect width="2" height="2" x="9" y="-3" rx="0" ry="0" style="display:inline;fill:#6c7ad8;fill-opacity:1;stroke-width:22.6873;paint-order:markers stroke fill"/><rect width="2" height="2" x="6" y="-3" rx="0" ry="0" style="display:inline;fill:#3c3;fill-opacity:1;stroke-width:22.6873;paint-order:markers stroke fill"/><rect width="2" height="2" x="3" y="-3" rx="0" ry="0" style="display:inline;fill:#ffc328;fill-opacity:1;stroke-width:22.6872;paint-order:markers stroke fill"/><rect width="2" height="2" y="-3" rx="0" ry="0" style="display:inline;fill:#cc5e55;fill-opacity:1;stroke-width:22.6873;paint-order:markers stroke fill"/><rect width="2" height="2" x="-3" y="12" rx="0" ry="0" style="display:inline;fill:#0bb1cb;fill-opacity:1;stroke-width:22.6872;paint-order:markers stroke fill"/><rect width="2" height="2" x="-3" y="9" rx="0" ry="0" style="display:inline;fill:#2a92c9;fill-opacity:1;stroke-width:22.6873;paint-order:markers stroke fill"/><rect width="2" height="2" x="-3" y="6" rx="0" ry="0" style="display:inline;fill:#069;fill-opacity:1;stroke-width:22.6873;paint-order:markers stroke fill"/><rect width="2" height="2" x="-3" y="3" rx="0" ry="0" style="display:inline;fill:#002a44;fill-opacity:1;stroke-width:22.6873;paint-order:markers stroke fill"/><rect width="2" height="2" x="-3" rx="0" ry="0" style="display:inline;fill:#2c2d3d;fill-opacity:1;stroke-width:22.6873;paint-order:markers stroke fill"/><rect width="2" height="2" x="-3" y="-3" rx="0" ry="0" style="display:inline;fill:#16171c;fill-opacity:1;stroke-width:22.6872;paint-order:markers stroke fill"/></g><path fill="#d11616" d="M8.319 1.569c-.48.006-.941.216-1.08.571-.04.112-.043.146-.015.31.06.34.275.765.53 1.04.173.187.289.265.455.309.138.036.232.024.383-.046.34-.16.744-.753.848-1.257.066-.308-.026-.52-.304-.703a1.455 1.455 0 0 0-.817-.224ZM6.84 2.632c-.034-.02-.59.06-.987.144-.927.196-1.585.47-1.954.813-.2.186-.264.304-.264.48 0 .175.064.293.264.48.593.553 2.036.95 3.73 1.028a12.428 12.428 0 0 0 2.626-.168c1.528-.273 2.57-.869 2.47-1.414-.096-.52-1.141-1.045-2.538-1.28l-.36-.061-.066.184c-.291.795-.83 1.34-1.362 1.378-.42.03-.832-.24-1.185-.77a3.177 3.177 0 0 1-.34-.726c-.008-.04-.024-.08-.036-.088zm6.296 1.375-.016.148c-.076.703-1.07 1.312-2.641 1.618-2.858.555-6.272-.016-7.086-1.187l-.08-.116-.02.128a20.57 20.57 0 0 0 .05 2.588c-.02.02-.511-.194-.647-.284-.46-.306-.671-.765-.751-1.629l-.03-.311-.448-.008-.45-.006.02.16c.154 1.404.656 2.747 1.407 3.768 1.163 1.579 3.017 2.598 5.147 2.833.368.04 1.123.046 1.435.012 1.17-.13 2.11-.56 2.807-1.284.848-.88 1.32-2.034 1.503-3.679.02-.194.032-.62.03-1.219-.004-1-.016-1.093-.158-1.386zm2.184.819a1.499 1.499 0 0 0-1.383.623c-.128.18-.271.474-.271.56 0 .14.15.284.295.284.136 0 .196-.056.318-.292a1.205 1.205 0 0 1 .498-.548c.591-.3 1.286.088 1.398.78.028.155.016.311-.102 1.428-.152 1.443-.132 1.37-.44 1.555-.397.24-1.018.363-2.031.401-.462.02-.466.02-.536.09-.106.106-.1.234.016.35l.088.088h.398c1.093 0 1.962-.186 2.467-.524a1.087 1.087 0 0 0 .446-.54c.034-.125.288-2.497.288-2.685a1.678 1.678 0 0 0-.178-.685 1.585 1.585 0 0 0-1.271-.885ZM5.018 5.8c.008 0 .188.352.403.78l.392.783-.384.773c-.211.423-.391.775-.4.779a10.458 10.458 0 0 1-.41-.77l-.396-.78.39-.784c.215-.43.399-.781.405-.781Zm6.845.014.4.795.396.793-.388.778a16.922 16.922 0 0 1-.4.775c-.008 0-.192-.352-.405-.783l-.392-.782.396-.789Zm-3.418.84c.024 0 1.174 1.87 1.168 1.895a52.67 52.67 0 0 1-.579.94 17.963 17.963 0 0 1-.59.915c-.02 0-1.152-1.799-1.168-1.855-.008-.03 1.143-1.898 1.169-1.896zm3.47 4.27-.14.117c-.763.635-1.742 1.001-2.93 1.095a8.162 8.162 0 0 1-2.722-.31 7.347 7.347 0 0 1-1.409-.547l-.304-.154-.171.08c-.386.174-.744.463-.852.691a.66.66 0 0 0-.016.506c.208.47 1.06.909 2.254 1.165.612.13 1.013.183 1.926.257.058.004.43.012.828.014.779.004 1.204-.02 1.876-.1 2.82-.35 4.112-1.426 2.777-2.313a3.677 3.677 0 0 0-.863-.412l-.254-.088z" style="stroke-width:1.99811" transform="matrix(.88878 0 0 .88878 5.096 5.232)"/></svg>