<?xml version="1.0" encoding="UTF-8" standalone="no"?>
<svg
   width="24"
   height="24"
   viewBox="0 0 24 24"
   fill="none"
   version="1.1"
   id="svg154"
   sodipodi:docname="geforce now.svg"
   inkscape:version="1.2.2 (b0a8486541, 2022-12-01)"
   xml:space="preserve"
   xmlns:inkscape="http://www.inkscape.org/namespaces/inkscape"
   xmlns:sodipodi="http://sodipodi.sourceforge.net/DTD/sodipodi-0.dtd"
   xmlns:xlink="http://www.w3.org/1999/xlink"
   xmlns="http://www.w3.org/2000/svg"
   xmlns:svg="http://www.w3.org/2000/svg"
   xmlns:sketch="http://www.bohemiancoding.com/sketch/ns"><sodipodi:namedview
     id="namedview156"
     pagecolor="#ffffff"
     bordercolor="#000000"
     borderopacity="1"
     inkscape:showpageshadow="0"
     inkscape:pageopacity="1"
     inkscape:pagecheckerboard="false"
     inkscape:deskcolor="#ffffff"
     showgrid="true"
     inkscape:zoom="32"
     inkscape:cx="9.609375"
     inkscape:cy="15.453125"
     inkscape:window-width="1920"
     inkscape:window-height="1052"
     inkscape:window-x="0"
     inkscape:window-y="0"
     inkscape:window-maximized="1"
     inkscape:current-layer="svg154"
     showguides="true"
     guidecolor="#ff0000"
     guideopacity="1"
     inkscape:lockguides="true"
     showborder="true"
     borderlayer="true"><inkscape:grid
       type="xygrid"
       id="grid356"
       color="#000000"
       opacity="0.10196078"
       empcolor="#000000"
       empopacity="0.10196078"
       snapvisiblegridlinesonly="true"
       enabled="true"
       visible="true"
       dotted="false"
       originx="0"
       originy="0"
       spacingy="1"
       spacingx="1"
       units="px" /><sodipodi:guide
       position="4,12"
       orientation="-1,0"
       id="guide764"
       inkscape:locked="true"
       inkscape:label="left-circle"
       inkscape:color="rgb(255,0,0)" /><sodipodi:guide
       position="5,12"
       orientation="-1,0"
       id="guide2218"
       inkscape:locked="true"
       inkscape:label="left-square"
       inkscape:color="rgb(255,0,0)" /><sodipodi:guide
       position="12,20"
       orientation="0,1"
       id="guide2220"
       inkscape:locked="true"
       inkscape:label="top-circle"
       inkscape:color="rgb(255,0,0)" /><sodipodi:guide
       position="12,5"
       orientation="0,1"
       id="guide2222"
       inkscape:locked="true"
       inkscape:label="bottom-square"
       inkscape:color="rgb(255,0,0)" /><sodipodi:guide
       position="12,4"
       orientation="0,1"
       id="guide2224"
       inkscape:locked="true"
       inkscape:label="bottom-circle"
       inkscape:color="rgb(255,0,0)" /><sodipodi:guide
       position="19,12"
       orientation="-1,0"
       id="guide2226"
       inkscape:locked="true"
       inkscape:label="right-square"
       inkscape:color="rgb(255,0,0)" /><sodipodi:guide
       position="20,12"
       orientation="-1,0"
       id="guide2228"
       inkscape:locked="true"
       inkscape:label="right-circle"
       inkscape:color="rgb(255,0,0)" /><sodipodi:guide
       position="12,19"
       orientation="0,1"
       id="guide2230"
       inkscape:locked="true"
       inkscape:label="top-square"
       inkscape:color="rgb(255,0,0)" /><sodipodi:guide
       position="12,12"
       orientation="1,0"
       id="guide765"
       inkscape:locked="true" /><sodipodi:guide
       position="12,12"
       orientation="0,-1"
       id="guide767"
       inkscape:locked="true" /><sodipodi:guide
       position="12,12"
       orientation="0.70710678,0.70710678"
       id="guide2266"
       inkscape:locked="true"
       inkscape:label=""
       inkscape:color="rgb(255,0,0)" /><sodipodi:guide
       position="12,12"
       orientation="-0.70710678,0.70710678"
       id="guide2994"
       inkscape:locked="true"
       inkscape:label=""
       inkscape:color="rgb(255,0,0)" /><sodipodi:guide
       position="3,12"
       orientation="-1,0"
       id="guide131543"
       inkscape:locked="true"
       inkscape:label="left-horizontal"
       inkscape:color="rgb(255,0,0)" /><sodipodi:guide
       position="12,21"
       orientation="0,1"
       id="guide131545"
       inkscape:locked="true"
       inkscape:label="top-vertical"
       inkscape:color="rgb(255,0,0)" /><sodipodi:guide
       position="21,12"
       orientation="-1,0"
       id="guide131547"
       inkscape:locked="true"
       inkscape:label="right-horizontal"
       inkscape:color="rgb(255,0,0)" /><sodipodi:guide
       position="12,3"
       orientation="0,1"
       id="guide131549"
       inkscape:locked="true"
       inkscape:label="bottom-vertical"
       inkscape:color="rgb(255,0,0)" /></sodipodi:namedview><defs
     id="defs152"><linearGradient
       inkscape:collect="always"
       id="linearGradient1042"><stop
         style="stop-color:#00aa00;stop-opacity:1"
         offset="0"
         id="stop1038" /><stop
         style="stop-color:#80ff80;stop-opacity:1"
         offset="1"
         id="stop1040" /></linearGradient><linearGradient
       inkscape:collect="always"
       xlink:href="#linearGradient1042"
       id="linearGradient1044"
       x1="52.940342"
       y1="95.511368"
       x2="51.661934"
       y2="-3.565341"
       gradientUnits="userSpaceOnUse"
       gradientTransform="matrix(0.24444444,0,0,0.24444444,-0.22222222,-0.22222222)" /></defs><path
     d="M 12,0.99999998 C 2,0.99999998 0.99999998,6 0.99999998,12 0.99999998,20 4.0000001,23 12,23 20,23 23,20 23,12 23,6 22,0.99999998 12,0.99999998 Z"
     sketch:type="MSShapeGroup"
     id="path6"
     style="font-variation-settings:normal;display:inline;opacity:1;vector-effect:none;fill:url(#linearGradient1044);fill-opacity:1;stroke-width:1.11627;stroke-linecap:butt;stroke-linejoin:miter;stroke-miterlimit:4;stroke-dasharray:none;stroke-dashoffset:0;stroke-opacity:1;-inkscape-stroke:none;stop-color:#000000;stop-opacity:1"
     sodipodi:nodetypes="sssss"
     inkscape:label="Shape"
     sodipodi:insensitive="true" /><g
     id="g962"
     transform="matrix(1.0044053,0,0,1.0044053,11.87852,2.080258)"
     style="fill:#ffffff"><path
       style="fill:#ffffff;stroke-width:0.0429688"
       d="m -5.0390625,9.2259642 c 0,-0.00892 0.033838,-0.04276 0.075195,-0.075195 0.068151,-0.053447 0.069671,-0.051928 0.016223,0.016223 -0.056133,0.071575 -0.091419,0.094337 -0.091419,0.058972 z M 1.0162789,8.7802734 0.91210938,8.6621094 1.0302734,8.7662789 c 0.1104422,0.097363 0.1378691,0.1321586 0.1041696,0.1321586 -0.0077,0 -0.06087,-0.053174 -0.1181641,-0.1181641 z m 1.41574,-0.085937 c -0.053448,-0.068151 -0.051928,-0.069671 0.016223,-0.016223 0.071575,0.056133 0.094337,0.091419 0.058972,0.091419 -0.00892,0 -0.04276,-0.033838 -0.075195,-0.075196 z m 1.546875,-0.085937 c -0.053448,-0.068151 -0.051928,-0.069671 0.016223,-0.016223 0.071575,0.056133 0.094337,0.091419 0.058972,0.091419 -0.00892,0 -0.04276,-0.033838 -0.075195,-0.075196 z M 1.9593627,8.2216797 c -0.053448,-0.068151 -0.051928,-0.069671 0.016223,-0.016223 0.041358,0.032435 0.075195,0.066273 0.075195,0.075195 0,0.035365 -0.035286,0.012603 -0.091418,-0.058972 z m 1.5898437,-0.042969 c -0.053448,-0.068151 -0.051928,-0.069671 0.016223,-0.016223 0.071575,0.056133 0.094337,0.091419 0.058972,0.091419 -0.00892,0 -0.04276,-0.033838 -0.075195,-0.075196 z"
       id="path976" /><path
       style="fill:#ffffff;stroke-width:0.0429688"
       d="m -5.7521293,12.15332 -0.081855,-0.09668 0.09668,0.08185 c 0.090855,0.07692 0.1162408,0.111504 0.081855,0.111504 -0.00815,0 -0.05166,-0.04351 -0.09668,-0.09668 z m -0.3437501,-0.34375 -0.081855,-0.09668 0.09668,0.08185 c 0.090855,0.07692 0.1162408,0.111504 0.081855,0.111504 -0.00815,0 -0.051659,-0.04351 -0.09668,-0.09668 z m 1.5898438,0 -0.081855,-0.09668 0.09668,0.08185 c 0.090855,0.07692 0.1162407,0.111504 0.081855,0.111504 -0.00815,0 -0.05166,-0.04351 -0.09668,-0.09668 z m -0.2578125,-0.257812 -0.081855,-0.09668 0.09668,0.08185 c 0.090855,0.07692 0.1162407,0.111505 0.081855,0.111505 -0.00815,0 -0.05166,-0.04351 -0.09668,-0.09668 z m 0.8826288,-0.365235 -0.1480776,-0.161132 0.1611328,0.148077 c 0.149979,0.137827 0.1808895,0.174188 0.1480777,0.174188 -0.00718,0 -0.07969,-0.07251 -0.1611329,-0.161133 z m 1.0079962,-0.365234 -0.081855,-0.09668 0.09668,0.08186 c 0.090855,0.07692 0.1162407,0.111505 0.081855,0.111505 -0.00815,0 -0.05166,-0.04351 -0.09668,-0.09668 z m 4.5372856,-0.655273 c 0.055505,-0.05908 0.1105857,-0.107422 0.1224021,-0.107422 0.011816,0 -0.023929,0.04834 -0.079433,0.107422 -0.055505,0.05908 -0.1105856,0.107422 -0.122402,0.107422 -0.011816,0 0.023928,-0.04834 0.079433,-0.107422 z m 0.34375,-0.3437504 c 0.055505,-0.059082 0.1105857,-0.1074218 0.1224021,-0.1074218 0.011816,0 -0.023928,0.04834 -0.079433,0.1074218 -0.055505,0.059082 -0.1105857,0.1074219 -0.1224021,0.1074219 -0.011816,0 0.023928,-0.04834 0.079433,-0.1074219 z M 3.6835938,9.6503906 C 3.763764,9.5676758 3.8390259,9.5 3.8508423,9.5 c 0.011816,0 -0.04411,0.067676 -0.1242798,0.1503906 -0.08017,0.082715 -0.1554321,0.1503907 -0.1672486,0.1503907 -0.011816,0 0.04411,-0.067676 0.1242799,-0.1503907 z M -3.7070313,9.4006171 c 0,-0.00739 0.062842,-0.070237 0.1396485,-0.1396484 l 0.1396484,-0.1262031 -0.1262031,0.1396485 c -0.1176389,0.1301721 -0.1530938,0.159399 -0.1530938,0.126203 z M -5.7695312,8.6244017 c 0,-0.00892 0.033838,-0.04276 0.075195,-0.075195 0.068151,-0.053447 0.069671,-0.051928 0.016223,0.016223 -0.056133,0.071575 -0.091419,0.094337 -0.091419,0.058972 z M 2.1991502,8.4580078 2.0292969,8.2753906 2.2119141,8.4452439 c 0.1698322,0.1579618 0.2023626,0.1953811 0.1698533,0.1953811 -0.00702,0 -0.089198,-0.082178 -0.1826172,-0.1826172 z m 1.22115,-0.4082031 c -0.053448,-0.068151 -0.051928,-0.069671 0.016223,-0.016223 0.071575,0.056133 0.094337,0.091419 0.058972,0.091419 -0.00892,0 -0.04276,-0.033838 -0.075195,-0.075196 z"
       id="path974" /><path
       style="fill:#ffffff;stroke-width:0.0429688"
       d="m 3.0818602,15.139739 4.9842066,-0.01119 0.011168,-5.2634937 0.011168,-5.2634939 -2.579e-4,5.2744153 -2.535e-4,5.2744153 -4.9951185,2.57e-4 -4.995118,2.58e-4 4.9842061,-0.01119 z m -4.7801024,-1.242415 c 0.029541,-0.01192 0.077881,-0.01192 0.1074219,0 0.029541,0.01192 0.00537,0.02167 -0.053711,0.02167 -0.059082,0 -0.083252,-0.0098 -0.053711,-0.02167 z m 0.81640626,0 c 0.029541,-0.01192 0.0778809,-0.01192 0.10742188,0 0.029541,0.01192 0.005371,0.02167 -0.0537109,0.02167 -0.059082,0 -0.0832519,-0.0098 -0.053711,-0.02167 z m -1.00501756,-0.40123 c 0,-0.224512 0.00724,-0.316358 0.016093,-0.204102 0.00885,0.112256 0.00885,0.295947 0,0.408203 -0.00885,0.112256 -0.016093,0.02041 -0.016093,-0.204101 z m 0.3398196,-0.373527 c 0.041807,-0.01089 0.099815,-0.01018 0.1289063,0.0016 0.029091,0.01177 -0.00511,0.02068 -0.076013,0.01981 -0.070898,-8.76e-4 -0.094701,-0.01051 -0.052893,-0.0214 z m 0.4508552,-6.15e-4 c 0.053449,-0.01028 0.13079304,-0.0099 0.17187503,8.68e-4 0.041082,0.01075 -0.002651,0.01916 -0.0971807,0.01869 -0.094531,-4.76e-4 -0.1281435,-0.0093 -0.074694,-0.01955 z m -0.7909129,-1.280155 c -1.289e-4,-0.212695 0.00713,-0.305125 0.016146,-0.205398 0.00901,0.09973 0.00912,0.27375 2.578e-4,0.386719 -0.00888,0.112968 -0.016254,0.03137 -0.016384,-0.181321 z m 0.92200371,-0.265681 c 0.0310178,-0.01241 0.0680784,-0.01089 0.0823569,0.0034 0.0142781,0.01428 -0.0111005,0.02443 -0.0563965,0.02257 -0.0500565,-0.0021 -0.0602379,-0.01224 -0.0259604,-0.02596 z M -2.1494141,8.5680366 c 0.041358,-0.010807 0.1090332,-0.010807 0.1503907,0 0.041357,0.010808 0.00752,0.019651 -0.075195,0.019651 -0.082715,0 -0.1165527,-0.00884 -0.075196,-0.019651 z M -1.895467,8.181247 c -0.00378,-0.2172088 0.00763,-0.4039488 0.02535,-0.4149781 0.017725,-0.011029 0.02689,0.1086796 0.020369,0.2660191 -0.02066,0.4984225 -0.038615,0.5569223 -0.045718,0.148959 z m -0.05092,-1.3735971 c 0.024823,-0.012311 0.044043,-0.1785614 0.044043,-0.3809605 0,-0.1975145 0.014502,-0.368143 0.032227,-0.3791739 0.017725,-0.011031 0.022559,0.1554876 0.010742,0.3700409 -0.014749,0.2677993 -0.03866,0.3935211 -0.076269,0.4010166 -0.030132,0.00601 -0.034966,0.00109 -0.010742,-0.010923 z m 0.1845091,-0.044458 c 0.041807,-0.010894 0.099815,-0.010178 0.1289062,0.00159 0.029091,0.01177 -0.00511,0.020684 -0.076013,0.019808 -0.070898,-8.765e-4 -0.0947,-0.010506 -0.052893,-0.0214 z m 0.4503542,0.00132 c 0.029541,-0.01192 0.077881,-0.01192 0.1074218,0 0.029541,0.01192 0.00537,0.021673 -0.053711,0.021673 -0.059082,0 -0.083252,-0.00975 -0.053711,-0.021673 z m 0.34643551,-0.7313638 c 0.0310178,-0.012412 0.0680784,-0.010886 0.0823569,0.00339 0.0142781,0.014278 -0.0111005,0.024434 -0.0563965,0.022568 -0.0500565,-0.00206 -0.0602379,-0.012244 -0.0259604,-0.02596 z"
       id="path972" /><path
       style="fill:#ffffff;stroke-width:0.0429688"
       d="m -5.9468873,11.959961 c -0.053447,-0.06815 -0.051928,-0.06967 0.016223,-0.01622 0.041358,0.03243 0.075195,0.06627 0.075195,0.0752 0,0.03536 -0.035286,0.0126 -0.091419,-0.05897 z M 3.4257813,9.9082031 c 0.055505,-0.059082 0.1105856,-0.1074218 0.122402,-0.1074218 0.011816,0 -0.023928,0.04834 -0.079433,0.1074218 -0.055505,0.059082 -0.1105857,0.1074219 -0.1224021,0.1074219 -0.011816,0 0.023928,-0.04834 0.079433,-0.1074219 z m 0.515625,-0.515625 c 0.055505,-0.059082 0.1105856,-0.1074218 0.122402,-0.1074218 0.011816,0 -0.023928,0.04834 -0.079433,0.1074218 C 3.9288701,9.4516602 3.8737893,9.5 3.8619729,9.5 3.8501569,9.5 3.8859009,9.45166 3.9414063,9.3925781 Z M -5.5976562,8.4525267 c 0,-0.00892 0.033838,-0.04276 0.075195,-0.075195 0.068151,-0.053447 0.069671,-0.051928 0.016223,0.016223 -0.056133,0.071575 -0.091419,0.094337 -0.091419,0.058972 z"
       id="path970" /><path
       style="fill:#ffffff;stroke-width:0.0429688"
       d="m -1.8244629,13.896429 c 0.031018,-0.01241 0.068078,-0.01089 0.082357,0.0034 0.014278,0.01428 -0.0111,0.02443 -0.056396,0.02257 -0.050056,-0.0021 -0.060238,-0.01224 -0.02596,-0.02596 z m 1.16015626,0 c 0.0310178,-0.01241 0.0680784,-0.01089 0.0823569,0.0034 0.0142781,0.01428 -0.0111005,0.02443 -0.0563965,0.02257 -0.0500565,-0.0021 -0.0602379,-0.01224 -0.0259604,-0.02596 z M -1.3321901,13.122567 c 0.041807,-0.01089 0.099815,-0.01018 0.1289062,0.0016 0.029091,0.01177 -0.00511,0.02068 -0.076013,0.01981 -0.070898,-8.76e-4 -0.0947,-0.01051 -0.052893,-0.0214 z m 0.1280885,-1.546718 c 0.041357,-0.01081 0.1090332,-0.01081 0.1503907,0 0.041357,0.01081 0.00752,0.01965 -0.075195,0.01965 -0.082715,0 -0.1165528,-0.0088 -0.075196,-0.01965 z M -1.5470339,6.7631918 c 0.041807,-0.010894 0.099815,-0.010178 0.1289063,0.00159 0.029091,0.01177 -0.00511,0.020684 -0.076013,0.019808 -0.070898,-8.765e-4 -0.094701,-0.010506 -0.052893,-0.0214 z"
       id="path968" /><path
       style="fill:#ffffff;stroke-width:0.0429688"
       d="m -1.8674316,13.080023 c 0.031018,-0.01241 0.068078,-0.01089 0.082357,0.0034 0.014278,0.01428 -0.011101,0.02443 -0.056396,0.02257 -0.050056,-0.0021 -0.060238,-0.01224 -0.02596,-0.02596 z m 1.20312496,0 c 0.0310178,-0.01241 0.0680784,-0.01089 0.0823569,0.0034 0.0142781,0.01428 -0.0111005,0.02443 -0.0563965,0.02257 -0.0500565,-0.0021 -0.0602379,-0.01224 -0.0259604,-0.02596 z M -1.2900391,12.262192 c 0.06499,-0.0098 0.1713379,-0.0098 0.2363282,0 0.0649902,0.0098 0.011816,0.0179 -0.1181641,0.0179 -0.1299805,0 -0.1831543,-0.0081 -0.1181641,-0.0179 z m 4.5009766,-2.133884 c 0,-0.0089 0.033838,-0.04276 0.075195,-0.0752 0.068151,-0.053448 0.069671,-0.05193 0.016223,0.01622 -0.056133,0.07157 -0.091419,0.09434 -0.091419,0.05897 z m 0.859375,-0.859375 c 0,-0.00892 0.033838,-0.04276 0.075195,-0.075195 0.068151,-0.053448 0.069671,-0.051928 0.016223,0.016223 -0.056133,0.071575 -0.091419,0.094337 -0.091419,0.058972 z M -4.9101562,9.1400267 c 0,-0.00892 0.033838,-0.04276 0.075195,-0.075195 0.068151,-0.053447 0.069671,-0.051928 0.016223,0.016223 -0.056133,0.071575 -0.091419,0.094337 -0.091419,0.058972 z M 3.7889939,8.3720703 3.6191406,8.1894531 3.8017578,8.3593064 c 0.1698323,0.1579618 0.2023626,0.1953811 0.1698533,0.1953811 -0.00702,0 -0.089198,-0.082178 -0.1826172,-0.1826172 z M -1.5263672,7.7071977 c 0.076807,-0.00953 0.2024902,-0.00953 0.2792969,0 0.076807,0.00953 0.013965,0.01733 -0.1396484,0.01733 -0.1536133,0 -0.2164551,-0.0078 -0.1396485,-0.01733 z M -2.0393066,6.0331476 c 0.031018,-0.012412 0.068078,-0.010886 0.082357,0.00339 0.014278,0.014278 -0.011101,0.024434 -0.056396,0.022568 -0.050057,-0.00206 -0.060238,-0.012243 -0.02596,-0.02596 z m 0.5782102,-0.043393 c 0.041807,-0.010894 0.099815,-0.010178 0.1289063,0.00159 0.029091,0.01177 -0.00511,0.020684 -0.076013,0.019808 -0.070898,-8.765e-4 -0.094701,-0.010506 -0.052893,-0.0214 z"
       id="path966" /><path
       style="fill:#ffffff;stroke-width:0.0429688"
       d="M -1.9023437,14.510078 V 13.89125 L -2.1708984,13.86103 C -2.5906975,13.81379 -3.3552487,13.603423 -3.7929486,13.41472 -4.5790249,13.075824 -5.2208693,12.63001 -5.9004214,11.950904 -6.6131753,11.238619 -7.2338496,10.335293 -7.6535254,9.399445 L -7.8465086,8.9691061 -7.6996215,8.8429773 C -6.1192081,7.485909 -4.40314,6.5408788 -2.890625,6.1946856 c 0.2245117,-0.051387 0.5338867,-0.1069853 0.6875,-0.1235506 l 0.2792969,-0.030119 0.011781,-0.7197265 0.011781,-0.7197266 H 3.0830699 8.066406 V 9.8652348 15.128906 H 3.082031 -1.902344 Z m 1.8059705,-0.65015 c 1.850597,-0.227441 4.3004779,-0.979403 5.738278,-1.761298 0.4184551,-0.227562 1.0918832,-0.666333 1.1713918,-0.763221 0.050464,-0.06149 0.029598,-0.08776 -0.171875,-0.216375 C 6.5152997,11.038522 6.1607422,10.832196 5.8535156,10.660532 5.5462891,10.488868 5.2445393,10.31288 5.1829604,10.269448 l -0.111962,-0.07897 -0.2962412,0.249157 c -1.7619675,1.481925 -3.1706043,2.245947 -4.68427177,2.540675 -0.4932907,0.09605 -1.56837223,0.161828 -1.83312813,0.112159 l -0.1567315,-0.0294 -0.012227,-0.432991 -0.012227,-0.432991 -0.3118363,-0.0791 C -3.2249795,11.867021 -4.1222997,11.092021 -4.6698436,10.015625 -4.7960704,9.7674805 -4.922838,9.4912657 -4.9515493,9.4018147 -5.0033327,9.2404829 -5.0022538,9.2378043 -4.8173059,9.0685499 -4.1636296,8.4703403 -3.1166729,7.9552915 -2.2609064,7.8109332 l 0.3370783,-0.056861 0.012149,-0.4805518 0.012149,-0.4805518 h 0.3607179 c 0.75838214,0 1.41344374,0.1569653 2.1065155,0.5047608 0.6950552,0.3487911 1.4059061,0.8936925 1.8975932,1.4545958 L 2.6950457,9.0144162 2.4318294,9.3324034 C 1.4659959,10.49921 0.34421203,11.307741 -0.5819957,11.504632 c -0.30310758,0.06443 -0.9078755,0.05931 -1.202184,-0.01019 l -0.118164,-0.0279 v 0.367348 c 0,0.447029 -0.026246,0.431643 0.7304687,0.428224 0.43021172,-0.0019 0.61907914,-0.02392 0.94896871,-0.110421 C 0.76707137,11.892112 1.6172502,11.436935 2.6704667,10.602612 3.1726738,10.20478 4.328125,9.0702042 4.328125,8.9749017 4.328125,8.8879342 3.5312463,8.0857094 3.1031134,7.7416719 2.0911371,6.928472 0.91966844,6.3514919 -0.16988543,6.1296309 -0.61018105,6.0399758 -1.3306716,5.9815379 -1.6552734,6.0091534 l -0.2470703,0.02102 V 6.40662 6.7830666 l -0.2470704,0.028921 c -0.1358886,0.015906 -0.4415967,0.074885 -0.6793518,0.1310645 -1.1080446,0.2618207 -2.0337943,0.788019 -2.8920637,1.6438559 -0.5750235,0.573394 -0.5624678,0.4929053 -0.1958314,1.255372 0.6047547,1.257663 1.5096637,2.2508 2.5334633,2.780473 0.3802494,0.196726 0.9273829,0.381304 1.2617576,0.425661 l 0.2190964,0.02906 v 0.395505 c 0,0.217529 0.012891,0.408397 0.028646,0.424152 0.053679,0.05368 1.23986202,0.02885 1.7773246,-0.03721 z M -1.9023437,9.9941406 V 8.5546875 l -0.225586,9.066e-4 c -0.4327129,0.00174 -1.0743567,0.3134786 -1.4473181,0.7031733 l -0.1475139,0.1541319 0.1189569,0.2906209 c 0.1647086,0.4023968 0.5344951,0.9443118 0.832296,1.2197158 0.2359827,0.218235 0.6979436,0.506708 0.8154541,0.509213 0.041922,8.94e-4 0.053711,-0.31478 0.053711,-1.4383084 z M 0.64571687,9.5486346 1.2816686,9.0129406 1.05392,8.7800311 C 0.79921629,8.519555 0.40838543,8.2277817 0.11801164,8.0813321 -0.40671027,7.8166898 -1.1376113,7.6632256 -1.6248064,7.7153995 l -0.2805628,0.030046 0.012255,0.4120579 0.012255,0.4120578 0.2460967,0.055799 c 0.5593706,0.12683 0.86307586,0.3856806 1.30019868,1.1081718 0.15283941,0.2526176 0.26620086,0.39818 0.29601386,0.3801 0.0265736,-0.01612 0.33449411,-0.2703655 0.68426683,-0.5649974 z"
       id="path964" /></g></svg>
