<svg xmlns="http://www.w3.org/2000/svg" width="24" height="24" fill="none"><path fill="url(#a)" fill-rule="evenodd" d="M9.596 1.114c.12 0 .234-.014.344-.046a31.627 31.627 0 0 1 4.307.011c1.301.102 2.561.384 3.78.848 2.025.833 3.412 2.28 4.158 4.339.427 1.24.679 2.514.756 3.824a27.94 27.94 0 0 1-.114 4.923 11.876 11.876 0 0 1-.894 3.32c-.85 1.843-2.229 3.114-4.135 3.813a15.624 15.624 0 0 1-4.765.825 21.423 21.423 0 0 1-5.453-.413c-3.312-.737-5.354-2.756-6.128-6.056a19.047 19.047 0 0 1-.447-4.511 18.491 18.491 0 0 1 .515-4.786c.812-3.086 2.77-4.998 5.877-5.736a13.954 13.954 0 0 1 2.199-.355Z" clip-rule="evenodd"/><path fill="#666" d="M9.532 5.904c-3.98 1.447-6.167 5.315-4.873 8.622 1.295 3.307 5.588 4.82 9.565 3.372 3.976-1.447 6.166-5.318 4.87-8.628-1.295-3.307-5.588-4.817-9.565-3.37m.448 1.137c3.24-1.18 6.702.039 7.755 2.729 1.052 2.687-.71 5.81-3.953 6.99-3.242 1.18-6.705-.04-7.756-2.732-1.053-2.687.711-5.807 3.954-6.987"/><path fill="#99F" d="M12.73 6.039a1.54 1.54 0 0 1-1.538 1.538A1.54 1.54 0 0 1 9.654 6.04c0-.85.69-1.539 1.538-1.539.849 0 1.539.69 1.539 1.539Zm6.77 2.46a1.54 1.54 0 0 1-1.539 1.54 1.54 1.54 0 0 1-1.538-1.54c0-.848.69-1.538 1.538-1.538.85 0 1.539.69 1.539 1.539Zm-1.23 6.77a1.54 1.54 0 0 1-1.54 1.539 1.54 1.54 0 0 1-1.538-1.539 1.54 1.54 0 0 1 3.077 0Zm-8 2.462a1.54 1.54 0 0 1-1.54 1.538 1.54 1.54 0 0 1-1.538-1.538 1.54 1.54 0 0 1 3.077 0Zm-3.693-6.154a1.54 1.54 0 0 1-1.538 1.538A1.54 1.54 0 0 1 3.5 11.577a1.54 1.54 0 0 1 3.077 0Z"/><defs><radialGradient id="a" cx="0" cy="0" r="1" gradientTransform="matrix(0 22 -22 0 12 1)" gradientUnits="userSpaceOnUse"><stop stop-color="#F9F9F9"/><stop offset="1" stop-color="#CCC"/></radialGradient></defs></svg>