<svg xmlns="http://www.w3.org/2000/svg" width="24" height="24" fill="none"><path fill="url(#a)" fill-rule="evenodd" d="M9.623 1.362c.119.002.232-.014.34-.045 1.42-.093 2.839-.09 4.258.011 1.287.1 2.533.38 3.737.838 2.003.824 3.373 2.254 4.111 4.29.422 1.226.672 2.486.748 3.78a27.623 27.623 0 0 1-.114 4.868 11.743 11.743 0 0 1-.883 3.283c-.84 1.821-2.204 3.078-4.088 3.769a15.446 15.446 0 0 1-4.711.815 21.18 21.18 0 0 1-5.39-.407c-3.275-.73-5.294-2.726-6.06-5.988a18.829 18.829 0 0 1-.441-4.46c-.036-1.6.133-3.177.51-4.732.802-3.05 2.738-4.94 5.809-5.67.716-.176 1.44-.293 2.174-.352Z" clip-rule="evenodd"/><path fill="url(#b)" fill-rule="evenodd" d="M15.23 22.78v-3.368c0-.77-.352-1.361-.896-1.741 3.118-.484 5.415-2.06 5.415-5.32 0-1.595-.46-2.873-1.238-3.861.313-1.12.278-2.255-.052-3.403-1.13 0-2.4.613-3.206 1.271-.996-.309-2.096-.465-3.254-.465-1.16 0-2.257.158-3.245.47-.808-.661-2.078-1.277-3.21-1.277-.336 1.169-.372 2.324-.041 3.461-.737.982-1.17 2.239-1.17 3.802 0 3.26 2.241 4.835 5.335 5.319-.545.38-.896.973-.896 1.744 0 0-.32.201-1.134.201-.86 0-1.3-.208-2.094-1.21-.444-.562-1.152-1.235-1.824-1.32a1.009 1.009 0 0 0-.284.002.925.925 0 0 0-.314.108c-.203.112-.028.251.288.502.44.348 1.151.912 1.494 1.918.441 1.298 1.865 1.615 3.06 1.615h.807v1.541a21.61 21.61 0 0 1-1.191-.21c-3.312-.738-5.354-2.757-6.128-6.057a19.046 19.046 0 0 1-.447-4.511 18.491 18.491 0 0 1 .515-4.786c.812-3.086 2.77-4.998 5.877-5.736a13.953 13.953 0 0 1 2.199-.355c.12 0 .234-.014.344-.046a31.627 31.627 0 0 1 4.307.011c1.301.102 2.561.384 3.78.848 2.025.833 3.412 2.28 4.158 4.339.427 1.24.679 2.514.756 3.824a27.931 27.931 0 0 1-.114 4.923 11.88 11.88 0 0 1-.894 3.32c-.85 1.843-2.229 3.114-4.135 3.813-.843.285-1.7.496-2.569.634Z" clip-rule="evenodd"/><defs><radialGradient id="a" cx="0" cy="0" r="1" gradientTransform="matrix(0 21.75 -21.75 0 12 1.25)" gradientUnits="userSpaceOnUse"><stop stop-color="#FAFAFA"/><stop offset="1" stop-color="silver"/></radialGradient><linearGradient id="b" x1="12" x2="12" y1="1" y2="12" gradientUnits="userSpaceOnUse"><stop stop-color="#777"/><stop offset="1" stop-color="#444"/></linearGradient></defs></svg>