<svg xmlns="http://www.w3.org/2000/svg" xml:space="preserve" width="24" height="24" fill="none"><defs><radialGradient id="a" cx="0" cy="0" r="1" gradientTransform="matrix(0 22 -22 0 12 1)" gradientUnits="userSpaceOnUse"><stop offset="0" stop-color="#8FC8FF" style="stop-color:#f6f6f6;stop-opacity:1"/><stop offset="1" stop-color="#0056A8" style="stop-color:#cfcfcf;stop-opacity:1"/></radialGradient><radialGradient id="b" cx=".179" cy="-1.748" r="1" fx=".179" fy="-1.748" gradientTransform="matrix(0 16.5109 -16.50125 0 -19.851 -2.218)" gradientUnits="userSpaceOnUse" spreadMethod="pad"><stop offset="0" style="stop-opacity:1;stop-color:#414352"/><stop offset=".004" style="stop-opacity:1;stop-color:#414352"/><stop offset=".992" style="stop-opacity:1;stop-color:#2c2f3f"/><stop offset="1" style="stop-opacity:1;stop-color:#2c2f3f"/></radialGradient></defs><path d="M9 .75C1.5.75.75 4.5.75 9 .75 15 3 17.25 9 17.25S17.25 15 17.25 9C17.25 4.5 16.5.75 9 .75Z" style="fill:url(#b);stroke:none" transform="scale(1.33333)"/><g style="display:inline"><rect width="2" height="2" x="12" y="-3" rx="0" ry="0" style="display:inline;fill:#3947be;fill-opacity:1;stroke-width:22.6872;paint-order:markers stroke fill"/><rect width="2" height="2" x="9" y="-3" rx="0" ry="0" style="display:inline;fill:#6c7ad8;fill-opacity:1;stroke-width:22.6873;paint-order:markers stroke fill"/><rect width="2" height="2" x="6" y="-3" rx="0" ry="0" style="display:inline;fill:#3c3;fill-opacity:1;stroke-width:22.6873;paint-order:markers stroke fill"/><rect width="2" height="2" x="3" y="-3" rx="0" ry="0" style="display:inline;fill:#ffc328;fill-opacity:1;stroke-width:22.6872;paint-order:markers stroke fill"/><rect width="2" height="2" y="-3" rx="0" ry="0" style="display:inline;fill:#cc5e55;fill-opacity:1;stroke-width:22.6873;paint-order:markers stroke fill"/><rect width="2" height="2" x="-3" y="12" rx="0" ry="0" style="display:inline;fill:#0bb1cb;fill-opacity:1;stroke-width:22.6872;paint-order:markers stroke fill"/><rect width="2" height="2" x="-3" y="9" rx="0" ry="0" style="display:inline;fill:#2a92c9;fill-opacity:1;stroke-width:22.6873;paint-order:markers stroke fill"/><rect width="2" height="2" x="-3" y="6" rx="0" ry="0" style="display:inline;fill:#069;fill-opacity:1;stroke-width:22.6873;paint-order:markers stroke fill"/><rect width="2" height="2" x="-3" y="3" rx="0" ry="0" style="display:inline;fill:#002a44;fill-opacity:1;stroke-width:22.6873;paint-order:markers stroke fill"/><rect width="2" height="2" x="-3" rx="0" ry="0" style="display:inline;fill:#2c2d3d;fill-opacity:1;stroke-width:22.6873;paint-order:markers stroke fill"/><rect width="2" height="2" x="-3" y="-3" rx="0" ry="0" style="display:inline;fill:#16171c;fill-opacity:1;stroke-width:22.6872;paint-order:markers stroke fill"/></g><path fill="#149287" d="M9.07 5.875a.233.233 0 0 0-.103.033A6.066 6.066 0 0 0 10.3 16.984a.233.233 0 0 0 .3-.223v-2.148a3.733 3.733 0 0 0 .466.159v2.825c-1.071-.156-2.097-.547-2.968-1.195a6.53 6.53 0 0 1-2.237-7.474.233.233 0 0 0-.233-.317.233.233 0 0 0-.206.157 7 7 0 0 0 5.854 9.355.233.233 0 0 0 .257-.232v-3.03a3.733 3.733 0 0 0 .467.033 3.733 3.733 0 0 0 .467-.033v3.03a.233.233 0 0 0 .258.233 6.998 6.998 0 0 0 5.852-9.356.233.233 0 0 0-.236-.156.233.233 0 0 0-.203.316 6.53 6.53 0 0 1-2.237 7.474c-.87.648-1.895 1.04-2.967 1.195v-2.829a3.733 3.733 0 0 0 .468-.153v2.146a.233.233 0 0 0 .298.223 6.067 6.067 0 0 0 4.16-4.252 6.068 6.068 0 0 0-2.827-6.824.233.233 0 0 0-.134-.033.233.233 0 0 0-.099.437 5.598 5.598 0 0 1 2.609 6.299c-.477 1.782-1.816 3.179-3.54 3.795v-2.003a1.167 1.167 0 0 0 .93-1.142 1.167 1.167 0 0 0-.721-1.077c.39-1.852 1.188-1.21 1.188-1.916v-.256c0-.663-2.003-3.983-3.266-3.983s-3.266 3.32-3.266 3.983v.257c0 .704.797.062 1.188 1.914a1.167 1.167 0 0 0-.722 1.078 1.167 1.167 0 0 0 .932 1.141v2.004c-1.725-.616-3.063-2.012-3.541-3.795A5.598 5.598 0 0 1 9.2 6.312a.233.233 0 0 0-.13-.437Zm1.297 6.686a.7.7 0 0 1 .7.7.7.7 0 0 1-.7.7.7.7 0 0 1-.7-.7.7.7 0 0 1 .7-.7Zm3.266 0a.7.7 0 0 1 .7.7.7.7 0 0 1-.7.7.7.7 0 0 1-.7-.7.7.7 0 0 1 .7-.7Z"/></svg>