<svg xmlns="http://www.w3.org/2000/svg" width="24" height="24" fill="none"><path fill="url(#a)" fill-rule="evenodd" d="M9.596 1.114c.12 0 .234-.014.344-.046a31.627 31.627 0 0 1 4.307.011c1.301.102 2.561.384 3.78.848 2.025.833 3.412 2.28 4.158 4.339.427 1.24.679 2.514.756 3.824a27.94 27.94 0 0 1-.114 4.923 11.876 11.876 0 0 1-.894 3.32c-.85 1.843-2.229 3.114-4.135 3.813a15.624 15.624 0 0 1-4.765.825 21.423 21.423 0 0 1-5.453-.413c-3.312-.737-5.354-2.756-6.128-6.056a19.047 19.047 0 0 1-.447-4.511 18.491 18.491 0 0 1 .515-4.786c.812-3.086 2.77-4.998 5.877-5.736a13.954 13.954 0 0 1 2.199-.355Z" clip-rule="evenodd"/><path fill="#fff" d="M5.91 4C4.85 4 4 4.851 4 5.91v5.726c0 1.058.851 1.91 1.91 1.91h10.18c1.058 0 1.91-.852 1.91-1.91V5.91C18 4.851 17.148 4 16.09 4H5.91Zm0 .636h10.18c.706 0 1.274.568 1.275 1.273H4.638v-.023a1.27 1.27 0 0 1 1.271-1.25Zm-1.272 1.91h12.726v5.102a1.27 1.27 0 0 1-1.273 1.261H5.909a1.27 1.27 0 0 1-1.271-1.25V6.546Zm2.227.636a.955.955 0 1 0 0 1.909.955.955 0 0 0 0-1.91Zm0 .636a.318.318 0 1 1 0 .636.318.318 0 0 1 0-.636Zm1.59 0v.637h7.637v-.637H8.456Zm-1.59 2.546a.955.955 0 1 0 0 1.909.955.955 0 0 0 0-1.91Zm0 .636a.318.318 0 1 1 0 .636.318.318 0 0 1 0-.636Zm1.59 0v.636h7.637V11H8.456Z" opacity=".35"/><path fill="#F9F9F9" fill-rule="evenodd" d="M11.897 23c-1.45 0-2.89-.148-4.317-.442a10.003 10.003 0 0 1-1.424-.425l16.745-12.56a28.06 28.06 0 0 1 .099 2.32v.023c0 1.034-.058 2.066-.174 3.097a11.876 11.876 0 0 1-.893 3.32c-.85 1.843-2.229 3.114-4.135 3.813a15.624 15.624 0 0 1-4.765.825c-.374.02-.746.029-1.118.029h-.018Zm3.603-3.375H20V16.25l-4.5 3.375Z" clip-rule="evenodd" opacity=".5"/><defs><radialGradient id="a" cx="0" cy="0" r="1" gradientTransform="matrix(0 22 -22 0 12 1)" gradientUnits="userSpaceOnUse"><stop stop-color="#C6E6A8"/><stop offset="1" stop-color="#90D056"/></radialGradient></defs></svg>