<svg xmlns="http://www.w3.org/2000/svg" width="24" height="24" viewBox="0 0 6.35 6.35"><defs><radialGradient id="a" cx="0" cy="0" r="1" fx="0" fy="0" gradientTransform="rotate(90 1.455 1.72) scale(5.82072)" gradientUnits="userSpaceOnUse" spreadMethod="pad"><stop offset="0" style="stop-color:#e6dae6;stop-opacity:1"/><stop offset="1" style="stop-color:#ac8fac;stop-opacity:1"/></radialGradient></defs><path d="M2.538.295A.334.334 0 0 0 2.63.283a8.42 8.42 0 0 1 1.14.002 3.62 3.62 0 0 1 1 .225c.536.22.903.603 1.101 1.148.112.328.18.665.2 1.011.028.436.018.87-.03 1.304a3.166 3.166 0 0 1-.237.878c-.225.487-.59.824-1.094 1.008a4.125 4.125 0 0 1-1.261.218 5.642 5.642 0 0 1-1.443-.109C1.13 5.774.588 5.24.385 4.366a5.025 5.025 0 0 1-.12-1.194c-.009-.427.036-.85.137-1.266C.617 1.09 1.135.584 1.957.389c.191-.047.386-.079.581-.094Z" style="fill:url(#a);fill-rule:evenodd;stroke:none;stroke-width:.352683;stroke-dasharray:none"/><g style="stroke-width:.846199" transform="matrix(1.18175 0 0 1.18175 -.577 -.578)"><rect width="3.358" height="3.358" x="1.496" y="1.496" fill="#fff" paint-order="markers stroke fill" rx=".305" ry=".305" style="stroke-width:.846199"/><path d="M3.696 1.496v1.062H2.577V1.496Zm1.157 1.149v1.062h-1.12V2.645ZM3.696 3.786v1.062H2.577V3.786ZM2.615 2.641v1.062h-1.12V2.641Z" opacity=".05" paint-order="markers stroke fill" style="stroke-width:.846199"/><path fill="#e6dae6" d="M2.488 1.496h.152v3.359h-.152Zm1.221 0h.153v3.359h-.153Z" paint-order="markers stroke fill" style="stroke-width:.846199"/><path fill="#e6dae6" d="M4.854 2.489v.152H1.496V2.49Zm0 1.22v.153H1.496V3.71Z" paint-order="markers stroke fill" style="stroke-width:.846199"/><path fill="#666" d="M1.95 2.336c.115 0 .221-.084.221-.232 0-.148-.09-.215-.203-.215a.196.196 0 0 0-.1.027l.016-.195h.255v-.073h-.328l-.022.317.045.027a.184.184 0 0 1 .113-.04c.084 0 .14.058.14.154 0 .1-.065.16-.144.16a.222.222 0 0 1-.166-.075l-.041.055c.045.046.11.09.214.09z" aria-label="5"/><rect width="1.221" height="1.221" x="2.567" y="-3.785" fill="#de8787" paint-order="markers stroke fill" rx=".136" ry=".136" style="stroke-width:.846199" transform="rotate(90)"/><g stroke-width=".777"><path fill="#fff" d="M7.738 289.59h1.47v-.252h-.647c-.118 0-.262.013-.383.022.549-.52.915-.994.915-1.46 0-.417-.261-.691-.679-.691-.296 0-.497.137-.688.344l.169.166c.127-.153.293-.271.484-.271.29 0 .43.194.43.462 0 .402-.337.867-1.07 1.508z" aria-label="2" style="stroke-width:.777375" transform="matrix(.28846 0 0 .28846 .733 -80.055)"/><path fill="#666" d="M8.466 293.82c.407 0 .736-.244.736-.655 0-.313-.216-.52-.485-.583v-.012c.241-.09.407-.276.407-.555 0-.363-.282-.576-.667-.576-.267 0-.47.116-.643.276l.154.181a.67.67 0 0 1 .476-.222c.238 0 .389.144.389.363 0 .248-.163.439-.636.439v.22c.53 0 .714.184.714.457 0 .266-.194.429-.467.429-.26 0-.435-.122-.57-.263l-.144.188a.95.95 0 0 0 .736.313z" aria-label="3" style="stroke-width:.777375" transform="matrix(.28846 0 0 .28846 .733 -80.055)"/><path fill="#666" d="M12.07 292.19c0-.313.17-.52.388-.52.295 0 .47.25.502.724-.147.216-.323.307-.48.307-.272 0-.41-.2-.41-.511zm.326 1.635c.432 0 .833-.357.833-1.287 0-.73-.329-1.094-.77-1.094-.358 0-.658.301-.658.746 0 .476.25.724.632.724.192 0 .389-.11.53-.282-.022.71-.279.955-.577.955a.507.507 0 0 1-.382-.175l-.16.178a.73.73 0 0 0 .552.235z" aria-label="9" style="stroke-width:.777375" transform="matrix(.28846 0 0 .28846 .733 -80.055)"/></g></g></svg>