<svg xmlns="http://www.w3.org/2000/svg" width="24" height="24" fill="none"><path fill="url(#a)" fill-rule="evenodd" d="M9.596 1.114c.12 0 .234-.014.344-.046a31.627 31.627 0 0 1 4.307.011c1.301.102 2.561.384 3.78.848 2.025.833 3.412 2.28 4.158 4.339.427 1.24.679 2.514.756 3.824a27.94 27.94 0 0 1-.114 4.923 11.876 11.876 0 0 1-.894 3.32c-.85 1.843-2.229 3.114-4.135 3.813a15.624 15.624 0 0 1-4.765.825 21.423 21.423 0 0 1-5.453-.413c-3.312-.737-5.354-2.756-6.128-6.056a19.047 19.047 0 0 1-.447-4.511 18.491 18.491 0 0 1 .515-4.786c.812-3.086 2.77-4.998 5.877-5.736a13.954 13.954 0 0 1 2.199-.355Z" clip-rule="evenodd"/><path fill="#E6E6E6" d="M19.42 4.647v11.632a.647.647 0 0 1-.644.645H9.601a.642.642 0 0 1-.643-.645V4.647A.647.647 0 0 1 9.602 4h9.174a.64.64 0 0 1 .644.647Z"/><path fill="#3F3F3F" d="M14.035 7.212a1.556 1.556 0 0 0-1.554 1.555c.001.275.075.544.213.781a1.556 1.556 0 0 0 .097 3.108 1.555 1.555 0 0 0 1.244-.625 1.556 1.556 0 0 0 2.8-.93 1.556 1.556 0 0 0-1.457-1.551 1.556 1.556 0 0 0-1.343-2.338Z"/><path fill="#3F3F3F" fill-rule="evenodd" d="M14.502 12.394c-.065-.21-.246-.393-.467-.393-.22 0-.402.182-.467.393-.098.317-.34.72-.932.795-.11.014-.2.102-.2.212s.09.2.2.2h2.8a.2.2 0 0 0 .2-.2c0-.11-.09-.198-.2-.212-.594-.074-.835-.478-.934-.795Z" clip-rule="evenodd"/><path fill="#E6E6E6" fill-opacity=".875" d="M15.112 7.724v11.63a.647.647 0 0 1-.643.646H5.293a.642.642 0 0 1-.643-.645V7.724a.648.648 0 0 1 .644-.647h9.175a.641.641 0 0 1 .643.647Z" opacity=".875"/><path fill="#F34235" d="M11.26 11.201c-.498 0-.936.235-1.224.595a1.566 1.566 0 0 0-1.225-.595c-.871 0-1.576.705-1.576 1.575 0 .017.005.035.006.05h-.006c0 1.616 2.8 3.975 2.8 3.975s2.801-2.359 2.801-3.974h-.006c0-.018.006-.034.006-.051 0-.87-.706-1.575-1.576-1.575Z"/><defs><radialGradient id="a" cx="0" cy="0" r="1" gradientTransform="matrix(0 22 -22 0 12 1)" gradientUnits="userSpaceOnUse"><stop stop-color="#CCC"/><stop offset="1" stop-color="#777"/></radialGradient></defs></svg>