<svg xmlns="http://www.w3.org/2000/svg" xmlns:xlink="http://www.w3.org/1999/xlink" width="24" height="24" viewBox="0 0 6.35 6.35"><defs><linearGradient id="b" x1="32" x2="53.891" y1="43.543" y2="43.543" gradientUnits="userSpaceOnUse"><stop offset="0" stop-color="#d1fffa"/><stop offset="1" stop-color="#a1fff5"/></linearGradient><linearGradient id="a" x1="10" x2="53.891" y1="32" y2="32" gradientUnits="userSpaceOnUse"><stop offset="0" stop-color="#fff"/><stop offset="1" stop-color="#fff" stop-opacity="0"/></linearGradient><linearGradient id="c" x1="32" x2="32" y1="32" y2="6" gradientUnits="userSpaceOnUse"><stop offset="0" stop-color="#fff"/><stop offset="1" stop-color="#fff"/></linearGradient><linearGradient xlink:href="#a" id="d" x1="10" x2="53.891" y1="32" y2="32" gradientUnits="userSpaceOnUse"/><linearGradient xlink:href="#b" id="e" x1="32" x2="53.891" y1="43.543" y2="43.543" gradientUnits="userSpaceOnUse"/><linearGradient xlink:href="#c" id="f" x1="32" x2="32" y1="32" y2="6" gradientUnits="userSpaceOnUse"/></defs><path d="M3.175.265C.529.265.265 1.587.265 3.175c0 2.117.793 2.91 2.91 2.91s2.91-.793 2.91-2.91c0-1.588-.264-2.91-2.91-2.91z" style="font-variation-settings:normal;display:inline;vector-effect:none;fill:#a1fff5;fill-opacity:1;stroke-width:.295341;stroke-linecap:butt;stroke-linejoin:miter;stroke-miterlimit:4;stroke-dasharray:none;stroke-dashoffset:0;stroke-opacity:1;-inkscape-stroke:none;stop-color:#000"/><path d="M3.175.523C.764.523.523 1.728.523 3.175c0 1.929.723 2.652 2.652 2.652 1.929 0 2.652-.723 2.652-2.652 0-1.447-.24-2.652-2.652-2.652z" style="font-variation-settings:normal;display:inline;vector-effect:none;fill:#52cec0;fill-opacity:1;stroke-width:.269163;stroke-linecap:butt;stroke-linejoin:miter;stroke-miterlimit:4;stroke-dasharray:none;stroke-dashoffset:0;stroke-opacity:1;-inkscape-stroke:none;stop-color:#000"/><g style="stroke-width:2.93506" transform="matrix(.3407 0 0 .3407 2.093 .291)"><path d="M3.176 2.64v.27H2.38V2.7a5.821 5.821 0 0 0-.264.04v.17H1.44a5.821 5.821 0 0 0-.689.265h.306v.795H.266v-.544A5.821 5.821 0 0 0 0 3.583v.387h-.524a5.821 5.821 0 0 0-.535.506v.544h-.454a5.821 5.821 0 0 0-.186.265h.64v.795h-.793v-.544a5.821 5.821 0 0 0-.266.514v.03h-.014a5.821 5.821 0 0 0-.11.265h.124v.795h-.37a5.821 5.821 0 0 0-.058.265h.428V8.2h-.516a5.821 5.821 0 0 0-.013.26 5.821 5.821 0 0 0 0 .004l.006.001h.523v.795h-.467a5.821 5.821 0 0 0 .04.265h.427v.785h-.22a5.821 5.821 0 0 0 .09.265h.13v.293a5.821 5.821 0 0 0 .415.767h.644v.795h-.018a5.821 5.821 0 0 0 .282.278v-.013h.795v.638a5.821 5.821 0 0 0 .77.422h.287v.121a5.821 5.821 0 0 0 .265.097v-.218h.794v.425a5.821 5.821 0 0 0 .264.04v-.464h.795v.526a5.821 5.821 0 0 0 .265-.01v-.516h.792v.425a5.821 5.821 0 0 0 .265-.06v-.365h.794v.127a5.821 5.821 0 0 0 .265-.119v-.008h.019a5.821 5.821 0 0 0 .515-.266h-.534v-.794h.794v.642a5.821 5.821 0 0 0 .265-.19v-.453h.547a5.821 5.821 0 0 0 .51-.545v-.514h.376a5.821 5.821 0 0 0 .162-.265h-.538v-.796h.794v.298a5.821 5.821 0 0 0 .265-.68v-.668h.163a5.821 5.821 0 0 0 .04-.265h-.203v-.795h.264a5.821 5.821 0 0 0 0-.005 5.821 5.821 0 0 0-.008-.26h-.256v-.794h.165a5.821 5.821 0 0 0-.06-.266h-.105v-.396a5.821 5.821 0 0 0-.265-.693v.029h-.794v-.795h.38a5.821 5.821 0 0 0-.19-.265h-.19v-.25a5.821 5.821 0 0 0-.265-.301v.55h-.792v-.784h.554a5.821 5.821 0 0 0-.294-.265h-.26v-.198a5.821 5.821 0 0 0-.266-.185v.383h-.793v-.795H5.6a5.821 5.821 0 0 0-.675-.265h-.428v-.113a5.821 5.821 0 0 0-.265-.057v.17h-.792v-.258a5.821 5.821 0 0 0-.265-.013Zm-1.853.535h.794v.795h-.794zm1.058 0h.795v.795H2.38zm1.06 0h.792v.795h-.792Zm1.057 0h.794v.795h-.794Zm-5.292 1.06h.795v.785h-.795zm1.06 0h.792v.785H.266Zm1.057 0h.794v.785h-.794zm1.058 0h.795v.785H2.38zm1.06 0h.792v.785h-.792Zm1.057 0h.794v.785h-.794Zm1.059 0h.793v.785h-.793zm-6.35 1.05H0v.795h-.795zm1.059 0h.792v.795H.266Zm1.057 0h.794v.795h-.794zm1.058 0h.795v.795H2.38zm1.06 0h.792v.795h-.792Zm1.057 0h.793v.795h-.793v-.795Zm1.059 0h.793v.795h-.793zm1.058 0h.793v.795h-.792v-.795Zm-8.467 1.06h.794v.795h-.793v-.795Zm1.058 0h.795v.795h-.795zm1.06 0h.792v.795H.266v-.795Zm1.057 0h.794v.795h-.794v-.795Zm1.058 0h.794v.795h-.794v-.795Zm1.06 0h.792v.795h-.792v-.795Zm1.057 0h.794v.795h-.794v-.795Zm1.058 0h.794v.795h-.794zm1.06 0h.792v.795h-.792v-.795Zm1.057 0h.794v.795h-.794v-.795Zm-9.525 1.06h.794V8.2h-.793v-.795Zm1.058 0H0V8.2h-.794v-.795Zm1.06 0h.792V8.2H.266v-.795Zm1.057 0h.794V8.2h-.794v-.795Zm1.058 0h.794V8.2h-.794v-.795Zm1.06 0h.792V8.2h-.792v-.795Zm1.057 0h.794V8.2h-.794v-.795Zm1.058 0h.794V8.2h-.794zm1.06 0h.792V8.2h-.792v-.795Zm1.057 0h.794V8.2h-.794v-.795Zm-9.525 1.06h.794v.795h-.793v-.795Zm1.058 0H0v.795h-.794v-.795Zm1.06 0h.792v.795H.265Zm1.057 0h.793v.795h-.793Zm1.058 0h.794v.795h-.794Zm1.06 0h.792v.795H3.44Zm1.057 0h.793v.795h-.793v-.795Zm1.058 0h.794v.795h-.794zm1.06 0h.792v.795h-.793zm1.057 0h.793v.795h-.793v-.795Zm-9.525 1.06h.793v.785h-.793zm1.058 0H0v.785h-.794zm1.06 0h.792v.785H.265Zm1.057 0h.793v.785h-.793zm1.058 0h.794v.785h-.794Zm1.06 0h.792v.785H3.44Zm1.057 0h.793v.785h-.793Zm1.058 0h.794v.785h-.794zm1.06 0h.792v.785h-.793zm1.057 0h.793v.785h-.793zm-9.525 1.05h.793v.796h-.793zm1.058 0H0v.796h-.794zm1.06 0h.792v.796H.265Zm1.057 0h.793v.796h-.793Zm1.058 0h.794v.796h-.794Zm1.06 0h.792v.796H3.44Zm1.057 0h.793v.796h-.793Zm1.058 0h.794v.796h-.794zm1.06 0h.792v.796h-.793zm-7.41 1.06H0v.795h-.794zm1.059 0h.793v.795H.265v-.794zm1.058 0h.793v.795h-.793v-.794zm1.057 0h.795v.795h-.794v-.794zm1.06 0h.793v.795H3.44Zm1.058 0h.793v.795h-.793v-.794zm1.058 0h.794v.795h-.794zm1.059 0h.792v.795h-.792Zm-6.35 1.06h.793v.795H.265Zm1.058 0h.793v.795h-.793v-.794zm1.057 0h.795v.795h-.794v-.794zm1.06 0h.793v.795H3.44Zm1.058 0h.793v.795h-.793v-.794z" opacity=".1" style="stroke-width:.77656;paint-order:stroke markers fill"/><circle cx="3.175" cy="8.46" r="5.821" fill-rule="evenodd" opacity=".25" style="stroke-width:2.93506"/><g fill-rule="evenodd" style="stroke-width:2.93506"><path fill="#a1fff5" d="M8.467 2.64a5.82 5.82 0 0 0-5.821 5.82 5.82 5.82 0 0 0 5.82 5.821 5.82 5.82 0 0 0 5.821-5.82 5.82 5.82 0 0 0-5.82-5.821zm0 .529a5.292 5.292 0 0 1 5.291 5.291 5.292 5.292 0 0 1-5.291 5.292A5.292 5.292 0 0 1 3.175 8.46a5.292 5.292 0 0 1 5.292-5.291Z" style="stroke-width:2.93506" transform="translate(-5.292)"/><path fill="#fff" d="M4.256 9.6c.048.096.136.228.268.36.228.228.509.369.84.369.413 0 .717-.23.94-.638.151-.277.237-.54.41-1.17.298-1.096.487-1.441.866-1.441.366 0 .518.335.715 1.42.115.631.178.895.305 1.175.19.417.482.654.9.654.53 0 .73-.294.889-.927l.016-.066c.098-.395.152-.484.277-.484.088 0 .13.056.22.334l.038.117.043.127c.234.655.65.975 1.494.898a.25.25 0 0 0-.045-.496c-.598.054-.817-.114-.98-.57a3.564 3.564 0 0 1-.076-.23c-.151-.468-.308-.678-.694-.678-.457 0-.61.25-.76.862l-.017.065c-.108.431-.189.55-.404.55-.366 0-.518-.335-.715-1.42-.115-.632-.177-.896-.305-1.176-.189-.416-.482-.654-.9-.654-.413 0-.717.23-.94.638-.15.277-.237.54-.409 1.17-.299 1.096-.487 1.442-.867 1.442a.681.681 0 0 1-.489-.223 1.088 1.088 0 0 1-.174-.23.25.25 0 1 0-.446.223Z" style="stroke-width:2.93506" transform="translate(-5.292)"/><path fill="url(#a)" d="M32 10a22 22 0 0 0-22 22 22 22 0 0 0 22 22 22 22 0 0 0 21.89-20H51.9A20 20 0 0 1 32 52a20 20 0 0 1-20-20 20 20 0 0 1 20-20Z" style="fill:url(#d);stroke-width:2.93506" transform="translate(-5.292) scale(.26458)"/><path fill="url(#b)" d="M52.887 33.086a1 1 0 0 0-1 1 1 1 0 0 0 0 .004A20 20 0 0 1 32 52v2a22 22 0 0 0 21.84-19.613 1 1 0 0 0 .047-.301 1 1 0 0 0-.002-.047A22 22 0 0 0 53.89 34h-.008a1 1 0 0 0-.996-.914z" style="fill:url(#e);stroke-width:2.93506" transform="translate(-5.292) scale(.26458)"/><path fill="url(#c)" d="M32 10a1 1 0 0 0-.094.004A22 22 0 0 0 10 32h2a20 20 0 0 1 20-20 1 1 0 0 0 1-1 1 1 0 0 0-1-1z" style="fill:url(#f);stroke-width:2.93506" transform="translate(-5.292) scale(.26458)"/></g></g></svg>