<svg xmlns="http://www.w3.org/2000/svg" width="24" height="24" fill="none"><path fill="gray" fill-rule="evenodd" d="M12 1c-.686 0-1.373.023-2.06.068-.11.032-.224.047-.344.046-.742.06-1.476.178-2.2.355-3.106.738-5.064 2.65-5.876 5.736a18.491 18.491 0 0 0-.515 4.786V12H12V1Z" clip-rule="evenodd"/><path fill="#F9F9F9" fill-rule="evenodd" d="M1.005 12h10.994V1c.75 0 1.499.026 2.248.08 1.301.1 2.561.383 3.78.847 2.025.833 3.412 2.28 4.158 4.339.427 1.24.679 2.514.756 3.824.041.637.061 1.274.059 1.91H12v11c-1.485.006-2.959-.14-4.42-.442-3.312-.737-5.354-2.756-6.128-6.056A19.046 19.046 0 0 1 1.005 12Z" clip-rule="evenodd"/><path fill="gray" fill-rule="evenodd" d="M23 12a27.946 27.946 0 0 1-.174 3.013 11.876 11.876 0 0 1-.893 3.32c-.85 1.843-2.229 3.114-4.135 3.813a15.624 15.624 0 0 1-4.765.825c-.346.018-.69.027-1.034.029V12h11Z" clip-rule="evenodd"/><path fill="url(#a)" d="M16.359 17.789a.046.046 0 0 1-.046-.046v-.123a.393.393 0 0 0-.395-.396.197.197 0 0 1-.2-.183 2.156 2.156 0 0 1 .032-.495c.211-.96.472-1.91.77-2.845.49-1.54.785-3.077.298-4.674-.544-1.785-1.622-3.05-3.456-3.6a.66.66 0 0 1-.33-.273 3.934 3.934 0 0 0-.66-.844c-.15-.146-.406-.047-.408.163-.002.198.006.396.023.59.025.274-.06.438-.362.462-.296.022-.427.339-.529.617-.055.15-.19.204-.52.338-.182.073-.375.129-.544.227a1.508 1.508 0 0 0-.359.319c-.242.28-.445.598-.715.849-.537.498-1.1.972-1.67 1.436-.245.2-.432.38-.31.732.036.101-.013.236-.035.353-.069.363.243.986.577 1.149.792.384 1.415.278 2.041-.357.298-.3.621-.418 1.04-.274.453.157.913.282 1.424.25.128-.009.22.158.13.25-.786.797-1.546 1.62-2.121 2.59-.458.77-.83 1.58-.815 2.497.004.214.025.427.054.642a.07.07 0 0 1-.07.08.393.393 0 0 0-.394.396v.122c0 .026-.02.046-.046.046-.245 0-.446.2-.446.448V19a1 1 0 0 0 1 1h6.49a1 1 0 0 0 1-1v-.765a.444.444 0 0 0-.448-.446Z"/><defs><linearGradient id="a" x1="12" x2="12" y1="1" y2="23" gradientUnits="userSpaceOnUse"><stop stop-color="#777"/><stop offset="1" stop-color="#181818"/></linearGradient></defs></svg>