<svg xmlns="http://www.w3.org/2000/svg" width="24" height="24" viewBox="0 0 6.35 6.35"><defs><radialGradient id="a" cx="0" cy="0" r="1" fx="0" fy="0" gradientTransform="rotate(90 1.455 1.72) scale(5.82072)" gradientUnits="userSpaceOnUse" spreadMethod="pad"><stop offset="0" style="stop-color:#aed9ec;stop-opacity:.93725491"/><stop offset="1" style="stop-color:#32a3d7;stop-opacity:1"/></radialGradient></defs><path d="M2.538.295A.335.335 0 0 0 2.63.283c.38-.025.76-.024 1.14.002a3.62 3.62 0 0 1 1 .225c.536.22.903.603 1.101 1.148.112.328.18.665.2 1.011.028.436.018.87-.03 1.304a3.166 3.166 0 0 1-.237.878c-.225.487-.59.824-1.094 1.008a4.125 4.125 0 0 1-1.261.218 5.644 5.644 0 0 1-1.443-.109C1.13 5.774.588 5.24.385 4.366a5.025 5.025 0 0 1-.12-1.194c-.009-.429.036-.85.137-1.266C.617 1.09 1.135.584 1.957.389c.191-.047.386-.079.581-.094Z" style="fill:url(#a);fill-rule:evenodd;stroke:none;stroke-width:.35277"/><g fill="#fff" style="stroke-width:2.69231" transform="matrix(.37143 0 0 .37143 -3.655 6.221)"><path d="M16.404-11.906a.264.264 0 1 0 0 .53h6.35a.264.264 0 1 0 0-.53zm0 3.44a.264.264 0 1 0 0 .529h6.35a.264.264 0 1 0 0-.53zm0 3.44a.264.264 0 1 0 0 .528h6.35a.264.264 0 1 0 0-.529z" style="stroke-width:.712333;paint-order:stroke fill markers"/><circle cx="14.552" cy="-11.642" r=".794" opacity=".35" style="stroke-width:2.69231;paint-order:stroke fill markers"/><circle cx="14.552" cy="-11.642" r=".265" style="stroke-width:2.69231;paint-order:stroke fill markers"/><circle cx="14.552" cy="-8.202" r=".794" opacity=".35" style="stroke-width:2.69231;paint-order:stroke fill markers"/><circle cx="14.552" cy="-8.202" r=".265" style="stroke-width:2.69231;paint-order:stroke fill markers"/><circle cx="14.552" cy="-4.763" r=".794" opacity=".35" style="stroke-width:2.69231;paint-order:stroke fill markers"/><circle cx="14.552" cy="-4.763" r=".265" style="stroke-width:2.69231;paint-order:stroke fill markers"/></g><path d="M4.873 3.016a2.24 2.24 0 0 0-2.24 2.24 2.24 2.24 0 0 0 .155.818c.22.014.439.015.66.003.432-.007.853-.08 1.26-.218.505-.185.87-.52 1.095-1.008.121-.281.2-.574.237-.878.022-.201.036-.402.042-.603a2.24 2.24 0 0 0-1.209-.354Z" style="fill:#2cc36c;fill-opacity:1;stroke-width:.705622"/><path d="M5.628 4.483a.206.206 0 0 0-.146.06l-1.04 1.041-.555-.554a.206.206 0 1 0-.292.291l.662.662c.152-.032.303-.074.452-.124a2.23 2.23 0 0 0 .068-.027l.997-.996a.206.206 0 0 0-.146-.353Z" style="fill:#fff;fill-opacity:1;stroke-width:.705622"/></svg>