<svg xmlns="http://www.w3.org/2000/svg" xmlns:xlink="http://www.w3.org/1999/xlink" width="24" height="24" viewBox="0 0 6.35 6.35"><defs><linearGradient id="a" x1=".639" x2=".639" y1=".99" y2=".033" gradientTransform="matrix(38.364 0 0 28.735 -6.195 -5.614)" gradientUnits="userSpaceOnUse"><stop offset=".022" stop-color="#fcfafb"/><stop offset="1" stop-color="#f0dfe5"/></linearGradient><linearGradient xlink:href="#a" id="b" x1=".639" x2=".639" y1=".99" y2=".033" gradientTransform="matrix(38.364 0 0 28.735 -6.195 -5.614)" gradientUnits="userSpaceOnUse"/></defs><path d="M3.175.265C.529.265.265 1.587.265 3.175c0 2.117.793 2.91 2.91 2.91s2.91-.793 2.91-2.91c0-1.588-.264-2.91-2.91-2.91z" style="font-variation-settings:normal;display:inline;vector-effect:none;fill:#f88e45;fill-opacity:1;stroke-width:.295341;stroke-linecap:butt;stroke-linejoin:miter;stroke-miterlimit:4;stroke-dasharray:none;stroke-dashoffset:0;stroke-opacity:1;-inkscape-stroke:none;stop-color:#000"/><path d="M3.175.523C.764.523.523 1.728.523 3.175c0 1.929.723 2.652 2.652 2.652 1.929 0 2.652-.723 2.652-2.652 0-1.447-.24-2.652-2.652-2.652z" style="font-variation-settings:normal;display:inline;vector-effect:none;fill:#f99957;fill-opacity:1;stroke-width:.269163;stroke-linecap:butt;stroke-linejoin:miter;stroke-miterlimit:4;stroke-dasharray:none;stroke-dashoffset:0;stroke-opacity:1;-inkscape-stroke:none;stop-color:#000"/><g stroke-width="1.199"><path fill="#fff" d="M32.169 15.448V2.885c0-1.685-.318-2.897-.938-3.635-.592-.71-1.743-1.073-3.458-1.073h-4.07l-5.37-3.79-5.368 3.79H-1.8c-1.714 0-2.866.363-3.457 1.073-.621.738-.939 1.95-.939 3.635v12.563z" opacity=".5" style="isolation:isolate" transform="translate(2.01 2.39) scale(.08965)"/><path fill="url(#a)" d="M27.773 23.12c1.714.021 2.866-.383 3.457-1.092.62-.74.939-1.951.939-3.636V3.475l-8.467-5.3-5.369-3.79-5.369 3.79-19.159 14.549v5.668c0 1.684.318 2.896.939 3.635.591.71 1.743 1.093 3.457 1.093z" style="isolation:isolate;fill:url(#b)" transform="translate(2.01 2.39) scale(.08965)"/><path fill="#e67f54" d="M24.496 15.448V13.53H1.478v1.918zm0-5.755V7.775H12.987v1.918z" style="isolation:isolate" transform="translate(2.01 2.39) scale(.08965)"/><path fill="#fff" d="M27.773 23.12c1.714.021 2.866-.383 3.457-1.093.62-.738.939-1.95.939-3.635v-.48c0 1.685-.318 2.897-.939 3.636-.59.709-1.743 1.114-3.457 1.092H-1.8c-1.714 0-2.866-.383-3.457-1.092-.62-.74-.938-1.951-.938-3.636v.48c0 1.685.317 2.897.938 3.635.591.71 1.743 1.093 3.457 1.093z" style="isolation:isolate" transform="translate(2.01 2.39) scale(.08965)"/></g></svg>