<svg xmlns="http://www.w3.org/2000/svg" width="24" height="24" viewBox="0 0 6.35 6.35"><defs><radialGradient id="a" cx="0" cy="0" r="1" fx="0" fy="0" gradientTransform="rotate(90 1.455 1.72) scale(2.91034)" gradientUnits="userSpaceOnUse" spreadMethod="pad"><stop offset="0" style="stop-color:#7a59b5;stop-opacity:1"/><stop offset="1" style="stop-color:#52377f;stop-opacity:1"/></radialGradient></defs><path d="M2.538.295A.335.335 0 0 0 2.63.283c.38-.025.76-.024 1.14.002a3.62 3.62 0 0 1 1 .225c.536.22.903.603 1.101 1.148.112.328.18.665.2 1.011.028.436.018.87-.03 1.304a3.166 3.166 0 0 1-.237.878c-.225.487-.59.824-1.094 1.008a4.125 4.125 0 0 1-1.261.218 5.644 5.644 0 0 1-1.443-.109C1.13 5.774.588 5.24.385 4.366a5.025 5.025 0 0 1-.12-1.194c-.009-.429.036-.85.137-1.266C.617 1.09 1.135.584 1.957.389c.191-.047.386-.079.581-.094Z" style="fill:url(#a);fill-rule:evenodd;stroke:none;stroke-width:.352771"/><g transform="matrix(.26 0 0 .26 .974 -71.842)"><path fill="#4d4d4d" d="M6.085 281.919a.264.264 0 0 0-.264.264v5.292c0 .147.118.265.264.265h4.077l1.48 1.315c.19.04.264-.07.264-.265v-1.05h3.175a.264.264 0 0 0 .265-.265v-5.292a.264.264 0 0 0-.265-.264z" paint-order="markers stroke fill"/><path fill="#fff" d="M10.296 282.823c-.244 0-.52.066-.814.207-.824.396-.845 1.215-.725 2.968.028.372-.18.649-.488 1.058l.224.265.246-.265c.035-.068.074-.135.119-.198.175-.247.177-.26.177-.425.006-.305.015-.435.12-.547-.055-.066-.119-.138-.121-.218-.006-.14.087-.212.21-.306-.1-.113-.222-.242-.222-.502 0-.328.159-.595.36-.595.201 0 .455.223.455.55a.7.7 0 0 1-.037.205c.136-.028.288-.044.441-.016a.709.709 0 0 1-.021-.175c0-.358.259-.684.579-.683.32 0 .578.326.578.683a.677.677 0 0 1-.222.509c.108.049.186.113.178.22a.838.838 0 0 1-.109.334c.082.1.117.247.289.5.155.225.203.41.295.664l.548.133.36-.651a2.62 2.62 0 0 1-.49-1.081c-.195-.992.105-1.262-.534-2.099-.338-.442-.97-.536-1.396-.535m.483 1.752c-.166 0-.3.154-.3.344 0 .074.021.147.06.206a.686.686 0 0 0 .161.072c.055.017.111.034.17.05.126-.046.21-.179.211-.328 0-.19-.135-.344-.302-.344zm-1.385.017h-.023c-.124.014-.207.177-.187.366.016.143.088.265.18.305.073-.061.167-.141.26-.19a.49.49 0 0 0 .008-.162c-.019-.176-.121-.314-.237-.32z"/><rect width="11.642" height="7.408" x="1.587" y="285.888" fill="#7a59b5" paint-order="stroke markers fill" ry=".265"/><path fill="#7a59b5" d="M4.233 290.642h2.91c.147 0 .304.123.265.265l-.508 1.847c-.04.141-.176.172-.285.27l-2.382 2.116c-.19.04-.264-.07-.264-.265v-3.968c0-.147.118-.265.264-.265z" paint-order="markers stroke fill"/><g fill="#fff" paint-order="stroke fill markers" transform="translate(-.265 -.265)"><rect width="1.058" height="3.175" x="5.821" y="288.269" rx="0" ry="0"/><rect width="1.058" height="3.175" x="8.467" y="288.269" rx="0" ry="0"/></g></g></svg>