<svg xmlns="http://www.w3.org/2000/svg" xml:space="preserve" id="svg5" width="24" height="24" version="1.1" viewBox="0 0 6.35 6.35"><defs id="defs2"><style id="current-color-scheme" type="text/css">.ColorScheme-Text{color:#31363b}.ColorScheme-Background{color:#eff0f1}.ColorScheme-Highlight{color:#3daee9}.ColorScheme-ViewText{color:#31363b}.ColorScheme-ViewBackground{color:#fcfcfc}.ColorScheme-ViewHover{color:#93cee9}.ColorScheme-ViewFocus{color:#3daee9}.ColorScheme-ButtonText{color:#31363b}.ColorScheme-ButtonBackground{color:#eff0f1}.ColorScheme-ButtonHover{color:#93cee9}.ColorScheme-ButtonFocus{color:#3daee9}</style></defs><path id="path4714" d="M2.538.295A.336.336 0 0 0 2.63.283c.38-.025.76-.024 1.14.002a3.62 3.62 0 0 1 1 .225c.536.22.903.603 1.101 1.148.112.328.18.665.2 1.011.028.436.018.87-.03 1.304a3.166 3.166 0 0 1-.237.878c-.225.488-.59.824-1.094 1.008a4.125 4.125 0 0 1-1.261.218 5.644 5.644 0 0 1-1.443-.109C1.13 5.774.588 5.24.385 4.366a5.025 5.025 0 0 1-.12-1.194c-.009-.427.037-.85.137-1.266C.617 1.09 1.135.584 1.957.389c.191-.047.386-.079.581-.094Z" style="fill:#f2f2f2;fill-opacity:1;fill-rule:evenodd;stroke:none;stroke-width:.352778"/><path id="path4716" d="M3.041 1.455c-.885.052-1.587.803-1.587 1.72 0 .95.778 1.72 1.722 1.72.915 0 1.676-.752 1.72-1.643h-.411a1.31 1.31 0 0 1-1.299 1.23 1.325 1.325 0 0 1-1.322-1.31c0-.689.564-1.251 1.177-1.303zm.204 0v.414c.342.02.542.13.745.3l.3-.292a1.71 1.71 0 0 0-1.045-.422Zm1.212.563-.29.291c.179.207.288.464.315.736h.411a1.674 1.674 0 0 0-.436-1.027Zm-.522.384-.867.536h.001a.272.272 0 0 0 .131.51.27.27 0 0 0 .24-.15V3.3z" style="fill:#333;fill-opacity:1;fill-rule:nonzero;stroke:none;stroke-width:.352778"/></svg>