<svg xmlns="http://www.w3.org/2000/svg" width="24" height="24" viewBox="0 0 6.35 6.35"><defs><radialGradient id="a" cx="0" cy="0" r="1" fx="0" fy="0" gradientTransform="rotate(90 -7.978 -.779) scale(5.82072)" gradientUnits="userSpaceOnUse" spreadMethod="pad"><stop offset="0" style="stop-color:#f9f7f1;stop-opacity:.90588236"/><stop offset="1" style="stop-color:#f7d83f;stop-opacity:1"/></radialGradient></defs><path d="M-9.394 7.23a.335.335 0 0 0 .091-.013c.38-.025.76-.023 1.14.003a3.62 3.62 0 0 1 1 .224c.536.22.903.604 1.101 1.148.112.328.18.666.2 1.012.027.435.018.87-.03 1.304a3.166 3.166 0 0 1-.237.877c-.225.488-.59.824-1.094 1.009a4.125 4.125 0 0 1-1.262.218 5.644 5.644 0 0 1-1.442-.11c-.875-.194-1.417-.728-1.62-1.602a5.025 5.025 0 0 1-.12-1.193c-.009-.427.036-.85.137-1.267.215-.815.733-1.321 1.555-1.517.191-.046.386-.078.581-.093z" style="fill:url(#a);fill-rule:evenodd;stroke:none;stroke-width:.352683;stroke-dasharray:none" transform="translate(11.932 -6.935)"/><path d="m-7.606 7.302-.028 1.047c-.014.548.437 1 1.011 1.016l.747.02a3.914 3.914 0 0 0-.152-.734 1.898 1.898 0 0 0-1.07-1.183 3.594 3.594 0 0 0-.508-.166Z" style="opacity:.727273;mix-blend-mode:normal;fill:#f8f9f9;fill-opacity:1;stroke-width:.637963;paint-order:stroke fill markers" transform="translate(11.932 -6.935)"/></svg>