<svg xmlns="http://www.w3.org/2000/svg" xml:space="preserve" id="svg26544" width="24" height="24" version="1.1" viewBox="0 0 6.35 6.35"><defs id="defs26548"><radialGradient id="radialGradient868-3" cx="0" cy="0" r="1" fx="0" fy="0" gradientTransform="matrix(0 16.5 -16.5 0 9 .75)" gradientUnits="userSpaceOnUse" spreadMethod="pad"><stop id="stop864-6" offset="0" style="stop-opacity:1;stop-color:#fafafa"/><stop id="stop866-7" offset="1" style="stop-opacity:1;stop-color:silver"/></radialGradient><radialGradient id="radialGradient27965" cx="9" cy="9" r="8.25" fx="9" fy="2.848" gradientTransform="translate(-3.273 -3.273) scale(1.36364)" gradientUnits="userSpaceOnUse" spreadMethod="pad"><stop id="stop27961" offset="0" style="stop-opacity:1;stop-color:#6aa1ff"/><stop id="stop27963" offset="1" style="stop-opacity:1;stop-color:#2879ff"/></radialGradient><radialGradient id="radialGradient27965-2" cx="9" cy="9" r="8.25" fx="9" fy="2.848" gradientTransform="translate(-3.273 -3.273) scale(1.36364)" gradientUnits="userSpaceOnUse" spreadMethod="pad"><stop id="stop27961-6" offset="0" style="stop-opacity:1;stop-color:#6aa1ff"/><stop id="stop27963-6" offset="1" style="stop-opacity:1;stop-color:#2879ff"/></radialGradient><radialGradient id="radialGradient1069" cx="9" cy="9" r="8.25" fx="9" fy="2.848" gradientTransform="translate(-3.273 -3.273) scale(1.36364)" gradientUnits="userSpaceOnUse" spreadMethod="pad"><stop id="stop1065" offset="0" style="stop-opacity:1;stop-color:#6aa1ff"/><stop id="stop1067" offset="1" style="stop-opacity:1;stop-color:#2879ff"/></radialGradient><radialGradient id="radialGradient1069-3" cx="9" cy="9" r="8.25" fx="9" fy="2.848" gradientTransform="translate(-3.273 -3.273) scale(1.36364)" gradientUnits="userSpaceOnUse" spreadMethod="pad"><stop id="stop1065-6" offset="0" style="stop-opacity:1;stop-color:#6aa1ff"/><stop id="stop1067-7" offset="1" style="stop-opacity:1;stop-color:#2879ff"/></radialGradient></defs><style id="style26698">.e{fill:#fff}.a{stroke:#fff}.b{stop-color:#fff}.c{stop-color:#1a237e}.d{stop-opacity:0}.f{stop-opacity:.12}</style><g id="g1053" transform="scale(.35277)"><g id="g1055"><g id="g1057"><g id="g1063"><path id="path1071" d="M7.195.836c.09 0 .176-.012.258-.035a23.86 23.86 0 0 1 3.231.008 10.26 10.26 0 0 1 2.836.636c1.519.625 2.558 1.711 3.121 3.254.316.93.507 1.887.566 2.867a21.227 21.227 0 0 1-.086 3.696 8.976 8.976 0 0 1-.672 2.488c-.637 1.383-1.672 2.336-3.101 2.859a11.693 11.693 0 0 1-3.575.618 15.998 15.998 0 0 1-4.089-.309c-2.481-.551-4.016-2.066-4.594-4.543a14.244 14.244 0 0 1-.336-3.383c-.027-1.211.101-2.41.387-3.59.609-2.312 2.078-3.746 4.406-4.3A10.27 10.27 0 0 1 7.195.836Z" style="fill:url(#radialGradient1069-3);fill-rule:evenodd;stroke:none"/></g></g></g><g id="g1073"><path id="path1075" d="m.766.766 16.468 16.468m0-16.468L.766 17.234M11.379.766v16.468M6.621.766v16.468m10.613-5.855H.766m16.468-4.758H.766" style="fill:none;stroke:#fff;stroke-width:.0428899;stroke-linecap:butt;stroke-linejoin:miter;stroke-miterlimit:4;stroke-dasharray:none;stroke-opacity:.2"/></g><g id="g1077"><path id="path1079" d="M13.078 9A4.08 4.08 0 0 1 9 13.078 4.08 4.08 0 0 1 4.922 9 4.08 4.08 0 0 1 9 4.922 4.08 4.08 0 0 1 13.078 9z" style="fill:none;stroke:#fff;stroke-width:.0522617;stroke-linecap:butt;stroke-linejoin:miter;stroke-miterlimit:4;stroke-dasharray:none;stroke-opacity:.2"/></g><g id="g1081"><path id="path1083" d="M.75 9h16.5M9 .75v16.5" style="fill:none;stroke:#fff;stroke-width:.0429687;stroke-linecap:butt;stroke-linejoin:miter;stroke-miterlimit:4;stroke-dasharray:none;stroke-opacity:.2"/></g><g id="g1085"><path id="path1087" d="M4.668 7.906v.379c0 .84.676 1.516 1.516 1.516h.375V8.664h1.136c.211 0 .379.168.379.379a.377.377 0 0 1-.379.379h-.379v.379h4.164a.945.945 0 0 0 .946-.949.945.945 0 0 0-.614-.887l.047-.059z" style="fill:none;stroke:#fff;stroke-width:.189233;stroke-linecap:butt;stroke-linejoin:miter;stroke-miterlimit:4;stroke-dasharray:none;stroke-opacity:1"/></g><g id="g1089"><path id="path1091" d="M5.883 3.555c0 1.961.785 3.136 2.355 4.312l.071.047c.031.027.062.051.093.074l2.391 1.629a1.104 1.104 0 0 0 1.543-.293 1.11 1.11 0 0 0-.18-1.457l-.008-.004a.71.71 0 0 0-.101-.082L9.926 6.332Z" style="fill:none;stroke:#fff;stroke-width:.189233;stroke-linecap:butt;stroke-linejoin:miter;stroke-miterlimit:4;stroke-dasharray:none;stroke-opacity:1"/></g><g id="g1093"><path id="path1095" d="M11.961 7.082a1.39 1.39 0 0 0-.981.395L6.277 12.18c-.257.254-.39.617-.394.98 0 .758.617 1.371 1.375 1.371.363 0 .722-.136.98-.394l4.703-4.703a1.38 1.38 0 0 0 .391-.981 1.37 1.37 0 0 0-1.371-1.371z" style="fill:none;stroke:#fff;stroke-width:.189233;stroke-linecap:butt;stroke-linejoin:miter;stroke-miterlimit:4;stroke-dasharray:none;stroke-opacity:1"/></g><g id="g1097"><path id="path1099" d="M7.059 4.754v.394l2.355 1.618v-.395Z" style="fill:none;stroke:#fff;stroke-width:.189233;stroke-linecap:butt;stroke-linejoin:miter;stroke-miterlimit:4;stroke-dasharray:none;stroke-opacity:1"/></g></g></svg>