<svg xmlns="http://www.w3.org/2000/svg" width="24" height="24" fill="none"><path fill="url(#a)" fill-rule="evenodd" d="M9.596 1.114c.12 0 .234-.014.344-.046a31.635 31.635 0 0 1 4.307.011c1.301.102 2.561.384 3.78.847 2.025.834 3.412 2.28 4.158 4.34.427 1.24.679 2.514.756 3.824a27.94 27.94 0 0 1-.114 4.923 11.88 11.88 0 0 1-.894 3.32c-.85 1.843-2.229 3.114-4.135 3.813a15.624 15.624 0 0 1-4.765.825 21.423 21.423 0 0 1-5.453-.413c-3.312-.737-5.354-2.756-6.128-6.056a19.046 19.046 0 0 1-.447-4.511 18.49 18.49 0 0 1 .515-4.786c.812-3.086 2.77-4.998 5.877-5.737a13.953 13.953 0 0 1 2.199-.354Z" clip-rule="evenodd"/><g opacity=".2"><path fill="url(#b)" d="M11.907 23c.718.002 1.435-.02 2.153-.068a1.18 1.18 0 0 1 .344-.046c.743-.06 1.476-.177 2.2-.354 3.106-.739 5.064-2.65 5.876-5.736a18.49 18.49 0 0 0 .515-4.786 19.04 19.04 0 0 0-.446-4.511c-.774-3.3-2.818-5.32-6.13-6.057-1.798-.37-3.616-.508-5.452-.413-1.632.028-3.22.303-4.765.825-1.906.7-3.285 1.97-4.135 3.813a11.88 11.88 0 0 0-.893 3.32 27.94 27.94 0 0 0-.115 4.923c.077 1.31.329 2.584.756 3.824.746 2.06 2.133 3.506 4.158 4.34 1.219.463 2.478.745 3.78.847.718.05 1.436.077 2.154.079Z"/><path fill="url(#c)" d="M11.907 23c.717.002 1.435-.02 2.153-.068a1.18 1.18 0 0 1 .344-.046c.743-.06 1.476-.177 2.2-.354 3.106-.739 5.064-2.65 5.876-5.736.38-1.573.552-3.168.515-4.786a19.04 19.04 0 0 0-.446-4.511c-.774-3.3-2.818-5.32-6.13-6.057-1.798-.37-3.616-.508-5.452-.413-1.632.028-3.22.303-4.765.825-1.906.7-3.285 1.97-4.135 3.813a11.88 11.88 0 0 0-.893 3.32 27.94 27.94 0 0 0-.115 4.923c.077 1.31.329 2.584.756 3.824.746 2.06 2.133 3.506 4.158 4.34 1.219.463 2.478.745 3.78.847.718.05 1.436.077 2.154.079Z"/><path fill="url(#d)" d="M11.907 23c.717.002 1.435-.02 2.153-.068a1.18 1.18 0 0 1 .344-.046c.743-.06 1.476-.177 2.2-.354 3.106-.739 5.064-2.65 5.876-5.736.38-1.573.552-3.168.515-4.786a19.04 19.04 0 0 0-.446-4.511c-.774-3.3-2.818-5.32-6.13-6.057-1.798-.37-3.616-.508-5.452-.413-1.632.028-3.22.303-4.765.825-1.906.7-3.285 1.97-4.135 3.813a11.88 11.88 0 0 0-.893 3.32 27.94 27.94 0 0 0-.115 4.923c.077 1.31.329 2.584.756 3.824.746 2.06 2.133 3.506 4.158 4.34 1.219.463 2.478.745 3.78.847.718.05 1.436.077 2.154.079Z"/></g><mask id="e" width="14" height="15" x="5" y="5" maskUnits="userSpaceOnUse" style="mask-type:luminance"><path fill="#fff" d="M11.914 19.034a6.81 6.81 0 1 0 0-13.62 6.81 6.81 0 0 0 0 13.62Z"/></mask><g mask="url(#e)"><path fill="#000" fill-opacity=".475" d="M11.914 19.043a6.92 6.92 0 1 0 0-13.842 6.92 6.92 0 0 0 0 13.841Z"/></g><path fill="#fff" d="M11.914 18.591a6.81 6.81 0 1 0 0-13.62 6.81 6.81 0 0 0 0 13.62Z"/><path fill="url(#f)" d="M15.319 5.884a6.81 6.81 0 1 0-6.81 11.795 6.81 6.81 0 0 0 6.81-11.795Z"/><path fill="url(#g)" d="M15.319 17.679a6.81 6.81 0 1 0-6.81-11.795 6.81 6.81 0 0 0 6.81 11.795Z"/><path fill="url(#h)" d="M5.104 11.781a6.81 6.81 0 1 0 13.62 0 6.81 6.81 0 0 0-13.62 0Z"/><path fill="#000" fill-opacity=".475" d="M7.023 7.053a6.81 6.81 0 0 0-1.016 1.35c.996.974 2.068 2.008 2.506 2.479.74.797 2.281 1.962 3.406 1.828.444.312 1.45 1.012 1.786 1.177-.006.161.026.324.084.486.315.883 1.494 1.456.808 2.397 1.35-.819 1.71-2.185 1.138-3.159-.358-.608-.878-.808-1.31-.663-.26-.293-1.29-1.15-1.67-1.462-.243-1.088-1.71-2.211-2.646-2.698a99.155 99.155 0 0 1-3.086-1.735Z"/><path fill="url(#i)" d="M12.767 12.311c-1.091 1.018-3.19-.597-4.077-1.611-.91-1.043-4.314-4.562-4.563-4.79-.248-.228-.446-.51-.226-.79.229-.273.545-.138.82.059.274.196 4.42 2.8 5.628 3.476 1.175.658 3.189 2.378 2.418 3.656Z"/><path fill="url(#j)" d="M14.517 13.316c-4.258 3.799-7.741.158-8.281-1.103.32 2.189 1.794 4.148 4.023 4.902 1.683.57 4.368.556 5.572-1.613l-1.314-2.186Z"/><path fill="#BFBFBF" d="M14.5 13.673c-.348.16-.31.275-.62.225-.213-.034-2.058-1.433-2.058-1.433-.093-.224.019-.533.23-.777.195-.257.474-.43.713-.385 0 0 1.75 1.517 1.827 1.718.112.292-.008.28-.092.652Z"/><path fill="#282828" d="M14.595 16.768c1.375-.778 1.775-2.132 1.232-3.123-.422-.77-1.114-.916-1.593-.544-.474.37-.516.81-.374 1.247.288.892 1.45 1.5.735 2.42Z"/><defs><linearGradient id="b" x1="1.436" x2="17.279" y1="5.901" y2="15.048" gradientUnits="userSpaceOnUse"><stop stop-color="#FF0"/><stop offset="1" stop-color="#FF0" stop-opacity="0"/></linearGradient><linearGradient id="c" x1="22.564" x2="6.722" y1="5.901" y2="15.048" gradientUnits="userSpaceOnUse"><stop stop-color="#0FF"/><stop offset="1" stop-color="#0FF" stop-opacity="0"/></linearGradient><linearGradient id="d" x1="12" x2="12" y1="23" y2="1" gradientUnits="userSpaceOnUse"><stop stop-color="#F0F"/><stop offset="1" stop-color="#F0F" stop-opacity="0"/></linearGradient><linearGradient id="f" x1="17.811" x2="8.967" y1="15.186" y2="10.08" gradientUnits="userSpaceOnUse"><stop stop-color="#FF0"/><stop offset="1" stop-color="#FF0" stop-opacity="0"/></linearGradient><linearGradient id="g" x1="6.016" x2="14.861" y1="15.186" y2="10.08" gradientUnits="userSpaceOnUse"><stop stop-color="#0FF"/><stop offset="1" stop-color="#0FF" stop-opacity="0"/></linearGradient><linearGradient id="h" x1="11.914" x2="11.914" y1="4.971" y2="15.184" gradientUnits="userSpaceOnUse"><stop stop-color="#F0F"/><stop offset="1" stop-color="#F0F" stop-opacity="0"/></linearGradient><linearGradient id="i" x1="3.901" x2="12.951" y1="5.12" y2="12.47" gradientUnits="userSpaceOnUse"><stop stop-color="#343434"/><stop offset="1" stop-color="#4D4D4D"/></linearGradient><linearGradient id="j" x1="14.892" x2="6.482" y1="14.676" y2="14.609" gradientUnits="userSpaceOnUse"><stop stop-color="#5596EA"/><stop offset="1" stop-color="#5596EA" stop-opacity="0"/></linearGradient><radialGradient id="a" cx="0" cy="0" r="1" gradientTransform="rotate(90 5.5 6.5) scale(22.0001)" gradientUnits="userSpaceOnUse"><stop stop-color="#fff"/><stop offset="1" stop-color="#BEBEBE"/></radialGradient></defs></svg>