<svg xmlns="http://www.w3.org/2000/svg" width="24" height="24" fill="none"><path fill="url(#a)" stroke="#CB7148" stroke-width="1.4" d="M22.242 10.131v.004a27.24 27.24 0 0 1-.11 4.798 11.18 11.18 0 0 1-.838 3.115c-.772 1.667-2.004 2.803-3.729 3.438a14.921 14.921 0 0 1-4.544.785h-.025a20.72 20.72 0 0 1-5.27-.397c-1.548-.346-2.759-.98-3.67-1.88-.91-.901-1.56-2.105-1.922-3.648a18.346 18.346 0 0 1-.43-4.341l.001-.015v-.015a17.79 17.79 0 0 1 .494-4.599c.38-1.437 1.015-2.566 1.888-3.419.874-.853 2.021-1.463 3.472-1.807l.004-.002a13.253 13.253 0 0 1 2.061-.334c.144-.001.288-.018.428-.052a30.924 30.924 0 0 1 4.143.015c1.231.096 2.422.363 3.574.8 1.837.76 3.077 2.054 3.756 3.922.405 1.178.644 2.388.717 3.632Z"/><path fill="#DEE642" d="M5.95 5a.948.948 0 0 0-.95.95v4.749c0 .528.423.951.95.951h4.749a.949.949 0 0 0 .952-.95V5.95A.947.947 0 0 0 10.7 5h-4.75Zm2.225 1.109c1.09 0 1.594.568 1.594 1.305 0 .896-.876 1.707-1.732 2.58h1.825v.706H6.744v-.502c.242-.23.517-.465.857-.818.653-.685 1.364-1.339 1.364-1.913 0-.366-.216-.595-.79-.595-.458 0-.823.184-1.201.346l-.236-.7c.314-.162.823-.41 1.437-.41Z"/><path fill="#56C55C" d="M5.95 12.35a.947.947 0 0 0-.95.95v4.749c0 .528.423.951.95.951h4.749a.949.949 0 0 0 .952-.95V13.3a.947.947 0 0 0-.952-.95h-4.75Zm2.407 1.167h1.085v2.848h.79v.718h-.79v.966H8.64v-.966H6.464v-.569l1.893-2.997Zm.282.876-.092.195-1.122 1.777h1.214v-1.972Z"/><path fill="#F19D1E" d="M13.301 12.35a.949.949 0 0 0-.951.95v4.749c0 .528.423.951.95.951h4.75c.527 0 .95-.423.95-.95V13.3a.949.949 0 0 0-.95-.95h-4.749Zm2.315 1.107c1.115 0 1.626.458 1.626 1.17 0 .358-.196.627-.53.889.543.293.784.718.784 1.174 0 .707-.62 1.425-1.842 1.425-1.076 0-1.874-.556-1.874-1.365 0-.476.313-.934.778-1.215a1.12 1.12 0 0 1-.523-.922c0-.633.57-1.156 1.581-1.156Zm0 .72c-.446 0-.745.254-.745.503 0 .371.543.535.92.64.431-.242.628-.393.628-.609 0-.358-.378-.534-.803-.534Zm-.086 1.56c-.587.163-.926.537-.926.888 0 .38.397.745 1.084.745.62 0 .978-.333.978-.718 0-.523-.52-.758-1.136-.916v.002Z"/><defs><radialGradient id="a" cx="0" cy="0" r="1" gradientTransform="matrix(0 22 -22 0 12 1)" gradientUnits="userSpaceOnUse"><stop stop-color="#F9F9F9"/><stop offset="1" stop-color="#CCC"/></radialGradient></defs></svg>