<svg xmlns="http://www.w3.org/2000/svg" xml:space="preserve" width="24" height="24" viewBox="0 0 6.35 6.35"><defs><radialGradient id="a" cx="0" cy="0" r="1" gradientTransform="rotate(90 1.455 1.72) scale(5.82072)" gradientUnits="userSpaceOnUse"><stop offset="0" stop-color="#555" style="stop-color:#535353;stop-opacity:1"/><stop offset="1" stop-color="#222" style="stop-color:#3a3a3a;stop-opacity:1"/></radialGradient></defs><path fill="url(#a)" fill-rule="evenodd" d="M2.539.295a.312.312 0 0 0 .09-.012c.38-.025.76-.024 1.14.003.345.026.678.101 1 .224.536.22.903.603 1.1 1.148.114.328.18.665.2 1.012.029.435.019.869-.03 1.302a3.143 3.143 0 0 1-.236.879 1.87 1.87 0 0 1-1.094 1.008c-.409.139-.829.211-1.26.219a5.668 5.668 0 0 1-1.444-.11C1.13 5.773.59 5.24.385 4.366a5.04 5.04 0 0 1-.12-1.194c-.009-.428.037-.85.137-1.266C.617 1.09 1.135.584 1.957.39c.191-.047.385-.079.582-.094z" clip-rule="evenodd" style="fill:url(#a);stroke-width:.264578"/><path fill="#fff" d="M3.167 1.19c-.141 0-.231.104-.24.241v.279c.013.125.12.225.248.225a.253.253 0 0 0 .093-.016.254.254 0 0 0 .154-.21v-.27a.252.252 0 0 0-.255-.248Zm-.48.582a1.55 1.55 0 0 0-.45.256.46.46 0 0 1 .14.154c0 .002-.002.006 0 .008a.445.445 0 0 1 .038.094v.007a.475.475 0 0 1 .008.202c-.006.03-.02.058-.03.085a.445.445 0 0 1-.412.279.41.41 0 0 1-.232-.07c-.01.028-.025.055-.031.085v.008c-.01.046-.019.092-.023.14v.007a1.53 1.53 0 0 0-.008.147v.016c0 .046.003.095.008.14v.015c.005.045.014.088.023.132.008.043.019.083.03.124a.619.619 0 0 1 .264-.078.373.373 0 0 1 .24.07.412.412 0 0 1 .148.194.484.484 0 0 1 .03.178c0 .126-.102.291-.177.372.03.024.06.048.092.07.04.026.075.055.117.077.059.032.122.061.186.086.012.004.026.005.039.007a.262.262 0 0 1-.008-.054c0-.197.222-.356.496-.356s.496.159.496.356c0 .018-.005.037-.008.054.075-.026.148-.056.217-.093.053-.028.098-.06.147-.093l.047-.03c.012-.01.02-.022.03-.032a.48.48 0 0 1-.084-.085.407.407 0 0 1-.086-.186.532.532 0 0 1-.007-.093c0-.06.013-.12.03-.17v-.008a.384.384 0 0 1 .032-.07.409.409 0 0 1 .046-.062c.019-.022.04-.037.062-.054a.38.38 0 0 1 .14-.07.455.455 0 0 1 .085-.015.565.565 0 0 1 .279.077c.01-.039.023-.076.031-.116.009-.044.018-.087.024-.132V3.33a1.56 1.56 0 0 0 0-.31 1.542 1.542 0 0 0-.024-.14v-.008c-.007-.033-.02-.062-.031-.093a.41.41 0 0 1-.233.07.442.442 0 0 1-.318-.131.471.471 0 0 1-.053-.07.444.444 0 0 1-.024-.466.444.444 0 0 1 .054-.085.473.473 0 0 1 .078-.07 1.481 1.481 0 0 0-.442-.255c.004.017.008.036.008.054 0 .197-.222.356-.496.356a.566.566 0 0 1-.411-.154.356.356 0 0 1-.046-.062.274.274 0 0 1-.039-.14c0-.018.004-.037.008-.054zm-1.078.17a.258.258 0 0 0-.154.117.253.253 0 0 0 .077.348l.201.124.078.047a.305.305 0 0 0 .1.023.297.297 0 0 0 .195-.078.244.244 0 0 0 .077-.178.259.259 0 0 0-.085-.194l-.093-.054-.21-.124a.24.24 0 0 0-.186-.03Zm3.039 0a.242.242 0 0 0-.094.031l-.209.124-.093.055-.008.007a.22.22 0 0 0-.077.178.244.244 0 0 0 .077.179.296.296 0 0 0 .295.061l.077-.046.202-.124a.253.253 0 0 0 .077-.348.246.246 0 0 0-.248-.117Zm-1.473.737a.496.496 0 1 1 0 .992.49.49 0 0 1-.349-.148c-.022-.022-.044-.043-.062-.07a.5.5 0 0 1-.085-.279.51.51 0 0 1 .008-.1.498.498 0 0 1 .488-.395Zm0 .248a.245.245 0 0 0-.225.155.233.233 0 0 0-.023.092.248.248 0 1 0 .248-.247Zm-1.264.83c-.057.005-.073.02-.1.03l-.054.03-.202.125a.253.253 0 0 0-.077.349.255.255 0 0 0 .348.085l.202-.124.07-.047a.288.288 0 0 0 .077-.124.155.155 0 0 0 .008-.047.299.299 0 0 0-.077-.193.272.272 0 0 0-.086-.07.216.216 0 0 0-.109-.015Zm2.535.015a.264.264 0 0 0-.264.263c0 .068.02.117.062.163l.078.054.201.124a.255.255 0 0 0 .349-.085.253.253 0 0 0-.077-.35l-.202-.123c-.018-.01-.035-.022-.054-.031a.288.288 0 0 0-.093-.015Zm-1.271.643a.255.255 0 0 0-.093.015.323.323 0 0 0-.086.054.23.23 0 0 0-.084.155v.272c0 .137.114.248.255.248a.252.252 0 0 0 .256-.248V4.64a.252.252 0 0 0-.248-.225Z" style="stroke-width:.468661"/></svg>