<svg xmlns="http://www.w3.org/2000/svg" xml:space="preserve" width="24" height="24" viewBox="0 0 6.35 6.35"><defs><radialGradient id="a" cx="0" cy="0" r="1" fx="0" fy="0" gradientTransform="rotate(90 1.455 1.72) scale(5.82072)" gradientUnits="userSpaceOnUse" spreadMethod="pad"><stop offset="0" style="stop-color:#9cd3c9;stop-opacity:.93725491"/><stop offset="1" style="stop-color:#009577;stop-opacity:1"/></radialGradient></defs><path d="M2.538.295A.334.334 0 0 0 2.63.283a8.42 8.42 0 0 1 1.14.002 3.62 3.62 0 0 1 1 .225c.536.22.903.603 1.101 1.148.112.328.18.665.2 1.011.028.436.018.87-.03 1.304a3.166 3.166 0 0 1-.237.878c-.225.487-.59.824-1.094 1.008a4.125 4.125 0 0 1-1.261.218 5.642 5.642 0 0 1-1.443-.109C1.13 5.774.588 5.24.385 4.366a5.025 5.025 0 0 1-.12-1.194c-.009-.427.036-.85.137-1.266C.617 1.09 1.135.584 1.957.389c.191-.047.386-.079.581-.094Z" style="fill:url(#a);fill-rule:evenodd;stroke:none;stroke-width:.352683;stroke-dasharray:none"/><path d="m2.668.279-.039.002a.334.334 0 0 1-.09.012c-.196.016-.39.047-.582.094a2.533 2.533 0 0 0-.386.125v4.73l.549-.548.548.548Z" style="fill:#fff;fill-opacity:1;fill-rule:evenodd;stroke:none;stroke-width:.352683;stroke-dasharray:none"/><path fill="#f9f9f9" d="M.732 1.437a.092.092 0 0 0-.094.091v2.358c0 .05.041.09.094.09.845 0 1.972.182 2.441.544v.002a.007.007 0 0 1 .002 0 .007.007 0 0 1 .001 0V4.52c.47-.362 1.597-.544 2.442-.544a.092.092 0 0 0 .094-.09V1.528a.092.092 0 0 0-.094-.09c-.845 0-1.972.181-2.442.544a.013.013 0 0 1-.001 0 .013.013 0 0 1-.002 0c-.47-.363-1.596-.545-2.441-.545Z" opacity=".9" style="stroke-width:.342713;paint-order:stroke fill markers"/><path fill="#fff" d="M.638 3.795v.09c0 .051.041.091.093.091.846 0 1.973.182 2.442.544v.002a.006.006 0 0 1 .002 0 .007.007 0 0 1 .002 0V4.52c.47-.362 1.596-.544 2.441-.544.052 0 .094-.04.094-.09v-.091c0 .05-.042.09-.094.09-.845 0-1.972.182-2.441.545v.001a.006.006 0 0 0-.002 0 .006.006 0 0 0-.002 0V4.43c-.47-.363-1.596-.544-2.442-.544a.092.092 0 0 1-.093-.091z" opacity=".25" style="stroke-width:.0906751;paint-order:stroke fill markers"/><path fill="#fff" d="M.638 3.883v.09c0 .05.041.091.093.091.846 0 1.973.181 2.442.544v.002a.006.006 0 0 1 .002-.001.007.007 0 0 1 .002 0c.47-.364 1.596-.545 2.441-.545.052 0 .094-.04.094-.09v-.091c0 .05-.042.09-.094.09-.845 0-1.972.182-2.441.545v.001a.006.006 0 0 0-.002 0 .006.006 0 0 0-.002 0v-.001c-.47-.363-1.596-.545-2.442-.545a.092.092 0 0 1-.093-.09z" opacity=".25" style="stroke-width:.0906751;paint-order:stroke fill markers;fill:gray"/></svg>