<svg xmlns="http://www.w3.org/2000/svg" xmlns:xlink="http://www.w3.org/1999/xlink" width="24" height="24" viewBox="0 0 6.35 6.35"><defs><linearGradient id="a"><stop offset="0" style="stop-color:#4d4d4d;stop-opacity:1"/><stop offset="1" style="stop-color:#949494;stop-opacity:1"/></linearGradient><linearGradient xlink:href="#a" id="b" x1="236.059" x2="222.894" y1="-.636" y2="515.021" gradientTransform="rotate(180 3.043 3.043) scale(.01304)" gradientUnits="userSpaceOnUse"/></defs><path d="M3.811 6.055a.311.311 0 0 0-.09.012c-.38.025-.76.024-1.14-.003a3.581 3.581 0 0 1-1-.224 1.887 1.887 0 0 1-1.1-1.148 3.776 3.776 0 0 1-.2-1.012 7.394 7.394 0 0 1 .03-1.302c.036-.305.115-.598.236-.879A1.87 1.87 0 0 1 1.64.49C2.05.352 2.47.28 2.9.272c.486-.025.967.011 1.443.11.877.195 1.417.729 1.622 1.602.087.393.126.79.118 1.193.01.429-.036.85-.136 1.267-.215.816-.733 1.322-1.555 1.517a3.686 3.686 0 0 1-.582.094Z" style="fill:url(#b);fill-opacity:1;fill-rule:evenodd;stroke:none;stroke-width:.286756"/><g style="stroke-width:2.80068" transform="matrix(.35706 0 0 .35706 .152 .152)"><rect width="3.175" height="3.175" x="2.91" y="2.91" fill="#fff" rx=".529" ry=".529" style="stroke-width:2.80068"/><rect width="3.175" height="3.175" x="6.879" y="2.91" fill="#999" rx=".529" ry=".529" style="stroke-width:2.80068"/><rect width="3.175" height="3.175" x="10.848" y="2.91" fill="#fff" rx=".529" ry=".529" style="stroke-width:2.80068"/><rect width="3.175" height="3.175" x="2.91" y="6.88" fill="#999" rx=".529" ry=".529" style="stroke-width:2.80068"/><rect width="3.175" height="3.175" x="6.879" y="6.88" fill="#fff" rx=".529" ry=".529" style="stroke-width:2.80068"/><rect width="3.175" height="3.175" x="10.848" y="6.88" fill="#999" rx=".529" ry=".529" style="stroke-width:2.80068"/><rect width="3.175" height="3.175" x="2.91" y="10.85" fill="#fff" rx=".529" ry=".529" style="stroke-width:2.80068"/><rect width="3.175" height="3.175" x="6.879" y="10.85" fill="#999" rx=".529" ry=".529" style="stroke-width:2.80068"/><rect width="3.175" height="3.175" x="10.848" y="10.85" fill="#fff" rx=".529" ry=".529" style="stroke-width:2.80068"/></g></svg>