<svg xmlns="http://www.w3.org/2000/svg" xml:space="preserve" width="24" height="24" viewBox="0 0 6.35 6.35"><defs><radialGradient id="c" cx="9" cy="9" r="8.25" fx="9" fy="3.477" gradientUnits="userSpaceOnUse" spreadMethod="pad"><stop offset="0" style="stop-opacity:.4964828;stop-color:#fff"/><stop offset=".72" style="stop-opacity:.29929046;stop-color:#fff"/><stop offset="1" style="stop-opacity:.29929046;stop-color:#fff"/></radialGradient><radialGradient id="f" cx="0" cy="0" r="1" fx="0" fy="0" gradientTransform="matrix(0 16.5 -16.5 0 9 .75)" gradientUnits="userSpaceOnUse" spreadMethod="pad"><stop offset="0" style="stop-opacity:1;stop-color:#fafafa"/><stop offset="1" style="stop-opacity:1;stop-color:silver"/></radialGradient><radialGradient id="e" cx="9" cy="9" r="8.25" fx="9" fy="3.477" gradientUnits="userSpaceOnUse" spreadMethod="pad"><stop offset="0" style="stop-opacity:.4964828;stop-color:#fff"/><stop offset=".72" style="stop-opacity:.29929046;stop-color:#fff"/><stop offset="1" style="stop-opacity:.29929046;stop-color:#fff"/></radialGradient><clipPath id="b" clipPathUnits="userSpaceOnUse"><path d="M3.057 2.023h11.887V13.91H3.057Z"/></clipPath><clipPath id="d" clipPathUnits="userSpaceOnUse"><path d="M3.057 2.023h11.887V13.91H3.057Z"/></clipPath><path id="a" d="M4300.322 0c-439.439 0-829.828 210.985-1075.081 537.54H403.155C181.42 537.54 0 718.96 0 940.695v4300.322c0 221.736 181.42 403.155 403.155 403.155h4300.322c221.735 0 403.155-181.419 403.155-403.155V2609.086c282.208-412.562 537.54-784.137 537.54-1265.235C5644.173 601.373 5042.8 0 4300.322 0Z"/></defs><path d="M7.195.836c.09 0 .176-.012.258-.035a23.86 23.86 0 0 1 3.231.008 10.26 10.26 0 0 1 2.836.636c1.519.625 2.558 1.711 3.121 3.254.316.93.507 1.887.566 2.867a21.227 21.227 0 0 1-.086 3.696 8.976 8.976 0 0 1-.672 2.488c-.637 1.383-1.672 2.336-3.101 2.859a11.693 11.693 0 0 1-3.575.618 15.998 15.998 0 0 1-4.089-.309c-2.481-.551-4.016-2.066-4.594-4.543a14.244 14.244 0 0 1-.336-3.383c-.027-1.211.101-2.41.387-3.59.609-2.312 2.078-3.746 4.406-4.3A10.27 10.27 0 0 1 7.195.836Z" style="fill:url(#f);fill-rule:evenodd;stroke:none" transform="scale(.35277)"/><path d="M3.2.265a8.8 8.8 0 0 0-.57.018.335.335 0 0 1-.092.012c-.195.015-.39.047-.581.094C1.136.584.617 1.09.403 1.906a4.848 4.848 0 0 0-.137 1.266c-.008.403.032.8.119 1.194.085.365.23.67.432.917l2.358-2.108 2.11-2.36A2.036 2.036 0 0 0 4.77.51a3.62 3.62 0 0 0-1-.225c-.19-.013-.38-.02-.57-.02Z" style="fill:#0f9d58;fill-opacity:1;fill-rule:nonzero;stroke:none;stroke-width:.352771"/><path d="M3.175 3.175 1.066 5.533c.251.207.564.353.94.435a5.756 5.756 0 0 0 1.442.11c.433-.008.853-.08 1.26-.219.218-.08.411-.189.578-.325z" style="fill:#4285f4;fill-opacity:1;fill-rule:nonzero;stroke:none;stroke-width:.352771"/><path d="m3.328 2.87-.536.458 2.327 2.327c.2-.13.368-.293.506-.49Z" style="fill:#eaeaea;fill-opacity:1;fill-rule:nonzero;stroke:none;stroke-width:.352771"/><path d="m5.166.724-4.44 4.44c.137.195.306.359.506.49l4.425-4.426c-.13-.2-.294-.368-.49-.504Z" style="fill:#f8d846;fill-opacity:1;fill-rule:nonzero;stroke:none;stroke-width:.352771"/><path d="M4.662.867c-.781 0-1.31.798-1.006 1.517l1.006 1.76 1.007-1.76A1.092 1.092 0 0 0 4.662.867Zm0 .765a.327.327 0 1 1 0 .655c-.437 0-.437-.655 0-.655z" style="fill:#db4437;fill-opacity:1;fill-rule:nonzero;stroke:none;stroke-width:.352771"/><path d="M5.033 1.953a.37.37 0 1 1-.742 0 .37.37 0 0 1 .742 0z" style="fill:#7b231e;fill-opacity:1;fill-rule:nonzero;stroke:none;stroke-width:.352771"/></svg>