<svg xmlns="http://www.w3.org/2000/svg" xmlns:xlink="http://www.w3.org/1999/xlink" xml:space="preserve" width="24" height="24" fill="none"><defs><radialGradient id="a" cx="0" cy="0" r="1" gradientTransform="matrix(0 22 -22 0 12 1)" gradientUnits="userSpaceOnUse"><stop offset=".004" stop-color="#8FC8FF" style="stop-color:#268bcf;stop-opacity:1"/><stop offset=".992" stop-color="#0056A8" style="stop-color:#268bcf;stop-opacity:1"/></radialGradient><radialGradient id="b" cx="0" cy="0" r="1" gradientTransform="matrix(0 22 -22 0 12 1)" gradientUnits="userSpaceOnUse"><stop offset="0" stop-color="#8FC8FF" style="stop-color:#f6f6f6;stop-opacity:1"/><stop offset="1" stop-color="#0056A8" style="stop-color:#cfcfcf;stop-opacity:1"/></radialGradient><radialGradient xlink:href="#a" id="c" cx=".179" cy="-1.748" r="1" fx=".179" fy="-1.748" gradientTransform="matrix(0 90.05947 -90.00681 0 -107.37 -11.19)" gradientUnits="userSpaceOnUse"/></defs><path d="M50 5C9.09 5 5 25.455 5 50c0 32.727 12.273 45 45 45 32.727 0 45-12.273 45-45 0-24.545-4.09-45-45-45Z" style="font-variation-settings:normal;display:inline;opacity:1;vector-effect:none;fill:url(#c);fill-opacity:1;stroke-width:4.56656;stroke-linecap:butt;stroke-linejoin:miter;stroke-miterlimit:4;stroke-dasharray:none;stroke-dashoffset:0;stroke-opacity:1;-inkscape-stroke:none;stop-color:#000;stop-opacity:1" transform="matrix(.24444 0 0 .24444 -.222 -.222)"/><g style="display:inline"><rect width="2" height="2" x="12" y="-3" rx="0" ry="0" style="display:inline;fill:#3947be;fill-opacity:1;stroke-width:22.6872;paint-order:markers stroke fill"/><rect width="2" height="2" x="9" y="-3" rx="0" ry="0" style="display:inline;fill:#6c7ad8;fill-opacity:1;stroke-width:22.6873;paint-order:markers stroke fill"/><rect width="2" height="2" x="6" y="-3" rx="0" ry="0" style="display:inline;fill:#3c3;fill-opacity:1;stroke-width:22.6873;paint-order:markers stroke fill"/><rect width="2" height="2" x="3" y="-3" rx="0" ry="0" style="display:inline;fill:#ffc328;fill-opacity:1;stroke-width:22.6872;paint-order:markers stroke fill"/><rect width="2" height="2" y="-3" rx="0" ry="0" style="display:inline;fill:#cc5e55;fill-opacity:1;stroke-width:22.6873;paint-order:markers stroke fill"/><rect width="2" height="2" x="-3" y="12" rx="0" ry="0" style="display:inline;fill:#0bb1cb;fill-opacity:1;stroke-width:22.6872;paint-order:markers stroke fill"/><rect width="2" height="2" x="-3" y="9" rx="0" ry="0" style="display:inline;fill:#2a92c9;fill-opacity:1;stroke-width:22.6873;paint-order:markers stroke fill"/><rect width="2" height="2" x="-3" y="6" rx="0" ry="0" style="display:inline;fill:#069;fill-opacity:1;stroke-width:22.6873;paint-order:markers stroke fill"/><rect width="2" height="2" x="-3" y="3" rx="0" ry="0" style="display:inline;fill:#002a44;fill-opacity:1;stroke-width:22.6873;paint-order:markers stroke fill"/><rect width="2" height="2" x="-3" rx="0" ry="0" style="display:inline;fill:#2c2d3d;fill-opacity:1;stroke-width:22.6873;paint-order:markers stroke fill"/><rect width="2" height="2" x="-3" y="-3" rx="0" ry="0" style="display:inline;fill:#16171c;fill-opacity:1;stroke-width:22.6872;paint-order:markers stroke fill"/></g><path fill="#fff" d="M6.943 6.168h3.112c.428 0 .776.349.776.776v3.113a.778.778 0 0 1-.776.776H6.943a.778.778 0 0 1-.776-.776V6.944c0-.427.348-.776.776-.776m6.999 7h3.112c.43 0 .776.348.776.775v3.113a.776.776 0 0 1-.776.776h-3.112a.776.776 0 0 1-.776-.776v-3.113c0-.427.348-.776.776-.776m0 0"/><g fill="#ffcf36"><path d="M6.165 11.999A1.164 1.164 0 0 0 5 13.167v4.665C5 18.48 5.519 19 6.167 19h4.664C11.48 19 12 18.48 12 17.832v-4.665A1.164 1.164 0 0 0 10.83 12m-4.664.584h4.664c.324 0 .585.26.585.584v4.665a.582.582 0 0 1-.585.584H6.167a.582.582 0 0 1-.584-.584v-4.665c0-.324.26-.584.584-.584m0 0"/><path d="M6.749 13.167h3.5c.322 0 .582.26.582.582v3.5a.584.584 0 0 1-.582.583h-3.5a.584.584 0 0 1-.582-.582v-3.5c0-.323.262-.583.582-.583M13.166 5a1.164 1.164 0 0 0-1.169 1.168v4.665c0 .648.52 1.168 1.169 1.168h4.664c.648 0 1.169-.52 1.169-1.168V6.168A1.164 1.164 0 0 0 17.83 5m-4.664.584h4.664c.324 0 .584.26.584.584v4.665a.582.582 0 0 1-.584.584h-4.664a.582.582 0 0 1-.584-.584V6.168c0-.324.26-.584.584-.584m0 0"/><path d="M13.748 6.168h3.5c.322 0 .582.26.582.582v3.5a.584.584 0 0 1-.582.583h-3.5a.584.584 0 0 1-.582-.582v-3.5c0-.323.262-.583.582-.583m0 0"/></g></svg>