<svg xmlns="http://www.w3.org/2000/svg" width="24" height="24" viewBox="0 0 6.35 6.35"><defs><radialGradient id="a" cx="0" cy="0" r="1" fx="0" fy="0" gradientTransform="rotate(90 1.455 1.72) scale(5.82072)" gradientUnits="userSpaceOnUse" spreadMethod="pad"><stop offset="0" style="stop-color:#fafafa;stop-opacity:.5"/><stop offset="1" style="stop-color:silver;stop-opacity:0"/></radialGradient></defs><path d="M.934.934c-.25.25-.427.574-.531.972-.101.416-.147.84-.137 1.266-.009.403.032.8.118 1.194.102.433.286.782.552 1.049l2.24-2.24Z" style="fill:#e41c1c;fill-opacity:1;stroke-width:.962;paint-order:markers stroke fill"/><path d="M5.417.933 3.175 3.175l2.24 2.24c.157-.158.287-.345.388-.564.121-.281.2-.574.237-.878.048-.434.057-.868.03-1.304a3.852 3.852 0 0 0-.2-1.011 1.95 1.95 0 0 0-.453-.725Z" style="fill:#84de2c;fill-opacity:1;stroke-width:.962;paint-order:markers stroke fill"/><path d="M3.175 3.175.936 5.415c.271.27.628.455 1.069.553.477.098.957.135 1.442.109.433-.007.854-.08 1.262-.218.278-.102.513-.25.706-.444Z" style="fill:#8c638e;fill-opacity:1;stroke-width:.962;paint-order:markers stroke fill"/><path d="M3.2.265c-.19-.001-.38.005-.57.018a.335.335 0 0 1-.092.012c-.195.015-.39.047-.581.094-.42.1-.762.282-1.023.545l2.241 2.241L5.417.933A1.965 1.965 0 0 0 4.77.51a3.62 3.62 0 0 0-1-.225c-.19-.013-.38-.02-.57-.02Z" style="fill:#6f9ccd;fill-opacity:1;stroke-width:.962;paint-order:markers stroke fill"/><path d="M2.538.295A.335.335 0 0 0 2.63.283c.38-.025.76-.024 1.14.002a3.62 3.62 0 0 1 1 .225c.536.22.903.603 1.101 1.148.112.328.18.665.2 1.011.028.436.018.87-.03 1.304a3.166 3.166 0 0 1-.237.878c-.225.487-.59.824-1.094 1.008a4.125 4.125 0 0 1-1.261.218 5.644 5.644 0 0 1-1.443-.109C1.13 5.774.588 5.24.385 4.366a5.025 5.025 0 0 1-.12-1.194c-.009-.427.036-.85.137-1.266C.617 1.09 1.135.584 1.957.389c.191-.047.386-.079.581-.094Z" style="fill:url(#a);fill-rule:evenodd;stroke:none;stroke-width:.35277"/><path fill="#fff" d="M3.206 2.145c-.143 0-.229-.128-.246-.365.075-.105.162-.145.233-.145.138 0 .205.097.205.25 0 .156-.083.26-.192.26zm.305-.953a.35.35 0 0 0-.265-.116c-.22 0-.421.171-.421.616 0 .376.161.564.38.564.177 0 .326-.15.326-.37 0-.237-.123-.356-.315-.356-.09 0-.19.052-.259.138.006-.354.138-.474.293-.474a.241.241 0 0 1 .183.087z" aria-label="6" font-family="sans-serif" font-size="3.528" font-weight="400" letter-spacing="0" style="stroke-width:.962" word-spacing="0"/><path fill="#fff" d="M1.063 3.745h.715v-.123h-.315c-.057 0-.127.006-.186.011.267-.253.446-.484.446-.71 0-.204-.128-.338-.331-.338-.145 0-.242.067-.335.168l.082.08c.062-.074.143-.131.236-.131.141 0 .21.094.21.225 0 .195-.165.422-.522.734z" aria-label="2" font-family="sans-serif" font-size="3.528" font-weight="400" letter-spacing="0" style="stroke-width:.962" word-spacing="0"/><path fill="#fff" d="M4.904 3.765c.192 0 .372-.141.372-.391s-.154-.362-.343-.362a.327.327 0 0 0-.169.045l.028-.329h.43v-.12h-.554l-.036.531.076.047a.311.311 0 0 1 .19-.066c.142 0 .235.096.235.258 0 .167-.108.27-.242.27a.373.373 0 0 1-.279-.127l-.07.094c.076.076.185.15.362.15Z" aria-label="5" font-family="sans-serif" font-size="3.528" font-weight="400" letter-spacing="0" style="stroke-width:.962" word-spacing="0"/><path fill="#fff" d="M3.045 5.244h.149c.016-.445.066-.709.333-1.052v-.085h-.713v.12h.552c-.222.311-.301.586-.32 1.017Z" aria-label="7" font-family="sans-serif" font-size="3.528" font-weight="400" letter-spacing="0" style="stroke-width:.962" word-spacing="0"/></svg>