<svg xmlns="http://www.w3.org/2000/svg" xmlns:xlink="http://www.w3.org/1999/xlink" xml:space="preserve" width="24" height="24"><defs><linearGradient id="i"><stop offset="0" style="stop-color:#1bc170;stop-opacity:1"/><stop offset="1" style="stop-color:#178951;stop-opacity:1"/></linearGradient><linearGradient id="a" x1="45.448" x2="45.448" y1="92.54" y2="7.017" gradientTransform="matrix(1.00587 0 0 .99417 100 0)" gradientUnits="userSpaceOnUse"><stop offset="0" style="stop-color:#000;stop-opacity:1"/><stop offset="1" style="stop-color:#000;stop-opacity:.58823532"/></linearGradient><linearGradient id="b"><stop offset="0" style="stop-color:#fff;stop-opacity:1"/><stop offset="1" style="stop-color:#fff;stop-opacity:0"/></linearGradient><linearGradient id="c"><stop offset="0" style="stop-color:#000;stop-opacity:1"/><stop offset="1" style="stop-color:#fff;stop-opacity:.2"/></linearGradient><linearGradient id="d"><stop offset="0" style="stop-color:#f4b400;stop-opacity:1"/><stop offset="1" style="stop-color:#ffc523;stop-opacity:1"/></linearGradient><linearGradient id="e"><stop offset="0" style="stop-color:#50a8e3;stop-opacity:1"/><stop offset="1" style="stop-color:#82c3ef;stop-opacity:1"/></linearGradient><linearGradient id="f"><stop offset="0" style="stop-color:#1eb36a;stop-opacity:1"/><stop offset="1" style="stop-color:#19cc75;stop-opacity:1"/></linearGradient><linearGradient id="g"><stop offset="0" style="stop-color:#d03a30;stop-opacity:1"/><stop offset="1" style="stop-color:#dc4c42;stop-opacity:1"/></linearGradient><linearGradient id="h"><stop offset="0" style="stop-color:#2b72ea;stop-opacity:1"/><stop offset="1" style="stop-color:#508aec;stop-opacity:1"/></linearGradient><radialGradient xlink:href="#i" id="j" cx="9" cy="5.028" r="8.25" fx="9" fy="3.84" gradientTransform="matrix(1.48212 0 0 1.48213 -4.34 -4.882)" gradientUnits="userSpaceOnUse"/><radialGradient xlink:href="#i" id="m" cx="9" cy="5.028" r="8.25" fx="9" fy="3.84" gradientTransform="matrix(1.48212 0 0 1.48213 -4.34 -4.882)" gradientUnits="userSpaceOnUse"/><radialGradient xlink:href="#i" id="l" cx="9" cy="5.028" r="8.25" fx="9" fy="3.84" gradientTransform="matrix(1.48212 0 0 1.48213 -4.34 -4.882)" gradientUnits="userSpaceOnUse"/><radialGradient xlink:href="#i" id="k" cx="9" cy="5.028" r="8.25" fx="9" fy="3.84" gradientTransform="matrix(1.48212 0 0 1.48213 -4.34 -4.882)" gradientUnits="userSpaceOnUse"/></defs><g style="fill:url(#j);fill-opacity:1"><g style="fill:url(#k);fill-opacity:1" transform="matrix(1.33333 0 0 1.33333 0 0)"><g style="fill:url(#l);fill-opacity:1"><path d="M9.07.75c-.539 0-1.078.016-1.617.051a.951.951 0 0 1-.258.035 10.27 10.27 0 0 0-1.648.266c-2.328.554-3.797 1.988-4.406 4.3a13.877 13.877 0 0 0-.387 3.59c-.024 1.141.09 2.27.336 3.383.578 2.477 2.113 3.992 4.594 4.543 1.351.277 2.714.383 4.089.309a11.693 11.693 0 0 0 3.575-.618c1.429-.523 2.464-1.476 3.101-2.859a8.976 8.976 0 0 0 .672-2.488c.137-1.231.164-2.461.086-3.696-.059-.98-.25-1.937-.566-2.867-.563-1.543-1.602-2.629-3.121-3.254a10.26 10.26 0 0 0-2.836-.636A22.317 22.317 0 0 0 9.07.75Z" style="fill:url(#m);fill-opacity:1;stroke:none"/></g></g></g><path d="M-5.583 5.048c-3.24 3.776-6.484 7.547-9.723 11.323-2.084-2.084-4.163-4.167-6.25-6.245a1439.837 1439.837 0 0 0-4.735 4.73c.057.318.114.64.188.958.068.297.15.582.244.86 1.433-1.402 2.86-2.808 4.292-4.215 2.114 2.115 4.224 4.235 6.349 6.339 3.407-3.974 6.817-7.948 10.224-11.927-.11-.432-.23-.864-.375-1.292a12.213 12.213 0 0 0-.214-.53z" style="fill:#fff;fill-opacity:1;fill-rule:nonzero;stroke:none;stroke-width:1.33333" transform="translate(27.556 .686)"/><path d="M-4.994 6.876c-.417.484-.661.776-1.65 1.922-2.855 3.333-5.715 6.666-8.574 10-2.125-2.104-4.235-4.224-6.35-6.339-1.431 1.407-2.858 2.813-4.291 4.215.912 2.79 2.87 4.53 5.88 5.197 1.802.37 3.62.51 5.453.412a15.591 15.591 0 0 0 4.767-.824c1.905-.697 3.285-1.968 4.134-3.812.459-1.063.756-2.167.896-3.317.183-1.642.219-3.282.115-4.928a14.689 14.689 0 0 0-.38-2.526z" style="fill:#000;fill-opacity:.235294;fill-rule:nonzero;stroke:none;stroke-width:1.33333" transform="translate(27.556 .686)"/></svg>