<svg xmlns="http://www.w3.org/2000/svg" width="24" height="24"><path d="M12 1C2 1 1 6 1 12c0 8 3 11 11 11s11-3 11-11c0-6-1-11-11-11Z" style="font-variation-settings:normal;display:inline;vector-effect:none;fill:#4b69a4;fill-opacity:1;stroke-width:1.11627;stroke-linecap:butt;stroke-linejoin:miter;stroke-miterlimit:4;stroke-dasharray:none;stroke-dashoffset:0;stroke-opacity:1;-inkscape-stroke:none;stop-color:#000"/><g style="stroke-width:3.35013"><path d="M21.382 30.132c-6.922 0-12.596 5.674-12.596 12.596s5.674 12.596 12.596 12.596 12.596-5.674 12.596-12.596V30.132Zm0 5.786h6.81v6.81a6.772 6.772 0 0 1-6.81 6.81 6.772 6.772 0 0 1-6.81-6.81 6.772 6.772 0 0 1 6.81-6.81z" color="#000" opacity=".35" style="font-variant-ligatures:normal;font-variant-position:normal;font-variant-caps:normal;font-variant-numeric:normal;font-variant-alternates:normal;font-variant-east-asian:normal;font-feature-settings:normal;font-variation-settings:normal;text-indent:0;text-decoration-line:none;text-decoration-style:solid;text-decoration-color:#000;text-transform:none;text-orientation:mixed;white-space:normal;shape-padding:0;shape-margin:0;inline-size:0;isolation:auto;mix-blend-mode:normal;stroke-width:3.35013" transform="matrix(.268 0 0 .26709 3.675 3.177)"/><path d="M40.743 10.746c-6.922 0-12.6 5.674-12.6 12.596v12.596h12.6c6.922 0 12.596-5.674 12.596-12.596s-5.674-12.596-12.596-12.596zm0 5.786a6.772 6.772 0 0 1 6.81 6.81 6.772 6.772 0 0 1-6.81 6.81h-6.814v-6.81a6.775 6.775 0 0 1 6.814-6.81z" color="#000" opacity=".35" style="font-variant-ligatures:normal;font-variant-position:normal;font-variant-caps:normal;font-variant-numeric:normal;font-variant-alternates:normal;font-variant-east-asian:normal;font-feature-settings:normal;font-variation-settings:normal;text-indent:0;text-decoration-line:none;text-decoration-style:solid;text-decoration-color:#000;text-transform:none;text-orientation:mixed;white-space:normal;shape-padding:0;shape-margin:0;inline-size:0;isolation:auto;mix-blend-mode:normal;stroke-width:3.35013" transform="matrix(.268 0 0 .26709 3.675 3.177)"/><path fill="#fff" d="M12.801 11.208v3.377a3.39 3.39 0 0 1-3.396 3.385 2.71 2.71 0 0 1-.75-.1c-.384-.101-.698-.415-.698-.78 0-.441.321-.762.802-.762.228 0 .311.044.646.044a1.793 1.787 0 0 0 1.793-1.784v-1.552a.253.252 0 0 0-.253-.252H9.767a.789.786 0 0 1-.793-.787.79.79 0 0 1 .801-.789"/><path fill="#fff" d="M11.198 12.792V9.415a3.39 3.39 0 0 1 3.396-3.385c.285 0 .487.032.75.1.384.101.698.415.698.78 0 .441-.321.762-.802.762-.228 0-.311-.044-.646-.044a1.793 1.787 0 0 0-1.793 1.784v1.552a.253.252 0 0 0 .254.252h1.177a.789.786 0 0 1 .794.787.79.79 0 0 1-.802.789"/></g></svg>