<svg xmlns="http://www.w3.org/2000/svg" width="24" height="24" fill="none"><path fill="url(#a)" fill-rule="evenodd" d="M9.596 1.114c.12 0 .234-.014.344-.046a31.637 31.637 0 0 1 4.307.011c1.301.102 2.561.384 3.78.847 2.025.834 3.412 2.28 4.158 4.34.427 1.24.679 2.514.756 3.824a27.94 27.94 0 0 1-.114 4.923 11.88 11.88 0 0 1-.894 3.32c-.85 1.843-2.229 3.114-4.135 3.813a15.624 15.624 0 0 1-4.765.825 21.413 21.413 0 0 1-5.453-.412c-3.312-.738-5.354-2.757-6.128-6.057a19.045 19.045 0 0 1-.447-4.511 18.49 18.49 0 0 1 .515-4.786c.812-3.086 2.77-4.998 5.877-5.736a13.953 13.953 0 0 1 2.2-.355Z" clip-rule="evenodd"/><path fill="#FBBC05" d="M5.945 6.784a7.917 7.917 0 0 0-1.68 3.144 7.846 7.846 0 0 0-.261 1.879 7.815 7.815 0 0 0 1.94 5.405l1.643-2.211a5.254 5.254 0 0 1-.918-2.764c-.002-.085-.007-.167-.007-.25l.005-.148a5.317 5.317 0 0 1 .92-2.844L5.945 6.784Z"/><path fill="#34A853" d="M6.96 13.761 4.8 15.47a8.027 8.027 0 0 0 7.192 4.528c.644 0 1.266-.084 1.864-.229l.032-.006.011-.002a8.58 8.58 0 0 0 .776-.231l.03-.009.004-.002a7.91 7.91 0 0 0 3.883-3.026l-2.561-1.015a5.343 5.343 0 0 1-1.348 1.121l-.047.028c-.383.22-.792.391-1.218.508l-.035.008a5.367 5.367 0 0 1-1.393.186 5.308 5.308 0 0 1-5.03-3.568Z"/><path fill="#4285F4" d="M11.999 10.665v2.664h5.165a5.307 5.307 0 0 1-2.29 3.164l2.159 1.709A7.99 7.99 0 0 0 20 11.996c0-.454-.047-.899-.12-1.332h-7.881Z"/><path fill="#EA4335" d="M11.992 4a8.012 8.012 0 0 0-7.191 4.527l2.16 1.71a5.308 5.308 0 0 1 5.031-3.572c1.367 0 2.605.51 3.544 1.348l1.875-1.875A7.958 7.958 0 0 0 11.992 4Z"/><defs><radialGradient id="a" cx="0" cy="0" r="1" gradientTransform="matrix(0 22 -22 0 12 1)" gradientUnits="userSpaceOnUse"><stop stop-color="#FAFAFA"/><stop offset="1" stop-color="silver"/></radialGradient></defs></svg>