<svg xmlns="http://www.w3.org/2000/svg" xml:space="preserve" width="24" height="24" fill="none"><defs><radialGradient id="a" cx="0" cy="0" r="1" gradientTransform="matrix(0 22 -22 0 12 1)" gradientUnits="userSpaceOnUse"><stop offset="0" stop-color="#8FC8FF" style="stop-color:#f6f6f6;stop-opacity:1"/><stop offset="1" stop-color="#0056A8" style="stop-color:#cfcfcf;stop-opacity:1"/></radialGradient></defs><path d="M50 5C9.09 5 5 25.455 5 50c0 32.727 12.273 45 45 45 32.727 0 45-12.273 45-45 0-24.545-4.09-45-45-45Z" style="font-variation-settings:normal;display:inline;opacity:1;vector-effect:none;fill:#ee4055;fill-opacity:1;stroke-width:4.56656;stroke-linecap:butt;stroke-linejoin:miter;stroke-miterlimit:4;stroke-dasharray:none;stroke-dashoffset:0;stroke-opacity:1;-inkscape-stroke:none;stop-color:#000;stop-opacity:1" transform="matrix(.24444 0 0 .24444 -.222 -.222)"/><g style="display:inline"><rect width="2" height="2" x="12" y="-3" rx="0" ry="0" style="display:inline;fill:#3947be;fill-opacity:1;stroke-width:22.6872;paint-order:markers stroke fill"/><rect width="2" height="2" x="9" y="-3" rx="0" ry="0" style="display:inline;fill:#6c7ad8;fill-opacity:1;stroke-width:22.6873;paint-order:markers stroke fill"/><rect width="2" height="2" x="6" y="-3" rx="0" ry="0" style="display:inline;fill:#3c3;fill-opacity:1;stroke-width:22.6873;paint-order:markers stroke fill"/><rect width="2" height="2" x="3" y="-3" rx="0" ry="0" style="display:inline;fill:#ffc328;fill-opacity:1;stroke-width:22.6872;paint-order:markers stroke fill"/><rect width="2" height="2" y="-3" rx="0" ry="0" style="display:inline;fill:#cc5e55;fill-opacity:1;stroke-width:22.6873;paint-order:markers stroke fill"/><rect width="2" height="2" x="-3" y="12" rx="0" ry="0" style="display:inline;fill:#0bb1cb;fill-opacity:1;stroke-width:22.6872;paint-order:markers stroke fill"/><rect width="2" height="2" x="-3" y="9" rx="0" ry="0" style="display:inline;fill:#2a92c9;fill-opacity:1;stroke-width:22.6873;paint-order:markers stroke fill"/><rect width="2" height="2" x="-3" y="6" rx="0" ry="0" style="display:inline;fill:#069;fill-opacity:1;stroke-width:22.6873;paint-order:markers stroke fill"/><rect width="2" height="2" x="-3" y="3" rx="0" ry="0" style="display:inline;fill:#002a44;fill-opacity:1;stroke-width:22.6873;paint-order:markers stroke fill"/><rect width="2" height="2" x="-3" rx="0" ry="0" style="display:inline;fill:#2c2d3d;fill-opacity:1;stroke-width:22.6873;paint-order:markers stroke fill"/><rect width="2" height="2" x="-3" y="-3" rx="0" ry="0" style="display:inline;fill:#16171c;fill-opacity:1;stroke-width:22.6872;paint-order:markers stroke fill"/></g><g transform="translate(15.52 9.919) scale(.29623)"><circle cx="-11.879" cy="7.029" r="26" fill="#fff" fill-rule="evenodd" style="stroke-width:3.7796;paint-order:normal"/><g stroke-width=".178"><path fill="#ee4055" d="M-25.168-3.758c-1.512 0-2.948.212-3.806 1.206-1.323 1.512-.805 4.536-.805 6.372 0 2.813-.193 5.798.378 8.573.616 2.963 2.778 6.18 5.208 8.19 1.762 1.451 3.652 2.487 5.836 3.33a19.314 19.314 0 0 0 6.335 1.107c1.969 0 3.942-.208 5.817-.801a20.055 20.055 0 0 0 5.43-2.62c1.664-1.284 3.01-2.547 4.083-4.153a19.257 19.257 0 0 0 1.89-3.787c1.183-3.258.842-7.083.842-10.47 0-1.53.401-4.286-.63-5.59C3.86-4.35.412-3.659-2.15-3.659h-19.692c-.975 0-2.162-.133-3.326-.133Zm21.809 8.346c.423 0 .846.113 1.307.378 1.032.616 1.357 2.109.628 3.023-.67.866-1.663 1.55-2.506 2.26l-4.347 3.769c-.952.865-1.946 2.071-3.364 2.2-1.413.136-2.354-.915-3.269-1.739l-4.554-3.961c-.945-.764-2.26-1.625-2.91-2.623-.923-1.399.15-3.08 1.817-3.288 1.074-.133 1.818.46 2.563 1.073l4.248 3.674c.439.378 1.164 1.372 1.777 1.451.691.098 1.746-1.266 2.184-1.648l3.156-2.713C-5.71 5.62-4.64 4.569-3.37 4.569"/><path fill="#51bbb7" d="m-25.961-12.288 3.9-2.238a24.053 24.053 0 0 1 10.08-2.196v-3.246c-3.689.29-7.18.756-10.62 2.237-.873.378-2.748.938-3.25 1.788-.477.809-.114 2.721-.114 3.655z"/><path fill="#ef4155" d="M-11.977-19.968v3.246a23.396 23.396 0 0 1 9.751 2.087L2-12.288c0-.934.4-3.054-.11-3.836-.502-.775-2.305-1.308-3.137-1.664a27.587 27.587 0 0 0-10.734-2.18Z"/><path fill="#fbb74b" d="M2-16.075c0 1.039-.34 2.797.068 3.757.265.627 1.247 1.122 1.746 1.568 1.225 1.108 2.4 2.317 3.372 3.666 2.657 3.67 4.671 8.365 4.679 12.98.007 5.128-1.05 9.94-3.912 14.286a23.925 23.925 0 0 1-3.666 4.298c-.597.555-1.898 1.255-2.219 2.01-.397.934-.068 2.635-.068 3.648 3.054-1.157 5.889-4.396 7.797-6.924 7.106-9.465 7.106-22.905 0-32.361C7.89-11.68 5.054-14.92 2-16.075z"/><path fill="#83edb9" d="M-26.071-15.966c-3.413 2.302-6.35 4.96-8.595 8.44-6.074 9.419-5.495 21.918 1.21 30.842 1.92 2.555 4.558 5.329 7.495 6.712 0-.982.32-2.634-.065-3.537-.317-.73-1.53-1.327-2.105-1.879a25.74 25.74 0 0 1-3.783-4.433 24.091 24.091 0 0 1-3.9-14.828 23.827 23.827 0 0 1 5.343-13.308l2.665-2.782 1.731-1.492c.39-.632.287-3.062 0-3.735z"/><path fill="#51bbb7" d="M-25.961 26.457c0 .91-.356 2.759.113 3.552.499.85 2.374 1.406 3.25 1.784 3.436 1.478 6.925 1.95 10.621 2.238v-3.137a23.592 23.592 0 0 1-10.409-2.355c-1.066-.522-2.51-1.134-3.25-2.079z"/><path fill="#ef4155" d="M-11.977 30.894v3.137c3.64 0 7.378-.745 10.73-2.181.832-.351 2.635-.884 3.137-1.663.5-.767.114-2.82.114-3.73l-4.23 2.347a23.396 23.396 0 0 1-9.75 2.09M6.77 26.457l.113.105z"/></g></g></svg>