<svg xmlns="http://www.w3.org/2000/svg" xml:space="preserve" width="24" height="24" viewBox="0 0 6.35 6.35"><defs><linearGradient id="a" x1="12" x2="12" y1="1" y2="23" gradientTransform="matrix(.75 0 0 .75 0 0)" gradientUnits="userSpaceOnUse" spreadMethod="pad"><stop offset="0" style="stop-opacity:1;stop-color:#ff5f5f"/><stop offset="1" style="stop-opacity:1;stop-color:#e82e34"/></linearGradient></defs><path d="M7.195.836c.09 0 .176-.012.258-.035a23.86 23.86 0 0 1 3.231.008 10.26 10.26 0 0 1 2.836.636c1.519.625 2.558 1.711 3.121 3.254.316.93.507 1.887.566 2.867a21.227 21.227 0 0 1-.086 3.696 8.976 8.976 0 0 1-.672 2.488c-.637 1.383-1.672 2.336-3.101 2.859a11.693 11.693 0 0 1-3.575.618 15.998 15.998 0 0 1-4.089-.309c-2.481-.551-4.016-2.066-4.594-4.543a14.244 14.244 0 0 1-.336-3.383c-.027-1.215.101-2.41.387-3.59.609-2.312 2.078-3.746 4.406-4.3A10.27 10.27 0 0 1 7.195.836Z" style="fill:url(#a);fill-rule:evenodd;stroke:none" transform="scale(.35277)"/><path fill="#fff" d="M2.196 4.384a1.28 1.28 0 0 1-.315-.102 1.232 1.232 0 0 1-.562-1.659c.345-.713 1.287-.895 1.854-.358.164.155.237.288.484.875.258.614.306.71.389.792.089.087.172.116.33.116.262 0 .448-.16.448-.386 0-.19-.067-.25-.408-.372-.52-.187-.688-.356-.689-.696 0-.182.047-.303.163-.428.168-.179.457-.238.713-.149.11.038.338.24.338.299 0 .028-.132.113-.206.134-.039.01-.072-.003-.117-.046-.09-.087-.152-.114-.26-.114-.188 0-.304.113-.304.295 0 .181.074.242.443.367.509.172.659.327.662.686a.68.68 0 0 1-.414.666c-.127.06-.17.067-.376.067-.295 0-.427-.055-.592-.24-.111-.126-.224-.36-.585-1.219-.15-.355-.342-.53-.662-.598a.883.883 0 0 0-.535.075.991.991 0 0 0-.38.4c-.063.126-.069.16-.069.38 0 .208.008.258.061.372.08.175.235.336.407.424.125.062.163.07.361.07.19 0 .24-.01.353-.063a1.09 1.09 0 0 0 .374-.335l.037-.06.073.166c.04.092.073.179.073.194 0 .046-.164.196-.315.29a1.148 1.148 0 0 1-.773.156m0 0" style="stroke-width:.468754"/></svg>