<svg xmlns="http://www.w3.org/2000/svg" xml:space="preserve" width="24" height="24" viewBox="0 0 6.35 6.35"><defs><linearGradient id="a" x1="12" x2="12.438" y1="66.125" y2="-2.188" gradientTransform="matrix(.06467 0 0 .06467 16.291 -.059)" gradientUnits="userSpaceOnUse" spreadMethod="pad"><stop offset="0" style="stop-opacity:1;stop-color:#1c2d44"/><stop offset="1" style="stop-opacity:1;stop-color:#2d466c"/></linearGradient></defs><path d="M19.525.265c-2.646 0-2.91 1.322-2.91 2.91 0 2.117.793 2.91 2.91 2.91 2.116 0 2.91-.793 2.91-2.91 0-1.588-.264-2.91-2.91-2.91z" style="fill:url(#a);stroke:none;stroke-width:.352771" transform="translate(-16.35)"/><path d="M18.972 2.664a.288.288 0 0 1-.295.295.287.287 0 0 1-.294-.295.289.289 0 0 1 .294-.297c.168 0 .303.135.295.297zm-.295.981a.53.53 0 0 1-.541.518.528.528 0 0 1-.54-.518.528.528 0 0 1 .54-.535c.307 0 .552.243.541.535z" style="fill:#fff;fill-opacity:1;fill-rule:nonzero;stroke:#1c2d44;stroke-width:.105831;stroke-linecap:butt;stroke-linejoin:miter;stroke-miterlimit:4;stroke-dasharray:none;stroke-opacity:1" transform="translate(-16.35)"/><path d="M19.33 3.302c0 .308-.261.56-.584.56a.573.573 0 0 1-.584-.562c-.001-.308.26-.558.584-.559.323.001.584.25.584.56zm1.15-.228c-.03.66-1.051.66-1.082 0a.53.53 0 0 1 .54-.518c.3 0 .542.233.542.518z" style="fill:#fff;fill-opacity:1;fill-rule:nonzero;stroke:#1c2d44;stroke-width:.105831;stroke-linecap:butt;stroke-linejoin:miter;stroke-miterlimit:4;stroke-dasharray:none;stroke-opacity:1" transform="translate(-16.35)"/><path d="M19.886 2.672a.528.528 0 0 1-.54.535.53.53 0 0 1-.542-.535c.025-.666 1.058-.666 1.082 0zm1.57 1.174c0 .163-.14.295-.31.295a.303.303 0 0 1-.31-.295c0-.395.62-.395.62 0z" style="fill:#fff;fill-opacity:1;fill-rule:nonzero;stroke:#1c2d44;stroke-width:.105831;stroke-linecap:butt;stroke-linejoin:miter;stroke-miterlimit:4;stroke-dasharray:none;stroke-opacity:1" transform="translate(-16.35)"/><path d="M21.072 3.617a.571.571 0 0 1-.584.56.57.57 0 0 1-.584-.56.572.572 0 0 1 .584-.571c.328 0 .593.258.584.571zm-2.053.257c0 .394-.617.394-.617 0 0-.393.617-.393.617 0z" style="fill:#fff;fill-opacity:1;fill-rule:nonzero;stroke:#1c2d44;stroke-width:.105831;stroke-linecap:butt;stroke-linejoin:miter;stroke-miterlimit:4;stroke-dasharray:none;stroke-opacity:1" transform="translate(-16.35)"/><path d="M20.269 3.452c0 .394-.334.714-.746.714s-.745-.32-.745-.714c0-.394.333-.714.745-.714s.746.32.746.714z" style="fill:#fff;fill-opacity:1;fill-rule:nonzero;stroke:#1c2d44;stroke-width:.105831;stroke-linecap:butt;stroke-linejoin:miter;stroke-miterlimit:4;stroke-dasharray:none;stroke-opacity:1" transform="translate(-16.35)"/></svg>