<svg xmlns="http://www.w3.org/2000/svg" xml:space="preserve" width="24" height="24" viewBox="0 0 6.35 6.35"><defs><radialGradient id="a" cx="0" cy="0" r="1" fx="0" fy="0" gradientTransform="matrix(0 16.5 -16.5 0 9 .75)" gradientUnits="userSpaceOnUse" spreadMethod="pad"><stop offset="0" style="stop-color:#fff;stop-opacity:1"/><stop offset="1" style="stop-color:#478cbf;stop-opacity:1"/></radialGradient></defs><path d="M7.195.836c.09 0 .176-.012.258-.035a23.86 23.86 0 0 1 3.231.008 10.26 10.26 0 0 1 2.836.636c1.519.625 2.558 1.711 3.121 3.254.316.93.507 1.887.566 2.867a21.227 21.227 0 0 1-.086 3.696 8.976 8.976 0 0 1-.672 2.488c-.637 1.383-1.672 2.336-3.101 2.859a11.693 11.693 0 0 1-3.575.618 15.998 15.998 0 0 1-4.089-.309c-2.481-.551-4.016-2.066-4.594-4.543a14.244 14.244 0 0 1-.336-3.383c-.027-1.211.101-2.41.387-3.59.609-2.312 2.078-3.746 4.406-4.3A10.27 10.27 0 0 1 7.195.836Z" style="fill:url(#a);fill-rule:evenodd;stroke:none;stroke-width:.99975004;stroke-dasharray:none" transform="translate(.022 -.08) scale(.35277)"/><g style="stroke-width:.787417;stroke-dasharray:none"><path fill="#fff" d="M0 0s-.325 1.994-.515 1.976l-36.182-3.491a5.88 5.88 0 0 1-5.317-5.459l-.994-14.247L-71-23.218l-1.904 12.912c-.424 2.872-2.932 5.037-5.835 5.037h-38.188c-2.902 0-5.41-2.165-5.834-5.037l-1.905-12.912-27.992 1.997-.994 14.247a5.881 5.881 0 0 1-5.317 5.46l-36.2 3.49c-.187.018-.324-1.978-.511-1.978l-.049-7.83 30.658-4.944 1.004-14.374c.203-2.91 2.551-5.263 5.463-5.472l38.551-2.75c.146-.01.29-.016.434-.016 2.897 0 5.401 2.166 5.825 5.038l1.959 13.286h28.005l1.959-13.286c.423-2.871 2.93-5.037 5.831-5.037.142 0 .284.005.423.015l38.556 2.75c2.911.209 5.26 2.562 5.463 5.472l1.003 14.374L.05-7.81z" style="stroke-width:1.9195;stroke-dasharray:none" transform="matrix(.01562 0 0 -.01498 4.725 3.664)"/><path fill="#fff" d="M40.764 1026.7a2.574 2.574 0 0 0-.666.064c-4.332.963-8.688 2.318-12.83 4.402a2.773 2.773 0 0 0-1.525 2.55c.074 2.886.326 5.694.644 8.529-1.077.645-2.154 1.232-3.342 2.185-.845.65-1.788 1.473-2.71 2.236-2.15-1.349-4.32-2.692-6.62-3.85a2.773 2.773 0 0 0-3.279.59c-3.126 3.365-6.098 7.047-8.553 11.224a2.773 2.773 0 0 0 .034 2.863c1.623 2.625 3.351 5.08 5.171 7.459v29.805c0 8.223 5.472 14.496 13.3 18.238 7.826 3.742 18.184 5.452 29.575 5.492h.075c11.39-.04 21.749-1.75 29.574-5.492 7.825-3.743 13.295-10.016 13.295-18.238l.004-29.031c1.848-2.712 3.382-5.334 5.173-8.23.54-.875.553-1.976.034-2.862-2.454-4.177-5.429-7.86-8.555-11.225a2.773 2.773 0 0 0-3.277-.59c-2.299 1.157-4.47 2.502-6.62 3.852-.922-.764-1.862-1.588-2.71-2.239-.004 0-.007 0-.01-.01-1.186-.95-2.259-1.537-3.332-2.18.317-2.833.57-5.642.644-8.529a2.773 2.773 0 0 0-1.525-2.548c-4.142-2.085-8.498-3.44-12.832-4.403a2.773 2.773 0 0 0-2.985 1.29c-1.4 2.353-2.601 4.855-3.763 7.325-1.035-.094-2.086-.238-3.088-.25h-.127c-1.004.012-2.056.156-3.092.25-1.115-2.372-2.277-4.764-3.615-7.035a2.773 2.773 0 0 0-2.467-1.646z" style="stroke-width:.787417;stroke-dasharray:none" transform="matrix(.03808 0 0 .03653 1.293 -36.084)"/><path fill="#478cbf" d="M40.699 1029.4c-4.178.929-8.31 2.222-12.185 4.172.089 3.421.31 6.7.758 10.029-1.505.964-3.086 1.791-4.491 2.92-1.428 1.098-2.887 2.15-4.18 3.434a80.027 80.027 0 0 0-8.134-4.731c-3.036 3.267-5.874 6.794-8.193 10.74 1.744 2.822 3.566 5.468 5.532 7.978h.055v24.22c.045 0 .089 0 .133.01l14.848 1.432a1.599 1.599 0 0 1 1.441 1.48l.458 6.555 12.952.924.893-6.05a1.599 1.599 0 0 1 1.581-1.365h15.665c.793 0 1.466.581 1.582 1.365l.892 6.05 12.953-.924.458-6.555a1.6 1.6 0 0 1 1.441-1.48L90 1088.172c.044 0 .088-.01.132-.01v-1.932h.006v-22.285h.055c1.967-2.511 3.787-5.157 5.533-7.979-2.318-3.946-5.159-7.473-8.195-10.74a80.158 80.158 0 0 0-8.134 4.732c-1.292-1.285-2.748-2.336-4.178-3.435-1.405-1.128-2.989-1.956-4.49-2.92.447-3.33.668-6.607.757-10.029-3.875-1.95-8.007-3.243-12.187-4.171-1.669 2.804-3.195 5.841-4.524 8.81-1.576-.263-3.16-.36-4.745-.38h-.061c-1.588.02-3.17.117-4.747.38-1.328-2.969-2.853-6.006-4.525-8.81zm-30.862 61.966c.006 1.435.024 3.007.024 3.32 0 14.101 17.888 20.878 40.112 20.956h.055c22.224-.078 40.106-6.855 40.106-20.956 0-.319.02-1.884.026-3.32l-13.346 1.287-.46 6.59a1.6 1.6 0 0 1-1.482 1.483l-15.816 1.128h-.115a1.599 1.599 0 0 1-1.58-1.366l-.907-6.15H43.549l-.907 6.15a1.598 1.598 0 0 1-1.696 1.362l-15.816-1.128a1.599 1.599 0 0 1-1.48-1.484l-.46-6.59z" style="stroke-width:.787417;stroke-dasharray:none" transform="matrix(.03808 0 0 .03653 1.293 -36.084)"/><g fill="#fff" stroke-width=".32" style="stroke-width:.787417;stroke-dasharray:none"><path d="M0 0c0-12.052-9.765-21.815-21.813-21.815-12.042 0-21.81 9.763-21.81 21.815 0 12.044 9.768 21.802 21.81 21.802C-9.765 21.802 0 12.044 0 0" style="stroke-width:1.9195;stroke-dasharray:none" transform="matrix(.01562 0 0 -.01498 2.736 3.138)"/><path d="M0 0c-3.878 0-7.021 2.858-7.021 6.381v20.081c0 3.52 3.143 6.381 7.021 6.381s7.028-2.861 7.028-6.381V6.381C7.028 2.858 3.878 0 0 0" style="stroke-width:1.9195;stroke-dasharray:none" transform="matrix(.01562 0 0 -.01498 3.197 3.496)"/><path d="M0 0c0-12.052 9.765-21.815 21.815-21.815 12.041 0 21.808 9.763 21.808 21.815 0 12.044-9.767 21.802-21.808 21.802C9.765 21.802 0 12.044 0 0" style="stroke-width:1.9195;stroke-dasharray:none" transform="matrix(.01562 0 0 -.01498 3.658 3.138)"/></g><path fill="#414042" d="M29.807 1068.4a5.938 5.938 0 1 0 0 11.877 5.94 5.94 0 1 0 0-11.877zm40.383 0a5.938 5.938 0 0 0-5.936 5.94 5.936 5.936 0 0 0 5.936 5.937 5.939 5.939 0 1 0 0-11.877z" style="stroke-width:.787417;stroke-dasharray:none" transform="matrix(.03808 0 0 .03653 1.293 -36.084)"/></g></svg>