<svg xmlns="http://www.w3.org/2000/svg" width="24" height="24"><defs><radialGradient id="a" cx="0" cy="0" r="1" fx="0" fy="0" gradientTransform="matrix(0 16.5 -16.5 0 9 .75)" gradientUnits="userSpaceOnUse" spreadMethod="pad"><stop offset="0" style="stop-opacity:1;stop-color:#fafafa"/><stop offset="1" style="stop-opacity:1;stop-color:silver"/></radialGradient></defs><path d="M7.195.836c.09 0 .176-.012.258-.035a23.86 23.86 0 0 1 3.231.008 10.26 10.26 0 0 1 2.836.636c1.519.625 2.558 1.711 3.121 3.254.316.93.507 1.887.566 2.867a21.227 21.227 0 0 1-.086 3.696 8.976 8.976 0 0 1-.672 2.488c-.637 1.383-1.672 2.336-3.101 2.859a11.693 11.693 0 0 1-3.575.618 15.998 15.998 0 0 1-4.089-.309c-2.481-.551-4.016-2.066-4.594-4.543a14.244 14.244 0 0 1-.336-3.383c-.027-1.211.101-2.41.387-3.59.609-2.312 2.078-3.746 4.406-4.3A10.27 10.27 0 0 1 7.195.836Z" style="fill:url(#a);fill-rule:evenodd;stroke:none" transform="matrix(1.33333 0 0 1.33333 0 0)"/><path fill="#255fdb" d="M9.518 13.666C6.79 10.058 3.99 12.8 4.722 15.322a8.007 8.007 0 0 0 14 1.023c-2.108 1.974-5.936 1.644-9.204-2.679z"/><path fill="#4285f4" d="M11.956 11.182c-3.75-5.689-7.955-2.657-7.955.82 0 1.192.26 2.318.726 3.334-.498-2.355 2.208-4.172 4.728-.79 3.66 4.909 7.25 4.045 9.26 1.811.542-.809 1.07-2.05 1.219-3.283l-.003.015c-.86 2.675-4.667 3.11-7.975-1.907z"/><path fill="#91bfff" d="M14.527 8.637C11.74 4.04 8.21 4.455 5.822 6.917A7.976 7.976 0 0 0 4 12c.25-3.367 4.318-5.704 8 0 3.277 5.077 7.35 3.755 7.93 1.102l.003-.026c.059-.364.065-.712.065-1.087 0-.12.004-.24-.001-.36-1.42 1.007-3.284.615-5.47-2.992z"/><path fill="#c4e1ff" d="M14.546 9.455c2.55 4.1 4.75 3.051 5.451 2.174a7.916 7.916 0 0 0-.293-1.81c-1.189.025-1.466-.174-2.631-1.955-1.793-2.741-4.046-4.59-7.978-3.32a8.04 8.04 0 0 0-3.276 2.377c2.704-2.489 6.022-1.813 8.726 2.533z"/><path fill="#f5f5f5" d="M16.894 8.216c1.166 1.781 1.876 1.876 2.811 1.603A8.003 8.003 0 0 0 11.998 4a8.006 8.006 0 0 0-2.905.545c3.515-1.109 6.009.93 7.801 3.67z"/></svg>