<svg xmlns="http://www.w3.org/2000/svg" xml:space="preserve" width="24" height="24" viewBox="0 0 6.35 6.35"><defs><radialGradient id="a" cx="0" cy="0" r="1" fx="0" fy="0" gradientTransform="matrix(0 16.50001 -16.50001 0 9 .75)" gradientUnits="userSpaceOnUse" spreadMethod="pad"><stop offset="0" style="stop-opacity:1;stop-color:#a3c3ee"/><stop offset="1" style="stop-opacity:1;stop-color:#5f8fd3"/></radialGradient><clipPath id="b" clipPathUnits="userSpaceOnUse"><path d="M0 0h19v19H0Z"/></clipPath></defs><path d="M7.195.836c.09 0 .176-.012.258-.035a23.86 23.86 0 0 1 3.231.008 10.26 10.26 0 0 1 2.836.636c1.519.625 2.558 1.711 3.121 3.254.316.93.507 1.887.566 2.867a21.227 21.227 0 0 1-.086 3.696 8.976 8.976 0 0 1-.672 2.488c-.637 1.383-1.672 2.336-3.101 2.859a11.693 11.693 0 0 1-3.575.618 15.998 15.998 0 0 1-4.089-.309c-2.481-.551-4.016-2.066-4.594-4.543a14.244 14.244 0 0 1-.336-3.383c-.027-1.215.101-2.41.387-3.59.609-2.312 2.078-3.746 4.406-4.3A10.27 10.27 0 0 1 7.195.836Z" style="fill:url(#a);fill-rule:evenodd;stroke:none" transform="scale(.35277)"/><g clip-path="url(#b)" opacity=".9" transform="scale(.35277)"><path d="M.859 6.938c.063-.516.157-1.028.282-1.536.273-1.039.722-1.906 1.343-2.59H15.52c.48.528.855 1.157 1.121 1.887.25.731.421 1.477.507 2.239z" style="fill:#fafafa;fill-opacity:1;fill-rule:evenodd;stroke:none"/></g><path d="m7.457 14.5 1.965-3.887v-.027H7.117V9.5h3.711v1.086L8.855 14.5Z" style="fill:#fff;fill-opacity:1;fill-rule:nonzero;stroke:none" transform="scale(.35277)"/><path d="M6.781 4.008v1.738h.465v-.652h.52v-.375h-.52v-.332h.563v-.379Zm1.657 0v1.738h.468v-.633h.117l.372.633h.531l-.508-.758a.636.636 0 0 0 .215-.191.46.46 0 0 0 .082-.274c0-.343-.238-.515-.707-.515Zm1.882 0v.269l.219.078v1.04l-.219.082v.269h.907v-.269l-.215-.082v-1.04l.215-.078v-.269Zm-1.414.355H9c.086 0 .145.016.184.051.035.027.054.074.054.129 0 .082-.023.137-.07.172a.292.292 0 0 1-.172.047h-.09z" style="fill:#5f8fd3;fill-opacity:1;fill-rule:nonzero;stroke:none" transform="scale(.35277)"/></svg>