<svg xmlns="http://www.w3.org/2000/svg" width="24" height="24" version="1"><defs><radialGradient id="a" cx="0" cy="0" r="1" fx="0" fy="0" gradientTransform="matrix(0 16.5 -16.5 0 9 .75)" gradientUnits="userSpaceOnUse" spreadMethod="pad"><stop offset="0" style="stop-opacity:1;stop-color:#fafafa"/><stop offset="1" style="stop-opacity:1;stop-color:silver"/></radialGradient></defs><path d="M7.195.836c.09 0 .176-.012.258-.035a23.86 23.86 0 0 1 3.231.008 10.26 10.26 0 0 1 2.836.636c1.519.625 2.558 1.711 3.121 3.254.316.93.507 1.887.566 2.867a21.227 21.227 0 0 1-.086 3.696 8.976 8.976 0 0 1-.672 2.488c-.637 1.383-1.672 2.336-3.101 2.859a11.693 11.693 0 0 1-3.575.618 15.998 15.998 0 0 1-4.089-.309c-2.481-.551-4.016-2.066-4.594-4.543a14.244 14.244 0 0 1-.336-3.383c-.027-1.211.101-2.41.387-3.59.609-2.312 2.078-3.746 4.406-4.3A10.27 10.27 0 0 1 7.195.836Z" style="fill:url(#a);fill-rule:evenodd;stroke:none" transform="matrix(1.33333 0 0 1.33333 0 0)"/><path d="M6.002 7.504A7.514 7.514 0 0 0 4.5 12.022 7.458 7.458 0 0 0 12 19.5l2.624-5.378-4.871-.995z" style="fill:#f66f6f;fill-opacity:1;fill-rule:evenodd;stroke:none;stroke-width:1.39327"/><path d="m12.376 8.625 2.248 5.476L12 19.5a7.479 7.479 0 0 0 7.5-7.5c0-1.17-.272-2.33-.805-3.375z" style="fill:#f69696;fill-opacity:1;fill-rule:evenodd;stroke:none;stroke-width:1.39327"/><path d="M12 4.5a7.46 7.46 0 0 0-5.998 3.004l3.745 5.623 4.877.974-2.248-5.476h6.319A7.47 7.47 0 0 0 12 4.5Z" style="fill:#db4437;fill-opacity:1;fill-rule:evenodd;stroke:none;stroke-width:1.39327"/><path d="M12 8.642A3.349 3.349 0 0 1 15.358 12 3.349 3.349 0 0 1 12 15.358 3.349 3.349 0 0 1 8.642 12 3.349 3.349 0 0 1 12 8.642Z" style="fill:#fff;fill-opacity:1;fill-rule:nonzero;stroke:none;stroke-width:1.39327"/><path d="M12 9.48A2.516 2.516 0 0 1 14.52 12 2.519 2.519 0 0 1 12 14.52 2.519 2.519 0 0 1 9.48 12 2.519 2.519 0 0 1 12 9.48z" style="fill:#e64646;fill-opacity:1;fill-rule:nonzero;stroke:none;stroke-width:1.39327"/></svg>