<svg xmlns="http://www.w3.org/2000/svg" width="24" height="24" version="1"><defs><radialGradient id="a" cx="0" cy="0" r="1" fx="0" fy="0" gradientTransform="matrix(0 16.5 -16.5 0 9 .75)" gradientUnits="userSpaceOnUse" spreadMethod="pad"><stop offset="0" style="stop-opacity:1;stop-color:#fafafa"/><stop offset="1" style="stop-opacity:1;stop-color:silver"/></radialGradient></defs><path d="M7.195.836c.09 0 .176-.012.258-.035a23.86 23.86 0 0 1 3.231.008 10.26 10.26 0 0 1 2.836.636c1.519.625 2.558 1.711 3.121 3.254.316.93.507 1.887.566 2.867a21.227 21.227 0 0 1-.086 3.696 8.976 8.976 0 0 1-.672 2.488c-.637 1.383-1.672 2.336-3.101 2.859a11.693 11.693 0 0 1-3.575.618 15.998 15.998 0 0 1-4.089-.309c-2.481-.551-4.016-2.066-4.594-4.543a14.244 14.244 0 0 1-.336-3.383c-.027-1.211.101-2.41.387-3.59.609-2.312 2.078-3.746 4.406-4.3A10.27 10.27 0 0 1 7.195.836Z" style="fill:url(#a);fill-rule:evenodd;stroke:none" transform="matrix(1.33333 0 0 1.33333 0 0)"/><path d="M1.656 2.037c-.248.33-.38.732-.38 1.144a1.888 1.888 0 0 0 1.899 1.893l.664-1.362-1.233-.252Z" style="fill:#17a05e;fill-opacity:1;fill-rule:evenodd;stroke:none;stroke-width:.352778" transform="translate(-.539 -.54) scale(3.94941)"/><path d="m3.27 2.32.57 1.387-.665 1.367A1.894 1.894 0 0 0 4.87 2.321z" style="fill:#ffce42;fill-opacity:1;fill-rule:evenodd;stroke:none;stroke-width:.352778" transform="translate(-.539 -.54) scale(3.94941)"/><path d="M3.175 1.276a1.889 1.889 0 0 0-1.519.76l.948 1.424 1.235.247-.569-1.386h1.6a1.891 1.891 0 0 0-1.695-1.045Z" style="fill:#de5347;fill-opacity:1;fill-rule:evenodd;stroke:none;stroke-width:.352778" transform="translate(-.539 -.54) scale(3.94941)"/><path d="M3.175 2.325c.47-.002.851.38.85.85a.848.848 0 0 1-.85.85.848.848 0 0 1-.85-.85.848.848 0 0 1 .85-.85z" style="fill:#fff;fill-opacity:1;fill-rule:nonzero;stroke:none;stroke-width:.352778" transform="translate(-.539 -.54) scale(3.94941)"/><path d="M3.175 2.537a.637.637 0 1 1 0 1.276.638.638 0 1 1 0-1.276z" style="fill:#4a8af4;fill-opacity:1;fill-rule:nonzero;stroke:none;stroke-width:.352778" transform="translate(-.539 -.54) scale(3.94941)"/><path d="M1.117 14.463c.076.683.187 1.362.336 2.037.77 3.303 2.817 5.322 6.125 6.057 1.801.369 3.618.51 5.451.412a15.597 15.597 0 0 0 4.768-.824c1.905-.698 3.285-1.967 4.135-3.811.458-1.063.756-2.168.896-3.318.02-.185.032-.369.049-.553z" style="fill:#4d4d4d;fill-opacity:1;stroke-width:.462765;paint-order:stroke fill markers"/><path fill="#fff" stroke-width=".24" d="M7.042 18.006v1.187h.704q.353 0 .522-.145.171-.148.171-.45 0-.303-.17-.446-.17-.146-.524-.146zm0-1.332v.977h.65q.32 0 .476-.12.159-.121.159-.369 0-.245-.159-.366-.156-.122-.477-.122zm-.438-.36h1.12q.5 0 .772.208.271.209.271.593 0 .297-.139.473-.139.175-.407.219.323.07.5.29.181.22.181.55 0 .433-.295.67-.295.236-.84.236H6.604Zm3.048 0h2.049v.369h-1.61v.959h1.542v.369h-1.542v1.174h1.648v.368H9.652zm2.359 0h2.74v.369h-1.15v2.87h-.44v-2.87h-1.15zm3.9.432-.594 1.612h1.191zm-.246-.432h.496l1.235 3.24h-.456l-.295-.832h-1.46l-.295.831h-.462z" aria-label="BETA"/></svg>