<svg xmlns="http://www.w3.org/2000/svg" xmlns:xlink="http://www.w3.org/1999/xlink" xml:space="preserve" id="svg154" width="24" height="24" fill="none" version="1.1"><defs id="defs152"><clipPath id="28a0eae2da"><path id="path3289" d="M60.71 107.316h337.173v247.086H60.71Zm0 0" clip-rule="nonzero"/></clipPath><clipPath id="0a5d9b100c"><path id="path3292" d="M86.16 107.316h285.758c14.059 0 25.453 11.395 25.453 25.45v196.183c0 14.059-11.394 25.453-25.453 25.453H86.16c-14.055 0-25.45-11.394-25.45-25.453V132.766c0-14.055 11.395-25.45 25.45-25.45" clip-rule="nonzero"/></clipPath><clipPath id="9eb0b530c3"><path id="path3295" d="M95.664 137.898h266.75v185.918H95.664Zm0 0" clip-rule="nonzero"/></clipPath><linearGradient id="linearGradient480"><stop id="stop476" offset="0" style="stop-color:#535353;stop-opacity:1"/><stop id="stop478" offset="1" style="stop-color:#a6a6a6;stop-opacity:1"/></linearGradient><linearGradient xlink:href="#linearGradient480" id="linearGradient482" x1="52.797" x2="50.808" y1="97.092" y2="-13.554" gradientTransform="matrix(.24444 0 0 .24444 -.222 -.222)" gradientUnits="userSpaceOnUse"/><style id="current-color-scheme" type="text/css">.ColorScheme-Text{color:#31363b}.ColorScheme-Background{color:#eff0f1}.ColorScheme-Highlight{color:#3daee9}.ColorScheme-ViewText{color:#31363b}.ColorScheme-ViewBackground{color:#fcfcfc}.ColorScheme-ViewHover{color:#93cee9}.ColorScheme-ViewFocus{color:#3daee9}.ColorScheme-ButtonText{color:#31363b}.ColorScheme-ButtonBackground{color:#eff0f1}.ColorScheme-ButtonHover{color:#93cee9}.ColorScheme-ButtonFocus{color:#3daee9}</style></defs><path id="path6" d="M12 1C2 1 1 6 1 12c0 8 3 11 11 11s11-3 11-11c0-6-1-11-11-11Z" style="font-variation-settings:normal;display:inline;opacity:1;vector-effect:none;fill:url(#linearGradient482);fill-opacity:1;stroke-width:1.11627;stroke-linecap:butt;stroke-linejoin:miter;stroke-miterlimit:4;stroke-dasharray:none;stroke-dashoffset:0;stroke-opacity:1;-inkscape-stroke:none;stop-color:#000;stop-opacity:1"/><g id="g3375" transform="matrix(.09338 0 0 .09338 -22.948 3.542)"><g id="g3312" clip-path="url(#28a0eae2da)" transform="matrix(.35278 0 0 .35278 277.888 -7.61)"><g id="g3310" clip-path="url(#0a5d9b100c)"><path id="path3308" fill="#fff" fill-opacity="1" fill-rule="nonzero" d="M60.71 107.316h336.528v247.086H60.711Zm0 0"/></g></g><g id="g3316" clip-path="url(#9eb0b530c3)" transform="matrix(.35278 0 0 .35278 277.888 -7.61)"><path id="path3314" fill="#313539" fill-opacity="1" fill-rule="nonzero" d="M95.664 137.898H362.7V323.86H95.664Zm0 0"/></g><path id="path3318" fill="none" stroke="#fff" stroke-linecap="round" stroke-linejoin="miter" stroke-miterlimit="4" stroke-opacity="1" stroke-width="10.038" d="M330.113 129.71h99.56"/><path id="path3320" fill="none" stroke="#fff" stroke-linecap="round" stroke-linejoin="miter" stroke-miterlimit="4" stroke-opacity="1" stroke-width="10.041" d="M429.601 128.72V51.085"/><path id="path3322" fill="none" stroke="#fff" stroke-linecap="round" stroke-linejoin="miter" stroke-miterlimit="4" stroke-opacity="1" stroke-width="10.038" d="M344.662 145.882h99.56"/><path id="path3324" fill="none" stroke="#fff" stroke-linecap="round" stroke-linejoin="miter" stroke-miterlimit="4" stroke-opacity="1" stroke-width="10.041" d="M444.15 144.892V67.258"/></g></svg>