<svg xmlns="http://www.w3.org/2000/svg" xmlns:xlink="http://www.w3.org/1999/xlink" xml:space="preserve" width="24" height="24" viewBox="0 0 6.35 6.35"><defs><linearGradient id="b"><stop offset="0" style="stop-color:#f55872;stop-opacity:1"/><stop offset="1" style="stop-color:#ffd9d9;stop-opacity:1"/></linearGradient><linearGradient id="a"><stop offset="0" style="stop-color:#f55872;stop-opacity:1"/><stop offset="1" style="stop-color:#ffd5d5;stop-opacity:1"/></linearGradient><linearGradient xlink:href="#a" id="d" x1="181.184" x2="170.482" y1="378.937" y2="-109.787" gradientUnits="userSpaceOnUse"/><linearGradient xlink:href="#b" id="c" x1="181.184" x2="170.482" y1="378.937" y2="-109.787" gradientUnits="userSpaceOnUse"/></defs><g style="fill:url(#c);fill-opacity:1;stroke-width:23.0144"><path d="M148.375 1.961c2.07.023 4.047-.242 5.93-.789a545.854 545.854 0 0 1 74.343.195c22.469 1.75 44.219 6.625 65.25 14.625 34.965 14.395 58.887 39.36 71.774 74.899a246.354 246.354 0 0 1 13.051 66.007 482.597 482.597 0 0 1-1.981 84.981c-2.363 19.867-7.504 38.969-15.422 57.312-14.683 31.801-38.472 53.739-71.375 65.809-26.664 9.008-54.082 13.754-82.254 14.23-31.691 1.649-63.058-.722-94.117-7.113-57.16-12.73-92.418-47.582-105.781-104.543a328.944 328.944 0 0 1-7.711-77.867 319.253 319.253 0 0 1 8.898-82.609C22.988 53.84 56.797 20.836 110.414 8.086a241.29 241.29 0 0 1 37.961-6.125Z" style="fill:url(#d);fill-opacity:1;fill-rule:evenodd;stroke:none;stroke-width:23.0144" transform="matrix(.01533 0 0 .01533 .265 .265)"/></g><path fill="#fff" d="M4.101 1.588v.132h.132a.527.527 0 0 1 .53.53v.132h.132v-.133a.66.66 0 0 0-.662-.661Zm-.132.397v.132H4.1c.147 0 .265.118.265.265v.132h.132V2.38a.396.396 0 0 0-.397-.396Zm-.265.397a.13.13 0 0 0-.132.131v.265H1.72a.284.284 0 0 0-.265.264v1.456c0 .132.133.264.265.264h2.91a.285.285 0 0 0 .265-.264V3.042a.284.284 0 0 0-.265-.264h-.529v-.265a.132.132 0 0 0-.132-.132zm.066.132h.133c.036 0 .066.03.066.066v.198h-.265V2.58c0-.037.03-.066.066-.066zm-1.826.528 1.007.001c.112 0 .224.094.224.188V4.31c0 .094-.112.19-.224.19H1.944a.209.209 0 0 1-.042-.005c-.097-.02-.182-.102-.182-.185V3.232c0-.095.112-.189.224-.189zm1.496.001h.966c.112 0 .224.094.224.189v1.077c0 .095-.112.19-.223.19H3.44V3.042Zm.33.132a.066.066 0 0 0 0 .133h.133a.066.066 0 0 0 0-.133zm.397 0a.066.066 0 0 0 0 .133H4.3a.066.066 0 0 0 0-.133zm-1.72.132a.463.463 0 1 0 0 .926.463.463 0 0 0 0-.926zm1.323.132a.066.066 0 0 0 0 .133h.133a.066.066 0 0 0 0-.133zm.397 0a.066.066 0 0 0 0 .133H4.3a.066.066 0 0 0 0-.133zm-1.72.133a.199.199 0 1 1 0 .397.199.199 0 0 1 0-.397Zm1.72.132a.066.066 0 0 0 0 .132H4.3a.066.066 0 0 0 0-.132zm-.397 0a.066.066 0 0 0-.066.066c0 .036.03.066.066.066h.133a.066.066 0 0 0 0-.132zm.596.397a.132.132 0 1 0 0 .264.132.132 0 0 0 0-.264z" style="stroke-width:3.24597"/></svg>