<svg xmlns="http://www.w3.org/2000/svg" xmlns:xlink="http://www.w3.org/1999/xlink" xml:space="preserve" id="svg154" width="24" height="24" fill="none" version="1.1"><defs id="defs152"><linearGradient id="linearGradient18037"><stop id="stop18033" offset="0" style="stop-color:#ccc;stop-opacity:1"/><stop id="stop18035" offset="1" style="stop-color:#f9f9f9;stop-opacity:1"/></linearGradient><linearGradient id="linearGradient1257"><stop id="stop1255" offset="0" style="stop-color:#000;stop-opacity:1"/></linearGradient><linearGradient xlink:href="#linearGradient18037" id="linearGradient18039" x1="51.712" x2="47.554" y1="96.007" y2="-22.052" gradientTransform="matrix(.24444 0 0 .24444 -.222 -.222)" gradientUnits="userSpaceOnUse"/><style id="current-color-scheme" type="text/css">.ColorScheme-Text{color:#31363b}.ColorScheme-Background{color:#eff0f1}.ColorScheme-Highlight{color:#3daee9}.ColorScheme-ViewText{color:#31363b}.ColorScheme-ViewBackground{color:#fcfcfc}.ColorScheme-ViewHover{color:#93cee9}.ColorScheme-ViewFocus{color:#3daee9}.ColorScheme-ButtonText{color:#31363b}.ColorScheme-ButtonBackground{color:#eff0f1}.ColorScheme-ButtonHover{color:#93cee9}.ColorScheme-ButtonFocus{color:#3daee9}</style></defs><path id="path6" d="M12 1C2 1 1 6 1 12c0 8 3 11 11 11s11-3 11-11c0-6-1-11-11-11Z" style="font-variation-settings:normal;display:inline;opacity:1;vector-effect:none;fill:url(#linearGradient18039);fill-opacity:1;stroke-width:1.11627;stroke-linecap:butt;stroke-linejoin:miter;stroke-miterlimit:4;stroke-dasharray:none;stroke-dashoffset:0;stroke-opacity:1;-inkscape-stroke:none;stop-color:#000;stop-opacity:1"/><g id="g3723" transform="matrix(.17702 0 0 .17702 -10.279 -13.4)"><path id="path3700" fill="#4c8fd8" d="M124.518 103.129a40.41 40.41 0 0 0-27.24 11.795 40.41 40.41 0 0 0-3.296 53.32l8.49-8.49a28.524 28.524 0 0 1 3.216-36.42 28.524 28.524 0 0 1 29.673-6.685v10.206l15.246-15.246a40.41 40.41 0 0 0-26.09-8.48z" style="stroke-width:8.98386;paint-order:stroke markers fill"/><path id="path3702" fill="#6ddce7" d="m157.731 118.752-8.49 8.49a28.524 28.524 0 0 1-3.225 36.42 28.524 28.524 0 0 1-29.673 6.684V160.13l-10.08 10.09-5.166 5.156a40.41 40.41 0 0 0 53.328-3.306 40.41 40.41 0 0 0 3.306-53.32z" style="stroke-width:8.98386;paint-order:stroke markers fill"/></g></svg>