<svg xmlns="http://www.w3.org/2000/svg" xml:space="preserve" width="24" height="24" viewBox="0 0 6.35 6.35"><defs><clipPath id="c" clipPathUnits="userSpaceOnUse"><path d="M0 0h19v19H0Z"/></clipPath><clipPath id="d" clipPathUnits="userSpaceOnUse"><path d="M0 0h19v19H0Z"/></clipPath><clipPath id="e" clipPathUnits="userSpaceOnUse"><path d="M0 0h19v19H0Z"/></clipPath><clipPath id="f" clipPathUnits="userSpaceOnUse"><path d="M0 0h19v19H0Z"/></clipPath><radialGradient id="a" cx="0" cy="0" r="1" fx="0" fy="0" gradientTransform="rotate(90 9.63 9.895) scale(5.82072)" gradientUnits="userSpaceOnUse" spreadMethod="pad"><stop offset="0" style="stop-opacity:1;stop-color:#ff8080"/><stop offset="1" style="stop-opacity:1;stop-color:#bb3a3a"/></radialGradient><linearGradient id="b" x1="32" x2="58" y1="32" y2="32" gradientTransform="matrix(-.31731 0 0 .31731 19.154 -1.153)" gradientUnits="userSpaceOnUse" spreadMethod="pad"><stop offset="0" style="stop-opacity:1;stop-color:#000"/><stop offset="1" style="stop-opacity:0;stop-color:#000"/></linearGradient></defs><path d="M18.888.295a.335.335 0 0 0 .091-.012c.38-.025.76-.024 1.14.002a3.62 3.62 0 0 1 1 .225c.536.22.903.603 1.101 1.148.112.328.18.665.2 1.011.028.436.018.87-.03 1.304a3.166 3.166 0 0 1-.237.878c-.225.487-.59.824-1.094 1.008a4.125 4.125 0 0 1-1.262.218 5.644 5.644 0 0 1-1.442-.109c-.875-.194-1.417-.729-1.62-1.602a5.025 5.025 0 0 1-.12-1.194c-.009-.427.036-.85.137-1.266.215-.816.733-1.322 1.555-1.517.191-.047.386-.079.581-.094z" style="fill:url(#a);fill-rule:evenodd;stroke:none;stroke-width:.352771" transform="translate(-16.35)"/><g opacity=".1"><path d="M9 .75v16.5H1.602a.845.845 0 0 1-.852-.848v-14.8c0-.473.379-.852.848-.852Z" clip-path="url(#c)" opacity="1" style="fill:url(#b);fill-rule:evenodd;stroke:none" transform="scale(.35277)"/></g><path d="M5.77 14.582V3.398c0-.218.171-.398.382-.398h.036c.21 0 .382.18.382.398v11.184a.392.392 0 0 1-.382.402h-.036a.392.392 0 0 1-.382-.402z" clip-path="url(#d)" opacity=".194" style="fill:#fff;fill-opacity:1;fill-rule:evenodd;stroke:none" transform="scale(.35277)"/><path d="M18.384 5.15c0 .078.063.142.142.142a.14.14 0 0 0 .14-.142V2.183h-.282z" style="fill:#e7b9b9;fill-opacity:1;fill-rule:evenodd;stroke:none;stroke-width:.352771" transform="translate(-16.35)"/><path d="M18.518 1.639a.41.41 0 1 1 0 .821.41.41 0 0 1 0-.821z" style="fill:#fafafa;fill-opacity:1;fill-rule:evenodd;stroke:none;stroke-width:.352771" transform="translate(-16.35)"/><path d="M11.145 14.582V3.398c0-.218.148-.398.328-.398h.144c.18 0 .328.18.328.398v11.184c0 .223-.148.402-.328.402h-.144c-.18 0-.328-.179-.328-.402z" clip-path="url(#e)" opacity=".194" style="fill:#fff;fill-opacity:1;fill-rule:evenodd;stroke:none" transform="scale(.35277)"/><path d="M20.28 5.15a.142.142 0 1 0 .284 0V3.593h-.284z" style="fill:#e7b9b9;fill-opacity:1;fill-rule:evenodd;stroke:none;stroke-width:.352771" transform="translate(-16.35)"/><path d="M11.523 8.902c.934 0 1.688.754 1.688 1.688a1.688 1.688 0 1 1-1.688-1.688z" clip-path="url(#f)" opacity=".15" style="fill:#000;fill-opacity:1;fill-rule:nonzero;stroke:none" transform="scale(.35277)"/><path d="M20.415 3.33a.41.41 0 1 1 .002.82.41.41 0 0 1-.002-.82z" style="fill:#fafafa;fill-opacity:1;fill-rule:evenodd;stroke:none;stroke-width:.352771" transform="translate(-16.35)"/></svg>