<svg xmlns="http://www.w3.org/2000/svg" xmlns:xlink="http://www.w3.org/1999/xlink" xml:space="preserve" width="24" height="24" fill="none"><defs><linearGradient id="c" x1="12" x2="12.438" y1="66.125" y2="-2.188" gradientTransform="matrix(.24444 0 0 .24444 33.778 -.222)" gradientUnits="userSpaceOnUse" spreadMethod="pad"><stop offset="0" style="stop-opacity:1;stop-color:#ef8e30"/><stop offset="1" style="stop-opacity:1;stop-color:#fab680"/></linearGradient><linearGradient id="b" x1="7.9" x2="56.17" y1="19.867" y2="19.867" gradientTransform="matrix(.23975 0 0 .23975 1.32 1.831)" gradientUnits="userSpaceOnUse" spreadMethod="pad"><stop offset="0" style="stop-opacity:.45400168;stop-color:#fff"/><stop offset="1" style="stop-opacity:.27598993;stop-color:#fff"/></linearGradient><linearGradient xlink:href="#b" id="f" x1="7.9" x2="56.17" y1="19.867" y2="19.867" gradientTransform="translate(35.76 2.442) scale(.31967)" gradientUnits="userSpaceOnUse" spreadMethod="pad"/><linearGradient xlink:href="#b" id="d" x1="7.9" x2="56.17" y1="19.867" y2="19.867" gradientTransform="translate(35.76 2.442) scale(.31967)" gradientUnits="userSpaceOnUse" spreadMethod="pad"/><linearGradient xlink:href="#b" id="e" x1="7.9" x2="56.17" y1="19.867" y2="19.867" gradientTransform="translate(35.76 2.442) scale(.31967)" gradientUnits="userSpaceOnUse" spreadMethod="pad"/><radialGradient id="a" cx="0" cy="0" r="1" gradientTransform="matrix(0 22 -22 0 12 1)" gradientUnits="userSpaceOnUse"><stop offset="0" stop-color="#8FC8FF" style="stop-color:#f6f6f6;stop-opacity:1"/><stop offset="1" stop-color="#0056A8" style="stop-color:#cfcfcf;stop-opacity:1"/></radialGradient></defs><path d="M46 1C36 1 35 6 35 12c0 8 3 11 11 11s11-3 11-11c0-6-1-11-11-11z" style="fill:url(#c);stroke:none;stroke-width:1.33333" transform="translate(-34)"/><path d="M45.979 4.948c-2.119.005-3.932.76-5.432 2.26h-.006c-.005.005-.01.016-.014.021-1.491 1.495-2.235 3.298-2.24 5.407h2.453c.01-1.428.515-2.652 1.52-3.672l.021-.021c1.022-1.022 2.255-1.531 3.698-1.536Zm0 0v2.459H46c1.432 0 2.656.5 3.677 1.5l.042.036c1.021 1.021 1.532 2.254 1.541 3.693h2.453c-.005-2.115-.754-3.928-2.26-5.428l-.037-.041C49.917 5.688 48.109 4.948 46 4.948Z" style="fill:url(#d);stroke:none;stroke-width:1.33333" transform="translate(-34)"/><path d="m49.088 3.62-4.285 9.281.984 1.182 1.568-.255z" style="fill:#e6e6e6;fill-opacity:1;fill-rule:nonzero;stroke:none;stroke-width:1.33333" transform="translate(-34)"/><path d="M45.973 10.792c-.312 0-.604.057-.869.172-.265.11-.51.276-.713.484-.303.301-.5.65-.594 1.041a2.59 2.59 0 0 0-.057.538c0 .296.047.566.145.822.115.287.287.542.506.755.437.437.964.656 1.582.656.615 0 1.142-.219 1.579-.656.437-.432.656-.959.656-1.577 0-.6-.208-1.115-.62-1.543l-.036-.036a2.493 2.493 0 0 0-.51-.39 2.158 2.158 0 0 0-1.068-.265z" style="fill:#fff;fill-opacity:1;fill-rule:nonzero;stroke:none;stroke-width:1.33333" transform="translate(-34)"/><path d="M45.979 4.948c-2.119.005-3.932.76-5.432 2.26h-.006c-.005.005-.01.016-.014.021-1.491 1.495-2.235 3.298-2.24 5.407h2.453c.01-1.428.515-2.652 1.52-3.672l.021-.021c1.022-1.022 2.255-1.531 3.698-1.536Zm0 0v2.459H46c1.432 0 2.656.5 3.677 1.5l.042.036c1.021 1.021 1.532 2.254 1.541 3.693h2.453c-.005-2.115-.754-3.928-2.26-5.428l-.037-.041C49.917 5.688 48.109 4.948 46 4.948Z" style="fill:url(#e);stroke:none;stroke-width:1.33333" transform="translate(-34)"/><path d="m49.088 3.62-4.285 9.281.984 1.182 1.568-.255z" style="fill:#e6e6e6;fill-opacity:1;fill-rule:nonzero;stroke:none;stroke-width:1.33333" transform="translate(-34)"/><path d="M45.973 10.792c-.312 0-.604.057-.869.172-.265.11-.51.276-.713.484-.303.301-.5.65-.594 1.041a2.59 2.59 0 0 0-.057.538c0 .296.047.566.145.822.115.287.287.542.506.755.437.437.964.656 1.582.656.615 0 1.142-.219 1.579-.656.437-.432.656-.959.656-1.577 0-.6-.208-1.115-.62-1.543l-.036-.036a2.493 2.493 0 0 0-.51-.39 2.158 2.158 0 0 0-1.068-.265z" style="fill:#fff;fill-opacity:1;fill-rule:nonzero;stroke:none;stroke-width:1.33333" transform="translate(-34)"/><path d="M45.979 4.948c-2.119.005-3.932.76-5.432 2.26h-.006c-.005.005-.01.016-.014.021-1.491 1.495-2.235 3.298-2.24 5.407h2.453c.01-1.428.515-2.652 1.52-3.672l.021-.021c1.022-1.022 2.255-1.531 3.698-1.536Zm0 0v2.459H46c1.432 0 2.656.5 3.677 1.5l.042.036c1.021 1.021 1.532 2.254 1.541 3.693h2.453c-.005-2.115-.754-3.928-2.26-5.428l-.037-.041C49.917 5.688 48.109 4.948 46 4.948Z" style="fill:url(#f);stroke:none;stroke-width:1.33333" transform="translate(-34)"/><path d="m49.088 3.62-4.285 9.281.984 1.182 1.568-.255z" style="fill:#e6e6e6;fill-opacity:1;fill-rule:nonzero;stroke:none;stroke-width:1.33333" transform="translate(-34)"/><path d="M45.973 10.792c-.312 0-.604.057-.869.172-.265.11-.51.276-.713.484-.303.301-.5.65-.594 1.041a2.59 2.59 0 0 0-.057.538c0 .296.047.566.145.822.115.287.287.542.506.755.437.437.964.656 1.582.656.615 0 1.142-.219 1.579-.656.437-.432.656-.959.656-1.577 0-.6-.208-1.115-.62-1.543l-.036-.036a2.493 2.493 0 0 0-.51-.39 2.158 2.158 0 0 0-1.068-.265z" style="fill:#fff;fill-opacity:1;fill-rule:nonzero;stroke:none;stroke-width:1.33333" transform="translate(-34)"/></svg>