<svg xmlns="http://www.w3.org/2000/svg" xmlns:xlink="http://www.w3.org/1999/xlink" width="24" height="24" viewBox="0 0 6.35 6.35"><defs><radialGradient id="a" cx="0" cy="0" r="1" fx="0" fy="0" gradientTransform="matrix(0 16.5 -16.5 0 9 .75)" gradientUnits="userSpaceOnUse" spreadMethod="pad"><stop offset="0" style="stop-opacity:1;stop-color:#fafafa"/><stop offset="1" style="stop-opacity:1;stop-color:silver"/></radialGradient><radialGradient xlink:href="#a" id="b" cx="0" cy="0" r="1" fx="0" fy="0" gradientTransform="matrix(0 16.5 -16.5 0 9 .75)" gradientUnits="userSpaceOnUse" spreadMethod="pad"/></defs><path d="M-7.384.265c-.19-.001-.38.005-.57.018a.335.335 0 0 1-.09.012c-.196.015-.39.047-.582.094-.821.195-1.34.701-1.555 1.517-.1.416-.146.84-.137 1.266-.008.403.033.8.12 1.194.203.873.745 1.408 1.62 1.602.476.098.957.135 1.442.109.433-.007.853-.08 1.262-.218.504-.185.869-.52 1.094-1.008.12-.281.2-.574.237-.878.048-.434.057-.868.03-1.304a3.852 3.852 0 0 0-.2-1.011A1.892 1.892 0 0 0-5.814.51a3.62 3.62 0 0 0-1-.225c-.19-.013-.38-.02-.57-.02Z" style="fill:#f66;fill-opacity:1;stroke-width:1;paint-order:stroke markers fill" transform="translate(10.583)"/><path d="m-4.538 2.408-2.87.769v2.907c.09 0 .181-.002.272-.007.433-.007.853-.08 1.262-.218.504-.185.869-.52 1.094-1.008.12-.281.2-.574.237-.878.048-.434.057-.868.03-1.304a3.823 3.823 0 0 0-.025-.26z" style="fill:#89d356;fill-opacity:1;stroke-width:.26458;paint-order:stroke fill markers" transform="translate(10.583)"/><path d="M-10.275 2.41a4.923 4.923 0 0 0-.043.762c-.008.403.033.8.12 1.194.203.873.745 1.408 1.62 1.602.387.08.777.118 1.17.116V3.177Z" style="fill:#6f96ec;fill-opacity:1;stroke-width:1;paint-order:stroke fill markers" transform="translate(10.583)"/><g style="opacity:.15;stroke-width:1.13863"><g style="stroke-width:1.13863"><path d="M7.195.836c.09 0 .176-.012.258-.035a23.86 23.86 0 0 1 3.231.008 10.26 10.26 0 0 1 2.836.636c1.519.625 2.558 1.711 3.121 3.254.316.93.507 1.887.566 2.867a21.227 21.227 0 0 1-.086 3.696 8.976 8.976 0 0 1-.672 2.488c-.637 1.383-1.672 2.336-3.101 2.859a11.693 11.693 0 0 1-3.575.618 15.998 15.998 0 0 1-4.089-.309c-2.481-.551-4.016-2.066-4.594-4.543a14.244 14.244 0 0 1-.336-3.383c-.027-1.211.101-2.41.387-3.59.609-2.312 2.078-3.746 4.406-4.3A10.27 10.27 0 0 1 7.195.836Z" style="fill:url(#b);fill-rule:evenodd;stroke:none;stroke-width:1.13863" transform="translate(.387 .387) scale(.30982)"/></g></g><path fill="#fff" d="m3.76 2.879-.115.592h.506v.246h-.55l-.158.78h-.26l.158-.78h-.535l-.144.78h-.26l.144-.78h-.478v-.246h.52l.117-.592h-.492v-.246h.535l.159-.781h.26l-.144.78h.52l.16-.78h.26l-.159.78h.478v.247Zm-.91.592h.535L3.5 2.88h-.535Z" aria-label="#" style="stroke-width:1"/></svg>