<svg xmlns="http://www.w3.org/2000/svg" xml:space="preserve" width="24" height="24" viewBox="0 0 6.35 6.35"><defs><radialGradient id="a" cx="0" cy="0" r="1" fx="0" fy="0" gradientTransform="matrix(0 16.5 -16.5 0 9 .75)" gradientUnits="userSpaceOnUse" spreadMethod="pad"><stop offset="0" style="stop-opacity:1;stop-color:#4e4e4e"/><stop offset="1" style="stop-opacity:1;stop-color:#333"/></radialGradient></defs><path d="M7.195.836c.09 0 .176-.012.258-.035a23.86 23.86 0 0 1 3.231.008 10.26 10.26 0 0 1 2.836.636c1.519.625 2.558 1.711 3.121 3.254.316.93.507 1.887.566 2.867a21.227 21.227 0 0 1-.086 3.696 8.976 8.976 0 0 1-.672 2.488c-.637 1.383-1.672 2.336-3.101 2.859a11.693 11.693 0 0 1-3.575.618 15.998 15.998 0 0 1-4.089-.309c-2.481-.551-4.016-2.066-4.594-4.543a14.244 14.244 0 0 1-.336-3.383c-.027-1.211.101-2.41.387-3.59.609-2.312 2.078-3.746 4.406-4.3A10.27 10.27 0 0 1 7.195.836Z" style="fill:url(#a);fill-rule:evenodd;stroke:none" transform="scale(.35277)"/><path d="M7.609 1.5c-.007 0-.015 0-.023.004a.945.945 0 0 1-.238.031 9.103 9.103 0 0 0-.434.043v1.856H4.125v-.977c-.25.148-.48.316-.695.504v.473h-.473a4.694 4.694 0 0 0-.5.699h.973v2.781H1.578c-.035.234-.058.465-.082.699H3.43v2.782H1.5c.02.234.047.464.078.699H3.43v2.785h-.965c.148.25.316.48.504.695h.461v.461c.215.188.445.356.695.504v-.965h2.789v1.84c.231.031.461.059.695.078v-1.918h2.782V16.5a10.7 10.7 0 0 0 .695-.078v-1.848h2.785v.973c.25-.149.484-.317.699-.504v-.469h.465c.184-.215.352-.445.504-.695h-.969v-2.785h1.856c0-.008.004-.016.004-.02.023-.226.047-.453.062-.679H14.57V7.613h1.934a8.577 8.577 0 0 0-.074-.699h-1.86V4.133h.977a5.075 5.075 0 0 0-.5-.699h-.477v-.477a5.316 5.316 0 0 0-.699-.5v.977H11.09V1.57a6.342 6.342 0 0 0-.547-.058l-.148-.012v1.938H7.609ZM6.91 4.133H4.129l-.004 2.781H6.91Zm3.481 0H7.609v2.781h2.782zm3.484 0H11.09v2.781h2.785zM6.91 7.613H4.129l-.004 2.782H6.91Zm3.481 0H7.609v2.782h2.782zm3.484 0H11.09v2.782h2.785zM6.91 11.094H4.129l-.004 2.785H6.91Zm3.481 0H7.609v2.785h2.782zm3.484 0H11.09v2.785h2.785z" style="fill:#427e49;fill-opacity:1;fill-rule:evenodd;stroke:none" transform="scale(.35277)"/><path d="M9.004 4.395a.384.384 0 0 0-.328.179.573.573 0 0 0-.074.156 1.78 1.78 0 0 0-.075.321c-.047.25-.086.59-.129.992-.148 1.691-.25 3.234-.375 4.801-.132-1.254-.214-2.524-.363-3.762a10.003 10.003 0 0 0-.129-.855 1.688 1.688 0 0 0-.082-.289.605.605 0 0 0-.086-.149.398.398 0 0 0-.308-.156.426.426 0 0 0-.278.113.556.556 0 0 0-.101.133 1.206 1.206 0 0 0-.094.246 5.566 5.566 0 0 0-.144.66c-.176 1.117-.297 2.149-.45 3.195-.093-.605-.144-1.242-.218-1.832a6.002 6.002 0 0 0-.075-.468.923.923 0 0 0-.05-.18c-.012-.031-.024-.066-.063-.117a.39.39 0 0 0-.555-.067 1.238 1.238 0 0 0-.238.313 8.321 8.321 0 0 0-.262.504 8.92 8.92 0 0 1-.246.465l-.027.047H.863a7.642 7.642 0 0 0 0 .71h3.532c.246 0 .3-.121.355-.187.059-.066.098-.133.141-.211.07-.117.14-.258.211-.398l.113 1.011c.058.492.117.981.191 1.368.035.191.074.355.125.496.028.074.051.14.106.211a.443.443 0 0 0 .351.191.422.422 0 0 0 .274-.113.43.43 0 0 0 .105-.133c.043-.082.067-.156.094-.246.051-.176.098-.399.141-.66.16-1.032.281-1.965.414-2.911.164 1.493.246 2.918.422 4.387.039.344.082.637.128.856.024.109.047.199.082.289.02.047.04.09.086.148a.388.388 0 0 0 .637-.027.531.531 0 0 0 .07-.153c.036-.097.059-.199.079-.324.046-.25.085-.59.125-.992.14-1.602.242-3.055.355-4.519.133 1.511.207 3.023.352 4.519.039.402.082.742.125.992.023.125.043.227.078.324a.586.586 0 0 0 .074.153.374.374 0 0 0 .324.179.4.4 0 0 0 .313-.152.455.455 0 0 0 .082-.148c.039-.09.058-.18.086-.289.043-.219.086-.512.128-.856.168-1.531.274-2.945.422-4.387.153.973.25 1.954.411 2.911.046.261.089.484.14.66.027.09.055.164.098.246a.555.555 0 0 0 .101.133c.075.07.172.109.274.113a.437.437 0 0 0 .351-.191.686.686 0 0 0 .106-.211c.058-.161.097-.329.129-.496.07-.387.133-.876.187-1.368l.117-1.039c.075.145.141.297.211.422.043.074.082.141.137.207.055.067.106.195.359.195h3.532a7.642 7.642 0 0 0 0-.71h-3.383c-.008-.016-.012-.016-.024-.04-.066-.113-.148-.289-.234-.464a4.783 4.783 0 0 0-.266-.516 1.322 1.322 0 0 0-.152-.219c-.062-.066-.148-.176-.359-.176a.365.365 0 0 0-.301.153c-.039.051-.051.086-.063.117a.923.923 0 0 0-.05.18 6.002 6.002 0 0 0-.075.468c-.046.372-.097.86-.152 1.344-.019.18-.047.313-.066.485-.172-1.075-.27-2.129-.45-3.192a6.264 6.264 0 0 0-.144-.66 1.302 1.302 0 0 0-.094-.246.434.434 0 0 0-.379-.246.386.386 0 0 0-.308.156.5.5 0 0 0-.086.149 1.798 1.798 0 0 0-.082.289c-.055.281-.098.566-.129.855-.141 1.336-.25 2.543-.363 3.762-.145-1.617-.223-3.199-.375-4.801a13.979 13.979 0 0 0-.129-.992 1.929 1.929 0 0 0-.075-.321.573.573 0 0 0-.074-.156.384.384 0 0 0-.328-.179Z" style="fill:#b2e567;fill-opacity:1;fill-rule:nonzero;stroke:none" transform="scale(.35277)"/><path d="M16.832 7.59a20.458 20.458 0 0 1-.086 3.629 8.371 8.371 0 0 1-.641 2.379c-.593 1.289-1.55 2.168-2.882 2.66-1.121.375-2.27.574-3.453.594h-.016a15.602 15.602 0 0 1-3.992-.301c-1.184-.262-2.117-.75-2.824-1.449-.708-.7-1.208-1.629-1.485-2.809A13.906 13.906 0 0 1 1.129 9v-.016a13.468 13.468 0 0 1 .375-3.488c.289-1.101.777-1.973 1.457-2.637.68-.66 1.562-1.129 2.672-1.394h.004a10.241 10.241 0 0 1 1.574-.254c.105 0 .207-.012.305-.039a23.172 23.172 0 0 1 3.14.012 9.85 9.85 0 0 1 2.727.609c1.418.586 2.379 1.59 2.902 3.031.309.899.492 1.817.547 2.766z" style="fill:none;stroke:#333;stroke-width:.75;stroke-linecap:butt;stroke-linejoin:miter;stroke-miterlimit:4;stroke-dasharray:none;stroke-opacity:1" transform="scale(.35277)"/></svg>