<svg xmlns="http://www.w3.org/2000/svg" xmlns:xlink="http://www.w3.org/1999/xlink" xml:space="preserve" id="svg154" width="24" height="24" fill="none" version="1.1"><defs id="defs152"><linearGradient id="linearGradient18037"><stop id="stop18033" offset="0" style="stop-color:#ccc;stop-opacity:1"/><stop id="stop18035" offset="1" style="stop-color:#f9f9f9;stop-opacity:1"/></linearGradient><linearGradient id="linearGradient1257"><stop id="stop1255" offset="0" style="stop-color:#000;stop-opacity:1"/></linearGradient><linearGradient xlink:href="#linearGradient18037" id="linearGradient18039" x1="51.712" x2="47.554" y1="96.007" y2="-22.052" gradientTransform="matrix(.24444 0 0 .24444 -.222 -.222)" gradientUnits="userSpaceOnUse"/><linearGradient id="a" x2="0" y1="-521.8" y2="-525.8" gradientUnits="userSpaceOnUse"><stop id="stop3777" offset="0" stop-color="#2a2c2f"/><stop id="stop3779" offset="1" stop-color="#424649"/></linearGradient><style id="current-color-scheme" type="text/css">.ColorScheme-Text{color:#31363b}.ColorScheme-Background{color:#eff0f1}.ColorScheme-Highlight{color:#3daee9}.ColorScheme-ViewText{color:#31363b}.ColorScheme-ViewBackground{color:#fcfcfc}.ColorScheme-ViewHover{color:#93cee9}.ColorScheme-ViewFocus{color:#3daee9}.ColorScheme-ButtonText{color:#31363b}.ColorScheme-ButtonBackground{color:#eff0f1}.ColorScheme-ButtonHover{color:#93cee9}.ColorScheme-ButtonFocus{color:#3daee9}</style></defs><path id="path6" d="M12 1C2 1 1 6 1 12c0 8 3 11 11 11s11-3 11-11c0-6-1-11-11-11Z" style="font-variation-settings:normal;display:inline;opacity:1;vector-effect:none;fill:url(#linearGradient18039);fill-opacity:1;stroke-width:1.11627;stroke-linecap:butt;stroke-linejoin:miter;stroke-miterlimit:4;stroke-dasharray:none;stroke-dashoffset:0;stroke-opacity:1;-inkscape-stroke:none;stop-color:#000;stop-opacity:1"/><g id="g3802" stroke-width=".741" transform="matrix(.39967 0 0 .39967 -151.292 -197.345)"><rect id="rect3784" width="40" height="40" x="388.57" y="503.8" fill="#383b3e" rx="20"/><rect id="rect3786" width="14" height="14" x="401.57" y="516.8" fill="#f57953" rx="7"/><rect id="rect3788" width="4" height="4" x="406.57" y="-525.8" fill="url(#a)" rx="2" style="fill:url(#a)" transform="scale(1 -1)"/><path id="path3790" fill="#fff" fill-opacity=".275" d="M408.57 517.8c-3.324 0-6 2.676-6 6s2.676 6 6 6 6-2.676 6-6-2.676-6-6-6m0 1c2.77 0 5 2.23 5 5s-2.23 5-5 5-5-2.23-5-5 2.23-5 5-5"/><g id="g3800" fill="#4c5053"><path id="path3792" d="M418.07 507.34c-.971-.56-1.973-1-2.99-1.377l-3.465 9.368c.495.179.982.396 1.454.668.472.273.903.587 1.306.925l6.381-7.685a19.04 19.04 0 0 0-2.687-1.901M399.07 540.25a18.959 18.959 0 0 1-2.687-1.901l6.381-7.685c.403.339.834.653 1.306.925.472.273.96.489 1.454.668l-3.465 9.368a19.039 19.039 0 0 1-2.99-1.376"/><g id="g3798" fill-opacity=".198"><path id="path3794" d="M422.01 510.36a19 19 0 0 0-2.531-2.103l-5.771 8.152c.431.301.846.636 1.232 1.022s.721.801 1.022 1.232l8.152-5.771a19.013 19.013 0 0 0-2.103-2.531M395.14 537.23a18.945 18.945 0 0 1-2.103-2.532l8.152-5.771c.301.431.636.846 1.022 1.232s.801.721 1.232 1.022l-5.771 8.152a19.013 19.013 0 0 1-2.531-2.103"/><path id="path3796" d="M425.03 514.3a18.959 18.959 0 0 0-1.901-2.687l-7.685 6.381c.339.403.653.834.925 1.306.273.472.489.96.668 1.454l9.368-3.465a18.955 18.955 0 0 0-1.377-2.99M392.12 533.3c-.56-.971-1-1.973-1.377-2.99l9.368-3.465c.179.495.396.982.668 1.454.273.472.587.903.925 1.306l-7.685 6.381a19.04 19.04 0 0 1-1.901-2.687"/></g></g></g></svg>