<svg xmlns="http://www.w3.org/2000/svg" width="24" height="24" viewBox="0 0 6.35 6.35"><defs><radialGradient id="a" cx="0" cy="0" r="1" fx="0" fy="0" gradientTransform="rotate(90 1.455 1.72) scale(5.82072)" gradientUnits="userSpaceOnUse" spreadMethod="pad"><stop offset="0" style="stop-color:#8fc1ff;stop-opacity:1"/><stop offset="1" style="stop-color:#4c9cff;stop-opacity:1"/></radialGradient></defs><path d="M3.175.265C.529.265.265 1.587.265 3.175c0 2.117.793 2.91 2.91 2.91s2.91-.793 2.91-2.91c0-1.588-.264-2.91-2.91-2.91z" style="font-variation-settings:normal;display:inline;vector-effect:none;fill:#3891ff;fill-opacity:1;stroke-width:.295341;stroke-linecap:butt;stroke-linejoin:miter;stroke-miterlimit:4;stroke-dasharray:none;stroke-dashoffset:0;stroke-opacity:1;-inkscape-stroke:none;stop-color:#000"/><path d="M3.175.522C.764.522.522 1.728.522 3.175c0 1.929.724 2.652 2.653 2.652s2.652-.723 2.652-2.652c0-1.447-.24-2.653-2.652-2.653z" style="fill:url(#a);fill-rule:evenodd;stroke:none;stroke-width:.352771"/><path fill="#fff" d="M4.472 5.609a3.343 3.343 0 0 0 .01.003 3.343 3.343 0 0 0 .046.019 3.343 3.343 0 0 0 .046.017 3.343 3.343 0 0 0 .047.018 3.343 3.343 0 0 0 .047.016 3.343 3.343 0 0 0 .047.015 3.343 3.343 0 0 0 .047.015 3.343 3.343 0 0 0 .048.014 3.343 3.343 0 0 0 .048.014 3.343 3.343 0 0 0 .048.013 3.343 3.343 0 0 0 .048.012 3.343 3.343 0 0 0 .048.011 3.343 3.343 0 0 0 .049.01 3.343 3.343 0 0 0 .049.01 3.343 3.343 0 0 0 .049.01 3.343 3.343 0 0 0 .048.008 3.343 3.343 0 0 0 .05.008 3.343 3.343 0 0 0 .05.007 3.343 3.343 0 0 0 .048.006 3.343 3.343 0 0 0 .05.006 3.343 3.343 0 0 0 .049.005 3.343 3.343 0 0 0 .049.004 3.343 3.343 0 0 0 .05.003 3.343 3.343 0 0 0 .05.003 3.343 3.343 0 0 0 .049.002 3.343 3.343 0 0 0 .05.001 3.343 3.343 0 0 0 .05 0 3.343 3.343 0 0 0 .033 0 3.343 3.343 0 0 0 .05 0 3.343 3.343 0 0 0 .049-.002 3.343 3.343 0 0 0 .05-.003 3.343 3.343 0 0 0 .05-.003 3.343 3.343 0 0 0 .049-.003 3.343 3.343 0 0 0 .05-.005 3.343 3.343 0 0 0 .049-.005 3.343 3.343 0 0 0 .05-.006 3.343 3.343 0 0 0 .049-.007 3.343 3.343 0 0 0 .049-.008 3.343 3.343 0 0 0 .048-.008 3.343 3.343 0 0 0 .05-.009 3.343 3.343 0 0 0 .048-.01 3.343 3.343 0 0 0 .049-.01 3.343 3.343 0 0 0 .048-.011 3.343 3.343 0 0 0 .048-.011 3.343 3.343 0 0 0 .049-.013 3.343 3.343 0 0 0 .047-.014 3.343 3.343 0 0 0 .048-.013 3.343 3.343 0 0 0 .047-.015 3.343 3.343 0 0 0 .047-.015 3.343 3.343 0 0 0 .047-.017 3.343 3.343 0 0 0 .047-.016 3.343 3.343 0 0 0 .047-.018 3.343 3.343 0 0 0 .046-.018 3.343 3.343 0 0 0 .024-.01c.226-.49.403-.968.403-1.212 0-.635-.749-1.149-1.672-1.149-.923 0-1.671.514-1.671 1.149 0 .244.177.722.402 1.212zm0 0c.361.785.883 1.608 1.27 1.608.386 0 .908-.823 1.269-1.608a3.343 3.343 0 0 1-.025.01 3.343 3.343 0 0 1-.046.018 3.343 3.343 0 0 1-.046.017 3.343 3.343 0 0 1-.047.016 3.343 3.343 0 0 1-.047.017 3.343 3.343 0 0 1-.047.015 3.343 3.343 0 0 1-.048.015 3.343 3.343 0 0 1-.048.014 3.343 3.343 0 0 1-.048.013 3.343 3.343 0 0 1-.048.013 3.343 3.343 0 0 1-.048.012 3.343 3.343 0 0 1-.048.011 3.343 3.343 0 0 1-.049.01 3.343 3.343 0 0 1-.049.01 3.343 3.343 0 0 1-.049.008 3.343 3.343 0 0 1-.049.009 3.343 3.343 0 0 1-.049.007 3.343 3.343 0 0 1-.05.007 3.343 3.343 0 0 1-.049.006 3.343 3.343 0 0 1-.049.005 3.343 3.343 0 0 1-.049.005 3.343 3.343 0 0 1-.05.004 3.343 3.343 0 0 1-.05.003 3.343 3.343 0 0 1-.049.002 3.343 3.343 0 0 1-.05.001 3.343 3.343 0 0 1-.05.001 3.343 3.343 0 0 1-.032 0 3.343 3.343 0 0 1-.05 0 3.343 3.343 0 0 1-.05 0 3.343 3.343 0 0 1-.05-.003 3.343 3.343 0 0 1-.05-.002 3.343 3.343 0 0 1-.049-.004 3.343 3.343 0 0 1-.049-.004 3.343 3.343 0 0 1-.05-.005 3.343 3.343 0 0 1-.049-.005 3.343 3.343 0 0 1-.05-.006 3.343 3.343 0 0 1-.049-.008 3.343 3.343 0 0 1-.049-.007 3.343 3.343 0 0 1-.048-.009 3.343 3.343 0 0 1-.05-.01 3.343 3.343 0 0 1-.048-.009 3.343 3.343 0 0 1-.049-.01 3.343 3.343 0 0 1-.048-.012 3.343 3.343 0 0 1-.048-.011 3.343 3.343 0 0 1-.048-.014 3.343 3.343 0 0 1-.048-.013 3.343 3.343 0 0 1-.048-.014 3.343 3.343 0 0 1-.047-.015 3.343 3.343 0 0 1-.047-.015 3.343 3.343 0 0 1-.047-.017 3.343 3.343 0 0 1-.047-.017 3.343 3.343 0 0 1-.046-.018 3.343 3.343 0 0 1-.047-.018 3.343 3.343 0 0 1-.009-.004z" style="stroke-width:1" transform="translate(-2.566 -2.057)"/><path fill="#3292fe" stroke-width="2.078" d="M7.543 7.732q-.129.22-.283.322-.155.103-.358.103-.356 0-.589-.36-.232-.363-.232-.923 0-.563.232-.921.233-.36.589-.36.203 0 .358.102.154.103.283.325v-.372h.625v2.256q0 .605-.297.923-.295.32-.858.32-.182 0-.353-.035-.171-.035-.342-.11v-.625q.164.121.32.18.156.06.314.06.306 0 .448-.173.143-.172.143-.54zm-.41-1.562q-.193 0-.3.184-.108.184-.108.52 0 .345.104.524.104.177.304.177.194 0 .302-.184.108-.183.108-.517 0-.336-.108-.52t-.302-.184Zm2.254 1.624v1.318h-.622V5.648h.622v.368q.128-.22.284-.323.157-.105.36-.105.36 0 .59.37.231.367.231.947t-.23.95q-.232.367-.591.367-.203 0-.36-.103-.156-.105-.284-.325ZM9.8 6.17q-.2 0-.307.19-.106.189-.106.545 0 .356.106.547.107.188.307.188t.304-.188q.106-.189.106-.547 0-.359-.106-.547Q10 6.17 9.8 6.17Z" aria-label="gp" style="stroke-width:2.07798" transform="matrix(.38018 0 0 .38018 -.044 -.044)"/></svg>