<svg xmlns="http://www.w3.org/2000/svg" width="24" height="24" version="1"><defs><radialGradient id="a" cx="0" cy="0" r="1" gradientTransform="rotate(155.136 9.533 3.827) scale(20.7114)" gradientUnits="userSpaceOnUse"><stop stop-color="#777"/><stop offset="1" stop-color="#333"/></radialGradient></defs><path fill="url(#a)" fill-rule="evenodd" d="M1 11.563v.003c0 .141.002.283.005.425-.03 1.521.118 3.025.447 4.51.774 3.3 2.816 5.32 6.128 6.057 1.428.294 2.868.442 4.32.442h.012c.373 0 .746-.01 1.12-.03a15.624 15.624 0 0 0 4.766-.824c1.906-.699 3.284-1.97 4.135-3.812a11.88 11.88 0 0 0 .894-3.32c.183-1.638.22-3.28.114-4.924a14.265 14.265 0 0 0-.756-3.824c-.746-2.06-2.133-3.506-4.158-4.34a13.537 13.537 0 0 0-3.78-.847 31.627 31.627 0 0 0-4.307-.011c-.11.032-.224.047-.344.046-.742.06-1.476.178-2.2.355-3.106.738-5.064 2.65-5.876 5.736A18.48 18.48 0 0 0 1 11.563Z" clip-rule="evenodd" style="fill:url(#a)"/><g fill="#4f4f4f" style="stroke-width:3.84615" transform="matrix(.26 0 0 .26 4.2 3.68)"><rect width="52" height="32" x="4" y="25" rx="4" ry="4" style="stroke-width:3.84615"/><rect width="52" height="18" x="4" y="7" rx="4" ry="4" style="stroke-width:3.84615"/></g><path fill="#e4e4e4" d="M8.88 11.22a3.12 3.12 0 0 0-3.12 3.12 3.12 3.12 0 0 0 3.12 3.12A3.12 3.12 0 0 0 12 14.34a3.12 3.12 0 0 0-3.12-3.12Zm0 1.82a1.3 1.3 0 0 1 1.3 1.3 1.3 1.3 0 0 1-1.3 1.3 1.3 1.3 0 0 1-1.3-1.3 1.3 1.3 0 0 1 1.3-1.3z" style="stroke-width:.999999"/><rect width="12.48" height="3.64" x="5.76" y="6.02" fill="#63a535" rx=".52" ry=".52" style="stroke-width:.999999"/><circle cx="7.58" cy="7.84" r=".78" fill="#4f4f4f" style="stroke-width:.999999"/><rect width="1.56" height="1.56" x="15.64" y="7.06" fill="#983a0e" rx=".78" ry=".78" style="stroke-width:.999999"/><rect width=".52" height=".52" x="16.16" y="7.58" fill="#f7bf32" rx=".26" ry=".26" style="stroke-width:.999999"/><circle cx="9.66" cy="7.84" r=".78" fill="#4f4f4f" style="stroke-width:.999999"/><circle cx="11.74" cy="7.84" r=".78" fill="#4f4f4f" style="stroke-width:.999999"/><path fill="#e4e4e4" d="M15.12 11.22A3.12 3.12 0 0 0 12 14.34a3.12 3.12 0 0 0 3.12 3.12 3.12 3.12 0 0 0 3.12-3.12 3.12 3.12 0 0 0-3.12-3.12zm0 1.82a1.3 1.3 0 0 1 1.3 1.3 1.3 1.3 0 0 1-1.3 1.3 1.3 1.3 0 0 1-1.3-1.3 1.3 1.3 0 0 1 1.3-1.3z" style="stroke-width:.999999"/></svg>