<svg xmlns="http://www.w3.org/2000/svg" width="24" height="24" fill="none"><path fill="#37474F" fill-rule="evenodd" d="M9.596 1.114c.12 0 .234-.014.344-.046a31.627 31.627 0 0 1 4.307.011c1.301.102 2.561.384 3.78.848 2.025.833 3.412 2.28 4.158 4.339.427 1.24.679 2.514.756 3.824a27.94 27.94 0 0 1-.114 4.923 11.88 11.88 0 0 1-.894 3.32c-.85 1.843-2.229 3.114-4.135 3.813a15.624 15.624 0 0 1-4.765.825 21.423 21.423 0 0 1-5.453-.413c-3.312-.737-5.354-2.756-6.128-6.056a19.047 19.047 0 0 1-.447-4.511 18.491 18.491 0 0 1 .515-4.786c.812-3.086 2.77-4.998 5.877-5.736a13.953 13.953 0 0 1 2.199-.355Z" clip-rule="evenodd"/><path fill="#A341B4" fill-rule="evenodd" d="M10.283 2.89a.982.982 0 0 1-.286.038c-.619.05-1.23.148-1.833.296-2.589.615-4.22 2.209-4.897 4.78a15.41 15.41 0 0 0-.43 3.988 15.871 15.871 0 0 0 .373 3.76c.645 2.75 2.347 4.432 5.107 5.047.951.196 1.91.313 2.873.353h1.465l.205-.01a13.017 13.017 0 0 0 3.971-.687c1.589-.582 2.738-1.642 3.447-3.177a9.9 9.9 0 0 0 .744-2.767c.153-1.364.184-2.732.096-4.103a11.883 11.883 0 0 0-.63-3.186c-.622-1.716-1.778-2.922-3.466-3.617a11.28 11.28 0 0 0-3.15-.706c-.62-.044-1.24-.066-1.86-.066h-.008c-.573 0-1.147.02-1.72.057Z" clip-rule="evenodd"/><path fill="#F4416B" fill-rule="evenodd" d="M10.81 2.86c-.176.009-.351.018-.527.03a.982.982 0 0 1-.286.038c-.619.05-1.23.148-1.833.296-2.589.615-4.22 2.209-4.897 4.78a15.41 15.41 0 0 0-.43 3.988 15.866 15.866 0 0 0 .327 3.545L10.81 2.861Z" clip-rule="evenodd"/><path fill="#8A5CD8" fill-rule="evenodd" d="M11.6 21.164a17.842 17.842 0 0 1-3.283-.365c-1.804-.402-3.156-1.26-4.057-2.574L20.586 7.52c.296.939.474 1.902.532 2.888.088 1.37.057 2.739-.096 4.103a9.9 9.9 0 0 1-.744 2.767c-.71 1.535-1.858 2.595-3.447 3.177-1.287.435-2.61.664-3.97.687-.207.01-.412.018-.617.022H11.6Z" clip-rule="evenodd"/><path fill="#46A9D6" fill-rule="evenodd" d="M20.372 17.05c-.03.077-.062.153-.095.228-.708 1.535-1.857 2.595-3.446 3.177-1.287.435-2.61.664-3.97.687-1.53.08-3.045-.035-4.544-.343-.86-.192-1.616-.487-2.27-.885l14.325-2.863Z" clip-rule="evenodd"/></svg>