<svg xmlns="http://www.w3.org/2000/svg" xml:space="preserve" width="24" height="24" fill="none"><defs><radialGradient id="a" cx="0" cy="0" r="1" gradientTransform="matrix(0 22 -22 0 12 1)" gradientUnits="userSpaceOnUse"><stop offset="0" stop-color="#8FC8FF" style="stop-color:#f6f6f6;stop-opacity:1"/><stop offset="1" stop-color="#0056A8" style="stop-color:#cfcfcf;stop-opacity:1"/></radialGradient><radialGradient id="b" cx=".179" cy="-1.748" r="1" fx=".179" fy="-1.748" gradientTransform="matrix(0 22.01453 -22.00166 0 7.532 -2.958)" gradientUnits="userSpaceOnUse" spreadMethod="pad"><stop offset="0" style="stop-opacity:1;stop-color:#666"/><stop offset="1" style="stop-opacity:1;stop-color:#454545"/></radialGradient></defs><g style="display:inline"><rect width="2" height="2" x="12" y="-3" rx="0" ry="0" style="display:inline;fill:#3947be;fill-opacity:1;stroke-width:22.6872;paint-order:markers stroke fill"/><rect width="2" height="2" x="9" y="-3" rx="0" ry="0" style="display:inline;fill:#6c7ad8;fill-opacity:1;stroke-width:22.6873;paint-order:markers stroke fill"/><rect width="2" height="2" x="6" y="-3" rx="0" ry="0" style="display:inline;fill:#3c3;fill-opacity:1;stroke-width:22.6873;paint-order:markers stroke fill"/><rect width="2" height="2" x="3" y="-3" rx="0" ry="0" style="display:inline;fill:#ffc328;fill-opacity:1;stroke-width:22.6872;paint-order:markers stroke fill"/><rect width="2" height="2" y="-3" rx="0" ry="0" style="display:inline;fill:#cc5e55;fill-opacity:1;stroke-width:22.6873;paint-order:markers stroke fill"/><rect width="2" height="2" x="-3" y="12" rx="0" ry="0" style="display:inline;fill:#0bb1cb;fill-opacity:1;stroke-width:22.6872;paint-order:markers stroke fill"/><rect width="2" height="2" x="-3" y="9" rx="0" ry="0" style="display:inline;fill:#2a92c9;fill-opacity:1;stroke-width:22.6873;paint-order:markers stroke fill"/><rect width="2" height="2" x="-3" y="6" rx="0" ry="0" style="display:inline;fill:#069;fill-opacity:1;stroke-width:22.6873;paint-order:markers stroke fill"/><rect width="2" height="2" x="-3" y="3" rx="0" ry="0" style="display:inline;fill:#002a44;fill-opacity:1;stroke-width:22.6873;paint-order:markers stroke fill"/><rect width="2" height="2" x="-3" rx="0" ry="0" style="display:inline;fill:#2c2d3d;fill-opacity:1;stroke-width:22.6873;paint-order:markers stroke fill"/><rect width="2" height="2" x="-3" y="-3" rx="0" ry="0" style="display:inline;fill:#16171c;fill-opacity:1;stroke-width:22.6872;paint-order:markers stroke fill"/></g><path d="M46.047 1c-.318 0-.64.005-.959.016h-.025a21.86 21.86 0 0 0-1.24.077 1.08 1.08 0 0 1-.23.022c-.088.005-.181.016-.27.025a15.74 15.74 0 0 0-2 .35c-.078.015-.146.04-.219.057a8.29 8.29 0 0 0-.35.098c-2.733.839-4.478 2.694-5.233 5.558a18.454 18.454 0 0 0-.494 3.365c-.006.11-.011.213-.011.317-.01.298-.01.599-.016.902.005.068 0 .134.005.202-.005.084 0 .162 0 .246.006.62.026 1.208.068 1.765.006.083.01.161.02.245v.031c.079.745.194 1.49.36 2.224.771 3.303 2.818 5.323 6.126 6.057a21.692 21.692 0 0 0 3.457.427c.141.005.276.005.417.01.12 0 .24 0 .364.006.156 0 .308 0 .464-.005h.093c.22-.006.438-.011.657-.026a15.612 15.612 0 0 0 4.766-.824c1.906-.697 3.286-1.968 4.135-3.812.287-.661.51-1.338.672-2.036v-.01c.027-.099.047-.199.068-.303 0-.01 0-.02.005-.03.016-.08.026-.167.042-.251.03-.187.062-.375.088-.563.01-.067.016-.13.026-.197.084-.798.14-1.588.162-2.391.005-.35.005-.703 0-1.052 0-.088-.006-.172-.006-.26-.01-.38-.02-.767-.046-1.152a14.35 14.35 0 0 0-.755-3.823c-.75-2.057-2.136-3.505-4.161-4.338-.491-.187-.986-.343-1.491-.468-1.01-.24-2.181-.391-3.536-.443-.208-.005-.416-.005-.625-.01-.11 0-.214-.006-.328-.006z" style="fill:url(#b);stroke:none;stroke-width:1.33333" transform="translate(-34)"/><path d="M47.416 4.5c-.697-.005-1.39.021-2.083.079-1.421.109-2.812.338-3.645.629-1.667.584-1.933.62-1.803 1.193.574.859.87 1.823 1.402 2.708.156.115.344.178.609.063 2.213-.86 4.5-1.276 7.692-.547.89-.568 1.245-2.026 1.495-2.953.136-.521-.047-.688-1.938-1.032-.473-.088-1.072-.13-1.729-.14zm1.521 1.396h.006a.317.317 0 0 1 .338.281.314.314 0 0 1-.292.334.31.31 0 0 1-.338-.282.307.307 0 0 1 .286-.333zM42 6.421a.311.311 0 0 1 .339.282.312.312 0 0 1-.287.333.318.318 0 0 1-.339-.287.303.303 0 0 1 .287-.328" style="fill:#f1614b;fill-opacity:1;fill-rule:nonzero;stroke:none;stroke-width:1.33333" transform="translate(-34)"/><path d="M46 6.036a6.731 6.731 0 0 0-6.73 6.735 6.73 6.73 0 0 0 13.46 0A6.731 6.731 0 0 0 46 6.036zm0 4.49a2.24 2.24 0 1 1 0 4.484 2.24 2.24 0 1 1 0-4.483zm0 .562a1.683 1.683 0 1 0 0 3.365 1.683 1.683 0 0 0 0-3.365zm0 .557a1.123 1.123 0 0 1 0 2.246 1.123 1.123 0 0 1 0-2.245z" style="fill:#52c8ff;fill-opacity:1;fill-rule:nonzero;stroke:none;stroke-width:1.33333" transform="translate(-34)"/></svg>