<svg xmlns="http://www.w3.org/2000/svg" width="24" height="24" version="1"><defs><radialGradient id="a" cx="0" cy="0" r="1" fx="0" fy="0" gradientTransform="matrix(0 16.5 -16.5 0 9 .75)" gradientUnits="userSpaceOnUse" spreadMethod="pad"><stop offset="0" style="stop-opacity:1;stop-color:#fafafa"/><stop offset="1" style="stop-opacity:1;stop-color:silver"/></radialGradient></defs><path d="M7.195.836c.09 0 .176-.012.258-.035a23.86 23.86 0 0 1 3.231.008 10.26 10.26 0 0 1 2.836.636c1.519.625 2.558 1.711 3.121 3.254.316.93.507 1.887.566 2.867a21.227 21.227 0 0 1-.086 3.696 8.976 8.976 0 0 1-.672 2.488c-.637 1.383-1.672 2.336-3.101 2.859a11.693 11.693 0 0 1-3.575.618 15.998 15.998 0 0 1-4.089-.309c-2.481-.551-4.016-2.066-4.594-4.543a14.244 14.244 0 0 1-.336-3.383c-.027-1.211.101-2.41.387-3.59.609-2.312 2.078-3.746 4.406-4.3A10.27 10.27 0 0 1 7.195.836Z" style="fill:url(#a);fill-rule:evenodd;stroke:none" transform="matrix(1.33333 0 0 1.33333 0 0)"/><g style="stroke-width:2.92308" transform="matrix(.25 0 0 .25 4 4)"><rect width="14" height="14" x="-54" y="-54" fill="#df82d9" rx="7" ry="7" style="stroke-width:2.92308" transform="matrix(0 -1 -1 0 0 0)"/><path fill="#72acef" d="m8 38 8.43-12.768 6.842 11.851z" style="stroke-width:2.92308"/><path fill="#4c95eb" d="m6 27 14-7v14Z" style="stroke-width:2.92308"/><path fill="#3a8ae9" d="m8 17.849 14.988-3.067L19.447 28Z" style="stroke-width:2.92308"/><path fill="#3074c3" d="m14 9.232 15.272.917L22.43 22Z" style="stroke-width:2.92308"/><rect width="40" height="40" x="-48" y="-58" fill="#d761cf" rx="20" ry="20" style="stroke-width:2.92308" transform="matrix(0 -1 -1 0 0 0)"/><rect width="14" height="14" x="-56" y="-36" fill="#df82d9" rx="7" ry="7" style="stroke-width:2.92308" transform="matrix(0 -1 -1 0 0 0)"/><g fill="#fff" style="stroke-width:2.92308" transform="matrix(1.3333 0 0 1.2727 8.667 -2.364)"><ellipse cx="26" cy="22" rx="4" ry="5" style="stroke-width:2.92308"/><ellipse cx="30" cy="21" rx="4" ry="5" style="stroke-width:2.92308"/></g><ellipse cx="45.5" cy="26" fill="#1b1b1b" rx="1.5" ry="2" style="stroke-width:2.92308"/><path fill-rule="evenodd" d="M50.598 36c-2.185.525-3.53 2.285-5.685 2.763-1.551.302-3.593-.98-5.046-.264-.814.4-2.923 1.458-1.221 2.14 0 0 1.003.405 2.267.767 1.265.361 2.73.773 4.28.511 1.75-.296 3.16-1.31 4.355-2.202 1.195-.892 2.08-1.73 2.08-1.73.824-.758.192-1.976-1.03-1.986z" opacity=".6" style="stroke-width:2.92308"/><ellipse cx="51.5" cy="24" fill="#1b1b1b" rx="1.5" ry="2" style="stroke-width:2.92308"/></g></svg>