<svg xmlns="http://www.w3.org/2000/svg" xml:space="preserve" width="24" height="24" viewBox="0 0 6.35 6.35"><defs><radialGradient id="a" cx="0" cy="0" r="1" fx="0" fy="0" gradientTransform="scale(-18.44752) rotate(-63.435 -.389 .555)" gradientUnits="userSpaceOnUse" spreadMethod="pad"><stop offset="0" style="stop-opacity:1;stop-color:#c00111"/><stop offset="1" style="stop-opacity:1;stop-color:#7b0619"/></radialGradient></defs><path d="M5.699.75h6.602a4.938 4.938 0 0 1 4.949 4.949v6.602a4.938 4.938 0 0 1-4.949 4.949H5.699A4.938 4.938 0 0 1 .75 12.301V5.699A4.938 4.938 0 0 1 5.699.75Z" style="fill:url(#a);stroke:none" transform="scale(.35277)"/><path d="M8.961 3.75A5.251 5.251 0 0 0 3.75 9 5.252 5.252 0 0 0 9 14.25 5.252 5.252 0 0 0 14.25 9 5.252 5.252 0 0 0 9 3.75h-.039zm.035 2.102H9c.836 0 1.637.332 2.227.921a3.153 3.153 0 0 1 0 4.454 3.153 3.153 0 0 1-4.454 0A3.153 3.153 0 0 1 5.852 9c0-.836.328-1.637.918-2.227a3.156 3.156 0 0 1 2.226-.921Z" style="fill:#ff6e65;fill-opacity:1;fill-rule:nonzero;stroke:none" transform="scale(.35277)"/><path d="M4.23 6.824A5.285 5.285 0 0 0 3.75 9c0 .777.176 1.512.48 2.176l1.84-1.051a3.011 3.011 0 0 1 0-2.25m7.7-1.051-1.84 1.051c.136.348.218.727.218 1.125s-.082.777-.214 1.125l1.836 1.051c.304-.664.48-1.399.48-2.176 0-.777-.176-1.516-.48-2.176Zm-5.895 5.11L6.824 13.77c.664.304 1.399.48 2.176.48.777 0 1.516-.176 2.176-.48l-1.051-1.84A3.086 3.086 0 0 1 9 12.148a3.17 3.17 0 0 1-1.125-.214ZM9 3.75c-.777 0-1.512.176-2.176.48l1.051 1.84A3.086 3.086 0 0 1 9 5.852c.398 0 .777.082 1.125.214l1.051-1.836A5.161 5.161 0 0 0 9 3.75Z" style="fill:#fff;fill-opacity:1;fill-rule:nonzero;stroke:none" transform="scale(.35277)"/></svg>