<svg xmlns="http://www.w3.org/2000/svg" xmlns:xlink="http://www.w3.org/1999/xlink" xml:space="preserve" id="svg154" width="24" height="24" fill="none" version="1.1"><defs id="defs152"><linearGradient id="linearGradient480"><stop id="stop476" offset="0" style="stop-color:#2b639a;stop-opacity:1"/><stop id="stop478" offset="1" style="stop-color:#38b0f8;stop-opacity:1"/></linearGradient><linearGradient id="linearGradient12825"><stop id="stop12821" offset="0" style="stop-color:#000;stop-opacity:1"/><stop id="stop12823" offset="1" style="stop-color:#000;stop-opacity:0"/></linearGradient><linearGradient xlink:href="#linearGradient12825" id="linearGradient12827" x1="99.221" x2="98.331" y1="125.472" y2="243.381" gradientTransform="matrix(.41575 0 0 .41575 -31.469 -49.739)" gradientUnits="userSpaceOnUse"/><linearGradient xlink:href="#linearGradient480" id="linearGradient482" x1="52.797" x2="50.808" y1="97.092" y2="-13.554" gradientTransform="matrix(.24444 0 0 .24444 -.222 -.222)" gradientUnits="userSpaceOnUse"/><style id="current-color-scheme" type="text/css">.ColorScheme-Text{color:#31363b}.ColorScheme-Background{color:#eff0f1}.ColorScheme-Highlight{color:#3daee9}.ColorScheme-ViewText{color:#31363b}.ColorScheme-ViewBackground{color:#fcfcfc}.ColorScheme-ViewHover{color:#93cee9}.ColorScheme-ViewFocus{color:#3daee9}.ColorScheme-ButtonText{color:#31363b}.ColorScheme-ButtonBackground{color:#eff0f1}.ColorScheme-ButtonHover{color:#93cee9}.ColorScheme-ButtonFocus{color:#3daee9}</style></defs><path id="path6" d="M12 1C2 1 1 6 1 12c0 8 3 11 11 11s11-3 11-11c0-6-1-11-11-11Z" style="font-variation-settings:normal;display:inline;opacity:1;vector-effect:none;fill:url(#linearGradient482);fill-opacity:1;stroke-width:1.11627;stroke-linecap:butt;stroke-linejoin:miter;stroke-miterlimit:4;stroke-dasharray:none;stroke-dashoffset:0;stroke-opacity:1;-inkscape-stroke:none;stop-color:#000;stop-opacity:1"/><path id="path1691" d="M11.915 4.316c-.18.029-.348.13-.514.201a78.18 78.18 0 0 0-.945.417c-.93.419-1.864.831-2.8 1.234-.284.121-.565.247-.846.373-.214.097-.412.18-.496.42-.07.204.007.411.048.613.082.393.172.784.252 1.177.319 1.567.684 3.125 1.008 4.69.156.753.33 1.501.484 2.255.047.232.102.463.15.696.028.14.044.305.12.43.155.258.49.46.721.647.452.364.892.743 1.343 1.107.334.27.663.546.994.82.185.153.37.323.63.29.251-.034.441-.234.63-.387.375-.305.753-.605 1.127-.911.417-.342.839-.678 1.26-1.015.196-.157.472-.318.605-.534.118-.192.136-.461.18-.68.085-.425.172-.851.262-1.276.32-1.5.63-3.003.931-4.508.157-.784.309-1.573.485-2.353.07-.31.25-.769.13-1.078-.081-.213-.26-.298-.455-.386-.27-.122-.542-.238-.813-.357-1.071-.474-2.14-.951-3.215-1.418-.26-.114-.518-.232-.779-.344-.16-.069-.317-.151-.497-.123m-.017.23c.218-.032.405.07.597.156.231.104.465.202.696.307.944.43 1.898.844 2.85 1.256.25.107.497.222.747.329.186.08.377.163.456.367.115.295-.053.715-.118 1.01-.158.722-.303 1.448-.448 2.172-.285 1.42-.567 2.844-.878 4.26-.083.38-.16.762-.236 1.143-.037.187-.05.416-.154.58-.118.184-.346.312-.512.45-.41.34-.827.67-1.243 1.002-.344.275-.684.554-1.028.83-.18.144-.34.315-.58.344-.233.028-.413-.132-.58-.27-.303-.253-.606-.506-.911-.754-.434-.353-.864-.71-1.293-1.067-.193-.161-.466-.32-.602-.535-.157-.248-.171-.643-.234-.928-.153-.695-.295-1.393-.447-2.088-.324-1.473-.651-2.947-.951-4.425-.076-.371-.16-.74-.24-1.11-.041-.198-.113-.399-.044-.598.075-.213.27-.3.463-.383.254-.11.51-.22.762-.334.88-.397 1.768-.78 2.652-1.17.287-.127.573-.257.862-.38.132-.057.27-.143.414-.164m.05 1.255c-.211.451-.504.876-.75 1.31-.09.157-.258.351-.295.53-.032.158.03.37.048.53.038.359.08.718.116 1.077.118 1.189.254 2.376.38 3.564.065.601.113 1.207.193 1.806.027.203.043.282.208.415.04.032.095.092.15.094.055 0 .109-.06.149-.091.167-.134.179-.214.203-.418.073-.606.12-1.216.18-1.823.118-1.171.232-2.343.349-3.514.039-.386.086-.773.115-1.16.01-.144.074-.34.04-.48-.054-.218-.25-.455-.363-.647-.235-.395-.45-.802-.69-1.193h-.033m-1.867 8.95c-.077.045-.122.19-.165.265-.06.108-.18.258-.197.381-.021.146.19.405.259.53.027.05.05.12.1.15.086.048.27-.02.362-.035l.762-.127c.1-.017.256-.014.343-.07.08-.053.289-.334.286-.431-.004-.102-.211-.378-.3-.424-.08-.041-.192-.04-.28-.057-.22-.042-.441-.078-.662-.115-.116-.019-.404-.125-.508-.066m3.773-.01c-.303.018-.613.107-.912.157-.143.023-.348.023-.477.091-.095.05-.273.302-.296.407-.021.1.2.394.282.448.097.063.279.06.392.079l.696.116c.103.017.227.059.331.05.104-.01.16-.182.203-.262.058-.108.208-.29.204-.414-.005-.12-.132-.278-.189-.381-.049-.089-.113-.298-.234-.29m-1.873.972c-.088.015-.27.187-.305.267-.038.084-.033.203-.045.294-.03.22-.056.442-.086.663-.014.11-.078.305-.035.41.04.097.4.354.504.337.072-.012.141-.082.2-.122.076-.054.233-.124.27-.214.038-.09-.013-.25-.027-.345-.038-.27-.08-.541-.11-.812-.021-.183-.065-.255-.2-.381-.042-.039-.102-.109-.166-.097z" style="fill:url(#linearGradient12827);fill-opacity:1;stroke:none;stroke-width:.0165743"/></svg>