<svg xmlns="http://www.w3.org/2000/svg" xmlns:xlink="http://www.w3.org/1999/xlink" xml:space="preserve" id="svg154" width="24" height="24" fill="none" version="1.1"><defs id="defs152"><linearGradient id="linearGradient18037"><stop id="stop18033" offset="0" style="stop-color:#262532;stop-opacity:1"/><stop id="stop18035" offset="1" style="stop-color:#9393ac;stop-opacity:1"/></linearGradient><linearGradient id="linearGradient1257"><stop id="stop1255" offset="0" style="stop-color:#000;stop-opacity:1"/></linearGradient><linearGradient xlink:href="#linearGradient18037" id="linearGradient18039" x1="50.628" x2="47.554" y1="84.617" y2="-22.052" gradientTransform="matrix(.24444 0 0 .24444 -.222 -.222)" gradientUnits="userSpaceOnUse"/><style id="current-color-scheme" type="text/css">.ColorScheme-Text{color:#31363b}.ColorScheme-Background{color:#eff0f1}.ColorScheme-Highlight{color:#3daee9}.ColorScheme-ViewText{color:#31363b}.ColorScheme-ViewBackground{color:#fcfcfc}.ColorScheme-ViewHover{color:#93cee9}.ColorScheme-ViewFocus{color:#3daee9}.ColorScheme-ButtonText{color:#31363b}.ColorScheme-ButtonBackground{color:#eff0f1}.ColorScheme-ButtonHover{color:#93cee9}.ColorScheme-ButtonFocus{color:#3daee9}</style></defs><path id="path6" d="M12 1C2 1 1 6 1 12c0 8 3 11 11 11s11-3 11-11c0-6-1-11-11-11Z" style="font-variation-settings:normal;display:inline;opacity:1;vector-effect:none;fill:url(#linearGradient18039);fill-opacity:1;stroke-width:1.11627;stroke-linecap:butt;stroke-linejoin:miter;stroke-miterlimit:4;stroke-dasharray:none;stroke-dashoffset:0;stroke-opacity:1;-inkscape-stroke:none;stop-color:#000;stop-opacity:1"/><g id="g18388" transform="translate(-89.507 -43.866) scale(.20516)"><path id="path3901" fill="#f6f5f4" fill-opacity=".099" d="M536.505 272.302c0 2.921-18.336 34.68-20.866 36.143-2.532 1.46-39.205 1.46-41.734 0-2.528-1.46-20.868-33.222-20.868-36.143 0-2.921 18.34-34.68 20.868-36.142 2.53-1.46 39.205-1.46 41.734 0 2.528 1.46 20.866 33.22 20.866 36.142z" display="block" overflow="visible" style="color:#000;isolation:auto;mix-blend-mode:normal;stroke-width:1.66078;marker:none;paint-order:fill markers stroke"/><path id="path3903" fill="#ffab34" d="M494.771 242.307c-3.647 0-7.287.064-10.194.196a68.014 68.014 0 0 0-3.757.26c-.52.056-.981.12-1.437.205-.455.086-.797.064-1.71.578-.912.51-1.068.811-1.374 1.152a16.675 16.675 0 0 0-.899 1.108 61.45 61.45 0 0 0-2.11 3.025 217.866 217.866 0 0 0-5.274 8.472 216.851 216.851 0 0 0-4.915 8.67 61 61 0 0 0-1.65 3.29 15.9 15.9 0 0 0-.538 1.31c-.15.426-.344.707-.344 1.729 0 1.022.193 1.303.344 1.73.149.426.328.843.538 1.309.423.93.981 2.035 1.648 3.29 1.333 2.51 3.094 5.604 4.917 8.668a249.54 249.54 0 0 0 3.439 5.6l-4.752 15.186 11.92-6.604c.29.086.512.106.763.155.453.087.916.149 1.436.204 1.043.11 2.303.192 3.757.26 2.905.133 6.545.198 10.192.198 3.647 0 7.285-.065 10.19-.197a65.247 65.247 0 0 0 3.76-.26 18.153 18.153 0 0 0 1.436-.205c.457-.086.801-.064 1.713-.577.913-.51 1.067-.812 1.373-1.153a17.24 17.24 0 0 0 .899-1.108 61.392 61.392 0 0 0 2.11-3.025 217.88 217.88 0 0 0 5.274-8.472 216.864 216.864 0 0 0 4.915-8.67 59.654 59.654 0 0 0 1.646-3.29 16.397 16.397 0 0 0 .542-1.31c.15-.426.344-.707.344-1.729 0-1.022-.193-1.303-.344-1.73a16.394 16.394 0 0 0-.54-1.309 60.792 60.792 0 0 0-1.646-3.29 216.866 216.866 0 0 0-4.917-8.668 217.909 217.909 0 0 0-5.275-8.472 61.464 61.464 0 0 0-2.11-3.027 16.677 16.677 0 0 0-.898-1.108c-.306-.34-.46-.642-1.375-1.154-.912-.512-1.254-.49-1.709-.577a17.569 17.569 0 0 0-1.439-.202 65.24 65.24 0 0 0-3.757-.26c-2.905-.134-6.545-.2-10.192-.2zm0 6.822c3.56 0 7.127.067 9.859.192.394.019.607.048.962.069l-10.882 16.2-11.017-16.185c.437-.028.719-.06 1.22-.084a229.493 229.493 0 0 1 9.858-.19zm17.207 5.958a237.805 237.805 0 0 1 3.46 5.63 212.098 212.098 0 0 1 4.76 8.383 57.474 57.474 0 0 1 1.458 2.912c.06.132.075.18.121.29-.044.11-.061.156-.12.29a56.695 56.695 0 0 1-1.459 2.912 212.1 212.1 0 0 1-4.76 8.383 229.017 229.017 0 0 1-3.934 6.37l-11.652-17.119zm-34.54.196 12.178 17.89-11.527 17.161a228.102 228.102 0 0 1-3.985-6.447 212.1 212.1 0 0 1-4.76-8.383 56.038 56.038 0 0 1-1.458-2.912c-.06-.132-.075-.18-.121-.29.044-.11.061-.156.12-.29a56.7 56.7 0 0 1 1.459-2.912c1.254-2.36 2.979-5.39 4.76-8.382a240.541 240.541 0 0 1 3.335-5.435zm17.32 25.437 9.91 14.56-.037.003c-2.733.125-6.3.19-9.86.19-3.536 0-7.073-.065-9.799-.186z" display="block" font-family="sans-serif" font-weight="400" overflow="visible" style="color:#000;line-height:normal;font-variant-ligatures:normal;font-variant-position:normal;font-variant-caps:normal;font-variant-numeric:normal;font-variant-alternates:normal;font-feature-settings:normal;text-indent:0;text-align:start;text-decoration-line:none;text-decoration-style:solid;text-decoration-color:#000;text-transform:none;text-orientation:mixed;white-space:normal;shape-padding:0;isolation:auto;mix-blend-mode:normal;stroke-width:1.66078;marker:none;paint-order:fill markers stroke"/></g></svg>