<svg xmlns="http://www.w3.org/2000/svg" xmlns:xlink="http://www.w3.org/1999/xlink" xml:space="preserve" id="svg154" width="24" height="24" fill="none" version="1.1"><defs id="defs152"><linearGradient id="linearGradient18037"><stop id="stop18033" offset="0" style="stop-color:#666;stop-opacity:1"/><stop id="stop18035" offset="1" style="stop-color:#f2f2f2;stop-opacity:1"/></linearGradient><linearGradient id="linearGradient1257"><stop id="stop1255" offset="0" style="stop-color:#000;stop-opacity:1"/></linearGradient><linearGradient xlink:href="#linearGradient18037" id="linearGradient18039" x1="50.628" x2="47.554" y1="84.617" y2="-22.052" gradientTransform="matrix(.24444 0 0 .24444 -.222 -.222)" gradientUnits="userSpaceOnUse"/><style id="current-color-scheme" type="text/css">.ColorScheme-Text{color:#31363b}.ColorScheme-Background{color:#eff0f1}.ColorScheme-Highlight{color:#3daee9}.ColorScheme-ViewText{color:#31363b}.ColorScheme-ViewBackground{color:#fcfcfc}.ColorScheme-ViewHover{color:#93cee9}.ColorScheme-ViewFocus{color:#3daee9}.ColorScheme-ButtonText{color:#31363b}.ColorScheme-ButtonBackground{color:#eff0f1}.ColorScheme-ButtonHover{color:#93cee9}.ColorScheme-ButtonFocus{color:#3daee9}</style></defs><path id="path6" d="M12 1C2 1 1 6 1 12c0 8 3 11 11 11s11-3 11-11c0-6-1-11-11-11Z" style="font-variation-settings:normal;display:inline;opacity:1;vector-effect:none;fill:url(#linearGradient18039);fill-opacity:1;stroke-width:1.11627;stroke-linecap:butt;stroke-linejoin:miter;stroke-miterlimit:4;stroke-dasharray:none;stroke-dashoffset:0;stroke-opacity:1;-inkscape-stroke:none;stop-color:#000;stop-opacity:1"/><g id="g15669" transform="matrix(.11074 0 0 .11074 -37.813 -18.01)"><rect id="rect15164" width="27.12" height="27.12" x="387.455" y="208.661" fill="#999" rx="2.716" ry="2.716" style="stroke-width:10.2493"/><rect id="rect15166" width="27.12" height="27.12" x="419.996" y="208.661" fill="#fff" rx="2.716" ry="2.716" style="stroke-width:10.2493"/><rect id="rect15168" width="27.12" height="27.12" x="452.538" y="208.661" fill="#ff5757" rx="2.716" ry="2.716" style="stroke-width:10.2493"/><rect id="rect15170" width="27.12" height="27.12" x="485.08" y="208.661" fill="#fff" rx="2.716" ry="2.716" style="stroke-width:10.2493"/><rect id="rect15172" width="27.12" height="27.12" x="387.455" y="241.152" fill="#fff" rx="2.716" ry="2.716" style="stroke-width:10.2493"/><rect id="rect15174" width="27.12" height="27.12" x="419.996" y="241.152" fill="#fff" rx="2.716" ry="2.716" style="stroke-width:10.2493"/><rect id="rect15176" width="27.12" height="27.12" x="452.538" y="241.152" fill="#ff5757" rx="2.716" ry="2.716" style="stroke-width:10.2493"/><rect id="rect15178" width="27.12" height="27.12" x="485.08" y="241.152" fill="#fff" rx="2.716" ry="2.716" style="stroke-width:10.2493"/><rect id="rect15180" width="27.12" height="27.12" x="387.455" y="273.745" fill="#fff" rx="2.716" ry="2.716" style="stroke-width:10.2493"/><rect id="rect15182" width="27.12" height="27.12" x="419.996" y="273.745" fill="#999" rx="2.716" ry="2.716" style="stroke-width:10.2493"/><rect id="rect15184" width="27.12" height="27.12" x="452.538" y="273.745" fill="#fff" rx="2.716" ry="2.716" style="stroke-width:10.2493"/><rect id="rect15186" width="27.12" height="27.12" x="485.08" y="273.745" fill="#4ac73e" rx="2.716" ry="2.716" style="stroke-width:10.2493"/><rect id="rect15188" width="27.12" height="27.12" x="387.455" y="306.235" fill="#fff" rx="2.716" ry="2.716" style="stroke-width:10.2493"/><rect id="rect15190" width="27.12" height="27.12" x="419.996" y="306.235" fill="#fff" rx="2.716" ry="2.716" style="stroke-width:10.2493"/><rect id="rect15192" width="27.12" height="27.12" x="452.538" y="306.235" fill="#fff" rx="2.716" ry="2.716" style="stroke-width:10.2493"/><rect id="rect15194" width="27.12" height="27.12" x="485.08" y="306.235" fill="#fff" rx="2.716" ry="2.716" style="stroke-width:10.2493"/></g></svg>