<svg xmlns="http://www.w3.org/2000/svg" xmlns:xlink="http://www.w3.org/1999/xlink" xml:space="preserve" id="svg154" width="24" height="24" fill="none" version="1.1"><defs id="defs152"><linearGradient id="linearGradient18037"><stop id="stop18033" offset="0" style="stop-color:#ffcc01;stop-opacity:1"/><stop id="stop18035" offset="1" style="stop-color:#ffdc50;stop-opacity:1"/></linearGradient><linearGradient id="linearGradient1257"><stop id="stop1255" offset="0" style="stop-color:#000;stop-opacity:1"/></linearGradient><linearGradient xlink:href="#linearGradient18037" id="linearGradient18039" x1="50.628" x2="47.554" y1="84.617" y2="-22.052" gradientTransform="matrix(.24444 0 0 .24444 -.222 -.222)" gradientUnits="userSpaceOnUse"/><style id="current-color-scheme" type="text/css">.ColorScheme-Text{color:#31363b}.ColorScheme-Background{color:#eff0f1}.ColorScheme-Highlight{color:#3daee9}.ColorScheme-ViewText{color:#31363b}.ColorScheme-ViewBackground{color:#fcfcfc}.ColorScheme-ViewHover{color:#93cee9}.ColorScheme-ViewFocus{color:#3daee9}.ColorScheme-ButtonText{color:#31363b}.ColorScheme-ButtonBackground{color:#eff0f1}.ColorScheme-ButtonHover{color:#93cee9}.ColorScheme-ButtonFocus{color:#3daee9}</style></defs><path id="path6" d="M12 1C2 1 1 6 1 12c0 8 3 11 11 11s11-3 11-11c0-6-1-11-11-11Z" style="font-variation-settings:normal;display:inline;opacity:1;vector-effect:none;fill:url(#linearGradient18039);fill-opacity:1;stroke-width:1.11627;stroke-linecap:butt;stroke-linejoin:miter;stroke-miterlimit:4;stroke-dasharray:none;stroke-dashoffset:0;stroke-opacity:1;-inkscape-stroke:none;stop-color:#000;stop-opacity:1"/><path id="path26418" d="M12 5.104 5.104 12h1.063v6.896h11.672V12h1.057Zm-.532 4.245h1.063v1.062h1.594v1.057h-1.594v1.052c.25.01.51.037.776.157.261.11.474.302.614.542.147.26.204.562.204.906 0 .307-.037.578-.146.828a1.235 1.235 0 0 1-.547.572c-.292.147-.588.178-.901.183v1.068h-1.063v-1.063H9.88v-1.062h1.588v-1.052a1.982 1.982 0 0 1-.765-.151 1.307 1.307 0 0 1-.615-.541c-.14-.256-.197-.558-.197-.896-.006-.271-.022-.746.338-1.115.287-.281.682-.417 1.239-.464Zm0 2.156c-.323.042-.463.12-.484.14-.025.032-.041.084-.036.35v.01c0 .219.041.328.068.38.03.047.047.063.11.088.06.032.186.047.342.058zm1.063 2.088v1.042c.218-.015.38-.036.428-.058.036-.02.03-.009.052-.057a1.16 1.16 0 0 0 .052-.395c0-.218-.038-.333-.068-.385-.027-.052-.042-.063-.11-.09-.062-.03-.193-.046-.354-.057z" style="fill:#fff;fill-opacity:1;fill-rule:nonzero;stroke:none;stroke-width:1.33333"/></svg>