<svg xmlns="http://www.w3.org/2000/svg" xmlns:xlink="http://www.w3.org/1999/xlink" xml:space="preserve" id="svg154" width="24" height="24" fill="none" version="1.1"><defs id="defs152"><linearGradient id="linearGradient18037"><stop id="stop18033" offset="0" style="stop-color:#1a64a3;stop-opacity:1"/><stop id="stop18035" offset="1" style="stop-color:#7da7c9;stop-opacity:1"/></linearGradient><linearGradient id="linearGradient1257"><stop id="stop1255" offset="0" style="stop-color:#000;stop-opacity:1"/></linearGradient><linearGradient xlink:href="#linearGradient18037" id="linearGradient18039" x1="50.628" x2="48.458" y1="84.617" y2="-4.153" gradientTransform="matrix(.24444 0 0 .24444 -.222 -.222)" gradientUnits="userSpaceOnUse"/><style id="current-color-scheme" type="text/css">.ColorScheme-Text{color:#31363b}.ColorScheme-Background{color:#eff0f1}.ColorScheme-Highlight{color:#3daee9}.ColorScheme-ViewText{color:#31363b}.ColorScheme-ViewBackground{color:#fcfcfc}.ColorScheme-ViewHover{color:#93cee9}.ColorScheme-ViewFocus{color:#3daee9}.ColorScheme-ButtonText{color:#31363b}.ColorScheme-ButtonBackground{color:#eff0f1}.ColorScheme-ButtonHover{color:#93cee9}.ColorScheme-ButtonFocus{color:#3daee9}</style></defs><path id="path6" d="M12 1C2 1 1 6 1 12c0 8 3 11 11 11s11-3 11-11c0-6-1-11-11-11Z" style="font-variation-settings:normal;display:inline;opacity:1;vector-effect:none;fill:url(#linearGradient18039);fill-opacity:1;stroke-width:1.11627;stroke-linecap:butt;stroke-linejoin:miter;stroke-miterlimit:4;stroke-dasharray:none;stroke-dashoffset:0;stroke-opacity:1;-inkscape-stroke:none;stop-color:#000;stop-opacity:1"/><path id="path4045" fill="#fff" d="M11.731 2.989a9.019 9.019 0 0 0-1.77.227L5.719 15.544h1.678l2.142-6.282H10.7l-2.113 6.282h1.687l1.997-5.848c.29-.842-.167-1.61-1.016-1.61H9.948Zm2.346 5.097-4.35 12.663a9.163 9.163 0 0 0 1.61.262l1.89-5.47h2.228c.397 0 .827-.32.963-.71l1.777-5.14c.29-.842-.167-1.61-1.016-1.61m-1.836 1.176h1.264l-1.754 5.104h-1.264Z" style="stroke-width:1.17161"/></svg>