<svg xmlns="http://www.w3.org/2000/svg" xmlns:xlink="http://www.w3.org/1999/xlink" xml:space="preserve" id="svg154" width="24" height="24" fill="none" version="1.1"><defs id="defs152"><linearGradient id="linearGradient18037"><stop id="stop18033" offset="0" style="stop-color:#adb5ff;stop-opacity:1"/><stop id="stop18035" offset="1" style="stop-color:#7a83df;stop-opacity:1"/></linearGradient><linearGradient id="linearGradient1257"><stop id="stop1255" offset="0" style="stop-color:#000;stop-opacity:1"/></linearGradient><linearGradient xlink:href="#linearGradient18037" id="linearGradient18039" x1="48.458" x2="48.458" y1="113.182" y2="-4.153" gradientTransform="matrix(.24444 0 0 .24444 -.222 -.222)" gradientUnits="userSpaceOnUse"/><linearGradient id="b-61" x1="32" x2="53.891" y1="43.543" y2="43.543" gradientTransform="scale(.26458)" gradientUnits="userSpaceOnUse"><stop id="stop3974-0" offset="0" stop-color="#b9c0ff"/><stop id="stop3976-6" offset="1" stop-color="#7380ff"/></linearGradient><linearGradient id="a-3-3" x1="10" x2="53.891" y1="32" y2="32" gradientTransform="scale(.26458)" gradientUnits="userSpaceOnUse"><stop id="stop3979-2" offset="0" stop-color="#fff"/><stop id="stop3981-0" offset="1" stop-color="#fff" stop-opacity="0"/></linearGradient><linearGradient id="c-6" x1="32" x2="32" y1="32" y2="6" gradientTransform="scale(.26458)" gradientUnits="userSpaceOnUse"><stop id="stop3984-1" offset="0" stop-color="#fff"/><stop id="stop3986-5" offset="1" stop-color="#fff"/></linearGradient><style id="current-color-scheme" type="text/css">.ColorScheme-Text{color:#31363b}.ColorScheme-Background{color:#eff0f1}.ColorScheme-Highlight{color:#3daee9}.ColorScheme-ViewText{color:#31363b}.ColorScheme-ViewBackground{color:#fcfcfc}.ColorScheme-ViewHover{color:#93cee9}.ColorScheme-ViewFocus{color:#3daee9}.ColorScheme-ButtonText{color:#31363b}.ColorScheme-ButtonBackground{color:#eff0f1}.ColorScheme-ButtonHover{color:#93cee9}.ColorScheme-ButtonFocus{color:#3daee9}</style></defs><path id="path6" d="M12 1C2 1 1 6 1 12c0 8 3 11 11 11s11-3 11-11c0-6-1-11-11-11Z" style="font-variation-settings:normal;display:inline;opacity:1;vector-effect:none;fill:url(#linearGradient18039);fill-opacity:1;stroke-width:1.11627;stroke-linecap:butt;stroke-linejoin:miter;stroke-miterlimit:4;stroke-dasharray:none;stroke-dashoffset:0;stroke-opacity:1;-inkscape-stroke:none;stop-color:#000;stop-opacity:1"/><g id="g4034" transform="translate(2.224 2.224) scale(1.15475)"><circle id="circle3991" cx="8.466" cy="8.466" r="7.144" fill="#5b65cb" fill-rule="evenodd"/><path id="path3993" d="M32.002 9.996v1.002H29v-.771a22.001 22.001 0 0 0-1 .148v.623h-2.482A22.001 22.001 0 0 0 22.895 12H24v2.998h-2.996v-2.023a22.001 22.001 0 0 0-1.002.59v1.433h-1.943A22.001 22.001 0 0 0 16 16.938V19h-1.719a22.001 22.001 0 0 0-.699 1.002H16v2.996h-2.998v-2.05A22.001 22.001 0 0 0 12 22.886v.111h-.053A22.001 22.001 0 0 0 11.53 24H12v2.998h-1.4A22.001 22.001 0 0 0 10.383 28H12v3h-1.95a22.001 22.001 0 0 0-.05.998c.007 0 .013.004.02.004H12V35h-1.77a22.001 22.001 0 0 0 .149 1H12v2.998h-.826A22.001 22.001 0 0 0 11.51 40H12v1.098a22.001 22.001 0 0 0 1.572 2.904H16V47h-.068A22.001 22.001 0 0 0 17 48.055v-.053h3.002v2.414A22.001 22.001 0 0 0 22.891 52H24v.47a22.001 22.001 0 0 0 1.001.364V52H28v1.618a22.001 22.001 0 0 0 1 .15V52h3.002v2a22.001 22.001 0 0 0 1.002-.037V52H36v1.621a22.001 22.001 0 0 0 1.002-.224V52H40v.492a22.001 22.001 0 0 0 1.002-.447V52h.1a22.001 22.001 0 0 0 1.94-1.002h-2.04v-2.996h3v2.43a22.001 22.001 0 0 0 1.002-.717v-1.713h2.075a22.001 22.001 0 0 0 1.923-2.056v-1.944h1.414A22.001 22.001 0 0 0 51.034 43h-2.032v-3H52v1.117a22.001 22.001 0 0 0 1.002-2.568V36h.62a22.001 22.001 0 0 0 .15-1h-.77v-2.998h1.002a22.001 22.001 0 0 0 0-.004 22.001 22.001 0 0 0-.037-.998h-.965v-3h.624a22.001 22.001 0 0 0-.225-1.002h-.399v-1.484A22.001 22.001 0 0 0 52 22.89v.107h-2.998v-2.996h1.436A22.001 22.001 0 0 0 49.721 19h-.719v-.945A22.001 22.001 0 0 0 48 16.915V19h-2.996v-3h2.063a22.001 22.001 0 0 0-1.117-1.002h-.946v-.719a22.001 22.001 0 0 0-1.002-.699v1.418h-3V12h.12a22.001 22.001 0 0 0-2.569-1.002h-1.55v-.402A22.001 22.001 0 0 0 36 10.379v.62h-2.996v-.952a22.001 22.001 0 0 0-1.002-.05zm-7 2.004H28v2.998h-2.998ZM29 12h3.002v2.998H29Zm4.004 0H36v2.998h-2.996zm3.998 0H40v2.998h-2.998ZM17 16h3.002v3H17Zm4.004 0H24v3h-2.996zm3.998 0H28v3h-2.998ZM29 16h3.002v3H29Zm4.004 0H36v3h-2.996zm3.998 0H40v3h-2.998zm4 0h3v3h-3zM17 20.002h3.002v2.996H17Zm4.004 0H24v2.996h-2.996zm3.998 0H28v2.996h-2.998zm3.998 0h3.002v2.996H29Zm4.004 0H36v2.996h-2.996zm3.998 0h2.997v2.996h-2.998v-2.996zm4 0h3v2.996h-3zm4.001 0H48v2.996h-2.996v-2.996ZM13.002 24H16v2.998h-2.998ZM17 24h3.002v2.998H17Zm4.003 0H24v2.998h-2.996V24Zm3.998 0H28v2.998h-2.998V24ZM29 24h3.002v2.998H29Zm4.004 0H36v2.998h-2.996zm3.998 0H40v2.998h-2.998zm4 0h3v2.998h-3zm4.002 0H48v2.998h-2.996zm3.998 0H52v2.998h-2.998zm-36 4H16v3h-2.998ZM17 28h3.002v3H17Zm4.004 0H24v3h-2.996zm3.998 0H28v3h-2.998ZM29 28h3.002v3H29Zm4.004 0H36v3h-2.996zm3.998 0H40v3h-2.998zm4 0h3v3h-3zm4.002 0H48v3h-2.996zm3.998 0H52v3h-2.998zm-36 4.002H16V35h-2.998zm3.998 0h3.002V35H17Zm4.004 0H24V35h-2.996zm3.998 0H28V35h-2.998zm3.998 0h3.002V35H29Zm4.004 0H36V35h-2.996zm3.998 0H40V35h-3v-2.998zm4 0h3V35h-3zm4.002 0H48V35h-2.996zm3.998 0H52V35h-3v-2.998ZM13 36h2.998v2.998H13Zm3.998 0H20v2.998h-3.002zm4.004 0h2.996v2.998h-2.996ZM25 36h2.998v2.998H25Zm3.998 0H32v2.998h-3.002zm4.004 0h2.996v2.998h-2.996ZM37 36h2.998v2.998H37Zm4 0h3v2.998h-3zm4.002 0h2.996v2.998h-2.996ZM49 36h2.998v2.998H49Zm-36 4h2.998v3H13Zm3.998 0H20v3h-3.002zm4.004 0h2.996v3h-2.996ZM25 40h2.998v3H25Zm3.998 0H32v3h-3.002zm4.004 0h2.996v3h-2.996ZM37 40h2.998v3H37Zm4 0h3v3h-3zm4.002 0h2.996v3h-2.996Zm-28.004 4.002H20V47h-3.002zm4.003 0H24V47h-2.997v-2.998zm3.998 0h2.998V47H25v-2.998zm3.998 0H32V47h-3.002v-2.998zm4.004 0h2.996V47h-2.996zm3.998 0h2.998V47H37v-2.998zm4 0h3V47h-3zm4.002 0h2.996V47h-2.996zm-24 4h2.996v2.996h-2.996zm3.998 0h2.998v2.996H25v-2.996zm3.998 0H32v2.996h-3.002v-2.996zm4.004 0h2.996v2.996h-2.996zm3.998 0h2.998v2.996H37v-2.996z" opacity=".1" style="paint-order:stroke markers fill" transform="scale(.26458)"/><g id="g4007" fill-rule="evenodd"><circle id="circle3995" cx="8.467" cy="8.466" r="5.821" opacity=".25"/><path id="path3997" fill="#7380ff" d="M8.467 2.646a5.82 5.82 0 0 0-5.821 5.82 5.82 5.82 0 0 0 5.82 5.821 5.82 5.82 0 0 0 5.821-5.82 5.82 5.82 0 0 0-5.82-5.821zm0 .529a5.292 5.292 0 0 1 5.291 5.291 5.292 5.292 0 0 1-5.291 5.292 5.292 5.292 0 0 1-5.292-5.292 5.292 5.292 0 0 1 5.292-5.291Z"/><g id="g4005" stroke-width=".265"><path id="path3999" fill="url(#a)" d="M8.467 2.646a5.82 5.82 0 0 0-5.821 5.82 5.82 5.82 0 0 0 5.82 5.821 5.82 5.82 0 0 0 5.792-5.291h-.526a5.292 5.292 0 0 1-5.265 4.762 5.292 5.292 0 0 1-5.292-5.291 5.292 5.292 0 0 1 5.292-5.292Z" style="fill:url(#a-3-3)"/><path id="path4001" fill="url(#b)" d="M13.993 8.754a.265.265 0 0 0-.265.264.265.265 0 0 0 0 .002 5.292 5.292 0 0 1-5.261 4.738v.53a5.82 5.82 0 0 0 5.778-5.19.265.265 0 0 0 .013-.08.265.265 0 0 0-.001-.012 5.82 5.82 0 0 0 .001-.01h-.002a.265.265 0 0 0-.263-.242Z" style="fill:url(#b-61)"/><path id="path4003" fill="url(#c)" d="M8.467 2.646a.265.265 0 0 0-.025 0 5.82 5.82 0 0 0-5.796 5.82h.529a5.292 5.292 0 0 1 5.292-5.291.265.265 0 0 0 .264-.265.265.265 0 0 0-.264-.264Z" style="fill:url(#c-6)"/></g></g><path id="path4009" fill="#fff" d="M5.556 4.763v2.116h.53V4.762Zm1.059 0v2.116h.529V4.762Zm3.175 0v2.116h.529V4.762Zm1.058 0v2.116h.53V4.762ZM5.556 7.408v2.117h.53V7.408Zm1.059 0v2.117h.529V7.408Zm1.058 0v2.117h.53V7.408Zm1.058 0v2.117h.53V7.408Zm1.059 0v2.117h.529V7.408Zm1.058 0v2.117h.53V7.408Zm-5.292 2.646v2.117h.53v-2.117zm1.059 0v2.117h.529v-2.117zm3.175 0v2.117h.529v-2.117zm1.058 0v2.117h.53v-2.117z"/></g></svg>