<svg xmlns="http://www.w3.org/2000/svg" width="24" height="24" version="1"><defs><radialGradient id="a" cx="0" cy="0" r="1" fx="0" fy="0" gradientTransform="matrix(0 22 -22 0 12 1)" gradientUnits="userSpaceOnUse" spreadMethod="pad"><stop offset="0" style="stop-color:#b5c0df;stop-opacity:1"/><stop offset="1" style="stop-color:#6a79a5;stop-opacity:1"/></radialGradient></defs><path d="M9.593 1.115c.12 0 .235-.016.344-.047a31.814 31.814 0 0 1 4.308.01 13.68 13.68 0 0 1 3.781.849c2.026.833 3.41 2.281 4.162 4.338.42 1.24.676 2.516.754 3.823a28.303 28.303 0 0 1-.114 4.928 11.968 11.968 0 0 1-.896 3.317c-.85 1.844-2.23 3.115-4.135 3.812-1.543.522-3.13.798-4.767.824a21.331 21.331 0 0 1-5.452-.412c-3.308-.734-5.354-2.754-6.125-6.057a18.991 18.991 0 0 1-.448-4.51 18.502 18.502 0 0 1 .516-4.787c.812-3.083 2.77-4.995 5.875-5.734a13.692 13.692 0 0 1 2.197-.354Z" style="fill:url(#a);fill-rule:evenodd;stroke:none;stroke-width:1.33333"/><g style="stroke-width:1.02564" transform="matrix(.975 0 0 .975 .3 .3)"><rect width="3.077" height="9.538" x="5.538" y="5.846" fill="#314277" rx=".44" ry=".434" style="stroke-width:1.02564"/><rect width="8" height="9.538" x="10.462" y="5.846" fill="#314277" rx=".421" ry=".434" style="stroke-width:1.02564"/><rect width="3.077" height="9.046" x="9.231" y="-14.585" fill="#314277" rx=".44" ry=".431" style="stroke-width:1.02564" transform="rotate(90)"/><rect width="1.538" height="1.538" x="5.846" y="16.615" fill="#314277" opacity=".3" rx=".385" ry=".385" style="stroke-width:1.02564"/><rect width="1.538" height="1.538" x="8" y="16.615" fill="#314277" opacity=".56" rx=".385" ry=".385" style="stroke-width:1.02564"/><rect width="1.538" height="1.538" x="10.154" y="16.615" fill="#314277" opacity=".82" rx=".385" ry=".385" style="stroke-width:1.02564"/><rect width="5.538" height="1.538" x="11.692" y="7.077" fill="#fff" rx=".426" ry=".385" style="stroke-width:1.02564"/><rect width="5.538" height="1.538" x="11.692" y="12.615" fill="#fff" rx=".426" ry=".385" style="stroke-width:1.02564"/><rect width="4.308" height="1.538" x="9.846" y="-13.231" fill="#fff" rx=".331" ry=".385" style="stroke-width:1.02564" transform="rotate(90)"/><rect width="5.231" height="1.538" x="-17.231" y="-11.385" fill="#fff" rx=".402" ry=".385" style="stroke-width:1.02564" transform="scale(-1)"/><rect width="4.308" height="1.538" x="7.077" y="-17.231" fill="#fff" rx=".331" ry=".385" style="stroke-width:1.02564" transform="rotate(90)"/><rect width="1.538" height="1.538" x="-18.154" y="16.615" fill="#314277" opacity=".3" rx=".385" ry=".385" style="stroke-width:1.02564" transform="scale(-1 1)"/><rect width="1.538" height="1.538" x="-16" y="16.615" fill="#314277" opacity=".56" rx=".385" ry=".385" style="stroke-width:1.02564" transform="scale(-1 1)"/><rect width="1.538" height="1.538" x="-13.846" y="16.615" fill="#314277" opacity=".82" rx=".385" ry=".385" style="stroke-width:1.02564" transform="scale(-1 1)"/></g></svg>