<svg xmlns="http://www.w3.org/2000/svg" xmlns:xlink="http://www.w3.org/1999/xlink" xml:space="preserve" id="svg154" width="24" height="24" fill="none" version="1.1"><defs id="defs152"><linearGradient id="linearGradient3"><stop id="stop3" offset="0" style="stop-color:#3737c8;stop-opacity:1"/><stop id="stop4" offset="1" style="stop-color:#b380ff;stop-opacity:1"/></linearGradient><linearGradient xlink:href="#linearGradient3" id="linearGradient4" x1="12.375" x2="12.25" y1="39.063" y2="5.563" gradientUnits="userSpaceOnUse"/><linearGradient xlink:href="#linearGradient3" id="linearGradient2" x1="12.375" x2="12.25" y1="39.063" y2="5.563" gradientUnits="userSpaceOnUse"/><radialGradient id="radialGradient66380" cx="0" cy="0" r="1" gradientTransform="matrix(0 22 -22 0 12 1)" gradientUnits="userSpaceOnUse"><stop id="stop66376" offset="0" stop-color="#8FC8FF" style="stop-color:#f2f2f2;stop-opacity:1"/><stop id="stop66378" offset="1" stop-color="#0056A8" style="stop-color:#ccc;stop-opacity:1"/></radialGradient><radialGradient xlink:href="#radialGradient66380" id="radialGradient1161" cx=".179" cy="-1.748" r="1" fx=".179" fy="-1.748" gradientTransform="matrix(0 22.01454 -22.00166 0 -26.468 -2.958)" gradientUnits="userSpaceOnUse"/><style id="current-color-scheme" type="text/css">.ColorScheme-Text{color:#31363b}.ColorScheme-Background{color:#eff0f1}.ColorScheme-Highlight{color:#3daee9}.ColorScheme-ViewText{color:#31363b}.ColorScheme-ViewBackground{color:#fcfcfc}.ColorScheme-ViewHover{color:#93cee9}.ColorScheme-ViewFocus{color:#3daee9}.ColorScheme-ButtonText{color:#31363b}.ColorScheme-ButtonBackground{color:#eff0f1}.ColorScheme-ButtonHover{color:#93cee9}.ColorScheme-ButtonFocus{color:#3daee9}</style></defs><path id="path6" d="M12 1C2 1 1 6 1 12c0 8 3 11 11 11s11-3 11-11c0-6-1-11-11-11Z" style="font-variation-settings:normal;display:inline;opacity:1;vector-effect:none;fill:url(#radialGradient1161);fill-opacity:1;stroke-width:1.11627;stroke-linecap:butt;stroke-linejoin:miter;stroke-miterlimit:4;stroke-dasharray:none;stroke-dashoffset:0;stroke-opacity:1;-inkscape-stroke:none;stop-color:#000;stop-opacity:1"/><g id="g2267" style="display:inline;fill:url(#linearGradient4);fill-opacity:1"><path id="path6-3" d="M50 5C9.09 5 5 25.455 5 50c0 32.727 12.273 45 45 45 32.727 0 45-12.273 45-45 0-24.545-4.09-45-45-45Z" style="font-variation-settings:normal;display:inline;opacity:1;vector-effect:none;fill:url(#linearGradient2);fill-opacity:1;stroke-width:4.56656;stroke-linecap:butt;stroke-linejoin:miter;stroke-miterlimit:4;stroke-dasharray:none;stroke-dashoffset:0;stroke-opacity:1;-inkscape-stroke:none;stop-color:#000;stop-opacity:1" transform="matrix(.24444 0 0 .24444 -.222 -.222)"/></g><path id="path3299" d="M9.421 18.572c-.325-1.274-1.015-2.555-.88-3.905 1.58.523 3.345.79 5.005.523.392-.063 1.571-.609 1.84-.197.175.27.053.704-.003.994-.172.893-.584 1.706-.792 2.585.6-.193 1.142-.542 1.65-.911 4.26-3.1 3.463-10.478-1.65-12.234.247.929.645 1.8.822 2.75.047.256.202.771.006.995-.122.14-.36.043-.503-.003-.47-.15-.936-.293-1.425-.372-1.669-.273-3.305-.046-4.895.48-.321-1.308.55-2.592.77-3.85-.907.245-1.643.828-2.302 1.479-3.45 3.403-2.481 10.047 2.357 11.667m1.76-8.228c1.344-.106 3.616-.06 4.508 1.144.331.447.115.975-.283 1.293-.693.552-1.66.748-2.52.817-1.363.111-3.517.116-4.514-.999-.444-.496-.259-1.082.237-1.453.685-.513 1.735-.736 2.572-.802z" style="fill:#fff;stroke:none"/></svg>