<svg xmlns="http://www.w3.org/2000/svg" width="24" height="24"><defs><radialGradient id="a" cx="0" cy="0" r="1" fx="0" fy="0" gradientTransform="matrix(0 16.5 -16.5 0 9 .75)" gradientUnits="userSpaceOnUse" spreadMethod="pad"><stop offset="0" style="stop-opacity:1;stop-color:#fafafa"/><stop offset="1" style="stop-opacity:1;stop-color:silver"/></radialGradient></defs><path d="M7.195.836c.09 0 .176-.012.258-.035a23.86 23.86 0 0 1 3.231.008 10.26 10.26 0 0 1 2.836.636c1.519.625 2.558 1.711 3.121 3.254.316.93.507 1.887.566 2.867a21.227 21.227 0 0 1-.086 3.696 8.976 8.976 0 0 1-.672 2.488c-.637 1.383-1.672 2.336-3.101 2.859a11.693 11.693 0 0 1-3.575.618 15.998 15.998 0 0 1-4.089-.309c-2.481-.551-4.016-2.066-4.594-4.543a14.244 14.244 0 0 1-.336-3.383c-.027-1.211.101-2.41.387-3.59.609-2.312 2.078-3.746 4.406-4.3A10.27 10.27 0 0 1 7.195.836Z" style="fill:url(#a);fill-rule:evenodd;stroke:none" transform="matrix(1.33333 0 0 1.33333 0 0)"/><g style="stroke-width:3.09417" transform="matrix(.32319 0 0 .32319 2.596 1.645)"><g stroke-width="1.228"><path fill="#ff6d00" d="M12.407 42.827c-3.246 3.246-3.42 9.162-3.42 9.162s5.912-.174 9.162-3.42c3.25-3.246 4.595-7.163 3.008-8.746-1.588-1.587-5.504-.242-8.75 3.004z" style="stroke-width:1.22839"/><path fill="#c62828" d="M13.391 43.97c-2.044 2.044-2.155 5.766-2.155 5.766s3.722-.112 5.766-2.155c2.044-2.044 2.893-4.512 1.893-5.508-1-.996-3.456-.15-5.504 1.897z" style="stroke-width:1.22839"/><path fill="#546e7a" d="M17.581 44.005c1.944 2.075 4.496 1.857 4.706 1.516l1.778-2.889c.107-.175.008-.452-.068-.524L19.2 37.311c-.075-.076-.341-.163-.516-.056l-2.889 1.778c-.337.21-.718 2.293 1.786 4.972z" style="stroke-width:1.22839"/><path fill="#0288d1" d="M30.644 49.283c-.397.321-.929.25-.996-.226-.186-1.318-.063-3.964-1.722-5.623-1.62-1.619-4.25-1.857-4.25-1.857l9.904-4.88s1.865 2.876.838 6.971c-.857 3.385-2.322 4.429-3.774 5.615zM11.812 31.018c-.389.333-.25.929.226.996 1.318.186 3.964.063 5.623 1.722 1.619 1.62 1.956 3.913 1.956 3.913l4.786-10.13s-2.532-1.187-6.214-.23c-2.54.662-5.06 2.595-6.377 3.73z" style="stroke-width:1.22839"/><path fill="#fff" d="M36.969 14.288a20.315 20.315 0 0 1 5.841 4.075c.73.73 1.353 1.476 1.893 2.206a20.328 20.328 0 0 1 2.226 3.806c-1.044 2.742-3.012 5.932-4.936 7.857-7.861 7.86-16.543 12.349-21.035 9.17-.262-.187-.52-.357-.754-.568-3.853-3.464.56-13.38 8.575-21.396 2.011-2.011 5.364-4.067 8.19-5.15z" style="stroke-width:1.22839"/></g><circle cx="6.508" cy="42.815" r="3.531" fill="#455a64" style="stroke-width:3.09417" transform="rotate(-45)"/><circle cx="-4.111" cy="43.135" r="2.555" fill="#455a64" style="stroke-width:3.09417" transform="rotate(-45)"/><path fill="#e53935" d="M36.969 14.288c-.734 3.623 5.662 10.718 9.96 10.087 1.337-3.456 1.885-5.801 2.25-9.837.186-2.043-.413-2.627-2.306-2.404-5.02.587-7.003.968-9.904 2.154z" style="stroke-width:3.09417"/></g></svg>