<svg xmlns="http://www.w3.org/2000/svg" width="24" height="24" viewBox="0 0 6.35 6.35"><defs><radialGradient id="a" cx="0" cy="0" r="1" fx="0" fy="0" gradientTransform="rotate(90 1.455 1.72) scale(5.82072)" gradientUnits="userSpaceOnUse" spreadMethod="pad"><stop offset="0" style="stop-color:#f9f6f5;stop-opacity:1"/><stop offset="1" style="stop-color:#ff7f2a;stop-opacity:1"/></radialGradient></defs><path d="M2.538.295A.335.335 0 0 0 2.63.283c.38-.025.76-.024 1.14.002a3.62 3.62 0 0 1 1 .225c.536.22.903.603 1.101 1.148.112.328.18.665.2 1.011.028.436.018.87-.03 1.304a3.166 3.166 0 0 1-.237.878c-.225.487-.59.824-1.094 1.008a4.125 4.125 0 0 1-1.261.218 5.643 5.643 0 0 1-1.443-.109C1.13 5.774.588 5.24.385 4.366a5.025 5.025 0 0 1-.12-1.194c-.009-.427.036-.85.137-1.266C.617 1.09 1.135.584 1.957.389c.191-.047.386-.079.581-.094Z" style="fill:url(#a);fill-rule:evenodd;stroke:none;stroke-width:.352683;stroke-dasharray:none"/><path d="m4.326.367-.028 1.047c-.014.548.437 1 1.011 1.016l.747.02a3.914 3.914 0 0 0-.151-.733A1.898 1.898 0 0 0 4.835.533a3.594 3.594 0 0 0-.51-.166Z" style="opacity:.727273;mix-blend-mode:normal;fill:#f8f9f9;fill-opacity:1;stroke-width:.637964;paint-order:stroke fill markers"/><g fill="#fff"><g stroke-width=".132"><path d="M4.15 3.408v.115c.098.118.155.25.155.43 0 .179-.06.311-.156.43v.115h.108a.836.836 0 0 0 .003-1.09Zm-.432.078-.232.233h-.193v.468h.193l.237.233h.037v-.934Zm.276.078v.155a.368.368 0 0 1 .077.234c0 .096-.03.173-.077.233v.156h.077c.096-.077.156-.223.156-.39 0-.168-.057-.312-.156-.388zm-.156.155v.467h.078a.348.348 0 0 0 .078-.233.334.334 0 0 0-.078-.234z" color="#bebebe" overflow="visible"/><path d="M2.75 3.408a.075.075 0 0 1 .075.075v.005a.935.935 0 0 1-.934.932h-.002a.076.076 0 0 1-.076-.078V4.11c0-.043.035-.078.078-.078h.156c.043 0 .078.035.078.078v.036a.698.698 0 0 0 .425-.426h-.036a.078.078 0 0 1-.078-.078v-.155c0-.043.035-.078.078-.078h.236z"/><path d="M5.16 3.705a.661.661 0 0 0 0 1.323.654.654 0 0 0 .322-.09l.52.487-.52.488a.653.653 0 0 0-.323-.091.661.661 0 1 0 .662.661c0-.06-.01-.118-.025-.173l.562-.546L7.541 6.88h.396v-.264L5.796 4.54a.65.65 0 0 0 .025-.173.661.661 0 0 0-.662-.662Zm0 .397a.265.265 0 1 1 0 .53.265.265 0 0 1 0-.53zm2.38-.132-1.04.984.347.339 1.091-1.059V3.97ZM5.16 6.219a.265.265 0 1 1 0 .529.265.265 0 0 1 0-.53z" color="#000" overflow="visible" style="isolation:auto;mix-blend-mode:normal" transform="matrix(.29435 0 0 .29435 .567 .838)"/></g><path d="M86.02 26.038a1.997 1.997 0 0 0-1.196.37l-13.98 9.986a1.998 1.998 0 0 0-.835 1.626h-.002v1.997h1.947a1.998 1.998 0 0 0 .025 0h.025a1.998 1.998 0 0 0 1.162-.37L74 39.05v10.953A1.997 1.997 0 0 0 75.998 52h19.971a1.997 1.997 0 0 0 1.997-1.997V39.048l.838.599a1.998 1.998 0 0 0 1.16.37h1.997v-1.97a1.998 1.998 0 0 0-.836-1.653l-13.98-9.986a1.997 1.997 0 0 0-1.123-.37zm-.038 4.45 7.989 5.707v11.81H87.98v-7.988h-5.992v7.989h-3.994v-11.81z" color="#000" font-family="sans-serif" font-weight="400" overflow="visible" style="font-variant-ligatures:normal;font-variant-position:normal;font-variant-caps:normal;font-variant-numeric:normal;font-variant-alternates:normal;font-feature-settings:normal;text-indent:0;text-decoration-line:none;text-decoration-style:solid;text-decoration-color:#000;text-transform:none;text-orientation:mixed;white-space:normal;shape-padding:0;isolation:auto;mix-blend-mode:normal" transform="matrix(.03894 0 0 .03894 .567 .838)"/></g></svg>