<svg xmlns="http://www.w3.org/2000/svg" xml:space="preserve" width="24" height="24" fill="none"><defs><clipPath id="a"><path d="M117.55 30.965h315.09V508.03H117.55Zm0 0"/></clipPath><clipPath id="b"><path d="M125.035 30.965H425.16a7.486 7.486 0 0 1 7.488 7.484v462.106a7.486 7.486 0 0 1-7.488 7.484H125.035a7.485 7.485 0 0 1-7.484-7.484V38.449a7.485 7.485 0 0 1 7.484-7.484"/></clipPath><clipPath id="d"><path d="M117.55 30.965h315.165v476.863H117.55Zm0 0"/></clipPath><clipPath id="e"><path d="M125.04 30.965h300.187c4.132 0 7.488 3.347 7.488 7.48v461.903c0 4.132-3.356 7.48-7.488 7.48H125.039a7.483 7.483 0 0 1-7.488-7.48V38.445a7.483 7.483 0 0 1 7.488-7.48"/></clipPath><clipPath id="f"><path d="M224.36 480.992H326V497H224.36Zm0 0"/></clipPath><clipPath id="g"><path d="M232.227 480.992h85.742a7.87 7.87 0 1 1 0 15.738h-85.742a7.867 7.867 0 0 1-7.868-7.87 7.866 7.866 0 0 1 7.868-7.868"/></clipPath><clipPath id="h"><path d="M139.113 199.605H410.86v111.543H139.113Zm0 0"/></clipPath><linearGradient id="c" x1="0" x2="450.875" y1="0" y2="0" gradientTransform="translate(117.55 30.963) scale(.69884)" gradientUnits="userSpaceOnUse"><stop offset="0" stop-color="#CDFFD8"/><stop offset=".008" stop-color="#CDFFD8"/><stop offset=".016" stop-color="#CCFED8"/><stop offset=".023" stop-color="#CCFED9"/><stop offset=".031" stop-color="#CBFDD9"/><stop offset=".039" stop-color="#CBFDD9"/><stop offset=".047" stop-color="#CBFCDA"/><stop offset=".055" stop-color="#CAFBDA"/><stop offset=".063" stop-color="#CAFBDA"/><stop offset=".07" stop-color="#C9FADB"/><stop offset=".078" stop-color="#C9FADB"/><stop offset=".086" stop-color="#C8F9DB"/><stop offset=".094" stop-color="#C8F9DB"/><stop offset=".102" stop-color="#C7F8DC"/><stop offset=".109" stop-color="#C7F8DC"/><stop offset=".117" stop-color="#C7F7DC"/><stop offset=".125" stop-color="#C6F7DD"/><stop offset=".133" stop-color="#C6F6DD"/><stop offset=".141" stop-color="#C5F5DD"/><stop offset=".148" stop-color="#C5F5DE"/><stop offset=".156" stop-color="#C4F4DE"/><stop offset=".164" stop-color="#C4F4DE"/><stop offset=".172" stop-color="#C3F3DF"/><stop offset=".18" stop-color="#C3F3DF"/><stop offset=".188" stop-color="#C3F2DF"/><stop offset=".195" stop-color="#C2F2DF"/><stop offset=".203" stop-color="#C2F1E0"/><stop offset=".211" stop-color="#C1F0E0"/><stop offset=".219" stop-color="#C1F0E0"/><stop offset=".227" stop-color="#C0EFE1"/><stop offset=".234" stop-color="#C0EFE1"/><stop offset=".242" stop-color="#BFEEE1"/><stop offset=".25" stop-color="#BFEEE2"/><stop offset=".258" stop-color="#BFEDE2"/><stop offset=".266" stop-color="#BEEDE2"/><stop offset=".273" stop-color="#BEECE2"/><stop offset=".281" stop-color="#BDECE3"/><stop offset=".289" stop-color="#BDEBE3"/><stop offset=".297" stop-color="#BCEAE3"/><stop offset=".305" stop-color="#BCEAE4"/><stop offset=".313" stop-color="#BBE9E4"/><stop offset=".32" stop-color="#BBE9E4"/><stop offset=".328" stop-color="#BAE8E5"/><stop offset=".336" stop-color="#BAE8E5"/><stop offset=".344" stop-color="#BAE7E5"/><stop offset=".352" stop-color="#B9E7E6"/><stop offset=".359" stop-color="#B9E6E6"/><stop offset=".367" stop-color="#B8E6E6"/><stop offset=".375" stop-color="#B8E5E6"/><stop offset=".383" stop-color="#B7E4E7"/><stop offset=".391" stop-color="#B7E4E7"/><stop offset=".398" stop-color="#B6E3E7"/><stop offset=".406" stop-color="#B6E3E8"/><stop offset=".414" stop-color="#B6E2E8"/><stop offset=".422" stop-color="#B5E2E8"/><stop offset=".43" stop-color="#B5E1E9"/><stop offset=".438" stop-color="#B4E1E9"/><stop offset=".445" stop-color="#B4E0E9"/><stop offset=".453" stop-color="#B3DFEA"/><stop offset=".461" stop-color="#B3DFEA"/><stop offset=".469" stop-color="#B2DEEA"/><stop offset=".477" stop-color="#B2DEEA"/><stop offset=".484" stop-color="#B2DDEB"/><stop offset=".492" stop-color="#B1DDEB"/><stop offset=".5" stop-color="#B1DCEB"/><stop offset=".508" stop-color="#B0DCEC"/><stop offset=".516" stop-color="#B0DBEC"/><stop offset=".523" stop-color="#AFDBEC"/><stop offset=".531" stop-color="#AFDAED"/><stop offset=".539" stop-color="#AED9ED"/><stop offset=".547" stop-color="#AED9ED"/><stop offset=".555" stop-color="#AED8ED"/><stop offset=".563" stop-color="#ADD8EE"/><stop offset=".57" stop-color="#ADD7EE"/><stop offset=".578" stop-color="#ACD7EE"/><stop offset=".586" stop-color="#ACD6EF"/><stop offset=".594" stop-color="#ABD6EF"/><stop offset=".602" stop-color="#ABD5EF"/><stop offset=".609" stop-color="#AAD5F0"/><stop offset=".617" stop-color="#AAD4F0"/><stop offset=".625" stop-color="#AAD3F0"/><stop offset=".633" stop-color="#A9D3F1"/><stop offset=".641" stop-color="#A9D2F1"/><stop offset=".648" stop-color="#A8D2F1"/><stop offset=".656" stop-color="#A8D1F1"/><stop offset=".664" stop-color="#A7D1F2"/><stop offset=".672" stop-color="#A7D0F2"/><stop offset=".68" stop-color="#A6D0F2"/><stop offset=".688" stop-color="#A6CFF3"/><stop offset=".695" stop-color="#A6CFF3"/><stop offset=".703" stop-color="#A5CEF3"/><stop offset=".711" stop-color="#A5CDF4"/><stop offset=".719" stop-color="#A4CDF4"/><stop offset=".727" stop-color="#A4CCF4"/><stop offset=".734" stop-color="#A3CCF4"/><stop offset=".742" stop-color="#A3CBF5"/><stop offset=".75" stop-color="#A2CBF5"/><stop offset=".758" stop-color="#A2CAF5"/><stop offset=".766" stop-color="#A2CAF6"/><stop offset=".773" stop-color="#A1C9F6"/><stop offset=".781" stop-color="#A1C8F6"/><stop offset=".789" stop-color="#A0C8F7"/><stop offset=".797" stop-color="#A0C7F7"/><stop offset=".805" stop-color="#9FC7F7"/><stop offset=".813" stop-color="#9FC6F8"/><stop offset=".82" stop-color="#9EC6F8"/><stop offset=".828" stop-color="#9EC5F8"/><stop offset=".836" stop-color="#9DC5F8"/><stop offset=".844" stop-color="#9DC4F9"/><stop offset=".852" stop-color="#9DC4F9"/><stop offset=".859" stop-color="#9CC3F9"/><stop offset=".867" stop-color="#9CC2FA"/><stop offset=".875" stop-color="#9BC2FA"/><stop offset=".883" stop-color="#9BC1FA"/><stop offset=".891" stop-color="#9AC1FB"/><stop offset=".898" stop-color="#9AC0FB"/><stop offset=".906" stop-color="#99C0FB"/><stop offset=".914" stop-color="#99BFFB"/><stop offset=".922" stop-color="#99BFFC"/><stop offset=".93" stop-color="#98BEFC"/><stop offset=".938" stop-color="#98BEFC"/><stop offset=".945" stop-color="#97BDFD"/><stop offset=".953" stop-color="#97BCFD"/><stop offset=".961" stop-color="#96BCFD"/><stop offset=".969" stop-color="#96BBFE"/><stop offset=".977" stop-color="#95BBFE"/><stop offset=".984" stop-color="#95BAFE"/><stop offset=".992" stop-color="#95BAFF"/><stop offset="1" stop-color="#94B9FF"/></linearGradient></defs><path d="M12 1C2 1 1 6 1 12c0 8 3 11 11 11s11-3 11-11c0-6-1-11-11-11Z" style="font-variation-settings:normal;display:inline;opacity:1;vector-effect:none;fill:#e6e6e6;fill-opacity:1;stroke-width:1.11627;stroke-linecap:butt;stroke-linejoin:miter;stroke-miterlimit:4;stroke-dasharray:none;stroke-dashoffset:0;stroke-opacity:1;-inkscape-stroke:none;stop-color:#000;stop-opacity:1"/><g clip-path="url(#a)" transform="matrix(.02907 0 0 .02907 4.003 4.167)"><g clip-path="url(#b)"><path fill="url(#c)" d="M117.55 30.965V508.03h315.09V30.965Zm0 0" style="fill:url(#c)"/></g></g><g clip-path="url(#d)" transform="matrix(.02907 0 0 .02907 4.003 4.167)"><g clip-path="url(#e)"><path stroke="#000" stroke-width="32" d="M10 .002H410.9c5.52 0 10.001 4.474 10.001 9.997v617.268c0 5.523-4.481 9.996-10 9.996H9.998c-5.524 0-10-4.473-10-9.996V9.999c0-5.523 4.476-9.997 10-9.997" transform="matrix(.74878 0 0 .7483 117.552 30.963)"/></g></g><path stroke="#000" stroke-width=".71811124" d="M7.42 18.243h9.16"/><g clip-path="url(#f)" transform="matrix(.02907 0 0 .02907 4.003 4.167)"><g clip-path="url(#g)"><path fill="#fff" d="M224.36 480.992H325.69v16.074H224.36Zm0 0"/></g></g><path fill="#000" d="M-180.68 23.976a4.23 4.23 0 0 0 4.226 4.232 4.23 4.23 0 0 0 0-8.46 4.23 4.23 0 0 0-4.227 4.228" style="stroke-width:.352778" transform="matrix(.08239 0 0 .08239 29.937 9.615)"/><path fill="#000" d="M-180.68 23.976h-.404a4.633 4.633 0 1 0 9.263 0 4.634 4.634 0 0 0-4.633-4.633 4.633 4.633 0 0 0-4.63 4.633h.806a3.81 3.81 0 0 1 1.12-2.703 3.808 3.808 0 0 1 2.704-1.122c1.058 0 2.012.427 2.705 1.122a3.81 3.81 0 0 1 1.12 2.703 3.817 3.817 0 0 1-1.12 2.708 3.808 3.808 0 0 1-2.705 1.12 3.81 3.81 0 0 1-2.704-1.12 3.817 3.817 0 0 1-1.12-2.708h-.403M-259.112 19.747a4.23 4.23 0 0 0 0 8.461 4.23 4.23 0 0 0 0-8.461" style="stroke-width:.352778" transform="matrix(.08239 0 0 .08239 29.937 9.615)"/><path fill="#000" d="M-259.112 19.747v-.404a4.633 4.633 0 0 0-4.631 4.633 4.633 4.633 0 0 0 4.631 4.636 4.633 4.633 0 0 0 4.632-4.636 4.633 4.633 0 0 0-4.632-4.633v.808c1.057 0 2.01.427 2.705 1.122a3.815 3.815 0 0 1 1.12 2.703 3.823 3.823 0 0 1-3.825 3.829 3.807 3.807 0 0 1-2.703-1.12 3.817 3.817 0 0 1-1.12-2.709c0-1.055.425-2.01 1.12-2.703a3.803 3.803 0 0 1 2.703-1.122v-.404" style="stroke-width:.352778" transform="matrix(.08239 0 0 .08239 29.937 9.615)"/><path fill="#000" d="M-259.112 29.382a5.401 5.401 0 0 1-5.399-5.406 5.402 5.402 0 0 1 5.4-5.406c2.98 0 5.4 2.42 5.4 5.406a5.403 5.403 0 0 1-5.4 5.406zm82.658-10.812c2.982 0 5.4 2.42 5.4 5.406a5.402 5.402 0 0 1-5.4 5.406 5.401 5.401 0 0 1-5.266-4.223v-2.364a5.4 5.4 0 0 1 5.266-4.225zm-11.224 24.681a5.96 5.96 0 0 0 5.958-5.963c0-3.3-2.665-5.97-5.958-5.97a5.96 5.96 0 0 0-5.867 4.928l-22.703.078c-4.015 0-6.667-5.248-8.628-11.012h42.367a6.207 6.207 0 0 0 6.055 4.871 6.201 6.201 0 0 0 6.201-6.207 6.202 6.202 0 0 0-6.201-6.205c-2.963 0-5.443 2.086-6.055 4.871h-62.498c1.962-5.761 4.613-11.013 8.629-11.013l22.7.079a5.962 5.962 0 0 0 5.868 4.929c3.29 0 5.961-2.67 5.961-5.967a5.968 5.968 0 0 0-5.961-5.968 5.962 5.962 0 0 0-5.799 4.593h-22.682c-4.956 0-9.178 5.542-10.852 13.347h-5.914a6.202 6.202 0 0 0-6.055-4.87c-3.421 0-6.2 2.779-6.2 6.204a6.204 6.204 0 0 0 6.2 6.207 6.2 6.2 0 0 0 6.055-4.871h26.047c1.67 7.804 5.898 13.347 10.853 13.347h22.68a5.963 5.963 0 0 0 5.799 4.592" style="stroke-width:.352778" transform="matrix(.08239 0 0 .08239 29.937 9.615)"/><g clip-path="url(#h)" transform="matrix(.02907 0 0 .02907 4.003 4.167)"><path fill="#000" d="M157.793 270.738v-1.144c-3.914 0-7.45-1.586-10.012-4.153a14.131 14.131 0 0 1-4.152-10.027c0-3.922 1.586-7.457 4.152-10.027a14.095 14.095 0 0 1 10.012-4.153c3.914 0 7.445 1.586 10.016 4.153a14.144 14.144 0 0 1 4.148 10.027c0 3.918-1.586 7.461-4.148 10.027a14.118 14.118 0 0 1-10.016 4.153v2.289c9.082 0 16.45-7.367 16.45-16.469 0-9.098-7.364-16.469-16.45-16.469-9.082 0-16.45 7.371-16.45 16.47 0 9.1 7.368 16.468 16.45 16.468zm234.305-30.648v1.144a14.11 14.11 0 0 1 10.015 4.153 14.128 14.128 0 0 1 4.149 10.027c0 3.918-1.582 7.461-4.149 10.027a14.11 14.11 0 0 1-10.015 4.153c-6.75.004-12.395-4.739-13.809-11.082l-1.117.254h1.144v-6.7h-1.144l1.117.247c1.414-6.336 7.063-11.083 13.809-11.079v-2.289c-7.84 0-14.399 5.504-16.043 12.871l-.028.122v6.953l.028.125c1.644 7.363 8.203 12.863 16.043 12.867 9.086 0 16.453-7.367 16.453-16.469 0-9.098-7.367-16.469-16.453-16.469zm-31.817 69.96v1.145c9.965 0 18.035-8.086 18.035-18.047 0-9.984-8.07-18.07-18.035-18.074-8.89.004-16.265 6.438-17.754 14.922l1.125.2-.004-1.145-64.355.219h.004c-2.59-.004-4.95-.833-7.192-2.375-3.359-2.31-6.398-6.266-9.082-11.188-2.687-4.918-5.027-10.789-7.097-16.879l-1.086.371v1.145h120.094v-1.145l-1.118.246c1.848 8.414 9.336 14.703 18.282 14.707 10.351 0 18.718-8.39 18.718-18.738 0-10.344-8.367-18.734-18.718-18.734-8.95.004-16.434 6.297-18.282 14.71l1.118.243v-1.145h-177.16v1.145l1.085.37c2.758-8.116 6.008-15.847 9.899-21.452 1.945-2.805 4.043-5.07 6.285-6.614 2.242-1.542 4.602-2.375 7.191-2.378l64.344.226.004-1.148-1.125.199c1.484 8.48 8.867 14.918 17.758 14.918 9.957 0 18.039-8.082 18.043-18.059-.004-9.976-8.086-18.062-18.043-18.066-8.531.004-15.672 5.933-17.547 13.902l1.11.266v-1.149H222.48c-3.727 0-7.313 1.051-10.637 2.954-4.98 2.863-9.383 7.625-12.996 13.753-3.614 6.133-6.446 13.637-8.242 22.036l1.113.242v-1.145h-16.762v1.145l1.117-.242c-1.843-8.414-9.32-14.711-18.28-14.711-10.333 0-18.72 8.39-18.72 18.734 0 10.352 8.387 18.734 18.72 18.738 8.96-.004 16.437-6.293 18.28-14.707l-1.117-.246v1.145h73.832v-1.145l-1.12.239c2.401 11.203 6.628 20.812 12.116 27.69 2.746 3.438 5.809 6.196 9.133 8.102 3.32 1.903 6.91 2.95 10.637 2.95h64.289v-1.145l-1.113.262c1.875 7.969 9.015 13.894 17.55 13.898v-2.289c-7.453.004-13.687-5.187-15.32-12.133l-.211-.882h-65.195c-3.297-.004-6.477-.918-9.5-2.653-4.535-2.593-8.703-7.05-12.172-12.925-3.465-5.875-6.227-13.165-7.977-21.356l-.195-.906h-75.676l-.195.902c-1.617 7.379-8.18 12.91-16.047 12.91-4.54 0-8.64-1.84-11.617-4.816a16.419 16.419 0 0 1-4.813-11.633 16.41 16.41 0 0 1 4.813-11.629 16.37 16.37 0 0 1 11.617-4.816c7.867 0 14.43 5.535 16.047 12.91l.195.898h18.613l.192-.902c2.34-10.926 6.469-20.234 11.664-26.742 2.598-3.258 5.46-5.813 8.48-7.543 3.024-1.735 6.2-2.649 9.496-2.649h65.208l.203-.882c1.64-6.954 7.875-12.141 15.324-12.137 4.348 0 8.281 1.766 11.137 4.621a15.733 15.733 0 0 1 4.617 11.152 15.724 15.724 0 0 1-4.617 11.149 15.674 15.674 0 0 1-11.137 4.62c-7.766.005-14.211-5.628-15.504-13.026l-.164-.942-65.305-.226h-.008c-3.097-.004-5.949 1.027-8.492 2.78-3.816 2.645-7.004 6.884-9.79 11.977-2.784 5.098-5.163 11.075-7.26 17.235l-.516 1.515h179.68l.195-.898c1.62-7.375 8.195-12.91 16.046-12.91 4.547 0 8.649 1.84 11.625 4.816a16.406 16.406 0 0 1 4.81 11.63c0 4.546-1.837 8.651-4.81 11.632a16.374 16.374 0 0 1-11.625 4.816c-7.851 0-14.425-5.531-16.046-12.91l-.196-.902H253.246l.516 1.515c2.797 8.22 6.082 16.102 10.183 22.02 2.051 2.96 4.317 5.434 6.864 7.195 2.539 1.758 5.39 2.781 8.488 2.778h.004l65.312-.223.168-.945c1.297-7.403 7.739-13.028 15.5-13.024 4.352 0 8.282 1.762 11.137 4.617 2.852 2.86 4.61 6.801 4.61 11.164 0 4.352-1.758 8.286-4.61 11.141a15.687 15.687 0 0 1-11.137 4.617v1.145"/></g></svg>