<svg xmlns="http://www.w3.org/2000/svg" xmlns:xlink="http://www.w3.org/1999/xlink" xml:space="preserve" id="svg154" width="24" height="24" fill="none" version="1.1"><defs id="defs152"><linearGradient id="linearGradient18037"><stop id="stop18033" offset="0" style="stop-color:#137bca;stop-opacity:1"/><stop id="stop18035" offset="1" style="stop-color:#5ca3d9;stop-opacity:1"/></linearGradient><linearGradient id="linearGradient1257"><stop id="stop1255" offset="0" style="stop-color:#000;stop-opacity:1"/></linearGradient><linearGradient xlink:href="#linearGradient18037" id="linearGradient18039" x1="48.458" x2="48.458" y1="113.182" y2="-4.153" gradientTransform="matrix(.24444 0 0 .24444 -.222 -.222)" gradientUnits="userSpaceOnUse"/><style id="current-color-scheme" type="text/css">.ColorScheme-Text{color:#31363b}.ColorScheme-Background{color:#eff0f1}.ColorScheme-Highlight{color:#3daee9}.ColorScheme-ViewText{color:#31363b}.ColorScheme-ViewBackground{color:#fcfcfc}.ColorScheme-ViewHover{color:#93cee9}.ColorScheme-ViewFocus{color:#3daee9}.ColorScheme-ButtonText{color:#31363b}.ColorScheme-ButtonBackground{color:#eff0f1}.ColorScheme-ButtonHover{color:#93cee9}.ColorScheme-ButtonFocus{color:#3daee9}</style></defs><path id="path6" d="M12 1C2 1 1 6 1 12c0 8 3 11 11 11s11-3 11-11c0-6-1-11-11-11Z" style="font-variation-settings:normal;display:inline;opacity:1;vector-effect:none;fill:url(#linearGradient18039);fill-opacity:1;stroke-width:1.11627;stroke-linecap:butt;stroke-linejoin:miter;stroke-miterlimit:4;stroke-dasharray:none;stroke-dashoffset:0;stroke-opacity:1;-inkscape-stroke:none;stop-color:#000;stop-opacity:1"/><g id="g4743" fill="#fff" stroke-width=".357" transform="matrix(1.91324 0 0 1.91324 -4.198 -540.033)"><path id="path4737" d="M9.393 286.373v1.476l.518.376h.056l2.203-1.544a.297.297 0 0 0-.308-.308z"/><path id="path4739" d="m9.4 288.39.466.317c.066.048.145 0 .145 0-.079.048 2.16-1.409 2.16-1.409v2.779c0 .188-.094.308-.309.308H9.393Zm-2.42-.668a.431.431 0 0 0-.38.221c-.094.148-.141.344-.141.587 0 .247.047.443.14.586.094.144.217.215.37.215.156 0 .28-.07.372-.209.092-.14.138-.334.138-.582 0-.258-.045-.46-.134-.603a.412.412 0 0 0-.366-.215z"/><path id="path4741" d="M4.762 285.755v5.557l4.322.926v-7.409zm2.918 3.702a.867.867 0 0 1-.72.36.857.857 0 0 1-.707-.349c-.181-.232-.273-.535-.273-.908 0-.395.093-.714.277-.957a.877.877 0 0 1 .735-.365c.288 0 .52.116.698.35.178.232.267.54.267.921 0 .392-.092.708-.277.948z"/></g></svg>