<svg xmlns="http://www.w3.org/2000/svg" xmlns:xlink="http://www.w3.org/1999/xlink" xml:space="preserve" id="svg154" width="24" height="24" fill="none" version="1.1"><defs id="defs152"><linearGradient id="linearGradient3299"><stop id="stop3299" offset="0" style="stop-color:#008066;stop-opacity:1"/><stop id="stop3300" offset="1" style="stop-color:#2aff80;stop-opacity:1"/></linearGradient><linearGradient xlink:href="#linearGradient3299" id="linearGradient3300" x1="13.313" x2="12.688" y1="34.75" y2="-6.563" gradientUnits="userSpaceOnUse"/><linearGradient xlink:href="#linearGradient3299" id="linearGradient2" x1="13.313" x2="12.688" y1="34.75" y2="-6.563" gradientUnits="userSpaceOnUse"/><radialGradient id="radialGradient66380" cx="0" cy="0" r="1" gradientTransform="matrix(0 22 -22 0 12 1)" gradientUnits="userSpaceOnUse"><stop id="stop66376" offset="0" stop-color="#8FC8FF" style="stop-color:#f2f2f2;stop-opacity:1"/><stop id="stop66378" offset="1" stop-color="#0056A8" style="stop-color:#ccc;stop-opacity:1"/></radialGradient><radialGradient xlink:href="#radialGradient66380" id="radialGradient1161" cx=".179" cy="-1.748" r="1" fx=".179" fy="-1.748" gradientTransform="matrix(0 22.01454 -22.00166 0 -26.468 -2.958)" gradientUnits="userSpaceOnUse"/><style id="current-color-scheme" type="text/css">.ColorScheme-Text{color:#31363b}.ColorScheme-Background{color:#eff0f1}.ColorScheme-Highlight{color:#3daee9}.ColorScheme-ViewText{color:#31363b}.ColorScheme-ViewBackground{color:#fcfcfc}.ColorScheme-ViewHover{color:#93cee9}.ColorScheme-ViewFocus{color:#3daee9}.ColorScheme-ButtonText{color:#31363b}.ColorScheme-ButtonBackground{color:#eff0f1}.ColorScheme-ButtonHover{color:#93cee9}.ColorScheme-ButtonFocus{color:#3daee9}</style></defs><path id="path6" d="M12 1C2 1 1 6 1 12c0 8 3 11 11 11s11-3 11-11c0-6-1-11-11-11Z" style="font-variation-settings:normal;display:inline;opacity:1;vector-effect:none;fill:url(#radialGradient1161);fill-opacity:1;stroke-width:1.11627;stroke-linecap:butt;stroke-linejoin:miter;stroke-miterlimit:4;stroke-dasharray:none;stroke-dashoffset:0;stroke-opacity:1;-inkscape-stroke:none;stop-color:#000;stop-opacity:1"/><g id="g2267" style="display:inline;fill:url(#linearGradient3300);fill-opacity:1"><path id="path6-3" d="M50 5C9.09 5 5 25.455 5 50c0 32.727 12.273 45 45 45 32.727 0 45-12.273 45-45 0-24.545-4.09-45-45-45Z" style="font-variation-settings:normal;display:inline;opacity:1;vector-effect:none;fill:url(#linearGradient2);fill-opacity:1;stroke-width:4.56656;stroke-linecap:butt;stroke-linejoin:miter;stroke-miterlimit:4;stroke-dasharray:none;stroke-dashoffset:0;stroke-opacity:1;-inkscape-stroke:none;stop-color:#000;stop-opacity:1" transform="matrix(.24444 0 0 .24444 -.222 -.222)"/></g><g id="g4" fill="#fff" style="color:#000;stroke-width:.741" transform="translate(-.373 -.373) scale(.51553)"><path id="path1" d="M27.391 12.269a3.364 3.364 0 0 1-.503 1.712l4.948 2.86a3.35 3.35 0 0 1 .931-1.466zm-6.721.052-5.405 3.122a3.35 3.35 0 0 1 .864 1.425l5.028-2.906a3.364 3.364 0 0 1-.487-1.64zm-6.774 8.72a3.35 3.35 0 0 1-.972.146 3.35 3.35 0 0 1-.592-.053v6.058a3.35 3.35 0 0 1 .592-.055 3.35 3.35 0 0 1 .972.145v-6.24zm20.22.016v6.21a3.35 3.35 0 0 1 .92-.13 3.35 3.35 0 0 1 .783.098v-6.144a3.35 3.35 0 0 1-.784.096 3.35 3.35 0 0 1-.92-.13zm-17.91 10.108a3.35 3.35 0 0 1-.65 1.391l5.133 2.965a3.35 3.35 0 0 1 .515-1.469zm15.557.028-4.923 2.844a3.35 3.35 0 0 1 .524 1.542l5.102-2.946a3.35 3.35 0 0 1-.703-1.44zM23.958 9.688a2.369 2.369 0 0 0-2.369 2.368 2.369 2.369 0 0 0 2.369 2.37 2.369 2.369 0 0 0 2.369-2.37 2.369 2.369 0 0 0-2.369-2.368zm-.056 1.579a.79.79 0 0 1 .056 0 .79.79 0 0 1 .79.79.79.79 0 0 1-.79.79.79.79 0 0 1-.79-.79.79.79 0 0 1 .734-.79zm11.153 16.777a2.369 2.369 0 0 0-2.369 2.369 2.369 2.369 0 0 0 2.369 2.369 2.369 2.369 0 0 0 2.369-2.369 2.369 2.369 0 0 0-2.369-2.369zm-.056 1.58a.79.79 0 0 1 .056 0 .79.79 0 0 1 .79.789.79.79 0 0 1-.79.79.79.79 0 0 1-.79-.79.79.79 0 0 1 .734-.79z" opacity=".5" style="isolation:auto;mix-blend-mode:normal"/><path id="path2-5" d="M35.055 15.393a2.369 2.369 0 0 0-2.369 2.369 2.369 2.369 0 0 0 2.369 2.369 2.369 2.369 0 0 0 2.369-2.369 2.369 2.369 0 0 0-2.369-2.369zm-.056 1.58a.79.79 0 0 1 .056 0 .79.79 0 0 1 .79.789.79.79 0 0 1-.79.79.79.79 0 0 1-.79-.79.79.79 0 0 1 .734-.79z" style="isolation:auto;mix-blend-mode:normal"/><path id="path3" d="M12.945 28.044a2.369 2.369 0 0 0-2.369 2.369 2.369 2.369 0 0 0 2.369 2.369 2.369 2.369 0 0 0 2.369-2.369 2.369 2.369 0 0 0-2.369-2.369zm-.056 1.58a.79.79 0 0 1 .056 0 .79.79 0 0 1 .79.789.79.79 0 0 1-.79.79.79.79 0 0 1-.79-.79.79.79 0 0 1 .734-.79z" opacity=".5" style="isolation:auto;mix-blend-mode:normal"/><path id="path4" d="M12.945 15.393a2.369 2.369 0 0 0-2.369 2.369 2.369 2.369 0 0 0 2.369 2.369 2.369 2.369 0 0 0 2.369-2.369 2.369 2.369 0 0 0-2.369-2.369zm-.056 1.58a.79.79 0 0 1 .056 0 .79.79 0 0 1 .79.789.79.79 0 0 1-.79.79.79.79 0 0 1-.79-.79.79.79 0 0 1 .734-.79zm11.069 16.602a2.369 2.369 0 0 0-2.369 2.369 2.369 2.369 0 0 0 2.369 2.369 2.369 2.369 0 0 0 2.369-2.369 2.369 2.369 0 0 0-2.369-2.369zm-.056 1.58a.79.79 0 0 1 .056 0 .79.79 0 0 1 .79.789.79.79 0 0 1-.79.79.79.79 0 0 1-.79-.79.79.79 0 0 1 .734-.79zM15.49 19.993a3.35 3.35 0 0 1-1.283.935l7.326 12.69a3.35 3.35 0 0 1 1.305-.895zm17.033.059-7.317 12.675a3.35 3.35 0 0 1 1.308.895l7.31-12.665a3.35 3.35 0 0 1-1.301-.904z" style="isolation:auto;mix-blend-mode:normal"/></g></svg>