<svg xmlns="http://www.w3.org/2000/svg" width="24" height="24" viewBox="0 0 6.35 6.35"><path d="M3.175.265C.529.265.265 1.587.265 3.175c0 2.117.793 2.91 2.91 2.91s2.91-.793 2.91-2.91c0-1.588-.264-2.91-2.91-2.91z" style="font-variation-settings:normal;display:inline;vector-effect:none;fill:#3a3a3a;fill-opacity:1;stroke-width:.295341;stroke-linecap:butt;stroke-linejoin:miter;stroke-miterlimit:4;stroke-dasharray:none;stroke-dashoffset:0;stroke-opacity:1;-inkscape-stroke:none;stop-color:#000"/><path d="M3.175.523C.764.523.523 1.728.523 3.175c0 1.929.723 2.652 2.652 2.652 1.929 0 2.652-.723 2.652-2.652 0-1.447-.24-2.652-2.652-2.652z" style="font-variation-settings:normal;display:inline;vector-effect:none;fill:#4d4d4d;fill-opacity:1;stroke-width:.269163;stroke-linecap:butt;stroke-linejoin:miter;stroke-miterlimit:4;stroke-dasharray:none;stroke-dashoffset:0;stroke-opacity:1;-inkscape-stroke:none;stop-color:#000"/><path fill="#fff" d="M3.461 1.73c-.3.04-.624.186-.887.619-.6.99-.558 1.334-.654 1.445-.096.111-.356.171-.318.297.037.126.076.11.076.11s.378.548 1.476.405c1.097-.142 1.25-.373 1.24-.488-.01-.115-.242-.2-.242-.2s-.172-.604-.127-.852c.044-.248.21-.61.376-.687.165-.08.247.262.333.178.084-.084-.143-.735-.395-.74-.142-.003-.493-.136-.878-.086m.001.83.084.248.254.073-.215.153.01.26-.215-.153-.254.088.082-.245-.164-.205.267-.003m-.708.513.01.18.16.096-.174.062-.043.178-.118-.138-.185.012.099-.15-.07-.169.178.047m.86-.08.171.23.291-.012-.169.234.099.265-.278-.086-.23.176-.001-.286-.241-.157.276-.09m.081-.274" style="stroke-width:.458395"/></svg>