<svg xmlns="http://www.w3.org/2000/svg" width="24" height="24" viewBox="0 0 6.35 6.35"><defs><radialGradient id="a" cx="0" cy="0" r="1" gradientTransform="rotate(90 1.455 1.72) scale(5.82072)" gradientUnits="userSpaceOnUse"><stop offset="0" stop-color="#555" style="stop-color:#818181;stop-opacity:1"/><stop offset="1" stop-color="#222" style="stop-color:#35393c;stop-opacity:1"/></radialGradient></defs><path fill="url(#a)" fill-rule="evenodd" d="M2.539.295a.312.312 0 0 0 .09-.012c.38-.025.76-.024 1.14.003.345.026.678.101 1 .224.536.22.903.603 1.1 1.148.114.328.18.665.2 1.012.029.435.019.869-.03 1.302a3.143 3.143 0 0 1-.236.879 1.87 1.87 0 0 1-1.094 1.008c-.409.139-.829.211-1.26.219a5.668 5.668 0 0 1-1.444-.11C1.13 5.773.59 5.24.385 4.366a5.04 5.04 0 0 1-.12-1.194c-.009-.428.037-.85.137-1.266C.617 1.09 1.135.584 1.957.39c.192-.047.385-.079.582-.094Z" clip-rule="evenodd" style="fill:url(#a);stroke-width:.264578"/><g stroke-width="4" paint-order="markers stroke fill" transform="matrix(.25 0 0 .25 2.05 -68.959)"><path fill="#2f8dac" d="M-1.587 284.565h12.17c.44 0 .794.354.794.793v8.467c0 .44-.354.794-.794.794h-12.17a.792.792 0 0 1-.794-.794v-8.467c0-.44.354-.793.794-.793z" style="stroke-width:3.99995"/><rect width="11.113" height="8.731" x="-1.058" y="282.45" fill="#fff" rx=".775" ry=".794" style="stroke-width:3.99995"/><path fill="#26a4ca" d="M11.212 284.878a.788.788 0 0 1 .165.48v8.467c0 .44-.354.794-.794.794h-12.17a.788.788 0 0 1-.53-.206z" style="stroke-width:3.99995"/><path fill="#49bde3" d="M-2.216 284.878a.788.788 0 0 0-.165.48v8.467c0 .44.354.794.794.794h12.17a.79.79 0 0 0 .53-.206z" style="stroke-width:3.99995"/></g></svg>