<svg xmlns="http://www.w3.org/2000/svg" width="24" height="24"><path d="M9.593 1.115c.12 0 .235-.016.344-.047a31.814 31.814 0 0 1 4.308.01 13.68 13.68 0 0 1 3.781.849c2.026.833 3.41 2.281 4.162 4.338.42 1.24.676 2.516.754 3.823a28.303 28.303 0 0 1-.114 4.928 11.968 11.968 0 0 1-.896 3.317c-.85 1.844-2.23 3.115-4.135 3.812-1.543.522-3.13.798-4.767.824a21.33 21.33 0 0 1-5.452-.412c-3.308-.734-5.354-2.754-6.125-6.057a18.991 18.991 0 0 1-.448-4.51 18.502 18.502 0 0 1 .516-4.787c.812-3.083 2.77-4.995 5.875-5.734a13.692 13.692 0 0 1 2.197-.354Z" style="fill:#5e4fc1;fill-opacity:1;fill-rule:evenodd;stroke:none;stroke-width:1.33333"/><path fill="#f9f9f9" d="M6.73 6.5a.229.229 0 0 0-.23.23v.916c0 .127.102.23.23.23h.686v8.249H6.73a.229.229 0 0 0-.229.23v.916c0 .127.102.229.23.229h2.749a.229.229 0 0 0 .23-.23v-.916a.229.229 0 0 0-.23-.23h-.663V7.876h.663a.229.229 0 0 0 .23-.23V6.73a.229.229 0 0 0-.23-.229Zm4.583 0a.229.229 0 0 0-.23.23v.916c0 .127.103.23.23.23h4.124a.229.229 0 0 0 .23-.23v-.917a.229.229 0 0 0-.23-.229Zm2.75 3.208a.229.229 0 0 0-.23.23v.916c0 .127.102.23.23.23h3.208a.229.229 0 0 0 .229-.23v-.917a.229.229 0 0 0-.23-.229Zm0 3.209a.229.229 0 0 0-.23.229v.916c0 .127.102.23.23.23h3.208a.229.229 0 0 0 .229-.23v-.916a.229.229 0 0 0-.23-.23zm-2.75 3.208a.229.229 0 0 0-.23.23v.916c0 .127.103.229.23.229h4.124a.229.229 0 0 0 .23-.23v-.916a.229.229 0 0 0-.23-.23z" style="stroke-width:1"/></svg>