<svg xmlns="http://www.w3.org/2000/svg" xml:space="preserve" width="24" height="24" version="1"><defs><radialGradient id="a" cx="0" cy="0" r="1" gradientTransform="matrix(0 11 -11 0 12 1)" gradientUnits="userSpaceOnUse"><stop stop-color="#6EBBF7"/><stop offset="1" stop-color="#2196F3" style="stop-color:#1e87e4;stop-opacity:1"/></radialGradient></defs><path fill="url(#a)" fill-rule="evenodd" d="M9.596 1.114c.12 0 .234-.014.344-.046a31.627 31.627 0 0 1 4.307.011c1.301.102 2.562.384 3.78.848 2.026.833 3.412 2.28 4.158 4.339.427 1.24.679 2.514.756 3.824a27.94 27.94 0 0 1-.114 4.923 11.88 11.88 0 0 1-.894 3.32c-.85 1.843-2.229 3.114-4.135 3.813a15.624 15.624 0 0 1-4.765.825 21.423 21.423 0 0 1-5.453-.413c-3.312-.737-5.354-2.756-6.128-6.056a19.047 19.047 0 0 1-.447-4.511 18.491 18.491 0 0 1 .515-4.786c.812-3.086 2.77-4.998 5.877-5.736a13.953 13.953 0 0 1 2.199-.355Z" clip-rule="evenodd" style="fill:url(#a)"/><path d="M16.125 5.5c-.77 0-1.524.016-2.281.167-2.205.441-4.12 1.806-5.33 3.689A8.089 8.089 0 0 0 7.28 13.14c-.02.305-.034.613-.034.92 0 .07-.032.252.029.3.068.053.26.018.343.018h.902c0-.923.042-1.817.319-2.706.665-2.14 2.372-3.848 4.492-4.554.918-.306 1.837-.346 2.794-.346zm0 2.53c-.696 0-1.391.01-2.069.19-1.932.508-3.443 1.993-4.032 3.895-.23.742-.23 1.496-.23 2.264h.901c.084 0 .276.035.344-.018.058-.047.028-.216.028-.283 0-.278-.003-.554.02-.831.059-.741.376-1.464.794-2.07a4.424 4.424 0 0 1 2.635-1.76c.534-.119 1.066-.114 1.61-.114zm0 2.546c-.562 0-1.102-.013-1.644.16-.965.307-1.765 1.147-2.032 2.122-.137.502-.126 1.005-.126 1.52h1.273c0-.35-.03-.715.047-1.06A1.937 1.937 0 0 1 15.03 11.9c.353-.089.735-.051 1.096-.051zm-.255 2.528a.887.887 0 0 0-.134.007c-.422.051-.78.34-.858.773-.105.582.384 1.2 1 1.127.341-.041.65-.221.797-.544.271-.593-.151-1.345-.805-1.363zm-1 2.867V18.5h1.892v-2.53z" style="opacity:1;fill:#fff;stroke:none;stroke-width:1;stroke-dasharray:none;paint-order:stroke markers fill"/></svg>