<svg xmlns="http://www.w3.org/2000/svg" xml:space="preserve" width="24" height="24"><defs><radialGradient id="a" cx="0" cy="0" r="1" fx="0" fy="0" gradientTransform="matrix(0 22 -22 0 -21 -9)" gradientUnits="userSpaceOnUse" spreadMethod="pad"><stop offset="0" style="stop-opacity:1;stop-color:#59cde7"/><stop offset="1" style="stop-opacity:1;stop-color:#1c71d8"/></radialGradient></defs><path d="M-23.407-8.886c.12 0 .234-.016.344-.046a31.814 31.814 0 0 1 4.308.01 13.68 13.68 0 0 1 3.781.848c2.025.834 3.41 2.282 4.161 4.34.422 1.24.676 2.515.755 3.822a28.23 28.23 0 0 1-.115 4.922 11.821 11.821 0 0 1-.896 3.323c-.849 1.844-2.229 3.115-4.134 3.812a15.619 15.619 0 0 1-4.767.824 21.33 21.33 0 0 1-5.452-.412c-3.313-.735-5.355-2.755-6.125-6.057a18.991 18.991 0 0 1-.448-4.51c-.036-1.61.134-3.22.516-4.788.812-3.082 2.77-4.994 5.874-5.733a13.692 13.692 0 0 1 2.198-.355z" style="fill:url(#a);fill-rule:evenodd;stroke:none;stroke-width:1.33333" transform="translate(33 10)"/><path d="M-21-4.183a6.33 6.33 0 0 0-4.485 1.855 6.345 6.345 0 0 0 0 8.968 6.335 6.335 0 0 0 8.968 0 6.345 6.345 0 0 0 0-8.968A6.33 6.33 0 0 0-21-4.183zm-1.61 3.21a.955.955 0 0 1 .49.123l3.963 2.22a.955.955 0 0 1 0 1.66l-3.964 2.22a.953.953 0 0 1-1.416-.834V-.022c0-.546.443-.937.927-.952z" style="fill:#1a5fb4;fill-opacity:1;fill-rule:nonzero;stroke:none;stroke-width:1.33333" transform="translate(33 10)"/><path d="M-21-4.5a6.345 6.345 0 0 0-4.484 10.828 6.345 6.345 0 0 0 8.967 0A6.345 6.345 0 0 0-21-4.5zm-1.61 3.208c.161 0 .328.037.49.125l3.963 2.219a.955.955 0 0 1 0 1.661l-3.964 2.219a.952.952 0 0 1-1.416-.834V-.339a.96.96 0 0 1 .927-.953z" style="fill:#fff;fill-opacity:1;fill-rule:nonzero;stroke:none;stroke-width:1.33333" transform="translate(33 10)"/></svg>