<svg xmlns="http://www.w3.org/2000/svg" xmlns:xlink="http://www.w3.org/1999/xlink" xml:space="preserve" width="24" height="24" fill="none"><defs><linearGradient id="d" x1="0" x2="1" y1="0" y2="0" gradientTransform="rotate(-27.533 959.832 -107.303) scale(440.04492)" gradientUnits="userSpaceOnUse" spreadMethod="pad"><stop offset="0" style="stop-opacity:.99607843;stop-color:#fff"/><stop offset=".341" style="stop-opacity:1;stop-color:#fff"/><stop offset="1" style="stop-opacity:.99607843;stop-color:#fff"/></linearGradient><linearGradient id="j" x1="0" x2="1" y1="0" y2="0" gradientTransform="rotate(-90 277.932 105.877) scale(204.88353)" gradientUnits="userSpaceOnUse" spreadMethod="pad"><stop offset="0" style="stop-opacity:1;stop-color:#fff"/><stop offset=".209" style="stop-opacity:1;stop-color:#fff"/><stop offset="1" style="stop-opacity:0;stop-color:#fff"/></linearGradient><linearGradient id="b" x1="0" x2="1" y1="0" y2="0" gradientTransform="translate(286.883 536.985) scale(119.59705)" gradientUnits="userSpaceOnUse" spreadMethod="pad"><stop offset="0" style="stop-opacity:1;stop-color:#fff"/><stop offset=".875" style="stop-opacity:0;stop-color:#fff"/><stop offset="1" style="stop-opacity:0;stop-color:#fff"/></linearGradient><linearGradient id="h" x1="0" x2="1" y1="0" y2="0" gradientTransform="scale(77.80141) rotate(46.017 -4.872 6.051)" gradientUnits="userSpaceOnUse" spreadMethod="pad"><stop offset="0" style="stop-opacity:1;stop-color:#fff"/><stop offset=".536" style="stop-opacity:1;stop-color:#fff"/><stop offset="1" style="stop-opacity:0;stop-color:#fff"/></linearGradient><linearGradient id="l" x1="0" x2="1" y1="0" y2="0" gradientTransform="scale(-158.43383) rotate(49.874 .59 -4.16)" gradientUnits="userSpaceOnUse" spreadMethod="pad"><stop offset="0" style="stop-opacity:0;stop-color:#fff"/><stop offset=".077" style="stop-opacity:0;stop-color:#fff"/><stop offset="1" style="stop-opacity:.99607843;stop-color:#fff"/></linearGradient><linearGradient xlink:href="#b" id="a" x1="0" x2="1" y1="0" y2="0" gradientTransform="translate(286.883 536.985) scale(119.59705)" gradientUnits="userSpaceOnUse" spreadMethod="pad"/><linearGradient xlink:href="#d" id="c" x1="0" x2="1" y1="0" y2="0" gradientTransform="rotate(-27.533 959.832 -107.303) scale(440.04492)" gradientUnits="userSpaceOnUse" spreadMethod="pad"/><linearGradient xlink:href="#h" id="g" x1="0" x2="1" y1="0" y2="0" gradientTransform="scale(77.80141) rotate(46.017 -4.872 6.051)" gradientUnits="userSpaceOnUse" spreadMethod="pad"/><linearGradient xlink:href="#j" id="i" x1="0" x2="1" y1="0" y2="0" gradientTransform="rotate(-90 277.932 105.877) scale(204.88353)" gradientUnits="userSpaceOnUse" spreadMethod="pad"/><linearGradient xlink:href="#l" id="k" x1="0" x2="1" y1="0" y2="0" gradientTransform="scale(-158.43383) rotate(49.874 .59 -4.16)" gradientUnits="userSpaceOnUse" spreadMethod="pad"/><radialGradient id="m" cx="0" cy="0" r="1" fx="0" fy="0" gradientTransform="matrix(0 11 -11 0 -22 1)" gradientUnits="userSpaceOnUse" spreadMethod="pad"><stop offset="0" style="stop-color:#818181;stop-opacity:1"/><stop offset="1" style="stop-color:#35393c;stop-opacity:1"/></radialGradient><radialGradient id="f" cx="0" cy="0" r="1" fx="0" fy="0" gradientTransform="matrix(-547.24042 -131.02512 152.52774 -637.04834 566.544 160.383)" gradientUnits="userSpaceOnUse" spreadMethod="pad"><stop offset="0" style="stop-opacity:1;stop-color:#fff"/><stop offset=".212" style="stop-opacity:1;stop-color:#fff"/><stop offset=".688" style="stop-opacity:1;stop-color:#fff"/><stop offset="1" style="stop-opacity:.99607843;stop-color:#fff"/></radialGradient><radialGradient xlink:href="#f" id="e" cx="0" cy="0" r="1" fx="0" fy="0" gradientTransform="matrix(-547.24042 -131.02512 152.52774 -637.04834 566.544 160.383)" gradientUnits="userSpaceOnUse" spreadMethod="pad"/></defs><path d="M-24.407 1.115c.12 0 .235-.016.344-.047a31.813 31.813 0 0 1 4.308.01 13.68 13.68 0 0 1 3.781.849c2.026.833 3.41 2.281 4.162 4.338.42 1.24.676 2.516.754 3.823a28.303 28.303 0 0 1-.114 4.928 11.968 11.968 0 0 1-.896 3.317c-.85 1.844-2.23 3.115-4.135 3.812-1.543.522-3.13.798-4.767.824a21.331 21.331 0 0 1-5.452-.412c-3.308-.734-5.354-2.754-6.125-6.057a18.991 18.991 0 0 1-.448-4.51 18.502 18.502 0 0 1 .516-4.787c.812-3.083 2.77-4.995 5.875-5.734a13.692 13.692 0 0 1 2.197-.354z" style="fill:url(#m);fill-rule:evenodd;stroke:none;stroke-width:1.33333" transform="translate(34)"/><g transform="translate(52.5 -9.5)"><rect width="13" height="13" x="-47" y="15" fill="#388e3c" rx="1.5" ry="1.5" style="stroke-width:.279802"/><path fill="#43a047" d="M-45.5 15c-.386 0-.735.145-1 .383V18l-.5.5v.5l.75.75h9.5l1.75-2h1v-.25h-1v-1l-2 2.25h-.75l2-2.25V15Zm1 7.75-2.5 2v.75l1.5-1v.5l-1.5 1h1v1.913c.156.055.324.087.5.087h1v-2.75L-43 24h.75l-1.5 1.25V28h8.25c.831 0 1.5-.669 1.5-1.5v-1.023l-1.75-2.227h-.5l-.5-.5z" style="stroke-width:.279802"/><path fill="#fbc02d" fill-rule="evenodd" d="M-43.25 18.5h.5v6h-.5zm1 0h.5v6h-.5zm1 0h.5v6h-.5zm1 0h.5v6h-.5zm1 0h.5v6h-.5zm1 0h.5v6h-.5z" style="stroke-width:.279802;paint-order:fill markers stroke"/><rect width="7.5" height="5" x="-44.25" y="19" rx=".75" ry=".75" style="opacity:.8;fill:#000;stroke-width:.279802"/><circle cx="-35.125" cy="26.875" r=".375" fill="#fbc02d" style="stroke-width:.279803"/><circle cx="-35.125" cy="26.875" r=".125" fill="#263238" style="stroke-width:.279803"/><circle cx="-35.125" cy="16.125" r=".375" fill="#fbc02d" style="stroke-width:.279803"/><circle cx="-35.125" cy="16.125" r=".125" fill="#263238" style="stroke-width:.279803"/><circle cx="-45.875" cy="26.875" r=".375" fill="#fbc02d" style="stroke-width:.279803"/><circle cx="-45.875" cy="26.875" r=".125" fill="#263238" style="stroke-width:.279803"/><circle cx="-45.875" cy="16.125" r=".375" fill="#fbc02d" style="stroke-width:.279803"/><circle cx="-45.875" cy="16.125" r=".125" fill="#263238" style="stroke-width:.279803"/><rect width="4.25" height="3" x="-48" y="15.5" fill="#f9f9f9" rx=".5" ry=".5" style="opacity:.8;stroke-width:.279802"/><rect width="4.25" height="3" x="-37.25" y="24.5" fill="#f9f9f9" rx=".5" ry=".5" style="opacity:.8;stroke-width:.279802"/><rect width="1" height=".25" x="-47.5" y="16.75" rx=".125" ry=".125" style="fill:#fff;stroke-width:.279802;paint-order:stroke fill markers"/><rect width="2" height=".25" x="-47.5" y="17.25" rx=".125" ry=".125" style="fill:#fff;stroke-width:.279802;paint-order:stroke fill markers"/><rect width=".75" height="1" x="-45" y="16.5" rx=".1" ry=".1" style="fill:#fff;stroke-width:.279802;paint-order:stroke fill markers"/><rect width="2.19" height=".243" x="-36.85" y="25.393" rx=".122" ry=".122" style="fill:#fff;stroke-width:.243342"/><path fill-rule="evenodd" d="m-34.66 26.367.487-.73.487.73z" style="fill:#fff;stroke-width:.243342"/><rect width="1.217" height=".243" x="-36.85" y="25.88" rx=".122" ry=".122" style="fill:#fff;stroke-width:.243342"/><path d="m-39.139 20.04-1.056 1.421 1.111 1.5h-.566l-.85-1.148-.85 1.147h-.566l1.134-1.528-1.037-1.392h.566l.774 1.04.774-1.04z" aria-label="x" style="fill:#fff;stroke-width:.243342"/></g></svg>