<svg xmlns="http://www.w3.org/2000/svg" width="24" height="24" version="1.0"><defs><radialGradient id="a" cx="0" cy="0" r="1" fx="0" fy="0" gradientTransform="matrix(0 22 -22 0 12 1)" gradientUnits="userSpaceOnUse" spreadMethod="pad"><stop offset="0" style="stop-color:#fabac6;stop-opacity:1"/><stop offset="1" style="stop-color:#fd4667;stop-opacity:1"/></radialGradient></defs><path d="M9.593 1.115c.12 0 .235-.016.344-.047a31.814 31.814 0 0 1 4.308.01 13.68 13.68 0 0 1 3.781.849c2.026.833 3.41 2.281 4.162 4.338.42 1.24.676 2.516.754 3.823a28.303 28.303 0 0 1-.114 4.928 11.968 11.968 0 0 1-.896 3.317c-.85 1.844-2.23 3.115-4.135 3.812-1.543.522-3.13.798-4.767.824a21.33 21.33 0 0 1-5.452-.412c-3.308-.734-5.354-2.754-6.125-6.057a18.991 18.991 0 0 1-.448-4.51c-.036-1.62.135-3.214.516-4.787.812-3.083 2.77-4.995 5.875-5.734a13.692 13.692 0 0 1 2.197-.354z" style="fill:url(#a);fill-rule:evenodd;stroke:none;stroke-width:1.33333"/><path fill="#fff" d="M4.5 6.782v1.793a.163.163 0 0 0 .163.163.163.163 0 0 0 .163-.163V7.108h1.467a.163.163 0 0 0 .163-.163.163.163 0 0 0-.163-.163Zm13.207 0a.163.163 0 0 0-.163.163.163.163 0 0 0 .163.163h1.467v1.467a.163.163 0 0 0 .163.163.163.163 0 0 0 .163-.163V6.782Zm1.63 8.48a.163.163 0 0 0-.163.163v1.467h-1.467a.163.163 0 0 0-.163.163.163.163 0 0 0 .163.163H19.5v-1.793a.163.163 0 0 0-.163-.163zm-14.674 0a.163.163 0 0 0-.163.163v1.793h1.793a.163.163 0 0 0 .163-.163.163.163 0 0 0-.163-.163H4.826v-1.467a.163.163 0 0 0-.163-.163Zm6.685-4.892a.65.65 0 0 0-.652.652v1.956c0 .361.29.652.652.652h2.608a.65.65 0 0 0 .652-.652v-1.956a.65.65 0 0 0-.652-.652zM10.696 12l-.978-1.304h-.326v2.608h.326zm1.936-1.304a1.304 1.304 0 0 1 .02 0A1.304 1.304 0 0 1 13.956 12a1.304 1.304 0 0 1-1.304 1.304A1.304 1.304 0 0 1 11.348 12a1.304 1.304 0 0 1 1.284-1.304Zm.004.652A.652.652 0 0 0 12 12a.652.652 0 0 0 .652.652.652.652 0 0 0 .652-.652.652.652 0 0 0-.652-.652.652.652 0 0 0-.016 0z" style="stroke-width:1"/></svg>