<svg xmlns="http://www.w3.org/2000/svg" xml:space="preserve" width="24" height="24" fill="none"><defs><radialGradient id="a" cx=".179" cy="-1.748" r="1" fx=".179" fy="-1.748" gradientTransform="matrix(.23202 20.32265 -16.50017 .18838 -19.89 -2.572)" gradientUnits="userSpaceOnUse" spreadMethod="pad"><stop offset="0" style="stop-opacity:1;stop-color:#80b3ff"/><stop offset="1" style="stop-opacity:1;stop-color:#003380"/></radialGradient><radialGradient id="b" cx=".179" cy="-1.748" r="1" fx=".179" fy="-1.748" gradientTransform="matrix(.23202 20.32265 -16.50017 .18838 -19.89 -2.572)" gradientUnits="userSpaceOnUse" spreadMethod="pad"><stop offset="0" style="stop-opacity:1;stop-color:#d5ffe6"/><stop offset="1" style="stop-opacity:1;stop-color:#00d455"/></radialGradient></defs><path d="M9 .75C1.5.75.75 4.5.75 9 .75 15 3 17.25 9 17.25S17.25 15 17.25 9C17.25 4.5 16.5.75 9 .75Z" style="fill:url(#a);stroke:none" transform="scale(1.33333)"/><path d="M9 .75C1.5.75.75 4.5.75 9 .75 15 3 17.25 9 17.25S17.25 15 17.25 9C17.25 4.5 16.5.75 9 .75Z" style="fill:url(#b);stroke:none" transform="scale(1.33333)"/><path d="M4.312 13.18a.19.19 0 0 1-.078-.067l-.023-.047v-.871h-.699l-.055-.062-.059-.059-.007-.781c-.004-.43 0-.82.007-.875a.362.362 0 0 1 .047-.141l.032-.043.359-.011.363-.012.004-.207.008-.203-.711-.016-.043-.055c-.051-.058-.059-.168-.023-.238.011-.023.058-.054.097-.066.043-.016.211-.028.375-.028h.305V9h-.613l-.082-.035-.078-.031-.055-.18.008-.82.007-.817.067-.058.066-.055h.68l-.008-.207-.004-.203-.679-.016-.11-.101v-.176l.063-.047.062-.051h.676l-.008-.508-.004-.511-.566-.012a13.683 13.683 0 0 1-.571-.02.624.624 0 0 1-.039-.086l-.035-.082.024-.054a.239.239 0 0 1 .074-.098l.055-.035h1.308l.137.137v.871h9.348l.164.039c.191.043.39.156.558.32l.125.121.094.192.094.187.019.176c.032.23.032 3.691 0 3.922l-.019.176-.188.382-.152.141a1.26 1.26 0 0 1-.574.309 4.448 4.448 0 0 1-.489.023h-.363v1.273l-.066.071-.071.066h-1.714l-.067-.055-.066-.058-.004-.649-.008-.648h-.82v1.289l-.047.055-.043.054-2.277.008-2.282.004-.066-.055-.067-.058-.003-.649-.008-.648H4.586v1.273l-.07.071c-.071.07-.118.078-.204.043zm2.293-.618.012-.253.055-.047a.234.234 0 0 1 .121-.043c.035 0 .09.019.121.043l.055.047.023.507.207.008.203.004v-.223c0-.226.02-.304.094-.359.055-.043.152-.035.219.02l.062.046.008.254.008.25.203.008.207.004v-.465l.059-.074.062-.07h.067a.23.23 0 0 1 .132.054l.067.055.015.5h.391l.008-.25.008-.246.066-.059a.223.223 0 0 1 .121-.054c.031 0 .086.023.125.054l.063.059.008.246.011.25h.606v-1.035H5.996v1.035l.297-.004.301-.008zm5.407.016.008-.246.066-.059a.223.223 0 0 1 .121-.054c.031 0 .086.023.121.054l.067.059.007.25.008.246.203-.004.203-.008v-1.011l-.605-.004-.602-.008v1.035h.395zm-7.801-1.371v-.609h-.426v1.218h.426zm3.492-.258a2.7 2.7 0 0 0 .359-.117c.34-.144.68-.414.907-.719.191-.25.347-.609.41-.941l.027-.149-.011-.324-.012-.32-.051-.168a2.987 2.987 0 0 0-.34-.703 2.492 2.492 0 0 0-.953-.754 3.303 3.303 0 0 0-.348-.109l-.207-.051h-.586l-.207.054a2.524 2.524 0 0 0-.746.332c-.082.055-.23.18-.328.282a2.204 2.204 0 0 0-.601 1.183l-.036.215.024.516.062.211a2.215 2.215 0 0 0 2.219 1.621 2.63 2.63 0 0 0 .418-.059Zm-.73-.429a1.215 1.215 0 0 1-.207-.532l-.028-.179.032-.133a.472.472 0 0 1 .046-.149c.036-.019.211.082.211.121 0 .02.035.11.078.196l.075.152.152.156c.086.082.219.188.301.235a.702.702 0 0 1 .144.093c.004.04-.402.118-.613.118h-.133Zm-.703-.192c-.161-.098-.375-.273-.426-.355l-.039-.063.027-.121c.035-.148.141-.367.234-.488.075-.09.293-.254.34-.254.012 0 .039.043.063.094l.039.089-.031.043a1.116 1.116 0 0 0-.129.415l-.028.167.028.184c.011.102.039.227.058.277.016.051.024.094.016.094-.012 0-.078-.039-.152-.082zm1.902-.168c-.281-.066-.586-.285-.692-.492l-.046-.09.093-.043.09-.043.086.047c.293.145.66.156 1.07.031l.043-.011-.074.14a1.824 1.824 0 0 1-.238.321c-.09.097-.172.175-.18.175-.008 0-.078-.015-.152-.035Zm-2.715-.953-.051-.219.004-.187.008-.188.113-.078c.231-.152.598-.219.844-.148l.109.031-.043.094-.039.097-.121.039c-.269.094-.523.325-.691.625l-.082.157Zm2.539 0c-.043-.012-.074-.027-.074-.039 0-.008.016-.051.031-.094l.027-.078.125-.043c.071-.027.176-.078.243-.121a1.71 1.71 0 0 0 .457-.5c.035-.07.074-.125.082-.117.047.027.121.535.101.68l-.015.097-.125.078a2.115 2.115 0 0 1-.27.121l-.144.043-.18-.004c-.102 0-.215-.011-.258-.023Zm-.945-.047a.445.445 0 0 1-.203-.187.543.543 0 0 1-.032-.18v-.117l.055-.078a.525.525 0 0 1 .133-.133l.078-.051h.215l.094.051.093.055.055.101a.566.566 0 0 1 .051.18.457.457 0 0 1-.055.176l-.055.105-.089.051-.094.055h-.094a.515.515 0 0 1-.152-.028Zm.879-.695-.035-.086.062-.133c.031-.074.07-.195.082-.273a1.566 1.566 0 0 0-.043-.657l-.047-.148.074.039c.125.063.348.231.457.344l.106.105-.016.114a1.307 1.307 0 0 1-.265.546c-.082.094-.274.239-.317.239-.011 0-.035-.039-.058-.09ZM6.711 8.07a1.106 1.106 0 0 0-.195-.082l-.149-.047h-.219c-.187 0-.277.016-.527.086l-.059.016.071-.117c.097-.168.273-.391.367-.461l.082-.063.137.036c.199.05.367.136.504.261.105.098.254.305.23.324a1.525 1.525 0 0 1-.191.082c-.004 0-.024-.015-.051-.035Zm.758-.027-.082-.035-.032-.106c-.066-.238-.351-.562-.617-.699a.512.512 0 0 1-.133-.086c0-.008.043-.027.098-.039.184-.051.352-.074.512-.074h.16l.07.109c.106.168.172.352.188.528.015.175-.008.351-.047.402l-.031.035Zm5.054 2.906a2.53 2.53 0 0 0 .797-.375c.399-.293.688-.715.828-1.215l.055-.183v-.75l-.055-.188a2.473 2.473 0 0 0-.332-.707 2.636 2.636 0 0 0-.55-.551 2.804 2.804 0 0 0-.711-.324l-.231-.058h-.656l-.188.05a2.272 2.272 0 0 0-1.3.918c-.168.25-.278.508-.336.786l-.043.214v.243c0 .132.015.32.035.421.109.516.422 1.016.84 1.336.082.059.25.161.379.219a2 2 0 0 0 1.047.219c.125-.004.316-.031.421-.055zm-.722-.406c-.071-.078-.164-.281-.207-.445l-.039-.145.011-.156a1.02 1.02 0 0 1 .039-.215l.024-.062.094.035.093.039.039.113c.086.258.325.531.602.688a.635.635 0 0 1 .137.085c0 .04-.403.118-.614.118h-.128zm-.793-.262c-.211-.144-.387-.316-.387-.386a1.315 1.315 0 0 1 .344-.688c.07-.062.219-.16.25-.16.008 0 .035.039.058.082l.043.086-.062.133c-.07.144-.117.351-.117.519.004.094.035.285.082.477.011.035.008.066 0 .066a2.075 2.075 0 0 1-.211-.129zm2.008-.109a1.491 1.491 0 0 1-.543-.277 1.059 1.059 0 0 1-.168-.207l-.063-.118.094-.039.094-.035.16.074.156.075h.613l.125-.043c.067-.024.129-.04.133-.032a.542.542 0 0 1-.078.153c-.094.156-.312.414-.375.445a.343.343 0 0 1-.148.004zm-2.739-.906-.043-.137v-.516l.11-.074c.062-.043.183-.098.269-.129l.153-.051h.168c.164 0 .343.039.343.075a.5.5 0 0 1-.035.105c-.019.047-.051.086-.07.086a.732.732 0 0 0-.195.074l-.153.071-.168.168c-.09.093-.203.234-.25.316l-.086.152Zm2.524-.059c-.035-.012-.067-.031-.067-.043a.5.5 0 0 1 .036-.098l.035-.082.097-.031c.282-.082.559-.336.731-.664l.058-.109.043.132c.02.075.043.254.051.399l.012.262-.098.07c-.054.039-.16.098-.234.125l-.129.051-.238.008a1.11 1.11 0 0 1-.297-.02Zm-.934-.047a.461.461 0 0 1-.238-.262.38.38 0 0 1 .187-.433l.09-.051h.199l.094.051a.386.386 0 0 1 .188.433.472.472 0 0 1-.246.266.442.442 0 0 1-.274-.004Zm.871-.695-.047-.09.036-.043a1.48 1.48 0 0 0 .085-.199l.051-.156-.004-.247v-.246l-.047-.16-.046-.156.109.062c.145.082.32.219.434.336l.093.094-.027.133c-.059.273-.234.547-.441.687a.753.753 0 0 1-.133.075c-.008 0-.039-.043-.063-.09zm-1.215-.391a1.178 1.178 0 0 0-.191-.082l-.144-.051-.231.004h-.23l-.165.043a1.166 1.166 0 0 1-.167.039.73.73 0 0 1 .082-.152c.089-.152.304-.41.378-.449l.043-.024.133.036c.176.046.379.152.508.265a.95.95 0 0 1 .168.211l.066.117-.066.024c-.035.011-.078.031-.098.039-.019.008-.058 0-.086-.02zm.762-.031-.086-.035-.047-.133a1.292 1.292 0 0 0-.125-.246 1.528 1.528 0 0 0-.48-.43.411.411 0 0 1-.125-.082c0-.008.043-.027.098-.039.175-.051.347-.074.5-.074h.144l.047.051c.07.078.168.277.207.433.02.074.035.188.035.25 0 .117-.039.317-.066.332a.277.277 0 0 1-.102-.027Zm-8.082-.047-.004-.605-.207-.008-.207-.004v1.223h.426z" style="fill:#1a1a1a;fill-opacity:1;fill-rule:nonzero;stroke:none" transform="scale(1.33333)"/></svg>