<svg xmlns="http://www.w3.org/2000/svg" xmlns:xlink="http://www.w3.org/1999/xlink" xml:space="preserve" id="svg154" width="24" height="24" fill="none" version="1.1"><defs id="defs152"><linearGradient id="linearGradient3299"><stop id="stop3299" offset="0" style="stop-color:#56606e;stop-opacity:1"/><stop id="stop3300" offset="1" style="stop-color:#ccc;stop-opacity:1"/></linearGradient><linearGradient xlink:href="#linearGradient3299" id="linearGradient3300" x1="13.313" x2="12.688" y1="34.75" y2="-9.688" gradientUnits="userSpaceOnUse"/><linearGradient xlink:href="#linearGradient3299" id="linearGradient2" x1="13.313" x2="12.688" y1="34.75" y2="-9.688" gradientUnits="userSpaceOnUse"/><radialGradient id="radialGradient66380" cx="0" cy="0" r="1" gradientTransform="matrix(0 22 -22 0 12 1)" gradientUnits="userSpaceOnUse"><stop id="stop66376" offset="0" stop-color="#8FC8FF" style="stop-color:#f2f2f2;stop-opacity:1"/><stop id="stop66378" offset="1" stop-color="#0056A8" style="stop-color:#ccc;stop-opacity:1"/></radialGradient><radialGradient xlink:href="#radialGradient66380" id="radialGradient1161" cx=".179" cy="-1.748" r="1" fx=".179" fy="-1.748" gradientTransform="matrix(0 22.01454 -22.00166 0 -26.468 -2.958)" gradientUnits="userSpaceOnUse"/><style id="current-color-scheme" type="text/css">.ColorScheme-Text{color:#31363b}.ColorScheme-Background{color:#eff0f1}.ColorScheme-Highlight{color:#3daee9}.ColorScheme-ViewText{color:#31363b}.ColorScheme-ViewBackground{color:#fcfcfc}.ColorScheme-ViewHover{color:#93cee9}.ColorScheme-ViewFocus{color:#3daee9}.ColorScheme-ButtonText{color:#31363b}.ColorScheme-ButtonBackground{color:#eff0f1}.ColorScheme-ButtonHover{color:#93cee9}.ColorScheme-ButtonFocus{color:#3daee9}</style></defs><path id="path6" d="M12 1C2 1 1 6 1 12c0 8 3 11 11 11s11-3 11-11c0-6-1-11-11-11Z" style="font-variation-settings:normal;display:inline;opacity:1;vector-effect:none;fill:url(#radialGradient1161);fill-opacity:1;stroke-width:1.11627;stroke-linecap:butt;stroke-linejoin:miter;stroke-miterlimit:4;stroke-dasharray:none;stroke-dashoffset:0;stroke-opacity:1;-inkscape-stroke:none;stop-color:#000;stop-opacity:1"/><g id="g2267" style="display:inline;fill:url(#linearGradient3300);fill-opacity:1"><path id="path6-3" d="M50 5C9.09 5 5 25.455 5 50c0 32.727 12.273 45 45 45 32.727 0 45-12.273 45-45 0-24.545-4.09-45-45-45Z" style="font-variation-settings:normal;display:inline;opacity:1;vector-effect:none;fill:url(#linearGradient2);fill-opacity:1;stroke-width:4.56656;stroke-linecap:butt;stroke-linejoin:miter;stroke-miterlimit:4;stroke-dasharray:none;stroke-dashoffset:0;stroke-opacity:1;-inkscape-stroke:none;stop-color:#000;stop-opacity:1" transform="matrix(.24444 0 0 .24444 -.222 -.222)"/></g><g id="g7" stroke-width=".942" transform="matrix(.42725 0 0 .42725 -1.753 -1.655)"><path id="path5" fill="#05a5f9" d="M19.628 42.982V22.696h4.057v-3.043h-7.1v26.372h7.1v-3.043zm22.314 0V22.696h-4.057v-3.043h7.1v26.372h-7.1v-3.043z" style="isolation:isolate" transform="translate(.835 .582) scale(.9555)"/><path id="path6-6" fill="#fff" d="m25.494 22.348-2.897 1.42 7.39 15.096c-.247.466-.499.93-.766 1.383-.431.764-.96 1.463-1.563 2.088a2.35 2.35 0 0 1-.527.398.177.177 0 0 1-.098.033h-1.27v3.23h1.335a3.403 3.403 0 0 0 1.617-.44 5.425 5.425 0 0 0 1.248-.96 13.772 13.772 0 0 0 2.056-2.734 36.988 36.988 0 0 0 1.842-3.555 76.677 76.677 0 0 0 1.68-4.006c.948-2.444 1.81-4.921 2.596-7.42a93.5 93.5 0 0 0 1.033-3.37l-3.112-.893a88.483 88.483 0 0 1-1.002 3.283 112.704 112.704 0 0 1-2.53 7.236 64.14 64.14 0 0 1-.79 1.963z" style="isolation:isolate" transform="translate(3.183 3.161) scale(.89998)"/><path id="path7" fill="#05a5f9" d="M49.042 25.232a1.522 1.522 0 1 1-3.043 0 1.522 1.522 0 0 1 3.043 0zm0 15.214a1.522 1.522 0 1 1-3.043 0 1.522 1.522 0 0 1 3.043 0z" style="isolation:isolate" transform="translate(.835 .582) scale(.9555)"/></g></svg>