<svg xmlns="http://www.w3.org/2000/svg" xmlns:xlink="http://www.w3.org/1999/xlink" xml:space="preserve" id="svg154" width="24" height="24" fill="none" version="1.1"><defs id="defs152"><linearGradient id="swatch3303"><stop id="stop3303" offset="0" style="stop-color:#313131;stop-opacity:1"/></linearGradient><linearGradient id="linearGradient3301"><stop id="stop3301" offset="0" style="stop-color:#000;stop-opacity:1"/><stop id="stop3302" offset="1" style="stop-color:#000;stop-opacity:0"/></linearGradient><linearGradient id="linearGradient3299"><stop id="stop3299" offset="0" style="stop-color:#ececec;stop-opacity:1"/><stop id="stop3300" offset="1" style="stop-color:#fff;stop-opacity:1"/></linearGradient><linearGradient xlink:href="#linearGradient3299" id="linearGradient3300" x1="13.313" x2="12.688" y1="34.75" y2="-9.688" gradientUnits="userSpaceOnUse"/><linearGradient xlink:href="#swatch3303" id="linearGradient3303" x1="8.296" x2="14.669" y1="12.835" y2="12.835" gradientUnits="userSpaceOnUse"/><linearGradient xlink:href="#linearGradient3299" id="linearGradient2" x1="13.313" x2="12.688" y1="34.75" y2="-9.688" gradientUnits="userSpaceOnUse"/><radialGradient id="radialGradient66380" cx="0" cy="0" r="1" gradientTransform="matrix(0 22 -22 0 12 1)" gradientUnits="userSpaceOnUse"><stop id="stop66376" offset="0" stop-color="#8FC8FF" style="stop-color:#f2f2f2;stop-opacity:1"/><stop id="stop66378" offset="1" stop-color="#0056A8" style="stop-color:#ccc;stop-opacity:1"/></radialGradient><radialGradient xlink:href="#radialGradient66380" id="radialGradient1161" cx=".179" cy="-1.748" r="1" fx=".179" fy="-1.748" gradientTransform="matrix(0 22.01454 -22.00166 0 -26.468 -2.958)" gradientUnits="userSpaceOnUse"/><style id="current-color-scheme" type="text/css">.ColorScheme-Text{color:#31363b}.ColorScheme-Background{color:#eff0f1}.ColorScheme-Highlight{color:#3daee9}.ColorScheme-ViewText{color:#31363b}.ColorScheme-ViewBackground{color:#fcfcfc}.ColorScheme-ViewHover{color:#93cee9}.ColorScheme-ViewFocus{color:#3daee9}.ColorScheme-ButtonText{color:#31363b}.ColorScheme-ButtonBackground{color:#eff0f1}.ColorScheme-ButtonHover{color:#93cee9}.ColorScheme-ButtonFocus{color:#3daee9}</style></defs><path id="path6" d="M12 1C2 1 1 6 1 12c0 8 3 11 11 11s11-3 11-11c0-6-1-11-11-11Z" style="font-variation-settings:normal;display:inline;opacity:1;vector-effect:none;fill:url(#radialGradient1161);fill-opacity:1;stroke-width:1.11627;stroke-linecap:butt;stroke-linejoin:miter;stroke-miterlimit:4;stroke-dasharray:none;stroke-dashoffset:0;stroke-opacity:1;-inkscape-stroke:none;stop-color:#000;stop-opacity:1"/><g id="g2267" style="display:inline;fill:url(#linearGradient3300);fill-opacity:1"><path id="path6-3" d="M50 5C9.09 5 5 25.455 5 50c0 32.727 12.273 45 45 45 32.727 0 45-12.273 45-45 0-24.545-4.09-45-45-45Z" style="font-variation-settings:normal;display:inline;opacity:1;vector-effect:none;fill:url(#linearGradient2);fill-opacity:1;stroke-width:4.56656;stroke-linecap:butt;stroke-linejoin:miter;stroke-miterlimit:4;stroke-dasharray:none;stroke-dashoffset:0;stroke-opacity:1;-inkscape-stroke:none;stop-color:#000;stop-opacity:1" transform="matrix(.24444 0 0 .24444 -.222 -.222)"/></g><path id="path5" fill="#05a5f9" d="M6.617 16.14V7.86h1.656V6.616H5.375v10.766h2.898v-1.242zm9.11 0V7.86H14.07V6.616h2.899v10.766H14.07v-1.242z" style="isolation:isolate;stroke-width:.38456"/><path id="path6-6" fill="#fff" d="m9.41 8.289-1.114.546 2.842 5.805c-.095.179-.192.357-.295.531-.165.294-.369.563-.6.803a.903.903 0 0 1-.203.153.068.068 0 0 1-.038.013h-.488v1.242h.513a1.309 1.309 0 0 0 .622-.17 2.086 2.086 0 0 0 .48-.368 5.296 5.296 0 0 0 .79-1.052 14.222 14.222 0 0 0 .708-1.367 29.484 29.484 0 0 0 .646-1.54c.365-.94.696-1.892.999-2.853a35.952 35.952 0 0 0 .397-1.296l-1.197-.343a34.023 34.023 0 0 1-.385 1.262 43.337 43.337 0 0 1-.973 2.782 24.663 24.663 0 0 1-.304.755z" style="isolation:isolate;fill:#333;fill-opacity:1;stroke:url(#linearGradient3303);stroke-width:.362214"/><path id="path7" fill="#05a5f9" d="M18.625 8.895a.621.621 0 1 1-1.242 0 .621.621 0 0 1 1.242 0zm0 6.21a.621.621 0 1 1-1.242 0 .621.621 0 0 1 1.242 0z" style="isolation:isolate;stroke-width:.38456"/></svg>