<svg xmlns="http://www.w3.org/2000/svg" xml:space="preserve" width="24" height="24" viewBox="0 0 6.35 6.35"><defs><radialGradient id="a" cx="0" cy="0" r="1" fx="0" fy="0" gradientTransform="rotate(90 9.63 9.895) scale(5.82072)" gradientUnits="userSpaceOnUse" spreadMethod="pad"><stop offset="0" style="stop-opacity:1;stop-color:#555"/><stop offset="1" style="stop-opacity:1;stop-color:#222"/></radialGradient></defs><path d="M18.888.295a.335.335 0 0 0 .091-.012c.38-.025.76-.024 1.14.002a3.62 3.62 0 0 1 1 .225c.536.22.903.603 1.101 1.148.112.328.18.665.2 1.011.028.436.018.87-.03 1.304a3.166 3.166 0 0 1-.237.878c-.225.487-.59.824-1.094 1.008a4.125 4.125 0 0 1-1.262.218 5.644 5.644 0 0 1-1.442-.109c-.875-.194-1.417-.729-1.62-1.602a5.025 5.025 0 0 1-.12-1.194c-.009-.427.036-.85.137-1.266.215-.816.733-1.322 1.555-1.517.191-.047.386-.079.581-.094z" style="fill:url(#a);fill-rule:evenodd;stroke:none;stroke-width:.352771" transform="translate(-16.35)"/><path d="m19.423 3.11.223-.007-.113.211z" style="fill:#2b3b6a;fill-opacity:1;fill-rule:nonzero;stroke:none;stroke-width:.352771" transform="translate(-16.35)"/><path d="M20.386 3.164c.822.134.937.34.937.34v.039c0 .006-.003.012-.005.022-.003.01-.086.18-.618.295zM18.318 3.832c-.186.499-.091.655-.086.669.004.005.007.012.014.015.012 0 .025-.003.037-.006 0 0 .337-.016.73-.583zM19.546 1.926c-.451-.498-.672-.47-.684-.467a.048.048 0 0 0-.022.007c-.015.006-.03.057-.03.057s-.096.277.285 1.014z" style="fill:#222856;fill-opacity:1;fill-rule:nonzero;stroke:none;stroke-width:.352771" transform="translate(-16.35)"/><path d="M19.935 3.842c.611.706.825.668.825.668a.208.208 0 0 0 .04.006c.008-.003.01-.01.013-.015.01-.014.171-.304-.414-1.334zM19.146 3.95c-1.26-.054-1.41-.37-1.417-.385 0-.007-.003-.013-.003-.02.003-.022.047-.063.047-.063s.334-.207.89-.318zM20.017 2.461c.328-.785.201-.967.201-.967l-.008-.032c-.007-.003-.013-.003-.022-.005-.017-.005-.36-.034-1.085.992z" style="fill:#24426c;fill-opacity:1;fill-rule:nonzero;stroke:none;stroke-width:.352771" transform="translate(-16.35)"/><path d="M19.53 4.43c-.446.49-.67.465-.683.465a.252.252 0 0 1-.054-.026l-.547-.353c.229-.051.525-.328.821-.682z" style="fill:#2072ae;fill-opacity:1;fill-rule:nonzero;stroke:none;stroke-width:.352771" transform="translate(-16.35)"/><path d="M18.347 2.544c-.199-.516-.101-.678-.095-.688a.166.166 0 0 1 .044-.037l.545-.35c-.048.226.077.576.264.98zM19.494 3.154c-.272.002-.547.02-.818.06.01.016.136.23.227.373.875 1.361 1.285 1.308 1.304 1.303a.229.229 0 0 0 .052-.024l.546-.35c-.372-.08-.889-.693-1.31-1.362Z" style="fill:#26b1ed;fill-opacity:1;fill-rule:nonzero;stroke:none;stroke-width:.352771" transform="translate(-16.35)"/><path d="M20.365 3.223c.426.06.798.157.958.32V2.89a.43.43 0 0 0-.005-.06c-.003-.01-.1-.184-.615-.295zM19.999 2.451c-.095-.002-.3-.012-.476-.012-1.605 0-1.784.375-1.791.391-.006.018-.006.042-.006.061v.655c.158-.159.5-.246.92-.309.27-.039.541-.06.814-.063h.152c-.003 0 .483-.72.387-.723z" style="fill:#0e88c8;fill-opacity:1;fill-rule:nonzero;stroke:none;stroke-width:.352771" transform="translate(-16.35)"/><path d="M19.526 3.205c.438-.664.762-1.361.681-1.739l.544.349c.016.01.03.023.044.038.01.016.223.373-.651 1.734-.064.102-.138.245-.16.255-.13-.127-.382-.522-.448-.615a.12.12 0 0 1-.01-.022z" style="fill:#2072ae;fill-opacity:1;fill-rule:nonzero;stroke:none;stroke-width:.352771" transform="translate(-16.35)"/></svg>