<svg xmlns="http://www.w3.org/2000/svg" xmlns:xlink="http://www.w3.org/1999/xlink" xml:space="preserve" id="svg154" width="24" height="24" fill="none" version="1.1"><defs id="defs152"><linearGradient id="linear-gradient" x1="110.25" x2="496.14" y1="213.3" y2="436.09" gradientUnits="userSpaceOnUse"><stop id="stop2-3" offset="0" style="stop-color:#aa5cc3"/><stop id="stop4-6" offset="1" style="stop-color:#00a4dc"/></linearGradient><linearGradient xlink:href="#linear-gradient" id="linearGradient848" x1="110.25" x2="496.14" y1="213.3" y2="436.09" gradientUnits="userSpaceOnUse"/><linearGradient xlink:href="#linear-gradient" id="linearGradient550" x1="110.25" x2="496.14" y1="213.3" y2="436.09" gradientUnits="userSpaceOnUse"/><radialGradient id="radialGradient2-2" cx="0" cy="0" r="1" fx="0" fy="0" gradientTransform="matrix(0 22 -22 0 12 1)" gradientUnits="userSpaceOnUse" spreadMethod="pad"><stop id="stop1-7-0" offset="0" style="stop-color:#595959;stop-opacity:1"/><stop id="stop2-4-6" offset="1" style="stop-color:#1a1a1a;stop-opacity:1"/></radialGradient><style id="current-color-scheme" type="text/css">.ColorScheme-Text{color:#31363b}.ColorScheme-Background{color:#eff0f1}.ColorScheme-Highlight{color:#3daee9}.ColorScheme-ViewText{color:#31363b}.ColorScheme-ViewBackground{color:#fcfcfc}.ColorScheme-ViewHover{color:#93cee9}.ColorScheme-ViewFocus{color:#3daee9}.ColorScheme-ButtonText{color:#31363b}.ColorScheme-ButtonBackground{color:#eff0f1}.ColorScheme-ButtonHover{color:#93cee9}.ColorScheme-ButtonFocus{color:#3daee9}</style></defs><path id="path2-4" d="M9.593 1.115c.12 0 .235-.016.344-.047a31.814 31.814 0 0 1 4.308.01 13.68 13.68 0 0 1 3.781.849c2.026.833 3.41 2.281 4.162 4.338.42 1.24.676 2.516.754 3.823a28.302 28.302 0 0 1-.114 4.928 11.967 11.967 0 0 1-.896 3.317c-.85 1.844-2.23 3.115-4.135 3.812-1.543.522-3.13.798-4.767.824a21.331 21.331 0 0 1-5.452-.412c-3.308-.734-5.354-2.754-6.125-6.057a18.992 18.992 0 0 1-.448-4.51 18.506 18.506 0 0 1 .516-4.787c.812-3.083 2.77-4.995 5.875-5.734a13.692 13.692 0 0 1 2.197-.354Z" style="fill:url(#radialGradient2-2);fill-rule:evenodd;stroke:none;stroke-width:1.33333"/><g id="icon-transparent" transform="matrix(.03033 0 0 .03033 4.238 4.237)"><path id="inner-shape" d="M256 201.6c-20.4 0-86.2 119.3-76.2 139.4 10 20.1 142.5 19.9 152.4 0 9.9-19.9-55.7-139.4-76.2-139.4z" style="fill:url(#linearGradient550)"/><path id="outer-shape" d="M256 23.3c-61.6 0-259.8 359.4-229.6 420.1 30.2 60.7 429.3 60 459.2 0 29.9-60-168-420.1-229.6-420.1Zm150.5 367.5c-19.6 39.3-281.1 39.8-300.9 0C85.8 351 215.7 115.5 256 115.5c40.3 0 170.1 235.9 150.5 275.3z" style="fill:url(#linearGradient848)"/></g></svg>