<svg xmlns="http://www.w3.org/2000/svg" width="24" height="24" fill="none"><path fill="url(#a)" fill-rule="evenodd" d="M9.596 1.114c.12 0 .234-.014.344-.046a31.637 31.637 0 0 1 4.307.011c1.301.102 2.561.384 3.78.847 2.025.834 3.412 2.28 4.158 4.34.427 1.24.679 2.514.756 3.824a27.94 27.94 0 0 1-.114 4.923 11.88 11.88 0 0 1-.894 3.32c-.85 1.843-2.229 3.114-4.135 3.813a15.624 15.624 0 0 1-4.765.825 21.413 21.413 0 0 1-5.453-.412c-3.312-.738-5.354-2.757-6.128-6.057a19.045 19.045 0 0 1-.447-4.511 18.49 18.49 0 0 1 .515-4.786c.812-3.086 2.77-4.998 5.877-5.736a13.953 13.953 0 0 1 2.2-.355Z" clip-rule="evenodd"/><path stroke="#FAFAFA" stroke-opacity=".125" d="M22.442 10.12v.002a27.445 27.445 0 0 1-.112 4.834 11.378 11.378 0 0 1-.853 3.174c-.795 1.716-2.069 2.891-3.845 3.545-1.494.504-3.03.769-4.608.796h-.017a20.914 20.914 0 0 1-5.322-.401c-1.58-.353-2.827-1.003-3.77-1.935-.942-.931-1.606-2.17-1.976-3.744A18.546 18.546 0 0 1 1.505 12V11.98a17.99 17.99 0 0 1 .5-4.653c.387-1.468 1.039-2.63 1.942-3.513.905-.883 2.085-1.507 3.565-1.859h.003a13.453 13.453 0 0 1 2.1-.341c.138 0 .274-.017.407-.05a31.137 31.137 0 0 1 4.188.014c1.251.097 2.462.369 3.633.813 1.89.78 3.173 2.119 3.87 4.041.412 1.196.655 2.424.729 3.687Z"/><path fill="#FAFAFA" fill-opacity=".125" fill-rule="evenodd" d="m10.145 2.001-.03.002c-.1.029-.205.043-.315.042-.195.016-.39.036-.583.06V4.58H5.503V3.274c-.334.2-.643.424-.929.673v.633h-.63a6.567 6.567 0 0 0-.667.928h1.297V9.22h-2.47c-.044.309-.08.618-.106.929h2.576v3.712H2.001c.027.31.062.62.106.928h2.467v3.715H3.286c.2.333.425.642.673.928h.615v.615c.286.248.595.472.929.672v-1.287h3.714v2.452c.309.043.618.079.928.107v-2.56h3.711V22c.312-.025.621-.06.929-.105v-2.463h3.712v1.295c.333-.198.643-.421.929-.67v-.625h.623c.246-.285.47-.594.67-.928h-1.293v-3.715h2.477l.003-.026c.034-.3.062-.601.085-.902h-2.565V10.15h2.578c-.02-.312-.052-.621-.095-.929h-2.483V5.508h1.306a6.416 6.416 0 0 0-.67-.928h-.636v-.635a6.562 6.562 0 0 0-.929-.667V4.58h-3.71V2.092A12.59 12.59 0 0 0 13.857 2v2.582h-3.713V2Zm-.93 3.507h-3.71L5.502 9.22h3.712V5.508Zm4.641 0h-3.71V9.22h3.71V5.508Zm4.643 0h-3.712V9.22h3.712V5.508Zm-9.284 4.64h-3.71l-.002 3.713h3.712V10.15Zm4.641 0h-3.71v3.713h3.71V10.15Zm4.643 0h-3.712v3.713h3.712V10.15ZM9.215 14.79h-3.71l-.002 3.715h3.712v-3.715Zm4.641 0h-3.71v3.715h3.71v-3.715Zm4.643 0h-3.712v3.715h3.712v-3.715Z" clip-rule="evenodd"/><path fill="url(#b)" fill-rule="evenodd" d="M13.545 5.012c-.985.074-2.015.455-2.956.925 1.881 0 2.822.94 3.763 1.881l1.88 1.886v.94l.942.944L20 8.764l-.94-.943h-.941l-1.884-1.882c-.761-.761-1.702-.999-2.69-.927Zm.807 2.81-3.763 3.766h-.94L4 17.234l1.881 1.881 5.649-5.644v-.94l3.762-3.767-.94-.941Z" clip-rule="evenodd"/><defs><radialGradient id="a" cx="0" cy="0" r="1" gradientTransform="matrix(0 22 -22 0 12 1)" gradientUnits="userSpaceOnUse"><stop stop-color="#9BDCFF"/><stop offset="1" stop-color="#006AE8"/></radialGradient><radialGradient id="b" cx="0" cy="0" r="1" gradientTransform="matrix(0 22 -24.9377 0 12 1)" gradientUnits="userSpaceOnUse"><stop stop-color="#777"/><stop offset="1" stop-color="#222"/></radialGradient></defs></svg>