<svg xmlns="http://www.w3.org/2000/svg" xmlns:xlink="http://www.w3.org/1999/xlink" xml:space="preserve" id="svg5" width="24" height="24" version="1.1" viewBox="0 0 6.35 6.35"><defs id="defs2"><linearGradient id="linearGradient26693"><stop id="stop26689" offset="0" style="stop-color:#004db0;stop-opacity:1"/><stop id="stop26691" offset="1" style="stop-color:#1e94f7;stop-opacity:1"/></linearGradient><linearGradient id="linearGradient24237"><stop id="stop24233" offset="0" style="stop-color:#04a;stop-opacity:1"/><stop id="stop24235" offset="1" style="stop-color:#0cf;stop-opacity:1"/></linearGradient><linearGradient xlink:href="#linearGradient26693" id="linearGradient24239" x1="249.801" x2="236.636" y1="624.735" y2="-340.75" gradientUnits="userSpaceOnUse"/><linearGradient xlink:href="#linearGradient24237" id="linearGradient24380" x1="249.801" x2="236.636" y1="624.735" y2="-340.75" gradientUnits="userSpaceOnUse"/><linearGradient xlink:href="#linearGradient24237" id="linearGradient24382" x1="249.801" x2="236.636" y1="624.735" y2="-340.75" gradientUnits="userSpaceOnUse"/><linearGradient xlink:href="#linearGradient24237" id="linearGradient24384" x1="249.801" x2="236.636" y1="624.735" y2="-340.75" gradientUnits="userSpaceOnUse"/><linearGradient id="linearGradient26" x1="0" x2="1" y1="0" y2="0" gradientTransform="scale(-6205.44 6205.44) rotate(45 -.454 -.895)" gradientUnits="userSpaceOnUse" spreadMethod="pad"><stop id="stop22" offset="0" style="stop-opacity:1;stop-color:#004caf"/><stop id="stop24" offset="1" style="stop-opacity:1;stop-color:#1f95f8"/></linearGradient><style id="current-color-scheme" type="text/css">.ColorScheme-Text{color:#31363b}.ColorScheme-Background{color:#eff0f1}.ColorScheme-Highlight{color:#3daee9}.ColorScheme-ViewText{color:#31363b}.ColorScheme-ViewBackground{color:#fcfcfc}.ColorScheme-ViewHover{color:#93cee9}.ColorScheme-ViewFocus{color:#3daee9}.ColorScheme-ButtonText{color:#31363b}.ColorScheme-ButtonBackground{color:#eff0f1}.ColorScheme-ButtonHover{color:#93cee9}.ColorScheme-ButtonFocus{color:#3daee9}</style></defs><g id="g244" style="fill:url(#linearGradient24239);fill-opacity:1" transform="translate(.265 .265) scale(.01304)"><g id="g246" style="fill:url(#linearGradient24384);fill-opacity:1"><g id="g252" style="fill:url(#linearGradient24382);fill-opacity:1"><path id="path260" d="M174.406 2.305c2.434.027 4.758-.285 6.973-.93a641.61 641.61 0 0 1 87.387.234c26.41 2.055 51.976 7.786 76.699 17.188 41.097 16.922 69.219 46.269 84.363 88.043 8.66 25.152 13.774 51.015 15.34 77.59a566.972 566.972 0 0 1-2.324 99.89c-2.782 23.352-8.824 45.805-18.129 67.368-17.258 37.382-45.223 63.167-83.899 77.355-31.343 10.59-63.57 16.164-96.687 16.723-37.246 1.937-74.121-.848-110.625-8.36C66.312 422.438 24.867 381.477 9.164 314.52a386.313 386.313 0 0 1-9.066-91.528c-.743-32.832 2.742-65.199 10.461-97.101C27.02 63.285 66.762 24.488 129.785 9.508a282.687 282.687 0 0 1 44.621-7.203Z" style="fill:url(#linearGradient24380);fill-opacity:1;fill-rule:evenodd;stroke:none"/></g></g></g><path id="path30" d="M4.757 1.058h-1.57a.027.027 0 0 0-.027.027v.499c0 .017.013.03.03.03h.215c.087 0 .158.067.166.152v2.36c0 .02 0 .038-.002.056l-.001.008a.394.394 0 0 1-.005.032l-.004.018-.006.023a.36.36 0 0 1-.068.125l-.004.004a.363.363 0 0 1-.065.06.498.498 0 0 1-.338.077.823.823 0 0 1-.471-.215.698.698 0 0 1-.237-.429.386.386 0 0 1 .117-.34l.01-.009a.44.44 0 0 1 .245-.096h.003l.031-.002h.032c.015 0 .03 0 .046.002h.01a.775.775 0 0 1 .264.078c.025.014.03-.001.03-.011v-.751a.046.046 0 0 0-.035-.045c-.446-.098-.883.004-1.191.285-.27.245-.4.599-.358.97.038.331.208.65.478.896a1.648 1.648 0 0 0 1.09.43c.331 0 .638-.114.865-.32.215-.196.344-.464.363-.757L4.37 2.3v-.522a.167.167 0 0 1 .167-.163h.216a.03.03 0 0 0 .03-.03v-.499a.027.027 0 0 0-.027-.027" style="fill:#fff;fill-opacity:1;fill-rule:nonzero;stroke:none;stroke-width:.00112875"/></svg>