<svg xmlns="http://www.w3.org/2000/svg" xml:space="preserve" width="24" height="24" viewBox="0 0 6.35 6.35"><defs><radialGradient id="a" cx="0" cy="0" r="1" fx="0" fy="0" gradientTransform="matrix(0 16.5 -16.5 0 9 .75)" gradientUnits="userSpaceOnUse" spreadMethod="pad"><stop offset="0" style="stop-color:#fff;stop-opacity:1"/><stop offset="1" style="stop-color:#c2c2c2;stop-opacity:1"/></radialGradient></defs><path d="M7.195.836c.09 0 .176-.012.258-.035a23.86 23.86 0 0 1 3.231.008 10.26 10.26 0 0 1 2.836.636c1.519.625 2.558 1.711 3.121 3.254.316.93.507 1.887.566 2.867a21.227 21.227 0 0 1-.086 3.696 8.976 8.976 0 0 1-.672 2.488c-.637 1.383-1.672 2.336-3.101 2.859a11.693 11.693 0 0 1-3.575.618 15.998 15.998 0 0 1-4.089-.309c-2.481-.551-4.016-2.066-4.594-4.543a14.244 14.244 0 0 1-.336-3.383c-.027-1.211.101-2.41.387-3.59.609-2.312 2.078-3.746 4.406-4.3A10.27 10.27 0 0 1 7.195.836Z" style="fill:url(#a);fill-rule:evenodd;stroke:none;stroke-width:.99975;stroke-dasharray:none" transform="scale(.35277)"/><g stroke-width="1.304" transform="matrix(.06614 0 0 .06614 -.176 1.252)"><circle cx="61.748" cy="14.068" r="1.956" fill="#767677"/><circle cx="41.531" cy="43.416" r="2.609" fill="#9e9e9e"/><circle cx="39.574" cy="15.372" r="1.956" fill="#616262"/><path fill="#f37726" d="M50.661 14.72c-6.522 0-11.739 5.217-13.043 9.13 3.913-3.913 9.13-5.217 13.043-5.217 3.913 0 9.13 1.304 13.043 5.217-1.304-3.913-6.522-9.13-13.043-9.13ZM37.618 32.981c1.304 3.913 6.522 9.13 13.043 9.13 6.522 0 11.739-5.217 13.043-9.13-3.913 3.913-9.13 5.217-13.043 5.217-3.913 0-9.13-1.304-13.043-5.217z"/></g></svg>