<svg xmlns="http://www.w3.org/2000/svg" xmlns:xlink="http://www.w3.org/1999/xlink" width="24" height="24"><defs><linearGradient id="b" x1="389.57" x2="427.57" gradientTransform="rotate(45 819.587 -190.314)" gradientUnits="userSpaceOnUse"><stop offset="0" stop-color="#fcfcfc"/><stop offset="1" stop-color="#eff0f1"/></linearGradient><linearGradient id="a" x1="394.57" x2="422.73" y1="509.8" y2="537.95" gradientTransform="translate(-384.57 -499.8)" gradientUnits="userSpaceOnUse"><stop offset="0" stop-color="#e5e7e8"/><stop offset="1" stop-color="#dcdee0"/></linearGradient><linearGradient xlink:href="#a" id="d" x1="394.57" x2="422.73" y1="509.8" y2="537.95" gradientTransform="translate(-384.57 -499.8)" gradientUnits="userSpaceOnUse"/><linearGradient xlink:href="#b" id="e" x1="389.57" x2="427.57" gradientTransform="rotate(45 819.587 -190.314)" gradientUnits="userSpaceOnUse"/><radialGradient id="c" cx="0" cy="0" r="1" fx="0" fy="0" gradientTransform="matrix(0 22 -22 0 12 1)" gradientUnits="userSpaceOnUse" spreadMethod="pad"><stop offset="0" style="stop-opacity:1;stop-color:#a4a4a4"/><stop offset="1" style="stop-opacity:1;stop-color:#626262"/></radialGradient></defs><path d="M9.593 1.115c.12 0 .235-.016.344-.047a31.814 31.814 0 0 1 4.308.01 13.68 13.68 0 0 1 3.781.849c2.026.833 3.41 2.281 4.162 4.338.42 1.24.676 2.516.754 3.823a28.303 28.303 0 0 1-.114 4.928 11.968 11.968 0 0 1-.896 3.317c-.85 1.844-2.23 3.115-4.135 3.812-1.543.522-3.13.798-4.767.824a21.33 21.33 0 0 1-5.452-.412c-3.308-.734-5.354-2.754-6.125-6.057a18.991 18.991 0 0 1-.448-4.51c-.036-1.62.135-3.214.516-4.787.812-3.083 2.77-4.995 5.875-5.734a13.692 13.692 0 0 1 2.197-.354Z" style="fill:url(#c);fill-rule:evenodd;stroke:none;stroke-width:1.33333"/><path fill="#f9f9f9" d="M12 9.426a2.563 2.563 0 0 0-1.818.756 2.567 2.567 0 0 0 0 3.637 2.566 2.566 0 0 0 3.637 0 2.566 2.566 0 0 0 0-3.637 2.564 2.564 0 0 0-1.818-.756M12 10.88a1.104 1.104 0 0 1 1.104 1.104A1.104 1.104 0 0 1 12 13.089a1.104 1.104 0 0 1-1.105-1.104A1.104 1.104 0 0 1 12 10.88" opacity=".4" style="stroke-width:.999999"/><path fill="#e04b4e" fill-rule="evenodd" d="M12 4.645c-3.425.14-3.65.537-4.07.75-.566.287-1.26.448-1.188-.015a.572.572 0 0 0-.283.842c.235.42-.234.908-.46.643-.432-.505-1.49-.109-1.336.538.152-.152.86-.485.762.258-.099.743-.147 1.312.608 1.819.755.506 3.685-.006 3.685-.006z" style="stroke-width:.999999"/><g fill="#fff" style="fill:none"><path d="M19.355 12A7.336 7.336 0 0 0 12 4.645 7.337 7.337 0 0 0 4.645 12 7.337 7.337 0 0 0 12 19.355 7.337 7.337 0 0 0 19.355 12zm-4.665 0A2.678 2.678 0 0 1 12 14.692 2.679 2.679 0 0 1 9.307 12c0-1.48 1.091-2.69 2.692-2.69 1.6 0 2.691 1.24 2.691 2.69z" opacity=".75"/><path d="M12 8.32A3.68 3.68 0 1 0 12 15.68 3.68 3.68 0 0 0 12 8.32zm0 1.84a1.841 1.841 0 1 1 0 3.681 1.841 1.841 0 0 1-.002-3.682z" opacity=".35"/></g><g stroke-opacity=".55" stroke-width="23.349"><path fill="url(#a)" d="M24 4A19.953 19.953 0 0 0 4.004 23.846l1.123.023 4.684 12.02 10.166 5.922 11.4-.707 7.779-5.48 3.623-12.02-2.121-8.662-6.189-7.631-1.563-1.156-.266-.186a19.958 19.958 0 0 0-8.641-1.971m0 5c8.31 0 15 6.69 15 15 0 8.31-6.69 15-15 15-8.31 0-15-6.69-15-15 0-8.31 6.69-15 15-15" style="fill:url(#d);stroke-width:23.3495" transform="matrix(.36775 0 0 .36775 3.174 3.174)"/><path fill="url(#b)" d="M24 4.982a18.944 18.944 0 0 0-13.436 5.582 18.96 18.96 0 0 0 0 26.871 18.96 18.96 0 0 0 26.871 0 18.96 18.96 0 0 0 0-26.871 18.943 18.943 0 0 0-13.436-5.582m0 13.02c1.532 0 3.064.588 4.238 1.762a5.981 5.981 0 0 1 0 8.477 5.981 5.981 0 0 1-8.477 0 5.981 5.981 0 0 1 0-8.477 5.976 5.976 0 0 1 4.238-1.762" style="fill:url(#e);stroke-width:23.3495" transform="matrix(.36775 0 0 .36775 3.174 3.174)"/><path fill="#e6e6e6" d="M32.272 17.149a14.849 14.849 0 0 0-1.052.037 14.849 14.849 0 0 0-1.47.179 14.849 14.849 0 0 0-1.45.324 14.849 14.849 0 0 0-1.409.47 14.849 14.849 0 0 0-1.355.603 14.849 14.849 0 0 0-1.286.741 14.849 14.849 0 0 0-1.208.862 14.849 14.849 0 0 0-1.115.981 14.849 14.849 0 0 0-1.01 1.086 14.849 14.849 0 0 0-.9 1.181 14.849 14.849 0 0 0-.774 1.266 14.849 14.849 0 0 0-.646 1.337 14.849 14.849 0 0 0-.512 1.394 14.849 14.849 0 0 0-.366 1.437 14.849 14.849 0 0 0-.222 1.466 14.849 14.849 0 0 0-.073 1.485 14.849 14.849 0 0 0 .036 1.052 14.849 14.849 0 0 0 .18 1.47 14.849 14.849 0 0 0 .327 1.45 14.849 14.849 0 0 0 .466 1.409 14.849 14.849 0 0 0 .604 1.355 14.849 14.849 0 0 0 .741 1.287 14.849 14.849 0 0 0 .865 1.207 14.849 14.849 0 0 0 .978 1.115 14.849 14.849 0 0 0 1.086 1.01 14.849 14.849 0 0 0 1.181.9 14.849 14.849 0 0 0 1.266.774 14.849 14.849 0 0 0 1.337.646 14.849 14.849 0 0 0 1.394.512 14.849 14.849 0 0 0 1.437.366 14.849 14.849 0 0 0 1.466.222 14.849 14.849 0 0 0 1.484.073 14.849 14.849 0 0 0 1.052-.036 14.849 14.849 0 0 0 1.471-.18 14.849 14.849 0 0 0 1.45-.327 14.849 14.849 0 0 0 1.408-.466 14.849 14.849 0 0 0 1.356-.604 14.849 14.849 0 0 0 1.286-.74 14.849 14.849 0 0 0 1.208-.866 14.849 14.849 0 0 0 1.115-.978 14.849 14.849 0 0 0 1.01-1.086 14.849 14.849 0 0 0 .899-1.181 14.849 14.849 0 0 0 .775-1.266 14.849 14.849 0 0 0 .646-1.337 14.849 14.849 0 0 0 .511-1.394 14.849 14.849 0 0 0 .367-1.437 14.849 14.849 0 0 0 .221-1.466 14.849 14.849 0 0 0 .074-1.484 14.849 14.849 0 0 0-.037-1.052 14.849 14.849 0 0 0-.179-1.471 14.849 14.849 0 0 0-.327-1.45 14.849 14.849 0 0 0-.467-1.408 14.849 14.849 0 0 0-.603-1.356 14.849 14.849 0 0 0-.741-1.286 14.849 14.849 0 0 0-.862-1.208 14.849 14.849 0 0 0-.981-1.115 14.849 14.849 0 0 0-1.086-1.01 14.849 14.849 0 0 0-1.182-.899 14.849 14.849 0 0 0-1.265-.775 14.849 14.849 0 0 0-1.337-.646 14.849 14.849 0 0 0-1.395-.511 14.849 14.849 0 0 0-1.437-.367 14.849 14.849 0 0 0-1.465-.221 14.849 14.849 0 0 0-1.485-.074m-.258 6.747c2.07 0 4.136.79 5.729 2.375a8.082 8.082 0 0 1 0 11.45 8.078 8.078 0 0 1-11.453 0 8.08 8.08 0 0 1 0-11.45 8.064 8.064 0 0 1 5.724-2.375" style="stroke-width:23.3495" transform="matrix(.27243 0 0 .27243 3.278 3.283)"/></g><path fill="#ed5d44" fill-rule="evenodd" d="M15.114 5.34c.23.21.529.515.713.845.322.575.276 1.575-.712 1.759-.989.183-1.027-.153-1.023-.552-.526.072-.76 1.237.16 1.643.782.345 1.07.208 2.54.115 1.471-.092 1.644 1.701.954 1.977s-.952-.216-.908-.483c-.552.216-.62.818-.344 1.104 2.15 2.228 1.118 3.949.528 4.125-.731.219-1.247-.215-.873-.792.305-.472.041-1.249-.329-1.524-.37-.275-1.088-.21-1.395-.005.443.167 1.092.425.92 1-.134.444-.57.723-1.115.712-1.243-.024-.85-1.147-.678-1.275-.668-.083-1.115 1.136-.678 1.551.429.409 1.031.638.666 1.264-.382.658-.919 1.012-1.838.828-.92-.184-1.425-.77-1.31-1.31.114-.54.383-.613.85-.621-.291-.618-1.724-.62-1.7.448.011.552-.913.643-1.3.023-.436-.7-.067-1 .426-.885.033-.78-.632-.402-.805-1.264-.172-.862 1.264-1.517 1.264-1.517l-4.469-.089a7.337 7.337 0 0 0 7.343 6.939A7.339 7.339 0 0 0 19.356 12a7.328 7.328 0 0 0-4.241-6.66"/><g stroke-linejoin="round" stroke-width="8.156" color="#000" transform="matrix(.36775 0 0 .36775 -138.25 -180.626)"><path fill="#3f4144" d="M388.94 519.85a21.239 21.239 0 0 0-.373 3.943c0 1.349.132 2.666.373 3.943l11.627-1.943c1.095-.168 2-.892 2-2s-.905-1.832-2-2z" style="stroke-width:8.15637"/><circle cx="400.57" cy="523.8" r="1" fill="#27ae60" style="stroke-width:8.15637"/></g><path fill="#b3b3b3" d="M13.471 12c0 .376-.144.751-.432 1.04A1.464 1.464 0 0 1 12 13.47v.368a1.83 1.83 0 0 0 1.3-.54A1.832 1.832 0 0 0 13.84 12z" style="stroke-width:.999999"/></svg>