<svg xmlns="http://www.w3.org/2000/svg" xmlns:xlink="http://www.w3.org/1999/xlink" width="24" height="24"><defs><linearGradient xlink:href="#a" id="b" x1="53.58" x2="52.429" y1="95.511" y2=".909" gradientTransform="matrix(.24444 0 0 .24444 -.222 -.222)" gradientUnits="userSpaceOnUse"/><linearGradient id="a"><stop offset="0" style="stop-color:#1a1a1a;stop-opacity:1"/><stop offset="1" style="stop-color:#999;stop-opacity:1"/></linearGradient></defs><path d="M12 1C2 1 1 6 1 12c0 8 3 11 11 11s11-3 11-11c0-6-1-11-11-11Z" style="font-variation-settings:normal;display:inline;vector-effect:none;fill:url(#b);fill-opacity:1;stroke-width:1.11627;stroke-linecap:butt;stroke-linejoin:miter;stroke-miterlimit:4;stroke-dasharray:none;stroke-dashoffset:0;stroke-opacity:1;-inkscape-stroke:none;stop-color:#000"/><g style="stroke-width:2.294"><path fill="#ff4d5b" d="M4.678 20.832c-5.305 0-9.617 4.218-9.617 9.396 0 4.978 3.975 9.004 8.999 9.308 0-5.63 4.504-10.223 10.102-10.72-.695-4.516-4.671-7.984-9.485-7.984m0 6.441c1.654 0 3 1.34 3 2.956 0 1.616-1.346 2.912-3 2.912s-3-1.296-3-2.912c0-1.616 1.346-2.956 3-2.956m0 .618c-1.328 0-2.427 1.042-2.427 2.338 0 1.301 1.097 2.337 2.427 2.337 1.328 0 2.383-1.036 2.383-2.337 0-1.296-1.053-2.338-2.383-2.338m0 .883c.827 0 1.5.645 1.5 1.455s-.667 1.455-1.5 1.455c-.827 0-1.5-.645-1.5-1.455s.673-1.455 1.5-1.455" style="stroke-width:2.294" transform="matrix(.43592 0 0 .43592 6.769 -1.949)"/><path fill="#4ca3e5" d="M15.134 30.178c-5.305 0-9.606 4.197-9.606 9.38 0 5.184 4.301 9.38 9.606 9.38 5.31 0 9.612-4.196 9.612-9.38 0-5.183-4.302-9.38-9.612-9.38m0 6.451c1.66 0 3.005 1.313 3.005 2.928 0 1.616-1.345 2.933-3.005 2.933-1.654 0-3-1.318-3-2.933 0-1.617 1.346-2.928 3-2.928m0 .585c-1.328 0-2.398 1.041-2.398 2.343 0 1.301 1.07 2.349 2.398 2.349 1.334 0 2.404-1.048 2.404-2.35 0-1.3-1.07-2.342-2.404-2.342m0 .876c.833 0 1.505.657 1.505 1.467s-.674 1.467-1.505 1.467c-.827 0-1.5-.657-1.5-1.467s.673-1.467 1.5-1.467" style="stroke-width:2.294" transform="matrix(.43592 0 0 .43592 6.769 -1.949)"/><path fill="#f2f2f2" fill-rule="evenodd" d="M9.143 15.058c-8.14.008-14.897 6.283-15.494 14.389.586-5.766 5.447-10.154 11.253-10.154 6.246 0 11.335 5.056 11.335 11.293v2.823h-5.675l9.896 9.881 9.895-9.88h-5.646v-2.824c0-8.576-6.972-15.528-15.556-15.528" style="stroke-width:2.294" transform="matrix(.43592 0 0 .43592 6.769 -1.949)"/></g></svg>