<svg xmlns="http://www.w3.org/2000/svg" xmlns:xlink="http://www.w3.org/1999/xlink" width="24" height="24"><defs><radialGradient id="a" cx="0" cy="0" r="1" fx="0" fy="0" gradientTransform="matrix(0 22 -22 0 12 1)" gradientUnits="userSpaceOnUse" spreadMethod="pad"><stop offset="0" style="stop-color:#f4f1e8;stop-opacity:1"/><stop offset="1" style="stop-color:#f8fafa;stop-opacity:.72941178"/></radialGradient><radialGradient id="b" cx="0" cy="0" r="1" fx="0" fy="0" gradientTransform="matrix(0 22 -22 0 12 1)" gradientUnits="userSpaceOnUse" spreadMethod="pad"><stop offset="0" style="stop-color:#f4f1e8;stop-opacity:1"/><stop offset="1" style="stop-color:#e3dfd6;stop-opacity:1"/></radialGradient><radialGradient xlink:href="#a" id="c" cx="0" cy="0" r="1" fx="0" fy="0" gradientTransform="matrix(0 22 -22 0 12 1)" gradientUnits="userSpaceOnUse" spreadMethod="pad"/></defs><path d="M12 1C2 1 1 6 1 12c0 8 3 11 11 11s11-3 11-11c0-6-1-11-11-11Z" style="font-variation-settings:normal;display:inline;vector-effect:none;fill:#44484c;fill-opacity:1;stroke-width:1.11627;stroke-linecap:butt;stroke-linejoin:miter;stroke-miterlimit:4;stroke-dasharray:none;stroke-dashoffset:0;stroke-opacity:1;-inkscape-stroke:none;stop-color:#000"/><path d="M12 1.975C2.886 1.975 1.975 6.532 1.975 12c0 7.29 2.734 10.025 10.025 10.025 7.29 0 10.025-2.734 10.025-10.025 0-5.468-.911-10.025-10.025-10.025Z" style="fill:url(#b);fill-rule:evenodd;stroke:none;stroke-width:1.33333"/><path fill="#bdb49e" d="M7.652 6.481v1.087h.004l2.496 4.32-2.5 4.33v1.133h8.696v-2.174H15.26v1.087H8.88l2.526-4.375v-.001l-2.495-4.32h5.262v.544h1.087v-1.63H8.285Z" style="stroke-width:.999996"/><path d="m21.855 14.814-1.824.05c-2.171.058-3.875 1.77-3.82 3.84l.076 2.874c3.355-.845 5.059-2.947 5.568-6.764z" style="fill:url(#c);fill-rule:evenodd;stroke:none;stroke-width:1.33333"/><path d="M5.664 3.186c-.185.097-.36.199-.527.306v16.979c.169.115.343.225.527.326z" style="fill:#da4453;fill-opacity:.4;fill-rule:evenodd;stroke:none;stroke-width:1.33333"/><path d="M4.455 3.996a5.85 5.85 0 0 0-.54.527h16.17a5.85 5.85 0 0 0-.54-.527Z" style="fill:#007bda;fill-opacity:.4;fill-rule:evenodd;stroke:none;stroke-width:1.33333"/></svg>