<svg xmlns="http://www.w3.org/2000/svg" width="24" height="24"><defs><radialGradient id="a" cx="0" cy="0" r="1" gradientTransform="rotate(155.136 9.533 3.827) scale(20.7114)" gradientUnits="userSpaceOnUse"><stop stop-color="#777"/><stop offset="1" stop-color="#333"/></radialGradient></defs><path d="M12 1C2 1 1 6 1 12c0 8 3 11 11 11s11-3 11-11c0-6-1-11-11-11Z" style="font-variation-settings:normal;display:inline;vector-effect:none;fill:#a7a7a7;fill-opacity:1;stroke-width:1.11627;stroke-linecap:butt;stroke-linejoin:miter;stroke-miterlimit:4;stroke-dasharray:none;stroke-dashoffset:0;stroke-opacity:1;-inkscape-stroke:none;stop-color:#000"/><path d="M12 1.975C2.886 1.975 1.975 6.532 1.975 12c0 7.29 2.734 10.025 10.025 10.025 7.29 0 10.025-2.734 10.025-10.025 0-5.468-.911-10.025-10.025-10.025Z" style="fill:url(#a)"/><path fill="#fff" d="m16.294 19.715-3.265-5.616v5.616h-1.672v-8.123h1.716l3.22 5.526v-5.526h1.672v8.123h-1.671m7.873-11.838V16h-1.672V7.877h1.672m6.947 7.429v6.73h3.888v1.393h-5.56v-8.123h1.672m10.41 4.587a4.788 4.788 0 0 1-1.727 0 3.837 3.837 0 0 1-.859-.279 2.723 2.723 0 0 1-.757-.512 2.402 2.402 0 0 1-.535-.825 3.274 3.274 0 0 1-.2-1.18v-5.505h1.67v5.504c0 .966.517 1.449 1.55 1.449 1.032 0 1.548-.483 1.548-1.449v-5.504h1.672v5.504c0 .438-.07.832-.212 1.181a2.281 2.281 0 0 1-.524.825 2.676 2.676 0 0 1-.768.512c-.29.134-.576.227-.858.279m9.951-8.038L54.083 16h-1.984l-1.56-2.819-1.548 2.82h-1.94l2.564-4.09-2.474-4.034h1.983l1.427 2.675 1.493-2.675h1.939l-2.508 3.978" style="stroke-width:2.8484" transform="matrix(.35107 0 0 .35107 .513 6.505)"/></svg>