<svg xmlns="http://www.w3.org/2000/svg" xml:space="preserve" width="24" height="24"><defs><linearGradient id="a"><stop offset="0" stop-color="#2a7fff"/><stop offset="1" stop-color="#0cf"/></linearGradient><linearGradient id="b"><stop offset="0" stop-color="#fff"/><stop offset="1" stop-color="#b3b3b3"/></linearGradient><linearGradient id="c" x1="12" x2="12" y1="1" y2="12" gradientTransform="translate(-98 -16)" gradientUnits="userSpaceOnUse" spreadMethod="pad"><stop offset="0" style="stop-opacity:1;stop-color:#0cf"/><stop offset="1" style="stop-opacity:1;stop-color:#2881ff"/></linearGradient><linearGradient id="d" x1="61.163" x2="64.928" y1="105.11" y2="109.045" gradientTransform="matrix(.71732 0 0 .73332 -135.283 -87.933)" gradientUnits="userSpaceOnUse" spreadMethod="pad"><stop offset="0" style="stop-opacity:1;stop-color:#e6e6e6"/><stop offset="1" style="stop-opacity:1;stop-color:#b3b3b3"/></linearGradient><linearGradient id="e" x1="77.401" x2="68.67" y1="106.368" y2="120.358" gradientTransform="matrix(.71732 0 0 .73332 -135.283 -87.933)" gradientUnits="userSpaceOnUse" spreadMethod="pad"><stop offset="0" style="stop-opacity:1;stop-color:#fff"/><stop offset="1" style="stop-opacity:1;stop-color:#b3b3b3"/></linearGradient><linearGradient id="f" x1="68.229" x2="68.164" y1="112.732" y2="118.555" gradientTransform="matrix(.71732 0 0 .73332 -135.283 -87.933)" gradientUnits="userSpaceOnUse" spreadMethod="pad"><stop offset="0" style="stop-opacity:1;stop-color:#b3b3b3"/><stop offset="1" style="stop-opacity:1;stop-color:#fff"/></linearGradient><linearGradient id="g" x1="63.367" x2="71.136" y1="106.865" y2="104.89" gradientTransform="matrix(.71732 0 0 .73332 -135.283 -87.933)" gradientUnits="userSpaceOnUse" spreadMethod="pad"><stop offset="0" style="stop-opacity:1;stop-color:#fff"/><stop offset="1" style="stop-opacity:1;stop-color:#b3b3b3"/></linearGradient><linearGradient id="h" x1="66.951" x2="66.336" y1="104.461" y2="109.668" gradientTransform="matrix(.71732 0 0 .73332 -135.283 -87.933)" gradientUnits="userSpaceOnUse" spreadMethod="pad"><stop offset="0" style="stop-opacity:1;stop-color:#ccc"/><stop offset="1" style="stop-opacity:1;stop-color:#b3b3b3"/></linearGradient><linearGradient id="i" x1="62.961" x2="77.488" y1="115.883" y2="107.314" gradientTransform="matrix(.71732 0 0 .73332 -135.283 -87.933)" gradientUnits="userSpaceOnUse" spreadMethod="pad"><stop offset="0" style="stop-opacity:1;stop-color:#e6e6e6"/><stop offset="1" style="stop-opacity:1;stop-color:#fff"/></linearGradient></defs><path d="M-88.407-14.886c.12 0 .234-.016.344-.046a31.813 31.813 0 0 1 4.308.01 13.68 13.68 0 0 1 3.781.848c2.025.834 3.41 2.282 4.161 4.34.422 1.24.676 2.515.755 3.822a28.303 28.303 0 0 1-.115 4.928 11.968 11.968 0 0 1-.896 3.317c-.849 1.844-2.229 3.115-4.134 3.812-1.543.521-3.131.797-4.767.824a21.331 21.331 0 0 1-5.452-.412C-93.73 5.822-95.777 3.802-96.547.5a18.991 18.991 0 0 1-.448-4.51 18.502 18.502 0 0 1 .516-4.788c.812-3.082 2.77-4.994 5.874-5.733a13.692 13.692 0 0 1 2.198-.355z" style="fill:url(#c);fill-rule:evenodd;stroke:none;stroke-width:1.33333" transform="translate(98 16)"/><path d="M-88.35-7.328c-.568-1.89-3.79-1.432-4.328-1.475.604-.296 1.15-.547 2.396-1.448 2.401-1.739 4.943-1.359 6.213-.67-3.478.134-2.817 2.03-2.301 3.025-.657.193-1.683.48-1.98.568z" style="fill:url(#d);stroke:none;stroke-width:1.33333" transform="translate(98 16)"/><path d="M-79.76-9.932c-1.257 1.656-3.34 3.89-5.615 4.186-2.282.292-4.454-.03-4.959 1.667-.464 1.563 1.167 3.021 2.86 2.672 1.807-.38 1.416-2.427.427-3.817.749-.047.609-.036 1.885-.099 1.896 1.62 2.525 2.077 5.839 4.437-2.552-.265-3.484-.51-5.314-1.609.475 1.192 1.491 3.896 1.71 5.995-1.058-1.522-1.459-2.079-3.1-3.172-2.094-1.402-3.796-1.454-4.776-3.516-.984-2.067.318-3.552 2.641-4.192 3.323-.923 6.183-1.792 8.401-2.552z" style="fill:url(#e);stroke:none;stroke-width:1.33333" transform="translate(98 16)"/><path d="M-87.047-5.224c.749-.047.609-.036 1.885-.099 1.896 1.62 2.525 2.077 5.839 4.437-3.328-.24-5.85-1.218-7.724-4.338z" style="fill:url(#f);stroke:none;stroke-width:1.33333" transform="translate(98 16)"/><path d="M-92.678-8.803c.604-.296 1.15-.547 2.396-1.448 2.401-1.739 4.943-1.359 6.213-.67-3.478.134-3.03.827-3.041 1.369-2.312-.484-2.99.177-5.568.75z" style="fill:url(#g);stroke:none;stroke-width:1.33333" transform="translate(98 16)"/><path d="M-84.069-10.922c-3.478.135-2.817 2.031-2.301 3.026-.407.12-.85.256-1.39.396-2.194-3.902 1.905-4.407 3.691-3.422z" style="fill:url(#h);stroke:none;stroke-width:1.33333" transform="translate(98 16)"/><path d="M-90.178-2.219c-1.703-2.193-1.39-4.203 1.948-5.245 3.287-1.03 6.25-1.708 8.47-2.468-5.99 2.281-13.486 3.806-10.418 7.713z" style="fill:url(#i);stroke:none;stroke-width:1.33333" transform="translate(98 16)"/></svg>