<svg xmlns="http://www.w3.org/2000/svg" xmlns:xlink="http://www.w3.org/1999/xlink" xml:space="preserve" width="24" height="24" viewBox="0 0 6.35 6.35"><defs><radialGradient xlink:href="#a" id="n" cx="24.75" cy="26" r="2.5" gradientTransform="translate(1.331 3.408) scale(.26458)" gradientUnits="userSpaceOnUse"/><radialGradient xlink:href="#b" id="l" cx="26.75" cy="25.25" r="2.5" gradientTransform="translate(1.331 3.408) scale(.26458)" gradientUnits="userSpaceOnUse"/><radialGradient xlink:href="#b" id="j" cx="22.8" cy="25" r="2.5" gradientTransform="translate(1.331 3.408) scale(.26458)" gradientUnits="userSpaceOnUse"/><radialGradient xlink:href="#a" id="h" cx="27" cy="22.75" r="2.5" gradientTransform="translate(1.331 3.408) scale(.26458)" gradientUnits="userSpaceOnUse"/><radialGradient xlink:href="#b" id="f" cx="24.75" cy="22" r="2.5" gradientTransform="translate(1.331 3.408) scale(.26458)" gradientUnits="userSpaceOnUse"/><radialGradient xlink:href="#a" id="d" cx="23" cy="22.5" r="2.5" gradientTransform="translate(1.331 3.408) scale(.26458)" gradientUnits="userSpaceOnUse"/><radialGradient id="c" cx="0" cy="0" r="1" gradientTransform="rotate(90 1.455 1.72) scale(5.82072)" gradientUnits="userSpaceOnUse"><stop stop-color="#777"/><stop offset="1" stop-color="#333"/></radialGradient><radialGradient xlink:href="#a" id="e" cx="23" cy="22.5" r="2.5" gradientTransform="translate(1.331 3.408) scale(.26458)" gradientUnits="userSpaceOnUse"/><radialGradient xlink:href="#b" id="g" cx="24.75" cy="22" r="2.5" gradientTransform="translate(1.331 3.408) scale(.26458)" gradientUnits="userSpaceOnUse"/><radialGradient xlink:href="#a" id="i" cx="27" cy="22.75" r="2.5" gradientTransform="translate(1.331 3.408) scale(.26458)" gradientUnits="userSpaceOnUse"/><radialGradient xlink:href="#b" id="k" cx="22.8" cy="25" r="2.5" gradientTransform="translate(1.331 3.408) scale(.26458)" gradientUnits="userSpaceOnUse"/><radialGradient xlink:href="#b" id="m" cx="26.75" cy="25.25" r="2.5" gradientTransform="translate(1.331 3.408) scale(.26458)" gradientUnits="userSpaceOnUse"/><radialGradient xlink:href="#a" id="o" cx="24.75" cy="26" r="2.5" gradientTransform="translate(1.331 3.408) scale(.26458)" gradientUnits="userSpaceOnUse"/><linearGradient id="a"><stop offset="0" stop-color="#bfbfef"/><stop offset="1" stop-color="#a6a6ea"/></linearGradient><linearGradient id="b"><stop offset="0" stop-color="#dedede"/><stop offset="1" stop-color="#d3d3d3"/></linearGradient></defs><path fill="url(#c)" fill-rule="evenodd" d="M2.539.295a.312.312 0 0 0 .09-.012c.38-.025.76-.024 1.14.003.345.026.678.101 1 .224.536.22.903.603 1.1 1.148.114.328.18.665.2 1.012.029.435.019.869-.03 1.302a3.143 3.143 0 0 1-.236.879 1.87 1.87 0 0 1-1.094 1.008c-.409.139-.83.211-1.26.219a5.668 5.668 0 0 1-1.444-.11C1.13 5.773.59 5.24.385 4.366a5.04 5.04 0 0 1-.12-1.194c-.009-.428.037-.85.137-1.266C.617 1.09 1.135.584 1.957.39c.192-.047.385-.079.582-.094Z" clip-rule="evenodd" style="fill:url(#c);stroke-width:.264578"/><g stroke-width=".22" transform="matrix(.55143 0 0 .55143 -1.177 -2.206)"><g fill="#e48282" color="#000"><path d="M7.893 7.64c-1.067 0-2.033.175-2.74.54a2.659 2.659 0 0 0-.848.656c-.207.254-.381.556-.381.922s.174.667.381.921c.208.254.496.473.849.656.705.365 1.672.54 2.738.54 1.067 0 2.033-.175 2.74-.54.352-.183.64-.402.848-.656.207-.254.381-.555.381-.921s-.174-.668-.381-.922a2.659 2.659 0 0 0-.849-.655c-.705-.366-1.672-.54-2.739-.54m0 .344c1.053 0 2.002.197 2.684.55.341.176.562.381.743.602a.944.944 0 0 1 .225.62.944.944 0 0 1-.225.62 2.259 2.259 0 0 1-.743.603c-.683.353-1.631.55-2.684.55-1.053 0-2-.197-2.683-.55a2.256 2.256 0 0 1-.743-.602.944.944 0 0 1-.225-.62c0-.182.044-.4.225-.62.181-.222.402-.427.743-.603.683-.353 1.631-.55 2.684-.55"/><path d="M6.059 8.699c-.534.923-.865 1.848-.902 2.642a2.67 2.67 0 0 0 .143 1.064c.116.306.29.608.608.79.317.184.665.184.988.131.323-.053.657-.192.992-.407.67-.429 1.304-1.179 1.837-2.102.534-.923.865-1.848.902-2.642a2.67 2.67 0 0 0-.143-1.064c-.116-.306-.29-.608-.608-.79-.317-.184-.665-.184-.988-.131a2.663 2.663 0 0 0-.992.407c-.67.429-1.304 1.179-1.837 2.102m.298.172c.526-.912 1.171-1.635 1.818-2.05.324-.206.611-.295.893-.341a.944.944 0 0 1 .65.115.947.947 0 0 1 .424.505c.101.267.168.56.15.944-.035.768-.339 1.688-.865 2.6-.526.912-1.171 1.634-1.818 2.05a2.262 2.262 0 0 1-.893.341.944.944 0 0 1-.65-.115.944.944 0 0 1-.424-.505 2.26 2.26 0 0 1-.15-.944c.035-.768.339-1.688.865-2.6"/><path d="M9.726 8.707c.534.917.865 1.835.901 2.623.019.394-.027.75-.143 1.055-.116.304-.29.604-.607.785-.317.182-.665.183-.989.13a2.672 2.672 0 0 1-.992-.404c-.669-.426-1.303-1.17-1.837-2.087-.534-.917-.865-1.835-.901-2.624-.019-.394.027-.75.143-1.055.116-.304.29-.603.607-.785.317-.182.665-.182.989-.13.323.053.657.192.991.405.67.425 1.304 1.17 1.837 2.087Zm-.298.17C8.9 7.974 8.256 7.256 7.609 6.844a2.27 2.27 0 0 0-.893-.34.949.949 0 0 0-.65.115.94.94 0 0 0-.424.502 2.228 2.228 0 0 0-.15.937c.035.762.34 1.676.865 2.581.527.905 1.172 1.623 1.819 2.034.323.206.61.294.893.34a.949.949 0 0 0 .65-.115.94.94 0 0 0 .424-.5c.1-.265.168-.557.15-.939-.035-.762-.34-1.675-.865-2.58z"/></g><circle cx="7.416" cy="9.361" r=".661" fill="url(#d)" style="fill:url(#e)"/><circle cx="7.879" cy="9.228" r=".661" fill="url(#f)" style="fill:url(#g)"/><circle cx="8.475" cy="9.427" r=".661" fill="url(#h)" style="fill:url(#i)"/><circle cx="7.363" cy="10.022" r=".661" fill="url(#j)" style="fill:url(#k)"/><circle cx="8.408" cy="10.088" r=".661" fill="url(#l)" style="fill:url(#m)"/><circle cx="7.879" cy="10.287" r=".661" fill="url(#n)" style="fill:url(#o)"/></g></svg>