<svg xmlns="http://www.w3.org/2000/svg" xml:space="preserve" width="24" height="24" fill="none"><path d="M12 1C2 1 1 6 1 12c0 8 3 11 11 11s11-3 11-11c0-6-1-11-11-11Z" style="font-variation-settings:normal;display:inline;opacity:1;vector-effect:none;fill:#303335;fill-opacity:1;stroke-width:1.11627;stroke-linecap:butt;stroke-linejoin:miter;stroke-miterlimit:4;stroke-dasharray:none;stroke-dashoffset:0;stroke-opacity:1;-inkscape-stroke:none;stop-color:#000;stop-opacity:1"/><g stroke-width=".769" transform="matrix(.34922 0 0 .34922 3.619 3.619)"><rect width="38.462" height="38.462" x="4.769" y="4.769" fill="#33393e" rx="1.241" ry="1.166"/><g stroke-width="0" transform="rotate(-90)"><rect width="12" height="12" x="-16" y="18" fill="#d64239" rx="1" ry="1"/><rect width="12" height="12" x="-16" y="32" fill="#ffb345" rx="1" ry="1"/><rect width="12" height="12" x="-16" y="4" fill="#467fab" rx="1" ry="1"/><rect width="12" height="12" x="-30" y="32" fill="#d64239" rx="1" ry="1"/><rect width="12" height="12" x="-30" y="4" fill="#467fab" rx="1" ry="1"/><rect width="12" height="12" x="-44" y="4" fill="#d64239" rx="1" ry="1"/><rect width="12" height="12" x="-44" y="32" fill="#ffb345" rx="1" ry="1"/><rect width="12" height="12" x="-44" y="18" fill="#467fab" rx="1" ry="1"/><rect width="12" height="12" x="-30" y="18" fill="#ffb345" rx="1" ry="1"/></g></g></svg>