<svg xmlns="http://www.w3.org/2000/svg" xml:space="preserve" width="24" height="24" fill="none"><path fill="url(#a)" fill-rule="evenodd" d="M9.596 1.114c.12 0 .234-.014.344-.046a31.627 31.627 0 0 1 4.307.011c1.301.102 2.561.384 3.78.848 2.025.833 3.412 2.28 4.158 4.339.427 1.24.679 2.514.756 3.824a27.94 27.94 0 0 1-.114 4.923 11.88 11.88 0 0 1-.894 3.32c-.85 1.843-2.229 3.114-4.135 3.813a15.624 15.624 0 0 1-4.765.825 21.423 21.423 0 0 1-5.453-.413c-3.312-.737-5.354-2.756-6.128-6.056a19.047 19.047 0 0 1-.447-4.511 18.491 18.491 0 0 1 .515-4.786c.812-3.086 2.77-4.998 5.877-5.736a13.953 13.953 0 0 1 2.199-.355Z" clip-rule="evenodd"/><defs><radialGradient id="a" cx="0" cy="0" r="1" gradientTransform="matrix(0 11 -11 0 12 1)" gradientUnits="userSpaceOnUse"><stop stop-color="#6EBBF7"/><stop offset="1" stop-color="#2196F3" style="stop-color:#1eaaf7;stop-opacity:1"/></radialGradient></defs><g fill="#fff"><path d="M-10.944 13.238a.095.095 0 0 0-.074.028l-.463.463a.109.109 0 0 0 0 .154l.478.75a1.97 1.97 0 0 0-.099.24l-.868.192a.109.109 0 0 0-.11.11v.653c0 .06.05.096.11.109l.869.193c.026.08.058.16.096.236l-.48.753c-.032.05-.042.111 0 .154l.463.462a.108.108 0 0 0 .154 0l.753-.479c.077.039.158.073.24.1l.193.869c0 .06.049.109.109.109h.654c.06 0 .096-.05.109-.109l.193-.869a1.97 1.97 0 0 0 .24-.098l.749.478a.109.109 0 0 0 .154 0l.462-.463c.043-.043.033-.103 0-.154l-.204-.321-.152.06-.489-.731a1.525 1.525 0 0 1-1.39.9 1.525 1.525 0 0 1-1.525-1.526 1.525 1.525 0 0 1 .872-1.377v-.469a1.984 1.984 0 0 0-.215.089l-.749-.478a.169.169 0 0 0-.08-.028z" style="stroke-width:.119616" transform="matrix(2.45826 0 0 2.45826 34.46 -25.57)"/><path d="m-8.592 12.232-1.09.101v4.258l1.09-.218v-1.744l1.307 1.962 1.09-.436-1.417-1.834 1.418-1.871-1.142-.218-1.256 1.852z" style="stroke-width:.119616" transform="matrix(2.45826 0 0 2.45826 34.46 -25.57)"/></g></svg>