<svg xmlns="http://www.w3.org/2000/svg" xml:space="preserve" width="24" height="24" viewBox="0 0 6.35 6.35"><defs><radialGradient id="a" cx="0" cy="0" r="1" fx="0" fy="0" gradientTransform="rotate(90 1.455 1.72) scale(5.82072)" gradientUnits="userSpaceOnUse" spreadMethod="pad"><stop offset="0" style="stop-color:#7ecea5;stop-opacity:1"/><stop offset="1" style="stop-color:#2b6e49;stop-opacity:1"/></radialGradient></defs><path d="M2.538.295A.335.335 0 0 0 2.63.283c.38-.025.76-.024 1.14.002a3.62 3.62 0 0 1 1 .225c.536.22.903.603 1.101 1.148.112.328.18.665.2 1.011.028.436.018.87-.03 1.304a3.166 3.166 0 0 1-.237.878c-.225.487-.59.824-1.094 1.008a4.125 4.125 0 0 1-1.261.218 5.644 5.644 0 0 1-1.443-.109C1.13 5.774.588 5.24.385 4.366a5.025 5.025 0 0 1-.12-1.194c-.009-.427.036-.85.137-1.266C.617 1.09 1.135.584 1.957.389c.191-.047.386-.079.581-.094Z" style="fill:url(#a);fill-rule:evenodd;stroke:none;stroke-width:.352683;stroke-dasharray:none"/><g stroke-linejoin="round" stroke-width="2.221" color="#000" transform="matrix(.09926 0 0 .09926 .793 .793)"><circle cx="29.394" cy="16.971" r="15" fill="#c0c7c7" transform="rotate(15)"/><path fill="#d9dddd" d="M21.952 43.884a20 20 0 0 0 4.097.006l.475-3.1a17 17 0 0 0 3.687-.986l1.956 2.441a20 20 0 0 0 3.55-2.053L34.58 37.28a17 17 0 0 0 2.71-2.696l2.893 1.127a20 20 0 0 0 2.05-3.553l-2.422-1.941a17 17 0 0 0 .609-1.818 17 17 0 0 0 .37-1.877l3.093-.475a20 20 0 0 0 .006-4.097l-3.1-.475a17 17 0 0 0-.985-3.687l2.44-1.956a20 20 0 0 0-2.053-3.55L37.28 13.42a17 17 0 0 0-2.695-2.71l1.127-2.893a20 20 0 0 0-3.553-2.05l-1.94 2.422a17 17 0 0 0-1.82-.609 17 17 0 0 0-1.877-.369l-.473-3.094a20 20 0 0 0-4.097-.006l-.477 3.1a17 17 0 0 0-3.687.986l-1.956-2.44a20 20 0 0 0-3.549 2.053l1.135 2.911a17 17 0 0 0-2.71 2.695l-2.893-1.128a20 20 0 0 0-2.05 3.554l2.422 1.94a17 17 0 0 0-.609 1.82 17 17 0 0 0-.369 1.876l-3.094.475a20 20 0 0 0-.006 4.097l3.1.475a17 17 0 0 0 .986 3.687l-2.441 1.956a20 20 0 0 0 2.053 3.55l2.911-1.136a17 17 0 0 0 2.696 2.71l-1.127 2.893a20 20 0 0 0 3.553 2.05l1.941-2.422a17 17 0 0 0 1.818.609 17 17 0 0 0 1.877.369zm-1.575-6.36a14 14 0 0 1-9.9-17.147 14 14 0 0 1 17.146-9.9 14 14 0 0 1 9.9 17.147 14 14 0 0 1-17.146 9.9"/></g><g stroke-linecap="round" stroke-linejoin="round" stroke-width="2.221" color="#000" transform="scale(-.09926) rotate(15 26.336 -34.334)"><circle cx="-29.394" cy="-16.971" r="13" fill="#377b52"/><circle cx="-29.394" cy="-16.971" r="12" fill="#4abd7e"/></g><path fill="#fff" fill-rule="evenodd" d="m2.282 3.572.397.397.198-.596z"/></svg>