<svg xmlns="http://www.w3.org/2000/svg" xmlns:xlink="http://www.w3.org/1999/xlink" xml:space="preserve" id="svg5" width="24" height="24" version="1.1" viewBox="0 0 6.35 6.35"><defs id="defs2"><linearGradient id="linearGradient23570"><stop id="stop23566" offset="0" style="stop-color:#fefefe;stop-opacity:1"/><stop id="stop23568" offset="1" style="stop-color:#e6e6e6;stop-opacity:1"/></linearGradient><linearGradient xlink:href="#linearGradient23570" id="linearGradient23572" x1="247.607" x2="254.19" y1="852.941" y2="-167.402" gradientUnits="userSpaceOnUse"/><linearGradient xlink:href="#linearGradient23570" id="linearGradient23651" x1="247.607" x2="254.19" y1="852.941" y2="-167.402" gradientUnits="userSpaceOnUse"/><linearGradient xlink:href="#linearGradient23570" id="linearGradient23653" x1="247.607" x2="254.19" y1="852.941" y2="-167.402" gradientUnits="userSpaceOnUse"/><linearGradient xlink:href="#linearGradient23570" id="linearGradient23655" x1="247.607" x2="254.19" y1="852.941" y2="-167.402" gradientUnits="userSpaceOnUse"/><style id="current-color-scheme" type="text/css">.ColorScheme-Text{color:#31363b}.ColorScheme-Background{color:#eff0f1}.ColorScheme-Highlight{color:#3daee9}.ColorScheme-ViewText{color:#31363b}.ColorScheme-ViewBackground{color:#fcfcfc}.ColorScheme-ViewHover{color:#93cee9}.ColorScheme-ViewFocus{color:#3daee9}.ColorScheme-ButtonText{color:#31363b}.ColorScheme-ButtonBackground{color:#eff0f1}.ColorScheme-ButtonHover{color:#93cee9}.ColorScheme-ButtonFocus{color:#3daee9}</style></defs><g id="g244" style="fill:url(#linearGradient23572);fill-opacity:1" transform="translate(.265 .265) scale(.01304)"><g id="g246" style="fill:url(#linearGradient23655);fill-opacity:1"><g id="g252" style="fill:url(#linearGradient23653);fill-opacity:1"><path id="path260" d="M174.406 2.305c2.434.027 4.758-.285 6.973-.93a641.61 641.61 0 0 1 87.387.234c26.41 2.055 51.976 7.786 76.699 17.188 41.097 16.922 69.219 46.269 84.363 88.043 8.66 25.152 13.774 51.015 15.34 77.59a566.972 566.972 0 0 1-2.324 99.89c-2.782 23.352-8.824 45.805-18.129 67.368-17.258 37.382-45.223 63.167-83.899 77.355-31.343 10.59-63.57 16.164-96.687 16.723-37.246 1.937-74.121-.848-110.625-8.36C66.312 422.438 24.867 381.477 9.164 314.52a386.313 386.313 0 0 1-9.066-91.528c-.743-32.832 2.742-65.199 10.461-97.101C27.02 63.285 66.762 24.488 129.785 9.508a282.687 282.687 0 0 1 44.621-7.203Z" style="fill:url(#linearGradient23651);fill-opacity:1;fill-rule:evenodd;stroke:none"/></g></g></g><g id="g4718" transform="translate(5.283 .012)"><path id="path2883" d="M-2.108 1.695a2.084 2.084 0 0 0-2.084 2.084 2.084 2.084 0 0 0 .183.851h3.8a2.084 2.084 0 0 0 .184-.851 2.084 2.084 0 0 0-2.083-2.084Z" style="opacity:1;fill:#42c3cf;fill-opacity:1;stroke-width:.252557;stroke-linecap:round;stroke-linejoin:round;paint-order:stroke markers fill"/><rect id="rect1120" width=".216" height="1.288" x=".931" y="3.113" rx=".108" ry=".108" style="opacity:1;fill:#fff;fill-opacity:1;stroke-width:.329841;stroke-linecap:round;stroke-linejoin:round;paint-order:stroke markers fill" transform="rotate(38.066)"/><path id="path1174" d="M-2.121 3.91a.497.497 0 0 0-.497.49h.183a.314.314 0 0 1 .314-.307.314.314 0 0 1 .313.307h.184a.497.497 0 0 0-.497-.49Z" style="opacity:1;fill:#fff;fill-opacity:1;stroke-width:.330122;stroke-linecap:round;stroke-linejoin:round;paint-order:stroke markers fill"/><path id="path1915" d="M-2.12 2.146A1.646 1.646 0 0 0-3.766 3.79a1.646 1.646 0 0 0 0 .014v.013a.097.097 0 0 0 .105.09.096.096 0 0 0 .089-.102 1.453 1.453 0 0 1 0-.003 1.453 1.453 0 0 1 0-.012A1.453 1.453 0 0 1-2.12 2.338 1.453 1.453 0 0 1-.667 3.791a1.453 1.453 0 0 1 0 .015.097.097 0 0 0 .193.012v-.013a1.646 1.646 0 0 0 0-.001 1.646 1.646 0 0 0 0-.001 1.646 1.646 0 0 0 0-.001 1.646 1.646 0 0 0 0-.001 1.646 1.646 0 0 0 0-.001 1.646 1.646 0 0 0 0-.001 1.646 1.646 0 0 0 0-.001 1.646 1.646 0 0 0 0-.001 1.646 1.646 0 0 0 0-.001 1.646 1.646 0 0 0 0-.001 1.646 1.646 0 0 0 0-.001 1.646 1.646 0 0 0 0-.001 1.646 1.646 0 0 0 0-.001A1.646 1.646 0 0 0-2.12 2.146z" style="opacity:1;fill:#fff;fill-opacity:1;stroke-width:.216198;stroke-linecap:round;stroke-linejoin:round;paint-order:stroke markers fill"/></g></svg>