<svg xmlns="http://www.w3.org/2000/svg" width="24" height="24" fill="none"><defs><radialGradient id="a" cx="0" cy="0" r="1" gradientTransform="matrix(0 22 -22 0 12 1)" gradientUnits="userSpaceOnUse"><stop offset="0" stop-color="#8FC8FF" style="stop-color:#f6f6f6;stop-opacity:1"/><stop offset="1" stop-color="#0056A8" style="stop-color:#cfcfcf;stop-opacity:1"/></radialGradient></defs><path d="M50 5C9.09 5 5 25.455 5 50c0 32.727 12.273 45 45 45 32.727 0 45-12.273 45-45 0-24.545-4.09-45-45-45Z" style="font-variation-settings:normal;display:inline;opacity:1;vector-effect:none;fill:#f3c22b;fill-opacity:1;stroke-width:4.56656;stroke-linecap:butt;stroke-linejoin:miter;stroke-miterlimit:4;stroke-dasharray:none;stroke-dashoffset:0;stroke-opacity:1;-inkscape-stroke:none;stop-color:#000;stop-opacity:1" transform="matrix(.24444 0 0 .24444 -.222 -.222)"/><g stroke-width="1.174"><path fill="#f9f9f9" d="m17.98 7.329-1.306-1.306a3.473 3.473 0 0 0-4.911 0l-5.746 5.745a3.473 3.473 0 0 0 0 4.912l1.306 1.305a3.473 3.473 0 0 0 4.911 0l5.746-5.745a3.473 3.473 0 0 0 0-4.911"/><path fill="#339cc0" d="M17.98 7.326a3.465 3.465 0 0 1 0 4.911l-.21.21-6.222-6.224.21-.207a3.465 3.465 0 0 1 4.911 0"/><path fill="#f9f9f9" d="M15.67 7.506a.583.583 0 1 0 .824.825.583.583 0 1 0-.825-.825"/><path fill="#868686" d="m16.291 7.638-.084.283-.19.214c.302.27.637.863 1.005 1.32.032.184.092.32.11.537.067.85.193 1.914.71 2.899-.17.544-.359 1.093-.88 1.72l.036-.033c-1.765 1.535-2.594 2.519-2.866 3.186a.954.954 0 0 0-.085.48c.018.161.125.33.27.404.29.149.577.056.896-.084.639-.28 1.442-.92 2.104-1.858.663-.937 1.174-2.181 1.143-3.637a.292.292 0 0 0-.033-.126c.262-.934.29-1.818.008-2.556-.206-.541-.556-.748-.876-1.158-.044-.223-.045-.466-.14-.666-.172-.355-.533-.606-.958-.788-.017-.015-.04-.058-.057-.072l-.016.016c-.045-.017-.048-.067-.097-.08Zm.917 7.562c-.163.368-.152.866-.368 1.171-.604.855-1.364 1.441-1.86 1.66-.214.093-.317.078-.34.084.004-.031.001-.053.032-.13.171-.417 1.018-1.428 2.536-2.785z"/></g></svg>