<svg xmlns="http://www.w3.org/2000/svg" width="24" height="24"><path d="M12 1C2 1 1 6 1 12c0 8 3 11 11 11s11-3 11-11c0-6-1-11-11-11Z" style="font-variation-settings:normal;display:inline;vector-effect:none;fill:#d2d8db;fill-opacity:1;stroke-width:1.11627;stroke-linecap:butt;stroke-linejoin:miter;stroke-miterlimit:4;stroke-dasharray:none;stroke-dashoffset:0;stroke-opacity:1;-inkscape-stroke:none;stop-color:#000"/><path d="M12 1.975C2.886 1.975 1.975 6.532 1.975 12c0 7.29 2.734 10.025 10.025 10.025 7.29 0 10.025-2.734 10.025-10.025 0-5.468-.911-10.025-10.025-10.025Z" style="font-variation-settings:normal;display:inline;vector-effect:none;fill:#35383b;fill-opacity:1;stroke-width:1.01733;stroke-linecap:butt;stroke-linejoin:miter;stroke-miterlimit:4;stroke-dasharray:none;stroke-dashoffset:0;stroke-opacity:1;-inkscape-stroke:none;stop-color:#000"/><g stroke-linejoin="bevel" style="stroke-width:2.5454" transform="matrix(.5 0 0 .5 -156.54 -239.525)"><path fill="#0abafc" d="M324.08 493.05v19.996l8-3.996v-12c-2.334-1.333-5.667-2.668-8-4m26 0-8 4v12h.008l7.992 4zm-17 4v12h8v-12z" style="stroke-width:2.5454"/><circle cx="347.08" cy="498.05" r="1" fill="#fff" fill-rule="evenodd" style="stroke-width:2.5454"/></g></svg>