<svg xmlns="http://www.w3.org/2000/svg" width="24" height="24"><path d="M12 1C2 1 1 6 1 12c0 8 3 11 11 11s11-3 11-11c0-6-1-11-11-11Z" style="font-variation-settings:normal;display:inline;vector-effect:none;fill:#d2d8db;fill-opacity:1;stroke-width:1.11627;stroke-linecap:butt;stroke-linejoin:miter;stroke-miterlimit:4;stroke-dasharray:none;stroke-dashoffset:0;stroke-opacity:1;-inkscape-stroke:none;stop-color:#000"/><path d="M12 1.975C2.886 1.975 1.975 6.532 1.975 12c0 7.29 2.734 10.025 10.025 10.025 7.29 0 10.025-2.734 10.025-10.025 0-5.468-.911-10.025-10.025-10.025Z" style="font-variation-settings:normal;display:inline;vector-effect:none;fill:#35383b;fill-opacity:1;stroke-width:1.01733;stroke-linecap:butt;stroke-linejoin:miter;stroke-miterlimit:4;stroke-dasharray:none;stroke-dashoffset:0;stroke-opacity:1;-inkscape-stroke:none;stop-color:#000"/><g stroke-linejoin="bevel" style="stroke-width:2.30769"><path fill="#f73e59" d="M16.982 19.984H46.98v24h-30z" style="stroke-width:2.30769" transform="matrix(.43333 0 0 .43333 -1.858 -1.86)"/><path fill="#fff" d="M19.273 21.804v1.273h25.454v-1.273zm-.005 3.818V38.35h1.272c3.818 0 5.091-2.543 5.091-6.343 0-3.83-1.273-6.389-5.09-6.389zm8.909 0v.003h-.003l.003.007V38.35h1.272v-9.532l3.81 9.535h1.273v-.003h.003V25.622h-1.273v9.55l-3.76-9.411-.053-.139zm16.542 0c-3.818 0-7.631 1.273-7.631 6.324 0 5.13 2.54 6.402 6.358 6.402h1.273v-6.364h-2.54v1.273h1.267v3.818c-3.818 0-5.085-1.273-5.085-5.051 0-3.856 2.54-5.13 6.358-5.13zM20.54 26.895c3.818 0 3.818 3.818 3.818 5.09 0 1.272 0 5.091-3.818 5.091zm-1.267 14v1.272h25.454v-1.272z" style="stroke-width:2.30769" transform="matrix(.43333 0 0 .43333 -1.858 -1.86)"/></g></svg>