<svg xmlns="http://www.w3.org/2000/svg" xmlns:xlink="http://www.w3.org/1999/xlink" width="24" height="24"><defs><path id="a" fill="#feb70d" stroke-linejoin="bevel" d="m410.57 528.8-1.996-10h12z"/></defs><path d="M12 1C2 1 1 6 1 12c0 8 3 11 11 11s11-3 11-11c0-6-1-11-11-11Z" style="font-variation-settings:normal;display:inline;vector-effect:none;fill:#d2d8db;fill-opacity:1;stroke-width:1.11627;stroke-linecap:butt;stroke-linejoin:miter;stroke-miterlimit:4;stroke-dasharray:none;stroke-dashoffset:0;stroke-opacity:1;-inkscape-stroke:none;stop-color:#000"/><path d="M12 1.975C2.886 1.975 1.975 6.532 1.975 12c0 7.29 2.734 10.025 10.025 10.025 7.29 0 10.025-2.734 10.025-10.025 0-5.468-.911-10.025-10.025-10.025Z" style="font-variation-settings:normal;display:inline;vector-effect:none;fill:#35383b;fill-opacity:1;stroke-width:1.01733;stroke-linecap:butt;stroke-linejoin:miter;stroke-miterlimit:4;stroke-dasharray:none;stroke-dashoffset:0;stroke-opacity:1;-inkscape-stroke:none;stop-color:#000"/><g style="stroke-width:2.74081" transform="translate(-177.721 -233.55) scale(.46435)"><g style="stroke-width:2.74081" transform="translate(-14 9.999)"><path fill="#6af804" fill-rule="evenodd" d="m410.57 528.8 4.14-5.64 5.86-4.36 2 10z" style="stroke-width:2.74081"/><use xlink:href="#a" width="100%" height="100%" style="stroke-width:2.74081"/></g><path fill="#fff" fill-opacity=".353" d="m396.58 538.8-2-10h12l1.994 10z" style="stroke-width:2.74081"/><g style="stroke-width:2.74081" transform="translate(-7 4.999)"><path fill="#6af804" fill-rule="evenodd" d="m410.57 528.8 3.751-6.06 6.249-3.936 2 10z" style="stroke-width:2.74081"/><use xlink:href="#a" width="100%" height="100%" style="stroke-width:2.74081"/></g><path fill="#6af804" fill-rule="evenodd" d="m410.57 528.8 4.627-5.577 5.373-4.423 2 10z" style="stroke-width:2.74081"/><use xlink:href="#a" width="100%" height="100%" style="stroke-width:2.74081"/><path fill-opacity=".353" d="m410.57 528.8-1.996-10h12l1.994 10z" style="stroke-width:2.74081"/></g></svg>