<svg xmlns="http://www.w3.org/2000/svg" width="24" height="24" fill="none"><defs><radialGradient id="a" cx="0" cy="0" r="1" gradientTransform="matrix(0 22 -22 0 12 1)" gradientUnits="userSpaceOnUse"><stop offset="0" stop-color="#8FC8FF" style="stop-color:#f6f6f6;stop-opacity:1"/><stop offset="1" stop-color="#0056A8" style="stop-color:#cfcfcf;stop-opacity:1"/></radialGradient></defs><path d="M50 5C9.09 5 5 25.455 5 50c0 32.727 12.273 45 45 45 32.727 0 45-12.273 45-45 0-24.545-4.09-45-45-45Z" style="font-variation-settings:normal;display:inline;opacity:1;vector-effect:none;fill:#e1443b;fill-opacity:1;stroke-width:4.56656;stroke-linecap:butt;stroke-linejoin:miter;stroke-miterlimit:4;stroke-dasharray:none;stroke-dashoffset:0;stroke-opacity:1;-inkscape-stroke:none;stop-color:#000;stop-opacity:1" transform="matrix(.24444 0 0 .24444 -.222 -.222)"/><g transform="matrix(.41176 0 0 .41176 2.118 2.118)"><rect width="8" height="8" x="-16" y="8" stroke="#000" stroke-width="2" opacity=".1" rx="4" ry="4" transform="rotate(-90)"/><rect width="8" height="8" x="-16" y="8" fill="#fff" rx="4" ry="4" transform="rotate(-90)"/><rect width="8" height="8" x="8" y="8" opacity=".1" rx="4" ry="4" transform="matrix(0 1 1 0 0 0)"/><rect width="8" height="8" x="-28" y="20" stroke="#000" stroke-width="2" opacity=".1" rx="4" ry="4" transform="rotate(-90)"/><rect width="8" height="8" x="-28" y="20" fill="#fff" rx="4" ry="4" transform="rotate(-90)"/><rect width="8" height="8" x="20" y="20" opacity=".1" rx="4" ry="4" transform="matrix(0 1 1 0 0 0)"/><rect width="8" height="8" x="-40" y="32" stroke="#000" stroke-width="2" opacity=".1" rx="4" ry="4" transform="rotate(-90)"/><rect width="8" height="8" x="-40" y="32" fill="#fff" rx="4" ry="4" transform="rotate(-90)"/><rect width="8" height="8" x="32" y="32" opacity=".1" rx="4" ry="4" transform="matrix(0 1 1 0 0 0)"/></g></svg>