<svg xmlns="http://www.w3.org/2000/svg" width="24" height="24" fill="none"><defs><radialGradient id="a" cx="0" cy="0" r="1" gradientTransform="matrix(0 22 -22 0 12 1)" gradientUnits="userSpaceOnUse"><stop offset="0" stop-color="#8FC8FF" style="stop-color:#f6f6f6;stop-opacity:1"/><stop offset="1" stop-color="#0056A8" style="stop-color:#cfcfcf;stop-opacity:1"/></radialGradient></defs><path d="M50 5C9.09 5 5 25.455 5 50c0 32.727 12.273 45 45 45 32.727 0 45-12.273 45-45 0-24.545-4.09-45-45-45Z" style="font-variation-settings:normal;display:inline;opacity:1;vector-effect:none;fill:#f2f2f2;fill-opacity:1;stroke-width:4.56656;stroke-linecap:butt;stroke-linejoin:miter;stroke-miterlimit:4;stroke-dasharray:none;stroke-dashoffset:0;stroke-opacity:1;-inkscape-stroke:none;stop-color:#000;stop-opacity:1" transform="matrix(.24444 0 0 .24444 -.222 -.222)"/><g stroke-width="0"><g fill-rule="evenodd" stroke-linecap="round" stroke-linejoin="round" transform="matrix(.9746 0 0 .9746 3.75 3.748)"><rect width="7.181" height="5.289" x="5.091" y="2.614" fill="#fff" ry="0"/><path fill="#c0c81f" d="M6.777 6.048c.133 0 .239-.252.239-.577 0-.325-.106-.577-.24-.577s-.239.252-.239.577c0 .325.107.577.24.577z" clip-rule="evenodd"/><path fill="#9b592d" d="M13.634 1.72c-.325-.343-1.804.072-2.706.631a5.407 5.407 0 0 0-2.454-.577c-.92 0-1.768.216-2.471.577-.902-.56-2.4-.992-2.706-.631-.325.36.234 1.858.902 2.688a2.71 2.71 0 0 0-.09.667c0 .722.306 1.39.83 1.93h2.976c-.09-.18.036-.288.577-.288.542.018.65.108.578.289h2.976c.524-.542.83-1.227.83-1.93 0-.235-.036-.452-.09-.668.631-.83 1.173-2.346.848-2.688zM6.778 6.483a1.163 1.163 0 0 1-1.154-1.155c0-.632.523-1.155 1.155-1.155.63 0 1.154.523 1.154 1.155 0 .631-.523 1.154-1.154 1.154zm3.392 0a1.163 1.163 0 0 1-1.154-1.155c0-.632.523-1.155 1.154-1.155.632 0 1.155.523 1.155 1.155a1.15 1.15 0 0 1-1.155 1.154z" clip-rule="evenodd"/></g><path fill="#333" d="M8.368 18.705h7.266c.273 0 .493-.22.493-.493v-7.266a.492.492 0 0 0-.493-.493H8.369a.492.492 0 0 0-.493.493v7.266c0 .272.221.493.493.493z"/><g fill-rule="evenodd" clip-rule="evenodd"><path fill="#793000" d="M5.761 7.716a2.52 2.52 0 0 0-.828.135c1.494.193 2.707.773 3.798 1.829-.487-1.143-1.75-1.961-2.97-1.964Zm12.48 0c-1.22.003-2.483.82-2.97 1.964 1.09-1.055 2.303-1.636 3.798-1.829a2.515 2.515 0 0 0-.828-.135Zm-12.733.813A2.902 2.902 0 0 0 4 8.958c1.688-.264 3.218.176 4.66 1.037-.726-.906-1.974-1.489-3.152-1.466Zm12.985 0c-1.178-.023-2.426.56-3.153 1.466 1.443-.861 2.973-1.3 4.66-1.036a2.892 2.892 0 0 0-1.507-.43ZM6.19 9.4c-.712-.012-1.355.19-1.678.667 1.495-.475 2.795-.264 4.237.298-.614-.583-1.643-.95-2.559-.965Zm11.624 0c-.916.016-1.946.382-2.56.965 1.443-.562 2.743-.773 4.238-.298-.323-.478-.966-.679-1.678-.667Z"/><path fill="#695050" d="M7.36 9.328c-.44 0-.81.228-.985.58h-.054c-.474 0-.879.352-.879.791 0 .615.634.95 1.214.739.35.51 1.108.545 1.389 0 .422-.018 1.108-.088 1.213-.739.07-.44-.387-.791-.88-.791h-.052c-.14-.351-.527-.58-.967-.58Zm9.283 0c.439 0 .808.228.984.58h.053c.246 0 .88.352.88.791 0 .615-.634.95-1.214.739-.35.51-1.108.545-1.389 0-.422-.018-1.108-.088-1.213-.739-.07-.44.633-.791.88-.791h.052c.14-.351.527-.58.967-.58z"/><path fill="#c0c81f" d="M13.622 9.643c.13 0 .234-.246.234-.563 0-.316-.104-.562-.234-.562s-.234.246-.234.562c0 .317.105.563.234.563z"/></g></g><path fill="#fff" d="M12.26 16.03h2.61c.394 0 .394.59 0 .592h-2.612c-.393-.001-.393-.59 0-.592zm-3.14-3.187c-.26-.278.139-.677.418-.418l1.846 1.846a.295.295 0 0 1 0 .417l-1.845 1.847c-.28.26-.678-.14-.418-.418l1.637-1.637z"/></svg>