<svg xmlns="http://www.w3.org/2000/svg" width="24" height="24"><defs><radialGradient id="a" cx="0" cy="0" r="1" fx="0" fy="0" gradientTransform="matrix(0 22 -22 0 12 1)" gradientUnits="userSpaceOnUse" spreadMethod="pad"><stop offset="0" style="stop-color:#fff;stop-opacity:1"/><stop offset="1" style="stop-color:#eceff1;stop-opacity:1"/></radialGradient></defs><path d="M9.593 1.115c.12 0 .235-.016.344-.047a31.814 31.814 0 0 1 4.308.01 13.68 13.68 0 0 1 3.781.849c2.026.833 3.41 2.281 4.162 4.338.42 1.24.676 2.516.754 3.823a28.303 28.303 0 0 1-.114 4.928 11.968 11.968 0 0 1-.896 3.317c-.85 1.844-2.23 3.115-4.135 3.812-1.543.522-3.13.798-4.767.824a21.33 21.33 0 0 1-5.452-.412c-3.308-.734-5.354-2.754-6.125-6.057a18.991 18.991 0 0 1-.448-4.51 18.502 18.502 0 0 1 .516-4.787c.812-3.083 2.77-4.995 5.875-5.734a13.692 13.692 0 0 1 2.197-.354Z" style="fill:url(#a);fill-rule:evenodd;stroke:none;stroke-width:1.33333"/><g style="stroke-width:2.73333"><path fill="#90a4ae" d="M-4 12v2h9v-2zm0 4v2h22v-2zm0 6v2h31v-2zm0 4v2h31v-2zm0 4v2h31v-2zm0 6v2h31v-2zm0 4v2h31v-2zm0 4v2h15v-2zm24 7v2h7v-2z" style="stroke-width:2.73333" transform="matrix(.36585 0 0 .36585 7.759 1.053)"/><path fill="#546e7a" d="M27 29a10 10 0 0 0-10 10 10 10 0 0 0 10 10h7c1.662 0 3-1.338 3-3v-7a10 10 0 0 0-10-10Z" style="stroke-width:2.73333" transform="matrix(.36585 0 0 .36585 7.759 1.053)"/><path fill="#8ab1c3" d="M22.111 34a7 7 0 0 0-2.033 4H29v-4h-6.89zm-2.031 6a7 7 0 0 0 2.023 4H29v-4z" style="stroke-width:2.73333" transform="matrix(.36585 0 0 .36585 7.759 1.053)"/></g></svg>