<svg xmlns="http://www.w3.org/2000/svg" xmlns:xlink="http://www.w3.org/1999/xlink" width="24" height="24" viewBox="0 0 6.35 6.35"><defs><radialGradient xlink:href="#a" id="c" cx="0" cy="0" r="1" gradientTransform="rotate(90 1.104 4.003) scale(5.23581)" gradientUnits="userSpaceOnUse"/><radialGradient id="a" cx="0" cy="0" r="1" gradientTransform="rotate(90 3.735 6.681) scale(5.23581)" gradientUnits="userSpaceOnUse"><stop stop-color="#555"/><stop offset="1" stop-color="#222"/></radialGradient><linearGradient id="b" x1="12" x2="12" y1="0" y2="12" gradientTransform="matrix(.24253 0 0 .24253 .265 .265)" gradientUnits="userSpaceOnUse"><stop offset="0" stop-color="#fff" style="stop-color:#e2e9f2;stop-opacity:1"/><stop offset="1" stop-color="#D9D9D9" style="stop-color:#91a1b9;stop-opacity:1"/></linearGradient></defs><path fill="url(#b)" fill-rule="evenodd" d="M2.539.295a.312.312 0 0 0 .09-.012c.38-.025.76-.024 1.14.003.345.026.678.101 1 .224.536.22.903.603 1.1 1.148.114.328.18.665.2 1.012.029.435.019.869-.03 1.302a3.144 3.144 0 0 1-.236.879 1.87 1.87 0 0 1-1.094 1.008c-.409.139-.83.211-1.26.219a5.669 5.669 0 0 1-1.444-.11C1.13 5.773.59 5.24.385 4.366a5.04 5.04 0 0 1-.12-1.194c-.009-.428.037-.85.137-1.266C.617 1.09 1.135.584 1.957.39c.192-.047.385-.079.582-.094z" clip-rule="evenodd" style="fill:url(#b);stroke-width:.24253"/><rect width="4.002" height="1.334" x="1.174" y=".992" rx=".137" ry=".137" style="fill:#e2e9f2;fill-opacity:1;stroke:none;stroke-width:.22214;stroke-linecap:round;stroke-linejoin:round;stroke-dashoffset:1.89038;stroke-opacity:.0528456;paint-order:stroke markers fill"/><rect width="4.002" height="1.334" x="1.174" y="4.024" rx=".137" ry=".137" style="fill:#e2e9f2;fill-opacity:1;stroke:none;stroke-width:.22214;stroke-linecap:round;stroke-linejoin:round;stroke-dashoffset:1.89038;stroke-opacity:.0528456;paint-order:stroke markers fill"/><rect width="4.002" height="1.334" x="1.174" y="2.508" rx=".137" ry=".137" style="fill:#e2e9f2;fill-opacity:1;stroke:none;stroke-width:.22214;stroke-linecap:round;stroke-linejoin:round;stroke-dashoffset:1.89038;stroke-opacity:.0528456;paint-order:stroke markers fill"/><rect width=".132" height=".132" x="1.529" y="2.884" rx=".032" ry=".032" style="fill:#477ebd;fill-opacity:1;stroke:none;stroke-width:.318498;stroke-linecap:round;stroke-linejoin:round;stroke-dashoffset:1.89038;stroke-opacity:.0528456;paint-order:stroke markers fill"/><rect width=".132" height=".132" x="1.9" y="2.884" rx=".032" ry=".032" style="fill:#477ebd;fill-opacity:1;stroke:none;stroke-width:.318498;stroke-linecap:round;stroke-linejoin:round;stroke-dashoffset:1.89038;stroke-opacity:.0528456;paint-order:stroke markers fill"/><rect width=".132" height=".132" x="2.271" y="2.884" rx=".032" ry=".032" style="fill:#477ebd;fill-opacity:1;stroke:none;stroke-width:.318498;stroke-linecap:round;stroke-linejoin:round;stroke-dashoffset:1.89038;stroke-opacity:.0528456;paint-order:stroke markers fill"/><rect width=".132" height=".132" x="2.642" y="2.884" rx=".032" ry=".032" style="fill:#90a0b8;fill-opacity:1;stroke:none;stroke-width:.318498;stroke-linecap:round;stroke-linejoin:round;stroke-dashoffset:1.89038;stroke-opacity:.0528456;paint-order:stroke markers fill"/><rect width=".132" height=".132" x="1.708" y="3.12" rx=".032" ry=".032" style="fill:#477ebd;fill-opacity:1;stroke:none;stroke-width:.318498;stroke-linecap:round;stroke-linejoin:round;stroke-dashoffset:1.89038;stroke-opacity:.0528456;paint-order:stroke markers fill"/><rect width=".132" height=".132" x="2.079" y="3.12" rx=".032" ry=".032" style="fill:#477ebd;fill-opacity:1;stroke:none;stroke-width:.318498;stroke-linecap:round;stroke-linejoin:round;stroke-dashoffset:1.89038;stroke-opacity:.0528456;paint-order:stroke markers fill"/><rect width=".132" height=".132" x="2.45" y="3.12" rx=".032" ry=".032" style="fill:#477ebd;fill-opacity:1;stroke:none;stroke-width:.318498;stroke-linecap:round;stroke-linejoin:round;stroke-dashoffset:1.89038;stroke-opacity:.0528456;paint-order:stroke markers fill"/><rect width=".132" height=".132" x="2.822" y="3.12" rx=".032" ry=".032" style="fill:#477ebd;fill-opacity:1;stroke:none;stroke-width:.318498;stroke-linecap:round;stroke-linejoin:round;stroke-dashoffset:1.89038;stroke-opacity:.0528456;paint-order:stroke markers fill"/><rect width=".132" height=".132" x="1.708" y="3.12" rx=".032" ry=".032" style="fill:#477ebd;fill-opacity:1;stroke:none;stroke-width:.318498;stroke-linecap:round;stroke-linejoin:round;stroke-dashoffset:1.89038;stroke-opacity:.0528456;paint-order:stroke markers fill"/><rect width=".132" height=".132" x="2.079" y="3.12" rx=".032" ry=".032" style="fill:#477ebd;fill-opacity:1;stroke:none;stroke-width:.318498;stroke-linecap:round;stroke-linejoin:round;stroke-dashoffset:1.89038;stroke-opacity:.0528456;paint-order:stroke markers fill"/><rect width=".132" height=".132" x="2.45" y="3.12" rx=".032" ry=".032" style="fill:#90a0b8;fill-opacity:1;stroke:none;stroke-width:.318498;stroke-linecap:round;stroke-linejoin:round;stroke-dashoffset:1.89038;stroke-opacity:.0528456;paint-order:stroke markers fill"/><rect width=".132" height=".132" x="2.822" y="3.12" rx=".032" ry=".032" style="fill:#90a0b8;fill-opacity:1;stroke:none;stroke-width:.318498;stroke-linecap:round;stroke-linejoin:round;stroke-dashoffset:1.89038;stroke-opacity:.0528456;paint-order:stroke markers fill"/><rect width=".132" height=".132" x="1.529" y="3.351" rx=".032" ry=".032" style="fill:#90a0b8;fill-opacity:1;stroke:none;stroke-width:.318498;stroke-linecap:round;stroke-linejoin:round;stroke-dashoffset:1.89038;stroke-opacity:.0528456;paint-order:stroke markers fill"/><rect width=".132" height=".132" x="1.9" y="3.351" rx=".032" ry=".032" style="fill:#90a0b8;fill-opacity:1;stroke:none;stroke-width:.318498;stroke-linecap:round;stroke-linejoin:round;stroke-dashoffset:1.89038;stroke-opacity:.0528456;paint-order:stroke markers fill"/><rect width=".132" height=".132" x="2.271" y="3.351" rx=".032" ry=".032" style="fill:#90a0b8;fill-opacity:1;stroke:none;stroke-width:.318498;stroke-linecap:round;stroke-linejoin:round;stroke-dashoffset:1.89038;stroke-opacity:.0528456;paint-order:stroke markers fill"/><rect width=".132" height=".132" x="2.642" y="3.351" rx=".032" ry=".032" style="fill:#90a0b8;fill-opacity:1;stroke:none;stroke-width:.318498;stroke-linecap:round;stroke-linejoin:round;stroke-dashoffset:1.89038;stroke-opacity:.0528456;paint-order:stroke markers fill"/><g transform="translate(0 -.016)"><rect width=".132" height=".132" x="1.529" y="1.376" rx=".032" ry=".032" style="fill:#477ebd;fill-opacity:1;stroke:none;stroke-width:.318498;stroke-linecap:round;stroke-linejoin:round;stroke-dashoffset:1.89038;stroke-opacity:.0528456;paint-order:stroke markers fill"/><rect width=".132" height=".132" x="1.9" y="1.376" rx=".032" ry=".032" style="fill:#477ebd;fill-opacity:1;stroke:none;stroke-width:.318498;stroke-linecap:round;stroke-linejoin:round;stroke-dashoffset:1.89038;stroke-opacity:.0528456;paint-order:stroke markers fill"/><rect width=".132" height=".132" x="2.271" y="1.376" rx=".032" ry=".032" style="fill:#477ebd;fill-opacity:1;stroke:none;stroke-width:.318498;stroke-linecap:round;stroke-linejoin:round;stroke-dashoffset:1.89038;stroke-opacity:.0528456;paint-order:stroke markers fill"/><rect width=".132" height=".132" x="2.642" y="1.376" rx=".032" ry=".032" style="fill:#90a0b8;fill-opacity:1;stroke:none;stroke-width:.318498;stroke-linecap:round;stroke-linejoin:round;stroke-dashoffset:1.89038;stroke-opacity:.0528456;paint-order:stroke markers fill"/><rect width=".132" height=".132" x="1.708" y="1.612" rx=".032" ry=".032" style="fill:#477ebd;fill-opacity:1;stroke:none;stroke-width:.318498;stroke-linecap:round;stroke-linejoin:round;stroke-dashoffset:1.89038;stroke-opacity:.0528456;paint-order:stroke markers fill"/><rect width=".132" height=".132" x="2.079" y="1.612" rx=".032" ry=".032" style="fill:#477ebd;fill-opacity:1;stroke:none;stroke-width:.318498;stroke-linecap:round;stroke-linejoin:round;stroke-dashoffset:1.89038;stroke-opacity:.0528456;paint-order:stroke markers fill"/><rect width=".132" height=".132" x="2.45" y="1.612" rx=".032" ry=".032" style="fill:#477ebd;fill-opacity:1;stroke:none;stroke-width:.318498;stroke-linecap:round;stroke-linejoin:round;stroke-dashoffset:1.89038;stroke-opacity:.0528456;paint-order:stroke markers fill"/><rect width=".132" height=".132" x="2.822" y="1.612" rx=".032" ry=".032" style="fill:#477ebd;fill-opacity:1;stroke:none;stroke-width:.318498;stroke-linecap:round;stroke-linejoin:round;stroke-dashoffset:1.89038;stroke-opacity:.0528456;paint-order:stroke markers fill"/><rect width=".132" height=".132" x="1.708" y="1.612" rx=".032" ry=".032" style="fill:#477ebd;fill-opacity:1;stroke:none;stroke-width:.318498;stroke-linecap:round;stroke-linejoin:round;stroke-dashoffset:1.89038;stroke-opacity:.0528456;paint-order:stroke markers fill"/><rect width=".132" height=".132" x="2.079" y="1.612" rx=".032" ry=".032" style="fill:#477ebd;fill-opacity:1;stroke:none;stroke-width:.318498;stroke-linecap:round;stroke-linejoin:round;stroke-dashoffset:1.89038;stroke-opacity:.0528456;paint-order:stroke markers fill"/><rect width=".132" height=".132" x="2.45" y="1.612" rx=".032" ry=".032" style="fill:#477ebd;fill-opacity:1;stroke:none;stroke-width:.318498;stroke-linecap:round;stroke-linejoin:round;stroke-dashoffset:1.89038;stroke-opacity:.0528456;paint-order:stroke markers fill"/><rect width=".132" height=".132" x="2.822" y="1.612" rx=".032" ry=".032" style="fill:#90a0b8;fill-opacity:1;stroke:none;stroke-width:.318498;stroke-linecap:round;stroke-linejoin:round;stroke-dashoffset:1.89038;stroke-opacity:.0528456;paint-order:stroke markers fill"/><rect width=".132" height=".132" x="1.529" y="1.842" rx=".032" ry=".032" style="fill:#90a0b8;fill-opacity:1;stroke:none;stroke-width:.318498;stroke-linecap:round;stroke-linejoin:round;stroke-dashoffset:1.89038;stroke-opacity:.0528456;paint-order:stroke markers fill"/><rect width=".132" height=".132" x="1.9" y="1.842" rx=".032" ry=".032" style="fill:#477ebd;fill-opacity:1;stroke:none;stroke-width:.318498;stroke-linecap:round;stroke-linejoin:round;stroke-dashoffset:1.89038;stroke-opacity:.0528456;paint-order:stroke markers fill"/><rect width=".132" height=".132" x="2.271" y="1.842" rx=".032" ry=".032" style="fill:#90a0b8;fill-opacity:1;stroke:none;stroke-width:.318498;stroke-linecap:round;stroke-linejoin:round;stroke-dashoffset:1.89038;stroke-opacity:.0528456;paint-order:stroke markers fill"/><rect width=".132" height=".132" x="2.642" y="1.842" rx=".032" ry=".032" style="fill:#90a0b8;fill-opacity:1;stroke:none;stroke-width:.318498;stroke-linecap:round;stroke-linejoin:round;stroke-dashoffset:1.89038;stroke-opacity:.0528456;paint-order:stroke markers fill"/></g><g transform="translate(0 -.036)"><rect width=".132" height=".132" x="1.529" y="4.428" rx=".032" ry=".032" style="fill:#477ebd;fill-opacity:1;stroke:none;stroke-width:.318498;stroke-linecap:round;stroke-linejoin:round;stroke-dashoffset:1.89038;stroke-opacity:.0528456;paint-order:stroke markers fill"/><rect width=".132" height=".132" x="1.9" y="4.428" rx=".032" ry=".032" style="fill:#477ebd;fill-opacity:1;stroke:none;stroke-width:.318498;stroke-linecap:round;stroke-linejoin:round;stroke-dashoffset:1.89038;stroke-opacity:.0528456;paint-order:stroke markers fill"/><rect width=".132" height=".132" x="2.271" y="4.428" rx=".032" ry=".032" style="fill:#477ebd;fill-opacity:1;stroke:none;stroke-width:.318498;stroke-linecap:round;stroke-linejoin:round;stroke-dashoffset:1.89038;stroke-opacity:.0528456;paint-order:stroke markers fill"/><rect width=".132" height=".132" x="2.642" y="4.428" rx=".032" ry=".032" style="fill:#90a0b8;fill-opacity:1;stroke:none;stroke-width:.318498;stroke-linecap:round;stroke-linejoin:round;stroke-dashoffset:1.89038;stroke-opacity:.0528456;paint-order:stroke markers fill"/><rect width=".132" height=".132" x="1.708" y="4.664" rx=".032" ry=".032" style="fill:#477ebd;fill-opacity:1;stroke:none;stroke-width:.318498;stroke-linecap:round;stroke-linejoin:round;stroke-dashoffset:1.89038;stroke-opacity:.0528456;paint-order:stroke markers fill"/><rect width=".132" height=".132" x="2.079" y="4.664" rx=".032" ry=".032" style="fill:#477ebd;fill-opacity:1;stroke:none;stroke-width:.318498;stroke-linecap:round;stroke-linejoin:round;stroke-dashoffset:1.89038;stroke-opacity:.0528456;paint-order:stroke markers fill"/><rect width=".132" height=".132" x="2.45" y="4.664" rx=".032" ry=".032" style="fill:#477ebd;fill-opacity:1;stroke:none;stroke-width:.318498;stroke-linecap:round;stroke-linejoin:round;stroke-dashoffset:1.89038;stroke-opacity:.0528456;paint-order:stroke markers fill"/><rect width=".132" height=".132" x="2.822" y="4.664" rx=".032" ry=".032" style="fill:#477ebd;fill-opacity:1;stroke:none;stroke-width:.318498;stroke-linecap:round;stroke-linejoin:round;stroke-dashoffset:1.89038;stroke-opacity:.0528456;paint-order:stroke markers fill"/><rect width=".132" height=".132" x="1.708" y="4.664" rx=".032" ry=".032" style="fill:#477ebd;fill-opacity:1;stroke:none;stroke-width:.318498;stroke-linecap:round;stroke-linejoin:round;stroke-dashoffset:1.89038;stroke-opacity:.0528456;paint-order:stroke markers fill"/><rect width=".132" height=".132" x="2.079" y="4.664" rx=".032" ry=".032" style="fill:#477ebd;fill-opacity:1;stroke:none;stroke-width:.318498;stroke-linecap:round;stroke-linejoin:round;stroke-dashoffset:1.89038;stroke-opacity:.0528456;paint-order:stroke markers fill"/><rect width=".132" height=".132" x="2.45" y="4.664" rx=".032" ry=".032" style="fill:#477ebd;fill-opacity:1;stroke:none;stroke-width:.318498;stroke-linecap:round;stroke-linejoin:round;stroke-dashoffset:1.89038;stroke-opacity:.0528456;paint-order:stroke markers fill"/><rect width=".132" height=".132" x="2.822" y="4.664" rx=".032" ry=".032" style="fill:#90a0b8;fill-opacity:1;stroke:none;stroke-width:.318498;stroke-linecap:round;stroke-linejoin:round;stroke-dashoffset:1.89038;stroke-opacity:.0528456;paint-order:stroke markers fill"/><rect width=".132" height=".132" x="1.529" y="4.894" rx=".032" ry=".032" style="fill:#90a0b8;fill-opacity:1;stroke:none;stroke-width:.318498;stroke-linecap:round;stroke-linejoin:round;stroke-dashoffset:1.89038;stroke-opacity:.0528456;paint-order:stroke markers fill"/><rect width=".132" height=".132" x="1.9" y="4.894" rx=".032" ry=".032" style="fill:#477ebd;fill-opacity:1;stroke:none;stroke-width:.318498;stroke-linecap:round;stroke-linejoin:round;stroke-dashoffset:1.89038;stroke-opacity:.0528456;paint-order:stroke markers fill"/><rect width=".132" height=".132" x="2.271" y="4.894" rx=".032" ry=".032" style="fill:#90a0b8;fill-opacity:1;stroke:none;stroke-width:.318498;stroke-linecap:round;stroke-linejoin:round;stroke-dashoffset:1.89038;stroke-opacity:.0528456;paint-order:stroke markers fill"/><rect width=".132" height=".132" x="2.642" y="4.894" rx=".032" ry=".032" style="fill:#90a0b8;fill-opacity:1;stroke:none;stroke-width:.318498;stroke-linecap:round;stroke-linejoin:round;stroke-dashoffset:1.89038;stroke-opacity:.0528456;paint-order:stroke markers fill"/></g><g transform="translate(0 -.024)"><circle cx="3.825" cy="1.683" r=".171" style="opacity:1;fill:#477ebd;fill-opacity:1;stroke:none;stroke-width:.244885;stroke-linecap:round;stroke-linejoin:round;stroke-dashoffset:1.89038;stroke-opacity:.0528456;paint-order:stroke markers fill"/><circle cx="4.557" cy="1.683" r=".171" style="opacity:1;fill:#477ebd;fill-opacity:1;stroke:none;stroke-width:.244885;stroke-linecap:round;stroke-linejoin:round;stroke-dashoffset:1.89038;stroke-opacity:.0528456;paint-order:stroke markers fill"/></g><g transform="translate(0 -.02)"><circle cx="3.825" cy="3.194" r=".171" style="opacity:1;fill:#477ebd;fill-opacity:1;stroke:none;stroke-width:.244885;stroke-linecap:round;stroke-linejoin:round;stroke-dashoffset:1.89038;stroke-opacity:.0528456;paint-order:stroke markers fill"/><circle cx="4.557" cy="3.194" r=".171" style="opacity:1;fill:#477ebd;fill-opacity:1;stroke:none;stroke-width:.244885;stroke-linecap:round;stroke-linejoin:round;stroke-dashoffset:1.89038;stroke-opacity:.0528456;paint-order:stroke markers fill"/></g><g transform="translate(0 -.008)"><circle cx="3.825" cy="4.699" r=".171" style="opacity:1;fill:#477ebd;fill-opacity:1;stroke:none;stroke-width:.244885;stroke-linecap:round;stroke-linejoin:round;stroke-dashoffset:1.89038;stroke-opacity:.0528456;paint-order:stroke markers fill"/><circle cx="4.557" cy="4.699" r=".171" style="opacity:1;fill:#477ebd;fill-opacity:1;stroke:none;stroke-width:.244885;stroke-linecap:round;stroke-linejoin:round;stroke-dashoffset:1.89038;stroke-opacity:.0528456;paint-order:stroke markers fill"/></g><path d="M4.89 3.02a2.255 2.255 0 0 0-.177.006 2.255 2.255 0 0 0-.176.021 2.255 2.255 0 0 0-.174.034 2.255 2.255 0 0 0-.17.048 2.255 2.255 0 0 0-.166.062 2.255 2.255 0 0 0-.16.074 2.255 2.255 0 0 0-.155.087 2.255 2.255 0 0 0-.147.098 2.255 2.255 0 0 0-.14.11 2.255 2.255 0 0 0-.13.12 2.255 2.255 0 0 0-.12.13 2.255 2.255 0 0 0-.11.139 2.255 2.255 0 0 0-.098.147 2.255 2.255 0 0 0-.087.154 2.255 2.255 0 0 0-.074.161 2.255 2.255 0 0 0-.061.166 2.255 2.255 0 0 0-.048.17 2.255 2.255 0 0 0-.035.174 2.255 2.255 0 0 0-.02.176 2.255 2.255 0 0 0-.008.177 2.255 2.255 0 0 0 .007.163 2.255 2.255 0 0 0 .017.163 2.255 2.255 0 0 0 .03.16 2.255 2.255 0 0 0 .041.159 2.255 2.255 0 0 0 .053.154 5.625 5.625 0 0 0 .166.009l.083.002a5.692 5.692 0 0 0 .167.001l.083-.001a5.875 5.875 0 0 0 .167-.006 4.211 4.211 0 0 0 .874-.108c.026-.007.052-.012.078-.02a4.183 4.183 0 0 0 .155-.042l.077-.023.077-.026.047-.017.046-.02.045-.018a2.11 2.11 0 0 0 .044-.021l.044-.021.043-.022.042-.024a1.88 1.88 0 0 0 .081-.049l.04-.025a1.852 1.852 0 0 0 .15-.112l.035-.03.035-.032a1.769 1.769 0 0 0 .19-.204l.029-.038c.01-.013.02-.025.028-.038.01-.013.018-.026.027-.04a2.14 2.14 0 0 0 .19-.35 3.724 3.724 0 0 0 .042-.106l.02-.054.017-.054.017-.055.017-.054.015-.055.014-.055c.005-.018.01-.037.013-.055l.013-.056.011-.055a2.874 2.874 0 0 0 .035-.227 7.005 7.005 0 0 0 .043-.61 2.255 2.255 0 0 0-.136-.079 2.255 2.255 0 0 0-.141-.068 2.255 2.255 0 0 0-.146-.06 2.255 2.255 0 0 0-.15-.048 2.255 2.255 0 0 0-.151-.038 2.255 2.255 0 0 0-.155-.027 2.255 2.255 0 0 0-.156-.017 2.255 2.255 0 0 0-.157-.006z" style="fill:url(#c);stroke-width:.237991"/><g fill="#fafafa"><path d="M-8.315 6.627h-.948a.066.066 0 0 0-.067.065c0 .036.03.065.067.065h.948c.038 0 .068-.029.068-.065a.066.066 0 0 0-.068-.065zM-9.668 5.447a.07.07 0 0 0-.039.007.067.067 0 0 0-.037.05.062.062 0 0 0 .014.048.067.067 0 0 0 .02.016l.727.403-.727.404a.067.067 0 0 0-.032.04.062.062 0 0 0 .007.049.07.07 0 0 0 .093.023l.82-.455a.065.065 0 0 0 .024-.023.062.062 0 0 0 .01-.032v-.011a.062.062 0 0 0-.01-.032.065.065 0 0 0-.023-.023l-.821-.456a.07.07 0 0 0-.026-.008z" style="stroke-width:.102099" transform="translate(8.136 1.56) scale(.50336)"/></g><text xml:space="preserve" x="4.059" y="4.954" style="font-weight:700;font-size:.836551px;font-family:Lato;-inkscape-font-specification:&quot;Lato Bold&quot;;fill:#fafafa;fill-opacity:1;stroke:none;stroke-width:.0522846;stroke-linecap:round;stroke-linejoin:round;stroke-dashoffset:1.89038;stroke-opacity:.974255;paint-order:stroke markers fill"><tspan x="4.059" y="4.954" style="fill:#fafafa;fill-opacity:1;stroke:none;stroke-width:.0522846;stroke-opacity:.974255">SSH</tspan></text><path d="M4.883 3.016a2.249 2.249 0 0 0-2.25 2.25 2.249 2.249 0 0 0 .152.807c.22.015.441.016.663.005.432-.008.852-.08 1.26-.219a1.87 1.87 0 0 0 1.095-1.008c.121-.281.2-.574.236-.879a7.4 7.4 0 0 0 .043-.61 2.249 2.249 0 0 0-1.2-.346Z" style="fill:#5687e3;fill-opacity:1;fill-rule:evenodd;stroke-width:.12494;paint-order:fill markers stroke"/><path d="M4.816 3.558a.426.426 0 0 0-.425.425.21.21 0 0 1-.212.21.198.198 0 0 1-.099-.028.107.107 0 0 0-.001-.002.428.428 0 0 0-.582.158l-.11.181a.107.107 0 0 0-.002.003.428.428 0 0 0 .155.581.212.212 0 0 1 0 .369.427.427 0 0 0-.155.58l.025.044.038-.001c.069-.002.136-.005.204-.01l-.081-.14a.21.21 0 0 1 .077-.288.427.427 0 0 0 0-.739.21.21 0 0 1-.077-.29l.11-.18a.107.107 0 0 0 .001-.003.211.211 0 0 1 .29-.079.414.414 0 0 0 .205.058.107.107 0 0 0 .001 0 .428.428 0 0 0 .427-.42.107.107 0 0 0 0-.001.107.107 0 0 0 0-.001.107.107 0 0 0 0-.001.21.21 0 0 1 .211-.212h.21a.213.213 0 0 1 .212.219.107.107 0 0 0 0 .004.425.425 0 0 0 .639.358.21.21 0 0 1 .1-.026c.016-.07.03-.14.042-.211a.428.428 0 0 0-.247.051.107.107 0 0 0-.002 0 .211.211 0 0 1-.29-.075.198.198 0 0 1-.027-.1.427.427 0 0 0-.427-.434h-.21Zm.106 1.07a.644.644 0 0 0-.643.643c0 .27.168.501.405.596l.025-.008c.353-.13.638-.333.854-.61a.644.644 0 0 0-.641-.62Zm0 .215c.237 0 .427.19.427.428s-.19.428-.427.428a.427.427 0 0 1-.429-.428c0-.238.19-.428.429-.428z" style="fill:#fff;fill-opacity:1;fill-rule:evenodd;stroke-width:.12494;paint-order:fill markers stroke"/></svg>