<svg xmlns="http://www.w3.org/2000/svg" xml:space="preserve" width="24" height="24"><defs><linearGradient id="a" x1="12" x2="12" y1="1" y2="23" gradientUnits="userSpaceOnUse"><stop stop-color="#33BEF0"/><stop offset="1" stop-color="#0A85D9"/></linearGradient></defs><path fill="url(#a)" fill-rule="evenodd" d="M9.596 1.114c.12 0 .234-.014.344-.046a31.627 31.627 0 0 1 4.307.011c1.301.102 2.561.384 3.78.847 2.025.834 3.412 2.28 4.158 4.34.427 1.24.679 2.514.756 3.824a27.94 27.94 0 0 1-.115 4.923 11.88 11.88 0 0 1-.893 3.32c-.85 1.843-2.229 3.114-4.135 3.813a15.625 15.625 0 0 1-4.766.825 21.423 21.423 0 0 1-5.452-.413c-3.312-.737-5.354-2.756-6.128-6.056a19.047 19.047 0 0 1-.447-4.511 18.491 18.491 0 0 1 .515-4.786c.812-3.086 2.77-4.998 5.877-5.737a13.954 13.954 0 0 1 2.199-.354z" clip-rule="evenodd" style="fill:url(#a)"/><path fill="#fff" d="M12 4c-.291 0-.583.111-.807.335l-2.45 2.451v6.517l6.515-6.517-2.451-2.451A1.137 1.137 0 0 0 12 4Zm5.214 4.742L13.955 12l3.259 3.258 2.451-2.451a1.139 1.139 0 0 0 0-1.614zm-11.08.652-1.8 1.799a1.139 1.139 0 0 0 0 1.614l1.8 1.8V9.392ZM12 13.954l-3.258 3.26 2.451 2.45a1.139 1.139 0 0 0 1.614 0l2.451-2.45z" style="stroke-width:.448269"/></svg>