<svg xmlns="http://www.w3.org/2000/svg" xmlns:xlink="http://www.w3.org/1999/xlink" width="24" height="24" viewBox="0 0 6.35 6.35"><defs><radialGradient id="a" cx="0" cy="0" r="1" fx="0" fy="0" gradientTransform="rotate(90 1.455 1.72) scale(5.82072)" gradientUnits="userSpaceOnUse" spreadMethod="pad"><stop offset="0" style="stop-color:#fff;stop-opacity:1"/><stop offset="1" style="stop-color:#edeeef;stop-opacity:1"/></radialGradient><radialGradient xlink:href="#a" id="b" cx="0" cy="0" r="1" fx="0" fy="0" gradientTransform="matrix(0 5.51073 -5.51073 0 3.175 .42)" gradientUnits="userSpaceOnUse" spreadMethod="pad"/></defs><path d="M2.538.295A.335.335 0 0 0 2.63.283c.38-.025.76-.024 1.14.002a3.62 3.62 0 0 1 1 .225c.536.22.903.603 1.101 1.148.112.328.18.665.2 1.011.028.436.018.87-.03 1.304a3.166 3.166 0 0 1-.237.878c-.225.487-.59.824-1.094 1.008a4.125 4.125 0 0 1-1.261.218 5.643 5.643 0 0 1-1.443-.109C1.13 5.774.588 5.24.385 4.366a5.025 5.025 0 0 1-.12-1.194c-.009-.427.036-.85.137-1.266C.617 1.09 1.135.584 1.957.389c.191-.047.386-.079.581-.094Z" style="fill:#8d9f9d;fill-rule:evenodd;stroke:none;stroke-width:.352683;stroke-dasharray:none;fill-opacity:.50196081"/><path d="M2.572.448c.03 0 .059-.004.086-.011a7.97 7.97 0 0 1 1.08.002c.325.026.64.097.946.213a1.79 1.79 0 0 1 1.043 1.086c.105.311.17.63.189.958a7.09 7.09 0 0 1-.029 1.234c-.035.289-.11.565-.224.831-.213.462-.559.78-1.036.955-.386.13-.784.2-1.194.207-.46.024-.914-.011-1.366-.104C1.24 5.635.727 5.13.533 4.302a4.757 4.757 0 0 1-.112-1.13A4.636 4.636 0 0 1 .55 1.973c.203-.772.694-1.25 1.472-1.436a3.43 3.43 0 0 1 .55-.089Z" style="fill:url(#b);fill-rule:evenodd;stroke:none;stroke-width:.3339;stroke-dasharray:none"/><path d="M.337 4.127c.014.08.03.16.047.239.204.873.746 1.408 1.621 1.602.477.098.957.135 1.442.109.433-.007.854-.08 1.262-.218.504-.185.869-.52 1.094-1.008.1-.234.171-.475.214-.724H.337z" style="stroke-width:.399413;fill:#d6dadc;fill-opacity:1"/><path fill="#aeaeae" d="M1.39 1.964h.267v.133H1.39Zm.4 0h.399v.133h-.4Zm.532 0h.665v.133h-.665Zm-.931.266h.532v.133H1.39Zm.665 0h.266v.133h-.266Zm-.665.532h.266v.133H1.39Zm.399 0h.399v.133h-.4Zm-.4.266h.267v.133H1.39Zm.4 0h.665v.133H1.79Zm.798 0h.398v.133h-.398ZM1.39 3.56h.798v.133H1.39Zm.93 0h.4v.133h-.4Zm-.93.266h.665v.133H1.39Zm.798 0h.665v.133h-.665Zm1.197-1.862h.265v.133h-.265Zm.399 0h.398v.133h-.398Zm.531 0h.665v.133h-.665Zm-.93.266h.532v.133h-.532Zm.664 0h.266v.133H4.05Zm-.664.532h.265v.133h-.265Zm0 .266h.265v.133h-.265Zm.399 0h.665v.133h-.665Zm.797 0h.4v.133h-.4Zm-1.196.532h.797v.133h-.797Zm0 .266h.664v.133h-.664Zm.797 0h.665v.133h-.665Z" style="stroke-width:.372281"/><path fill="#286da8" d="M1.381 1.422v.198h1.675v-.198Zm2.792 2.926-.93.532.93.537v-.272h1.33v-.531h-1.33Z" style="stroke-width:.372281"/><path fill="#12b78c" d="M3.396 1.422v.198h1.728v-.198ZM2.332 4.614v.266h-1.33v.531h1.33v.272l.93-.537Z" style="stroke-width:.372281"/></svg>