<svg xmlns="http://www.w3.org/2000/svg" width="24" height="24" viewBox="0 0 6.35 6.35"><defs><radialGradient id="a" cx="0" cy="0" r="1" fx="0" fy="0" gradientTransform="rotate(90 1.455 1.72) scale(5.82072)" gradientUnits="userSpaceOnUse" spreadMethod="pad"><stop offset="0" style="stop-opacity:1;stop-color:#8fc8ff"/><stop offset="1" style="stop-color:#359cf3;stop-opacity:1"/></radialGradient></defs><path d="M2.538.295A.335.335 0 0 0 2.63.283c.38-.025.76-.024 1.14.002a3.62 3.62 0 0 1 1 .225c.536.22.903.603 1.101 1.148.112.328.18.665.2 1.011.028.436.018.87-.03 1.304a3.166 3.166 0 0 1-.237.878c-.225.487-.59.824-1.094 1.008a4.125 4.125 0 0 1-1.261.218 5.644 5.644 0 0 1-1.443-.109C1.13 5.774.588 5.24.385 4.366a5.025 5.025 0 0 1-.12-1.194c-.009-.427.036-.85.137-1.266C.617 1.09 1.135.584 1.957.389c.191-.047.386-.079.581-.094Z" style="fill:url(#a);fill-rule:evenodd;stroke:none;stroke-width:.352771"/><path fill="#fff" d="M1.886 1.455a.024.024 0 0 0-.014.004l-.125.126a.02.02 0 0 0 0 .027l.174.175-.05.048a.031.031 0 0 0-.003.041l.309.51a1.284 1.284 0 0 0-.121.282l-.573.121c-.016.003-.027.016-.027.032v.373c0 .014.011.027.027.031l.555.134c.028.116.073.226.13.327l-.323.488c-.009.013-.006.032.005.044l.26.26c.01.012.03.013.044.005l.502-.305c.094.055.196.1.304.13l.116.56c.004.015.016.027.032.027h.37c.017 0 .03-.012.033-.028l.138-.554c.115-.03.221-.072.322-.13l.488.313a.032.032 0 0 0 .04-.004l.068-.067.17.17c.007.006.021.006.027 0l.125-.126a.016.016 0 0 0 0-.022l-.17-.17.04-.045c.011-.01.017-.027.01-.04L4.46 3.69c.033-.06.065-.127.09-.193a.022.022 0 0 0 0-.013.022.022 0 0 0-.014-.01l-.157-.04h-.004a1.125 1.125 0 0 0 .072-.389 1.125 1.125 0 0 0-1.522-1.052c-.01-.055-.024-.114-.036-.17-.001-.005-.005-.006-.01-.009-.004-.003-.008-.003-.013 0a1.162 1.162 0 0 0-.188.085c-.157-.112-.335-.223-.501-.331a.037.037 0 0 0-.045.004l-.058.063-.18-.174c-.003-.004-.004-.005-.008-.005m1.49.546c.195.013.376.079.528.183-.037-.004-.076-.01-.098-.031h-.01a.183.183 0 0 1-.08.027l-.045.062-.053.045c-.01.021.003.052.008.072l.058-.027c.009.028.029.034.05.05.033-.064.005-.124.085-.157l-.036.049.01.036.004-.045c.014.05-.004.12-.058.139L3.685 2.4v-.035c-.032.006-.031.026-.022.053-.022-.006-.034-.007-.05.01-.017-.018-.033-.03-.036-.055a.05.05 0 0 1-.018-.035l-.035-.004.013.089c-.004-.008-.009-.009-.013-.014l.009.063.049-.01c-.014.015-.026.015-.045.015l.009.018h-.031l.04.067c-.091 0-.093.045-.09.121.018.002.028.005.04.018.075-.039.092-.111.18-.134.014.044.058.045.044.098.044-.01.055-.047.027-.08.037.021.047.063.072.098.018-.024.012-.045.04-.063v.013c.048.043.08.052.139.072-.02.03-.042.06-.08.058-.048-.003-.111-.05-.144.005l-.09-.072c-.05-.021-.096.001-.147-.004l-.022.009.009.004c-.103.046-.16.168-.17.269l-.018.067a.363.363 0 0 0 .111.179c.033.032.059-.031.09 0 .041-.015.101-.044.139 0 .025.028 0 .054.009.086.015.052.049.116.049.174l-.014.14c.013.085.063.157.063.246a.258.258 0 0 0 .184-.103l.013-.05.028-.035-.01-.054c.017-.04.08-.043.09-.085.013-.057-.02-.124 0-.183.032-.094.123-.157.125-.26l-.067.004c.06-.075.186-.112.12-.224l-.026.032h-.014c-.02-.045-.053-.047-.053-.104.052.045.106.045.156.099a.037.037 0 0 0 .018-.023 1.074 1.074 0 0 1-1.052 1.28 1.07 1.07 0 0 1-.94-.57c-.032-.062-.063-.133-.09-.192-.058-.17-.044-.378-.044-.394 0-.008.007-.02.014-.03.004-.044.013-.085.022-.126a.015.015 0 0 1-.005-.01l.014-.04a.395.395 0 0 0-.01.05.66.66 0 0 0-.008.09c-.003.043.035.06.054.093l.002.063.016-.058.12.05.085.08.072.01c-.026.057-.077.153-.067.218.005.038.045.09.067.121.03.043.087.07.103.125l.004.09.019.067c-.004.028-.032.077-.014.103.019.029.092.063.125.072.032.009.036-.02.023-.04l.038-.058.054-.04.036-.126.08-.053c.033-.049.006-.09.019-.139l.053-.148c-.06-.022-.145-.052-.188-.102l-.014.004-.009-.05-.067-.031-.013.01-.014-.077-.09-.01-.066-.035c-.03-.004-.07.044-.081.067l-.036-.009.01-.01-.032-.02.004.02c-.024-.024-.028-.055-.022-.089l-.04-.018-.005.018c-.007-.027-.003-.064.018-.085-.03-.02-.055-.001-.076.022l-.044-.089c-.013.027-.007.056-.005.085h-.01c-.001-.03-.01-.064.005-.094.03-.055.12-.078.175-.067l-.009.01.054.044c0-.086.033-.094.08-.157l.032-.058a.375.375 0 0 1 .143-.085l.063-.04c-.02-.034-.074-.025-.108-.022.06-.034.142-.014.184-.076-.046-.033-.045-.12-.117-.085l.009-.032-.058-.031-.045.094-.062.075-.005-.04c-.023-.01-.088-.032-.09-.063-.001-.032.1-.082.126-.103l-.009.027.045-.003c.009-.006.096-.126.107-.05.06.022.064.047.125.009l-.035-.018c-.006-.055-.057-.054-.104-.054l.148-.067c.017.04.065.048.08.085.013.026-.022.038-.022.063.002.03.031.072.045.099l.085-.094c.047-.024.12-.027.157-.067.043-.047.02-.12.099-.12-.017-.008-.04-.013-.054 0l-.018-.014h.022m.108.374c-.012-.012-.022-.018-.044-.013l.018.067.018-.01-.014-.003" style="stroke-width:1"/></svg>