<svg xmlns="http://www.w3.org/2000/svg" xml:space="preserve" width="24" height="24" viewBox="0 0 6.35 6.35"><defs><radialGradient id="a" cx="0" cy="0" r="1" fx="0" fy="0" gradientTransform="rotate(90 1.455 1.72) scale(5.82072)" gradientUnits="userSpaceOnUse" spreadMethod="pad"><stop offset="0" style="stop-color:#fff;stop-opacity:.40000001"/><stop offset="1" style="stop-color:gray;stop-opacity:0"/></radialGradient></defs><path d="m4.73.496-4.085.915a.423.423 0 0 0-.066.022c-.072.145-.131.302-.176.473-.101.416-.147.838-.137 1.266-.008.403.032.8.119 1.194.203.873.745 1.408 1.62 1.602.477.098.958.135 1.443.11.432-.008.853-.08 1.26-.219.505-.184.87-.52 1.095-1.008.121-.282.2-.574.237-.878.048-.434.058-.868.03-1.304a3.853 3.853 0 0 0-.2-1.011A1.891 1.891 0 0 0 4.73.496z" style="fill:#6b328f;fill-opacity:1;fill-rule:nonzero;stroke:none;stroke-width:.352771"/><path d="M3.797.288 1.12.77c-.348.268-.588.645-.717 1.136-.101.416-.147.838-.137 1.266-.008.403.032.8.119 1.194.203.873.745 1.408 1.62 1.602.334.068.668.106 1.006.114 1.52-.793 2.558-2.126 3.033-3.687a4.034 4.034 0 0 0-.174-.737A1.891 1.891 0 0 0 4.77.51a3.576 3.576 0 0 0-.973-.222Z" style="fill:#2b70c3;fill-opacity:1;fill-rule:evenodd;stroke:none;stroke-width:.352771"/><path d="M3.2.265a8.8 8.8 0 0 0-.57.018.336.336 0 0 1-.092.012 3.68 3.68 0 0 0-.209.023L1.334.63C.868.896.557 1.32.403 1.906c-.101.416-.147.838-.137 1.266-.008.403.032.8.119 1.194.057.245.141.463.252.654 2.26-.258 4.12-2.173 4.118-4.444V.504a3.657 3.657 0 0 0-.986-.219c-.19-.013-.38-.02-.57-.02Z" style="fill:#49bf5d;fill-opacity:1;fill-rule:evenodd;stroke:none;stroke-width:.352771"/><path d="M3.119.266a8.352 8.352 0 0 0-.49.017.336.336 0 0 1-.09.012c-.196.015-.39.047-.582.094C1.136.584.617 1.09.403 1.906c-.101.416-.147.838-.137 1.266-.003.086-.001.17.001.255C1.871 3.271 3.121 2.01 3.121.391L3.12.266z" style="fill:#ffb328;fill-opacity:1;fill-rule:evenodd;stroke:none;stroke-width:.352771"/><path d="m2.021.374-.064.015C1.136.584.617 1.09.403 1.906a4.812 4.812 0 0 0-.071.343c.87-.267 1.549-.97 1.69-1.875Z" style="fill:#e84e3f;fill-opacity:1;fill-rule:evenodd;stroke:none;stroke-width:.352771"/><path d="M2.538.295A.335.335 0 0 0 2.63.283c.38-.025.76-.024 1.14.002a3.62 3.62 0 0 1 1 .225c.536.22.903.603 1.101 1.148.112.328.18.665.2 1.011.028.436.018.87-.03 1.304a3.166 3.166 0 0 1-.237.878c-.225.487-.59.824-1.094 1.008a4.125 4.125 0 0 1-1.261.218 5.644 5.644 0 0 1-1.443-.109C1.13 5.774.588 5.24.385 4.366a5.025 5.025 0 0 1-.12-1.194c-.009-.427.036-.85.137-1.266C.617 1.09 1.135.584 1.957.389c.191-.047.386-.079.581-.094Z" style="fill:url(#a);fill-rule:evenodd;stroke:none;stroke-width:.352771"/><path d="M1.632 1.852v.32l.245.018.041.056-.408 1.86-.062.058-.257.018v.316h1.102v-.316l-.226-.016-.043-.06.166-.71h.255l.366.669c.15.296.255.423.577.427.094.002.132.009.382 0 .866-.695 1.307-1.285 1.377-1.525.043-.145-.025-.234-.168-.234a.46.46 0 0 0-.241.086l-.065.557a5.793 5.793 0 0 1-.701.72l.252-1.017c.038-.196.052-.3-.08-.34l-.59.124-.032.107.273.04c.018.069-.063.275-.105.501l-.132.703a.117.117 0 0 0-.006.024c-.085-.045-.139-.125-.202-.245l-.517-.93.946-.854.278-.03v-.327H2.955v.327l.385.018.025.063-.999.805h-.12l.185-.819.052-.056.251-.018v-.32Z" style="fill:#fff;fill-opacity:1;fill-rule:nonzero;stroke:none;stroke-width:.352771"/></svg>