<svg xmlns="http://www.w3.org/2000/svg" width="24" height="24"><defs><radialGradient id="a" cx="0" cy="0" r="1" fx="0" fy="0" gradientTransform="matrix(0 22 -22 0 12 1)" gradientUnits="userSpaceOnUse" spreadMethod="pad"><stop offset="0" style="stop-color:#4db6ac;stop-opacity:1"/><stop offset="1" style="stop-color:#439e95;stop-opacity:1"/></radialGradient></defs><path d="M9.593 1.115c.12 0 .235-.016.344-.047a31.815 31.815 0 0 1 4.308.01 13.68 13.68 0 0 1 3.781.849c2.026.833 3.41 2.281 4.162 4.338.42 1.24.676 2.516.754 3.823a28.305 28.305 0 0 1-.114 4.928 11.967 11.967 0 0 1-.896 3.317c-.85 1.844-2.23 3.115-4.135 3.812-1.543.522-3.13.798-4.767.824a21.33 21.33 0 0 1-5.452-.412c-3.308-.734-5.354-2.754-6.125-6.057a18.992 18.992 0 0 1-.448-4.51 18.506 18.506 0 0 1 .516-4.787c.812-3.083 2.77-4.995 5.875-5.734a13.692 13.692 0 0 1 2.197-.354Z" style="fill:url(#a);fill-rule:evenodd;stroke:none;stroke-width:1.333;stroke-dasharray:none"/><path d="m16.35 1.388-.105 3.957c-.055 2.07 1.65 3.782 3.822 3.84l2.823.076a14.795 14.795 0 0 0-.573-2.773c-.696-2.087-2.043-3.58-4.045-4.473a13.586 13.586 0 0 0-1.922-.627Z" style="opacity:.727273;mix-blend-mode:normal;fill:#f8f9f9;fill-opacity:1;stroke-width:2.41125;paint-order:stroke fill markers"/><path fill="#fafafa" d="M5.583 17.5v-.917h9.167v.917zm0-2.75v-.917h12.834v.917zm0-2.75v-.917h12.834V12zm0-2.75v-.917h12.834v.917z" style="fill:#e0f2f1;fill-opacity:1"/><rect width="15.37" height="3.416" x="5.231" y="12.626" fill="#ffb74d" rx=".683" ry=".683" style="stroke-width:.341565"/><path fill="#f57c00" d="M6.25 14.641v1.025h.341V14.64zm2.045 0v1.025h.34V14.64zm2.045 0v1.025h.34V14.64zm2.045 0v1.025h.34V14.64zm2.045 0v1.025h.341V14.64zm2.045 0v1.025h.341V14.64zm2.045 0v1.025h.341V14.64Zm-11.248.342v.683h.341v-.683zm2.045 0v.683h.341v-.683zm2.046 0v.683h.34v-.683zm2.045 0v.683h.34v-.683zm2.045 0v.683h.34v-.683zm2.045 0v.683h.34v-.683z" style="stroke-width:.341565"/><path fill="#37474f" fill-rule="evenodd" d="M16.134 17.75v-2.733h-.681l1.022-1.367 1.023 1.367h-.682v2.732z" style="stroke-width:.341565"/><path fill="#37474f" d="M16.475 18.774a.682.683 0 0 1-.682-.683.682.683 0 0 1 .682-.683.682.683 0 0 1 .682.683.682.683 0 0 1-.682.683zm0-.342a.34.342 0 0 0 .341-.341.34.342 0 0 0-.34-.342.34.342 0 0 0-.342.342.34.342 0 0 0 .341.341z" style="stroke-width:.341565"/><path d="M5.565 6.432v-.916h3.886v.916z" style="fill:#e0f2f1;fill-opacity:1;stroke-width:.651031"/></svg>