<?xml version="1.0" encoding="UTF-8" standalone="no"?>
<svg
   width="24"
   height="24"
   fill="none"
   version="1.1"
   id="svg4"
   sodipodi:docname="xfsm-shutdown.svg"
   inkscape:version="1.3 (0e150ed6c4, 2023-07-21)"
   xmlns:inkscape="http://www.inkscape.org/namespaces/inkscape"
   xmlns:sodipodi="http://sodipodi.sourceforge.net/DTD/sodipodi-0.dtd"
   xmlns:xlink="http://www.w3.org/1999/xlink"
   xmlns="http://www.w3.org/2000/svg"
   xmlns:svg="http://www.w3.org/2000/svg">
  <sodipodi:namedview
     id="namedview4"
     pagecolor="#ffffff"
     bordercolor="#000000"
     borderopacity="0.25"
     inkscape:showpageshadow="2"
     inkscape:pageopacity="0.0"
     inkscape:pagecheckerboard="0"
     inkscape:deskcolor="#d1d1d1"
     inkscape:zoom="12.010417"
     inkscape:cx="3.3304422"
     inkscape:cy="-2.289679"
     inkscape:window-width="3440"
     inkscape:window-height="1358"
     inkscape:window-x="2560"
     inkscape:window-y="0"
     inkscape:window-maximized="1"
     inkscape:current-layer="svg4" />
  <path
     d="M 12,1.0000001 C 1.9999999,1.0000001 0.99999995,5.9999999 0.99999995,12 0.99999995,20 3.9999999,23 12,23 20,23 23,20 23,12 23,6 22,1.0000001 12,1.0000001 Z"
     style="font-variation-settings:normal;display:inline;vector-effect:none;fill:url(#b);fill-opacity:1;stroke-width:1.11627;stroke-linecap:butt;stroke-linejoin:miter;stroke-miterlimit:4;stroke-dasharray:none;stroke-dashoffset:0;stroke-opacity:1;-inkscape-stroke:none;stop-color:#000000"
     id="path2-5" />
  <path
     id="path1"
     style="fill:url(#a);stroke-width:0.999999"
     d="M 11.459348,5.5000004 V 10.37561 h 1.081305 V 5.5000004 h -0.540652 z m 1.624393,0.092544 V 6.1453732 A 5.957315,5.957315 0 0 1 17.956914,12.000001 5.957315,5.957315 0 0 1 12.000001,17.956914 5.957315,5.957315 0 0 1 6.0430877,12.000001 5.957315,5.957315 0 0 1 10.916262,6.1453732 V 5.5998505 A 6.4988892,6.4988892 0 0 0 5.5000005,12.000001 6.4988892,6.4988892 0 0 0 12.000001,18.5 6.4988892,6.4988892 0 0 0 18.5,12.000001 6.4988892,6.4988892 0 0 0 13.083741,5.5925444 Z" />
  <defs
     id="defs4">
    <radialGradient
       id="a"
       cx="0"
       cy="0"
       r="1"
       gradientTransform="matrix(0.03270163,27.553886,-27.553886,0.03270163,11.9689,-1.8381166)"
       gradientUnits="userSpaceOnUse">
      <stop
         stop-color="#F55"
         id="stop3" />
      <stop
         offset="1"
         stop-color="#972626"
         id="stop4" />
    </radialGradient>
    <linearGradient
       xlink:href="#a-6"
       id="b"
       x1="57.159"
       x2="58.181999"
       y1="115.199"
       y2="-26.193001"
       gradientTransform="matrix(0.24444,0,0,0.24444,-0.22200005,-0.22199995)"
       gradientUnits="userSpaceOnUse" />
    <linearGradient
       id="a-6">
      <stop
         offset="0"
         style="stop-color:#d9d9d9;stop-opacity:1"
         id="stop1" />
      <stop
         offset="1"
         style="stop-color:#fff;stop-opacity:1"
         id="stop2-7" />
    </linearGradient>
  </defs>
</svg>
