<svg width="256" height="256" viewBox="0 0 256 256" fill="none" xmlns="http://www.w3.org/2000/svg">
<path fill-rule="evenodd" clip-rule="evenodd" d="M100.027 1.32176C101.421 1.33661 102.754 1.15896 104.025 0.788843C120.733 -0.305617 137.439 -0.261225 154.144 0.922073C169.291 2.10225 183.953 5.38862 198.131 10.7811C221.702 20.4851 237.831 37.3166 246.517 61.2754C251.484 75.7002 254.417 90.5333 255.314 105.774C256.556 124.913 256.112 144.01 253.981 163.063C252.387 176.456 248.921 189.335 243.584 201.7C233.686 223.14 217.647 237.928 195.465 246.066C177.491 252.139 159.007 255.337 140.015 255.658C118.652 256.769 97.5026 255.171 76.5669 250.862C38.0322 242.278 14.2614 218.785 5.25472 180.383C1.43259 163.097 -0.300228 145.599 0.0562535 127.891C-0.370314 109.061 1.6291 90.4971 6.05448 72.2003C15.4963 36.2947 38.2895 14.0452 74.4342 5.4519C82.8566 3.39283 91.3874 2.01611 100.027 1.32176Z" fill="#FF5555"/>
<path d="M138.085 52.3993H117.923V128.013H138.103" fill="white"/>
<path d="M107.85 54.9352C91.9234 59.3846 77.8866 68.9163 67.8766 82.0792C57.8666 95.2421 52.4317 111.315 52.3993 127.852C52.3993 169.338 86.2413 203.608 128.013 203.608C169.766 203.608 203.608 169.32 203.608 127.852C203.577 111.318 198.144 95.2462 188.138 82.0836C178.131 68.921 164.099 59.3879 148.175 54.9352V74.4547C158.913 78.672 168.137 86.0168 174.651 95.5374C181.166 105.058 184.672 116.316 184.714 127.852C184.714 159.676 159.301 185.178 128.013 185.178C96.7422 185.178 71.3115 159.658 71.3115 127.852C71.2307 116.25 74.6832 104.898 81.2099 95.3058C87.7367 85.7134 97.0286 78.3348 107.85 74.1511" fill="white"/>
</svg>
