<svg width="24" height="24" viewBox="0 0 24 24" fill="none" xmlns="http://www.w3.org/2000/svg">
<rect width="24" height="24" fill="#A4A4A4" fill-opacity="0.01"/>
<g opacity="0.90">
<path fill-rule="evenodd" clip-rule="evenodd" d="M17.3047 17.3068C15.8455 18.7646 14.0762 19.4936 11.9969 19.4936C9.91759 19.4936 8.14936 18.7646 6.69219 17.3068C5.23502 15.8491 4.50644 14.0799 4.50644 11.9992C4.50644 10.9618 4.69957 9.99442 5.08584 9.09708C5.34211 8.50173 5.66828 7.95274 6.06435 7.45012C6.40177 7.02192 7.03167 7.02802 7.41944 7.41122L8.55814 8.53653C8.75302 8.72911 8.75412 9.04108 8.58468 9.25639C8.33324 9.57592 8.12635 9.92316 7.96404 10.2981C7.73622 10.8241 7.62232 11.3921 7.62232 12.0021C7.62232 13.2053 8.05305 14.2355 8.91451 15.0924C9.77597 15.9493 10.8075 16.3777 12.009 16.3777C13.2104 16.3777 14.2388 15.9485 15.0942 15.0901C15.9499 14.2318 16.3777 13.1971 16.3777 11.9861C16.3777 11.3804 16.2661 10.8157 16.0429 10.2919C15.8836 9.91812 15.6806 9.57207 15.4339 9.25378C15.2677 9.03932 15.269 8.73103 15.4608 8.53915L16.5805 7.41946C16.9677 7.03234 17.6007 7.02442 17.9393 7.4547C18.3337 7.95608 18.6587 8.50354 18.9142 9.09708C19.3004 9.99442 19.4936 10.9618 19.4936 11.9992C19.4936 14.0799 18.764 15.8491 17.3047 17.3068ZM10.9989 12C10.5847 12 10.2489 11.6642 10.2489 11.25V5.25644C10.2489 4.84222 10.5847 4.50644 10.9989 4.50644H13.0011C13.4153 4.50644 13.7511 4.84222 13.7511 5.25644V11.25C13.7511 11.6642 13.4153 12 13.0011 12H10.9989Z" fill="#ffffff"/>
</g>
<path fill-rule="evenodd" clip-rule="evenodd" d="M17.3047 17.3068C15.8455 18.7646 14.0762 19.4936 11.9969 19.4936C9.91759 19.4936 8.14936 18.7646 6.69219 17.3068C5.23502 15.8491 4.50644 14.0799 4.50644 11.9992C4.50644 10.9618 4.69957 9.99442 5.08584 9.09708C5.34211 8.50173 5.66828 7.95274 6.06435 7.45012C6.40177 7.02192 7.03167 7.02802 7.41944 7.41122L8.55814 8.53653C8.75302 8.72911 8.75412 9.04108 8.58468 9.25639C8.33324 9.57592 8.12635 9.92316 7.96404 10.2981C7.73622 10.8241 7.62232 11.3921 7.62232 12.0021C7.62232 13.2053 8.05305 14.2355 8.91451 15.0924C9.77597 15.9493 10.8075 16.3777 12.009 16.3777C13.2104 16.3777 14.2388 15.9485 15.0942 15.0901C15.9499 14.2318 16.3777 13.1971 16.3777 11.9861C16.3777 11.3804 16.2661 10.8157 16.0429 10.2919C15.8836 9.91812 15.6806 9.57207 15.4339 9.25378C15.2677 9.03932 15.269 8.73103 15.4608 8.53915L16.5805 7.41946C16.9677 7.03234 17.6007 7.02442 17.9393 7.4547C18.3337 7.95608 18.6587 8.50354 18.9142 9.09708C19.3004 9.99442 19.4936 10.9618 19.4936 11.9992C19.4936 14.0799 18.764 15.8491 17.3047 17.3068ZM10.9989 12C10.5847 12 10.2489 11.6642 10.2489 11.25V5.25644C10.2489 4.84222 10.5847 4.50644 10.9989 4.50644H13.0011C13.4153 4.50644 13.7511 4.84222 13.7511 5.25644V11.25C13.7511 11.6642 13.4153 12 13.0011 12H10.9989Z" fill="url(#paint0_radial_109_26)"/>
<g opacity="0.90">
<path d="M11.9941 24C10.3328 24 8.77657 23.6864 7.32541 23.0591C5.87408 22.4316 4.60446 21.5746 3.51657 20.4881C2.42867 19.4017 1.57056 18.1319 0.942232 16.6787C0.314077 15.2255 0 13.6661 0 12.0005C0 10.3349 0.312876 8.77631 0.938627 7.32464C1.56421 5.87279 2.4218 4.60326 3.51142 3.51605C4.60103 2.42884 5.87382 1.57107 7.32979 0.942746C8.78592 0.314249 10.3403 0 11.993 0C13.6578 0 15.2197 0.312361 16.6787 0.937082C18.1378 1.56197 19.41 2.41665 20.4955 3.50112C21.581 4.58575 22.4365 5.85888 23.0619 7.32052C23.6873 8.78215 24 10.3439 24 12.0059C24 13.6672 23.6865 15.2234 23.0596 16.6746C22.4324 18.1259 21.577 19.396 20.4932 20.4847C19.4094 21.5736 18.1372 22.4318 16.6764 23.0591C15.2156 23.6864 13.6548 24 11.9941 24ZM11.9969 19.4936C14.0762 19.4936 15.8455 18.7646 17.3047 17.3068C18.7639 15.8491 19.4936 14.0799 19.4936 11.9992C19.4936 10.9618 19.3004 9.99442 18.9142 9.09708C18.6587 8.50354 18.3337 7.95608 17.9393 7.45469C17.6007 7.02442 16.9677 7.03234 16.5805 7.41946L15.4608 8.53916C15.269 8.73103 15.2677 9.03932 15.4339 9.25378C15.6806 9.57207 15.8836 9.91812 16.0429 10.2919C16.2661 10.8157 16.3777 11.3804 16.3777 11.9861C16.3777 13.1971 15.9499 14.2318 15.0942 15.0901C14.2388 15.9485 13.2104 16.3777 12.009 16.3777C10.8075 16.3777 9.77597 15.9493 8.91451 15.0924C8.05305 14.2354 7.62232 13.2053 7.62232 12.0021C7.62232 11.3921 7.73622 10.8241 7.96403 10.2981C8.12636 9.92316 8.33324 9.57592 8.58468 9.25639C8.75412 9.04108 8.75302 8.72911 8.55814 8.53653L7.41944 7.41122C7.03167 7.02802 6.40177 7.02192 6.06435 7.45012C5.66828 7.95275 5.34211 8.50173 5.08584 9.09708C4.69957 9.99442 4.50644 10.9618 4.50644 11.9992C4.50644 14.0799 5.23502 15.8491 6.69219 17.3068C8.14936 18.7646 9.9176 19.4936 11.9969 19.4936ZM10.2489 11.25C10.2489 11.6642 10.5847 12 10.9989 12H13.0011C13.4153 12 13.7511 11.6642 13.7511 11.25V5.25644C13.7511 4.84222 13.4153 4.50644 13.0011 4.50644H10.9989C10.5847 4.50644 10.2489 4.84222 10.2489 5.25644V11.25Z" fill="#ffffff"/>
</g>
<defs>
<radialGradient id="paint0_radial_109_26" cx="0" cy="0" r="1" gradientUnits="userSpaceOnUse" gradientTransform="translate(11.9809 3.9287) rotate(89.9321) scale(16.0713)">
<stop stop-color="#FF5555"/>
<stop offset="1" stop-color="#972626"/>
</radialGradient>
</defs>
</svg>
