<svg xmlns="http://www.w3.org/2000/svg" width="24" height="24" viewBox="0 0 6.35 6.35"><defs><radialGradient id="a" cx="0" cy="0" r="1" fx="0" fy="0" gradientTransform="matrix(0 16.5 -16.5 0 9 .75)" gradientUnits="userSpaceOnUse" spreadMethod="pad"><stop offset="0" style="stop-opacity:1;stop-color:#fafafa"/><stop offset="1" style="stop-opacity:1;stop-color:silver"/></radialGradient></defs><path d="M7.195.836c.09 0 .176-.012.258-.035a23.86 23.86 0 0 1 3.231.008 10.26 10.26 0 0 1 2.836.636c1.519.625 2.558 1.711 3.121 3.254.316.93.507 1.887.566 2.867a21.227 21.227 0 0 1-.086 3.696 8.976 8.976 0 0 1-.672 2.488c-.637 1.383-1.672 2.336-3.101 2.859a11.693 11.693 0 0 1-3.575.618 15.998 15.998 0 0 1-4.089-.309c-2.481-.551-4.016-2.066-4.594-4.543a14.244 14.244 0 0 1-.336-3.383c-.027-1.211.101-2.41.387-3.59.609-2.312 2.078-3.746 4.406-4.3A10.27 10.27 0 0 1 7.195.836Z" style="fill:url(#a);fill-rule:evenodd;stroke:none" transform="scale(.35277)"/><path fill="#2a7e98" d="M-19.858 7.437h12.171c.44 0 .794.358.794.802v8.558a.796.796 0 0 1-.794.803h-12.17a.792.8 0 0 1-.795-.803V8.24c0-.445.355-.802.794-.802z" opacity=".8" style="paint-order:markers stroke fill" transform="translate(6.618 .33) scale(.24998)"/><path d="M-18.535 5.165c-.586 0-1.058.472-1.058 1.058v2.178l5.82 4.208 5.821-4.208V6.223c0-.586-.472-1.058-1.058-1.058z" opacity=".03" style="stroke-width:.26458;paint-order:stroke fill markers" transform="translate(6.618 .33) scale(.24998)"/><path fill="#26a4ca" d="M-7.058 7.753a.788.797 0 0 1 .165.486v8.558a.796.796 0 0 1-.794.803h-12.17a.788.797 0 0 1-.53-.208z" opacity=".5" style="paint-order:markers stroke fill" transform="translate(6.618 .33) scale(.24998)"/><path fill="#fff" d="M-18.554 5.43a.788.788 0 0 0-.775.802v2.359l5.557 4.018 5.556-4.018V6.232a.788.788 0 0 0-.775-.802z" style="stroke-width:.26458;paint-order:markers stroke fill" transform="translate(6.618 .33) scale(.24998)"/><path fill="#49bde3" d="M-20.487 7.753a.788.797 0 0 0-.165.486v8.558c0 .445.355.803.794.803h12.171c.205 0 .39-.08.53-.208z" opacity=".8" style="paint-order:markers stroke fill" transform="translate(6.618 .33) scale(.24998)"/><path fill="#fff" d="M-20.487 7.754a.788.796 0 0 0-.033.045l13.317 9.628c.015-.012.032-.022.046-.035l-13.33-9.638Z" opacity=".15" style="stroke-width:.26458;paint-order:markers stroke fill" transform="translate(6.618 .33) scale(.24998)"/><path fill="#fff" d="M4.572 3.503a.198.198 0 0 1 0 .28l-.606.607a.264.264 0 0 1-.374 0 .264.264 0 0 1 0-.374l.606-.606.046.046-.606.607a.198.198 0 0 0 0 .28.198.198 0 0 0 .28 0l.607-.606a.132.132 0 1 0-.187-.187l-.606.606a.066.066 0 0 0 0 .094.066.066 0 0 0 .093 0l.56-.56.047.047-.56.56a.132.132 0 1 1-.187-.188l.606-.606a.198.198 0 0 1 .281 0" style="stroke-width:.999999"/></svg>