<svg xmlns="http://www.w3.org/2000/svg" xml:space="preserve" width="24" height="24" viewBox="0 0 6.35 6.35"><defs><radialGradient id="b" cx="24" cy="24" r="15" gradientTransform="matrix(.1323 0 0 .12348 0 .212)" gradientUnits="userSpaceOnUse"><stop offset="0" stop-color="#f2bc4e"/><stop offset="1" stop-color="#f1b741"/></radialGradient><radialGradient id="a" cx="0" cy="0" r="1" fx="0" fy="0" gradientTransform="matrix(0 16.50001 -16.50001 0 9 .75)" gradientUnits="userSpaceOnUse" spreadMethod="pad"><stop offset="0" style="stop-opacity:1;stop-color:#a3c3ee"/><stop offset="1" style="stop-opacity:1;stop-color:#5f8fd3"/></radialGradient></defs><path d="M7.195.836c.09 0 .176-.012.258-.035a23.86 23.86 0 0 1 3.231.008 10.26 10.26 0 0 1 2.836.636c1.519.625 2.558 1.711 3.121 3.254.316.93.507 1.887.566 2.867a21.227 21.227 0 0 1-.086 3.696 8.976 8.976 0 0 1-.672 2.488c-.637 1.383-1.672 2.336-3.101 2.859a11.693 11.693 0 0 1-3.575.618 15.998 15.998 0 0 1-4.089-.309c-2.481-.551-4.016-2.066-4.594-4.543a14.244 14.244 0 0 1-.336-3.383c-.027-1.215.101-2.41.387-3.59.609-2.312 2.078-3.746 4.406-4.3A10.27 10.27 0 0 1 7.195.836Z" style="fill:url(#a);fill-rule:evenodd;stroke:none" transform="scale(.35277)"/><ellipse cx="3.175" cy="3.175" fill="url(#b)" rx="1.985" ry="1.852" style="fill:url(#b);stroke-width:.425954"/><path fill="#f2f2f2" d="M2.608 2.9c.085.398.032.748-.205.798-.238.05-.427-.247-.511-.645-.084-.398-.045-.744.206-.798.251-.054.426.247.51.645Z" style="stroke-width:.425954"/><path fill="#ba6616" d="M4.762 3.836c-.926 1.237-2.778.905-3.175-.132.926.661 2.25.597 3.175.132Z" style="stroke-width:.425954"/><path fill="#f2f2f2" d="M3.741 2.9c-.084.398-.03.748.206.798.237.05.427-.247.51-.645.085-.398.046-.744-.205-.798-.252-.054-.426.247-.51.645Z" style="stroke-width:.425954"/><path fill="#4d8bd1" d="M2.522 3.06c.056.253.02.476-.138.508-.157.032-.284-.157-.34-.41-.056-.254-.03-.474.137-.509.168-.034.284.157.34.41Zm1.306 0c-.056.253-.02.476.138.508.157.032.284-.157.34-.41.056-.254.03-.474-.137-.509-.168-.034-.284.157-.34.41Z" style="stroke-width:.425954"/></svg>