<svg xmlns="http://www.w3.org/2000/svg" xmlns:xlink="http://www.w3.org/1999/xlink" xml:space="preserve" id="svg154" width="24" height="24" fill="none" version="1.1"><defs id="defs152"><linearGradient id="linearGradient18037"><stop id="stop18033" offset="0" style="stop-color:#f9d547;stop-opacity:1"/><stop id="stop18035" offset="1" style="stop-color:#feefb7;stop-opacity:1"/></linearGradient><linearGradient id="linearGradient1257"><stop id="stop1255" offset="0" style="stop-color:#000;stop-opacity:1"/></linearGradient><linearGradient xlink:href="#linearGradient18037" id="linearGradient18039" x1="50.266" x2="48.458" y1="92.753" y2="-4.153" gradientTransform="matrix(.24444 0 0 .24444 -.222 -.222)" gradientUnits="userSpaceOnUse"/><style id="current-color-scheme" type="text/css">.ColorScheme-Text{color:#31363b}.ColorScheme-Background{color:#eff0f1}.ColorScheme-Highlight{color:#3daee9}.ColorScheme-ViewText{color:#31363b}.ColorScheme-ViewBackground{color:#fcfcfc}.ColorScheme-ViewHover{color:#93cee9}.ColorScheme-ViewFocus{color:#3daee9}.ColorScheme-ButtonText{color:#31363b}.ColorScheme-ButtonBackground{color:#eff0f1}.ColorScheme-ButtonHover{color:#93cee9}.ColorScheme-ButtonFocus{color:#3daee9}</style></defs><path id="path6" d="M12 1C2 1 1 6 1 12c0 8 3 11 11 11s11-3 11-11c0-6-1-11-11-11Z" style="font-variation-settings:normal;display:inline;opacity:1;vector-effect:none;fill:url(#linearGradient18039);fill-opacity:1;stroke-width:1.11627;stroke-linecap:butt;stroke-linejoin:miter;stroke-miterlimit:4;stroke-dasharray:none;stroke-dashoffset:0;stroke-opacity:1;-inkscape-stroke:none;stop-color:#000;stop-opacity:1"/><g id="g8984" transform="translate(-77.24 -12.852) scale(.23568)"><path id="path6314" fill="#b545ab" d="m374.19 74.29-2.148 6.442a25.596 25.596 0 0 0-6.188 2.582l-6.096-3.047-6.299 6.299 3.043 6.086a25.596 25.596 0 0 0-2.555 6.189l-6.464 2.157v8.904l6.445 2.146a25.596 25.596 0 0 0 2.58 6.191l-3.045 6.096 6.299 6.3 6.086-3.043a25.596 25.596 0 0 0 6.19 2.556l2.156 6.463h8.904l2.148-6.444a25.596 25.596 0 0 0 6.189-2.583l6.095 3.047 6.299-6.298-3.043-6.086a25.596 25.596 0 0 0 2.556-6.19l6.463-2.155v-8.907l-6.444-2.149a25.596 25.596 0 0 0-2.58-6.19l3.046-6.094-6.3-6.298-6.087 3.043a25.596 25.596 0 0 0-6.188-2.556l-2.156-6.464zm4.452 13.353a17.806 17.806 0 0 1 17.804 17.807 17.806 17.806 0 0 1-17.804 17.804 17.806 17.806 0 0 1-17.805-17.804 17.806 17.806 0 0 1 17.803-17.805z" style="stroke-width:1.89602"/><path id="path6316" fill="#e44040" fill-rule="evenodd" d="M356.385 85.419h11.13l11.127 26.71 11.128-26.71h11.13l-15.582 35.613h-13.354z" style="stroke-width:1.89602"/></g></svg>