<svg xmlns="http://www.w3.org/2000/svg" xmlns:xlink="http://www.w3.org/1999/xlink" xml:space="preserve" width="24" height="24" viewBox="0 0 6.35 6.35"><defs><clipPath id="a" clipPathUnits="userSpaceOnUse"><path d="M21.166 1.411h6.35V6.35h-6.35z"/></clipPath><clipPath id="i" clipPathUnits="userSpaceOnUse"><path d="M0 0h19v19H0Z"/></clipPath><clipPath id="k" clipPathUnits="userSpaceOnUse"><path d="M0 0h19v19H0Z"/></clipPath><clipPath id="l" clipPathUnits="userSpaceOnUse"><path d="M0 0h19v19H0Z"/></clipPath><clipPath id="m" clipPathUnits="userSpaceOnUse"><path d="M0 0h19v19H0Z"/></clipPath><clipPath id="n" clipPathUnits="userSpaceOnUse"><path d="M0 0h19v19H0Z"/></clipPath><clipPath id="o" clipPathUnits="userSpaceOnUse"><path d="M0 0h19v19H0Z"/></clipPath><clipPath id="p" clipPathUnits="userSpaceOnUse"><path d="M0 0h19v19H0Z"/></clipPath><clipPath id="q" clipPathUnits="userSpaceOnUse"><path d="M0 0h19v19H0Z"/></clipPath><clipPath id="r" clipPathUnits="userSpaceOnUse"><path d="M0 0h19v19H0Z"/></clipPath><clipPath id="s" clipPathUnits="userSpaceOnUse"><path d="M0 0h19v19H0Z"/></clipPath><clipPath id="t" clipPathUnits="userSpaceOnUse"><path d="M0 0h19v19H0Z"/></clipPath><clipPath id="u" clipPathUnits="userSpaceOnUse"><path d="M0 0h19v19H0Z"/></clipPath><clipPath id="v" clipPathUnits="userSpaceOnUse"><path d="M0 0h19v19H0Z"/></clipPath><clipPath id="w" clipPathUnits="userSpaceOnUse"><path d="M0 0h19v19H0Z"/></clipPath><clipPath id="x" clipPathUnits="userSpaceOnUse"><path d="M0 0h19v19H0Z"/></clipPath><clipPath id="y" clipPathUnits="userSpaceOnUse"><path d="M0 0h19v19H0Z"/></clipPath><clipPath id="z" clipPathUnits="userSpaceOnUse"><path d="M0 0h19v19H0Z"/></clipPath><clipPath id="A" clipPathUnits="userSpaceOnUse"><path d="M0 0h19v19H0Z"/></clipPath><clipPath id="B" clipPathUnits="userSpaceOnUse"><path d="M0 0h19v19H0Z"/></clipPath><clipPath id="C" clipPathUnits="userSpaceOnUse"><path d="M0 0h19v19H0Z"/></clipPath><clipPath id="e" clipPathUnits="userSpaceOnUse"><path d="M0 0h19v19H0Z"/></clipPath><clipPath id="f" clipPathUnits="userSpaceOnUse"><path d="M2.82 4.293c-.66 0-1.238.32-1.593.812a5.654 5.654 0 0 0-.086.297C.98 6.055.871 6.715.809 7.375c0 .016 0 .027-.004.043v.047a4.52 4.52 0 0 0-.024.328c-.004.019-.004.035-.008.055v.047c0 .011-.003.023-.003.035-.004.082-.008.164-.008.246-.004.066-.004.136-.008.203v.023c0 .043 0 .086-.004.133V8.742c.004.082.004.164.004.25 0 .07-.004.141-.004.211v.004c0 1.055.113 2.102.34 3.133.277 1.176.765 2.137 1.472 2.875h-.007c.777.824 1.824 1.379 3.129 1.672 1.074.218 2.152.332 3.242.332h.008c.281 0 .562-.008.839-.024a11.702 11.702 0 0 0 2.922-.422c.145-.039.293-.082.438-.128.07-.024.144-.043.215-.067.007-.004.019-.008.027-.016a5.386 5.386 0 0 0 2.078-1.347 5.56 5.56 0 0 0 1-1.5 8.832 8.832 0 0 0 .668-2.488c.067-.582.106-1.165.121-1.747.004-.085.004-.171.008-.257V8.926a22.9 22.9 0 0 0-.043-1.36 10.894 10.894 0 0 0-.441-2.476 1.973 1.973 0 0 0-1.59-.797Z"/></clipPath><clipPath id="c" clipPathUnits="userSpaceOnUse"><path d="M21.166 1.411h6.35V6.35h-6.35z"/></clipPath><linearGradient id="d"><stop offset="0" style="stop-color:#000;stop-opacity:1"/><stop offset="1" style="stop-color:#000;stop-opacity:.5"/></linearGradient><linearGradient id="j" x1="23" x2="1" y1="1" y2="12" gradientTransform="scale(.75)" gradientUnits="userSpaceOnUse" spreadMethod="pad"><stop offset="0" style="stop-opacity:1;stop-color:#bd7b3e"/><stop offset="1" style="stop-opacity:1;stop-color:#a96a30"/></linearGradient><linearGradient id="D" x1="23" x2="1.429" y1="5.4" y2="23.511" gradientTransform="matrix(.75 0 0 .75 -.001 -.032)" gradientUnits="userSpaceOnUse" spreadMethod="pad"><stop offset="0" style="stop-opacity:1;stop-color:#bd7b3e"/><stop offset="1" style="stop-opacity:1;stop-color:#a96a30"/></linearGradient><linearGradient id="b" x1="21.431" x2="27.252" y1="3.794" y2="3.794" gradientUnits="userSpaceOnUse" spreadMethod="pad"><stop offset="0" style="stop-opacity:1;stop-color:#fff"/><stop offset="1" style="stop-opacity:.50000763;stop-color:#fff"/></linearGradient><linearGradient id="h" x1="21.431" x2="27.252" y1="3.794" y2="3.794" gradientUnits="userSpaceOnUse" spreadMethod="pad"><stop offset="0" style="stop-opacity:1;stop-color:#000"/><stop offset="1" style="stop-opacity:1;stop-color:#000"/></linearGradient><linearGradient xlink:href="#d" id="E" x1="21.431" x2="27.252" y1="3.794" y2="3.794" gradientTransform="translate(-31.75)" gradientUnits="userSpaceOnUse"/><mask id="g" width="1" height="1" x="0" y="0" maskUnits="userSpaceOnUse"><g clip-path="url(#c)"><path d="M21.166 1.411h6.35V6.35h-6.35z" style="fill:url(#b);stroke:none"/></g></mask></defs><g clip-path="url(#e)" opacity=".125" transform="translate(-10.134 -2.024) scale(.35277)"><g clip-path="url(#f)"><g mask="url(#g)" transform="translate(-60) scale(2.8347)"><path d="M2.82 4.293c-.66 0-1.238.32-1.593.812a5.654 5.654 0 0 0-.086.297C.98 6.055.871 6.715.809 7.375c0 .016 0 .027-.004.043v.047a4.52 4.52 0 0 0-.024.328c-.004.019-.004.035-.008.055v.047c0 .011-.003.023-.003.035-.004.082-.008.164-.008.246-.004.066-.004.136-.008.203v.023c0 .043 0 .086-.004.133V8.742c.004.082.004.164.004.25 0 .07-.004.141-.004.211v.004c0 1.055.113 2.102.34 3.133.277 1.176.765 2.137 1.472 2.875h-.007c.777.824 1.824 1.379 3.129 1.672 1.074.218 2.152.332 3.242.332h.008c.281 0 .562-.008.839-.024a11.702 11.702 0 0 0 2.922-.422c.145-.039.293-.082.438-.128.07-.024.144-.043.215-.067.007-.004.019-.008.027-.016a5.386 5.386 0 0 0 2.078-1.347 5.56 5.56 0 0 0 1-1.5 8.832 8.832 0 0 0 .668-2.488c.067-.582.106-1.165.121-1.747.004-.085.004-.171.008-.257V8.926a22.9 22.9 0 0 0-.043-1.36 10.894 10.894 0 0 0-.441-2.476 1.973 1.973 0 0 0-1.59-.797Z" style="fill:url(#h);stroke:none"/></g></g></g><g clip-path="url(#i)" opacity=".813" transform="scale(.35277)"><path d="M7.453.801a.951.951 0 0 1-.258.035 10.27 10.27 0 0 0-1.648.266c-2.328.554-3.797 1.988-4.406 4.3a13.796 13.796 0 0 0-.391 3.27v.004c0 .105 0 .211.004.316-.024 1.141.09 2.27.336 3.383.578 2.477 2.113 3.992 4.594 4.543 1.07.223 2.152.332 3.238.332h.016c.277 0 .558-.008.835-.023a11.693 11.693 0 0 0 3.575-.618c1.429-.523 2.464-1.476 3.101-2.859a8.976 8.976 0 0 0 .672-2.488c.086-.778.129-1.555.129-2.332v-.004a22.9 22.9 0 0 0-.043-1.36c-.059-.98-.25-1.937-.566-2.867-.563-1.543-1.602-2.629-3.121-3.254a10.26 10.26 0 0 0-2.836-.636A24.054 24.054 0 0 0 9.012.75h-.008c-.516 0-1.031.016-1.551.051z" style="fill:url(#j);fill-rule:evenodd;stroke:none"/></g><path d="M-5.799.714h-3.195a.355.355 0 0 0-.356.355V3.2c0 .196.159.356.356.356H-5.8c.197 0 .356-.16.356-.355V1.07A.355.355 0 0 0-5.8.713z" style="fill:#707ed0;fill-opacity:1;fill-rule:nonzero;stroke:none;stroke-width:.352771" transform="translate(10.583)"/><g clip-path="url(#k)" transform="scale(.35277)"><g clip-path="url(#l)"><path d="M3.496 3.535H14.57v2.012H3.496Z" style="fill:#707ed0;fill-opacity:1;fill-rule:nonzero;stroke:none"/></g></g><g clip-path="url(#m)" transform="scale(.35277)"><g clip-path="url(#n)"><path d="M12.809 7.559h-1.512a.252.252 0 0 0-.25.253v.504c0 .137.113.25.25.25h1.512a.25.25 0 0 0 .25-.25v-.504a.25.25 0 0 0-.25-.253z" style="fill:#707ed0;fill-opacity:1;fill-rule:nonzero;stroke:none"/></g></g><g clip-path="url(#o)" transform="scale(.35277)"><g clip-path="url(#p)"><path d="M6.266 8.73a.938.938 0 0 1-.34.25 1.017 1.017 0 0 1-.414.09c-.035 0-.067 0-.102-.004-.031-.004-.062-.007-.098-.015l-.093-.024a.399.399 0 0 1-.094-.035c-.031-.012-.063-.023-.09-.039l-.086-.051-.078-.058c-.027-.024-.051-.043-.074-.067-.024-.023-.043-.05-.067-.074l-.058-.078c-.016-.031-.035-.059-.051-.086-.016-.031-.027-.059-.043-.09a.795.795 0 0 1-.031-.094.398.398 0 0 1-.024-.093c-.007-.035-.011-.067-.015-.098-.004-.035-.004-.066-.004-.102 0-.031 0-.066.004-.097s.008-.067.015-.098a.42.42 0 0 1 .024-.094.506.506 0 0 1 .031-.093c.016-.032.027-.063.043-.09.016-.031.035-.059.051-.086a1.32 1.32 0 0 1 .058-.078c.024-.028.043-.051.067-.074a.589.589 0 0 1 .074-.067l.078-.058c.028-.02.059-.036.086-.051a.689.689 0 0 1 .184-.074 1.045 1.045 0 0 1 .191-.04c.035-.003.067-.003.102-.003.07 0 .14.007.211.019.07.016.136.039.203.067.062.031.125.066.183.109.055.043.11.09.157.144a1.053 1.053 0 0 1 .339-.253c.067-.028.133-.051.204-.067a1.245 1.245 0 0 1 .308-.016.716.716 0 0 1 .098.016.383.383 0 0 1 .097.024c.032.007.063.019.094.031.032.012.059.027.09.043a.733.733 0 0 1 .082.051l.082.058c.024.02.047.043.07.067a.527.527 0 0 1 .067.074.36.36 0 0 1 .058.078c.02.027.036.055.051.086a.499.499 0 0 1 .043.09.875.875 0 0 1 .035.093l.024.094a.664.664 0 0 1 .015.098c0 .031.004.066.004.097 0 .036-.004.067-.004.102a.755.755 0 0 1-.015.098l-.024.093a2.608 2.608 0 0 1-.035.094c-.011.031-.027.059-.043.09a1.472 1.472 0 0 1-.051.086.914.914 0 0 1-.125.152c-.023.024-.046.043-.07.067l-.082.058c-.027.016-.055.036-.082.051a.79.79 0 0 1-.09.039.383.383 0 0 1-.094.035 3.462 3.462 0 0 1-.097.024c-.031.008-.063.011-.098.015a1.003 1.003 0 0 1-.512-.086.834.834 0 0 1-.183-.105.86.86 0 0 1-.156-.145Z" style="fill:#707ed0;fill-opacity:1;fill-rule:evenodd;stroke:none"/></g></g><path d="M-5.799 1.164h-3.195a.354.354 0 0 0-.356.355V3.65c0 .196.159.356.356.356H-5.8c.197 0 .356-.16.356-.356V1.52a.354.354 0 0 0-.356-.355z" style="fill:#ffd351;fill-opacity:1;fill-rule:nonzero;stroke:none;stroke-width:.352771" transform="translate(10.583)"/><g clip-path="url(#q)" transform="scale(.35277)"><g clip-path="url(#r)"><path d="M3.496 4.809H14.57v2.016H3.496Z" style="fill:#ffd351;fill-opacity:1;fill-rule:nonzero;stroke:none"/></g></g><g clip-path="url(#s)" transform="scale(.35277)"><g clip-path="url(#t)"><path d="M12.809 8.836h-1.512a.252.252 0 0 0-.25.254v.5c0 .14.113.254.25.254h1.512c.14 0 .25-.114.25-.254v-.5a.25.25 0 0 0-.25-.254z" style="fill:#ffd351;fill-opacity:1;fill-rule:nonzero;stroke:none"/></g></g><g clip-path="url(#u)" transform="scale(.35277)"><g clip-path="url(#v)"><path d="M6.266 10.008a1.035 1.035 0 0 1-.157.14 1.233 1.233 0 0 1-.183.11 1.233 1.233 0 0 1-.203.066.955.955 0 0 1-.211.024c-.035 0-.067-.004-.102-.004-.031-.004-.062-.012-.098-.016l-.093-.023a3.579 3.579 0 0 0-.094-.035.749.749 0 0 1-.09-.043c-.027-.016-.058-.032-.086-.051a.5.5 0 0 1-.078-.059c-.027-.019-.051-.043-.074-.066L4.73 9.98l-.058-.082c-.016-.027-.035-.054-.051-.082-.016-.031-.027-.062-.043-.089a.937.937 0 0 1-.031-.094.39.39 0 0 1-.024-.098.898.898 0 0 1-.015-.097c-.004-.032-.004-.067-.004-.098a.803.803 0 0 1 .019-.195.38.38 0 0 1 .024-.098.86.86 0 0 1 .031-.094c.016-.027.027-.058.043-.086.016-.031.035-.058.051-.086l.058-.078c.024-.027.043-.051.067-.074a.589.589 0 0 1 .074-.067.561.561 0 0 1 .078-.058c.028-.02.059-.035.086-.051a.749.749 0 0 1 .09-.043l.094-.035.093-.023c.036-.004.067-.012.098-.012.035-.004.067-.008.102-.008a1.017 1.017 0 0 1 .597.199c.055.043.11.09.157.145a1.053 1.053 0 0 1 .339-.254 1.003 1.003 0 0 1 .415-.09c.035 0 .066.004.097.008.035 0 .067.008.098.012.035.007.066.015.097.023l.094.035c.032.012.059.028.09.043.027.016.055.031.082.051a.589.589 0 0 1 .152.125.589.589 0 0 1 .067.074.385.385 0 0 1 .058.078c.02.028.036.055.051.086a.766.766 0 0 1 .078.18l.024.098a.58.58 0 0 1 .015.097c0 .031.004.067.004.098s-.004.066-.004.098a.58.58 0 0 1-.015.097 3.564 3.564 0 0 1-.024.098l-.035.094c-.011.027-.027.058-.043.089a.652.652 0 0 1-.051.082.474.474 0 0 1-.058.082c-.02.024-.043.047-.067.071-.023.023-.046.047-.07.066a.524.524 0 0 1-.082.059c-.027.019-.055.035-.082.051-.031.015-.058.031-.09.043l-.094.035-.097.023c-.031.004-.063.012-.098.016-.031 0-.062.004-.097.004a.942.942 0 0 1-.211-.024 1.214 1.214 0 0 1-.204-.066 1.058 1.058 0 0 1-.339-.25Z" style="fill:#ffd351;fill-opacity:1;fill-rule:evenodd;stroke:none"/></g></g><path d="M-5.799 1.614h-3.195a.355.355 0 0 0-.356.355V4.1c0 .198.159.356.356.356H-5.8a.355.355 0 0 0 .356-.355V1.97a.355.355 0 0 0-.356-.356z" style="fill:#7bd57d;fill-opacity:1;fill-rule:nonzero;stroke:none;stroke-width:.352771" transform="translate(10.583)"/><g clip-path="url(#w)" transform="scale(.35277)"><g clip-path="url(#x)"><path d="M3.496 6.086H14.57v2.012H3.496Z" style="fill:#7bd57d;fill-opacity:1;fill-rule:nonzero;stroke:none"/></g></g><g clip-path="url(#y)" transform="scale(.35277)"><g clip-path="url(#z)"><path d="M12.809 10.113h-1.512a.252.252 0 0 0-.25.25v.504c0 .141.113.254.25.254h1.512a.25.25 0 0 0 .25-.254v-.504a.25.25 0 0 0-.25-.25z" style="fill:#7bd57d;fill-opacity:1;fill-rule:nonzero;stroke:none"/></g></g><g clip-path="url(#A)" transform="scale(.35277)"><g clip-path="url(#B)"><path d="M6.266 11.281a1.072 1.072 0 0 1-.34.254 1.34 1.34 0 0 1-.203.067 1.01 1.01 0 0 1-.211.019c-.035 0-.067 0-.102-.004a5.34 5.34 0 0 0-.098-.012.652.652 0 0 1-.093-.027.86.86 0 0 1-.184-.074c-.027-.016-.058-.031-.086-.051l-.078-.058a.589.589 0 0 1-.074-.067c-.024-.023-.043-.047-.067-.074a1.759 1.759 0 0 1-.058-.078c-.016-.028-.035-.055-.051-.086-.016-.028-.027-.059-.043-.09a.595.595 0 0 1-.031-.09.482.482 0 0 1-.024-.098c-.007-.031-.011-.066-.015-.097s-.004-.067-.004-.098c0-.035 0-.066.004-.101a1.304 1.304 0 0 1 .039-.192.937.937 0 0 1 .031-.094l.043-.089c.016-.028.035-.055.051-.082l.058-.082c.024-.024.043-.051.067-.071a.581.581 0 0 1 .074-.066c.027-.024.051-.043.078-.063.028-.015.059-.035.086-.05a.52.52 0 0 1 .09-.039c.031-.016.063-.024.094-.036l.093-.023c.036-.008.067-.012.098-.016.035-.004.067-.004.102-.004.07 0 .14.008.211.024.07.015.136.035.203.066.062.028.125.067.183.106.055.043.11.093.157.144.046-.051.097-.101.156-.144.058-.039.117-.078.183-.106a.934.934 0 0 1 .204-.066.942.942 0 0 1 .406-.004l.097.023c.032.012.063.02.094.036a.644.644 0 0 1 .09.039c.027.015.055.035.082.05.027.02.055.039.082.063.024.019.047.043.07.066.024.02.047.047.067.071a.474.474 0 0 1 .058.082c.02.027.036.054.051.082.016.031.032.058.043.089l.035.094.024.094a.73.73 0 0 1 .015.098c0 .035.004.066.004.101 0 .031-.004.067-.004.098a.65.65 0 0 1-.015.097l-.024.098a1.305 1.305 0 0 1-.129.266.385.385 0 0 1-.058.078.589.589 0 0 1-.067.074.874.874 0 0 1-.07.067l-.082.058c-.027.02-.055.035-.082.051-.031.016-.058.031-.09.043a.795.795 0 0 1-.094.031.575.575 0 0 1-.195.039.998.998 0 0 1-.308-.015 1.316 1.316 0 0 1-.204-.067 1.053 1.053 0 0 1-.339-.254Z" style="fill:#7bd57d;fill-opacity:1;fill-rule:evenodd;stroke:none"/></g></g><g clip-path="url(#C)" opacity=".658" transform="scale(.35277)"><path d="M2.82 5.16c-.933 0-1.715.645-1.918 1.52-.004 0-.007-.004-.011-.004v.004a2.334 2.334 0 0 0-.02.168c-.008.039-.012.074-.016.109-.019.141-.031.281-.046.422 0 .019-.004.039-.004.062a7.919 7.919 0 0 0-.032.442c0 .015-.003.031-.003.047-.008.152-.012.3-.016.449v.023c0 .078-.004.16-.004.239 0 .105 0 .214.004.32v.031c-.02 1.129.09 2.246.336 3.348.273 1.176.765 2.137 1.472 2.879-.003-.004-.007-.004-.011-.004.781.824 1.828 1.383 3.133 1.672 1.07.218 2.152.332 3.242.332h.008c.281 0 .558-.008.839-.024a11.305 11.305 0 0 0 2.036-.215c.296-.054.593-.125.886-.203.145-.043.289-.086.438-.132.07-.024.144-.043.215-.067a5.419 5.419 0 0 0 2.082-1.344c.008-.007.015-.011.019-.019h.004c.399-.426.735-.926.996-1.5a8.84 8.84 0 0 0 .672-2.488c.086-.778.129-1.555.129-2.332v-.004c0-.453-.016-.907-.043-1.36l-.012-.199-.047-.164v-.035A1.966 1.966 0 0 0 15.18 5.16Z" style="fill:url(#D);stroke:none"/></g><path d="M-9.588 1.514a.692.692 0 0 0-.563.287l-.03.105a4.9 4.9 0 0 0-.116.696l-.002.015v.017l-.01.116v.018l-.001.013v.004l-.001.013a4.956 4.956 0 0 0-.006.158v.055l-.001.037v.035l.001.089v.075c-.002.374.038.742.118 1.107.098.414.271.752.52 1.014h-.003c.275.29.643.486 1.105.59.377.077.758.116 1.143.116h.003c.098 0 .197-.003.296-.008a4.142 4.142 0 0 0 1.185-.194l.076-.024.009-.005a1.9 1.9 0 0 0 .726-.469l.007-.007c.142-.15.26-.326.353-.529.121-.28.2-.574.236-.878a7.408 7.408 0 0 0 .045-.707V3.15c0-.16-.005-.32-.015-.48a3.782 3.782 0 0 0-.156-.873.693.693 0 0 0-.56-.282Z" style="opacity:.125;fill:url(#E);fill-opacity:1;stroke-width:.264578" transform="translate(10.583)"/><path d="M-6.685 5.421h-.352c-.158 0-.158-.234 0-.236h.352c.157.002.157.236 0 .236zm-1.06 0h-.354c-.155 0-.155-.234 0-.236h.355c.157.002.157.236 0 .236zm-1.06 0h-.353c-.157 0-.157-.234 0-.236h.352c.157.002.157.236 0 .236zm2.087-2.712h-.354c-.157-.001-.157-.235 0-.235h.354c.156 0 .156.234 0 .235zm-1.06 0h-.354c-.157-.001-.157-.235 0-.235h.353c.157 0 .157.234 0 .235zm-1.062 0h-.353c-.157-.001-.157-.235 0-.235h.353c.159-.002.159.235 0 .235zm3.216 2.712h-.352c-.158 0-.158-.234 0-.236h.352c.157.002.157.236 0 .236zm-.034-2.712h-.353c-.157-.001-.157-.235 0-.235h.353c.157 0 .157.234 0 .235z" style="fill:#f93;fill-opacity:1;fill-rule:nonzero;stroke:none;stroke-width:.352771" transform="translate(10.583)"/><path d="M-4.724 2.185h-.54c-.595 0-1.079.411-1.079.916v.148c0 .505.484.915 1.079.915h.54c.1 0 .18-.081.18-.18.059-.598.06-1.14 0-1.618 0-.1-.08-.18-.18-.18z" style="fill:#6a563d;fill-opacity:1;fill-rule:nonzero;stroke:none;stroke-width:.352771" transform="translate(10.583)"/><path d="M-5.256 3.175a.39.39 0 1 1-.779 0 .39.39 0 0 1 .78 0z" style="fill:#ffda44;fill-opacity:1;fill-rule:nonzero;stroke:none;stroke-width:.352771" transform="translate(10.583)"/></svg>