<svg xmlns="http://www.w3.org/2000/svg" xmlns:xlink="http://www.w3.org/1999/xlink" xml:space="preserve" id="svg154" width="24" height="24" fill="none" version="1.1"><defs id="defs152"><linearGradient id="linearGradient1892"><stop id="stop1888" offset="0" style="stop-color:#374548;stop-opacity:1"/><stop id="stop1890" offset="1" style="stop-color:#9aa4a5;stop-opacity:1"/></linearGradient><linearGradient id="linearGradient8792"><stop id="stop8790" offset="0" style="stop-color:#000;stop-opacity:1"/></linearGradient><linearGradient xlink:href="#linearGradient1892" id="linearGradient1894" x1="50.447" x2="51.17" y1="83.351" y2="-8.673" gradientTransform="matrix(.24444 0 0 .24444 -.222 -.222)" gradientUnits="userSpaceOnUse"/><style id="current-color-scheme" type="text/css">.ColorScheme-Text{color:#31363b}.ColorScheme-Background{color:#eff0f1}.ColorScheme-Highlight{color:#3daee9}.ColorScheme-ViewText{color:#31363b}.ColorScheme-ViewBackground{color:#fcfcfc}.ColorScheme-ViewHover{color:#93cee9}.ColorScheme-ViewFocus{color:#3daee9}.ColorScheme-ButtonText{color:#31363b}.ColorScheme-ButtonBackground{color:#eff0f1}.ColorScheme-ButtonHover{color:#93cee9}.ColorScheme-ButtonFocus{color:#3daee9}</style></defs><path id="path6" d="M12 1C2 1 1 6 1 12c0 8 3 11 11 11s11-3 11-11c0-6-1-11-11-11Z" style="font-variation-settings:normal;display:inline;opacity:1;vector-effect:none;fill:url(#linearGradient1894);fill-opacity:1;stroke-width:1.11627;stroke-linecap:butt;stroke-linejoin:miter;stroke-miterlimit:4;stroke-dasharray:none;stroke-dashoffset:0;stroke-opacity:1;-inkscape-stroke:none;stop-color:#000;stop-opacity:1"/><g id="g10613" transform="matrix(.27696 0 0 .27696 -17.76 -30.083)"><g id="g6337" fill="none" stroke-width=".984" transform="translate(58.645 103.139) scale(1.52524)"><path id="path6333" stroke="#787e82" d="M12 32.49c13.01 0 15.772 14.973 21.511 15.02 5.739.042 5.484-15.02 18.489-15.02"/><path id="path6335" stroke="#5090c3" d="M12 31.51c13.01 0 15.772-10.274 21.511-10.316C39.25 21.152 38.995 31.51 52 31.51"/></g><path id="path6339" fill="none" stroke="#d6d6d6" stroke-width="1.501" d="M76.948 151.199c19.843 0 24.056-22.837 32.81-22.91 8.753-.063 8.364 22.91 28.2 22.91"/><g id="g6345" fill="#d6d6d6" color="#000" transform="translate(58.645 103.139) scale(1.52524)"><path id="path6341" d="M12.01 32h39.992v1H12.01Z"/><path id="path6343" d="M19 31h1v3h-1zm14 0h1v3h-1zm14 0h1v3h-1z"/></g></g></svg>