<svg xmlns="http://www.w3.org/2000/svg" xmlns:xlink="http://www.w3.org/1999/xlink" xml:space="preserve" id="svg154" width="24" height="24" fill="none" version="1.1"><defs id="defs152"><linearGradient id="linearGradient5532"><stop id="stop5528" offset="0" style="stop-color:#4a0;stop-opacity:1"/><stop id="stop5530" offset="1" style="stop-color:#cfa;stop-opacity:1"/></linearGradient><linearGradient id="linearGradient8792"><stop id="stop8790" offset="0" style="stop-color:#000;stop-opacity:1"/></linearGradient><linearGradient xlink:href="#linearGradient5532" id="linearGradient5534" x1="53.52" x2="53.882" y1="111.013" y2="-8.492" gradientTransform="matrix(.24444 0 0 .24444 -.222 -.222)" gradientUnits="userSpaceOnUse"/><style id="current-color-scheme" type="text/css">.ColorScheme-Text{color:#31363b}.ColorScheme-Background{color:#eff0f1}.ColorScheme-Highlight{color:#3daee9}.ColorScheme-ViewText{color:#31363b}.ColorScheme-ViewBackground{color:#fcfcfc}.ColorScheme-ViewHover{color:#93cee9}.ColorScheme-ViewFocus{color:#3daee9}.ColorScheme-ButtonText{color:#31363b}.ColorScheme-ButtonBackground{color:#eff0f1}.ColorScheme-ButtonHover{color:#93cee9}.ColorScheme-ButtonFocus{color:#3daee9}</style></defs><path id="path6" d="M12 1C2 1 1 6 1 12c0 8 3 11 11 11s11-3 11-11c0-6-1-11-11-11Z" style="font-variation-settings:normal;display:inline;opacity:1;vector-effect:none;fill:url(#linearGradient5534);fill-opacity:1;stroke-width:1.11627;stroke-linecap:butt;stroke-linejoin:miter;stroke-miterlimit:4;stroke-dasharray:none;stroke-dashoffset:0;stroke-opacity:1;-inkscape-stroke:none;stop-color:#000;stop-opacity:1"/><g id="g9249" transform="translate(-70.624 -46.503) scale(.33595)"><path id="path7441" fill="#3c6bbb" d="M245.79 156.051a4.361 4.361 0 0 0-4.372 4.372v.3c0 .555.11 1.079.297 1.567l-5.866 4.886a6.784 6.784 0 0 0-2.724-.574 6.784 6.784 0 0 0-6.784 6.784 6.784 6.784 0 0 0 6.784 6.783 6.784 6.784 0 0 0 2.873-.647l5.975 4.979a5.075 5.075 0 0 0-.557 2.28v.346a5.092 5.092 0 0 0 5.103 5.103h12.407a5.092 5.092 0 0 0 5.103-5.103v-.347a5.092 5.092 0 0 0-5.103-5.103H246.52a5.077 5.077 0 0 0-2.992.977l-4.687-5.626a6.784 6.784 0 0 0 .84-1.922l3.488-.317a3.628 3.628 0 0 0 3.403 2.366h15.323a3.638 3.638 0 0 0 3.645-3.645v-.247a3.638 3.638 0 0 0-3.645-3.646h-15.323a3.626 3.626 0 0 0-3.403 2.363l-3.484-.314a6.784 6.784 0 0 0-.912-2.038l4.469-5.366c.719.518 1.594.831 2.549.831h13.87a4.361 4.361 0 0 0 4.37-4.371v-.3a4.361 4.361 0 0 0-4.372-4.372H245.79z" style="stroke-width:1.28418"/><rect id="rect7443" width="19.598" height="6.031" x="242.925" y="157.559" fill="#fff" rx="2.915" style="stroke-width:1.28418"/><rect id="rect7445" width="19.598" height="4.523" x="244.432" y="171.126" fill="#fff" rx="2.186" style="stroke-width:1.28418"/><rect id="rect7447" width="19.598" height="7.538" x="242.925" y="183.186" fill="#fff" rx="3.643" style="stroke-width:1.28418"/><circle id="circle7449" cx="233.126" cy="173.388" r="5.277" fill="#a2d5ec" style="stroke-width:1.28418"/></g></svg>