<svg xmlns="http://www.w3.org/2000/svg" xmlns:xlink="http://www.w3.org/1999/xlink" xml:space="preserve" width="24" height="24"><defs><linearGradient id="a" x1="12" x2="12" y1="1" y2="12" gradientUnits="userSpaceOnUse" spreadMethod="pad"><stop offset="0" style="stop-opacity:1;stop-color:#fd807c"/><stop offset="1" style="stop-opacity:1;stop-color:#f4605d"/></linearGradient><linearGradient xlink:href="#a" id="b" x1="12" x2="12" y1="22.54" y2="12.104" gradientTransform="rotate(180 12 12)" gradientUnits="userSpaceOnUse" spreadMethod="pad"/></defs><path d="M11.984 1c-.681 0-1.364.022-2.046.068-.038.01-.077.017-.116.024-.073.006-.147.016-.22.023h-.008c-.739.058-1.474.176-2.198.354-1.459.347-2.662.958-3.615 1.824-1.074.976-1.83 2.277-2.26 3.91-.127.528-.23 1.057-.31 1.59h-.014c-.009.063-.014.129-.025.191-.014.126-.025.252-.037.377a18.59 18.59 0 0 0-.131 2.334c-.001.07-.004.14-.004.211v.381c0 .09.004.181.006.272.001.16.004.321.01.482.002.083.008.165.011.248.006.127.011.254.02.38.004.082.006.162.012.243.078 1.307.327 2.582.754 3.822.75 2.058 2.136 3.507 4.162 4.34 1.22.463 2.48.744 3.78.848.653.046 1.309.069 1.962.074.058 0 .116.004.174.004h.124c.682 0 1.365-.022 2.047-.068.038-.01.077-.017.116-.024.073-.006.147-.016.22-.023h.008a13.689 13.689 0 0 0 2.198-.354c1.459-.347 2.662-.958 3.615-1.824 1.074-.976 1.83-2.277 2.26-3.91.127-.528.23-1.057.31-1.59h.014c.009-.063.014-.129.025-.191.014-.126.025-.252.037-.377a18.59 18.59 0 0 0 .131-2.334c.001-.07.004-.14.004-.211v-.381c0-.09-.004-.181-.006-.272a19.271 19.271 0 0 0-.01-.482c-.002-.083-.008-.165-.011-.248-.006-.127-.011-.254-.02-.38-.004-.082-.006-.162-.012-.243a14.346 14.346 0 0 0-.753-3.822c-.751-2.058-2.137-3.507-4.163-4.34a13.68 13.68 0 0 0-3.78-.848 31.408 31.408 0 0 0-1.962-.074c-.058 0-.116-.004-.174-.004h-.124z" style="fill:url(#b);fill-rule:evenodd;stroke:none;stroke-width:1.33333"/><path fill="#f9c8c2" d="m10.015 5.063-3.03 1.75L8.97 10.25H5v3.5h3.97l-1.985 3.437 3.03 1.75L12 15.5l1.985 3.437 3.03-1.75-1.984-3.437H19v-3.5h-3.969l1.984-3.437-3.03-1.75L12 8.5Z" style="stroke-width:.43225"/></svg>