<svg xmlns="http://www.w3.org/2000/svg" xml:space="preserve" id="svg154" width="24" height="24" fill="none" version="1.1"><defs id="defs152"><linearGradient id="linearGradient8792"><stop id="stop8790" offset="0" style="stop-color:#000;stop-opacity:1"/></linearGradient><style id="current-color-scheme" type="text/css">.ColorScheme-Text{color:#31363b}.ColorScheme-Background{color:#eff0f1}.ColorScheme-Highlight{color:#3daee9}.ColorScheme-ViewText{color:#31363b}.ColorScheme-ViewBackground{color:#fcfcfc}.ColorScheme-ViewHover{color:#93cee9}.ColorScheme-ViewFocus{color:#3daee9}.ColorScheme-ButtonText{color:#31363b}.ColorScheme-ButtonBackground{color:#eff0f1}.ColorScheme-ButtonHover{color:#93cee9}.ColorScheme-ButtonFocus{color:#3daee9}</style></defs><path id="path6" d="M12 1C2 1 1 6 1 12c0 8 3 11 11 11s11-3 11-11c0-6-1-11-11-11Z" style="font-variation-settings:normal;display:inline;opacity:1;vector-effect:none;fill:#007eb9;fill-opacity:1;stroke-width:1.11627;stroke-linecap:butt;stroke-linejoin:miter;stroke-miterlimit:4;stroke-dasharray:none;stroke-dashoffset:0;stroke-opacity:1;-inkscape-stroke:none;stop-color:#000;stop-opacity:1"/><path id="path9623" fill="#f9f9f9" d="M8.224 6.64c-.366.094-.06 1.181.083 1.693-.411.533-.215 1.233-.06 1.784.27.966 1.076 1.6 1.799 1.414.722-.184 1.299-.368 1.027-1.334-.14-.5-.855-.398-.73-1.206.178-1.145-.494-1.16-1.54-.892-.151-.537-.422-1.5-.579-1.46Zm4.501-1.153c-.157.04.113 1.004.264 1.54-1.047.268-1.621.602-.868 1.509.533.64-.141.894-.001 1.393.27.966.866.85 1.588.665.723-.185 1.087-1.118.818-2.085-.154-.55-.351-1.25-.986-1.516-.144-.511-.448-1.6-.815-1.506ZM5.58 11.603c-.262.067.063 1.222.23 1.817.21.75.52 1.246 1.001 1.59.626.449 1.96.28 2.31-.35.174-.315.33-.872-.023-1.092l-2.228-1.37c-.257-.158-.569.037-.766.268-.12-.432-.261-.932-.523-.865Zm12.038-3.08c-.262.066-.122.567 0 .999-.293-.106-.665-.126-.804.134l-1.213 2.25c-.192.357.235.765.55.955.633.38 1.877-.112 2.184-.8.237-.528.245-1.106.035-1.856-.167-.594-.49-1.75-.752-1.683Zm-5.317 4.04c-2.32.593-1.832 1.897-2.16 2.964-.258.84-1.325.607-1.045 1.607.352 1.252 1.677 1.713 3.91 1.142l1.674-.429c2.233-.57 3.14-1.604 2.788-2.857-.28-1-1.082-.289-1.745-.892-.843-.768-1.102-2.13-3.423-1.536z" style="stroke-width:.463857"/></svg>