<svg xmlns="http://www.w3.org/2000/svg" xmlns:xlink="http://www.w3.org/1999/xlink" xml:space="preserve" id="svg154" width="24" height="24" fill="none" version="1.1"><defs id="defs152"><linearGradient id="linearGradient7241"><stop id="stop7237" offset="0" style="stop-color:#b3b3b3;stop-opacity:1"/><stop id="stop7239" offset="1" style="stop-color:#f2f2f2;stop-opacity:1"/></linearGradient><linearGradient id="linearGradient8792"><stop id="stop8790" offset="0" style="stop-color:#000;stop-opacity:1"/></linearGradient><linearGradient xlink:href="#linearGradient7241" id="linearGradient7243" x1="44.661" x2="42.673" y1="88.775" y2="-15.182" gradientTransform="matrix(.24444 0 0 .24444 -.222 -.222)" gradientUnits="userSpaceOnUse"/><style id="current-color-scheme" type="text/css">.ColorScheme-Text{color:#31363b}.ColorScheme-Background{color:#eff0f1}.ColorScheme-Highlight{color:#3daee9}.ColorScheme-ViewText{color:#31363b}.ColorScheme-ViewBackground{color:#fcfcfc}.ColorScheme-ViewHover{color:#93cee9}.ColorScheme-ViewFocus{color:#3daee9}.ColorScheme-ButtonText{color:#31363b}.ColorScheme-ButtonBackground{color:#eff0f1}.ColorScheme-ButtonHover{color:#93cee9}.ColorScheme-ButtonFocus{color:#3daee9}</style></defs><path id="path6" d="M12 1C2 1 1 6 1 12c0 8 3 11 11 11s11-3 11-11c0-6-1-11-11-11Z" style="font-variation-settings:normal;display:inline;opacity:1;vector-effect:none;fill:url(#linearGradient7243);fill-opacity:1;stroke-width:1.11627;stroke-linecap:butt;stroke-linejoin:miter;stroke-miterlimit:4;stroke-dasharray:none;stroke-dashoffset:0;stroke-opacity:1;-inkscape-stroke:none;stop-color:#000;stop-opacity:1"/><path id="path9438" fill="#df3c3c" d="M12.077 4.4c-.772 0-1.354.333-1.354.775v.56a.09.09 0 0 0-.035.01l-.876.446a.319.319 0 0 0-.094.076 2.137 2.137 0 0 0-.8-.145c-.772 0-1.354.333-1.354.774v.478a.31.31 0 0 0-.143.035l-1.671.898a.306.306 0 0 0-.125.133c-.008.012-.013.023-.02.037a.336.336 0 0 0-.011.045c-.01.03-.025.058-.025.09v7.283c0 .114.063.22.163.276l6.077 3.387c.004.002.01.001.013.004a.32.32 0 0 0 .13.034s.01.004.014.004c.04 0 .077-.017.115-.031.013-.006.029-.003.042-.01l.002-.002.003-.001.002-.002 6.132-3.408a.316.316 0 0 0 .162-.276l.007-7.245a.315.315 0 0 0-.158-.273c-.01-.006-.023-.004-.035-.01-.014-.01-.024-.024-.04-.033l-1.672-.899c-.008-.004-.016-.003-.023-.007v-.51c0-.443-.582-.775-1.354-.775-.327 0-.617.062-.846.165-.016-.013-.03-.028-.047-.038l-.796-.407a.086.086 0 0 1-.029-.008v-.655c0-.441-.581-.774-1.353-.774m-.875 1.37c.234.11.533.177.875.177.341 0 .64-.067.874-.177v.876c0 .093-.33.3-.874.3s-.875-.207-.875-.299v-.877m-.48.669v.208c0 .441.582.773 1.354.773.773 0 1.354-.332 1.354-.773v-.112l.388.2a.497.497 0 0 0-.025.157v1.471c0 .442.583.774 1.355.774s1.354-.332 1.353-.774v-.246l.948.511-5.482 3.04L6.53 8.61l1.035-.557v.317c0 .441.582.774 1.353.774.772 0 1.354-.333 1.354-.774V6.898a.5.5 0 0 0-.048-.203l.5-.254m3.551 1.047c.233.11.533.178.875.178.341 0 .64-.068.874-.178v.877c0 .087-.306.299-.874.299-.544 0-.875-.207-.875-.298v-.878m-6.232.005c.234.11.534.179.875.179.341 0 .641-.068.875-.178v.877c0 .086-.306.3-.875.3-.567 0-.874-.214-.874-.3v-.878m4.014.322c-.771 0-1.355.333-1.355.774v1.472c0 .442.584.775 1.355.775.772 0 1.353-.333 1.353-.775V8.59c0-.44-.581-.774-1.353-.774m-.875 1.369c.233.111.533.179.875.179.341 0 .64-.068.873-.178v.876c0 .087-.305.3-.873.3-.544 0-.875-.208-.875-.3v-.877" style="stroke-width:.433183"/></svg>