<svg xmlns="http://www.w3.org/2000/svg" width="24" height="24" viewBox="0 0 6.35 6.35"><defs><radialGradient id="a" cx="0" cy="0" r="1" fx="0" fy="0" gradientTransform="rotate(90 1.455 1.72) scale(5.82072)" gradientUnits="userSpaceOnUse" spreadMethod="pad"><stop offset="0" style="stop-opacity:1;stop-color:#8fc8ff"/><stop offset="1" style="stop-color:#359cf3;stop-opacity:1"/></radialGradient></defs><path d="M3.175.265C.529.265.265 1.587.265 3.175c0 2.117.793 2.91 2.91 2.91s2.91-.793 2.91-2.91c0-1.588-.264-2.91-2.91-2.91z" style="font-variation-settings:normal;display:inline;vector-effect:none;fill:#4e99f3;fill-opacity:1;stroke-width:.295341;stroke-linecap:butt;stroke-linejoin:miter;stroke-miterlimit:4;stroke-dasharray:none;stroke-dashoffset:0;stroke-opacity:1;-inkscape-stroke:none;stop-color:#000"/><path d="M3.175.522C.764.522.522 1.728.522 3.175c0 1.929.724 2.652 2.653 2.652s2.652-.723 2.652-2.652c0-1.447-.24-2.653-2.652-2.653z" style="fill:url(#a);fill-rule:evenodd;stroke:none;stroke-width:.352771"/><g fill-rule="evenodd" style="stroke-width:2.5467" transform="matrix(.39267 0 0 .39267 .1 -.056)"><circle cx="7.673" cy="5.292" r="2.117" opacity=".15" style="stroke-width:2.5467;paint-order:stroke fill markers"/><circle cx="7.673" cy="5.292" r="1.587" opacity=".15" style="stroke-width:2.5467;paint-order:stroke fill markers"/><circle cx="7.673" cy="5.292" r="1.058" opacity=".15" style="stroke-width:2.5467;paint-order:stroke fill markers"/></g><path fill="#fff" d="M5.841 3.902c-.103 0-.18.084-.187.187v2.057l-.678-.568a.187.187 0 0 0-.319.132c0 .048.018.095.055.132l1.13 1.052s.234.25.56.25c.413 0 .748-.28.748-.624V5.274a.124.124 0 0 0-.124-.125H6.9v.623h-.125v-.77a.124.124 0 0 0-.124-.124h-.125v.77h-.125V4.619c0-.051-.055-.093-.124-.093-.07 0-.125.042-.125.094v.903h-.125V4.09a.187.187 0 0 0-.187-.187Z" style="stroke-width:1;paint-order:normal" transform="translate(-2.729 -1.984)"/></svg>