<svg xmlns="http://www.w3.org/2000/svg" width="24" height="24" fill="none"><path fill="url(#a)" fill-rule="evenodd" d="M9.596 1.114c.12 0 .234-.014.344-.046a31.627 31.627 0 0 1 4.307.011c1.301.102 2.561.384 3.78.848 2.025.833 3.412 2.28 4.158 4.339.427 1.24.679 2.514.756 3.824a27.94 27.94 0 0 1-.114 4.923 11.88 11.88 0 0 1-.894 3.32c-.85 1.843-2.229 3.114-4.135 3.813a15.624 15.624 0 0 1-4.765.825 21.423 21.423 0 0 1-5.453-.413c-3.312-.737-5.354-2.756-6.128-6.056a19.047 19.047 0 0 1-.447-4.511 18.491 18.491 0 0 1 .515-4.786c.812-3.086 2.77-4.998 5.877-5.736a13.953 13.953 0 0 1 2.199-.355Z" clip-rule="evenodd"/><path fill="#FAFAFA" d="m17.873 6.854-5.704.003-3.166 5.483-1.108-1.921H6.469v.713h1.018l1.52 2.633 3.58-6.198h4.577v.713h.713l-.004-1.426Zm-3.565 2.139a2.134 2.134 0 0 0-2.139 2.139 2.134 2.134 0 0 0 3.565 1.586v.553h.713V8.993h-.713v.552a2.125 2.125 0 0 0-1.426-.552Zm0 .713c.79 0 1.426.636 1.426 1.426 0 .79-.636 1.426-1.426 1.426-.79 0-1.426-.636-1.426-1.426 0-.79.636-1.426 1.426-1.426ZM5.76 14.69c-.004 0-.007.159-.007.356 0 .197.003.356.007.356h12.819c.004 0 .007-.159.007-.356 0-.197-.003-.356-.007-.356H5.759Zm5.704 2.138a4.26 4.26 0 0 0-.008.357c0 .197.003.356.008.356h1.411c.005 0 .007-.159.007-.356a4.26 4.26 0 0 0-.007-.357h-1.411Z"/><defs><radialGradient id="a" cx="0" cy="0" r="1" gradientTransform="matrix(0 11 -11 0 12 1)" gradientUnits="userSpaceOnUse"><stop stop-color="#9B9B9B"/><stop offset="1" stop-color="#656565"/></radialGradient></defs></svg>