<svg xmlns="http://www.w3.org/2000/svg" width="24" height="24" fill="none"><path fill="url(#a)" fill-rule="evenodd" d="M9.596 1.114c.12 0 .234-.014.344-.046a31.627 31.627 0 0 1 4.307.011c1.301.102 2.561.384 3.78.848 2.025.833 3.412 2.28 4.158 4.339.427 1.24.679 2.514.756 3.824a27.94 27.94 0 0 1-.114 4.923 11.88 11.88 0 0 1-.894 3.32c-.85 1.843-2.229 3.114-4.135 3.813a15.624 15.624 0 0 1-4.765.825 21.423 21.423 0 0 1-5.453-.413c-3.312-.737-5.354-2.756-6.128-6.056a19.047 19.047 0 0 1-.447-4.511 18.491 18.491 0 0 1 .515-4.786c.812-3.086 2.77-4.998 5.877-5.736a13.953 13.953 0 0 1 2.199-.355Z" clip-rule="evenodd"/><path stroke="#F4F4F4" stroke-linejoin="round" stroke-width=".917" d="M12 10.165c3.29 0 5.958-1.026 5.958-2.291 0-1.266-2.667-2.292-5.958-2.292-3.29 0-5.958 1.026-5.958 2.292 0 1.265 2.668 2.292 5.958 2.292Z"/><path stroke="#F4F4F4" stroke-width=".917" d="M6.042 7.76v8.364"/><path stroke="#F4F4F4" stroke-linejoin="round" stroke-width=".917" d="M17.958 10.624c0 .402-.275.797-.798 1.146-.523.348-1.276.637-2.181.838-.906.202-1.934.307-2.98.307-1.045 0-2.073-.105-2.978-.306-.906-.202-1.658-.491-2.181-.84-.523-.348-.799-.743-.799-1.145M17.958 13.374c0 .402-.275.797-.798 1.146-.523.348-1.276.637-2.181.838-.906.201-1.934.307-2.98.307-1.045 0-2.073-.105-2.978-.307-.906-.2-1.658-.49-2.181-.838-.523-.349-.799-.744-.799-1.146M17.958 16.124c0 .402-.275.797-.798 1.146-.523.348-1.276.637-2.181.838-.906.201-1.934.307-2.98.307-1.045 0-2.073-.105-2.978-.307-.906-.2-1.658-.49-2.181-.838-.523-.349-.799-.744-.799-1.146"/><path stroke="#F4F4F4" stroke-width=".917" d="M17.958 7.76v8.364"/><defs><radialGradient id="a" cx="0" cy="0" r="1" gradientTransform="matrix(0 11 -11 0 12 1)" gradientUnits="userSpaceOnUse"><stop stop-color="#D89BD9"/><stop offset="1" stop-color="#B138B4"/></radialGradient></defs></svg>