<svg xmlns="http://www.w3.org/2000/svg" xmlns:xlink="http://www.w3.org/1999/xlink" xml:space="preserve" width="24" height="24" viewBox="0 0 6.35 6.35"><defs><linearGradient xlink:href="#a" id="b" x1="13.313" x2="12.688" y1="34.75" y2="-9.688" gradientUnits="userSpaceOnUse"/><linearGradient id="a"><stop offset="0" style="stop-color:#474747;stop-opacity:1"/><stop offset="1" style="stop-color:#999;stop-opacity:1"/></linearGradient><linearGradient xlink:href="#a" id="c" x1="13.313" x2="12.688" y1="34.75" y2="-9.688" gradientUnits="userSpaceOnUse"/><linearGradient id="d" x1="3.174" x2="3.174" y1="1.359" y2="4.961" gradientTransform="scale(2.8347)" gradientUnits="userSpaceOnUse" spreadMethod="pad"><stop offset="0" style="stop-opacity:.34999619;stop-color:#fff"/><stop offset="1" style="stop-opacity:.4;stop-color:#000"/></linearGradient><clipPath id="e" clipPathUnits="userSpaceOnUse"><path d="M0 0h19v19H0Z"/></clipPath></defs><g style="display:inline;fill:url(#b);fill-opacity:1" transform="scale(.26458)"><path d="M50 5C9.09 5 5 25.455 5 50c0 32.727 12.273 45 45 45 32.727 0 45-12.273 45-45 0-24.545-4.09-45-45-45Z" style="font-variation-settings:normal;display:inline;opacity:1;vector-effect:none;fill:url(#c);fill-opacity:1;stroke-width:4.56656;stroke-linecap:butt;stroke-linejoin:miter;stroke-miterlimit:4;stroke-dasharray:none;stroke-dashoffset:0;stroke-opacity:1;-inkscape-stroke:none;stop-color:#000;stop-opacity:1" transform="matrix(.24444 0 0 .24444 -.222 -.222)"/></g><path fill="#f9f9f9" d="M2.036 1.395a.426.426 0 0 0-.427.427v2.706c0 .237.19.427.427.427h2.278c.237 0 .427-.19.427-.427V2.534L3.602 1.395Z" style="stroke-width:.269084;paint-order:stroke fill markers"/><g opacity=".9"><path d="M5.77 3.953a1.21 1.21 0 0 0-1.211 1.211v7.672a1.21 1.21 0 0 0 1.211 1.211h6.457c.671 0 1.214-.543 1.214-1.211V7.184l-3.23-3.231z" clip-path="url(#e)" opacity="1" style="fill:url(#d);stroke:none" transform="translate(-.002) scale(.35277)"/></g><path fill="#fff" d="M2.178 1.68a.284.284 0 0 0-.285.285v2.42c0 .158.127.285.285.285h1.994a.284.284 0 0 0 .284-.285V2.677L3.46 1.68Zm0 .071H3.43l.955.955v1.68a.213.213 0 0 1-.213.213H2.178a.213.213 0 0 1-.213-.214v-2.42c0-.119.095-.214.213-.214z" style="stroke-width:.0711945;paint-order:stroke fill markers"/><path fill="#999" d="M4.753 2.52 3.614 1.383v.712c0 .236.19.427.427.427z" style="stroke-width:.269084;paint-order:stroke fill markers"/><path fill="#fff" d="M3.173 2.806a.662.662 0 0 0-.368.113.85.85 0 0 1 .127.04.993.993 0 0 1 .1-.013 1.075 1.075 0 0 1 .21-.137.662.662 0 0 0-.067-.003.662.662 0 0 0-.002 0zm.205.032a1.103 1.103 0 0 0-.209.107.95.95 0 0 1 .076.007.91.91 0 0 1 .48.223l.045.003a.662.662 0 0 0-.392-.34Zm-.659.15a.662.662 0 0 0-.067.073A.81.81 0 0 1 2.785 3a.634.634 0 0 0-.065-.012zm.425.037-.08.001-.002.002c.087.053.17.122.243.21l.008.011a.968.968 0 0 1 .286-.071.82.82 0 0 0-.455-.153Zm-.222.022a.738.738 0 0 0-.292.127.041.041 0 0 1-.049.001.662.662 0 0 0-.068.293.662.662 0 0 0 .009.106c.06.073.122.134.186.182a.968.968 0 0 1 .036-.373.903.903 0 0 1 .184-.334zm.08.041a.822.822 0 0 0-.18.318.889.889 0 0 0-.024.39.944.944 0 0 1 .44-.51.886.886 0 0 0-.236-.198Zm.692.169a.889.889 0 0 0-.33.06.906.906 0 0 1 .126.308.695.695 0 0 1 .34-.07.662.662 0 0 0 .006-.088.662.662 0 0 0-.001-.04 1.022 1.022 0 0 0-.141-.17Zm-.407.095a.854.854 0 0 0-.422.499c.107.05.215.071.319.075a.69.69 0 0 1 .232-.259.814.814 0 0 0-.13-.315Zm.497.284a.622.622 0 0 0-.28.074c.006.052.009.107.006.165a.773.773 0 0 0 .283-.173.662.662 0 0 0 .02-.065h-.03zm-1.206.118a.662.662 0 0 0 .168.217.041.041 0 0 1 0-.002l.005-.019a.817.817 0 0 1-.023-.082 1.049 1.049 0 0 1-.15-.114Zm.85.004a.606.606 0 0 0-.15.166.858.858 0 0 0 .15-.024.963.963 0 0 0 0-.142zm.26.125a.944.944 0 0 1-.185.081 1.282 1.282 0 0 1-.013.085.662.662 0 0 0 .199-.166zm-.847.045-.004.018c.01.028.022.055.035.078a.041.041 0 0 1 .003.033.662.662 0 0 0 .235.069.933.933 0 0 1 .037-.12.901.901 0 0 1-.306-.078zm.576.06a.958.958 0 0 1-.18.021h-.004a.803.803 0 0 0-.04.12.662.662 0 0 0 .203-.039 1.28 1.28 0 0 0 .021-.103z" style="stroke-width:1"/></svg>