<svg xmlns="http://www.w3.org/2000/svg" xml:space="preserve" width="24" height="24" fill="none"><path fill="url(#a)" fill-rule="evenodd" d="M9.596 1.114c.12 0 .234-.014.344-.046a31.627 31.627 0 0 1 4.307.011c1.301.102 2.561.384 3.78.848 2.025.833 3.412 2.28 4.158 4.339.427 1.24.679 2.514.756 3.824a27.94 27.94 0 0 1-.115 4.923 11.88 11.88 0 0 1-.893 3.32c-.85 1.843-2.229 3.114-4.135 3.813a15.624 15.624 0 0 1-4.766.825 21.423 21.423 0 0 1-5.452-.412c-3.312-.738-5.354-2.757-6.128-6.057a19.047 19.047 0 0 1-.447-4.511 18.491 18.491 0 0 1 .515-4.786c.812-3.086 2.77-4.998 5.877-5.736a13.953 13.953 0 0 1 2.199-.355z" clip-rule="evenodd" style="fill:url(#a)"/><defs><radialGradient id="a" cx="0" cy="0" r="1" gradientTransform="matrix(0 11 -11 0 12 1)" gradientUnits="userSpaceOnUse"><stop offset="0" stop-color="#6EBBF7" style="stop-color:#70d0ff;stop-opacity:1"/><stop offset="1" stop-color="#2196F3" style="stop-color:#00acff;stop-opacity:1"/></radialGradient></defs><path d="M-3.886 20.653a5.71 5.71 0 0 1-2.737-1.14 7.123 7.123 0 0 1-.986-.993 5.545 5.545 0 0 1-1.12-2.664 7.34 7.34 0 0 1 .002-1.54 5.618 5.618 0 0 1 3.143-4.284c.788-.373 1.51-.531 2.425-.531a5.42 5.42 0 0 1 3.861 1.558c.513.495.857.965 1.152 1.573.399.821.56 1.536.56 2.479 0 1.241-.358 2.324-1.103 3.331-.221.3-.653.754-.94.99a5.645 5.645 0 0 1-2.785 1.21 8.47 8.47 0 0 1-1.472.011zm2.076-1.006a4.769 4.769 0 0 0 1.558-.81c.25-.195.684-.633.866-.873A4.862 4.862 0 0 0 1.54 15.7c.048-.38.02-1.186-.053-1.536A4.68 4.68 0 0 0 .23 11.788a4.424 4.424 0 0 0-1.252-.931 4.455 4.455 0 0 0-2.155-.51 4.63 4.63 0 0 0-2.362.618c-.68.383-1.383 1.087-1.768 1.77a4.963 4.963 0 0 0-.572 1.645 6.324 6.324 0 0 0-.002 1.41c.104.685.364 1.362.74 1.93.207.31.2.307.382.203.324-.186.41-.276.586-.622a5.94 5.94 0 0 1 .628-1.005c.23-.284.262-.335.378-.603.058-.135.162-.333.232-.44l.126-.195-.163-.16c-.217-.214-.398-.456-.432-.578-.034-.126.007-.196.17-.29.164-.095.282-.123.723-.168.214-.022.447-.063.52-.09.073-.028.291-.147.485-.264.559-.339.606-.356.94-.349.284.006.284.006.452-.095.351-.213.856-.596 1.52-1.155.128-.107.25-.192.273-.187.094.018.267.441.293.718.016.168-.017.334-.116.594-.027.07-.04.138-.028.15.029.029.126-.093.126-.157 0-.082.054-.091.128-.022.053.05.099.064.206.064.118 0 .147.01.192.072.078.104.096.386.037.565a.863.863 0 0 1-.391.449c-.142.067-.43.347-.564.55-.051.078-.148.24-.214.36-.067.12-.178.302-.248.404-.137.2-.255.48-.368.876-.067.233-.072.293-.075.812-.003.627-.036.78-.205.973-.193.22-.385.701-.401 1.005-.01.192-.04.379-.082.517-.018.061.016.06.222-.005z" style="fill:#fff;stroke-width:.0273438" transform="translate(17.035 -11.915) scale(1.58474)"/><path d="m18.854 174.592-1.604-1.604 1.604-1.603 1.604 1.603z" style="fill:#00acff;fill-opacity:1;stroke:none;stroke-width:1.5;stroke-miterlimit:4;stroke-dasharray:none" transform="matrix(.076 .13164 -.32557 .18797 67.765 -25.3)"/></svg>