<svg xmlns="http://www.w3.org/2000/svg" width="24" height="24" fill="none"><path fill="url(#a)" fill-rule="evenodd" d="M9.596 1.114c.12 0 .234-.014.344-.046a31.627 31.627 0 0 1 4.307.011c1.301.102 2.561.384 3.78.848 2.025.833 3.412 2.28 4.158 4.339.427 1.24.679 2.514.756 3.824a27.94 27.94 0 0 1-.114 4.923 11.88 11.88 0 0 1-.894 3.32c-.85 1.843-2.229 3.114-4.135 3.813a15.624 15.624 0 0 1-4.765.825 21.423 21.423 0 0 1-5.453-.413c-3.312-.737-5.354-2.756-6.128-6.056a19.047 19.047 0 0 1-.447-4.511 18.491 18.491 0 0 1 .515-4.786c.812-3.086 2.77-4.998 5.877-5.736a13.953 13.953 0 0 1 2.199-.355Z" clip-rule="evenodd"/><path fill="#FAFAFA" d="M5.583 18.111h12.834V7.417H5.583V18.11Zm1.07-9.625h2.139v2.14h-2.14v-2.14Zm3.208 0h7.486v2.14H9.861v-2.14Zm-3.208 3.209h2.139v2.138h-2.14v-2.138Zm3.208 0h7.486v2.138H9.861v-2.138Zm-3.208 3.208h2.139v2.139h-2.14v-2.139Zm3.208 0h7.486v2.139H9.861v-2.139Z"/><defs><radialGradient id="a" cx="0" cy="0" r="1" gradientTransform="matrix(0 11 -11 0 12 1)" gradientUnits="userSpaceOnUse"><stop stop-color="#8ACB8D"/><stop offset="1" stop-color="#4CAF50"/></radialGradient></defs></svg>