<svg xmlns="http://www.w3.org/2000/svg" xmlns:xlink="http://www.w3.org/1999/xlink" xml:space="preserve" id="svg154" width="24" height="24" fill="none" version="1.1"><defs id="defs152"><linearGradient id="swatch3303"><stop id="stop3303" offset="0" style="stop-color:#313131;stop-opacity:1"/></linearGradient><linearGradient id="linearGradient3301"><stop id="stop3301" offset="0" style="stop-color:#000;stop-opacity:1"/><stop id="stop3302" offset="1" style="stop-color:#000;stop-opacity:0"/></linearGradient><linearGradient id="linearGradient3299"><stop id="stop3299" offset="0" style="stop-color:#474747;stop-opacity:1"/><stop id="stop3300" offset="1" style="stop-color:#999;stop-opacity:1"/></linearGradient><linearGradient xlink:href="#linearGradient3299" id="linearGradient3300" x1="13.313" x2="12.688" y1="34.75" y2="-9.688" gradientUnits="userSpaceOnUse"/><linearGradient xlink:href="#linearGradient3299" id="linearGradient2" x1="13.313" x2="12.688" y1="34.75" y2="-9.688" gradientUnits="userSpaceOnUse"/><linearGradient id="linearGradient6-1" x1="3.174" x2="3.174" y1="1.359" y2="4.961" gradientTransform="scale(2.8347)" gradientUnits="userSpaceOnUse" spreadMethod="pad"><stop id="stop5" offset="0" style="stop-opacity:.34999619;stop-color:#fff"/><stop id="stop6" offset="1" style="stop-opacity:.4;stop-color:#000"/></linearGradient><radialGradient id="radialGradient66380" cx="0" cy="0" r="1" gradientTransform="matrix(0 22 -22 0 12 1)" gradientUnits="userSpaceOnUse"><stop id="stop66376" offset="0" stop-color="#8FC8FF" style="stop-color:#f2f2f2;stop-opacity:1"/><stop id="stop66378" offset="1" stop-color="#0056A8" style="stop-color:#ccc;stop-opacity:1"/></radialGradient><radialGradient xlink:href="#radialGradient66380" id="radialGradient1161" cx=".179" cy="-1.748" r="1" fx=".179" fy="-1.748" gradientTransform="matrix(0 22.01454 -22.00166 0 -26.468 -2.958)" gradientUnits="userSpaceOnUse"/><clipPath id="clipPath6-6" clipPathUnits="userSpaceOnUse"><path id="path6-1" d="M0 0h19v19H0Z"/></clipPath><style id="current-color-scheme" type="text/css">.ColorScheme-Text{color:#31363b}.ColorScheme-Background{color:#eff0f1}.ColorScheme-Highlight{color:#3daee9}.ColorScheme-ViewText{color:#31363b}.ColorScheme-ViewBackground{color:#fcfcfc}.ColorScheme-ViewHover{color:#93cee9}.ColorScheme-ViewFocus{color:#3daee9}.ColorScheme-ButtonText{color:#31363b}.ColorScheme-ButtonBackground{color:#eff0f1}.ColorScheme-ButtonHover{color:#93cee9}.ColorScheme-ButtonFocus{color:#3daee9}</style></defs><path id="path6" d="M12 1C2 1 1 6 1 12c0 8 3 11 11 11s11-3 11-11c0-6-1-11-11-11Z" style="font-variation-settings:normal;display:inline;opacity:1;vector-effect:none;fill:url(#radialGradient1161);fill-opacity:1;stroke-width:1.11627;stroke-linecap:butt;stroke-linejoin:miter;stroke-miterlimit:4;stroke-dasharray:none;stroke-dashoffset:0;stroke-opacity:1;-inkscape-stroke:none;stop-color:#000;stop-opacity:1"/><g id="g2267" style="display:inline;fill:url(#linearGradient3300);fill-opacity:1"><path id="path6-3" d="M50 5C9.09 5 5 25.455 5 50c0 32.727 12.273 45 45 45 32.727 0 45-12.273 45-45 0-24.545-4.09-45-45-45Z" style="font-variation-settings:normal;display:inline;opacity:1;vector-effect:none;fill:url(#linearGradient2);fill-opacity:1;stroke-width:4.56656;stroke-linecap:butt;stroke-linejoin:miter;stroke-miterlimit:4;stroke-dasharray:none;stroke-dashoffset:0;stroke-opacity:1;-inkscape-stroke:none;stop-color:#000;stop-opacity:1" transform="matrix(.24444 0 0 .24444 -.222 -.222)"/></g><path id="path2" fill="#f9f9f9" d="M7.694 5.273c-.895 0-1.614.72-1.614 1.615v10.225c0 .895.72 1.614 1.614 1.614h8.61c.896 0 1.616-.72 1.616-1.614V9.58l-4.305-4.306Z" style="stroke-width:1.01703;paint-order:stroke fill markers"/><path id="path3" fill="#f9f9f9" d="M7.694 5.273c-.895 0-1.614.72-1.614 1.615v10.225c0 .895.72 1.614 1.614 1.614h8.61c.896 0 1.616-.72 1.616-1.614V9.58l-4.305-4.306Z" opacity=".9" style="stroke-width:1.01703;paint-order:stroke fill markers"/><g id="g7" opacity=".9" transform="translate(-.007)"><path id="path7" d="M5.77 3.953a1.21 1.21 0 0 0-1.211 1.211v7.672a1.21 1.21 0 0 0 1.211 1.211h6.457c.671 0 1.214-.543 1.214-1.211V7.184l-3.23-3.231z" clip-path="url(#clipPath6-6)" opacity="1" style="fill:url(#linearGradient6-1);stroke:none" transform="scale(1.33333)"/></g><path id="path4" fill="#fff" d="M8.233 6.35c-.597 0-1.077.48-1.077 1.076v9.148c0 .597.48 1.077 1.077 1.077h7.534c.597 0 1.077-.48 1.077-1.077v-6.458L13.076 6.35Zm0 .268h4.732l3.61 3.61v6.346c0 .448-.36.808-.808.808H8.233a.805.805 0 0 1-.807-.808V7.426c0-.448.36-.808.807-.808z" style="stroke-width:.269087;paint-order:stroke fill markers"/><path id="path5-2" fill="#999" d="M17.965 9.528 13.66 5.222v2.691c0 .895.72 1.615 1.614 1.615z" style="stroke-width:1.01703;paint-order:stroke fill markers"/></svg>