<svg xmlns="http://www.w3.org/2000/svg" width="24" height="24"><defs><radialGradient id="a" cx="0" cy="0" r="1" fx="0" fy="0" gradientTransform="matrix(0 16.5 -16.5 0 9 .75)" gradientUnits="userSpaceOnUse" spreadMethod="pad"><stop offset="0" style="stop-opacity:1;stop-color:#fafafa"/><stop offset="1" style="stop-opacity:1;stop-color:silver"/></radialGradient></defs><path d="M7.195.836c.09 0 .176-.012.258-.035a23.86 23.86 0 0 1 3.231.008 10.26 10.26 0 0 1 2.836.636c1.519.625 2.558 1.711 3.121 3.254.316.93.507 1.887.566 2.867a21.227 21.227 0 0 1-.086 3.696 8.976 8.976 0 0 1-.672 2.488c-.637 1.383-1.672 2.336-3.101 2.859a11.693 11.693 0 0 1-3.575.618 15.998 15.998 0 0 1-4.089-.309c-2.481-.551-4.016-2.066-4.594-4.543a14.244 14.244 0 0 1-.336-3.383c-.027-1.211.101-2.41.387-3.59.609-2.312 2.078-3.746 4.406-4.3A10.27 10.27 0 0 1 7.195.836Z" style="fill:url(#a);fill-rule:evenodd;stroke:none" transform="matrix(1.33333 0 0 1.33333 0 0)"/><g style="stroke-width:.881119" transform="translate(-21.743 -10.123) scale(1.13492)"><rect width="4.091" height="1.636" x="32.909" y="15" opacity=".3" rx=".273" ry=".273" style="stroke-width:.881119"/><rect width="8.455" height="8.455" x="22" y="18" fill="#2968b4" rx="4.227" ry="4.227" style="stroke-width:.881119"/><path fill="#fff" d="M26.227 19.364a2.864 2.864 0 1 0 0 5.727 2.864 2.864 0 0 0 0-5.727zm-.287.547c.034-.004.076.002.11 0 .004.016-.025.073-.062.156-.243.53-.257 1.15-.032 1.482.041.06.078.117.078.125 0 .007-.044.015-.094.015-.116 0-.227-.071-.452-.25a.923.923 0 0 0-.28-.155c-.08-.016-.1-.01-.203.093-.096.096-.125.147-.125.234 0 .331.393.593 1.123.748.991.21 1.236.4 1.263.92.034.654-.314 1.148-1.076 1.53-.091.045-.149.062-.187.077-.017-.002-.03.001-.047 0a.544.544 0 0 1-.016-.156c0-.347-.136-.705-.342-.905a2.67 2.67 0 0 0-.344-.25c-.133-.08-.267-.176-.296-.217-.05-.068-.053-.11-.016-.234a.97.97 0 0 1 .312-.5.828.828 0 0 1 .187-.14c.019 0-.107-.04-.296-.078a5.327 5.327 0 0 1-.608-.172c-.262-.094-.614-.292-.748-.436l-.016-.016a2.507 2.507 0 0 1 1.45-1.7 2.45 2.45 0 0 1 .468-.14c.081-.016.165-.023.25-.031zm2.34 1.17c.058.036.28.515.343.748.081.302.075.823 0 1.123-.029.114-.066.22-.078.234-.012.013-.057-.063-.11-.156a3.208 3.208 0 0 0-.358-.437c-.401-.423-.465-.644-.297-.982.085-.17.455-.558.5-.53z" style="stroke-width:.881119"/><path d="M30.8 15a.62.62 0 0 0-.253.05.4.4 0 0 0-.173.137.369.369 0 0 0-.063.217c0 .123.033.222.1.298.069.074.172.14.31.196.088.036.157.07.206.103a.3.3 0 0 1 .106.107.266.266 0 0 1 .034.138c0 .091-.029.16-.085.21a.353.353 0 0 1-.234.071.271.271 0 0 1-.17-.049.305.305 0 0 1-.095-.131.55.55 0 0 1-.036-.175.16.16 0 0 0-.118.043.141.141 0 0 0-.043.107c0 .094.038.17.112.228.076.058.187.086.332.086.168 0 .3-.04.399-.118.1-.079.15-.188.15-.33a.365.365 0 0 0-.11-.276.977.977 0 0 0-.305-.185 1.47 1.47 0 0 1-.205-.1.317.317 0 0 1-.11-.11.337.337 0 0 1-.03-.152c0-.077.023-.138.07-.184a.275.275 0 0 1 .201-.07.23.23 0 0 1 .147.043.224.224 0 0 1 .078.107.373.373 0 0 1 .025.134.205.205 0 0 0 .127-.036.13.13 0 0 0 .05-.11c0-.065-.037-.123-.11-.174A.539.539 0 0 0 30.8 15Zm-5.979.022v.094h.029c.049 0 .091.009.127.027.037.017.056.059.056.124v1.093c0 .07-.018.114-.054.134a.289.289 0 0 1-.13.026h-.028v.094h.56v-.094h-.03a.287.287 0 0 1-.129-.026c-.035-.02-.053-.064-.053-.134v-1.03l.835 1.284h.16v-1.337c0-.07.017-.114.053-.132a.267.267 0 0 1 .129-.029h.029v-.094h-.56v.094h.03c.048 0 .091.009.127.027.037.017.055.059.055.124v.988l-.798-1.233zm1.764 0v.094h.029c.05 0 .094.01.129.03.036.017.054.06.054.13v1.095c0 .065-.02.107-.056.125a.302.302 0 0 1-.127.024h-.03v.094h1.195l.016-.39h-.115l-.016.096a.247.247 0 0 1-.06.129c-.032.035-.082.053-.152.053h-.43v-.666h.537v-.11h-.537v-.592h.375c.067 0 .114.019.142.056a.237.237 0 0 1 .054.126l.01.096h.116l-.01-.39zm1.302 0v.094h.028c.043 0 .077.008.1.025.024.016.044.047.058.092l.408 1.381h.205l.342-1.249.363 1.249h.2l.378-1.324c.02-.075.042-.122.066-.143a.158.158 0 0 1 .103-.03h.042v-.095h-.544v.094h.051c.099 0 .148.036.148.11a.246.246 0 0 1-.01.052l-.015.063-.196.69a3.083 3.083 0 0 0-.051.195l-.038.17a5.824 5.824 0 0 0-.096-.393l-.278-.965h-.161l-.266.956a4.03 4.03 0 0 0-.05.212c-.016.068-.029.131-.041.19a7.131 7.131 0 0 0-.096-.377l-.205-.714a.822.822 0 0 0-.013-.044.173.173 0 0 1-.005-.038c0-.071.045-.107.134-.107h.051v-.094z" opacity=".7" style="stroke-width:.881119"/><rect width="6" height=".545" x="31" y="18" opacity=".35" rx=".273" ry=".273" style="stroke-width:.881119"/><rect width="6" height=".545" x="31" y="19.636" opacity=".35" rx=".273" ry=".273" style="stroke-width:.881119"/><rect width="6" height=".545" x="31" y="21.273" opacity=".35" rx=".273" ry=".273" style="stroke-width:.881119"/><rect width="6" height=".545" x="31" y="22.909" opacity=".35" rx=".273" ry=".273" style="stroke-width:.881119"/></g></svg>