<svg xmlns="http://www.w3.org/2000/svg" width="24" height="24" fill="none"><defs><radialGradient id="a" cx="0" cy="0" r="1" gradientTransform="matrix(0 22 -22 0 12 1)" gradientUnits="userSpaceOnUse"><stop offset="0" stop-color="#8FC8FF" style="stop-color:#f6f6f6;stop-opacity:1"/><stop offset="1" stop-color="#0056A8" style="stop-color:#cfcfcf;stop-opacity:1"/></radialGradient></defs><path d="M50 5C9.09 5 5 25.455 5 50c0 32.727 12.273 45 45 45 32.727 0 45-12.273 45-45 0-24.545-4.09-45-45-45Z" style="font-variation-settings:normal;display:inline;opacity:1;vector-effect:none;fill:#a51012;fill-opacity:1;stroke-width:4.56656;stroke-linecap:butt;stroke-linejoin:miter;stroke-miterlimit:4;stroke-dasharray:none;stroke-dashoffset:0;stroke-opacity:1;-inkscape-stroke:none;stop-color:#000;stop-opacity:1" transform="matrix(.24444 0 0 .24444 -.222 -.222)"/><path fill="#fff" d="M16.86 7.489a11.403 11.403 0 0 0-2.89-.908 8.47 8.47 0 0 0-.369.768 10.605 10.605 0 0 0-3.201 0 8.206 8.206 0 0 0-.375-.768 11.365 11.365 0 0 0-2.89.91c-1.828 2.762-2.323 5.456-2.076 8.111a11.558 11.558 0 0 0 3.543 1.816 8.806 8.806 0 0 0 .758-1.25 7.46 7.46 0 0 1-1.194-.581c.1-.075.198-.152.293-.232 2.303 1.077 4.806 1.077 7.082 0 .096.08.194.157.293.232a7.42 7.42 0 0 1-1.197.582c.219.439.473.857.759 1.25 1.156-.36 2.332-.91 3.544-1.817.291-3.078-.496-5.747-2.08-8.113zm-7.186 6.48c-.691 0-1.259-.646-1.259-1.432 0-.786.556-1.433 1.26-1.433.703 0 1.27.646 1.258 1.433 0 .786-.555 1.432-1.259 1.432zm4.651 0c-.691 0-1.258-.646-1.258-1.432 0-.786.555-1.433 1.258-1.433.704 0 1.271.646 1.259 1.433 0 .786-.555 1.432-1.259 1.432z" style="stroke-width:.4375"/></svg>