<svg xmlns="http://www.w3.org/2000/svg" width="24" height="24" viewBox="0 0 6.35 6.35"><defs><radialGradient id="a" cx="0" cy="0" r="1" gradientTransform="rotate(90 1.455 1.72) scale(5.82072)" gradientUnits="userSpaceOnUse"><stop offset="0" stop-color="#FAFAFA" style="stop-color:#fafafa;stop-opacity:.59629631"/><stop offset="1" stop-color="#B0B0B0" style="stop-color:#b0b0b0;stop-opacity:0"/></radialGradient></defs><path d="M3.164.265c-.178 0-.356.006-.534.018a.312.312 0 0 1-.091.012c-.197.015-.39.047-.582.094-.822.195-1.34.7-1.555 1.517a4.887 4.887 0 0 0-.136 1.266c-.009.403.031.801.118 1.194.205.873.745 1.407 1.621 1.603.477.097.958.134 1.443.109.432-.008.852-.08 1.26-.219a1.87 1.87 0 0 0 1.095-1.008c.121-.281.2-.574.236-.879.049-.433.059-.867.03-1.302a3.775 3.775 0 0 0-.2-1.012A1.887 1.887 0 0 0 4.77.51a3.583 3.583 0 0 0-1-.224 8.374 8.374 0 0 0-.543-.02Z" style="fill:#4d4d4d;fill-opacity:1;stroke-width:.423277"/><path d="M3.2.265h-.025v2.909h2.908a7.41 7.41 0 0 0-.013-.504 3.775 3.775 0 0 0-.2-1.012A1.887 1.887 0 0 0 4.77.51a3.583 3.583 0 0 0-1-.224C3.58.272 3.39.266 3.2.265ZM.266 3.175c-.008.401.031.799.118 1.191.205.873.745 1.407 1.622 1.603a5.66 5.66 0 0 0 1.079.116h.09v-2.91Z" style="fill:#1f8fd7;fill-opacity:1;stroke-width:.264578"/><path fill="url(#a)" fill-rule="evenodd" d="M2.63.283a.312.312 0 0 1-.091.012c-.197.015-.39.047-.582.094-.822.195-1.34.7-1.555 1.517-.1.416-.146.838-.136 1.266-.008.403.031.801.118 1.194.205.873.745 1.407 1.621 1.603.477.097.957.134 1.443.108.432-.007.852-.08 1.26-.218a1.87 1.87 0 0 0 1.095-1.008c.121-.281.2-.574.236-.879.049-.433.059-.867.03-1.302a3.775 3.775 0 0 0-.2-1.012A1.886 1.886 0 0 0 4.77.51a3.581 3.581 0 0 0-1-.224A8.37 8.37 0 0 0 2.63.283z" clip-rule="evenodd" style="opacity:.35;fill:url(#a);stroke-width:.264578"/></svg>