<svg xmlns="http://www.w3.org/2000/svg" xml:space="preserve" width="24" height="24"><defs><radialGradient id="a" cx="0" cy="0" r="1" fx="0" fy="0" gradientTransform="matrix(0 22 -22 0 46 1)" gradientUnits="userSpaceOnUse" spreadMethod="pad"><stop offset="0" style="stop-opacity:1;stop-color:#737373"/><stop offset="1" style="stop-opacity:1;stop-color:#424242"/></radialGradient></defs><path d="M43.593 1.115c.12 0 .235-.016.344-.047a31.814 31.814 0 0 1 4.308.01 13.68 13.68 0 0 1 3.782.849c2.025.833 3.41 2.281 4.161 4.338.421 1.24.676 2.516.755 3.823a28.303 28.303 0 0 1-.115 4.928 11.968 11.968 0 0 1-.896 3.317c-.85 1.844-2.23 3.115-4.135 3.812-1.542.522-3.13.798-4.766.824a21.331 21.331 0 0 1-5.452-.412c-3.308-.734-5.355-2.754-6.126-6.057a18.991 18.991 0 0 1-.448-4.51 18.502 18.502 0 0 1 .516-4.787c.812-3.083 2.771-4.995 5.875-5.734a13.692 13.692 0 0 1 2.197-.354Z" style="fill:url(#a);fill-rule:evenodd;stroke:none;stroke-width:1.33333" transform="translate(-34)"/><path d="M52.5 12c0 3.588-2.912 6.5-6.5 6.5a6.502 6.502 0 0 1-6.5-6.5c0-3.588 2.912-6.5 6.5-6.5s6.5 2.912 6.5 6.5z" style="fill:#66bb6a;fill-opacity:1;fill-rule:nonzero;stroke:none;stroke-width:1.33333" transform="translate(-34)"/><path d="M44.557 8.39V12h-2.166L46 15.61 49.61 12h-2.167V8.39Z" style="fill:#fafafa;fill-opacity:1;fill-rule:nonzero;stroke:none;stroke-width:1.33333" transform="translate(-34)"/></svg>