<svg xmlns="http://www.w3.org/2000/svg" width="24" height="24" fill="none"><defs><radialGradient id="a" cx="0" cy="0" r="1" gradientTransform="matrix(0 22 -22 0 12 1)" gradientUnits="userSpaceOnUse"><stop offset="0" stop-color="#8FC8FF" style="stop-color:#f6f6f6;stop-opacity:1"/><stop offset="1" stop-color="#0056A8" style="stop-color:#cfcfcf;stop-opacity:1"/></radialGradient></defs><path d="M50 5C9.09 5 5 25.455 5 50c0 32.727 12.273 45 45 45 32.727 0 45-12.273 45-45 0-24.545-4.09-45-45-45Z" style="font-variation-settings:normal;display:inline;opacity:1;vector-effect:none;fill:#0071c6;fill-opacity:1;stroke-width:4.56656;stroke-linecap:butt;stroke-linejoin:miter;stroke-miterlimit:4;stroke-dasharray:none;stroke-dashoffset:0;stroke-opacity:1;-inkscape-stroke:none;stop-color:#000;stop-opacity:1" transform="matrix(.24444 0 0 .24444 -.222 -.222)"/><g fill="#fff" stroke-width=".357"><path d="M13.75 7.918v2.789l.98.71h.105L18.998 8.5a.561.561 0 0 0-.582-.582z"/><path d="m13.764 11.729.88.599c.125.09.274 0 .274 0C14.77 12.418 19 9.665 19 9.665v5.252c0 .355-.178.582-.584.582h-4.665ZM9.19 10.467a.814.814 0 0 0-.718.417c-.178.28-.266.65-.266 1.11 0 .466.088.836.264 1.107.178.272.41.406.7.406.294 0 .528-.132.702-.395.174-.265.261-.631.261-1.1 0-.487-.085-.869-.253-1.14a.779.779 0 0 0-.692-.405z"/><path d="M5 6.75v10.5L13.167 19V5zm5.514 6.995a1.638 1.638 0 0 1-1.36.68 1.62 1.62 0 0 1-1.337-.66c-.342-.438-.515-1.01-.515-1.715 0-.746.175-1.35.523-1.808a1.657 1.657 0 0 1 1.389-.69c.544 0 .982.22 1.319.661.336.439.504 1.02.504 1.74 0 .741-.174 1.339-.523 1.792z"/></g></svg>