<svg xmlns="http://www.w3.org/2000/svg" width="24" height="24" viewBox="0 0 6.35 6.35"><path d="M2.538.295A.335.335 0 0 0 2.63.283c.38-.025.76-.024 1.14.002a3.62 3.62 0 0 1 1 .225c.536.22.903.603 1.101 1.148.112.328.18.665.2 1.011.028.436.018.87-.03 1.304a3.166 3.166 0 0 1-.237.878c-.225.487-.59.824-1.094 1.008a4.125 4.125 0 0 1-1.261.218 5.644 5.644 0 0 1-1.443-.109C1.13 5.774.588 5.24.385 4.366a5.025 5.025 0 0 1-.12-1.194c-.009-.427.036-.85.137-1.266C.617 1.09 1.135.584 1.957.389c.191-.047.386-.079.581-.094Z" style="fill:#f2f2f2;fill-opacity:1;fill-rule:evenodd;stroke:none;stroke-width:.352771"/><g style="stroke-width:2.61374"><path fill="#f55" d="M3.026 3.97A4.498 4.498 0 0 0-.006 5.283a4.498 4.498 0 0 0-.367 5.935l.945-.945A3.175 3.175 0 0 1 .93 6.219a3.175 3.175 0 0 1 3.303-.744v1.136L5.93 4.914a4.498 4.498 0 0 0-2.904-.944Z" style="stroke-width:2.61374;paint-order:stroke markers fill" transform="matrix(.3826 0 0 .3826 1.96 -.063)"/><path fill="#ff8080" d="m6.723 5.709-.945.945a3.175 3.175 0 0 1-.359 4.054 3.175 3.175 0 0 1-3.303.744v-1.137L.994 11.438l-.575.574a4.498 4.498 0 0 0 5.936-.368 4.498 4.498 0 0 0 .368-5.935z" style="stroke-width:2.61374;paint-order:stroke markers fill" transform="matrix(.3826 0 0 .3826 1.96 -.063)"/></g></svg>