<svg xmlns="http://www.w3.org/2000/svg" width="24" height="24" fill="none"><defs><radialGradient id="a" cx="0" cy="0" r="1" gradientTransform="matrix(0 22 -22 0 12 1)" gradientUnits="userSpaceOnUse"><stop offset="0" stop-color="#8FC8FF" style="stop-color:#f6f6f6;stop-opacity:1"/><stop offset="1" stop-color="#0056A8" style="stop-color:#cfcfcf;stop-opacity:1"/></radialGradient></defs><path d="M50 5C9.09 5 5 25.455 5 50c0 32.727 12.273 45 45 45 32.727 0 45-12.273 45-45 0-24.545-4.09-45-45-45Z" style="font-variation-settings:normal;display:inline;opacity:1;vector-effect:none;fill:#262626;fill-opacity:1;stroke-width:4.56656;stroke-linecap:butt;stroke-linejoin:miter;stroke-miterlimit:4;stroke-dasharray:none;stroke-dashoffset:0;stroke-opacity:1;-inkscape-stroke:none;stop-color:#000;stop-opacity:1" transform="matrix(.24444 0 0 .24444 -.222 -.222)"/><path fill="#20bd4d" d="M16.657 18.633v-2.657 2.658z"/><path fill="#00913a" d="M12.01 5.347 5.027 9.33v7.975l2.326 1.34v-.003l2.326-1.339v-2.645l-2.326-1.333v-2.634l4.652-2.666h.001l4.651 2.664v2.63l-2.325 1.315.008 2.664 2.317 1.335 2.326-1.328V9.342Z"/><path fill="#3fb66c" d="m18.961 9.33-6.95-3.983-.003-.005-.003.002-.002-.002-.003.005L5.05 9.33h-.024v7.975l2.326 1.34v-.003l2.326-1.339v-2.645l-2.326-1.333v-2.634l4.653-2.666 4.651 2.664v7.945l2.326-1.33V9.33Z"/><path fill="#2fd36d" d="m16.655 13.318-2.324 1.316.007 2.664 2.317 1.335z"/><path fill="#2fd36d" d="M18.982 14.641V9.33h-.02L12.01 5.347l-.003-.005-.003.002-.001-.001v2.682h.001l4.651 2.664v5.287zm-11.63 1.332-2.325-1.332.007 2.664 2.318 1.337z"/><path stroke="#00913a" stroke-miterlimit="10" stroke-width=".03341856" d="M5.026 9.33v7.975"/><path stroke="#00913a" stroke-linejoin="round" stroke-miterlimit="10" stroke-width=".03341856" d="m7.353 8.01 4.652-2.666m0 2.68-4.653 2.667"/><path stroke="#00913a" stroke-miterlimit="10" stroke-width=".03341856" d="m7.352 13.325 2.326 1.333m-4.652 2.647 2.326 1.34M18.974 9.33v7.975"/><path stroke="#00913a" stroke-linejoin="round" stroke-miterlimit="10" stroke-width=".03341856" d="m16.647 8.01-4.652-2.666m0 2.68 4.653 2.667"/><path stroke="#00913a" stroke-miterlimit="10" stroke-width=".03341856" d="m16.648 13.325-2.326 1.333"/><g stroke="#00913a" stroke-miterlimit="10" stroke-width=".096"><path stroke-width=".03341856" d="m5.034 17.305 4.644-2.647"/><path stroke-linejoin="round" stroke-width=".03341856" d="m9.678 17.303-4.661-2.659 2.33-1.318-2.32-1.337 2.324-1.297L5.025 9.33l2.328-1.32 2.326 1.348-.005-2.678 2.331 1.345-.002-2.683"/><path stroke-width=".03341856" d="M9.678 14.646v2.659l-2.326 1.337V8.01m11.614 9.295-4.644-2.647"/><path stroke-linejoin="round" stroke-width=".03341856" d="m14.322 17.303 4.661-2.659-2.33-1.318 2.321-1.337-2.324-1.297 2.325-1.362-2.328-1.32-2.326 1.348.005-2.678-2.331 1.345.002-2.683"/><path stroke-width=".03341856" d="M14.322 14.646v2.659l2.326 1.337V8.01"/></g><path stroke="#00913a" stroke-miterlimit="10" stroke-width=".03341856" d="m18.974 17.305-2.326 1.34"/></svg>