<svg xmlns="http://www.w3.org/2000/svg" xmlns:xlink="http://www.w3.org/1999/xlink" width="24" height="24" viewBox="0 0 6.35 6.35"><defs><radialGradient xlink:href="#a" id="b" cx="3.175" cy=".266" r="2.91" fx="3.175" fy=".266" gradientUnits="userSpaceOnUse"/><linearGradient id="a"><stop offset="0" style="stop-color:#fece76;stop-opacity:1"/><stop offset="1" style="stop-color:#feaf27;stop-opacity:1"/></linearGradient></defs><path d="M2.538.295A.335.335 0 0 0 2.63.283c.38-.025.76-.024 1.14.002a3.62 3.62 0 0 1 1 .225c.536.22.903.603 1.101 1.148.112.328.18.665.2 1.011.028.436.018.87-.03 1.304a3.166 3.166 0 0 1-.237.878c-.225.487-.59.824-1.094 1.008a4.125 4.125 0 0 1-1.261.218 5.644 5.644 0 0 1-1.443-.109C1.13 5.774.588 5.24.385 4.366a5.025 5.025 0 0 1-.12-1.194c-.009-.429.036-.85.137-1.266C.617 1.09 1.135.584 1.957.389c.191-.047.386-.079.581-.094Z" style="fill:url(#b);fill-rule:evenodd;stroke:none;stroke-width:.352771;fill-opacity:1"/><path d="M3.173 1.19c-.664 0-1.205.538-1.208 1.203v.72h-.078a.32.32 0 0 0-.322.322v1.401c0 .178.143.323.322.323h2.575a.325.325 0 0 0 .323-.323v-1.4a.323.323 0 0 0-.323-.323h-.077v-.72A1.21 1.21 0 0 0 3.173 1.19Zm0 .38c.457 0 .827.366.833.823v.72H2.345v-.72a.831.831 0 0 1 .828-.823Z" style="fill:#feaf27;fill-opacity:1;fill-rule:nonzero;stroke:#feaf27;stroke-width:.264578;stroke-dasharray:none;stroke-opacity:1"/><path d="M18.63 9.604a2.027 2.027 0 0 0-2.026 2.016v1.432h.636V11.62c.01-.765.629-1.38 1.39-1.38.766 0 1.386.615 1.396 1.38v1.432h.635V11.62a2.028 2.028 0 0 0-2.03-2.016z" style="fill:#cad8ed;fill-opacity:1;fill-rule:nonzero;stroke:none;stroke-width:1.33333" transform="matrix(.59625 0 0 .59625 -7.935 -4.536)"/><path d="M16.473 12.828h4.319c.296 0 .54.24.54.541v2.35a.544.544 0 0 1-.54.541h-4.32a.54.54 0 0 1-.54-.541v-2.35c0-.301.24-.541.54-.541z" style="fill:#f7c04a;fill-opacity:1;fill-rule:nonzero;stroke:none;stroke-width:1.33333" transform="matrix(.59625 0 0 .59625 -7.935 -4.536)"/><path d="M18.63 13.656a.498.498 0 0 0-.494.495.497.497 0 0 0 .265.437v.61c0 .125.104.229.23.229.129 0 .229-.104.229-.23v-.609a.494.494 0 0 0-.23-.932z" style="fill:#eb8117;fill-opacity:1;fill-rule:nonzero;stroke:none;stroke-width:1.33333" transform="matrix(.59625 0 0 .59625 -7.935 -4.536)"/></svg>