<svg xmlns="http://www.w3.org/2000/svg" width="24" height="24" viewBox="0 0 6.35 6.35"><defs><radialGradient id="a" cx="0" cy="0" r="1" fx="0" fy="0" gradientTransform="rotate(90 1.455 1.72) scale(5.82072)" gradientUnits="userSpaceOnUse" spreadMethod="pad"><stop offset="0" style="stop-color:#c9dcf1;stop-opacity:1"/><stop offset="1" style="stop-color:#5494de;stop-opacity:1"/></radialGradient></defs><path d="M2.538.295A.335.335 0 0 0 2.63.283c.38-.025.76-.024 1.14.002a3.62 3.62 0 0 1 1 .225c.536.22.903.603 1.101 1.148.112.328.18.665.2 1.011.028.436.018.87-.03 1.304a3.166 3.166 0 0 1-.237.878c-.225.487-.59.824-1.094 1.008a4.125 4.125 0 0 1-1.261.218 5.643 5.643 0 0 1-1.443-.109C1.13 5.774.588 5.24.385 4.366a5.025 5.025 0 0 1-.12-1.194c-.009-.427.036-.85.137-1.266C.617 1.09 1.135.584 1.957.389c.191-.047.386-.079.581-.094Z" style="fill:url(#a);fill-rule:evenodd;stroke:none;stroke-width:.352683;stroke-dasharray:none"/><g transform="matrix(.0637 0 0 .0637 5.731 1.384)"><rect width="50" height="53.999" x="-65.129" y="1.119" fill="#525252" rx="9" ry="9" style="opacity:.8"/><path fill="#55a3ff" d="M-40.129 23.12a16 16 0 0 0-16 16h32a16 16 0 0 0-16-16Z"/><rect width="40" height="12" x="-60.129" y="30.12" fill="#fff" rx="3" ry="3"/><g stroke-linecap="round" stroke-linejoin="round" stroke-width=".529" opacity=".65" transform="translate(-70.129 -5.88) scale(3.7796)"><circle cx="4.762" cy="11.112" r=".794" opacity="1"/><circle cx="6.879" cy="11.112" r=".794" opacity="1"/><circle cx="8.996" cy="11.112" r=".794" opacity="1"/><circle cx="11.112" cy="11.112" r=".794" opacity="1"/></g><circle cx="-40.129" cy="13.119" r="8" fill="#55a3ff"/></g></svg>