<?xml version="1.0" encoding="UTF-8" standalone="no"?>
<svg
   width="24"
   height="24"
   fill="none"
   version="1.1"
   id="svg8"
   sodipodi:docname="lutris.svg"
   inkscape:version="1.3.2 (091e20ef0f, 2023-11-25, custom)"
   xmlns:inkscape="http://www.inkscape.org/namespaces/inkscape"
   xmlns:sodipodi="http://sodipodi.sourceforge.net/DTD/sodipodi-0.dtd"
   xmlns="http://www.w3.org/2000/svg"
   xmlns:svg="http://www.w3.org/2000/svg">
  <sodipodi:namedview
     id="namedview8"
     pagecolor="#ffffff"
     bordercolor="#000000"
     borderopacity="0.25"
     inkscape:showpageshadow="2"
     inkscape:pageopacity="0.0"
     inkscape:pagecheckerboard="0"
     inkscape:deskcolor="#d1d1d1"
     inkscape:zoom="12.260417"
     inkscape:cx="-21.369584"
     inkscape:cy="12.11215"
     inkscape:window-width="3440"
     inkscape:window-height="1366"
     inkscape:window-x="2560"
     inkscape:window-y="38"
     inkscape:window-maximized="1"
     inkscape:current-layer="svg8" />
  <defs
     id="defs8">
    <radialGradient
       id="a"
       cx="0"
       cy="0"
       r="1"
       gradientTransform="matrix(0 22 -22 0 12 1)"
       gradientUnits="userSpaceOnUse">
      <stop
         stop-color="#FFE698"
         id="stop5" />
      <stop
         offset="1"
         stop-color="#FBBF00"
         id="stop6" />
    </radialGradient>
    <linearGradient
       id="b"
       x1="12"
       x2="12"
       y1="1"
       y2="23"
       gradientUnits="userSpaceOnUse">
      <stop
         stop-color="#FFE698"
         id="stop7" />
      <stop
         offset="1"
         stop-color="#FBBF00"
         id="stop8" />
    </linearGradient>
    <radialGradient
       fx="0"
       fy="0"
       cx="0"
       cy="0"
       r="1"
       gradientUnits="userSpaceOnUse"
       gradientTransform="matrix(0,11,-11,0,11.99994,0.99980664)"
       spreadMethod="pad"
       id="radialGradient2">
      <stop
         style="stop-opacity:1;stop-color:#8e695a"
         offset="0"
         id="stop1" />
      <stop
         style="stop-opacity:1;stop-color:#5e3c2e"
         offset="1"
         id="stop2-9" />
    </radialGradient>
    <radialGradient
       fx="31.360138"
       fy="12.70698"
       cx="31.360138"
       cy="12.70698"
       r="8.0087891"
       gradientUnits="userSpaceOnUse"
       gradientTransform="matrix(0.99999997,0,0,0.93964131,-20.000059,0.86745864)"
       spreadMethod="pad"
       id="radialGradient4">
      <stop
         style="stop-opacity:1;stop-color:#ffb700"
         offset="0"
         id="stop3-3" />
      <stop
         style="stop-opacity:1;stop-color:#ff8802"
         offset="1"
         id="stop4" />
    </radialGradient>
    <linearGradient
       x1="369.23862"
       y1="-117.5489"
       x2="369.23862"
       y2="-183.11708"
       gradientUnits="userSpaceOnUse"
       gradientTransform="matrix(0.10384613,0,0,0.10490866,-26.378106,26.374727)"
       spreadMethod="pad"
       id="linearGradient6">
      <stop
         style="stop-opacity:1;stop-color:#e5dfdd"
         offset="0"
         id="stop5-7" />
      <stop
         style="stop-opacity:1;stop-color:#ffffff"
         offset="1"
         id="stop6-4" />
    </linearGradient>
    <radialGradient
       fx="0"
       fy="0"
       cx="0"
       cy="0"
       r="1"
       gradientUnits="userSpaceOnUse"
       gradientTransform="matrix(-15.20983,14.08805,-12.90124,-13.928518,11.99994,0.99980664)"
       spreadMethod="pad"
       id="radialGradient12">
      <stop
         style="stop-opacity:0.15864805;stop-color:#ffffff"
         offset="0"
         id="stop11-5" />
      <stop
         style="stop-opacity:0.3919585;stop-color:#ffffff"
         offset="1"
         id="stop12-2" />
    </radialGradient>
  </defs>
  <path
     id="path2"
     d="m 9.5933331,1.1146666 c 0.12,0 0.2346667,-0.016 0.344,-0.046667 1.4373329,-0.0946667 2.8746669,-0.0893334 4.3079999,0.010667 1.301333,0.104 2.561333,0.3853334 3.781333,0.848 2.025333,0.8333333 3.410667,2.2813333 4.161333,4.3386666 0.421334,1.2399999 0.676,2.5159999 0.754667,3.8226668 0.104,1.641333 0.068,3.292 -0.114667,4.922666 -0.134666,1.145334 -0.437333,2.265334 -0.896,3.322667 -0.849333,1.844 -2.229333,3.114666 -4.134666,3.812 -1.537333,0.521333 -3.141333,0.797333 -4.766667,0.824 -1.828,0.09867 -3.6559996,-0.04267 -5.4519995,-0.412 C 4.2653332,21.822666 2.2239999,19.802666 1.4533333,16.5 c -0.328,-1.478667 -0.47999999,-2.994667 -0.448,-4.510667 C 0.96933331,10.38 1.14,8.7706664 1.5213333,7.2026665 2.3333333,4.1199999 4.2919999,2.2079999 7.3959998,1.4693333 8.1199998,1.292 8.8546664,1.172 9.5933331,1.1146666 Z"
     style="fill:url(#radialGradient2);fill-rule:evenodd;stroke:none;stroke-width:1.33333" />
  <path
     id="path4"
     d="m 17.516,6.8493332 -6.218667,0.484 -2.9906665,1.9266666 c 0.172,0.1146666 0.3653333,0.188 0.5839999,0.1986666 0.010667,0 0.026667,0 0.036,0 C 10.078666,9.5159998 10.776,11.265333 10.797333,11.724 c 0.0053,0.04667 0.0053,0.02133 0.0053,0.07333 -0.032,0.661333 -0.338666,1.150667 -0.9906662,1.129333 -0.3013334,-0.0093 -0.604,-0.09867 -0.8853334,-0.448 -0.057333,-0.06667 -0.088,-0.150666 -0.14,-0.228 C 8.2239998,11.344 7.3493331,11.057333 6.4733332,10.906666 l -0.8853333,4.02 c 0.5373333,3.990667 3.9426665,6.969333 7.9746661,6.974667 2.130667,0 4.177334,-0.849334 5.688,-2.36 1.509333,-1.505333 2.358667,-3.552 2.358667,-5.686667 -0.0053,-2.901333 -1.568,-5.5786662 -4.093333,-7.0053328 z"
     style="fill:url(#radialGradient4);stroke:none;stroke-width:1.33333" />
  <path
     id="path5"
     d="M 17.354666,6.0159998 16.864,6.6613332 l -5.666667,0.62 -3.0039999,1.8959999 c 0.192,0.1613333 0.432,0.2653333 0.6973333,0.2813333 0.010667,0 0.026667,0 0.036,0 0.1986667,0.010667 0.38,0.072 0.552,0.1666667 0.068,-0.041333 0.1306667,-0.084 0.1986667,-0.12 C 10.364,9.1039998 11.822666,8.6506665 13.844,8.9479998 c 1.025333,0.1506666 1.864,0.364 3.161333,0.7653333 1.505333,0.4693329 2.338667,1.1146669 3.494666,1.2453329 0.193334,0.02 0.390667,0.01467 0.582667,-0.02133 C 20.453333,8.9119998 19.12,7.1826665 17.354666,6.0159998 Z M 6.4213332,10.896 5.4839999,15.068 c 0,0 0.7399999,3.150666 1.3759999,3.786666 0.6346667,0.64 1.9466666,2.468 3.5666662,2.790667 1.625334,0.318666 3.005334,0.677333 4.318667,0.36 1.317333,-0.322667 2.192,-0.702667 2.192,-0.702667 l 0.552,-0.256 c 0,0 -0.14,0.114667 -0.353333,0.265333 0.296,-0.186666 0.577333,-0.390666 0.853333,-0.604 -1.52,0.922667 -3.369333,1.385334 -4.421333,1.385334 -3.9013336,0 -7.0680002,-3.066667 -7.0680002,-6.858667 0,-1.338666 0.3333334,-2.646666 1.0106667,-3.708 0.4733333,0.197334 0.9786666,0.536 1.2919999,1.030667 0.052,0.07333 0.088,0.150667 0.1453334,0.218667 0.2813333,0.333333 0.5826666,0.417333 0.8853333,0.432 C 10.484,13.229333 10.792,12.754666 10.817333,12.12 c 0.0053,-0.04667 0.0053,-0.02667 0,-0.068 0,-0.036 -0.01067,-0.09333 -0.02,-0.150667 -0.05733,0.604 -0.365333,1.046667 -0.9853332,1.025333 -0.3013334,-0.0093 -0.604,-0.09867 -0.8853334,-0.448 -0.057333,-0.06667 -0.088,-0.150666 -0.14,-0.228 -0.5733333,-0.928 -1.4746666,-1.204 -2.3653332,-1.354666 z"
     style="fill:#000000;fill-opacity:0.156863;fill-rule:nonzero;stroke:none;stroke-width:1.33333" />
  <path
     id="path6"
     d="m 15.458666,5.0933332 c -2.068,0.010667 -3.276,0.256 -5.422666,1.1773333 C 9.4733331,6.5359998 8.9173331,6.8493332 8.3799998,7.2079998 8.0213331,7.4786665 7.8333331,7.8026665 7.7706665,8.2133331 c -0.016,0.656 0.48,1.208 1.1199999,1.2453333 0.010667,0 0.026667,0 0.036,0 0.057333,0.00533 0.1146667,0.010667 0.172,0.025333 C 9.2813331,9.3493331 9.4733331,9.2186664 9.6773331,9.0933331 10.364,8.6826664 11.817333,8.2079998 13.844,8.5159998 c 1.02,0.156 1.864,0.38 3.156,0.796 1.505333,0.4853333 2.344,1.1613332 3.499999,1.2973332 1.317334,0.150667 2.708,-1.0986666 1.682667,-3.0519999 0,0 -0.188,0.188 -0.344,0.2813334 -0.156,0.093333 -0.369333,-0.032 -0.994667,-0.2506667 C 20.218666,7.3693331 20.125333,7.1146665 19.254666,6.5213332 18.38,5.9213332 18.385333,5.2599999 15.828,5.1039999 15.708,5.0933332 15.588,5.0933332 15.458666,5.0933332 Z M 5.7706665,10.822666 c -0.2813333,0 -0.552,0.06267 -0.688,0.270667 -0.328,0.828 -0.5199999,1.750667 -0.5253333,2.781333 -0.021333,4.568 3.6666666,8.270667 8.1879998,8.270667 2.337333,0 4.858667,-0.858667 6.348,-2.448 -1.604,1.36 -4.254667,1.792 -5.5,1.792 -3.9053332,0 -7.0933332,-2.937333 -7.0933332,-6.88 0,-1.333333 0.3493334,-2.478667 0.9733333,-3.437333 -0.3853333,-0.156 -0.7959999,-0.24 -1.2026666,-0.302667 -0.1506667,-0.02533 -0.328,-0.04667 -0.5,-0.04667 z"
     style="fill:url(#linearGradient6);stroke:none;stroke-width:1.33333" />
  <path
     id="path7-5"
     d="m 19.822666,6.5159998 c 0,0.448 -0.364,0.812 -0.806666,0.812 -0.448,0 -0.808,-0.364 -0.808,-0.812 0,-0.4533333 0.36,-0.8186666 0.808,-0.8186666 0.442666,0 0.806666,0.3653333 0.806666,0.8186666 z"
     style="fill:#3f3f3f;fill-opacity:1;fill-rule:nonzero;stroke:none;stroke-width:1.33333" />
  <path
     id="path8"
     d="m 22.411999,7.0879998 c 0,0.292 -0.188,0.5266667 -0.417333,0.5266667 -0.234667,0 -0.421333,-0.2346667 -0.421333,-0.5266667 0,-0.2906666 0.186666,-0.5253333 0.421333,-0.5253333 0.229333,0 0.417333,0.2346667 0.417333,0.5253333 z"
     style="fill:#3f3f3f;fill-opacity:1;fill-rule:nonzero;stroke:none;stroke-width:1.33333" />
  <path
     id="path9"
     d="m 21.786666,7.8599998 c 0,0 -0.104,0.1813333 -0.328,0.2906667 -0.09467,0.046667 -0.256,-0.068 -0.412,0.094667 -0.322667,0.656 0.469333,1.208 0.838667,1.192 0.369333,-0.016 0.661333,-0.396 0.650666,-0.7186667 -0.01467,-0.5106666 -0.749333,-0.8586666 -0.749333,-0.858667 z"
     style="fill:#3f3f3f;fill-opacity:1;fill-rule:nonzero;stroke:none;stroke-width:1.33333" />
  <path
     d="M 11.448,1.86 C 6.4319998,1.86 2.2293333,5.3493332 1.0733333,10.052 1.052,10.302666 1.036,10.546666 1.0306666,10.797333 2.1199999,5.9999998 6.3693332,2.4213333 11.448,2.4213333 c 1.630666,0 3.172,0.3653333 4.552,1.0213333 0.07333,-0.156 0.250666,-0.4893333 0.412,-0.5053333 0.218666,-0.016 0.337333,0.1253333 0.478666,0.2813333 0.136,0.156 0.412,0.3906666 0.412,0.3906666 0,0 1.265334,-0.4373333 2.681334,0.344 1.177333,0.6453334 1.515999,0.916 1.755999,1.3013333 -0.270666,-0.52 -0.594666,-0.9893333 -0.969333,-1.4106666 -0.213333,-0.1306667 -0.464,-0.276 -0.786666,-0.4533333 -1.416,-0.7813333 -2.681334,-0.344 -2.681334,-0.344 0,0 -0.276,-0.2346667 -0.412,-0.3906667 -0.141333,-0.156 -0.26,-0.296 -0.478666,-0.2813333 C 16.250666,2.3906666 16.073333,2.7239999 16,2.8853333 14.62,2.2293333 13.078666,1.86 11.448,1.86 Z"
     style="fill:url(#radialGradient12);stroke:none;stroke-width:1.33333"
     opacity="1"
     id="path12" />
</svg>
