<svg xmlns="http://www.w3.org/2000/svg" xmlns:xlink="http://www.w3.org/1999/xlink" xml:space="preserve" id="svg154" width="24" height="24" fill="none" version="1.1"><defs id="defs152"><linearGradient id="linearGradient7241"><stop id="stop7237" offset="0" style="stop-color:#cdcdcd;stop-opacity:1"/><stop id="stop7239" offset="1" style="stop-color:#eee;stop-opacity:1"/></linearGradient><linearGradient id="linearGradient8792"><stop id="stop8790" offset="0" style="stop-color:#000;stop-opacity:1"/></linearGradient><linearGradient xlink:href="#linearGradient7241" id="linearGradient7243" x1="44.661" x2="42.673" y1="88.775" y2="-15.182" gradientTransform="matrix(.24444 0 0 .24444 -.222 -.222)" gradientUnits="userSpaceOnUse"/><style id="current-color-scheme" type="text/css">.ColorScheme-Text{color:#31363b}.ColorScheme-Background{color:#eff0f1}.ColorScheme-Highlight{color:#3daee9}.ColorScheme-ViewText{color:#31363b}.ColorScheme-ViewBackground{color:#fcfcfc}.ColorScheme-ViewHover{color:#93cee9}.ColorScheme-ViewFocus{color:#3daee9}.ColorScheme-ButtonText{color:#31363b}.ColorScheme-ButtonBackground{color:#eff0f1}.ColorScheme-ButtonHover{color:#93cee9}.ColorScheme-ButtonFocus{color:#3daee9}</style></defs><path id="path6" d="M12 1C2 1 1 6 1 12c0 8 3 11 11 11s11-3 11-11c0-6-1-11-11-11Z" style="font-variation-settings:normal;display:inline;opacity:1;vector-effect:none;fill:url(#linearGradient7243);fill-opacity:1;stroke-width:1.11627;stroke-linecap:butt;stroke-linejoin:miter;stroke-miterlimit:4;stroke-dasharray:none;stroke-dashoffset:0;stroke-opacity:1;-inkscape-stroke:none;stop-color:#000;stop-opacity:1"/><g id="g1543" transform="matrix(.18862 0 0 .18862 -55.295 10.075)"><path id="path1284" fill="#3e3e3e" d="M348.538-6.366a2.74 2.74 0 0 0-2.746 2.746s0 19.225-5.494 19.225a2.74 2.74 0 0 0-2.745 2.748v5.494h38.45v-5.494a2.738 2.738 0 0 0-2.746-2.746c-5.492 0-5.492-19.225-5.492-19.225a2.742 2.742 0 0 0-2.748-2.748z" style="stroke-width:2.10568;paint-order:stroke fill markers"/><path id="path1286" fill="#2dc58d" d="M348.355-25.866 365.2-17.51v11.143h-16.845zm-11.845 48.98h40.535a2.888 2.888 0 0 1 2.895 2.895v20.267h-46.325V26.01a2.888 2.888 0 0 1 2.895-2.895z" style="stroke-width:2.10568;paint-order:stroke fill markers"/></g></svg>