<svg xmlns="http://www.w3.org/2000/svg" xmlns:xlink="http://www.w3.org/1999/xlink" xml:space="preserve" id="svg154" width="24" height="24" fill="none" version="1.1"><defs id="defs152"><linearGradient id="linearGradient7241"><stop id="stop7237" offset="0" style="stop-color:#b3b3b3;stop-opacity:1"/><stop id="stop7239" offset="1" style="stop-color:#ececec;stop-opacity:1"/></linearGradient><linearGradient id="linearGradient8792"><stop id="stop8790" offset="0" style="stop-color:#000;stop-opacity:1"/></linearGradient><linearGradient xlink:href="#linearGradient7241" id="linearGradient7243" x1="105.047" x2="-3.068" y1="47.373" y2="48.277" gradientTransform="matrix(.24444 0 0 .24444 -.222 -.222)" gradientUnits="userSpaceOnUse"/><style id="current-color-scheme" type="text/css">.ColorScheme-Text{color:#31363b}.ColorScheme-Background{color:#eff0f1}.ColorScheme-Highlight{color:#3daee9}.ColorScheme-ViewText{color:#31363b}.ColorScheme-ViewBackground{color:#fcfcfc}.ColorScheme-ViewHover{color:#93cee9}.ColorScheme-ViewFocus{color:#3daee9}.ColorScheme-ButtonText{color:#31363b}.ColorScheme-ButtonBackground{color:#eff0f1}.ColorScheme-ButtonHover{color:#93cee9}.ColorScheme-ButtonFocus{color:#3daee9}</style></defs><path id="path6" d="M12 1C2 1 1 6 1 12c0 8 3 11 11 11s11-3 11-11c0-6-1-11-11-11Z" style="font-variation-settings:normal;display:inline;opacity:1;vector-effect:none;fill:url(#linearGradient7243);fill-opacity:1;stroke-width:1.11627;stroke-linecap:butt;stroke-linejoin:miter;stroke-miterlimit:4;stroke-dasharray:none;stroke-dashoffset:0;stroke-opacity:1;-inkscape-stroke:none;stop-color:#000;stop-opacity:1"/><g id="g11593" fill-rule="evenodd" transform="matrix(.34177 0 0 .34177 1.55 .924)"><path id="path11589" fill="#ec5b45" d="m17.578 12.407 2.33 1.143c2.332 1.144 4.795 3.75 4.795 3.75l-.367 2.944c.139.2.284.415.43.63l1.036-1.858 1.686 2.099-1.19 2.042.022.034 1.491-1.694s.971 1.143 3.95 5.402c2.98 4.259 5.442 9.217 5.442 9.217l-.115 3.368c.16.237.33.494.487.725l.47-2.759 1.035 1.717.261 1.654.581.7s.962 3.599.778 4.25c-.185.65-2.624-.63-2.624-.63l-.129-.856-1.975-.635 2.198-.438-.171-.287a8.977 8.977 0 0 1-1.154.278c-1.392.255-2.33-.252-2.33-.252l-1.005-1.273s.778.54 1.652.7c.861.156 2.326-.206 2.37-.217l-.238-.393c-.37-.094-3.702-.964-5.661-2.346-2.073-1.462-6.186-5.975-6.186-5.975s.992-.009 3.13-.04c2.014-.03 3.794-.017 4 0-.093-.15 0-1 0-1l-8.587-1.345s-.552-1.049-1.394-2.733c-.842-1.685-3.02-5.922-3.02-5.922s1.463-.042 2.768-.222a25.133 25.133 0 0 0 2.536-.5l-.045-.07c-.182-.084-1.346-.62-2.216-.89-.939-.293-3.801-.697-3.801-.697s-.023-.405-.23-1.236c-.205-.832-.617-2.742-.617-2.742l4.98 2.806c-.21-.288-.408-.545-.612-.817l-4.552-2.663s-.045-.584-.137-1.348c-.092-.765-.071-1.621-.071-1.621z"/><path id="path11591" fill="#31363b" d="M17.576 12.407s4.621 4.94 9.223 11.275c4.601 6.334 9.267 13.499 13.934 21.68 4.052 7.104 2.585 7.045 2.585 7.045s-.46-1.184-3.677-6.761c-3.076-5.332-6.967-12.216-13.474-21.705-3.102-4.523-8.59-11.534-8.59-11.534Z"/></g></svg>