<svg xmlns="http://www.w3.org/2000/svg" width="24" height="24" viewBox="0 0 6.35 6.35"><defs><radialGradient id="a" cx="0" cy="0" r="1" fx="0" fy="0" gradientTransform="rotate(90 1.455 1.72) scale(5.82072)" gradientUnits="userSpaceOnUse" spreadMethod="pad"><stop offset="0" style="stop-color:#8fdfff;stop-opacity:1"/><stop offset="1" style="stop-color:#26b8ef;stop-opacity:1"/></radialGradient></defs><path d="M3.175.265C.529.265.265 1.587.265 3.175c0 2.117.793 2.91 2.91 2.91s2.91-.793 2.91-2.91c0-1.588-.264-2.91-2.91-2.91z" style="font-variation-settings:normal;display:inline;vector-effect:none;fill:#00abec;fill-opacity:1;stroke-width:.295341;stroke-linecap:butt;stroke-linejoin:miter;stroke-miterlimit:4;stroke-dasharray:none;stroke-dashoffset:0;stroke-opacity:1;-inkscape-stroke:none;stop-color:#000"/><path d="M3.175.522C.764.522.522 1.728.522 3.175c0 1.929.724 2.652 2.653 2.652s2.652-.723 2.652-2.652c0-1.447-.24-2.653-2.652-2.653z" style="fill:url(#a);fill-rule:evenodd;stroke:none;stroke-width:.352771"/><path fill="#fff" d="M4.224 4.005q-.125.189-.353.342-.23.15-.606.15-.534 0-.854-.346-.318-.346-.318-.886v-.1q0-.417.158-.71.16-.294.415-.447.254-.156.542-.156.547 0 .797.358.252.357.252.892v.196H2.531q.01.351.207.599.2.245.55.245.231 0 .392-.095.16-.094.28-.252zM3.208 2.21q-.26 0-.439.19-.179.188-.224.542h1.276v-.034q-.017-.254-.148-.476-.13-.222-.465-.222Z" aria-label="e" style="stroke-width:1"/></svg>