<svg xmlns="http://www.w3.org/2000/svg" width="24" height="24" viewBox="0 0 6.35 6.35"><defs><radialGradient id="a" cx="0" cy="0" r="1" gradientTransform="rotate(90 1.455 1.72) scale(2.91036)" gradientUnits="userSpaceOnUse"><stop offset="0" stop-color="#F08C85" style="stop-color:#f98f8f;stop-opacity:1"/><stop offset="1" stop-color="#E84F43" style="stop-color:#e43f3f;stop-opacity:1"/></radialGradient></defs><path fill="url(#a)" fill-rule="evenodd" d="M2.539.295a.312.312 0 0 0 .09-.012c.38-.025.76-.024 1.14.003.345.026.678.101 1 .224.536.22.903.603 1.1 1.148.114.328.18.665.2 1.012.029.435.019.869-.03 1.302a3.143 3.143 0 0 1-.236.879 1.87 1.87 0 0 1-1.094 1.008c-.409.139-.829.211-1.26.219a5.668 5.668 0 0 1-1.444-.11C1.13 5.773.59 5.24.385 4.366a5.04 5.04 0 0 1-.12-1.194c-.009-.428.037-.85.137-1.266C.617 1.09 1.135.584 1.957.39c.191-.047.385-.079.582-.094Z" clip-rule="evenodd" style="fill:url(#a);stroke-width:.264578"/><path fill="#fff" d="M3.175 1.455a1.72 1.72 0 0 0-1.72 1.72 1.72 1.72 0 0 0 1.72 1.72 1.72 1.72 0 0 0 1.72-1.72 1.72 1.72 0 0 0-1.72-1.72Zm-.982.983h.49l.492.737.491-.737h.491v1.474h-.49v-.614l-.246.368H2.93l-.246-.368v.614h-.491Z" color="#bebebe" style="stroke-width:1"/></svg>