<svg xmlns="http://www.w3.org/2000/svg" width="24" height="24"><defs><radialGradient id="a" cx="0" cy="0" r="1" gradientTransform="matrix(0 11 -11 0 12 1)" gradientUnits="userSpaceOnUse"><stop offset="0" stop-color="#F08C85" style="stop-color:#ff9494;stop-opacity:1"/><stop offset="1" stop-color="#E84F43" style="stop-color:#d8394b;stop-opacity:1"/></radialGradient></defs><path fill="url(#a)" fill-rule="evenodd" d="M9.596 1.114c.12 0 .234-.014.344-.046a31.627 31.627 0 0 1 4.307.011c1.301.102 2.561.384 3.78.848 2.025.833 3.412 2.28 4.158 4.339.427 1.24.679 2.514.756 3.824a27.94 27.94 0 0 1-.115 4.923 11.88 11.88 0 0 1-.893 3.32c-.85 1.843-2.229 3.114-4.135 3.813a15.624 15.624 0 0 1-4.766.825 21.423 21.423 0 0 1-5.452-.412c-3.312-.738-5.354-2.757-6.128-6.057a19.047 19.047 0 0 1-.447-4.511 18.491 18.491 0 0 1 .515-4.786c.812-3.086 2.77-4.998 5.877-5.736a13.953 13.953 0 0 1 2.199-.355z" clip-rule="evenodd" style="fill:url(#a);stroke-width:1"/><path fill="#f5cdcd" d="M8.325 7.235c-.565.017-1.112.273-1.53.66-.426.394-.731.934-.793 1.515a2.014 2.014 0 0 0 .094.865c.095.276.256.53.469.726.251.232.565.378.854.56.144.09.284.19.403.312.12.123.22.268.274.43a.99.99 0 0 1 .039.455 1.112 1.112 0 0 1-.158.427c-.16.26-.42.449-.705.55-.331.117-.695.123-1.014.27a1.308 1.308 0 0 0-.596.568 1.406 1.406 0 0 0-.153.817c.038.329.193.641.425.873a1.563 1.563 0 0 0 2.18.016 1.49 1.49 0 0 0 .375-.611c.073-.231.088-.481.04-.72-.036-.18-.107-.352-.173-.525a1.99 1.99 0 0 1-.144-.534 1.239 1.239 0 0 1 .308-.902 1.54 1.54 0 0 1 .824-.478 1.577 1.577 0 0 1 .618-.02 1.3 1.3 0 0 1 .569.244c.166.127.298.3.372.497a.997.997 0 0 1 .028.621c-.06.208-.19.385-.32.556-.132.17-.268.341-.346.542a1.166 1.166 0 0 0-.036.702c.059.231.183.443.346.615.18.19.408.332.655.41.248.077.502.09.761.09.26 0 .53-.013.778-.09a1.546 1.546 0 0 0 .656-.41c.163-.172.287-.384.346-.614a1.166 1.166 0 0 0-.036-.703c-.078-.201-.215-.372-.346-.542-.13-.17-.26-.348-.32-.556a1 1 0 0 1 .028-.621c.074-.198.206-.37.372-.497s.364-.21.568-.245a1.577 1.577 0 0 1 .619.02c.314.072.611.233.824.479.213.245.336.576.308.902a2.001 2.001 0 0 1-.144.534c-.067.173-.138.345-.174.526a1.456 1.456 0 0 0 .04.72c.074.23.204.441.376.61.343.337.847.49 1.319.417a1.563 1.563 0 0 0 .861-.433 1.49 1.49 0 0 0 .425-.873 1.406 1.406 0 0 0-.153-.817 1.307 1.307 0 0 0-.597-.568c-.318-.147-.682-.153-1.013-.27a1.364 1.364 0 0 1-.705-.55 1.116 1.116 0 0 1-.158-.427.996.996 0 0 1 .039-.454c.054-.163.154-.308.274-.43.119-.123.258-.223.403-.314.288-.181.602-.327.854-.56a1.773 1.773 0 0 0 .468-.725 2.014 2.014 0 0 0 .094-.864c-.061-.582-.366-1.122-.792-1.516-.419-.387-.965-.643-1.53-.66a1.953 1.953 0 0 0-.83.153 1.777 1.777 0 0 0-.676.507c-.207.254-.337.563-.456.87-.12.307-.231.62-.412.894-.297.452-.766.882-1.301.882-.536 0-1.004-.43-1.302-.882-.18-.275-.292-.587-.411-.894-.12-.307-.25-.616-.456-.87a1.777 1.777 0 0 0-.677-.507 1.953 1.953 0 0 0-.829-.153ZM12 11.422a.868.882 0 0 1 .868.882.868.882 0 0 1-.868.881.868.882 0 0 1-.867-.881.868.882 0 0 1 .867-.882z" style="stroke-width:.999699"/></svg>