<svg xmlns="http://www.w3.org/2000/svg" width="24" height="24" viewBox="0 0 6.35 6.35"><defs><radialGradient id="a" cx="0" cy="0" r="1" gradientTransform="rotate(90 1.455 1.72) scale(5.82072)" gradientUnits="userSpaceOnUse"><stop offset="0" stop-color="#8FC8FF" style="stop-color:#91a2ff;stop-opacity:1"/><stop offset="1" stop-color="#0056A8" style="stop-color:#6961b8;stop-opacity:1"/></radialGradient></defs><path fill="url(#a)" fill-rule="evenodd" d="M2.539.295a.312.312 0 0 0 .09-.012c.38-.025.76-.024 1.14.003.345.026.678.101 1 .224.536.22.903.603 1.1 1.148.114.328.18.665.2 1.012.029.435.019.869-.03 1.302a3.143 3.143 0 0 1-.236.879 1.87 1.87 0 0 1-1.094 1.008c-.409.139-.829.211-1.26.219a5.668 5.668 0 0 1-1.444-.11C1.13 5.773.59 5.24.385 4.366a5.04 5.04 0 0 1-.12-1.194c-.009-.428.037-.85.137-1.266C.617 1.09 1.135.584 1.957.39c.191-.047.385-.079.582-.094z" clip-rule="evenodd" style="fill:url(#a);stroke-width:.264578"/><g paint-order="markers stroke fill" transform="matrix(.50663 0 0 .50663 -4.387 -1.11)"><rect width="6.879" height="7.938" x="11.486" y="4.49" fill="#fff" stroke="#000" stroke-linecap="round" stroke-linejoin="round" stroke-opacity=".196" stroke-width=".529" rx=".529" ry=".529"/><path d="M11.486 5.82h6.88v.264h-6.88zm0 1.587h6.88v.265h-6.88zm0 1.588h6.88v.264h-6.88zm0 1.587h6.88v.265h-6.88z" opacity=".1"/><circle cx="12.28" cy="5.29" r=".265" fill="#6961b8"/><circle cx="12.28" cy="6.88" r=".265" fill="#6961b8"/><circle cx="12.28" cy="8.46" r=".265" fill="#6961b8"/><circle cx="12.28" cy="10.05" r=".265" fill="#6961b8"/><circle cx="12.28" cy="11.64" r=".265" fill="#6961b8"/></g></svg>