<svg xmlns="http://www.w3.org/2000/svg" xmlns:xlink="http://www.w3.org/1999/xlink" xml:space="preserve" width="24" height="24" viewBox="0 0 6.35 6.35"><defs><linearGradient id="d"><stop offset="0" style="stop-color:#50c164;stop-opacity:1"/><stop offset="1" style="stop-color:#50c164;stop-opacity:0"/></linearGradient><linearGradient id="a" x1="388.57" x2="428.57" y1="528.79" y2="528.79" gradientTransform="matrix(.1455 0 0 .1455 -43.576 -73.04)" gradientUnits="userSpaceOnUse"><stop offset="0" stop-color="#9c6d42" style="stop-color:#6d502f;stop-opacity:1"/><stop offset="1" stop-color="#9c6d42" stop-opacity="0"/></linearGradient><linearGradient xlink:href="#a" id="f" x1="388.57" x2="428.57" y1="528.79" y2="528.79" gradientTransform="matrix(.1455 0 0 .1455 -56.276 -73.04)" gradientUnits="userSpaceOnUse"/><linearGradient id="c" x1="388.57" x2="428.57" y1="528.79" y2="528.79" gradientUnits="userSpaceOnUse" spreadMethod="pad"><stop offset="0" style="stop-opacity:1;stop-color:#fff"/><stop offset="1" style="stop-opacity:0;stop-color:#fff"/></linearGradient><linearGradient id="j" x1="388.57" x2="428.57" y1="528.79" y2="528.79" gradientUnits="userSpaceOnUse" spreadMethod="pad"><stop offset="0" style="stop-opacity:1;stop-color:#9c6d42"/><stop offset="1" style="stop-opacity:1;stop-color:#9c6d42"/></linearGradient><linearGradient xlink:href="#d" id="g" x1=".265" x2="6.05" y1="1.721" y2="1.721" gradientUnits="userSpaceOnUse"/><clipPath id="e"><rect width="13.758" height="13.758" x="1.587" y="1.587" fill="#71c947" ry=".794"/></clipPath><clipPath id="h" clipPathUnits="userSpaceOnUse"><path d="m6.941 4.871-4.125.004L2.812 9H.754c-.024 1.141.09 2.266.336 3.375.578 2.477 2.113 3.992 4.594 4.543a16.039 16.039 0 0 0 4.089.309 11.709 11.709 0 0 0 3.575-.618c1.429-.523 2.464-1.476 3.101-2.859a8.976 8.976 0 0 0 .672-2.488c.086-.77.129-1.539.129-2.309a23.9 23.9 0 0 0-.043-1.387 10.766 10.766 0 0 0-.059-.628h-1.96V4.875h-2.063V9h-2.063V6.934l-4.124.004Z"/></clipPath><clipPath id="b" clipPathUnits="userSpaceOnUse"><path d="M386.75 511.662h43.639v33.942h-43.64z"/></clipPath><mask id="i" width="1" height="1" x="0" y="0" maskUnits="userSpaceOnUse"><g clip-path="url(#b)"><path d="M386.75 511.662h43.639v33.942h-43.64z" style="fill:url(#c);stroke:none"/></g></mask></defs><path d="M3.128.265a8.379 8.379 0 0 0-.498.018.312.312 0 0 1-.091.012c-.197.015-.39.047-.582.094-.822.195-1.34.7-1.555 1.517a4.887 4.887 0 0 0-.137 1.08v.337c.003.352.043.7.119 1.043.205.873.745 1.407 1.622 1.603a5.665 5.665 0 0 0 1.442.109c.432-.008.852-.08 1.26-.219a1.87 1.87 0 0 0 1.095-1.008c.121-.281.2-.574.236-.879a7.393 7.393 0 0 0 .03-1.302 3.775 3.775 0 0 0-.2-1.012A1.887 1.887 0 0 0 4.77.51a3.583 3.583 0 0 0-1-.224 8.373 8.373 0 0 0-.522-.02Z" style="stroke-width:.423048"/><path d="M.266 3.175v.148c.002.352.042.7.118 1.043.205.873.745 1.407 1.622 1.603.386.08.776.118 1.169.116v-2.91z" style="stroke-width:.423048"/><path d="M.882 5.358c.035.038.072.075.11.11v-.11Z" style="fill:#8f6335;fill-opacity:1;stroke-width:.423048"/><path d="M.992 5.358v.11c.2.183.443.323.728.42v-.53Z" style="fill:#a2703c;fill-opacity:1;stroke-width:.423048"/><path d="M1.72 5.358v.53c.09.031.186.058.286.08.146.03.294.055.441.074v-.684Z" style="fill:#875d32;fill-opacity:1;stroke-width:.423048"/><path d="M2.447 5.358v.684c.242.03.484.044.728.043v-.727Z" style="fill:#b77939;fill-opacity:1;stroke-width:.423048"/><path d="M3.175 5.358v.727c.091 0 .182-.003.273-.007.153-.003.304-.014.455-.033v-.687Z" style="fill:#956837;fill-opacity:1;stroke-width:.423048"/><path d="M3.903 5.358v.687a4.13 4.13 0 0 0 .727-.16v-.527Z" style="fill:#a2703c;fill-opacity:1;stroke-width:.423048"/><path d="M4.63 5.358v.527l.079-.026c.25-.092.467-.221.649-.388v-.113Z" style="fill:#956837;fill-opacity:1;stroke-width:.423048"/><path d="M5.358 5.358v.113a1.79 1.79 0 0 0 .113-.113ZM.46 4.63c.098.286.238.528.422.728h.11V4.63Z" style="fill:#a2703c;fill-opacity:1;stroke-width:.423048"/><rect width=".728" height=".728" x=".992" y="4.63" fill="#946f2d" ry="0" style="stroke-width:.423048"/><rect width=".728" height=".728" x="1.72" y="4.63" fill="#8f6335" ry="0" style="stroke-width:.423048"/><rect width=".728" height=".728" x="2.448" y="4.63" fill="#aa7034" ry="0" style="stroke-width:.423048"/><rect width=".728" height=".728" x="3.175" y="4.63" fill="#956837" ry="0" style="stroke-width:.423048"/><rect width=".728" height=".728" x="3.902" y="4.63" fill="#8f6335" ry="0" style="stroke-width:.423048"/><rect width=".728" height=".728" x="4.63" y="4.63" fill="#8f6335" ry="0" style="stroke-width:.423048"/><path d="M5.358 4.63v.728h.113a1.976 1.976 0 0 0 .417-.728z" style="fill:#ac7740;fill-opacity:1;stroke-width:.423048"/><path d="M.304 3.903c.02.155.046.31.08.463.021.092.047.18.076.264h.532v-.727Z" style="fill:#a36b30;fill-opacity:1;stroke-width:.423048"/><rect width=".728" height=".728" x=".992" y="3.902" fill="#a2703c" ry="0" style="stroke-width:.423048"/><rect width=".728" height=".728" x="1.72" y="3.902" fill="#7c502e" ry="0" style="stroke-width:.423048"/><rect width=".728" height=".728" x="2.448" y="3.902" fill="#a2703c" ry="0" style="stroke-width:.423048"/><rect width=".728" height=".728" x="3.175" y="3.902" fill="#bc844a" ry="0" style="stroke-width:.423048"/><rect width=".728" height=".728" x="3.902" y="3.902" fill="#a2703c" ry="0" style="stroke-width:.423048"/><rect width=".728" height=".728" x="4.63" y="3.902" fill="#866b3b" ry="0" style="stroke-width:.423048"/><path d="M5.358 3.903v.727h.53c.074-.213.124-.432.151-.658l.008-.07zM.266 3.175c-.005.244.008.487.038.728h.688v-.728Z" style="fill:#a2703c;fill-opacity:1;stroke-width:.423048"/><rect width=".728" height=".728" x=".992" y="3.175" fill="#956837" ry="0" style="stroke-width:.423048"/><rect width=".728" height=".728" x="1.72" y="3.175" fill="#a36b30" ry="0" style="stroke-width:.423048"/><rect width=".728" height=".728" x="2.448" y="3.175" fill="#ab7033" ry="0" style="stroke-width:.423048"/><rect width=".728" height=".728" x="3.175" y="3.175" fill="#8f6335" ry="0" style="stroke-width:.423048"/><rect width=".728" height=".728" x="3.902" y="3.175" fill="#845531" ry="0" style="stroke-width:.423048"/><rect width=".728" height=".728" x="4.63" y="3.175" fill="#a2703c" ry="0" style="stroke-width:.423048"/><path d="M5.358 3.175v.728h.689c.024-.243.037-.485.038-.728Z" style="fill:#ac7740;fill-opacity:1;stroke-width:.423048"/><path d="M3.175.265a8.38 8.38 0 0 0-.545.018.312.312 0 0 1-.091.012c-.197.015-.39.047-.582.094-.822.195-1.34.7-1.555 1.517a4.887 4.887 0 0 0-.137 1.08v.189h2.91Z" style="stroke-width:.423048"/><path d="M.303 2.447a4.89 4.89 0 0 0-.037.725v.003h.726v-.728Z" style="fill:#3fa13d;fill-opacity:1;stroke-width:.423048"/><rect width=".728" height=".728" x=".992" y="2.448" fill="#674726" ry="0" style="stroke-width:.423048"/><rect width=".728" height=".728" x="1.72" y="2.448" fill="#a36b30" ry="0" style="stroke-width:.423048"/><rect width=".728" height=".728" x="2.448" y="2.448" fill="#977047" ry="0" style="stroke-width:.423048"/><rect width=".728" height=".728" x="3.175" y="2.448" fill="#a36b30" ry="0" style="stroke-width:.423048"/><rect width=".728" height=".728" x="3.902" y="2.448" fill="#3b843a" ry="0" style="stroke-width:.423048"/><rect width=".728" height=".728" x="4.63" y="2.448" fill="#b17a41" ry="0" style="stroke-width:.423048"/><path d="M5.358 2.447v.728h.727v-.016a7.425 7.425 0 0 0-.035-.712z" style="fill:#a2703c;fill-opacity:1;stroke-width:.423048"/><path d="M.459 1.72c-.02.06-.04.122-.057.186-.043.18-.076.36-.1.541h.69V1.72Z" style="fill:#4eb84b;fill-opacity:1;stroke-width:.423048"/><rect width=".728" height=".728" x=".992" y="1.72" fill="#956837" ry="0" style="stroke-width:.423048"/><rect width=".728" height=".728" x="1.72" y="1.72" fill="#7c502e" ry="0" style="stroke-width:.423048"/><rect width=".728" height=".728" x="2.448" y="1.72" fill="#50a85f" ry="0" style="stroke-width:.423048"/><rect width=".728" height=".728" x="3.175" y="1.72" fill="#43c340" ry="0" style="stroke-width:.423048"/><rect width=".728" height=".728" x="3.902" y="1.72" fill="#3b843a" ry="0" style="stroke-width:.423048"/><rect width=".728" height=".728" x="4.63" y="1.72" fill="#9b783a" ry="0" style="stroke-width:.423048"/><path d="M5.358 1.72v.727h.692a3.77 3.77 0 0 0-.16-.727Z" style="fill:#377c36;fill-opacity:1;stroke-width:.423048"/><path d="M.877.992c-.181.2-.32.442-.418.728h.533V.992Z" style="fill:#499648;fill-opacity:1;stroke-width:.423048"/><rect width=".728" height=".728" x=".992" y=".992" fill="#45a943" ry="0" style="stroke-width:.423048"/><rect width=".728" height=".728" x="1.72" y=".992" fill="#3b843a" ry="0" style="stroke-width:.423048"/><rect width=".728" height=".728" x="2.448" y=".992" fill="#4eb84b" ry="0" style="stroke-width:.423048"/><rect width=".728" height=".728" x="3.175" y=".992" fill="#499648" ry="0" style="stroke-width:.423048"/><rect width=".728" height=".728" x="3.902" y=".992" fill="#45a943" ry="0" style="stroke-width:.423048"/><rect width=".728" height=".728" x="4.63" y=".992" fill="#3ca33b" ry="0" style="stroke-width:.423048"/><path d="M5.358.992v.728h.532a1.965 1.965 0 0 0-.416-.728Z" style="fill:#499648;fill-opacity:1;stroke-width:.423048"/><path d="M5.358.876v.117h.117a1.794 1.794 0 0 0-.117-.117Z" style="fill:#76bd74;fill-opacity:1;stroke-width:.423048"/><path d="M.993.876C.953.913.914.952.877.992h.116z" style="fill:#3eb13b;fill-opacity:1;stroke-width:.423048"/><path d="M1.72.456a2.013 2.013 0 0 0-.728.42v.116h.728Z" style="fill:#499648;fill-opacity:1;stroke-width:.423048"/><path d="M2.447.303a3.693 3.693 0 0 0-.727.153v.536h.727z" style="fill:#548b53;fill-opacity:1;stroke-width:.423048"/><path d="M3.175.265a8.38 8.38 0 0 0-.545.018.312.312 0 0 1-.091.012l-.092.008v.69h.728zM3.175.265v.727h.728V.298A8.368 8.368 0 0 0 3.2.264Z" style="fill:#3b843a;fill-opacity:1;stroke-width:.423048"/><path d="M3.903.298v.694h.727V.46a3.576 3.576 0 0 0-.727-.162Z" style="fill:#499648;fill-opacity:1;stroke-width:.423048"/><path d="M4.63.46v.532h.728V.876A1.992 1.992 0 0 0 4.63.46Z" style="fill:#46b044;fill-opacity:1;stroke-width:.423048"/><path fill="none" d="M1.587 1.587h13.758v13.758H1.587Z" clip-path="url(#e)" transform="matrix(.42305 0 0 .42305 -.407 -.407)"/><path fill="none" d="M.265.265h5.82v5.82H.265Z" style="stroke-width:.423048"/><path d="m2.448 1.718-1.455.001v1.456H.265a5.04 5.04 0 0 0 .118 1.191c.205.873.745 1.407 1.622 1.603a5.665 5.665 0 0 0 1.442.109c.432-.008.852-.08 1.26-.219a1.87 1.87 0 0 0 1.095-1.008c.121-.281.2-.574.236-.879a7.394 7.394 0 0 0 .01-1.525h-.692V1.72H4.63v1.455h-.728v-.73l-1.455.002z" style="fill:url(#f);stroke-width:.11193"/><path d="M3.057.266a8.38 8.38 0 0 0-.427.017.312.312 0 0 1-.091.012c-.197.015-.39.047-.582.094-.822.195-1.34.7-1.555 1.517a4.887 4.887 0 0 0-.137 1.08v.189h.727V1.72l.727.004.728-.005v.728H3.9v.728h.73V1.72l.727-.002-.001.728h.693a3.774 3.774 0 0 0-.18-.79A1.887 1.887 0 0 0 4.77.51a3.583 3.583 0 0 0-1-.224 8.379 8.379 0 0 0-.476-.02Z" style="fill:url(#g);fill-opacity:1;stroke-width:.423048"/><g clip-path="url(#h)" transform="translate(16.35) scale(.35277)"><g mask="url(#i)" transform="matrix(.41247 0 0 .41247 -159.524 -207.048)"><path d="m6.941 4.871-4.125.004L2.812 9H.754c-.024 1.141.09 2.266.336 3.375.578 2.477 2.113 3.992 4.594 4.543a16.039 16.039 0 0 0 4.089.309 11.709 11.709 0 0 0 3.575-.618c1.429-.523 2.464-1.476 3.101-2.859a8.976 8.976 0 0 0 .672-2.488c.086-.77.129-1.539.129-2.309a23.9 23.9 0 0 0-.043-1.387 10.766 10.766 0 0 0-.059-.628h-1.96V4.875h-2.063V9h-2.063V6.934l-4.124.004Z" style="fill:url(#j);stroke:none"/></g></g></svg>