<svg xmlns="http://www.w3.org/2000/svg" width="24" height="24"><defs><radialGradient id="a" cx="0" cy="0" r="1" fx="0" fy="0" gradientTransform="matrix(0 19.40524 -26.58722 0 12 1)" gradientUnits="userSpaceOnUse"><stop offset="0" stop-color="#68BBFF" stop-opacity=".875" style="stop-color:#66bcff;stop-opacity:1"/><stop offset="1" stop-color="#A99EFF" style="stop-color:#b29aff;stop-opacity:1"/></radialGradient></defs><path fill="url(#a)" fill-rule="evenodd" d="M9.596 1.114c.12 0 .234-.014.344-.046a31.627 31.627 0 0 1 4.307.011c1.301.102 2.562.384 3.78.848 2.026.833 3.412 2.28 4.158 4.339.427 1.24.679 2.514.756 3.824a27.94 27.94 0 0 1-.114 4.923 11.876 11.876 0 0 1-.894 3.32c-.85 1.843-2.229 3.114-4.135 3.813a15.624 15.624 0 0 1-4.765.825 21.423 21.423 0 0 1-5.453-.413c-3.312-.737-5.354-2.756-6.128-6.056a19.047 19.047 0 0 1-.447-4.511 18.491 18.491 0 0 1 .515-4.786c.812-3.086 2.77-4.998 5.877-5.736a13.954 13.954 0 0 1 2.199-.355Z" clip-rule="evenodd" style="fill:url(#a)"/><path fill-rule="evenodd" d="M11.992 1c-.684 0-1.368.023-2.052.068-.11.032-.224.047-.344.046-.742.06-1.476.178-2.2.355C5.82 1.843 4.54 2.52 3.555 3.5H20.45c-.668-.659-1.476-1.183-2.424-1.573a13.537 13.537 0 0 0-3.78-.848A31.656 31.656 0 0 0 11.992 1z" clip-rule="evenodd" opacity=".35"/><rect width="1.488" height=".744" x="5.987" y="2.059" opacity=".35" ry=".373" style="fill:#000;stroke-width:1.40646;paint-order:stroke markers fill"/><rect width="3.721" height=".744" x="10.139" y="2.059" opacity=".35" ry=".373" style="fill:#000;stroke-width:1.40646;paint-order:stroke markers fill"/><rect width=".744" height=".744" x="17.257" y="2.059" opacity=".35" ry=".373" style="fill:#000;stroke-width:1.40646;paint-order:stroke markers fill"/><rect width="1.117" height=".744" x="15.769" y="2.059" opacity=".35" ry=".373" style="fill:#000;stroke-width:1.40646;paint-order:stroke markers fill"/><rect width=".744" height=".744" x="14.652" y="2.059" opacity=".35" ry=".373" style="fill:#000;stroke-width:1.40646;paint-order:stroke markers fill"/><g fill="#ccdfff" style="stroke-width:3.78" transform="matrix(.36814 0 0 .36814 .226 1.295)"><rect width="5" height="5" x="17.001" y="48.001" ry=".499" style="paint-order:stroke markers fill"/><rect width="5" height="5" x="25.335" y="48.001" ry=".499" style="paint-order:stroke markers fill"/><rect width="5" height="5" x="33.669" y="48.001" ry=".499" style="paint-order:stroke markers fill"/><rect width="5" height="5" x="42.003" y="48.001" ry=".499" style="paint-order:stroke markers fill"/></g><path d="M5.748 20.084a.735.735 0 0 0-.736.736v.764c.75.433 1.603.76 2.568.975 1.8.37 3.617.507 5.453.412a15.614 15.614 0 0 0 4.764-.825c.428-.157.83-.343 1.205-.558v-.768a.735.735 0 0 0-.736-.736z" style="opacity:.35;fill:#fff"/><path d="M18.453 11.39a8.5 8.5 0 0 0-8.5 8.5 8.5 8.5 0 0 0 .574 3.065c.831.054 1.665.059 2.502.014a15.597 15.597 0 0 0 4.768-.824c1.905-.698 3.285-1.967 4.135-3.811.458-1.063.756-2.168.896-3.318.086-.772.137-1.543.158-2.315a8.5 8.5 0 0 0-4.533-1.31Z" style="fill:#f9f9f9;fill-opacity:1;stroke-width:2.00803;paint-order:markers stroke fill"/><path d="M21.871 15.148c-.267.02-.444.347-.201.618a5.689 5.689 0 0 1 .82.976c.083-.302.152-.605.211-.914a6.4 6.4 0 0 0-.545-.582.413.413 0 0 0-.285-.098zm-1.7 1.006c-.28.009-.457.38-.183.65a4.266 4.266 0 0 1 1.319 2.643c.198-.293.376-.607.539-.94a4.978 4.978 0 0 0-1.371-2.222.434.434 0 0 0-.303-.13zm-3.09.21-2.134 2.132h-1.422a.71.71 0 0 0-.71.713v1.422c0 .394.316.71.71.71h1.422l1.25 1.25a15.7 15.7 0 0 0 .883-.226zm1.433.841c-.268.012-.457.367-.205.639a2.844 2.844 0 0 1 .904 2.076 2.844 2.844 0 0 1-.817 1.976c.473-.216.91-.47 1.31-.767a3.555 3.555 0 0 0 .218-1.21 3.555 3.555 0 0 0-1.131-2.595.383.383 0 0 0-.28-.119z" style="fill:#666;fill-opacity:1;stroke-width:2.00803;paint-order:markers stroke fill"/></svg>