<svg xmlns="http://www.w3.org/2000/svg" xml:space="preserve" width="24" height="24" fill="none"><defs><linearGradient id="a" x1="12" x2="12" y1="1" y2="12" gradientTransform="scale(.75)" gradientUnits="userSpaceOnUse" spreadMethod="pad"><stop offset="0" style="stop-opacity:1;stop-color:#a1b8e0"/><stop offset="1" style="stop-opacity:1;stop-color:#698bcf"/></linearGradient><clipPath id="b" clipPathUnits="userSpaceOnUse"><path d="M0 0h19v19H0Z"/></clipPath></defs><path d="M2.844 15.531c-.86-.773-1.446-1.828-1.754-3.156-.074-.32-.133-.645-.18-.969h16.192a8.89 8.89 0 0 1-.653 2.344 5.4 5.4 0 0 1-1.285 1.781z" style="fill:#fff;fill-opacity:1;fill-rule:evenodd;stroke:none" transform="matrix(1.33333 0 0 1.33333 0 0)"/><path d="M8.988.75c-.511 0-1.023.016-1.535.051a.951.951 0 0 1-.258.035 10.27 10.27 0 0 0-1.648.266c-2.328.554-3.797 1.988-4.406 4.3a13.858 13.858 0 0 0-.387 3.59c-.016.813.035 1.617.156 2.414h16.192c.007-.047.011-.097.019-.144.082-.731.125-1.461.129-2.192v-.285a26.17 26.17 0 0 0-.043-1.219 10.762 10.762 0 0 0-.566-2.867c-.563-1.543-1.602-2.629-3.121-3.254a10.26 10.26 0 0 0-2.836-.636A23.519 23.519 0 0 0 9.027.75Zm6.176 14.781H2.844c.742.668 1.691 1.133 2.84 1.387 1.07.223 2.148.332 3.234.332h.023c.278 0 .555-.008.832-.023a11.693 11.693 0 0 0 3.575-.618 5.537 5.537 0 0 0 1.816-1.078z" style="fill:url(#a);fill-rule:evenodd;stroke:none" transform="matrix(1.33333 0 0 1.33333 0 0)"/><path d="M7.531 3.5a.923.923 0 0 0-.867.559.925.925 0 0 0-.07.355v4.238a.918.918 0 0 0 1.375.793l3.668-2.117a.925.925 0 0 0 .336-.336.94.94 0 0 0 0-.918.933.933 0 0 0-.336-.336L7.969 3.621a.9.9 0 0 0-.438-.121Z" style="fill:#fff;fill-opacity:1;fill-rule:evenodd;stroke:none" transform="matrix(1.33333 0 0 1.33333 0 0)"/><g clip-path="url(#b)" opacity=".25" transform="matrix(1.33333 0 0 1.33333 0 0)"><path d="M15.188 13.125h-4.813a.342.342 0 0 0-.344.344c0 .187.153.343.344.343h4.813a.344.344 0 0 0 0-.687z" style="fill:#000;fill-opacity:1;fill-rule:nonzero;stroke:none"/></g><path d="M9.688 13.125H2.812a.344.344 0 0 0 0 .687h6.876a.344.344 0 0 0 0-.687z" style="fill:#698bcf;fill-opacity:1;fill-rule:nonzero;stroke:none" transform="matrix(1.33333 0 0 1.33333 0 0)"/><path d="M10.031 14.5a1.03 1.03 0 0 0 1.031-1.031c0-.571-.46-1.031-1.031-1.031a1.03 1.03 0 1 0 0 2.062z" style="fill:#fff;fill-opacity:1;fill-rule:nonzero;stroke:none" transform="matrix(1.33333 0 0 1.33333 0 0)"/></svg>