<svg xmlns="http://www.w3.org/2000/svg" xmlns:xlink="http://www.w3.org/1999/xlink" xml:space="preserve" id="svg154" width="24" height="24" fill="none" version="1.1"><defs id="defs152"><linearGradient id="linearGradient11090"><stop id="stop11086" offset="0" style="stop-color:#f0f0f0;stop-opacity:1"/><stop id="stop11088" offset="1" style="stop-color:#eee;stop-opacity:1"/></linearGradient><linearGradient id="linearGradient8792"><stop id="stop8790" offset="0" style="stop-color:#000;stop-opacity:1"/></linearGradient><linearGradient xlink:href="#linearGradient11090" id="linearGradient11092" x1="11.667" x2="11.932" y1="23.379" y2="-3.226" gradientUnits="userSpaceOnUse"/><linearGradient id="a-5"><stop id="stop5802" offset="0"/><stop id="stop5804" offset="1" stop-opacity="0"/></linearGradient><linearGradient xlink:href="#a-5" id="b-7-6" x1="41.088" x2="41.088" y1="56.971" y2="26.486" gradientTransform="translate(31.7 289.992) scale(.26458)" gradientUnits="userSpaceOnUse"/><radialGradient id="radialGradient66380" cx="0" cy="0" r="1" gradientTransform="matrix(0 22 -22 0 12 1)" gradientUnits="userSpaceOnUse"><stop id="stop66376" offset="0" stop-color="#8FC8FF" style="stop-color:#f2f2f2;stop-opacity:1"/><stop id="stop66378" offset="1" stop-color="#0056A8" style="stop-color:#ccc;stop-opacity:1"/></radialGradient><radialGradient xlink:href="#radialGradient66380" id="radialGradient1161" cx=".179" cy="-1.748" r="1" fx=".179" fy="-1.748" gradientTransform="matrix(0 22.01454 -22.00166 0 -26.468 -2.958)" gradientUnits="userSpaceOnUse"/><style id="current-color-scheme" type="text/css">.ColorScheme-Text{color:#31363b}.ColorScheme-Background{color:#eff0f1}.ColorScheme-Highlight{color:#3daee9}.ColorScheme-ViewText{color:#31363b}.ColorScheme-ViewBackground{color:#fcfcfc}.ColorScheme-ViewHover{color:#93cee9}.ColorScheme-ViewFocus{color:#3daee9}.ColorScheme-ButtonText{color:#31363b}.ColorScheme-ButtonBackground{color:#eff0f1}.ColorScheme-ButtonHover{color:#93cee9}.ColorScheme-ButtonFocus{color:#3daee9}</style></defs><path id="path6" d="M12 1C2 1 1 6 1 12c0 8 3 11 11 11s11-3 11-11c0-6-1-11-11-11Z" style="font-variation-settings:normal;display:inline;opacity:1;vector-effect:none;fill:url(#radialGradient1161);fill-opacity:1;stroke-width:1.11627;stroke-linecap:butt;stroke-linejoin:miter;stroke-miterlimit:4;stroke-dasharray:none;stroke-dashoffset:0;stroke-opacity:1;-inkscape-stroke:none;stop-color:#000;stop-opacity:1"/><path id="path6-1" d="M12 1C2 1 1 6 1 12c0 8 3 11 11 11s11-3 11-11c0-6-1-11-11-11Z" style="font-variation-settings:normal;display:inline;vector-effect:none;fill:url(#linearGradient11092);fill-opacity:1;stroke-width:1.11627;stroke-linecap:butt;stroke-linejoin:miter;stroke-miterlimit:4;stroke-dasharray:none;stroke-dashoffset:0;stroke-opacity:1;-inkscape-stroke:none;stop-color:#000"/><g id="g13060" stroke-width=".274" aria-label="BETA" opacity=".85" style="fill:none" transform="matrix(.2801 0 0 .2801 3.037 3.037)"><path id="path13058" d="M29.241 49.097q.488 0 .74-.214t.251-.633q0-.412-.252-.627-.251-.22-.739-.22H28.1v1.694zm.07 3.499q.621 0 .932-.263.316-.262.316-.793 0-.52-.31-.777-.311-.262-.938-.262H28.1v2.095zm1.918-2.877q.664.193 1.029.712.364.52.364 1.276 0 1.157-.782 1.725-.782.568-2.38.568h-3.423v-8h3.097q1.666 0 2.411.504.75.503.75 1.613 0 .584-.273.996-.273.407-.793.606zM34.401 46h5.567v1.56h-3.504v1.489h3.295v1.56h-3.295v1.832h3.622V54h-5.685zm6.543 0h7.373v1.56h-2.652V54h-2.063v-6.44h-2.658zm12.442 6.543H50.16l-.509 1.458h-2.073l2.963-8H53l2.962 8H53.89Zm-2.711-1.484h2.191l-1.093-3.183z"/></g><g id="g5843" paint-order="markers stroke fill" transform="matrix(1.00852 0 0 1.00852 3.46 3.462)"><g id="g5829" transform="rotate(4.61 3483.044 -274.865)"><rect id="rect5809" width="6.879" height="12.171" x="42.069" y="279.802" fill="#246541" rx=".529" ry=".529"/><rect id="rect5811" width="5.821" height="11.112" x="42.598" y="280.331" fill="#fff" rx="0" ry="0"/><rect id="rect5813" width="1.852" height="1.587" x="45.773" y="288.533" fill="#246541" rx="0" ry="0"/><rect id="rect5815" width="1.852" height="1.587" x="45.773" y="286.24" fill="#246541" rx="0" ry="0"/><rect id="rect5817" width="1.852" height="1.587" x="45.773" y="283.947" fill="#246541" rx="0" ry="0"/><rect id="rect5819" width="1.852" height="1.587" x="45.773" y="281.654" fill="#246541" rx="0" ry="0"/><rect id="rect5821" width="1.852" height="1.587" x="43.392" y="288.533" fill="#246541" rx="0" ry="0"/><rect id="rect5823" width="1.852" height="1.587" x="43.392" y="286.24" fill="#246541" rx="0" ry="0"/><rect id="rect5825" width="1.852" height="1.587" x="43.392" y="283.947" fill="#246541" rx="0" ry="0"/><rect id="rect5827" width="1.852" height="1.587" x="43.392" y="281.654" fill="#246541" rx="0" ry="0"/></g><g id="g5835" transform="translate(-31.713 -289.992)"><rect id="rect5831" width="8.996" height="13.758" x="-10.166" y="294.021" fill="#357e56" rx="0" ry="0" transform="rotate(-8.462)"/><path id="path5833" fill="url(#b)" d="M43.003 297a11.132 17.633 6.416 0 1-.06.665 11.132 17.633 6.416 0 1-1.933 7.4l3.124-.464z" opacity=".25" style="fill:url(#b-7-6)"/></g><g id="g5841" fill="#fff"><path id="path5837" d="m4.249 6.468 1.308-.198 4.112 4.196-1.308.197Z"/><path id="path5839" d="m8.958 5.756-1.308.198-2.69 5.223 1.308-.198Z"/></g></g></svg>