<svg xmlns="http://www.w3.org/2000/svg" xml:space="preserve" width="24" height="24" viewBox="0 0 6.35 6.35"><defs><radialGradient id="a" cx="0" cy="0" r="1" gradientTransform="matrix(0 2.91042 -2.91042 0 3.175 .265)" gradientUnits="userSpaceOnUse"><stop offset="0" stop-color="#F08C85" style="stop-color:#e5826c;stop-opacity:1"/><stop offset="1" stop-color="#E84F43" style="stop-color:#e14b28;stop-opacity:1"/></radialGradient></defs><path fill="url(#a)" fill-rule="evenodd" d="M2.539.295a.312.312 0 0 0 .09-.012c.38-.025.76-.024 1.14.003.345.026.678.101 1 .224.537.22.903.603 1.1 1.148.114.328.18.665.2 1.012.03.435.019.869-.03 1.302a3.143 3.143 0 0 1-.236.879A1.87 1.87 0 0 1 4.71 5.86c-.409.138-.829.21-1.26.218a5.668 5.668 0 0 1-1.443-.11C1.129 5.774.589 5.24.384 4.367a5.04 5.04 0 0 1-.118-1.193c-.01-.429.036-.85.136-1.267C.617 1.09 1.135.584 1.957.39c.192-.047.386-.079.582-.094Z" clip-rule="evenodd" style="fill:url(#a);stroke-width:.264583"/><path fill="#fff" d="M2.678 4.572a100.904 100.904 0 0 1-.92-.326c-.001-.002-.002-.004 0-.006l.922.106c.697.082.836.107.839.102.005-.009.005-2.412 0-2.42-.006-.01-1.186.266-1.197.279-.005.007-.007.18-.007.825 0 .646-.001.817-.007.821-.01.008-.58.274-.589.274-.005 0-.006-.21-.005-1.044l.001-1.045.72-.26.946-.341.226-.082.508.159c.28.088.51.16.515.163.006.004.007.292.007 1.41 0 1.33 0 1.404-.01 1.408-.017.01-1.009.3-1.02.3-.007 0-.425-.146-.929-.323z" style="stroke-width:9.79022"/></svg>