<svg xmlns="http://www.w3.org/2000/svg" xmlns:xlink="http://www.w3.org/1999/xlink" xml:space="preserve" id="svg154" width="24" height="24" fill="none" version="1.1"><defs id="defs152"><linearGradient id="linearGradient17380"><stop id="stop17376" offset="0" style="stop-color:#e6e6e6;stop-opacity:1"/><stop id="stop17378" offset="1" style="stop-color:#f2f2f2;stop-opacity:1"/></linearGradient><linearGradient id="linearGradient8792"><stop id="stop8790" offset="0" style="stop-color:#000;stop-opacity:1"/></linearGradient><linearGradient id="a-5"><stop id="stop5802" offset="0"/><stop id="stop5804" offset="1" stop-opacity="0"/></linearGradient><linearGradient xlink:href="#linearGradient17380" id="linearGradient17382" x1="47.554" x2="48.277" y1="99.08" y2="-19.882" gradientTransform="matrix(.24444 0 0 .24444 -.222 -.222)" gradientUnits="userSpaceOnUse"/><linearGradient xlink:href="#a-5" id="linearGradient6306" x1="41.088" x2="41.088" y1="56.971" y2="26.486" gradientTransform="translate(31.7 289.992) scale(.26458)" gradientUnits="userSpaceOnUse"/><style id="current-color-scheme" type="text/css">.ColorScheme-Text{color:#31363b}.ColorScheme-Background{color:#eff0f1}.ColorScheme-Highlight{color:#3daee9}.ColorScheme-ViewText{color:#31363b}.ColorScheme-ViewBackground{color:#fcfcfc}.ColorScheme-ViewHover{color:#93cee9}.ColorScheme-ViewFocus{color:#3daee9}.ColorScheme-ButtonText{color:#31363b}.ColorScheme-ButtonBackground{color:#eff0f1}.ColorScheme-ButtonHover{color:#93cee9}.ColorScheme-ButtonFocus{color:#3daee9}</style></defs><path id="path6" d="M12 1C2 1 1 6 1 12c0 8 3 11 11 11s11-3 11-11c0-6-1-11-11-11Z" style="font-variation-settings:normal;display:inline;opacity:1;vector-effect:none;fill:url(#linearGradient17382);fill-opacity:1;stroke-width:1.11627;stroke-linecap:butt;stroke-linejoin:miter;stroke-miterlimit:4;stroke-dasharray:none;stroke-dashoffset:0;stroke-opacity:1;-inkscape-stroke:none;stop-color:#000;stop-opacity:1"/><g id="g13060" stroke-width=".274" aria-label="BETA" opacity=".85" style="fill:none" transform="matrix(.2801 0 0 .2801 3.037 3.037)"><path id="path13058" d="M29.241 49.097q.488 0 .74-.214t.251-.633q0-.412-.252-.627-.251-.22-.739-.22H28.1v1.694zm.07 3.499q.621 0 .932-.263.316-.262.316-.793 0-.52-.31-.777-.311-.262-.938-.262H28.1v2.095zm1.918-2.877q.664.193 1.029.712.364.52.364 1.276 0 1.157-.782 1.725-.782.568-2.38.568h-3.423v-8h3.097q1.666 0 2.411.504.75.503.75 1.613 0 .584-.273.996-.273.407-.793.606zM34.401 46h5.567v1.56h-3.504v1.489h3.295v1.56h-3.295v1.832h3.622V54h-5.685zm6.543 0h7.373v1.56h-2.652V54h-2.063v-6.44h-2.658zm12.442 6.543H50.16l-.509 1.458h-2.073l2.963-8H53l2.962 8H53.89Zm-2.711-1.484h2.191l-1.093-3.183z"/></g><g id="g6304" transform="matrix(.9973 0 0 .9973 3.556 3.556)"><g id="g6281" paint-order="markers stroke fill"><g id="g6277" transform="translate(-31.694 -289.992)"><g id="g6273" transform="rotate(4.363 -101.83 -5.11)"><rect id="rect6261" width="6.879" height="12.171" x="62.442" y="279.802" fill="#bc492d" rx=".529" ry=".529"/><rect id="rect6263" width="5.821" height="11.112" x="62.971" y="280.331" fill="#fff" rx="0" ry="0"/><rect id="rect6265" width="4.233" height=".794" x="63.765" y="289.327" fill="#bc492d" rx="0" ry="0"/><path id="path6267" fill="#bc492d" d="M66.146 281.654v2.117h2.117a2.117 2.117 0 0 0-2.117-2.117z"/><path id="path6269" fill="#bc492d" d="M65.881 281.919a2.117 2.117 0 0 0-2.116 2.116 2.117 2.117 0 0 0 2.116 2.117 2.117 2.117 0 0 0 2.117-2.117H65.88Z"/><rect id="rect6271" width="4.233" height=".794" x="63.765" y="287.475" fill="#bc492d" rx="0" ry="0"/></g><rect id="rect6275" width="8.996" height="13.758" x="-10.166" y="294.021" fill="#d5583a" rx="0" ry="0" transform="rotate(-8.462)"/></g><path id="path6279" fill="url(#b)" d="M43.003 297a11.132 17.633 6.416 0 1-.06.665 11.132 17.633 6.416 0 1-1.933 7.4l3.124-.464z" opacity=".25" style="fill:url(#linearGradient6306)" transform="translate(-31.694 -289.992)"/></g><g id="g6285" style="line-height:1.25;-inkscape-font-specification:&quot;sans-serif Bold&quot;"><path id="path6283" fill="#fff" d="m4.98 6.284 1.943-.299c.577-.089 1.041-.045 1.39.175.351.217.564.592.64 1.084.076.494-.026.866-.295 1.18-.267.313-.694.48-1.272.57L6.5 9.13l.262 1.699-1.055.162Zm1.179.642.214 1.39.763-.118c.227-.034.546-.135.662-.276.125-.158.189-.287.15-.523-.034-.21-.089-.381-.262-.504-.192-.133-.484-.13-.764-.086Z" aria-label="P" font-family="sans-serif" font-size="6.533" font-weight="700" letter-spacing="0" style="-inkscape-font-specification:&quot;sans-serif Bold&quot;" word-spacing="0"/></g></g></svg>