<svg xmlns="http://www.w3.org/2000/svg" xmlns:xlink="http://www.w3.org/1999/xlink" xml:space="preserve" id="svg154" width="24" height="24" fill="none" version="1.1"><defs id="defs152"><linearGradient id="linearGradient17380"><stop id="stop17376" offset="0" style="stop-color:#e6e6e6;stop-opacity:1"/><stop id="stop17378" offset="1" style="stop-color:#f2f2f2;stop-opacity:1"/></linearGradient><linearGradient id="linearGradient8792"><stop id="stop8790" offset="0" style="stop-color:#000;stop-opacity:1"/></linearGradient><linearGradient id="a-5"><stop id="stop5802" offset="0"/><stop id="stop5804" offset="1" stop-opacity="0"/></linearGradient><linearGradient xlink:href="#linearGradient17380" id="linearGradient17382" x1="47.554" x2="48.277" y1="99.08" y2="-19.882" gradientTransform="matrix(.24444 0 0 .24444 -.222 -.222)" gradientUnits="userSpaceOnUse"/><linearGradient xlink:href="#a-5" id="b-79" x1="41.088" x2="41.088" y1="56.971" y2="26.486" gradientUnits="userSpaceOnUse"/><style id="current-color-scheme" type="text/css">.ColorScheme-Text{color:#31363b}.ColorScheme-Background{color:#eff0f1}.ColorScheme-Highlight{color:#3daee9}.ColorScheme-ViewText{color:#31363b}.ColorScheme-ViewBackground{color:#fcfcfc}.ColorScheme-ViewHover{color:#93cee9}.ColorScheme-ViewFocus{color:#3daee9}.ColorScheme-ButtonText{color:#31363b}.ColorScheme-ButtonBackground{color:#eff0f1}.ColorScheme-ButtonHover{color:#93cee9}.ColorScheme-ButtonFocus{color:#3daee9}</style></defs><path id="path6" d="M12 1C2 1 1 6 1 12c0 8 3 11 11 11s11-3 11-11c0-6-1-11-11-11Z" style="font-variation-settings:normal;display:inline;opacity:1;vector-effect:none;fill:url(#linearGradient17382);fill-opacity:1;stroke-width:1.11627;stroke-linecap:butt;stroke-linejoin:miter;stroke-miterlimit:4;stroke-dasharray:none;stroke-dashoffset:0;stroke-opacity:1;-inkscape-stroke:none;stop-color:#000;stop-opacity:1"/><g id="g13060" stroke-width=".274" aria-label="BETA" opacity=".85" style="fill:none" transform="matrix(.2801 0 0 .2801 3.037 3.037)"><path id="path13058" d="M29.241 49.097q.488 0 .74-.214t.251-.633q0-.412-.252-.627-.251-.22-.739-.22H28.1v1.694zm.07 3.499q.621 0 .932-.263.316-.262.316-.793 0-.52-.31-.777-.311-.262-.938-.262H28.1v2.095zm1.918-2.877q.664.193 1.029.712.364.52.364 1.276 0 1.157-.782 1.725-.782.568-2.38.568h-3.423v-8h3.097q1.666 0 2.411.504.75.503.75 1.613 0 .584-.273.996-.273.407-.793.606zM34.401 46h5.567v1.56h-3.504v1.489h3.295v1.56h-3.295v1.832h3.622V54h-5.685zm6.543 0h7.373v1.56h-2.652V54h-2.063v-6.44h-2.658zm12.442 6.543H50.16l-.509 1.458h-2.073l2.963-8H53l2.962 8H53.89Zm-2.711-1.484h2.191l-1.093-3.183z"/></g><g id="g7852" paint-order="markers stroke fill" transform="matrix(1.01929 0 0 1.01929 3.376 -282.098)"><g id="g7836" transform="rotate(4.405 19.271 318.07)"><rect id="rect7820" width="6.879" height="12.171" x="5.821" y="282.448" fill="#355687" rx=".504" ry=".575"/><rect id="rect7822" width="5.821" height="11.113" x="6.35" y="282.977" fill="#fff" rx="0" ry="0"/><rect id="rect7824" width="4.762" height=".529" x="6.615" y="284.3" fill="#355687" rx="0" ry="0"/><rect id="rect7826" width="4.762" height=".529" x="6.615" y="285.887" fill="#355687" rx="0" ry="0"/><rect id="rect7828" width="4.762" height=".529" x="6.615" y="287.475" fill="#355687" rx="0" ry="0"/><rect id="rect7830" width="4.762" height=".529" x="6.615" y="289.062" fill="#355687" rx="0" ry="0"/><rect id="rect7832" width="4.762" height=".529" x="6.615" y="290.65" fill="#355687" rx="0" ry="0"/><rect id="rect7834" width="4.762" height=".529" x="6.615" y="292.237" fill="#355687" rx="0" ry="0"/></g><rect id="rect7838" width="8.996" height="13.758" x="-40.062" y="279.539" fill="#4169a5" rx="0" ry="0" transform="rotate(-8.462)"/><g id="g7848" fill="#fff"><path id="path7840" d="m3.48 286.645 1.047-.156 2.01 4.516-1.047.156z"/><path id="path7842" d="m7.144 286.1-1.046.156-.608 4.905 1.047-.156z"/><path id="path7844" d="m6.098 286.256 1.046-.156 2.01 4.516-1.047.156z"/><path id="path7846" d="m9.761 285.71-1.046.157-.608 4.905 1.047-.156z"/></g><path id="path7850" fill="url(#b)" d="M42.717 26.486A42.073 66.645 6.416 0 1 42.49 29a42.073 66.645 6.416 0 1-7.304 27.97l11.804-1.755Z" opacity=".25" style="fill:url(#b-79)" transform="translate(0 280.067) scale(.26458)"/></g></svg>