<svg xmlns="http://www.w3.org/2000/svg" width="24" height="24" image-rendering="optimizeSpeed"><defs><radialGradient id="a" cx="0" cy="0" r="1" gradientTransform="matrix(0 22 -22 0 12 1)" gradientUnits="userSpaceOnUse"><stop offset="0" stop-color="#FAFAFA" style="stop-color:#fff;stop-opacity:1"/><stop offset="1" stop-color="#B0B0B0" style="stop-color:#f2f2f2;stop-opacity:1"/></radialGradient></defs><path fill="url(#a)" fill-rule="evenodd" d="M9.94 1.068c-.11.032-.224.047-.344.046-.742.06-1.476.178-2.2.355-3.106.738-5.064 2.65-5.876 5.736a18.49 18.49 0 0 0-.515 4.786c-.03 1.522.118 3.025.447 4.51.774 3.3 2.816 5.32 6.128 6.058 1.8.37 3.617.507 5.452.412a15.624 15.624 0 0 0 4.766-.825c1.906-.7 3.284-1.97 4.135-3.812a11.88 11.88 0 0 0 .893-3.32c.184-1.638.222-3.28.115-4.924a14.269 14.269 0 0 0-.756-3.824c-.746-2.06-2.133-3.506-4.158-4.34a13.536 13.536 0 0 0-3.78-.847 31.637 31.637 0 0 0-4.307-.011z" clip-rule="evenodd" style="fill:url(#a);stroke-width:1"/><g style="stroke-width:2.66667" transform="matrix(.375 0 0 .375 0 -.375)"><rect width="8" height="36" x="19" y="15.001" fill="#eb6447" rx="2" ry="2" style="stroke-width:2.66667;paint-order:stroke fill markers"/><rect width="8" height="36" x="37" y="15.001" fill="#68d65c" rx="2" ry="2" style="stroke-width:2.66667;paint-order:stroke fill markers"/><rect width="8" height="18" x="19" y="25.001" opacity=".35" rx="0" ry="0" style="stroke-width:2.66667;paint-order:stroke fill markers"/><rect width="8" height="18" x="37" y="25.001" opacity=".15" rx="0" ry="0" style="stroke-width:2.66667;paint-order:stroke fill markers"/><rect width="8" height="18" x="37" y="25.001" opacity=".35" rx="0" ry="0" style="stroke-width:2.66667;paint-order:stroke fill markers"/><rect width="2" height="36" x="13" y="15.001" opacity=".15" rx="1" ry="1" style="stroke-width:2.66667;paint-order:stroke fill markers"/><rect width="2" height="36" x="31" y="15.001" opacity=".15" rx="1" ry="1" style="stroke-width:2.66667;paint-order:stroke fill markers"/><rect width="2" height="36" x="49" y="15.001" opacity=".15" rx="1" ry="1" style="stroke-width:2.66667;paint-order:stroke fill markers"/><rect width="4" height="8" x="12" y="34.001" fill="gray" rx="1" ry=".889" style="stroke-width:2.66667;paint-order:stroke fill markers"/><rect width="4" height="8" x="30" y="23.001" fill="gray" rx="1" ry=".889" style="stroke-width:2.66667;paint-order:stroke fill markers"/><rect width="4" height="8" x="48" y="30.001" fill="gray" rx="1" ry=".889" style="stroke-width:2.66667;paint-order:stroke fill markers"/></g></svg>