<svg xmlns="http://www.w3.org/2000/svg" width="24" height="24" viewBox="0 0 6.35 6.35"><path d="M3.175.265C.529.265.265 1.587.265 3.175c0 2.117.793 2.91 2.91 2.91s2.91-.793 2.91-2.91c0-1.588-.264-2.91-2.91-2.91z" style="font-variation-settings:normal;display:inline;vector-effect:none;fill:#7f583c;fill-opacity:1;stroke-width:.295341;stroke-linecap:butt;stroke-linejoin:miter;stroke-miterlimit:4;stroke-dasharray:none;stroke-dashoffset:0;stroke-opacity:1;-inkscape-stroke:none;stop-color:#000"/><path d="M3.175.523C.764.523.523 1.728.523 3.175c0 1.929.723 2.652 2.652 2.652 1.929 0 2.652-.723 2.652-2.652 0-1.447-.24-2.652-2.652-2.652z" style="font-variation-settings:normal;display:inline;vector-effect:none;fill:#8c684f;fill-opacity:1;stroke-width:.269163;stroke-linecap:butt;stroke-linejoin:miter;stroke-miterlimit:4;stroke-dasharray:none;stroke-dashoffset:0;stroke-opacity:1;-inkscape-stroke:none;stop-color:#000"/><path d="M1.368.6C.632.97.38 1.62.3 2.392h.693V1.328h1.454v.336h1.455v.728h.729V1.328h.727v.336H5.9A1.78 1.78 0 0 0 4.982.6Z" style="font-variation-settings:normal;display:inline;vector-effect:none;fill:#000;fill-opacity:.04705882;stroke-width:.295341;stroke-linecap:butt;stroke-linejoin:miter;stroke-miterlimit:4;stroke-dasharray:none;stroke-dashoffset:0;stroke-opacity:1;-inkscape-stroke:none;stop-color:#000"/><path d="M3.175.265C1.187.265.543 1.012.346 2.057l.647-.001V.992h1.454v.337H3.9v.727h.73V.992h.726v.337h.397C5.395.682 4.661.265 3.174.265Z" style="font-variation-settings:normal;display:inline;vector-effect:none;fill:#7fb551;fill-opacity:1;stroke-width:.295341;stroke-linecap:butt;stroke-linejoin:miter;stroke-miterlimit:4;stroke-dasharray:none;stroke-dashoffset:0;stroke-opacity:1;-inkscape-stroke:none;stop-color:#000"/><path fill="#b3ea15" d="M2 2.504c-.29 0-.575.093-.796.266a.94.94 0 0 0-.38.74.94.94 0 0 0 .38.742c.221.172.506.267.795.267.407 0 .733-.244.959-.47.135-.135.156-.184.217-.272.06.088.081.137.217.272.226.226.552.47.958.47.29 0 .574-.095.796-.267a.94.94 0 0 0 .38-.741.942.942 0 0 0-.38-.741 1.304 1.304 0 0 0-.796-.266c-.406 0-.732.243-.958.468-.136.136-.156.186-.217.272-.06-.086-.082-.136-.217-.272-.226-.225-.553-.468-.959-.468Zm0 .335c.266 0 .527.177.72.371.151.15.203.241.241.3-.038.06-.09.151-.24.302-.194.194-.455.37-.722.37a.987.987 0 0 1-.589-.195.59.59 0 0 1-.25-.476.59.59 0 0 1 .25-.476.986.986 0 0 1 .59-.196Zm2.35 0c.215 0 .434.074.59.196.156.121.25.28.25.476a.59.59 0 0 1-.25.476.988.988 0 0 1-.59.196c-.266 0-.527-.177-.72-.37-.152-.152-.203-.242-.242-.302.039-.06.09-.15.242-.3.193-.195.454-.372.72-.372Z" style="stroke-width:1"/></svg>