<svg xmlns="http://www.w3.org/2000/svg" width="24" height="24" viewBox="0 0 6.35 6.35"><defs><radialGradient id="b" cx="0" cy="0" r="1" gradientTransform="rotate(90 1.455 1.72) scale(2.91036)" gradientUnits="userSpaceOnUse"><stop stop-color="#777"/><stop offset="1" stop-color="#444"/></radialGradient><linearGradient id="a"><stop offset="0"/><stop offset="1" stop-opacity="0"/></linearGradient></defs><path fill="url(#b)" fill-rule="evenodd" d="M2.539.295a.312.312 0 0 0 .09-.012c.38-.025.76-.024 1.14.003.345.026.678.101 1 .224.536.22.903.603 1.1 1.148.114.328.18.665.2 1.012.029.435.019.869-.03 1.302a3.143 3.143 0 0 1-.236.879 1.87 1.87 0 0 1-1.094 1.008c-.409.139-.829.211-1.26.219a5.668 5.668 0 0 1-1.444-.11C1.13 5.773.59 5.24.385 4.366a5.04 5.04 0 0 1-.12-1.194c-.009-.428.037-.85.137-1.266C.617 1.09 1.135.584 1.957.39c.191-.047.385-.079.582-.094Z" clip-rule="evenodd" style="fill:url(#b);stroke-width:.264578"/><g paint-order="markers stroke fill" style="stroke-width:.2006589;stroke-dasharray:none" transform="matrix(.26594 0 0 .2615 .923 -72.276)"><rect width="13.758" height="10.054" x="1.587" y="283.506" fill="#638df5" rx=".265" ry=".265" style="stroke-width:.2006589;stroke-dasharray:none"/><rect width="6.879" height="4.762" x="1.058" y="282.977" fill="#fff" stroke="#000" stroke-linecap="round" stroke-linejoin="round" stroke-opacity=".098" stroke-width="1.005" rx=".265" ry=".265" style="stroke-width:.2006589;stroke-dasharray:none"/><rect width="6.879" height="4.762" x="8.996" y="282.977" fill="#fff" stroke="#000" stroke-linecap="round" stroke-linejoin="round" stroke-opacity=".098" stroke-width="1.005" rx=".265" ry=".265" style="stroke-width:.2006589;stroke-dasharray:none"/><rect width="6.879" height="4.762" x="5.027" y="289.327" fill="#fff" stroke="#000" stroke-linecap="round" stroke-linejoin="round" stroke-opacity=".098" stroke-width="1.005" rx=".265" ry=".265" style="stroke-width:.2006589;stroke-dasharray:none"/><rect width="6.879" height="4.762" x="1.058" y="282.977" fill="#fff" rx=".265" ry=".265" style="stroke-width:.2006589;stroke-dasharray:none"/><rect width="6.879" height="4.762" x="8.996" y="282.977" fill="#fff" rx=".265" ry=".265" style="stroke-width:.2006589;stroke-dasharray:none"/><rect width="6.879" height="4.762" x="5.027" y="289.327" fill="#fff" rx=".265" ry=".265" style="stroke-width:.2006589;stroke-dasharray:none"/></g></svg>