<svg xmlns="http://www.w3.org/2000/svg" xml:space="preserve" id="svg5" width="24" height="24" version="1.1" viewBox="0 0 6.35 6.35"><defs id="defs2"><radialGradient id="paint0_radial_0_1" cx="0" cy="0" r="1" gradientTransform="rotate(90 -3.468 -3.684) scale(2.91042)" gradientUnits="userSpaceOnUse"><stop id="stop322" offset="0" stop-color="#6EBBF7" style="stop-color:#4725d5;stop-opacity:1"/><stop id="stop324" offset="1" stop-color="#2196F3" style="stop-color:#2a0e9e;stop-opacity:1"/></radialGradient><radialGradient id="radialGradient13876" cx="0" cy="0" r="1" fx="0" fy="0" gradientTransform="matrix(0 8.25001 -8.25001 0 9 .75)" gradientUnits="userSpaceOnUse" spreadMethod="pad"><stop id="stop13872" offset="0" style="stop-opacity:1;stop-color:#4725d5"/><stop id="stop13874" offset="1" style="stop-opacity:1;stop-color:#2a0e9e"/></radialGradient><radialGradient id="radialGradient13876-5" cx="0" cy="0" r="1" fx="0" fy="0" gradientTransform="matrix(0 8.25001 -8.25001 0 9 .75)" gradientUnits="userSpaceOnUse" spreadMethod="pad"><stop id="stop13872-3" offset="0" style="stop-opacity:1;stop-color:#4725d5"/><stop id="stop13874-5" offset="1" style="stop-opacity:1;stop-color:#2a0e9e"/></radialGradient><linearGradient id="paint0_linear_1_170" x1="277.5" x2="751" y1="57" y2="966" gradientTransform="matrix(.00653 0 0 .00653 -9.726 .27)" gradientUnits="userSpaceOnUse"><stop id="stop6374" stop-color="#5328E1"/><stop id="stop6376" offset="1" stop-color="#0F023A"/></linearGradient><style id="current-color-scheme" type="text/css">.ColorScheme-Text{color:#31363b}.ColorScheme-Background{color:#eff0f1}.ColorScheme-Highlight{color:#3daee9}.ColorScheme-ViewText{color:#31363b}.ColorScheme-ViewBackground{color:#fcfcfc}.ColorScheme-ViewHover{color:#93cee9}.ColorScheme-ViewFocus{color:#3daee9}.ColorScheme-ButtonText{color:#31363b}.ColorScheme-ButtonBackground{color:#eff0f1}.ColorScheme-ButtonHover{color:#93cee9}.ColorScheme-ButtonFocus{color:#3daee9}</style></defs><g id="g13862" transform="matrix(.35278 0 0 .35278 0 0)"><g id="g13864"><g id="g13870"><path id="path13878" d="M7.195.836c.09 0 .176-.012.258-.035a23.86 23.86 0 0 1 3.231.008 10.26 10.26 0 0 1 2.836.636c1.519.625 2.558 1.711 3.121 3.254.316.93.507 1.887.566 2.867a21.227 21.227 0 0 1-.086 3.696 8.976 8.976 0 0 1-.672 2.488c-.637 1.383-1.672 2.336-3.101 2.859a11.693 11.693 0 0 1-3.575.618 15.998 15.998 0 0 1-4.089-.309c-2.481-.551-4.016-2.066-4.594-4.543a14.244 14.244 0 0 1-.336-3.383c-.027-1.211.101-2.41.387-3.59.609-2.312 2.078-3.746 4.406-4.3A10.27 10.27 0 0 1 7.195.836Z" style="fill:url(#radialGradient13876-5);fill-rule:evenodd;stroke:none"/></g></g></g><g id="g13593" transform="matrix(1.00504 0 0 1.00504 9.598 -.21)"><path id="path6368" fill="#d9d5e5" fill-rule="evenodd" d="M-4.912 1.755c.1.046.188.107.267.183.049.06.092.123.13.19.023.047.043.095.06.143.012.06.021.121.026.183a.18.18 0 0 1-.053.173c-.075.035-.131.017-.17-.056a4.436 4.436 0 0 0-.016-.163.2.2 0 0 0-.016-.059.386.386 0 0 0-.059-.137.504.504 0 0 0-.163-.182.568.568 0 0 0-.378-.089.527.527 0 0 0-.425.363.651.651 0 0 0-.045.26c-.035.071-.09.093-.164.066a.121.121 0 0 1-.062-.085.48.48 0 0 1 .004-.124.603.603 0 0 1 .032-.163 1.05 1.05 0 0 1 .06-.15c.232-.365.556-.483.972-.353z" clip-rule="evenodd" style="stroke-width:.00652699"/><path id="path6370" fill="#d7d4e4" fill-rule="evenodd" d="M-5.089 2.493c.002.01.005.018.01.026.018.073-.005.129-.068.166-.098.03-.161-.004-.19-.1a.156.156 0 0 1 .046-.121c.075-.046.143-.036.202.029z" clip-rule="evenodd" style="stroke-width:.00652699"/><path id="path6372" fill="#d9d5e5" d="M-6.329 2.943c.11.02.21.062.3.124a.818.818 0 0 1 .21.248.978.978 0 0 1 .058.17.94.94 0 0 1 .026.118c.005.052.007.104.007.156.003.068.005.135.006.203 0 .08.002.16.007.241.002.08.015.158.039.235a.477.477 0 0 0 .183.255.5.5 0 0 0 .483.075.525.525 0 0 0 .333-.363c.022-.096.031-.194.026-.293V3.224a.86.86 0 0 1 .003-.104l.01-.022.006-.011a.121.121 0 0 1 .13-.046.114.114 0 0 1 .086.092V4.217a.743.743 0 0 0-.007.097l-.033.17a.783.783 0 0 1-.147.28 1.996 1.996 0 0 0-.094.098.795.795 0 0 1-.483.17.689.689 0 0 1-.568-.248l-.059-.078a2.787 2.787 0 0 1-.078-.164.132.132 0 0 0-.006-.032 1.01 1.01 0 0 1-.053-.222 13.525 13.525 0 0 0-.013-.242c.002-.097 0-.192-.006-.287a.594.594 0 0 0-.007-.124.245.245 0 0 0-.013-.078.32.32 0 0 0-.065-.157.425.425 0 0 0-.307-.199c-.264-.027-.443.083-.538.33a.473.473 0 0 0-.03.13 2.24 2.24 0 0 0-.006.242V4.92c-.016.088-.068.124-.157.108a.147.147 0 0 1-.052-.036l-.023-.046a3.775 3.775 0 0 1-.003-.222v-.927a.56.56 0 0 0-.052-.3.462.462 0 0 0-.144-.196.396.396 0 0 0-.209-.1c-.277-.034-.453.082-.529.348a.745.745 0 0 0-.032.268V4.823a.57.57 0 0 1-.01.137c-.04.072-.098.09-.173.056a.136.136 0 0 1-.052-.108V3.909c0-.082.002-.165.006-.248.007-.054.016-.109.026-.163.03-.103.074-.198.131-.287a.7.7 0 0 1 .66-.248c.118.023.229.066.332.13.06.048.115.102.163.164a.764.764 0 0 1 .718-.314z" style="stroke-width:.00652699"/></g></svg>