<svg xmlns="http://www.w3.org/2000/svg" width="24" height="24" viewBox="0 0 6.35 6.35"><defs><radialGradient id="a" cx="0" cy="0" r="1" gradientTransform="rotate(90 1.455 1.72) scale(2.91036)" gradientUnits="userSpaceOnUse"><stop offset="0" stop-color="#6EBBF7" style="stop-color:#337cb2;stop-opacity:1"/><stop offset="1" stop-color="#2196F3" style="stop-color:#26557c;stop-opacity:1"/></radialGradient></defs><path fill="url(#a)" fill-rule="evenodd" d="M2.539.295a.312.312 0 0 0 .09-.012c.38-.025.76-.024 1.14.003.345.026.678.101 1 .224.536.22.903.603 1.1 1.148.114.328.18.665.2 1.012.029.435.019.869-.03 1.302a3.143 3.143 0 0 1-.236.879 1.87 1.87 0 0 1-1.094 1.008c-.409.139-.829.211-1.26.219a5.668 5.668 0 0 1-1.444-.11C1.13 5.773.59 5.24.385 4.366a5.04 5.04 0 0 1-.12-1.194c-.009-.428.037-.85.137-1.266C.617 1.09 1.135.584 1.957.39c.192-.047.385-.079.582-.094Z" clip-rule="evenodd" style="fill:url(#a);stroke-width:.264578"/><path fill="#fff" d="M4.83 4.808a9.418 9.418 0 0 0-.271-.155c-.263-.147-.526-.371-.526-.45 0-.07.086-.125.218-.14.063-.008.146-.02.184-.027l.07-.014-.103-.075c-.098-.071-.173-.106-.393-.184-.143-.05-.246-.167-.363-.411-.304-.634-.36-.739-.463-.858a2.562 2.562 0 0 0-.51-.427c-.221-.148-.255-.161-.415-.161-.127 0-.154-.007-.233-.06-.125-.087-.249-.14-.326-.14-.1-.001-.088.07.037.224.12.15.15.2.21.376.024.072.091.213.148.311.057.1.104.189.104.2 0 .01-.024.088-.053.171a.994.994 0 0 0-.048.526c.06.253.133.288.175.082.037-.178.099-.286.166-.285.02 0 .086.101.183.282.084.155.204.35.267.435a.757.757 0 0 1 .107.162c-.012.012-.177-.127-.297-.25a1.42 1.42 0 0 1-.166-.216c-.067-.112-.072-.115-.089-.07-.01.027-.024.077-.032.112-.022.102-.084.167-.16.167-.107 0-.183-.107-.245-.342a1.578 1.578 0 0 1 .02-.659c.034-.107.034-.108-.016-.16-.064-.069-.1-.141-.179-.359a1.128 1.128 0 0 0-.21-.362c-.102-.132-.15-.21-.159-.266-.03-.172.037-.271.179-.268.11.002.334.077.43.143.057.04.114.057.224.068.272.027.567.2.877.512.3.303.526.66.61.964.057.203.146.3.39.42.18.09.235.13.398.291.104.103.189.203.189.222 0 .04-.085.07-.252.087-.235.024-.233.019-.057.144.3.213.408.316.44.422.015.052-.002.056-.06.018zM2.247 2.259a.215.215 0 0 0-.07-.092c-.047-.025-.052-.066-.012-.099.043-.036.168.022.184.085.038.15-.047.238-.102.106z" style="stroke-width:.999997"/></svg>