<svg xmlns="http://www.w3.org/2000/svg" xmlns:xlink="http://www.w3.org/1999/xlink" xml:space="preserve" width="24" height="24" fill="none"><path d="M12 1C2 1 1 6 1 12c0 8 3 11 11 11s11-3 11-11c0-6-1-11-11-11Z" style="font-variation-settings:normal;display:inline;vector-effect:none;fill:#f6f5f4;fill-opacity:1;stroke-width:1.11627;stroke-linecap:butt;stroke-linejoin:miter;stroke-miterlimit:4;stroke-dasharray:none;stroke-dashoffset:0;stroke-opacity:1;-inkscape-stroke:none;stop-color:#000"/><path d="M12 1.975C2.886 1.975 1.975 6.532 1.975 12c0 7.29 2.734 10.025 10.025 10.025 7.29 0 10.025-2.734 10.025-10.025 0-5.468-.911-10.025-10.025-10.025Z" style="font-variation-settings:normal;display:inline;vector-effect:none;fill:url(#a);fill-opacity:1;stroke-width:1.01733;stroke-linecap:butt;stroke-linejoin:miter;stroke-miterlimit:4;stroke-dasharray:none;stroke-dashoffset:0;stroke-opacity:1;-inkscape-stroke:none;stop-color:#000;stroke:url(#radialGradient30)"/><defs><linearGradient id="e"><stop offset="0" style="stop-color:#47a1ff;stop-opacity:1"/><stop offset="1" style="stop-color:#3584e4;stop-opacity:1"/></linearGradient><linearGradient id="g"><stop offset="0" style="stop-color:#7f3104;stop-opacity:0"/><stop offset="1" style="stop-color:#7f3104;stop-opacity:1"/></linearGradient><linearGradient id="d"><stop offset="0" style="stop-color:#8c4104;stop-opacity:1"/><stop offset="1" style="stop-color:#a04e0b;stop-opacity:0"/></linearGradient><linearGradient id="c"><stop offset="0" style="stop-color:#fff;stop-opacity:1"/><stop offset="1" style="stop-color:#fff;stop-opacity:0"/></linearGradient><linearGradient id="b"><stop offset="0" style="stop-color:#fff;stop-opacity:1"/><stop offset="1" style="stop-color:white;stop-opacity:.37642586"/></linearGradient><linearGradient id="f"><stop offset="0" style="stop-color:#7c2f03;stop-opacity:1"/><stop offset="1" style="stop-color:#ff9730;stop-opacity:1"/></linearGradient><radialGradient xlink:href="#e" id="a" cx="12" cy="12" r="10.534" fx="12" fy="12" gradientUnits="userSpaceOnUse"/></defs><path d="M2.063 14.078c.01.113.02.226.033.336h19.808l.034-.336H2.063zm.121-5.508c-.017.11-.03.224-.045.336H21.86c-.014-.112-.028-.225-.045-.336H2.184z" style="font-variation-settings:normal;display:inline;vector-effect:none;fill:#1c71d8;fill-opacity:1;stroke-width:1.01733;stroke-linecap:butt;stroke-linejoin:miter;stroke-miterlimit:4;stroke-dasharray:none;stroke-dashoffset:0;stroke-opacity:1;-inkscape-stroke:none;stop-color:#000"/><path d="M1.977 11.814 1.975 12c0 7.29 2.734 10.025 10.025 10.025 7.29 0 10.025-2.734 10.025-10.025l-.002-.186c-.054 7.128-2.805 9.811-10.023 9.811s-9.969-2.683-10.023-9.81Z" style="font-variation-settings:normal;display:inline;vector-effect:none;fill:#1a5fb4;fill-opacity:1;stroke-width:1.01733;stroke-linecap:butt;stroke-linejoin:miter;stroke-miterlimit:4;stroke-dasharray:none;stroke-dashoffset:0;stroke-opacity:1;-inkscape-stroke:none;stop-color:#000"/><path d="M10.243 5.579a.553.553 0 0 0-.554.555v.138h.675v-.35h2.786v.35h.675v-.138a.553.553 0 0 0-.554-.555z" style="fill:#b7b6b3;fill-opacity:1;stroke:none;stroke-width:1;-inkscape-stroke:none;paint-order:stroke markers fill" transform="translate(.243 -.15)"/><path d="M10.243 4.878a.553.553 0 0 0-.554.554v.48c0 .037.005.074.011.108a.552.552 0 0 1 .543-.441h3.028c.269 0 .491.188.543.441a.567.567 0 0 0 .011-.107v-.48a.553.553 0 0 0-.554-.555z" style="fill:#deddda;fill-opacity:1;stroke:none;stroke-width:1;-inkscape-stroke:none;paint-order:stroke markers fill" transform="translate(.243 -.15)"/><path d="M10.243 5.579a.553.553 0 0 0-.554.555v.138h.675v-.35h2.786v.35h.675v-.138a.553.553 0 0 0-.554-.555z" style="fill:#b7b6b3;fill-opacity:1;stroke:none;stroke-width:1;-inkscape-stroke:none;paint-order:stroke markers fill" transform="translate(.243 5.85)"/><path d="M10.243 4.878a.553.553 0 0 0-.554.554v.48c0 .037.005.074.011.108a.552.552 0 0 1 .543-.441h3.028c.269 0 .491.188.543.441a.567.567 0 0 0 .011-.107v-.48a.553.553 0 0 0-.554-.555z" style="fill:#deddda;fill-opacity:1;stroke:none;stroke-width:1;-inkscape-stroke:none;paint-order:stroke markers fill" transform="translate(.243 5.85)"/><path d="M10.243 5.579a.553.553 0 0 0-.554.555v.138h.675v-.35h2.786v.35h.675v-.138a.553.553 0 0 0-.554-.555z" style="fill:#b7b6b3;fill-opacity:1;stroke:none;stroke-width:1;-inkscape-stroke:none;paint-order:stroke markers fill" transform="translate(.243 11.85)"/><path d="M10.243 4.878a.553.553 0 0 0-.554.554v.48c0 .037.005.074.011.108a.552.552 0 0 1 .543-.441h3.028c.269 0 .491.188.543.441a.567.567 0 0 0 .011-.107v-.48a.553.553 0 0 0-.554-.555z" style="fill:#deddda;fill-opacity:1;stroke:none;stroke-width:1;-inkscape-stroke:none;paint-order:stroke markers fill" transform="translate(.243 11.85)"/></svg>