<?xml version="1.0" encoding="UTF-8" standalone="no"?>
<svg
   width="24"
   height="24"
   fill="none"
   version="1.1"
   id="svg17"
   sodipodi:docname="nemo.svg"
   inkscape:version="1.3 (0e150ed6c4, 2023-07-21)"
   xml:space="preserve"
   xmlns:inkscape="http://www.inkscape.org/namespaces/inkscape"
   xmlns:sodipodi="http://sodipodi.sourceforge.net/DTD/sodipodi-0.dtd"
   xmlns:xlink="http://www.w3.org/1999/xlink"
   xmlns="http://www.w3.org/2000/svg"
   xmlns:svg="http://www.w3.org/2000/svg"><sodipodi:namedview
     id="namedview17"
     pagecolor="#ffffff"
     bordercolor="#000000"
     borderopacity="0.25"
     inkscape:showpageshadow="2"
     inkscape:pageopacity="0.0"
     inkscape:pagecheckerboard="0"
     inkscape:deskcolor="#d1d1d1"
     inkscape:zoom="16"
     inkscape:cx="13.90625"
     inkscape:cy="1.21875"
     inkscape:window-width="3440"
     inkscape:window-height="1358"
     inkscape:window-x="2560"
     inkscape:window-y="0"
     inkscape:window-maximized="1"
     inkscape:current-layer="svg17" /><defs
     id="defs17"><linearGradient
       id="a"
       x1="23"
       x2="1"
       y1="1"
       y2="12"
       gradientUnits="userSpaceOnUse"
       gradientTransform="translate(40)"><stop
         stop-color="#87DE87"
         id="stop5" /><stop
         offset="1"
         stop-color="#217821"
         id="stop6" /></linearGradient><linearGradient
       id="b"
       x1="21"
       x2="3"
       y1="4"
       y2="4"
       gradientUnits="userSpaceOnUse"
       gradientTransform="translate(40)"><stop
         stop-opacity=".5"
         id="stop7" /><stop
         offset=".89"
         id="stop8" /><stop
         offset="1"
         stop-opacity="0"
         id="stop9" /></linearGradient><linearGradient
       id="c"
       x1="12"
       x2="11.5"
       y1="3"
       y2="8"
       gradientUnits="userSpaceOnUse"
       gradientTransform="translate(40)"><stop
         stop-color="#DDD"
         id="stop10" /><stop
         offset="1"
         stop-color="#CCC"
         stop-opacity="0"
         id="stop11" /></linearGradient><linearGradient
       id="d"
       x1="23"
       x2="1.012"
       y1="9"
       y2="9.521"
       gradientUnits="userSpaceOnUse"
       gradientTransform="translate(40)"><stop
         stop-opacity=".5"
         id="stop12" /><stop
         offset="1"
         id="stop13" /></linearGradient><linearGradient
       id="e"
       x1="23"
       x2="1.429"
       y1="5.4"
       y2="23.512"
       gradientUnits="userSpaceOnUse"><stop
         stop-color="#AFE9AF"
         id="stop14" /><stop
         offset="1"
         stop-color="#2CA02C"
         id="stop15" /></linearGradient><linearGradient
       id="f"
       x1="15"
       x2="5.5"
       y1="5.5"
       y2="19.5"
       gradientUnits="userSpaceOnUse"><stop
         stop-color="#CAFFCA"
         id="stop16" /><stop
         offset="1"
         stop-color="#217821"
         id="stop17" /></linearGradient><linearGradient
       x1="23"
       y1="1"
       x2="1"
       y2="12"
       gradientUnits="userSpaceOnUse"
       gradientTransform="scale(0.75)"
       spreadMethod="pad"
       id="linearGradient2"><stop
         style="stop-opacity:1;stop-color:#2675a7"
         offset="0"
         id="stop1-9" /><stop
         style="stop-opacity:1;stop-color:#1d5e8c"
         offset="1"
         id="stop2-8" /></linearGradient><linearGradient
       inkscape:collect="always"
       xlink:href="#linearGradient8"
       id="linearGradient19"
       gradientUnits="userSpaceOnUse"
       gradientTransform="scale(0.75)"
       x1="21"
       y1="4"
       x2="3"
       y2="4"
       spreadMethod="pad" /><linearGradient
       x1="21"
       y1="4"
       x2="3"
       y2="4"
       gradientUnits="userSpaceOnUse"
       gradientTransform="scale(0.75)"
       spreadMethod="pad"
       id="linearGradient8"><stop
         style="stop-opacity:0.43750668;stop-color:#000000"
         offset="0"
         id="stop6-2" /><stop
         style="stop-opacity:0.87501335;stop-color:#000000"
         offset="0.89"
         id="stop7-6" /><stop
         style="stop-opacity:0;stop-color:#000000"
         offset="1"
         id="stop8-7" /></linearGradient><clipPath
       clipPathUnits="userSpaceOnUse"
       id="clipPath8-6"><path
         d="M 0,0 H 19 V 19 H 0 Z"
         id="path8-4" /></clipPath><linearGradient
       inkscape:collect="always"
       xlink:href="#linearGradient18"
       id="linearGradient23"
       gradientUnits="userSpaceOnUse"
       gradientTransform="scale(0.75)"
       x1="23"
       y1="9"
       x2="1.012"
       y2="9.5209999"
       spreadMethod="pad" /><linearGradient
       x1="23"
       y1="9"
       x2="1.012"
       y2="9.5209999"
       gradientUnits="userSpaceOnUse"
       gradientTransform="scale(0.75)"
       spreadMethod="pad"
       id="linearGradient18"><stop
         style="stop-opacity:0.43750668;stop-color:#000000"
         offset="0"
         id="stop17-9" /><stop
         style="stop-opacity:0.87501335;stop-color:#000000"
         offset="1"
         id="stop18-7" /></linearGradient><clipPath
       clipPathUnits="userSpaceOnUse"
       id="clipPath18-4"><path
         d="M 0,0 H 19 V 19 H 0 Z"
         id="path18-4" /></clipPath><linearGradient
       inkscape:collect="always"
       xlink:href="#linearGradient58"
       id="linearGradient56"
       gradientUnits="userSpaceOnUse"
       gradientTransform="matrix(1.0005792,0,0,1.0005792,-0.00687,-0.4047445)"
       x1="12.658564"
       y1="-2.1819804"
       x2="12.658564"
       y2="21.104"
       spreadMethod="pad" /><linearGradient
       x1="23"
       y1="1"
       x2="1"
       y2="12"
       gradientUnits="userSpaceOnUse"
       gradientTransform="scale(0.75)"
       spreadMethod="pad"
       id="linearGradient58"><stop
         style="stop-color:#709937;stop-opacity:1;"
         offset="0"
         id="stop57" /><stop
         style="stop-color:#496a1c;stop-opacity:1;"
         offset="1"
         id="stop58" /></linearGradient><linearGradient
       inkscape:collect="always"
       xlink:href="#linearGradient61"
       id="linearGradient50"
       gradientUnits="userSpaceOnUse"
       gradientTransform="matrix(1.0033418,0,0,1.0033418,-0.040146,-0.4433578)"
       x1="23"
       y1="5.4000001"
       x2="1.429"
       y2="23.511999"
       spreadMethod="pad" /><linearGradient
       x1="23"
       y1="5.4000001"
       x2="1.429"
       y2="23.511999"
       gradientUnits="userSpaceOnUse"
       gradientTransform="scale(0.75)"
       spreadMethod="pad"
       id="linearGradient61"><stop
         style="stop-color:#41581f;stop-opacity:1;"
         offset="0"
         id="stop60" /><stop
         style="stop-color:#8db25a;stop-opacity:1;"
         offset="1"
         id="stop61" /></linearGradient><linearGradient
       id="j"
       stop-color="#fff"
       y2="33.955"
       gradientUnits="userSpaceOnUse"
       x2="15.215"
       y1="22.292"
       x1="11.566"><stop
         stop-opacity=".2"
         offset="0"
         id="stop1" /><stop
         stop-opacity="0"
         offset="1"
         id="stop2" /></linearGradient><radialGradient
       id="k"
       stop-color="#fff"
       gradientUnits="userSpaceOnUse"
       cy="8.3021"
       cx="7.2647"
       gradientTransform="matrix(0,1.208,-1.6272,0,26.372,8.2665)"
       r="20.98"><stop
         stop-opacity="0.4"
         offset="0"
         id="stop3" /><stop
         stop-opacity="0"
         offset="1"
         id="stop4" /></radialGradient><linearGradient
       id="i"
       y2="36.658"
       gradientUnits="userSpaceOnUse"
       x2="22.809"
       gradientTransform="matrix(1.1447,0,0,0.99775,-3.4661,1.0988)"
       y1="49.629"
       x1="22.935"><stop
         stop-color="#0a0a0a"
         stop-opacity=".498"
         offset="0"
         id="stop5-8" /><stop
         stop-color="#0a0a0a"
         stop-opacity="0"
         offset="1"
         id="stop6-7" /></linearGradient><radialGradient
       id="d-9"
       gradientUnits="userSpaceOnUse"
       cy="14.113"
       cx="63.969"
       gradientTransform="matrix(1.5647,-9.5143e-8,6.1772e-8,1.0159,-86.213,8.1461)"
       r="23.097"><stop
         stop-color="#aacb7d"
         offset="0"
         id="stop7-2" /><stop
         stop-color="#709937"
         offset="1"
         id="stop8-0" /></radialGradient><linearGradient
       id="h"
       y2="16.047"
       gradientUnits="userSpaceOnUse"
       x2="82.453"
       gradientTransform="translate(-53.765,-0.11419)"
       y1="45.114"
       x1="82.453"><stop
         stop-color="#51751e"
         offset="0"
         id="stop9-2" /><stop
         stop-color="#709937"
         offset="1"
         id="stop10-3" /></linearGradient><linearGradient
       id="g"
       y2="16.19"
       gradientUnits="userSpaceOnUse"
       x2="62.989"
       gradientTransform="translate(-50.941)"
       y1="13.183"
       x1="62.989"><stop
         stop-color="#f9f9f9"
         offset="0"
         id="stop11-7" /><stop
         stop-color="#c9c9c9"
         offset="1"
         id="stop12-5" /></linearGradient><radialGradient
       id="c-9"
       gradientUnits="userSpaceOnUse"
       cy="5.0172"
       cx="3"
       gradientTransform="matrix(-1.2749e-8,1.7143,-2.1593,-1.46e-8,12.809,2.857)"
       r="21"><stop
         stop-color="#bdbdbd"
         offset="0"
         id="stop13-2" /><stop
         stop-color="#d0d0d0"
         offset="1"
         id="stop14-2" /></radialGradient><radialGradient
       id="b-8"
       gradientUnits="userSpaceOnUse"
       cy="486.65"
       cx="605.71"
       gradientTransform="matrix(-0.030791,0,0,0.024706,23.39,31.942)"
       r="117.14"><stop
         offset="0"
         id="stop15-9" /><stop
         stop-opacity="0"
         offset="1"
         id="stop16-7" /></radialGradient><radialGradient
       id="a-3"
       gradientUnits="userSpaceOnUse"
       cy="486.65"
       cx="605.71"
       gradientTransform="matrix(0.030791,0,0,0.024706,24.61,31.942)"
       r="117.14"><stop
         offset="0"
         id="stop17-6" /><stop
         stop-opacity="0"
         offset="1"
         id="stop18" /></radialGradient><linearGradient
       id="f-1"
       y2="609.51"
       gradientUnits="userSpaceOnUse"
       x2="302.86"
       gradientTransform="matrix(0.079389,0,0,0.024706,-4.6933,31.942)"
       y1="366.65"
       x1="302.86"><stop
         stop-opacity="0"
         offset="0"
         id="stop19" /><stop
         offset=".5"
         id="stop20" /><stop
         stop-opacity="0"
         offset="1"
         id="stop21" /></linearGradient></defs><g
     id="g1"
     transform="matrix(1.0965789,0,0,1.0969436,-1.1589484,-1.1659777)"
     style="stroke-width:0.911776"><path
       id="path39"
       style="fill:#4b6b1d;fill-opacity:1;stroke:none;stroke-width:1.2157"
       d="m 12,1.9745569 c -9.113991,0 -10.025391,4.557396 -10.025391,10.0253901 0,7.289993 2.734398,10.025391 10.025391,10.025391 7.289993,0 10.025391,-2.734398 10.025391,-10.025391 C 22.025391,6.5319529 21.11399,1.9745569 12,1.9745569 Z" /><path
       id="path5-1"
       clip-path="url(#clipPath8-6)"
       style="opacity:0.15;fill:url(#linearGradient19);stroke:none;stroke-width:0.911776"
       d="m 9.0000002,1.7784449 c -3.9395059,0 -5.8329155,1.1372044 -6.732422,2.8842774 -0.010388,0.1069993 -0.017578,0.2153847 -0.017578,0.3251953 v 6.8994144 c 0,1.827998 1.4722948,3.300293 3.300293,3.300293 h 6.8994138 c 1.827999,0 3.300293,-1.472295 3.300293,-3.300293 V 4.9879176 C 15.75,4.878107 15.7428,4.7697216 15.73242,4.6627223 14.832916,2.9156493 12.939506,1.7784449 9.0000002,1.7784449 Z"
       transform="matrix(1.3333333,0,0,1.3333333,0,-0.3967029)" /><path
       id="path40"
       d="m 7.6775,3.3229706 h 8.645002 c 2.164383,0 3.901402,1.7370211 3.901402,3.9014041 v 8.6450013 c 0,2.164383 -1.737019,3.901405 -3.901402,3.901405 H 7.6775 c -2.164382,0 -3.901403,-1.737022 -3.901403,-3.901405 V 7.2243747 c 0,-2.1643828 1.737021,-3.9014041 3.901403,-3.9014041 z"
       style="fill:#ffffff;fill-opacity:1;fill-rule:nonzero;stroke:none;stroke-width:1.2157" /><path
       id="path9"
       clip-path="url(#clipPath18-4)"
       style="opacity:0.35;fill:url(#linearGradient23);stroke:none;stroke-width:0.911776"
       d="m 3.2534181,3.3751246 c -1.5383825,1.3850267 -1.772461,3.5371421 -1.772461,5.9223634 0,4.406235 1.3332271,6.592618 4.7124024,7.275879 h 5.6132815 c 3.37875,-0.683163 4.712402,-2.86917 4.712402,-7.275879 0,-1.517041 -0.09568,-2.9391809 -0.55957,-4.1308595 C 15.665684,5.0265858 15.339506,4.9454371 14.992676,4.9454371 h -4.426758 c -0.803999,0 -1.5854497,-0.2771568 -2.210449,-0.7851562 C 7.7304696,3.6522814 6.9486243,3.3751246 6.1406252,3.3751246 Z"
       transform="matrix(1.3333333,0,0,1.3333333,0,-0.3967029)" /><path
       id="path56"
       style="opacity:0.875;fill:url(#linearGradient56);stroke:none;stroke-width:1.2157"
       d="m 6.606254,4.9461749 c -1.107224,-8e-6 -2.206172,0.00831 -2.313839,0.025404 C 3.922707,5.0300229 3.581006,5.1541107 3.291837,5.3331163 2.167577,7.1155122 1.968804,9.458081 1.968804,11.999085 c 0,7.2942 2.735999,10.031198 10.031199,10.031198 7.294201,0 10.031196,-2.735996 10.031196,-10.031198 0,-1.146566 -0.04232,-2.25215 -0.189563,-3.285106 C 21.500087,7.9118147 20.836975,7.2922682 20.012452,7.074359 19.712472,6.995083 19.929302,6.998985 16.633544,6.988369 13.864501,6.979459 13.554283,6.976452 13.405111,6.953188 12.517767,6.8147665 11.898192,6.5320269 11.16358,5.9272037 10.500623,5.3813826 9.793895,5.0731284 8.966997,4.9715725 8.828388,4.9545425 7.713468,4.9461775 6.606254,4.9461675 Z m 0.01172,0.7308922 c 1.095626,4.903e-4 2.196206,0.00841 2.317748,0.025404 0.437149,0.060825 0.809413,0.1795429 1.184279,0.3791254 0.259174,0.1379949 0.354676,0.2051348 0.791475,0.5569624 0.637251,0.5132661 1.424951,0.872458 2.200492,1.0044885 0.395647,0.067309 0.281892,0.065869 3.484438,0.076214 3.338037,0.010806 3.084993,0.0027 3.369138,0.099668 0.131632,0.044896 0.354986,0.1539782 0.461205,0.2247396 0.238373,0.158777 0.476527,0.404349 0.631226,0.650767 0.398676,0.690531 0.289835,2.52371 0.293137,3.408224 0,0.637479 -0.02214,1.237657 -0.0684,1.801824 -0.01542,0.188056 -0.03394,0.372937 -0.05472,0.553055 -0.02077,0.180117 -0.04414,0.355365 -0.07036,0.527648 -0.02622,0.172285 -0.05422,0.3416 -0.08599,0.506154 -0.127084,0.658209 -0.299754,1.253378 -0.519832,1.792052 -0.05502,0.134669 -0.112838,0.267302 -0.173928,0.39476 -1.099626,2.294228 -3.191229,3.427981 -6.576072,3.705269 -0.188048,0.01541 -0.380423,0.02892 -0.576507,0.03909 -0.196082,0.01017 -0.395735,0.01647 -0.599956,0.02149 -0.204222,0.005 -0.412898,0.0078 -0.625362,0.0078 -1.274959,0 -2.401254,-0.08895 -3.388681,-0.279458 -0.16457,-0.03175 -0.3238,-0.06617 -0.480747,-0.103573 -3.923662,-0.935153 -5.481688,-3.654503 -5.481688,-8.966109 0,-0.204434 0.01439,-6.1120589 1.686524,-6.4021448 0.09736,-0.01695 1.186945,-0.023953 2.282571,-0.023453 z" /><path
       id="path50"
       style="opacity:0.875;fill:url(#linearGradient50);stroke:none;stroke-width:1.2157"
       d="M 6.610913,5.6552456 C 5.512261,5.6547439 4.419665,5.6617656 4.322039,5.6787636 2.645282,5.9696506 2.63086,11.893586 2.63086,12.098584 c 0,6.817634 2.558377,9.374975 9.376934,9.374975 6.81762,0 9.376936,-2.556406 9.376936,-9.374975 C 21.38143,11.211628 21.490545,9.373389 21.090765,8.680951 20.935641,8.433852 20.696829,8.187603 20.457798,8.028387 20.351286,7.95743 20.127316,7.8480471 19.99532,7.8030272 19.710391,7.7057732 19.96414,7.7139202 16.616879,7.7030842 13.405487,7.6927092 13.519561,7.6941542 13.122821,7.6266602 12.345139,7.4942651 11.555265,7.1340815 10.916253,6.6193982 10.478249,6.2665982 10.382483,6.199274 10.122593,6.0608981 9.746691,5.8607645 9.3734,5.741719 8.935044,5.6807259 8.813166,5.6637189 7.709549,5.6557429 6.610897,5.6552509 Z"
       sodipodi:nodetypes="scssccsccccscss" /></g></svg>
