<?xml version="1.0" encoding="UTF-8" standalone="no"?>
<!-- Created with Inkscape (http://www.inkscape.org/) -->

<svg
   width="24"
   height="24"
   id="svg11300"
   version="1.0"
   style="display:inline;enable-background:new"
   viewBox="0 0 24 24"
   sodipodi:docname="net.davidotek.pupgui2.svg"
   inkscape:version="1.3 (0e150ed6c4, 2023-07-21)"
   xml:space="preserve"
   xmlns:inkscape="http://www.inkscape.org/namespaces/inkscape"
   xmlns:sodipodi="http://sodipodi.sourceforge.net/DTD/sodipodi-0.dtd"
   xmlns:xlink="http://www.w3.org/1999/xlink"
   xmlns="http://www.w3.org/2000/svg"
   xmlns:svg="http://www.w3.org/2000/svg"
   xmlns:rdf="http://www.w3.org/1999/02/22-rdf-syntax-ns#"
   xmlns:cc="http://creativecommons.org/ns#"
   xmlns:dc="http://purl.org/dc/elements/1.1/"><title
     id="title894">TLPUI</title><defs
     id="defs3"><linearGradient
       y2="236"
       x2="96"
       y1="236"
       x1="32"
       gradientTransform="translate(604.81684,170.58641)"
       gradientUnits="userSpaceOnUse"
       id="linearGradient1099"
       xlink:href="#linearGradient1036" /><linearGradient
       id="linearGradient1036"><stop
         id="stop1032"
         offset="0"
         style="stop-color:#d5d3cf;stop-opacity:1;" /><stop
         id="stop1034"
         offset="1"
         style="stop-color:#f6f5f4;stop-opacity:1" /></linearGradient><radialGradient
       r="32"
       fy="-76"
       fx="-244"
       cy="-76"
       cx="-244"
       gradientTransform="matrix(0.88333331,0,0,0.88333331,-460.35018,463.11973)"
       gradientUnits="userSpaceOnUse"
       id="radialGradient1103"
       xlink:href="#linearGradient1069" /><linearGradient
       id="linearGradient1069"><stop
         id="stop1065"
         offset="0"
         style="stop-color:#d5d3cf;stop-opacity:1" /><stop
         id="stop1067-1"
         offset="1"
         style="stop-color:#949390;stop-opacity:1" /></linearGradient><linearGradient
       gradientUnits="userSpaceOnUse"
       y2="232"
       x2="64"
       y1="262.5"
       x1="64"
       id="linearGradient1027"
       xlink:href="#linearGradient1025"
       gradientTransform="translate(-470.5864,432.81685)" /><linearGradient
       id="linearGradient1025"><stop
         id="stop1021"
         offset="0"
         style="stop-color:#9a9996;stop-opacity:1" /><stop
         id="stop1023"
         offset="1"
         style="stop-color:#77767b;stop-opacity:1" /></linearGradient><inkscape:path-effect
       effect="spiro"
       id="path-effect35304-9"
       is_visible="true"
       lpeversion="0" /><clipPath
       clipPathUnits="userSpaceOnUse"
       id="clipPath1609-7"><path
         sodipodi:nodetypes="cccccc"
         inkscape:connector-curvature="0"
         id="path1611-5"
         d="m 252,116 28,-28 v -8 h -36 v 36 z"
         style="fill:#e74747;stroke:none;stroke-width:0.25px;stroke-linecap:butt;stroke-linejoin:miter;stroke-opacity:1" /></clipPath><linearGradient
       inkscape:collect="always"
       xlink:href="#linearGradient23806"
       id="linearGradient23808"
       x1="221.27568"
       y1="-303.44745"
       x2="214.69281"
       y2="438.2211"
       gradientUnits="userSpaceOnUse" /><linearGradient
       inkscape:collect="always"
       id="linearGradient23806"><stop
         style="stop-color:#f2f2f2;stop-opacity:1"
         offset="0"
         id="stop23802" /><stop
         style="stop-color:#ffffff;stop-opacity:1"
         offset="1"
         id="stop23804" /></linearGradient><linearGradient
       inkscape:collect="always"
       xlink:href="#linearGradient23806"
       id="linearGradient1"
       gradientUnits="userSpaceOnUse"
       x1="221.27568"
       y1="-303.44745"
       x2="214.69281"
       y2="438.2211" /><linearGradient
       inkscape:collect="always"
       xlink:href="#linearGradient23806"
       id="linearGradient2"
       gradientUnits="userSpaceOnUse"
       x1="221.27568"
       y1="-303.44745"
       x2="214.69281"
       y2="438.2211" /><linearGradient
       inkscape:collect="always"
       xlink:href="#linearGradient23806"
       id="linearGradient3"
       gradientUnits="userSpaceOnUse"
       x1="221.27568"
       y1="-303.44745"
       x2="214.69281"
       y2="438.2211" /></defs><sodipodi:namedview
     stroke="#ef2929"
     fill="#f57900"
     id="base"
     pagecolor="#ffffff"
     bordercolor="#666666"
     borderopacity="0.25490196"
     inkscape:pageopacity="0.0"
     inkscape:pageshadow="2"
     inkscape:zoom="8"
     inkscape:cx="-23.3125"
     inkscape:cy="22.3125"
     inkscape:current-layer="layer7"
     showgrid="false"
     inkscape:grid-bbox="true"
     inkscape:document-units="px"
     inkscape:showpageshadow="false"
     inkscape:window-width="3440"
     inkscape:window-height="1358"
     inkscape:window-x="2560"
     inkscape:window-y="0"
     width="400px"
     height="300px"
     inkscape:snap-nodes="true"
     inkscape:snap-bbox="true"
     objecttolerance="7"
     gridtolerance="12"
     guidetolerance="13"
     inkscape:window-maximized="1"
     inkscape:pagecheckerboard="false"
     showguides="false"
     inkscape:guide-bbox="true"
     inkscape:locked="false"
     inkscape:measure-start="0,0"
     inkscape:measure-end="0,0"
     inkscape:object-nodes="true"
     inkscape:bbox-nodes="true"
     inkscape:snap-global="true"
     inkscape:object-paths="true"
     inkscape:snap-intersection-paths="true"
     inkscape:snap-bbox-edge-midpoints="true"
     inkscape:snap-bbox-midpoints="true"
     showborder="false"
     inkscape:snap-center="true"
     inkscape:snap-object-midpoints="true"
     inkscape:snap-midpoints="true"
     inkscape:snap-smooth-nodes="true"
     inkscape:snap-text-baseline="true"
     inkscape:deskcolor="#d1d1d1"><inkscape:grid
       type="xygrid"
       id="grid5883"
       spacingx="2"
       spacingy="2"
       enabled="true"
       visible="false"
       empspacing="4"
       originx="0"
       originy="0"
       units="px" /><sodipodi:guide
       position="64,8"
       orientation="0,1"
       id="guide1073"
       inkscape:locked="false"
       inkscape:label=""
       inkscape:color="rgb(0,0,255)" /><sodipodi:guide
       position="12,64"
       orientation="1,0"
       id="guide1075"
       inkscape:locked="false"
       inkscape:label=""
       inkscape:color="rgb(0,0,255)" /><sodipodi:guide
       position="64,104"
       orientation="0,1"
       id="guide1099"
       inkscape:locked="false"
       inkscape:label=""
       inkscape:color="rgb(0,0,255)" /><sodipodi:guide
       position="64,128"
       orientation="0,1"
       id="guide993"
       inkscape:locked="false"
       inkscape:label=""
       inkscape:color="rgb(0,0,255)" /><sodipodi:guide
       position="104,64"
       orientation="1,0"
       id="guide995"
       inkscape:locked="false"
       inkscape:label=""
       inkscape:color="rgb(0,0,255)" /><sodipodi:guide
       position="9.2651362e-08,64"
       orientation="1,0"
       id="guide867"
       inkscape:locked="false"
       inkscape:label=""
       inkscape:color="rgb(0,0,255)" /><sodipodi:guide
       position="120,64"
       orientation="1,0"
       id="guide869"
       inkscape:locked="false"
       inkscape:label=""
       inkscape:color="rgb(0,0,255)" /><sodipodi:guide
       position="64,116"
       orientation="0,1"
       id="guide871"
       inkscape:locked="false"
       inkscape:label=""
       inkscape:color="rgb(0,0,255)" /><inkscape:grid
       type="xygrid"
       id="grid873"
       spacingx="1"
       spacingy="1"
       empspacing="8"
       color="#000000"
       opacity="0.49019608"
       empcolor="#000000"
       empopacity="0.08627451"
       dotted="true"
       originx="0"
       originy="0"
       units="px"
       visible="false" /><sodipodi:guide
       position="24,64"
       orientation="1,0"
       id="guide877"
       inkscape:locked="false"
       inkscape:label=""
       inkscape:color="rgb(0,0,255)" /><sodipodi:guide
       position="116,64"
       orientation="1,0"
       id="guide879"
       inkscape:locked="false"
       inkscape:label=""
       inkscape:color="rgb(0,0,255)" /><sodipodi:guide
       position="64,120"
       orientation="0,1"
       id="guide881"
       inkscape:locked="false"
       inkscape:label=""
       inkscape:color="rgb(0,0,255)" /><sodipodi:guide
       position="64,12"
       orientation="0,1"
       id="guide883"
       inkscape:locked="false"
       inkscape:label=""
       inkscape:color="rgb(0,0,255)" /><sodipodi:guide
       position="8,64"
       orientation="1,0"
       id="guide885"
       inkscape:locked="false"
       inkscape:label=""
       inkscape:color="rgb(0,0,255)" /><sodipodi:guide
       position="128,64"
       orientation="1,0"
       id="guide887"
       inkscape:locked="false"
       inkscape:label=""
       inkscape:color="rgb(0,0,255)" /><sodipodi:guide
       position="64,0"
       orientation="0,1"
       id="guide897"
       inkscape:locked="false"
       inkscape:label=""
       inkscape:color="rgb(0,0,255)" /><sodipodi:guide
       position="64,24"
       orientation="0,1"
       id="guide899"
       inkscape:locked="false"
       inkscape:label=""
       inkscape:color="rgb(0,0,255)" /><sodipodi:guide
       position="256,256"
       orientation="-0.70710678,0.70710678"
       id="guide950"
       inkscape:locked="false"
       inkscape:label=""
       inkscape:color="rgb(0,0,255)" /><sodipodi:guide
       position="64,64"
       orientation="0.70710678,0.70710678"
       id="guide952"
       inkscape:locked="false"
       inkscape:label=""
       inkscape:color="rgb(0,0,255)" /></sodipodi:namedview><metadata
     id="metadata4"><rdf:RDF><cc:Work
         rdf:about=""><dc:format>image/svg+xml</dc:format><dc:type
           rdf:resource="http://purl.org/dc/dcmitype/StillImage" /><dc:creator><cc:Agent><dc:title>Daniel Christophis</dc:title></cc:Agent></dc:creator><dc:source>https://github.com/d4nj1/TLPUI</dc:source><dc:title>TLPUI</dc:title><dc:subject><rdf:Bag /></dc:subject><dc:date>2021-07-14</dc:date><dc:rights><cc:Agent><dc:title /></cc:Agent></dc:rights><dc:publisher><cc:Agent><dc:title /></cc:Agent></dc:publisher><dc:identifier /><dc:relation /><dc:language /><dc:coverage /><dc:contributor><cc:Agent><dc:title /></cc:Agent></dc:contributor><cc:license
           rdf:resource="http://creativecommons.org/licenses/by-sa/4.0/" /><dc:description>TLPUI icon built in regards to Gnome guidelines for building desktop icons&#10;https://gitlab.gnome.org/Community/Design/HIG-app-icons/blob/master/template.svg</dc:description></cc:Work><cc:License
         rdf:about="http://creativecommons.org/licenses/by-sa/4.0/"><cc:permits
           rdf:resource="http://creativecommons.org/ns#Reproduction" /><cc:permits
           rdf:resource="http://creativecommons.org/ns#Distribution" /><cc:requires
           rdf:resource="http://creativecommons.org/ns#Notice" /><cc:requires
           rdf:resource="http://creativecommons.org/ns#Attribution" /><cc:permits
           rdf:resource="http://creativecommons.org/ns#DerivativeWorks" /><cc:requires
           rdf:resource="http://creativecommons.org/ns#ShareAlike" /></cc:License></rdf:RDF></metadata><g
     inkscape:groupmode="layer"
     id="layer7"
     inkscape:label="Frame"
     style="display:inline"><g
       id="g244"
       transform="matrix(0.04928739,0,0,0.04928739,0.99995002,0.9999874)"
       style="fill:url(#linearGradient23808);fill-opacity:1;stroke-width:21.9899"
       inkscape:export-filename="musescore.svg"
       inkscape:export-xdpi="25.400002"
       inkscape:export-ydpi="25.400002"><g
         id="g246"
         style="fill:url(#linearGradient3);fill-opacity:1;stroke-width:21.9899"><g
           id="g252"
           style="fill:url(#linearGradient2);fill-opacity:1;stroke-width:21.9899"><path
             d="m 174.406,2.305 c 2.434,0.027 4.758,-0.285 6.973,-0.93 29.133,-1.906 58.258,-1.832 87.387,0.234 26.41,2.055 51.976,7.786 76.699,17.188 41.097,16.922 69.219,46.269 84.363,88.043 8.66,25.152 13.774,51.015 15.34,77.59 2.164,33.371 1.391,66.668 -2.324,99.89 -2.782,23.352 -8.824,45.805 -18.129,67.368 -17.258,37.382 -45.223,63.167 -83.899,77.355 -31.343,10.59 -63.57,16.164 -96.687,16.723 -37.246,1.937 -74.121,-0.848 -110.625,-8.36 C 66.312,422.438 24.867,381.477 9.164,314.52 2.496,284.375 -0.523,253.867 0.098,222.992 -0.645,190.16 2.84,157.793 10.559,125.891 27.02,63.285 66.762,24.488 129.785,9.508 144.469,5.914 159.344,3.516 174.406,2.305 Z"
             style="fill:url(#linearGradient1);fill-opacity:1;fill-rule:evenodd;stroke:none;stroke-width:21.9899"
             id="path260" /></g></g></g><g
       id="g4"
       transform="matrix(0.49557503,0,0,0.49557503,68.63493,5.4123391)"
       style="stroke-width:2.01786"><path
         id="rect2"
         style="opacity:1;fill:#82f6a1;fill-opacity:1;stroke:none;stroke-width:1.00893;stroke-linecap:round;stroke-linejoin:round;stroke-opacity:0.165098;paint-order:markers fill stroke"
         d="m -114.2832,-0.83203125 c -0.0579,0 -0.11613,0.002265 -0.17383,0.007813 -0.0584,0.005588 -0.11522,0.0144282 -0.17188,0.0253906 -0.0414,0.008007 -0.0827,0.0185433 -0.12304,0.0292969 -0.0175,0.004706 -0.0353,0.008428 -0.0527,0.0136719 -0.0547,0.016369 -0.10775,0.0353891 -0.16016,0.0566406 -0.0549,0.0222695 -0.1081,0.0468849 -0.16016,0.0742188 -0.0528,0.0277406 -0.10473,0.0591555 -0.15429,0.0917969 -0.0509,0.033544 -0.0993,0.0690425 -0.14649,0.10742187 -0.0483,0.0393024 -0.0947,0.0809928 -0.13867,0.125 -0.007,0.006491 -0.0132,0.0129429 -0.0195,0.0195313 L -127.12304,11.257813 c -0.71002,0.710023 -0.71002,1.854431 0,2.564454 0.71003,0.710023 1.85248,0.710023 2.5625,0 l 8.4668,-8.4667976 V 25.605469 c 0,1.004124 0.80837,1.8125 1.8125,1.8125 1.00412,0 1.8125,-0.808376 1.8125,-1.8125 V 5.3554688 l 8.46679,8.4667972 c 0.71003,0.710023 1.85248,0.710023 2.5625,0 0.71003,-0.710023 0.71003,-1.854431 0,-2.564454 l -11.5586,-11.55859325 v -0.001953 c -0.0436,-0.0436325 -0.0908,-0.0840481 -0.13867,-0.12304687 -4e-4,-3.2928e-4 -0.002,3.2894e-4 -0.002,0 -0.18355,-0.14916414 -0.39558,-0.26364928 -0.6289,-0.33203125 -0.054,-0.0158104 -0.11008,-0.0301919 -0.16602,-0.0410156 -0.001,-2.4366e-4 -0.003,2.4105e-4 -0.004,0 -0.0554,-0.0106048 -0.11083,-0.0199269 -0.16797,-0.0253906 -0.001,-1.2442e-4 -0.003,1.2163e-4 -0.004,0 -0.0117,-0.001122 -0.0235,-0.001058 -0.0352,-0.001953 -0.035,-0.002608 -0.0704,-0.003339 -0.10547,-0.003906 -0.007,-1.231e-4 -0.0142,-0.001915 -0.0215,-0.001953 -0.004,-2.511e-5 -0.008,0 -0.0117,0 z" /><path
         style="fill:#f69282;fill-opacity:1;stroke:none;stroke-width:2.01786"
         d="m -112.77336,19.514056 h 0.0281 c 0.56201,0.797843 1.41613,1.472275 2.10551,2.16166 0.23294,0.232937 0.53366,0.671488 0.89835,0.67151 0.36179,2.4e-5 0.63908,-0.412232 0.87028,-0.643437 l 1.96515,-1.965145 c 0.24885,-0.248853 0.73704,-0.57238 0.58579,-0.982552 -0.18788,-0.509523 -0.68627,-0.264072 -0.95075,-2.1e-5 l -1.60019,1.60019 c -0.27843,0.278432 -0.61535,0.548228 -0.8422,0.870278 l -2.21781,-2.217806 c -0.24607,-0.246075 -0.5766,-0.731659 -0.98257,-0.582135 -0.25856,0.09523 -0.48267,0.419112 -0.67377,0.610208 l -1.43175,1.431749 c -0.16842,0.16842 -0.33574,0.33803 -0.50532,0.50528 -0.056,0.05526 -0.13396,0.158405 -0.22459,0.134605 -0.21051,-0.05528 -0.46541,-0.431534 -0.61761,-0.583738 l -1.57212,-1.572116 c -0.24616,-0.246161 -0.54768,-0.722571 -0.9545,-0.595046 -0.353,0.110654 -0.69758,0.618863 -0.9545,0.875781 -0.72834,0.728345 -1.55404,1.425371 -2.2115,2.217806 -0.22401,0.269997 -0.0986,0.672946 0.24636,0.759589 0.33562,0.08429 0.57878,-0.243508 0.78605,-0.45078 l 1.62827,-1.628263 c 0.1295,-0.129504 0.45593,-0.587985 0.64569,-0.587985 0.0882,0 0.16852,0.111044 0.22459,0.166882 l 0.50532,0.505323 1.31945,1.319455 c 0.22337,0.223365 0.44901,0.524851 0.72992,0.676125 0.41723,0.224688 0.71766,-0.186628 0.98257,-0.451537 l 1.45982,-1.459822 c 0.25167,-0.251671 0.55289,-0.494895 0.75798,-0.786058 z"
         id="path1" /></g></g><g
     style="display:inline"
     inkscape:label="Bottom"
     id="g880"
     inkscape:groupmode="layer" /><g
     style="display:inline"
     inkscape:label="Keyboard"
     id="g875"
     inkscape:groupmode="layer" /><g
     inkscape:groupmode="layer"
     id="layer6"
     inkscape:label="Battery"><g
       style="display:inline;enable-background:new"
       id="g905"
       transform="translate(6.5896211e-6,10.253097)"><g
         transform="matrix(0,0.44752455,-0.57518384,0,155.6305,-1.4822794)"
         id="g918"
         style="display:inline;enable-background:new" /></g></g><g
     inkscape:groupmode="layer"
     id="layer10"
     inkscape:label="Colors" /><g
     inkscape:groupmode="layer"
     id="layer5"
     inkscape:label="Flash"
     style="display:inline" /><g
     inkscape:groupmode="layer"
     id="layer8"
     inkscape:label="Colors 2" /></svg>
