<?xml version="1.0" encoding="UTF-8" standalone="no"?>
<svg
   width="24"
   height="24"
   version="1.1"
   id="svg68093"
   sodipodi:docname="nextcloud-icon.svg"
   xml:space="preserve"
   inkscape:version="1.2.2 (b0a8486541, 2022-12-01)"
   inkscape:export-filename="nextcloud.png"
   inkscape:export-xdpi="512"
   inkscape:export-ydpi="512"
   xmlns:inkscape="http://www.inkscape.org/namespaces/inkscape"
   xmlns:sodipodi="http://sodipodi.sourceforge.net/DTD/sodipodi-0.dtd"
   xmlns="http://www.w3.org/2000/svg"
   xmlns:svg="http://www.w3.org/2000/svg"><defs
     id="defs68097"><linearGradient
       id="paint0_linear_3_191"
       x1="12"
       y1="1"
       x2="12"
       y2="12"
       gradientUnits="userSpaceOnUse"
       gradientTransform="translate(-1.2792365e-5,1.4268859e-5)"><stop
         stop-color="#7DB9FF"
         id="stop6" /><stop
         offset="1"
         stop-color="#197CF1"
         id="stop8"
         style="stop-color:#0082c9;stop-opacity:1;" /></linearGradient><clipPath
       clipPathUnits="userSpaceOnUse"
       id="clipPath8812"><circle
         id="circle8814"
         cx="95.669289"
         cy="95.669296"
         r="79.724197"
         style="fill:#00080d;fill-opacity:1;stroke-width:1" /></clipPath></defs><sodipodi:namedview
     id="namedview68095"
     pagecolor="#ffffff"
     bordercolor="#000000"
     borderopacity="0.25"
     inkscape:showpageshadow="2"
     inkscape:pageopacity="0.0"
     inkscape:pagecheckerboard="0"
     inkscape:deskcolor="#d1d1d1"
     showgrid="false"
     inkscape:zoom="19.312854"
     inkscape:cx="-6.6277103"
     inkscape:cy="13.695542"
     inkscape:window-width="2560"
     inkscape:window-height="1000"
     inkscape:window-x="1680"
     inkscape:window-y="0"
     inkscape:window-maximized="1"
     inkscape:current-layer="svg68093" /><path
     fill-rule="evenodd"
     clip-rule="evenodd"
     d="m 9.5960272,1.1136043 c 0.11984,0.0013 0.23439,-0.01399 0.34365,-0.0458 1.4358098,-0.09405 2.8714098,-0.09024 4.3070098,0.01145 1.3017,0.10142 2.5618,0.38384 3.7802,0.84726 2.0256,0.83394 3.4117,2.2804 4.1581,4.33936 0.4269,1.23963 0.6789,2.51435 0.7561,3.8241397 0.1067,1.6447 0.0685,3.2858 -0.1146,4.9233 -0.137,1.1509 -0.4349,2.2577 -0.8935,3.3203 -0.8506,1.8425 -2.229,3.1134 -4.1352,3.8127 -1.5447,0.5219 -3.1331,0.7967 -4.7653,0.8243 -1.8359,0.0955 -3.6533698,-0.0419 -5.4525298,-0.4121 -3.31158,-0.7377 -5.35438,-2.7567 -6.12839,-6.0568 -0.32847,-1.4856 -0.47738099,-2.9893 -0.44675,-4.5111 -0.03665,-1.6182 0.13517,-3.2135097 0.51548,-4.7858897 0.8114,-3.08563 2.77019,-4.9977 5.87638,-5.73619 0.72379,-0.17695 1.45691,-0.29526 2.19935,-0.35493 z"
     fill="url(#paint0_linear_3_191)"
     id="path2"
     style="fill:url(#paint0_linear_3_191)" /><path
     inkscape:connector-curvature="0"
     id="path1052"
     d="m 12.012194,8.3580258 c -1.658449,0 -3.064121,1.1243189 -3.499786,2.6476442 C 8.13377,10.197675 7.313248,9.6316068 6.36815,9.6316068 5.068415,9.6316068 4,10.700023 4,11.999756 c 0,1.299732 1.068415,2.368636 2.36815,2.368636 0.945098,0 1.76562,-0.566415 2.144258,-1.374551 0.435665,1.523441 1.841337,2.648133 3.499786,2.648133 1.646183,0 3.044689,-1.10773 3.491496,-2.613987 0.385633,0.78979 1.195999,1.340405 2.127674,1.340405 1.299735,0 2.368636,-1.068904 2.368636,-2.368636 0,-1.299733 -1.068901,-2.3681492 -2.368636,-2.3681492 -0.931675,0 -1.742041,0.5502702 -2.127674,1.3399182 C 15.056883,9.4653854 13.658377,8.3580258 12.012194,8.3580258 Z m 0,1.3901594 c 1.251942,0 2.252059,0.9996338 2.252059,2.2515708 0,1.251936 -1.000117,2.252058 -2.252059,2.252058 -1.251934,0 -2.251567,-1.000122 -2.251567,-2.252058 0,-1.251937 0.999633,-2.2515706 2.251567,-2.2515708 z M 6.36815,11.021766 c 0.548501,0 0.978476,0.429486 0.978476,0.97799 0,0.548503 -0.429975,0.978476 -0.978476,0.978476 -0.548504,0 -0.977993,-0.429973 -0.977993,-0.978476 0,-0.548504 0.429489,-0.97799 0.977993,-0.97799 z m 11.263214,0 c 0.548508,0 0.978478,0.429486 0.978478,0.97799 0,0.548503 -0.429973,0.978476 -0.978478,0.978476 -0.548499,0 -0.977988,-0.429973 -0.977988,-0.978476 0,-0.548504 0.429491,-0.97799 0.977988,-0.97799 z"
     style="color:#000000;font-style:normal;font-variant:normal;font-weight:normal;font-stretch:normal;font-size:medium;line-height:normal;font-family:sans-serif;text-indent:0;text-align:start;text-decoration:none;text-decoration-line:none;text-decoration-style:solid;text-decoration-color:#000000;letter-spacing:normal;word-spacing:normal;text-transform:none;writing-mode:lr-tb;direction:ltr;baseline-shift:baseline;text-anchor:start;white-space:normal;clip-rule:nonzero;display:inline;overflow:visible;visibility:visible;isolation:auto;mix-blend-mode:normal;color-interpolation:sRGB;color-interpolation-filters:linearRGB;solid-color:#000000;solid-opacity:1;fill:#ffffff;fill-opacity:1;fill-rule:nonzero;stroke:none;stroke-width:0.781919;stroke-linecap:butt;stroke-linejoin:miter;stroke-miterlimit:10;stroke-dasharray:none;stroke-dashoffset:0;stroke-opacity:1;color-rendering:auto;image-rendering:auto;shape-rendering:auto;text-rendering:auto;enable-background:accumulate"
     inkscape:export-filename="Nextcloud Hub logo variants.png"
     inkscape:export-xdpi="300"
     inkscape:export-ydpi="300" /></svg>
