<svg xmlns="http://www.w3.org/2000/svg" width="24" height="24" viewBox="0 0 6.35 6.35"><path d="M3.175.265C.529.265.265 1.587.265 3.175c0 2.117.793 2.91 2.91 2.91s2.91-.793 2.91-2.91c0-1.588-.264-2.91-2.91-2.91z" style="font-variation-settings:normal;display:inline;vector-effect:none;fill:#fff;fill-opacity:1;stroke-width:.295341;stroke-linecap:butt;stroke-linejoin:miter;stroke-miterlimit:4;stroke-dasharray:none;stroke-dashoffset:0;stroke-opacity:1;-inkscape-stroke:none;stop-color:#000"/><path d="M3.175.523C.764.523.523 1.728.523 3.175c0 1.929.723 2.652 2.652 2.652 1.929 0 2.652-.723 2.652-2.652 0-1.447-.24-2.652-2.652-2.652z" style="font-variation-settings:normal;display:inline;vector-effect:none;fill:#4985cc;fill-opacity:1;stroke-width:.269163;stroke-linecap:butt;stroke-linejoin:miter;stroke-miterlimit:4;stroke-dasharray:none;stroke-dashoffset:0;stroke-opacity:1;-inkscape-stroke:none;stop-color:#000"/><path d="M.73 2.792a4.571 4.571 0 0 0-.2.008 9.087 9.087 0 0 0-.008.375c0 1.929.724 2.652 2.653 2.652.739 0 1.3-.106 1.713-.346A4.571 4.571 0 0 0 .73 2.791Z" style="font-variation-settings:normal;display:inline;vector-effect:none;fill:#000;fill-opacity:.14902;stroke-width:.269163;stroke-linecap:butt;stroke-linejoin:miter;stroke-miterlimit:4;stroke-dasharray:none;stroke-dashoffset:0;stroke-opacity:1;-inkscape-stroke:none;stop-color:#000"/><g fill="#fff" stroke-width=".627" opacity=".5"><path d="M5.027 5.027v1.852h.53V5.556h1.322v-.53zm5.027 0v.53h1.323v1.322h.529V5.027Zm-5.027 5.027v1.852h1.852v-.53H5.556v-1.322zm6.35 0v1.323h-1.323v.53h1.852v-1.853ZM9.525 6.085l.374.374-1.497 1.497-.374-.374Z" style="stroke-width:.626543" transform="matrix(.42296 0 0 .42296 -.406 -.406)"/><path d="m6.614 6.88 1.588 1.85v1.588H7.144v.529h2.645v-.53H8.731V8.732L10.32 6.88Z" style="stroke-width:.626543" transform="matrix(.42296 0 0 .42296 -.406 -.406)"/></g><path d="M5.8 3.763a4.571 4.571 0 0 0-2.883 2.06c.084.002.17.004.258.004 1.718 0 2.48-.575 2.625-2.064z" style="fill:#000;fill-opacity:.14902;stroke-width:.999999;paint-order:stroke markers fill"/></svg>