<svg xmlns="http://www.w3.org/2000/svg" xmlns:xlink="http://www.w3.org/1999/xlink" xml:space="preserve" id="svg154" width="24" height="24" fill="none" version="1.1"><defs id="defs152"><linearGradient id="linearGradient17380"><stop id="stop17376" offset="0" style="stop-color:#e6e6e6;stop-opacity:.82352942"/><stop id="stop17378" offset="1" style="stop-color:#e5e5e5;stop-opacity:.3882353"/></linearGradient><linearGradient id="linearGradient8792"><stop id="stop8790" offset="0" style="stop-color:#000;stop-opacity:1"/></linearGradient><linearGradient xlink:href="#linearGradient17380" id="linearGradient17382" x1="47.554" x2="48.277" y1="99.08" y2="-19.882" gradientTransform="matrix(.24444 0 0 .24444 -.222 -.222)" gradientUnits="userSpaceOnUse"/><style id="current-color-scheme" type="text/css">.ColorScheme-Text{color:#31363b}.ColorScheme-Background{color:#eff0f1}.ColorScheme-Highlight{color:#3daee9}.ColorScheme-ViewText{color:#31363b}.ColorScheme-ViewBackground{color:#fcfcfc}.ColorScheme-ViewHover{color:#93cee9}.ColorScheme-ViewFocus{color:#3daee9}.ColorScheme-ButtonText{color:#31363b}.ColorScheme-ButtonBackground{color:#eff0f1}.ColorScheme-ButtonHover{color:#93cee9}.ColorScheme-ButtonFocus{color:#3daee9}</style></defs><path id="path6" d="M12 1C2 1 1 6 1 12c0 8 3 11 11 11s11-3 11-11c0-6-1-11-11-11Z" style="font-variation-settings:normal;display:inline;opacity:1;vector-effect:none;fill:url(#linearGradient17382);fill-opacity:1;stroke-width:1.11627;stroke-linecap:butt;stroke-linejoin:miter;stroke-miterlimit:4;stroke-dasharray:none;stroke-dashoffset:0;stroke-opacity:1;-inkscape-stroke:none;stop-color:#000;stop-opacity:1"/><g id="g13060" stroke-width=".274" aria-label="BETA" opacity=".85" style="fill:none" transform="matrix(.2801 0 0 .2801 3.037 3.037)"><path id="path13058" d="M29.241 49.097q.488 0 .74-.214t.251-.633q0-.412-.252-.627-.251-.22-.739-.22H28.1v1.694zm.07 3.499q.621 0 .932-.263.316-.262.316-.793 0-.52-.31-.777-.311-.262-.938-.262H28.1v2.095zm1.918-2.877q.664.193 1.029.712.364.52.364 1.276 0 1.157-.782 1.725-.782.568-2.38.568h-3.423v-8h3.097q1.666 0 2.411.504.75.503.75 1.613 0 .584-.273.996-.273.407-.793.606zM34.401 46h5.567v1.56h-3.504v1.489h3.295v1.56h-3.295v1.832h3.622V54h-5.685zm6.543 0h7.373v1.56h-2.652V54h-2.063v-6.44h-2.658zm12.442 6.543H50.16l-.509 1.458h-2.073l2.963-8H53l2.962 8H53.89Zm-2.711-1.484h2.191l-1.093-3.183z"/></g><g id="g13206" transform="matrix(.246 0 0 .246 -170.352 -48.42)"><path id="path13161" fill="#f09e19" d="m723.306 217.91-1.07.912.076.075h-4.92a2.602 2.602 0 0 0-1.556.523 3.275 3.275 0 0 0-1.27 2.647v37.103l4.874 7.589.898 1.398 2.138 3.32 2.139-3.32.897-1.398 4.875-7.59v-11.44a.987.987 0 0 1 .352-.762l20.98 24.488 3.261 1.854h6.146l-.845-.994h4.868c.187 0 .374-.023.553-.06-.082.022-.037 0 .157-.06a2.811 2.811 0 0 0 1.354-.897l.658.762a4.337 4.337 0 0 0 1.099-2.908v-4.935l-.994-1.152v-40.998c0-1.817-1.294-3.163-2.827-3.163H754.98c-1.533 0-2.826 1.346-2.826 3.163v21.385a.987.987 0 0 1-.352.748l-21.572-25.183c-.374-.434-2.243-.793-2.662-1.107h-2.123z" style="stroke-width:7.47728"/><path id="path13163" fill="#ffb333" d="M754.98 217.91c-2.116 0-3.813 1.854-3.813 4.157v47.085c0 2.303 1.697 4.157 3.813 4.157h10.17c2.115 0 3.812-1.854 3.812-4.157v-47.085c0-2.303-1.697-4.157-3.813-4.157h-8.053zm-37.588 0a3.574 3.574 0 0 0-2.139.71 4.262 4.262 0 0 0-1.682 3.44v37.401l5.937 9.227 2.968 4.621 2.969-4.62 5.937-9.228v-37.394a4.262 4.262 0 0 0-1.683-3.447 3.634 3.634 0 0 0-2.138-.71h-8.053z" style="stroke-width:7.47728"/><path id="path13165" fill="#7d7d7c" d="M751.16 229.784h17.802v5.937H751.16z" style="stroke-width:7.47728"/><path id="path13167" fill="#ff5636" d="M754.98 217.91c-2.116 0-3.813 1.854-3.813 4.157v7.717h17.795v-7.717c0-2.303-1.697-4.157-3.813-4.157z" style="stroke-width:7.47728"/><path id="path13169" fill="#f7ddc1" d="m713.57 259.461 5.093 7.911h7.627l5.084-7.91z" style="stroke-width:7.47728"/><path id="path13171" fill="#775d53" d="m718.663 267.372 3.813 5.937 3.814-5.937z" style="stroke-width:7.47728"/><path id="path13173" d="M751.16 229.784h17.802v1.981H751.16z" opacity=".2" style="stroke-width:7.47728"/></g></svg>