<svg xmlns="http://www.w3.org/2000/svg" width="24" height="24" viewBox="0 0 6.35 6.35"><defs><linearGradient id="b" x1="10.435" x2="8.087" y1="13.075" y2="9.305" gradientTransform="matrix(1.3719 0 0 1.3797 7.423 -2.936)" gradientUnits="userSpaceOnUse"><stop offset="0" stop-color="#975c25"/><stop offset="1" stop-color="#975c25" stop-opacity="0"/></linearGradient><linearGradient id="c" x1="13" x2="10.776" y1="9.86" y2="6.771" gradientTransform="matrix(1.3719 0 0 1.3797 7.423 -2.936)" gradientUnits="userSpaceOnUse"><stop offset="0" stop-color="#5d3417"/><stop offset="1" stop-color="#5d3417" stop-opacity="0"/></linearGradient><radialGradient id="a" cx="0" cy="0" r="1" fx="0" fy="0" gradientTransform="matrix(0 16.5 -16.5 0 9 .75)" gradientUnits="userSpaceOnUse" spreadMethod="pad"><stop offset="0" style="stop-opacity:1;stop-color:#fafafa"/><stop offset="1" style="stop-opacity:1;stop-color:silver"/></radialGradient></defs><path d="M7.195.836c.09 0 .176-.012.258-.035a23.86 23.86 0 0 1 3.231.008 10.26 10.26 0 0 1 2.836.636c1.519.625 2.558 1.711 3.121 3.254.316.93.507 1.887.566 2.867a21.227 21.227 0 0 1-.086 3.696 8.976 8.976 0 0 1-.672 2.488c-.637 1.383-1.672 2.336-3.101 2.859a11.693 11.693 0 0 1-3.575.618 15.998 15.998 0 0 1-4.089-.309c-2.481-.551-4.016-2.066-4.594-4.543a14.244 14.244 0 0 1-.336-3.383c-.027-1.211.101-2.41.387-3.59.609-2.312 2.078-3.746 4.406-4.3A10.27 10.27 0 0 1 7.195.836Z" style="fill:url(#a);fill-rule:evenodd;stroke:none" transform="scale(.35277)"/><g style="stroke-width:3.91402"><path fill="#9b5a2d" d="M22.481 4.123s.5-.453.915-.744c.415-.291 1.023-.624 1.564-.51.541.113.982.834.765 1.254-.217.42-.605-.09-1.18-.06-.573.03-1.42.97-1.42.97z" style="stroke-width:3.91402;paint-order:normal" transform="matrix(.2555 0 0 .2555 -1.692 1.012)"/><path fill="#e6b260" d="M23.114 5.621c1.417 2.276 2.47 5.39-1.54 7.916-4.008 2.525-8.273.41-8.873-.773-.944-1.86-.287-7.035 3.665-9.65 2.6-1.722 5.026-.217 6.443 2.059z" style="stroke-width:3.91402;paint-order:normal" transform="matrix(.2555 0 0 .2555 -1.692 1.012)"/><path fill="url(#b)" d="M19.403 2.426a6.36 6.36 0 0 1 1.611 1.729c1.42 2.275 2.06 5.785-1.95 8.31a7.541 7.541 0 0 1-5.683 1.01c1.48 1.091 4.921 2.124 8.195.062 4.01-2.526 3.37-6.034 1.952-8.31-.886-1.422-2.444-2.563-4.123-2.8z" opacity=".5" style="fill:url(#b);stroke-width:3.91402;paint-order:stroke markers fill" transform="matrix(.2555 0 0 .2555 -1.692 1.012)"/><path fill="#a46941" d="M23.527 5.227c1.627 2.448 1.67 5.603.161 7.295-.148.166-.792.172-.766-.08.028-.276.286-.735.151-1.189-.253-.857-.426-1.22-.966-2.106-.463-.759-1.206-1.965-1.64-2.547-.67-.9-1.783-2.164-3.01-3.212-.38-.324-.81-.166-1.093-.322-.22-.122-.157-.4.08-.488 2.913-1.102 5.6.416 7.083 2.649z" style="stroke-width:3.91402;paint-order:normal" transform="matrix(.2555 0 0 .2555 -1.692 1.012)"/><path fill="url(#c)" d="M23.664 5.45c.074 1.32-.505 3.197-1.754 3.378l.198.32c.54.884.713 1.248.966 2.105.134.454-.123.913-.15 1.188-.027.253.617.247.765.082 1.463-1.642 1.462-4.66-.025-7.074z" opacity=".75" style="fill:url(#c);stroke-width:3.91402;paint-order:stroke markers fill" transform="matrix(.2555 0 0 .2555 -1.692 1.012)"/></g></svg>