<svg xmlns="http://www.w3.org/2000/svg" xml:space="preserve" width="24" height="24" viewBox="0 0 6.35 6.35"><defs><radialGradient id="a" cx="0" cy="0" r="1" gradientTransform="rotate(90 1.455 1.72) scale(5.82072)" gradientUnits="userSpaceOnUse"><stop stop-color="#555"/><stop offset="1" stop-color="#222"/></radialGradient></defs><path fill="url(#a)" fill-rule="evenodd" d="M2.539.295a.312.312 0 0 0 .09-.012c.38-.025.76-.024 1.14.003.345.026.678.101 1 .224.536.22.903.603 1.1 1.148.114.328.18.665.2 1.012.029.435.019.869-.03 1.302a3.143 3.143 0 0 1-.236.879 1.87 1.87 0 0 1-1.094 1.008c-.409.139-.829.211-1.26.219a5.668 5.668 0 0 1-1.444-.11C1.13 5.773.59 5.24.385 4.366a5.04 5.04 0 0 1-.12-1.194c-.009-.428.037-.85.137-1.266C.617 1.09 1.135.584 1.957.39c.191-.047.385-.079.582-.094z" clip-rule="evenodd" style="fill:url(#a);stroke-width:.264578"/><path d="M3.2.265c-.065 0-.13 0-.195.002v1.589l.052-.001c1.146-.008 1.89.99 1.89.99s-.88 1.094-1.799 1.094a1.324 1.324 0 0 1-.143-.007v.288c.033.003.068.003.103.003.854 0 1.473-.445 2.07-.973.1.08.505.278.588.365-.568.487-1.893.88-2.645.88a1.771 1.771 0 0 1-.116-.004v1.592c.147.004.295.002.443-.005.432-.008.852-.08 1.261-.218a1.87 1.87 0 0 0 1.094-1.01c.121-.28.2-.573.236-.878.049-.433.059-.867.03-1.302a3.775 3.775 0 0 0-.2-1.012A1.886 1.886 0 0 0 4.77.51a3.58 3.58 0 0 0-1-.224C3.58.272 3.39.266 3.2.265ZM3.005 4.22c-.032-.002-.055-.005-.085-.009-1.045-.135-1.402-1.314-1.402-1.314s.467-.707 1.402-.78c.03-.001.054-.004.085-.004v.314c.025-.002.06-.003.085-.003.542 0 .864.431.864.431l-.441.38c-.177-.302-.258-.453-.508-.51v-.298l-.085.007c-.63.07-1.01.5-1.01.5s.22.84 1.01.984c.03.006.053.01.085.014v-.238c-.032-.006-.056-.015-.085-.025-.445-.153-.59-.686-.59-.686s.258-.316.589-.276c.035.005.057.011.086.018v.969c0 .05.11.016.165.016.643 0 1.243-.853 1.243-.853s-.563-.77-1.408-.745v-.255l-.085.004c-1.036.085-1.932.983-1.932.983s.508 1.503 1.932 1.64c.03.003.053.005.085.006z" style="fill:#76b900;fill-opacity:1;stroke-width:.264578"/></svg>