<svg xmlns="http://www.w3.org/2000/svg" width="24" height="24" fill="none"><path fill="url(#a)" fill-rule="evenodd" d="M9.596 1.114c.12 0 .234-.014.344-.046a31.626 31.626 0 0 1 4.307.011c1.302.102 2.561.384 3.78.848 2.025.833 3.412 2.28 4.158 4.339.427 1.24.679 2.514.756 3.824a27.94 27.94 0 0 1-.114 4.923 11.88 11.88 0 0 1-.894 3.32c-.85 1.843-2.229 3.114-4.135 3.813a15.625 15.625 0 0 1-4.765.825 21.423 21.423 0 0 1-5.453-.413c-3.312-.737-5.354-2.756-6.128-6.056a19.047 19.047 0 0 1-.447-4.511 18.49 18.49 0 0 1 .515-4.786c.812-3.086 2.77-4.998 5.877-5.736a13.954 13.954 0 0 1 2.2-.355Z" clip-rule="evenodd"/><path fill="#F9F9F9" fill-rule="evenodd" d="M8.983 3.502C7.325 4.33 5.94 5.882 5.9 7.728c-.032.96.178 1.969.673 2.795 1.731.027 3.515.967 4.124 2.565.888 2.115-.16 4.92-2.5 5.698-1.2.41-2.537.228-3.697-.215 1.587.948 3.698 1.31 5.405.416a5.818 5.818 0 0 0 2.213-1.931c-.841-1.442-.875-3.375.28-4.677 1.48-1.79 4.561-2.34 6.444-.807.977.782 1.476 1.971 1.653 3.145.072-1.777-.652-3.693-2.315-4.647a6.392 6.392 0 0 0-2.87-.868c-.894 1.413-2.642 2.408-4.407 2.112-2.372-.317-4.42-2.571-3.961-4.886.223-1.192 1.06-2.196 2.042-2.928l-.001.002Z" clip-rule="evenodd"/><defs><radialGradient id="a" cx="0" cy="0" r="1" gradientTransform="matrix(0 22 -22 0 12 1)" gradientUnits="userSpaceOnUse"><stop stop-color="#333"/><stop offset="1"/></radialGradient></defs></svg>