<svg xmlns="http://www.w3.org/2000/svg" xml:space="preserve" id="svg5" width="24" height="24" version="1.1" viewBox="0 0 6.35 6.35"><defs id="defs2"><radialGradient id="radialGradient868-3" cx="0" cy="0" r="1" fx="0" fy="0" gradientTransform="matrix(0 16.5 -16.5 0 9 .75)" gradientUnits="userSpaceOnUse" spreadMethod="pad"><stop id="stop864-6" offset="0" style="stop-opacity:1;stop-color:#fafafa"/><stop id="stop866-7" offset="1" style="stop-opacity:1;stop-color:silver"/></radialGradient><style id="current-color-scheme" type="text/css">.ColorScheme-Text{color:#31363b}.ColorScheme-Background{color:#eff0f1}.ColorScheme-Highlight{color:#3daee9}.ColorScheme-ViewText{color:#31363b}.ColorScheme-ViewBackground{color:#fcfcfc}.ColorScheme-ViewHover{color:#93cee9}.ColorScheme-ViewFocus{color:#3daee9}.ColorScheme-ButtonText{color:#31363b}.ColorScheme-ButtonBackground{color:#eff0f1}.ColorScheme-ButtonHover{color:#93cee9}.ColorScheme-ButtonFocus{color:#3daee9}</style></defs><g id="layer1" transform="translate(-41 -84.5)"><g id="g854" transform="matrix(.35278 0 0 .35278 41 84.5)"><g id="g856"><g id="g862"><path id="path870" d="M7.195.836c.09 0 .176-.012.258-.035a23.86 23.86 0 0 1 3.231.008 10.26 10.26 0 0 1 2.836.636c1.519.625 2.558 1.711 3.121 3.254.316.93.507 1.887.566 2.867a21.227 21.227 0 0 1-.086 3.696 8.976 8.976 0 0 1-.672 2.488c-.637 1.383-1.672 2.336-3.101 2.859a11.693 11.693 0 0 1-3.575.618 15.998 15.998 0 0 1-4.089-.309c-2.481-.551-4.016-2.066-4.594-4.543a14.244 14.244 0 0 1-.336-3.383c-.027-1.211.101-2.41.387-3.59.609-2.312 2.078-3.746 4.406-4.3A10.27 10.27 0 0 1 7.195.836Z" style="fill:url(#radialGradient868-3);fill-rule:evenodd;stroke:none"/></g></g></g><g id="g7136" style="stroke-width:24.1237" transform="matrix(.11126 0 0 .11126 40.722 84.115)"><path id="path7103" fill="#2971d5" d="M31.811 14.94A17.06 17.06 0 0 0 14.751 32a17.06 17.06 0 0 0 17.06 17.06A17.06 17.06 0 0 0 48.871 32a17.06 17.06 0 0 0-17.06-17.06Zm1.939 3.877a12.795 12.795 0 0 1 12.795 12.795A12.795 12.795 0 0 1 33.75 44.407a12.795 12.795 0 0 1-12.795-12.795A12.795 12.795 0 0 1 33.75 18.817Z" style="stroke-width:24.1237"/><rect id="rect7105" width="12.407" height="12.407" x="13.201" y="25.796" fill="#fc924d" rx="2.481" ry="2.481" style="stroke-width:24.1237"/><rect id="rect7107" width="7.754" height="7.754" x="41.116" y="35.102" fill="#fc924d" rx="1.551" ry="1.551" style="stroke-width:24.1237"/><rect id="rect7109" width="6.204" height="6.204" x="38.015" y="16.491" fill="#fc924d" rx="1.241" ry="1.241" style="stroke-width:24.1237"/></g></g></svg>