<svg xmlns="http://www.w3.org/2000/svg" width="24" height="24" fill="none"><g style="stroke-width:1.09091"><path fill="url(#a)" fill-rule="evenodd" d="M9.377.124c.131.001.256-.015.375-.05a34.502 34.502 0 0 1 4.699.012c1.42.111 2.795.42 4.124.925 2.21.91 3.722 2.487 4.536 4.734.466 1.352.74 2.742.825 4.171a30.475 30.475 0 0 1-.125 5.371 12.962 12.962 0 0 1-.975 3.622c-.928 2.01-2.432 3.397-4.511 4.16-1.685.57-3.418.869-5.199.899a23.372 23.372 0 0 1-5.948-.45c-3.612-.804-5.841-3.007-6.685-6.607a20.778 20.778 0 0 1-.488-4.921c-.04-1.766.148-3.506.563-5.221C1.453 3.403 3.59 1.317 6.978.51c.79-.193 1.59-.322 2.4-.387Z" clip-rule="evenodd" style="fill:url(#a);stroke-width:1.09091" transform="matrix(.91667 0 0 .91667 1 1)"/><path fill="#fafafa" fill-rule="evenodd" d="M.158 9c.094-.748.23-1.492.41-2.231C.966 5.253 1.618 3.997 2.525 3h18.957c.7.765 1.243 1.68 1.629 2.745.366 1.061.613 2.146.744 3.255Z" clip-rule="evenodd" opacity=".9" style="stroke-width:1.19008" transform="matrix(.91667 0 0 .91667 1 1)"/><path fill="#fff" d="m9.758 20 2.855-5.653v-.043H9.261v-1.577h5.398v1.577L11.788 20Z" style="stroke-width:1.19008" transform="matrix(.91667 0 0 .91667 1 1)"/><path fill="#586cd8" d="M7.99 4.74h.849l.583 1.422h.03l.582-1.421h.848V7.25h-.666V5.8h-.02l-.559 1.43h-.402l-.558-1.44h-.02v1.46h-.666Zm3.867 2.51h-.735l.828-2.51h.93l.83 2.51h-.736l-.549-1.818h-.02Zm-.138-.99h1.382v.51H11.72zm1.873-1.52h.76l.49 1.02h.019l.49-1.02h.76l-.922 1.721v.789h-.676v-.789Z" style="stroke-width:1.19008" transform="matrix(.91667 0 0 .91667 1 1)"/></g><defs><radialGradient id="a" cx="0" cy="0" r="1" gradientTransform="matrix(0 24 -24 0 12 0)" gradientUnits="userSpaceOnUse"><stop stop-color="#7286F2"/><stop offset="1" stop-color="#4A5ECA"/></radialGradient></defs></svg>