<svg xmlns="http://www.w3.org/2000/svg" xml:space="preserve" width="24" height="24" viewBox="0 0 6.35 6.35"><defs><radialGradient id="a" cx="0" cy="0" r="1" fx="0" fy="0" gradientTransform="rotate(90 1.506 1.69) scale(5.82072)" gradientUnits="userSpaceOnUse" spreadMethod="pad"><stop offset="0" style="stop-color:#629362;stop-opacity:1"/><stop offset="1" style="stop-color:#004c00;stop-opacity:1"/></radialGradient></defs><path d="M2.56.214a.335.335 0 0 0 .091-.012c.38-.025.76-.024 1.14.003a3.62 3.62 0 0 1 1 .224c.536.22.903.604 1.101 1.148.112.328.18.666.2 1.011.028.436.018.87-.03 1.304a3.166 3.166 0 0 1-.237.878c-.225.488-.59.824-1.094 1.009a4.125 4.125 0 0 1-1.262.218 5.644 5.644 0 0 1-1.442-.11C1.152 5.694.61 5.16.407 4.286a5.025 5.025 0 0 1-.12-1.193c-.009-.428.036-.85.137-1.267C.64 1.01 1.157.504 1.98.308 2.17.261 2.365.23 2.56.214Z" style="fill:url(#a);fill-rule:evenodd;stroke:none;stroke-width:.352683;stroke-dasharray:none"/><g fill-rule="evenodd"><g transform="translate(.755 .659) scale(.07632)"><path fill="#fbc02d" d="M7.973 5.91C6.88 5.91 6 6.79 6 7.883v9.726l3.9 2.602-3.9 2.6v33.126c0 1.093.88 1.973 1.973 1.973h48.055c1.093 0 1.972-.88 1.972-1.973V7.882c0-1.092-.88-1.972-1.972-1.972Z"/><path fill="#388e3c" d="M8 6c-1.108 0-2 .88-2 1.973v8.285l3.9 2.562L6 21.385v32.643C6 55.12 6.892 56 8 56h48c1.108 0 2-.88 2-1.973V7.973A1.982 1.982 0 0 0 56 6Z" style="paint-order:normal"/><path fill="#e6ea97" d="m57 53-2 2h2z"/><rect width="40" height="40" x="12" y="11" fill="#263238" ry="2"/><path fill="#fff" d="M14 13v36h36V13Z" opacity=".15"/><path fill="#bcbcbc" stroke-width=".769" d="M18 38.96h10v1H18Zm12 0h8v1h-8zm-12 1.95h9v1h-9zm11 0h4v1h-4zm-11 2.08h5v1h-5zm7 0h10v1H25Zm-7-5.98h7v1h-7zm9 0h9v1h-9z"/><path fill="#959595" stroke-width=".769" d="M18 16.03h13v1H18Zm15 0h6v1h-6zm-15 1.95h9v1h-9zm11 0h5v1h-5z"/></g><g fill="#dee372" transform="translate(.755 .659) scale(.07632)"><rect width="1" height="1" x="12" y="52" opacity=".6" ry="0" style="paint-order:normal"/><rect width="1" height="1" x="14" y="52" opacity=".6" ry="0" style="paint-order:normal"/><rect width="1" height="1" x="16" y="52" opacity=".6" ry="0" style="paint-order:normal"/><rect width="1" height="1" x="18" y="52" opacity=".6" ry="0" style="paint-order:normal"/><rect width="1" height="1" x="20" y="52" opacity=".6" ry="0" style="paint-order:normal"/><rect width="1" height="1" x="22" y="52" opacity=".6" ry="0" style="paint-order:normal"/><rect width="1" height="1" x="24" y="52" opacity=".6" ry="0" style="paint-order:normal"/><rect width="1" height="1" x="26" y="52" opacity=".6" ry="0" style="paint-order:normal"/><rect width="1" height="1" x="28" y="52" opacity=".6" ry="0" style="paint-order:normal"/><rect width="1" height="1" x="30" y="52" opacity=".6" ry="0" style="paint-order:normal"/><rect width="1" height="1" x="13" y="53" opacity=".6" ry="0" style="paint-order:normal"/><rect width="1" height="1" x="15" y="53" opacity=".6" ry="0" style="paint-order:normal"/><rect width="1" height="1" x="17" y="53" opacity=".6" ry="0" style="paint-order:normal"/><rect width="1" height="1" x="19" y="53" opacity=".6" ry="0" style="paint-order:normal"/><rect width="1" height="1" x="21" y="53" opacity=".6" ry="0" style="paint-order:normal"/><rect width="1" height="1" x="23" y="53" opacity=".6" ry="0" style="paint-order:normal"/><rect width="1" height="1" x="25" y="53" opacity=".6" ry="0" style="paint-order:normal"/><rect width="1" height="1" x="27" y="53" opacity=".6" ry="0" style="paint-order:normal"/><rect width="1" height="1" x="29" y="53" opacity=".6" ry="0" style="paint-order:normal"/><rect width="1" height="1" x="31" y="53" opacity=".6" ry="0" style="paint-order:normal"/></g><g fill="#dee372" transform="translate(2.357 .659) scale(.07632)"><rect width="1" height="1" x="26" y="52" opacity=".6" ry="0" style="paint-order:normal"/><rect width="1" height="1" x="28" y="52" opacity=".6" ry="0" style="paint-order:normal"/><rect width="1" height="1" x="30" y="52" opacity=".6" ry="0" style="paint-order:normal"/><rect width="1" height="1" x="25" y="53" opacity=".6" ry="0" style="paint-order:normal"/><rect width="1" height="1" x="27" y="53" opacity=".6" ry="0" style="paint-order:normal"/><rect width="1" height="1" x="29" y="53" opacity=".6" ry="0" style="paint-order:normal"/><rect width="1" height="1" x="31" y="53" opacity=".6" ry="0" style="paint-order:normal"/></g><g fill="#dee372" transform="rotate(90 4.093 4.904) scale(.07632)"><rect width="1" height="1" x="12" y="52" opacity=".6" ry="0" style="paint-order:normal"/><rect width="1" height="1" x="14" y="52" opacity=".6" ry="0" style="paint-order:normal"/><rect width="1" height="1" x="16" y="52" opacity=".6" ry="0" style="paint-order:normal"/><rect width="1" height="1" x="18" y="52" opacity=".6" ry="0" style="paint-order:normal"/><rect width="1" height="1" x="20" y="52" opacity=".6" ry="0" style="paint-order:normal"/><rect width="1" height="1" x="22" y="52" opacity=".6" ry="0" style="paint-order:normal"/><rect width="1" height="1" x="24" y="52" opacity=".6" ry="0" style="paint-order:normal"/><rect width="1" height="1" x="26" y="52" opacity=".6" ry="0" style="paint-order:normal"/><rect width="1" height="1" x="28" y="52" opacity=".6" ry="0" style="paint-order:normal"/><rect width="1" height="1" x="30" y="52" opacity=".6" ry="0" style="paint-order:normal"/><rect width="1" height="1" x="13" y="53" opacity=".6" ry="0" style="paint-order:normal"/><rect width="1" height="1" x="15" y="53" opacity=".6" ry="0" style="paint-order:normal"/><rect width="1" height="1" x="17" y="53" opacity=".6" ry="0" style="paint-order:normal"/><rect width="1" height="1" x="19" y="53" opacity=".6" ry="0" style="paint-order:normal"/><rect width="1" height="1" x="21" y="53" opacity=".6" ry="0" style="paint-order:normal"/><rect width="1" height="1" x="23" y="53" opacity=".6" ry="0" style="paint-order:normal"/><rect width="1" height="1" x="25" y="53" opacity=".6" ry="0" style="paint-order:normal"/><rect width="1" height="1" x="27" y="53" opacity=".6" ry="0" style="paint-order:normal"/><rect width="1" height="1" x="29" y="53" opacity=".6" ry="0" style="paint-order:normal"/><rect width="1" height="1" x="31" y="53" opacity=".6" ry="0" style="paint-order:normal"/></g><g transform="translate(.755 .659) scale(.07632)"><circle cx="9.5" cy="9.5" r="1.5" fill="#fbc02d" style="paint-order:normal"/><circle cx="9.5" cy="9.5" r=".5" fill="#263238" style="paint-order:normal"/><circle cx="54.5" cy="9.5" r="1.5" fill="#fbc02d" style="paint-order:normal"/><circle cx="54.5" cy="9.5" r=".5" fill="#263238" style="paint-order:normal"/><circle cx="9.5" cy="52.5" r="1.5" fill="#fbc02d" style="paint-order:normal"/><circle cx="9.5" cy="52.5" r=".5" fill="#263238" style="paint-order:normal"/></g></g></svg>