<?xml version="1.0" encoding="UTF-8" standalone="no"?>
<svg
   width="24"
   height="24"
   fill="none"
   version="1.1"
   id="svg3"
   sodipodi:docname="okular.svg"
   inkscape:version="1.3.2 (091e20ef0f, 2023-11-25, custom)"
   inkscape:export-filename="okular.pdf"
   inkscape:export-xdpi="96"
   inkscape:export-ydpi="96"
   xml:space="preserve"
   xmlns:inkscape="http://www.inkscape.org/namespaces/inkscape"
   xmlns:sodipodi="http://sodipodi.sourceforge.net/DTD/sodipodi-0.dtd"
   xmlns="http://www.w3.org/2000/svg"
   xmlns:svg="http://www.w3.org/2000/svg"><sodipodi:namedview
     id="namedview3"
     pagecolor="#ffffff"
     bordercolor="#000000"
     borderopacity="0.25"
     inkscape:showpageshadow="2"
     inkscape:pageopacity="0.0"
     inkscape:pagecheckerboard="0"
     inkscape:deskcolor="#d1d1d1"
     inkscape:zoom="8"
     inkscape:cx="34.0625"
     inkscape:cy="15"
     inkscape:window-width="1920"
     inkscape:window-height="1044"
     inkscape:window-x="6000"
     inkscape:window-y="360"
     inkscape:window-maximized="1"
     inkscape:current-layer="svg3"><inkscape:page
       x="0"
       y="0"
       width="24"
       height="24"
       id="page1"
       margin="0"
       bleed="0" /></sodipodi:namedview><defs
     id="defs3"><radialGradient
       id="a"
       cx="0"
       cy="0"
       r="1"
       gradientTransform="matrix(0,11,-11,0,12,1)"
       gradientUnits="userSpaceOnUse"><stop
         stop-color="#F08C85"
         id="stop2"
         offset="0"
         style="stop-color:#424549;stop-opacity:1;" /><stop
         offset="1"
         stop-color="#E84F43"
         id="stop3"
         style="stop-color:#1f2121;stop-opacity:1;" /></radialGradient><radialGradient
       fx="0"
       fy="0"
       cx="0"
       cy="0"
       r="1"
       gradientUnits="userSpaceOnUse"
       gradientTransform="matrix(0,8.25,-8.25,0,9,0.75)"
       spreadMethod="pad"
       id="radialGradient2"><stop
         style="stop-opacity:1;stop-color:#424549"
         offset="0"
         id="stop1" /><stop
         style="stop-opacity:1;stop-color:#1f2121"
         offset="1"
         id="stop2-3" /></radialGradient><linearGradient
       x1="-34.006588"
       y1="1.412377"
       x2="-33.932251"
       y2="9.1074076"
       gradientUnits="userSpaceOnUse"
       gradientTransform="translate(81.971062,50.023726)"
       spreadMethod="pad"
       id="linearGradient4"><stop
         style="stop-opacity:1;stop-color:#db2a40"
         offset="0"
         id="stop3-6" /><stop
         style="stop-opacity:1;stop-color:#c71525"
         offset="1"
         id="stop4" /></linearGradient><linearGradient
       x1="-13.868888"
       y1="8.189847"
       x2="-13.868888"
       y2="-0.017561"
       gradientUnits="userSpaceOnUse"
       gradientTransform="translate(62.028109,49.99979)"
       spreadMethod="pad"
       id="linearGradient8"><stop
         style="stop-opacity:1;stop-color:#d52a3c"
         offset="0"
         id="stop7" /><stop
         style="stop-opacity:0;stop-color:#d52a3c"
         offset="1"
         id="stop8" /></linearGradient><linearGradient
       x1="-20.621368"
       y1="3.4880829"
       x2="-20.621368"
       y2="22.599987"
       gradientUnits="userSpaceOnUse"
       gradientTransform="translate(81.999366,49.99979)"
       spreadMethod="pad"
       id="linearGradient10-7"><stop
         style="stop-opacity:1;stop-color:#20bbfa"
         offset="0"
         id="stop9-5" /><stop
         style="stop-opacity:1;stop-color:#197df1"
         offset="1"
         id="stop10-3" /></linearGradient><radialGradient
       fx="0"
       fy="0"
       cx="0"
       cy="0"
       r="1"
       gradientUnits="userSpaceOnUse"
       gradientTransform="matrix(0,11,-11,0,53.999367,50.99979)"
       spreadMethod="pad"
       id="radialGradient2-6"><stop
         style="stop-opacity:1;stop-color:#424549"
         offset="0"
         id="stop1-2" /><stop
         style="stop-opacity:1;stop-color:#1f2121"
         offset="1"
         id="stop2-3-9" /></radialGradient></defs><g
     id="g1"
     inkscape:groupmode="layer"
     inkscape:label="1"
     transform="translate(34)" /><g
     id="g2"
     transform="translate(-41.999819,-49.999824)"><path
       id="path2"
       d="m 51.5927,51.114457 c 0.12,0 0.234667,-0.016 0.344,-0.04667 1.437333,-0.09467 2.874667,-0.08933 4.308,0.01067 1.301333,0.104 2.561333,0.385333 3.781333,0.848 2.025333,0.833333 3.410667,2.281333 4.161333,4.338666 0.426667,1.24 0.676,2.516 0.754667,3.822667 0.104,1.641333 0.068,3.292 -0.114667,4.922666 -0.134666,1.145334 -0.437333,2.265334 -0.896,3.322667 -0.849333,1.844 -2.229333,3.114666 -4.134666,3.812 -1.537333,0.521333 -3.141333,0.797333 -4.766667,0.824 -1.828,0.09867 -3.656,-0.04267 -5.452,-0.412 C 46.2647,71.822456 44.223367,69.802456 43.4527,66.49979 c -0.328,-1.478667 -0.48,-2.994667 -0.448,-4.510667 -0.036,-1.609333 0.134667,-3.218667 0.516,-4.786667 0.812,-3.082666 2.770667,-4.994666 5.874667,-5.733333 0.724,-0.177333 1.458666,-0.297333 2.197333,-0.354666 z"
       style="fill:url(#radialGradient2-6);fill-rule:evenodd;stroke:none;stroke-width:1.33333" /><path
       id="path4"
       d="m 50.1967,51.322457 c -0.28,0.04667 -0.557333,0.104 -0.828,0.172 -1.396,0.328 -2.552,0.896 -3.484,1.698666 v 7.213333 l 2.156,-1.245333 2.156,1.245333 z"
       style="fill:url(#linearGradient4);stroke:none;stroke-width:1.33333" /><path
       d="m 49.7127,51.41179 c -0.09333,0.01467 -0.192,0.036 -0.286667,0.05733 -1.134666,0.270667 -2.114666,0.697334 -2.942666,1.28 v 6.557333 l 1.614667,-1.077333 1.614666,1.077333 z"
       style="fill:url(#linearGradient8);stroke:none;stroke-width:1.33333"
       opacity="1"
       id="path8" /><path
       id="path10-5"
       d="m 62.551366,53.60379 c -0.03067,0.02133 -0.06267,0.04133 -0.09333,0.06267 -0.994666,0.702666 -1.932,1.593333 -2.822666,2.666666 -0.865334,1.046667 -1.646667,2.24 -2.354667,3.573333 -0.682667,1.306667 -1.188,2.666667 -1.532,4.077334 -0.364,1.412 -0.52,2.709333 -0.468,3.885333 0.07867,1.146667 0.328,2.114667 0.745333,2.901333 0.416,0.786667 0.994667,1.344 1.722667,1.688 0.125333,0.05733 0.256,0.104 0.386667,0.145333 0.561333,-0.12 1.118666,-0.276 1.661333,-0.458666 1.905333,-0.697334 3.285333,-1.968 4.134666,-3.812 0.01067,-0.02133 0.016,-0.04133 0.02133,-0.05733 -0.104,0.07333 -0.208,0.150666 -0.317334,0.218666 -0.781333,0.5 -1.542666,0.786667 -2.275999,0.865334 -0.756,0.07733 -1.396,-0.05333 -1.922667,-0.390667 -0.52,-0.344 -0.926667,-0.854667 -1.213333,-1.532 -0.26,-0.682667 -0.396,-1.489333 -0.396,-2.432 0,-0.969333 0.156,-2.016 0.474666,-3.141333 0.312,-1.124 0.754667,-2.197334 1.333334,-3.213334 0.572,-1.046666 1.202666,-1.962666 1.88,-2.749333 0.535999,-0.614666 1.082666,-1.136 1.650666,-1.568 -0.188,-0.26 -0.390667,-0.505333 -0.614667,-0.729333 z"
       style="fill:url(#linearGradient10-7);stroke:none;stroke-width:1.33333" /></g></svg>
