<svg xmlns="http://www.w3.org/2000/svg" width="24" height="24" fill="none"><defs><radialGradient id="a" cx="0" cy="0" r="1" gradientTransform="matrix(0 22 -22 0 12 1)" gradientUnits="userSpaceOnUse"><stop offset="0" stop-color="#8FC8FF" style="stop-color:#f6f6f6;stop-opacity:1"/><stop offset="1" stop-color="#0056A8" style="stop-color:#cfcfcf;stop-opacity:1"/></radialGradient></defs><path d="M50 5C9.09 5 5 25.455 5 50c0 32.727 12.273 45 45 45 32.727 0 45-12.273 45-45 0-24.545-4.09-45-45-45Z" style="font-variation-settings:normal;display:inline;opacity:1;vector-effect:none;fill:#4bae4f;fill-opacity:1;stroke-width:4.56656;stroke-linecap:butt;stroke-linejoin:miter;stroke-miterlimit:4;stroke-dasharray:none;stroke-dashoffset:0;stroke-opacity:1;-inkscape-stroke:none;stop-color:#000;stop-opacity:1" transform="matrix(.24444 0 0 .24444 -.222 -.222)"/><path fill="#fff" d="m9.129 8.58 1.664 1.25c-5.278 2.43 8.272 13.538 8.272 13.538s2.639-2.374 6.503-2.624c3.832-3.927 19.784-.938 19.186 2.285-5.363.083-7.061-.601-7.061-.601s.266.305.373 1.352c-.39.324-5.934-.92-7.094-.83-3.3.251-5.525.334-7.892.596 1.628.537 14.601 2.848 18.748 6.857-1.106.427-1.589.252-1.96.388-.324.12-.652.78-1.365.785-.511.001-.337-.453-1.392-.951-6.564.26-8.692-3.745-9.34-4.235-2.897-.693-7.779-2.256-7.779-2.256s4.133 3.298 6.4 5.13c.187.15 3.294.728 7.244 2.655 2.123-1.739 7.846 1.212 6.783 3.912-.947 2.405-7.303-.072-7.07-3.346-1.45-.452-4.13-1.747-5.846-2.366 1.644 1.283 8.105 6.664 9.402 8.186 5.685-.698 14.27.722 19.595 4.133-1.214.32-6.992 1.418-8.15 1.11-2.15-.814-5.356-3.45-5.697-3.744-1.235-.208-4.009-.606-5.072-.727 1.079 1.095 4.647 5.216 5.766 6.95.465-.097 2.831.472 3.486.917 2.429-2.479 6.37 1.871 8.79 3.972-.635 1.29-10.626-.697-9.291-3.591-.714-.095-2.143-.88-2.67-.921.539.704 1.713 1.663 3.262 3.286 1.489-.424 7.102 5.652 7.252 6.981-4.2-1.023-6.275-1.914-6.926-2.673-1.283-1.5-.797-3.652-.675-4.043-1.651-1.478-1.959-1.916-2.5-2.209-.013.014.002.456.028.668 2.713 2 1.403 7.537-.158 7.734-.678.086-2.243-7.811-.289-8.104.043-.159.07-.624.072-.643-1.03-1.122-6.75-7.203-7.121-7.46.185.48.488 1.27.767 2.243 3.377 2.208 3.937 5.739 3.681 9.887-.809-1.416-8.744-7.876-5.273-10.74.024-.44-.107-1.444.185-2.007-1.1-1.1-4.526-4.482-4.834-4.48.382.785.62 1.234.81 2.082 2.612 1.303 1.853 4.67.663 4.742-1.253.074-4.03-3.79-1.418-4.609-.212-.973-.595-2.295-.75-2.87a512.777 512.777 0 0 1-5.738-4.555c1.063 1.768 2.1 4.52 2.62 6.098 3.13 3.546 2.263 9.03 1.946 14.687-3.671-2.726-5.952-12.028-3.615-14.345-.78-2.69-1.959-7.241-1.959-7.241-5.048-3.919-7.841-6.855-7.841-6.855s3.362 4.361 3.746 6.7c2.946.57 5.407 5.701 3.065 6.578-3.423 1.279-7.099-4.153-4.177-6.175 0 0-2.587-4.763-4.588-8.942C6 11.473 6.759 8.87 9.127 8.579Z" style="stroke-width:1.43698" transform="matrix(.28571 0 0 .28571 2.857 2.857)"/></svg>