<svg xmlns="http://www.w3.org/2000/svg" width="24" height="24" viewBox="0 0 6.35 6.35"><defs><radialGradient id="a" cx="0" cy="0" r="1" gradientTransform="rotate(90 1.455 1.72) scale(5.82072)" gradientUnits="userSpaceOnUse"><stop stop-color="#FAFAFA"/><stop offset="1" stop-color="#B0B0B0"/></radialGradient></defs><path fill="url(#a)" fill-rule="evenodd" d="M2.63.283a.312.312 0 0 1-.091.012c-.197.015-.39.047-.582.094-.822.195-1.34.7-1.555 1.517-.1.416-.146.838-.136 1.266-.008.403.031.801.118 1.194.205.873.745 1.407 1.621 1.603.477.097.957.134 1.443.108.432-.007.852-.08 1.26-.218a1.87 1.87 0 0 0 1.095-1.008c.121-.281.2-.574.236-.879.049-.433.059-.867.03-1.302a3.775 3.775 0 0 0-.2-1.012A1.886 1.886 0 0 0 4.77.51a3.581 3.581 0 0 0-1-.224A8.37 8.37 0 0 0 2.63.283z" clip-rule="evenodd" style="fill:url(#a);stroke-width:.264578"/><g transform="translate(.496 -86.16) scale(.30912)"><rect width="8.996" height="8.996" x="2.117" y="282.71" fill="none" stroke="#000" stroke-width=".265" opacity=".15" paint-order="stroke markers fill" rx=".529" ry=".529"/><rect width="8.996" height="8.996" x="2.117" y="282.71" fill="#fff" paint-order="stroke markers fill" rx=".529" ry=".529"/><path fill="#ccc" d="M6.615 290.39c1.537 0 2.615-1.228 2.615-3.192 0-1.963-1.078-3.158-2.615-3.158-1.538 0-2.615 1.195-2.615 3.158 0 1.964 1.077 3.192 2.615 3.192zm0-.677c-1.103 0-1.822-.986-1.822-2.515 0-1.537.719-2.481 1.822-2.481 1.094 0 1.821.944 1.821 2.481 0 1.53-.727 2.515-1.821 2.515z" aria-label="O"/><rect width="8.996" height="8.996" x="6.35" y="286.42" fill="#5596ff" paint-order="stroke markers fill" rx=".529" ry=".529"/><path fill="#fff" d="M8.709 293.98h1.955c1.37 0 2.322-.593 2.322-1.796 0-.836-.518-1.32-1.253-1.462v-.042c.577-.184.902-.719.902-1.329 0-1.077-.86-1.495-2.105-1.495H8.709Zm.777-3.518v-1.996h.944c.952 0 1.445.267 1.445.986 0 .618-.426 1.01-1.479 1.01zm0 2.9v-2.306h1.069c1.07 0 1.67.342 1.67 1.103 0 .827-.617 1.203-1.67 1.203z" aria-label="B"/></g></svg>