<svg xmlns="http://www.w3.org/2000/svg" xmlns:xlink="http://www.w3.org/1999/xlink" xml:space="preserve" id="svg154" width="24" height="24" fill="none" version="1.1"><defs id="defs152"><linearGradient id="linearGradient10349"><stop id="stop10345" offset="0" style="stop-color:#404552;stop-opacity:1"/><stop id="stop10347" offset="1" style="stop-color:#798990;stop-opacity:1"/></linearGradient><linearGradient xlink:href="#linearGradient10349" id="linearGradient10351" x1="44.631" x2="46.676" y1="103.949" y2="-5.227" gradientTransform="matrix(.24444 0 0 .24444 -.222 -.222)" gradientUnits="userSpaceOnUse"/><linearGradient id="linearGradient8792"><stop id="stop8790" offset="0" style="stop-color:#000;stop-opacity:1"/></linearGradient><filter id="a-6-2" width="1.12" height="1.12" x="-.06" y="-.06" color-interpolation-filters="sRGB"><feGaussianBlur id="feGaussianBlur15886-5" stdDeviation=".146"/></filter><style id="current-color-scheme" type="text/css">.ColorScheme-Text{color:#31363b}.ColorScheme-Background{color:#eff0f1}.ColorScheme-Highlight{color:#3daee9}.ColorScheme-ViewText{color:#31363b}.ColorScheme-ViewBackground{color:#fcfcfc}.ColorScheme-ViewHover{color:#93cee9}.ColorScheme-ViewFocus{color:#3daee9}.ColorScheme-ButtonText{color:#31363b}.ColorScheme-ButtonBackground{color:#eff0f1}.ColorScheme-ButtonHover{color:#93cee9}.ColorScheme-ButtonFocus{color:#3daee9}</style></defs><path id="path6" d="M12 1C2 1 1 6 1 12c0 8 3 11 11 11s11-3 11-11c0-6-1-11-11-11Z" style="font-variation-settings:normal;display:inline;opacity:1;vector-effect:none;fill:url(#linearGradient10351);fill-opacity:1;stroke-width:1.11627;stroke-linecap:butt;stroke-linejoin:miter;stroke-miterlimit:4;stroke-dasharray:none;stroke-dashoffset:0;stroke-opacity:1;-inkscape-stroke:none;stop-color:#000;stop-opacity:1"/><g id="g18425" transform="matrix(.29131 0 0 .29131 -54.724 -36.852)"><g id="g15897" stroke-width=".265" filter="url(#a)" opacity=".15" style="filter:url(#a-6-2)" transform="translate(180.05 118.77) scale(5.88841)"><path id="path15893" d="M8.32 5.398a2.91 2.91 0 0 0-2.91 2.91 2.91 2.91 0 0 0 2.91 2.91 2.91 2.91 0 0 0 2.91-2.91 2.91 2.91 0 0 0-2.91-2.91m.039.251a2.646 2.646 0 0 1 2.646 2.646 2.646 2.646 0 0 1-2.646 2.646 2.646 2.646 0 0 1-2.646-2.646A2.646 2.646 0 0 1 8.359 5.65"/><path id="path15895" d="M9.908 8.166 7.262 10.16V6.456Z"/></g><g id="g15903" stroke-width="1.2" transform="translate(179.191 117.84) scale(5.88841)"><path id="path15899" fill="#4484c2" d="M8.466 3.704a4.762 4.762 0 0 0-4.762 4.763 4.762 4.762 0 0 0 3.512 4.59c1.44-.937 2.404-1.68 3.015-2.28a2.91 2.91 0 0 1-1.765.6 2.91 2.91 0 0 1-2.91-2.91 2.91 2.91 0 0 1 1.868-2.714c.33-.505.963-1.137 2.019-1.945a4.762 4.762 0 0 0-.977-.104Zm-1.25 2.443A2.646 2.646 0 0 0 5.86 8.454 2.646 2.646 0 0 0 8.505 11.1a2.646 2.646 0 0 0 2.566-2.017c-.137-.375-.59-.624-1.138-.836l.12.078-2.645 1.994V7.154c-.256-.255-.358-.575-.191-1.008Z"/><path id="path15901" fill="#dedede" d="M9.443 3.808c-1.056.808-1.69 1.44-2.02 1.945a2.91 2.91 0 0 1 1.043-.197 2.91 2.91 0 0 1 2.91 2.91 2.91 2.91 0 0 1-1.145 2.31c-.611.6-1.576 1.344-3.015 2.28a4.762 4.762 0 0 0 1.25.173 4.762 4.762 0 0 0 4.763-4.762 4.762 4.762 0 0 0-3.786-4.66zm-.939 2a2.646 2.646 0 0 0-1.287.339c-.168.433-.066.753.19 1.007v-.54l2.526 1.633c.549.212 1 .46 1.138.836a2.646 2.646 0 0 0 .08-.629 2.646 2.646 0 0 0-2.647-2.646Z"/></g></g></svg>