<svg xmlns="http://www.w3.org/2000/svg" xmlns:xlink="http://www.w3.org/1999/xlink" xml:space="preserve" id="svg154" width="24" height="24" fill="none" version="1.1"><defs id="defs152"><linearGradient id="linearGradient10349"><stop id="stop10345" offset="0" style="stop-color:#eaeaea;stop-opacity:1"/><stop id="stop10347" offset="1" style="stop-color:#f5f5f5;stop-opacity:1"/></linearGradient><linearGradient xlink:href="#linearGradient10349" id="linearGradient10351" x1="44.631" x2="46.676" y1="103.949" y2="-5.227" gradientTransform="matrix(.24444 0 0 .24444 -.222 -.222)" gradientUnits="userSpaceOnUse"/><linearGradient id="linearGradient8792"><stop id="stop8790" offset="0" style="stop-color:#000;stop-opacity:1"/></linearGradient><style id="current-color-scheme" type="text/css">.ColorScheme-Text{color:#31363b}.ColorScheme-Background{color:#eff0f1}.ColorScheme-Highlight{color:#3daee9}.ColorScheme-ViewText{color:#31363b}.ColorScheme-ViewBackground{color:#fcfcfc}.ColorScheme-ViewHover{color:#93cee9}.ColorScheme-ViewFocus{color:#3daee9}.ColorScheme-ButtonText{color:#31363b}.ColorScheme-ButtonBackground{color:#eff0f1}.ColorScheme-ButtonHover{color:#93cee9}.ColorScheme-ButtonFocus{color:#3daee9}</style></defs><path id="path6" d="M12 1C2 1 1 6 1 12c0 8 3 11 11 11s11-3 11-11c0-6-1-11-11-11Z" style="font-variation-settings:normal;display:inline;opacity:1;vector-effect:none;fill:url(#linearGradient10351);fill-opacity:1;stroke-width:1.11627;stroke-linecap:butt;stroke-linejoin:miter;stroke-miterlimit:4;stroke-dasharray:none;stroke-dashoffset:0;stroke-opacity:1;-inkscape-stroke:none;stop-color:#000;stop-opacity:1"/><g id="g13805" style="image-rendering:optimizeSpeed" transform="translate(2.48 2.481) scale(.29748)"><g id="g13794" stroke-width="3.78"><path id="path13790" fill="#3ca9e7" d="M32.002 4.996C17.089 4.996 5 17.086 5 31.998 5 46.911 17.089 59 32.002 59c14.913 0 27.002-12.089 27.002-27.002 0-14.913-12.089-27.002-27.002-27.002ZM32 13c7.732 0 14 8.507 14 19s-6.268 19-14 19-14-8.507-14-19 6.268-19 14-19Z" style="paint-order:stroke markers fill"/><path id="path13792" fill="#1464a6" d="M38.5 10c-5.465 0-10.417 2.309-14.092 6.049C26.596 14.127 29.199 12.999 32 13c7.732 0 14 8.507 14 19s-6.268 19-14 19c-2.8 0-5.404-1.127-7.592-3.049 3.675 3.74 8.627 6.05 14.092 6.049C49.822 54 59 44.15 59 32s-9.178-22-20.5-22ZM18.133 29.523c-.01.087-.021.173-.03.26.008-.088.022-.173.03-.26zm-.074.893zM18 32Zm.104 2.216c.008.088.02.173.029.26-.008-.087-.022-.172-.03-.26z" style="paint-order:stroke markers fill"/></g></g></svg>