<svg xmlns="http://www.w3.org/2000/svg" xml:space="preserve" width="24" height="24" viewBox="0 0 6.35 6.35"><defs><radialGradient id="a" cx="0" cy="0" r="1" gradientTransform="rotate(90 1.455 1.72) scale(5.82072)" gradientUnits="userSpaceOnUse"><stop stop-color="#FAFAFA"/><stop offset="1" stop-color="silver"/></radialGradient></defs><path fill="url(#a)" fill-rule="evenodd" d="M2.539.295a.312.312 0 0 0 .09-.012c.38-.025.76-.024 1.14.003.345.026.678.101 1 .224.536.22.903.603 1.1 1.148.114.328.18.665.2 1.012.029.435.019.869-.03 1.302a3.143 3.143 0 0 1-.236.879 1.87 1.87 0 0 1-1.094 1.008c-.409.139-.829.211-1.26.219a5.668 5.668 0 0 1-1.444-.11C1.13 5.773.59 5.24.385 4.366a5.04 5.04 0 0 1-.12-1.194c-.009-.428.037-.85.137-1.266C.617 1.09 1.135.584 1.957.39c.191-.047.385-.079.582-.094z" clip-rule="evenodd" style="fill:url(#a);stroke-width:.264578"/><g stroke-width="3.78"><path fill="#ff1b2d" d="M32.002 4.996C17.089 4.996 5 17.086 5 31.998 5 46.911 17.089 59 32.002 59c14.913 0 27.002-12.089 27.002-27.002 0-14.913-12.089-27.002-27.002-27.002ZM32 13c7.732 0 14 8.507 14 19s-6.268 19-14 19-14-8.507-14-19 6.268-19 14-19Z" style="paint-order:stroke markers fill" transform="matrix(.07839 0 0 .07839 .666 .667)"/><path fill="#af0e0e" d="M38.5 10c-5.465 0-10.417 2.309-14.092 6.049C26.596 14.127 29.199 12.999 32 13c7.732 0 14 8.507 14 19s-6.268 19-14 19c-2.8 0-5.404-1.127-7.592-3.049 3.675 3.74 8.627 6.05 14.092 6.049C49.822 54 59 44.15 59 32s-9.178-22-20.5-22ZM18.133 29.523c-.01.087-.021.173-.03.26.008-.088.022-.173.03-.26zm-.074.893zM18 32Zm.104 2.216c.008.088.02.173.029.26-.008-.087-.022-.172-.03-.26z" style="paint-order:stroke markers fill" transform="matrix(.07839 0 0 .07839 .666 .667)"/></g></svg>