<svg xmlns="http://www.w3.org/2000/svg" xml:space="preserve" width="24" height="24"><defs><radialGradient id="a" cx="0" cy="0" r="1" fx="0" fy="0" gradientTransform="matrix(0 16.5 -16.5 0 9 .75)" gradientUnits="userSpaceOnUse" spreadMethod="pad"><stop offset="0" style="stop-opacity:1;stop-color:#a4a4a4"/><stop offset="1" style="stop-opacity:1;stop-color:#626262"/></radialGradient></defs><g style="fill:none"><path d="M7.195.836c.09 0 .176-.012.258-.035a23.86 23.86 0 0 1 3.231.008 10.26 10.26 0 0 1 2.836.636c1.519.625 2.558 1.711 3.121 3.254.316.93.507 1.887.566 2.867a21.227 21.227 0 0 1-.086 3.696 8.976 8.976 0 0 1-.672 2.488c-.637 1.383-1.672 2.336-3.101 2.859a11.693 11.693 0 0 1-3.575.618 15.998 15.998 0 0 1-4.089-.309c-2.481-.551-4.016-2.066-4.594-4.543a14.244 14.244 0 0 1-.336-3.383c-.027-1.215.101-2.41.387-3.59.609-2.312 2.078-3.746 4.406-4.3A10.27 10.27 0 0 1 7.195.836Z" style="fill:url(#a);fill-rule:evenodd;stroke:none" transform="matrix(1.33333 0 0 1.33333 0 0)"/></g><g transform="matrix(.26667 0 0 .26667 -16.998 6.565)"><rect width="60" height="42" x="78.741" y="-.62" fill="#3f3f3f" rx="6" ry="6"/><rect width="52.193" height="28.789" x="82.846" y="3.521" rx="3.314" ry="3.314" style="opacity:1;fill:#fe0000;fill-opacity:1;stroke:#000;stroke-linecap:round;stroke-linejoin:round;stroke-opacity:.0472222;paint-order:stroke markers fill"/><rect width="13.566" height="8.595" x="102.005" y="16.776" rx="3.314" ry="3.314" style="opacity:1;fill:#fff;fill-opacity:1;stroke:#000;stroke-linecap:round;stroke-linejoin:round;stroke-opacity:.0472222;paint-order:stroke markers fill"/><path fill="#fff" d="m95.884 37.38-.857 4h27.43l-.858-4z" opacity=".15"/><path d="M90.6 14.577a3.017 3.017 0 0 0-3.024 3.023v7.56a3.017 3.017 0 0 0 3.024 3.023h36.283a3.017 3.017 0 0 0 3.024-3.024V17.6a3.017 3.017 0 0 0-3.024-3.023zm14.362 3.78h7.559c.837 0 1.512.674 1.512 1.511v3.024c0 .837-.675 1.511-1.512 1.511h-7.56a1.508 1.508 0 0 1-1.51-1.511v-3.024c0-.837.673-1.512 1.51-1.512z" style="stroke-width:.755899"/><circle cx="95.741" cy="21.38" r="4" fill="#f6f5f4"/><circle cx="122.559" cy="21.38" r="4" fill="#f6f5f4"/><path d="M103.741 17.38c-1.108 0-2 .892-2 2v4c0 1.108.892 2 2 2h5.416a14 14 0 0 0 .584-4 14 14 0 0 0-.584-4z" opacity=".75"/></g></svg>