<svg xmlns="http://www.w3.org/2000/svg" width="24" height="24" viewBox="0 0 23.959 23.954"><defs><radialGradient id="a" cx="0" cy="0" r="1" fx="0" fy="0" gradientTransform="matrix(0 16.5 -16.5 0 9 .75)" gradientUnits="userSpaceOnUse" spreadMethod="pad"><stop offset="0" style="stop-opacity:1;stop-color:#fafafa"/><stop offset="1" style="stop-opacity:1;stop-color:silver"/></radialGradient></defs><path d="M7.195.836c.09 0 .176-.012.258-.035a23.86 23.86 0 0 1 3.231.008 10.26 10.26 0 0 1 2.836.636c1.519.625 2.558 1.711 3.121 3.254.316.93.507 1.887.566 2.867a21.227 21.227 0 0 1-.086 3.696 8.976 8.976 0 0 1-.672 2.488c-.637 1.383-1.672 2.336-3.101 2.859a11.693 11.693 0 0 1-3.575.618 15.998 15.998 0 0 1-4.089-.309c-2.481-.551-4.016-2.066-4.594-4.543a14.244 14.244 0 0 1-.336-3.383c-.027-1.211.101-2.41.387-3.59.609-2.312 2.078-3.746 4.406-4.3A10.27 10.27 0 0 1 7.195.836Z" style="fill:url(#a);fill-rule:evenodd;stroke:none" transform="matrix(1.33108 0 0 1.33108 0 -.003)"/><g style="stroke-width:2.82886" transform="matrix(.01351 0 0 .01351 4.492 5.624)"><path fill="#fff" d="M552.69 0c-169.1 0-262.45 143.46-262.45 283.52h524.9C815.14 143.46 709.81 0 552.69 0Z" style="stroke-width:2.82886"/><path fill="#484e51" d="M552.69 53.2c-137.37 0-213.21 116.54-213.21 230.32l213.21 24.18 213.21-24.18c0-113.78-85.57-230.32-213.21-230.32Z" style="stroke-width:2.82886"/><path fill="#4e5457" d="M89.8 739.52a20 20 0 0 1-2.23-39.88 42.8 42.8 0 1 0-42.22-21.82 20 20 0 0 1-35 19.31 82.79 82.79 0 1 1 81.76 42.26 21.78 21.78 0 0 1-2.31.13z" style="stroke-width:2.82886"/><rect width="104.68" height="144.19" x="90.27" y="467.98" fill="#fff" rx="49.42" style="stroke-width:2.82886" transform="rotate(27.09 142.59 540.04)"/><path fill="#4e5457" d="m181.568 393.874 55.91 28.598-43.057 84.177a31.4 31.4 0 0 1-42.254 13.656 31.4 31.4 0 0 1-13.656-42.254z" style="stroke-width:2.82886"/><circle cx="222.59" cy="387.53" r="75.05" fill="#fff" style="stroke-width:2.82886"/><path fill="#ccc" d="M258.09 321.8a75.09 75.09 0 0 0-91.23 14.64 75.06 75.06 0 0 1 51.58 126.06 75.06 75.06 0 0 0 39.65-140.7z" style="stroke-width:2.82886"/><path fill="#4e5457" d="M1018.3 739.52a22.09 22.09 0 0 1-2.28-.13 82.8 82.8 0 1 1 81.77-42.26 20 20 0 1 1-35-19.31 42.8 42.8 0 1 0-42.23 21.82 20 20 0 0 1-2.23 39.88z" style="stroke-width:2.82886"/><rect width="104.68" height="144.19" x="913.18" y="467.98" fill="#fff" rx="49.42" style="stroke-width:2.82886" transform="rotate(152.91 965.51 540.1)"/><path fill="#4e5457" d="M955.92 520.363a31.4 31.4 0 0 1-42.254-13.656L870.61 422.53l55.91-28.599 43.058 84.178a31.4 31.4 0 0 1-13.656 42.254z" style="stroke-width:2.82886"/><circle cx="885.53" cy="387.53" r="75.05" fill="#fff" style="stroke-width:2.82886"/><path fill="#ccc" d="M850 321.8a75.08 75.08 0 0 1 91.22 14.64 75.06 75.06 0 0 0-51.54 126.06A75.05 75.05 0 0 1 850 321.8Z" style="stroke-width:2.82886"/><path fill="#4e5457" d="M248.78 940.2c-36.67 0-67-39.85-75.51-99.15-4.56-31.83-2.26-65.19 6.48-94 9.41-31 25.51-53.59 45.32-63.72a51.72 51.72 0 0 1 23.69-5.84h103.52V940.2Z" style="stroke-width:2.82886"/><path fill="#585e62" d="M351.43 940.2c-21.26 0-38.85-39.85-43.78-99.15-2.64-31.83-1.31-65.19 3.76-94 5.45-31 14.78-53.59 26.27-63.72 4.39-3.87 9-5.84 13.73-5.84s9.34 2 13.75 5.8l49.7 43.83c17.37 15.32 23.39 64 20.23 102-2.43 29.28-10 52.18-20.19 61.28l-49.69 43.82c-4.44 3.99-9.08 5.98-13.78 5.98z" style="stroke-width:2.82886"/><path fill="#35393b" d="m360.57 699 49.65 43.79c11.18 9.9 17.78 47.45 14.78 83.91-2 24.27-7.83 41.95-14.77 48.13l-49.65 43.79C342 935 322.79 899.19 317.75 838.55c-5.04-60.64 6-123.1 24.58-139.51 6.15-5.42 12.5-5.04 18.24-.04z" style="stroke-width:2.82886"/><path fill="#4e5457" d="M850.73 940.2c36.66 0 67-39.85 75.51-99.15 4.56-31.83 2.26-65.19-6.48-94-9.41-31-25.51-53.59-45.32-63.72a51.72 51.72 0 0 0-23.69-5.84H747.22V940.2Z" style="stroke-width:2.82886"/><path fill="#585e62" d="M748.08 940.2c21.26 0 38.85-39.85 43.78-99.15 2.64-31.83 1.31-65.19-3.76-94-5.45-31-14.79-53.59-26.27-63.72-4.4-3.87-9-5.84-13.73-5.84s-9.34 2-13.76 5.8l-49.69 43.83c-17.38 15.32-23.39 64-20.23 102 2.43 29.28 10 52.18 20.19 61.28l49.68 43.82c4.45 3.99 9.09 5.98 13.79 5.98z" style="stroke-width:2.82886"/><path fill="#35393b" d="m738.94 699-49.65 43.79c-11.19 9.86-17.8 47.41-14.77 83.87 2 24.27 7.83 41.95 14.77 48.13l49.65 43.79c18.61 16.41 37.78-19.43 42.82-80.07 5.04-60.64-6-123.1-24.58-139.51-6.18-5.38-12.5-5-18.24 0z" style="stroke-width:2.82886"/><path fill="#fff" d="M848.63 451.38a83.62 83.62 0 0 1-.56-45.6c14.74-53.13 5.06-111.78 5.06-111.78-185.07-57.77-300.13-.48-300.13-.48s-114.79-57.64-300-.45c0 0-9.86 58.64 4.72 111.83a83.69 83.69 0 0 1-.69 45.59c-5.14 17.57-10.72 44.5-10.77 78.8-.37 249 306 326.08 306 326.08s306.58-76.15 306.95-325.16c0-34.3-5.49-61.21-10.58-78.83z" style="stroke-width:2.82886"/><path fill="#49b04a" d="M552.34 808.87c-50.72-15.87-261.7-93.25-261.42-279.51 0-29.65 4.89-52.42 9-66.31a128.3 128.3 0 0 0 .91-70c-6.2-22.58-6.9-47.13-6.17-65.29 40.48-10.23 80.2-15.37 118.41-15.32 75.66.12 119.86 21 120.3 21.17l20.39 10.23L573 333.52c.11 0 44.36-20.75 120-20.64 38.21.06 77.91 5.32 118.37 15.68.67 18.14-.1 42.71-6.37 65.27a128.33 128.33 0 0 0 .69 70c4 13.91 8.82 36.69 8.77 66.35-.28 187.06-211.26 263.09-262.12 278.69z" style="stroke-width:2.82886"/><path fill="#35393b" d="M610.15 478.76A57.46 57.46 0 1 0 540 534.68l-32.29 135.47L552.38 683l44.71-12.71-31.84-135.57a57.46 57.46 0 0 0 44.9-55.96z" style="stroke-width:2.82886"/><g fill="#49b04a" style="stroke-width:2.82886"><path d="M454.94 131.08a60.64 60.64 0 0 0-60.64 60.64h121.28a60.64 60.64 0 0 0-60.64-60.64zm187.44 0a60.64 60.64 0 0 0-60.64 60.64H703a60.64 60.64 0 0 0-60.62-60.64z" style="stroke-width:2.82886"/><circle cx="483.23" cy="229.43" r="11.52" style="stroke-width:2.82886"/><circle cx="528.52" cy="229.43" r="11.52" style="stroke-width:2.82886"/><circle cx="573.8" cy="229.43" r="11.52" style="stroke-width:2.82886"/><circle cx="619.09" cy="229.43" r="11.52" style="stroke-width:2.82886"/></g></g></svg>