<?xml version="1.0" encoding="UTF-8" standalone="no"?>
<svg
   width="24"
   height="24"
   viewBox="0 0 24 24"
   fill="none"
   version="1.1"
   id="svg154"
   sodipodi:docname="ventoy.svg"
   inkscape:version="1.2.2 (b0a8486541, 2022-12-01)"
   xml:space="preserve"
   inkscape:export-filename="coolero.svg"
   inkscape:export-xdpi="96"
   inkscape:export-ydpi="96"
   xmlns:inkscape="http://www.inkscape.org/namespaces/inkscape"
   xmlns:sodipodi="http://sodipodi.sourceforge.net/DTD/sodipodi-0.dtd"
   xmlns:xlink="http://www.w3.org/1999/xlink"
   xmlns="http://www.w3.org/2000/svg"
   xmlns:svg="http://www.w3.org/2000/svg"
   xmlns:sketch="http://www.bohemiancoding.com/sketch/ns"><sodipodi:namedview
     id="namedview156"
     pagecolor="#ffffff"
     bordercolor="#000000"
     borderopacity="1"
     inkscape:showpageshadow="0"
     inkscape:pageopacity="1"
     inkscape:pagecheckerboard="false"
     inkscape:deskcolor="#ffffff"
     showgrid="true"
     inkscape:zoom="32"
     inkscape:cx="9.609375"
     inkscape:cy="15.453125"
     inkscape:window-width="1920"
     inkscape:window-height="1052"
     inkscape:window-x="0"
     inkscape:window-y="0"
     inkscape:window-maximized="1"
     inkscape:current-layer="svg154"
     showguides="true"
     guidecolor="#ff0000"
     guideopacity="1"
     inkscape:lockguides="true"
     showborder="true"
     borderlayer="true"><inkscape:grid
       type="xygrid"
       id="grid356"
       color="#000000"
       opacity="0.10196078"
       empcolor="#000000"
       empopacity="0.10196078"
       snapvisiblegridlinesonly="true"
       enabled="true"
       visible="true"
       dotted="false"
       originx="0"
       originy="0"
       spacingy="1"
       spacingx="1"
       units="px" /><sodipodi:guide
       position="4,12"
       orientation="-1,0"
       id="guide764"
       inkscape:locked="true"
       inkscape:label="left-circle"
       inkscape:color="rgb(255,0,0)" /><sodipodi:guide
       position="5,12"
       orientation="-1,0"
       id="guide2218"
       inkscape:locked="true"
       inkscape:label="left-square"
       inkscape:color="rgb(255,0,0)" /><sodipodi:guide
       position="12,20"
       orientation="0,1"
       id="guide2220"
       inkscape:locked="true"
       inkscape:label="top-circle"
       inkscape:color="rgb(255,0,0)" /><sodipodi:guide
       position="12,5"
       orientation="0,1"
       id="guide2222"
       inkscape:locked="true"
       inkscape:label="bottom-square"
       inkscape:color="rgb(255,0,0)" /><sodipodi:guide
       position="12,4"
       orientation="0,1"
       id="guide2224"
       inkscape:locked="true"
       inkscape:label="bottom-circle"
       inkscape:color="rgb(255,0,0)" /><sodipodi:guide
       position="19,12"
       orientation="-1,0"
       id="guide2226"
       inkscape:locked="true"
       inkscape:label="right-square"
       inkscape:color="rgb(255,0,0)" /><sodipodi:guide
       position="20,12"
       orientation="-1,0"
       id="guide2228"
       inkscape:locked="true"
       inkscape:label="right-circle"
       inkscape:color="rgb(255,0,0)" /><sodipodi:guide
       position="12,19"
       orientation="0,1"
       id="guide2230"
       inkscape:locked="true"
       inkscape:label="top-square"
       inkscape:color="rgb(255,0,0)" /><sodipodi:guide
       position="12,12"
       orientation="1,0"
       id="guide765"
       inkscape:locked="true" /><sodipodi:guide
       position="12,12"
       orientation="0,-1"
       id="guide767"
       inkscape:locked="true" /><sodipodi:guide
       position="12,12"
       orientation="0.70710678,0.70710678"
       id="guide2266"
       inkscape:locked="true"
       inkscape:label=""
       inkscape:color="rgb(255,0,0)" /><sodipodi:guide
       position="12,12"
       orientation="-0.70710678,0.70710678"
       id="guide2994"
       inkscape:locked="true"
       inkscape:label=""
       inkscape:color="rgb(255,0,0)" /><sodipodi:guide
       position="3,12"
       orientation="-1,0"
       id="guide131543"
       inkscape:locked="true"
       inkscape:label="left-horizontal"
       inkscape:color="rgb(255,0,0)" /><sodipodi:guide
       position="12,21"
       orientation="0,1"
       id="guide131545"
       inkscape:locked="true"
       inkscape:label="top-vertical"
       inkscape:color="rgb(255,0,0)" /><sodipodi:guide
       position="21,12"
       orientation="-1,0"
       id="guide131547"
       inkscape:locked="true"
       inkscape:label="right-horizontal"
       inkscape:color="rgb(255,0,0)" /><sodipodi:guide
       position="12,3"
       orientation="0,1"
       id="guide131549"
       inkscape:locked="true"
       inkscape:label="bottom-vertical"
       inkscape:color="rgb(255,0,0)" /></sodipodi:namedview><defs
     id="defs152"><linearGradient
       id="linearGradient37"
       inkscape:collect="always"><stop
         style="stop-color:#00ccff;stop-opacity:1;"
         offset="0"
         id="stop38" /><stop
         style="stop-color:#2671ff;stop-opacity:0.35412475;"
         offset="1"
         id="stop39" /></linearGradient><linearGradient
       id="linearGradient36"
       inkscape:collect="always"><stop
         style="stop-color:#cccccc;stop-opacity:1"
         offset="0"
         id="stop36" /><stop
         style="stop-color:#f9f9f9;stop-opacity:1"
         offset="1"
         id="stop37" /></linearGradient><linearGradient
       inkscape:collect="always"
       xlink:href="#linearGradient36"
       id="linearGradient35"
       x1="11.96875"
       y1="25.875"
       x2="11.78125"
       y2="-3.125"
       gradientUnits="userSpaceOnUse" /><linearGradient
       inkscape:collect="always"
       xlink:href="#linearGradient37"
       id="linearGradient39"
       x1="3.1793964"
       y1="12.971609"
       x2="21.073524"
       y2="12.971609"
       gradientUnits="userSpaceOnUse" /><linearGradient
       inkscape:collect="always"
       xlink:href="#linearGradient37"
       id="linearGradient40"
       gradientUnits="userSpaceOnUse"
       x1="3.1793964"
       y1="12.971609"
       x2="21.073524"
       y2="12.971609" /><linearGradient
       inkscape:collect="always"
       xlink:href="#linearGradient37"
       id="linearGradient41"
       gradientUnits="userSpaceOnUse"
       x1="3.1793964"
       y1="12.971609"
       x2="21.073524"
       y2="12.971609" /><linearGradient
       inkscape:collect="always"
       xlink:href="#linearGradient37"
       id="linearGradient42"
       gradientUnits="userSpaceOnUse"
       x1="3.1793964"
       y1="12.971609"
       x2="21.073524"
       y2="12.971609" /><linearGradient
       inkscape:collect="always"
       xlink:href="#linearGradient37"
       id="linearGradient43"
       gradientUnits="userSpaceOnUse"
       x1="3.1793964"
       y1="12.971609"
       x2="21.073524"
       y2="12.971609" /><linearGradient
       inkscape:collect="always"
       xlink:href="#linearGradient37"
       id="linearGradient44"
       gradientUnits="userSpaceOnUse"
       x1="3.1793964"
       y1="12.971609"
       x2="21.073524"
       y2="12.971609" /><linearGradient
       inkscape:collect="always"
       xlink:href="#linearGradient37"
       id="linearGradient45"
       gradientUnits="userSpaceOnUse"
       x1="3.1793964"
       y1="12.971609"
       x2="21.073524"
       y2="12.971609" /></defs><path
     d="M 12,0.99999998 C 2,0.99999998 0.99999998,6 0.99999998,12 0.99999998,20 4.0000001,23 12,23 20,23 23,20 23,12 23,6 22,0.99999998 12,0.99999998 Z"
     sketch:type="MSShapeGroup"
     id="path6"
     style="font-variation-settings:normal;display:inline;opacity:1;vector-effect:none;fill:url(#linearGradient35);fill-opacity:1;stroke-width:1.11627;stroke-linecap:butt;stroke-linejoin:miter;stroke-miterlimit:4;stroke-dasharray:none;stroke-dashoffset:0;stroke-opacity:1;-inkscape-stroke:none;stop-color:#000000;stop-opacity:1"
     sodipodi:nodetypes="sssss"
     inkscape:label="Shape"
     sodipodi:insensitive="true" /><g
     id="g23"
     transform="matrix(0.84642919,0,0,0.84642919,1.7358098,1.0204515)"
     style="fill:url(#linearGradient39)"><g
       id="g27"
       transform="translate(0.24147967,0.75210181)"
       style="fill:url(#linearGradient45);fill-opacity:1"><path
         style="fill:url(#linearGradient40);fill-opacity:1"
         d="M 11.47371,21.000677 C 10.46123,20.426471 9.5784796,19.911376 9.5120433,19.856021 9.3879,19.752584 9.3516805,19.434115 9.4473729,19.287391 9.5467041,19.135089 13.275372,17.06 13.449709,17.06 c 0.330975,0 0.408004,0.193019 0.430662,1.079148 l 0.02088,0.816559 0.403333,-0.140226 c 1.924578,-0.669111 3.485871,-2.222191 4.182923,-4.160918 l 0.166146,-0.462104 -0.259788,-0.27123 c -0.361837,-0.377774 -0.495947,-0.679165 -0.495947,-1.114562 0,-0.542848 0.295259,-1.054705 0.742712,-1.287554 l 0.192712,-0.100285 -0.06506,-0.351081 C 18.418592,9.1808784 17.172026,7.4293391 15.462107,6.4222758 15.133196,6.2285621 15.049405,6.1432629 15.072882,6.0260434 c 0.01646,-0.082157 0.05033,-0.275885 0.07528,-0.4305062 0.05378,-0.3332767 0.04657,-0.334553 0.879753,0.1558333 0.813514,0.4788127 2.144667,1.8134946 2.620535,2.6274832 0.435902,0.7456261 0.835403,1.7720003 0.950124,2.4410063 0.07957,0.464046 0.109231,0.523012 0.303509,0.603484 0.991546,0.410712 1.252626,1.752474 0.477968,2.456411 -0.201432,0.183043 -0.598223,0.393578 -0.741769,0.393578 -0.05796,0 -0.155507,0.177857 -0.231255,0.421667 -0.708237,2.279601 -2.697811,4.268927 -5.010779,5.010154 l -0.531667,0.170382 v 0.964199 c 0,0.840969 -0.01714,0.979712 -0.134107,1.085566 -0.07376,0.06675 -0.19751,0.12092 -0.275,0.120376 -0.07749,-5.45e-4 -0.969286,-0.470795 -1.981766,-1.045 z m 1.926648,-3.40268 c -0.01467,-0.01467 -0.808755,0.416029 -1.764646,0.957096 l -1.7379841,0.983759 1.7450941,0.990756 1.745095,0.990757 0.01955,-1.947853 c 0.01075,-1.071319 0.0076,-1.959851 -0.0071,-1.974515 z m 6.447893,-3.757615 c 0.595694,-0.270535 0.835094,-1.068106 0.487933,-1.625574 -0.390111,-0.626438 -1.253479,-0.728314 -1.772626,-0.209167 -0.589537,0.589537 -0.376012,1.590417 0.397692,1.864144 0.388879,0.13758 0.529588,0.132916 0.887001,-0.0294 z M 8.1549451,18.890454 C 6.1390587,17.791621 4.6614275,15.79002 4.2448027,13.59377 4.1614701,13.154479 4.1364422,13.112056 3.9129358,13.031235 2.9367049,12.678225 2.6201111,11.376065 3.3264167,10.618864 3.521485,10.409739 3.9779969,10.166667 4.175683,10.166667 c 0.1124775,0 0.1785718,-0.107307 0.3048899,-0.4950003 C 5.2539693,7.2979713 7.4872051,5.202535 9.83899,4.6438851 l 0.358927,-0.085261 V 3.5901372 2.6216499 L 10.3609,2.5074916 c 0.08964,-0.062787 0.212051,-0.1141583 0.272022,-0.1141583 0.11355,0 3.685021,1.9985685 3.909995,2.1880038 0.212,0.1785118 0.16225,0.4927019 -0.11,0.6946887 C 13.939548,5.6420634 10.780023,7.38 10.607944,7.38 10.256973,7.38 10.197917,7.2247729 10.197917,6.3022619 V 5.455 L 9.9765808,5.4992672 C 9.5628292,5.5820175 8.6538088,6.0016329 8.0876688,6.371213 6.9335254,7.1246459 5.9802143,8.2697328 5.4641992,9.5224411 5.3265532,9.8565985 5.2133299,10.181576 5.2125919,10.244613 c -7.381e-4,0.06304 0.1017224,0.211538 0.2276899,0.33 0.3014186,0.283461 0.4309682,0.603185 0.4309682,1.063615 0,0.470956 -0.1582447,0.810816 -0.522838,1.122895 -0.3324461,0.284561 -0.3438131,0.38203 -0.1331914,1.142084 0.494621,1.7849 1.6942258,3.306564 3.3262381,4.219237 0.3346746,0.187161 0.4610779,0.297866 0.4430707,0.388046 -0.013857,0.0694 -0.045009,0.249927 -0.069227,0.401177 -0.024217,0.15125 -0.083786,0.274536 -0.1323755,0.273968 -0.048589,-5.67e-4 -0.3311809,-0.133399 -0.6279818,-0.295181 z m -3.1000359,-6.32474 c 0.2622307,-0.157534 0.5197864,-0.619531 0.5197864,-0.932381 0,-0.287577 -0.2516942,-0.769323 -0.4909536,-0.939691 C 4.7364377,10.44634 4.3258839,10.414014 3.9350777,10.6032 c -0.4450304,0.215436 -0.6304944,0.52723 -0.6304944,1.059962 0,0.379606 0.024088,0.441675 0.2763735,0.712138 0.4148148,0.444703 0.9381283,0.512308 1.4739524,0.190414 z M 12.429613,5.8833082 14.166889,4.8999498 12.714069,4.077408 C 11.915019,3.62501 11.121,3.1733856 10.949583,3.0737982 L 10.637917,2.8927301 v 1.9869683 c 0,1.0928325 0.01224,1.9869683 0.02721,1.9869683 0.01497,0 0.808984,-0.4425113 1.764486,-0.9833585 z M 11.013353,16.137563 C 9.765509,15.801953 8.7456053,14.895529 8.2397489,13.672563 7.9824348,13.050477 7.9162964,11.806501 8.105662,11.150566 8.499956,9.7847877 9.5948024,8.6890484 10.958535,8.2953657 c 0.59852,-0.1727808 1.818036,-0.1233091 2.426512,0.098435 1.119656,0.4080316 2.018925,1.3116187 2.45773,2.4695323 0.226543,0.597797 0.283577,1.661987 0.122724,2.28986 -0.367238,1.433468 -1.538894,2.62101 -2.948086,2.988058 -0.533271,0.1389 -1.480381,0.137156 -2.004062,-0.0037 z m 2.049587,-0.36775 c 1.165377,-0.341891 2.135808,-1.289141 2.48763,-2.428209 0.198419,-0.642407 0.199172,-1.598364 0.0018,-2.237502 C 15.134085,9.7499748 13.944336,8.7491694 12.505942,8.5415088 12.015039,8.4706371 11.827905,8.4762647 11.339326,8.5765921 10.507975,8.7473057 10.025911,9.0074345 9.4222978,9.6110478 8.8186845,10.214661 8.5585557,10.696725 8.3878421,11.528076 c -0.3657947,1.781367 0.698142,3.588098 2.4683809,4.191697 0.593284,0.202293 1.609219,0.22533 2.206717,0.05004 z M 11.15125,14.194377 C 10.708335,13.994302 10.291294,13.582584 10.079867,13.136667 9.8486054,12.648916 9.8380531,11.824412 10.056873,11.34 c 0.200075,-0.442915 0.611793,-0.859956 1.05771,-1.071383 0.531706,-0.252102 1.330994,-0.246814 1.85086,0.01225 0.445812,0.222158 0.858989,0.656392 1.062654,1.11681 0.215301,0.486723 0.161221,1.400724 -0.11029,1.864024 -0.233347,0.398176 -0.632578,0.762002 -1.038429,0.94634 -0.422759,0.192016 -1.287952,0.185177 -1.728128,-0.01366 z"
         id="path27" /><path
         style="fill:url(#linearGradient41);fill-opacity:1"
         d="M 13.24125,21.962141 C 13.160583,21.918105 12.277529,21.42039 11.278906,20.856108 9.7976496,20.019107 9.4546119,19.795804 9.4164411,19.64372 c -0.025734,-0.102532 -0.013786,-0.239063 0.02655,-0.303404 0.088177,-0.140652 3.8236249,-2.278034 3.9836089,-2.279376 0.06161,-5.17e-4 0.185358,0.05043 0.275,0.113218 l 0.162983,0.114159 v 0.847125 0.847125 l 0.201667,-0.05033 c 0.110917,-0.02768 0.432667,-0.151082 0.715,-0.274223 1.731151,-0.755046 3.149501,-2.281874 3.744307,-4.030675 l 0.167388,-0.492141 -0.243341,-0.185605 c -0.75359,-0.574791 -0.710988,-1.780235 0.08269,-2.339669 0.175427,-0.123653 0.318959,-0.261755 0.318959,-0.306895 0,-0.04514 -0.06775,-0.344037 -0.150547,-0.664217 C 18.513098,9.9133662 18.013434,8.8682049 17.576071,8.2863825 17.095596,7.6472096 16.236552,6.858481 15.625467,6.4954426 l -0.529676,-0.3146752 0.04918,-0.3707207 c 0.02705,-0.2038964 0.06548,-0.3870262 0.08541,-0.4069551 0.06297,-0.062973 0.849251,0.3844372 1.420711,0.8084165 1.019336,0.7562688 1.921318,1.898516 2.425796,3.0719671 0.253839,0.5904473 0.581029,1.7118068 0.581029,1.9913268 0,0.08087 0.07844,0.144107 0.216331,0.174392 0.328542,0.07216 0.768083,0.541308 0.879298,0.938528 0.239272,0.854597 -0.140976,1.49818 -1.107104,1.873809 -0.134645,0.05235 -0.211184,0.150297 -0.247831,0.317152 -0.165344,0.752805 -0.885709,2.050169 -1.592693,2.868411 -0.794611,0.919658 -2.119211,1.790667 -3.35565,2.206554 l -0.549018,0.184668 -0.03667,1.000309 c -0.03229,0.880932 -0.05365,1.012705 -0.179016,1.104176 -0.168655,0.12306 -0.247994,0.126513 -0.444317,0.01934 z m 0.183333,-2.408808 c 0,-1.089 -0.02247,-1.98 -0.04993,-1.98 -0.08192,0 -3.4703217,1.930512 -3.4671401,1.975373 0.00309,0.04361 3.3677481,1.965578 3.4620711,1.977611 0.03025,0.0039 0.055,-0.883984 0.055,-1.972984 z m 6.404113,-5.673362 C 20.587917,13.562749 20.764561,12.593311 20.17125,12 c -0.4925,-0.4925 -1.155623,-0.490001 -1.627585,0.0061 -0.883805,0.929073 0.102832,2.367793 1.285031,1.873838 z M 8.2545833,18.908979 C 6.8857306,18.178786 5.7558882,17.064934 5.0401115,15.74 4.7636993,15.228349 4.4019151,14.213511 4.2447849,13.509036 4.1603614,13.130533 4.1196532,13.064585 3.9279167,12.995703 c -0.121,-0.04347 -0.3091754,-0.13955 -0.4181676,-0.213511 -0.239335,-0.162411 -0.5718324,-0.80187 -0.5718324,-1.099749 0,-0.674745 0.4558201,-1.284431 1.0798523,-1.444366 l 0.3647436,-0.09348 0.094768,-0.3697658 C 4.6121425,9.2486273 5.2113977,8.0852152 5.637498,7.5223497 6.6594241,6.1724163 8.3164307,5.0476692 9.8495833,4.6632599 L 10.197917,4.5759219 V 3.6453105 c 0,-1.0079268 0.0542,-1.1838899 0.370704,-1.2034724 0.110274,-0.00682 0.920568,0.4081762 2.104862,1.0780224 1.576918,0.8919179 1.934057,1.1229494 1.972465,1.2759779 0.02579,0.1027743 0.0139,0.2395047 -0.02644,0.3038453 -0.08818,0.1406522 -3.823625,2.278034 -3.983609,2.2793764 -0.06161,5.17e-4 -0.185358,-0.050431 -0.275,-0.1132183 L 10.197916,7.1516835 V 6.2797945 5.4079053 L 9.8129167,5.5195706 C 8.7634128,5.8239682 7.397214,6.6953331 6.694768,7.5083333 6.0361118,8.2706518 5.6044366,9.0105417 5.2792177,9.9345822 l -0.1377013,0.3912488 0.2286354,0.192384 c 0.689855,0.580475 0.6411153,1.770874 -0.093282,2.278289 -0.1540293,0.106423 -0.2813056,0.229467 -0.2828363,0.273432 -0.00659,0.189292 0.3000643,1.236447 0.5092142,1.738848 0.5592467,1.343371 1.8327796,2.72848 3.081336,3.351297 0.1815,0.09054 0.3409717,0.174279 0.3543816,0.186092 0.043008,0.03789 -0.076163,0.840568 -0.1244979,0.838564 -0.025603,-0.0011 -0.2775503,-0.125152 -0.5598841,-0.275758 z m -3.2074017,-6.29827 c 0.333607,-0.249074 0.4799025,-0.511426 0.5126482,-0.919334 0.036043,-0.448985 -0.1381129,-0.778409 -0.5628363,-1.06463 -0.6400049,-0.431299 -1.6138092,0.02541 -1.7422859,0.817114 -0.048149,0.296705 0.1251373,0.835455 0.3276747,1.018749 0.4108848,0.371846 1.0751601,0.439008 1.4647993,0.148101 z M 12.447508,5.898255 c 0.940725,-0.5326265 1.709586,-0.9863765 1.708581,-1.0083334 -0.0015,-0.032796 -3.261815,-1.8910649 -3.458155,-1.9710327 -0.03301,-0.013444 -0.06002,0.8693055 -0.06002,1.9616667 0,1.0923611 0.02232,1.9861111 0.04959,1.9861111 0.02728,0 0.819276,-0.4357853 1.76,-0.9684117 z M 11.15125,16.138449 C 10.391948,15.97402 9.7877394,15.635811 9.2056875,15.049413 8.6243983,14.463782 8.2749734,13.862849 8.1108341,13.166508 7.5103524,10.619037 9.4436735,8.1814259 12.059593,8.1877506 c 1.065255,0.00258 1.994776,0.4036998 2.796244,1.2066869 0.599859,0.6009963 0.862757,1.0562195 1.063682,1.8418285 0.357453,1.397628 -0.026,2.769914 -1.064044,3.807959 -1.009484,1.009483 -2.314873,1.395094 -3.704225,1.094224 z m 1.669086,-0.288857 c 0.712475,-0.167983 1.315151,-0.511241 1.851365,-1.054457 1.490489,-1.509951 1.442149,-3.78032 -0.112912,-5.3030828 -1.39592,-1.3669282 -3.787776,-1.3292934 -5.1663279,0.08129 -1.439553,1.4730018 -1.461649,3.8117828 -0.049207,5.2083488 1.0043699,0.993081 2.2160509,1.365219 3.4770819,1.067901 z m -1.457719,-1.599714 c -0.658231,-0.24627 -0.995385,-0.555835 -1.278216,-1.17362 -0.1672836,-0.365395 -0.1912815,-0.502223 -0.1671652,-0.953117 0.061277,-1.145681 0.8312202,-1.932864 1.9673472,-2.0114 0.881936,-0.06096 1.666884,0.396021 2.057416,1.197798 0.242775,0.498427 0.247404,1.313048 0.01023,1.799795 -0.20754,0.425925 -0.591572,0.825254 -0.990104,1.029541 -0.383866,0.19677 -1.21593,0.254514 -1.599505,0.111003 z"
         id="path26" /><path
         style="fill:url(#linearGradient42);fill-opacity:1"
         d="M 11.444583,20.939897 C 10.456417,20.374924 9.5858357,19.851324 9.5099589,19.776341 9.1966046,19.466682 9.3346718,19.348489 11.349252,18.201814 c 1.037117,-0.590315 1.958482,-1.091576 2.047478,-1.113912 0.106633,-0.02676 0.21399,0.01157 0.314832,0.11241 0.1368,0.1368 0.153021,0.239505 0.153021,0.968855 V 18.985 l 0.230347,-0.04607 c 0.335887,-0.06718 1.507578,-0.644875 1.932987,-0.95305 0.965429,-0.699379 1.948251,-1.92413 2.375523,-2.960275 0.329169,-0.798243 0.343035,-0.925069 0.114512,-1.047371 -0.230423,-0.123319 -0.517398,-0.594285 -0.583877,-0.958225 -0.110194,-0.603255 0.346575,-1.354993 0.953842,-1.569808 0.168028,-0.05944 0.230318,-0.105139 0.145817,-0.106983 -0.124418,-0.0027 -0.173205,-0.108014 -0.311574,-0.672493 C 18.298735,8.9433602 17.009303,7.2358332 15.479691,6.3768942 L 15.11125,6.17 15.15785,5.8033333 c 0.02563,-0.2016666 0.05704,-0.3788217 0.06979,-0.3936779 0.04031,-0.046956 1.004322,0.505778 1.401544,0.8035998 1.171379,0.878255 2.149845,2.211442 2.628463,3.5813523 0.198454,0.5680195 0.407976,1.4735955 0.359203,1.5525125 -0.01644,0.0266 0.07297,0.06893 0.198693,0.09407 0.329611,0.06592 0.834794,0.599288 0.940921,0.993412 0.199988,0.742698 -0.269863,1.562001 -1.010076,1.76132 l -0.280121,0.07543 -0.13231,0.441702 c -0.186397,0.622261 -0.567824,1.390608 -1.002414,2.019265 -0.484701,0.701144 -1.49845,1.67193 -2.205025,2.111572 -0.583377,0.362987 -1.610718,0.819712 -2.023601,0.899632 l -0.238334,0.04613 v 0.970473 c 0,0.847046 -0.01706,0.985908 -0.134107,1.091839 -0.07376,0.06675 -0.21401,0.119968 -0.311667,0.118259 -0.09766,-0.0017 -0.986059,-0.465356 -1.974226,-1.03033 z m 1.98,-1.430474 v -2.02391 L 13.18625,17.62568 c -0.131083,0.07709 -0.923083,0.527958 -1.76,1.001927 -0.836917,0.473968 -1.5216667,0.885382 -1.5216667,0.914253 0,0.05312 3.3634187,1.983494 3.4649997,1.988671 0.03025,0.0015 0.055,-0.907957 0.055,-2.021108 z m 6.53241,-5.696168 c 0.780267,-0.525821 0.780267,-1.487355 0,-2.013177 -0.510982,-0.344351 -1.209809,-0.163338 -1.598998,0.414179 -0.48494,0.719602 0.111428,1.765743 1.006588,1.765743 0.237389,0 0.422145,-0.052 0.59241,-0.166745 z M 8.2545833,18.883958 C 6.8725652,18.17325 5.6618087,16.932708 4.9356084,15.483333 4.6746682,14.96254 4.3484371,13.959363 4.2741414,13.449288 L 4.22125,13.086164 3.9379825,12.988881 C 3.621412,12.880161 3.2710421,12.577899 3.1147031,12.278642 c -0.1347244,-0.257883 -0.1330468,-1.035364 0.0028,-1.298065 0.1638936,-0.316935 0.5972471,-0.65762 0.9492373,-0.746252 0.287109,-0.0723 0.32725,-0.11016 0.4087526,-0.3855798 C 4.7663705,8.865794 5.4475143,7.6926739 6.197251,6.8833974 7.0659795,5.9456796 8.4155119,5.1109491 9.66625,4.7377066 L 10.197917,4.5790478 V 3.644223 c 0,-0.8125104 0.01755,-0.9507046 0.134107,-1.0561906 0.07376,-0.066751 0.206692,-0.1213657 0.295405,-0.1213657 0.174605,0 3.698279,1.9720203 3.925112,2.1966843 0.09624,0.095317 0.123979,0.1923364 0.09173,0.3208164 C 14.606781,5.1335411 14.23045,5.3773133 12.652789,6.2741726 11.582899,6.8823777 10.65887,7.38 10.599392,7.38 10.539914,7.38 10.42525,7.314 10.344583,7.2333333 10.214921,7.1036715 10.197917,6.9888889 10.197917,6.2433333 10.197917,5.7795 10.170083,5.4 10.136064,5.4 9.9926108,5.4 9.2187251,5.700347 8.7293334,5.9459557 7.1130148,6.7571296 5.8960073,8.1370125 5.2823173,9.8542952 L 5.1187787,10.311924 5.4085635,10.59315 C 6.1304009,11.29367 5.9502462,12.461588 5.0512481,12.909577 4.8240551,13.022792 4.7289875,13.1 4.8167762,13.1 c 0.1228514,0 0.168772,0.08932 0.2733475,0.531667 0.4644523,1.964614 1.8143987,3.710554 3.5522372,4.594252 l 0.3144442,0.159896 -0.045158,0.272092 C 8.850722,19.025004 8.8195318,19.113614 8.7518849,19.111781 8.720369,19.110927 8.4965833,19.008407 8.2545833,18.883958 Z M 4.9032251,12.703214 c 0.1089137,-0.0569 0.2970249,-0.207566 0.4180249,-0.334816 0.1994275,-0.209727 0.22,-0.2772 0.22,-0.721547 0,-0.372204 -0.034299,-0.535311 -0.1425071,-0.677677 -0.2558152,-0.33657 -0.4927128,-0.464053 -0.9174942,-0.493736 -0.4511404,-0.03153 -0.7642495,0.122561 -1.0599225,0.521606 -0.2152931,0.290564 -0.2152931,0.982015 0,1.272578 0.367665,0.496208 1.0050595,0.682704 1.4818989,0.433592 z M 12.63625,5.8106329 c 0.836917,-0.47495 1.521667,-0.8864156 1.521667,-0.9143679 0,-0.049376 -3.390583,-1.9895983 -3.476868,-1.9895983 -0.02372,0 -0.04313,0.9107596 -0.04313,2.0239102 V 6.9544871 L 10.87625,6.8143328 c 0.131083,-0.077085 0.923083,-0.5287498 1.76,-1.0036999 z M 10.780344,16.012266 C 9.388128,15.537642 8.401882,14.444399 8.1059254,13.047703 7.962161,12.369242 7.9716326,11.906231 8.1429809,11.236266 8.3434787,10.452326 8.6058928,9.9969911 9.2066629,9.3905873 10.157593,8.4307401 11.425373,8.0265929 12.732782,8.2665198 c 1.477026,0.2710541 2.659888,1.3235556 3.112565,2.7695382 0.184678,0.589917 0.19883,1.710463 0.02891,2.288965 -0.384016,1.307389 -1.430594,2.353967 -2.737983,2.737983 -0.610422,0.179297 -1.753368,0.154682 -2.355929,-0.05074 z m 2.156987,-0.167761 c 1.31559,-0.337215 2.413677,-1.447541 2.721002,-2.75133 0.308466,-1.308631 -0.06062,-2.587519 -1.024464,-3.5498304 C 13.913032,8.8236575 13.062012,8.4824414 11.983975,8.4808704 9.9203349,8.4778631 8.2888334,10.128963 8.2921204,12.217074 c 0.00163,1.032386 0.3535936,1.895531 1.0624742,2.605545 0.9639454,0.965486 2.3076044,1.348731 3.5827364,1.021886 z M 11.31373,14.212486 C 10.48763,13.917618 9.9045833,13.09321 9.9045833,12.22 c 0,-0.790866 0.5202717,-1.603863 1.2352027,-1.930178 0.432412,-0.197365 1.244962,-0.211582 1.624797,-0.02843 0.141167,0.06807 0.182417,0.105378 0.09167,0.08291 l -0.165,-0.04085 V 12.22 14.13655 l 0.165,-0.04085 c 0.09075,-0.02247 0.0495,0.01199 -0.09167,0.07658 -0.401927,0.183892 -1.001741,0.200515 -1.450853,0.04021 z"
         id="path25" /><path
         style="fill:url(#linearGradient43);fill-opacity:1"
         d="M 11.408882,20.911015 C 10.401079,20.33257 9.5320225,19.792291 9.4776452,19.710394 c -0.054377,-0.0819 -0.078595,-0.212776 -0.053818,-0.290844 0.058717,-0.185002 3.8225148,-2.32609 4.0631238,-2.311364 0.0948,0.0058 0.210302,0.04844 0.256667,0.09474 0.05869,0.05862 0.09083,0.742667 0.105797,2.252007 0.0238,2.39947 0.0036,2.524011 -0.408189,2.513097 -0.116073,-0.0031 -0.96877,-0.446562 -2.032344,-1.057018 z m 1.999381,-2.381799 -0.02035,-1.024118 -1.774798,1.005653 c -0.976139,0.55311 -1.7489841,1.031467 -1.7174341,1.063017 0.03155,0.03155 0.8302091,0.494031 1.7747981,1.027735 l 1.717434,0.970372 0.02035,-1.009271 c 0.01119,-0.555099 0.01119,-1.470124 0,-2.033388 z M 10.939487,16.064093 C 9.6585452,15.719605 8.6367552,14.70548 8.1746516,13.32 7.9673172,12.698369 7.9933509,11.602204 8.2314331,10.929184 8.6643816,9.7053065 9.5504302,8.8290862 10.787382,8.4015858 11.388763,8.1937439 12.526607,8.1698537 13.11439,8.352728 c 1.410777,0.4389285 2.527075,1.618945 2.80697,2.967191 0.138263,0.66601 0.05697,1.795049 -0.168684,2.342683 -0.500873,1.215572 -1.471351,2.082771 -2.695314,2.408475 -0.508854,0.13541 -1.601802,0.131805 -2.117875,-0.007 z m 2.05012,-0.221087 C 15.680303,15.052675 16.666111,11.82109 14.849872,9.7448552 13.708404,8.4399862 11.826053,8.0961155 10.235033,8.9018097 9.7642561,9.1402113 8.9514613,9.9530061 8.7130597,10.423783 c -0.449661,0.887954 -0.5558021,2.006951 -0.2762253,2.912115 0.3665422,1.186726 1.4000833,2.179131 2.6181836,2.513978 0.497809,0.136844 1.456905,0.133438 1.934589,-0.0069 z M 11.000905,14.055859 C 10.376326,13.725609 9.9045833,12.935646 9.9045833,12.22 c 0,-0.724791 0.4785047,-1.51627 1.1121157,-1.839514 0.267726,-0.136584 0.543133,-0.195973 0.391218,-0.08436 -0.04556,0.03348 -0.07333,0.762017 -0.07333,1.923877 0,1.16186 0.02777,1.890402 0.07333,1.923877 0.151707,0.111458 -0.155333,0.04506 -0.407012,-0.08802 z m 7.897077,0.11293 C 18.30738,13.95225 17.947776,13.436957 17.947184,12.80635 c -4.12e-4,-0.439076 0.08473,-0.657395 0.38136,-0.977897 0.746143,-0.806187 2.080926,-0.488788 2.395222,0.569562 0.203992,0.686916 -0.09598,1.385003 -0.735849,1.712454 -0.271459,0.138917 -0.793867,0.166871 -1.089935,0.05832 z m 1.085686,-0.331978 c 0.747353,-0.49265 0.721009,-1.62455 -0.04787,-2.056683 -0.590019,-0.331609 -1.313681,-0.09883 -1.641097,0.527897 -0.116667,0.223318 -0.135946,0.697182 -0.03874,0.952201 0.0785,0.205937 0.430674,0.568529 0.631955,0.650643 0.281777,0.114954 0.869253,0.07525 1.095751,-0.07406 z M 3.9738893,12.991814 C 3.6063962,12.875306 3.2886231,12.599021 3.1246333,12.253439 2.9938963,11.977931 2.9756555,11.370626 3.0890812,11.069774 3.2226383,10.715525 3.6016788,10.38967 4.0224925,10.267336 5.3905486,9.8696316 6.4283972,11.48663 5.4906116,12.554709 5.0860576,13.015471 4.5425566,13.172103 3.9738893,12.991814 Z M 5.1071298,12.597833 C 5.793693,12.090235 5.7555994,11.056399 5.0338977,10.610363 4.8644769,10.505655 4.6659758,10.46 4.3801459,10.46 4.0243499,10.46 3.9346663,10.49075 3.7067223,10.690886 3.362757,10.992891 3.23125,11.25969 3.23125,11.655514 c 0,0.380716 0.2093859,0.733326 0.5884118,0.990898 0.3319275,0.225565 0.9481154,0.202315 1.287468,-0.04858 z M 10.49125,7.3291081 c -0.279396,-0.099854 -0.293333,-0.2140526 -0.293333,-2.4034738 0,-2.3135534 0.02369,-2.4589676 0.400631,-2.4589676 0.228603,0 3.902505,2.0923426 4.00273,2.2796149 0.110797,0.2070257 0.03384,0.380064 -0.2416,0.5432085 -0.730999,0.4329802 -3.686843,2.0896178 -3.719647,2.0847204 -0.02133,-0.00318 -0.08828,-0.02348 -0.148781,-0.045102 z M 12.927811,5.6580574 C 13.637945,5.255489 14.205113,4.9037042 14.188185,4.8763134 14.171256,4.8489226 13.951271,4.7128636 13.699328,4.5739601 13.447385,4.4350565 12.6555,3.9886513 11.939583,3.5819484 L 10.637917,2.8424887 v 2.0543561 2.0543561 l 0.499371,-0.2806005 c 0.274654,-0.1543302 1.08039,-0.6099746 1.790523,-1.012543 z"
         id="path24" /><path
         style="fill:url(#linearGradient44);fill-opacity:1"
         d="M 11.517917,20.946435 C 10.52975,20.382259 9.7300222,19.885946 9.7407437,19.843516 c 0.010722,-0.04243 -0.038778,-0.06733 -0.11,-0.05533 -0.096975,0.01634 -0.1350381,-0.035 -0.1515718,-0.204431 -0.012143,-0.124436 0.020857,-0.261763 0.073333,-0.305172 0.2820959,-0.233354 3.7538141,-2.145249 3.8954541,-2.145249 0.336698,0 0.343291,0.04648 0.343291,2.42 0,2.353946 -0.009,2.420625 -0.326333,2.419438 -0.08268,-3.09e-4 -0.958834,-0.462161 -1.947,-1.026337 z m 2.170511,0.823398 c 0.01017,-0.05142 0.0017,-0.05967 -0.01879,-0.01833 -0.05383,0.108547 -0.292369,0.09239 -0.542031,-0.03672 -0.273236,-0.141296 -0.286221,-0.07796 -0.01469,0.07165 0.233346,0.128577 0.548601,0.119482 0.575511,-0.01661 z m -0.263845,-0.05059 c 0,-0.01875 -0.07425,-0.07007 -0.165,-0.114046 l -0.165,-0.07996 0.14235,0.114046 c 0.149619,0.11987 0.18765,0.136075 0.18765,0.07996 z m -0.586666,-0.147364 c 0,-0.01913 -0.099,-0.08598 -0.22,-0.14855 -0.275798,-0.14262 -0.292486,-0.08067 -0.01833,0.06806 0.230454,0.125023 0.238334,0.127684 0.238334,0.08049 z m 0.66,-2.01855 V 17.5 l -0.128334,-0.0011 c -0.110742,-9.69e-4 -0.113255,-0.01179 -0.01833,-0.07892 0.09778,-0.06915 0.09778,-0.07412 0,-0.04471 -0.0605,0.0182 -0.101941,0.06963 -0.09209,0.11431 0.0099,0.04467 -0.10565,0.144813 -0.256667,0.222531 -0.151016,0.07772 -0.915347,0.507291 -1.698512,0.954607 C 10.520814,19.114014 9.8671169,19.48 9.8513185,19.48 c -0.015798,0 -0.00563,-0.04125 0.022601,-0.09167 0.028229,-0.05042 -0.00673,-0.03708 -0.077683,0.02963 -0.070954,0.06671 -0.10651,0.157697 -0.079013,0.202188 0.055127,0.0892 0.4806935,0.325532 0.4806935,0.266949 0,-0.02017 -0.099,-0.08786 -0.2199999,-0.150433 -0.121,-0.06257 -0.2194947,-0.154169 -0.2188771,-0.20355 7.686e-4,-0.06146 0.018122,-0.06473 0.055,-0.01038 0.029632,0.04367 0.746877,0.469161 1.593877,0.945535 1.449577,0.815278 2.073943,1.201996 1.375,0.851643 -0.171417,-0.08592 -0.311667,-0.139726 -0.311667,-0.11956 0,0.06262 0.566172,0.329032 0.608753,0.286451 0.02214,-0.02214 0.100472,-0.0052 0.17408,0.03758 0.07361,0.0428 0.158584,0.07883 0.188834,0.08006 0.03025,0.0012 0.055,-0.92177 0.055,-2.051104 z m -1.173334,1.724824 c 0,-0.01935 -0.132,-0.102518 -0.293333,-0.184824 -0.161333,-0.08231 -0.293333,-0.133265 -0.293333,-0.113242 0,0.02002 0.12375,0.101735 0.275,0.181583 0.311152,0.164263 0.311666,0.164455 0.311666,0.116483 z m 0.07333,-0.146274 c 0,-0.01913 -0.099,-0.08598 -0.22,-0.14855 -0.275798,-0.14262 -0.292486,-0.08067 -0.01833,0.06806 0.230454,0.125023 0.238334,0.127684 0.238334,0.08049 z m -0.733334,-0.22 c 0,-0.01913 -0.099,-0.08598 -0.22,-0.14855 -0.275798,-0.14262 -0.292485,-0.08067 -0.01833,0.06806 0.230454,0.125023 0.238333,0.127684 0.238333,0.08049 z m 0.22,-0.07333 c 0,-0.01913 -0.099,-0.08598 -0.22,-0.14855 -0.275798,-0.142621 -0.292485,-0.08068 -0.01833,0.06805 0.230454,0.125023 0.238333,0.127685 0.238333,0.0805 z m -0.733333,-0.22 c 0,-0.01913 -0.099,-0.08598 -0.22,-0.14855 -0.275798,-0.142621 -0.292486,-0.08067 -0.01833,0.06806 0.230454,0.125023 0.238333,0.127685 0.238333,0.08049 z m 0.22,-0.07333 c 0,-0.01913 -0.099,-0.08598 -0.22,-0.14855 -0.275798,-0.142621 -0.292486,-0.08067 -0.01833,0.06805 0.230454,0.125023 0.238333,0.127684 0.238333,0.0805 z m -0.733333,-0.22 c 0,-0.01913 -0.099,-0.08598 -0.22,-0.14855 -0.275798,-0.142621 -0.292486,-0.08067 -0.01833,0.06806 0.230454,0.125023 0.238334,0.127684 0.238334,0.08049 z m 0.22,-0.07373 c 0,-0.01935 -0.132,-0.102517 -0.293334,-0.184823 -0.161333,-0.08231 -0.293333,-0.133266 -0.293333,-0.113243 0,0.02002 0.12375,0.101735 0.275,0.181583 0.311153,0.164263 0.311667,0.164455 0.311667,0.116483 z M 10.0189,19.954334 c -0.078292,-0.05922 -0.1772917,-0.106498 -0.2199995,-0.105069 -0.042708,0.0014 0.00485,0.04976 0.1056828,0.107402 0.2375457,0.135793 0.2953757,0.134613 0.1143167,-0.0023 z M 9.6392308,19.366191 c 0.025043,-0.06526 0.012749,-0.0947 -0.028821,-0.06901 -0.039871,0.02464 -0.072493,0.07586 -0.072493,0.113809 0,0.105485 0.052563,0.08224 0.1013141,-0.0448 z M 10.417917,19.0729 c 0,-0.02017 -0.099,0.01453 -0.22,0.0771 -0.121,0.06257 -0.2200003,0.130266 -0.2200003,0.150433 0,0.02017 0.099,-0.01453 0.2200003,-0.0771 0.121,-0.06257 0.22,-0.130266 0.22,-0.150433 z m -0.07333,-0.145881 c 0,-0.02017 -0.132,0.03067 -0.293333,0.112981 -0.1613333,0.08231 -0.2933333,0.166148 -0.2933333,0.186314 0,0.02017 0.132,-0.03067 0.2933333,-0.112981 0.161333,-0.08231 0.293333,-0.166147 0.293333,-0.186314 z m 0.586667,-0.147452 c 0,-0.02017 -0.099,0.01453 -0.22,0.0771 -0.121,0.06257 -0.22,0.130266 -0.22,0.150433 0,0.02017 0.099,-0.01453 0.22,-0.0771 0.121,-0.06257 0.22,-0.130266 0.22,-0.150433 z M 10.857917,18.6329 c 0,-0.02017 -0.099,0.01453 -0.22,0.0771 -0.121,0.06257 -0.22,0.130266 -0.22,0.150433 0,0.02017 0.099,-0.01453 0.22,-0.0771 0.121,-0.06257 0.22,-0.130266 0.22,-0.150433 z m 0.586666,-0.146666 c 0,-0.02017 -0.099,0.01453 -0.22,0.0771 -0.121,0.06257 -0.22,0.130267 -0.22,0.150433 0,0.02017 0.099,-0.01453 0.22,-0.0771 0.121,-0.06257 0.22,-0.130267 0.22,-0.150433 z m -0.07333,-0.146667 c 0,-0.02017 -0.099,0.01453 -0.22,0.0771 -0.121,0.06257 -0.22,0.130266 -0.22,0.150433 0,0.02017 0.099,-0.01453 0.22,-0.0771 0.121,-0.06257 0.22,-0.130266 0.22,-0.150433 z m 0.733333,-0.219215 c 0,-0.02017 -0.132,0.03067 -0.293333,0.112981 -0.161333,0.08231 -0.293333,0.166148 -0.293333,0.186315 0,0.02017 0.132,-0.03067 0.293333,-0.112981 0.161333,-0.08231 0.293333,-0.166148 0.293333,-0.186315 z m -0.22,-0.07412 c 0,-0.02017 -0.099,0.01453 -0.22,0.0771 -0.121,0.06257 -0.22,0.130267 -0.22,0.150433 0,0.02017 0.099,-0.01453 0.22,-0.0771 0.121,-0.06257 0.22,-0.130267 0.22,-0.150433 z m 0.733334,-0.22 c 0,-0.02017 -0.099,0.01453 -0.22,0.0771 -0.121,0.06257 -0.22,0.130267 -0.22,0.150433 0,0.02017 0.099,-0.01453 0.22,-0.0771 0.121,-0.06257 0.22,-0.130267 0.22,-0.150433 z m -0.22,-0.07333 c 0,-0.02017 -0.099,0.01453 -0.22,0.0771 -0.121,0.06257 -0.22,0.130266 -0.22,0.150433 0,0.02017 0.099,-0.01453 0.22,-0.0771 0.121,-0.06257 0.22,-0.130266 0.22,-0.150433 z m 0.733333,-0.22 c 0,-0.02017 -0.099,0.01453 -0.22,0.0771 -0.121,0.06257 -0.22,0.130266 -0.22,0.150433 0,0.02017 0.099,-0.01453 0.22,-0.0771 0.121,-0.06257 0.22,-0.130266 0.22,-0.150433 z m -0.07333,-0.145881 c 0,-0.02017 -0.132,0.03068 -0.293334,0.112981 -0.161333,0.08231 -0.293333,0.166148 -0.293333,0.186314 0,0.02017 0.132,-0.03067 0.293333,-0.112981 0.161334,-0.08231 0.293334,-0.166147 0.293334,-0.186314 z m 0.626348,-0.10214 c -0.02659,-0.04302 -0.08069,-0.07821 -0.120234,-0.07821 -0.03954,0 -0.02935,0.04617 0.02266,0.102603 0.105282,0.11424 0.172818,0.09736 0.09757,-0.02439 z m -0.32299,-0.06265 c -0.0529,-0.01764 -0.131058,0.0028 -0.173672,0.04542 -0.05442,0.05442 -0.02579,0.06396 0.09619,0.03206 0.09916,-0.02593 0.132403,-0.05917 0.07748,-0.07748 z m -2.3331,-1.154207 C 9.6208429,15.688803 8.5462858,14.621572 8.1777856,13.237063 8.040045,12.719551 8.0428686,11.699778 8.1835374,11.159714 8.5277565,9.8381676 9.6494176,8.7165065 10.970964,8.3722874 c 0.540064,-0.1406688 1.559837,-0.1434924 2.077349,-0.00575 1.353884,0.360349 2.473167,1.4940416 2.830855,2.8672996 0.542926,2.084433 -0.765383,4.287333 -2.868503,4.829918 -0.547114,0.141151 -1.467152,0.143133 -1.982484,0.0043 z m 1.369736,-0.03469 -0.33,-0.0513 0.303942,-0.01101 c 0.704611,-0.02553 1.569734,-0.418395 2.231787,-1.013479 0.626244,-0.562897 1.151832,-1.632323 1.17801,-2.396926 l 0.01041,-0.303942 0.05252,0.293333 c 0.03886,0.217044 0.05236,0.121683 0.05191,-0.366667 -4.77e-4,-0.518215 -0.01163,-0.589107 -0.05191,-0.33 l -0.0513,0.33 -0.01101,-0.298356 c -0.04338,-1.174695 -0.9207,-2.4570976 -2.076849,-3.0357687 -0.320954,-0.1606424 -0.754693,-0.3160619 -0.963865,-0.3453767 -0.333847,-0.046788 -0.353433,-0.058312 -0.160312,-0.09433 0.121,-0.022567 -0.1265,-0.040689 -0.55,-0.040271 -0.4235,4.176e-4 -0.6875,0.012569 -0.586667,0.027003 0.127074,0.01819 0.02236,0.067253 -0.341222,0.1598819 C 10.483137,8.7141368 10.078566,8.909443 9.720826,9.2235428 9.5771833,9.3496628 9.4427148,9.4359093 9.4220072,9.4152016 9.382064,9.3752585 9.9685458,8.929007 10.262573,8.7756188 c 0.09606,-0.050113 0.343561,-0.1540314 0.55,-0.2309295 0.206439,-0.076898 0.276344,-0.1211201 0.155344,-0.098271 -0.865788,0.1634904 -1.956418,1.0517316 -2.4104625,1.9631527 -0.1444216,0.289902 -0.2803024,0.626096 -0.3019573,0.747096 -0.021655,0.121 0.025854,0.0443 0.1055763,-0.170449 C 8.5704897,10.422115 9.2074203,9.4450592 9.3032599,9.5408988 9.3220563,9.5596952 9.2362031,9.6903711 9.112475,9.8312896 8.7509679,10.243023 8.5199476,10.693117 8.3719769,11.273991 8.2770888,11.646484 8.2255068,11.759173 8.2074934,11.633333 8.1930595,11.5325 8.1809084,11.7965 8.1804908,12.22 c -4.176e-4,0.4235 0.017704,0.671 0.040271,0.55 0.036397,-0.195156 0.046892,-0.17824 0.092935,0.149798 0.073065,0.520553 0.4959016,1.359622 0.9097681,1.805326 0.6510101,0.70109 1.6728511,1.217106 2.4671761,1.24589 l 0.303942,0.01101 -0.33,0.0513 c -0.251337,0.03908 -0.163933,0.05131 0.366667,0.05131 0.5306,0 0.618004,-0.01223 0.366667,-0.05131 z m -1.888525,-2.365 C 9.7419228,12.875228 9.7619933,11.46914 10.551122,10.744662 l 0.270125,-0.247994 -0.242297,0.264247 -0.242298,0.264248 V 12.22 13.414838 l 0.23835,0.245914 c 0.131092,0.135253 0.221849,0.245915 0.201683,0.245915 -0.02017,0 -0.14045,-0.10725 -0.267296,-0.238334 z m 0.768664,2.320695 c -0.02437,-0.02437 -0.08762,-0.02697 -0.140556,-0.0058 -0.0585,0.02341 -0.04112,0.04079 0.04431,0.04431 0.07731,0.0032 0.120618,-0.01415 0.09625,-0.03852 z m 1.686666,0 c -0.02437,-0.02437 -0.08762,-0.02697 -0.140555,-0.0058 -0.0585,0.02341 -0.04112,0.04079 0.04431,0.04431 0.07731,0.0032 0.120618,-0.01415 0.09625,-0.03852 z M 10.61348,15.780632 C 10.378206,15.683894 10.064706,15.524408 9.9168129,15.426218 9.3179938,15.028647 8.6938505,14.258643 8.4176203,13.576667 8.3522733,13.415333 8.297107,13.328115 8.2950287,13.382849 c -0.00923,0.243203 0.4819213,1.080638 0.8890572,1.515868 0.3271865,0.349763 0.5960944,0.550063 1.0301251,0.767302 0.323045,0.16169 0.641284,0.293198 0.707197,0.29224 0.06591,-9.57e-4 -0.07265,-0.08089 -0.307928,-0.177627 z m 3.18625,-0.0905 c 0.718121,-0.357883 1.343765,-0.983527 1.701648,-1.701648 0.14843,-0.297835 0.269089,-0.594835 0.268131,-0.66 -9.57e-4,-0.06516 -0.07786,0.06657 -0.170901,0.29274 -0.396483,0.96383 -1.204427,1.770425 -2.172253,2.168624 -0.222808,0.09167 -0.351789,0.167458 -0.286625,0.168415 0.06517,9.58e-4 0.362165,-0.119701 0.66,-0.268131 z M 8.2680117,13.08625 c -0.02341,-0.0585 -0.040787,-0.04112 -0.044306,0.04431 -0.00318,0.0773 0.014148,0.120618 0.038516,0.09625 0.024368,-0.02437 0.026973,-0.08762 0.00579,-0.140556 z m 7.5533333,-0.07333 c -0.02341,-0.0585 -0.04079,-0.04112 -0.04431,0.0443 -0.0032,0.07731 0.01415,0.120618 0.03852,0.09625 0.02437,-0.02437 0.02697,-0.08762 0.0058,-0.140555 z m -0.05427,-1.947278 C 15.4558,10.104938 14.652125,9.1386532 13.839567,8.7481349 c -0.58131,-0.279379 -0.592653,-0.2138385 -0.01484,0.085743 0.874596,0.4534566 1.758684,1.5679361 1.919403,2.4195951 0.02801,0.148425 0.06472,0.228901 0.08159,0.178836 0.01687,-0.05007 -0.0095,-0.215065 -0.05864,-0.366667 z M 13.038056,8.4356944 c -0.02437,-0.024368 -0.08762,-0.026973 -0.140556,-0.00579 -0.0585,0.02341 -0.04112,0.040787 0.04431,0.044306 0.07731,0.00318 0.120618,-0.014148 0.09625,-0.038516 z m 5.742043,5.6458376 c -0.520525,-0.220973 -0.808849,-0.675414 -0.808849,-1.274865 0,-0.825863 0.582927,-1.393334 1.431286,-1.393334 0.77875,0 1.355381,0.592778 1.355381,1.393334 0,0.810334 -0.556702,1.376656 -1.357484,1.380941 -0.201217,0.0011 -0.480368,-0.04666 -0.620334,-0.106076 z m 1.323774,-0.146663 c 0.380488,-0.222217 0.567258,-0.61374 0.551174,-1.155415 -0.01547,-0.521146 -0.183777,-0.86399 -0.529119,-1.077853 -0.319491,-0.197853 -0.396465,-0.177608 -0.0956,0.02514 0.299468,0.201812 0.58335,0.605046 0.574309,0.815766 -0.0049,0.114811 -0.023,0.09801 -0.07081,-0.06584 -0.09702,-0.332477 -0.437643,-0.691349 -0.765908,-0.806939 -0.161334,-0.05681 -0.230084,-0.104739 -0.152778,-0.106509 0.0773,-0.0018 0.122101,-0.02167 0.09954,-0.04423 -0.07336,-0.07336 -0.848486,0.167046 -1.087615,0.337321 -0.1281,0.09122 -0.29434,0.301112 -0.36942,0.466435 -0.07508,0.165324 -0.137236,0.247718 -0.138122,0.1831 -0.0025,-0.18111 0.304414,-0.593846 0.579313,-0.7791 0.302128,-0.203604 0.207229,-0.221979 -0.11903,-0.02305 -0.321146,0.195814 -0.483609,0.541615 -0.500967,1.066302 -0.01763,0.532886 0.156649,0.929695 0.500365,1.139269 0.326711,0.199206 0.422064,0.181128 0.119632,-0.02268 -0.274899,-0.185254 -0.581795,-0.59799 -0.579313,-0.779099 8.86e-4,-0.06462 0.06274,0.01711 0.137454,0.181608 0.147452,0.324657 0.440849,0.594675 0.723153,0.665529 0.09811,0.02462 0.145401,0.06516 0.105087,0.09007 -0.04031,0.02492 0.115998,0.04333 0.347362,0.04092 0.28134,-0.0029 0.503669,-0.05286 0.67129,-0.150753 z m -0.262623,-0.01946 c 0.359489,-0.165078 0.533426,-0.353464 0.663754,-0.718892 0.06455,-0.180997 0.100945,-0.2254 0.103027,-0.125699 0.0068,0.326519 -0.626198,0.985238 -0.942626,0.980901 -0.06462,-8.86e-4 0.01451,-0.06223 0.175845,-0.13631 z m -16.06,-1.010861 c -0.4950244,-0.261554 -0.7655597,-0.7035 -0.7683895,-1.255237 -0.00423,-0.825665 0.5673381,-1.404458 1.3807148,-1.398158 0.2352102,0.0018 0.3603462,0.03089 0.331802,0.07708 -0.028026,0.04535 0.00991,0.05646 0.097665,0.02861 0.1706506,-0.05416 0.5607511,0.191162 0.7847984,0.493541 0.1246684,0.168254 0.1534095,0.313582 0.1534095,0.775708 0,0.513777 -0.020413,0.595427 -0.2114869,0.845938 -0.1163178,0.1525 -0.3473178,0.338957 -0.5133333,0.414348 -0.3682648,0.167235 -0.9569406,0.175762 -1.2551798,0.01818 z m 0.233479,-0.05747 C 3.6881746,12.730623 3.4834967,12.562868 3.2943577,12.256667 3.2196167,12.135667 3.158559,12.069667 3.158674,12.11 c 7.887e-4,0.276617 0.6714242,0.8459 0.9892427,0.839739 0.08599,-0.0017 0.03089,-0.04413 -0.1331877,-0.102652 z m 0.6499536,0.03991 c -0.1247455,-0.0488 -0.1150284,-0.06167 0.07528,-0.09974 0.3126347,-0.06253 0.6150971,-0.325536 0.7722233,-0.671494 0.074714,-0.164504 0.136568,-0.246227 0.1374538,-0.181609 0.00248,0.18111 -0.3044138,0.593846 -0.5793127,0.7791 -0.2814729,0.189684 -0.2475207,0.219695 0.06545,0.05785 0.3767253,-0.194813 0.5320243,-0.501665 0.5490147,-1.084788 0.00872,-0.299156 -0.00865,-0.460996 -0.040679,-0.37914 -0.051402,0.131359 -0.056301,0.129424 -0.061042,-0.02411 -0.00295,-0.09549 -0.1469909,-0.308766 -0.3365533,-0.498329 -0.1822695,-0.182269 -0.267356,-0.297124 -0.1890811,-0.255233 0.078275,0.04189 0.2439044,0.199409 0.3680657,0.350038 0.2546972,0.308992 0.3062234,0.266113 0.0733,-0.061 -0.1542464,-0.216619 -0.5297698,-0.458551 -0.6010758,-0.387245 -0.021332,0.02133 -0.2278431,0.0038 -0.4589134,-0.03888 -0.3799118,-0.07023 -0.4476328,-0.06221 -0.7074684,0.08383 -0.1580375,0.08882 -0.3517103,0.265647 -0.4303842,0.392944 -0.1988505,0.321747 -0.179882,0.400492 0.023702,0.09839 0.1852543,-0.274899 0.5979898,-0.581795 0.7790996,-0.579313 0.064619,8.86e-4 -0.019476,0.0638 -0.1868767,0.139813 -0.3368961,0.152972 -0.6814044,0.592434 -0.6929446,0.883933 l -0.00731,0.184644 -0.058714,-0.183334 c -0.044501,-0.138955 -0.058714,-0.0857 -0.058714,0.22 0,0.305702 0.014212,0.358956 0.058714,0.22 L 3.2166303,11.67 l 0.00731,0.174678 c 0.00976,0.233204 0.2579146,0.62379 0.4950288,0.779153 0.1054914,0.06912 0.3441602,0.16744 0.5303751,0.218487 0.3800155,0.104173 0.6385085,0.131977 0.4153384,0.04467 z M 10.352489,7.2061925 c -0.05928,-0.071423 -0.07778,-0.7547344 -0.06398,-2.3632603 l 0.01941,-2.262786 0.19307,-0.067873 c 0.170587,-0.059969 0.418233,0.059845 2.126666,1.0289109 l 1.933597,1.0967838 0.02269,0.2304276 c 0.02749,0.2792494 0.08287,0.240576 -2.168779,1.5145006 -0.898017,0.5080737 -1.710727,0.9237705 -1.806021,0.9237705 -0.09529,0 -0.210786,-0.045213 -0.256648,-0.1004742 z m 0.193761,-0.02341 c -0.07058,-0.018445 -0.128333,-0.069617 -0.128333,-0.1137155 0,-0.044098 -0.0198,-0.060374 -0.04401,-0.036169 -0.07324,0.07324 0.04437,0.2010038 0.176671,0.1919278 0.111797,-0.00767 0.111371,-0.011808 -0.0043,-0.042044 z M 10.894064,7.16084 c 0.02569,-0.04157 -0.0037,-0.053864 -0.06901,-0.028821 -0.127044,0.048751 -0.150289,0.1013141 -0.0448,0.1013141 0.03795,0 0.08917,-0.032622 0.113809,-0.072493 z M 10.82125,6.9550603 C 10.82125,6.889058 14.097363,4.96 14.209454,4.96 c 0.01675,0 0.0074,0.04125 -0.02087,0.091667 -0.02823,0.050417 0.0067,0.037083 0.07768,-0.02963 0.07095,-0.066713 0.10651,-0.1576976 0.07901,-0.2021882 C 14.290144,4.7306508 13.86458,4.4943166 13.86458,4.5529 c 0,0.020167 0.099,0.087862 0.22,0.1504331 0.121,0.062572 0.219495,0.154169 0.218877,0.2035499 -7.91e-4,0.063239 -0.01705,0.065725 -0.055,0.00841 -0.05277,-0.079705 -3.553301,-2.08196 -3.639876,-2.08196 -0.0242,0 -0.044,0.924 -0.044,2.0533334 V 6.94 l 0.128334,0.00112 c 0.110742,9.69e-4 0.113255,0.011787 0.01833,0.078916 -0.09778,0.06915 -0.09778,0.074457 0,0.047766 0.0605,-0.016515 0.11,-0.06725 0.11,-0.1127449 z m 0.77,-0.2013745 c 0,-0.020167 -0.132,0.030675 -0.293333,0.1129809 -0.161334,0.082306 -0.293334,0.1661475 -0.293334,0.1863141 0,0.020167 0.132,-0.030675 0.293334,-0.1129808 C 11.45925,6.857694 11.59125,6.7738525 11.59125,6.7536858 Z m -0.22,-0.074119 c 0,-0.020167 -0.099,0.014528 -0.22,0.0771 -0.121,0.062571 -0.22,0.1302664 -0.22,0.1504331 0,0.020167 0.099,-0.014528 0.22,-0.0771 0.121,-0.062571 0.22,-0.1302664 0.22,-0.1504331 z M 10.471338,5.9316667 c -0.01582,-0.15125 -0.02877,-0.0275 -0.02877,0.275 0,0.3025 0.01294,0.42625 0.02877,0.275 0.01582,-0.15125 0.01582,-0.39875 0,-0.55 z m 1.633245,0.5279002 c 0,-0.020167 -0.099,0.014528 -0.22,0.0771 -0.121,0.062572 -0.22,0.1302664 -0.22,0.1504331 0,0.020167 0.099,-0.014528 0.22,-0.0771 0.121,-0.062572 0.22,-0.1302664 0.22,-0.1504331 z m -0.22,-0.073333 c 0,-0.020167 -0.099,0.014528 -0.22,0.0771 -0.121,0.062572 -0.22,0.1302665 -0.22,0.1504331 0,0.020167 0.099,-0.014528 0.22,-0.0771 0.121,-0.062572 0.22,-0.1302665 0.22,-0.1504331 z m 0.733334,-0.22 c 0,-0.020167 -0.099,0.014528 -0.22,0.0771 -0.121,0.062572 -0.22,0.1302665 -0.22,0.1504331 0,0.020167 0.099,-0.014528 0.22,-0.0771 0.121,-0.062572 0.22,-0.1302665 0.22,-0.1504331 z m -0.22,-0.073333 c 0,-0.020167 -0.099,0.014528 -0.22,0.0771 -0.121,0.062571 -0.22,0.1302664 -0.22,0.1504331 0,0.020167 0.099,-0.014528 0.22,-0.0771 0.121,-0.062571 0.22,-0.1302664 0.22,-0.1504331 z m 0.733333,-0.22 c 0,-0.020167 -0.099,0.014528 -0.22,0.0771 -0.121,0.062571 -0.22,0.1302664 -0.22,0.1504331 0,0.020167 0.099,-0.014528 0.22,-0.0771 0.121,-0.062571 0.22,-0.1302664 0.22,-0.1504331 z m -0.07333,-0.145881 c 0,-0.020167 -0.132,0.030675 -0.293334,0.1129808 -0.161333,0.082306 -0.293333,0.1661475 -0.293333,0.1863142 0,0.020167 0.132,-0.030675 0.293333,-0.1129809 C 12.92592,5.831028 13.05792,5.7471865 13.05792,5.7270199 Z m 0.586666,-0.1474523 c 0,-0.020167 -0.099,0.014528 -0.22,0.0771 -0.121,0.062572 -0.22,0.1302664 -0.22,0.1504331 0,0.020167 0.099,-0.014528 0.22,-0.0771 0.121,-0.062572 0.22,-0.1302664 0.22,-0.1504331 z M 13.57125,5.4329002 c 0,-0.020167 -0.099,0.014528 -0.22,0.0771 -0.121,0.062571 -0.22,0.1302664 -0.22,0.1504331 0,0.020167 0.099,-0.014528 0.22,-0.0771 0.121,-0.062571 0.22,-0.1302664 0.22,-0.1504331 z M 10.46967,5.0883333 c -0.01748,-0.09075 -0.03178,-0.0165 -0.03178,0.165 0,0.1815 0.0143,0.25575 0.03178,0.165 0.01748,-0.09075 0.01748,-0.23925 0,-0.33 z m 3.834913,0.1253525 c 0,-0.020167 -0.132,0.030675 -0.293333,0.1129809 -0.161333,0.082306 -0.293333,0.1661475 -0.293333,0.1863141 0,0.020167 0.132,-0.030675 0.293333,-0.1129808 0.161333,-0.082306 0.293333,-0.1661475 0.293333,-0.1863142 z m -0.22,-0.074119 c 0,-0.020167 -0.099,0.014528 -0.22,0.0771 -0.121,0.062571 -0.22,0.1302664 -0.22,0.1504331 0,0.020167 0.099,-0.014528 0.22,-0.0771 0.121,-0.062571 0.22,-0.1302664 0.22,-0.1504331 z m 0.425838,-0.1448407 c -0.02258,-0.022578 -0.06358,0.018122 -0.09112,0.090444 -0.0398,0.1045146 -0.03137,0.1129379 0.04105,0.041052 0.05012,-0.049744 0.07265,-0.1089176 0.05007,-0.131496 z M 10.46967,4.355 C 10.45219,4.26425 10.43789,4.3385 10.43789,4.52 c 0,0.1815 0.0143,0.25575 0.03178,0.165 0.01748,-0.09075 0.01748,-0.23925 0,-0.33 z m 4.054913,0.3985037 c 0,-0.032906 -0.14025,-0.1370679 -0.311666,-0.2314702 -0.35407,-0.1949924 -0.347052,-0.1628787 0.0216,0.09884 0.299889,0.2129031 0.290068,0.2084127 0.290068,0.1326304 z M 13.79125,4.4852165 c 0,-0.019131 -0.099,-0.085978 -0.22,-0.1485498 -0.275798,-0.1426208 -0.292486,-0.080675 -0.01833,0.068055 0.230454,0.1250234 0.238333,0.1276845 0.238333,0.080495 z m 0.07333,-0.1466666 c 0,-0.019131 -0.099,-0.085978 -0.22,-0.1485499 -0.275798,-0.1426208 -0.292485,-0.080675 -0.01833,0.068055 0.230454,0.1250233 0.238333,0.1276845 0.238333,0.080495 z M 13.277917,4.1914904 c 0,-0.019347 -0.132,-0.1025176 -0.293334,-0.1848237 C 12.82325,3.9243605 12.69125,3.8734015 12.69125,3.8934243 c 0,0.020023 0.12375,0.1017351 0.275,0.1815827 0.311153,0.1642632 0.311667,0.1644553 0.311667,0.1164834 z M 10.471612,3.1816667 C 10.456172,3.01025 10.44354,3.1505 10.44354,3.4933333 c 0,0.3428334 0.01263,0.4830834 0.02807,0.3116667 0.01544,-0.1714167 0.01544,-0.4519167 0,-0.6233333 z m 2.879638,0.8631571 c 0,-0.019347 -0.132,-0.1025177 -0.293333,-0.1848238 -0.161334,-0.082306 -0.293334,-0.1332652 -0.293334,-0.1132423 0,0.020023 0.12375,0.101735 0.275,0.1815827 0.311153,0.1642631 0.311667,0.1644553 0.311667,0.1164834 z M 12.617917,3.8252165 c 0,-0.019131 -0.099,-0.085978 -0.22,-0.1485498 -0.275798,-0.1426208 -0.292486,-0.080675 -0.01833,0.068055 0.230454,0.1250234 0.238334,0.1276845 0.238334,0.080495 z m 0.07333,-0.1466666 c 0,-0.019131 -0.099,-0.085978 -0.22,-0.1485499 -0.275798,-0.1426208 -0.292486,-0.080675 -0.01833,0.068055 0.230454,0.1250233 0.238333,0.1276845 0.238333,0.080495 z M 12.104583,3.5318832 c 0,-0.019131 -0.099,-0.085978 -0.22,-0.1485499 -0.275798,-0.1426207 -0.292485,-0.080675 -0.01833,0.068055 0.230454,0.1250233 0.238333,0.1276845 0.238333,0.080495 z m 0.07333,-0.1466667 c 0,-0.019131 -0.099,-0.085978 -0.22,-0.1485498 -0.275798,-0.1426208 -0.292486,-0.080675 -0.01833,0.068055 0.230454,0.1250234 0.238334,0.1276845 0.238334,0.080495 z M 11.59125,3.2381571 c 0,-0.019347 -0.132,-0.1025176 -0.293333,-0.1848238 -0.161334,-0.082306 -0.293334,-0.1332651 -0.293334,-0.1132423 0,0.020023 0.12375,0.1017351 0.275,0.1815827 0.311153,0.1642632 0.311667,0.1644553 0.311667,0.1164834 z m 0.07333,-0.1462739 c 0,-0.019131 -0.099,-0.085978 -0.22,-0.1485499 -0.275798,-0.1426207 -0.292485,-0.080675 -0.01833,0.068055 0.230454,0.1250233 0.238333,0.1276845 0.238333,0.080495 z M 10.93125,2.8725801 c 0,-0.018747 -0.07425,-0.070068 -0.165,-0.1140455 l -0.165,-0.079959 0.14235,0.1140455 c 0.149619,0.1198698 0.18765,0.1360752 0.18765,0.079959 z m 0.22,-0.07403 c 0,-0.06379 -0.430834,-0.2585958 -0.564692,-0.2553311 -0.07259,0.00177 -0.0058,0.048226 0.148482,0.1032345 0.154251,0.055009 0.300001,0.1195601 0.323889,0.1434478 0.05235,0.052348 0.09232,0.056093 0.09232,0.00865 z"
         id="path23" /></g></g></svg>
