<svg xmlns="http://www.w3.org/2000/svg" width="24" height="24"><defs><radialGradient id="a" cx="0" cy="0" r="1" fx="0" fy="0" gradientTransform="matrix(0 16.5 -16.5 0 9 .75)" gradientUnits="userSpaceOnUse" spreadMethod="pad"><stop offset="0" style="stop-opacity:1;stop-color:#a4a4a4"/><stop offset="1" style="stop-opacity:1;stop-color:#626262"/></radialGradient></defs><g style="fill:none"><path d="M7.195.836c.09 0 .176-.012.258-.035a23.86 23.86 0 0 1 3.231.008 10.26 10.26 0 0 1 2.836.636c1.519.625 2.558 1.711 3.121 3.254.316.93.507 1.887.566 2.867a21.227 21.227 0 0 1-.086 3.696 8.976 8.976 0 0 1-.672 2.488c-.637 1.383-1.672 2.336-3.101 2.859a11.693 11.693 0 0 1-3.575.618 15.998 15.998 0 0 1-4.089-.309c-2.481-.551-4.016-2.066-4.594-4.543a14.244 14.244 0 0 1-.336-3.383c-.027-1.215.101-2.41.387-3.59.609-2.312 2.078-3.746 4.406-4.3A10.27 10.27 0 0 1 7.195.836Z" style="fill:url(#a);fill-rule:evenodd;stroke:none" transform="matrix(1.33333 0 0 1.33333 0 0)"/></g><g style="fill:none"><g transform="matrix(.3111 0 0 .3111 23.034 -1.968)"><rect width="14.609" height="14.609" x="-43.222" y="21.254" rx=".769" ry=".769" style="opacity:1;fill:#eef1f4;fill-opacity:1;stroke-linecap:round;stroke-linejoin:round;stroke-dashoffset:1.89038;stroke-opacity:.974255;paint-order:stroke markers fill"/><rect width="14.609" height="14.609" x="-42.32" y="21.254" rx=".769" ry=".769" style="opacity:1;fill:#bfc8d5;fill-opacity:1;stroke-linecap:round;stroke-linejoin:round;stroke-dashoffset:1.89038;stroke-opacity:.974255;paint-order:stroke markers fill"/><rect width="14.609" height="14.609" x="-42.728" y="21.254" rx=".769" ry=".769" style="opacity:1;fill:#dce2e9;fill-opacity:1;stroke-linecap:round;stroke-linejoin:round;stroke-dashoffset:1.89038;stroke-opacity:.974255;paint-order:stroke markers fill"/></g><g transform="matrix(0 -.3111 .3111 0 22.97 -1.968)"><rect width="2.591" height="2.591" x="-28.695" y="-39.977" class="cls-15" rx=".332" style="fill:#5a6271;fill-opacity:1;stroke-width:.110659"/><rect width="2.591" height="2.591" x="-28.695" y="-33.134" class="cls-15" rx=".332" style="fill:#5a6271;fill-opacity:1;stroke-width:.110659"/></g><path d="M-45.418 34.71v23.808A9.999 9.999 0 0 0-35.396 68.54a10 10 0 0 0 10.023-10.022V34.71Z" style="opacity:1;fill:#02679a;fill-opacity:1;stroke-linecap:round;stroke-linejoin:round;stroke-dashoffset:1.89038;stroke-opacity:.974255;paint-order:stroke markers fill" transform="matrix(.3111 0 0 .3111 23.012 -1.968)"/><path d="M-32.33 47.479h-1.558v1.559h.476v1.409l-1.694 1.693v-5.335h.82l-1.123-1.943-1.122 1.943h.82v7.167l-1.561-1.56v-1.426a.89.89 0 1 0-.607 0v1.677l.391.39 1.777 1.778v.75a1.42 1.42 0 1 0 .607 0V53l1.962-1.955.341-.342v-1.66h.476z" class="cls-6" style="fill:#fff;stroke-width:.110659" transform="matrix(.3111 0 0 .3111 23.012 -1.968)"/></g><path d="M18.464 11.416a8.5 8.5 0 0 0-8.5 8.5 8.5 8.5 0 0 0 .567 3.049c.834.054 1.673.06 2.515.016a15.615 15.615 0 0 0 4.764-.825c1.906-.699 3.286-1.97 4.137-3.812a11.88 11.88 0 0 0 .892-3.32c.086-.765.138-1.53.16-2.295a8.5 8.5 0 0 0-4.535-1.313z" style="fill:#51a2da;fill-opacity:1;fill-rule:evenodd;stroke-width:.472223;paint-order:fill markers stroke"/><path d="M20.486 15.115c-1.146 0-2.159.862-2.299 1.994a2.16 2.16 0 0 0-.013.25v4.637c.436-.184.842-.4 1.219-.648l.003-.881 1.07-.004h.007c.215-.217.416-.449.603-.695a.582.582 0 0 0-.619-.532l-1.06.008v-1.88c.002-.544.518-1.024 1.09-1.024.571 0 1.175.286 1.175 1.025 0 .106-.002.167-.008.205a.613.613 0 0 0 .319.659c.264-.629.47-1.274.623-1.932-.422-.72-1.249-1.182-2.11-1.182zm-2.85 4.127-.86.006c-1.546-.014-2.776 1.197-2.82 2.736 0 .326.056.638.163.928.428-.036.854-.09 1.276-.162a1.493 1.493 0 0 1-.217-.766c.014-.909.742-1.486 1.592-1.511l.867-.008z" style="fill:#fff;stroke-width:.999999"/></svg>