<svg xmlns="http://www.w3.org/2000/svg" xml:space="preserve" width="24" height="24"><defs><linearGradient id="b" gradientUnits="userSpaceOnUse"><stop offset="0" stop-color="#c0bfbc"/><stop offset=".637" stop-color="#f6f5f4"/><stop offset="1" stop-color="#c0bfbc"/></linearGradient><linearGradient id="c" x1="189.883" x2="177.271" y1="407.112" y2="-526.206" gradientTransform="matrix(.05793 0 0 .05793 35 1)" gradientUnits="userSpaceOnUse" spreadMethod="pad"><stop offset="0" style="stop-opacity:1;stop-color:#ffe287"/><stop offset="1" style="stop-opacity:1;stop-color:#fff"/></linearGradient><linearGradient id="d" x1="46" x2="82" y1="260" y2="260" gradientTransform="matrix(.0993 0 0 .11171 39.645 -12.24)" gradientUnits="userSpaceOnUse" spreadMethod="pad"><stop offset="0" style="stop-opacity:1;stop-color:#e5a50a"/><stop offset=".125" style="stop-opacity:1;stop-color:#f5c211"/><stop offset=".875" style="stop-opacity:1;stop-color:#f5c211"/><stop offset="1" style="stop-opacity:1;stop-color:#e5a50a"/></linearGradient><filter id="a" width="1" height="1" x="0" y="0"><feColorMatrix in="SourceGraphic" values="0 0 0 0 1 0 0 0 0 1 0 0 0 0 1 0 0 0 1 0"/></filter></defs><path d="M43.593 1.115c.12 0 .235-.016.344-.047a31.814 31.814 0 0 1 4.308.01 13.68 13.68 0 0 1 3.782.849c2.025.833 3.41 2.281 4.161 4.338.421 1.24.676 2.516.755 3.823a28.303 28.303 0 0 1-.115 4.928 11.968 11.968 0 0 1-.896 3.317c-.85 1.844-2.23 3.115-4.135 3.812-1.542.522-3.13.798-4.766.824a21.331 21.331 0 0 1-5.452-.412c-3.308-.734-5.355-2.754-6.126-6.057a18.991 18.991 0 0 1-.448-4.51c-.036-1.62.135-3.214.516-4.787.812-3.083 2.771-4.995 5.875-5.734a13.692 13.692 0 0 1 2.197-.354Z" style="fill:url(#c);fill-rule:evenodd;stroke:none;stroke-width:1.33333" transform="translate(-34)"/><path d="M42.073 4.5h7.854A1.07 1.07 0 0 1 51 5.573v12.854a1.07 1.07 0 0 1-1.073 1.073h-7.854A1.07 1.07 0 0 1 41 18.427V5.573A1.07 1.07 0 0 1 42.073 4.5z" style="fill:#b5835a;fill-opacity:1;fill-rule:nonzero;stroke:none;stroke-width:1.33333" transform="translate(-34)"/><path d="M44.661 15.016h2.678c.249 0 .448.203.448.448v2.681a.448.448 0 0 1-.448.448H44.66a.448.448 0 0 1-.448-.448v-2.681c0-.245.199-.448.448-.448z" style="fill:url(#d);stroke:none;stroke-width:1.33333" transform="translate(-34)"/><path d="M44.912 14.588h2.15c.35 0 .631.287.631.636v2.145a.63.63 0 0 1-.63.636h-2.151a.63.63 0 0 1-.63-.636v-2.145c0-.35.28-.636.63-.636z" style="fill:#d0b339;fill-opacity:1;fill-rule:nonzero;stroke:none;stroke-width:1.33333" transform="translate(-34)"/><path d="M44.927 14.521a.71.71 0 0 0-.714.714v2.145a.71.71 0 0 0 .714.713h2.146a.71.71 0 0 0 .714-.713v-2.145a.71.71 0 0 0-.714-.714zm1.786.359c.199 0 .36.156.36.355a.36.36 0 0 1-.36.358.355.355 0 0 1-.353-.358.35.35 0 0 1 .353-.355Zm-1.073.713c.396 0 .72.319.72.714a.718.718 0 0 1-1.433 0c0-.395.324-.714.713-.714z" style="fill:#f8e45c;fill-opacity:1;fill-rule:nonzero;stroke:none;stroke-width:1.33333" transform="translate(-34)"/><path d="M42.073 5.573v7.14h7.854v-7.14Zm.714.714h6.426V12h-6.426z" style="fill:#fff;fill-opacity:1;fill-rule:nonzero;stroke:none;stroke-width:1.33333" transform="translate(-34)"/><path d="M45.64 5.573h.719V12h-.719ZM43.495 11.068c.229 0 .412.187.412.416v1.656a.414.414 0 1 1-.828 0v-1.656c0-.23.186-.416.416-.416zM45.161 11.068c.23 0 .418.187.418.416v1.656a.414.414 0 1 1-.83 0v-1.656c0-.23.183-.416.412-.416zM46.833 11.068c.23 0 .412.187.412.416v1.656a.414.414 0 1 1-.829 0v-1.656c0-.23.188-.416.417-.416zM48.5 11.068c.235 0 .417.187.417.416v1.656a.415.415 0 1 1-.829 0v-1.656c0-.23.183-.416.412-.416z" style="fill:#ccc;fill-opacity:1;fill-rule:nonzero;stroke:none;stroke-width:1.33333" transform="translate(-34)"/></svg>