<svg xmlns="http://www.w3.org/2000/svg" width="24" height="24"><defs><radialGradient id="a" cx="0" cy="0" r="1" gradientTransform="matrix(0 22 -22 0 12 1)" gradientUnits="userSpaceOnUse"><stop stop-color="#FAFAFA"/><stop offset="1" stop-color="#B0B0B0"/></radialGradient></defs><path fill="url(#a)" fill-rule="evenodd" d="M9.94 1.068c-.11.032-.224.047-.344.046-.742.06-1.476.178-2.2.355-3.106.738-5.064 2.65-5.876 5.736a18.49 18.49 0 0 0-.515 4.786c-.03 1.522.118 3.025.447 4.51.774 3.3 2.816 5.32 6.128 6.058 1.8.37 3.617.507 5.452.412a15.624 15.624 0 0 0 4.766-.825c1.906-.7 3.284-1.97 4.135-3.812a11.88 11.88 0 0 0 .893-3.32c.184-1.638.222-3.28.115-4.924a14.269 14.269 0 0 0-.756-3.824c-.746-2.06-2.133-3.506-4.158-4.34a13.536 13.536 0 0 0-3.78-.847 31.637 31.637 0 0 0-4.307-.011z" clip-rule="evenodd" style="fill:url(#a);stroke-width:1"/><g style="stroke-width:3.73331"><path fill="#3f3f3f" d="M71.992 4a2 2 0 0 0-.887.21l-24 12A2 2 0 0 0 46 18v27a2 2 0 0 0 1.047 1.758l24 13a2 2 0 0 0 1.906 0l24-13A2 2 0 0 0 98 45V19a2 2 0 0 0-1.047-1.758l-24-13A2 2 0 0 0 71.992 4Z" style="stroke-width:3.73331" transform="matrix(.26786 0 0 .26786 -7.286 3.429)"/><path fill="#5891d9" d="M71.975 13A2 2 0 0 0 70 15v16a2 2 0 0 0 1.065 1.768l17 9C89.397 42.472 91 41.507 91 40V24a2 2 0 0 0-1.064-1.768l-17-9a2 2 0 0 0-.961-.232Z" style="stroke-width:3.73331" transform="matrix(.26786 0 0 .26786 -7.286 3.429)"/><path fill="#8ed599" d="M62.975 18A2 2 0 0 0 61 20v16a2 2 0 0 0 1.065 1.768l17 9C80.397 47.472 82 46.507 82 45V29a2 2 0 0 0-1.064-1.768l-17-9a2 2 0 0 0-.961-.232Z" style="stroke-width:3.73331" transform="matrix(.26786 0 0 .26786 -7.286 3.429)"/><path fill="#fff" d="m78 34-17 1.063V36a2 2 0 0 0 1.065 1.768l17 9C80.395 47.472 82 46.507 82 45v-7z" style="stroke-width:3.73331" transform="matrix(.26786 0 0 .26786 -7.286 3.429)"/><path fill="#d75a86" d="M54.975 22A2 2 0 0 0 53 24v16a2 2 0 0 0 1.065 1.768l17 9C72.397 51.472 74 50.507 74 49V33a2 2 0 0 0-1.064-1.768l-17-9a2 2 0 0 0-.961-.232Z" style="stroke-width:3.73331" transform="matrix(.26786 0 0 .26786 -7.286 3.429)"/><path fill="#fff" d="M84 27c0 1 1 3 2 3s2-1 2-1-1.592-1.15-2-2c-.48-1 0-3 0-3s-2 1-2 3zm-26 7-5 .334V40a2 2 0 0 0 1.065 1.768l15.252 8.074z" style="stroke-width:3.73331" transform="matrix(.26786 0 0 .26786 -7.286 3.429)"/></g></svg>