<svg xmlns="http://www.w3.org/2000/svg" xmlns:xlink="http://www.w3.org/1999/xlink" xml:space="preserve" width="24" height="24" fill="none"><defs><linearGradient id="d" x1="0" x2="1" y1="0" y2="0" gradientTransform="rotate(-27.533 959.832 -107.303) scale(440.04492)" gradientUnits="userSpaceOnUse" spreadMethod="pad"><stop offset="0" style="stop-opacity:.99607843;stop-color:#fff"/><stop offset=".341" style="stop-opacity:1;stop-color:#fff"/><stop offset="1" style="stop-opacity:.99607843;stop-color:#fff"/></linearGradient><linearGradient id="j" x1="0" x2="1" y1="0" y2="0" gradientTransform="rotate(-90 277.932 105.877) scale(204.88353)" gradientUnits="userSpaceOnUse" spreadMethod="pad"><stop offset="0" style="stop-opacity:1;stop-color:#fff"/><stop offset=".209" style="stop-opacity:1;stop-color:#fff"/><stop offset="1" style="stop-opacity:0;stop-color:#fff"/></linearGradient><linearGradient id="b" x1="0" x2="1" y1="0" y2="0" gradientTransform="translate(286.883 536.985) scale(119.59705)" gradientUnits="userSpaceOnUse" spreadMethod="pad"><stop offset="0" style="stop-opacity:1;stop-color:#fff"/><stop offset=".875" style="stop-opacity:0;stop-color:#fff"/><stop offset="1" style="stop-opacity:0;stop-color:#fff"/></linearGradient><linearGradient id="h" x1="0" x2="1" y1="0" y2="0" gradientTransform="scale(77.80141) rotate(46.017 -4.872 6.051)" gradientUnits="userSpaceOnUse" spreadMethod="pad"><stop offset="0" style="stop-opacity:1;stop-color:#fff"/><stop offset=".536" style="stop-opacity:1;stop-color:#fff"/><stop offset="1" style="stop-opacity:0;stop-color:#fff"/></linearGradient><linearGradient id="l" x1="0" x2="1" y1="0" y2="0" gradientTransform="scale(-158.43383) rotate(49.874 .59 -4.16)" gradientUnits="userSpaceOnUse" spreadMethod="pad"><stop offset="0" style="stop-opacity:0;stop-color:#fff"/><stop offset=".077" style="stop-opacity:0;stop-color:#fff"/><stop offset="1" style="stop-opacity:.99607843;stop-color:#fff"/></linearGradient><linearGradient xlink:href="#b" id="a" x1="0" x2="1" y1="0" y2="0" gradientTransform="translate(286.883 536.985) scale(119.59705)" gradientUnits="userSpaceOnUse" spreadMethod="pad"/><linearGradient xlink:href="#d" id="c" x1="0" x2="1" y1="0" y2="0" gradientTransform="rotate(-27.533 959.832 -107.303) scale(440.04492)" gradientUnits="userSpaceOnUse" spreadMethod="pad"/><linearGradient xlink:href="#h" id="g" x1="0" x2="1" y1="0" y2="0" gradientTransform="scale(77.80141) rotate(46.017 -4.872 6.051)" gradientUnits="userSpaceOnUse" spreadMethod="pad"/><linearGradient xlink:href="#j" id="i" x1="0" x2="1" y1="0" y2="0" gradientTransform="rotate(-90 277.932 105.877) scale(204.88353)" gradientUnits="userSpaceOnUse" spreadMethod="pad"/><linearGradient xlink:href="#l" id="k" x1="0" x2="1" y1="0" y2="0" gradientTransform="scale(-158.43383) rotate(49.874 .59 -4.16)" gradientUnits="userSpaceOnUse" spreadMethod="pad"/><radialGradient id="m" cx="0" cy="0" r="1" fx="0" fy="0" gradientTransform="matrix(0 11 -11 0 -22 1)" gradientUnits="userSpaceOnUse" spreadMethod="pad"><stop offset="0" style="stop-color:#f2f2f2;stop-opacity:1"/><stop offset="1" style="stop-color:#666;stop-opacity:1"/></radialGradient><radialGradient id="f" cx="0" cy="0" r="1" fx="0" fy="0" gradientTransform="matrix(-547.24042 -131.02512 152.52774 -637.04834 566.544 160.383)" gradientUnits="userSpaceOnUse" spreadMethod="pad"><stop offset="0" style="stop-opacity:1;stop-color:#fff"/><stop offset=".212" style="stop-opacity:1;stop-color:#fff"/><stop offset=".688" style="stop-opacity:1;stop-color:#fff"/><stop offset="1" style="stop-opacity:.99607843;stop-color:#fff"/></radialGradient><radialGradient xlink:href="#f" id="e" cx="0" cy="0" r="1" fx="0" fy="0" gradientTransform="matrix(-547.24042 -131.02512 152.52774 -637.04834 566.544 160.383)" gradientUnits="userSpaceOnUse" spreadMethod="pad"/><clipPath id="n" clipPathUnits="userSpaceOnUse"/></defs><path d="M-24.407 1.115c.12 0 .235-.016.344-.047a31.813 31.813 0 0 1 4.308.01 13.68 13.68 0 0 1 3.781.849c2.026.833 3.41 2.281 4.162 4.338.42 1.24.676 2.516.754 3.823a28.303 28.303 0 0 1-.114 4.928 11.968 11.968 0 0 1-.896 3.317c-.85 1.844-2.23 3.115-4.135 3.812-1.543.522-3.13.798-4.767.824a21.331 21.331 0 0 1-5.452-.412c-3.308-.734-5.354-2.754-6.125-6.057a18.991 18.991 0 0 1-.448-4.51 18.502 18.502 0 0 1 .516-4.787c.812-3.083 2.77-4.995 5.875-5.734a13.692 13.692 0 0 1 2.197-.354z" style="fill:url(#m);fill-rule:evenodd;stroke:none;stroke-width:1.33333" transform="translate(34)"/><g style="stroke-width:1.04358"><path d="M-38.173 27.654A7.81 7.81 0 0 1-46 19.827 7.81 7.81 0 0 1-38.173 12a7.81 7.81 0 0 1 7.827 7.827 7.81 7.81 0 0 1-7.827 7.827z" style="fill:#2c363f;fill-opacity:1;fill-rule:nonzero;stroke:none;stroke-width:.232362" transform="matrix(.95824 0 0 .95824 48.579 -6.999)"/><path d="M-38.176 25.95a6.112 6.112 0 0 1-6.125-6.126 6.111 6.111 0 0 1 6.124-6.125h.001a6.112 6.112 0 0 1 6.125 6.124v.001a6.112 6.112 0 0 1-6.125 6.125z" style="fill:#2e5d89;fill-opacity:1;fill-rule:nonzero;stroke:none;stroke-width:.232362" transform="matrix(.95824 0 0 .95824 48.579 -6.999)"/><path d="M-38.175 24.42a4.584 4.584 0 0 1-4.594-4.595 4.584 4.584 0 0 1 4.594-4.594 4.584 4.584 0 0 1 4.594 4.594 4.583 4.583 0 0 1-4.594 4.594z" style="fill:#274f74;fill-opacity:1;fill-rule:nonzero;stroke:none;stroke-width:.232362" transform="matrix(.95824 0 0 .95824 48.579 -6.999)"/><path d="M-38.175 13.702a6.108 6.108 0 0 0-6.125 6.125 6.114 6.114 0 0 0 6.125 6.125 6.114 6.114 0 0 0 6.126-6.125 6.113 6.113 0 0 0-6.126-6.125m0 .437a5.676 5.676 0 0 1 5.688 5.688 5.676 5.676 0 0 1-5.688 5.688 5.676 5.676 0 0 1-5.687-5.688 5.676 5.676 0 0 1 5.687-5.688" style="fill:#197cf1;fill-opacity:1;fill-rule:nonzero;stroke:none;stroke-width:.232362" transform="matrix(.95824 0 0 .95824 48.579 -6.999)"/><path d="M-38.175 14.721a5.095 5.095 0 0 0-5.104 5.105 5.092 5.092 0 0 0 5.104 5.105 5.093 5.093 0 0 0 5.105-5.105 5.092 5.092 0 0 0-5.105-5.105m0 1.021a4.072 4.072 0 0 1 4.085 4.084 4.077 4.077 0 0 1-4.085 4.084 4.074 4.074 0 0 1-4.083-4.084 4.074 4.074 0 0 1 4.083-4.084" style="fill:#197cf1;fill-opacity:1;fill-rule:nonzero;stroke:none;stroke-width:.232362" transform="matrix(.95824 0 0 .95824 48.579 -6.999)"/><path d="M-38.175 16.412a3.41 3.41 0 0 0-1.38.292l.795 1.988.534-.142.872-2.035a3.43 3.43 0 0 0-.82-.103m1.229.232-.843 1.966.48.277 2.055-.822a3.403 3.403 0 0 0-1.692-1.422m-2.991.26a3.402 3.402 0 0 0-1.421 1.692l1.967.844.277-.48zm4.882 1.54-1.988.796.141.534 2.035.872a3.415 3.415 0 0 0-.189-2.201m-6.433.56a3.426 3.426 0 0 0-.102.82c0 .493.106.96.292 1.381l1.987-.795-.14-.533zm4.526 1.207-.277.48.822 2.056c.65-.39 1.15-.986 1.422-1.693zm-2.082.552-2.056.822c.39.65.986 1.15 1.693 1.422l.843-1.968zm1.452.195-.534.141-.873 2.035a3.398 3.398 0 0 0 2.201-.19z" style="fill:#197cf1;fill-opacity:1;fill-rule:nonzero;stroke:none;stroke-width:.232362" transform="matrix(.95824 0 0 .95824 48.579 -6.999)"/><path d="M-37.443 20.383a.918.918 0 1 1-1.458-1.118.918.918 0 0 1 1.458 1.118z" style="fill:#2c3e50;fill-opacity:1;fill-rule:nonzero;stroke:none;stroke-width:.232362" transform="matrix(.95824 0 0 .95824 48.579 -6.999)"/><path d="M8.783 7.404a1.38 1.38 0 1 0 0 2.759 1.38 1.38 0 0 0 0-2.759m1.838 2.527a.689.689 0 1 0 0 1.378.689.689 0 0 0 0-1.378" clip-path="url(#n)" style="opacity:.25;fill:#fff;fill-opacity:1;fill-rule:nonzero;stroke:none;stroke-width:.232362" transform="matrix(.95824 0 0 .95824 .501 .501)"/></g></svg>