<svg xmlns="http://www.w3.org/2000/svg" xmlns:xlink="http://www.w3.org/1999/xlink" xml:space="preserve" id="svg154" width="24" height="24" fill="none" version="1.1"><defs id="defs152"><linearGradient id="linearGradient10349"><stop id="stop10345" offset="0" style="stop-color:#c04242;stop-opacity:1"/><stop id="stop10347" offset="1" style="stop-color:#ce9292;stop-opacity:1"/></linearGradient><linearGradient xlink:href="#linearGradient10349" id="linearGradient10351" x1="46.165" x2="46.676" y1="95.767" y2="-5.227" gradientTransform="matrix(.24444 0 0 .24444 -.222 -.222)" gradientUnits="userSpaceOnUse"/><linearGradient id="linearGradient8792"><stop id="stop8790" offset="0" style="stop-color:#000;stop-opacity:1"/></linearGradient><style id="current-color-scheme" type="text/css">.ColorScheme-Text{color:#31363b}.ColorScheme-Background{color:#eff0f1}.ColorScheme-Highlight{color:#3daee9}.ColorScheme-ViewText{color:#31363b}.ColorScheme-ViewBackground{color:#fcfcfc}.ColorScheme-ViewHover{color:#93cee9}.ColorScheme-ViewFocus{color:#3daee9}.ColorScheme-ButtonText{color:#31363b}.ColorScheme-ButtonBackground{color:#eff0f1}.ColorScheme-ButtonHover{color:#93cee9}.ColorScheme-ButtonFocus{color:#3daee9}</style></defs><path id="path6" d="M12 1C2 1 1 6 1 12c0 8 3 11 11 11s11-3 11-11c0-6-1-11-11-11Z" style="font-variation-settings:normal;display:inline;opacity:1;vector-effect:none;fill:url(#linearGradient10351);fill-opacity:1;stroke-width:1.11627;stroke-linecap:butt;stroke-linejoin:miter;stroke-miterlimit:4;stroke-dasharray:none;stroke-dashoffset:0;stroke-opacity:1;-inkscape-stroke:none;stop-color:#000;stop-opacity:1"/><g id="g27136" transform="matrix(.22889 0 0 .22889 -68.047 -41.346)"><path id="path828" fill="#dcdcdc" d="M354.718 206.596a2.064 2.064 0 0 0-2.523 1.462l-10.835 41.978a2.15 2.15 0 0 0 1.47 2.58l24.822 6.907a2.064 2.064 0 0 0 2.53-1.476l10.827-41.978a2.135 2.135 0 0 0-1.469-2.58" style="stroke-width:7.16587"/><path id="path830" fill="#db6565" d="m363.582 223.866-9.03 7.352 4.272 11.057 9.029-7.345" style="stroke-width:7.16587"/><path id="path832" fill="#f9f9f9" d="M320.078 212.637a2.15 2.15 0 0 0-1.691 2.436l7.266 42.802a2.078 2.078 0 0 0 2.393 1.698l25.303-4.636a2.121 2.121 0 0 0 1.67-2.436l-7.267-42.795a2.064 2.064 0 0 0-2.379-1.698" style="stroke-width:7.16587"/><path id="path834" fill="#d74949" d="M332.604 228.38a3.655 3.655 0 0 0-2.938 4.257c1.16 5.919 9.215 9.273 9.215 9.273s6.213-6.12 5.052-12.04a3.662 3.662 0 0 0-4.321-2.851 3.676 3.676 0 0 0-2.988 3.34 3.69 3.69 0 0 0-4.027-1.979z" style="stroke-width:7.16587"/></g></svg>