<svg xmlns="http://www.w3.org/2000/svg" xmlns:bx="https://boxy-svg.com" xmlns:xlink="http://www.w3.org/1999/xlink" xml:space="preserve" id="svg5" width="24" height="24" version="1.1" viewBox="0 0 6.35 6.35"><defs id="defs2"><linearGradient id="linearGradient3628"><stop id="stop3624" offset="0" style="stop-color:#3683cc;stop-opacity:1"/><stop id="stop3626" offset="1" style="stop-color:#78adf9;stop-opacity:1"/></linearGradient><linearGradient xlink:href="#linearGradient3628" id="linearGradient18" x1="-79.672" x2="-79.672" y1="145.246" y2="55.004" gradientTransform="matrix(.03097 0 0 .02977 6.626 -.05)" gradientUnits="userSpaceOnUse"/><radialGradient id="radialGradient868-3" cx="0" cy="0" r="1" fx="0" fy="0" gradientTransform="matrix(0 16.5 -16.5 0 9 .75)" gradientUnits="userSpaceOnUse" spreadMethod="pad"><stop id="stop864-6" offset="0" style="stop-opacity:1;stop-color:#fafafa"/><stop id="stop866-7" offset="1" style="stop-opacity:1;stop-color:silver"/></radialGradient><style id="current-color-scheme" type="text/css">.ColorScheme-Text{color:#31363b}.ColorScheme-Background{color:#eff0f1}.ColorScheme-Highlight{color:#3daee9}.ColorScheme-ViewText{color:#31363b}.ColorScheme-ViewBackground{color:#fcfcfc}.ColorScheme-ViewHover{color:#93cee9}.ColorScheme-ViewFocus{color:#3daee9}.ColorScheme-ButtonText{color:#31363b}.ColorScheme-ButtonBackground{color:#eff0f1}.ColorScheme-ButtonHover{color:#93cee9}.ColorScheme-ButtonFocus{color:#3daee9}</style></defs><g id="g854" transform="matrix(.35278 0 0 .35278 0 0)"><g id="g856"><g id="g862"><path id="path870" d="M7.195.836c.09 0 .176-.012.258-.035a23.86 23.86 0 0 1 3.231.008 10.26 10.26 0 0 1 2.836.636c1.519.625 2.558 1.711 3.121 3.254.316.93.507 1.887.566 2.867a21.227 21.227 0 0 1-.086 3.696 8.976 8.976 0 0 1-.672 2.488c-.637 1.383-1.672 2.336-3.101 2.859a11.693 11.693 0 0 1-3.575.618 15.998 15.998 0 0 1-4.089-.309c-2.481-.551-4.016-2.066-4.594-4.543a14.244 14.244 0 0 1-.336-3.383c-.027-1.211.101-2.41.387-3.59.609-2.312 2.078-3.746 4.406-4.3A10.27 10.27 0 0 1 7.195.836Z" style="fill:url(#radialGradient868-3);fill-rule:evenodd;stroke:none"/></g></g></g><g id="g19" style="stroke-width:1.0768" transform="matrix(.92876 0 0 .9286 .226 .227)"><g id="g18" style="stroke-width:1.05708" transform="matrix(1.01865 0 0 1.01865 .025 -.009)"><path id="rect315" d="M1.997 1.574h.549v.518h-.549z" style="fill:#79b1fe;fill-opacity:1;stroke-width:.00838478"/><path id="rect321" d="M1.449 1.574h.549v.518h-.549z" style="fill:#3782c6;fill-opacity:1;stroke-width:.00838478"/><path id="rect15046" d="M2.547 1.574h.549v.518h-.549z" style="fill:#3782c6;fill-opacity:1;stroke-width:.00838478"/><path id="rect15048" d="M1.997 2.091h.549v.518h-.549z" style="fill:#3782c6;fill-opacity:1;stroke-width:.00838478"/><path id="rect15050" d="M1.449 2.091h.549v.518h-.549z" style="fill:#79b1fe;fill-opacity:1;stroke-width:.00838478"/><path id="rect15052" d="M2.547 2.091h.549v.518h-.549z" style="fill:#79b1fe;fill-opacity:1;stroke-width:.00838478"/><path id="rect15054" d="M1.997 2.608h.549v.518h-.549z" style="fill:#79b1fe;fill-opacity:1;stroke-width:.00838478"/><path id="rect15056" d="M1.449 2.608h.549v.518h-.549z" style="fill:#3782c6;fill-opacity:1;stroke-width:.00838478"/><path id="rect15058" d="M2.547 2.608h.549v.518h-.549z" style="fill:#3782c6;fill-opacity:1;stroke-width:.00838478"/><path id="rect15060" d="M1.997 3.125h.549v.518h-.549z" style="fill:#3782c6;fill-opacity:1;stroke-width:.00838478"/><path id="rect15062" d="M1.449 3.125h.549v.518h-.549z" style="fill:#79b1fe;fill-opacity:1;stroke-width:.00838478"/><path id="rect15064" d="M2.547 3.125h.549v.518h-.549z" style="fill:#79b1fe;fill-opacity:1;stroke-width:.00838478"/><path id="rect4" d="M1.997 3.641h.549v.518h-.549z" style="fill:#79b1fe;fill-opacity:1;stroke-width:.00838478"/><path id="rect5" d="M1.449 3.641h.549v.518h-.549z" style="fill:#3782c6;fill-opacity:1;stroke-width:.00838478"/><path id="rect6" d="M2.547 3.641h.549v.518h-.549z" style="fill:#3782c6;fill-opacity:1;stroke-width:.00838478"/><path id="rect7" d="M1.997 4.159h.549v.518h-.549z" style="fill:#3782c6;fill-opacity:1;stroke-width:.00838478"/><path id="rect8" d="M1.449 4.159h.549v.518h-.549z" style="fill:#79b1fe;fill-opacity:1;stroke-width:.00838478"/><path id="rect9" d="M2.547 4.159h.549v.518h-.549z" style="fill:#79b1fe;fill-opacity:1;stroke-width:.00838478"/></g><path id="rect18" d="M3.205 1.577h1.619v3.2H3.205z" style="fill:url(#linearGradient18);fill-opacity:1;stroke-width:.00873218"/><g id="g2" style="stroke-width:1.0768" transform="translate(.273 .289)"><rect id="rect1" width="3.468" height="3.346" x="1.168" y="1.213" rx=".504" ry=".504" style="fill:none;stroke:#222f4d;stroke-width:.235769px;stroke-opacity:1"/><path id="rect2" d="M2.798 1.218h.208v3.337h-.208z" style="fill:#222f4d;fill-opacity:1;stroke-width:.00592622"/></g><g id="g4" style="stroke-width:1.0768" transform="translate(-.003 .024)"><circle id="circle2" cx="3.178" cy="3.151" r=".406" style="fill:#222f4d;fill-opacity:1;stroke-width:.00873218"/><g id="g3" style="fill:#73b4eb;fill-opacity:1;stroke-width:1.54733" transform="matrix(.02133 0 0 .02133 5.586 .927)"><path bx:shape="triangle 263.01 223.273 50.499 39.955 0.5 0 1@9343d11f" id="path2" d="m-98.605 104.103-10.473 6.834-.194-13.36z" style="fill:#73b4eb;fill-opacity:1;stroke-width:.4094"/><path bx:shape="triangle 263.01 223.273 50.499 39.955 0.5 0 1@9343d11f" id="path3" d="m-127.175 103.693 10.478-6.025.21 13.36z" style="fill:#73b4eb;fill-opacity:1;stroke-width:.4094"/></g></g></g></svg>