<svg xmlns="http://www.w3.org/2000/svg" width="24" height="24"><defs><linearGradient id="a" x1="12" x2="12.438" y1="66.125" y2="-2.188" gradientTransform="matrix(.24444 0 0 .24444 -.222 -.222)" gradientUnits="userSpaceOnUse" spreadMethod="pad"><stop offset="0" style="stop-color:#ef8650;stop-opacity:1"/><stop offset="1" style="stop-opacity:1;stop-color:#fab680"/></linearGradient></defs><path d="M12 1C2 1 1 6 1 12c0 8 3 11 11 11s11-3 11-11c0-6-1-11-11-11z" style="fill:url(#a);stroke:none;stroke-width:1.33333"/><path fill="#fff" d="M11.11 5.5a.385.385 0 0 0-.395.375v1.503c0 .854-.745 2.045-1.464 3.174-.761 1.19-2.28 2.423-2.429 3.569a2.93 2.93 0 0 0-.022.41c4.744.158 8.946-2.5 8.991-2.529l.361-.232c-.238-.408-.83-.852-1.225-1.297-.953-1.075-1.598-2.256-1.598-3.095V5.875a.386.386 0 0 0-.395-.375Zm5.484 6.92-.288.183c-2.379 1.516-6.022 2.718-9.412 2.652.48 1.743 2.392 2.92 2.49 2.977.063.038.513.268 2.572.268 2.058 0 2.578-.23 2.64-.268.12-.07 2.891-1.757 2.58-4.136-.072-.543-.292-1.106-.582-1.676z" style="stroke-width:1"/></svg>