<svg xmlns="http://www.w3.org/2000/svg" width="24" height="24" viewBox="0 0 6.35 6.35"><defs><radialGradient id="b" cx="0" cy="0" r="1" gradientTransform="rotate(90 1.455 1.72) scale(5.82072)" gradientUnits="userSpaceOnUse"><stop offset="0" stop-color="#FAFAFA" style="stop-color:#fff;stop-opacity:1"/><stop offset="1" stop-color="#B0B0B0" style="stop-color:#f2f2f2;stop-opacity:1"/></radialGradient><linearGradient id="a"><stop offset="0"/><stop offset="1" stop-opacity="0"/></linearGradient></defs><path fill="url(#b)" fill-rule="evenodd" d="M2.63.283a.312.312 0 0 1-.091.012c-.197.015-.39.047-.582.094-.822.195-1.34.7-1.555 1.517-.1.416-.146.838-.136 1.266-.008.403.031.801.118 1.194.205.873.745 1.407 1.621 1.603.477.097.957.134 1.443.108.432-.007.852-.08 1.26-.218a1.87 1.87 0 0 0 1.095-1.008c.121-.281.2-.574.236-.879.049-.433.059-.867.03-1.302a3.775 3.775 0 0 0-.2-1.012A1.886 1.886 0 0 0 4.77.51a3.581 3.581 0 0 0-1-.224A8.37 8.37 0 0 0 2.63.283z" clip-rule="evenodd" style="fill:url(#b);stroke-width:.264578"/><g style="stroke-width:1.17494"><text x="1.821" y="5.221" fill="#4d4d4d" stroke-width=".344" font-family="FreeSans" font-size="2.194" font-weight="700" style="line-height:0%;text-align:center" text-anchor="middle" transform="matrix(.87195 0 0 .83077 .527 .383)"><tspan x="1.821" y="5.221" style="stroke-width:.343809">A</tspan></text><text x="4.409" y="3.066" fill="#4d4d4d" stroke-width=".344" font-family="FreeSans" font-size="2.778" font-weight="700" style="line-height:0%;text-align:center" text-anchor="middle" transform="matrix(.82621 0 0 .87676 .527 .383)"><tspan x="4.409" y="3.066" font-size="2.194" style="stroke-width:.343808">𝛀</tspan></text><path fill="#33d17a" d="m2.542 2.146.086.265.604-.666-.877-.28.05.246c-.865.437-.955.82-1.074 1.205l.467.083c.11-.468.402-.706.744-.853Zm1.05 2.21-.087-.265-.604.666.878.28-.051-.246c.865-.437.956-.82 1.075-1.205l-.467-.083c-.111.468-.402.706-.744.853Z" style="stroke-width:1.17458" transform="translate(.527 .383) scale(.85111)"/></g><path d="M1.634.704a.11.11 0 1 0 0 .22.11.11 0 0 0 0-.22zm.438 0a.11.11 0 0 0-.058.019.11.11 0 0 0-.012.01.11.11 0 0 0-.029.039.11.11 0 0 0-.005.012.11.11 0 0 0 0 .06.11.11 0 0 0 .006.013.11.11 0 0 0 .027.038.11.11 0 0 0 .014.01.11.11 0 0 0 .057.019.11.11 0 0 0 .058-.019.11.11 0 0 0 .013-.01.11.11 0 0 0 .027-.038.11.11 0 0 0 .007-.014.11.11 0 0 0 0-.06.11.11 0 0 0-.006-.011.11.11 0 0 0-.029-.04.11.11 0 0 0-.012-.01.11.11 0 0 0-.058-.018zm.438 0a.11.11 0 0 0-.057.019.11.11 0 0 0-.013.01.11.11 0 0 0-.028.039.11.11 0 0 0-.006.012.11.11 0 0 0 0 .06.11.11 0 0 0 .006.013.11.11 0 0 0 .028.038.11.11 0 0 0 .013.01.11.11 0 0 0 .057.019.11.11 0 0 0 .058-.019.11.11 0 0 0 .013-.01.11.11 0 0 0 .028-.038.11.11 0 0 0 .006-.014.11.11 0 0 0 0-.06.11.11 0 0 0-.006-.011.11.11 0 0 0-.028-.04.11.11 0 0 0-.013-.01.11.11 0 0 0-.058-.018zm.439 0a.11.11 0 0 0-.058.019.11.11 0 0 0-.013.01.11.11 0 0 0-.028.039.11.11 0 0 0-.006.012.11.11 0 0 0 0 .06.11.11 0 0 0 .006.013.11.11 0 0 0 .028.038.11.11 0 0 0 .013.01.11.11 0 0 0 .058.019.11.11 0 0 0 .057-.019.11.11 0 0 0 .013-.01.11.11 0 0 0 .028-.038.11.11 0 0 0 .006-.014.11.11 0 0 0 0-.06.11.11 0 0 0-.006-.011.11.11 0 0 0-.028-.04.11.11 0 0 0-.013-.01.11.11 0 0 0-.057-.018zm.438 0a.11.11 0 0 0-.058.019.11.11 0 0 0-.012.01.11.11 0 0 0-.029.039.11.11 0 0 0-.006.012.11.11 0 0 0 0 .06.11.11 0 0 0 .007.013.11.11 0 0 0 .027.038.11.11 0 0 0 .013.01.11.11 0 0 0 .058.019.11.11 0 0 0 .058-.02.11.11 0 0 0 .012-.009.11.11 0 0 0 .028-.039.11.11 0 0 0 .006-.013.11.11 0 0 0 0-.06.11.11 0 0 0-.005-.011.11.11 0 0 0-.03-.04.11.11 0 0 0-.011-.01.11.11 0 0 0-.058-.018zm.438 0a.11.11 0 0 0-.058.019.11.11 0 0 0-.012.01.11.11 0 0 0-.029.039.11.11 0 0 0-.005.012.11.11 0 0 0 0 .06.11.11 0 0 0 .006.013.11.11 0 0 0 .027.038.11.11 0 0 0 .014.01.11.11 0 0 0 .057.019.11.11 0 0 0 .058-.02.11.11 0 0 0 .012-.008.11.11 0 0 0 .03-.041.11.11 0 0 0 .004-.01.11.11 0 0 0 0-.062.11.11 0 0 0-.004-.009.11.11 0 0 0-.03-.042.11.11 0 0 0-.012-.01.11.11 0 0 0-.058-.018zm.438 0a.11.11 0 0 0-.058.019.11.11 0 0 0-.012.01.11.11 0 0 0-.028.039.11.11 0 0 0-.006.012.11.11 0 0 0 0 .06.11.11 0 0 0 .006.013.11.11 0 0 0 .028.038.11.11 0 0 0 .012.01.11.11 0 0 0 .058.019.11.11 0 0 0 .058-.02.11.11 0 0 0 .012-.01.11.11 0 0 0 .028-.037.11.11 0 0 0 .006-.014.11.11 0 0 0 0-.06.11.11 0 0 0-.006-.011.11.11 0 0 0-.029-.04.11.11 0 0 0-.01-.01.11.11 0 0 0-.059-.018zm.438 0a.11.11 0 1 0 0 .22.11.11 0 0 0 0-.22zm.437 0a.11.11 0 0 0 .001.22.11.11 0 0 0 .105-.143 1.895 1.895 0 0 0-.106-.077Zm-3.93.004c-.04.027-.08.055-.117.085a.11.11 0 0 0 .105.131.11.11 0 0 0 .012-.216z" style="fill:#d5d3cf;fill-opacity:1;stroke-width:.264578"/><path d="M.266 2.975v.133-.133zm5.817.014c0 .266-.014.532-.044.798a3.143 3.143 0 0 1-.236.878A1.87 1.87 0 0 1 4.71 5.674c-.409.138-.829.21-1.26.218a5.666 5.666 0 0 1-1.443-.108C1.129 5.588.589 5.054.384 4.18a5.037 5.037 0 0 1-.118-1.026v.017c-.008.403.031.801.118 1.194.205.873.745 1.407 1.622 1.603.476.097.957.134 1.442.109.432-.008.852-.08 1.26-.219a1.87 1.87 0 0 0 1.095-1.008c.121-.281.2-.574.236-.879.037-.327.051-.655.044-.983Z" style="fill:#26a269;fill-opacity:1;stroke-width:.264578"/><path d="M6.08 2.888c-.008.185-.02.37-.04.555a3.143 3.143 0 0 1-.237.879A1.87 1.87 0 0 1 4.71 5.33c-.409.138-.829.211-1.26.218a5.667 5.667 0 0 1-1.443-.109C1.129 5.244.589 4.71.384 3.837a5.036 5.036 0 0 1-.116-.918l-.002.056v.18c.004.345.043.688.118 1.026.205.873.745 1.407 1.622 1.603.476.097.957.133 1.442.108.432-.007.852-.08 1.26-.218a1.87 1.87 0 0 0 1.095-1.009c.121-.28.2-.574.236-.878.03-.266.043-.532.044-.798 0-.034-.003-.067-.004-.1z" style="fill:#aaa;fill-opacity:1;stroke-width:.264578"/></svg>