<svg xmlns="http://www.w3.org/2000/svg" width="24" height="24" version="1"><path d="M9.593 1.115c.12 0 .235-.016.344-.047a31.814 31.814 0 0 1 4.308.01 13.68 13.68 0 0 1 3.781.849c2.026.833 3.41 2.281 4.162 4.338.42 1.24.676 2.516.754 3.823a28.303 28.303 0 0 1-.114 4.928 11.968 11.968 0 0 1-.896 3.317c-.85 1.844-2.23 3.115-4.135 3.812-1.543.522-3.13.798-4.767.824a21.33 21.33 0 0 1-5.452-.412c-3.308-.734-5.354-2.754-6.125-6.057a18.991 18.991 0 0 1-.448-4.51 18.502 18.502 0 0 1 .516-4.787c.812-3.083 2.77-4.995 5.875-5.734a13.692 13.692 0 0 1 2.197-.354Z" style="fill:#f2f2f2;fill-opacity:1;fill-rule:evenodd;stroke:none;stroke-width:1.33333"/><path d="M4.168 2.965C2.885 3.969 2.002 5.38 1.521 7.203a18.507 18.507 0 0 0-.517 4.787 18.985 18.985 0 0 0 .45 4.51c.458 1.965 1.37 3.473 2.73 4.53V2.964Z" style="fill:#4c5263;fill-opacity:1;fill-rule:evenodd;stroke:none;stroke-width:1.33333"/><path fill="none" stroke="#000" stroke-linecap="round" stroke-linejoin="round" d="M10.385 15.028s1.456 1.984 4.35-.111c2.03-1.47 4.238.384 4.238.384" opacity=".15" style="stroke-width:.999998"/><circle cx="2.907" cy="16.286" r=".589" fill="#82b2ea" style="stroke-width:.999998"/><path fill="#5e6476" d="M15.903 8.014c.255.204.313.553.13.783L11.4 14.62c-.183.23-.97.587-1.123.465-.154-.122.017-.968.2-1.199l4.634-5.822c.183-.231.536-.253.792-.05z" style="stroke-width:.999998"/></svg>