<svg xmlns="http://www.w3.org/2000/svg" width="24" height="24"><defs><radialGradient id="a" cx="0" cy="0" r="1" gradientTransform="matrix(0 11 -11 0 12 1)" gradientUnits="userSpaceOnUse"><stop stop-color="#777"/><stop offset="1" stop-color="#444"/></radialGradient></defs><path fill="url(#a)" fill-rule="evenodd" d="M9.596 1.114c.12 0 .234-.014.344-.046a31.627 31.627 0 0 1 4.307.011c1.301.102 2.561.384 3.78.848 2.025.833 3.412 2.28 4.158 4.339.427 1.24.679 2.514.756 3.824a27.94 27.94 0 0 1-.115 4.923 11.88 11.88 0 0 1-.893 3.32c-.85 1.843-2.229 3.114-4.135 3.813a15.624 15.624 0 0 1-4.766.825 21.423 21.423 0 0 1-5.452-.412c-3.312-.738-5.354-2.757-6.128-6.057a19.047 19.047 0 0 1-.447-4.511 18.491 18.491 0 0 1 .515-4.786c.812-3.086 2.77-4.998 5.877-5.736a13.953 13.953 0 0 1 2.199-.355z" clip-rule="evenodd" style="fill:url(#a)"/><g transform="matrix(1.08333 0 0 1.08333 .066 1.83)"><g stroke-width="3.78"><path fill="#fff" d="M2.003 45.998V10.001a.995.995 0 0 1 .998-1.002h58.002a.998.998 0 0 1 .998 1.002v36.001H2.004Z" style="paint-order:markers stroke fill" transform="matrix(.25 0 0 .25 3.016 1.388)"/><path fill="#666" d="M3.001 56a.998.998 0 0 1-1.002-1.002v-8.997H62v8.997A.998.998 0 0 1 61.003 56Z" style="paint-order:stroke markers fill" transform="matrix(.25 0 0 .25 3.016 1.388)"/><path d="M2.003 45.996V9.001a.995.995 0 0 1 .998-1.002h58.002c.553 0 1 .45.998 1.002v36.998h-.998V9.957a.962.962 0 0 0-.968-.956H3.968a.96.96 0 0 0-.967.956v36.042H1.999Z" opacity=".1" style="paint-order:markers stroke fill" transform="matrix(.25 0 0 .25 3.016 1.388)"/><path d="M62.001 42.294a36.303 36.303 0 0 1-12.828 12.707h11.83a.998.998 0 0 0 .998-1.002z" opacity=".05" style="paint-order:markers stroke fill" transform="matrix(.25 0 0 .25 3.016 1.388)"/></g><path d="M5.516 13.388a.75.75 0 0 0-.75.75.75.75 0 0 0 .75.75.75.75 0 0 0 .75-.75.75.75 0 0 0-.75-.75zm0 .25a.5.5 0 0 1 .5.5.5.5 0 0 1-.5.5.5.5 0 0 1-.5-.5.5.5 0 0 1 .5-.5z" opacity=".35" style="stroke-width:.249995;paint-order:fill markers stroke"/><rect width="4" height="1" x="13.016" y="13.638" opacity=".35" rx=".25" ry=".25" style="stroke-width:.249995;paint-order:fill markers stroke"/><rect width="1" height="1" x="7.516" y="13.638" opacity=".35" rx=".25" ry=".25" style="stroke-width:.249995;paint-order:fill markers stroke"/><rect width="1" height="1" x="9.016" y="13.638" opacity=".35" rx=".25" ry=".25" style="stroke-width:.249995;paint-order:fill markers stroke"/><rect width="1" height="1" x="10.516" y="13.638" opacity=".35" rx=".25" ry=".25" style="stroke-width:.249995;paint-order:fill markers stroke"/><path fill="#ccc" d="M11.017 5.013a3.25 3.25 0 0 0-3.25 3.25 3.25 3.25 0 0 0 3.25 3.25 3.25 3.25 0 0 0 3.25-3.25 3.25 3.25 0 0 0-3.25-3.25zm0 1.316a1.933 1.933 0 0 1 1.933 1.934 1.933 1.933 0 0 1-1.933 1.932 1.933 1.933 0 0 1-1.933-1.932 1.933 1.933 0 0 1 1.933-1.934Z" opacity=".15" style="stroke-width:.249995;paint-order:stroke markers fill"/><g fill="#ccc" style="paint-order:stroke markers fill"><path d="M11.017 5.513a2.75 2.75 0 0 0-2.75 2.75 2.75 2.75 0 0 0 2.75 2.75 2.75 2.75 0 0 0 2.75-2.75 2.75 2.75 0 0 0-2.75-2.749Zm0 1.25a1.5 1.5 0 0 1 1.5 1.5 1.5 1.5 0 0 1-1.5 1.5 1.5 1.5 0 0 1-1.5-1.5 1.5 1.5 0 0 1 1.5-1.5Z"/><path d="M10.517 4.389h1v1.75h-1zm0 6h1v1.75h-1zm4.375-2.625v1h-1.75v-1zm-6 0v1h-1.75v-1zm5.217 2.887-.705.707-1.238-1.238.707-.707zM9.867 6.408l-.706.707-1.238-1.238.707-.707zm-1.237 4.95-.707-.707 1.238-1.238.707.707zm4.242-4.243-.706-.707 1.237-1.238.707.707z"/></g></g></svg>