<svg xmlns="http://www.w3.org/2000/svg" xmlns:xlink="http://www.w3.org/1999/xlink" xml:space="preserve" width="24" height="24" fill="none"><defs><linearGradient id="a"><stop offset="0" style="stop-color:#393c3e;stop-opacity:1"/><stop offset="1" style="stop-color:#9b9c9c;stop-opacity:1"/></linearGradient><linearGradient xlink:href="#a" id="b" x1="50.767" x2="49.872" y1="89.886" y2="-7.912" gradientTransform="matrix(.24444 0 0 .24444 -.222 -.222)" gradientUnits="userSpaceOnUse"/></defs><path d="M12 1C2 1 1 6 1 12c0 8 3 11 11 11s11-3 11-11c0-6-1-11-11-11Z" style="font-variation-settings:normal;display:inline;opacity:1;vector-effect:none;fill:url(#b);fill-opacity:1;stroke-width:1.11627;stroke-linecap:butt;stroke-linejoin:miter;stroke-miterlimit:4;stroke-dasharray:none;stroke-dashoffset:0;stroke-opacity:1;-inkscape-stroke:none;stop-color:#000;stop-opacity:1"/><g stroke-linejoin="bevel" style="fill:none" transform="translate(-169.302 -258.57) scale(.53786)"><path fill="#0abafc" d="M324.08 493.05v19.996l8-3.996v-12c-2.334-1.333-5.667-2.668-8-4m26 0-8 4v12h.008l7.992 4zm-17 4v12h8v-12z"/><circle cx="347.08" cy="498.05" r="1" fill="#fff" fill-rule="evenodd"/></g></svg>