<svg xmlns="http://www.w3.org/2000/svg" width="24" height="24" viewBox="0 0 6.35 6.35"><defs><radialGradient id="a" cx="0" cy="0" r="1" fx="0" fy="0" gradientTransform="rotate(90 1.455 1.72) scale(2.91036)" gradientUnits="userSpaceOnUse" spreadMethod="pad"><stop offset="0" style="stop-color:#cbeacd;stop-opacity:.93725491"/><stop offset="1" style="stop-color:#7ed284;stop-opacity:1"/></radialGradient></defs><path d="M2.538.295A.335.335 0 0 0 2.63.283c.38-.025.76-.024 1.14.002a3.62 3.62 0 0 1 1 .225c.536.22.903.603 1.101 1.148.112.328.18.665.2 1.011.028.436.018.87-.03 1.304a3.166 3.166 0 0 1-.237.878c-.225.487-.59.824-1.094 1.008a4.125 4.125 0 0 1-1.261.218 5.644 5.644 0 0 1-1.443-.109C1.13 5.774.588 5.24.385 4.366a5.025 5.025 0 0 1-.12-1.194c-.009-.429.036-.85.137-1.266C.617 1.09 1.135.584 1.957.389c.191-.047.386-.079.581-.094Z" style="fill:url(#a);fill-rule:evenodd;stroke:none;stroke-width:.352771"/><path fill="#f9f9f9" d="M3.175 1.058a.07.07 0 0 0-.07.07v.073a1.623 1.623 0 0 0-1.553 1.621h1.552v1.976c0 .012.005.024.01.034a.563.563 0 0 0 .555.46.563.563 0 0 0 .564-.565v-.212a.07.07 0 1 0-.14 0v.212a.422.422 0 1 1-.848 0V2.822h1.553a1.623 1.623 0 0 0-1.553-1.621v-.072a.07.07 0 0 0-.07-.07z" opacity=".9" style="stroke-width:.264579;paint-order:stroke fill markers"/></svg>