<svg xmlns="http://www.w3.org/2000/svg" width="24" height="24"><path d="M-27.908-19a31.42 31.42 0 0 0-2.154.068c-.11.031-.224.047-.344.047-.739.058-1.474.176-2.198.354-3.104.738-5.063 2.651-5.875 5.734a18.507 18.507 0 0 0-.517 4.787c-.02.959.034 1.91.158 2.856a14.873 14.873 0 0 1 1.229-.201 3.338 3.338 0 0 1 3.338-3.258l.007.002a4.77 4.77 0 0 1 4.772-4.713 4.78 4.78 0 0 1 1.824.363 5.614 5.614 0 0 1 3.133-.959 5.604 5.604 0 0 1 5.61 5.6 5.593 5.593 0 0 1-.468 2.22 14.877 14.877 0 0 1 2.233.985c.17-1.598.203-3.194.101-4.797a14.559 14.559 0 0 0-.754-3.822c-.75-2.058-2.136-3.507-4.162-4.34a13.68 13.68 0 0 0-3.78-.848A32.214 32.214 0 0 0-27.909-19z" style="fill:#03c7dd;fill-opacity:1;fill-rule:evenodd;stroke:none;stroke-width:1.33333" transform="translate(40.001 20)"/><path d="M-32.22-14.563a4.95 4.95 0 0 0-4.944 4.807 4.95 4.95 0 0 0-1.834 1.131c-.002.205-.003.41.002.615-.02.959.034 1.91.158 2.856a14.873 14.873 0 0 1 1.229-.201 3.338 3.338 0 0 1 3.338-3.258h.007a4.768 4.768 0 0 1 4.772-4.711c.196 0 .389.017.582.04a4.95 4.95 0 0 0-3.31-1.278ZM-19-9.192c.045.285.074.575.074.873a5.593 5.593 0 0 1-.465 2.22 14.877 14.877 0 0 1 2.23.985c.124-1.156.175-2.311.155-3.469A3.608 3.608 0 0 0-19-9.194Z" style="fill:#fff;fill-opacity:.501961;stroke-width:.999998" transform="translate(40.001 20)"/><path d="M-24.535-13.922a5.62 5.62 0 0 0-3.133.961 4.78 4.78 0 0 0-1.824-.363 4.768 4.768 0 0 0-4.772 4.71h-.007a3.338 3.338 0 0 0-3.338 3.259c-.413.045-.822.116-1.229.197.073.555.17 1.108.291 1.658.77 3.303 2.817 5.322 6.125 6.057 1.801.369 3.618.51 5.451.412a15.597 15.597 0 0 0 4.768-.824c1.905-.698 3.285-1.967 4.135-3.811.458-1.063.756-2.168.896-3.318.005-.045.007-.089.012-.133a14.876 14.876 0 0 0-2.23-.983 5.593 5.593 0 0 0 .464-2.22 5.606 5.606 0 0 0-5.61-5.602z" style="fill:#f9f9f9;fill-opacity:1;fill-rule:evenodd;stroke:none;stroke-width:1.33333" transform="translate(40.001 20)"/><path fill="#00bcd4" d="M-28-11.523a6.293 6.293 0 0 0-6.286 6.285A6.293 6.293 0 0 0-28 1.048a6.292 6.292 0 0 0 6.285-6.286A6.293 6.293 0 0 0-28-11.523zm0 1.047a5.244 5.244 0 0 1 5.237 5.238A5.244 5.244 0 0 1-28 .001a5.244 5.244 0 0 1-5.238-5.238A5.245 5.245 0 0 1-28-10.476zm-1.834 2.095a.786.786 0 0 0-.785.786v5.238a.786.786 0 1 0 1.571 0v-1.31h1.833a2.36 2.36 0 0 0 2.357-2.357 2.36 2.36 0 0 0-2.357-2.357zm.786 1.572h1.833a.787.787 0 0 1 0 1.571h-1.833z" style="stroke-width:.999998" transform="translate(40.001 20)"/></svg>