<svg xmlns="http://www.w3.org/2000/svg" width="24" height="24" viewBox="0 0 6.35 6.35"><defs><radialGradient id="a" cx="0" cy="0" r="1" gradientTransform="rotate(90 1.455 1.72) scale(5.82072)" gradientUnits="userSpaceOnUse"><stop stop-color="#78BDFF"/><stop offset="1" stop-color="#1A5084" style="stop-color:#476acc;stop-opacity:1"/></radialGradient></defs><path fill="url(#a)" fill-rule="evenodd" d="M2.539.295a.312.312 0 0 0 .09-.012c.38-.025.76-.024 1.14.003.345.026.678.101 1 .224.536.22.903.603 1.1 1.148.114.328.18.665.2 1.012.029.435.019.869-.03 1.302a3.144 3.144 0 0 1-.236.879 1.87 1.87 0 0 1-1.094 1.008c-.409.139-.83.211-1.26.219a5.669 5.669 0 0 1-1.444-.11C1.13 5.773.59 5.24.385 4.366a5.04 5.04 0 0 1-.12-1.194c-.009-.428.037-.85.137-1.266C.617 1.09 1.135.584 1.957.39c.192-.047.385-.079.582-.094Z" clip-rule="evenodd" style="fill:url(#a);stroke-width:.24253"/><path fill="#fff" d="M3.175 2.117c-1.323 0-1.72.398-1.72 2.05 0 .265.926-.33 1.19-.727h1.059c.265.397 1.19.989 1.19.728 0-1.654-.396-2.051-1.719-2.051zm.794.397a.132.132 0 0 1 .132.132.132.132 0 0 1-.132.132.132.132 0 0 1-.133-.132.132.132 0 0 1 .133-.132Zm-1.588 0h.133v.265h.264v.133h-.264v.264H2.38v-.264h-.264V2.78h.264zm1.323.264a.132.132 0 0 1 .132.132.132.132 0 0 1-.132.132.132.132 0 0 1-.132-.132.132.132 0 0 1 .132-.132Zm.53 0a.132.132 0 0 1 .131.132.132.132 0 0 1-.132.132.132.132 0 0 1-.132-.132.132.132 0 0 1 .132-.132zm-.265.264a.132.132 0 0 1 .132.133.132.132 0 0 1-.132.132.132.132 0 0 1-.133-.132.132.132 0 0 1 .133-.133Z" style="stroke-width:1"/></svg>