<svg xmlns="http://www.w3.org/2000/svg" xmlns:xlink="http://www.w3.org/1999/xlink" xml:space="preserve" id="svg154" width="24" height="24" fill="none" version="1.1"><defs id="defs152"><linearGradient id="linearGradient4253"><stop id="stop4249" offset="0" style="stop-color:#b9c1cc;stop-opacity:1"/><stop id="stop4251" offset="1" style="stop-color:#cbd8ed;stop-opacity:1"/></linearGradient><linearGradient id="linearGradient29319"><stop id="stop29317" offset="0" style="stop-color:#d2d8db;stop-opacity:1"/></linearGradient><linearGradient id="fffff"><stop id="stop28389" offset="0" style="stop-color:#fff;stop-opacity:1"/></linearGradient><linearGradient xlink:href="#linearGradient4253" id="linearGradient4255" x1="50.767" x2="49.872" y1="89.886" y2="-7.912" gradientTransform="matrix(.24444 0 0 .24444 -.222 -.222)" gradientUnits="userSpaceOnUse"/><style id="current-color-scheme" type="text/css">.ColorScheme-Text{color:#31363b}.ColorScheme-Background{color:#eff0f1}.ColorScheme-Highlight{color:#3daee9}.ColorScheme-ViewText{color:#31363b}.ColorScheme-ViewBackground{color:#fcfcfc}.ColorScheme-ViewHover{color:#93cee9}.ColorScheme-ViewFocus{color:#3daee9}.ColorScheme-ButtonText{color:#31363b}.ColorScheme-ButtonBackground{color:#eff0f1}.ColorScheme-ButtonHover{color:#93cee9}.ColorScheme-ButtonFocus{color:#3daee9}</style></defs><path id="path6" d="M12 1C2 1 1 6 1 12c0 8 3 11 11 11s11-3 11-11c0-6-1-11-11-11Z" style="font-variation-settings:normal;display:inline;opacity:1;vector-effect:none;fill:url(#linearGradient4255);fill-opacity:1;stroke-width:1.11627;stroke-linecap:butt;stroke-linejoin:miter;stroke-miterlimit:4;stroke-dasharray:none;stroke-dashoffset:0;stroke-opacity:1;-inkscape-stroke:none;stop-color:#000;stop-opacity:1"/><g id="g22469" transform="matrix(.18754 0 0 .18754 -42.105 -31.603)"><g id="g21502" transform="translate(331.822 213.01) scale(5.32245)"><g id="g18871" transform="matrix(1.00002 0 0 1.00002 -16.605 -4.803)"><path id="path18850" fill="#f95" fill-rule="evenodd" d="M14.287 1.852c.293 0 .53.236.53.53v12.17a.53.53 0 0 1-.53.53H8.202V1.851Z" style="paint-order:fill markers stroke"/><path id="path18852" fill="#5f8dd3" fill-rule="evenodd" d="M2.646 1.852a.528.528 0 0 0-.53.53v12.17c0 .293.237.53.53.53H9.26V1.851Z" style="paint-order:fill markers stroke"/><path id="path18854" fill="#37c871" fill-rule="evenodd" d="M13.414 1.592c.298-.028.609.067.609.51v12.73c0 .412-.31.532-.609.51l-5.473-.26.01-13.227Z" style="paint-order:fill markers stroke"/><path id="path18856" fill="#4e76b2" fill-rule="evenodd" d="M12.7 1.323c.259-.029.53.07.53.53V15.08c0 .428-.27.553-.53.53l-4.763-.53V1.85Z" style="paint-order:fill markers stroke"/><path id="path18858" fill="#fff" d="M7.885 4.5c-.08-.013-.158.04-.242.182-.134.227-.195.863-.085 1.475.037.21.117.513.225.845-.086.31-.181.64-.285.967-.412 1.292-1.296 2.646-1.762 3.375-.294.458-1.003.997-1.063.892-.058-.105.141-.34.39-.717.247-.375.881-.764.881-.764s-.27-.01-.964.6c-.693.614-.483.917-.318 1.01.164.096.624.46 2.188-2.256.572-.993.903-1.895 1.096-2.643.198.512.453 1.029.736 1.355.165.19.382.373.623.541-.19.035-.408.077-.703.13-1.08.197-1.618.622-1.63.631.008-.002 1.265-.4 2.6-.585.525.32 1.128.566 1.627.665.779.158.99-.128 1.016-.166-.03.025-.132.072-.453.045-.258-.021-.965-.221-1.68-.605 1.481-.137 1.993.014 2.125.12.132.105.132.223.132.223s.17-.164.058-.33c-.094-.173-.239-.316-1.427-.28-.59.017-.906.038-1.21.078a4.126 4.126 0 0 1-.98-.814c-.366-.434-.59-.933-.736-1.424.219-1.054.15-1.707.15-1.713 0 0-.111.505-.282 1.17-.099-.503-.132-.967-.16-1.297-.06-.756.278-.546.326-.45.077.062.115.27.115.27s-.027-.31-.162-.442a.285.285 0 0 0-.146-.088Zm-.913 5.624h-.004v.003z"/></g></g></g></svg>