<svg xmlns="http://www.w3.org/2000/svg" xml:space="preserve" width="24" height="24" fill="none"><rect width="22" height="22" x="1" y="1" fill="url(#a)" rx="6.6"/><path fill="#FFD351" d="M10 4.75a.75.75 0 0 1 .75-.75h5.85A4.4 4.4 0 0 1 21 8.4v8.2a4.4 4.4 0 0 1-4.4 4.4H10V4.75Z"/><path fill="#7BD57D" d="M3 7.4A4.4 4.4 0 0 1 7.4 3H12a1 1 0 0 1 1 1v16.25a.75.75 0 0 1-.75.75H7.4A4.4 4.4 0 0 1 3 16.6V7.4Z"/><path fill="#707ED0" d="M7 7a1 1 0 0 1 1-1h8a1 1 0 0 1 1 1v14H7V7Z"/><path fill="url(#b)" fill-opacity=".9" d="M1 8.408A3.008 3.008 0 0 1 4.008 5.4H8.19c1.075 0 2.117.37 2.95 1.048a4.678 4.678 0 0 0 2.95 1.047h5.902A3.008 3.008 0 0 1 23 10.503V16.4a6.6 6.6 0 0 1-6.6 6.6H7.6A6.6 6.6 0 0 1 1 16.4V8.408Z"/><path fill="#FAFAFA" d="M15 16.833c-.185 0-.333.199-.333.445v1.778c0 .246.148.444.333.444h3.667c.184 0 .333-.198.333-.444v-1.778c0-.246-.149-.445-.333-.445H15Zm0 .444h.667v1.778H15v-1.778Zm1 0h.333v1.779H16v-1.778Zm.667 0H17v1.779h-.333v-1.778Zm.666 0H18v1.779h-.667v-1.778Zm1 0h.334v1.779h-.334v-1.778ZM6 15.5l-.667 1.333h.334v1.778h.666v-1.778h.334L6 15.5Zm.667 1.333H7v1.778h.667v-1.778H8L7.333 15.5l-.666 1.333ZM5 19.056v.444h3.333v-.444H5Z"/><path fill="#fff" d="M12.012 11.875a.812.812 0 0 1 .813.813v2.437a.812.812 0 1 1-1.625 0v-2.438a.812.812 0 0 1 .813-.812Zm0 2.844a.407.407 0 1 0 0 .813.407.407 0 0 0 0-.813Zm0-7.719H11.2v.813h.813V7Z"/><path fill="#fff" d="M12.825 7.813h-.813v.812h.813v-.813Z" opacity=".75"/><path fill="#fff" d="M12.012 8.625H11.2v.813h.813v-.813Z"/><path fill="#fff" d="M12.825 9.438h-.813v.812h.813v-.813Z" opacity=".75"/><path fill="#fff" d="M12.012 10.25H11.2v.813h.813v-.813Z"/><path fill="#fff" d="M12.825 11.063h-.813v.812h.813v-.813Z" opacity=".75"/><defs><linearGradient id="a" x1="23" x2="1" y1="1" y2="12" gradientUnits="userSpaceOnUse"><stop offset="0" stop-color="#E3C880" style="stop-color:#a0e8b0;stop-opacity:1"/><stop offset="1" stop-color="#6F5C38" style="stop-color:#3c874d;stop-opacity:.8392157"/></linearGradient><linearGradient id="b" x1="23" x2="1.429" y1="5.4" y2="23.512" gradientUnits="userSpaceOnUse"><stop offset="0" stop-color="#FFE795" style="stop-color:#cbf3d3;stop-opacity:.81960785"/><stop offset="1" stop-color="#7A653E" style="stop-color:#3f8650;stop-opacity:.8392157"/></linearGradient></defs></svg>