<svg xmlns="http://www.w3.org/2000/svg" xmlns:xlink="http://www.w3.org/1999/xlink" xml:space="preserve" id="svg154" width="24" height="24" fill="none" version="1.1"><defs id="defs152"><linearGradient id="linearGradient4253"><stop id="stop4249" offset="0" style="stop-color:#cdcdcd;stop-opacity:1"/><stop id="stop4251" offset="1" style="stop-color:#f3f3f3;stop-opacity:1"/></linearGradient><linearGradient id="linearGradient29319"><stop id="stop29317" offset="0" style="stop-color:#d2d8db;stop-opacity:1"/></linearGradient><linearGradient id="fffff"><stop id="stop28389" offset="0" style="stop-color:#fff;stop-opacity:1"/></linearGradient><linearGradient xlink:href="#linearGradient4253" id="linearGradient4255" x1="50.767" x2="49.872" y1="89.886" y2="-7.912" gradientTransform="matrix(.24444 0 0 .24444 -.222 -.222)" gradientUnits="userSpaceOnUse"/><linearGradient id="linearGradient8792"><stop id="stop8790" offset="0" style="stop-color:#000;stop-opacity:1"/></linearGradient><style id="current-color-scheme" type="text/css">.ColorScheme-Text{color:#31363b}.ColorScheme-Background{color:#eff0f1}.ColorScheme-Highlight{color:#3daee9}.ColorScheme-ViewText{color:#31363b}.ColorScheme-ViewBackground{color:#fcfcfc}.ColorScheme-ViewHover{color:#93cee9}.ColorScheme-ViewFocus{color:#3daee9}.ColorScheme-ButtonText{color:#31363b}.ColorScheme-ButtonBackground{color:#eff0f1}.ColorScheme-ButtonHover{color:#93cee9}.ColorScheme-ButtonFocus{color:#3daee9}</style></defs><path id="path6" d="M12 1C2 1 1 6 1 12c0 8 3 11 11 11s11-3 11-11c0-6-1-11-11-11Z" style="font-variation-settings:normal;display:inline;opacity:1;vector-effect:none;fill:url(#linearGradient4255);fill-opacity:1;stroke-width:1.11627;stroke-linecap:butt;stroke-linejoin:miter;stroke-miterlimit:4;stroke-dasharray:none;stroke-dashoffset:0;stroke-opacity:1;-inkscape-stroke:none;stop-color:#000;stop-opacity:1"/><g id="g20247" transform="translate(-42.35 -17.744) scale(.22218)"><path id="path20197" fill="#33678e" d="M273.226 141.05c-7.731 1.534-8.261-.993-8.261-.993 8.158-11.657 11.563-26.462 8.623-30.09-8.03-9.875-21.925-5.206-22.166-5.077l-.073.009a29.11 29.11 0 0 0-5.152-.511c-3.49-.054-6.144.881-8.158 2.358 0 0-24.783-9.84-23.64 12.371.243 4.724 7.026 35.761 15.119 26.399 2.96-3.424 5.82-6.321 5.82-6.321a7.719 7.719 0 0 0 4.9 1.208l.13-.112c-.037.429-.016.844.066 1.338-2.09 2.245-1.475 2.635-5.643 3.47-4.213.837-1.745 2.33-.13 2.722 1.967.472 6.505 1.14 9.574-2.99l-.13.474c.818.631 1.393 4.093 1.3 7.249-.093 3.146-.158 5.299.48 6.988.644 1.69 1.283 5.486 6.759 4.352 4.586-.938 6.954-3.388 7.285-7.479.233-2.906.761-2.478.799-5.077l.419-1.227c.49-3.945.073-5.214 2.895-4.612l.686.055c2.08.092 4.801-.326 6.388-1.041 3.434-1.532 5.477-4.093 2.09-3.424" style="stroke-width:1.71532"/><path id="path20199" fill="none" stroke="#f9f9f9" stroke-linecap="round" stroke-linejoin="round" stroke-width="1.187" d="M244.582 143.301c-.211 7.325.058 14.692.799 16.502.741 1.794 2.341 5.254 7.822 4.15 4.563-.943 6.247-2.795 6.962-6.81.532-2.972 1.558-11.223 1.692-12.924m-23.835-37.65s-24.81-9.767-23.647 12.443c.254 4.724 7.04 35.765 15.129 26.377a135.723 135.723 0 0 1 5.625-6.138m16.288-34.468c-.883.261 13.783-5.16 22.118 5.095 2.955 3.62-.463 18.405-8.613 30.082"/><path id="path20201" fill="none" stroke="#f9f9f9" stroke-linecap="round" stroke-linejoin="bevel" stroke-width="1.187" d="M264.922 139.968s.532 2.534 8.25.993c3.368-.657 1.356 1.903-2.087 3.443-2.813 1.263-9.151 1.558-9.235-.177-.278-4.504 3.333-3.132 3.072-4.259-.26-1.002-1.844-1.996-2.904-4.463-.926-2.163-12.714-18.774 3.266-16.308.564-.118-4.168-14.657-19.128-14.885-14.96-.235-14.48 17.731-14.48 17.731"/><path id="path20203" fill="none" stroke="#f9f9f9" stroke-linecap="round" stroke-linejoin="round" stroke-width="1.187" d="M240.396 141.509c-2.087 2.264-1.465 2.626-5.64 3.46-4.218.833-1.717 2.34-.1 2.718 1.961.472 6.5 1.155 9.564-2.996.935-1.263-.01-3.266-1.28-3.781-.631-.244-1.448-.556-2.518.599m0 0"/><path id="path20205" fill="none" stroke="#f9f9f9" stroke-linecap="round" stroke-linejoin="round" stroke-width="1.187" d="M240.262 141.466c-.21-1.33.446-2.887 1.153-4.723 1.062-2.753 3.52-5.514 1.558-14.254-1.465-6.516-11.273-1.355-11.297-.463 0 .9.446 4.472-.17 8.68-.79 5.456 3.612 10.079 8.68 9.605"/><path id="path20207" fill="#fff" stroke="#f9f9f9" stroke-width="1.187" d="M237.921 121.875c-.067.304.549 1.103 1.365 1.213.807.11 1.48-.532 1.54-.825.052-.304-.564-.632-1.371-.741-.808-.11-1.491.051-1.534.353"/><path id="path20209" fill="#fff" stroke="#f9f9f9" stroke-width=".598" d="M262.412 121.26c.07.303-.555 1.104-1.372 1.212-.816.086-1.473-.547-1.54-.823-.052-.304.564-.633 1.372-.741.808-.109 1.49.05 1.532.353"/><path id="path20211" fill="none" stroke="#f9f9f9" stroke-linecap="round" stroke-linejoin="round" stroke-width="1.187" d="M265.286 119.197c.108 2.367-.54 3.983-.633 6.501-.11 3.654 1.81 7.855-1.086 12.047"/></g></svg>