<svg xmlns="http://www.w3.org/2000/svg" xmlns:xlink="http://www.w3.org/1999/xlink" xml:space="preserve" id="svg154" width="24" height="24" fill="none" version="1.1"><defs id="defs152"><linearGradient id="linearGradient4253"><stop id="stop4249" offset="0" style="stop-color:#585858;stop-opacity:1"/><stop id="stop4251" offset="1" style="stop-color:#c3c3c3;stop-opacity:1"/></linearGradient><linearGradient id="linearGradient29319"><stop id="stop29317" offset="0" style="stop-color:#d2d8db;stop-opacity:1"/></linearGradient><linearGradient id="fffff"><stop id="stop28389" offset="0" style="stop-color:#fff;stop-opacity:1"/></linearGradient><linearGradient xlink:href="#linearGradient4253" id="linearGradient4255" x1="50.256" x2="49.744" y1="97.173" y2="-4.205" gradientTransform="matrix(.24444 0 0 .24444 -.222 -.222)" gradientUnits="userSpaceOnUse"/><linearGradient id="linearGradient8792"><stop id="stop8790" offset="0" style="stop-color:#000;stop-opacity:1"/></linearGradient><style id="current-color-scheme" type="text/css">.ColorScheme-Text{color:#31363b}.ColorScheme-Background{color:#eff0f1}.ColorScheme-Highlight{color:#3daee9}.ColorScheme-ViewText{color:#31363b}.ColorScheme-ViewBackground{color:#fcfcfc}.ColorScheme-ViewHover{color:#93cee9}.ColorScheme-ViewFocus{color:#3daee9}.ColorScheme-ButtonText{color:#31363b}.ColorScheme-ButtonBackground{color:#eff0f1}.ColorScheme-ButtonHover{color:#93cee9}.ColorScheme-ButtonFocus{color:#3daee9}</style></defs><path id="path6" d="M12 1C2 1 1 6 1 12c0 8 3 11 11 11s11-3 11-11c0-6-1-11-11-11Z" style="font-variation-settings:normal;display:inline;opacity:1;vector-effect:none;fill:url(#linearGradient4255);fill-opacity:1;stroke-width:1.11627;stroke-linecap:butt;stroke-linejoin:miter;stroke-miterlimit:4;stroke-dasharray:none;stroke-dashoffset:0;stroke-opacity:1;-inkscape-stroke:none;stop-color:#000;stop-opacity:1"/><g id="g23610" transform="translate(-56.53 10.663) scale(.21647)"><path id="path22763" fill="#fff" d="m336.797-31.004-2.768 5.06-5.06 2.767 5.06 2.768 2.768 5.06 2.768-5.06 5.06-2.768-5.06-2.767zm-13.046 5.218-.923 1.686-1.686.923 1.686.924.923 1.686.923-1.686 1.686-.924-1.686-.923zm-9.132 1.305c-18.704 0-33.92 15.216-33.92 33.92s15.216 33.92 33.92 33.92 33.92-15.216 33.92-33.92h-2.905c0 17.1-13.913 31.015-31.015 31.015-17.103 0-31.016-13.913-31.016-31.015 0-17.103 13.911-31.016 31.016-31.016zm30.006 9.132-1.847 3.372-3.372 1.846 3.372 1.847 1.847 3.372 1.846-3.372 3.372-1.847-3.372-1.846zm3.913 13.04-1.38 2.533-2.533 1.387 2.533 1.38 1.38 2.534 1.385-2.533 2.53-1.381-2.53-1.385z" style="stroke-width:2.60921"/><path id="path22765" fill="#0092ee" d="M314.45 9.262s-3.713-.682-6.989-1.172c-3.275-.49-6.856.353-7.771 1.417-.917 1.064 1.208 3.079 1.686 3.886.476.806.22.915-.622 1.685-.705.643-3.563.996-4.488 1.094v.03l-.147-.014-.144.014v-.03c-.923-.098-3.784-.451-4.486-1.094-.843-.77-1.1-.879-.622-1.685.475-.807 2.601-2.824 1.686-3.886-.562-.65-2.118-1.216-3.99-1.447-.024.457-.036.917-.036 1.379 0 14.41 11.68 26.092 26.092 26.092.188 0 .375-.01.562-.014.774-2.89 1.782-7.844.01-9.072-2.541-1.759-5.426.146-5.426.146s-2.053 1.124-3.08-.048c-1.026-1.172-1.22-3.03-1.124-4.301.098-1.27 1.174-4.741 3.129-3.862 1.955.881 5.856 1.558 6.695.49 2.152-2.738-.935-9.608-.935-9.608" style="stroke-width:2.60921"/><path id="path22767" fill="#bee34a" d="M314.45 9.262s13.692-4.076 14.473-.167c.783 3.91-4.104 4.105-1.172 6.062 2.326 1.547 4.277 1.501 4.988 1.415v-.048s.054.012.144.028l.147-.028v.048c.71.086 2.661.134 4.987-1.417 2.933-1.955-1.955-2.15-1.174-6.062.253-1.256 1.798-1.688 3.78-1.698-1.044-13.453-12.284-24.049-26.004-24.049-.418 0-.833.012-1.247.03-.578 2.255-1.06 5.452.247 7.116.841 1.07 4.743.391 6.698-.488 1.955-.881 3.03 2.59 3.127 3.862.098 1.27-.096 3.127-1.124 4.3-1.026 1.173-3.079.049-3.079.049s-2.884-1.907-5.425-.147c-2.541 1.759.636 11.192.636 11.192" style="stroke-width:2.60921"/><path id="path22769" fill="#f15976" d="M290.867 13.39c-.476.807-.221.918.622 1.686.704.643 3.563.996 4.488 1.096v.028l.144-.014.147.014v-.028c.923-.1 3.781-.453 4.486-1.096.843-.768 1.1-.879.622-1.685-.476-.807-2.601-2.822-1.686-3.886.917-1.064 4.498-1.907 7.773-1.417 3.274.488 6.99 1.172 6.99 1.172s-3.178-9.433-.637-11.194c2.543-1.758 5.427.149 5.427.149s2.051 1.124 3.079-.05c1.025-1.172 1.22-3.03 1.124-4.301-.098-1.27-1.174-4.741-3.13-3.86-1.954.879-5.856 1.555-6.695.488-1.306-1.666-.825-4.861-.249-7.115-13.373.63-24.113 11.326-24.807 24.68 1.872.234 3.43.8 3.99 1.448.915 1.064-1.21 3.08-1.686 3.886" style="stroke-width:2.60921"/><path id="path22771" fill="#10e7c4" d="M340.71 9.439c0-.689-.033-1.37-.088-2.044-1.979.008-3.526.442-3.777 1.698-.783 3.91 4.107 4.107 1.172 6.062-2.324 1.55-4.275 1.501-4.987 1.417v-.048l-.145.026a2.876 2.876 0 0 1-.146-.026v.048c-.71.086-2.662.132-4.986-1.417-2.934-1.955 1.955-2.152 1.172-6.062-.783-3.91-14.475.169-14.475.169s3.087 6.87.935 9.608c-.839 1.068-4.74.391-6.695-.49s-3.031 2.59-3.127 3.862c-.1 1.27.096 3.129 1.124 4.301 1.025 1.172 3.079.048 3.079.048s2.884-1.907 5.425-.146c1.772 1.228.764 6.181-.008 9.072 14.148-.301 25.528-11.856 25.528-26.078" style="stroke-width:2.60921"/></g></svg>