<svg xmlns="http://www.w3.org/2000/svg" xml:space="preserve" width="24" height="24" viewBox="0 0 6.35 6.35"><defs><radialGradient id="a" cx="0" cy="0" r="1" fx="0" fy="0" gradientTransform="matrix(0 16.5 -16.5 0 9 .75)" gradientUnits="userSpaceOnUse" spreadMethod="pad"><stop offset="0" style="stop-color:#fff;stop-opacity:1"/><stop offset="1" style="stop-color:#c86fc3;stop-opacity:1"/></radialGradient></defs><path d="M7.195.836c.09 0 .176-.012.258-.035a23.86 23.86 0 0 1 3.231.008 10.26 10.26 0 0 1 2.836.636c1.519.625 2.558 1.711 3.121 3.254.316.93.507 1.887.566 2.867a21.227 21.227 0 0 1-.086 3.696 8.976 8.976 0 0 1-.672 2.488c-.637 1.383-1.672 2.336-3.101 2.859a11.693 11.693 0 0 1-3.575.618 15.998 15.998 0 0 1-4.089-.309c-2.481-.551-4.016-2.066-4.594-4.543a14.244 14.244 0 0 1-.336-3.383c-.027-1.211.101-2.41.387-3.59.609-2.312 2.078-3.746 4.406-4.3A10.27 10.27 0 0 1 7.195.836Z" style="fill:url(#a);fill-rule:evenodd;stroke:none;stroke-width:.99975004;stroke-dasharray:none" transform="translate(.022 -.08) scale(.35277)"/><g transform="translate(-1.037 -1.14) scale(.50002)"><rect width="7.937" height="7.937" x="4.498" y="4.498" fill="#303030" rx="1.323" ry="1.323" style="paint-order:markers stroke fill"/><path fill="#f9f9f9" d="M5.05 10.951h3.106v.621H5.05Zm.621-5.591v3.416h.621V7.534h.622c.747 0 1.242-.305 1.242-1.071v-.016c0-.692-.337-1.087-1.141-1.087Zm4.356 0c-.673 0-1.257.338-1.257.955v.019c0 .433.435.818 1.108.986.56.15.77.285.77.472v.019c0 .205-.322.345-.62.345-.375 0-.633-.14-.932-.383l-.406.44c.392.355.833.545 1.337.564.71 0 1.23-.444 1.23-1.022v-.02c0-.511-.402-.725-1.074-.911-.561-.15-.777-.255-.777-.48v-.057c0-.169.34-.305.621-.305.28 0 .491.02.79.225l.346-.471c-.353-.214-.65-.376-1.136-.376Zm-3.735.621h.621c.374 0 .622.13.622.466v.016c0 .28-.248.45-.622.45h-.62z"/></g></svg>