<svg xmlns="http://www.w3.org/2000/svg" xmlns:xlink="http://www.w3.org/1999/xlink" xml:space="preserve" width="24" height="24" fill="none"><defs><linearGradient id="a"><stop offset="0" style="stop-color:#a14dc8;stop-opacity:1"/><stop offset="1" style="stop-color:#eaf;stop-opacity:1"/></linearGradient><linearGradient xlink:href="#a" id="b" x1="45.879" x2="45.423" y1="69.326" y2="-20.525" gradientUnits="userSpaceOnUse"/><linearGradient xlink:href="#a" id="e" x1="45.879" x2="45.423" y1="69.326" y2="-20.525" gradientUnits="userSpaceOnUse"/><linearGradient xlink:href="#a" id="d" x1="45.879" x2="45.423" y1="69.326" y2="-20.525" gradientUnits="userSpaceOnUse"/><linearGradient xlink:href="#a" id="c" x1="45.879" x2="45.423" y1="69.326" y2="-20.525" gradientUnits="userSpaceOnUse"/></defs><g style="fill:url(#b);fill-opacity:1;stroke-width:5.54546"><g style="fill:url(#c);fill-opacity:1;stroke-width:5.54546" transform="matrix(.24044 0 0 .24044 1 1)"><g style="fill:url(#d);fill-opacity:1;stroke-width:5.54546"><path d="M35.75.473c.5.004.977-.059 1.43-.192a131.89 131.89 0 0 1 17.914.047 56.345 56.345 0 0 1 15.722 3.524c8.426 3.468 14.192 9.484 17.293 18.05a59.214 59.214 0 0 1 3.145 15.903 116.03 116.03 0 0 1-.477 20.476 49.45 49.45 0 0 1-3.715 13.813c-3.539 7.66-9.269 12.945-17.199 15.855a65.014 65.014 0 0 1-19.82 3.43 89.267 89.267 0 0 1-22.676-1.715C13.594 86.594 5.098 78.199 1.879 64.473A79.31 79.31 0 0 1 .02 45.711a76.872 76.872 0 0 1 2.144-19.906C5.539 12.973 13.684 5.02 26.605 1.949A57.513 57.513 0 0 1 35.75.473Z" style="fill:url(#e);fill-opacity:1;fill-rule:evenodd;stroke:none;stroke-width:5.54546"/></g></g></g><path fill="#fff" d="M12.011 5.5a4.891 4.891 0 0 0-4.885 4.897v6.1a.878.878 0 0 1 .559 1.652 1.526 1.526 0 0 0 .975.351 1.536 1.536 0 0 0 1.533-1.538v-6.566a1.82 1.82 0 0 1 1.818-1.822h.045a1.741 1.741 0 0 1 1.752 1.748v-.042.086h-.001a.8.8 0 0 0 0-.044c-.042.99-.87 1.81-1.774 1.81-.847 0-1.533.688-1.533 1.537s.687 1.536 1.533 1.536c2.574 0 4.742-2.15 4.84-4.779V10.341A4.81 4.81 0 0 0 12.056 5.5zm.033 7.203a.967.967 0 0 1 0 1.932.967.967 0 0 1 0-1.932z" style="stroke-width:2.49739"/></svg>