<svg xmlns="http://www.w3.org/2000/svg" xmlns:xlink="http://www.w3.org/1999/xlink" xml:space="preserve" id="svg154" width="24" height="24" fill="none" version="1.1"><defs id="defs152"><linearGradient id="linearGradient1062"><stop id="stop1058" offset="0" style="stop-color:#a14dc8;stop-opacity:1"/><stop id="stop1060" offset="1" style="stop-color:#db93f1;stop-opacity:1"/></linearGradient><linearGradient id="linearGradient8792"><stop id="stop8790" offset="0" style="stop-color:#000;stop-opacity:1"/></linearGradient><linearGradient xlink:href="#linearGradient1062" id="linearGradient1064" x1="51.534" x2="50.256" y1="92.699" y2="12.926" gradientTransform="matrix(.24444 0 0 .24444 -.222 -.222)" gradientUnits="userSpaceOnUse"/><linearGradient id="linearGradient29319"><stop id="stop29317" offset="0" style="stop-color:#d2d8db;stop-opacity:1"/></linearGradient><linearGradient id="fffff"><stop id="stop28389" offset="0" style="stop-color:#fff;stop-opacity:1"/></linearGradient><style id="current-color-scheme" type="text/css">.ColorScheme-Text{color:#31363b}.ColorScheme-Background{color:#eff0f1}.ColorScheme-Highlight{color:#3daee9}.ColorScheme-ViewText{color:#31363b}.ColorScheme-ViewBackground{color:#fcfcfc}.ColorScheme-ViewHover{color:#93cee9}.ColorScheme-ViewFocus{color:#3daee9}.ColorScheme-ButtonText{color:#31363b}.ColorScheme-ButtonBackground{color:#eff0f1}.ColorScheme-ButtonHover{color:#93cee9}.ColorScheme-ButtonFocus{color:#3daee9}</style></defs><path id="path6" d="M12 1C2 1 1 6 1 12c0 8 3 11 11 11s11-3 11-11c0-6-1-11-11-11Z" style="font-variation-settings:normal;display:inline;opacity:1;vector-effect:none;fill:url(#linearGradient1064);fill-opacity:1;stroke-width:1.11627;stroke-linecap:butt;stroke-linejoin:miter;stroke-miterlimit:4;stroke-dasharray:none;stroke-dashoffset:0;stroke-opacity:1;-inkscape-stroke:none;stop-color:#000;stop-opacity:1"/><path id="path35063" fill="#fff" d="M12.012 4.954a5.302 5.302 0 0 0-5.295 5.308v6.613a.952.952 0 0 1 .605 1.79 1.654 1.654 0 0 0 1.058.38 1.665 1.665 0 0 0 1.661-1.666V10.26a1.973 1.973 0 0 1 1.971-1.975h.049a1.887 1.887 0 0 1 1.899 1.895v-.046.094h-.001v-.048c-.046 1.073-.944 1.962-1.923 1.962-.918 0-1.662.746-1.662 1.666 0 .92.744 1.665 1.662 1.665 2.79 0 5.14-2.331 5.246-5.18V10.2a5.214 5.214 0 0 0-5.222-5.247Zm.035 7.808a1.048 1.048 0 0 1 0 2.095 1.048 1.048 0 0 1 0-2.095z" style="stroke-width:.423139"/></svg>