<svg xmlns="http://www.w3.org/2000/svg" width="24" height="24"><defs><radialGradient id="a" cx="0" cy="0" r="1" gradientTransform="matrix(0 11 -11 0 12 1)" gradientUnits="userSpaceOnUse"><stop stop-color="#6EBBF7"/><stop offset="1" stop-color="#2196F3"/></radialGradient></defs><g stroke-width=".741" transform="matrix(1.35 0 0 1.35 -479.57 -675.11)"><rect width="40" height="40" x="388.57" y="503.8" fill="#1da4f7" rx="20"/><path fill="#fff" fill-rule="evenodd" d="M408.57 503.8c-1.452 0-2.864.16-4.227.451l-1.773 3.549-2.68-2.01a19.942 19.942 0 0 0-10.254 11.584l3.934-1.574 3 2 1-3 13-7-.793-3.961c-.4-.024-.801-.039-1.207-.039m14.81 6.568-.811 2.432 1 1-4 6 2 7 6.633.83c.239-1.239.367-2.519.367-3.83 0-3.425-.857-6.641-2.361-9.453l-1.639-.547.596-1.193a19.947 19.947 0 0 0-1.785-2.238m-34.414 9.432a20.203 20.203 0 0 0-.381 3.381l6.984 2.619-1-3-2-3zm6.603 6 5 12v4.338a20.003 20.003 0 0 0 8 1.662c.199 0 .395-.008.592-.014l6.408-10.986-16-9z" opacity=".25"/><path fill="#fcfcfc" d="m410.311 513.447-3.678.344v14.204l3.638-.496v-6.071l4.85 6.72 3.798-1.145-4.971-6.453 5.012-6.109-3.88-.84-4.81 6.109zm-8.285 3.474a.276.276 0 0 0-.12.039l-1.415 1.375c-.06.06-.084.16-.04.23l1.657 2.597a6.526 6.526 0 0 0-.687 1.527l-3.072.611c-.086.022-.161.07-.161.153v1.909c0 .08.079.17.16.19l2.991.688c.16.622.401 1.214.727 1.756l-1.738 2.483c-.048.07-.024.17.04.23l1.415 1.336c.06.054.169.083.243.039l2.708-1.566c.533.29 1.091.532 1.697.687l.647 2.864c.018.083.074.153.16.153h2.021a.23.23 0 0 0 .203-.153l.727-2.864a7.539 7.539 0 0 0 1.779-.726l2.667 1.68c.074.044.18.022.242-.039l1.414-1.336c.061-.06.085-.16.04-.228l-.97-1.527-.323.114c-.046.022-.094 0-.12-.039 0 0-.612-.875-1.414-1.985-.961 1.776-2.918 2.978-5.173 2.978-3.206 0-5.82-2.432-5.82-5.46 0-2.229 1.417-4.144 3.436-5.002v-1.413a7.206 7.206 0 0 0-1.05.42h-.04l-2.71-1.68a.21.21 0 0 0-.12-.037" color="#000"/></g><path fill="url(#a)" fill-rule="evenodd" d="M9.596 1.114c.12 0 .234-.014.344-.046a31.626 31.626 0 0 1 4.307.011c1.301.102 2.561.384 3.78.848 2.025.833 3.412 2.28 4.158 4.339.427 1.24.679 2.514.756 3.824a27.942 27.942 0 0 1-.115 4.923 11.88 11.88 0 0 1-.893 3.32c-.85 1.843-2.229 3.114-4.135 3.813a15.624 15.624 0 0 1-4.766.825 21.423 21.423 0 0 1-5.452-.412c-3.312-.738-5.354-2.757-6.128-6.057a19.046 19.046 0 0 1-.447-4.511 18.49 18.49 0 0 1 .515-4.786c.812-3.086 2.77-4.998 5.877-5.736a13.954 13.954 0 0 1 2.199-.355Z" clip-rule="evenodd" style="fill:url(#a);stroke-width:1"/><path fill="#fff" fill-rule="evenodd" d="M11.996 1.462c-.765 0-1.509.084-2.227.237l-.934 1.87L7.423 2.51A10.507 10.507 0 0 0 2.02 8.614l2.073-.83 1.58 1.054.527-1.58 6.85-3.689-.418-2.087c-.21-.012-.422-.02-.636-.02m7.804 3.46-.428 1.282.527.527-2.107 3.161 1.053 3.688 3.495.438c.126-.653.194-1.328.194-2.018 0-1.805-.452-3.5-1.244-4.981l-.864-.288.314-.629a10.51 10.51 0 0 0-.94-1.179M1.667 9.893a10.645 10.645 0 0 0-.2 1.781l3.68 1.38-.528-1.58-1.054-1.581Zm3.48 3.161 2.634 6.323v2.286a10.54 10.54 0 0 0 4.215.875c.105 0 .208-.004.312-.007l3.376-5.789L7.254 12z" opacity=".25" style="stroke-width:1.00035"/><path fill="#fcfcfc" d="m12.92 6.5-1.948.182v7.52l1.927-.262v-3.214l2.568 3.558 2.01-.606-2.632-3.417L17.5 7.026l-2.054-.444-2.547 3.234ZM8.533 8.34a.146.146 0 0 0-.064.02l-.749.728c-.032.032-.044.085-.021.122l.877 1.375c-.157.25-.273.524-.363.808l-1.627.324c-.045.012-.085.037-.085.081v1.01c0 .043.042.09.085.101l1.583.365c.085.329.213.642.385.93l-.92 1.314c-.026.037-.013.09.021.122l.75.707c.031.029.089.044.128.021l1.434-.83c.282.154.577.282.898.365l.343 1.516c.01.044.04.081.085.081h1.07a.122.122 0 0 0 .107-.081l.385-1.516a3.992 3.992 0 0 0 .942-.385l1.412.89c.04.023.096.011.128-.021l.749-.707c.032-.032.045-.085.021-.121l-.513-.809-.171.06c-.025.012-.05 0-.064-.02 0 0-.324-.463-.749-1.05-.508.94-1.545 1.576-2.739 1.576-1.697 0-3.081-1.288-3.081-2.891 0-1.18.75-2.194 1.819-2.649v-.748a3.815 3.815 0 0 0-.556.223h-.021l-1.435-.89a.111.111 0 0 0-.064-.02" color="#000" style="stroke-width:1.00035"/></svg>