<svg xmlns="http://www.w3.org/2000/svg" width="24" height="24"><path d="M12 1C2 1 1 6 1 12c0 8 3 11 11 11s11-3 11-11c0-6-1-11-11-11Z" style="font-variation-settings:normal;display:inline;vector-effect:none;fill:#cbd2d5;fill-opacity:1;stroke-width:1.11627;stroke-linecap:butt;stroke-linejoin:miter;stroke-miterlimit:4;stroke-dasharray:none;stroke-dashoffset:0;stroke-opacity:1;-inkscape-stroke:none;stop-color:#000"/><path d="M12 1.975C2.886 1.975 1.975 6.532 1.975 12c0 7.29 2.734 10.025 10.025 10.025 7.29 0 10.025-2.734 10.025-10.025 0-5.468-.911-10.025-10.025-10.025Z" style="font-variation-settings:normal;display:inline;vector-effect:none;fill:#a4b0b6;fill-opacity:1;stroke-width:1.01733;stroke-linecap:butt;stroke-linejoin:miter;stroke-miterlimit:4;stroke-dasharray:none;stroke-dashoffset:0;stroke-opacity:1;-inkscape-stroke:none;stop-color:#000"/><g style="stroke-width:.866667" transform="matrix(1.15385 0 0 1.15385 -1.846 -1.846)"><circle cx="12" cy="-12" r="6.5" fill="#a4b0b6" style="stroke-width:.86697" transform="scale(1 -1)"/><path fill="#303334" d="M12 15.25a.464.464 0 0 1-.464-.464.464.464 0 0 1 .464-.465.464.464 0 0 1 .465.465.464.464 0 0 1-.465.464m-1.963-.816a.464.464 0 0 1-.334-.136.464.464 0 0 1 0-.657.464.464 0 0 1 .656 0 .464.464 0 0 1 0 .657.464.464 0 0 1-.322.136m3.927 0a.464.464 0 0 1-.322-.136.464.464 0 0 1 0-.657.464.464 0 0 1 .656 0 .464.464 0 0 1 0 .657.464.464 0 0 1-.334.136M12 12.929a.929.929 0 0 1-.929-.929.929.929 0 0 1 .929-.929.929.929 0 0 1 .929.929.929.929 0 0 1-.929.929m-2.786-.465A.464.464 0 0 1 8.75 12a.464.464 0 0 1 .464-.464.464.464 0 0 1 .465.464.464.464 0 0 1-.465.464m5.572 0A.464.464 0 0 1 14.32 12a.464.464 0 0 1 .465-.464.464.464 0 0 1 .464.464.464.464 0 0 1-.464.464m-4.763-1.97a.464.464 0 0 1-.32-.135.464.464 0 0 1 0-.657.464.464 0 0 1 .656 0 .464.464 0 0 1 0 .657.464.464 0 0 1-.336.136m3.954 0a.464.464 0 0 1-.336-.136.464.464 0 0 1 0-.657.464.464 0 0 1 .657 0 .464.464 0 0 1 0 .657.464.464 0 0 1-.321.136M12 9.679a.464.464 0 0 1-.464-.465A.464.464 0 0 1 12 8.75a.464.464 0 0 1 .464.464.464.464 0 0 1-.464.465" style="stroke-width:.86697"/></g></svg>