<svg xmlns="http://www.w3.org/2000/svg" width="24" height="24" viewBox="0 0 6.35 6.35"><defs><radialGradient id="a" cx="0" cy="0" r="1" fx="0" fy="0" gradientTransform="matrix(0 16.5 -16.5 0 9 .75)" gradientUnits="userSpaceOnUse" spreadMethod="pad"><stop offset="0" style="stop-opacity:1;stop-color:#f9dc6e"/><stop offset="1" style="stop-opacity:1;stop-color:#efac01"/></radialGradient></defs><path d="M7.453.801a.951.951 0 0 1-.258.035 10.27 10.27 0 0 0-1.648.266c-2.328.554-3.797 1.988-4.406 4.3a13.877 13.877 0 0 0-.387 3.59c-.024 1.141.09 2.27.336 3.383.578 2.477 2.113 3.992 4.594 4.543 1.351.277 2.714.383 4.089.309a11.693 11.693 0 0 0 3.575-.618c1.429-.523 2.464-1.476 3.101-2.859a8.976 8.976 0 0 0 .672-2.488c.137-1.231.164-2.461.086-3.696-.059-.98-.25-1.937-.566-2.867-.563-1.543-1.602-2.629-3.121-3.254a10.26 10.26 0 0 0-2.836-.636A23.86 23.86 0 0 0 7.453.801Z" style="fill:url(#a);fill-rule:evenodd;stroke:none" transform="scale(.35277)"/><path fill="#f9f9f9" d="M3.378 1.588a.199.199 0 1 0 0 .396.199.199 0 0 0 0-.396m.66 0a.199.199 0 1 0 0 .396.199.199 0 0 0 0-.396m.53.264a.199.199 0 1 0 0 .397.199.199 0 0 0 0-.397m-1.738.02c-.152.01-.384.105-.59.276-.528.439-.997 1.315-.288 2.067.684.724 1.681.58 2.019.405a.775.775 0 0 0 .416-.823c-.115-.414-.43-.53-.631-.506-.242.028-.711.181-.988-.19-.234-.315-.023-.77.214-.93.096-.066.094-.208-.03-.278a.22.22 0 0 0-.123-.02Z" style="stroke-width:1"/></svg>