<svg xmlns="http://www.w3.org/2000/svg" width="24" height="24" viewBox="0 0 6.35 6.35"><g stroke-width=".841"><path fill="#6cc862" d="M26.193 8.466a7.143 7.143 0 0 1-7.143 7.144 7.143 7.143 0 0 1-7.144-7.144 7.143 7.143 0 0 1 7.144-7.143 7.143 7.143 0 0 1 7.143 7.143Z"/><path fill="#60a5cf" d="M11.906 8.466a7.143 7.143 0 0 0 7.143 7.143V8.466Z"/><path fill="#e96565" d="m26.193 8.466-7.144.045v7.098a7.143 7.143 0 0 0 7.143-7.143z"/><path fill="#ffcd5f" d="M19.05 8.511V1.323a7.143 7.143 0 0 1 7.143 7.143"/><path fill="#fff" d="M20.546 4.296c-.868-.233-1.462.959-1.6 2.286-.353-1.566-1.335-2.862-2.373-1.698-.386.433-.475.783-.416 1.064-.286-.025-.625.104-1.01.536-.917 1.026.367 1.884 1.891 2.113-1.507.375-2.697 1.33-1.564 2.336.435.386.786.475 1.068.417-.026.286.104.624.537 1.01 1.006.894 1.85-.312 2.1-1.788.42 1.437 1.4 2.539 2.293 1.535.386-.432.476-.783.417-1.064.287.026.625-.103 1.012-.536 1.01-1.131-.29-1.943-1.833-2.142 1.49-.401 2.67-1.4 1.64-2.315-.433-.385-.785-.475-1.066-.417.025-.286-.104-.623-.538-1.01a1.413 1.413 0 0 0-.56-.327ZM19.03 8.454c.001.01.002.02.005.03h-.01c.003-.01.003-.02.005-.03z"/></g><path d="M3.2.265c-.19-.001-.38.005-.57.018a.335.335 0 0 1-.092.012c-.195.015-.39.047-.581.094C1.136.584.617 1.09.403 1.906c-.101.416-.146.84-.137 1.266-.008.403.032.8.118 1.194.063.268.158.505.284.709.669.61 1.601 1 2.472 1.01l.09-.001.086-.002h.012a2.91 2.91 0 0 0 2.756-2.979C6.064 2.24 5.674 1.32 5.068.66a2.148 2.148 0 0 0-.299-.15 3.62 3.62 0 0 0-1-.225c-.19-.013-.38-.02-.57-.02Z" style="fill:#6cc862;fill-opacity:1;fill-rule:evenodd;stroke:none;stroke-width:.352771"/><path d="M3.2.265h-.025v2.928l2.908-.015c0-.17-.002-.34-.013-.509a3.852 3.852 0 0 0-.2-1.011A1.892 1.892 0 0 0 4.77.51 3.62 3.62 0 0 0 3.768.285c-.19-.013-.38-.02-.57-.02Z" style="fill:#ffcd5f;fill-opacity:1;fill-rule:evenodd;stroke:none;stroke-width:.352771"/><path d="M.266 3.175c-.008.402.032.799.118 1.19.204.874.746 1.409 1.621 1.603.387.08.777.118 1.17.116v-2.91Z" style="fill:#60a5cf;fill-opacity:1;fill-rule:evenodd;stroke:none;stroke-width:.352771"/><path d="m6.083 3.178-2.908.015v2.891c.09 0 .181-.002.272-.007.433-.007.854-.08 1.262-.218.504-.185.869-.52 1.094-1.008.121-.281.2-.574.237-.878.03-.265.042-.53.043-.795Z" style="fill:#e96565;fill-opacity:1;fill-rule:evenodd;stroke:none;stroke-width:.352771"/><path fill="#fff" d="M3.788 1.467c-.355-.095-.599.393-.655.936-.145-.641-.547-1.172-.972-.695-.158.177-.194.32-.17.436-.117-.01-.256.042-.414.22-.375.42.15.77.775.864-.617.154-1.105.545-.64.957.177.158.321.194.437.17-.011.118.042.256.22.414.411.366.757-.127.86-.732.171.589.572 1.04.938.629.158-.177.195-.32.171-.436.118.01.256-.042.415-.22.413-.463-.12-.795-.751-.877.61-.164 1.093-.573.671-.948-.177-.157-.321-.194-.436-.17.01-.117-.043-.255-.22-.414a.579.579 0 0 0-.23-.134ZM3.167 3.17c0 .004 0 .008.002.012h-.004l.002-.012z" style="stroke-width:.841"/></svg>