<svg xmlns="http://www.w3.org/2000/svg" width="24" height="24" fill="none"><defs><radialGradient id="a" cx="0" cy="0" r="1" gradientTransform="matrix(0 22 -22 0 12 1)" gradientUnits="userSpaceOnUse"><stop offset="0" stop-color="#8FC8FF" style="stop-color:#f6f6f6;stop-opacity:1"/><stop offset="1" stop-color="#0056A8" style="stop-color:#cfcfcf;stop-opacity:1"/></radialGradient></defs><path d="M50 5C9.09 5 5 25.455 5 50c0 32.727 12.273 45 45 45 32.727 0 45-12.273 45-45 0-24.545-4.09-45-45-45Z" style="font-variation-settings:normal;display:inline;opacity:1;vector-effect:none;fill:#5d6875;fill-opacity:1;stroke-width:4.56656;stroke-linecap:butt;stroke-linejoin:miter;stroke-miterlimit:4;stroke-dasharray:none;stroke-dashoffset:0;stroke-opacity:1;-inkscape-stroke:none;stop-color:#000;stop-opacity:1" transform="matrix(.24444 0 0 .24444 -.222 -.222)"/><g fill="#fff" paint-order="stroke markers fill" transform="matrix(.68504 0 0 .68504 -9.921 -9.7)"><rect width="12" height="20" x="26" y="20" rx="6" ry="6"/><path d="M23.5 33.5a.499.499 0 0 0-.5.5.499.499 0 0 0 .006.062A9 9 0 0 0 32 43a9 9 0 0 0 8.996-8.95.499.499 0 0 0 .002-.036 9 9 0 0 0 0-.014.499.499 0 0 1 0-.002.499.499 0 0 0-.5-.498.499.499 0 0 0-.498.498h-.002a7.998 7.998 0 0 1-7.998 8 7.998 7.998 0 0 1-7.996-8h-.006a.499.499 0 0 0-.498-.498Z"/></g></svg>