<svg xmlns="http://www.w3.org/2000/svg" xml:space="preserve" width="24" height="24" viewBox="0 0 6.35 6.35"><defs><clipPath id="b" clipPathUnits="userSpaceOnUse"><path d="M0 0h19v19H0Z"/></clipPath><clipPath id="c" clipPathUnits="userSpaceOnUse"><path d="M0 0h19v19H0Z"/></clipPath><clipPath id="d" clipPathUnits="userSpaceOnUse"><path d="M0 0h19v19H0Z"/></clipPath><clipPath id="e" clipPathUnits="userSpaceOnUse"><path d="M0 0h19v19H0Z"/></clipPath><radialGradient id="a" cx="0" cy="0" r="1" gradientTransform="rotate(90 1.455 1.72) scale(5.82072)" gradientUnits="userSpaceOnUse"><stop stop-color="#FAFAFA"/><stop offset="1" stop-color="#B0B0B0"/></radialGradient></defs><path fill="url(#a)" fill-rule="evenodd" d="M2.63.283a.312.312 0 0 1-.091.012c-.197.015-.39.047-.582.094-.822.195-1.34.7-1.555 1.517-.1.416-.146.838-.136 1.266-.008.403.031.801.118 1.194.205.873.745 1.407 1.621 1.603.477.097.957.134 1.443.108.432-.007.852-.08 1.26-.218a1.87 1.87 0 0 0 1.095-1.008c.121-.281.2-.574.236-.879.049-.433.059-.867.03-1.302a3.775 3.775 0 0 0-.2-1.012A1.886 1.886 0 0 0 4.77.51a3.581 3.581 0 0 0-1-.224A8.37 8.37 0 0 0 2.63.283z" clip-rule="evenodd" style="fill:url(#a);stroke-width:.264578"/><path d="M7.984 4.125a4.266 4.266 0 0 0-4.265 4.266v4.265h4.265a4.266 4.266 0 1 0 0-8.531z" clip-path="url(#b)" opacity=".6" style="fill:#fff;fill-opacity:1;fill-rule:nonzero;stroke:none" transform="scale(.35277)"/><path d="M7.984 4.125a4.266 4.266 0 0 0-4.265 4.266v4.265h4.265a4.266 4.266 0 1 0 0-8.531z" clip-path="url(#c)" opacity=".8" style="fill:#f2f2f2;fill-opacity:1;fill-rule:nonzero;stroke:none" transform="scale(.35277)"/><path d="M20.269 1.935a1.504 1.504 0 0 1-1.103 2.53h-.336c.281.276.659.43 1.053.43h1.505V3.39c0-.682-.46-1.28-1.12-1.455z" style="fill:#69e17c;fill-opacity:1;fill-rule:nonzero;stroke:none;stroke-width:.352771" transform="translate(-16.35)"/><path d="M7.984 4.125a4.266 4.266 0 0 0-4.265 4.266v4.265h4.265a4.266 4.266 0 1 0 0-8.531z" clip-path="url(#d)" opacity=".6" style="fill:#fff;fill-opacity:1;fill-rule:nonzero;stroke:none" transform="scale(.35277)"/><path d="M10.016 5.344a4.266 4.266 0 0 1 4.265 4.265v4.266h-4.265a4.266 4.266 0 0 1 0-8.531z" clip-path="url(#e)" opacity=".6" style="fill:#69e17c;fill-opacity:1;fill-rule:nonzero;stroke:none" transform="scale(.35277)"/><path d="M19.382 3.175h1.146c.04 0 .072.032.072.072 0 .04-.032.071-.072.071h-1.146a.071.071 0 0 1-.072-.071c0-.04.031-.072.072-.072zM19.382 3.605h.93c.041 0 .073.032.073.072 0 .04-.032.071-.072.071h-.931a.071.071 0 0 1-.072-.071c0-.04.031-.072.072-.072z" style="fill:#fff;fill-opacity:1;fill-rule:nonzero;stroke:none;stroke-width:.352771" transform="translate(-16.35)"/></svg>