<svg xmlns="http://www.w3.org/2000/svg" width="24" height="24"><rect width="56.002" height="56.002" x="170.25" y="5.119" fill="#fff" rx="13.002" ry="13.002"/><path d="M9.593 1.115c.12 0 .235-.016.344-.047a31.814 31.814 0 0 1 4.308.01 13.68 13.68 0 0 1 3.781.849c2.026.833 3.41 2.281 4.162 4.338.42 1.24.676 2.516.754 3.823a28.303 28.303 0 0 1-.114 4.928 11.968 11.968 0 0 1-.896 3.317c-.85 1.844-2.23 3.115-4.135 3.812-1.543.522-3.13.798-4.767.824a21.33 21.33 0 0 1-5.452-.412c-3.308-.734-5.354-2.754-6.125-6.057a18.991 18.991 0 0 1-.448-4.51 18.502 18.502 0 0 1 .516-4.787c.812-3.083 2.77-4.995 5.875-5.734a13.692 13.692 0 0 1 2.197-.354z" style="fill:#f2f2f2;fill-opacity:1;fill-rule:evenodd;stroke:none;stroke-width:1.33333"/><path fill="#333" d="M11.778 5.5c-.581 0-1.16.433-1.945 1.3 1.023-.506 2.854-.525 3.9 0-.792-.867-1.375-1.3-1.955-1.3ZM12 7.233A5.604 5.604 0 0 0 8.344 8.59l-.671-.692-.582.612.665.665a5.605 5.605 0 0 0-1.39 3.692A5.64 5.64 0 0 0 12 18.5c3.075 0 5.572-2.477 5.624-5.54a.433.433 0 0 0 .01-.094.433.433 0 0 0-.01-.096C17.57 9.71 15.074 7.232 12 7.232Zm0 .867a4.761 4.761 0 0 1 4.767 4.766A4.759 4.759 0 0 1 12 17.634a4.759 4.759 0 0 1-4.767-4.768A4.76 4.76 0 0 1 12 8.1Zm-.006 1.586a.433.433 0 0 0-.427.439v2.79l2.462 2.502a.433.433 0 1 0 .618-.608l-2.213-2.248v-2.437a.433.433 0 0 0-.44-.439Z" style="stroke-width:1"/></svg>