<svg xmlns="http://www.w3.org/2000/svg" xml:space="preserve" width="24" height="24"><defs><radialGradient id="a" cx="0" cy="0" r="1" fx="0" fy="0" gradientTransform="matrix(0 22 -22 0 -22 1)" gradientUnits="userSpaceOnUse" spreadMethod="pad"><stop offset="0" style="stop-opacity:1;stop-color:#63779c"/><stop offset="1" style="stop-opacity:1;stop-color:#3c4860"/></radialGradient></defs><path d="M-24.063 1.068c-.11.03-.224.047-.344.047-.739.057-1.473.177-2.197.354-3.104.739-5.063 2.651-5.875 5.734a18.502 18.502 0 0 0-.516 4.786c-.032 1.522.12 3.027.448 4.511.77 3.303 2.817 5.323 6.125 6.057 1.802.37 3.619.511 5.452.412a15.591 15.591 0 0 0 4.767-.824c1.905-.697 3.285-1.968 4.135-3.812.458-1.062.756-2.166.896-3.317.182-1.641.218-3.281.114-4.928a14.563 14.563 0 0 0-.754-3.823c-.751-2.057-2.136-3.505-4.162-4.338a13.68 13.68 0 0 0-3.781-.848c-1.433-.1-2.87-.106-4.308-.011z" style="fill:url(#a);fill-rule:evenodd;stroke:none;stroke-width:1.33333" transform="translate(34)"/><path fill="#fa6968" d="M11.947 5.5A6.5 6.5 0 0 0 5.5 12a6.5 6.5 0 0 0 6.5 6.5 6.5 6.5 0 0 0 6.5-6.5A6.5 6.5 0 0 0 12 5.5a6.5 6.5 0 0 0-.053 0zM12 8.237A3.763 3.763 0 0 1 15.763 12 3.763 3.763 0 0 1 12 15.763 3.763 3.763 0 0 1 8.237 12 3.763 3.763 0 0 1 12 8.237z" style="stroke-width:1"/></svg>