<svg xmlns="http://www.w3.org/2000/svg" width="24" height="24" fill="none"><defs><radialGradient id="a" cx="0" cy="0" r="1" gradientTransform="matrix(0 22 -22 0 12 1)" gradientUnits="userSpaceOnUse"><stop offset="0" stop-color="#8FC8FF" style="stop-color:#f6f6f6;stop-opacity:1"/><stop offset="1" stop-color="#0056A8" style="stop-color:#cfcfcf;stop-opacity:1"/></radialGradient></defs><path d="M50 5C9.09 5 5 25.455 5 50c0 32.727 12.273 45 45 45 32.727 0 45-12.273 45-45 0-24.545-4.09-45-45-45Z" style="font-variation-settings:normal;display:inline;opacity:1;vector-effect:none;fill:#ef5b25;fill-opacity:1;stroke-width:4.56656;stroke-linecap:butt;stroke-linejoin:miter;stroke-miterlimit:4;stroke-dasharray:none;stroke-dashoffset:0;stroke-opacity:1;-inkscape-stroke:none;stop-color:#000;stop-opacity:1" transform="matrix(.24444 0 0 .24444 -.222 -.222)"/><path fill="#fff" d="M17.198 5.087a1.744 1.744 0 0 1 1.172.389L16.817 7.02a.127.127 0 0 0 0 .166l1.206 1.2a1.752 1.752 0 0 1-2.024-.347l.007.014a1.754 1.754 0 0 1 .055-2.482 1.748 1.748 0 0 1 1.137-.485zm1.338.547a1.736 1.736 0 0 1-.056 2.42 1.981 1.981 0 0 1-.263.215L17.059 7.11Zm-.058.892a.123.123 0 0 0-.087.017c-.063.027-.098.103-.07.166 0 .007.006.007.006.014a.389.389 0 0 1-.047.43c-.049.047-.056.13-.008.18l.008.007a.198.198 0 0 0 .09 0 .133.133 0 0 0 .097-.049.64.64 0 0 0 .082-.72.111.111 0 0 0-.071-.045zm-3.485 1.21c.248.02.443.137.639.297a.834.834 0 0 0-.569.243l-4.283 4.282-.915-.915c3.16-3.155 4.384-3.967 5.128-3.907Zm.653.562c.152 0 .305.057.423.171a.6.6 0 0 1-.028.867l-4.513 3.979-.575-.603 4.27-4.243a.607.607 0 0 1 .422-.171zm.665 1.073c-.145 1.29-1.961 3.119-3.826 4.9l-.804-.804 4.511-3.972a.68.68 0 0 0 .119-.125zm-6.613 2.412.853.874-1.934.414a.078.078 0 0 1-.09-.061c-.007-.028 0-.05.02-.07l.021-.027 1.13-1.13zm1.095 1.13.478.443-1.06.27a.051.051 0 0 1-.062 0 .063.063 0 0 1 0-.069zm.68.658.838.838a23.383 23.383 0 0 1-4.907 3.148v.013h-.007a.224.224 0 0 0-.118.243l.194.831a.133.133 0 0 1-.055.14c-.042.034-.104.034-.139 0L6.101 17.57l3.618-3.625 1.754-.374Zm-5.56 4.173 1.18 1.17-2.025-.13c-.028-.008-.056-.029-.063-.05a.141.141 0 0 1 0-.076z" style="stroke-width:.427487"/></svg>