<svg xmlns="http://www.w3.org/2000/svg" width="24" height="24" fill="none"><defs><radialGradient id="a" cx="0" cy="0" r="1" gradientTransform="matrix(0 22 -22 0 12 1)" gradientUnits="userSpaceOnUse"><stop offset="0" stop-color="#8FC8FF" style="stop-color:#f6f6f6;stop-opacity:1"/><stop offset="1" stop-color="#0056A8" style="stop-color:#cfcfcf;stop-opacity:1"/></radialGradient></defs><path d="M50 5C9.09 5 5 25.455 5 50c0 32.727 12.273 45 45 45 32.727 0 45-12.273 45-45 0-24.545-4.09-45-45-45Z" style="font-variation-settings:normal;display:inline;opacity:1;vector-effect:none;fill:#4d4d4d;fill-opacity:1;stroke-width:4.56656;stroke-linecap:butt;stroke-linejoin:miter;stroke-miterlimit:4;stroke-dasharray:none;stroke-dashoffset:0;stroke-opacity:1;-inkscape-stroke:none;stop-color:#000;stop-opacity:1" transform="matrix(.24444 0 0 .24444 -.222 -.222)"/><path fill="#fff" d="M11.984 2.984a9.016 9.016 0 0 0-8.41 5.796h.039l1.931-.644 1.289 1.288V8.136l1.288-.644v-.644l1.287-.644 1.288-1.288v.644l.644-.644-.644-.644h1.288v.644l1.288-.644-.644-.644v-.612a9.016 9.016 0 0 0-.644-.032Zm6.682 2.979-.242.241v.644h.946a9.016 9.016 0 0 0-.704-.885zm.847 1.084-2.377 2.377-.644 1.932V12l1.288 1.288 1.288.644 1.797-.443a9.016 9.016 0 0 0 .135-1.49 9.016 9.016 0 0 0-1.487-4.952ZM4.257 10.068l-.645.644h-.54a9.076 9.076 0 0 0-.072.659v.001L4.257 12l.644.644 1.288.644.643.644-.643.644v1.288l.643 1.288L8.12 18.44v1.693a9.016 9.016 0 0 0 3.864.883c.11-.002.219-.006.329-.012l.315-.632v-.644l1.288-.644.644-.644v-1.288l.644-.644v-.645l-.644-.643-1.932-.645-1.288-1.287h-.644l-.644-.645L8.12 12l-1.288.644H5.544v-1.288H4.9v-1.288z" opacity=".5"/><path fill="#ffdb4e" d="M11.203 6.16c-1.482 0-2.104.59-2.104 2.094v1.202c0 .93-.028 2.006-.846 2.006h-.424v1.076h.424c.818 0 .846 1.076.846 2.006v1.202c0 1.505.622 2.094 2.104 2.094v-.988c-.988 0-1.002-.399-1.002-1.844v-.847c0-.694-.17-1.726-1.003-2.153.832-.428 1.003-1.46 1.003-2.154v-.862c0-1.445.014-1.844 1.001-1.844zm1.58 0v.988c.989 0 1.016.399 1.016 1.844v.862c0 .693.17 1.727 1.003 2.154-.832.427-1.003 1.46-1.003 2.153v.847c0 1.445-.027 1.844-1.016 1.844v.988c1.483 0 2.118-.59 2.118-2.094v-1.202c0-.929.056-2.005.861-2.005h.41v-1.076h-.41c-.805 0-.861-1.076-.861-2.006V8.254c0-1.505-.634-2.094-2.118-2.094z" style="stroke-width:.417128"/></svg>