<svg xmlns="http://www.w3.org/2000/svg" width="24" height="24" fill="none"><defs><radialGradient id="a" cx="0" cy="0" r="1" gradientTransform="matrix(0 22 -22 0 12 1)" gradientUnits="userSpaceOnUse"><stop offset="0" stop-color="#8FC8FF" style="stop-color:#f6f6f6;stop-opacity:1"/><stop offset="1" stop-color="#0056A8" style="stop-color:#cfcfcf;stop-opacity:1"/></radialGradient></defs><path d="M50 5C9.09 5 5 25.455 5 50c0 32.727 12.273 45 45 45 32.727 0 45-12.273 45-45 0-24.545-4.09-45-45-45Z" style="font-variation-settings:normal;display:inline;opacity:1;vector-effect:none;fill:#4d4d4d;fill-opacity:1;stroke-width:4.56656;stroke-linecap:butt;stroke-linejoin:miter;stroke-miterlimit:4;stroke-dasharray:none;stroke-dashoffset:0;stroke-opacity:1;-inkscape-stroke:none;stop-color:#000;stop-opacity:1" transform="matrix(.24444 0 0 .24444 -.222 -.222)"/><path fill="#fff" d="M11.984 2.984a9.016 9.016 0 0 0-8.41 5.796h.039l1.931-.644 1.289 1.288V8.136l1.288-.644v-.644l1.287-.644 1.288-1.288v.644l.644-.644-.644-.644h1.288v.644l1.288-.644-.644-.644v-.612a9.016 9.016 0 0 0-.644-.032Zm6.682 2.979-.242.241v.644h.946a9.016 9.016 0 0 0-.704-.885zm.847 1.084-2.377 2.377-.644 1.932V12l1.288 1.288 1.288.644 1.797-.443a9.016 9.016 0 0 0 .135-1.49 9.016 9.016 0 0 0-1.487-4.952ZM4.257 10.068l-.645.644h-.54a9.076 9.076 0 0 0-.072.659v.001L4.257 12l.644.644 1.288.644.643.644-.643.644v1.288l.643 1.288L8.12 18.44v1.693a9.016 9.016 0 0 0 3.864.883c.11-.002.219-.006.329-.012l.315-.632v-.644l1.288-.644.644-.644v-1.288l.644-.644v-.645l-.644-.643-1.932-.645-1.288-1.287h-.644l-.644-.645L8.12 12l-1.288.644H5.544v-1.288H4.9v-1.288z" opacity=".5"/><path fill="#ffdb4f" d="M6.76 6.76v3.743h3.743V6.759Zm5.24 0v.748h.749v-.749Zm1.497 0v3.743h3.744V6.759Zm-5.99.748h2.247v2.246H7.508zm6.74 0h2.245v2.246h-2.246Zm-5.99.749v.748h.748v-.748Zm2.994 0v1.497H12v-.749h.749v-.748H12ZM12 9.754v.749h-.749v.748h-.748V12h.748v.749h1.498V12H12v-.749h.749V9.754Zm.749 1.497V12h.748v.749h.75V12h.748v-.749h-1.498zm2.246-2.994v.748h.748v-.748ZM7.508 11.25V12h.749v-.749Zm.749.749v.749h1.497V11.25h-.749V12Zm-.75 0H6.76v.749h.749Zm8.236-.749V12h.75v-.749zm0 1.498v.748h.75v-.748zm.75.748v.75h.748v-.75zm-9.734 0v3.744h3.744v-3.744zm5.99 0v.75h.748v-.75zm0 .75H12v.748h-.749v.748H12v.75h.749v-1.498zm1.497-.75v.75h.749v-.75zm.749.75v.748h.748v-.749zm.748.748v.748h.75v-.748zm0 .748h-.748v1.498h.748v-.749zm-.748 0v-.748h-1.498v1.497h.75v-.749Zm-7.487-1.497h2.246v2.246H7.508zm.749.749v.748h.748v-.748zm8.235 1.497v.749h.749v-.749z" style="stroke-width:.374346"/></svg>