<svg xmlns="http://www.w3.org/2000/svg" width="24" height="24"><path d="M9.593 1.115c.12 0 .235-.016.344-.047a31.814 31.814 0 0 1 4.308.01 13.68 13.68 0 0 1 3.781.849c2.026.833 3.41 2.281 4.162 4.338.42 1.24.676 2.516.754 3.823a28.303 28.303 0 0 1-.114 4.928 11.968 11.968 0 0 1-.896 3.317c-.85 1.844-2.23 3.115-4.135 3.812-1.543.522-3.13.798-4.767.824a21.33 21.33 0 0 1-5.452-.412c-3.308-.734-5.354-2.754-6.125-6.057a18.991 18.991 0 0 1-.448-4.51 18.502 18.502 0 0 1 .516-4.787c.812-3.083 2.77-4.995 5.875-5.734a13.692 13.692 0 0 1 2.197-.354z" style="fill:#f2f2f2;fill-opacity:1;fill-rule:evenodd;stroke:none;stroke-width:1.33333"/><g style="stroke-width:3.85715" transform="matrix(.25926 0 0 .25926 -6.667 3.704)"><rect width="54" height="54" x="45" y="5" fill="#ececec" ry="27" style="stroke-width:3.85715"/><path d="M72 8c13.296 0 24 10.704 24 24S85.296 56 72 56 48 45.296 48 32 58.704 8 72 8Z" opacity=".15" style="stroke-width:3.85715"/><path fill="#3a3c3d" d="M76 36 58 46l10-18Z" style="stroke-width:3.85715"/><path fill="#d52337" d="m68 28 18-10-10 18Z" style="stroke-width:3.85715"/><path fill="#4d4d4d" d="M73 12h-2V8h2z" style="stroke-width:3.85715"/><path fill="#bdc3c7" d="M74 32a2 2 0 0 1-2 2 2 2 0 0 1-2-2 2 2 0 0 1 2-2 2 2 0 0 1 2 2z" style="stroke-width:3.85715"/><path fill="#9fa5a8" d="M73 32a1 1 0 0 1-1 1 1 1 0 0 1-1-1 1 1 0 0 1 1-1 1 1 0 0 1 1 1z" style="stroke-width:3.85715"/><path fill="#4d4d4d" d="M52 31v2h-4v-2zm44 0v2h-4v-2ZM73 56h-2v-4h2z" style="stroke-width:3.85715"/></g></svg>