<svg xmlns="http://www.w3.org/2000/svg" width="24" height="24" fill="none"><defs><radialGradient id="a" cx="0" cy="0" r="1" gradientTransform="matrix(0 22 -22 0 12 1)" gradientUnits="userSpaceOnUse"><stop offset="0" stop-color="#8FC8FF" style="stop-color:#f6f6f6;stop-opacity:1"/><stop offset="1" stop-color="#0056A8" style="stop-color:#cfcfcf;stop-opacity:1"/></radialGradient></defs><path d="M50 5C9.09 5 5 25.455 5 50c0 32.727 12.273 45 45 45 32.727 0 45-12.273 45-45 0-24.545-4.09-45-45-45Z" style="font-variation-settings:normal;display:inline;opacity:1;vector-effect:none;fill:#4d4d4d;fill-opacity:1;stroke-width:4.56656;stroke-linecap:butt;stroke-linejoin:miter;stroke-miterlimit:4;stroke-dasharray:none;stroke-dashoffset:0;stroke-opacity:1;-inkscape-stroke:none;stop-color:#000;stop-opacity:1" transform="matrix(.24444 0 0 .24444 -.222 -.222)"/><path fill="#fff" d="M11.984 2.984a9.016 9.016 0 0 0-8.41 5.796h.039l1.931-.644 1.289 1.288V8.136l1.288-.644v-.644l1.287-.644 1.288-1.288v.644l.644-.644-.644-.644h1.288v.644l1.288-.644-.644-.644v-.612a9.016 9.016 0 0 0-.644-.032Zm6.682 2.979-.242.241v.644h.946a9.016 9.016 0 0 0-.704-.885zm.847 1.084-2.377 2.377-.644 1.932V12l1.288 1.288 1.288.644 1.797-.443a9.016 9.016 0 0 0 .135-1.49 9.016 9.016 0 0 0-1.487-4.952ZM4.257 10.068l-.645.644h-.54a9.076 9.076 0 0 0-.072.659v.001L4.257 12l.644.644 1.288.644.643.644-.643.644v1.288l.643 1.288L8.12 18.44v1.693a9.016 9.016 0 0 0 3.864.883c.11-.002.219-.006.329-.012l.315-.632v-.644l1.288-.644.644-.644v-1.288l.644-.644v-.645l-.644-.643-1.932-.645-1.288-1.287h-.644l-.644-.645L8.12 12l-1.288.644H5.544v-1.288H4.9v-1.288z" opacity=".5"/><path fill="#ffdb4f" d="M12 7.333a1.333 1.333 0 0 0-1.333 1.334 1.333 1.333 0 0 0 .02.225A4 4 0 0 0 8 12.667a4 4 0 0 0 4 4 4 4 0 0 0 4-4 4 4 0 0 0-.757-2.335.667.667 0 0 0 .09-.332.667.667 0 0 0-.666-.667.667.667 0 0 0-.334.09 4 4 0 0 0-1.02-.53 1.333 1.333 0 0 0 .02-.226A1.333 1.333 0 0 0 12 7.333ZM12 8a.667.667 0 0 1 .667.667.667.667 0 0 1-.004.056A4 4 0 0 0 12 8.667a4 4 0 0 0-.664.06.667.667 0 0 1-.003-.06A.667.667 0 0 1 12 8Zm0 1.333a3.333 3.333 0 0 1 .294.014 3.333 3.333 0 0 1 .04.003 3.333 3.333 0 0 1 .086.013 3.333 3.333 0 0 1 .213.034 3.333 3.333 0 0 1 .09.02 3.333 3.333 0 0 1 .246.064 3.333 3.333 0 0 1 .069.02 3.333 3.333 0 0 1 .001 0 3.333 3.333 0 0 1 .042.016 3.333 3.333 0 0 1 .228.088 3.333 3.333 0 0 1 .088.04 3.333 3.333 0 0 1 .219.112 3.333 3.333 0 0 1 .059.033 3.333 3.333 0 0 1 .243.157 3.333 3.333 0 0 1 .01.005 3.333 3.333 0 0 1 .04.03 3.333 3.333 0 0 1 .032.023 3.333 3.333 0 0 1 .661.662 3.333 3.333 0 0 1 .002.002 3.333 3.333 0 0 1 .177.26 3.333 3.333 0 0 1 .009.014 3.333 3.333 0 0 1 .005.01 3.333 3.333 0 0 1 .15.278 3.333 3.333 0 0 1 .003.004 3.333 3.333 0 0 1 .002.006 3.333 3.333 0 0 1 .117.281 3.333 3.333 0 0 1 .015.04 3.333 3.333 0 0 1 .08.258 3.333 3.333 0 0 1 .02.082 3.333 3.333 0 0 1 .043.215 3.333 3.333 0 0 1 .02.134 3.333 3.333 0 0 1 .017.186 3.333 3.333 0 0 1 .012.23 3.333 3.333 0 0 1-.014.294 3.333 3.333 0 0 1-.017.14 3.333 3.333 0 0 1-.029.183 3.333 3.333 0 0 1-.035.157 3.333 3.333 0 0 1-.04.162 3.333 3.333 0 0 1-.056.166 3.333 3.333 0 0 1-.053.148 3.333 3.333 0 0 1-.08.174 3.333 3.333 0 0 1-.057.118 3.333 3.333 0 0 1-.097.17 3.333 3.333 0 0 1-.076.125 3.333 3.333 0 0 1-.106.147 3.333 3.333 0 0 1-.091.12 3.333 3.333 0 0 1-.116.133 3.333 3.333 0 0 1-.11.118 3.333 3.333 0 0 1-.12.11 3.333 3.333 0 0 1-.132.117 3.333 3.333 0 0 1-.12.091 3.333 3.333 0 0 1-.147.105 3.333 3.333 0 0 1-.125.077 3.333 3.333 0 0 1-.17.097 3.333 3.333 0 0 1-.117.057 3.333 3.333 0 0 1-.175.08 3.333 3.333 0 0 1-.147.053 3.333 3.333 0 0 1-.166.056 3.333 3.333 0 0 1-.162.04 3.333 3.333 0 0 1-.158.035 3.333 3.333 0 0 1-.184.029 3.333 3.333 0 0 1-.139.017A3.333 3.333 0 0 1 12 16a3.333 3.333 0 0 1-.294-.014 3.333 3.333 0 0 1-.14-.017 3.333 3.333 0 0 1-.183-.029 3.333 3.333 0 0 1-.158-.035 3.333 3.333 0 0 1-.161-.04 3.333 3.333 0 0 1-.167-.056 3.333 3.333 0 0 1-.147-.054 3.333 3.333 0 0 1-.175-.08 3.333 3.333 0 0 1-.118-.056 3.333 3.333 0 0 1-.169-.097 3.333 3.333 0 0 1-.125-.077 3.333 3.333 0 0 1-.147-.105 3.333 3.333 0 0 1-.12-.091 3.333 3.333 0 0 1-.133-.116 3.333 3.333 0 0 1-.118-.111 3.333 3.333 0 0 1-.111-.119 3.333 3.333 0 0 1-.116-.132 3.333 3.333 0 0 1-.091-.12 3.333 3.333 0 0 1-.106-.147 3.333 3.333 0 0 1-.076-.125 3.333 3.333 0 0 1-.097-.17 3.333 3.333 0 0 1-.057-.118 3.333 3.333 0 0 1-.08-.174 3.333 3.333 0 0 1-.053-.147 3.333 3.333 0 0 1-.056-.167 3.333 3.333 0 0 1-.04-.162 3.333 3.333 0 0 1-.035-.157 3.333 3.333 0 0 1-.029-.184 3.333 3.333 0 0 1-.017-.14 3.333 3.333 0 0 1-.014-.293 3.333 3.333 0 0 1 .014-.294 3.333 3.333 0 0 1 .016-.127 3.333 3.333 0 0 1 .033-.212 3.333 3.333 0 0 1 .021-.097 3.333 3.333 0 0 1 .059-.228 3.333 3.333 0 0 1 .031-.094 3.333 3.333 0 0 1 .078-.215 3.333 3.333 0 0 1 .048-.107 3.333 3.333 0 0 1 .097-.196 3.333 3.333 0 0 1 .045-.082 3.333 3.333 0 0 1 .13-.212 3.333 3.333 0 0 1 .042-.057 3.333 3.333 0 0 1 .164-.215 3.333 3.333 0 0 1 .026-.03 3.333 3.333 0 0 1 .21-.224 3.333 3.333 0 0 1 .246-.216 3.333 3.333 0 0 1 .016-.013 3.333 3.333 0 0 1 .251-.178 3.333 3.333 0 0 1 .027-.017 3.333 3.333 0 0 1 .271-.155 3.333 3.333 0 0 1 .303-.135 3.333 3.333 0 0 1 .748-.194 3.333 3.333 0 0 1 .017-.003 3.333 3.333 0 0 1 .014-.001 3.333 3.333 0 0 1 .247-.022 3.333 3.333 0 0 1 .076-.006A3.333 3.333 0 0 1 12 9.333ZM12 10v2a.667.667 0 0 1 .667.667h2a2.667 2.667 0 0 0-.012-.226 2.667 2.667 0 0 0-.017-.14 2.667 2.667 0 0 0-.018-.124 2.667 2.667 0 0 0-.034-.148 2.667 2.667 0 0 0-.027-.103 2.667 2.667 0 0 0-.046-.143 2.667 2.667 0 0 0-.044-.12 2.667 2.667 0 0 0-.052-.116 2.667 2.667 0 0 0-.06-.124 2.667 2.667 0 0 0-.063-.109 2.667 2.667 0 0 0-.077-.125 2.667 2.667 0 0 0-.064-.09 2.667 2.667 0 0 0-.094-.124 2.667 2.667 0 0 0-.076-.086 2.667 2.667 0 0 0-.099-.106 2.667 2.667 0 0 0-.107-.1 2.667 2.667 0 0 0-.086-.075 2.667 2.667 0 0 0-.123-.093 2.667 2.667 0 0 0-.09-.066 2.667 2.667 0 0 0-.125-.076 2.667 2.667 0 0 0-.11-.063 2.667 2.667 0 0 0-.123-.06 2.667 2.667 0 0 0-.116-.052 2.667 2.667 0 0 0-.12-.045 2.667 2.667 0 0 0-.143-.046 2.667 2.667 0 0 0-.103-.026 2.667 2.667 0 0 0-.149-.034 2.667 2.667 0 0 0-.123-.018 2.667 2.667 0 0 0-.14-.017A2.667 2.667 0 0 0 12 10Z"/></svg>