<svg xmlns="http://www.w3.org/2000/svg" width="24" height="24"><path d="M12 1C2 1 1 6 1 12c0 8 3 11 11 11s11-3 11-11c0-6-1-11-11-11Z" style="font-variation-settings:normal;display:inline;vector-effect:none;fill:#ececec;fill-opacity:1;stroke-width:1.11627;stroke-linecap:butt;stroke-linejoin:miter;stroke-miterlimit:4;stroke-dasharray:none;stroke-dashoffset:0;stroke-opacity:1;-inkscape-stroke:none;stop-color:#000"/><g fill-rule="evenodd"><path fill="#7cd1cc" d="M13.271 10.09h3.82v3.82h-3.82z"/><path fill="#b3b3b3" d="M5.637 5v3.182h3.181V5zm.635.637h.636v.636h.636v-.636h.637v.636h-.637v.636h.637v.637h-.637v-.637h-.636v.637h-.636zM10.09 5v.636h8.272V5zm0 1.909v.636h8.272V6.91zm-4.453 1.91v.635h5.09v-.636zm6.363 0v6.363h6.363V8.818Zm.636.635h5.09v5.091h-5.09Zm-7 1.273v.636h5.091v-.636zm0 1.91v.636h5.091v-.637zm0 1.908v.637h5.091v-.637zm0 1.91v.636h12.727v-.636zm0 1.909V19h12.727v-.636z"/></g></svg>