<svg xmlns="http://www.w3.org/2000/svg" xmlns:xlink="http://www.w3.org/1999/xlink" xml:space="preserve" id="svg3352" width="24" height="24" version="1.1"><defs id="defs3332"><linearGradient id="a" x1="13.229" x2="2.117" y1="297" y2="280.07" gradientTransform="matrix(.99324 0 0 .78268 -16.45 -215.555)" gradientUnits="userSpaceOnUse"><stop id="stop3327" offset="0" stop-color="#66bcff"/><stop id="stop3329" offset="1" stop-color="#b29aff"/></linearGradient><linearGradient id="a-5" x1="39.154" x2="59" y1="26" y2="26" gradientUnits="userSpaceOnUse"><stop id="stop29503" offset="0"/><stop id="stop29505" offset="1" stop-opacity="0"/></linearGradient><linearGradient id="paint0_linear_24_198" x1="23" x2="1" y1="1" y2="12" gradientTransform="translate(80.453 10.792)" gradientUnits="userSpaceOnUse"><stop id="stop29699" stop-color="#E3C880"/><stop id="stop29701" offset="1" stop-color="#6F5C38"/></linearGradient><linearGradient id="paint1_linear_24_198" x1="23" x2="1.429" y1="5.4" y2="23.511" gradientTransform="translate(80.453 10.792)" gradientUnits="userSpaceOnUse"><stop id="stop29704" stop-color="#FFE795"/><stop id="stop29706" offset="1" stop-color="#7A653E"/></linearGradient><linearGradient id="paint2_linear_24_198" x1="11.082" x2="11.082" y1="10.086" y2="15.903" gradientUnits="userSpaceOnUse"><stop id="stop29709" stop-color="#4285DB"/><stop id="stop29711" offset="1" stop-color="#42B9DB"/></linearGradient><linearGradient id="paint3_linear_24_198" x1="8.951" x2="14.068" y1="15.596" y2="15.596" gradientUnits="userSpaceOnUse"><stop id="stop29714" stop-color="#FAFBFB"/><stop id="stop29716" offset="1" stop-color="#FAFBFB" stop-opacity="0"/></linearGradient><linearGradient id="paint4_linear_24_198" x1="11.971" x2="11.279" y1="16.053" y2="16.053" gradientUnits="userSpaceOnUse"><stop id="stop29719"/><stop id="stop29721" offset="1" stop-opacity="0"/></linearGradient><linearGradient id="paint5_linear_24_198" x1="18.5" x2="5.359" y1="9" y2="21.102" gradientUnits="userSpaceOnUse"><stop id="stop29724" stop-color="#6F5C38"/><stop id="stop29726" offset="1" stop-color="#6F5C38"/></linearGradient><linearGradient id="paint6_linear_24_198" x1="11.582" x2="11.582" y1="9.586" y2="15.403" gradientTransform="translate(80.453 10.792)" gradientUnits="userSpaceOnUse"><stop id="stop29729" stop-color="#4285DB"/><stop id="stop29731" offset="1" stop-color="#42B9DB"/></linearGradient><linearGradient id="paint7_linear_24_198" x1="9.451" x2="14.568" y1="15.096" y2="15.096" gradientTransform="translate(74.369 10.9)" gradientUnits="userSpaceOnUse"><stop id="stop29734" stop-color="#FAFBFB"/><stop id="stop29736" offset="1" stop-color="#FAFBFB" stop-opacity="0"/></linearGradient><linearGradient id="paint8_linear_24_198" x1="12.471" x2="11.779" y1="15.553" y2="15.553" gradientTransform="translate(71.807 11.006)" gradientUnits="userSpaceOnUse"><stop id="stop29739"/><stop id="stop29741" offset="1" stop-opacity="0"/></linearGradient><linearGradient id="paint9_linear_24_198" x1="19" x2="5.859" y1="8.5" y2="20.602" gradientTransform="translate(80.453 10.792)" gradientUnits="userSpaceOnUse"><stop id="stop29744" stop-color="#777"/><stop id="stop29746" offset="1" stop-color="#333"/></linearGradient><linearGradient id="linearGradient1105"><stop id="stop1101" offset="0" style="stop-color:#019ac9;stop-opacity:1"/><stop id="stop1103" offset="1" style="stop-color:#91e5fd;stop-opacity:1"/></linearGradient><linearGradient xlink:href="#linearGradient1105" id="linearGradient4300" x1="37.624" x2="74.762" y1="20.781" y2="77.428" gradientTransform="matrix(2.67702 0 0 2.67702 -93.053 -5.194)" gradientUnits="userSpaceOnUse"/><linearGradient id="paint0_linear_3_29" x1="12" x2="12" y1="0" y2="12" gradientTransform="matrix(.91667 0 0 .91667 1 1)" gradientUnits="userSpaceOnUse"><stop id="stop36440" stop-color="#fff"/><stop id="stop36442" offset="1" stop-color="#D9D9D9"/></linearGradient><linearGradient id="paint0_linear_3_29-3" x1="12" x2="12" y1="0" y2="12" gradientTransform="matrix(.91667 0 0 .91667 1 1)" gradientUnits="userSpaceOnUse"><stop id="stop36440-6" stop-color="#fff"/><stop id="stop36442-7" offset="1" stop-color="#D9D9D9"/></linearGradient><linearGradient id="linearGradient28799-4"><stop id="stop28801-13" offset="0" style="stop-color:#fefefc;stop-opacity:1"/><stop id="stop28807-8" offset=".757" style="stop-color:#fefefc;stop-opacity:1"/><stop id="stop28803-8" offset="1" style="stop-color:#d4d4d4;stop-opacity:1"/></linearGradient><linearGradient id="linearGradient14392-7"><stop id="stop14394-8" offset="0" style="stop-color:#3e2a06;stop-opacity:1"/><stop id="stop14396-6" offset="1" style="stop-color:#ad780a;stop-opacity:1"/></linearGradient><linearGradient xlink:href="#linearGradient14392-7" id="linearGradient14477" x1="442.039" x2="490.122" y1="371.544" y2="293.585" gradientTransform="matrix(.87491 0 0 .81149 60.367 62.587)" gradientUnits="userSpaceOnUse"/><linearGradient xlink:href="#linearGradient14392-7" id="linearGradient14485" x1="442.039" x2="490.122" y1="371.544" y2="293.585" gradientUnits="userSpaceOnUse"/><linearGradient id="linearGradient14518-6"><stop id="stop14540-0" offset="0" style="stop-color:#110800;stop-opacity:1"/><stop id="stop14542-5" offset=".591" style="stop-color:#a65a00;stop-opacity:.80000001"/><stop id="stop14522-4" offset="1" style="stop-color:#ff921e;stop-opacity:0"/></linearGradient><linearGradient id="linearGradient28469-0"><stop id="stop28479-4" offset="0" style="stop-color:#d2940a;stop-opacity:1"/><stop id="stop28477-2" offset=".751" style="stop-color:#d89c08;stop-opacity:1"/><stop id="stop28485-7" offset=".866" style="stop-color:#b67e07;stop-opacity:1"/><stop id="stop28473-1" offset="1" style="stop-color:#946106;stop-opacity:1"/></linearGradient><linearGradient id="linearGradient28275-8"><stop id="stop28277-1" offset="0" style="stop-color:#ad780a;stop-opacity:1"/><stop id="stop28291-9" offset=".12" style="stop-color:#d89e08;stop-opacity:1"/><stop id="stop28289-6" offset=".255" style="stop-color:#edb80b;stop-opacity:1"/><stop id="stop28287-6" offset=".392" style="stop-color:#ebc80d;stop-opacity:1"/><stop id="stop28285-7" offset=".527" style="stop-color:#f5d838;stop-opacity:1"/><stop id="stop28283-7" offset=".769" style="stop-color:#f6d811;stop-opacity:1"/><stop id="stop28279-5" offset="1" style="stop-color:#f5cd31;stop-opacity:1"/></linearGradient><linearGradient id="linearGradient29529-6"><stop id="stop29531-0" offset="0" style="stop-color:#3a2903;stop-opacity:1"/><stop id="stop29539-7" offset=".555" style="stop-color:#735208;stop-opacity:1"/><stop id="stop29533-8" offset="1" style="stop-color:#ac8c04;stop-opacity:1"/></linearGradient><linearGradient id="linearGradient29477-3"><stop id="stop29479-5" offset="0" style="stop-color:#757574;stop-opacity:0"/><stop id="stop29487-5" offset=".263" style="stop-color:#757574;stop-opacity:1"/><stop id="stop29485-0" offset=".5" style="stop-color:#757574;stop-opacity:1"/><stop id="stop29481-3" offset="1" style="stop-color:#757574;stop-opacity:0"/></linearGradient><linearGradient id="linearGradient29336-6"><stop id="stop29338-1" offset="0" style="stop-color:#646464;stop-opacity:0"/><stop id="stop29344-7" offset=".306" style="stop-color:#646464;stop-opacity:.5825243"/><stop id="stop29354-5" offset=".47" style="stop-color:#646464;stop-opacity:1"/><stop id="stop29356-3" offset=".728" style="stop-color:#646464;stop-opacity:.25728154"/><stop id="stop29340-6" offset="1" style="stop-color:#646464;stop-opacity:0"/></linearGradient><linearGradient id="linearGradient28976-3"><stop id="stop28978-7" offset="0" style="stop-color:#747474;stop-opacity:1"/><stop id="stop29259-5" offset=".125" style="stop-color:#8c8c8c;stop-opacity:1"/><stop id="stop29257-0" offset=".25" style="stop-color:#a4a4a4;stop-opacity:1"/><stop id="stop28984-4" offset=".5" style="stop-color:#d4d4d4;stop-opacity:1"/><stop id="stop28986-0" offset=".619" style="stop-color:#d4d4d4;stop-opacity:1"/><stop id="stop28980-2" offset="1" style="stop-color:#7c7c7c;stop-opacity:1"/></linearGradient><linearGradient id="linearGradient28935-8"><stop id="stop28937-7" offset="0" style="stop-color:#949494;stop-opacity:.39215687"/><stop id="stop28943-3" offset=".5" style="stop-color:#949494;stop-opacity:1"/><stop id="stop28939-8" offset="1" style="stop-color:#949494;stop-opacity:.39215687"/></linearGradient><linearGradient id="linearGradient28853-5"><stop id="stop28855-3" offset="0" style="stop-color:#020204;stop-opacity:1"/><stop id="stop28865-0" offset=".734" style="stop-color:#020204;stop-opacity:1"/><stop id="stop28857-9" offset="1" style="stop-color:#5c5c5c;stop-opacity:1"/></linearGradient><linearGradient id="linearGradient1744" x1="12" x2="12" y1="0" y2="12" gradientTransform="translate(.75 .75) scale(.6875)" gradientUnits="userSpaceOnUse" spreadMethod="pad"><stop id="stop1740" offset="0" style="stop-opacity:1;stop-color:#fff"/><stop id="stop1742" offset="1" style="stop-opacity:1;stop-color:#d9d9d9"/></linearGradient><linearGradient id="linearGradient31395" x1="12" x2="12" y1="0" y2="12" gradientTransform="translate(.75 .75) scale(.6875)" gradientUnits="userSpaceOnUse" spreadMethod="pad"><stop id="stop31391" offset="0" style="stop-opacity:1;stop-color:#fff"/><stop id="stop31393" offset="1" style="stop-opacity:1;stop-color:#d9d9d9"/></linearGradient><linearGradient id="linearGradient31419" x1="19" x2="5.859" y1="8.5" y2="20.602" gradientTransform="matrix(.85714 0 0 .85714 -1.286 -2.786)" gradientUnits="userSpaceOnUse" spreadMethod="pad"><stop id="stop31415" offset="0" style="stop-opacity:1;stop-color:#777"/><stop id="stop31417" offset="1" style="stop-opacity:1;stop-color:#333"/></linearGradient><linearGradient id="a-2" x1="-240.47" x2="-240.47" y1="-60.605" y2="-29.026" gradientTransform="matrix(.96667 0 0 .95 262.45 67.575)" gradientUnits="userSpaceOnUse"><stop id="stop13351" offset="0" stop-color="#4285db" style="stop-color:#a89eff;stop-opacity:1"/><stop id="stop13353" offset="1" stop-color="#42b9db" style="stop-color:#6abaff;stop-opacity:1"/></linearGradient><linearGradient id="b" x1="10.583" x2="225.69" y1="-184.68" y2="-184.68" gradientTransform="translate(18.557 59.5) scale(.11417)" gradientUnits="userSpaceOnUse"><stop id="stop13356" offset="0" stop-color="#fafbfb"/><stop id="stop13358" offset="1" stop-color="#fafbfb" stop-opacity="0"/></linearGradient><linearGradient id="c" x1="520" x2="410" y1="-620" y2="-620" gradientTransform="translate(18.557 59.5) scale(.0302)" gradientUnits="userSpaceOnUse"><stop id="stop13361" offset="0"/><stop id="stop13363" offset="1" stop-opacity="0"/></linearGradient><linearGradient xlink:href="#a" id="linearGradient8909" x1="13.229" x2="2.117" y1="297" y2="280.07" gradientTransform="matrix(.99324 0 0 .78268 3.55 -215.555)" gradientUnits="userSpaceOnUse"/><clipPath id="clipPath1774" clipPathUnits="userSpaceOnUse"><path id="path1776" d="M576.856 0A576.855 580.74 0 0 0 0 580.74a576.855 580.74 0 0 0 576.856 580.739 576.855 580.74 0 0 0 342.152-114.008l149.04 132.135a79.093 79.625 0 1 0 104.536-119.51l-140.158-124.258a576.855 580.74 0 0 0 121.285-355.098A576.855 580.74 0 0 0 576.856 0Zm0 71.91a505.426 508.83 0 0 1 505.425 508.828 505.426 508.83 0 0 1-505.425 508.83A505.426 508.83 0 0 1 71.43 580.739 505.426 508.83 0 0 1 576.856 71.91Z" style="opacity:1;fill-opacity:1;stroke:none;stroke-width:25.654;stroke-linecap:round;stroke-linejoin:round;stroke-miterlimit:4;stroke-dasharray:none;stroke-opacity:1;paint-order:stroke markers fill"/></clipPath><clipPath id="clip0_3_29"><path id="rect36445" fill="#fff" d="M0 0h20v11.688H0z" transform="translate(2 6.835)"/></clipPath><clipPath id="clipPath14186-9" clipPathUnits="userSpaceOnUse"><path id="path14188-1" d="M137.577 281.02c1.6-.664 3.398-.785 5.1-.47 1.703.313 3.312 1.049 4.744 2.022 2.864 1.946 4.988 4.778 7.023 7.58 4.672 6.433 9.169 13.002 13.245 19.829 3.306 5.537 6.343 11.257 10.164 16.453 2.494 3.392 5.306 6.54 7.813 9.922 2.506 3.383 4.728 7.056 5.84 11.117 1.443 5.276.884 11.092-1.627 15.953-1.767 3.419-4.477 6.352-7.773 8.339-3.296 1.986-7.17 3.014-11.016 2.87-6.114-.23-11.7-3.285-17.384-5.55-11.58-4.612-24.16-6.059-36.097-9.651-3.668-1.104-7.275-2.41-10.97-3.426-1.64-.452-3.308-.849-4.858-1.552-1.55-.703-3-1.749-3.862-3.217-.666-1.134-.948-2.47-.93-3.785.018-1.316.326-2.615.774-3.852.896-2.474 2.343-4.713 3.32-7.157 1.595-3.989 1.882-8.388 1.666-12.679-.215-4.291-.91-8.545-1.204-12.831-.131-1.914-.18-3.853.185-5.736.365-1.884 1.175-3.725 2.557-5.056 1.274-1.226 2.965-1.955 4.697-2.316 1.731-.361 3.515-.378 5.284-.338 1.768.04 3.54.135 5.303-.01 1.763-.145 3.534-.54 5.07-1.419 1.46-.834 2.653-2.074 3.643-3.434.99-1.36 1.789-2.846 2.609-4.314.82-1.468 1.668-2.931 2.741-4.226 1.074-1.294 2.39-2.423 3.943-3.067" style="fill:#402c07;fill-opacity:1;stroke:none"/></clipPath><clipPath id="clipPath15031-3" clipPathUnits="userSpaceOnUse"><path id="path15033-2" d="M248.06 184.612c-2.6 3.44-5.233 6.856-7.896 10.247a928.914 928.914 0 0 1-8.588 10.752c-3.54 4.374-7.151 8.792-9.449 13.93-1.974 4.414-2.91 9.207-4.265 13.85-1.538 5.27-3.626 10.37-5.97 15.335-2.165 4.586-4.55 9.063-6.94 13.536-1.738 3.254-3.504 6.581-4.107 10.22-.476 2.877-.199 5.845.534 8.667.732 2.822 1.91 5.51 3.237 8.106 5.668 11.075 14.17 20.622 24.242 27.925a85.153 85.153 0 0 0 14.603 8.526c2.782 1.27 5.713 2.404 8.771 2.457 1.53.027 3.075-.225 4.475-.84 1.4-.616 2.65-1.604 3.482-2.888 1.023-1.577 1.37-3.538 1.165-5.407-.205-1.87-.935-3.653-1.913-5.259-2.39-3.922-6.165-6.76-9.797-9.573-7.84-6.074-15.424-12.48-22.682-19.24-2.049-1.909-4.098-3.878-5.53-6.284-1.394-2.344-2.148-5.014-2.658-7.693-1.4-7.349-1.04-15.082 1.46-22.133.978-2.759 2.27-5.392 3.518-8.04 2.162-4.588 4.211-9.263 7.05-13.467 3.532-5.233 8.244-9.673 11.15-15.278 2.455-4.734 3.494-10.058 4.363-15.318.665-4.031 1.247-8.076 1.746-12.13" style="fill:none;stroke:#729fcf;stroke-width:.125;stroke-linecap:butt;stroke-linejoin:miter;stroke-miterlimit:4;stroke-dasharray:none;stroke-opacity:1"/></clipPath><clipPath id="clipPath14822-9" clipPathUnits="userSpaceOnUse"><path id="path14824-1" d="M386.188 285.328c-.406-1.104-1.119-2.082-1.991-2.87-.872-.788-1.9-1.392-2.983-1.852-2.165-.918-4.52-1.261-6.831-1.695-2.18-.41-4.342-.907-6.528-1.278-2.272-.385-4.618-.632-6.866-.125-1.965.443-3.784 1.459-5.271 2.819-1.488 1.36-2.65 3.056-3.485 4.89-1.473 3.23-1.935 6.865-1.654 10.403.209 2.633.875 5.346 2.608 7.34 1.401 1.61 3.388 2.614 5.434 3.22a18.392 18.392 0 0 0 10.86-.155 28.586 28.586 0 0 0 14.331-10.78c1.139-1.649 2.112-3.447 2.553-5.403.336-1.49.349-3.08-.177-4.514" style="fill:none;stroke:#ce5c00;stroke-width:1px;stroke-linecap:butt;stroke-linejoin:miter;stroke-opacity:1"/></clipPath><clipPath id="clipPath14822-2-4" clipPathUnits="userSpaceOnUse"><path id="path14824-6-5" d="M386.188 285.328c-.406-1.104-1.119-2.082-1.991-2.87-.872-.788-1.9-1.392-2.983-1.852-2.165-.918-4.52-1.261-6.831-1.695-2.18-.41-4.342-.907-6.528-1.278-2.272-.385-4.618-.632-6.866-.125-1.965.443-3.784 1.459-5.271 2.819-1.488 1.36-2.65 3.056-3.485 4.89-1.473 3.23-1.935 6.865-1.654 10.403.209 2.633.875 5.346 2.608 7.34 1.401 1.61 3.388 2.614 5.434 3.22a18.392 18.392 0 0 0 10.86-.155 28.586 28.586 0 0 0 14.331-10.78c1.139-1.649 2.112-3.447 2.553-5.403.336-1.49.349-3.08-.177-4.514" style="fill:none;stroke:#ce5c00;stroke-width:1px;stroke-linecap:butt;stroke-linejoin:miter;stroke-opacity:1"/></clipPath><clipPath id="clipPath14489-3" clipPathUnits="userSpaceOnUse"><path id="path14491-6" d="M516.006 331.876a16.933 16.933 0 0 1-2.816 4.738c-2.624 3.115-6.268 5.17-9.897 7.02-6.188 3.154-12.601 5.921-18.42 9.716-3.897 2.543-7.495 5.527-10.86 8.743-2.877 2.75-5.605 5.687-8.832 8.017-3.256 2.352-7.02 4.055-10.99 4.65-4.83.725-9.822-.212-14.3-2.164-3.137-1.367-6.155-3.323-7.963-6.229-1.814-2.917-2.228-6.488-2.232-9.924-.008-6.076 1.118-12.09 2.178-18.073.881-4.972 1.72-9.955 2.26-14.975.984-9.131.977-18.353.32-27.513-.11-1.535-.237-3.084-.008-4.605.23-1.52.855-3.036 2.021-4.04 1.077-.926 2.521-1.335 3.94-1.414 1.418-.078 2.834.147 4.24.352 3.312.484 6.65.865 9.888 1.717 2.043.537 4.034 1.259 6.073 1.81 3.402.92 6.966 1.362 10.467.952 3.77-.44 7.43-1.856 11.224-1.764 1.556.037 3.101.331 4.586.8 1.516.477 3.01 1.161 4.123 2.295.846.86 1.436 1.945 1.879 3.068.66 1.674 1.015 3.457 1.167 5.25.135 1.588.113 3.194.414 4.76.495 2.574 1.848 4.922 3.529 6.934 1.68 2.012 3.69 3.72 5.696 5.408 2 1.68 4.01 3.355 6.167 4.828 1.012.692 2.056 1.34 3.017 2.1.961.762 1.845 1.648 2.446 2.716a6.785 6.785 0 0 1 .683 4.827" style="fill:url(#linearGradient14485);fill-opacity:1;stroke:none"/></clipPath><clipPath id="clipPath14481-1" clipPathUnits="userSpaceOnUse"><path id="path14483-3" d="M516.006 331.876a16.933 16.933 0 0 1-2.816 4.738c-2.624 3.115-6.268 5.17-9.897 7.02-6.188 3.154-12.601 5.921-18.42 9.716-3.897 2.543-7.495 5.527-10.86 8.743-2.877 2.75-5.605 5.687-8.832 8.017-3.256 2.352-7.02 4.055-10.99 4.65-4.83.725-9.822-.212-14.3-2.164-3.137-1.367-6.155-3.323-7.963-6.229-1.814-2.917-2.228-6.488-2.232-9.924-.008-6.076 1.118-12.09 2.178-18.073.881-4.972 1.72-9.955 2.26-14.975.984-9.131.977-18.353.32-27.513-.11-1.535-.237-3.084-.008-4.605.23-1.52.855-3.036 2.021-4.04 1.077-.926 2.521-1.335 3.94-1.414 1.418-.078 2.834.147 4.24.352 3.312.484 6.65.865 9.888 1.717 2.043.537 4.034 1.259 6.073 1.81 3.402.92 6.966 1.362 10.467.952 3.77-.44 7.43-1.856 11.224-1.764 1.556.037 3.101.331 4.586.8 1.516.477 3.01 1.161 4.123 2.295.846.86 1.436 1.945 1.879 3.068.66 1.674 1.015 3.457 1.167 5.25.135 1.588.113 3.194.414 4.76.495 2.574 1.848 4.922 3.529 6.934 1.68 2.012 3.69 3.72 5.696 5.408 2 1.68 4.01 3.355 6.167 4.828 1.012.692 2.056 1.34 3.017 2.1.961.762 1.845 1.648 2.446 2.716a6.785 6.785 0 0 1 .683 4.827" style="fill:url(#linearGradient14485);fill-opacity:1;stroke:none"/></clipPath><clipPath id="clipPath14473-5" clipPathUnits="userSpaceOnUse"><path id="path14475-9" d="M511.827 331.9a14.175 14.175 0 0 1-2.464 3.845c-2.325 2.588-5.507 4.222-8.658 5.696-5.42 2.536-11.001 4.78-16.116 7.885-3.383 2.055-6.537 4.472-9.502 7.095-2.524 2.232-4.93 4.627-7.727 6.506-2.883 1.936-6.176 3.299-9.616 3.773-4.218.582-8.553-.183-12.51-1.756-2.71-1.077-5.367-2.618-6.967-5.055-1.539-2.341-1.934-5.251-1.954-8.053-.035-4.938.965-9.818 1.906-14.666.782-4.03 1.527-8.072 1.978-12.152.817-7.406.66-14.886.28-22.327-.065-1.249-.134-2.51.078-3.743.213-1.232.737-2.452 1.682-3.271.94-.814 2.21-1.16 3.451-1.212 1.242-.052 2.477.164 3.705.35 2.89.436 5.811.709 8.652 1.392 1.787.43 3.531 1.02 5.313 1.47 2.986.753 6.097 1.107 9.158.772 3.294-.36 6.507-1.51 9.82-1.432 1.358.032 2.707.272 4.013.65 1.312.38 2.617.92 3.607 1.862.725.69 1.25 1.57 1.643 2.49.577 1.348.887 2.8 1.021 4.26.12 1.288.105 2.594.363 3.862.437 2.149 1.64 4.081 3.115 5.704 1.475 1.622 3.224 2.967 4.956 4.312 1.756 1.364 3.51 2.74 5.396 3.918.882.552 1.793 1.06 2.634 1.672.842.612 1.62 1.339 2.145 2.236a5.42 5.42 0 0 1 .598 3.917" style="fill:url(#linearGradient14477);fill-opacity:1;stroke:none"/></clipPath><clipPath id="clipPath14656-7" clipPathUnits="userSpaceOnUse"><path id="path14658-9" d="M304.847 225.45c6.017 4.923 9.777 12.317 10.943 20.003 1.826 12.031-2.346 24.074-6.445 35.532-.818 2.285-1.64 4.59-1.965 6.995-.325 2.405-.12 4.949 1.03 7.086 1.302 2.425 3.732 4.125 6.366 4.923 2.589.785 5.394.761 8.015.092 2.62-.668 5.06-1.967 7.187-3.64 5.48-4.31 8.758-10.985 10.01-17.843 1.253-6.859.64-13.93-.55-20.799-1.624-9.369-4.31-18.54-7.74-27.407-2.518-6.508-5.469-12.911-9.618-18.52-4.046-5.47-9.162-10.09-13.104-15.636-2.732-3.844-4.9-8.13-8.191-11.508-1.646-1.688-3.577-3.135-5.77-4.001-2.193-.866-4.664-1.125-6.933-.483-1.504.426-2.892 1.238-4.038 2.302-1.145 1.064-2.052 2.376-2.692 3.803-1.28 2.853-1.477 6.112-.965 9.198.66 3.983 2.444 7.693 4.465 11.188 2.274 3.932 4.918 7.72 8.385 10.654 3.598 3.047 7.961 5.074 11.61 8.06" style="fill:none;stroke:#c17d11;stroke-width:1px;stroke-linecap:butt;stroke-linejoin:miter;stroke-opacity:1"/></clipPath><clipPath id="clipPath29644-8" clipPathUnits="userSpaceOnUse"><path id="path29646-8" d="M54.232 122.362c-1.78.097-3.484.92-4.787 2.137-1.304 1.218-2.222 2.812-2.787 4.503-1.13 3.384-.875 7.052-.618 10.61.232 3.222.47 6.506 1.676 9.502.604 1.498 1.45 2.91 2.58 4.064 1.13 1.153 2.553 2.042 4.12 2.434 1.468.368 3.037.292 4.482-.162 1.445-.454 2.764-1.279 3.846-2.338 1.58-1.545 2.643-3.566 3.254-5.69.61-2.123.784-4.35.752-6.56-.04-2.764-.4-5.538-1.266-8.164-.865-2.626-2.245-5.103-4.173-7.086-.933-.96-1.997-1.805-3.198-2.397-1.201-.593-2.544-.926-3.88-.853" style="fill:url(#radialGradient29648);fill-opacity:1;stroke:none"/></clipPath><clipPath id="clipPath29028-5" clipPathUnits="userSpaceOnUse"><path id="path29030-7" d="M85.75 122.362c-2.78 1.91-5.11 4.575-6.25 7.75-1.436 4.002-.886 8.48.5 12.5 1.42 4.117 3.794 8.041 7.38 10.513 1.792 1.235 3.867 2.083 6.03 2.338 2.162.256 4.409-.095 6.34-1.1 2.353-1.227 4.148-3.374 5.262-5.782 1.115-2.408 1.589-5.07 1.738-7.719.19-3.375-.14-6.806-1.25-10-1.205-3.469-3.39-6.67-6.473-8.666-1.541-.998-3.292-1.684-5.11-1.936-1.82-.251-3.705-.063-5.417.602-.975.38-1.887.908-2.75 1.5" style="fill:url(#radialGradient29032);fill-opacity:1;stroke:none"/></clipPath><clipPath id="clipPath31429" clipPathUnits="userSpaceOnUse"><path id="path31427" d="M0 0h19v19H0Z"/></clipPath><clipPath id="clipPath7096" clipPathUnits="userSpaceOnUse"/><clipPath id="clipPath7104" clipPathUnits="userSpaceOnUse"/><radialGradient xlink:href="#linearGradient28799-4" id="radialGradient29032" cx="223.196" cy="137.661" r="14.572" fx="223.196" fy="137.661" gradientTransform="matrix(1.08578 -.03431 .03944 1.24799 -154.542 -26.543)" gradientUnits="userSpaceOnUse"/><radialGradient xlink:href="#linearGradient28799-4" id="radialGradient29648" cx="223.196" cy="137.661" r="14.572" fx="223.196" fy="137.661" gradientTransform="matrix(.81524 -.03431 .02961 1.24799 -129.437 -26.543)" gradientUnits="userSpaceOnUse"/><radialGradient id="radialGradient12763-3" cx="0" cy="0" r="1" fx="0" fy="0" gradientTransform="matrix(0 22 -22 0 56.248 2.769)" gradientUnits="userSpaceOnUse" spreadMethod="pad"><stop id="stop12759-6" offset="0" style="stop-opacity:1;stop-color:#a4a4a4"/><stop id="stop12761-7" offset="1" style="stop-opacity:1;stop-color:#626262"/></radialGradient><style id="current-color-scheme" type="text/css">.ColorScheme-Text{color:#31363b}.ColorScheme-Background{color:#eff0f1}.ColorScheme-Highlight{color:#3daee9}.ColorScheme-ViewText{color:#31363b}.ColorScheme-ViewBackground{color:#fcfcfc}.ColorScheme-ViewHover{color:#93cee9}.ColorScheme-ViewFocus{color:#3daee9}.ColorScheme-ButtonText{color:#31363b}.ColorScheme-ButtonBackground{color:#eff0f1}.ColorScheme-ButtonHover{color:#93cee9}.ColorScheme-ButtonFocus{color:#3daee9}</style></defs><g id="g31381" transform="matrix(1.33333 0 0 1.33333 0 0)"><g id="g31383"><g id="g31389"><path id="path31397" d="M7.195.836c.09 0 .176-.012.258-.035a23.86 23.86 0 0 1 3.231.008 10.26 10.26 0 0 1 2.836.636c1.519.625 2.558 1.711 3.121 3.254.316.93.507 1.887.566 2.867a21.227 21.227 0 0 1-.086 3.696 8.976 8.976 0 0 1-.672 2.488c-.637 1.383-1.672 2.336-3.101 2.859a11.693 11.693 0 0 1-3.575.618 15.998 15.998 0 0 1-4.089-.309c-2.481-.551-4.016-2.066-4.594-4.543a14.244 14.244 0 0 1-.336-3.383c-.027-1.215.101-2.41.387-3.59.609-2.312 2.078-3.746 4.406-4.3A10.27 10.27 0 0 1 7.195.836Z" style="fill:url(#linearGradient31395);fill-rule:evenodd;stroke:none"/></g></g></g><path id="path13325" fill="#b3b3b3" d="m12 13.552-2.308 1.731c0 2.02-.288 2.02-1.73 2.885l4.038.288 4.038-.288c-1.442-.865-1.73-.865-1.73-2.885z" style="stroke-width:.491449"/><path id="path13327" fill="#ccc" d="M7.962 18.168v.577h8.077v-.577z" style="stroke-width:.491449"/><rect id="rect13329" width="15" height="10.036" x="4.5" y="5.255" fill="#303030" rx="1.174" ry="1.174" style="stroke-width:.483148"/><path id="path8903" d="M5.752 5.525a.99.99 0 0 0-1 .983v7.531a.99.99 0 0 0 1 .982h12.496a.99.99 0 0 0 1-.982V6.508a.99.99 0 0 0-1-.983z" style="fill:url(#linearGradient8909);stroke-width:.851888;paint-order:stroke markers fill"/><rect id="rect3888" width=".965" height=".482" x="5.67" y="5.782" opacity=".35" ry=".242" style="stroke-width:.912147;paint-order:stroke markers fill"/><path id="path3898" d="M5.752 5.525a.99.99 0 0 0-1 .977h14.496a.99.99 0 0 0-1-.977z" style="opacity:.3;stroke-width:.937271;paint-order:stroke markers fill"/><path id="path19196" d="M7.319 6.385h4.485v.449H7.32Zm0 2.695h3.592v.45H7.32Zm0 .899h3.592v.447H7.32Zm0 .897h2.694v.45H7.319Zm0-3.593h3.592v.45H7.32Zm0 .898h2.694v.45H7.319Zm0 3.594h4.485v.448H7.32Zm0 .897h2.694v.444H7.319Z" clip-path="url(#clipPath7104)" style="opacity:.5;fill:#fff;fill-opacity:1;fill-rule:nonzero;stroke:none;stroke-width:1.49315" transform="translate(0 .915)"/><rect id="rect3890" width="2.413" height=".482" x="10.738" y="5.782" opacity=".35" ry=".242" style="stroke-width:.912147;paint-order:stroke markers fill"/><path id="path19198" d="M5.523 6.385h1.346v.449H5.523Zm0 .898h1.346v.45H5.523Zm0 .898h1.346v.45H5.523Zm0 .899h1.346v.45H5.523Zm0 .899h1.346v.447H5.523Zm0 .897h1.346v.45H5.523Zm0 .899h1.346v.448H5.523Zm0 .897h1.346v.444H5.523Z" clip-path="url(#clipPath7096)" style="opacity:.5;fill:#fff;fill-opacity:1;fill-rule:nonzero;stroke:none;stroke-width:1.49315" transform="translate(0 .915)"/><rect id="rect3892" width=".482" height=".482" x="17.977" y="5.782" opacity=".35" ry=".242" style="stroke-width:.912147;paint-order:stroke markers fill"/><rect id="rect3894" width=".724" height=".482" x="17.012" y="5.782" opacity=".35" ry=".242" style="stroke-width:.912147;paint-order:stroke markers fill"/><rect id="rect3896" width=".482" height=".482" x="16.288" y="5.782" opacity=".35" ry=".242" style="stroke-width:.912147;paint-order:stroke markers fill"/></svg>