<svg xmlns="http://www.w3.org/2000/svg" width="24" height="24"><defs><radialGradient id="a" cx="0" cy="0" r="1" fx="0" fy="0" gradientTransform="matrix(0 22 -22 0 12 1)" gradientUnits="userSpaceOnUse" spreadMethod="pad"><stop offset="0" style="stop-opacity:1;stop-color:#a4a4a4"/><stop offset="1" style="stop-opacity:1;stop-color:#626262"/></radialGradient></defs><path d="M9.593 1.115c.12 0 .235-.016.344-.047a31.813 31.813 0 0 1 4.308.01 13.68 13.68 0 0 1 3.781.849c2.026.833 3.41 2.28 4.162 4.338.42 1.24.676 2.516.754 3.823a28.303 28.303 0 0 1-.114 4.928 11.968 11.968 0 0 1-.896 3.317c-.85 1.844-2.23 3.115-4.135 3.812-1.543.522-3.13.798-4.767.824a21.331 21.331 0 0 1-5.452-.412c-3.308-.734-5.354-2.754-6.125-6.057a18.991 18.991 0 0 1-.448-4.51c-.036-1.62.135-3.214.516-4.787.812-3.083 2.77-4.995 5.875-5.734a13.692 13.692 0 0 1 2.197-.354Z" style="fill:url(#a);fill-rule:evenodd;stroke:none;stroke-width:1.33333"/><g fill="#fff" style="fill:none"><path d="M19.355 12A7.336 7.336 0 0 0 12 4.645 7.337 7.337 0 0 0 4.645 12 7.337 7.337 0 0 0 12 19.355 7.337 7.337 0 0 0 19.355 12zm-4.665 0A2.678 2.678 0 0 1 12 14.692 2.679 2.679 0 0 1 9.307 12c0-1.48 1.091-2.69 2.692-2.69 1.6 0 2.691 1.239 2.691 2.69z" opacity=".75"/><path d="M12 8.32A3.68 3.68 0 1 0 12 15.68 3.68 3.68 0 0 0 12 8.32zm0 1.839a1.841 1.841 0 1 1 0 3.682 1.841 1.841 0 0 1-.002-3.682z" opacity=".35"/></g><path d="M18.418 11.398a8.465 8.465 0 0 0-8.465 8.465 8.465 8.465 0 0 0 .586 3.094 21.08 21.08 0 0 0 2.49.012 15.597 15.597 0 0 0 4.768-.825c1.905-.697 3.285-1.966 4.135-3.81.458-1.063.756-2.168.896-3.318.085-.76.136-1.52.158-2.28a8.465 8.465 0 0 0-4.568-1.338z" style="fill:#2cc36c;fill-opacity:1;stroke-width:2.66697"/><path d="m21.559 16.045-4.82 4.82-2.067-2.066-1.379 1.379 2.5 2.498a15.705 15.705 0 0 0 2.004-.531c.25-.092.49-.192.72-.303l3.325-3.326c.03-.061.061-.12.09-.182.2-.463.363-.935.502-1.414l-.875-.875z" style="fill:#fcfcfc;fill-rule:evenodd;stroke:none;stroke-width:1.33333;fill-opacity:1"/></svg>