<svg xmlns="http://www.w3.org/2000/svg" xml:space="preserve" width="24" height="24"><defs><clipPath id="a" clipPathUnits="userSpaceOnUse"><path d="M-22.543-286.093h280.477V-99.11H-22.543Z"/></clipPath><clipPath id="c" clipPathUnits="userSpaceOnUse"><path d="M444.944-728.121h176.722v353.444H444.944Z"/></clipPath><clipPath id="i" clipPathUnits="userSpaceOnUse"><path d="M0 0h19v19H0Z"/></clipPath><clipPath id="j" clipPathUnits="userSpaceOnUse"><path d="m6.707 11.402.703-2.468 3.902 2.468Z"/></clipPath><clipPath id="e" clipPathUnits="userSpaceOnUse"><path d="M-22.543-286.093h280.477V-99.11H-22.543Z"/></clipPath><clipPath id="m" clipPathUnits="userSpaceOnUse"><path d="M0 0h19v19H0Z"/></clipPath><clipPath id="n" clipPathUnits="userSpaceOnUse"><path d="M9.199 10.066v1.336h.227v-1.191z"/></clipPath><clipPath id="f" clipPathUnits="userSpaceOnUse"><path d="M444.944-728.121h176.722v353.444H444.944Z"/></clipPath><linearGradient id="h" x1="-240.47" x2="-240.47" y1="-60.605" y2="-29.026" gradientTransform="matrix(.18118 0 0 .17805 52.192 15.631)" gradientUnits="userSpaceOnUse" spreadMethod="pad"><stop offset="0" style="stop-opacity:1;stop-color:#2a3f4d"/><stop offset="1" style="stop-opacity:1;stop-color:#131f2c"/></linearGradient><linearGradient id="b" x1="10.583" x2="225.69" y1="-184.68" y2="-184.68" gradientUnits="userSpaceOnUse" spreadMethod="pad"><stop offset="0" style="stop-opacity:1;stop-color:#fff"/><stop offset="1" style="stop-opacity:0;stop-color:#fff"/></linearGradient><linearGradient id="l" x1="10.583" x2="225.69" y1="-184.68" y2="-184.68" gradientUnits="userSpaceOnUse" spreadMethod="pad"><stop offset="0" style="stop-opacity:1;stop-color:#fafbfb"/><stop offset="1" style="stop-opacity:1;stop-color:#fafbfb"/></linearGradient><linearGradient id="d" x1="520" x2="410" y1="-620" y2="-620" gradientUnits="userSpaceOnUse" spreadMethod="pad"><stop offset="0" style="stop-opacity:1;stop-color:#fff"/><stop offset="1" style="stop-opacity:0;stop-color:#fff"/></linearGradient><linearGradient id="p" x1="520" x2="410" y1="-620" y2="-620" gradientUnits="userSpaceOnUse" spreadMethod="pad"><stop offset="0" style="stop-opacity:1;stop-color:#000"/><stop offset="1" style="stop-opacity:1;stop-color:#000"/></linearGradient><mask id="k" width="1" height="1" x="0" y="0" maskUnits="userSpaceOnUse"><g clip-path="url(#e)"><path d="M-22.543-286.093h280.477V-99.11H-22.543Z" style="fill:url(#b);stroke:none"/></g></mask><mask id="o" width="1" height="1" x="0" y="0" maskUnits="userSpaceOnUse"><g clip-path="url(#f)"><path d="M444.944-728.121h176.722v353.444H444.944Z" style="fill:url(#d);stroke:none"/></g></mask><radialGradient id="g" cx="0" cy="0" r="1" fx="0" fy="0" gradientTransform="matrix(0 16.5 -16.5 0 9 .75)" gradientUnits="userSpaceOnUse" spreadMethod="pad"><stop offset="0" style="stop-opacity:1;stop-color:#a4a4a4"/><stop offset="1" style="stop-opacity:1;stop-color:#626262"/></radialGradient></defs><path d="M7.195.836c.09 0 .176-.012.258-.035a23.86 23.86 0 0 1 3.231.008 10.26 10.26 0 0 1 2.836.636c1.519.625 2.558 1.711 3.121 3.254.316.93.507 1.887.566 2.867a21.227 21.227 0 0 1-.086 3.696 8.976 8.976 0 0 1-.672 2.488c-.637 1.383-1.672 2.336-3.101 2.859a11.693 11.693 0 0 1-3.575.618 15.998 15.998 0 0 1-4.089-.309c-2.481-.551-4.016-2.066-4.594-4.543a14.244 14.244 0 0 1-.336-3.383c-.027-1.215.101-2.41.387-3.59.609-2.312 2.078-3.746 4.406-4.3A10.27 10.27 0 0 1 7.195.836Z" style="fill:url(#g);fill-rule:evenodd;stroke:none" transform="matrix(1.33333 0 0 1.33333 0 0)"/><path d="m9 10.297-1.73 1.301c0 1.511-.215 1.511-1.297 2.164L9 13.977l3.027-.219c-1.082-.649-1.297-.649-1.297-2.16Z" style="fill:#b3b3b3;fill-opacity:1;fill-rule:nonzero;stroke:none" transform="matrix(1.33333 0 0 1.33333 0 0)"/><path d="M5.973 13.758h6.055v.434H5.973Z" style="fill:#ccc;fill-opacity:1;fill-rule:nonzero;stroke:none" transform="matrix(1.33333 0 0 1.33333 0 0)"/><path d="M4.254 4.074h9.492c.484 0 .879.395.879.883v5.766a.878.878 0 0 1-.879.879H4.254a.878.878 0 0 1-.879-.879V4.957c0-.488.395-.883.879-.883z" style="fill:#303030;fill-opacity:1;fill-rule:nonzero;stroke:none" transform="matrix(1.33333 0 0 1.33333 0 0)"/><path d="M4.312 4.277h9.376a.74.74 0 0 1 .746.739v5.648a.738.738 0 0 1-.746.734H4.312a.738.738 0 0 1-.746-.734V5.016a.74.74 0 0 1 .746-.739z" style="fill:url(#h);stroke:none" transform="matrix(1.33333 0 0 1.33333 0 0)"/><path d="m7.613 10.723 2.719-2.942 2.262 2.942z" style="fill:#1a1a1a;fill-opacity:1;fill-rule:nonzero;stroke:none" transform="matrix(1.33333 0 0 1.33333 0 0)"/><g clip-path="url(#i)" opacity=".9" transform="matrix(1.33333 0 0 1.33333 0 0)"><path d="M7.41 8.934 3.836 11.23a.765.765 0 0 0 .48.172h6.993z" style="fill:#e6e6e6;fill-opacity:1;fill-rule:nonzero;stroke:none"/></g><path d="m6.707 11.402.703-2.468 3.902 2.468Z" style="fill:#fafbfb;fill-opacity:1;fill-rule:nonzero;stroke:none" transform="matrix(1.33333 0 0 1.33333 0 0)"/><path d="m10.332 7.555-.906.961v2.886h4.258c.207 0 .39-.078.527-.211z" style="fill:#b0b2b5;fill-opacity:1;fill-rule:nonzero;stroke:none" transform="matrix(1.33333 0 0 1.33333 0 0)"/><path d="m10.332 7.555 1.133 3.847h2.219c.207 0 .39-.078.527-.211z" style="fill:#fff;fill-opacity:1;fill-rule:nonzero;stroke:none" transform="matrix(1.33333 0 0 1.33333 0 0)"/><g clip-path="url(#j)" transform="matrix(1.33333 0 0 1.33333 0 0)"><g mask="url(#k)" transform="matrix(.0214 0 0 .0214 6.482 14.12)"><path d="m6.707 11.402.703-2.468 3.902 2.468Z" style="fill:url(#l);stroke:none"/></g></g><g clip-path="url(#m)" opacity=".35" transform="matrix(1.33333 0 0 1.33333 0 0)"><g clip-path="url(#n)"><g mask="url(#o)" transform="matrix(.00566 0 0 .00566 6.482 14.12)"><path d="M9.199 10.066v1.336h.227v-1.191z" style="fill:url(#p);stroke:none"/></g></g></g><path d="M13.109 4.883a1.592 1.592 0 0 1-2.175 2.023 1.59 1.59 0 1 0 2.175-2.023ZM6.215 4.402l-.027.707-.043.071-.071.039-.707.031.707.031.071.039.043.075.027.703.031-.703.039-.075.074-.039.707-.031-.707-.031-.074-.039-.039-.071ZM10.312 4.891l-.031.703-.039.074-.07.039-.707.031.707.032.07.039.039.074.031.703.032-.703.039-.074.074-.039.703-.032-.703-.031-.074-.039-.039-.074ZM7.625 5.695l-.031.703-.039.075-.075.039-.703.031.703.031.075.039.039.071.031.707.031-.707.039-.071.075-.039.703-.031-.703-.031-.075-.039-.039-.075ZM5.043 6.602l-.031.703-.039.074-.075.039-.703.031.703.031.075.04.039.07.031.707.031-.707.039-.07.075-.04.703-.031-.703-.031-.075-.039-.039-.074Z" style="fill:#edeef0;fill-opacity:1;fill-rule:nonzero;stroke:none" transform="matrix(1.33333 0 0 1.33333 0 0)"/></svg>