<svg xmlns="http://www.w3.org/2000/svg" width="24" height="24"><defs><radialGradient id="a" cx="0" cy="0" r="1" fx="0" fy="0" gradientTransform="matrix(0 16.5 -16.5 0 9 .75)" gradientUnits="userSpaceOnUse" spreadMethod="pad"><stop offset="0" style="stop-opacity:1;stop-color:#fafafa"/><stop offset="1" style="stop-opacity:1;stop-color:silver"/></radialGradient></defs><path d="M7.195.836c.09 0 .176-.012.258-.035a23.86 23.86 0 0 1 3.231.008 10.26 10.26 0 0 1 2.836.636c1.519.625 2.558 1.711 3.121 3.254.316.93.507 1.887.566 2.867a21.227 21.227 0 0 1-.086 3.696 8.976 8.976 0 0 1-.672 2.488c-.637 1.383-1.672 2.336-3.101 2.859a11.693 11.693 0 0 1-3.575.618 15.998 15.998 0 0 1-4.089-.309c-2.481-.551-4.016-2.066-4.594-4.543a14.244 14.244 0 0 1-.336-3.383c-.027-1.211.101-2.41.387-3.59.609-2.312 2.078-3.746 4.406-4.3A10.27 10.27 0 0 1 7.195.836Z" style="fill:url(#a);fill-rule:evenodd;stroke:none" transform="matrix(1.33333 0 0 1.33333 0 0)"/><path fill="#3b83b2" d="M6 19h12v-1H6zM6 5h12v1H6z"/><path fill="#7bbbeb" d="M5.5 5a.5.5 0 0 0-.05.003.5.5 0 0 0-.05.007.5.5 0 0 0-.048.013.5.5 0 0 0-.046.016.5.5 0 0 0-.046.022.5.5 0 0 0-.042.025.5.5 0 0 0-.04.031.5.5 0 0 0-.037.035.5.5 0 0 0-.033.037.5.5 0 0 0-.03.04.5.5 0 0 0-.023.045.5.5 0 0 0-.02.044.5.5 0 0 0-.017.048.5.5 0 0 0-.011.049.5.5 0 0 0-.006.05A.5.5 0 0 0 5 5.5v13a.5.5 0 0 0 .001.035.5.5 0 0 0 .006.05.5.5 0 0 0 .012.05.5.5 0 0 0 .015.046.5.5 0 0 0 .02.045.5.5 0 0 0 .025.045.5.5 0 0 0 .03.04.5.5 0 0 0 .032.038.5.5 0 0 0 .036.034.5.5 0 0 0 .04.03.5.5 0 0 0 .044.026.5.5 0 0 0 .045.022.5.5 0 0 0 .046.017.5.5 0 0 0 .048.012.5.5 0 0 0 .05.007.5.5 0 0 0 .05.003H6a.5.5 0 0 0 .05-.003.5.5 0 0 0 .05-.007.5.5 0 0 0 .047-.012.5.5 0 0 0 .048-.017.5.5 0 0 0 .045-.022.5.5 0 0 0 .042-.025.5.5 0 0 0 .04-.03.5.5 0 0 0 .037-.035.5.5 0 0 0 .032-.039.5.5 0 0 0 .03-.04.5.5 0 0 0 .024-.044.5.5 0 0 0 .02-.045.5.5 0 0 0 .017-.047.5.5 0 0 0 .01-.049.5.5 0 0 0 .007-.05.5.5 0 0 0 0-.035V18h11v.5a.5.5 0 0 0 .002.035.5.5 0 0 0 .006.05.5.5 0 0 0 .011.05.5.5 0 0 0 .016.046.5.5 0 0 0 .02.045.5.5 0 0 0 .026.045.5.5 0 0 0 .028.04.5.5 0 0 0 .033.038.5.5 0 0 0 .037.034.5.5 0 0 0 .04.03.5.5 0 0 0 .042.026.5.5 0 0 0 .045.022.5.5 0 0 0 .048.017.5.5 0 0 0 .047.012.5.5 0 0 0 .05.007A.5.5 0 0 0 18 19h.5a.5.5 0 0 0 .05-.003.5.5 0 0 0 .05-.007.5.5 0 0 0 .048-.012.5.5 0 0 0 .046-.017.5.5 0 0 0 .045-.022.5.5 0 0 0 .043-.025.5.5 0 0 0 .04-.03.5.5 0 0 0 .036-.035.5.5 0 0 0 .034-.039.5.5 0 0 0 .03-.04.5.5 0 0 0 .023-.044.5.5 0 0 0 .02-.045.5.5 0 0 0 .017-.047.5.5 0 0 0 .011-.049.5.5 0 0 0 .006-.05A.5.5 0 0 0 19 18.5v-13a.5.5 0 0 0-.001-.035.5.5 0 0 0-.006-.05.5.5 0 0 0-.012-.05.5.5 0 0 0-.015-.047.5.5 0 0 0-.02-.044.5.5 0 0 0-.025-.044.5.5 0 0 0-.03-.04.5.5 0 0 0-.033-.038.5.5 0 0 0-.035-.035.5.5 0 0 0-.04-.03.5.5 0 0 0-.044-.025.5.5 0 0 0-.045-.023.5.5 0 0 0-.046-.016.5.5 0 0 0-.049-.013.5.5 0 0 0-.05-.007A.5.5 0 0 0 18.5 5H18a.5.5 0 0 0-.05.003.5.5 0 0 0-.05.007.5.5 0 0 0-.047.013.5.5 0 0 0-.048.016.5.5 0 0 0-.045.023.5.5 0 0 0-.042.024.5.5 0 0 0-.04.031.5.5 0 0 0-.037.035.5.5 0 0 0-.033.037.5.5 0 0 0-.03.04.5.5 0 0 0-.023.045.5.5 0 0 0-.02.044.5.5 0 0 0-.017.048.5.5 0 0 0-.011.049.5.5 0 0 0-.006.05.5.5 0 0 0-.001.035V6h-11v-.5a.5.5 0 0 0 0-.035.5.5 0 0 0-.007-.05.5.5 0 0 0-.011-.05.5.5 0 0 0-.016-.047.5.5 0 0 0-.02-.044.5.5 0 0 0-.026-.044.5.5 0 0 0-.029-.04.5.5 0 0 0-.032-.038.5.5 0 0 0-.037-.035.5.5 0 0 0-.04-.03.5.5 0 0 0-.043-.025.5.5 0 0 0-.045-.023.5.5 0 0 0-.047-.016.5.5 0 0 0-.047-.013.5.5 0 0 0-.05-.007A.5.5 0 0 0 6 5z"/><path fill="#323940" d="M6.035 6.346a.484.484 0 0 0-.497.471v10.366c0 .26.223.47.497.47h11.93c.274 0 .497-.21.497-.47V6.817a.484.484 0 0 0-.497-.47zm.311.808h5.116v9.692H6.346zm6.192 0h5.116v9.692h-5.116z" opacity=".8"/><path fill="#39719b" d="M13.077 13.615h4.038v1.077h-4.038Zm-6.192 0h4.038v1.077H6.885Zm0-4.307h4.038v1.077H6.885Zm6.192 0h4.038v1.077h-4.038Zm0 2.154h4.038v1.076h-4.038Zm-6.192 0h4.038v1.076H6.885Z"/><path fill="#fff" d="M8.5 6.346a.27.236 0 0 0-.27.236v10.836a.27.236 0 0 0 .54 0V6.582a.27.236 0 0 0-.27-.236zm1.615 0a.27.236 0 0 0-.269.236v10.836a.27.236 0 0 0 .539 0V6.582a.27.236 0 0 0-.27-.236zm3.77 0a.27.236 0 0 0-.27.236v10.836a.27.236 0 0 0 .539 0V6.582a.27.236 0 0 0-.27-.236zm1.615 0a.27.236 0 0 0-.27.236v10.836a.27.236 0 0 0 .54 0V6.582a.27.236 0 0 0-.27-.236z"/></svg>