<svg xmlns="http://www.w3.org/2000/svg" width="24" height="24" fill="none"><defs><radialGradient id="a" cx="0" cy="0" r="1" gradientTransform="matrix(0 22 -22 0 12 1)" gradientUnits="userSpaceOnUse"><stop offset="0" stop-color="#8FC8FF" style="stop-color:#f6f6f6;stop-opacity:1"/><stop offset="1" stop-color="#0056A8" style="stop-color:#cfcfcf;stop-opacity:1"/></radialGradient></defs><path d="M50 5C9.09 5 5 25.455 5 50c0 32.727 12.273 45 45 45 32.727 0 45-12.273 45-45 0-24.545-4.09-45-45-45Z" style="font-variation-settings:normal;display:inline;opacity:1;vector-effect:none;fill:#1f9df8;fill-opacity:1;stroke-width:4.56656;stroke-linecap:butt;stroke-linejoin:miter;stroke-miterlimit:4;stroke-dasharray:none;stroke-dashoffset:0;stroke-opacity:1;-inkscape-stroke:none;stop-color:#000;stop-opacity:1" transform="matrix(.24444 0 0 .24444 -.222 -.222)"/><path fill="#fff" d="M12.001 4a8.015 8.015 0 0 0-8.016 8.015 8.015 8.015 0 0 0 8.016 8.015 8.015 8.015 0 0 0 8.015-8.015A8.015 8.015 0 0 0 12 4zm.714.856a7.174 7.174 0 0 1 2.22.55.672.672 0 0 0-.13.234c-.21.632-.524.33-.155 1.122s.678.996.784.627c.105-.369-.265-.89.158-.678.421.21.733-.058.416.417-.316.474-.31.734-.679.628-.371-.105-.363.625-.732.731-.369.106-.498-.159-.498.104 0 .265.211.019.158.446-.015.127-.013.151-.027.208-.347-.1-.5-.152-.758-.053-.263.105-.575.782-.575.782.332.332.484.57.602.683-.074.034-.162.051-.235.102-.528.37-.939.439-1.098.966-.158.53-.104.045-.104.68 0 .633-.161.205.158.784.316.581 1.092.86 1.462 1.178.369.316.75-.689 1.49.262.738.95.786.566.524 1.097-.266.527-.523.7-.627.913-.106.212.204.939.573 1.098h.026c-.018.045-.032.086-.053.13-.48.217-1.064.517-1.173.55-.264.075-1.186.23-1.856.416-.084.025-.152.025-.184.03.083-.093.745-.436 1.072-.628.447-.263-.028-.237-.028-.237s-.711-.078-2.168-.078c-.728 0-1.043.033-1.202.08a.398.398 0 0 0-.157.078c-.038.033-.066.068-.132.105-.26.151.154.306-.183.417-.25.084-.28 0-.495-.157.153-.151.365-.337.627-.653.474-.576.624-.472.783-.993.16-.522-1.33-.366-1.33-.681 0-.315-.258-.522-.733-.73-.475-.208-.152-.314-.68-.471-.528-.156-1.124.785-1.282.471-.158-.314.498-.314.498-.68 0-.355-.753.27-.89-.184-.004-.017-.023-.017-.025-.026-.013-.066-.005-.105 0-.158.033-.374.467-.522.653-.89.21-.415.103.317.366.683.265.366.158-.47 0-.939-.158-.474.1-.474.47-1.098.368-.629.368-.995.368-1.466 0-.47.254-.522.782-.992.243-.216.432-.403.576-.576.034-.017.068-.017.105-.026.557-.225.794-.561 1.278-1.567.486-1.01-.189-.069-.337-.106-.15-.037-.366-.303-.89-.6a.84.84 0 0 0-.287-.106l.966-1.593c.31-.083.644-.14.965-.185.122.677.056 1.308.056 1.308s-.185.217-.185.366c0 .15 1.001-1.23 1.15-1.305.152-.076.528.394.602-.315.004-.042-.004-.042 0-.076zm1.325 2.819c-.032.009-.065.017-.096.03 0 .184-.073.317-.105.392a.393.393 0 0 0-.077-.079c-.082.145-.251.274-.079.234.17-.037.303.065.184-.077-.023-.029-.014-.02-.028-.029.022.019.065.03.158.03h.233c-.127.093-.265.134-.075.182.25.065.364.08.364.027a1.21 1.21 0 0 0-.079-.237c.05-.019.094-.044.05-.128-.077-.158-.201-.316-.363-.341a.265.265 0 0 0-.087-.004zm4.083.445c.133.204.258.412.369.628-.074.422-.258.706.05.706.088 0 .166-.018.236-.026l.026.075c-.528 0-.782.16-1.046.107-.263-.056-.997-.1-.521-.576.278-.277.624-.72.889-.914zm-3.291.965v.004c.048.017.092.066.131.156.158.368.42.677.21.73a1.61 1.61 0 0 0-.315.106s.73.474.784-.053c.052-.528-.208-.836-.208-.836s.363.365.47.576c.105.21.101 0 .365.26.264.265.206-1.048.575-.678.369.369.602.36.497.626-.106.263.68-.32.68.21 0 .509.325.716-.313.965-.242-.015-.436-.057-.474-.128-.104-.212-.705-.053-.705-.053-1.578-.395-2.264-.519-2.716-.444.008-.017.015-.017.024-.026.232-.416.667-.995.523-1.203.203-.116.36-.243.474-.208zm4.443 2.642c.004.107 0 .21 0 .317 0 .296-.02.596-.052.885-.474-.422-1.15-.417-1.15-.417s.41-.467.992-.68a.92.92 0 0 0 .208-.105z" color="#000" opacity=".5"/><g style="paint-order:stroke markers fill" transform="matrix(1.3171 0 0 1.3171 .85 -368.014)"><path fill="#333" d="M8.202 284.3h.529v4.233h-.529Z"/><path fill="#de8787" d="m8.654 288.53 4.116 4.116-.188.187-4.116-4.116z"/><circle cx="8.467" cy="288.53" r=".265" fill="#333"/></g></svg>