<svg xmlns="http://www.w3.org/2000/svg" width="24" height="24"><defs><radialGradient id="a" cx="0" cy="0" r="1" gradientTransform="matrix(0 11 -11 0 12 1)" gradientUnits="userSpaceOnUse"><stop stop-color="#777"/><stop offset="1" stop-color="#444"/></radialGradient></defs><path fill="url(#a)" fill-rule="evenodd" d="M9.596 1.114c.12 0 .234-.014.344-.046a31.627 31.627 0 0 1 4.307.011c1.301.102 2.561.384 3.78.847 2.025.834 3.412 2.28 4.158 4.34.427 1.24.679 2.514.756 3.824a27.941 27.941 0 0 1-.115 4.923 11.88 11.88 0 0 1-.893 3.32c-.85 1.843-2.229 3.114-4.135 3.813a15.624 15.624 0 0 1-4.766.825 21.423 21.423 0 0 1-5.452-.413c-3.312-.737-5.354-2.756-6.128-6.056a19.047 19.047 0 0 1-.447-4.511 18.491 18.491 0 0 1 .515-4.786c.812-3.086 2.77-4.998 5.877-5.736a13.953 13.953 0 0 1 2.199-.355z" clip-rule="evenodd" style="fill:url(#a);stroke-width:1"/><g style="stroke-width:3.75025"><g stroke-width="14.176" transform="matrix(.26665 0 0 .26665 -99.077 -125.537)"><path fill="#fff" d="M386.57 501.8v35.997a.995.995 0 0 0 .998 1.002h58.002a.998.998 0 0 0 .998-1.002v-36.001H386.57Z" style="stroke-width:14.1759;paint-order:markers stroke fill"/><path d="M386.57 501.8v35.997a.995.995 0 0 0 .998 1.002h58.002a.998.998 0 0 0 .998-1.002v-36.001h-.998v35.044c0 .53-.435.956-.968.956h-56.067a.96.96 0 0 1-.967-.956v-35.044h-1.002z" opacity=".1" style="stroke-width:14.1759;paint-order:markers stroke fill"/><path fill="#666" d="M387.57 492.8a.998.998 0 0 0-1.002 1.002v7.997h60.001v-7.997a.998.998 0 0 0-.997-1.002z" style="stroke-width:14.1759;paint-order:stroke markers fill"/><rect width="3.001" height="3.001" x="440.57" y="495.8" opacity=".35" ry="1.5" style="stroke-width:14.1759;paint-order:stroke markers fill"/><rect width="3.001" height="3.001" x="434.57" y="495.8" opacity=".35" ry="1.5" style="stroke-width:14.1759;paint-order:stroke markers fill"/><rect width="3.001" height="3.001" x="428.57" y="495.8" opacity=".35" ry="1.5" style="stroke-width:14.1759;paint-order:stroke markers fill"/><path d="M446.57 526.09a36.303 36.303 0 0 1-12.828 12.707h11.83a.998.998 0 0 0 .998-1.002z" opacity=".05" style="stroke-width:14.1759;paint-order:markers stroke fill"/></g><path fill="#ccc" d="M7 22v2h40v-2zm0 6v2h14v-2zm28 0v24h24V28Zm2 2h20v20H37v-2zm0 18h4l4-4-2-2zm20 0-6-6-6 6zM42 32c-1.662 0-3 1.338-3 3s1.338 3 3 3 3-1.338 3-3-1.338-3-3-3zM7 34v2h24v-2zm0 6v2h18v-2zm0 6v2h24v-2z" color="#000" style="stroke-width:3.75025" transform="matrix(.26665 0 0 .26665 3.468 3.467)"/><path fill="#ff8080" d="M47 28c-6.627 0-12 5.373-12 12s5.373 12 12 12 12-5.373 12-12-5.373-12-12-12zm0 2c5.523 0 10 4.477 10 10 0 2.41-.888 4.59-2.309 6.316L40.683 32.308C42.41 30.888 44.59 30 47 30Zm-7.691 3.684 14.008 14.008C51.59 49.112 49.41 50 47 50c-5.523 0-10-4.477-10-10 0-2.41.889-4.59 2.309-6.316z" color="#000" style="stroke-width:3.75025" transform="matrix(.26665 0 0 .26665 3.468 3.467)"/></g></svg>