<svg xmlns="http://www.w3.org/2000/svg" xmlns:xlink="http://www.w3.org/1999/xlink" width="24" height="24"><defs><radialGradient id="a" cx="0" cy="0" r="1" fx="0" fy="0" gradientTransform="matrix(0 22 -22 0 12 1)" gradientUnits="userSpaceOnUse" spreadMethod="pad"><stop offset="0" style="stop-color:#d9d9d9;stop-opacity:1"/><stop offset="1" style="stop-color:#cacbcf;stop-opacity:1"/></radialGradient></defs><linearGradient id="b" x1="386.57" x2="386.57" y1="549.8" y2="497.8" gradientTransform="matrix(.54545 0 0 .53846 177.71 249.75)" gradientUnits="userSpaceOnUse"><stop offset="0" stop-color="#7f8c8d"/><stop offset="1" stop-color="#afb0b3"/></linearGradient><linearGradient id="c" x1="400.57" x2="400.57" y1="522.8" y2="535.8" gradientUnits="userSpaceOnUse"><stop offset="0" stop-color="#da4453"/><stop offset="1" stop-color="#c72737"/></linearGradient><path d="M9.593 1.115c.12 0 .235-.016.344-.047a31.814 31.814 0 0 1 4.308.01 13.68 13.68 0 0 1 3.781.849c2.026.833 3.41 2.281 4.162 4.338.42 1.24.676 2.516.754 3.823a28.303 28.303 0 0 1-.114 4.928 11.968 11.968 0 0 1-.896 3.317c-.85 1.844-2.23 3.115-4.135 3.812-1.543.522-3.13.798-4.767.824a21.33 21.33 0 0 1-5.452-.412c-3.308-.734-5.354-2.754-6.125-6.057a18.991 18.991 0 0 1-.448-4.51c-.036-1.62.135-3.214.516-4.787.812-3.083 2.77-4.995 5.875-5.734a13.692 13.692 0 0 1 2.197-.354Z" style="fill:url(#a);fill-rule:evenodd;stroke:none;stroke-width:1.33333"/><g fill-rule="evenodd" style="stroke-width:2.28147" transform="translate(-2.026 .132) scale(.43831)"><path fill="#fff" d="M48 27.122C48 35.837 40.837 43 32 43s-16-7.163-16-15.878C16 18.164 23.163 11 32 11s16 7.164 16 16.122" style="stroke-width:2.28147"/><use xlink:href="#b" width="100%" height="100%" fill="#1a1a1a" style="stroke-width:2.28147" transform="translate(27 22)"/><use xlink:href="#c" width="100%" height="100%" fill="#fff" opacity=".1" style="stroke-width:2.28147" transform="translate(27.003 22.007)"/></g><path fill="gray" d="M11.709 4.515a7.451 7.451 0 1 0 0 14.903 7.451 7.451 0 0 0 0-14.903zm4.566 12.018a6.45 6.45 0 0 1-2.053 1.385 6.42 6.42 0 0 1-2.513.506c-.872 0-1.718-.17-2.513-.506a6.45 6.45 0 0 1-2.053-1.385 6.43 6.43 0 0 1-1.892-4.566A6.433 6.433 0 0 1 7.143 7.4a6.425 6.425 0 0 1 2.053-1.385 6.413 6.413 0 0 1 2.513-.506c.872 0 1.718.17 2.513.507A6.423 6.423 0 0 1 16.275 7.4a6.433 6.433 0 0 1 1.892 4.566 6.431 6.431 0 0 1-1.892 4.566z" style="stroke-width:.999999" transform="translate(.291)"/><path fill="#f55" d="M11.709 6.269a2.623 2.623 0 0 0-2.63 2.63v2.63H7.326v4.085a5.703 5.703 0 0 0 4.383 2.05c1.763 0 3.338-.8 4.383-2.05v-4.086H14.34v-2.63a2.623 2.623 0 0 0-2.63-2.63zm0 .876c1.093 0 1.753.479 1.753 1.754v2.63H9.956v-2.63c0-1.275.66-1.754 1.753-1.754z" style="stroke-width:.999999" transform="translate(.291)"/><path d="M1.201 15.11c.068.465.15.929.252 1.39.77 3.303 2.817 5.322 6.125 6.057 1.248.255 2.503.4 3.766.433v-3.037c-3.701-.199-5.986-1.902-7.117-4.844Z" style="fill:#949496;fill-opacity:1;stroke-width:.465671"/><path fill="#fff" d="m8.641 20.971 2.371-5.372a.345.345 0 0 0 .023-.24.352.352 0 0 0-.434-.243.357.357 0 0 0-.2.14l-3.579 4.69a1.036 1.036 0 0 0-.201.924c.15.558.732.886 1.301.733a1.072 1.072 0 0 0 .72-.632z" style="stroke-width:.245732"/><rect width=".246" height="1.72" x="-14.785" y="20.074" fill-rule="evenodd" opacity=".15" rx=".123" style="stroke-width:.245732" transform="scale(-1 1)"/><rect width=".246" height="1.72" x="-14.293" y="20.074" fill-rule="evenodd" opacity=".15" rx=".123" style="stroke-width:.245732" transform="scale(-1 1)"/><rect width=".246" height="1.72" x="-13.802" y="20.074" fill-rule="evenodd" opacity=".15" rx=".123" style="stroke-width:.245732" transform="scale(-1 1)"/><rect width=".246" height="1.72" x="-13.31" y="20.074" fill-rule="evenodd" opacity=".15" rx=".123" style="stroke-width:.245732" transform="scale(-1 1)"/><rect width=".246" height="1.72" x="-12.819" y="20.074" fill-rule="evenodd" opacity=".15" rx=".123" style="stroke-width:.245732" transform="scale(-1 1)"/><path d="M16.505 20.934a.369.369 0 1 0-.737 0 .369.369 0 0 0 .737 0zm-8.355-.368a.491.491 0 1 1-.983 0 .491.491 0 0 1 .983 0z" opacity=".15" style="stroke-width:.245732"/><path d="M7.904 20.566a.246.246 0 1 0-.491 0 .246.246 0 0 0 .491 0z" opacity=".35" style="stroke-width:.245732"/></svg>