<svg xmlns="http://www.w3.org/2000/svg" width="24" height="24" viewBox="0 0 6.35 6.35"><defs><radialGradient id="a" cx="0" cy="0" r="1" fx="0" fy="0" gradientTransform="rotate(90 1.455 1.72) scale(5.82072)" gradientUnits="userSpaceOnUse" spreadMethod="pad"><stop offset="0" style="stop-color:#c0c6e5;stop-opacity:1"/><stop offset="1" style="stop-color:#5767bf;stop-opacity:1"/></radialGradient></defs><path d="M2.538.295A.335.335 0 0 0 2.63.283c.38-.025.76-.024 1.14.002a3.62 3.62 0 0 1 1 .225c.536.22.903.603 1.101 1.148.112.328.18.665.2 1.011.028.436.018.87-.03 1.304a3.166 3.166 0 0 1-.237.878c-.225.487-.59.824-1.094 1.008a4.125 4.125 0 0 1-1.261.218 5.644 5.644 0 0 1-1.443-.109C1.13 5.774.588 5.24.385 4.366a5.025 5.025 0 0 1-.12-1.194c-.009-.429.036-.85.137-1.266C.617 1.09 1.135.584 1.957.389c.191-.047.386-.079.581-.094Z" style="fill:url(#a);fill-rule:evenodd;stroke:none;stroke-width:.35277"/><path fill="#fff" d="M3.175 1.455a.405.405 0 1 0 0 .81.404.404 0 0 0 0-.81zM1.961 2.467v.203h.81v2.225h.202V3.68h.404v1.214h.202V2.67h.81v-.203H2.77z" style="stroke-width:.382296"/><path d="M4.882 3.014a2.249 2.249 0 0 0-2.249 2.249 2.249 2.249 0 0 0 .152.81c.22.015.44.016.662.004.433-.007.854-.08 1.262-.218.504-.185.869-.52 1.094-1.008.121-.281.2-.574.237-.878.023-.204.036-.408.042-.613a2.249 2.249 0 0 0-1.2-.346Z" style="fill:#c0c6e5;fill-opacity:1;stroke-width:.531281;paint-order:markers stroke fill"/><path d="M4.778 3.576a.42.42 0 0 0-.418.419.207.207 0 0 1-.209.206.195.195 0 0 1-.097-.027.105.105 0 0 0-.002 0 .422.422 0 0 0-.572.154l-.11.179a.105.105 0 0 0 0 .002.421.421 0 0 0 .152.573.209.209 0 0 1 0 .363.42.42 0 0 0-.152.571l.036.063.041-.002c.066-.001.132-.004.197-.008l-.091-.158a.206.206 0 0 1 .075-.284.42.42 0 0 0 0-.728.207.207 0 0 1-.075-.285l.108-.178a.105.105 0 0 0 .001-.002.208.208 0 0 1 .286-.078.407.407 0 0 0 .202.056.422.422 0 0 0 .42-.414.105.105 0 0 0 0-.001.207.207 0 0 1 .209-.21h.206a.21.21 0 0 1 .21.216.105.105 0 0 0 0 .004.419.419 0 0 0 .628.352.207.207 0 0 1 .15-.023c.017-.068.031-.136.043-.205a.422.422 0 0 0-.297.045.105.105 0 0 0-.002 0 .208.208 0 0 1-.284-.073.195.195 0 0 1-.028-.098.42.42 0 0 0-.42-.429H4.78Zm.104 1.055a.633.633 0 0 0-.193 1.235l.02-.007c.326-.12.594-.303.804-.55a.634.634 0 0 0-.63-.678zm0 .21a.42.42 0 0 1 .421.422.42.42 0 1 1-.843 0 .42.42 0 0 1 .422-.422z" style="font-variant-ligatures:normal;font-variant-position:normal;font-variant-caps:normal;font-variant-numeric:normal;font-variant-alternates:normal;font-variant-east-asian:normal;font-feature-settings:normal;font-variation-settings:normal;text-indent:0;text-decoration-line:none;text-decoration-style:solid;text-decoration-color:#000;text-transform:none;text-orientation:mixed;white-space:normal;shape-padding:0;shape-margin:0;inline-size:0;isolation:auto;mix-blend-mode:normal;fill:#fff;fill-opacity:1;stroke-width:.531281"/></svg>