<svg xmlns="http://www.w3.org/2000/svg" xml:space="preserve" width="24" height="24" viewBox="0 0 6.35 6.35"><defs><clipPath id="b" clipPathUnits="userSpaceOnUse"><path d="M0 0h19v19H0Z"/></clipPath><clipPath id="c" clipPathUnits="userSpaceOnUse"><path d="M0 0h19v19H0Z"/></clipPath><radialGradient id="a" cx="0" cy="0" r="1" fx="0" fy="0" gradientTransform="rotate(90 3.44 10.054) scale(2.91036)" gradientUnits="userSpaceOnUse" spreadMethod="pad"><stop offset="0" style="stop-opacity:1;stop-color:#7ccffd"/><stop offset="1" style="stop-opacity:1;stop-color:#2991c9"/></radialGradient></defs><path d="M12.857 6.645a.335.335 0 0 0 .09-.013c.38-.025.761-.023 1.14.003a3.62 3.62 0 0 1 1 .225c.537.22.903.603 1.102 1.147.111.329.179.666.2 1.012.027.436.018.87-.03 1.304a3.166 3.166 0 0 1-.238.877c-.225.488-.59.824-1.094 1.009a4.125 4.125 0 0 1-1.261.218 5.644 5.644 0 0 1-1.442-.109c-.876-.194-1.417-.729-1.621-1.603a5.025 5.025 0 0 1-.119-1.193 4.89 4.89 0 0 1 .137-1.267c.215-.815.733-1.321 1.554-1.516.192-.047.386-.08.582-.094z" style="fill:url(#a);fill-rule:evenodd;stroke:none;stroke-width:.352771" transform="translate(-10.319 -6.35)"/><path d="M11.721 7.824h3.544c.117 0 .213.094.213.212v2.977a.211.211 0 0 1-.213.212h-3.544a.211.211 0 0 1-.212-.212V8.036c0-.118.095-.212.212-.212z" style="fill:#363842;fill-opacity:1;fill-rule:nonzero;stroke:none;stroke-width:.352771" transform="translate(-10.319 -6.35)"/><path d="M4.582 10.605H6.59v2.008H4.582Z" clip-path="url(#b)" opacity=".1" style="fill:#fff;fill-opacity:1;fill-rule:nonzero;stroke:none" transform="scale(.35277)"/><path d="m12.198 8.602-.263.569a.528.528 0 0 1 .136-.053l.128 1.242.128-1.242a.49.49 0 0 1 .136.053zm1.41 1.67c.023.042.04.09.052.138l-1.286.128 1.286.126a.5.5 0 0 1-.052.135l.569-.263z" style="fill:#fff;fill-opacity:1;fill-rule:nonzero;stroke:none;stroke-width:.352771" transform="translate(-10.319 -6.35)"/><path d="M4.824 8.109h4.262v4.258H4.824Z" clip-path="url(#c)" opacity=".2" style="fill:none;stroke:#fff;stroke-width:.375;stroke-linecap:butt;stroke-linejoin:miter;stroke-miterlimit:4;stroke-dasharray:.604647,.604647;stroke-dashoffset:.708882;stroke-opacity:1" transform="scale(.35277)"/></svg>