<svg xmlns="http://www.w3.org/2000/svg" xmlns:xlink="http://www.w3.org/1999/xlink" width="24" height="24" version="1"><defs><radialGradient xlink:href="#a" id="b" cx="12.517" cy="1.126" r="11" fx="12.517" fy="1.126" gradientTransform="matrix(1.35774 0 0 1.3577 -4.478 -.402)" gradientUnits="userSpaceOnUse"/><linearGradient id="a"><stop offset="0" style="stop-color:#c14f4b;stop-opacity:1"/><stop offset="1" style="stop-color:#a73633;stop-opacity:1"/></linearGradient></defs><path d="M12.092 1a31.425 31.425 0 0 0-2.155.068c-.109.031-.223.047-.343.047-.739.058-1.474.176-2.198.354-3.104.738-5.063 2.651-5.875 5.734a18.482 18.482 0 0 0-.517 4.787 18.985 18.985 0 0 0 .45 4.51c.77 3.303 2.816 5.322 6.124 6.057 1.801.369 3.618.51 5.451.412a15.597 15.597 0 0 0 4.768-.824c1.905-.698 3.285-1.967 4.135-3.811.458-1.063.756-2.168.896-3.318a28.3 28.3 0 0 0 .113-4.928 14.558 14.558 0 0 0-.753-3.822c-.751-2.058-2.137-3.507-4.163-4.34a13.68 13.68 0 0 0-3.78-.848A32.207 32.207 0 0 0 12.091 1z" style="stroke-width:.528095;paint-order:stroke fill markers;fill:url(#b);fill-opacity:1"/><path d="M12.092 1 12 1.002V4.24H2.91a7.47 7.47 0 0 0-.66 1.057h3.412V9.52H1.113c-.039.351-.065.704-.084 1.057H12v4.225H1.156c.046.353.103.705.168 1.056h4.338v4.225H3.184c.339.394.72.746 1.142 1.057H12v1.855c.343-.002.685-.009 1.03-.027h.027V21.14h6.63a6.783 6.783 0 0 0 1.133-1.057H6.72v-4.225h15.976c.054-.278.099-.56.133-.843.008-.071.012-.142.02-.213h-9.791v-4.225h9.906c-.008-.163-.011-.327-.022-.49a14.43 14.43 0 0 0-.045-.567h-3.503V5.297h2.37a7.284 7.284 0 0 0-.665-1.057h-8.041V1.02c-.321-.011-.644-.02-.965-.02zM6.719 5.297h11.619V9.52H6.718V5.297z" style="stroke-width:.528095;paint-order:stroke fill markers;fill:#c14f4b;fill-opacity:1"/><path d="M15.2 9.93c-.072 2.952-1.004 5.54-2.8 7.761-.07-.874-.34-1.748-.812-2.623-.047.662-.316 1.542-.799 2.641-.484 1.097-.784 1.895-.902 2.39-.218 1.049-.145 1.988.209 2.82.974.084 1.95.103 2.933.05a15.597 15.597 0 0 0 4.768-.824c1.905-.698 3.285-1.967 4.135-3.811.22-.51.402-1.031.548-1.56a13.398 13.398 0 0 0-.76-1.317c-.378-.567-.72-1.015-1.027-1.346-.307-.33-.554-.567-.744-.709.166.45.223.933.176 1.453-.047.52-.162.993-.352 1.418a6.319 6.319 0 0 0-.623-2.127c-.342-.708-.708-1.293-1.097-1.753a11.03 11.03 0 0 0-1.346-1.329c-.508-.425-.856-.702-1.045-.832a9.415 9.415 0 0 0-.46-.302h-.003z" style="isolation:auto;mix-blend-mode:normal;stroke-width:.420985;fill:#ffd33f;fill-opacity:1"/><path d="M16.7 14.54c.136.6.06 1.592-.227 2.974-.288 1.382-.745 2.429-1.375 3.14.11-.875.137-1.587.082-2.134-.055-.547-.137-.958-.246-1.233l-.205-.369c-.164.985-.588 1.97-1.272 2.955-.356.52-.622 1-.8 1.438-.178.436-.247.996-.206 1.68.193-.006.385-.012.578-.022a15.597 15.597 0 0 0 4.768-.824 7.296 7.296 0 0 0 2.394-1.416 9.897 9.897 0 0 0-.25-1.368c-.547-2.093-1.627-3.7-3.242-4.822z" style="isolation:auto;mix-blend-mode:normal;stroke-width:.338089;fill:#fff3cb;fill-opacity:1"/></svg>