<svg xmlns="http://www.w3.org/2000/svg" xml:space="preserve" width="24" height="24" viewBox="0 0 6.35 6.35"><defs><radialGradient id="a" cx="0" cy="0" r="1" gradientTransform="matrix(0 22 -22 0 12 1)" gradientUnits="userSpaceOnUse"><stop offset="0" stop-color="#8FC8FF" style="stop-color:#f6f6f6;stop-opacity:1"/><stop offset="1" stop-color="#0056A8" style="stop-color:#cfcfcf;stop-opacity:1"/></radialGradient><radialGradient id="b" cx="0" cy="0" r="1" fx="0" fy="0" gradientTransform="matrix(0 16.5 -16.5 0 9 .75)" gradientUnits="userSpaceOnUse" spreadMethod="pad"><stop offset="0" style="stop-opacity:1;stop-color:#fafafa"/><stop offset="1" style="stop-opacity:1;stop-color:silver"/></radialGradient></defs><path d="M7.195.836c.09 0 .176-.012.258-.035a23.86 23.86 0 0 1 3.231.008 10.26 10.26 0 0 1 2.836.636c1.519.625 2.558 1.711 3.121 3.254.316.93.507 1.887.566 2.867a21.227 21.227 0 0 1-.086 3.696 8.976 8.976 0 0 1-.672 2.488c-.637 1.383-1.672 2.336-3.101 2.859a11.693 11.693 0 0 1-3.575.618 15.998 15.998 0 0 1-4.089-.309c-2.481-.551-4.016-2.066-4.594-4.543a14.244 14.244 0 0 1-.336-3.383c-.027-1.211.101-2.41.387-3.59.609-2.312 2.078-3.746 4.406-4.3A10.27 10.27 0 0 1 7.195.836Z" style="fill:url(#b);fill-rule:evenodd;stroke:none" transform="scale(.35277)"/><path fill="#a0ecff" d="M-30.96 1.51c-.88 0-1.588.708-1.588 1.587v3.705c0 .879.708 1.587 1.588 1.587h3.175v1.112c0 .152.058.238.206.207l1.485-1.319h1.483c.88 0 1.588-.708 1.588-1.587V3.097c0-.879-.708-1.587-1.588-1.587z" opacity=".9" style="stroke-width:.26458;paint-order:stroke markers fill" transform="translate(11.114 1.005) scale(.25862)"/><path fill="#a0ecff" d="M-34.131 4.685c-.88 0-1.588.708-1.588 1.587v3.705c0 .879.708 1.587 1.588 1.587h3.175v1.112c0 .152.058.238.206.207l1.485-1.319h1.484c.879 0 1.587-.708 1.587-1.587V6.272c0-.88-.708-1.587-1.587-1.587z" opacity=".9" style="opacity:.25734;fill:#5ca4ed;fill-opacity:1;stroke-width:.26458;paint-order:stroke markers fill" transform="translate(11.114 1.005) scale(.25862)"/><path d="M-36.782 4.685a1.584 1.584 0 0 0-1.586 1.587v5.292a1.584 1.584 0 0 0 1.586 1.587h1.598l2.378 2.113c.19.04.264-.07.264-.265V13.15h4.757a1.584 1.584 0 0 0 1.587-1.587V8.481l-1.38 1.227a.32.32 0 0 1-.075.005.127.127 0 0 1-.056-.017.147.147 0 0 1-.065-.094.318.318 0 0 1-.011-.101V8.389h-3.175c-.88 0-1.588-.708-1.588-1.587V4.685z" style="fill:#5ca4ed;fill-opacity:1;stroke-width:.26458;paint-order:stroke markers fill" transform="translate(11.114 1.005) scale(.25862)"/></svg>