<svg xmlns="http://www.w3.org/2000/svg" xmlns:xlink="http://www.w3.org/1999/xlink" width="24" height="24"><defs><radialGradient id="b" cx="0" cy="0" r="1" fx="0" fy="0" gradientTransform="rotate(116.565 5.611 8.89) scale(2.57818)" gradientUnits="userSpaceOnUse" spreadMethod="pad"><stop offset="0" style="stop-color:#ff8a7e;stop-opacity:1"/><stop offset="1" style="stop-color:#ff584c;stop-opacity:1"/></radialGradient><radialGradient id="c" cx="0" cy="0" r="1" fx="0" fy="0" gradientTransform="rotate(116.565 5.032 9.827) scale(2.57818)" gradientUnits="userSpaceOnUse" spreadMethod="pad"><stop offset="0" style="stop-opacity:1;stop-color:#ffe164"/><stop offset="1" style="stop-opacity:1;stop-color:#ffb450"/></radialGradient><radialGradient id="a" cx="0" cy="0" r="1" fx="0" fy="0" gradientTransform="rotate(116.565 5.611 8.89) scale(2.57818)" gradientUnits="userSpaceOnUse" spreadMethod="pad"><stop offset="0" style="stop-opacity:1;stop-color:#a5eb78"/><stop offset="1" style="stop-opacity:1;stop-color:#60c31d"/></radialGradient><radialGradient id="f" cx="0" cy="0" r="1" fx="0" fy="0" gradientTransform="matrix(0 11.00003 -11.00003 0 12.04 1.005)" gradientUnits="userSpaceOnUse" spreadMethod="pad"><stop offset="0" style="stop-color:#387fe7;stop-opacity:1"/><stop offset="1" style="stop-color:#387fe7;stop-opacity:1"/></radialGradient><radialGradient xlink:href="#a" id="e" cx="0" cy="0" r="1" fx="0" fy="0" gradientTransform="rotate(116.565 5.611 8.89) scale(2.57818)" gradientUnits="userSpaceOnUse" spreadMethod="pad"/><radialGradient xlink:href="#b" id="d" cx="0" cy="0" r="1" fx="0" fy="0" gradientTransform="scale(-3.43757) rotate(-63.435 -5.58 3.521)" gradientUnits="userSpaceOnUse" spreadMethod="pad"/></defs><g style="fill:#387fe7;fill-opacity:1"><path d="M7.199.836c.09 0 .176-.012.258-.035a23.803 23.803 0 0 1 3.227.008 10.26 10.26 0 0 1 2.836.636c1.519.625 2.558 1.711 3.121 3.254.32.93.507 1.887.566 2.867a21.227 21.227 0 0 1-.086 3.696 8.976 8.976 0 0 1-.672 2.488c-.637 1.383-1.672 2.336-3.101 2.859a11.693 11.693 0 0 1-3.575.618 15.998 15.998 0 0 1-4.089-.309c-2.481-.551-4.016-2.066-4.594-4.543a14.244 14.244 0 0 1-.336-3.383c-.027-1.215.101-2.41.387-3.59.609-2.312 2.078-3.746 4.406-4.3A10.246 10.246 0 0 1 7.199.836Z" style="fill:#387fe7;fill-rule:evenodd;stroke:none;fill-opacity:1" transform="matrix(1.33333 0 0 1.33333 0 0)"/></g><path d="M13.062 1.907c-.328.01-.65.025-.98.046-.098.031-.202.042-.317.042-.683.057-1.353.166-2.02.328C6.89 3 5.088 4.76 4.344 7.593a17.187 17.187 0 0 0-.475 4.402c-.025 1.401.11 2.781.412 4.145.713 3.037 2.588 4.89 5.636 5.568 1.004.21 2.02.339 3.041.385.042 0 .083 0 .12-.005a14.41 14.41 0 0 0 4.386-.755c1.749-.645 3.014-1.812 3.796-3.505.422-.979.698-1.995.822-3.052a25.66 25.66 0 0 0 .106-4.525 12.795 12.795 0 0 0-.694-3.516c-.682-1.896-1.958-3.224-3.822-3.99a12.363 12.363 0 0 0-3.475-.781c-.375-.027-.75-.047-1.124-.057h-.01z" style="fill:#e6e6e6;fill-opacity:1;fill-rule:nonzero;stroke:none;stroke-width:1.33333"/><path d="M15.035 9.723h.922a.69.69 0 0 1 .691.691v.922a.69.69 0 0 1-.691.691h-.922a.69.69 0 0 1-.691-.691v-.922a.69.69 0 0 1 .691-.691z" style="fill:url(#c);stroke:none" transform="matrix(1.33333 0 0 1.33333 0 0)"/><path d="M20.046 10.464h1.23c.51 0 .92.41.92.921v1.23c0 .51-.41.921-.92.921h-1.23a.919.919 0 0 1-.921-.921v-1.23c0-.51.41-.921.921-.921z" style="fill:url(#d);stroke:none;stroke-width:1.33333"/><path d="M15.035 7.848h.922a.69.69 0 0 1 .691.691v.922a.69.69 0 0 1-.691.691h-.922a.69.69 0 0 1-.691-.691v-.922a.69.69 0 0 1 .691-.691z" style="fill:url(#e);stroke:none" transform="matrix(1.33333 0 0 1.33333 0 -2.513)"/><path d="M11.04 1.021c-.352.01-.707.026-1.062.052-.11.031-.224.047-.342.047-.746.057-1.475.177-2.2.353-3.108.74-5.067 2.652-5.88 5.735a18.531 18.531 0 0 0-.51 4.787c-.03 1.521.115 3.026.443 4.51.776 3.302 2.817 5.318 6.13 6.058 1.1.224 2.198.364 3.313.416.04 0 .089 0 .13-.006a15.562 15.562 0 0 0 4.766-.822c1.906-.698 3.286-1.968 4.136-3.812.457-1.063.754-2.167.89-3.318a27.79 27.79 0 0 0 .119-4.928 14.297 14.297 0 0 0-.755-3.822c-.75-2.063-2.136-3.506-4.161-4.339a13.709 13.709 0 0 0-3.781-.85c-.407-.025-.812-.051-1.22-.06h-.015z" style="fill:url(#f);stroke:none;stroke-width:1.33333"/><path d="M4.188 2.953C2.89 3.96 2.005 5.38 1.52 7.213A18.502 18.502 0 0 0 1.005 12c-.032 1.521.12 3.027.448 4.51.459 1.969 1.37 3.48 2.735 4.537-.715-5.578-.767-11.574 0-18.094z" style="fill:#2d66b9;fill-opacity:1;fill-rule:nonzero;stroke:none;stroke-width:1.33333"/><path fill="#fff" d="M15.517 11.308a1.417 1.417 0 0 0-1.417 1.416v1.417h-.708v2.834h4.25V14.14h-.708v-1.417a1.417 1.417 0 0 0-1.417-1.416zm0 .708a.708.708 0 0 1 .708.708v1.417H14.81v-1.417a.708.708 0 0 1 .708-.708zm-3.542 0a4.948 4.948 0 0 0-4.959 4.959h5.667v-.709H7.788a4.236 4.236 0 0 1 4.187-3.542c.243 0 .479.027.708.07v-.717a4.714 4.714 0 0 0-.708-.061zm0-4.959A2.12 2.12 0 0 0 9.85 9.182a2.12 2.12 0 0 0 2.125 2.126A2.12 2.12 0 0 0 14.1 9.182a2.12 2.12 0 0 0-2.125-2.125zm0 .708c.785 0 1.417.632 1.417 1.417S12.76 10.6 11.975 10.6a1.414 1.414 0 0 1-1.417-1.417c0-.785.632-1.417 1.417-1.417z" style="stroke:#2d66b9;stroke-width:1.454;stroke-linecap:round;stroke-linejoin:round;stroke-dasharray:none;stroke-opacity:1;paint-order:stroke markers fill"/><path fill="#fff" d="M15.517 11.308a1.417 1.417 0 0 0-1.417 1.416v1.417h-.708v2.834h4.25V14.14h-.708v-1.417a1.417 1.417 0 0 0-1.417-1.416zm0 .708a.708.708 0 0 1 .708.708v1.417H14.81v-1.417a.708.708 0 0 1 .708-.708zm-3.542 0a4.948 4.948 0 0 0-4.959 4.959h5.667v-.709H7.788a4.236 4.236 0 0 1 4.187-3.542c.243 0 .479.027.708.07v-.717a4.714 4.714 0 0 0-.708-.061zm0-4.959A2.12 2.12 0 0 0 9.85 9.182a2.12 2.12 0 0 0 2.125 2.126A2.12 2.12 0 0 0 14.1 9.182a2.12 2.12 0 0 0-2.125-2.125zm0 .708c.785 0 1.417.632 1.417 1.417S12.76 10.6 11.975 10.6a1.414 1.414 0 0 1-1.417-1.417c0-.785.632-1.417 1.417-1.417z" style="stroke:none;stroke-width:1.454;stroke-linecap:round;stroke-linejoin:round;stroke-dasharray:none;stroke-opacity:1;paint-order:stroke markers fill"/></svg>