<svg xmlns="http://www.w3.org/2000/svg" width="24" height="24" fill="none"><defs><radialGradient id="a" cx="0" cy="0" r="1" gradientTransform="matrix(0 22 -22 0 12 1)" gradientUnits="userSpaceOnUse"><stop offset="0" stop-color="#8FC8FF" style="stop-color:#f6f6f6;stop-opacity:1"/><stop offset="1" stop-color="#0056A8" style="stop-color:#cfcfcf;stop-opacity:1"/></radialGradient></defs><path d="M50 5C9.09 5 5 25.455 5 50c0 32.727 12.273 45 45 45 32.727 0 45-12.273 45-45 0-24.545-4.09-45-45-45Z" style="font-variation-settings:normal;display:inline;opacity:1;vector-effect:none;fill:#fff;fill-opacity:1;stroke-width:4.56656;stroke-linecap:butt;stroke-linejoin:miter;stroke-miterlimit:4;stroke-dasharray:none;stroke-dashoffset:0;stroke-opacity:1;-inkscape-stroke:none;stop-color:#000;stop-opacity:1" transform="matrix(.24444 0 0 .24444 -.222 -.222)"/><g stroke-width=".5"><path fill="#8b6c52" d="M7 13.5a.486.486 0 0 0-.31.108.5.5 0 0 0-.18.292.503.503 0 0 0-.01.1.997.997 0 0 1-.638.931 1 1 0 0 1-.192.054A1 1 0 0 1 5.5 15a.254.254 0 0 0-.085.014.304.304 0 0 0-.096.054.458.458 0 0 0-.09.09.858.858 0 0 0-.112.197 1.24 1.24 0 0 0-.055.165 1.567 1.567 0 0 0-.059.38A2.03 2.03 0 0 0 5 16v.5h14V16a2 2 0 0 0-.062-.48 1.436 1.436 0 0 0-.055-.165 1.048 1.048 0 0 0-.073-.138.569.569 0 0 0-.128-.149A.304.304 0 0 0 18.5 15a1 1 0 0 1-.17-.015 1 1 0 0 1-.283-.093A1 1 0 0 1 17.5 14a.502.502 0 0 0-.023-.148.498.498 0 0 0-.095-.175.5.5 0 0 0-.155-.122A.498.498 0 0 0 17 13.5h-5Z"/><path fill="#4d4d4d" d="m15 13.5-.5-.5H14l.5.5zm-6 0 .5-.5h.5l-.5.5z"/><path fill="#b3b3b3" d="M16.893 12.5H7.101c-.067.329-.101.164-.101.5h10c-.002-.336-.037-.171-.106-.5z" opacity=".998"/><path fill="#ccc" d="M11.5 7.5V9h1V7.5z"/><path fill="#e6e6e6" d="M12 8.5a5 5 0 0 0-4.899 4h9.793A5 5 0 0 0 12 8.5Z" opacity=".998"/><path fill="#ececec" d="M12 6.5a1 1 0 0 0-1 1 1 .5 0 0 0 .5.432 1 .5 0 0 0 1 0A1 .5 0 0 0 13 7.5a1 1 0 0 0-1-1z"/><path fill="#5c5049" d="M5 16.5h14v1H5Z"/></g></svg>