<svg xmlns="http://www.w3.org/2000/svg" width="24" height="24" fill="none"><defs><radialGradient id="a" cx="0" cy="0" r="1" gradientTransform="matrix(0 22 -22 0 12 1)" gradientUnits="userSpaceOnUse"><stop offset="0" stop-color="#8FC8FF" style="stop-color:#f6f6f6;stop-opacity:1"/><stop offset="1" stop-color="#0056A8" style="stop-color:#cfcfcf;stop-opacity:1"/></radialGradient></defs><path d="M50 5C9.09 5 5 25.455 5 50c0 32.727 12.273 45 45 45 32.727 0 45-12.273 45-45 0-24.545-4.09-45-45-45Z" style="font-variation-settings:normal;display:inline;opacity:1;vector-effect:none;fill:#8a61b8;fill-opacity:1;stroke-width:4.56656;stroke-linecap:butt;stroke-linejoin:miter;stroke-miterlimit:4;stroke-dasharray:none;stroke-dashoffset:0;stroke-opacity:1;-inkscape-stroke:none;stop-color:#000;stop-opacity:1" transform="matrix(.24444 0 0 .24444 -.222 -.222)"/><path fill="#ececeb" d="M19.836 11.506a9.908 9.908 0 0 0-.538-.672c-.996-1.167-2.14-2.207-3.393-2.961-.8-.484-1.658-.874-2.545-1.059A6.714 6.714 0 0 0 12 6.668c-.45 0-.903.05-1.355.145-.888.188-1.742.576-2.543 1.058-1.253.756-2.399 1.797-3.4 2.963a9.926 9.926 0 0 0-.53.672.806.806 0 0 0 0 .991c.508.716 1.116 1.349 1.73 1.932 1.33 1.246 2.854 2.291 4.532 2.714a6.397 6.397 0 0 0 3.13 0c1.677-.423 3.203-1.468 4.535-2.716a13.242 13.242 0 0 0 1.733-1.928.818.818 0 0 0 0-.993m0 0"/><path fill="#4586f9" d="M16.004 11.996a4.001 4.001 0 1 1-8.001 0 4.001 4.001 0 0 1 8 0"/><path fill="#141414" d="M14.227 11.996a2.222 2.222 0 1 1-4.443 0 2.222 2.222 0 0 1 4.443 0"/><path fill="#f9f9f9" d="M13.782 11.106a.889.889 0 1 1-1.778 0 .889.889 0 0 1 1.778 0"/><path fill="#d5122d" d="m15.109 7.432-7.224 8.566c.33.213.666.403 1.012.574l7.218-8.567c-.321-.225-.696-.413-1.008-.57m0 0"/></svg>