<svg xmlns="http://www.w3.org/2000/svg" width="24" height="24" viewBox="0 0 6.35 6.35"><defs><radialGradient id="a" cx="0" cy="0" r="1" gradientTransform="rotate(90 1.455 1.72) scale(2.91036)" gradientUnits="userSpaceOnUse"><stop stop-color="#6EBBF7"/><stop offset="1" stop-color="#2196F3"/></radialGradient></defs><path fill="url(#a)" fill-rule="evenodd" d="M2.539.295a.312.312 0 0 0 .09-.012c.38-.025.76-.024 1.14.003.345.026.678.101 1 .224.536.22.903.603 1.1 1.148.114.328.18.665.2 1.012.029.435.019.869-.03 1.302a3.143 3.143 0 0 1-.236.879 1.87 1.87 0 0 1-1.094 1.008c-.409.139-.829.211-1.26.219a5.668 5.668 0 0 1-1.444-.11C1.13 5.773.59 5.24.385 4.366a5.04 5.04 0 0 1-.12-1.194c-.009-.428.037-.85.137-1.266C.617 1.09 1.135.584 1.957.39c.191-.047.385-.079.582-.094z" clip-rule="evenodd" style="fill:url(#a);stroke-width:.264578"/><path d="M4.882 3.014a2.249 2.249 0 0 0-2.249 2.249 2.249 2.249 0 0 0 .152.81c.22.015.44.016.662.004.433-.007.854-.08 1.262-.218.504-.185.869-.52 1.094-1.008.121-.281.2-.574.237-.878.023-.204.036-.408.042-.613a2.249 2.249 0 0 0-1.2-.346Z" style="fill:#f9f9f9;fill-opacity:1;stroke-width:.531281;paint-order:markers stroke fill"/><path fill="#fff" d="M3.174 1.058q.292 0 .562.077.271.074.508.213.235.136.428.33.194.193.33.428.139.236.213.507.077.27.077.562 0 .291-.077.562-.074.27-.213.506-.136.237-.33.43-.193.194-.428.332-.237.137-.508.213-.27.074-.562.074-.29 0-.562-.074-.27-.076-.506-.213-.236-.138-.43-.33-.193-.195-.33-.43-.138-.237-.214-.506-.074-.27-.074-.564 0-.292.074-.562.076-.27.213-.507.138-.235.33-.428.195-.194.43-.33.236-.139.505-.213.27-.077.564-.077zm1.673 1.323q-.078-.167-.19-.314-.111-.149-.248-.27-.137-.12-.296-.218-.16-.095-.333-.155.074.103.134.22.06.115.106.24.047.121.08.247t.058.25zm.18.794q0-.275-.076-.53H4.2q.015.133.023.265.008.13.008.265 0 .134-.008.266-.008.13-.025.263h.75q.078-.254.078-.53zM3.174 5.028q.102 0 .188-.056.09-.056.164-.147.074-.09.132-.204.06-.116.105-.234.046-.118.077-.228.03-.11.047-.19H2.461q.017.08.048.19.03.11.076.228.046.118.104.234.06.113.134.204.074.09.161.147.09.056.19.056zm.76-1.324q.015-.132.024-.263.01-.132.01-.266 0-.135-.01-.265-.009-.132-.025-.264H2.416q-.017.132-.027.264-.009.13-.009.265 0 .134.01.266.01.13.026.263zm-2.61-.53q0 .276.075.53h.75q-.016-.132-.025-.263-.008-.132-.008-.266 0-.135.008-.265.01-.132.025-.264H1.4q-.077.254-.077.53zm1.85-1.85q-.102 0-.19.056-.088.055-.162.146-.075.091-.135.207-.057.114-.103.232-.045.117-.076.227-.03.11-.048.19h1.426q-.016-.08-.047-.19-.03-.11-.077-.227-.045-.118-.105-.232-.058-.116-.132-.207-.075-.09-.164-.146-.087-.056-.188-.056zm-.606.101q-.174.06-.333.155-.16.095-.296.217-.136.122-.248.27-.11.148-.19.315h.688q.025-.124.058-.25t.08-.248q.046-.124.106-.24.06-.116.135-.219zM1.502 3.97q.08.167.19.317.112.147.248.269.137.12.296.217.16.096.333.155-.075-.104-.135-.22-.06-.116-.107-.237-.046-.124-.079-.25-.033-.127-.058-.25Zm2.278.958q.174-.06.333-.155.16-.096.296-.217.137-.122.248-.27.112-.149.19-.316h-.688q-.025.124-.058.25-.033.127-.08.25-.046.123-.106.238-.06.116-.134.22z" aria-label="" opacity=".35" style="paint-order:stroke fill markers"/><path d="M5.555 4.13a.14.14 0 0 0-.023.002.14.14 0 0 0-.053.019l-1.705.983-.007.006a.19.19 0 0 0-.019.017.137.137 0 0 0-.02.022l-.005.007c-.003.004-.003.01-.005.015a.137.137 0 0 0-.01.03.135.135 0 0 0-.002.025c0 .008 0 .017.002.026.002.01.006.02.01.029.002.005.002.01.005.016l.005.005a.114.114 0 0 0 .02.023c.006.005.012.012.02.017l.006.006.87.502a2.113 2.113 0 0 0 .325-.137l-.844-.487 1.494-.862a.14.14 0 0 0-.064-.263z" style="fill:#666;fill-opacity:.50196081;stroke-width:.281047;stroke-linecap:square;paint-order:stroke fill markers"/><circle cx="3.855" cy="5.256" r=".422" style="fill:#666;fill-opacity:1;stroke-width:.281047;stroke-linecap:square;paint-order:stroke fill markers"/><circle cx="5.541" cy="4.272" r=".422" style="fill:#666;fill-opacity:1;stroke-width:.281047;stroke-linecap:square;paint-order:stroke fill markers"/></svg>