<svg xmlns="http://www.w3.org/2000/svg" xml:space="preserve" width="24" height="24" viewBox="0 0 6.35 6.35"><defs><radialGradient id="a" cx="0" cy="0" r="1" gradientTransform="rotate(90 1.455 1.72) scale(5.82072)" gradientUnits="userSpaceOnUse"><stop stop-color="#555"/><stop offset="1" stop-color="#222"/></radialGradient></defs><path fill="url(#a)" fill-rule="evenodd" d="M2.539.295a.312.312 0 0 0 .09-.012c.38-.025.76-.024 1.14.003.345.026.678.101 1 .224.536.22.903.603 1.1 1.148.114.328.18.665.2 1.012.029.435.019.869-.03 1.302a3.143 3.143 0 0 1-.236.879 1.87 1.87 0 0 1-1.094 1.008c-.409.139-.829.211-1.26.219a5.668 5.668 0 0 1-1.444-.11C1.13 5.773.59 5.24.385 4.366a5.04 5.04 0 0 1-.12-1.194c-.009-.428.037-.85.137-1.266C.617 1.09 1.135.584 1.957.39c.191-.047.385-.079.582-.094z" clip-rule="evenodd" style="fill:url(#a);stroke-width:.264578"/><g transform="matrix(.29629 0 0 .29629 -2.48 5.925)"><g stroke-width=".963"><path fill="#46a926" d="M13.323 3.603c-.048.049 2.02 4.86 2.02 4.86l-2.02 4.858s-4.86-2.568-4.86-4.859c0-2.29 4.86-4.859 4.86-4.859z" style="isolation:isolate" transform="matrix(1.0382 0 0 1.0384 10.295 -18.069)"/><path fill="#f22c42" d="M3.604 13.321c.049-.049-2.02-4.859-2.02-4.859l2.02-4.859s4.86 2.569 4.86 4.86c0 2.29-4.86 4.858-4.86 4.858z" style="isolation:isolate" transform="matrix(1.0382 0 0 1.0384 10.295 -18.069)"/><path fill="#ffda64" d="M13.323 3.603c-.048.049-4.86-2.019-4.86-2.019l-4.86 2.019 4.86 4.86z" style="isolation:isolate" transform="matrix(1.0382 0 0 1.0384 10.295 -18.069)"/><path fill="#2f5fdd" d="m3.604 13.321 4.86 2.013s4.81-2.062 4.86-2.013l-4.86-4.859Z" style="isolation:isolate" transform="matrix(1.0382 0 0 1.0384 10.295 -18.069)"/><path fill="#a6d74f" d="M8.464 1.587a6.846 6.846 0 0 0 2.019 4.862l2.845-2.844a6.88 6.88 0 0 0-4.861-2.018Z" style="isolation:isolate" transform="matrix(1.0382 0 0 1.0384 10.295 -18.069)"/><path fill="#76c22b" d="m13.328 3.605-2.845 2.844a6.84 6.84 0 0 0 4.863 2.012 6.88 6.88 0 0 0-2.018-4.856Z" style="isolation:isolate" transform="matrix(1.0382 0 0 1.0384 10.295 -18.069)"/><path fill="#1463a5" d="M10.476 10.481a6.85 6.85 0 0 0-2.019 4.862h.069a6.88 6.88 0 0 0 4.8-2.013z" style="isolation:isolate" transform="matrix(1.0382 0 0 1.0384 10.295 -18.069)"/><path fill="#2b898f" d="M15.346 8.469a6.84 6.84 0 0 0-4.87 2.012l2.85 2.85a6.88 6.88 0 0 0 2.02-4.862z" style="isolation:isolate" transform="matrix(1.0382 0 0 1.0384 10.295 -18.069)"/><path fill="#9b33ae" d="M1.587 8.463a6.88 6.88 0 0 0 0 .003 6.88 6.88 0 0 0 2.014 4.857l2.85-2.848a6.839 6.839 0 0 0-4.864-2.011Z" style="isolation:isolate" transform="matrix(1.0382 0 0 1.0384 10.295 -18.069)"/><path fill="#7839b7" d="M6.45 10.475 3.6 13.323a6.88 6.88 0 0 0 4.826 2.02h.043a6.85 6.85 0 0 0-2.019-4.868Z" style="isolation:isolate" transform="matrix(1.0382 0 0 1.0384 10.295 -18.069)"/><path fill="#fdc92b" d="M8.467 1.587a6.88 6.88 0 0 0-4.858 2.015l2.848 2.847a6.85 6.85 0 0 0 2.019-4.861 6.88 6.88 0 0 0-.01 0z" style="isolation:isolate" transform="matrix(1.0382 0 0 1.0384 10.295 -18.069)"/><path fill="#f34f17" d="M3.609 3.602a6.88 6.88 0 0 0-2.021 4.859 6.84 6.84 0 0 0 4.869-2.012Z" style="isolation:isolate" transform="matrix(1.0382 0 0 1.0384 10.295 -18.069)"/></g><circle cx="19.083" cy="-9.281" r="5.292" fill="#fff" opacity=".35" style="paint-order:fill markers stroke"/><g fill="#fff" color="#000"><path d="M9.59 9.589a1.588 1.588 0 0 1-2.246 0 1.588 1.588 0 0 1 0-2.245 1.588 1.588 0 0 1 2.245 0 1.588 1.588 0 0 1 0 2.245z" opacity=".5" overflow="visible" style="isolation:auto;mix-blend-mode:normal;paint-order:fill markers stroke" transform="translate(10.617 -17.747)"/><path d="M8.467 4.031a.126.126 0 0 0-.088.038L6.277 6.171a3.175 3.175 0 0 0-.056.05 3.175 3.175 0 0 0 0 4.49 3.175 3.175 0 0 0 4.49 0 3.175 3.175 0 0 0 .001-4.49 3.175 3.175 0 0 0-.076-.07c-.004-.005-.005-.01-.01-.015L8.559 4.069a.126.126 0 0 0-.092-.038Zm.023 2.848a1.588 1.588 0 0 1 1.1.465 1.588 1.588 0 0 1 0 2.245 1.588 1.588 0 0 1-2.246 0 1.588 1.588 0 0 1 0-2.245 1.588 1.588 0 0 1 1.146-.465z" overflow="visible" style="isolation:auto;mix-blend-mode:normal;paint-order:fill markers stroke" transform="translate(10.617 -17.747)"/><path d="m9.022 7.718-.561.561-.561-.561-.188.187.562.561-.55.573.176.176.56-.562.562.562.199-.176-.573-.573.561-.56Z" overflow="visible" style="isolation:auto;mix-blend-mode:normal;paint-order:fill markers stroke" transform="translate(10.617 -17.747)"/></g></g></svg>