<svg xmlns="http://www.w3.org/2000/svg" width="24" height="24"><defs><radialGradient id="a" cx="0" cy="0" r="1" gradientTransform="matrix(0 22 -22 0 12 1)" gradientUnits="userSpaceOnUse"><stop offset="0" stop-color="#50FE71" style="stop-color:#b7fa6b;stop-opacity:1"/><stop offset="1" stop-color="#01AF22" style="stop-color:#6ed105;stop-opacity:1"/></radialGradient></defs><path fill="url(#a)" fill-rule="evenodd" d="M1 11.563v.003c0 .141.002.283.005.425-.03 1.521.118 3.025.447 4.51.774 3.3 2.816 5.32 6.128 6.057 1.428.294 2.868.442 4.32.442h.012c.373 0 .746-.01 1.12-.03a15.624 15.624 0 0 0 4.766-.824c1.906-.699 3.284-1.97 4.135-3.812a11.88 11.88 0 0 0 .894-3.32c.183-1.638.22-3.28.114-4.924a14.265 14.265 0 0 0-.756-3.824c-.746-2.06-2.133-3.506-4.158-4.34a13.537 13.537 0 0 0-3.78-.847 31.627 31.627 0 0 0-4.307-.011c-.11.032-.224.047-.344.046-.742.06-1.476.178-2.2.355-3.106.738-5.064 2.65-5.876 5.736A18.48 18.48 0 0 0 1 11.563Z" clip-rule="evenodd" style="fill:url(#a)"/><path fill="#fff" d="M10.429 6.5v4.714h4.714v2.358l2.357-2.358V6.5Zm.785.786h5.5v3.143h-5.5ZM9.25 11.214l-.393.315-1.571 1.31v-.053H6.5v3.143h.786v-.052l1.571 1.309.393.314h.393v-6.286z" style="stroke-width:1"/></svg>