<svg xmlns="http://www.w3.org/2000/svg" width="24" height="24" version="1"><defs><radialGradient id="a" cx="0" cy="0" r="1" fx="0" fy="0" gradientTransform="matrix(0 16.5 -16.5 0 9 .75)" gradientUnits="userSpaceOnUse" spreadMethod="pad"><stop offset="0" style="stop-opacity:1;stop-color:#a4a4a4"/><stop offset="1" style="stop-opacity:1;stop-color:#626262"/></radialGradient></defs><path d="M7.195.836c.09 0 .176-.012.258-.035a23.86 23.86 0 0 1 3.231.008 10.26 10.26 0 0 1 2.836.636c1.519.625 2.558 1.711 3.121 3.254.316.93.507 1.887.566 2.867a21.227 21.227 0 0 1-.086 3.696 8.976 8.976 0 0 1-.672 2.488c-.637 1.383-1.672 2.336-3.101 2.859a11.693 11.693 0 0 1-3.575.618 15.998 15.998 0 0 1-4.089-.309c-2.481-.551-4.016-2.066-4.594-4.543a14.244 14.244 0 0 1-.336-3.383c-.027-1.215.101-2.41.387-3.59.609-2.312 2.078-3.746 4.406-4.3A10.27 10.27 0 0 1 7.195.836Z" style="fill:url(#a);fill-rule:evenodd;stroke:none" transform="matrix(1.33333 0 0 1.33333 0 0)"/><g transform="translate(-14.139 8.756) scale(.28846)"><rect width="39.844" height="52" x="-31.167" y="-116.614" fill="#666" rx="5.805" ry="5.805" style="stroke-width:.87535" transform="matrix(0 -1 -1 0 0 0)"/><rect width="38.312" height="50" x="-30.401" y="-115.614" fill="#4f4f4f" rx="5.149" ry="5.149" style="stroke-width:.87535" transform="matrix(0 -1 -1 0 0 0)"/><rect width="1.074" height="12.89" x="90.077" y="14.944" fill="#f9f9f9" rx=".537" ry=".537" style="stroke-width:.537078;paint-order:stroke fill markers"/></g></svg>