<svg xmlns="http://www.w3.org/2000/svg" width="24" height="24" fill="none"><defs><radialGradient id="a" cx="0" cy="0" r="1" gradientTransform="matrix(0 22 -22 0 12 1)" gradientUnits="userSpaceOnUse"><stop offset="0" stop-color="#8FC8FF" style="stop-color:#f6f6f6;stop-opacity:1"/><stop offset="1" stop-color="#0056A8" style="stop-color:#cfcfcf;stop-opacity:1"/></radialGradient></defs><path d="M50 5C9.09 5 5 25.455 5 50c0 32.727 12.273 45 45 45 32.727 0 45-12.273 45-45 0-24.545-4.09-45-45-45Z" style="font-variation-settings:normal;display:inline;opacity:1;vector-effect:none;fill:#1ea8f7;fill-opacity:1;stroke-width:4.56656;stroke-linecap:butt;stroke-linejoin:miter;stroke-miterlimit:4;stroke-dasharray:none;stroke-dashoffset:0;stroke-opacity:1;-inkscape-stroke:none;stop-color:#000;stop-opacity:1" transform="matrix(.24444 0 0 .24444 -.222 -.222)"/><g fill="#fff"><path d="M11.767 5.671a3.157 3.157 0 0 0-3.164 3.165A3.157 3.157 0 0 0 11.767 12a3.157 3.157 0 0 0 3.165-3.164 3.157 3.157 0 0 0-3.165-3.165zm0 6.329a6.315 6.315 0 0 0-6.328 6.329h7.232v-.905H6.424a5.406 5.406 0 0 1 5.343-4.52c.325 0 .64.034.945.094l.235-.88a6.016 6.016 0 0 0-1.18-.118Zm0-5.424a2.255 2.255 0 0 1 2.26 2.26 2.255 2.255 0 0 1-2.26 2.26 2.255 2.255 0 0 1-2.26-2.26 2.255 2.255 0 0 1 2.26-2.26z"/><g stroke-width=".353"><path d="M17.192 12.904v5.425h.904v-5.425Z"/><path d="M13.576 17.424H19v-.904h-5.424Zm0-2.712H19v-.904h-5.424Z"/><path d="M14.48 12.904v5.425h.904v-5.425Z"/></g></g></svg>