<svg xmlns="http://www.w3.org/2000/svg" width="24" height="24" fill="none"><defs><radialGradient id="a" cx="0" cy="0" r="1" gradientTransform="matrix(0 22 -22 0 12 1)" gradientUnits="userSpaceOnUse"><stop offset="0" stop-color="#8FC8FF" style="stop-color:#f6f6f6;stop-opacity:1"/><stop offset="1" stop-color="#0056A8" style="stop-color:#cfcfcf;stop-opacity:1"/></radialGradient></defs><path d="M50 5C9.09 5 5 25.455 5 50c0 32.727 12.273 45 45 45 32.727 0 45-12.273 45-45 0-24.545-4.09-45-45-45Z" style="font-variation-settings:normal;display:inline;opacity:1;vector-effect:none;fill:#464646;fill-opacity:1;stroke-width:4.56656;stroke-linecap:butt;stroke-linejoin:miter;stroke-miterlimit:4;stroke-dasharray:none;stroke-dashoffset:0;stroke-opacity:1;-inkscape-stroke:none;stop-color:#000;stop-opacity:1" transform="matrix(.24444 0 0 .24444 -.222 -.222)"/><path fill="#fff" d="M11.984 3A9 9 0 0 0 3.59 8.786h.038l1.929-.643 1.286 1.285V8.143L8.127 7.5v-.643l1.286-.643 1.286-1.286v.643l.642-.643-.642-.643h1.285v.643l1.286-.643-.643-.643v-.61A9 9 0 0 0 11.984 3Zm6.67 2.973-.241.241v.643h.944a9 9 0 0 0-.703-.884zm.846 1.083-2.373 2.373-.643 1.928V12l1.286 1.286 1.286.643 1.794-.443A9 9 0 0 0 20.984 12 9 9 0 0 0 19.5 7.056ZM4.27 10.07l-.643.643h-.539a9.06 9.06 0 0 0-.072.658v.001L4.27 12l.643.643 1.286.643.642.643-.642.642v1.286l.642 1.286 1.286 1.286v1.69a9 9 0 0 0 3.857.881c.11-.002.219-.006.328-.012l.315-.631v-.643l1.286-.643.643-.643v-1.285l.642-.643v-.643l-.642-.643-1.929-.643-1.286-1.286h-.643l-.642-.643L8.126 12l-1.285.643H5.555v-1.286h-.643v-1.286z" opacity=".75"/><path fill="#ffdc54" fill-rule="evenodd" d="M11.333 7.333v4h1.334v-4Zm-.666.197A4.667 4.667 0 0 0 7.333 12 4.667 4.667 0 0 0 12 16.667 4.667 4.667 0 0 0 16.667 12a4.667 4.667 0 0 0-3.334-4.467v.702A4 4 0 0 1 16 12a4 4 0 0 1-4 4 4 4 0 0 1-4-4 4 4 0 0 1 2.667-3.767Z"/></svg>