<svg xmlns="http://www.w3.org/2000/svg" xmlns:xlink="http://www.w3.org/1999/xlink" xml:space="preserve" width="24" height="24"><defs><clipPath id="a" clipPathUnits="userSpaceOnUse"><path d="M-22.543-286.093h280.477V-99.11H-22.543Z"/></clipPath><clipPath id="c" clipPathUnits="userSpaceOnUse"><path d="M444.944-728.121h176.722v353.444H444.944Z"/></clipPath><clipPath id="j" clipPathUnits="userSpaceOnUse"><path d="M0 0h19v19H0Z"/></clipPath><clipPath id="k" clipPathUnits="userSpaceOnUse"><path d="m6.707 11.402.703-2.468 3.902 2.468Z"/></clipPath><clipPath id="e" clipPathUnits="userSpaceOnUse"><path d="M-22.543-286.093h280.477V-99.11H-22.543Z"/></clipPath><clipPath id="n" clipPathUnits="userSpaceOnUse"><path d="M0 0h19v19H0Z"/></clipPath><clipPath id="o" clipPathUnits="userSpaceOnUse"><path d="M9.199 10.066v1.336h.227v-1.191z"/></clipPath><clipPath id="f" clipPathUnits="userSpaceOnUse"><path d="M444.944-728.121h176.722v353.444H444.944Z"/></clipPath><linearGradient id="g"><stop offset="0" style="stop-color:#44a8db;stop-opacity:1"/><stop offset="1" style="stop-color:#99dbff;stop-opacity:1"/></linearGradient><linearGradient id="i" x1="-240.47" x2="-240.47" y1="-60.605" y2="-29.026" gradientTransform="matrix(.18118 0 0 .17805 52.192 15.636)" gradientUnits="userSpaceOnUse" spreadMethod="pad"><stop offset="0" style="stop-opacity:1;stop-color:#4285db"/><stop offset="1" style="stop-opacity:1;stop-color:#42b9db"/></linearGradient><linearGradient id="b" x1="10.583" x2="225.69" y1="-184.68" y2="-184.68" gradientUnits="userSpaceOnUse" spreadMethod="pad"><stop offset="0" style="stop-opacity:1;stop-color:#fff"/><stop offset="1" style="stop-opacity:0;stop-color:#fff"/></linearGradient><linearGradient id="m" x1="10.583" x2="225.69" y1="-184.68" y2="-184.68" gradientUnits="userSpaceOnUse" spreadMethod="pad"><stop offset="0" style="stop-opacity:1;stop-color:#fafbfb"/><stop offset="1" style="stop-opacity:1;stop-color:#fafbfb"/></linearGradient><linearGradient id="d" x1="520" x2="410" y1="-620" y2="-620" gradientUnits="userSpaceOnUse" spreadMethod="pad"><stop offset="0" style="stop-opacity:1;stop-color:#fff"/><stop offset="1" style="stop-opacity:0;stop-color:#fff"/></linearGradient><linearGradient id="q" x1="520" x2="410" y1="-620" y2="-620" gradientUnits="userSpaceOnUse" spreadMethod="pad"><stop offset="0" style="stop-opacity:1;stop-color:#000"/><stop offset="1" style="stop-opacity:1;stop-color:#000"/></linearGradient><linearGradient xlink:href="#g" id="r" x1="6.629" x2="15.247" y1="7.425" y2="7.425" gradientTransform="matrix(.83907 0 0 1.23044 -.806 2.21)" gradientUnits="userSpaceOnUse"/><mask id="l" width="1" height="1" x="0" y="0" maskUnits="userSpaceOnUse"><g clip-path="url(#e)"><path d="M-22.543-286.093h280.477V-99.11H-22.543Z" style="fill:url(#b);stroke:none"/></g></mask><mask id="p" width="1" height="1" x="0" y="0" maskUnits="userSpaceOnUse"><g clip-path="url(#f)"><path d="M444.944-728.121h176.722v353.444H444.944Z" style="fill:url(#d);stroke:none"/></g></mask><radialGradient id="h" cx="0" cy="0" r="1" fx="0" fy="0" gradientTransform="matrix(0 16.5 -16.5 0 9 .75)" gradientUnits="userSpaceOnUse" spreadMethod="pad"><stop offset="0" style="stop-opacity:1;stop-color:#a4a4a4"/><stop offset="1" style="stop-opacity:1;stop-color:#626262"/></radialGradient></defs><path d="M7.195.836c.09 0 .176-.012.258-.035a23.86 23.86 0 0 1 3.231.008 10.26 10.26 0 0 1 2.836.636c1.519.625 2.558 1.711 3.121 3.254.316.93.507 1.887.566 2.867a21.227 21.227 0 0 1-.086 3.696 8.976 8.976 0 0 1-.672 2.488c-.637 1.383-1.672 2.336-3.101 2.859a11.693 11.693 0 0 1-3.575.618 15.998 15.998 0 0 1-4.089-.309c-2.481-.551-4.016-2.066-4.594-4.543a14.244 14.244 0 0 1-.336-3.383c-.027-1.215.101-2.41.387-3.59.609-2.312 2.078-3.746 4.406-4.3A10.27 10.27 0 0 1 7.195.836Z" style="fill:url(#h);fill-rule:evenodd;stroke:none" transform="matrix(1.33333 0 0 1.33333 0 0)"/><path d="m12 13.73-2.307 1.734c0 2.015-.287 2.015-1.73 2.885l4.037.287 4.036-.292c-1.443-.865-1.73-.865-1.73-2.88z" style="fill:#b3b3b3;fill-opacity:1;fill-rule:nonzero;stroke:none;stroke-width:1.33333"/><path d="M7.964 18.344h8.073v.579H7.964Z" style="fill:#ccc;fill-opacity:1;fill-rule:nonzero;stroke:none;stroke-width:1.33333"/><path d="M5.672 5.432h12.656c.645 0 1.172.527 1.172 1.177v7.688c0 .651-.527 1.172-1.172 1.172H5.672A1.171 1.171 0 0 1 4.5 14.297V6.61c0-.65.526-1.177 1.172-1.177z" style="fill:#303030;fill-opacity:1;fill-rule:nonzero;stroke:none;stroke-width:1.33333"/><path d="M4.312 4.281h9.376a.74.74 0 0 1 .746.739v5.648a.742.742 0 0 1-.746.738H4.312a.742.742 0 0 1-.746-.738V5.02a.74.74 0 0 1 .746-.739z" style="fill:url(#i);stroke:none" transform="matrix(1.33333 0 0 1.33333 0 0)"/><path d="m10.15 14.297 3.626-3.922 3.016 3.922z" style="fill:#1a1a1a;fill-opacity:1;fill-rule:nonzero;stroke:none;stroke-width:1.33333"/><g clip-path="url(#j)" opacity=".9" transform="matrix(1.33333 0 0 1.33333 0 0)"><path d="M7.41 8.934 3.836 11.23a.765.765 0 0 0 .48.172h6.993z" style="fill:#e6e6e6;fill-opacity:1;fill-rule:nonzero;stroke:none"/></g><path d="m8.942 15.203.938-3.291 5.202 3.29z" style="fill:#fafbfb;fill-opacity:1;fill-rule:nonzero;stroke:none;stroke-width:1.33333"/><path d="m13.776 10.073-1.208 1.282v3.848h5.677c.276 0 .52-.104.703-.282z" style="fill:#b0b2b5;fill-opacity:1;fill-rule:nonzero;stroke:none;stroke-width:1.33333"/><path d="m13.776 10.073 1.51 5.13h2.959c.276 0 .52-.104.703-.282z" style="fill:#fff;fill-opacity:1;fill-rule:nonzero;stroke:none;stroke-width:1.33333"/><g clip-path="url(#k)" transform="matrix(1.33333 0 0 1.33333 0 0)"><g mask="url(#l)" transform="matrix(.0214 0 0 .0214 6.482 14.12)"><path d="m6.707 11.402.703-2.468 3.902 2.468Z" style="fill:url(#m);stroke:none"/></g></g><g clip-path="url(#n)" opacity=".35" transform="matrix(1.33333 0 0 1.33333 0 0)"><g clip-path="url(#o)"><g mask="url(#p)" transform="matrix(.00566 0 0 .00566 6.482 14.12)"><path d="M9.199 10.066v1.336h.227v-1.191z" style="fill:url(#q);stroke:none"/></g></g></g><rect width="7.231" height="3.045" x="4.757" y="9.822" rx="0" ry="0" style="opacity:.9;fill:url(#r);fill-opacity:1;stroke:none;stroke-width:.438948;stroke-linecap:round;stroke-linejoin:round;stroke-dasharray:none;stroke-opacity:1;paint-order:stroke markers fill"/><path d="m12.229 17.593 3.552-.02.407-4.026c.082-.818-.928-1.156-1.21-.402.006-.905-.926-1.02-1.208-.405.036-.745-.91-1.032-1.208-.401v-1.61c0-1.208-1.202-1.208-1.202 0v3.62c-2.016-2.01-2.506-.562-2.506-.562 1.364.921 2.203 3.812 3.375 3.806z" style="fill:#f2e3de;fill-opacity:1;fill-rule:nonzero;stroke:none;stroke-width:1.33333"/><path d="m12.229 18.219 3.552-.026.407-4.021c.082-.817-.928-1.156-1.21-.401.006-.907-.926-1.022-1.208-.407.036-.744-.91-1.036-1.208-.4v-1.61c0-1.209-1.202-1.209-1.202 0v3.62c-2.016-2.01-2.506-.562-2.506-.562 1.364.921 2.203 3.812 3.375 3.807z" style="fill:#ac693a;fill-opacity:1;fill-rule:nonzero;stroke:none;stroke-width:1.33333"/><path d="m12.229 17.885 3.552-.025.407-4.021c.082-.818-.928-1.156-1.21-.402.006-.906-.926-1.021-1.208-.406.036-.744-.91-1.036-1.208-.4v-1.61c0-1.209-1.202-1.209-1.202 0v3.619c-2.016-2.01-2.506-.561-2.506-.561 1.364.921 2.203 3.812 3.375 3.806z" style="fill:#da9c76;fill-opacity:1;fill-rule:nonzero;stroke:none;stroke-width:1.33333"/></svg>