<svg width="256" height="256" viewBox="0 0 256 256" fill="none" xmlns="http://www.w3.org/2000/svg">
<path fill-rule="evenodd" clip-rule="evenodd" d="M100.027 1.32176C101.421 1.33661 102.754 1.15896 104.025 0.788843C120.733 -0.305617 137.439 -0.261225 154.144 0.922073C169.291 2.10225 183.953 5.38862 198.131 10.7811C221.702 20.4851 237.831 37.3166 246.517 61.2754C251.484 75.7002 254.417 90.5333 255.314 105.774C256.556 124.913 256.112 144.01 253.981 163.063C252.387 176.456 248.921 189.335 243.584 201.7C233.686 223.14 217.647 237.928 195.465 246.066C177.491 252.139 159.007 255.337 140.015 255.658C118.652 256.769 97.5026 255.171 76.5669 250.862C38.0322 242.278 14.2614 218.785 5.25472 180.383C1.43259 163.097 -0.300228 145.599 0.0562535 127.891C-0.370314 109.061 1.6291 90.4971 6.05448 72.2003C15.4963 36.2947 38.2895 14.0452 74.4342 5.4519C82.8566 3.39283 91.3874 2.01611 100.027 1.32176Z" fill="#6C7AD8"/>
<path d="M178.463 100.963V116.818C175.141 116.365 171.366 116.138 167.138 116.063V100.963C167.138 77.18 160.418 61.325 127.5 61.325C94.582 61.325 87.8625 77.18 87.8625 100.963V116.063C83.6345 116.138 79.8595 116.365 76.5375 116.818V100.963C76.5375 79.0675 81.8225 50 127.5 50C173.178 50 178.463 79.0675 178.463 100.963Z" fill="#FAFAFA"/>
<path d="M178.463 116.818C175.141 116.365 171.366 116.138 167.138 116.063H87.8625C83.6345 116.138 79.8595 116.365 76.5375 116.818C57.285 119.158 52 128.596 52 153.813V168.913C52 199.113 59.55 206.663 89.75 206.663H165.25C195.45 206.663 203 199.113 203 168.913V153.813C203 128.596 197.715 119.158 178.463 116.818ZM102.661 166.723C101.226 168.082 99.263 168.913 97.3 168.913C96.3185 168.913 95.337 168.686 94.431 168.309C93.4495 167.931 92.6945 167.403 91.9395 166.723C90.5805 165.289 89.75 163.326 89.75 161.363C89.75 160.381 89.9765 159.4 90.354 158.494C90.7315 157.588 91.26 156.757 91.9395 156.002C92.6945 155.323 93.4495 154.794 94.431 154.417C97.2245 153.209 100.547 153.888 102.661 156.002C103.34 156.757 103.869 157.588 104.246 158.494C104.624 159.4 104.85 160.381 104.85 161.363C104.85 163.326 104.02 165.289 102.661 166.723ZM134.446 164.232C134.069 165.138 133.54 165.968 132.861 166.723C131.426 168.082 129.463 168.913 127.5 168.913C125.462 168.913 123.574 168.082 122.14 166.723C121.46 165.968 120.932 165.138 120.554 164.232C120.176 163.326 119.95 162.344 119.95 161.363C119.95 159.324 120.781 157.437 122.14 156.002C124.933 153.209 129.992 153.209 132.861 156.002C134.22 157.437 135.05 159.324 135.05 161.363C135.05 162.344 134.824 163.326 134.446 164.232ZM163.06 166.723C161.626 168.082 159.663 168.913 157.7 168.913C155.737 168.913 153.774 168.082 152.34 166.723C150.98 165.289 150.15 163.401 150.15 161.363C150.15 159.324 150.98 157.437 152.34 156.002C155.209 153.209 160.267 153.209 163.06 156.002C163.362 156.38 163.665 156.757 163.966 157.21C164.269 157.588 164.495 158.041 164.646 158.494C164.873 158.947 165.023 159.4 165.099 159.853C165.174 160.381 165.25 160.91 165.25 161.363C165.25 163.326 164.419 165.289 163.06 166.723Z" fill="#FAFAFA"/>
</svg>
