<svg xmlns="http://www.w3.org/2000/svg" width="24" height="24"><defs><radialGradient id="a" cx="0" cy="0" r="1" fx="0" fy="0" gradientTransform="matrix(0 16.5 -16.5 0 9 .75)" gradientUnits="userSpaceOnUse" spreadMethod="pad"><stop offset="0" style="stop-opacity:1;stop-color:#fafafa"/><stop offset="1" style="stop-opacity:1;stop-color:silver"/></radialGradient></defs><path d="M7.195.836c.09 0 .176-.012.258-.035a23.86 23.86 0 0 1 3.231.008 10.26 10.26 0 0 1 2.836.636c1.519.625 2.558 1.711 3.121 3.254.316.93.507 1.887.566 2.867a21.227 21.227 0 0 1-.086 3.696 8.976 8.976 0 0 1-.672 2.488c-.637 1.383-1.672 2.336-3.101 2.859a11.693 11.693 0 0 1-3.575.618 15.998 15.998 0 0 1-4.089-.309c-2.481-.551-4.016-2.066-4.594-4.543a14.244 14.244 0 0 1-.336-3.383c-.027-1.211.101-2.41.387-3.59.609-2.312 2.078-3.746 4.406-4.3A10.27 10.27 0 0 1 7.195.836Z" style="fill:url(#a);fill-rule:evenodd;stroke:none" transform="matrix(1.33333 0 0 1.33333 0 0)"/><g stroke-width=".58"><path fill="#ef4a5b" d="M4.151 8.86h1.385l1.616 4.486L8.768 8.86h1.385l-2.309 6.28H6.46z"/><path fill="#3e4143" d="m9.23 15.14 2.308-6.28h1.386l-2.31 6.28Zm4.617 0 2.308-6.28h1.385l-2.308 6.28z"/><path fill="#949b9d" d="m7.845 15.14 2.308-6.28h1.385L9.23 15.14Zm4.617 0 2.308-6.28h1.385l-2.308 6.28z"/><path fill="#babfc2" d="M13.847 15.14H12.46l-2.308-6.28h1.385zm4.616 0h-1.385L14.77 8.86h1.386z"/><path fill="#535353" d="m11.538 8.86 2.309 6.28h1.385l-2.309-6.28Zm4.617 0 2.308 6.28h1.386L17.54 8.86Z"/></g></svg>