<svg xmlns="http://www.w3.org/2000/svg" xmlns:xlink="http://www.w3.org/1999/xlink" xml:space="preserve" width="24" height="24"><defs><radialGradient id="b" cx="0" cy="0" r="1" fx="0" fy="0" gradientTransform="matrix(0 22 -22 0 12 1)" gradientUnits="userSpaceOnUse" spreadMethod="pad"><stop offset="0" style="stop-color:#d9d9d9;stop-opacity:1"/><stop offset="1" style="stop-color:#cacbcf;stop-opacity:1"/></radialGradient><linearGradient id="a"><stop offset="0"/><stop offset="1" stop-opacity="0"/></linearGradient></defs><linearGradient id="c"><stop offset="0" stop-color="#292c2f"/><stop offset="1" stop-opacity="0"/></linearGradient><linearGradient id="d" x1="388.42" x2="388.42" y1="557.8" y2="505.8" gradientTransform="matrix(.58696 0 0 .53846 -273.55 -235.91)" gradientUnits="userSpaceOnUse"><stop offset="0" stop-color="#7f8c8d"/><stop offset="1" stop-color="#afb0b3"/></linearGradient><use xlink:href="#a" width="100%" height="100%" fill="#fff" fill-rule="evenodd" opacity=".5" transform="matrix(1.6 0 0 1.6 40 19)"/><path d="M9.593 1.115c.12 0 .235-.016.344-.047a31.814 31.814 0 0 1 4.308.01 13.68 13.68 0 0 1 3.781.849c2.026.833 3.41 2.281 4.162 4.338.42 1.24.676 2.516.754 3.823a28.303 28.303 0 0 1-.114 4.928 11.968 11.968 0 0 1-.896 3.317c-.85 1.844-2.23 3.115-4.135 3.812-1.543.522-3.13.798-4.767.824a21.33 21.33 0 0 1-5.452-.412c-3.308-.734-5.354-2.754-6.125-6.057a18.991 18.991 0 0 1-.448-4.51c-.036-1.62.135-3.214.516-4.787.812-3.083 2.77-4.995 5.875-5.734a13.692 13.692 0 0 1 2.197-.354Z" style="fill:url(#b);fill-rule:evenodd;stroke:none;stroke-width:1.33333"/><path d="M1.201 15.11c.068.465.15.929.252 1.39.77 3.303 2.817 5.322 6.125 6.057 1.248.255 2.503.4 3.766.433v-3.037c-3.701-.199-5.986-1.902-7.117-4.844Z" style="fill:#949496;fill-opacity:1;stroke-width:.465671"/><g fill-rule="evenodd" transform="matrix(.43572 0 0 .43572 -1.925 .224)"><path fill="#fff" d="M48 27.122C48 35.837 40.837 43 32 43s-16-7.163-16-15.878C16 18.164 23.163 11 32 11s16 7.164 16 16.122"/><use xlink:href="#c" width="100%" height="100%" fill="#1a1a1a" transform="translate(27 22)"/><use xlink:href="#d" width="100%" height="100%" fill="#fff" opacity=".1" transform="translate(27.003 22.007)"/></g><path fill="gray" d="M-7.982 4.581a7.407 7.407 0 1 0 0 14.815 7.407 7.407 0 0 0 0-14.815zm4.54 11.947a6.411 6.411 0 0 1-2.041 1.376 6.382 6.382 0 0 1-2.499.504c-.867 0-1.708-.17-2.498-.504a6.411 6.411 0 0 1-2.04-1.376 6.392 6.392 0 0 1-1.882-4.54 6.395 6.395 0 0 1 1.88-4.538 6.387 6.387 0 0 1 2.042-1.377 6.376 6.376 0 0 1 2.498-.504c.867 0 1.708.17 2.499.505a6.386 6.386 0 0 1 2.04 1.376 6.395 6.395 0 0 1 1.881 4.539 6.393 6.393 0 0 1-1.88 4.539z" style="stroke-width:.435724" transform="translate(20)"/><path fill="gray" d="M-7.978 5.013c-.278 0-.547.022-.817.055a7.128 7.128 0 0 0-.79.135c-.082.02-.16.059-.244.082-.074.02-.146.033-.218.055-.092.029-.187.052-.273.082-.093.033-.18.073-.273.11-.18.071-.345.158-.517.243-.062.032-.13.05-.191.083-.2.104-.384.23-.571.354-.072.048-.148.085-.218.135-.029.02-.053.033-.082.055-.082.062-.167.123-.245.191-.093.077-.183.163-.273.244-.028.027-.054.056-.082.082l-.027.027c-.014.014-.013.041-.027.055-.183.178-.383.348-.544.545-.005.009.004.022 0 .026a6.759 6.759 0 0 0-.436.6c-.018.028-.037.053-.055.082-.013.021-.04.033-.055.055-.052.086-.088.182-.136.272-.015.029-.039.053-.055.082-.065.127-.13.253-.191.382-.003.009.004.02 0 .027a6.994 6.994 0 0 0-.272.68c-.017.047-.04.09-.055.136-.003.01.002.02 0 .027-.018.054-.039.11-.055.164a6.96 6.96 0 0 0-.164.68c-.03.167-.064.345-.082.517a7.062 7.062 0 0 0-.027.709c0 .35.031.697.082 1.034.005.036-.006.074 0 .109.038.232.103.457.164.68.023.084.056.163.082.245.035.113.069.217.109.326a6.884 6.884 0 0 0 .218.545c.043.092.088.183.136.273a6.971 6.971 0 0 0 .435.735c.014.021.04.034.055.055.173.244.344.488.545.708.035.038.073.071.109.109l.109.109c.186.186.392.353.6.517.266.213.547.4.844.571.01.009.016.021.026.027.047.026.09.057.137.082.274.136.602.283.816.382.096.036.201.05.3.082.046.015.09.04.136.055.118.035.233.078.354.108l.109.027c.254.061.524.106.79.136.27.032.538.055.817.055.296 0 .583-.018.871-.055.318-.041.593-.108.871-.163a6.892 6.892 0 0 0 3.676-2.396c.024-.03.058-.05.082-.082.008-.01.019-.017.027-.026.012-.017.015-.04.027-.056a6.94 6.94 0 0 0 1.171-2.45c.049-.189.103-.376.136-.571.004-.026-.004-.055 0-.082.005-.035.022-.069.027-.109.005-.037.023-.071.027-.109h-.026c.037-.287.08-.574.08-.871 0-.48-.043-.962-.135-1.416-.008-.037-.02-.071-.026-.109-.041-.18-.11-.367-.165-.543-.003-.009.003-.02 0-.027a2.997 2.997 0 0 0-.026-.082c-.035-.105-.072-.225-.11-.327-.01-.028-.016-.056-.026-.082-.038-.096-.095-.18-.137-.272-.002 0 .002-.023 0-.027-.022-.047-.06-.09-.082-.136a6.808 6.808 0 0 0-.272-.518c-.051-.085-.082-.188-.136-.272-.021-.031-.06-.05-.082-.082-.059-.087-.128-.16-.191-.245-.07-.087-.122-.188-.191-.272-.004-.01.004-.022 0-.027-.15-.183-.322-.352-.49-.518-.082-.08-.161-.17-.245-.244-.025-.023-.057-.034-.082-.056a7.085 7.085 0 0 0-.572-.435c-.048-.033-.087-.076-.136-.109-.061-.04-.129-.07-.19-.108-.118-.074-.232-.152-.354-.218a7.052 7.052 0 0 0-.327-.164 6.884 6.884 0 0 0-.571-.245 6.665 6.665 0 0 0-.709-.218 6.76 6.76 0 0 0-1.715-.218m0 .872a6.12 6.12 0 0 1 1.225.136h.026c.145.031.295.07.435.11.085.023.164.054.246.081.15.05.291.102.436.164.169.07.33.133.49.218l-.081.026a.278.278 0 0 0-.11.11c-.017.04.005.1 0 .163.034.015.053.078.11.109.021.012.034-.009.055 0 .033.018.06.076.054.109-.01.048-.076.019-.109.055.006.068-.037.091-.054.136.01.028.05.02.054.055-.006.037-.07.042-.054.081.062.05.13-.019.19-.027.13-.017.247.035.327-.027-.01-.061.087-.08.082-.136-.005-.041-.078-.053-.109-.081-.017-.016-.035-.052-.055-.082-.022-.035-.055-.076-.082-.11-.034-.045-.109-.101-.109-.135 0-.04.046-.055.055-.11-.01-.049-.102 0-.109-.054a.141.141 0 0 1 .027-.055c.13.072.26.156.382.245l.082.055c.094.07.18.148.273.218-.059.01-.088.078-.136.136a.404.404 0 0 1-.136.109c-.024.01-.06-.014-.082 0-.032.021-.044.083-.082.108-.027.018-.108.082-.136.082-.033 0-.085-.034-.109-.027-.035.012-.015.067-.055.082-.076.026-.218-.06-.245.055.034.066.134.044.191.082a.414.414 0 0 1 .11.164.561.561 0 0 1 0 .19c-.036.093-.14.085-.246.082h-.082c-.18-.012-.354-.074-.435.055.006.099.021.16 0 .244-.016.063-.085.11-.082.164.002.028.048.071.055.109.004.02-.01.064 0 .082.03.057.11-.009.164 0 .05.009.11.105.108.164a.302.302 0 0 1-.054.136c-.051.078-.146.067-.218.109-.061.034-.074.103-.11.163-.038.065-.07.096-.054.191a.423.423 0 0 1-.218.218c-.032.015-.08.034-.109.055a.549.549 0 0 0-.081.082c-.041.045-.088.074-.11.109-.017.026-.008.073-.026.109-.026.049-.077.087-.11.136-.014.022-.037.051-.054.082-.037.067-.088.13-.082.19.006.057.077.059.082.109.003.027-.029.052-.027.082 0 .044.023.074.026.108.009.088-.038.105-.054.164-.009.028.007.06 0 .082-.014.044-.081.086-.082.136 0 .037.051.085.055.136.002.035-.033.05-.027.082.012.064.141.141.19.19.066.066.136.122.165.192.023.058.034.146.081.19.034.033.093.048.136.082.041.032.093.048.136.082.07.056.16.172.273.164.059-.008.123-.043.19-.055.07-.012.149-.035.218-.027.053.009.108.058.164.055.059 0 .125-.053.191-.082.114-.05.295-.133.462-.109.127.018.13.19.218.244.103.01.192-.046.273-.026.06.015.13.115.136.164.006.05-.048.105-.055.136-.016.068-.015.147-.026.19-.01.033-.03.075-.028.109a.47.47 0 0 0 .082.164c.038.049.09.083.135.136a1.569 1.569 0 0 1 .192.326c.014.033-.015.068 0 .11-.026.195-.09.328-.218.544-.06.07-.138.13-.136.218-.005.21.118.342.108.544-.02.272.021.29 0 .435.092.047.027.203 0 .3-.039.115-.087.141-.108.218a.378.378 0 0 0 .217 0s.084.349.082.354a6.102 6.102 0 0 1-2.559 1.497c-.479.116-.621.116-.845.164a5.562 5.562 0 0 1-.898.082c-.211 0-.42-.009-.626-.027-.159-.016-.309-.054-.462-.082a6.248 6.248 0 0 1-.137-.027c-.142-.048-.305-.077-.436-.11a6.158 6.158 0 0 1-.435-.135c.012-.011.023-.01.027-.027.008-.035.001-.054 0-.109.013-.057.07-.05.082-.109-.025-.042-.073-.033-.11-.055a.116.116 0 0 1-.054-.109c.06-.025.174.058.218-.027.021-.04-.03-.122 0-.164.02-.026.148-.047.191-.054.061-.01.128-.01.163-.027a.194.194 0 0 0 .082-.164c-.003-.034-.029-.052-.055-.082-.021-.026-.01-.058-.026-.082-.028-.041-.07-.05-.083-.11.084-.016.206.09.327.056.058-.017.137-.164.164-.218.009-.017-.009-.035 0-.055.01-.023.052-.043.055-.055.009-.031-.007-.06 0-.082.02-.059.074-.065.109-.109l.082-.109c.027-.034.036-.077.055-.109.017-.105-.053-.178-.026-.271.027-.105.17-.144.271-.192.035-.016.08-.044.11-.054.07-.025.153-.032.217-.055.11-.04.137-.146.191-.245a.532.532 0 0 0 .055-.136c.004-.03-.006-.046 0-.082.005-.035.017-.07.027-.109a.959.959 0 0 0 .027-.19c0-.047-.025-.069-.027-.11-.008-.15.053-.19.109-.272.028-.041.035-.079.055-.11.094-.139.257-.195.244-.407-.004-.07-.03-.223-.081-.245-.03-.013-.093-.01-.136-.027-.138-.052-.239-.235-.382-.245-.03 0-.048.026-.082.026-.056 0-.128-.045-.19-.054-.04-.009-.113.012-.137 0-.036-.017-.025-.089-.054-.109-.024-.015-.074-.013-.11-.027-.057-.021-.097-.048-.163-.055h-.082c-.037-.008-.075-.034-.11-.054a.181.181 0 0 1-.081-.082c.038-.126-.084-.146-.109-.218-.012-.034.011-.079 0-.11-.015-.043-.06-.072-.109-.108-.084-.065-.151-.121-.273-.136-.052-.009-.126 0-.19 0a.32.32 0 0 1-.191-.109c-.05-.057-.067-.109-.11-.136-.04-.026-.107-.026-.135-.055-.012-.012-.015-.026-.026-.055-.021-.042-.054-.085-.028-.136-.046-.023-.03.063-.082.055-.045-.064-.087-.1-.191-.082-.047.009-.081.053-.136.055-.045 0-.077-.046-.136-.055-.045-.008-.104.032-.136.027-.05-.008-.063-.051-.109-.082-.033-.021-.09-.082-.109-.082-.058 0-.11.125-.19.082-.04-.05.074-.06.027-.109-.035-.034-.053.01-.082.027a.58.58 0 0 1-.11.055c-.08.03-.127.022-.19.055-.058.03-.076.077-.11.136-.025.049-.068.134-.108.136-.049 0-.092-.063-.135-.082-.133-.057-.216.026-.327.027-.103 0-.25-.148-.245-.244.004-.058.047-.144.055-.218.005-.057.054-.11.055-.163 0-.071-.118-.129-.164-.136-.109-.02-.257.052-.382 0-.023-.04.041-.071.055-.11.008-.021-.008-.029 0-.054.014-.037.065-.07.082-.11.013-.029.014-.07.026-.108.016-.044.053-.08.056-.109.005-.04-.023-.083-.055-.109-.096.009-.163 0-.218.027-.125.058-.092.232-.217.273-.044.014-.116.017-.164.026-.041.009-.093.029-.136.028a.308.308 0 0 1-.164-.082.152.152 0 0 1-.027-.055c.002-.009-.002-.018 0-.027.04-.194.081-.387.136-.572.003-.008-.003-.019 0-.026.037-.122.09-.235.136-.354.011-.01.016-.02.026-.027.068-.047.137-.104.218-.109.05 0 .144.018.192.027.043.008.071.052.109.055.107.01.13-.09.217-.136.091.014.136-.008.218 0 .056.01.12.079.164.082.037 0 .046-.06.082-.055.035.01.104.095.109.136.006.053-.042.107-.027.163.055.056.165.05.244.082.052-.042.009-.103 0-.163-.001-.027.004-.057 0-.082-.004-.041-.026-.073-.026-.108-.001-.166.134-.262.244-.327.049-.03.094-.061.136-.082.058-.03.087-.055.136-.082.088-.05.176-.08.245-.136.032-.075-.004-.17 0-.245.032-.02.047 0 .081 0 .054-.011.079-.08.11-.109.017-.017.06-.037.081-.055.053-.042.063-.09.11-.109.017-.008.055-.015.081-.027.035-.01.08-.035.136-.055.037-.012.122-.013.136-.027.017-.017-.005-.082 0-.109.028-.13.237-.146.354-.19.082-.031.155-.1.245-.082-.018.063-.096.033-.082.109.02.105.153-.011.192-.026.07-.03.205-.049.298-.083.082-.03.214-.07.136-.164-.064 0-.08.058-.136.082-.038.009-.048-.023-.081-.026-.032 0-.05.032-.082.026-.033-.009-.077-.071-.082-.109-.013-.096.096-.118.136-.19-.027-.088-.145-.022-.218-.056a.129.129 0 0 1 .109-.108.442.442 0 0 1 .191.027c.018.015 0 .058.027.082.03.027.07.01.108 0 .014-.066-.092-.037-.081-.082.078-.052.23-.013.326-.027.055-.008.115-.054.164-.081.047-.027.087-.071.136-.027.014.047-.028.057-.055.081a1.902 1.902 0 0 0-.244.272c.042.042.118.02.19.027.028 0 .052.022.082.027.035.01.082-.01.11 0 .048.013.06.082.108.082.08 0 .072-.109.027-.164.014-.054.046-.07.027-.109-.035-.071-.183.013-.19-.081-.005-.059.06-.066.081-.11-.009-.11.092-.116.082-.217-.005-.041-.052-.042-.082-.081-.015-.02-.009-.067-.026-.082-.061-.052-.183-.039-.192-.136-.003-.058.009-.1 0-.164-.008-.058-.057-.234-.109-.245-.065-.014-.112.1-.19.136a.339.339 0 0 1-.164.026c-.028-.008-.078-.027-.082-.08-.006-.062.043-.072.055-.137-.01-.038-.044-.026-.082-.055-.043-.032-.079-.1-.136-.109-.03 0-.081.026-.11.027-.052 0-.092-.013-.135-.027.018-.008.036-.02.055-.027.106-.036.218-.051.327-.082.019-.008.035-.021.054-.027.027.03.05.09.082.11.022.012.055-.01.082 0 .086.026.152.073.245.054.032-.056-.064-.064-.026-.109.062.01.114.035.163.055.067-.049.112-.057.109-.136 0-.04-.054-.055-.082-.082.055-.01.108-.019.164-.027.004.015.018.027.027.027.033.01.144-.044.164-.054.003 0-.006-.024 0-.028a6.515 6.515 0 0 1 .68-.027m-2.178.41c-.02.037-.041.068-.082.081.01.057-.073.092-.082.136a.566.566 0 0 0 0 .109c.017.278-.218.415-.49.408-.053.05-.026.148-.056.218-.024.058-.104.114-.164.109-.043 0-.108-.07-.108-.11 0-.049.07-.078.027-.135.006-.039.092-.075.081-.136-.01-.065-.083-.017-.163-.026a.804.804 0 0 1-.164-.056c.088-.059.178-.11.273-.164a5.62 5.62 0 0 1 .244-.136 7.948 7.948 0 0 1 .681-.299m4.684.654c-.023 0-.035.015-.055.026-.044.027-.047.07-.082.082-.047.018-.102.009-.109.055-.005.035.03.048.027.082-.018.043-.046.057-.055.109.06.095.2-.01.273-.027.033-.01.064 0 .082-.027.02-.031.011-.092.026-.136.018-.05.061-.038.056-.082-.005-.044-.092-.09-.164-.082m-6.371.68c.052.014.17.168.055.217a.811.811 0 0 1-.192.028c-.04-.009-.067-.075-.108-.082-.08-.014-.19.087-.245 0 .014-.052.075-.038.136-.055.109-.03.26-.133.354-.109m.217.273c.027 0 .048.051.082.055.03 0 .062-.032.081-.027.05.013.074.1.027.136-.038 0-.052-.033-.081-.027-.079.014-.105.168-.163.163-.056-.008-.084-.122-.027-.163.001-.035-.03-.047-.027-.082.017-.022.062-.058.108-.055m-.272.026c.016.002.02 0 .026 0-.007.063-.033.08-.081.11a.33.33 0 0 0-.164.218c-.009.03-.097.115-.136.108-.092-.02.033-.192.055-.218.023-.028.054-.048.082-.081.026-.033.029-.092.055-.11a.384.384 0 0 1 .164-.026m8.276.026c.042.012.05.06.082.083.024.015.056.01.082.026.03.02.047.052.082.083a.906.906 0 0 0 .192.109.31.31 0 0 0 .054.026c.048.062.09.126.136.191.005.035.01.086.027.108.045.062.114.116.163.192 0 .072.032.115.082.135.064.108.131.216.192.327.024.05.03.113.054.164-.017 0-.037.009-.055 0-.057-.101-.356-.121-.381.026-.012.066.043.153-.055.165-.061.009-.134-.064-.218-.082-.035-.009-.082.012-.11 0-.063-.022-.053-.098-.108-.136a.477.477 0 0 0-.164-.055h-.082c-.04-.009-.103-.009-.136-.027-.031-.02-.1-.054-.109-.082-.012-.044.079-.1.082-.136.002-.026-.02-.04-.026-.082-.005-.025.004-.064 0-.082-.009-.03-.063-.054-.11-.055-.042 0-.073.027-.109.027-.051.001-.154-.032-.218-.026-.037 0-.072.024-.108.026-.1.01-.166-.008-.245 0a.662.662 0 0 0-.217.055c-.027.012-.047.038-.082.055a.54.54 0 0 1-.055.027c-.033.015-.079.046-.11.055-.044.011-.107 0-.19 0-.06 0-.163-.012-.164-.082 0-.107.198-.063.3-.082.038-.008.064-.055.109-.082.022-.013.034-.013.055-.026.035-.025.104-.082.109-.11.005-.026-.03-.062-.027-.082.004-.024.05-.05.082-.081.048-.048.075-.105.136-.136.04-.022.117-.021.136-.055.004-.038-.001-.048 0-.082.025-.024.033-.05.054-.055.063-.014.118.03.191.027a.253.253 0 0 0 .108-.026c.03-.02.054-.04.082-.056.03-.016.045-.051.082-.055.092-.009.15.108.192.164a.725.725 0 0 0 .19.136c.032.018.073.04.109.055.076.035.215.144.218.218.001.036-.033.047-.026.082.056.01.106-.052.108-.11 0-.034-.034-.043-.027-.081.027-.058.129-.009.163-.026-.006-.067-.108-.076-.163-.11-.03-.018-.051-.042-.082-.055-.046-.018-.101-.028-.136-.055-.033-.025-.05-.07-.082-.109-.047-.056-.138-.064-.11-.19.015-.02.033-.06.056-.056m-7.678.192h.082c.03 0 .07-.017.082 0-.02.076-.185.054-.245.026.003-.029.043-.023.082-.026m-.273.135c.02 0 .034-.009.055 0a.619.619 0 0 1-.218.109c-.044.014-.101.022-.109-.026-.01-.061.041-.05.082-.056.05-.009.13-.025.19-.026m7.57 0c-.037.011-.057.098 0 .108.027-.016.035-.06.027-.109-.014-.016-.014 0-.026 0m-.027.164c-.019.009-.035.009-.055.027 0 .065.013.107 0 .164.037.071.117.022.136-.027.022-.121-.026-.179-.082-.164m.38.327c.044.07.123.12.218.136.035-.026.039-.092.055-.136h-.136c-.051 0-.106-.025-.136 0m-10.183 2.342c.143-.009.185.187.3.244.029.015.071.02.109.028.03.008.052.017.082.026.06.022.14.009.19.028.075.033.128.18.191.218.004.036-.01.08 0 .108.031.04.087.055.136.082.06.032.08.11.136.135.02.01.052-.008.082 0 .077.024.098.129.164.11.044-.013.048-.069.055-.11.029-.03.065-.08.109-.081.072 0 .083.065.109.135.015.04.043.095.055.136.017.073.015.284 0 .327-.019.053-.093.078-.136.136-.021.026-.039.061-.055.082-.028.035-.061.05-.082.082-.012.017-.016.058-.027.082-.035.074-.084.129-.055.218.012.036.054.066.055.109 0 .05-.1.08-.109.136-.006.04.042.11.055.164.009.04.085.081.109.108.04.047.071.105.109.163.074.114.118.244.19.354.038.058.111.105.137.164.013.03-.013.082 0 .109.041.094.231.199.326.245.044.022.096 0 .136.027a.8.8 0 0 1 .218.19c.028.05.041.169.055.245.018.103-.004.19 0 .3.004.06.026.104.026.164 0 .021.002.061 0 .082 0 .072.007.144 0 .218a.648.648 0 0 0 0 .108c.005.036.026.05.028.082.002.035-.03.083-.027.109.008.073.067.124.082.192.011.052.034.18.026.244-.003.034-.02.072-.026.109-.003.028.004.054 0 .081-.005.041-.03.071-.027.11.005.078.07.139.082.217.004.026 0 .057 0 .082 0 .024.02.033.026.055a6.081 6.081 0 0 1-.654-.436 6.156 6.156 0 0 1-.57-.49l-.027-.026a6.3 6.3 0 0 1-.518-.572c-.09-.115-.19-.233-.273-.354-.049-.072-.09-.143-.136-.218-.028-.044-.055-.09-.082-.136a5.732 5.732 0 0 1-.217-.408c-.044-.088-.071-.182-.11-.273a5.875 5.875 0 0 1-.244-.654c-.047-.16-.075-.322-.11-.49-.025-.127-.063-.251-.081-.381a5.72 5.72 0 0 1-.027-.218 6.194 6.194 0 0 1 .028-1.388v-.026c.055 0 .13-.082.19-.083m2.343.653c.056-.026.073.102.026.11-.043.008-.07-.09-.026-.11" style="stroke-width:.435724" transform="translate(20)"/><path fill="#fff" d="m8.641 20.971 2.371-5.372a.345.345 0 0 0 .023-.24.352.352 0 0 0-.434-.243.357.357 0 0 0-.2.14l-3.579 4.69a1.036 1.036 0 0 0-.201.924c.15.558.732.886 1.301.733a1.072 1.072 0 0 0 .72-.632z" style="stroke-width:.245732"/><rect width=".246" height="1.72" x="-14.785" y="20.074" fill-rule="evenodd" opacity=".15" rx=".123" style="stroke-width:.245732" transform="scale(-1 1)"/><rect width=".246" height="1.72" x="-14.293" y="20.074" fill-rule="evenodd" opacity=".15" rx=".123" style="stroke-width:.245732" transform="scale(-1 1)"/><rect width=".246" height="1.72" x="-13.802" y="20.074" fill-rule="evenodd" opacity=".15" rx=".123" style="stroke-width:.245732" transform="scale(-1 1)"/><rect width=".246" height="1.72" x="-13.31" y="20.074" fill-rule="evenodd" opacity=".15" rx=".123" style="stroke-width:.245732" transform="scale(-1 1)"/><rect width=".246" height="1.72" x="-12.819" y="20.074" fill-rule="evenodd" opacity=".15" rx=".123" style="stroke-width:.245732" transform="scale(-1 1)"/><path d="M16.505 20.934a.369.369 0 1 0-.737 0 .369.369 0 0 0 .737 0zm-8.355-.368a.491.491 0 1 1-.983 0 .491.491 0 0 1 .983 0z" opacity=".15" style="stroke-width:.245732"/><path d="M7.904 20.566a.246.246 0 1 0-.491 0 .246.246 0 0 0 .491 0z" opacity=".35" style="stroke-width:.245732"/></svg>