<?xml version="1.0" encoding="UTF-8" standalone="no"?>
<svg
   width="24"
   height="24"
   fill="none"
   version="1.1"
   id="svg4"
   sodipodi:docname="xscreensaver.svg"
   inkscape:version="1.3 (0e150ed6c4, 2023-07-21)"
   xmlns:inkscape="http://www.inkscape.org/namespaces/inkscape"
   xmlns:sodipodi="http://sodipodi.sourceforge.net/DTD/sodipodi-0.dtd"
   xmlns:xlink="http://www.w3.org/1999/xlink"
   xmlns="http://www.w3.org/2000/svg"
   xmlns:svg="http://www.w3.org/2000/svg">
  <sodipodi:namedview
     id="namedview4"
     pagecolor="#ffffff"
     bordercolor="#000000"
     borderopacity="0.25"
     inkscape:showpageshadow="2"
     inkscape:pageopacity="0.0"
     inkscape:pagecheckerboard="0"
     inkscape:deskcolor="#d1d1d1"
     inkscape:zoom="16.985294"
     inkscape:cx="3.2969697"
     inkscape:cy="5.1515152"
     inkscape:window-width="3440"
     inkscape:window-height="1358"
     inkscape:window-x="2560"
     inkscape:window-y="0"
     inkscape:window-maximized="1"
     inkscape:current-layer="svg4" />
  <path
     d="M 12,1 C 2,1 1,6 1,12 1,20 4,23 12,23 20,23 23,20 23,12 23,6 22,1 12,1 Z"
     style="font-variation-settings:normal;display:inline;vector-effect:none;fill:url(#b);fill-opacity:1;stroke-width:1.11627;stroke-linecap:butt;stroke-linejoin:miter;stroke-miterlimit:4;stroke-dasharray:none;stroke-dashoffset:0;stroke-opacity:1;-inkscape-stroke:none;stop-color:#000000"
     id="path2-5" />
  <path
     id="path1"
     style="fill:url(#a);stroke-width:0.999996"
     d="m 12,5.5000001 c -3.5892337,0 -6.4999999,2.910766 -6.4999999,6.4999999 0,3.589234 2.9107662,6.5 6.4999999,6.5 3.589234,0 6.5,-2.910766 6.5,-6.5 0,-3.5892339 -2.910766,-6.4999999 -6.5,-6.4999999 z m 0,0.5430872 c 3.29013,0 5.956913,2.6667818 5.956913,5.9569127 0,3.29013 -2.666783,5.956913 -5.956913,5.956913 C 8.7098682,17.956913 6.0430874,15.29013 6.0430874,12 6.0430874,8.7098693 8.7098682,6.0430874 12,6.0430873 Z m 0,1.6243911 c -1.200127,0 -2.1674782,0.9649155 -2.1674782,2.1650434 V 12 H 8.7512179 v 4.332521 H 15.248782 V 12 H 14.167478 V 9.8325218 C 14.167478,8.6323939 13.200126,7.6674784 12,7.6674784 Z m 0,0.540652 c 0.900095,0 1.624391,0.8470414 1.624391,1.8971526 V 12 H 10.375609 V 10.105283 C 10.375609,9.0551718 11.099905,8.2081304 12,8.2081304 Z M 9.2918699,12.540652 H 14.70813 V 15.79187 H 9.2918698 Z" />
  <defs
     id="defs4">
    <radialGradient
       id="a"
       cx="0"
       cy="0"
       r="1"
       gradientTransform="matrix(0,27.431607,-27.431607,0,11.999958,-1.7157656)"
       gradientUnits="userSpaceOnUse">
      <stop
         stop-color="#98A5FF"
         id="stop3" />
      <stop
         offset="1"
         stop-color="#1F296B"
         id="stop4" />
    </radialGradient>
    <linearGradient
       xlink:href="#a-6"
       id="b"
       x1="57.159"
       x2="58.181999"
       y1="115.199"
       y2="-26.193001"
       gradientTransform="matrix(0.24444,0,0,0.24444,-0.222,-0.222)"
       gradientUnits="userSpaceOnUse" />
    <linearGradient
       id="a-6">
      <stop
         offset="0"
         style="stop-color:#d9d9d9;stop-opacity:1"
         id="stop1" />
      <stop
         offset="1"
         style="stop-color:#fff;stop-opacity:1"
         id="stop2-7" />
    </linearGradient>
  </defs>
</svg>
