<svg xmlns="http://www.w3.org/2000/svg" width="24" height="24"><path d="M9.593 1.115c.12 0 .235-.016.344-.047a31.814 31.814 0 0 1 4.308.01 13.68 13.68 0 0 1 3.781.849c2.026.833 3.41 2.281 4.162 4.338.42 1.24.676 2.516.754 3.823a28.303 28.303 0 0 1-.114 4.928 11.968 11.968 0 0 1-.896 3.317c-.85 1.844-2.23 3.115-4.135 3.812-1.543.522-3.13.798-4.767.824a21.33 21.33 0 0 1-5.452-.412c-3.308-.734-5.354-2.754-6.125-6.057a18.991 18.991 0 0 1-.448-4.51 18.502 18.502 0 0 1 .516-4.787c.812-3.083 2.77-4.995 5.875-5.734a13.692 13.692 0 0 1 2.197-.354Z" style="fill:#f2f2f2;fill-opacity:1;fill-rule:evenodd;stroke:none;stroke-width:1.33333"/><g style="stroke-width:3.13637"><path fill="#a9afb3" d="M57 20.5V22l13.5 21v7.5l3 3V43L87 22v-1.5z" style="stroke-width:3.13637" transform="translate(-10.957 .442) scale(.31884)"/><path fill="#a9afb3" d="m57 22 13.5 21h3L87 22Z" opacity=".2" style="stroke-width:3.13637" transform="translate(-10.957 .442) scale(.31884)"/><path fill="#bec3c6" d="M88.5 22c.831 0 1.5-.669 1.5-1.5V19H54v1.5c0 .831.669 1.5 1.5 1.5z" style="stroke-width:3.13637" transform="translate(-10.957 .442) scale(.31884)"/><path fill="#a9afb3" d="M70.5 49v1.5l3 3V52Z" style="stroke-width:3.13637" transform="translate(-10.957 .442) scale(.31884)"/></g></svg>