<svg xmlns="http://www.w3.org/2000/svg" width="24" height="24"><defs><radialGradient id="a" cx="0" cy="0" r="1" fx="0" fy="0" gradientTransform="matrix(0 16.5 -16.5 0 9 .75)" gradientUnits="userSpaceOnUse" spreadMethod="pad"><stop offset="0" style="stop-opacity:1;stop-color:#fafafa"/><stop offset="1" style="stop-opacity:1;stop-color:silver"/></radialGradient></defs><path d="M7.195.836c.09 0 .176-.012.258-.035a23.86 23.86 0 0 1 3.231.008 10.26 10.26 0 0 1 2.836.636c1.519.625 2.558 1.711 3.121 3.254.316.93.507 1.887.566 2.867a21.227 21.227 0 0 1-.086 3.696 8.976 8.976 0 0 1-.672 2.488c-.637 1.383-1.672 2.336-3.101 2.859a11.693 11.693 0 0 1-3.575.618 15.998 15.998 0 0 1-4.089-.309c-2.481-.551-4.016-2.066-4.594-4.543a14.244 14.244 0 0 1-.336-3.383c-.027-1.211.101-2.41.387-3.59.609-2.312 2.078-3.746 4.406-4.3A10.27 10.27 0 0 1 7.195.836Z" style="fill:url(#a);fill-rule:evenodd;stroke:none" transform="matrix(1.33333 0 0 1.33333 0 0)"/><g transform="matrix(.28889 0 0 .28889 -3.022 2.9)"><path fill="#474f50" d="m51.376 15.22-10 8L41 24v11.52l-9.626 7.7 1.25 1.56L42 37.28l9.376 7.5 1.248-1.56L43 35.52V24.48l9-7.2 9 7.2V36l.376.78 10 8 1.25-1.56L63 35.52V24l-.376-.78-10-8z"/><rect width="12" height="12" x="46" y="9" fill="#e16e7b" rx="1.5"/><rect width="12" height="12" x="36" y="23" fill="#a779be" rx="1.5"/><rect width="12" height="12" x="56" y="23" fill="#a779be" rx="1.5"/><g fill="#58b072" transform="translate(20)"><rect width="12" height="12" x="42" y="42" rx="1.5"/><rect width="12" height="12" x="26" y="42" rx="1.5"/><rect width="12" height="12" x="10" y="42" rx="1.5"/></g></g></svg>