<svg xmlns="http://www.w3.org/2000/svg" xmlns:xlink="http://www.w3.org/1999/xlink" xml:space="preserve" width="24" height="24" viewBox="0 0 6.35 6.35"><defs><linearGradient id="a" x1="12" x2="12" y1="2.958" y2="21.042" gradientTransform="matrix(0 -.08333 -.08333 0 2 1)" gradientUnits="userSpaceOnUse" spreadMethod="pad"><stop offset="0" style="stop-opacity:1;stop-color:#fff"/><stop offset="1" style="stop-opacity:1;stop-color:#d8d8d8"/></linearGradient><linearGradient id="b" x1="12" x2="12" y1="2.958" y2="21.042" gradientTransform="matrix(0 .08333 -.08333 0 2 17)" gradientUnits="userSpaceOnUse" spreadMethod="pad"><stop offset="0" style="stop-opacity:1;stop-color:#accd96"/><stop offset="1" style="stop-opacity:1;stop-color:#5a6a4d"/></linearGradient><linearGradient xlink:href="#a" id="d" x1="12" x2="12" y1="2.958" y2="21.042" gradientTransform="matrix(0 -.08333 -.08333 0 2 1)" gradientUnits="userSpaceOnUse" spreadMethod="pad"/><radialGradient id="c" cx="0" cy="0" r="1" fx="0" fy="0" gradientTransform="matrix(0 8.25 -8.25 0 9 .75)" gradientUnits="userSpaceOnUse" spreadMethod="pad"><stop offset="0" style="stop-opacity:1;stop-color:#bee9a6"/><stop offset="1" style="stop-opacity:1;stop-color:#88ba65"/></radialGradient></defs><path d="M7.195.836c.09 0 .176-.012.258-.035a23.86 23.86 0 0 1 3.231.008 10.26 10.26 0 0 1 2.836.636c1.519.625 2.558 1.711 3.121 3.254.316.93.507 1.887.566 2.867a21.227 21.227 0 0 1-.086 3.696 8.976 8.976 0 0 1-.672 2.488c-.637 1.383-1.672 2.336-3.101 2.859a11.693 11.693 0 0 1-3.575.618 15.998 15.998 0 0 1-4.089-.309c-2.481-.551-4.016-2.066-4.594-4.543a14.244 14.244 0 0 1-.336-3.383c-.027-1.215.101-2.41.387-3.59.609-2.312 2.078-3.746 4.406-4.3A10.27 10.27 0 0 1 7.195.836Z" style="fill:url(#c);fill-rule:evenodd;stroke:none" transform="scale(.35277)"/><path d="m13.598 9.387.015.015.02.016 1.183.898a.17.17 0 0 1 .047.223l-1.609 2.777a.166.166 0 0 1-.215.075l-1.293-.547c-.121-.051-.359-.114-.574.051a.668.668 0 0 0-.254.449l-.168 1.379a.173.173 0 0 1-.172.148H7.422a.173.173 0 0 1-.172-.148l-.172-1.391a.575.575 0 0 0-.277-.453c-.004-.004-.012-.008-.02-.012a.659.659 0 0 0-.574-.015l-1.262.539a.176.176 0 0 1-.215-.075l-1.593-2.777a.175.175 0 0 1 .043-.223l1.129-.855a.496.496 0 0 0 .207-.391v-.14a.496.496 0 0 0-.207-.391l-1.125-.855a.17.17 0 0 1-.047-.223L4.73 4.707a.176.176 0 0 1 .215-.074l1.317.543a.603.603 0 0 0 .543-.031.612.612 0 0 0 .273-.454l.172-1.414a.173.173 0 0 1 .172-.148h3.156c.086 0 .16.062.168.148l.176 1.418c.012.106.062.348.301.461l.019.012a.693.693 0 0 0 .547-.004l1.266-.527a.17.17 0 0 1 .215.07l1.593 2.754a.17.17 0 0 1-.047.223l-1.125.855a.496.496 0 0 0-.207.391v.066c0 .004-.004.012-.004.02a.424.424 0 0 0 .118.371zm-4.641 2.004c.656 0 1.227-.235 1.691-.7.465-.464.7-1.035.7-1.691 0-.656-.235-1.227-.7-1.691a2.314 2.314 0 0 0-1.691-.7 2.32 2.32 0 0 0-1.68.7A2.297 2.297 0 0 0 6.566 9c0 .656.239 1.227.711 1.691a2.32 2.32 0 0 0 1.68.7z" style="fill:url(#d);fill-opacity:1;fill-rule:nonzero;stroke:url(#linearGradient22565);stroke-width:.6875;stroke-linecap:butt;stroke-linejoin:miter;stroke-miterlimit:4;stroke-dasharray:none;stroke-opacity:1" transform="scale(.35277)"/></svg>