<svg xmlns="http://www.w3.org/2000/svg" width="24" height="24" fill="none"><defs><radialGradient id="a" cx="0" cy="0" r="1" gradientTransform="matrix(0 22 -22 0 12 1)" gradientUnits="userSpaceOnUse"><stop offset="0" stop-color="#8FC8FF" style="stop-color:#f6f6f6;stop-opacity:1"/><stop offset="1" stop-color="#0056A8" style="stop-color:#cfcfcf;stop-opacity:1"/></radialGradient></defs><path d="M50 5C9.09 5 5 25.455 5 50c0 32.727 12.273 45 45 45 32.727 0 45-12.273 45-45 0-24.545-4.09-45-45-45Z" style="font-variation-settings:normal;display:inline;opacity:1;vector-effect:none;fill:#f0bb24;fill-opacity:1;stroke-width:4.56656;stroke-linecap:butt;stroke-linejoin:miter;stroke-miterlimit:4;stroke-dasharray:none;stroke-dashoffset:0;stroke-opacity:1;-inkscape-stroke:none;stop-color:#000;stop-opacity:1" transform="matrix(.24444 0 0 .24444 -.222 -.222)"/><g fill="#f9f9f9" stroke-width=".875"><path d="M9.192 4.175a1.956 1.956 0 1 0 0 3.912 1.956 1.956 0 0 0 0-3.912zm-1.547 4.47c-.314 0-.488.19-.61.48L5.08 13.15c-.433.974 1.055 1.595 1.445.602.225-.591.461-1.18.728-1.755v7.04c0 .434.349.784.781.784h.004c.434 0 .902-.351.894-.784l-.003-3.686h.541l.004 3.686c0 .434.478.784.91.784a.78.78 0 0 0 .782-.784l-.001-7.04h-.03l.874 1.755a.783.783 0 0 0 1.118.392l1.42.83c-.01.051-.03.098-.03.153v4.302c0 .216.327.392.543.392.216 0 .593-.178.558-.392v-1.844h.56v1.844c0 .216.342.392.558.392.216 0 .578-.176.578-.392v-3.912l1.005.835c.37.385.937-.185.555-.552l-1.674-1.453a.392.392 0 0 0-.278-.114h-1.907l-1.496-.767a.783.783 0 0 0-.067-.318l-1.957-4.02a.783.783 0 0 0-.72-.481z"/><path d="M15.896 10.88a1.4 1.4 0 0 0-1.397 1.398 1.399 1.399 0 0 0 2.794 0 1.4 1.4 0 0 0-1.397-1.397z"/></g></svg>