<svg xmlns="http://www.w3.org/2000/svg" width="24" height="24" fill="none"><defs><radialGradient id="a" cx="0" cy="0" r="1" gradientTransform="matrix(0 22 -22 0 12 1)" gradientUnits="userSpaceOnUse"><stop offset="0" stop-color="#8FC8FF" style="stop-color:#f6f6f6;stop-opacity:1"/><stop offset="1" stop-color="#0056A8" style="stop-color:#cfcfcf;stop-opacity:1"/></radialGradient></defs><path d="M50 5C9.09 5 5 25.455 5 50c0 32.727 12.273 45 45 45 32.727 0 45-12.273 45-45 0-24.545-4.09-45-45-45Z" style="font-variation-settings:normal;display:inline;opacity:1;vector-effect:none;fill:#f7c42a;fill-opacity:1;stroke-width:4.56656;stroke-linecap:butt;stroke-linejoin:miter;stroke-miterlimit:4;stroke-dasharray:none;stroke-dashoffset:0;stroke-opacity:1;-inkscape-stroke:none;stop-color:#000;stop-opacity:1" transform="matrix(.24444 0 0 .24444 -.222 -.222)"/><g fill="#fff" stroke-width=".927"><path d="M4.293 13.03c.425-.148.869-.29 1.085-.507a.89.89 0 0 0 .242-.47c.034-.173.034-.357.034-.54 0 0-1.655 0-1.655.55 0 0 0 .553.294.966z" opacity=".35"/><path d="M16.138 5.995c-.552 0-1.287 1.47-2.115 2.39-.827.92-1.563.92-2.115 1.196-.551.276-.92.827-1.472 1.195-.553.368-1.286.553-2.76.645-1.472.092-2.022.091-2.022.091 0 .184 0 .367-.034.54a.887.887 0 0 1-.08.243l-.002.005a.887.887 0 0 1-.002.003.887.887 0 0 1-.154.216l-.003.004c-.217.217-.661.359-1.085.507.172.682.231 1.22.809 1.793 1.103 1.103 2.191.923 3.31 1.103 1.119.18 2.207 0 3.31 0 1.103 0 1.104 0 2.207 1.104l.293.292a8.464 8.464 0 0 0 2.466-1.395 8.462 8.462 0 0 0 2.2-2.748c-.767-.424-1.648-1.042-1.648-1.667 0-1.103-.552-5.517-1.103-5.517zm-.276 1.562c.46.092.643 1.196.459 1.932-.183.736-.733 1.103-1.194 1.01-.462-.092-.828-.642-.644-1.378.184-.736.92-1.655 1.379-1.564zm-3.61 2.37c.162 0 .3.067.392.205.184.275.182.826-.185 1.103-.37.277-1.102.277-1.286 0l-.001.001c-.184-.276.184-.828.552-1.103.184-.138.368-.207.529-.207z"/><g stroke-width=".791"><path d="M11.172 11.236c-.184-.276.184-.828.552-1.103.367-.276.735-.276.92 0 .183.275.183.825-.185 1.102-.369.277-1.103.277-1.287 0zm4.69-3.679c.46.092.643 1.196.46 1.932-.184.736-.734 1.103-1.195 1.01-.461-.092-.828-.642-.644-1.378.184-.736.92-1.655 1.379-1.564z" opacity=".35"/><path d="M18.896 13.167a8.462 8.462 0 0 1-2.207 2.76 8.464 8.464 0 0 1-2.466 1.395l.682.682a8.457 8.457 0 0 0 2.888-1.526A8.462 8.462 0 0 0 20 13.72z" opacity=".5"/></g></g></svg>