<svg xmlns="http://www.w3.org/2000/svg" xml:space="preserve" width="24" height="24" viewBox="0 0 6.35 6.35"><defs><radialGradient id="a" cx="0" cy="0" r="1" gradientTransform="rotate(90 1.455 1.72) scale(5.82072)" gradientUnits="userSpaceOnUse"><stop stop-color="#FAFAFA"/><stop offset="1" stop-color="#B0B0B0"/></radialGradient></defs><path fill="url(#a)" fill-rule="evenodd" d="M2.63.283a.312.312 0 0 1-.091.012c-.197.015-.39.047-.582.094-.822.195-1.34.7-1.555 1.517-.1.416-.146.838-.136 1.266-.008.403.031.801.118 1.194.205.873.745 1.407 1.621 1.603.477.097.957.134 1.443.108.432-.007.852-.08 1.26-.218a1.87 1.87 0 0 0 1.095-1.008c.121-.281.2-.574.236-.879.049-.433.059-.867.03-1.302a3.775 3.775 0 0 0-.2-1.012A1.886 1.886 0 0 0 4.77.51a3.581 3.581 0 0 0-1-.224A8.37 8.37 0 0 0 2.63.283z" clip-rule="evenodd" style="fill:url(#a);stroke-width:.264578"/><g transform="matrix(.35896 0 0 .35896 2.083 .185)"><path d="M3.175 3.436a1.32 1.32 0 0 0-1.323 1.323v3.798A2.646 2.646 0 0 0 .53 10.845a2.646 2.646 0 0 0 2.646 2.645 2.646 2.646 0 0 0 2.645-2.645 2.646 2.646 0 0 0-1.322-2.29V4.759a1.32 1.32 0 0 0-1.323-1.323zm0 .794c.307 0 .53.222.53.53v4.254l.396.23c.573.33.925.939.926 1.601a1.84 1.84 0 0 1-1.852 1.852 1.84 1.84 0 0 1-1.852-1.851c0-.663.353-1.27.926-1.601l.396-.23V4.759c0-.307.223-.529.53-.529z" opacity=".5"/><path fill="#f55" d="M2.645 6.611v2.405l-.396.229c-.573.33-.925.938-.926 1.6a1.84 1.84 0 0 0 1.852 1.852 1.84 1.84 0 0 0 1.852-1.852 1.85 1.85 0 0 0-.926-1.602l-.397-.229V6.611Z"/><path d="M6.085 3.97h2.117v.529H6.085zm0 1.059h2.117v.529H6.085zm0 1.058h2.117v.529H6.085zm0 1.058h2.117v.529H6.085zm0 1.059h2.117v.529H6.085z" opacity=".5" paint-order="stroke fill markers"/><circle cx="-1.588" cy="3.7" r=".529" opacity=".5" paint-order="stroke fill markers"/><circle cx="-1.588" cy="3.7" r=".265" fill="#f55" paint-order="stroke fill markers"/></g></svg>