<svg xmlns="http://www.w3.org/2000/svg" width="24" height="24"><path d="M9.593 1.115c.12 0 .235-.016.344-.047a31.814 31.814 0 0 1 4.308.01 13.68 13.68 0 0 1 3.781.849c2.026.833 3.41 2.281 4.162 4.338.42 1.24.676 2.516.754 3.823a28.303 28.303 0 0 1-.114 4.928 11.968 11.968 0 0 1-.896 3.317c-.85 1.844-2.23 3.115-4.135 3.812-1.543.522-3.13.798-4.767.824a21.33 21.33 0 0 1-5.452-.412c-3.308-.734-5.354-2.754-6.125-6.057a18.991 18.991 0 0 1-.448-4.51 18.502 18.502 0 0 1 .516-4.787c.812-3.083 2.77-4.995 5.875-5.734a13.692 13.692 0 0 1 2.197-.354Z" style="fill:#4e7aa2;fill-opacity:1;fill-rule:evenodd;stroke:none;stroke-width:1.33333"/><path fill="#fff" d="M69.938 21c-2.42.001-4.813 2.107-4.813 5.5H63.75c-1.519 0-2.75 1.539-2.75 3.438V32h-2.062a4.813 4.813 0 0 0-4.813 4.813c0 2.658 1.817 4.812 4.125 4.812 1.375 0 2.397-.707 2.75-1.375 1.018 1.375 3.62 2.75 5.5 2.75 2.026 0 4.194-1.202 5.5-2.75 1.04 1.536 2.41 2.75 4.126 2.75 2.267 0 4.125-.806 5.5-2.75 1.006.903 1.397 1.374 2.75 1.375a5.5 5.5 0 1 0 0-11c-.982 0-2.08.63-2.75 1.375 0-3.519-1.912-5.5-5.5-5.5H74.75c0-4.125-2.474-5.501-4.813-5.5zm.688 6.875h5.5v1.375L72 30.625c-.002 2.013-.005 4.313 0 5.184.005 1.29-1.13 2.51-2.719 2.923-1.856.483-3.68-.294-4.078-1.734-.397-1.44.782-3 2.64-3.48.972-.253 1.987-.164 2.782.24z" style="stroke-width:2.75008" transform="matrix(.36363 0 0 .36363 -14.181 .364)"/></svg>