<svg xmlns="http://www.w3.org/2000/svg" width="24" height="24"><defs><radialGradient id="a" cx="0" cy="0" r="1" fx="0" fy="0" gradientTransform="matrix(0 16.5 -16.5 0 9 .75)" gradientUnits="userSpaceOnUse" spreadMethod="pad"><stop offset="0" style="stop-opacity:1;stop-color:#fafafa"/><stop offset="1" style="stop-opacity:1;stop-color:silver"/></radialGradient></defs><path d="M7.195.836c.09 0 .176-.012.258-.035a23.86 23.86 0 0 1 3.231.008 10.26 10.26 0 0 1 2.836.636c1.519.625 2.558 1.711 3.121 3.254.316.93.507 1.887.566 2.867a21.227 21.227 0 0 1-.086 3.696 8.976 8.976 0 0 1-.672 2.488c-.637 1.383-1.672 2.336-3.101 2.859a11.693 11.693 0 0 1-3.575.618 15.998 15.998 0 0 1-4.089-.309c-2.481-.551-4.016-2.066-4.594-4.543a14.244 14.244 0 0 1-.336-3.383c-.027-1.211.101-2.41.387-3.59.609-2.312 2.078-3.746 4.406-4.3A10.27 10.27 0 0 1 7.195.836Z" style="fill:url(#a);fill-rule:evenodd;stroke:none" transform="matrix(1.33333 0 0 1.33333 0 0)"/><g stroke-width="4.724" style="stroke-width:4.02389"><path fill="#2ec27e" d="M23.783 17.913a5.857 5.857 0 0 0-5.87 5.87V37.87a5.857 5.857 0 0 0 5.87 5.87h10.565l5.87 4.695v-4.696a5.857 5.857 0 0 0 5.87-5.87V23.784a5.857 5.857 0 0 0-5.87-5.87z" style="stroke-width:4.72405;paint-order:normal" transform="matrix(.45869 0 0 .45869 -2.678 -3.216)"/><path fill="#f9f9f9" d="M29.065 24.957a1.761 1.761 0 1 0 0 3.522 1.761 1.761 0 0 0 0-3.522zm5.87 0a1.761 1.761 0 1 0 0 3.522 1.761 1.761 0 0 0 0-3.522zm-8.805 5.87a5.87 5.87 0 0 0 11.74 0h-2.348a3.522 3.522 0 1 1-7.044 0z" style="stroke-width:4.72405;paint-order:normal" transform="matrix(.45869 0 0 .45869 -2.678 -3.216)"/></g></svg>