<svg xmlns="http://www.w3.org/2000/svg" width="24" height="24"><path d="M9.593 1.115c.12 0 .235-.016.344-.047a31.814 31.814 0 0 1 4.308.01 13.68 13.68 0 0 1 3.781.849c2.026.833 3.41 2.281 4.162 4.338.42 1.24.676 2.516.754 3.823a28.303 28.303 0 0 1-.114 4.928 11.968 11.968 0 0 1-.896 3.317c-.85 1.844-2.23 3.115-4.135 3.812-1.543.522-3.13.798-4.767.824a21.33 21.33 0 0 1-5.452-.412c-3.308-.734-5.354-2.754-6.125-6.057a18.991 18.991 0 0 1-.448-4.51 18.502 18.502 0 0 1 .516-4.787c.812-3.083 2.77-4.995 5.875-5.734a13.692 13.692 0 0 1 2.197-.354Z" style="fill:#f2f2f2;fill-opacity:1;fill-rule:evenodd;stroke:none;stroke-width:1.33333"/><g style="stroke-width:2.34938"><path fill="#c0274b" d="M57.362 19.087a.714.714 0 0 0-.623.697v12.694c0 .371.33.698.697.698h6.346v2.347h-4.696v2.348h8.548v-4.66l-2.716-2.383H59.6a.498.498 0 0 1-.476-.477v-8.438c-.005-.22.151-.436.367-.477a.434.434 0 0 1 .11 0h13.06c.248 0 .477.234.477.477v3.375h2.384v-5.503a.721.721 0 0 0-.697-.698" style="stroke-width:2.34938" transform="matrix(.42564 0 0 .42564 -18.65 -1.62)"/><path fill="#283751" d="m73.327 26.13 2.898 2.348h8.181c.248 0 .477.229.477.476v8.439a.498.498 0 0 1-.477.476h-13.06a.502.502 0 0 1-.476-.476v-1.321l-2.372-2.09v5.539a.71.71 0 0 0 .698.697h6.346v2.348h-4.696v2.348h14.087v-2.348h-4.695v-2.348h6.333c.37 0 .71-.325.71-.697V26.827c0-.368-.33-.697-.71-.697" style="stroke-width:2.34938" transform="matrix(.42564 0 0 .42564 -18.65 -1.62)"/><path fill="#ea8e00" fill-rule="evenodd" d="M61.435 26.13 72 35.521v-5.87l8.217 3.522-11.739-9.39v4.401L61.44 26.13" style="stroke-width:2.34938" transform="matrix(.42564 0 0 .42564 -18.65 -1.62)"/></g></svg>