<svg xmlns="http://www.w3.org/2000/svg" xml:space="preserve" width="24" height="24" viewBox="0 0 6.35 6.35"><defs><radialGradient id="a" cx="0" cy="0" r="1" fx="0" fy="0" gradientTransform="matrix(0 16.5 -16.5 0 9 .75)" gradientUnits="userSpaceOnUse" spreadMethod="pad"><stop offset="0" style="stop-color:#fff;stop-opacity:1"/><stop offset="1" style="stop-color:#7bce74;stop-opacity:1"/></radialGradient></defs><path d="M7.195.836c.09 0 .176-.012.258-.035a23.86 23.86 0 0 1 3.231.008 10.26 10.26 0 0 1 2.836.636c1.519.625 2.558 1.711 3.121 3.254.316.93.507 1.887.566 2.867a21.227 21.227 0 0 1-.086 3.696 8.976 8.976 0 0 1-.672 2.488c-.637 1.383-1.672 2.336-3.101 2.859a11.693 11.693 0 0 1-3.575.618 15.998 15.998 0 0 1-4.089-.309c-2.481-.551-4.016-2.066-4.594-4.543a14.244 14.244 0 0 1-.336-3.383c-.027-1.211.101-2.41.387-3.59.609-2.312 2.078-3.746 4.406-4.3A10.27 10.27 0 0 1 7.195.836Z" style="fill:url(#a);fill-rule:evenodd;stroke:none;stroke-width:.99975004;stroke-dasharray:none" transform="translate(.022 -.08) scale(.35277)"/><g transform="matrix(.4793 0 0 .46083 -.861 -.807)"><rect width="7.937" height="7.937" x="4.498" y="4.498" fill="#303030" rx="1.323" ry="1.323" style="paint-order:markers stroke fill"/><path fill="#f9f9f9" d="M5.36 5.36h1.344c.804 0 1.141.396 1.141 1.088v.015c0 .767-.494 1.072-1.242 1.072h-.621v1.242H5.36Zm1.243 1.554c.374 0 .621-.17.621-.45v-.016c0-.337-.247-.466-.621-.466h-.621v.932Zm1.864.136c0-.953.524-1.69 1.553-1.69.635 0 .97.185 1.289.503l-.406.486c-.262-.243-.547-.367-.883-.367-.561 0-.932.489-.932 1.068v-.018c0 .58.352 1.124.932 1.124.373 0 .67-.194.931-.437l.426.434c-.336.374-.722.624-1.357.624-.991.019-1.553-.773-1.553-1.727M5.05 10.952h3.106v.621H5.05Z"/></g></svg>