<svg xmlns="http://www.w3.org/2000/svg" width="24" height="24" fill="none"><defs><radialGradient id="a" cx="0" cy="0" r="1" gradientTransform="matrix(0 22 -22 0 12 1)" gradientUnits="userSpaceOnUse"><stop offset="0" stop-color="#8FC8FF" style="stop-color:#f6f6f6;stop-opacity:1"/><stop offset="1" stop-color="#0056A8" style="stop-color:#cfcfcf;stop-opacity:1"/></radialGradient></defs><path d="M50 5C9.09 5 5 25.455 5 50c0 32.727 12.273 45 45 45 32.727 0 45-12.273 45-45 0-24.545-4.09-45-45-45Z" style="font-variation-settings:normal;display:inline;opacity:1;vector-effect:none;fill:#f2f2f2;fill-opacity:1;stroke-width:4.56656;stroke-linecap:butt;stroke-linejoin:miter;stroke-miterlimit:4;stroke-dasharray:none;stroke-dashoffset:0;stroke-opacity:1;-inkscape-stroke:none;stop-color:#000;stop-opacity:1" transform="matrix(.24444 0 0 .24444 -.222 -.222)"/><g transform="translate(1.013 -354.633) scale(1.26731)"><path fill="#3776ab" d="M8.306 283.776c-1.411 0-2.547.811-2.547 1.82v.793h-.794c-1.007 0-1.819 1.136-1.819 2.546v.728c0 1.41.812 2.547 1.82 2.547h6.614v-6.615c0-1.008-1.136-1.819-2.547-1.819z" overflow="visible"/><path fill="#ffd343" d="M9.033 294.822c1.411 0 2.547-.81 2.547-1.819v-.793h.794c1.007 0 1.819-1.136 1.819-2.547v-.728c0-1.41-.812-2.546-1.82-2.546h-.793v1.455c0 .806-.65 1.455-1.455 1.455h-2.91s-1.456 0-1.456 1.456v2.248c0 1.008 1.136 1.82 2.547 1.82z" overflow="visible"/><circle cx="7.611" cy="285.33" r=".529" fill="#fff" overflow="visible"/><circle cx="9.744" cy="293.52" r=".546" fill="#fff" overflow="visible"/></g></svg>