<svg xmlns="http://www.w3.org/2000/svg" width="24" height="24" fill="none"><path fill="url(#a)" fill-rule="evenodd" d="M9.596 1.114c.12 0 .234-.014.344-.046a31.627 31.627 0 0 1 4.307.011c1.301.102 2.561.384 3.78.848 2.025.833 3.412 2.28 4.158 4.339.427 1.24.679 2.514.756 3.824a27.94 27.94 0 0 1-.114 4.923 11.88 11.88 0 0 1-.894 3.32c-.85 1.843-2.229 3.114-4.135 3.813a15.624 15.624 0 0 1-4.765.825 21.423 21.423 0 0 1-5.453-.413c-3.312-.737-5.354-2.756-6.128-6.056a19.047 19.047 0 0 1-.447-4.511 18.491 18.491 0 0 1 .515-4.786c.812-3.086 2.77-4.998 5.877-5.736a13.953 13.953 0 0 1 2.199-.355Z" clip-rule="evenodd"/><path fill="#fff" fill-rule="evenodd" d="M12.655 4.667h1.31v3.98a5.123 5.123 0 0 1 2.618-.707c2.532 0 4.584 1.76 4.584 3.929 0 2.17-2.052 3.929-4.584 3.929a5.128 5.128 0 0 1-2.619-.711v1.365h-1.31V4.667Zm-2.62 2.619h1.31V19.07h-1.31v-3.98a5.128 5.128 0 0 1-2.618.707c-2.532 0-4.584-1.759-4.584-3.929S4.885 7.94 7.417 7.94c.937.002 1.851.25 2.619.712V7.286ZM7.418 9.25c-1.808 0-3.274 1.173-3.274 2.619 0 1.446 1.466 2.62 3.274 2.62 1.031-.002 2.002-.393 2.619-1.055v-3.131C9.419 9.64 8.448 9.25 7.416 9.25Zm9.166 0c-1.031.001-2.002.392-2.619 1.054v3.132c.617.66 1.588 1.051 2.62 1.052 1.807 0 3.273-1.173 3.273-2.619 0-1.446-1.466-2.619-3.274-2.619Z" clip-rule="evenodd"/><defs><linearGradient id="a" x1="12" x2="12" y1="1" y2="12" gradientUnits="userSpaceOnUse"><stop stop-color="#7DB9FF"/><stop offset="1" stop-color="#197CF1"/></linearGradient></defs></svg>