<svg xmlns="http://www.w3.org/2000/svg" xml:space="preserve" id="svg5" width="24" height="24" version="1.1" viewBox="0 0 6.35 6.35"><defs id="defs2"><radialGradient id="paint0_radial_3_321" cx="0" cy="0" r="1" gradientTransform="matrix(0 5.82083 -5.82083 0 44.175 84.765)" gradientUnits="userSpaceOnUse"><stop id="stop180" stop-color="#555"/><stop id="stop182" offset="1" stop-color="#222"/></radialGradient><radialGradient id="radialGradient2" cx="0" cy="0" r="1" fx="0" fy="0" gradientTransform="matrix(0 16.5 -16.5 0 9 .75)" gradientUnits="userSpaceOnUse" spreadMethod="pad"><stop id="stop1" offset="0" style="stop-opacity:1;stop-color:#555"/><stop id="stop2" offset="1" style="stop-opacity:1;stop-color:#222"/></radialGradient><style id="current-color-scheme" type="text/css">.ColorScheme-Text{color:#31363b}.ColorScheme-Background{color:#eff0f1}.ColorScheme-Highlight{color:#3daee9}.ColorScheme-ViewText{color:#31363b}.ColorScheme-ViewBackground{color:#fcfcfc}.ColorScheme-ViewHover{color:#93cee9}.ColorScheme-ViewFocus{color:#3daee9}.ColorScheme-ButtonText{color:#31363b}.ColorScheme-ButtonBackground{color:#eff0f1}.ColorScheme-ButtonHover{color:#93cee9}.ColorScheme-ButtonFocus{color:#3daee9}</style></defs><g id="layer1" transform="translate(-41 -84.5)"><path id="path174" fill="url(#paint0_radial_3_321)" fill-rule="evenodd" d="M43.539 84.795a.312.312 0 0 0 .09-.012c.38-.025.76-.024 1.14.003.345.027.678.101 1 .224.537.22.903.603 1.1 1.148.114.328.18.665.2 1.012.03.435.019.87-.03 1.303a3.143 3.143 0 0 1-.236.878 1.87 1.87 0 0 1-1.094 1.009c-.409.138-.829.21-1.26.218a5.668 5.668 0 0 1-1.443-.11c-.877-.194-1.417-.729-1.622-1.602a5.04 5.04 0 0 1-.118-1.193c-.01-.428.036-.85.136-1.267.215-.816.733-1.322 1.555-1.517.192-.047.386-.078.582-.094z" clip-rule="evenodd" style="fill:url(#paint0_radial_3_321);stroke-width:.264583"/></g><g id="g1" transform="matrix(.26458 0 0 .26458 16.35 0)"><path id="path3" d="M-49.795 5a7.039 7.039 0 0 0-2.219 13.719c-.656-1.807-1.156-4.599-1.459-5.943-.15-.593-.057-1.183.042-1.781.21-.62.276-1.26.557-1.859.433-.37.443-1.048.86-1.37.063.037.104.051.136.067h.047c.062-.062-.584-.718.014-.458.022-.344.563-.078.568-.38v-.006c.266.219.22.131.568.09.407-.256.594.604.76.124.49.062 1.016.218 1.486.376.473.104.905.358 1.224.728h-.006l.228.297c.027.052.058.11.08.161.092.776.978.766 1.567 1.042.505.177 1.115.444 1.177 1.037-.125-.027-.62-.59-1.005-.647a2.542 2.542 0 0 1-.724-.166l-1.365-.244V9.78a1.36 1.36 0 0 1-.203-.032v.006l-1.932-.228c.03.02.068.046.093.077l1.984.375v-.006l.136.032.552.126c.115.005.224.025.312.041.568.15 1.235.125 1.7.51-.12.225-.798.094-1.137.067-.041-.009-.088-.014-.124-.02-.01 0-.016-.005-.027-.005-.458-.073-.926-.079-1.369.057h-.005c-.156.047-.308.11-.443.192-.641.36-1.428.496-1.959 1.016-.52.542-.489 1.292-.4 1.984h.02v.178c.011.062.02.125.031.182.265 1.407.99 2.698 1.208 4.12.016.172.043.359.057.547a7.039 7.039 0 0 0-1.03-14zm1.088 3.396c-.214.005-.38.083-.427.213-.073.214.183.484.573.615.391.136.771.073.844-.141.078-.214-.177-.49-.573-.619a1.245 1.245 0 0 0-.417-.068z" style="fill:#ff8b3c;fill-opacity:1;fill-rule:nonzero;stroke:none;stroke-width:1.33333"/></g></svg>