<svg xmlns="http://www.w3.org/2000/svg" xmlns:xlink="http://www.w3.org/1999/xlink" xml:space="preserve" id="svg154" width="24" height="24" fill="none" version="1.1"><defs id="defs152"><linearGradient id="linearGradient1"><stop id="stop1" offset="0" style="stop-color:#555;stop-opacity:1"/><stop id="stop2" offset="1" style="stop-color:#222;stop-opacity:1"/></linearGradient><linearGradient id="linearGradient8792"><stop id="stop8790" offset="0" style="stop-color:#000;stop-opacity:1"/></linearGradient><linearGradient id="linearGradient29319"><stop id="stop29317" offset="0" style="stop-color:#d2d8db;stop-opacity:1"/></linearGradient><linearGradient id="fffff"><stop id="stop28389" offset="0" style="stop-color:#fff;stop-opacity:1"/></linearGradient><radialGradient id="paint0_radial_3_321" cx="0" cy="0" r="1" gradientTransform="matrix(0 22 -22 0 32 1)" gradientUnits="userSpaceOnUse"><stop id="stop180" stop-color="#555"/><stop id="stop182" offset="1" stop-color="#222"/></radialGradient><radialGradient xlink:href="#linearGradient1" id="radialGradient2" cx="12" cy=".875" r="11" fx="12" fy=".875" gradientTransform="matrix(0 1.99432 -2.36784 0 14.072 -23.057)" gradientUnits="userSpaceOnUse"/><clipPath id="clipPath12360" clipPathUnits="userSpaceOnUse"><path id="path12358" d="M0 0h19v19H0Z"/></clipPath><style id="current-color-scheme" type="text/css">.ColorScheme-Text{color:#31363b}.ColorScheme-Background{color:#eff0f1}.ColorScheme-Highlight{color:#3daee9}.ColorScheme-ViewText{color:#31363b}.ColorScheme-ViewBackground{color:#fcfcfc}.ColorScheme-ViewHover{color:#93cee9}.ColorScheme-ViewFocus{color:#3daee9}.ColorScheme-ButtonText{color:#31363b}.ColorScheme-ButtonBackground{color:#eff0f1}.ColorScheme-ButtonHover{color:#93cee9}.ColorScheme-ButtonFocus{color:#3daee9}</style></defs><path id="path6" d="M12 1C2 1 1 6 1 12c0 8 3 11 11 11s11-3 11-11c0-6-1-11-11-11Z" style="font-variation-settings:normal;display:inline;opacity:1;vector-effect:none;fill:url(#radialGradient2);fill-opacity:1;stroke-width:1.11627;stroke-linecap:butt;stroke-linejoin:miter;stroke-miterlimit:4;stroke-dasharray:none;stroke-dashoffset:0;stroke-opacity:1;-inkscape-stroke:none;stop-color:#000;stop-opacity:1"/><path id="path5" d="M10.365 6.384c-.009.336-.594.043-.619.426-.647-.288.05.44-.014.508h-.005l-.048-.004a.75.75 0 0 1-.144-.072c-.452.36-.463 1.11-.93 1.525-.305.661-.38 1.378-.604 2.072-.11.66-.207 1.32-.043 1.98.049.537-.106 1.267.383 1.641.726.596 1.33 1.35 1.934 2.072a28.43 28.43 0 0 1 2.547 3.745c.05-.326.17.653.389.72a28.682 28.682 0 0 1-.221-1.873c-.243-1.58-1.02-3.008-1.314-4.573l-.029-.201v-.196h-.024c-.096-.774-.13-1.612.431-2.21.574-.579 1.43-.725 2.118-1.127.154-.09.315-.164.479-.216h.005c.478-.148.99-.143 1.487-.062.007 0 .016.003.024.004l.139.024c.363.033 1.095.175 1.227-.076-.501-.429-1.226-.398-1.841-.567a3.921 3.921 0 0 0-.336-.048l-.6-.134-.149-.038v.005l-2.148-.418a1.027 1.027 0 0 0-.106-.086l2.087.26v-.01c.074.016.147.03.221.038v.005l1.476.273c.255.095.527.166.782.183.42.06.956.689 1.092.72-.068-.662-.727-.958-1.275-1.152-.64-.311-1.596-.299-1.704-1.16-.027-.06-.053-.12-.086-.178l-.248-.331.01-.005a2.463 2.463 0 0 0-1.33-.806c-.505-.175-1.072-.348-1.611-.417-.181.534-.384-.424-.82-.14-.382.046-.33.147-.613-.095Zm2.747 1.565a1.32 1.32 0 0 1 .455.077c.424.146.7.456.619.69-.081.235-.493.306-.916.159-.424-.148-.7-.45-.619-.686.051-.148.23-.234.46-.24z" style="fill:#f60;stroke-width:.999999"/></svg>