<svg xmlns="http://www.w3.org/2000/svg" width="24" height="24" viewBox="0 0 6.35 6.35"><defs><radialGradient id="a" cx="0" cy="0" r="1" fx="0" fy="0" gradientTransform="matrix(0 16.5 -16.5 0 9 .75)" gradientUnits="userSpaceOnUse" spreadMethod="pad"><stop offset="0" style="stop-opacity:1;stop-color:#fafafa"/><stop offset="1" style="stop-opacity:1;stop-color:silver"/></radialGradient></defs><path d="M7.195.836c.09 0 .176-.012.258-.035a23.86 23.86 0 0 1 3.231.008 10.26 10.26 0 0 1 2.836.636c1.519.625 2.558 1.711 3.121 3.254.316.93.507 1.887.566 2.867a21.227 21.227 0 0 1-.086 3.696 8.976 8.976 0 0 1-.672 2.488c-.637 1.383-1.672 2.336-3.101 2.859a11.693 11.693 0 0 1-3.575.618 15.998 15.998 0 0 1-4.089-.309c-2.481-.551-4.016-2.066-4.594-4.543a14.244 14.244 0 0 1-.336-3.383c-.027-1.211.101-2.41.387-3.59.609-2.312 2.078-3.746 4.406-4.3A10.27 10.27 0 0 1 7.195.836Z" style="fill:url(#a);fill-rule:evenodd;stroke:none" transform="scale(.35277)"/><g style="stroke-width:2.92308" transform="matrix(.3421 0 0 .3421 .278 .28)"><circle cx="8.467" cy="8.46" r="5.027" fill="#3f9f4a" style="stroke-width:2.92308;paint-order:stroke markers fill"/><path fill="#fff" d="M7.408 6.085a1.058 1.058 0 0 0-1.023.794H4.762v.53h1.622a1.058 1.058 0 0 0 1.024.793 1.058 1.058 0 0 0 .357-.063l1.908 1.908a1.058 1.058 0 0 0-.148.536 1.058 1.058 0 0 0 1.058 1.059 1.058 1.058 0 0 0 1.059-1.059 1.058 1.058 0 0 0-1.059-1.058 1.058 1.058 0 0 0-.536.148L8.209 7.834a1.058 1.058 0 0 0 .222-.426h1.393a1.058 1.058 0 0 0 1.024.794 1.058 1.058 0 0 0 1.058-1.058 1.058 1.058 0 0 0-1.058-1.059 1.058 1.058 0 0 0-1.023.794H8.432a1.058 1.058 0 0 0-1.024-.794Z" style="stroke-width:.77339;paint-order:stroke fill markers"/></g></svg>