<svg xmlns="http://www.w3.org/2000/svg" width="24" height="24" viewBox="0 0 6.35 6.35"><defs><radialGradient id="a" cx="0" cy="0" r="1" gradientTransform="rotate(90 1.455 1.72) scale(5.82072)" gradientUnits="userSpaceOnUse"><stop offset="0" stop-color="#555" style="stop-color:#707070;stop-opacity:1"/><stop offset="1" stop-color="#222" style="stop-color:#4d4d4d;stop-opacity:1"/></radialGradient></defs><path fill="url(#a)" fill-rule="evenodd" d="M2.539.295a.312.312 0 0 0 .09-.012c.38-.025.76-.024 1.14.003.345.026.678.101 1 .224.536.22.903.603 1.1 1.148.114.328.18.665.2 1.012.029.435.019.869-.03 1.302a3.143 3.143 0 0 1-.236.879 1.87 1.87 0 0 1-1.094 1.008c-.409.139-.829.211-1.26.219a5.668 5.668 0 0 1-1.444-.11C1.13 5.773.59 5.24.385 4.366a5.04 5.04 0 0 1-.12-1.194c-.009-.428.037-.85.137-1.266C.617 1.09 1.135.584 1.957.39c.191-.047.385-.079.582-.094Z" clip-rule="evenodd" style="fill:url(#a);stroke-width:.264578"/><g style="stroke-width:3.07725" transform="matrix(.32497 0 0 .32497 -3.016 .424)"><circle cx="16.271" cy="5.689" r="2.514" fill="#fff" style="stroke-width:.814179"/><circle cx="21.827" cy="5.686" r="2.514" fill="#333" style="stroke-width:.814179"/><circle cx="16.271" cy="11.243" r="2.514" fill="#333" style="stroke-width:.814179"/><circle cx="21.828" cy="11.244" r="2.514" fill="#fff" style="stroke-width:.814179"/></g></svg>