<svg xmlns="http://www.w3.org/2000/svg" width="24" height="24"><path d="M9.593 1.115c.12 0 .235-.016.344-.047a31.814 31.814 0 0 1 4.308.01 13.68 13.68 0 0 1 3.781.849c2.026.833 3.41 2.281 4.162 4.338.42 1.24.676 2.516.754 3.823a28.303 28.303 0 0 1-.114 4.928 11.968 11.968 0 0 1-.896 3.317c-.85 1.844-2.23 3.115-4.135 3.812-1.543.522-3.13.798-4.767.824a21.33 21.33 0 0 1-5.452-.412c-3.308-.734-5.354-2.754-6.125-6.057a18.991 18.991 0 0 1-.448-4.51 18.502 18.502 0 0 1 .516-4.787c.812-3.083 2.77-4.995 5.875-5.734a13.692 13.692 0 0 1 2.197-.354Z" style="fill:#f2f2f2;fill-opacity:1;fill-rule:evenodd;stroke:none;stroke-width:1.33333"/><g stroke-width="2.708"><path fill="#4d4d4d" d="M32 14c-9.941 0-18 8.058-18 18a18 18 0 0 0 9.916 16.076l1.143-9.45A9.6 9.6 0 0 1 22.4 32c0-5.301 4.298-9.6 9.6-9.6s9.6 4.299 9.6 9.6a9.604 9.604 0 0 1-2.663 6.62l1.143 9.442A18 18 0 0 0 50 31.999c0-9.94-8.06-18-18-18" style="stroke-width:2.70823" transform="translate(.444 .445) scale(.36112)"/><path fill="gray" d="M32 25.999a6 6 0 0 0-6 6 6 6 0 0 0 2.87 5.112l-1.49 12.263a18 18 0 0 0 4.62.624 18 18 0 0 0 4.617-.612l-1.49-12.275A6 6 0 0 0 38 31.999a6 6 0 0 0-6-6" style="stroke-width:2.70823" transform="translate(.444 .445) scale(.36112)"/></g></svg>