<svg xmlns="http://www.w3.org/2000/svg" xmlns:xlink="http://www.w3.org/1999/xlink" width="24" height="24"><defs><linearGradient id="a" x1="23.876" x2="23.876" y1="16.35" y2="31.354" gradientTransform="matrix(.9325 .01267 -.00875 .6444 29.94 17.479)" gradientUnits="userSpaceOnUse"><stop offset="0" stop-color="#f62f09"/><stop offset="1" stop-color="#ff0034"/></linearGradient><linearGradient xlink:href="#a" id="c" x1="23.876" x2="23.876" y1="16.35" y2="31.354" gradientTransform="matrix(.9325 .01267 -.00875 .6444 29.94 17.479)" gradientUnits="userSpaceOnUse"/><radialGradient id="b" cx="0" cy="0" r="1" fx="0" fy="0" gradientTransform="matrix(0 16.50002 -16.50002 0 9 .75)" gradientUnits="userSpaceOnUse" spreadMethod="pad"><stop offset="0" style="stop-opacity:1;stop-color:#fff"/><stop offset="1" style="stop-opacity:1;stop-color:#bebebe"/></radialGradient></defs><path d="M7.195.836c.09 0 .176-.012.258-.035a23.86 23.86 0 0 1 3.231.008 10.26 10.26 0 0 1 2.836.636c1.519.625 2.558 1.711 3.121 3.254.316.93.507 1.887.566 2.867a21.227 21.227 0 0 1-.086 3.696 8.976 8.976 0 0 1-.672 2.488c-.637 1.383-1.672 2.336-3.101 2.859a11.693 11.693 0 0 1-3.575.618 15.998 15.998 0 0 1-4.089-.309c-2.481-.551-4.016-2.066-4.594-4.543a14.244 14.244 0 0 1-.336-3.383c-.027-1.211.101-2.41.387-3.59.609-2.312 2.078-3.746 4.406-4.3A10.27 10.27 0 0 1 7.195.836Z" style="fill:url(#b);fill-rule:evenodd;stroke:none" transform="matrix(1.33333 0 0 1.33333 0 0)"/><g transform="matrix(.39474 0 0 .39474 -8.526 -.632)"><path fill="#fcc431" d="M52 47.042a11.083 3.299 0 0 0-11.083 3.299 11.083 3.299 0 0 0 .237.66H62.86a11.083 3.299 0 0 0 .224-.66A11.083 3.299 0 0 0 52 47.04Z" style="stroke-width:.79167"/><path fill="#1c1c1c" stroke-width="1.023" d="M64.23 29.569s3.563 3.243 4.013 11.199c0 0 .584 7.736-2.629.03l-2.384-6.423Zm-24.458 0s-3.565 3.243-4.014 11.199c0 0-.584 7.736 2.629.03l2.384-6.423Z"/><rect width="25.333" height="38" x="39.334" y="13" fill="#1c1c1c" ry="12.667" style="stroke-width:.79167"/><path fill="#fff" d="M41.709 34.719v5.198A10.27 10.27 0 0 0 52 50.209a10.27 10.27 0 0 0 10.292-10.292v-4.8a24.97 17.135 0 0 1-9.66 1.352 24.97 17.135 0 0 1-10.923-1.75Z" style="stroke-width:.79167"/><path fill="#d4001b" d="M44.583 32.792s-1.893 7.459.899 8.943c0 0 1.409.97 3.491.463 0 0 1.813-.372 1.498-3.069 0 0-.27-3.543.036-5.124z" style="stroke-width:.79167"/><path fill="url(#a)" d="M64.529 28.834c-2.328 3.274-6.804 5.153-12.428 5.076-5.488-.074-9.835-1.817-12.14-5.025-.98-1.363-2.893 2.362-1.605 3.854 2.585 2.993 7.494 5.088 13.185 5.24 6.23.166 11.672-2.043 14.222-5.365.94-1.225-.46-4.87-1.234-3.78z" style="fill:url(#c);stroke-width:.775256"/><g transform="translate(-28.603 13.252) scale(.63031)"><ellipse cx="127.88" cy="24.638" fill="#242424" opacity=".41" rx="11.079" ry="3.386"/><g fill="#fdfdfd" transform="translate(98.129 .04) scale(1.2308)"><ellipse cx="20.264" cy="12.583" rx="2.649" ry="4.161"/><ellipse cx="27.55" cy="12.583" rx="2.649" ry="4.161"/></g><ellipse cx="123.88" cy="15.364" rx="1.387" ry="2.062"/><path d="M131.14 14.417c.606 0 1.117.575 1.307 1.376.025.105.08.108.08-.004 0-1.138-.621-2.061-1.387-2.061s-1.387.923-1.387 2.061c0 .112.053.116.077.015.188-.806.702-1.387 1.31-1.387z"/><ellipse cx="21.26" cy="12.431" fill="#fefefe" rx=".462" ry=".633" transform="translate(98.129 .04) scale(1.2308)"/><ellipse cx="20.954" cy="13.103" fill="#fefefe" opacity=".6" rx=".272" ry=".285" transform="matrix(1.2293 -.0594 .0594 1.2293 97.38 1.305)"/><path fill="#fcc431" d="M127.88 21.225c-6.239 0-11.298 2.298-11.298 3.272 0 .72 1.908 1.78 4.808 2.497-1.173-1.02-1.844-1.95-1.87-1.926l.154-.002c.796.725 7.46 7.42 16.376-.158l.13-.002a19.62 19.62 0 0 1-2.4 2.254c3.226-.681 5.398-1.8 5.398-2.664 0-1.207-5.06-3.271-11.299-3.271z"/></g></g></svg>