<svg xmlns="http://www.w3.org/2000/svg" xml:space="preserve" width="24" height="24" viewBox="0 0 6.35 6.35"><defs><radialGradient id="b" cx="0" cy="0" r="1" fx="0" fy="0" gradientTransform="matrix(0 16.5 -16.5 0 9 .75)" gradientUnits="userSpaceOnUse" spreadMethod="pad"><stop offset="0" style="stop-opacity:1;stop-color:#cdf2cd"/><stop offset="1" style="stop-opacity:1;stop-color:#38d23a"/></radialGradient><path id="a" d="M5.327 2.037h12.69v15.98H5.327z"/></defs><path d="M7.195.836c.09 0 .176-.012.258-.035a23.86 23.86 0 0 1 3.231.008 10.26 10.26 0 0 1 2.836.636c1.519.625 2.558 1.711 3.121 3.254.316.93.507 1.887.566 2.867a21.227 21.227 0 0 1-.086 3.696 8.976 8.976 0 0 1-.672 2.488c-.637 1.383-1.672 2.336-3.101 2.859a11.693 11.693 0 0 1-3.575.618 15.998 15.998 0 0 1-4.089-.309c-2.481-.551-4.016-2.066-4.594-4.543a14.244 14.244 0 0 1-.336-3.383c-.027-1.211.101-2.41.387-3.59.609-2.312 2.078-3.746 4.406-4.3A10.27 10.27 0 0 1 7.195.836Z" style="fill:url(#b);fill-rule:evenodd;stroke:none" transform="scale(.35277)"/><path fill="#fafafa" d="M1.935 1.555a.742.742 0 0 0-.744.744v1.24c0 .412.331.744.744.744h.364l.348.512.41-.28-.235-.345a.74.74 0 0 0 .353-.63V2.298a.742.742 0 0 0-.744-.744zm1.984 0v.496h-.248v.496h.248v.992c0 .412.332.744.744.744l.496-.124v-.372h-.496a.247.247 0 0 1-.248-.248v-.992h.744v-.496h-.744v-.496Zm-1.984.496h.496c.137 0 .248.11.248.248v1.24c0 .138-.11.248-.248.248h-.496a.247.247 0 0 1-.248-.248V2.3c0-.137.11-.248.248-.248z" style="stroke-width:.124021"/><path d="M4.779 3.034a2.161 2.161 0 0 0-2.162 2.161 2.161 2.161 0 0 0 .19.88 5.7 5.7 0 0 0 .641.003c.432-.008.852-.08 1.26-.219a1.87 1.87 0 0 0 1.095-1.008c.121-.281.2-.574.236-.879.02-.168.032-.335.04-.504a2.161 2.161 0 0 0-1.3-.434Z" style="fill:#005093;fill-opacity:1;stroke-width:.240152"/><rect width=".391" height=".391" x="5.413" y="3.683" rx=".13" ry=".13" style="fill:#1e88e5;stroke-width:.130286"/><rect width=".391" height=".391" x="3.589" y="3.683" rx=".13" ry=".13" style="fill:#1e88e5;stroke-width:.130286"/><rect width=".391" height=".391" x="3.589" y="5.507" rx=".13" ry=".13" style="fill:#1e88e5;stroke-width:.130286"/><path d="M3.72 3.813v1.954h1.203a1.83 1.83 0 0 0 .75-.676V3.813Z" style="fill:#64b5f6;fill-opacity:1;stroke-width:.130286"/></svg>