<svg xmlns="http://www.w3.org/2000/svg" xmlns:xlink="http://www.w3.org/1999/xlink" xml:space="preserve" id="svg154" width="24" height="24" fill="none" version="1.1"><defs id="defs152"><linearGradient id="linearGradient1062"><stop id="stop1058" offset="0" style="stop-color:#b3b3b3;stop-opacity:1"/><stop id="stop1060" offset="1" style="stop-color:#fff;stop-opacity:1"/></linearGradient><linearGradient id="linearGradient8792"><stop id="stop8790" offset="0" style="stop-color:#000;stop-opacity:1"/></linearGradient><linearGradient xlink:href="#linearGradient1062" id="linearGradient1064" x1="51.534" x2="50.256" y1="92.699" y2="12.926" gradientTransform="matrix(.24444 0 0 .24444 -.222 -.222)" gradientUnits="userSpaceOnUse"/><linearGradient id="linearGradient29319"><stop id="stop29317" offset="0" style="stop-color:#d2d8db;stop-opacity:1"/></linearGradient><linearGradient id="fffff"><stop id="stop28389" offset="0" style="stop-color:#fff;stop-opacity:1"/></linearGradient><style id="current-color-scheme" type="text/css">.ColorScheme-Text{color:#31363b}.ColorScheme-Background{color:#eff0f1}.ColorScheme-Highlight{color:#3daee9}.ColorScheme-ViewText{color:#31363b}.ColorScheme-ViewBackground{color:#fcfcfc}.ColorScheme-ViewHover{color:#93cee9}.ColorScheme-ViewFocus{color:#3daee9}.ColorScheme-ButtonText{color:#31363b}.ColorScheme-ButtonBackground{color:#eff0f1}.ColorScheme-ButtonHover{color:#93cee9}.ColorScheme-ButtonFocus{color:#3daee9}</style></defs><path id="path6" d="M12 1C2 1 1 6 1 12c0 8 3 11 11 11s11-3 11-11c0-6-1-11-11-11Z" style="font-variation-settings:normal;display:inline;opacity:1;vector-effect:none;fill:url(#linearGradient1064);fill-opacity:1;stroke-width:1.11627;stroke-linecap:butt;stroke-linejoin:miter;stroke-miterlimit:4;stroke-dasharray:none;stroke-dashoffset:0;stroke-opacity:1;-inkscape-stroke:none;stop-color:#000;stop-opacity:1"/><g id="g7321" transform="translate(-36 -18.008) scale(.19585)"><path id="path7288" fill="#5fa1e9" d="M270.464 155.403h9.42l-16.585-16.585-16.585 16.585h8.68v13.396h15.07z" style="stroke-width:1.67454"/><path id="path7290" fill="#1964c2" d="M236.973 170.474h-8.138l16.586 16.584 16.585-16.584h-8.29v-13.397h-16.745z" style="stroke-width:1.67454"/><path id="path7292" fill="#b4d100" d="M261.284 126.862v-5.492c0-1.181-1.021-2.1-2.195-1.976l-21.85 2.31a1.988 1.988 0 0 0-1.776 1.976v39.016c-3.081-.52-6.789-.396-10.65.51-9.073 2.13-15.517 7.742-14.391 12.536 1.125 4.794 9.434 7.478 18.466 5.178 14.115-3.596 14.519-11.635 14.519-11.635V131.44c0-.507.383-.934.887-.988l15.213-1.612a1.986 1.986 0 0 0 1.775-1.976z" style="stroke-width:1.67454"/></g></svg>