<svg xmlns="http://www.w3.org/2000/svg" xmlns:xlink="http://www.w3.org/1999/xlink" xml:space="preserve" id="svg154" width="24" height="24" fill="none" version="1.1"><defs id="defs152"><linearGradient id="linearGradient1062"><stop id="stop1058" offset="0" style="stop-color:#b3b3b3;stop-opacity:1"/><stop id="stop1060" offset="1" style="stop-color:#fff;stop-opacity:1"/></linearGradient><linearGradient id="linearGradient8792"><stop id="stop8790" offset="0" style="stop-color:#000;stop-opacity:1"/></linearGradient><linearGradient xlink:href="#linearGradient1062" id="linearGradient1064" x1="51.534" x2="50.256" y1="92.699" y2="12.926" gradientTransform="matrix(.24444 0 0 .24444 -.222 -.222)" gradientUnits="userSpaceOnUse"/><linearGradient id="linearGradient29319"><stop id="stop29317" offset="0" style="stop-color:#d2d8db;stop-opacity:1"/></linearGradient><linearGradient id="fffff"><stop id="stop28389" offset="0" style="stop-color:#fff;stop-opacity:1"/></linearGradient><style id="current-color-scheme" type="text/css">.ColorScheme-Text{color:#31363b}.ColorScheme-Background{color:#eff0f1}.ColorScheme-Highlight{color:#3daee9}.ColorScheme-ViewText{color:#31363b}.ColorScheme-ViewBackground{color:#fcfcfc}.ColorScheme-ViewHover{color:#93cee9}.ColorScheme-ViewFocus{color:#3daee9}.ColorScheme-ButtonText{color:#31363b}.ColorScheme-ButtonBackground{color:#eff0f1}.ColorScheme-ButtonHover{color:#93cee9}.ColorScheme-ButtonFocus{color:#3daee9}</style></defs><path id="path6" d="M12 1C2 1 1 6 1 12c0 8 3 11 11 11s11-3 11-11c0-6-1-11-11-11Z" style="font-variation-settings:normal;display:inline;opacity:1;vector-effect:none;fill:url(#linearGradient1064);fill-opacity:1;stroke-width:1.11627;stroke-linecap:butt;stroke-linejoin:miter;stroke-miterlimit:4;stroke-dasharray:none;stroke-dashoffset:0;stroke-opacity:1;-inkscape-stroke:none;stop-color:#000;stop-opacity:1"/><g id="g6926" transform="matrix(.17787 0 0 .17787 29.068 -7.195)"><g id="g6868" stroke-width=".833" style="paint-order:markers stroke fill" transform="matrix(9.8166 0 0 9.8166 -179.066 -2711.52)"><rect id="rect6844" width="1.587" height="1.587" x="7.673" y="283.242" fill="#ff3b53" rx=".265" ry=".265"/><rect id="rect6846" width="1.587" height="1.587" x="9.26" y="283.242" fill="#ff3b53" rx=".265" ry=".265"/><rect id="rect6848" width="1.587" height="1.587" x="10.848" y="283.242" fill="#ff3b53" rx=".265" ry=".265"/><rect id="rect6850" width="1.587" height="1.587" x="10.848" y="284.829" fill="#ff3b53" rx=".265" ry=".265"/><rect id="rect6852" width="1.587" height="1.587" x="7.673" y="286.417" fill="#1cbedd" rx=".265" ry=".265"/><rect id="rect6854" width="1.587" height="1.587" x="7.673" y="288.004" fill="#1cbedd" rx=".265" ry=".265"/><rect id="rect6856" width="1.587" height="1.587" x="9.26" y="288.004" fill="#1cbedd" rx=".265" ry=".265"/><rect id="rect6858" width="1.587" height="1.587" x="9.26" y="289.592" fill="#1cbedd" rx=".265" ry=".265"/><rect id="rect6860" width="1.587" height="1.587" x="7.673" y="289.592" fill="#f5ab00" rx=".265" ry=".265"/><rect id="rect6862" width="1.587" height="1.587" x="6.085" y="289.592" fill="#f5ab00" rx=".265" ry=".265"/><rect id="rect6864" width="1.587" height="1.587" x="6.085" y="288.004" fill="#f5ab00" rx=".265" ry=".265"/><rect id="rect6866" width="1.587" height="1.587" x="4.498" y="289.592" fill="#f5ab00" rx=".265" ry=".265"/></g></g></svg>