<svg xmlns="http://www.w3.org/2000/svg" xmlns:xlink="http://www.w3.org/1999/xlink" xml:space="preserve" id="svg154" width="24" height="24" fill="none" version="1.1"><defs id="defs152"><linearGradient id="linearGradient1062"><stop id="stop1058" offset="0" style="stop-color:#4b92fd;stop-opacity:1"/><stop id="stop1060" offset="1" style="stop-color:#bed4f6;stop-opacity:1"/></linearGradient><linearGradient id="linearGradient8792"><stop id="stop8790" offset="0" style="stop-color:#000;stop-opacity:1"/></linearGradient><linearGradient xlink:href="#linearGradient1062" id="linearGradient1064" x1="51.534" x2="50.256" y1="92.699" y2="12.926" gradientTransform="matrix(.24444 0 0 .24444 -.222 -.222)" gradientUnits="userSpaceOnUse"/><linearGradient id="linearGradient29319"><stop id="stop29317" offset="0" style="stop-color:#d2d8db;stop-opacity:1"/></linearGradient><linearGradient id="fffff"><stop id="stop28389" offset="0" style="stop-color:#fff;stop-opacity:1"/></linearGradient><style id="current-color-scheme" type="text/css">.ColorScheme-Text{color:#31363b}.ColorScheme-Background{color:#eff0f1}.ColorScheme-Highlight{color:#3daee9}.ColorScheme-ViewText{color:#31363b}.ColorScheme-ViewBackground{color:#fcfcfc}.ColorScheme-ViewHover{color:#93cee9}.ColorScheme-ViewFocus{color:#3daee9}.ColorScheme-ButtonText{color:#31363b}.ColorScheme-ButtonBackground{color:#eff0f1}.ColorScheme-ButtonHover{color:#93cee9}.ColorScheme-ButtonFocus{color:#3daee9}</style></defs><path id="path6" d="M12 1C2 1 1 6 1 12c0 8 3 11 11 11s11-3 11-11c0-6-1-11-11-11Z" style="font-variation-settings:normal;display:inline;opacity:1;vector-effect:none;fill:url(#linearGradient1064);fill-opacity:1;stroke-width:1.11627;stroke-linecap:butt;stroke-linejoin:miter;stroke-miterlimit:4;stroke-dasharray:none;stroke-dashoffset:0;stroke-opacity:1;-inkscape-stroke:none;stop-color:#000;stop-opacity:1"/><g id="g8338" transform="matrix(1.05055 0 0 1.05055 3.106 3.106)"><path id="path8311" fill="#2376c5" d="M13.503 3.713c-1.347-1.096-3.136-1.7-5.037-1.7-1.9 0-3.689.604-5.036 1.7-1.359 1.106-2.107 2.58-2.107 4.15 0 1.499.682 2.91 1.925 3.997a.77.77 0 0 0-.051.159l-.409 2.01c-.049.238.017.38.08.458.073.09.182.14.305.14a.652.652 0 0 0 .299-.083l2.376-1.234a8.551 8.551 0 0 0 2.618.403c1.901 0 3.69-.604 5.037-1.7 1.359-1.106 2.107-2.58 2.107-4.15 0-1.57-.748-3.044-2.107-4.15z"/><path id="path8313" fill="#fff" d="M7.144 5.289v1.34h-1.34v.67h1.34v1.339h-1.34v.67h1.34v1.339h.67v-1.34h1.339v1.34h.67v-1.34h1.339v-.67h-1.34V7.299h1.34v-.67h-1.34V5.29h-.67v1.34H7.814V5.29Zm.67 2.01h1.339v1.339h-1.34z"/><path id="path8315" fill="#b7e6ff" d="M9.421 8.978c.674-.597 1.568-.925 2.518-.925.95 0 1.845.329 2.518.925.68.602 1.054 1.405 1.054 2.26 0 .816-.341 1.584-.963 2.175a.44.44 0 0 1 .026.087l.204 1.094c.025.13-.008.208-.04.25a.187.187 0 0 1-.152.076.306.306 0 0 1-.15-.045l-1.188-.672c-.411.144-.854.22-1.309.22-.95 0-1.844-.33-2.518-.926-.68-.602-1.054-1.404-1.054-2.26 0-.854.375-1.657 1.054-2.259z"/><g id="g8323" fill="#1d5a9e" stroke-width=".889" transform="translate(-111.92 -158.61) scale(.31134)"><circle id="circle8317" cx="393.04" cy="545.5" r="2.084" opacity=".837"/><circle id="circle8319" cx="397.79" cy="545.5" r="2.084" opacity=".837"/><circle id="circle8321" cx="402.78" cy="545.5" r="2.084" opacity=".837"/></g></g></svg>