<svg xmlns="http://www.w3.org/2000/svg" xmlns:xlink="http://www.w3.org/1999/xlink" xml:space="preserve" id="svg154" width="24" height="24" fill="none" version="1.1"><defs id="defs152"><linearGradient id="linearGradient1062"><stop id="stop1058" offset="0" style="stop-color:#175261;stop-opacity:1"/><stop id="stop1060" offset="1" style="stop-color:#09738e;stop-opacity:1"/></linearGradient><linearGradient id="linearGradient8792"><stop id="stop8790" offset="0" style="stop-color:#000;stop-opacity:1"/></linearGradient><linearGradient xlink:href="#linearGradient1062" id="linearGradient1064" x1="50.811" x2="50.256" y1="92.88" y2="12.926" gradientTransform="matrix(.24444 0 0 .24444 -.222 -.222)" gradientUnits="userSpaceOnUse"/><linearGradient id="linearGradient29319"><stop id="stop29317" offset="0" style="stop-color:#d2d8db;stop-opacity:1"/></linearGradient><linearGradient id="fffff"><stop id="stop28389" offset="0" style="stop-color:#fff;stop-opacity:1"/></linearGradient><style id="current-color-scheme" type="text/css">.ColorScheme-Text{color:#31363b}.ColorScheme-Background{color:#eff0f1}.ColorScheme-Highlight{color:#3daee9}.ColorScheme-ViewText{color:#31363b}.ColorScheme-ViewBackground{color:#fcfcfc}.ColorScheme-ViewHover{color:#93cee9}.ColorScheme-ViewFocus{color:#3daee9}.ColorScheme-ButtonText{color:#31363b}.ColorScheme-ButtonBackground{color:#eff0f1}.ColorScheme-ButtonHover{color:#93cee9}.ColorScheme-ButtonFocus{color:#3daee9}</style></defs><path id="path6" d="M12 1C2 1 1 6 1 12c0 8 3 11 11 11s11-3 11-11c0-6-1-11-11-11Z" style="font-variation-settings:normal;display:inline;opacity:1;vector-effect:none;fill:url(#linearGradient1064);fill-opacity:1;stroke-width:1.11627;stroke-linecap:butt;stroke-linejoin:miter;stroke-miterlimit:4;stroke-dasharray:none;stroke-dashoffset:0;stroke-opacity:1;-inkscape-stroke:none;stop-color:#000;stop-opacity:1"/><g id="g8147" transform="matrix(.17032 0 0 .17032 33.962 -3.745)"><path id="path7473" fill="none" stroke="#f1f3f4" stroke-width="2.266" d="M-166.102 52.2h6.985m.998 0h6.487m1.043 0h5.79m.951 0h2.492m.998 0h5.588m1.1 0h14.67m.997 0h11.177m.998 0h3.392m-63.668 6.898h10.831m1.26 0h5.176m.955 0h2.555m1.04 0h4.769m.997 0h4.889m.924 0h7.678m.998 0h10.127m-52.197 6.868h9.168m.963 0h15.098m.925 0h7.323m.937 0h6.85m.984 0h5.835m.937 0 9.179.062m-58.2 6.867h12.747m1.001 0h13.776m.952 0h5.413m.998 0h12.886m.867 0h8.832m.998 0h3.495m.998 0h1.935m-64.897 6.899h4.757m1.461 0h17.618m-23.836 29.894h10.831m1.26 0h5.176m.955 0h2.554m1.04 0h4.768m.997 0h4.889m.924 0h7.678m-41.072 9.103h9.166m.963 0h15.098m.927 0h7.323m25.874.188h14.957m-74.308-16.19h12.746m1.001 0h13.777m.952 0h5.414m.998 0h12.886m-47.774-13.797h6.983m1 0h6.487m1.043 0h5.79m.95 0h2.495m.998 0h5.588m1.097 0h14.67m.998 0h11.177m-59.278 6.898h11.765m.926 0h12.492m.952 0h4.885m.922 0h11.752m.943 0h12.836m-57.471 29.896h10.993m1.18 0h4.847m1.136 0h2.417m.77 0h4.772m.634 0h25.264m1.187 0h6.745m.908 0h1.703m-50.033 6.896h3.586m-16.111 0h11.474m5.554 0h8.343m.884 0h12.248m.952 0h8.31m.836 0h1.713m.937 0h10.548m1.08 0h5.525" opacity=".15"/><path id="path7475" fill="none" stroke="#268bd2" stroke-width="2.266" d="M-140.356 52.2h5.588m10.734 6.898h10.127m-18.803 50.59h7.678m7.03-20.696h11.176"/><path id="path7477" fill="none" stroke="#859900" stroke-width="2.266" d="M-166.102 52.2h6.985m27.901 20.695h12.886m-25.957 36.793h4.769m8.302-6.9h12.886m-47.774-13.796h6.985m.998 0h6.487"/><path id="path7479" fill="none" stroke="#d33682" stroke-width="2.266" d="M-166.102 65.967h9.168m53.796 6.928h1.933m-64.897 36.796h10.831m-10.831-20.696h6.985m19.148 6.899h4.885m-4.763 36.79h12.248"/><g id="g7483" fill="none" stroke="#fff" stroke-width="4" color="#000" transform="matrix(1.83768 0 0 1.83768 -189.687 33.692)"><path id="path7481" d="M31.974 38.279h.947c4.432 0 8.027-3.568 8.027-8v-4c0-4.432-3.595-8-8.027-8h-.947m-4.025 0h-7.002v20h6.998" style="isolation:auto;mix-blend-mode:normal" transform="translate(-4.774 -2.865) scale(1.2194)"/></g></g></svg>