<svg xmlns="http://www.w3.org/2000/svg" width="24" height="24" fill="none"><defs><radialGradient id="a" cx="0" cy="0" r="1" gradientTransform="matrix(0 22 -22 0 12 1)" gradientUnits="userSpaceOnUse"><stop offset="0" stop-color="#8FC8FF" style="stop-color:#f6f6f6;stop-opacity:1"/><stop offset="1" stop-color="#0056A8" style="stop-color:#cfcfcf;stop-opacity:1"/></radialGradient></defs><path d="M50 5C9.09 5 5 25.455 5 50c0 32.727 12.273 45 45 45 32.727 0 45-12.273 45-45 0-24.545-4.09-45-45-45Z" style="font-variation-settings:normal;display:inline;opacity:1;vector-effect:none;fill:#86b848;fill-opacity:1;stroke-width:4.56656;stroke-linecap:butt;stroke-linejoin:miter;stroke-miterlimit:4;stroke-dasharray:none;stroke-dashoffset:0;stroke-opacity:1;-inkscape-stroke:none;stop-color:#000;stop-opacity:1" transform="matrix(.24444 0 0 .24444 -.222 -.222)"/><g stroke-width=".769"><path fill="#fbde78" d="m16.44 9.11 1.582 1.097-.419-2.012L19 6.793h-1.841l-.72-1.707-.72 1.707h-1.84l1.396 1.402-.419 2.012z"/><g transform="matrix(.42681 0 0 .42681 .647 2.097)"><circle cx="15" cy="34" r="3" fill="#f9f9f9"/><path fill="#f9f9f9" d="M12 22v5h2.5a7.5 7.5 0 0 1 7.5 7.5V37h5v-2.5C27 27.596 21.404 22 14.5 22"/><path fill="#fff" d="M12 12v5h3a17 17 0 0 1 17 17v3h5v-3a22 22 0 0 0-22-22Z"/></g></g></svg>