<svg xmlns="http://www.w3.org/2000/svg" xml:space="preserve" width="24" height="24"><defs><radialGradient id="a" cx="0" cy="0" r="1" gradientTransform="matrix(0 22 -22 0 12 1)" gradientUnits="userSpaceOnUse"><stop stop-color="#FAFAFA"/><stop offset="1" stop-color="silver"/></radialGradient></defs><path fill="url(#a)" fill-rule="evenodd" d="M9.596 1.114c.12 0 .234-.014.344-.046a31.627 31.627 0 0 1 4.307.011c1.301.102 2.561.384 3.78.848 2.025.833 3.412 2.28 4.158 4.339.427 1.24.679 2.514.756 3.824a27.94 27.94 0 0 1-.115 4.923 11.88 11.88 0 0 1-.893 3.32c-.85 1.843-2.229 3.114-4.135 3.813a15.624 15.624 0 0 1-4.766.825 21.423 21.423 0 0 1-5.452-.412c-3.312-.738-5.354-2.757-6.128-6.057a19.047 19.047 0 0 1-.447-4.511 18.493 18.493 0 0 1 .515-4.786c.812-3.086 2.77-4.998 5.877-5.736a13.953 13.953 0 0 1 2.199-.355z" clip-rule="evenodd" style="fill:url(#a)"/><circle cx="12" cy="12" r="7.5" style="color:#000;clip-rule:nonzero;display:inline;overflow:visible;visibility:visible;isolation:auto;mix-blend-mode:normal;color-interpolation:sRGB;color-interpolation-filters:linearRGB;solid-color:#000;solid-opacity:1;fill:#cee5fd;fill-opacity:1;fill-rule:nonzero;stroke:#000;stroke-width:1;stroke-linecap:round;stroke-linejoin:round;stroke-miterlimit:4;stroke-dasharray:none;stroke-opacity:1;color-rendering:auto;image-rendering:auto;shape-rendering:auto;text-rendering:auto;enable-background:accumulate;paint-order:stroke markers fill;opacity:.2"/><path d="M11.986 4.5c-.948 0-1.85.18-2.684.497-.06.056-.14.099-.202.093-.008 0-.017-.006-.025-.01-.411.173-.801.383-1.17.621.047.078.062.165-.037.207a1.785 1.785 0 0 1-.287.032 7.424 7.424 0 0 0-2.418 2.976 1.88 1.88 0 0 1 .059-.005c.081-.001.138.024.217.04.072.016.13.064.194.069.178.013.22-.125.366-.202.15.02.25-.026.385-.01.092.01.16.108.231.114.06.006.114-.057.173-.048.057.009.155.133.164.202.012.087-.064.165-.039.26.09.092.256.11.385.164.085-.07.011-.199 0-.3 0-.044.006-.083 0-.124-.008-.069-.037-.132-.038-.192 0-.273.221-.401.405-.51.08-.047.142-.129.211-.164.098-.048.17-.06.251-.105.146-.082.272-.147.386-.24.052-.124.005-.29.01-.413.052-.033.097.014.153.01.088-.02.096-.143.146-.193.029-.028.108-.048.144-.077.088-.068.116-.172.193-.202.028-.01.091-.008.134-.02.057-.015.139-.082.232-.114.06-.02.199-.025.222-.048.028-.03 0-.11.01-.154.046-.217.374-.263.567-.336.136-.051.276-.145.425-.117-.03.104-.168.067-.145.192.033.174.266-.05.327-.075.118-.05.32-.08.474-.136.135-.049.377-.124.25-.279-.106-.006-.158.125-.25.164-.064.01-.052-.053-.107-.058-.052-.006-.08.048-.134.039-.053-.01-.127-.092-.136-.154-.02-.16.136-.227.203-.347-.044-.145-.246-.03-.367-.086.011-.086.101-.146.202-.163.083-.014.27-.006.319.038.029.024 0 .085.048.125.05.044.11.04.173.03.024-.11-.142-.083-.124-.155.13-.085.342-.016.5-.04.093-.013.189-.077.27-.123.078-.044.178-.12.26-.048.022.078-.071.104-.115.143-.148.131-.3.281-.414.433.07.069.198.034.317.049.046.006.105.02.154.028.057.01.119.007.164.02.08.019.102.105.182.105.132 0 .134-.142.06-.231.023-.09.06-.138.028-.202-.06-.118-.277-.006-.289-.153-.007-.096.08-.092.116-.164-.016-.185.152-.198.134-.364-.008-.07-.067-.07-.115-.136-.025-.032-.037-.093-.066-.12a7.686 7.686 0 0 0-.682-.033zM8.108 6.013c.045.007.1.055.153.059.052.001.094-.028.126-.02.08.021.114.143.039.202-.063.008-.088-.027-.135-.019-.13.022-.181.278-.279.27-.092-.008-.142-.232-.048-.3.006-.057-.043-.067-.04-.124.028-.036.107-.074.183-.068zm-.434.03c.027.001.047.008.058.02-.013.102-.093.095-.173.143-.137.082-.216.208-.26.384-.012.052-.147.188-.212.174-.153-.032.042-.313.077-.356.038-.047.09-.089.135-.144.045-.052.073-.124.116-.153a.569.569 0 0 1 .26-.068zm1.14.346c.05 0 .094.009.114.029-.032.127-.306.093-.406.047.006-.048.082-.06.145-.067.044-.001.099-.01.148-.009zm-.623.234c.033 0 .066.007.1.016a.916.916 0 0 1-.337.164c-.073.023-.2.051-.212-.03-.015-.1.107-.077.174-.086.084-.012.176-.06.275-.064zm9.57.57a.182.182 0 0 0-.02.08c.007.047.058.092.069.155.006.033-.016.105 0 .135.046.09.168.025.255.03-.099-.136-.198-.271-.305-.4Zm.492.662a.702.702 0 0 1-.096.208c-.084.127-.198.133-.318.201-.1.057-.144.152-.203.25-.064.107-.103.172-.077.326a.759.759 0 0 1-.395.356c-.053.024-.125.033-.173.068-.039.027-.06.102-.115.163-.068.075-.139.107-.174.164-.028.044-.037.133-.068.192-.04.08-.128.12-.182.202-.025.038-.041.115-.069.164-.06.11-.165.19-.154.288.011.094.119.11.126.193 0 .046-.03.074-.029.125 0 .074.052.126.057.182.015.143-.048.2-.075.298-.013.046-.007.099-.02.135-.024.072-.124.136-.126.22 0 .06.062.109.067.193 0 .058-.028.12-.018.174.02.104.208.226.289.307.109.11.252.193.299.308.04.097.04.224.115.297.056.055.15.088.222.145.067.052.14.098.212.154.117.091.294.274.481.26.098-.008.198-.087.308-.107.114-.02.262-.03.377-.019.088.009.178.062.27.057.096-.006.207-.077.317-.125.088-.038.196-.08.315-.112.055-.366.084-.74.084-1.122 0-1.536-.46-2.959-1.248-4.145zm-12.429 2.52c-.16.009-.264.016-.355.057-.209.095-.169.376-.377.442-.072.023-.17.024-.25.04-.069.012-.152.049-.222.047-.02 0-.021-.004-.046-.012-.019.118-.04.264-.045.397.198.038.274.292.449.379.048.023.11.025.172.038.05.012.088.033.136.049.102.034.227.03.308.066.123.055.213.285.319.347.006.062-.012.145.01.192.049.067.12.052.202.096.098.053.128.19.221.232.033.014.113.012.164.028.128.038.17.186.279.153.072-.02.066-.094.078-.163.047-.051.099-.132.173-.134.12-.006.13.124.174.24.024.065.089.122.105.192.03.119.015.477-.01.548-.03.088-.15.125-.222.222-.035.046-.051.112-.077.144-.048.058-.118.073-.153.126-.02.03-.04.093-.059.134-.058.122-.135.209-.086.356.02.06.115.1.115.172 0 .083-.179.158-.192.25-.01.068.055.19.077.28.016.066.143.108.182.153.068.076.122.183.184.278.122.188.218.416.337.597.063.095.15.18.193.28.021.05.018.108.038.153.069.155.373.317.53.394.073.036.155.049.222.086.102.057.304.21.356.299.046.08.074.276.097.403.03.169 0 .299.01.481.005.1.037.199.038.298 0 .034-.02.033-.022.068l.004.038a7.418 7.418 0 0 0 3.698.657c.009-.015.017-.034.027-.048.046-.059.086-.11.116-.163.028-.176-.07-.298-.029-.452.046-.172.285-.278.453-.356.057-.027.116-.07.163-.086.116-.04.261-.019.367-.057.18-.066.2-.26.289-.424.042-.077.097-.155.105-.21.008-.05-.018-.097-.01-.156.009-.058.06-.108.077-.172.021-.083.03-.205.03-.298 0-.076-.035-.143-.039-.212-.012-.25.09-.277.183-.413.046-.067.064-.144.096-.193.155-.23.425-.342.405-.692-.006-.115-.079-.377-.164-.413-.049-.022-.16-.002-.231-.029-.228-.085-.362-.367-.598-.385-.05-.006-.096.021-.153.02-.093-.006-.234-.065-.338-.077-.065-.007-.153.02-.193 0-.06-.029-.066-.14-.115-.173-.038-.026-.114-.035-.173-.058-.095-.037-.17-.079-.28-.087-.033 0-.075.017-.115.01-.06-.01-.108-.081-.164-.115-.07-.043-.135-.063-.164-.124.064-.207-.111-.265-.154-.384-.02-.056-.011-.124-.029-.174-.025-.072-.096-.113-.173-.173-.14-.107-.263-.207-.463-.232-.087-.011-.174.026-.28.02-.112-.007-.253-.105-.337-.2-.081-.094-.121-.178-.192-.223-.067-.043-.157-.042-.203-.085-.02-.02-.017-.052-.039-.097-.033-.07-.09-.109-.048-.193-.077-.04-.079.073-.163.059-.075-.106-.138-.157-.308-.125-.078.014-.122.112-.212.115-.075.006-.133-.083-.231-.097-.075-.01-.159.02-.212.01-.082-.016-.107-.085-.182-.134-.056-.036-.163-.098-.193-.097-.097.007-.166.206-.3.135-.065-.082.106-.125.029-.202-.059-.058-.108.026-.154.059-.054.037-.104.073-.163.095-.133.05-.215.023-.319.077-.095.05-.1.132-.154.23-.044.081-.145.199-.212.203-.08.006-.158-.112-.231-.144-.22-.095-.328.085-.51.087-.17.006-.414-.274-.405-.433 0-.098.056-.245.067-.366.01-.096.076-.153.077-.24 0-.118-.155-.207-.23-.221-.18-.033-.43.072-.637-.01-.04-.066.046-.11.068-.174.013-.036.005-.084.019-.124.022-.061.087-.109.116-.173.021-.05.027-.121.048-.183.025-.07.072-.115.077-.164a.216.216 0 0 0-.068-.182zM8.4 12.41c.065.006.074.141.007.152-.072.01-.109-.113-.039-.145a.06.06 0 0 1 .032-.006z" style="display:inline;fill:#7ebaff;fill-opacity:1;fill-rule:nonzero;stroke:none;stroke-width:.0230769"/><path d="m14.176 6.325-1.978 1.18v3.017l1.978-1.18Zm-3.439.264c-1.813-.01-5.25.514-5.264 4.403-.019 4.718 3.517 3.64 4.318 3.165 1.541-.91 3.128-1.873 4.583-2.725.792-.463 2.274-.765 2.274 1.411s-1.61 2.85-2.472 2.804v-3.674l-1.978 1.167v4.193c.106.022.51.075 1.065.078 1.813.01 5.25-.514 5.264-4.403.019-4.718-3.517-3.64-4.318-3.165-1.541.91-3.128 1.873-4.583 2.725-.792.463-2.274.765-2.274-1.411s1.61-2.85 2.472-2.804v3.674l1.978-1.167V6.667a6.665 6.665 0 0 0-1.065-.078zm1.065 6.89-1.978 1.179v3.017l1.978-1.18z" style="fill:#0a396e;fill-opacity:1;fill-rule:evenodd;stroke-width:.0230769"/></svg>