<svg xmlns="http://www.w3.org/2000/svg" xmlns:xlink="http://www.w3.org/1999/xlink" xml:space="preserve" id="svg154" width="24" height="24" fill="none" version="1.1"><defs id="defs152"><linearGradient id="linearGradient1062"><stop id="stop1058" offset="0" style="stop-color:#0277bd;stop-opacity:1"/><stop id="stop1060" offset="1" style="stop-color:#60bcea;stop-opacity:1"/></linearGradient><linearGradient id="linearGradient8792"><stop id="stop8790" offset="0" style="stop-color:#000;stop-opacity:1"/></linearGradient><linearGradient xlink:href="#linearGradient1062" id="linearGradient1064" x1="50.811" x2="50.256" y1="92.88" y2="12.926" gradientTransform="matrix(.24444 0 0 .24444 -.222 -.222)" gradientUnits="userSpaceOnUse"/><linearGradient id="linearGradient29319"><stop id="stop29317" offset="0" style="stop-color:#d2d8db;stop-opacity:1"/></linearGradient><linearGradient id="fffff"><stop id="stop28389" offset="0" style="stop-color:#fff;stop-opacity:1"/></linearGradient><style id="current-color-scheme" type="text/css">.ColorScheme-Text{color:#31363b}.ColorScheme-Background{color:#eff0f1}.ColorScheme-Highlight{color:#3daee9}.ColorScheme-ViewText{color:#31363b}.ColorScheme-ViewBackground{color:#fcfcfc}.ColorScheme-ViewHover{color:#93cee9}.ColorScheme-ViewFocus{color:#3daee9}.ColorScheme-ButtonText{color:#31363b}.ColorScheme-ButtonBackground{color:#eff0f1}.ColorScheme-ButtonHover{color:#93cee9}.ColorScheme-ButtonFocus{color:#3daee9}</style></defs><path id="path6" d="M12 1C2 1 1 6 1 12c0 8 3 11 11 11s11-3 11-11c0-6-1-11-11-11Z" style="font-variation-settings:normal;display:inline;opacity:1;vector-effect:none;fill:url(#linearGradient1064);fill-opacity:1;stroke-width:1.11627;stroke-linecap:butt;stroke-linejoin:miter;stroke-miterlimit:4;stroke-dasharray:none;stroke-dashoffset:0;stroke-opacity:1;-inkscape-stroke:none;stop-color:#000;stop-opacity:1"/><path id="path10849" fill="#f2f8fa" d="M13.692 4.794c-.925.484-1.33 1.359-1.748 2.183-.266-.359-.333-.863-.436-1.31C10.69 6.743 10.33 8.531 10 9.607c-.466 1.53-1.059 2.468-1.906 3.015-.504.325-.956.491-1.93.712-.248.074-.554.142-.661.167a8.726 8.725 0 0 0 1.641 2.752c.015.018.032.034.047.051A8.698 8.697 0 0 0 8.47 17.47c.055.042.11.085.165.125a8.912 8.911 0 0 0 .625.402c.131.077.263.153.398.224.09.047.182.088.274.132.212.1.429.193.65.278.127.048.253.096.383.139.117.038.237.071.356.104.13.037.26.07.392.1.157.037.314.074.476.102.441.076.894.12 1.357.127h.003c.048 0 .095.003.143.003.13 0 .259-.004.388-.009.508-.79.573-2.023.403-2.747-.103-.41-.373-1.146-.355-1.174.018-.03.457.015.83.015.441 0 .765.016.999-.055.197-.06.433-.157.574-.15.623.032 1.412-.251 1.62-.806.065-.172.177-.394.249-.493.117-.162.121-.208.046-.462-.107-.36-.324-.659-.783-1.079-.348-.317-.46-.35-.477-.69-.013-.25.054-.426-.081-.553-.154-.145-.606-.052-.632-.055-.16-.188-.314-.383-.017-.654.224-.205.265-.282.265-.507 0-.22-.04-.3-.235-.47-.128-.113-.267-.204-.308-.204-.04 0-.247-.165-.458-.366-.41-.39-.727-.46-1.046-.46-.258 0-.546-.063-.546-.436.344-1.243 1.67-1.897 2.184-2.184-1.304-.185-2.192.088-3.057.874-.04-.457.388-1.453.437-1.747z" style="stroke-width:.323643"/></svg>