<svg xmlns="http://www.w3.org/2000/svg" xmlns:xlink="http://www.w3.org/1999/xlink" xml:space="preserve" id="svg154" width="24" height="24" fill="none" version="1.1"><defs id="defs152"><linearGradient id="linearGradient541"><stop id="stop537" offset="0" style="stop-color:#333;stop-opacity:1"/><stop id="stop539" offset="1" style="stop-color:#bbb;stop-opacity:1"/></linearGradient><linearGradient xlink:href="#linearGradient541" id="linearGradient543" x1="52.685" x2="49.489" y1="95.511" y2="-7.273" gradientTransform="matrix(.24444 0 0 .24444 -.222 -.222)" gradientUnits="userSpaceOnUse"/><style id="current-color-scheme" type="text/css">.ColorScheme-Text{color:#31363b}.ColorScheme-Background{color:#eff0f1}.ColorScheme-Highlight{color:#3daee9}.ColorScheme-ViewText{color:#31363b}.ColorScheme-ViewBackground{color:#fcfcfc}.ColorScheme-ViewHover{color:#93cee9}.ColorScheme-ViewFocus{color:#3daee9}.ColorScheme-ButtonText{color:#31363b}.ColorScheme-ButtonBackground{color:#eff0f1}.ColorScheme-ButtonHover{color:#93cee9}.ColorScheme-ButtonFocus{color:#3daee9}</style></defs><path id="path6" d="M12 1C2 1 1 6 1 12c0 8 3 11 11 11s11-3 11-11c0-6-1-11-11-11Z" style="font-variation-settings:normal;display:inline;opacity:1;vector-effect:none;fill:url(#linearGradient543);fill-opacity:1;stroke-width:1.11627;stroke-linecap:butt;stroke-linejoin:miter;stroke-miterlimit:4;stroke-dasharray:none;stroke-dashoffset:0;stroke-opacity:1;-inkscape-stroke:none;stop-color:#000;stop-opacity:1"/><g id="g9439" fill-rule="evenodd" transform="translate(23.359 4.069) scale(.28022)"><g id="g9452" transform="translate(-72.536 -3.697)"><path id="path9435" fill="#c8c8c8" d="M38.747 9.09A28.47 22.63 17.344 0 0 4.826 22.204a28.47 22.63 17.344 0 0 20.43 30.088 28.47 22.63 17.344 0 0 33.92-13.114A28.47 22.63 17.344 0 0 38.746 9.09m1.366 8.757a21.235 16.87 17.344 0 1 15.24 22.435 21.235 16.87 17.344 0 1-25.3 9.771 21.235 16.87 17.344 0 1-15.238-22.432 21.235 16.87 17.344 0 1 25.296-9.775" color="#000"/><path id="path9437" fill="#4f61eb" d="m55.586 56.513-9.13.005-6.223-9.197s-1.002-1.723-1.618-2.223c-.513-.416-.733-.565-1.241-.565h-1.155l.003 11.973-7.927.004v-30.6h17.258s6.994 1.291 7.136 8.219c.159 7.723-6.76 9.995-6.76 9.995.95.389 8.58 10.6 9.658 12.383m-13.683-23.96-5.604-.004-.002 5.203 5.606-.001s2.597-.008 2.597-2.646c0-2.692-2.597-2.55-2.597-2.55"/></g></g></svg>