<svg xmlns="http://www.w3.org/2000/svg" xmlns:xlink="http://www.w3.org/1999/xlink" xml:space="preserve" id="svg154" width="24" height="24" fill="none" version="1.1"><defs id="defs152"><linearGradient id="linearGradient541"><stop id="stop537" offset="0" style="stop-color:#1f8ff8;stop-opacity:1"/><stop id="stop539" offset="1" style="stop-color:#8bbefd;stop-opacity:1"/></linearGradient><linearGradient xlink:href="#linearGradient541" id="linearGradient543" x1="52.685" x2="49.489" y1="95.511" y2="-7.273" gradientTransform="matrix(.24444 0 0 .24444 -.222 -.222)" gradientUnits="userSpaceOnUse"/><style id="current-color-scheme" type="text/css">.ColorScheme-Text{color:#31363b}.ColorScheme-Background{color:#eff0f1}.ColorScheme-Highlight{color:#3daee9}.ColorScheme-ViewText{color:#31363b}.ColorScheme-ViewBackground{color:#fcfcfc}.ColorScheme-ViewHover{color:#93cee9}.ColorScheme-ViewFocus{color:#3daee9}.ColorScheme-ButtonText{color:#31363b}.ColorScheme-ButtonBackground{color:#eff0f1}.ColorScheme-ButtonHover{color:#93cee9}.ColorScheme-ButtonFocus{color:#3daee9}</style></defs><path id="path6" d="M12 1C2 1 1 6 1 12c0 8 3 11 11 11s11-3 11-11c0-6-1-11-11-11Z" style="font-variation-settings:normal;display:inline;opacity:1;vector-effect:none;fill:url(#linearGradient543);fill-opacity:1;stroke-width:1.11627;stroke-linecap:butt;stroke-linejoin:miter;stroke-miterlimit:4;stroke-dasharray:none;stroke-dashoffset:0;stroke-opacity:1;-inkscape-stroke:none;stop-color:#000;stop-opacity:1"/><path id="path9603" fill="#2b2b2c" d="M6.808 18.121c-1.646-3.554-2.098-7.537-1.123-9.896.179-.434.107-.4 1.917-.902.102-.028.495-.336.874-.684 2.147-1.971 5.02-1.95 7.274.055.634.565.819.666 1.55.853.753.192.846.246 1.014.582.101.204.267.773.369 1.264.242 1.17.163 3.656-.158 5.002-.45 1.889-1.506 4.49-1.787 4.408-.077-.023-.311-.365-.522-.76-.365-.781-1.01-1.479-1.666-1.719-1.118-.407-3.818-.258-4.95-.015-1.297.28-1.327.837-1.742 1.72-.239.507-.438.795-.55.795-.11 0-.295-.26-.5-.703z" style="stroke-width:.379136"/></svg>