<svg xmlns="http://www.w3.org/2000/svg" xmlns:xlink="http://www.w3.org/1999/xlink" width="24" height="24" fill="none"><defs><radialGradient id="a" cx="0" cy="0" r="1" gradientTransform="matrix(0 22 -22 0 12 1)" gradientUnits="userSpaceOnUse"><stop offset="0" stop-color="#8FC8FF" style="stop-color:#e06150;stop-opacity:1"/><stop offset="1" stop-color="#0056A8" style="stop-color:#e06150;stop-opacity:1"/></radialGradient><radialGradient id="b" cx="0" cy="0" r="1" gradientTransform="matrix(0 22 -22 0 12 1)" gradientUnits="userSpaceOnUse"><stop offset="0" stop-color="#8FC8FF" style="stop-color:#f6f6f6;stop-opacity:1"/><stop offset="1" stop-color="#0056A8" style="stop-color:#cfcfcf;stop-opacity:1"/></radialGradient><radialGradient xlink:href="#a" id="c" cx=".179" cy="-1.748" r="1" fx=".179" fy="-1.748" gradientTransform="matrix(0 90.05947 -90.00681 0 -107.37 -11.19)" gradientUnits="userSpaceOnUse"/></defs><path d="M50 5C9.09 5 5 25.455 5 50c0 32.727 12.273 45 45 45 32.727 0 45-12.273 45-45 0-24.545-4.09-45-45-45Z" style="font-variation-settings:normal;display:inline;opacity:1;vector-effect:none;fill:url(#c);fill-opacity:1;stroke-width:4.56656;stroke-linecap:butt;stroke-linejoin:miter;stroke-miterlimit:4;stroke-dasharray:none;stroke-dashoffset:0;stroke-opacity:1;-inkscape-stroke:none;stop-color:#000;stop-opacity:1" transform="matrix(.24444 0 0 .24444 -.222 -.222)"/><g style="display:inline"><rect width="2" height="2" x="12" y="-3" rx="0" ry="0" style="display:inline;fill:#3947be;fill-opacity:1;stroke-width:22.6872;paint-order:markers stroke fill"/><rect width="2" height="2" x="9" y="-3" rx="0" ry="0" style="display:inline;fill:#6c7ad8;fill-opacity:1;stroke-width:22.6873;paint-order:markers stroke fill"/><rect width="2" height="2" x="6" y="-3" rx="0" ry="0" style="display:inline;fill:#3c3;fill-opacity:1;stroke-width:22.6873;paint-order:markers stroke fill"/><rect width="2" height="2" x="3" y="-3" rx="0" ry="0" style="display:inline;fill:#ffc328;fill-opacity:1;stroke-width:22.6872;paint-order:markers stroke fill"/><rect width="2" height="2" y="-3" rx="0" ry="0" style="display:inline;fill:#cc5e55;fill-opacity:1;stroke-width:22.6873;paint-order:markers stroke fill"/><rect width="2" height="2" x="-3" y="12" rx="0" ry="0" style="display:inline;fill:#0bb1cb;fill-opacity:1;stroke-width:22.6872;paint-order:markers stroke fill"/><rect width="2" height="2" x="-3" y="9" rx="0" ry="0" style="display:inline;fill:#2a92c9;fill-opacity:1;stroke-width:22.6873;paint-order:markers stroke fill"/><rect width="2" height="2" x="-3" y="6" rx="0" ry="0" style="display:inline;fill:#069;fill-opacity:1;stroke-width:22.6873;paint-order:markers stroke fill"/><rect width="2" height="2" x="-3" y="3" rx="0" ry="0" style="display:inline;fill:#002a44;fill-opacity:1;stroke-width:22.6873;paint-order:markers stroke fill"/><rect width="2" height="2" x="-3" rx="0" ry="0" style="display:inline;fill:#2c2d3d;fill-opacity:1;stroke-width:22.6873;paint-order:markers stroke fill"/><rect width="2" height="2" x="-3" y="-3" rx="0" ry="0" style="display:inline;fill:#16171c;fill-opacity:1;stroke-width:22.6872;paint-order:markers stroke fill"/></g><g stroke-width=".813"><path fill="#ffde75" d="M12 5C9.576 5 7.153 6.615 7.153 9.038c0 2.424 2.154 2.962 2.559 5.116l1.212 1.077h2.152l1.195-1.077c.42-2.039 2.575-2.693 2.576-5.115C16.847 6.615 14.423 5 11.999 5Z"/><path fill="#e6e6e6" d="M9.715 14.154a.842.842 0 0 0-.447.765.8.8 0 0 0 .237.581.815.815 0 0 0-.236.583c0 .318.143.564.428.738a.827.827 0 0 0-.123.429c0 .28.099.496.299.649.197.15.441.227.733.227.126.267.315.479.569.637.25.157.525.237.825.237.295 0 .565-.078.819-.236a1.474 1.474 0 0 0 .57-.638c.291 0 .531-.076.73-.227.2-.155.302-.369.302-.649a.848.848 0 0 0-.125-.429c.285-.176.425-.42.425-.738a.808.808 0 0 0-.236-.583.806.806 0 0 0 .236-.582.84.84 0 0 0-.443-.764z"/><path fill="#fff" d="M9.307 14.692a.816.816 0 0 0-.034.22c0 .112.012.222.05.319h5.335a.856.856 0 0 0 .067-.32.817.817 0 0 0-.034-.219zm.033 1.077a.85.85 0 0 0-.067.32c0 .08.015.148.033.219h5.385a.88.88 0 0 0 .033-.22.856.856 0 0 0-.067-.318zm.337 1.077c-.07.13-.1.27-.1.404 0 .047.01.092.016.135h4.813c0-.044.016-.088.016-.135a.864.864 0 0 0-.1-.404zm.707-8.346-.78.538 1.857 2.424v2.692h1.077v-2.692l1.857-2.423-.78-.539L12 10.721Z"/></g></svg>