<svg xmlns="http://www.w3.org/2000/svg" width="24" height="24" viewBox="0 0 6.35 6.35"><path d="M3.175.265C.529.265.265 1.587.265 3.175c0 2.117.793 2.91 2.91 2.91s2.91-.793 2.91-2.91c0-1.588-.264-2.91-2.91-2.91z" style="font-variation-settings:normal;display:inline;vector-effect:none;fill:#84d45e;fill-opacity:1;stroke-width:.295341;stroke-linecap:butt;stroke-linejoin:miter;stroke-miterlimit:4;stroke-dasharray:none;stroke-dashoffset:0;stroke-opacity:1;-inkscape-stroke:none;stop-color:#000"/><g style="stroke-width:2.52536"><path fill="#2a2a2a" d="M10.512 5.863 9.47 9.685h.695l1.042-3.822zm4.517 0-1.043 3.822h.695l1.043-3.822zm1.914 1.042a1.69 1.69 0 0 0-.66.126 1.39 1.39 0 0 0-.496.34 1.447 1.447 0 0 0-.305.514c-.07.197-.106.415-.106.654 0 .272.038.506.112.703.075.197.176.362.305.496.128.13.278.226.448.29.442.153.833.08 1.22-.114v.138c0 .302 0 .549-.107.66-.15.138-.397.207-.74.207-.183 0-.36-.019-.53-.056a2.501 2.501 0 0 1-.421-.12l-.106.51a3.28 3.28 0 0 0 1.044.169c.522 0 .912-.113 1.17-.34.256-.226.385-.59.385-1.093V7.075c-.397-.087-.787-.173-1.213-.17zm.518.585v1.909c-.346.252-.587.265-.94.157-.264-.08-.377-.315-.473-.528-.058-.129-.07-.295-.07-.483 0-.34.063-.63.25-.817.382-.383.775-.318 1.233-.239z" style="stroke-width:2.52536" transform="matrix(.39598 0 0 .39598 -2.295 -.247)"/><path fill="#f9f9f9" d="m11.207 5.863 1.042 3.822h.695l-1.042-3.822zm1.737 3.822h.695V8.99h-.695z" style="stroke-width:2.52536" transform="matrix(.39598 0 0 .39598 -2.295 -.247)"/></g></svg>