<svg xmlns="http://www.w3.org/2000/svg" xmlns:xlink="http://www.w3.org/1999/xlink" xml:space="preserve" id="svg154" width="24" height="24" fill="none" version="1.1"><defs id="defs152"><linearGradient id="linearGradient541"><stop id="stop537" offset="0" style="stop-color:#374651;stop-opacity:1"/><stop id="stop539" offset="1" style="stop-color:#535d6c;stop-opacity:1"/></linearGradient><linearGradient xlink:href="#linearGradient541" id="linearGradient543" x1="50.384" x2="49.489" y1="82.088" y2="-7.273" gradientTransform="matrix(.24444 0 0 .24444 -.222 -.222)" gradientUnits="userSpaceOnUse"/><style id="current-color-scheme" type="text/css"></style></defs><path id="path6" d="M12 1C2 1 1 6 1 12c0 8 3 11 11 11s11-3 11-11c0-6-1-11-11-11Z" style="font-variation-settings:normal;display:inline;opacity:1;vector-effect:none;fill:url(#linearGradient543);fill-opacity:1;stroke-width:1.11627;stroke-linecap:butt;stroke-linejoin:miter;stroke-miterlimit:4;stroke-dasharray:none;stroke-dashoffset:0;stroke-opacity:1;-inkscape-stroke:none;stop-color:#000;stop-opacity:1"/><g id="g10992" stroke-width=".927" transform="translate(4.378 -59.532) scale(.2382)"><path id="path10984" fill="#20aa73" d="m25.846 294.5-6.844 4.56v7.036L36.4 294.5l-17.398-11.604v7.036z" class="st1"/><path id="path10986" fill="#3989da" d="m45.002 310.66-6.845-4.56 6.845-4.568v-7.036L27.604 306.1l17.398 11.595Z" class="st2"/><path id="path10988" fill="#20aa73" d="m57.372 286.3-4.877 3.246a23.2 23.2 0 0 1 2.705 10.753 23.2 23.2 0 0 1-23.2 23.2 23.2 23.2 0 0 1-17.85-8.442l-4.86 3.234c5.316 6.698 13.514 11.008 22.71 11.008 15.99 0 29-13.009 29-29 0-5.077-1.325-9.844-3.628-13.999z"/><path id="path10990" fill="#3989da" d="M32 271.3c-15.991 0-29 13.009-29 29a28.8 28.8 0 0 0 3.146 13.118l4.9-3.26A23.2 23.2 0 0 1 8.8 300.3 23.2 23.2 0 0 1 32 277.1a23.2 23.2 0 0 1 17.19 7.678l4.889-3.252C48.756 275.276 40.834 271.3 32 271.3Z"/></g></svg>