<svg xmlns="http://www.w3.org/2000/svg" width="24" height="24" viewBox="0 0 6.35 6.35"><defs><radialGradient id="a" cx="0" cy="0" r="1" fx="0" fy="0" gradientTransform="rotate(90 1.455 1.72) scale(5.82072)" gradientUnits="userSpaceOnUse" spreadMethod="pad"><stop offset="0" style="stop-color:#c9dcf1;stop-opacity:1"/><stop offset="1" style="stop-color:#5494de;stop-opacity:1"/></radialGradient></defs><path d="M2.538.295A.335.335 0 0 0 2.63.283c.38-.025.76-.024 1.14.002a3.62 3.62 0 0 1 1 .225c.536.22.903.603 1.101 1.148.112.328.18.665.2 1.011.028.436.018.87-.03 1.304a3.166 3.166 0 0 1-.237.878c-.225.487-.59.824-1.094 1.008a4.125 4.125 0 0 1-1.261.218 5.643 5.643 0 0 1-1.443-.109C1.13 5.774.588 5.24.385 4.366a5.025 5.025 0 0 1-.12-1.194c-.009-.427.036-.85.137-1.266C.617 1.09 1.135.584 1.957.389c.191-.047.386-.079.581-.094Z" style="fill:url(#a);fill-rule:evenodd;stroke:none;stroke-width:.352683;stroke-dasharray:none"/><g transform="translate(.666 -82.31) scale(.29628)"><path fill="#557cae" d="M1.677 284.97a7.672 7.672 0 0 0-.883 3.563 7.672 7.672 0 0 0 .882 3.561h13.58a7.672 7.672 0 0 0 .884-3.562 7.672 7.672 0 0 0-.883-3.563H1.677Z" style="paint-order:stroke markers fill"/><circle cx="8.466" cy="288.53" r="7.144" fill="#71a5e8" style="paint-order:stroke markers fill"/><path d="M8.467 282.713a5.82 5.82 0 0 0-4.498 2.131v1.458a5.027 5.027 0 0 0-.53 2.231 5.027 5.027 0 0 0 .53 2.242v1.446a5.82 5.82 0 0 0 4.498 2.133 5.82 5.82 0 0 0 4.498-2.131v-1.458a5.027 5.027 0 0 0 .529-2.232 5.027 5.027 0 0 0-.53-2.24v-1.448a5.82 5.82 0 0 0-4.497-2.132z" opacity=".25" paint-order="stroke markers fill"/><path fill="#fff" d="M5.169 285.622a.16.16 0 0 0-.14.157v2.861a.16.16 0 0 0 .156.158h1.43v.529H5.558v.529h1.927v-1.588h-1.81a.113.113 0 0 1-.108-.108v-1.9c-.002-.05.034-.099.082-.108a.103.103 0 0 1 .025 0h2.944c.054 0 .107.05.107.107v.76h.537v-1.24a.163.163 0 0 0-.157-.157m-3.935 0" opacity=".5"/><path fill="#fff" d="M7.816 287.21a.165.165 0 0 0-.143.157v2.86c0 .083.076.158.16.158H9.26v.792h1.059v-.792h1.429a.164.164 0 0 0 .158-.158v-2.86a.165.165 0 0 0-.158-.158m-3.453.53a.064.064 0 0 1 .02 0h2.949a.11.11 0 0 1 .106.106v1.905a.11.11 0 0 1-.106.106h-2.95a.11.11 0 0 1-.106-.106v-1.905a.11.11 0 0 1 .087-.107m-.093 3.175v.53h3.175v-.53m-3.175 0"/></g></svg>