<?xml version="1.0" encoding="UTF-8" standalone="no"?>
<svg
   xml:space="preserve"
   width="24"
   height="24"
   fill="none"
   version="1.1"
   id="svg21"
   sodipodi:docname="thunderbird-3.0.svg"
   inkscape:export-filename="../../../../../../../../svg/thunderbird-icon.pdf"
   inkscape:export-xdpi="96"
   inkscape:export-ydpi="96"
   xmlns:inkscape="http://www.inkscape.org/namespaces/inkscape"
   xmlns:sodipodi="http://sodipodi.sourceforge.net/DTD/sodipodi-0.dtd"
   xmlns:xlink="http://www.w3.org/1999/xlink"
   xmlns="http://www.w3.org/2000/svg"
   xmlns:svg="http://www.w3.org/2000/svg"><sodipodi:namedview
     id="namedview21"
     pagecolor="#ffffff"
     bordercolor="#000000"
     borderopacity="0.25"
     inkscape:showpageshadow="2"
     inkscape:pageopacity="0.0"
     inkscape:pagecheckerboard="0"
     inkscape:deskcolor="#d1d1d1" /><defs
     id="defs21"><linearGradient
       id="linearGradient1"
       inkscape:collect="always"><stop
         style="stop-color:#ffcc00;stop-opacity:1;"
         offset="0"
         id="stop1" /><stop
         style="stop-color:#ff80e5;stop-opacity:1"
         offset="1"
         id="stop2" /></linearGradient><linearGradient
       id="linearGradient11962"
       inkscape:swatch="gradient"><stop
         style="stop-color:#000000;stop-opacity:1;"
         offset="0.14880952"
         id="stop11961" /><stop
         style="stop-color:#000000;stop-opacity:0;"
         offset="1"
         id="stop11962" /></linearGradient><linearGradient
       inkscape:collect="always"
       xlink:href="#linearGradient1"
       id="linearGradient2"
       x1="8.5702915"
       y1="17.689655"
       x2="8.9045095"
       y2="-1.4084882"
       gradientUnits="userSpaceOnUse" /></defs><g
     id="g1"
     inkscape:groupmode="layer"
     inkscape:label="1"><path
       id="path2-2"
       d="m 7.219,0.836 c 0.09,0 0.176,-0.012 0.258,-0.035 1.074,-0.071 2.152,-0.067 3.23,0.008 0.969,0.078 1.926,0.289 2.836,0.636 1.519,0.625 2.555,1.711 3.121,3.254 0.313,0.93 0.508,1.887 0.566,2.867 0.079,1.231 0.047,2.469 -0.085,3.696 -0.106,0.859 -0.333,1.695 -0.672,2.488 -0.641,1.383 -1.676,2.336 -3.102,2.859 C 12.211,17 11.023,17.207 9.793,17.227 8.426,17.301 7.051,17.195 5.707,16.918 3.227,16.367 1.691,14.852 1.113,12.375 0.867,11.266 0.754,10.129 0.777,8.992 0.746,7.785 0.879,6.578 1.164,5.402 1.773,3.09 3.242,1.656 5.57,1.102 6.109,0.969 6.66,0.879 7.219,0.836 Z"
       transform="scale(1.3333333)"
       style="fill:url(#linearGradient2);fill-opacity:1;fill-rule:evenodd;stroke:none" /><path
       style="fill:#1a1a1a;stroke:none;stroke-width:0.719831"
       d="M 7.7381137,8.4870824 7.5329276,9.9379914 7.2319827,11.760064 h 0.033742 l 0.067484,-0.168711 h 0.033742 l -0.067484,0.269937 c 0.3189965,-0.0066 0.7679533,0.08909 0.8435516,-0.269937 h 0.033742 v 0.303679 h 0.033742 l 0.067484,-0.168711 h 0.033742 c 0.010129,0.130393 0.036752,0.180462 0.1687103,0.202453 -0.073488,0.305135 -0.076041,0.621149 -0.2877971,0.875445 -0.1689873,0.202935 -0.5007285,0.219248 -0.5855132,0.50798 -0.045097,0.153577 0.1132128,0.255989 0.1162485,0.404904 0.00669,0.328325 -0.1169875,0.87905 -0.2451765,1.180973 -0.064247,0.15132 -0.2020581,0.262417 -0.2840217,0.404904 -0.1750836,0.304371 -0.3122715,1.058145 -0.055716,1.346532 0.2915014,0.32767 0.9432843,0.630266 1.3757183,0.459373 0.2782753,-0.109972 0.5527612,-0.460446 0.8772938,-0.38793 0.1460105,0.03262 0.7359913,0.360312 0.7751833,0.505974 0.05143,0.191136 -0.101577,0.279972 0.03462,0.471738 -0.801468,0.142955 -1.0393899,1.335643 -0.2699373,1.690436 0.7969893,0.367491 1.4508723,0.04948 2.2269763,-0.145043 0.223441,-0.056 0.443156,-0.0204 0.674842,-0.09448 -0.257293,0.491064 -0.437973,1.367914 0.33742,1.484651 -0.119309,-0.374409 -0.538584,-0.763109 0.06748,-0.974849 0.405599,-0.141703 0.78968,0.0054 1.180973,0.117082 0.625417,0.178512 1.27699,0.386552 1.923298,0.181962 0.837019,-0.264959 1.515683,-1.127964 1.165324,-2.02356 -0.159205,-0.406964 -0.477131,-0.659575 -0.755942,-0.97852 -0.155051,-0.177372 -0.205721,-0.415114 -0.409512,-0.554584 -0.295522,-0.202248 -0.63411,0.03869 -0.944648,-0.05277 0.604723,-1.086192 0.872539,-2.239481 0.278164,-3.407948 -0.189725,-0.372976 -0.516675,-0.822597 -0.919264,-0.97852 l 0.404905,-0.607357 h 0.03374 l -0.101227,0.674841 0.236195,-0.16871 v 0.236194 c 0.182741,-0.141039 0.303056,-0.345202 0.337421,-0.573615 h 0.03374 l 0.03374,0.539873 c 0.300823,-0.257871 0.455812,-0.829691 0.472388,-1.214714 h 0.03374 l 0.03374,0.877293 c 0.154704,-0.321916 0.126791,-0.828011 0.135463,-1.180972 0.01862,-0.7570396 0.05453,-1.5054766 -0.04857,-2.2607216 -0.04236,-0.310336 -0.254224,-0.781722 -0.215043,-1.079617 0.04244,-0.3226656 0.917054,-0.5426501 0.794371,-0.9098113 C 16.885048,6.1275884 16.620658,6.0364329 16.477309,5.9647589 16.011811,5.7320099 15.486905,5.6549112 15.026401,5.4357947 14.692642,5.2769862 14.410497,4.8839233 14.115365,4.6548329 13.373209,4.0787475 12.497774,3.6906766 11.58471,3.4814888 11.234599,3.4012762 10.813298,3.2923858 10.471222,3.4353797 9.5177447,3.8339466 8.7148373,4.5947031 8.2533573,5.5177805 8.0784954,5.8675486 8.0467459,6.5133898 7.7950015,6.7889918 7.4752463,7.1390504 6.9988746,7.3660884 6.6584979,7.7110144 c -0.1057828,0.107197 -0.3127467,0.290142 -0.248249,0.465177 0.042625,0.115679 0.2103854,0.154947 0.3156028,0.184488 0.3304518,0.09277 0.674976,0.08378 1.012262,0.126403 M 11.011095,3.5607406 c 0.814348,0.1883967 1.45153,0.7498826 1.889555,1.4509089 C 12.231214,4.5400874 11.818421,3.8367773 10.977353,3.5944827 l 0.03374,-0.033742 M 10.504964,3.5944827 9.8665197,4.4042923 9.1890226,5.8214591 H 9.1552805 C 9.2759536,4.9260586 9.7595657,4.1041673 10.504964,3.5944827 m 2.429428,1.4509088 0.03374,0.067484 -0.03374,-0.067484 m 1.282199,0.3711628 v 0.033742 c -1.089347,0 -2.214461,0.055209 -3.27298,0.333516 C 10.090883,6.0080125 9.2919576,6.4000838 8.4466971,6.6312687 8.7662165,6.3675197 9.2778205,6.2244578 9.6614117,6.0711398 10.328983,5.8043172 11.037749,5.5564395 11.75342,5.4600334 c 0.816737,-0.1100201 1.642134,-0.043479 2.463171,-0.043479 m -5.0725577,0.4611412 -0.011247,0.022495 0.011247,-0.022495 m 7.6032127,0.3824105 v 0.033742 c -1.381,-9.07e-4 -2.735932,-0.1942125 -4.116532,0.00916 -1.292975,0.1904744 -2.579742,0.5528875 -3.8128541,0.9809715 -0.6053801,0.210163 -1.2049521,0.494444 -1.8220716,0.66323 0.5159216,-0.42587 1.4329144,-0.616832 2.058266,-0.845347 1.4824157,-0.5417043 3.0378067,-1.0078335 4.6226637,-1.0766223 1.026635,-0.04456 2.048237,0.2264049 3.070528,0.2348661 m -8.3342909,0.3711627 -0.033742,0.033742 0.033742,-0.033742 m 2.7331079,1.0460043 c -0.04109,0.150139 -0.07829,0.287707 -0.236194,0.33742 l 0.236194,-0.33742 m 0.674841,0 c -0.148181,0.514373 -0.448391,0.92574 -0.472389,1.48465 h 0.03374 c 0.07626,-0.50911 0.409579,-1.051234 0.674846,-1.48465 h 0.03374 c -0.1994,0.516902 -0.361127,1.064899 -0.404905,1.619619 h 0.03375 l 0.134968,-0.472389 h 0.03374 l 0.06748,0.911036 h 0.03375 c 0.03724,-0.46798 0.250437,-0.928231 0.506131,-1.315941 h 0.03374 l -0.101223,0.877294 h 0.03374 l 0.236194,-1.079746 h 0.03374 c -4.21e-4,0.638323 -0.0094,1.192493 0.134968,1.8220706 h 0.06748 l 0.438647,-0.8098086 h 0.03374 l 0.03374,0.303678 h 0.03374 l 0.269937,-1.754587 h 0.03374 l 0.134969,0.708583 c 0.169746,0.142806 0.185389,0.62765 0.202452,0.843552 -0.486294,0.004 -1.192495,0.647461 -0.729021,1.1395236 0.427822,0.454214 0.910769,-0.298471 0.965216,-0.6671346 h 0.03374 l 0.03377,0.5061316 c 0.380814,-0.238103 -0.05764,-0.6084806 -0.08089,-0.9110366 -0.02316,-0.301506 0.143439,-0.674047 0.18212,-0.97852 0.157209,0.09184 0.125334,0.242145 0.144601,0.404905 0.04224,0.356809 0.05785,0.720195 0.05785,1.079746 h 0.03374 l 0.168712,-0.337421 h 0.03374 c 0,0.34557 -0.106213,0.5965976 -0.241271,0.9110366 -0.123123,0.28665 -0.237173,0.669867 -0.446745,0.904813 -0.687178,0.770379 -2.105547,0.984509 -3.056833,0.754537 -0.357519,-0.08643 -0.417576,-0.642018 -0.77661,-0.786847 -0.211622,-0.08536 -0.4398173,0.05107 -0.6410993,0.106017 -0.2338019,-0.73119 -0.2368879,-1.4708346 -0.2037771,-2.2269766 0.022733,-0.519148 0.043122,-0.954896 0.5074594,-1.282199 l -0.3374213,1.349683 h 0.03374 l 0.134968,-0.303679 h 0.03374 l 0.06748,0.573615 h 0.03374 c 0.07001,-0.393972 0.329499,-0.807167 0.53313,-1.14723 0.0956,-0.159655 0.166205,-0.351309 0.377906,-0.303679 l -0.23619,1.046004 h 0.03374 c 0.114964,-0.276132 0.384071,-0.969482 0.742326,-0.911035 v -0.03374 l -0.101226,-0.03374 0.404905,-0.506131 M 6.96204,7.9472134 v 0.03374 l -0.1349683,0.03374 0.1349683,-0.06748 m 7.625708,0.03374 0.03374,0.371163 -0.101227,-0.03374 0.06748,-0.337421 m -7.7944143,0.03374 -0.033742,0.03374 0.033742,-0.03374 m 7.0183513,0.539873 0.101226,-0.03374 -0.101226,0.03374 m -3.644144,1.7545886 -0.03374,-0.168712 c 0.256464,0.332459 0.5595,0.643834 1.012237,0.439663 0.299751,-0.135179 0.609785,-0.8913016 0.331119,-1.1590246 -0.296741,-0.285093 -0.876397,-0.308814 -1.171493,-0.019423 -0.236809,0.232231 -0.4579789,0.6739576 -0.138118,0.9074946 M 11.31779,9.4377974 c 0.13465,0.01933 0.147851,0.255961 0,0.232914 -0.115095,-0.01794 -0.134272,-0.252197 0,-0.232914 m 2.878724,0.08691 c 0.117575,-0.03954 0.199319,0.192265 0.07818,0.213492 -0.103396,0.01812 -0.191547,-0.175366 -0.07818,-0.213492 m -2.746777,0.5145146 c -0.09074,0.603144 -0.810339,0.704209 -1.14723,0.236195 0.178865,-0.0199 0.243404,0.100539 0.4054,0.138275 0.326888,0.07615 0.540985,-0.16752 0.74183,-0.37447 m 2.733108,0.101226 c -0.125655,0.393243 -0.812885,0.62721 -0.843552,0.06748 h 0.03374 c 0.272766,0.366281 0.535904,0.166624 0.809809,-0.06748 m 0.202456,0.168711 0.03374,0.03374 -0.03374,-0.03374 m -2.530655,0.944778 0.06748,0.269937 h 0.03374 c 0.02766,-0.362535 0.453422,-0.247152 0.708583,-0.236195 l -0.03374,0.236195 h 0.03374 l 0.101226,-0.269937 c -0.318915,-0.119646 -0.589574,-0.09037 -0.911035,0 m 0.742329,3.441691 h 0.03374 c 0.02716,-0.264024 -0.121393,-0.402209 -0.198781,-0.641099 -0.03614,-0.111545 -0.0064,-0.227859 -0.04293,-0.337421 -0.06636,-0.19912 -0.212818,-0.359074 -0.02822,-0.539873 l 0.33742,1.214714 h 0.03374 c 0.06951,-0.300468 0.320904,-0.673269 0.309225,-0.97852 -0.01204,-0.314712 -0.396515,-0.564866 -0.646646,-0.404904 l 0.16871,-0.269937 0.742326,0.674841 0.134968,-0.404904 c 0.465286,0.221395 0.640777,0.692766 0.641099,1.180972 l -0.202445,-0.06748 v 0.03374 l 0.202453,0.168711 -0.843552,-0.472389 c 0.300907,0.325943 0.927822,0.337063 0.776068,0.877293 l -1.079747,0.303679 -0.02036,1.315941 -0.283319,0.371162 h -0.03374 c -0.04974,-0.630197 -0.161872,-1.412694 0,-2.024524 h -0.03374 c -0.116561,0.428243 -0.09501,0.937435 -0.06446,1.383425 0.01442,0.210579 0.104757,0.540897 -0.004,0.736571 -0.268423,0.483136 -1.186848,0.715278 -1.686166,0.795673 -0.150349,0.02421 -0.516391,0.135644 -0.601578,-0.0553 -0.04301,-0.0964 0.04528,-0.222804 0.02979,-0.329714 -0.03972,-0.273965 -0.236689,-0.75073 -0.162812,-1.012265 0.09043,-0.320141 0.337191,-0.473937 0.295946,-0.843551 l 0.101227,-0.03374 v -0.03374 C 10.3485,15.325759 9.5241568,15.339259 9.8219067,15.01967 9.9244687,14.909587 10.44117,14.902509 10.60615,14.864342 v -0.03374 c -0.216152,0.04941 -0.426496,0.03989 -0.6411003,0.0786 -0.15156,0.02734 -0.258564,0.142156 -0.4062322,0.175064 -0.4898361,0.109159 -1.0038794,-0.07588 -0.9370729,-0.65857 0.036184,-0.31559 0.3712729,-0.525131 0.5672365,-0.202452 l -0.2361945,0.236195 v 0.202452 H 9.155239 l 0.2024524,0.16871 -0.033742,-0.202452 0.1687103,-0.03374 0.033742,-0.33742 c 0.424988,0.101181 0.7919903,-0.007 1.1809733,-0.168711 -0.0539,0.291349 0.03228,0.499901 0.303678,0.6411 l 0.06748,-0.303679 c -0.21046,0.04343 -0.339446,-0.101939 -0.16871,-0.269936 -0.01381,0.0576 0.02402,0.341762 0.101695,0.185477 0.06703,-0.134866 -0.07707,-0.228849 0.07201,-0.366528 0.196025,-0.181034 0.390248,-0.05889 0.264938,0.181051 0.508892,0.01671 -0.0217,0.461566 -0.168711,0.607357 0.713211,-0.07352 0.548354,-0.948767 -0.101226,-0.97852 0.30754,-0.295013 0.733753,0.302206 0.682443,0.607357 -0.110428,0.656739 -0.750393,0.366604 -1.154832,0.404905 v 0.03374 c 0.388833,0.0046 0.248314,0.314581 -0.03374,0.404905 v 0.03374 c 0.178423,-0.05701 0.299086,-0.149019 0.337421,-0.337421 0.224153,0 0.448935,0.0082 0.640579,-0.128329 0.558806,-0.398127 0.1716,-1.014463 -0.3369,-1.187612 l 0.101226,-0.269936 -0.101226,0.06748 -0.06748,-0.16871 h -0.0337 c 0.198595,1.07035 -2.1491635,1.51755 -2.1594927,0.269936 h -0.033749 v 0.303686 C 8.8094444,13.78669 8.7127212,13.741558 8.6154075,13.681153 8.039998,13.323979 8.3662833,13.015733 8.4596629,12.502393 c 0.050763,-0.279057 0.028971,-0.658174 0.2942535,-0.838578 0.2576699,-0.175227 0.5605531,-0.02327 0.840011,-0.04629 0.2627503,-0.02165 0.4638266,-0.257567 0.7423256,-0.220911 0.408172,0.05372 0.530539,0.563961 0.760186,0.829987 0.126989,0.147105 0.32474,0.231065 0.414747,0.410788 0.127447,0.254486 -0.187991,0.490903 -0.07652,0.708558 0.258323,0.504388 1.007168,0.796971 1.162305,1.349683 m -5.2075264,-3.14926 -0.011247,0.02249 0.011247,-0.02249 m 2.5419021,1.057251 h 0.03374 c 0,-0.165882 -0.01667,-0.342122 0.01099,-0.506131 0.05694,-0.337602 0.3915993,-0.549916 0.6423233,-0.232652 0.187909,0.237778 0.1565,0.556812 0.1565,0.84001 0.108243,-0.25796 0.05327,-0.723136 -0.120049,-0.943297 -0.140843,-0.178903 -0.400382,-0.272905 -0.580958,-0.095 -0.2488093,0.245126 -0.1488213,0.632986 -0.1425453,0.937071 m -1.5858768,-0.911035 -0.033742,0.03374 0.033742,-0.03374 m 0.5736152,1.484651 h 0.033742 c -0.130147,-0.335559 -0.3386579,-0.7563 -0.1581139,-1.113362 0.2792484,-0.552268 0.7820935,0.06476 0.7992132,0.438517 0.1418983,-0.338922 -0.2221629,-0.863137 -0.6072269,-0.761305 -0.6118118,0.161794 -0.2625025,1.10218 -0.067614,1.436147 m 5.0275675,-1.203727 c 0.512285,-0.08558 0.960738,0.187958 1.284777,0.563955 0.661173,0.76719 0.748469,1.741493 0.536826,2.698038 -0.117717,0.532039 -0.45129,0.9497 -0.761383,1.383424 -0.928164,1.298212 -2.720058,2.910833 -4.434426,2.833006 -0.8293213,-0.03765 -1.4105135,-0.869574 -0.6743213,-1.509853 0.4244563,-0.369156 1.2641083,-0.268509 1.7878093,-0.473248 0.866367,-0.338703 1.749868,-1.362029 2.182794,-2.165845 0.318535,-0.59143 0.50262,-1.457693 0.03309,-2.024498 -0.11816,-0.142642 -0.261975,-0.260683 -0.427555,-0.343852 -0.08177,-0.04107 -0.247788,-0.0705 -0.276237,-0.171678 -0.09956,-0.354063 0.468222,-0.742607 0.748626,-0.789449 m -0.506131,0.0565 -0.337421,0.742326 -0.573615,-0.269937 0.03374,-0.236194 0.877294,-0.236195 m -1.95704,0.404905 -0.202452,-0.16871 c 0.126216,0.0145 0.180139,0.04003 0.202452,0.16871 m 0.97852,-0.134968 c -3.1e-5,0.286103 -0.05747,0.493885 -0.202452,0.742325 -0.286312,-0.163129 -0.716555,-0.378475 -0.674842,-0.742325 h 0.877294 m -2.058263,0.303674 h -0.03374 l -0.03374,0.101227 h -0.06748 l -0.03374,-0.134969 h 0.134968 c -0.4181183,-0.267726 -0.03592,0.644137 0.03374,0.03374 m -0.9447777,0.101226 h -0.033742 v 0.16871 l -0.1012262,-0.06748 v -0.03374 l 0.067484,-0.10123 c -0.3806759,0.21008 0.2824196,0.491256 0.067484,0.03374 m -1.2147162,0.168706 c -0.125848,0.550547 0.1581083,0.736316 0.6073572,1.012262 -0.08898,0.191986 -0.2371577,0.322778 -0.2809757,0.539873 -0.1070992,0.53062 0.3679546,0.772317 0.8208488,0.776067 L 9.290256,16.214017 h 0.033742 l 0.1349682,-0.674841 h 0.033742 l 0.1012262,0.371162 h 0.033742 L 9.458966,15.201755 9.7289027,15.168015 c 0.146942,0.197182 0.3375693,0.241403 0.5736153,0.202452 0.0967,0.382926 -0.3152043,1.047128 -0.6748416,1.184565 -0.17592,0.06723 -0.3687367,-0.0061 -0.5398731,0.08579 -0.3252951,0.174755 -0.6397987,0.532505 -1.0460041,0.409302 -0.7187813,-0.218011 -1.1848111,-0.748767 -0.8650309,-1.510947 0.1082734,-0.258064 0.3544502,-0.432699 0.4191461,-0.708584 0.08113,-0.345963 0.2473912,-0.786249 0.236611,-1.141502 -0.00482,-0.15905 -0.1890075,-0.235225 -0.11125,-0.410503 0.093021,-0.209682 0.357389,-0.266505 0.5229762,-0.405035 m 3.4079494,0.03374 0.337421,0.101226 v 0.03374 c -0.09067,-0.0046 -0.38257,-0.01357 -0.337421,-0.134969 m 0.404905,0.134969 -0.03374,0.03374 0.03374,-0.03374 m -0.97852,0.16871 0.03374,0.03374 -0.03374,-0.03374 m 0.236194,0.101226 0.03374,0.03374 -0.03374,-0.03374 m -0.97852,0.371166 c -0.0054,-0.147767 0.05656,-0.213041 0.168711,-0.303678 -0.213949,-0.08025 -0.315435,0.158162 -0.168711,0.303678 m -1.383425,-0.202452 0.033742,0.03374 -0.033742,-0.03374 m 0.506131,0.371163 H 9.492708 C 9.504472,13.696471 9.558093,13.62188 9.6951607,13.54839 9.4675893,13.46035 9.4180111,13.673364 9.4589663,13.852069 m 3.8128537,-0.06748 0.607357,0.33742 v -0.03374 L 13.27182,13.78459 m -2.015125,0.146607 c -0.08684,0.03431 -0.04023,0.173254 0.04921,0.155041 0.10135,-0.02064 0.0454,-0.192414 -0.04921,-0.155041 m 0.05808,0.224552 -0.236194,0.269937 0.236194,-0.269937 m 0.08784,0.07024 c -0.0834,0.06039 0.01062,0.190009 0.09425,0.129449 0.0834,-0.06039 -0.01062,-0.190011 -0.09425,-0.129449 m -2.0786259,0.03098 0.067484,0.134968 c -0.089379,-0.01915 -0.1131977,-0.05358 -0.067484,-0.134968 m 1.0460049,0.202456 -0.06748,0.202452 0.16871,-0.16871 -0.03374,-0.03374 h -0.06748 m 0.700721,0.07024 c -0.0766,0.059 0.0077,0.191019 0.08956,0.129448 0.0789,-0.05936 -0.0088,-0.191675 -0.08956,-0.129448 m -1.038142,-0.0027 -0.06748,0.168711 0.03374,0.03374 h 0.06748 l 0.06748,-0.168707 -0.03374,-0.03374 h -0.06748 m 1.001015,0.213699 0.0225,0.01125 -0.0225,-0.01125 m 2.946807,0.05624 c -0.103329,0.435026 -0.360753,0.578761 -0.776068,0.674842 l -0.16871,-0.337453 c 0.252791,-0.167867 0.642237,-0.311007 0.944778,-0.337421 m -0.80981,0.776068 0.506131,-0.168711 c -0.04078,0.103298 -0.379324,0.649689 -0.404905,0.438647 h -0.03374 l -0.202453,0.438647 h -0.03374 v -1.079746 c 0.15733,0.06319 0.156508,0.216782 0.16871,0.371163 m -2.361944,0.134968 1.518393,-0.06748 c -0.0023,-0.106531 0.0014,-0.238685 -0.08482,-0.317087 -0.201041,-0.182715 -0.814711,-0.103752 -1.062406,-0.06826 -0.09585,0.01373 -0.236588,0.0099 -0.312375,0.07959 -0.08992,0.08273 -0.05877,0.263523 -0.05879,0.373245 m -0.281184,-0.427401 0.02249,0.01125 -0.02249,-0.01125 m 1.732086,0.292426 -1.383425,0.06748 c 2.93e-4,-0.0826 -0.01875,-0.210113 0.0541,-0.269129 0.08615,-0.06979 0.279037,-0.06521 0.384545,-0.06779 0.296471,-0.0073 0.92238,-0.13513 0.944778,0.269442 m -0.877293,0.438646 v 0.539873 h 0.03374 l -0.03374,-0.539873 m 0.843551,0 0.03374,0.674842 -0.944777,0.06748 -0.346117,-0.0541 -0.09253,-0.620739 h -0.03374 l 0.03374,0.776067 1.450909,-0.101226 -0.03374,-0.742325 h -0.06748 m -0.506132,0.03374 v 0.472389 h 0.03374 l -0.03374,-0.472389 m -2.463171,0.16871 -0.067484,0.134969 0.067484,-0.134969 m 0.877297,0.776064 C 9.9062647,16.967283 9.6949177,16.864612 9.5939274,16.652688 l 0.3941783,-0.23885 0.1456953,0.576271 m 6.410993,-0.06748 -0.101227,-0.03374 v 0.03374 c 0.211777,0.10077 0.378764,0.26478 0.534015,0.438647 0.226878,0.254081 0.452162,0.566126 0.501862,0.911036 0.112169,0.778431 -0.636276,1.479794 -1.339555,1.645394 -0.953573,0.224536 -1.767155,-0.56164 -2.699366,-0.420656 -0.508063,0.07684 -0.720837,0.397357 -0.539873,0.86727 -0.493364,-0.367405 -0.111437,-1.131358 0.303679,-1.398656 0.814792,-0.524651 1.702554,0.265716 2.530655,0.05129 0.368477,-0.09541 0.881305,-0.517114 0.437188,-0.852976 -0.282275,-0.213471 -0.674277,-0.220299 -1.010803,-0.262829 0.283509,-0.353386 0.272004,-0.798667 -0.202453,-1.012262 0.19008,-0.28634 0.571172,-0.381321 0.877294,-0.178734 0.133162,0.08812 0.243119,0.286164 0.404254,0.322086 0.215424,0.04803 0.144449,-0.190982 0.06813,-0.278321 l 0.03374,0.269937 -0.80981,-0.472389 c 0.378259,-0.269498 0.999475,-0.157839 1.012262,0.371163 m -0.26993,-0.202451 0.03374,0.03374 -0.03374,-0.03374 m -1.484651,1.315941 c -0.0024,-0.112874 -0.0038,-0.23451 -0.06537,-0.333905 -0.05707,-0.09215 -0.20118,-0.150407 -0.188837,-0.274911 0.0092,-0.09247 0.08765,-0.166952 0.143509,-0.234606 0.44815,-0.542754 0.852323,0.317589 0.447968,0.640475 -0.105469,0.08422 -0.211315,0.155194 -0.337265,0.202947 m -0.337421,-0.539873 c 0,0.244488 0.112119,0.858256 -0.03468,1.056158 -0.155029,0.208996 -0.524046,0.137665 -0.741388,0.164805 -0.45912,0.05733 -0.826424,0.377639 -1.315941,0.398656 v -0.03374 l 2.092008,-1.585877 m 0.303681,0.607353 0.303679,-0.16871 c -0.003,0.329713 -0.220383,0.516629 -0.539873,0.573615 V 17.59747 c 0.23688,0.08323 0.196701,0.293394 0.236194,0.506131 m -0.371163,0.607357 c 0.30737,-0.254681 0.740625,-0.260697 0.742326,-0.742325 0.294031,0.01263 1.542632,0.212642 1.038297,0.73514 -0.437008,0.452747 -1.28306,0.197699 -1.780623,0.0072 m -1.518393,0.404905 -0.03374,0.03374 z"
       id="path1" /></g></svg>
