<svg xmlns="http://www.w3.org/2000/svg" xmlns:xlink="http://www.w3.org/1999/xlink" xml:space="preserve" id="svg154" width="24" height="24" fill="none" version="1.1"><defs id="defs152"><linearGradient id="linearGradient541"><stop id="stop537" offset="0" style="stop-color:#333;stop-opacity:1"/><stop id="stop539" offset="1" style="stop-color:#bebebe;stop-opacity:1"/></linearGradient><linearGradient xlink:href="#linearGradient541" id="linearGradient543" x1="50.384" x2="49.489" y1="82.088" y2="-7.273" gradientTransform="matrix(.24444 0 0 .24444 -.222 -.222)" gradientUnits="userSpaceOnUse"/><style id="current-color-scheme" type="text/css">.ColorScheme-Text{color:#31363b}.ColorScheme-Background{color:#eff0f1}.ColorScheme-Highlight{color:#3daee9}.ColorScheme-ViewText{color:#31363b}.ColorScheme-ViewBackground{color:#fcfcfc}.ColorScheme-ViewHover{color:#93cee9}.ColorScheme-ViewFocus{color:#3daee9}.ColorScheme-ButtonText{color:#31363b}.ColorScheme-ButtonBackground{color:#eff0f1}.ColorScheme-ButtonHover{color:#93cee9}.ColorScheme-ButtonFocus{color:#3daee9}</style></defs><path id="path6" d="M12 1C2 1 1 6 1 12c0 8 3 11 11 11s11-3 11-11c0-6-1-11-11-11Z" style="font-variation-settings:normal;display:inline;opacity:1;vector-effect:none;fill:url(#linearGradient543);fill-opacity:1;stroke-width:1.11627;stroke-linecap:butt;stroke-linejoin:miter;stroke-miterlimit:4;stroke-dasharray:none;stroke-dashoffset:0;stroke-opacity:1;-inkscape-stroke:none;stop-color:#000;stop-opacity:1"/><g id="g10252" transform="matrix(.42047 0 0 .42047 -1.665 -1.245)"><path id="path10240" fill="#1ac63a" d="M32.5 31.5H14C14 21.283 22.283 13 32.5 13Z"/><path id="path10242" fill="#2186ff" d="M32.5 31.5H14C14 41.717 22.283 50 32.5 50Z"/><path id="path10244" fill="#f54646" d="M32.5 31.5H51C51 41.717 42.717 50 32.5 50Z"/><path id="path10246" fill="#ffeb23" d="M32.5 31.5H51C51 21.283 42.717 13 32.5 13Z"/><circle id="circle10248" cx="32.5" cy="31.5" r="15.417" fill="#6b6b6b"/><circle id="circle10250" cx="32.5" cy="31.5" r="8.222" fill="#3f3f3f"/></g></svg>