<svg xmlns="http://www.w3.org/2000/svg" xml:space="preserve" width="24" height="24" viewBox="0 0 6.35 6.35"><defs><radialGradient id="a" cx="0" cy="0" r="1" fx="0" fy="0" gradientTransform="matrix(0 22 -22 0 -49.796 1)" gradientUnits="userSpaceOnUse" spreadMethod="pad"><stop offset="0" style="stop-opacity:1;stop-color:#e97c7c"/><stop offset="1" style="stop-opacity:1;stop-color:#de4f4f"/></radialGradient></defs><path d="M-51.86 1.068c-.108.03-.223.047-.343.047-.739.057-1.473.177-2.197.354-3.104.739-5.063 2.651-5.875 5.734a18.502 18.502 0 0 0-.516 4.786c-.032 1.522.12 3.027.448 4.511.77 3.303 2.817 5.323 6.125 6.057 1.802.37 3.619.511 5.452.412a15.591 15.591 0 0 0 4.767-.824c1.905-.697 3.285-1.968 4.135-3.812.458-1.062.756-2.166.896-3.317.182-1.641.218-3.281.114-4.928a14.563 14.563 0 0 0-.754-3.823c-.751-2.057-2.136-3.505-4.162-4.338a13.68 13.68 0 0 0-3.781-.848c-1.433-.1-2.87-.106-4.308-.011z" style="fill:url(#a);fill-rule:evenodd;stroke:none;stroke-width:1.33333" transform="matrix(.26458 0 0 .26458 16.35 0)"/><g style="stroke-width:2.34771"><path fill="#fff" d="M5.05 4.429v8.075h6.833V4.429h-.622v.62a.31.31 0 0 1-.62 0v-.62h-.622v.62a.31.31 0 0 1-.621 0v-.62h-.621v.62a.31.31 0 0 1-.621 0v-.62h-.622v.62a.31.31 0 0 1-.62 0v-.62h-.622v.62a.31.31 0 0 1-.621 0v-.62z" style="stroke-width:2.34771" transform="matrix(.42595 0 0 .42595 -.431 -.431)"/><path fill="#212121" d="M7.069 6.603h.776c.976 0 1.453.163 1.65.32.198.158.214.328.214.612 0 .283-.015.453-.214.611-.198.158-.678.32-1.65.32H7.07v.622c.503 0 .962.096 1.174.233.212.137.357.328.486.582.256.508.42 1.26 1.073 1.887.112.132.325.117.435 0a.307.307 0 0 0-.004-.44c-.506-.485-.643-1.117-.951-1.729a2.263 2.263 0 0 0-.476-.62c.46-.072.838-.18 1.078-.37.386-.308.446-.758.446-1.097 0-.337-.06-.788-.446-1.096-.386-.309-1-.457-2.039-.457H7.07z" color="#000" style="stroke-width:2.34771" transform="matrix(.42595 0 0 .42595 -.431 -.431)"/><path fill="#b72727" d="M6.603 5.982h.932v4.659h-.932z" style="stroke-width:2.34771" transform="matrix(.42595 0 0 .42595 -.431 -.431)"/><path fill="#d93535" d="M6.603 5.982h.466v4.659h-.466z" style="stroke-width:2.34771" transform="matrix(.42595 0 0 .42595 -.431 -.431)"/><path fill="#ffe680" d="M6.603 10.64h.932l-.466 1.243z" style="stroke-width:2.34771" transform="matrix(.42595 0 0 .42595 -.431 -.431)"/><path fill="#212121" d="m7.302 11.262-.233.621-.233-.621z" style="stroke-width:2.34771" transform="matrix(.42595 0 0 .42595 -.431 -.431)"/></g></svg>