<svg xmlns="http://www.w3.org/2000/svg" xml:space="preserve" width="24" height="24"><defs><linearGradient id="a" x1="12" x2="12" y1="0" y2="12" gradientTransform="matrix(.91667 0 0 .91667 1 1)" gradientUnits="userSpaceOnUse"><stop stop-color="#fff"/><stop offset="1" stop-color="#D9D9D9" style="stop-color:#b5b5b5;stop-opacity:1"/></linearGradient></defs><path fill="url(#a)" fill-rule="evenodd" d="M9.596 1.114c.12 0 .234-.014.344-.046a31.628 31.628 0 0 1 4.307.011c1.301.102 2.561.384 3.78.848 2.026.833 3.412 2.28 4.158 4.339.427 1.24.679 2.514.756 3.824a27.935 27.935 0 0 1-.115 4.923 11.882 11.882 0 0 1-.893 3.32c-.85 1.843-2.229 3.114-4.135 3.813a15.626 15.626 0 0 1-4.765.825 21.425 21.425 0 0 1-5.453-.413c-3.312-.737-5.354-2.756-6.128-6.056a19.046 19.046 0 0 1-.447-4.511 18.49 18.49 0 0 1 .515-4.786c.812-3.086 2.77-4.998 5.877-5.736a13.953 13.953 0 0 1 2.199-.355z" clip-rule="evenodd" style="fill:url(#a);stroke-width:.916667"/><g transform="matrix(.2963 0 0 .2963 7.292 -2.515)"><circle cx="15.89" cy="48.989" r="27" fill="#b5b5b5"/><circle cx="15.89" cy="48.989" r="22" opacity=".4"/><path fill="#fff" d="M15.84 28.989a3 3 0 0 0-2.95 3 3 3 0 0 0 1.654 2.682l-3.846 7.656-8.882 2.002a3 3 0 0 0-2.926-2.34 3 3 0 0 0-3 3 3 3 0 0 0 3 3 3 3 0 0 0 2.345-1.13l6.254 4.987-1.173 8.172a3 3 0 0 0-.426-.03 3 3 0 0 0-3 3 3 3 0 0 0 3 3 3 3 0 0 0 3-3 3 3 0 0 0-.346-1.395l7.346-3.866 7.344 3.866a3 3 0 0 0-.344 1.396 3 3 0 0 0 3 3 3 3 0 0 0 3-3 3 3 0 0 0-3-3 3 3 0 0 0-.426.03l-1.174-8.173 6.254-4.988a3 3 0 0 0 2.346 1.13 3 3 0 0 0 3-3 3 3 0 0 0-3-3 3 3 0 0 0-2.926 2.34l-8.883-2.001-3.845-7.658a3 3 0 0 0 1.654-2.68 3 3 0 0 0-3-3 3 3 0 0 0-.05 0z"/></g></svg>