<svg xmlns="http://www.w3.org/2000/svg" xml:space="preserve" id="svg5" width="24" height="24" version="1.1" viewBox="0 0 6.35 6.35"><defs id="defs2"><linearGradient id="linearGradient12097" x1="205.916" x2="199.333" y1="-105.962" y2="389.947" gradientTransform="matrix(.81287 0 0 .81287 -71.178 -43.472)" gradientUnits="userSpaceOnUse" spreadMethod="pad"><stop id="stop12093" offset="0" style="stop-opacity:1;stop-color:#fff"/><stop id="stop12095" offset="1" style="stop-opacity:1;stop-color:#e6e6e6"/></linearGradient><linearGradient id="linearGradient12115" x1="34.496" x2="34.496" y1="49.314" y2="11.31" gradientTransform="matrix(7.34828 0 0 7.34828 -143.247 -83.104)" gradientUnits="userSpaceOnUse" spreadMethod="pad"><stop id="stop12111" offset="0" style="stop-opacity:1;stop-color:#aef4f4"/><stop id="stop12113" offset="1" style="stop-opacity:1;stop-color:#a2ddef"/></linearGradient><linearGradient id="linearGradient12149" x1="32" x2="32" y1="50.998" y2="12.999" gradientTransform="matrix(11.0228 0 0 11.0228 -4393.31 -5634.045)" gradientUnits="userSpaceOnUse" spreadMethod="pad"><stop id="stop12145" offset="0" style="stop-opacity:1;stop-color:#1db7f3"/><stop id="stop12147" offset="1" style="stop-opacity:1;stop-color:#2274d5"/></linearGradient><clipPath id="clipPath12125" clipPathUnits="userSpaceOnUse"><path id="path12123" d="M0 0h221v280H0Z"/></clipPath><style id="current-color-scheme" type="text/css">.ColorScheme-Text{color:#31363b}.ColorScheme-Background{color:#eff0f1}.ColorScheme-Highlight{color:#3daee9}.ColorScheme-ViewText{color:#31363b}.ColorScheme-ViewBackground{color:#fcfcfc}.ColorScheme-ViewHover{color:#93cee9}.ColorScheme-ViewFocus{color:#3daee9}.ColorScheme-ButtonText{color:#31363b}.ColorScheme-ButtonBackground{color:#eff0f1}.ColorScheme-ButtonHover{color:#93cee9}.ColorScheme-ButtonFocus{color:#3daee9}</style></defs><g id="g12083" style="stroke-width:21.99" transform="matrix(.01604 0 0 .01604 1.406 .962)"><g id="g12085" style="stroke-width:21.99"><g id="g12091" style="stroke-width:21.99"><path id="path12099" d="M70.59-41.598a19.23 19.23 0 0 0 5.668-.757 521.834 521.834 0 0 1 71.035.191c21.469 1.672 42.25 6.328 62.348 13.973 33.406 13.753 56.265 37.609 68.574 71.566a235.427 235.427 0 0 1 12.469 63.07 460.801 460.801 0 0 1-1.887 81.2 196.134 196.134 0 0 1-14.738 54.761c-14.028 30.383-36.762 51.344-68.2 62.879-25.476 8.606-51.671 13.137-78.593 13.594-30.278 1.574-60.25-.691-89.922-6.797-54.621-12.168-88.309-45.465-101.074-99.891a313.993 313.993 0 0 1-7.368-74.398c-.605-26.691 2.227-53 8.504-78.934C-49.215 7.973-16.91-23.566 34.32-35.742a229.771 229.771 0 0 1 36.27-5.856z" style="fill:url(#linearGradient12097);fill-rule:evenodd;stroke:none;stroke-width:21.99"/></g></g></g><g id="g1" style="stroke-width:1.21032" transform="translate(.552 .528) scale(.82623)"><g id="g12101" style="stroke-width:26.6149" transform="matrix(.01604 0 0 .01604 1.406 .962)"><g id="g12103" style="stroke-width:26.6149"><g id="g12109" style="stroke-width:26.6149"><path id="path12117" d="M41.648.004c.625 27.851-13.796 41.644-41.64 41.644v195.243a41.78 41.78 0 0 0 71.594 30.05 41.772 41.772 0 0 0 11.957-30.05v-36.012h35.976c55.75 0 100.942-44.688 100.942-100.438C220.477 44.684 175.285.188 119.535.188zm41.645 78.394h35.051c14 0 23.742 10.051 23.742 24.497 0 14.449-9.742 24.492-23.734 24.492H83.301Z" style="fill:url(#linearGradient12115);stroke:none;stroke-width:26.6149"/></g></g></g><g id="g12119" style="stroke-width:26.6149" transform="matrix(.01604 0 0 .01604 1.406 .962)"><g id="g12133" style="stroke-width:26.6149"><g id="g12131" clip-path="url(#clipPath12125)" opacity=".3" style="stroke-width:26.6149"><g id="g12129" style="stroke-width:26.6149"><path id="path12127" d="M41.594 34.305a6.928 6.928 0 0 0-6.797 7.039v201.472c-.133 9.403 13.941 9.403 13.808 0v-76.414h72.485c36.23 0 65.59-29.543 65.59-66 0-36.461-29.368-66.004-65.59-66.004H42.762a7.004 7.004 0 0 0-1.176-.093Zm7.011 13.984h72.485c28.762 0 51.781 23.164 51.781 52.106 0 28.941-23.019 52.113-51.781 52.113H48.605Z" style="fill:#001851;fill-opacity:1;fill-rule:nonzero;stroke:none;stroke-width:26.6149"/></g></g></g></g><g id="g12135" style="stroke-width:26.6149" transform="matrix(.01604 0 0 .01604 1.406 .962)"><g id="g12137" style="stroke-width:26.6149"><g id="g12143" style="stroke-width:26.6149"><path id="path12151" d="M40.91.008a41.375 41.375 0 0 0-23.133 7.515A41.382 41.382 0 0 0 .652 34.414a41.426 41.426 0 0 0 6.887 31.133c13.195 18.82 39.141 23.398 57.984 10.234a41.405 41.405 0 0 0 17.125-26.894 41.403 41.403 0 0 0-6.902-31.125A41.608 41.608 0 0 0 40.91.008Zm90.18 127.371a41.646 41.646 0 0 0-24.156 7.535 41.662 41.662 0 0 0-17.133 26.883 41.653 41.653 0 0 0 6.898 31.121l48.016 68.582c13.191 18.832 39.144 23.414 57.984 10.238 18.844-13.187 23.434-39.148 10.254-57.992l-48.035-68.598a41.654 41.654 0 0 0-33.828-17.769z" style="fill:url(#linearGradient12149);fill-rule:evenodd;stroke:none;stroke-width:26.6149"/></g></g></g></g></svg>