<svg xmlns="http://www.w3.org/2000/svg" xmlns:xlink="http://www.w3.org/1999/xlink" xml:space="preserve" id="svg154" width="24" height="24" fill="none" version="1.1"><defs id="defs152"><linearGradient id="linearGradient541"><stop id="stop537" offset="0" style="stop-color:#333;stop-opacity:1"/><stop id="stop539" offset="1" style="stop-color:#bebebe;stop-opacity:1"/></linearGradient><linearGradient xlink:href="#linearGradient541" id="linearGradient543" x1="50.384" x2="49.489" y1="82.088" y2="-7.273" gradientTransform="matrix(.24444 0 0 .24444 -.222 -.222)" gradientUnits="userSpaceOnUse"/><linearGradient id="linearGradient12115" x1="34.496" x2="34.496" y1="49.314" y2="11.31" gradientTransform="matrix(7.34828 0 0 7.34828 -143.247 -83.104)" gradientUnits="userSpaceOnUse" spreadMethod="pad"><stop id="stop12111" offset="0" style="stop-opacity:1;stop-color:#aef4f4"/><stop id="stop12113" offset="1" style="stop-opacity:1;stop-color:#a2ddef"/></linearGradient><linearGradient id="linearGradient12149" x1="32" x2="32" y1="50.998" y2="12.999" gradientTransform="matrix(11.0228 0 0 11.0228 -4393.31 -5634.045)" gradientUnits="userSpaceOnUse" spreadMethod="pad"><stop id="stop12145" offset="0" style="stop-opacity:1;stop-color:#1db7f3"/><stop id="stop12147" offset="1" style="stop-opacity:1;stop-color:#2274d5"/></linearGradient><clipPath id="clipPath12125" clipPathUnits="userSpaceOnUse"><path id="path12123" d="M0 0h221v280H0Z"/></clipPath><style id="current-color-scheme" type="text/css">.ColorScheme-Text{color:#31363b}.ColorScheme-Background{color:#eff0f1}.ColorScheme-Highlight{color:#3daee9}.ColorScheme-ViewText{color:#31363b}.ColorScheme-ViewBackground{color:#fcfcfc}.ColorScheme-ViewHover{color:#93cee9}.ColorScheme-ViewFocus{color:#3daee9}.ColorScheme-ButtonText{color:#31363b}.ColorScheme-ButtonBackground{color:#eff0f1}.ColorScheme-ButtonHover{color:#93cee9}.ColorScheme-ButtonFocus{color:#3daee9}</style></defs><path id="path6" d="M12 1C2 1 1 6 1 12c0 8 3 11 11 11s11-3 11-11c0-6-1-11-11-11Z" style="font-variation-settings:normal;display:inline;opacity:1;vector-effect:none;fill:url(#linearGradient543);fill-opacity:1;stroke-width:1.11627;stroke-linecap:butt;stroke-linejoin:miter;stroke-miterlimit:4;stroke-dasharray:none;stroke-dashoffset:0;stroke-opacity:1;-inkscape-stroke:none;stop-color:#000;stop-opacity:1"/><g id="g12201" transform="matrix(.82664 0 0 .82664 13.73 5.194)"><g id="g12101" transform="matrix(.06063 0 0 .06063 -8.778 -.24)"><g id="g12103"><g id="g12109"><path id="path12117" d="M41.648.004c.625 27.851-13.796 41.644-41.64 41.644v195.243a41.78 41.78 0 0 0 71.594 30.05 41.772 41.772 0 0 0 11.957-30.05v-36.012h35.976c55.75 0 100.942-44.688 100.942-100.438C220.477 44.684 175.285.188 119.535.188zm41.645 78.394h35.051c14 0 23.742 10.051 23.742 24.497 0 14.449-9.742 24.492-23.734 24.492H83.301Z" style="fill:url(#linearGradient12115);stroke:none"/></g></g></g><g id="g12119" transform="matrix(.06063 0 0 .06063 -8.778 -.24)"><g id="g12133"><g id="g12131" clip-path="url(#clipPath12125)" opacity=".3"><g id="g12129"><path id="path12127" d="M41.594 34.305a6.928 6.928 0 0 0-6.797 7.039v201.472c-.133 9.403 13.941 9.403 13.808 0v-76.414h72.485c36.23 0 65.59-29.543 65.59-66 0-36.461-29.368-66.004-65.59-66.004H42.762a7.004 7.004 0 0 0-1.176-.093Zm7.011 13.984h72.485c28.762 0 51.781 23.164 51.781 52.106 0 28.941-23.019 52.113-51.781 52.113H48.605Z" style="fill:#001851;fill-opacity:1;fill-rule:nonzero;stroke:none"/></g></g></g></g><g id="g12135" transform="matrix(.06063 0 0 .06063 -8.778 -.24)"><g id="g12137"><g id="g12143"><path id="path12151" d="M40.91.008a41.375 41.375 0 0 0-23.133 7.515A41.382 41.382 0 0 0 .652 34.414a41.426 41.426 0 0 0 6.887 31.133c13.195 18.82 39.141 23.398 57.984 10.234a41.405 41.405 0 0 0 17.125-26.894 41.403 41.403 0 0 0-6.902-31.125A41.608 41.608 0 0 0 40.91.008Zm90.18 127.371a41.646 41.646 0 0 0-24.156 7.535 41.662 41.662 0 0 0-17.133 26.883 41.653 41.653 0 0 0 6.898 31.121l48.016 68.582c13.191 18.832 39.144 23.414 57.984 10.238 18.844-13.187 23.434-39.148 10.254-57.992l-48.035-68.598a41.654 41.654 0 0 0-33.828-17.769z" style="fill:url(#linearGradient12149);fill-rule:evenodd;stroke:none"/></g></g></g></g></svg>