<?xml version="1.0" encoding="UTF-8" standalone="no"?>
<svg
   xml:space="preserve"
   id="svg154"
   width="24"
   height="24"
   fill="none"
   version="1.1"
   sodipodi:docname="elementary-photo.svg"
   inkscape:version="1.3 (0e150ed6c4, 2023-07-21)"
   xmlns:inkscape="http://www.inkscape.org/namespaces/inkscape"
   xmlns:sodipodi="http://sodipodi.sourceforge.net/DTD/sodipodi-0.dtd"
   xmlns:xlink="http://www.w3.org/1999/xlink"
   xmlns="http://www.w3.org/2000/svg"
   xmlns:svg="http://www.w3.org/2000/svg"><sodipodi:namedview
     id="namedview1"
     pagecolor="#ffffff"
     bordercolor="#000000"
     borderopacity="0.25"
     inkscape:showpageshadow="2"
     inkscape:pageopacity="0.0"
     inkscape:pagecheckerboard="0"
     inkscape:deskcolor="#d1d1d1"
     inkscape:zoom="16.985294"
     inkscape:cx="19.163636"
     inkscape:cy="11.745455"
     inkscape:window-width="3440"
     inkscape:window-height="1358"
     inkscape:window-x="2560"
     inkscape:window-y="0"
     inkscape:window-maximized="1"
     inkscape:current-layer="svg154"><inkscape:page
       x="0"
       y="0"
       width="24"
       height="24"
       id="page1"
       margin="0"
       bleed="0" /></sodipodi:namedview><defs
     id="defs152"><linearGradient
       id="linearGradient541"><stop
         id="stop537"
         offset="0"
         style="stop-color:#79afff;stop-opacity:1" /><stop
         id="stop539"
         offset="1"
         style="stop-color:#c6ddff;stop-opacity:1" /></linearGradient><linearGradient
       xlink:href="#linearGradient541"
       id="linearGradient543"
       x1="50.511002"
       x2="49.488998"
       y1="90.526001"
       y2="-7.2729998"
       gradientTransform="matrix(0.24444,0,0,0.24444,-0.222,-0.222)"
       gradientUnits="userSpaceOnUse" /><linearGradient
       id="linearGradient29319"><stop
         id="stop29317"
         offset="0"
         style="stop-color:#d2d8db;stop-opacity:1" /></linearGradient><linearGradient
       id="fffff"><stop
         id="stop28389"
         offset="0"
         style="stop-color:#fff;stop-opacity:1" /></linearGradient><clipPath
       id="a"><path
         id="path16773"
         fill="#ffffff"
         stroke-linecap="round"
         stroke-linejoin="round"
         stroke-width="0.553"
         d="m 10.054,4.762 4.762,9.525 H 5.292 Z"
         opacity="0.6"
         style="paint-order:stroke fill markers" /></clipPath><filter
       id="b"
       width="1.2153991"
       height="1.2153991"
       x="-0.10769957"
       y="-0.10769957"
       color-interpolation-filters="sRGB"><feGaussianBlur
         id="feGaussianBlur16776"
         stdDeviation=".19" /></filter><style
       id="current-color-scheme"
       type="text/css">.ColorScheme-Text{color:#31363b}.ColorScheme-Background{color:#eff0f1}.ColorScheme-Highlight{color:#3daee9}.ColorScheme-ViewText{color:#31363b}.ColorScheme-ViewBackground{color:#fcfcfc}.ColorScheme-ViewHover{color:#93cee9}.ColorScheme-ViewFocus{color:#3daee9}.ColorScheme-ButtonText{color:#31363b}.ColorScheme-ButtonBackground{color:#eff0f1}.ColorScheme-ButtonHover{color:#93cee9}.ColorScheme-ButtonFocus{color:#3daee9}</style><linearGradient
       id="a-0"><stop
         offset="0"
         style="stop-color:#ef746d;stop-opacity:1"
         id="stop1" /><stop
         offset="1"
         style="stop-color:#fff;stop-opacity:1"
         id="stop2" /></linearGradient><linearGradient
       xlink:href="#a-0"
       id="b-1"
       x1="50.511002"
       x2="49.488998"
       y1="90.526001"
       y2="-7.2729998"
       gradientTransform="matrix(0.24442205,0,0,0.24442205,33.777008,-0.22299213)"
       gradientUnits="userSpaceOnUse" /><clipPath
       id="c"
       clipPathUnits="userSpaceOnUse"><path
         d="M 0,0 H 19 V 19 H 0 Z"
         id="path2" /></clipPath><clipPath
       id="d"
       clipPathUnits="userSpaceOnUse"><path
         d="M 0,0 H 19 V 19 H 0 Z"
         id="path3" /></clipPath></defs><path
     id="path6"
     d="M 12,1 C 2,1 1,6 1,12 1,20 4,23 12,23 20,23 23,20 23,12 23,6 22,1 12,1 Z"
     style="font-variation-settings:normal;display:inline;opacity:1;vector-effect:none;fill:url(#linearGradient543);fill-opacity:1;stroke-width:1.11627;stroke-linecap:butt;stroke-linejoin:miter;stroke-miterlimit:4;stroke-dasharray:none;stroke-dashoffset:0;stroke-opacity:1;-inkscape-stroke:none;stop-color:#000000;stop-opacity:1" /><g
     id="g19"
     transform="translate(25.999997,0.00190208)"><g
       style="stroke-width:1.17833"
       id="g14"
       transform="matrix(3.7795276,0,0,3.7795276,-26,0)"><g
         clip-path="url(#c)"
         opacity="0.65"
         style="stroke-width:1.17833"
         transform="matrix(0.29938,0,0,0.29938,0.48,0.48)"
         id="g13"><g
           style="stroke-width:1.17833"
           id="g12"><path
             d="m 6.543,8.105 -2.66,5.321 c -0.156,0.312 -0.156,0.937 0.469,0.937 h 2.859 c -0.895,0 -0.895,-0.894 -0.668,-1.34 L 7.77,10.566 Z"
             style="fill:#f2f2f2;fill-opacity:1;fill-rule:nonzero;stroke:none;stroke-width:1.17833"
             id="path10" /></g></g></g><path
       d="m -19.563465,5.9338583 a 1.2623622,1.2623622 0 0 0 -1.266141,1.2623622 v 7.5817325 c 0,0.699212 0.566929,1.262362 1.266141,1.262362 h 0.257008 l 2.524725,-5.057008 1.390866,2.781732 2.910236,-5.812913 4.044095,8.088189 a 1.2623622,1.2623622 0 0 0 1.266141,-1.262362 V 7.1962205 A 1.2623622,1.2623622 0 0 0 -8.436535,5.9300787 Z"
       style="fill:#5c9dff;fill-opacity:1;fill-rule:nonzero;stroke:none;stroke-width:1.33331"
       id="path14" /><path
       d="m -11.222047,8.4585827 a 2.0522835,2.0522835 0 0 0 -0.899528,0.2116535 l 1.806614,3.6207878 a 2.0220472,2.0220472 0 0 0 -0.907086,-3.8324413 z"
       style="fill:#ffe680;fill-opacity:1;fill-rule:nonzero;stroke:none;stroke-width:1.33331"
       id="path15" /><circle
       cx="-11.206924"
       cy="10.484409"
       r="2.0220473"
       style="fill:#ffe680;fill-opacity:1;stroke:none;stroke-width:0.799986;paint-order:stroke markers fill"
       id="circle15" /><g
       style="stroke-width:1.17833"
       id="g18"
       transform="matrix(3.7795276,0,0,3.7795276,-26,0)"><g
         clip-path="url(#d)"
         opacity="0.8"
         style="stroke-width:1.17833"
         transform="matrix(0.29938,0,0,0.29938,0.48,0.48)"
         id="g17"><g
           style="stroke-width:1.17833"
           id="g16"><path
             d="m 10.34,5.426 -3.797,7.597 c -0.227,0.446 -0.227,1.34 0.668,1.34 h 6.258 c 0.894,0 0.894,-0.894 0.672,-1.34 z"
             style="fill:#f2f2f2;fill-opacity:1;fill-rule:nonzero;stroke:none;stroke-width:1.17833"
             id="path16" /></g></g></g></g></svg>
