<svg xmlns="http://www.w3.org/2000/svg" width="24" height="24" viewBox="0 0 6.35 6.35"><path d="M3.175.265C.529.265.265 1.587.265 3.175c0 2.117.793 2.91 2.91 2.91s2.91-.793 2.91-2.91c0-1.588-.264-2.91-2.91-2.91z" style="font-variation-settings:normal;display:inline;vector-effect:none;fill:#3680b2;fill-opacity:1;stroke-width:.295341;stroke-linecap:butt;stroke-linejoin:miter;stroke-miterlimit:4;stroke-dasharray:none;stroke-dashoffset:0;stroke-opacity:1;-inkscape-stroke:none;stop-color:#000"/><path d="M3.175.523C.764.523.523 1.728.523 3.175c0 1.929.723 2.652 2.652 2.652 1.929 0 2.652-.723 2.652-2.652 0-1.447-.24-2.652-2.652-2.652z" style="font-variation-settings:normal;display:inline;vector-effect:none;fill:#5493bd;fill-opacity:1;stroke-width:.269163;stroke-linecap:butt;stroke-linejoin:miter;stroke-miterlimit:4;stroke-dasharray:none;stroke-dashoffset:0;stroke-opacity:1;-inkscape-stroke:none;stop-color:#000"/><path fill="#f9f9f9" d="M2.637 1.929c.141-.034.266-.051.407-.051.432 0 .673.201.673.558 0 .385-.303.627-.785.627-.029 0-.067 0-.12-.004l-.025.051c.383.506.788 1.013 1.172 1.52.195-.013.215-.013.26-.013.038 0 .038 0 .3.013v-.112c-.133-.013-.2-.051-.254-.123l-.943-1.239c.233-.058.34-.104.478-.2.216-.156.333-.365.333-.608 0-.402-.292-.628-.806-.628-.54 0-.607.012-.748.012-.137 0-.166 0-.748-.012v.111c.058.005.174.023.23.027.191.012.218.05.218.377v1.88c0 .331-.057.384-.248.397l-.2.013v.105a15.866 15.866 0 0 1 1.232 0c0-.041-.015-.064-.015-.106l-.199-.012c-.19-.013-.234-.066-.234-.397 0-.728.022-1.457.022-2.186" style="stroke-width:1"/></svg>