<svg xmlns="http://www.w3.org/2000/svg" xmlns:xlink="http://www.w3.org/1999/xlink" xml:space="preserve" id="svg154" width="24" height="24" fill="none" version="1.1"><defs id="defs152"><linearGradient id="linearGradient650"><stop id="stop646" offset="0" style="stop-color:#f2f2f2;stop-opacity:1"/><stop id="stop648" offset="1" style="stop-color:#f9f9f9;stop-opacity:1"/></linearGradient><linearGradient id="linearGradient782" x1="46.824" x2="16.233" y1="52.926" y2="10.102" gradientTransform="scale(7.22916) rotate(68.485 33.62 23.476)" gradientUnits="userSpaceOnUse" spreadMethod="pad"><stop id="stop778" offset="0" style="stop-opacity:1;stop-color:#06f"/><stop id="stop780" offset="1" style="stop-opacity:1;stop-color:#5df"/></linearGradient><linearGradient xlink:href="#linearGradient782" id="linearGradient827" x1="46.824" x2="16.233" y1="52.926" y2="10.102" gradientTransform="scale(7.22916) rotate(68.485 33.62 23.476)" gradientUnits="userSpaceOnUse" spreadMethod="pad"/><linearGradient xlink:href="#linearGradient782" id="linearGradient562" x1="46.824" x2="16.233" y1="52.926" y2="10.102" gradientTransform="scale(7.22916) rotate(68.485 33.62 23.476)" gradientUnits="userSpaceOnUse" spreadMethod="pad"/><linearGradient xlink:href="#linearGradient650" id="linearGradient652" x1="11.375" x2="12.188" y1="46.75" y2="-3.937" gradientUnits="userSpaceOnUse"/><linearGradient xlink:href="#linearGradient650" id="linearGradient1074" x1="11.375" x2="12.188" y1="46.75" y2="-3.937" gradientUnits="userSpaceOnUse"/><style id="current-color-scheme" type="text/css">.ColorScheme-Text{color:#31363b}.ColorScheme-Background{color:#eff0f1}.ColorScheme-Highlight{color:#3daee9}.ColorScheme-ViewText{color:#31363b}.ColorScheme-ViewBackground{color:#fcfcfc}.ColorScheme-ViewHover{color:#93cee9}.ColorScheme-ViewFocus{color:#3daee9}.ColorScheme-ButtonText{color:#31363b}.ColorScheme-ButtonBackground{color:#eff0f1}.ColorScheme-ButtonHover{color:#93cee9}.ColorScheme-ButtonFocus{color:#3daee9}</style></defs><g id="g2267" style="fill:url(#linearGradient652);fill-opacity:1"><path id="path6" d="M50 5C9.09 5 5 25.455 5 50c0 32.727 12.273 45 45 45 32.727 0 45-12.273 45-45 0-24.545-4.09-45-45-45Z" style="font-variation-settings:normal;display:inline;opacity:1;vector-effect:none;fill:url(#linearGradient1074);fill-opacity:1;stroke-width:4.56656;stroke-linecap:butt;stroke-linejoin:miter;stroke-miterlimit:4;stroke-dasharray:none;stroke-dashoffset:0;stroke-opacity:1;-inkscape-stroke:none;stop-color:#000;stop-opacity:1" transform="matrix(.24444 0 0 .24444 -.222 -.222)"/></g><g id="g584" transform="translate(26.061 1.688)"><g id="g768" transform="matrix(.06063 0 0 .06063 -25.062 -.687)"><g id="g770"><g id="g776"><path id="path784" d="M302.477 133.695a130.169 130.169 0 0 0-51.243-61.945l-16.472 37.91a89.47 89.47 0 0 1 29.886 38.953c18.11 45.961-4.464 97.907-50.425 116.024a89.437 89.437 0 0 1-48.828 4.672l-16.485 37.933a130.15 130.15 0 0 0 80.231-4.769c66.859-26.356 99.691-101.922 73.336-168.778Z" style="fill:url(#linearGradient562);stroke:none"/></g></g></g><g id="g786" transform="matrix(.06063 0 0 .06063 -25.062 -.687)"><g id="g788"><g id="g794"><path id="path802" d="M213.922 55.586a130.138 130.138 0 0 0-80.227 4.773 130.14 130.14 0 0 0-71.625 69.203 130.143 130.143 0 0 0-1.711 99.579 130.132 130.132 0 0 0 51.243 61.941l16.468-37.914a89.438 89.438 0 0 1-29.879-38.941 89.476 89.476 0 0 1 1.172-68.465 89.47 89.47 0 0 1 49.242-47.578 89.432 89.432 0 0 1 48.833-4.664z" style="fill:url(#linearGradient827);stroke:none"/></g></g></g></g></svg>