<svg xmlns="http://www.w3.org/2000/svg" xmlns:xlink="http://www.w3.org/1999/xlink" xml:space="preserve" id="svg154" width="24" height="24" fill="none" version="1.1"><defs id="defs152"><linearGradient id="linearGradient541"><stop id="stop537" offset="0" style="stop-color:#6d6d6d;stop-opacity:1"/><stop id="stop539" offset="1" style="stop-color:#d4d4d4;stop-opacity:1"/></linearGradient><linearGradient xlink:href="#linearGradient541" id="linearGradient543" x1="50.511" x2="49.489" y1="90.526" y2="-7.273" gradientTransform="matrix(.24444 0 0 .24444 -.222 -.222)" gradientUnits="userSpaceOnUse"/><style id="current-color-scheme" type="text/css">.ColorScheme-Text{color:#31363b}.ColorScheme-Background{color:#eff0f1}.ColorScheme-Highlight{color:#3daee9}.ColorScheme-ViewText{color:#31363b}.ColorScheme-ViewBackground{color:#fcfcfc}.ColorScheme-ViewHover{color:#93cee9}.ColorScheme-ViewFocus{color:#3daee9}.ColorScheme-ButtonText{color:#31363b}.ColorScheme-ButtonBackground{color:#eff0f1}.ColorScheme-ButtonHover{color:#93cee9}.ColorScheme-ButtonFocus{color:#3daee9}</style></defs><path id="path6" d="M12 1C2 1 1 6 1 12c0 8 3 11 11 11s11-3 11-11c0-6-1-11-11-11Z" style="font-variation-settings:normal;display:inline;opacity:1;vector-effect:none;fill:url(#linearGradient543);fill-opacity:1;stroke-width:1.11627;stroke-linecap:butt;stroke-linejoin:miter;stroke-miterlimit:4;stroke-dasharray:none;stroke-dashoffset:0;stroke-opacity:1;-inkscape-stroke:none;stop-color:#000;stop-opacity:1"/><g id="g13793" transform="matrix(1.06739 0 0 1.06739 2.963 2.96)"><circle id="circle13757" cx="8.466" cy="8.47" r="7.144" fill="#fff" stroke="#000" stroke-opacity=".098" stroke-width=".529" style="paint-order:stroke markers fill"/><circle id="circle13759" cx="8.466" cy="8.47" r="7.144" fill="#fff" style="paint-order:stroke markers fill"/><path id="path13761" fill="#729ed3" d="M32.154 16.002V32.25l11.104 11.104A16 16 0 0 0 48 32a16 16 0 0 0-15.846-15.998Z" opacity=".35" style="paint-order:stroke fill markers" transform="scale(.26458)"/><path id="path13763" fill="#333" d="M8.202 4.23h.529v4.233h-.529Z" style="paint-order:stroke markers fill"/><path id="path13765" fill="#729ed3" d="m8.654 8.464 4.116 4.116-.188.187-4.116-4.116Z" style="paint-order:stroke markers fill"/><circle id="circle13767" cx="8.467" cy="8.46" r=".265" fill="#333" style="paint-order:stroke markers fill"/><circle id="circle13769" cx="8.466" cy="2.646" r=".265" fill="gray" style="paint-order:stroke fill markers"/><circle id="circle13771" cx="8.466" cy="14.287" r=".265" fill="gray" style="paint-order:stroke fill markers"/><circle id="circle13773" cx="8.466" cy="-14.287" r=".265" fill="gray" style="paint-order:stroke fill markers" transform="rotate(90)"/><circle id="circle13775" cx="8.466" cy="-2.646" r=".265" fill="gray" style="paint-order:stroke fill markers" transform="rotate(90)"/></g></svg>