<svg xmlns="http://www.w3.org/2000/svg" xmlns:xlink="http://www.w3.org/1999/xlink" xml:space="preserve" id="svg154" width="24" height="24" fill="none" version="1.1"><defs id="defs152"><linearGradient id="linearGradient541"><stop id="stop537" offset="0" style="stop-color:#8534a8;stop-opacity:1"/><stop id="stop539" offset="1" style="stop-color:#c37cd7;stop-opacity:1"/></linearGradient><linearGradient xlink:href="#linearGradient541" id="linearGradient543" x1="50.511" x2="49.489" y1="90.526" y2="-7.273" gradientTransform="matrix(.24444 0 0 .24444 -.222 -.222)" gradientUnits="userSpaceOnUse"/><style id="current-color-scheme" type="text/css">.ColorScheme-Text{color:#31363b}.ColorScheme-Background{color:#eff0f1}.ColorScheme-Highlight{color:#3daee9}.ColorScheme-ViewText{color:#31363b}.ColorScheme-ViewBackground{color:#fcfcfc}.ColorScheme-ViewHover{color:#93cee9}.ColorScheme-ViewFocus{color:#3daee9}.ColorScheme-ButtonText{color:#31363b}.ColorScheme-ButtonBackground{color:#eff0f1}.ColorScheme-ButtonHover{color:#93cee9}.ColorScheme-ButtonFocus{color:#3daee9}</style></defs><path id="path6" d="M12 1C2 1 1 6 1 12c0 8 3 11 11 11s11-3 11-11c0-6-1-11-11-11Z" style="font-variation-settings:normal;display:inline;opacity:1;vector-effect:none;fill:url(#linearGradient543);fill-opacity:1;stroke-width:1.11627;stroke-linecap:butt;stroke-linejoin:miter;stroke-miterlimit:4;stroke-dasharray:none;stroke-dashoffset:0;stroke-opacity:1;-inkscape-stroke:none;stop-color:#000;stop-opacity:1"/><path id="path14025" fill="#fff" d="M9.72 5.019a.524.524 0 0 0-.526.523.52.52 0 0 0 .105.303l-1.316 1.5c-.052-.013-.1-.033-.158-.033a.65.65 0 0 0-.649.64c0 .014.017.022.018.035l-1.158.759a.525.525 0 0 0-.298-.101.524.524 0 0 0-.526.522c0 .176.094.327.228.421l-.21 3.913a.414.414 0 0 0 .211.776h.034l2.877 2.917v.016c0 .227.175.422.403.422a.445.445 0 0 0 .228-.067l1.579.826c-.004.023-.018.043-.018.068 0 .288.235.522.526.522a.514.514 0 0 0 .51-.472l4.208-1.231a.548.548 0 0 0 .44.219.524.524 0 0 0 .525-.523.518.518 0 0 0-.122-.32l1.824-3.996a.524.524 0 0 0 .526-.523.515.515 0 0 0-.42-.506l-.58-1.906a.393.393 0 0 0 .158-.303.414.414 0 0 0-.421-.405c-.02 0-.034.014-.053.017l-2.648-3.204c.004-.021.018-.044.018-.067a.414.414 0 0 0-.422-.405.386.386 0 0 0-.315.169l-4.087-.152a.522.522 0 0 0-.491-.354Zm.49.708 4.018.152a.397.397 0 0 0 .158.219l-.106.455a.628.628 0 0 0-.42.338l-4.49.539.297-1.383c.02.002.033.017.053.017a.529.529 0 0 0 .491-.337Zm4.58.405 2.578 3.12c-.027.054-.053.103-.053.168 0 .113.048.213.123.287l-.21.59-2.246-2.833a.638.638 0 0 0 .088-.304.626.626 0 0 0-.421-.59l.088-.421c.017-.006.035-.009.052-.017zm-5.334.084-.28 1.231-.86.101c-.004-.006-.012-.01-.017-.016l1.158-1.316Zm4.421 1.4L12.58 12.64c-.04.01-.085.019-.123.034l-3.332-3.76 1.56-.17c.071.128.213.22.369.22a.413.413 0 0 0 .403-.422c0-.031-.01-.055-.017-.084l2.245-.826Zm-.964.1-1.562.574a.379.379 0 0 0-.298-.152.414.414 0 0 0-.421.405v.017l-1.543.186.122-.608 3.702-.42Zm1.665.085 2.439 3.103-.509 1.417-3.052.708a.735.735 0 0 0-.175-.203Zm-5.577.371-.105.489-.387-.438.492-.05Zm-1.666.169a.658.658 0 0 0 .105.101l-.088.49-1.105.134v-.017zm.456.236h.069l.246.27-.368.05.052-.32Zm.473.438.456.506-.21.928a.4.4 0 0 0-.386.405.39.39 0 0 0 .157.303l-1.385 2.09.807-4.164Zm-.947.102-.877 4.535a.522.522 0 0 0-.351.27l-.246-.05a.419.419 0 0 0-.245-.388l.21-3.81a.506.506 0 0 0 .439-.44zm1.544.59 3.122 3.49c-.007.022-.014.046-.018.068l-5.052.54a.504.504 0 0 0-.105-.085l1.614-2.478a.392.392 0 0 0 .105.016.414.414 0 0 0 .422-.405.426.426 0 0 0-.246-.37zm8.735.1c.01.004.023-.002.035 0l.473 1.62-.736-.962zm-.456 1.266.736.927-1.157.27zm.789 1.45-1.666 3.625.034-2.26a.386.386 0 0 0 .316-.37.387.387 0 0 0-.228-.337l.123-.321 1.421-.337zm-1.614.388-.087.219a.388.388 0 0 0-.386.388c0 .176.116.326.28.37l-.052 2.58a.539.539 0 0 0-.299.254l-2.298-.506a.414.414 0 0 0-.42-.405.417.417 0 0 0-.422.388l-.56.135.701-2.125a.809.809 0 0 0 .772-.657l2.771-.642zm-4.262.876a.84.84 0 0 0 .193.237l-.807 2.462-1.684.421-2.719-2.546c.004-.01.014-.023.018-.034zm-6.087.439.07.017c.004.02-.005.047 0 .067zm.422.421c.05.016.102.034.157.034h.035l2.298 2.142a.384.384 0 0 0-.333.05l-2.158-2.226Zm6.28 1.72c.058.155.209.253.385.253a.408.408 0 0 0 .386-.236l2 .439-3.894 1.13.473-1.434zm-1.281.32-.421 1.266a.506.506 0 0 0-.07.016l-1-.927Zm-2.105.507.263.253-.368-.203v-.033z" opacity=".99" style="stroke-width:.413087"/></svg>