<svg xmlns="http://www.w3.org/2000/svg" xmlns:xlink="http://www.w3.org/1999/xlink" xml:space="preserve" width="24" height="24" image-rendering="optimizeSpeed"><defs><radialGradient id="a" cx="0" cy="0" r="1" fx="0" fy="0" gradientTransform="matrix(0 22 -22 0 -22 1)" gradientUnits="userSpaceOnUse" spreadMethod="pad"><stop offset="0" style="stop-color:#ff9283;stop-opacity:1"/><stop offset="1" style="stop-color:#ff644f;stop-opacity:1"/></radialGradient><radialGradient xlink:href="#a" id="b" cx="0" cy="0" r="1" fx="0" fy="0" gradientTransform="matrix(0 22 -22 0 -22 1)" gradientUnits="userSpaceOnUse" spreadMethod="pad"/></defs><path d="M-24.063 1.068c-.11.03-.224.047-.344.047-.739.057-1.473.177-2.197.354-3.104.739-5.063 2.651-5.875 5.734a18.502 18.502 0 0 0-.516 4.786c-.032 1.522.12 3.027.448 4.511.77 3.303 2.817 5.323 6.125 6.057 1.802.37 3.619.511 5.452.412a15.591 15.591 0 0 0 4.767-.824c1.905-.697 3.285-1.968 4.135-3.812.458-1.062.756-2.166.896-3.317.182-1.641.218-3.281.114-4.928a14.563 14.563 0 0 0-.754-3.823c-.751-2.057-2.136-3.505-4.162-4.338a13.68 13.68 0 0 0-3.781-.848c-1.433-.1-2.87-.106-4.308-.011z" style="fill:url(#b);fill-rule:evenodd;stroke:none;stroke-width:1.33333" transform="translate(34)"/><path d="m-12.475 4.918-4.529 2.894.68 6.473 4.955 1.86c.081-.372.15-.748.197-1.13a28.3 28.3 0 0 0 .113-4.927 14.559 14.559 0 0 0-.753-3.822 8.243 8.243 0 0 0-.461-1.041 11.459 11.459 0 0 0-.202-.307z" style="fill:#fff;fill-opacity:.298039;fill-rule:evenodd;stroke:none;stroke-width:1.33333" transform="translate(34)"/><path d="m14.202 9.537 3.383-2.12c.277-.174.53-.052.566.272l.7 6.473c.035.325-.186.5-.493.391l-3.768-1.327.082.778a1.184 1.184 0 0 1-1.054 1.303l-7.65.803a1.183 1.183 0 0 1-1.3-1.055L4.11 9.762A1.184 1.184 0 0 1 5.164 8.46l7.65-.804a1.183 1.183 0 0 1 1.301 1.055zm0 0-3.126 1.96c-.277.174-.253.402.055.51l3.459 1.22z" style="fill:#fff;fill-rule:evenodd;stroke-width:.899996"/></svg>