<svg xmlns="http://www.w3.org/2000/svg" xmlns:xlink="http://www.w3.org/1999/xlink" width="24" height="24" viewBox="0 0 6.35 6.35"><defs><linearGradient id="e" x1="13.229" x2="2.117" y1="297" y2="280.07" gradientTransform="matrix(1.0714 0 0 1 -44.882 -280.563)" gradientUnits="userSpaceOnUse"><stop offset="0" stop-color="#66bcff"/><stop offset="1" stop-color="#b29aff"/></linearGradient><linearGradient xlink:href="#a" id="g" x1="10.583" x2="225.69" y1="-184.68" y2="-184.68" gradientTransform="translate(12.078 102.06) scale(.11417)" gradientUnits="userSpaceOnUse"/><linearGradient id="a" x1="10.583" x2="225.69" y1="-184.68" y2="-184.68" gradientTransform="translate(18.557 59.5) scale(.11417)" gradientUnits="userSpaceOnUse"><stop offset="0" stop-color="#fafbfb"/><stop offset="1" stop-color="#fafbfb" stop-opacity="0"/></linearGradient><linearGradient xlink:href="#b" id="h" x1="520" x2="410" y1="-620" y2="-620" gradientTransform="translate(12.078 102.06) scale(.0302)" gradientUnits="userSpaceOnUse"/><linearGradient id="b" x1="520" x2="410" y1="-620" y2="-620" gradientTransform="translate(18.557 59.5) scale(.0302)" gradientUnits="userSpaceOnUse"><stop offset="0"/><stop offset="1" stop-opacity="0"/></linearGradient><linearGradient xlink:href="#c" id="f" x1="-240.47" x2="-240.47" y1="-60.605" y2="-29.026" gradientTransform="matrix(.06391 0 0 .06281 18.412 5.514)" gradientUnits="userSpaceOnUse"/><linearGradient id="c" x1="-240.47" x2="-240.47" y1="-60.605" y2="-29.026" gradientTransform="matrix(.96667 0 0 .95 262.45 67.575)" gradientUnits="userSpaceOnUse"><stop offset="0" stop-color="#4285db"/><stop offset="1" stop-color="#42b9db"/></linearGradient><radialGradient id="d" cx="0" cy="0" r="1" fx="0" fy="0" gradientTransform="rotate(90 1.455 1.72) scale(5.82072)" gradientUnits="userSpaceOnUse" spreadMethod="pad"><stop offset="0" style="stop-opacity:1;stop-color:#a4a4a4"/><stop offset="1" style="stop-opacity:1;stop-color:#626262"/></radialGradient></defs><path d="M2.538.295A.335.335 0 0 0 2.63.283c.38-.025.76-.024 1.14.002a3.62 3.62 0 0 1 1 .225c.536.22.903.603 1.101 1.148.112.328.18.665.2 1.011.028.436.018.87-.03 1.304a3.166 3.166 0 0 1-.237.878c-.225.487-.59.824-1.094 1.008a4.125 4.125 0 0 1-1.261.218 5.644 5.644 0 0 1-1.443-.109C1.13 5.774.588 5.24.385 4.366a5.025 5.025 0 0 1-.12-1.194c-.009-.429.036-.85.137-1.266C.617 1.09 1.135.584 1.957.389c.191-.047.386-.079.581-.094Z" style="fill:url(#d);fill-rule:evenodd;stroke:none;stroke-width:.35277"/><path fill="#b3b3b3" d="m3.175 3.633-.61.458c0 .534-.077.534-.458.763l1.068.076 1.068-.076c-.381-.229-.457-.229-.457-.763Z" style="stroke-width:.130027"/><path fill="#ccc" d="M2.107 4.854v.153h2.136v-.153Z" style="stroke-width:.130027"/><rect width="3.969" height="2.655" x="1.191" y="1.438" fill="#303030" rx=".311" ry=".311" style="stroke-width:.12783"/><rect width="3.835" height="2.513" x="1.257" y="1.509" fill="url(#e)" rx=".264" ry=".26" style="fill:url(#f);stroke-width:.0661186"/><path fill="#1a1a1a" d="m2.686 3.783.959-1.038.798 1.038z"/><path fill="#e6e6e6" d="m2.614 3.152-1.26.81a.265.265 0 0 0 .169.06H3.99l-1.376-.87z" opacity=".9"/><path fill="#fafbfb" d="m2.367 4.023.247-.87 1.376.87z"/><path fill="#b0b2b5" d="m3.645 2.665-.32.34v1.018h1.503a.265.265 0 0 0 .185-.075z"/><path fill="#fff" d="m3.644 2.665.4 1.358h.784a.265.265 0 0 0 .185-.075L3.645 2.665z"/><path fill="url(#a)" d="m13.287 87.56 3.746-13.172L37.847 87.56z" style="fill:url(#g)" transform="matrix(.0661 0 0 .0661 1.488 -1.765)"/><path fill="url(#b)" d="M26.578 80.43v7.13h1.208v-6.366z" opacity=".35" style="fill:url(#h)" transform="matrix(.0661 0 0 .0661 1.488 -1.765)"/><g fill="#f9f9f9"><path d="m3.915 2.173-.338.225c-.01.073-.025.146 0 .226l.338.225Z" style="stroke-width:.213123" transform="matrix(1.15033 0 0 1.15033 -.486 -.4)"/><path d="M2.505 2.06a.056.056 0 0 0-.056.056v.79c0 .031.025.056.056.056h1.016a.056.056 0 0 0 .056-.056v-.79a.056.056 0 0 0-.056-.056zm.508.17a.282.282 0 0 1 .282.281.282.282 0 0 1-.282.282.282.282 0 0 1-.282-.282.282.282 0 0 1 .282-.282z" style="stroke-width:.213123" transform="matrix(1.15033 0 0 1.15033 -.486 -.4)"/></g></svg>