<svg xmlns="http://www.w3.org/2000/svg" xml:space="preserve" width="24" height="24" viewBox="0 0 6.35 6.35"><defs><radialGradient id="a" cx="0" cy="0" r="1" gradientTransform="rotate(90 1.455 1.72) scale(5.82072)" gradientUnits="userSpaceOnUse"><stop stop-color="#9BDCFF"/><stop offset="1" stop-color="#006AE8"/></radialGradient></defs><path fill="url(#a)" fill-rule="evenodd" d="M2.539.295a.312.312 0 0 0 .09-.012 8.37 8.37 0 0 1 1.14.003c.345.026.678.101 1 .224.536.22.903.603 1.1 1.148.114.328.18.665.2 1.012.029.435.019.869-.03 1.302a3.143 3.143 0 0 1-.236.879 1.87 1.87 0 0 1-1.094 1.008c-.409.138-.829.211-1.26.218a5.666 5.666 0 0 1-1.444-.108C1.13 5.773.59 5.239.385 4.366a5.039 5.039 0 0 1-.12-1.194c-.009-.428.037-.85.137-1.266C.617 1.09 1.135.584 1.957.39c.191-.047.385-.079.582-.094Z" clip-rule="evenodd" style="fill:url(#a);stroke-width:.264578"/><path stroke="#fafafa" stroke-opacity=".125" d="M5.938 2.677v.001c.027.427.018.854-.03 1.279a3.01 3.01 0 0 1-.226.84c-.21.454-.547.765-1.017.938a4 4 0 0 1-1.22.21h-.004a5.533 5.533 0 0 1-1.408-.106c-.418-.093-.748-.265-.997-.512-.25-.246-.425-.574-.523-.99a4.907 4.907 0 0 1-.115-1.162V3.17a4.76 4.76 0 0 1 .133-1.23c.102-.389.274-.696.513-.93.24-.233.552-.399.944-.492a3.56 3.56 0 0 1 .556-.09.445.445 0 0 0 .108-.013C3.02.39 3.39.39 3.76.417c.33.026.65.098.96.216.501.206.84.56 1.025 1.069.109.316.173.641.193.975z" style="fill:none;stroke-width:.264578"/><path fill="#fafafa" fill-opacity=".125" fill-rule="evenodd" d="M2.684.53h-.008a.285.285 0 0 1-.083.011 3.39 3.39 0 0 0-.154.016v.655h-.983V.866c-.088.053-.17.112-.246.178v.168h-.166a1.738 1.738 0 0 0-.177.245h.343v.983H.557a4.458 4.458 0 0 0-.028.245h.681v.982H.53c.007.082.016.164.027.246h.653v.983H.87c.052.088.112.17.177.245h.163v.163c.076.066.158.125.246.178v-.34h.983v.648c.081.011.163.02.245.028v-.677h.982v.68c.082-.007.164-.016.246-.028v-.652h.982v.343c.088-.052.17-.111.246-.177V5.14h.165c.065-.075.124-.157.177-.245H5.14v-.983h.655v-.007c.01-.08.017-.16.023-.239H5.14v-.982h.682a3.486 3.486 0 0 0-.025-.245H5.14v-.983h.345a1.698 1.698 0 0 0-.177-.245H5.14v-.168a1.736 1.736 0 0 0-.246-.177v.345h-.982V.553A3.331 3.331 0 0 0 3.667.53v.683h-.983Zm-.246.927h-.982v.983h.982zm1.228 0h-.982v.983h.982zm1.229 0h-.983v.983h.983zM2.438 2.685h-.982v.982h.982zm1.228 0h-.982v.982h.982zm1.229 0h-.983v.982h.983zM2.438 3.913h-.982v.983h.982zm1.228 0h-.982v.983h.982zm1.229 0h-.983v.983h.983z" clip-rule="evenodd" style="stroke-width:.264578"/><path fill="#fff" d="M3.065 1.19a.22.22 0 0 0-.127.402c-.161.488-.456 1.285-.755 1.583 0 0 .437.662.438 1.103a.166.166 0 0 0-.162.167c0 .092.071.165.161.167v.547h1.105v-.547h.002a.166.166 0 0 0 .165-.167.166.166 0 0 0-.165-.167h-.003c.002-.441.443-1.102.443-1.102-.299-.3-.594-1.096-.756-1.584a.22.22 0 0 0-.126-.401v2.014a.22.22 0 1 1-.22 0V1.632Z" style="stroke-width:.416746"/></svg>