<svg xmlns="http://www.w3.org/2000/svg" width="24" height="24" viewBox="0 0 6.35 6.35"><defs><linearGradient id="a" x1="23" x2="1" y1="1" y2="12" gradientTransform="scale(.26458)" gradientUnits="userSpaceOnUse"><stop stop-color="#198CFF"/><stop offset="1" stop-color="#1964FF"/></linearGradient><linearGradient id="b" x1="21" x2="3" y1="4" y2="4" gradientTransform="scale(.26458)" gradientUnits="userSpaceOnUse"><stop stop-opacity=".5"/><stop offset=".89"/><stop offset="1" stop-opacity="0"/></linearGradient><linearGradient id="c" x1="12" x2="11.5" y1="3" y2="8" gradientTransform="scale(.26458)" gradientUnits="userSpaceOnUse"><stop stop-color="#DDD"/><stop offset="1" stop-color="#CCC" stop-opacity="0"/></linearGradient><linearGradient id="d" x1="23" x2="1.012" y1="9" y2="9.521" gradientTransform="scale(.26458)" gradientUnits="userSpaceOnUse"><stop stop-opacity=".5"/><stop offset="1"/></linearGradient><linearGradient id="e" x1="23" x2="1.429" y1="5.4" y2="23.511" gradientTransform="scale(.26458)" gradientUnits="userSpaceOnUse"><stop stop-color="#198CFF"/><stop offset="1" stop-color="#3F8AE8"/></linearGradient><linearGradient id="f" x1="15" x2="5.5" y1="5.5" y2="19.5" gradientTransform="scale(.26458)" gradientUnits="userSpaceOnUse"><stop stop-color="#85F8FF"/><stop offset="1" stop-color="#105BF6"/></linearGradient></defs><rect width="5.821" height="5.821" x=".265" y=".265" fill="url(#a)" opacity=".813" rx="1.746" style="fill:url(#a);stroke-width:.264578"/><rect width="4.762" height="4.762" x=".794" y=".595" fill="url(#paint1_linear_201_118)" fill-opacity=".875" opacity=".125" rx="1.164" style="fill:url(#b);stroke-width:.264578"/><rect width="4.63" height="4.63" x=".86" y=".86" fill="#ccc" stroke="url(#paint2_linear_201_118)" stroke-width=".132" rx="1.098" style="stroke:url(#c)"/><path fill="url(#paint3_linear_201_118)" fill-opacity=".875" d="M.265 1.986c0-.44.356-.795.795-.795h1.107c.284 0 .56.097.78.277.221.18.497.277.781.277H5.29c.44 0 .796.356.796.796V4.1c0 .964-.782 1.746-1.746 1.746H2.011A1.746 1.746 0 0 1 .265 4.101z" opacity=".125" style="fill:url(#d);stroke-width:.264578"/><path fill="url(#e)" d="M.265 2.225c0-.44.356-.796.795-.796h1.107c.284 0 .56.098.78.277.221.18.497.277.781.277H5.29c.44 0 .796.356.796.796v1.56c0 .964-.782 1.746-1.746 1.746H2.011A1.746 1.746 0 0 1 .265 4.34z" style="opacity:.875;fill:url(#e);stroke-width:.264578"/><path stroke="url(#f)" stroke-linejoin="round" stroke-opacity=".375" stroke-width=".198" d="M5.986 2.779v1.56c0 .91-.737 1.647-1.647 1.647H2.011C1.1 5.986.364 5.25.364 4.34V2.225c0-.385.312-.697.696-.697h1.107c.262 0 .515.09.718.255.238.194.536.3.843.3H5.29c.385 0 .697.311.697.696z" style="opacity:.875;stroke:url(#f);fill:none"/><path d="M2.214 2.31v.48a1.921 1.921 0 0 1 1.922 1.922h.48A2.401 2.401 0 0 0 2.214 2.31m0 .961v.48c.531 0 .961.43.961.96h.48a1.441 1.441 0 0 0-1.44-1.44m0 .96a.48.48 0 1 0 0 .961.48.48 0 0 0 0-.96" opacity=".15" style="stroke-width:1"/><path d="M4.87 3.004a2.244 2.244 0 0 0-2.243 2.244 2.244 2.244 0 0 0 .168.837h1.544c.968 0 1.746-.778 1.746-1.746v-.977a2.244 2.244 0 0 0-1.214-.358Z" style="fill:#4d4d4d;fill-opacity:1;stroke-width:.264578"/><path d="M4.87 3.954a.788.788 0 0 0-.788.784v.47h-.05a.21.21 0 0 0-.212.21v.667h.52c.152 0 .3-.02.441-.056v-.137a.193.193 0 0 1-.103-.17c0-.102.082-.187.183-.192h.01a.192.192 0 0 1 .088.362v.08c.367-.138.673-.395.874-.725a.21.21 0 0 0-.122-.04H5.66v-.47a.788.788 0 0 0-.79-.783Zm0 .247c.298 0 .54.239.544.537v.47H4.329v-.47A.543.543 0 0 1 4.87 4.2Z" style="fill:#fff;fill-opacity:1;stroke-width:.264578"/></svg>