<svg xmlns="http://www.w3.org/2000/svg" width="24" height="24" image-rendering="optimizeSpeed"><defs><linearGradient id="a" x1="12" x2="12" y1="0" y2="12" gradientTransform="matrix(.91667 0 0 .91667 1 1)" gradientUnits="userSpaceOnUse"><stop offset="0" stop-color="#fff" style="stop-color:#e2e9f2;stop-opacity:1"/><stop offset="1" stop-color="#D9D9D9" style="stop-color:#91a1b9;stop-opacity:1"/></linearGradient></defs><path fill="url(#a)" fill-rule="evenodd" d="M9.596 1.114c.12 0 .234-.014.344-.046a31.627 31.627 0 0 1 4.307.011c1.301.102 2.561.384 3.78.848 2.026.833 3.412 2.28 4.158 4.339.427 1.24.679 2.514.756 3.824a27.935 27.935 0 0 1-.115 4.923 11.882 11.882 0 0 1-.893 3.32c-.85 1.843-2.229 3.114-4.135 3.813a15.626 15.626 0 0 1-4.765.825 21.425 21.425 0 0 1-5.453-.413c-3.312-.737-5.354-2.756-6.128-6.056a19.046 19.046 0 0 1-.447-4.511 18.49 18.49 0 0 1 .515-4.786c.812-3.086 2.77-4.998 5.877-5.736a13.953 13.953 0 0 1 2.199-.355Z" clip-rule="evenodd" style="fill:url(#a);stroke-width:.916667"/><rect width="15.124" height="5.041" x="4.438" y="3.75" rx=".517" ry=".517" style="fill:#e2e9f2;fill-opacity:1;stroke:none;stroke-width:.839601;stroke-linecap:round;stroke-linejoin:round;stroke-dashoffset:1.89038;stroke-opacity:.0528456;paint-order:stroke markers fill"/><rect width="15.124" height="5.041" x="4.438" y="15.209" rx=".517" ry=".517" style="fill:#e2e9f2;fill-opacity:1;stroke:none;stroke-width:.839601;stroke-linecap:round;stroke-linejoin:round;stroke-dashoffset:1.89038;stroke-opacity:.0528456;paint-order:stroke markers fill"/><g transform="scale(3.7796)"><rect width="4.002" height="1.334" x="1.174" y="2.508" rx=".137" ry=".137" style="fill:#e2e9f2;fill-opacity:1;stroke:none;stroke-width:.22214;stroke-linecap:round;stroke-linejoin:round;stroke-dashoffset:1.89038;stroke-opacity:.0528456;paint-order:stroke markers fill"/><rect width=".132" height=".132" x="1.529" y="2.884" rx=".032" ry=".032" style="fill:#477ebd;fill-opacity:1;stroke:none;stroke-width:.318498;stroke-linecap:round;stroke-linejoin:round;stroke-dashoffset:1.89038;stroke-opacity:.0528456;paint-order:stroke markers fill"/><rect width=".132" height=".132" x="1.9" y="2.884" rx=".032" ry=".032" style="fill:#477ebd;fill-opacity:1;stroke:none;stroke-width:.318498;stroke-linecap:round;stroke-linejoin:round;stroke-dashoffset:1.89038;stroke-opacity:.0528456;paint-order:stroke markers fill"/><rect width=".132" height=".132" x="2.271" y="2.884" rx=".032" ry=".032" style="fill:#477ebd;fill-opacity:1;stroke:none;stroke-width:.318498;stroke-linecap:round;stroke-linejoin:round;stroke-dashoffset:1.89038;stroke-opacity:.0528456;paint-order:stroke markers fill"/><rect width=".132" height=".132" x="2.642" y="2.884" rx=".032" ry=".032" style="fill:#90a0b8;fill-opacity:1;stroke:none;stroke-width:.318498;stroke-linecap:round;stroke-linejoin:round;stroke-dashoffset:1.89038;stroke-opacity:.0528456;paint-order:stroke markers fill"/><rect width=".132" height=".132" x="1.708" y="3.12" rx=".032" ry=".032" style="fill:#477ebd;fill-opacity:1;stroke:none;stroke-width:.318498;stroke-linecap:round;stroke-linejoin:round;stroke-dashoffset:1.89038;stroke-opacity:.0528456;paint-order:stroke markers fill"/><rect width=".132" height=".132" x="2.079" y="3.12" rx=".032" ry=".032" style="fill:#477ebd;fill-opacity:1;stroke:none;stroke-width:.318498;stroke-linecap:round;stroke-linejoin:round;stroke-dashoffset:1.89038;stroke-opacity:.0528456;paint-order:stroke markers fill"/><rect width=".132" height=".132" x="2.45" y="3.12" rx=".032" ry=".032" style="fill:#477ebd;fill-opacity:1;stroke:none;stroke-width:.318498;stroke-linecap:round;stroke-linejoin:round;stroke-dashoffset:1.89038;stroke-opacity:.0528456;paint-order:stroke markers fill"/><rect width=".132" height=".132" x="2.822" y="3.12" rx=".032" ry=".032" style="fill:#477ebd;fill-opacity:1;stroke:none;stroke-width:.318498;stroke-linecap:round;stroke-linejoin:round;stroke-dashoffset:1.89038;stroke-opacity:.0528456;paint-order:stroke markers fill"/><rect width=".132" height=".132" x="1.708" y="3.12" rx=".032" ry=".032" style="fill:#477ebd;fill-opacity:1;stroke:none;stroke-width:.318498;stroke-linecap:round;stroke-linejoin:round;stroke-dashoffset:1.89038;stroke-opacity:.0528456;paint-order:stroke markers fill"/><rect width=".132" height=".132" x="2.079" y="3.12" rx=".032" ry=".032" style="fill:#477ebd;fill-opacity:1;stroke:none;stroke-width:.318498;stroke-linecap:round;stroke-linejoin:round;stroke-dashoffset:1.89038;stroke-opacity:.0528456;paint-order:stroke markers fill"/><rect width=".132" height=".132" x="2.45" y="3.12" rx=".032" ry=".032" style="fill:#90a0b8;fill-opacity:1;stroke:none;stroke-width:.318498;stroke-linecap:round;stroke-linejoin:round;stroke-dashoffset:1.89038;stroke-opacity:.0528456;paint-order:stroke markers fill"/><rect width=".132" height=".132" x="2.822" y="3.12" rx=".032" ry=".032" style="fill:#90a0b8;fill-opacity:1;stroke:none;stroke-width:.318498;stroke-linecap:round;stroke-linejoin:round;stroke-dashoffset:1.89038;stroke-opacity:.0528456;paint-order:stroke markers fill"/><rect width=".132" height=".132" x="1.529" y="3.351" rx=".032" ry=".032" style="fill:#90a0b8;fill-opacity:1;stroke:none;stroke-width:.318498;stroke-linecap:round;stroke-linejoin:round;stroke-dashoffset:1.89038;stroke-opacity:.0528456;paint-order:stroke markers fill"/><rect width=".132" height=".132" x="1.9" y="3.351" rx=".032" ry=".032" style="fill:#90a0b8;fill-opacity:1;stroke:none;stroke-width:.318498;stroke-linecap:round;stroke-linejoin:round;stroke-dashoffset:1.89038;stroke-opacity:.0528456;paint-order:stroke markers fill"/><rect width=".132" height=".132" x="2.271" y="3.351" rx=".032" ry=".032" style="fill:#90a0b8;fill-opacity:1;stroke:none;stroke-width:.318498;stroke-linecap:round;stroke-linejoin:round;stroke-dashoffset:1.89038;stroke-opacity:.0528456;paint-order:stroke markers fill"/><rect width=".132" height=".132" x="2.642" y="3.351" rx=".032" ry=".032" style="fill:#90a0b8;fill-opacity:1;stroke:none;stroke-width:.318498;stroke-linecap:round;stroke-linejoin:round;stroke-dashoffset:1.89038;stroke-opacity:.0528456;paint-order:stroke markers fill"/></g><g transform="translate(0 -.06) scale(3.7796)"><rect width=".132" height=".132" x="1.529" y="1.376" rx=".032" ry=".032" style="fill:#477ebd;fill-opacity:1;stroke:none;stroke-width:.318498;stroke-linecap:round;stroke-linejoin:round;stroke-dashoffset:1.89038;stroke-opacity:.0528456;paint-order:stroke markers fill"/><rect width=".132" height=".132" x="1.9" y="1.376" rx=".032" ry=".032" style="fill:#477ebd;fill-opacity:1;stroke:none;stroke-width:.318498;stroke-linecap:round;stroke-linejoin:round;stroke-dashoffset:1.89038;stroke-opacity:.0528456;paint-order:stroke markers fill"/><rect width=".132" height=".132" x="2.271" y="1.376" rx=".032" ry=".032" style="fill:#477ebd;fill-opacity:1;stroke:none;stroke-width:.318498;stroke-linecap:round;stroke-linejoin:round;stroke-dashoffset:1.89038;stroke-opacity:.0528456;paint-order:stroke markers fill"/><rect width=".132" height=".132" x="2.642" y="1.376" rx=".032" ry=".032" style="fill:#90a0b8;fill-opacity:1;stroke:none;stroke-width:.318498;stroke-linecap:round;stroke-linejoin:round;stroke-dashoffset:1.89038;stroke-opacity:.0528456;paint-order:stroke markers fill"/><rect width=".132" height=".132" x="1.708" y="1.612" rx=".032" ry=".032" style="fill:#477ebd;fill-opacity:1;stroke:none;stroke-width:.318498;stroke-linecap:round;stroke-linejoin:round;stroke-dashoffset:1.89038;stroke-opacity:.0528456;paint-order:stroke markers fill"/><rect width=".132" height=".132" x="2.079" y="1.612" rx=".032" ry=".032" style="fill:#477ebd;fill-opacity:1;stroke:none;stroke-width:.318498;stroke-linecap:round;stroke-linejoin:round;stroke-dashoffset:1.89038;stroke-opacity:.0528456;paint-order:stroke markers fill"/><rect width=".132" height=".132" x="2.45" y="1.612" rx=".032" ry=".032" style="fill:#477ebd;fill-opacity:1;stroke:none;stroke-width:.318498;stroke-linecap:round;stroke-linejoin:round;stroke-dashoffset:1.89038;stroke-opacity:.0528456;paint-order:stroke markers fill"/><rect width=".132" height=".132" x="2.822" y="1.612" rx=".032" ry=".032" style="fill:#477ebd;fill-opacity:1;stroke:none;stroke-width:.318498;stroke-linecap:round;stroke-linejoin:round;stroke-dashoffset:1.89038;stroke-opacity:.0528456;paint-order:stroke markers fill"/><rect width=".132" height=".132" x="1.708" y="1.612" rx=".032" ry=".032" style="fill:#477ebd;fill-opacity:1;stroke:none;stroke-width:.318498;stroke-linecap:round;stroke-linejoin:round;stroke-dashoffset:1.89038;stroke-opacity:.0528456;paint-order:stroke markers fill"/><rect width=".132" height=".132" x="2.079" y="1.612" rx=".032" ry=".032" style="fill:#477ebd;fill-opacity:1;stroke:none;stroke-width:.318498;stroke-linecap:round;stroke-linejoin:round;stroke-dashoffset:1.89038;stroke-opacity:.0528456;paint-order:stroke markers fill"/><rect width=".132" height=".132" x="2.45" y="1.612" rx=".032" ry=".032" style="fill:#477ebd;fill-opacity:1;stroke:none;stroke-width:.318498;stroke-linecap:round;stroke-linejoin:round;stroke-dashoffset:1.89038;stroke-opacity:.0528456;paint-order:stroke markers fill"/><rect width=".132" height=".132" x="2.822" y="1.612" rx=".032" ry=".032" style="fill:#90a0b8;fill-opacity:1;stroke:none;stroke-width:.318498;stroke-linecap:round;stroke-linejoin:round;stroke-dashoffset:1.89038;stroke-opacity:.0528456;paint-order:stroke markers fill"/><rect width=".132" height=".132" x="1.529" y="1.842" rx=".032" ry=".032" style="fill:#90a0b8;fill-opacity:1;stroke:none;stroke-width:.318498;stroke-linecap:round;stroke-linejoin:round;stroke-dashoffset:1.89038;stroke-opacity:.0528456;paint-order:stroke markers fill"/><rect width=".132" height=".132" x="1.9" y="1.842" rx=".032" ry=".032" style="fill:#477ebd;fill-opacity:1;stroke:none;stroke-width:.318498;stroke-linecap:round;stroke-linejoin:round;stroke-dashoffset:1.89038;stroke-opacity:.0528456;paint-order:stroke markers fill"/><rect width=".132" height=".132" x="2.271" y="1.842" rx=".032" ry=".032" style="fill:#90a0b8;fill-opacity:1;stroke:none;stroke-width:.318498;stroke-linecap:round;stroke-linejoin:round;stroke-dashoffset:1.89038;stroke-opacity:.0528456;paint-order:stroke markers fill"/><rect width=".132" height=".132" x="2.642" y="1.842" rx=".032" ry=".032" style="fill:#90a0b8;fill-opacity:1;stroke:none;stroke-width:.318498;stroke-linecap:round;stroke-linejoin:round;stroke-dashoffset:1.89038;stroke-opacity:.0528456;paint-order:stroke markers fill"/></g><g transform="translate(0 -.137) scale(3.7796)"><rect width=".132" height=".132" x="1.529" y="4.428" rx=".032" ry=".032" style="fill:#477ebd;fill-opacity:1;stroke:none;stroke-width:.318498;stroke-linecap:round;stroke-linejoin:round;stroke-dashoffset:1.89038;stroke-opacity:.0528456;paint-order:stroke markers fill"/><rect width=".132" height=".132" x="1.9" y="4.428" rx=".032" ry=".032" style="fill:#477ebd;fill-opacity:1;stroke:none;stroke-width:.318498;stroke-linecap:round;stroke-linejoin:round;stroke-dashoffset:1.89038;stroke-opacity:.0528456;paint-order:stroke markers fill"/><rect width=".132" height=".132" x="2.271" y="4.428" rx=".032" ry=".032" style="fill:#477ebd;fill-opacity:1;stroke:none;stroke-width:.318498;stroke-linecap:round;stroke-linejoin:round;stroke-dashoffset:1.89038;stroke-opacity:.0528456;paint-order:stroke markers fill"/><rect width=".132" height=".132" x="2.642" y="4.428" rx=".032" ry=".032" style="fill:#90a0b8;fill-opacity:1;stroke:none;stroke-width:.318498;stroke-linecap:round;stroke-linejoin:round;stroke-dashoffset:1.89038;stroke-opacity:.0528456;paint-order:stroke markers fill"/><rect width=".132" height=".132" x="1.708" y="4.664" rx=".032" ry=".032" style="fill:#477ebd;fill-opacity:1;stroke:none;stroke-width:.318498;stroke-linecap:round;stroke-linejoin:round;stroke-dashoffset:1.89038;stroke-opacity:.0528456;paint-order:stroke markers fill"/><rect width=".132" height=".132" x="2.079" y="4.664" rx=".032" ry=".032" style="fill:#477ebd;fill-opacity:1;stroke:none;stroke-width:.318498;stroke-linecap:round;stroke-linejoin:round;stroke-dashoffset:1.89038;stroke-opacity:.0528456;paint-order:stroke markers fill"/><rect width=".132" height=".132" x="2.45" y="4.664" rx=".032" ry=".032" style="fill:#477ebd;fill-opacity:1;stroke:none;stroke-width:.318498;stroke-linecap:round;stroke-linejoin:round;stroke-dashoffset:1.89038;stroke-opacity:.0528456;paint-order:stroke markers fill"/><rect width=".132" height=".132" x="2.822" y="4.664" rx=".032" ry=".032" style="fill:#477ebd;fill-opacity:1;stroke:none;stroke-width:.318498;stroke-linecap:round;stroke-linejoin:round;stroke-dashoffset:1.89038;stroke-opacity:.0528456;paint-order:stroke markers fill"/><rect width=".132" height=".132" x="1.708" y="4.664" rx=".032" ry=".032" style="fill:#477ebd;fill-opacity:1;stroke:none;stroke-width:.318498;stroke-linecap:round;stroke-linejoin:round;stroke-dashoffset:1.89038;stroke-opacity:.0528456;paint-order:stroke markers fill"/><rect width=".132" height=".132" x="2.079" y="4.664" rx=".032" ry=".032" style="fill:#477ebd;fill-opacity:1;stroke:none;stroke-width:.318498;stroke-linecap:round;stroke-linejoin:round;stroke-dashoffset:1.89038;stroke-opacity:.0528456;paint-order:stroke markers fill"/><rect width=".132" height=".132" x="2.45" y="4.664" rx=".032" ry=".032" style="fill:#477ebd;fill-opacity:1;stroke:none;stroke-width:.318498;stroke-linecap:round;stroke-linejoin:round;stroke-dashoffset:1.89038;stroke-opacity:.0528456;paint-order:stroke markers fill"/><rect width=".132" height=".132" x="2.822" y="4.664" rx=".032" ry=".032" style="fill:#90a0b8;fill-opacity:1;stroke:none;stroke-width:.318498;stroke-linecap:round;stroke-linejoin:round;stroke-dashoffset:1.89038;stroke-opacity:.0528456;paint-order:stroke markers fill"/><rect width=".132" height=".132" x="1.529" y="4.894" rx=".032" ry=".032" style="fill:#90a0b8;fill-opacity:1;stroke:none;stroke-width:.318498;stroke-linecap:round;stroke-linejoin:round;stroke-dashoffset:1.89038;stroke-opacity:.0528456;paint-order:stroke markers fill"/><rect width=".132" height=".132" x="1.9" y="4.894" rx=".032" ry=".032" style="fill:#477ebd;fill-opacity:1;stroke:none;stroke-width:.318498;stroke-linecap:round;stroke-linejoin:round;stroke-dashoffset:1.89038;stroke-opacity:.0528456;paint-order:stroke markers fill"/><rect width=".132" height=".132" x="2.271" y="4.894" rx=".032" ry=".032" style="fill:#90a0b8;fill-opacity:1;stroke:none;stroke-width:.318498;stroke-linecap:round;stroke-linejoin:round;stroke-dashoffset:1.89038;stroke-opacity:.0528456;paint-order:stroke markers fill"/><rect width=".132" height=".132" x="2.642" y="4.894" rx=".032" ry=".032" style="fill:#90a0b8;fill-opacity:1;stroke:none;stroke-width:.318498;stroke-linecap:round;stroke-linejoin:round;stroke-dashoffset:1.89038;stroke-opacity:.0528456;paint-order:stroke markers fill"/></g><circle cx="14.457" cy="6.271" r=".646" style="fill:#3db8ff;fill-opacity:1;stroke:none;stroke-width:.925568;stroke-linecap:round;stroke-linejoin:round;stroke-dashoffset:1.89038;stroke-opacity:.0528456;paint-order:stroke markers fill"/><circle cx="17.223" cy="6.271" r=".646" style="fill:#60b305;fill-opacity:1;stroke:none;stroke-width:.925568;stroke-linecap:round;stroke-linejoin:round;stroke-dashoffset:1.89038;stroke-opacity:.0528456;paint-order:stroke markers fill"/><circle cx="14.457" cy="12" r=".646" style="fill:#3db8ff;fill-opacity:1;stroke:none;stroke-width:.925568;stroke-linecap:round;stroke-linejoin:round;stroke-dashoffset:1.89038;stroke-opacity:.0528456;paint-order:stroke markers fill"/><circle cx="17.223" cy="12" r=".646" style="fill:#60b305;fill-opacity:1;stroke:none;stroke-width:.925568;stroke-linecap:round;stroke-linejoin:round;stroke-dashoffset:1.89038;stroke-opacity:.0528456;paint-order:stroke markers fill"/><circle cx="14.457" cy="17.729" r=".646" style="fill:#3db8ff;fill-opacity:1;stroke:none;stroke-width:.925568;stroke-linecap:round;stroke-linejoin:round;stroke-dashoffset:1.89038;stroke-opacity:.0528456;paint-order:stroke markers fill"/><circle cx="17.223" cy="17.729" r=".646" style="fill:#60b305;fill-opacity:1;stroke:none;stroke-width:.925568;stroke-linecap:round;stroke-linejoin:round;stroke-dashoffset:1.89038;stroke-opacity:.0528456;paint-order:stroke markers fill"/></svg>