<svg xmlns="http://www.w3.org/2000/svg" xml:space="preserve" width="24" height="24" viewBox="0 0 6.35 6.35"><defs><radialGradient id="a" cx="0" cy="0" r="1" gradientTransform="matrix(0 5.82072 -5.82072 0 3.175 .265)" gradientUnits="userSpaceOnUse"><stop stop-color="#9BDF6C"/><stop offset="1" stop-color="#204705"/></radialGradient></defs><path fill="url(#a)" fill-rule="evenodd" d="M2.539.295a.312.312 0 0 0 .09-.012c.38-.025.76-.024 1.14.003.345.026.678.101 1 .224.536.22.903.603 1.1 1.148.114.328.18.665.2 1.012.029.435.019.869-.03 1.302a3.143 3.143 0 0 1-.236.879 1.87 1.87 0 0 1-1.094 1.008c-.409.139-.83.211-1.26.219a5.669 5.669 0 0 1-1.444-.11C1.13 5.773.59 5.24.385 4.366a5.04 5.04 0 0 1-.12-1.194c-.009-.428.037-.85.137-1.266C.617 1.09 1.135.584 1.957.39c.191-.047.385-.079.582-.094Z" clip-rule="evenodd" style="fill:url(#a);stroke-width:.24253"/><g fill="#fafafa"><path d="M-21.344 13.066a.182.182 0 0 0-.364 0v1.637a.182.182 0 0 0 .364 0z" style="stroke-width:.24253" transform="translate(24.701 -11.8)"/><path d="M-20.41 13.466a.182.182 0 0 0-.094.322 1.637 1.637 0 1 1-2.043.003.182.182 0 0 0-.227-.285 2.001 2.001 0 0 0-.753 1.56c0 1.103.898 2.001 2 2.001 1.104 0 2.002-.898 2.002-2v-.001a2 2 0 0 0-.752-1.562.182.182 0 0 0-.133-.039z" style="stroke-width:.24253" transform="translate(24.701 -11.8)"/></g></svg>