<svg xmlns="http://www.w3.org/2000/svg" width="24" height="24"><path d="M12 1C2 1 1 6 1 12c0 8 3 11 11 11s11-3 11-11c0-6-1-11-11-11Z" style="font-variation-settings:normal;display:inline;vector-effect:none;fill:#e6e6e6;fill-opacity:1;stroke-width:1.11627;stroke-linecap:butt;stroke-linejoin:miter;stroke-miterlimit:4;stroke-dasharray:none;stroke-dashoffset:0;stroke-opacity:1;-inkscape-stroke:none;stop-color:#000"/><path d="M12 1.975C2.886 1.975 1.975 6.532 1.975 12c0 7.29 2.734 10.025 10.025 10.025 7.29 0 10.025-2.734 10.025-10.025 0-5.468-.911-10.025-10.025-10.025Z" style="font-variation-settings:normal;display:inline;vector-effect:none;fill:#f3f3f3;fill-opacity:1;stroke-width:1.01733;stroke-linecap:butt;stroke-linejoin:miter;stroke-miterlimit:4;stroke-dasharray:none;stroke-dashoffset:0;stroke-opacity:1;-inkscape-stroke:none;stop-color:#000"/><g style="stroke-width:2.46154"><g stroke-linecap="round" stroke-linejoin="bevel" stroke-width="4.923"><path fill="#0fb285" d="M16 33.5h4v9h-4zm4-12h4v21h-4z" style="stroke-width:4.92308" transform="translate(-1 -1) scale(.40625)"/><path fill="#c91727" d="M24 29.5h4v13h-4z" style="stroke-width:4.92308" transform="translate(-1 -1) scale(.40625)"/><path fill="#0fb285" d="M28 27.5h4v15h-4zm4-3h4v18h-4z" style="stroke-width:4.92308" transform="translate(-1 -1) scale(.40625)"/><path fill="#c91727" d="M36 29.5h4v13h-4z" style="stroke-width:4.92308" transform="translate(-1 -1) scale(.40625)"/><path fill="#0fb285" d="M40 21.5h4v21h-4z" style="stroke-width:4.92308" transform="translate(-1 -1) scale(.40625)"/><path fill="#c91727" d="M44 25.5h4v17h-4z" style="stroke-width:4.92308" transform="translate(-1 -1) scale(.40625)"/></g><path fill="#f4a01b" fill-rule="evenodd" d="M56 42.5v-3c2 0 2-3 4-3s1.5 4 4 4 2-4 4-4 2-4 4-4 2 4 4 4 2-2 4-2 2-5 4-5 2 7 4 7v6z" style="stroke-width:2.46154" transform="translate(-17.25 -1) scale(.40625)"/></g></svg>