<svg xmlns="http://www.w3.org/2000/svg" xmlns:xlink="http://www.w3.org/1999/xlink" xml:space="preserve" id="svg154" width="24" height="24" fill="none" version="1.1"><defs id="defs152"><linearGradient id="linearGradient541"><stop id="stop537" offset="0" style="stop-color:#79afff;stop-opacity:1"/><stop id="stop539" offset="1" style="stop-color:#c6ddff;stop-opacity:1"/></linearGradient><linearGradient xlink:href="#linearGradient541" id="linearGradient543" x1="50.511" x2="49.489" y1="90.526" y2="-7.273" gradientTransform="matrix(.24444 0 0 .24444 -.222 -.222)" gradientUnits="userSpaceOnUse"/><linearGradient id="linearGradient29319"><stop id="stop29317" offset="0" style="stop-color:#d2d8db;stop-opacity:1"/></linearGradient><linearGradient id="fffff"><stop id="stop28389" offset="0" style="stop-color:#fff;stop-opacity:1"/></linearGradient><clipPath id="a"><path id="path16773" fill="#fff" stroke-linecap="round" stroke-linejoin="round" stroke-width=".553" d="m10.054 4.762 4.762 9.525H5.292Z" opacity=".6" style="paint-order:stroke fill markers"/></clipPath><clipPath id="clipPath3473" clipPathUnits="userSpaceOnUse"><path id="path3471" d="M0 0h19v19H0Z"/></clipPath><clipPath id="clipPath3539" clipPathUnits="userSpaceOnUse"><path id="path3537" d="M0 0h19v19H0Z"/></clipPath><filter id="b" width="1.215" height="1.215" x="-.108" y="-.108" color-interpolation-filters="sRGB"><feGaussianBlur id="feGaussianBlur16776" stdDeviation=".19"/></filter><style id="current-color-scheme" type="text/css">.ColorScheme-Text{color:#31363b}.ColorScheme-Background{color:#eff0f1}.ColorScheme-Highlight{color:#3daee9}.ColorScheme-ViewText{color:#31363b}.ColorScheme-ViewBackground{color:#fcfcfc}.ColorScheme-ViewHover{color:#93cee9}.ColorScheme-ViewFocus{color:#3daee9}.ColorScheme-ButtonText{color:#31363b}.ColorScheme-ButtonBackground{color:#eff0f1}.ColorScheme-ButtonHover{color:#93cee9}.ColorScheme-ButtonFocus{color:#3daee9}</style></defs><path id="path6" d="M12 1C2 1 1 6 1 12c0 8 3 11 11 11s11-3 11-11c0-6-1-11-11-11Z" style="font-variation-settings:normal;display:inline;opacity:1;vector-effect:none;fill:url(#linearGradient543);fill-opacity:1;stroke-width:1.11627;stroke-linecap:butt;stroke-linejoin:miter;stroke-miterlimit:4;stroke-dasharray:none;stroke-dashoffset:0;stroke-opacity:1;-inkscape-stroke:none;stop-color:#000;stop-opacity:1"/><path id="path16785" fill="#5c9dff" d="M6.437 5.932c-.7 0-1.264.563-1.264 1.264v7.585c0 .7.564 1.264 1.264 1.264h.253l2.529-5.057 1.39 2.782 2.908-5.816 4.046 8.091c.7 0 1.264-.563 1.264-1.264V7.196c0-.7-.564-1.264-1.264-1.264z" style="stroke-width:.252846;paint-order:markers stroke fill"/><g id="g3467" style="stroke-width:1.17833" transform="matrix(1.13155 0 0 1.13155 1.816 1.816)"><g id="g3481" style="stroke-width:1.17833"><g id="g3479" clip-path="url(#clipPath3473)" opacity=".65" style="stroke-width:1.17833"><g id="g3477" style="stroke-width:1.17833"><path id="path3475" d="m6.543 8.105-2.66 5.321c-.156.312-.156.937.469.937h2.859c-.895 0-.895-.894-.668-1.34l1.227-2.457Z" style="fill:#f2f2f2;fill-opacity:1;fill-rule:nonzero;stroke:none;stroke-width:1.17833"/></g></g></g></g><path id="path3485" d="M14.78 8.46c-.313 0-.623.075-.902.212l1.809 3.62a2.024 2.024 0 0 0-.906-3.833z" style="fill:#ffe680;fill-opacity:1;fill-rule:nonzero;stroke:none;stroke-width:1.33333"/><circle id="path3" cx="14.794" cy="10.485" r="2.022" style="fill:#ffe680;fill-opacity:1;stroke:none;stroke-width:.800002;paint-order:stroke markers fill"/><g id="g3531" style="stroke-width:1.17833" transform="matrix(1.13155 0 0 1.13155 1.816 1.816)"><g id="g3533" style="stroke-width:1.17833"><g id="g3547" style="stroke-width:1.17833"><g id="g3545" clip-path="url(#clipPath3539)" opacity=".8" style="stroke-width:1.17833"><g id="g3543" style="stroke-width:1.17833"><path id="path3541" d="m10.34 5.426-3.797 7.597c-.227.446-.227 1.34.668 1.34h6.258c.894 0 .894-.894.672-1.34z" style="fill:#f2f2f2;fill-opacity:1;fill-rule:nonzero;stroke:none;stroke-width:1.17833"/></g></g></g></g></g></svg>