<svg xmlns="http://www.w3.org/2000/svg" xmlns:xlink="http://www.w3.org/1999/xlink" xml:space="preserve" id="svg154" width="24" height="24" fill="none" version="1.1"><defs id="defs152"><linearGradient id="linearGradient541"><stop id="stop537" offset="0" style="stop-color:#219af3;stop-opacity:1"/><stop id="stop539" offset="1" style="stop-color:#63bbe5;stop-opacity:1"/></linearGradient><linearGradient xlink:href="#linearGradient541" id="linearGradient543" x1="50.511" x2="49.489" y1="90.526" y2="-7.273" gradientTransform="matrix(.24444 0 0 .24444 -.222 -.222)" gradientUnits="userSpaceOnUse"/><linearGradient id="linearGradient29319"><stop id="stop29317" offset="0" style="stop-color:#d2d8db;stop-opacity:1"/></linearGradient><linearGradient id="fffff"><stop id="stop28389" offset="0" style="stop-color:#fff;stop-opacity:1"/></linearGradient><style id="current-color-scheme" type="text/css">.ColorScheme-Text{color:#31363b}.ColorScheme-Background{color:#eff0f1}.ColorScheme-Highlight{color:#3daee9}.ColorScheme-ViewText{color:#31363b}.ColorScheme-ViewBackground{color:#fcfcfc}.ColorScheme-ViewHover{color:#93cee9}.ColorScheme-ViewFocus{color:#3daee9}.ColorScheme-ButtonText{color:#31363b}.ColorScheme-ButtonBackground{color:#eff0f1}.ColorScheme-ButtonHover{color:#93cee9}.ColorScheme-ButtonFocus{color:#3daee9}</style></defs><path id="path6" d="M12 1C2 1 1 6 1 12c0 8 3 11 11 11s11-3 11-11c0-6-1-11-11-11Z" style="font-variation-settings:normal;display:inline;opacity:1;vector-effect:none;fill:url(#linearGradient543);fill-opacity:1;stroke-width:1.11627;stroke-linecap:butt;stroke-linejoin:miter;stroke-miterlimit:4;stroke-dasharray:none;stroke-dashoffset:0;stroke-opacity:1;-inkscape-stroke:none;stop-color:#000;stop-opacity:1"/><path id="path11403" fill="#fff" d="M16.57 5.059a12.42 12.42 0 0 0-.431.011c-2.083.092-4.07.576-5.073 1.237-.45.295-.608.497-.78.985-.289.825-.468 2.19-.473 3.604-.002.485.006.906.018.935.012.03.035.053.05.053.017 0 .151-.147.3-.327 1.487-1.79 4.563-4.1 7.297-5.479.724-.366.88-.498.807-.689-.082-.214-.748-.338-1.714-.33ZM9.172 7.514c-.17 0-.619.27-.972.6-.848.793-1.267 1.943-1.112 3.058.042.297.125.483.354.789.454.607 1.557 1.493 2.422 1.945.272.142.339.162.37.11.01-.016-.042-.239-.118-.495-.619-2.103-.84-3.447-.85-5.172-.003-.548-.016-.793-.04-.818-.01-.011-.03-.017-.054-.017Zm5.583.998a1.39 1.39 0 0 0-.31.055c-.568.137-1.248.52-2.052 1.158-.267.211-.757.67-.906.847-.179.213-.165.276.061.276 1.99-.002 2.897.056 4.082.262.604.105 1.098.224 1.785.428.248.075.475.13.502.122.027-.008.057-.062.066-.122.027-.177-.206-.88-.403-1.214-.553-.937-1.443-1.57-2.481-1.765a1.87 1.87 0 0 0-.344-.047Zm-1.298 2.543c-.155.002-.165.062-.062.214 1.123 1.644 1.585 2.425 2.083 3.52.253.559.433 1.033.651 1.717.078.247.16.465.182.483.022.018.083.011.137-.014.163-.078.612-.666.777-1.017.464-.985.486-2.077.061-3.044-.14-.319-.148-.332-.374-.536-.433-.392-1.133-.738-2.113-1.044a9.216 9.216 0 0 0-1.21-.272 1.187 1.187 0 0 0-.132-.008zm-7.511.343c-.195 0-.318 1-.202 1.643a3.582 3.582 0 0 0 1.384 2.236c.286.213.422.278.692.331.703.139 2.001-.03 3.146-.408.38-.125.575-.221.557-.275-.005-.017-.303-.167-.661-.333-1.926-.894-3.286-1.763-4.575-2.926-.163-.148-.317-.268-.341-.268Zm8.05 1.339c-.044-.003-.076.05-.106.16-.54 1.915-.842 2.772-1.362 3.856-.266.554-.514.996-.898 1.602-.14.22-.253.422-.253.45 0 .028.044.071.099.096.163.074.903.041 1.278-.058 1.052-.276 1.904-.96 2.373-1.907.154-.312.158-.327.17-.63.023-.585-.161-1.344-.556-2.291a9.268 9.268 0 0 0-.57-1.103c-.077-.114-.132-.173-.176-.175zm-.788 1.673c-.035 0-.245.084-.468.186-2.17 1-3.434 1.383-5.623 1.708l-.259.039.005.098c.01.205.414.662.874.986a3.69 3.69 0 0 0 1.647.651 3.81 3.81 0 0 0 1.512-.127c.49-.153.989-.668 1.538-1.59.396-.664.777-1.506.819-1.809.018-.13.014-.142-.044-.142z" style="stroke-width:.428481"/></svg>