<svg xmlns="http://www.w3.org/2000/svg" width="24" height="24" viewBox="0 0 6.35 6.35"><defs><radialGradient id="a" cx="0" cy="0" r="1" fx="0" fy="0" gradientTransform="rotate(90 1.455 1.72) scale(2.91036)" gradientUnits="userSpaceOnUse" spreadMethod="pad"><stop offset="0" style="stop-color:#ff8080;stop-opacity:1"/><stop offset="1" style="stop-color:#de4f4f;stop-opacity:1"/></radialGradient></defs><path d="M2.538.295A.335.335 0 0 0 2.63.283c.38-.025.76-.024 1.14.002a3.62 3.62 0 0 1 1 .225c.536.22.903.603 1.101 1.148.112.328.18.665.2 1.011.028.436.018.87-.03 1.304a3.166 3.166 0 0 1-.237.878c-.225.487-.59.824-1.094 1.008a4.125 4.125 0 0 1-1.261.218 5.644 5.644 0 0 1-1.443-.109C1.13 5.774.588 5.24.385 4.366a5.025 5.025 0 0 1-.12-1.194c-.009-.427.036-.85.137-1.266C.617 1.09 1.135.584 1.957.389c.191-.047.386-.079.581-.094Z" style="fill:url(#a);fill-rule:evenodd;stroke:none;stroke-width:.352771"/><path fill="#fff" d="M2.466 1.993c.19-.214.567-.31.847-.26.178.029.23.033.387.144a.826.826 0 0 1 .3-.059c-.027.213-.016.194.021.313a.422.422 0 0 1-.003.296c-.031.075-.052.098-.1.153-.04.045-.09.07-.199.088.007-.05.019-.082.03-.236.017-.238-.049-.261-.12-.348a.666.666 0 0 0-.872-.118c-.137.088-.157.19-.15.354.005.108.108.21.16.248.15.11.332.185.5.26.06.024.328.124.389.151.08.036.171.085.215.12.132.1.21.202.256.323.081.219.093.646-.1.862-.223.248-.601.353-.936.346-.312.002-.376-.085-.835-.072A1.024 1.024 0 0 1 2.24 4.3c-.04-.068-.062-.162-.07-.315a.756.756 0 0 1 .05-.326c.059-.177.266-.314.455-.332.164.002.328.025.462.127.115.09.14.26.122.363-.028.16-.128.294-.295.299-.085.002-.215-.099-.212-.176.007-.245.254-.206.299-.172.036.028.072.068.057.143.062-.065.104-.21.022-.303a.453.453 0 0 0-.668-.029c-.09.098-.057.267-.038.401.021.154.14.278.264.38a.6.6 0 0 0 .293.13c.237.015.336.038.6-.083.162-.076.253-.16.327-.38a.542.542 0 0 0-.171-.519c-.17-.159-.376-.214-.59-.303-.193-.081-.339-.14-.518-.244a.699.699 0 0 1-.246-.226.714.714 0 0 1-.082-.368c.027-.14.054-.258.164-.373" style="stroke-width:1"/></svg>