<svg xmlns="http://www.w3.org/2000/svg" xml:space="preserve" width="24" height="24" viewBox="0 0 6.35 6.35"><defs><linearGradient id="a" x1="12" x2="12" y1="1" y2="23" gradientTransform="matrix(.26458 0 0 .26458 0 0)" gradientUnits="userSpaceOnUse"><stop stop-color="#33BEF0"/><stop offset="1" stop-color="#0A85D9"/></linearGradient></defs><path fill="url(#a)" fill-rule="evenodd" d="M2.539.295a.312.312 0 0 0 .09-.012c.38-.025.76-.024 1.14.003.345.026.678.101 1 .224.536.22.903.603 1.1 1.148.114.328.18.665.2 1.012.029.435.019.869-.03 1.302a3.143 3.143 0 0 1-.236.879 1.87 1.87 0 0 1-1.094 1.008c-.409.139-.83.211-1.26.219a5.668 5.668 0 0 1-1.444-.11C1.13 5.773.59 5.24.385 4.366a5.04 5.04 0 0 1-.12-1.194c-.009-.428.037-.85.137-1.266C.617 1.09 1.135.584 1.957.39c.192-.047.385-.079.582-.094Z" clip-rule="evenodd" style="fill:url(#a);stroke-width:.264578"/><path fill="#f9f9f9" d="M3.175 1.649A1.526 1.371 0 0 0 1.649 3.02a1.526 1.371 0 0 0 .45.972l.038.651a.063.062 0 0 0 .095.05l.598-.338a1.526 1.371 0 0 0 .345.037A1.526 1.371 0 0 0 4.701 3.02a1.526 1.371 0 0 0-1.526-1.372z"/><path fill="#b4dcf3" d="m3.08 1.195.005.127a1.955 1.955 0 0 1 .58.055l.028-.123a2.233 2.233 0 0 0-.614-.06zm-.761.174.05.116a2.23 2.23 0 0 1 .469-.138L2.82 1.22c-.179.025-.36.09-.502.149zm1.581.08c.153.069.307.148.433.231l.07-.105a2.863 2.863 0 0 0-.461-.247c-.011.041-.028.08-.042.12zm-2.224.362.09.091c.116-.122.253-.22.381-.305l-.06-.112c-.157.092-.3.218-.41.326zm2.844.023c.128.12.222.253.305.38l.112-.06a1.958 1.958 0 0 0-.327-.41zm-3.25.653.122.035c.048-.158.125-.294.22-.434l-.106-.071c-.11.153-.174.305-.237.47zm3.662-.049c.064.15.089.312.1.474l.127-.007c0-.179-.052-.348-.11-.515zm-3.715.83.126-.022a1.486 1.486 0 0 1-.007-.485l-.125-.02a1.53 1.53 0 0 0 .006.526zm3.677.357.118.048c.075-.17.115-.35.141-.508-.042-.006-.084-.009-.126-.013-.016.165-.07.32-.133.473zm-3.61-.099c.067.168.158.33.249.464.03-.03.066-.052.1-.078a1.77 1.77 0 0 1-.23-.433zm3.166.672.08.099c.139-.11.25-.247.35-.391l-.105-.072c-.087.144-.22.265-.325.364zm-2.746-.013.055.054.022.383.127-.008-.026-.431-.089-.088zm2.103.367.04.12c.188-.058.32-.133.473-.222l-.07-.105a2.136 2.136 0 0 1-.443.207zm-1.466.272.062.11.35-.198.06.01.02-.126-.103-.017zm.738-.177-.007.127c.192.013.357-.01.523-.035l-.028-.124a2.023 2.023 0 0 1-.488.032zm-1.283.228.01.162c-.002.062.022.102.075.118.052.017.181-.027.301-.096l-.062-.11c-.052.048-.16.102-.179.09-.02-.011-.016-.12-.018-.171z"/></svg>