<svg xmlns="http://www.w3.org/2000/svg" width="24" height="24" fill="none"><path fill="url(#a)" fill-rule="evenodd" d="M9.94 1.068c-.11.032-.224.047-.344.046-.742.06-1.476.178-2.2.355-3.106.738-5.064 2.65-5.876 5.736a18.491 18.491 0 0 0-.515 4.786c-.03 1.521.118 3.025.447 4.51.774 3.3 2.816 5.32 6.128 6.057 1.428.294 2.868.442 4.32.442h.012c.373 0 .746-.01 1.12-.03a15.624 15.624 0 0 0 4.766-.824c1.906-.699 3.284-1.97 4.135-3.812a11.88 11.88 0 0 0 .893-3.32A27.93 27.93 0 0 0 23 11.908v-.007c0-.603-.02-1.207-.059-1.812a14.268 14.268 0 0 0-.756-3.824c-.746-2.06-2.133-3.506-4.158-4.34a13.537 13.537 0 0 0-3.78-.847C13.502 1.027 12.757 1 12.013 1h-.007c-.689 0-1.378.023-2.066.068Z" clip-rule="evenodd"/><path fill="#000" fill-opacity=".498" d="M12 5.125a6.875 6.875 0 1 0 0 13.75 6.875 6.875 0 0 0 0-13.75Zm0 .76A6.12 6.12 0 0 1 18.115 12 6.12 6.12 0 0 1 12 18.114 6.12 6.12 0 0 1 5.885 12 6.12 6.12 0 0 1 12 5.885Z"/><path fill="#000" fill-opacity=".498" d="M12 6.943c.203 0 .404.021.595.05-.197-.024-.393-.05-.595-.05Zm0 0c-.203 0-.399.026-.595.05a4.05 4.05 0 0 1 .595-.05Zm-.595.05C8.898 7.288 6.943 9.412 6.943 12A5.062 5.062 0 0 0 12 17.058 5.062 5.062 0 0 0 17.057 12c0-2.587-1.955-4.711-4.462-5.008 1.337.2 2.347 1.065 2.347 2.1 0 1.181-1.321 2.131-2.942 2.131-1.621 0-2.942-.95-2.942-2.131 0-1.035 1.01-1.9 2.347-2.1Z"/><path fill="#000" fill-opacity=".498" d="M12 10.11c1.238 0 2.24-.708 2.24-1.583S13.239 6.943 12 6.943c-1.238 0-2.24.71-2.24 1.584 0 .875 1.002 1.584 2.24 1.584ZM18.417 4.667a.917.917 0 1 0 0 1.833.917.917 0 0 0 0-1.833Z"/><defs><linearGradient id="a" x1="12" x2="12" y1="1" y2="12" gradientUnits="userSpaceOnUse"><stop stop-color="#DC9DFF"/><stop offset="1" stop-color="#AD5BDB"/></linearGradient></defs></svg>