<svg xmlns="http://www.w3.org/2000/svg" width="24" height="24"><defs><radialGradient id="a" cx="0" cy="0" r="1" fx="0" fy="0" gradientTransform="matrix(0 16.5 -16.5 0 9 .75)" gradientUnits="userSpaceOnUse" spreadMethod="pad"><stop offset="0" style="stop-opacity:1;stop-color:#fafafa"/><stop offset="1" style="stop-opacity:1;stop-color:silver"/></radialGradient></defs><path d="M7.195.836c.09 0 .176-.012.258-.035a23.86 23.86 0 0 1 3.231.008 10.26 10.26 0 0 1 2.836.636c1.519.625 2.558 1.711 3.121 3.254.316.93.507 1.887.566 2.867a21.227 21.227 0 0 1-.086 3.696 8.976 8.976 0 0 1-.672 2.488c-.637 1.383-1.672 2.336-3.101 2.859a11.693 11.693 0 0 1-3.575.618 15.998 15.998 0 0 1-4.089-.309c-2.481-.551-4.016-2.066-4.594-4.543a14.244 14.244 0 0 1-.336-3.383c-.027-1.211.101-2.41.387-3.59.609-2.312 2.078-3.746 4.406-4.3A10.27 10.27 0 0 1 7.195.836Z" style="fill:url(#a);fill-rule:evenodd;stroke:none" transform="matrix(1.33333 0 0 1.33333 0 0)"/><path fill="#4284ce" d="M14 13.999zm0 0z"/><path fill="#f2f2f2" d="M12 5a7 7 0 1 1 0 14 7 7 0 0 1 0-14Z" style="stroke-width:1"/><path fill="#4284ce" d="M12 7.333c-.622 0-1.556.623-1.556 1.867 0 2.178 4.978.933 4.978 5.6 0 .128-.008.258-.021.387A4.66 4.66 0 0 0 16.667 12 4.666 4.666 0 0 0 12 7.333ZM8.597 8.815A4.662 4.662 0 0 0 7.333 12 4.666 4.666 0 0 0 12 16.667c.622 0 1.556-.622 1.556-1.867 0-3.111-4.978-1.555-4.978-5.6 0-.128.007-.257.018-.385z" style="stroke-width:1"/></svg>