<svg xmlns="http://www.w3.org/2000/svg" xmlns:xlink="http://www.w3.org/1999/xlink" width="24" height="24"><defs><linearGradient id="a" x1="428.57" x2="388.57" y1="543.8" y2="503.8" gradientTransform="matrix(1.35 0 0 1.35 -479.57 -675.13)" gradientUnits="userSpaceOnUse"><stop offset="0" stop-color="#2a2c2f"/><stop offset="1" stop-color="#424649"/></linearGradient><linearGradient xlink:href="#a" id="c" x1="428.57" x2="388.57" y1="543.8" y2="503.8" gradientTransform="matrix(.44444 0 0 .44444 -169.614 -220.559)" gradientUnits="userSpaceOnUse"/><radialGradient id="b" cx="0" cy="0" r="1" gradientTransform="matrix(0 22 -22 0 12 1)" gradientUnits="userSpaceOnUse"><stop stop-color="#555"/><stop offset="1" stop-color="#222"/></radialGradient></defs><path fill="url(#b)" fill-rule="evenodd" d="M9.596 1.114c.12 0 .234-.014.344-.046a31.627 31.627 0 0 1 4.307.011c1.301.102 2.561.384 3.78.848 2.025.833 3.412 2.28 4.158 4.339.427 1.24.679 2.514.756 3.824a27.94 27.94 0 0 1-.115 4.923 11.88 11.88 0 0 1-.893 3.32c-.85 1.843-2.229 3.114-4.135 3.813a15.624 15.624 0 0 1-4.766.825 21.423 21.423 0 0 1-5.452-.412c-3.312-.738-5.354-2.757-6.128-6.057a19.047 19.047 0 0 1-.447-4.511 18.491 18.491 0 0 1 .515-4.786c.812-3.086 2.77-4.998 5.877-5.736a13.953 13.953 0 0 1 2.199-.355z" clip-rule="evenodd" style="fill:url(#b)"/><path fill="url(#a)" fill-rule="evenodd" d="m11.541 16.881-3.389-4.915-.18-2.334 2.375-.278 1.667-2.235 1.861 2.514 2.153.291-1.014 3.514-2.708 3.43Z" style="fill:url(#c);stroke-width:1.35"/><path fill="#d4d5d6" d="M12 4a8 8 0 0 0-8 8 8 8 0 0 0 8 8 8 8 0 0 0 8-8 8 8 0 0 0-8-8m0 .889a7.111 7.111 0 0 1 6.98 5.778h-1.647a.443.443 0 1 0 0 .889h1.762a7.111 7.111 0 0 1 .016.444 7.111 7.111 0 0 1-.022.444h-1.756a.443.443 0 1 0 0 .89h1.65A7.111 7.111 0 0 1 12 19.11a7.111 7.111 0 0 1-6.98-5.778h1.647a.444.444 0 1 0 0-.889h-1.76A7.111 7.111 0 0 1 4.889 12a7.111 7.111 0 0 1 .022-.444h1.756a.443.443 0 1 0 0-.89H5.018A7.111 7.111 0 0 1 12 4.89m0 1.778c-.296 0-.573.083-.787.238-.209.155-.343.36-.444.563-.202.404-.304.83-.498 1.222-.073.143-.096.141-.144.155-.048.015-.165.018-.34-.007-.356-.05-.938-.204-1.541.1a1.302 1.302 0 0 0-.66.832c-.095.34-.087.704-.026 1.08.127.755.484 1.571.96 2.286.427.638.984 1.642 1.555 2.5.285.426.573.817.87 1.126.299.306.61.571 1.055.571.444 0 .756-.265 1.054-.571.297-.309.586-.7.872-1.126.57-.858 1.13-1.862 1.555-2.5.476-.715.832-1.531.958-2.285.063-.377.068-.741-.025-1.081-.094-.34-.316-.663-.66-.832-.603-.304-1.186-.15-1.54-.1-.176.025-.293.022-.343.008-.044-.015-.067-.013-.14-.156-.196-.391-.3-.818-.5-1.222a1.512 1.512 0 0 0-.447-.563A1.323 1.323 0 0 0 12 6.667m0 4.444c.246 0 .444.198.444.445v2.666a.443.443 0 1 1-.888 0v-2.666c0-.247.198-.445.444-.445" style="stroke-width:1"/></svg>