<svg xmlns="http://www.w3.org/2000/svg" xml:space="preserve" width="24" height="24" viewBox="0 0 6.35 6.35"><defs><radialGradient id="a" cx="0" cy="0" r="1" fx="0" fy="0" gradientTransform="matrix(0 16.5 -16.5 0 9 .75)" gradientUnits="userSpaceOnUse" spreadMethod="pad"><stop offset="0" style="stop-color:#fff;stop-opacity:1"/><stop offset="0" style="stop-color:#2eb67d;stop-opacity:1"/><stop offset=".304" style="stop-color:#ecb22e;stop-opacity:1"/><stop offset=".613" style="stop-color:#d6285e;stop-opacity:1"/><stop offset="1" style="stop-color:#36c5f0;stop-opacity:1"/></radialGradient></defs><path d="M7.195.836c.09 0 .176-.012.258-.035a23.86 23.86 0 0 1 3.231.008 10.26 10.26 0 0 1 2.836.636c1.519.625 2.558 1.711 3.121 3.254.316.93.507 1.887.566 2.867a21.227 21.227 0 0 1-.086 3.696 8.976 8.976 0 0 1-.672 2.488c-.637 1.383-1.672 2.336-3.101 2.859a11.693 11.693 0 0 1-3.575.618 15.998 15.998 0 0 1-4.089-.309c-2.481-.551-4.016-2.066-4.594-4.543a14.244 14.244 0 0 1-.336-3.383c-.027-1.211.101-2.41.387-3.59.609-2.312 2.078-3.746 4.406-4.3A10.27 10.27 0 0 1 7.195.836Z" style="fill:url(#a);fill-rule:evenodd;stroke:none;stroke-width:.99975004;stroke-dasharray:none" transform="translate(.022 -.08) scale(.35277)"/><g transform="matrix(.0735 0 0 .0735 .845 .743)"><rect width="54" height="54" x="5" y="5" fill="#f2f2f2" ry="27"/><g stroke-width="1.304"><path fill="#2eb67d" d="M36.565 15.043a3.26 3.26 0 0 0-3.26 3.26v9.131a3.26 3.26 0 0 0 3.26 3.261 3.26 3.26 0 0 0 3.26-3.26v-9.131a3.26 3.26 0 0 0-3.26-3.261zm9.13 9.13a3.26 3.26 0 0 0-3.26 3.261v3.261h3.26a3.26 3.26 0 0 0 3.261-3.26 3.26 3.26 0 0 0-3.26-3.262z"/><path fill="#ecb22e" d="M48.957 36.565a3.26 3.26 0 0 0-3.26-3.26h-9.131a3.26 3.26 0 0 0-3.261 3.26 3.26 3.26 0 0 0 3.26 3.26h9.131a3.26 3.26 0 0 0 3.261-3.26zm-9.13 9.13a3.26 3.26 0 0 0-3.261-3.26h-3.261v3.26a3.26 3.26 0 0 0 3.26 3.261 3.26 3.26 0 0 0 3.262-3.26z"/><path fill="#d6285e" d="M27.435 48.957a3.26 3.26 0 0 0 3.26-3.26v-9.131a3.26 3.26 0 0 0-3.26-3.261 3.26 3.26 0 0 0-3.26 3.26v9.131a3.26 3.26 0 0 0 3.26 3.261zm-9.13-9.13a3.26 3.26 0 0 0 3.26-3.261v-3.261h-3.26a3.26 3.26 0 0 0-3.261 3.26 3.26 3.26 0 0 0 3.26 3.262z"/><path fill="#36c5f0" d="M15.043 27.435a3.26 3.26 0 0 0 3.26 3.26h9.131a3.26 3.26 0 0 0 3.261-3.26 3.26 3.26 0 0 0-3.26-3.26h-9.131a3.26 3.26 0 0 0-3.261 3.26zm9.13-9.13a3.26 3.26 0 0 0 3.261 3.26h3.261v-3.26a3.26 3.26 0 0 0-3.26-3.261 3.26 3.26 0 0 0-3.262 3.26z"/></g></g></svg>