<svg xmlns="http://www.w3.org/2000/svg" xmlns:xlink="http://www.w3.org/1999/xlink" xml:space="preserve" width="24" height="24" viewBox="0 0 6.35 6.35"><defs><linearGradient id="i"><stop offset="0" style="stop-color:#aaa;stop-opacity:1"/><stop offset="1" style="stop-color:#d0d0d0;stop-opacity:1"/></linearGradient><linearGradient id="a"><stop offset="0" style="stop-color:#fefefc;stop-opacity:1"/><stop offset=".757" style="stop-color:#fefefc;stop-opacity:1"/><stop offset="1" style="stop-color:#d4d4d4;stop-opacity:1"/></linearGradient><linearGradient id="b"><stop offset="0" style="stop-color:#3e2a06;stop-opacity:1"/><stop offset="1" style="stop-color:#ad780a;stop-opacity:1"/></linearGradient><linearGradient xlink:href="#b" id="d" x1="442.039" x2="490.122" y1="371.544" y2="293.585" gradientTransform="matrix(.87491 0 0 .81149 60.367 62.587)" gradientUnits="userSpaceOnUse"/><linearGradient xlink:href="#b" id="c" x1="442.039" x2="490.122" y1="371.544" y2="293.585" gradientUnits="userSpaceOnUse"/><linearGradient xlink:href="#i" id="k" x1="3.346" x2="3.346" y1="1.26" y2="2.716" gradientUnits="userSpaceOnUse"/><radialGradient xlink:href="#a" id="f" cx="223.196" cy="137.661" r="14.572" fx="223.196" fy="137.661" gradientTransform="matrix(1.08578 -.03431 .03944 1.24799 -154.542 -26.543)" gradientUnits="userSpaceOnUse"/><radialGradient xlink:href="#a" id="e" cx="223.196" cy="137.661" r="14.572" fx="223.196" fy="137.661" gradientTransform="matrix(.81524 -.03431 .02961 1.24799 -129.437 -26.543)" gradientUnits="userSpaceOnUse"/><radialGradient xlink:href="#a" id="h" cx="223.196" cy="137.661" r="14.572" fx="223.196" fy="137.661" gradientTransform="matrix(1.08578 -.03431 .03944 1.24799 -154.542 -26.543)" gradientUnits="userSpaceOnUse"/><radialGradient xlink:href="#a" id="g" cx="223.196" cy="137.661" r="14.572" fx="223.196" fy="137.661" gradientTransform="matrix(.81524 -.03431 .02961 1.24799 -129.437 -26.543)" gradientUnits="userSpaceOnUse"/><radialGradient id="j" cx="0" cy="0" r="1" gradientTransform="matrix(0 5.82083 -5.82083 0 3.175 .265)" gradientUnits="userSpaceOnUse"><stop stop-color="#FAFAFA"/><stop offset="1" stop-color="#B0B0B0"/></radialGradient></defs><path fill="url(#j)" fill-rule="evenodd" d="M2.63.283a.312.312 0 0 1-.091.012c-.196.015-.39.047-.582.094-.822.195-1.34.7-1.555 1.517-.1.416-.146.838-.136 1.267-.008.402.031.8.118 1.193.205.873.745 1.407 1.622 1.603.476.098.956.134 1.442.109.432-.008.852-.08 1.261-.218a1.87 1.87 0 0 0 1.094-1.01c.121-.28.2-.573.237-.878a7.4 7.4 0 0 0 .03-1.302 3.774 3.774 0 0 0-.2-1.012A1.886 1.886 0 0 0 4.77.51a3.582 3.582 0 0 0-1-.224A8.371 8.371 0 0 0 2.63.283z" clip-rule="evenodd" style="fill:url(#j);stroke-width:.264583"/><g transform="translate(-.589 -.589) scale(1.18549)"><circle cx="3.175" cy="3.175" r="1.785" style="fill:url(#k);fill-opacity:1;stroke:none;stroke-width:0;stroke-linecap:round;stroke-linejoin:round"/><path d="M4.3 2.046s-.893-.028-1.485.816c-.401.005-.687.205-.943.454.211-.056.42-.118.7-.01a2.899 2.899 0 0 0-.097.272c.057.036.111.079.162.127.052.054.098.112.137.173.097-.03.188-.062.272-.098.108.28.046.49-.01.701.249-.257.45-.542.454-.943.845-.592.811-1.492.811-1.492Zm-.531.538a.244.244 0 0 1 0 .344.244.244 0 0 1-.345 0 .244.244 0 0 1 0-.344.244.244 0 0 1 .345 0zM2.425 3.703c-.272.157-.322.355-.343.558l.071-.071-.071.071c.203-.02.401-.071.558-.343-.09.025-.18.076-.272.057-.019-.092.032-.182.057-.272z" style="fill:#5a5a5a;fill-opacity:1;stroke:none;stroke-width:.0174903px;stroke-linecap:butt;stroke-linejoin:miter;stroke-opacity:1"/></g></svg>