<svg xmlns="http://www.w3.org/2000/svg" width="24" height="24"><defs><radialGradient id="a" cx="0" cy="0" r="1" gradientTransform="matrix(0 22 -22 0 12 1)" gradientUnits="userSpaceOnUse"><stop stop-color="#555"/><stop offset="1" stop-color="#222"/></radialGradient></defs><path fill="url(#a)" fill-rule="evenodd" d="M9.596 1.114c.12 0 .234-.014.344-.046a31.627 31.627 0 0 1 4.307.011c1.301.102 2.561.384 3.78.848 2.025.833 3.412 2.28 4.158 4.339.427 1.24.679 2.514.756 3.824a27.94 27.94 0 0 1-.115 4.923 11.88 11.88 0 0 1-.893 3.32c-.85 1.843-2.229 3.114-4.135 3.813a15.624 15.624 0 0 1-4.766.825 21.423 21.423 0 0 1-5.452-.412c-3.312-.738-5.354-2.757-6.128-6.057a19.047 19.047 0 0 1-.447-4.511 18.491 18.491 0 0 1 .515-4.786c.812-3.086 2.77-4.998 5.877-5.736a13.953 13.953 0 0 1 2.199-.355z" clip-rule="evenodd" style="fill:url(#a)"/><g transform="translate(12.151 -11.65)"><g stroke-width="1.524" opacity=".5"><path fill="#fff" d="M7.38 20.15h4.05v2.7H7.38Zm0 5.4h4.05v2.7H7.38Zm0 5.4h4.05v2.7H7.38Zm0 5.4h4.05v2.7H7.38Zm0 5.4h4.05v2.7H7.38Zm0 5.4h4.05v2.7H7.38Z" opacity="1" style="stroke-width:1.52384" transform="translate(-12.836 8.33) scale(.43771)"/></g><g stroke-width="1.524" opacity=".5"><path fill="#fff" d="M46.53 20.15h4.05v2.7h-4.05zm0 5.4h4.05v2.7h-4.05zm0 5.4h4.05v2.7h-4.05zm0 5.4h4.05v2.7h-4.05zm0 5.4h4.05v2.7h-4.05zm0 5.4h4.05v2.7h-4.05z" opacity="1" style="stroke-width:1.52384" transform="translate(-12.836 8.33) scale(.43771)"/></g><rect width="11.817" height="9.455" x="-6.058" y="18.923" fill="#db3447" rx="1.788" ry="1.553" style="stroke-width:1"/><path fill="#fff" d="M-1.84 20.695a.662.662 0 0 0-.674.661v4.586a.662.662 0 0 0 .99.575l3.995-2.294a.662.662 0 0 0 0-1.148l-3.994-2.292a.662.662 0 0 0-.316-.087z" color="#000" style="text-indent:0;text-decoration-line:none;text-decoration-style:solid;text-decoration-color:#000;text-transform:none;white-space:normal;isolation:auto;mix-blend-mode:normal;stroke-width:1"/></g></svg>