<svg xmlns="http://www.w3.org/2000/svg" width="24" height="24" version="1"><path d="M9.593 1.115c.12 0 .235-.016.344-.047a31.814 31.814 0 0 1 4.308.01 13.68 13.68 0 0 1 3.781.849c2.026.833 3.41 2.281 4.162 4.338.42 1.24.676 2.516.754 3.823a28.303 28.303 0 0 1-.114 4.928 11.968 11.968 0 0 1-.896 3.317c-.85 1.844-2.23 3.115-4.135 3.812-1.543.522-3.13.798-4.767.824a21.33 21.33 0 0 1-5.452-.412c-3.308-.734-5.354-2.754-6.125-6.057a18.991 18.991 0 0 1-.448-4.51 18.502 18.502 0 0 1 .516-4.787c.812-3.083 2.77-4.995 5.875-5.734a13.692 13.692 0 0 1 2.197-.354z" style="fill:#029499;fill-opacity:1;fill-rule:evenodd;stroke:none;stroke-width:1.33333"/><path fill="#fff" d="M9.444 5.5 7.649 6.536l1.629 2.82a3.799 3.799 0 0 0-.929 1.608H5.093v2.072h3.253a3.799 3.799 0 0 0 .93 1.612l-1.627 2.816L9.444 18.5l1.628-2.821a3.799 3.799 0 0 0 .928.12 3.799 3.799 0 0 0 .929-.12l1.627 2.821 1.795-1.036-1.628-2.82a3.799 3.799 0 0 0 .928-1.608h3.256v-2.072h-3.253a3.799 3.799 0 0 0-.93-1.612l1.627-2.816L14.556 5.5l-1.628 2.82A3.799 3.799 0 0 0 12 8.2a3.799 3.799 0 0 0-.929.12ZM12 9.582A2.418 2.418 0 0 1 14.418 12 2.418 2.418 0 0 1 12 14.417 2.418 2.418 0 0 1 9.582 12 2.418 2.418 0 0 1 12 9.582z" style="stroke-width:.999999"/></svg>