<svg xmlns="http://www.w3.org/2000/svg" width="24" height="24"><path d="M12 1C2 1 1 6 1 12c0 8 3 11 11 11s11-3 11-11c0-6-1-11-11-11Z" style="font-variation-settings:normal;display:inline;vector-effect:none;fill:#f2f2f2;fill-opacity:1;stroke-width:1.11627;stroke-linecap:butt;stroke-linejoin:miter;stroke-miterlimit:4;stroke-dasharray:none;stroke-dashoffset:0;stroke-opacity:1;-inkscape-stroke:none;stop-color:#000"/><path d="M12 1.975C2.886 1.975 1.975 6.532 1.975 12c0 7.29 2.734 10.025 10.025 10.025 7.29 0 10.025-2.734 10.025-10.025 0-5.468-.911-10.025-10.025-10.025Z" style="font-variation-settings:normal;display:inline;vector-effect:none;fill:#e7e7e7;fill-opacity:1;stroke-width:1.01733;stroke-linecap:butt;stroke-linejoin:miter;stroke-miterlimit:4;stroke-dasharray:none;stroke-dashoffset:0;stroke-opacity:1;-inkscape-stroke:none;stop-color:#000"/><g style="stroke-width:3.10882"><path fill="#5fa1e9" d="M67.154 33.304h5.625L62.875 23.4l-9.904 9.904h5.183v8h9z" style="stroke-width:3.10882" transform="matrix(.32167 0 0 .32167 -4.727 1.707)"/><path fill="#1964c2" d="M47.154 42.304h-4.86l9.905 9.904 9.904-9.904h-4.95v-8h-10z" style="stroke-width:3.10882" transform="matrix(.32167 0 0 .32167 -4.727 1.707)"/><path fill="#b4d100" d="M61.672 16.26v-3.28c0-.705-.61-1.254-1.311-1.18l-13.048 1.38a1.187 1.187 0 0 0-1.061 1.18v23.299c-1.84-.31-4.054-.236-6.36.305-5.418 1.272-9.266 4.623-8.594 7.486.672 2.863 5.634 4.466 11.028 3.092 8.429-2.147 8.67-6.948 8.67-6.948v-22.6c0-.303.229-.558.53-.59l9.085-.963a1.186 1.186 0 0 0 1.06-1.18z" style="stroke-width:3.10882" transform="matrix(.32167 0 0 .32167 -4.727 1.707)"/></g></svg>