<svg xmlns="http://www.w3.org/2000/svg" xmlns:xlink="http://www.w3.org/1999/xlink" xml:space="preserve" width="24" height="24" fill="none"><defs><linearGradient id="a"><stop offset="0" style="stop-color:#1a1a1a;stop-opacity:1"/><stop offset="1" style="stop-color:#999;stop-opacity:1"/></linearGradient><linearGradient xlink:href="#a" id="b" x1="53.58" x2="52.429" y1="95.511" y2=".909" gradientTransform="matrix(.24444 0 0 .24444 -.222 -.222)" gradientUnits="userSpaceOnUse"/></defs><path d="M12 1C2 1 1 6 1 12c0 8 3 11 11 11s11-3 11-11c0-6-1-11-11-11Z" style="font-variation-settings:normal;display:inline;opacity:1;vector-effect:none;fill:url(#b);fill-opacity:1;stroke-width:1.11627;stroke-linecap:butt;stroke-linejoin:miter;stroke-miterlimit:4;stroke-dasharray:none;stroke-dashoffset:0;stroke-opacity:1;-inkscape-stroke:none;stop-color:#000;stop-opacity:1"/><g transform="matrix(.91055 0 0 .91055 17.207 1.984)"><circle cx="-5.871" cy="10.844" r="8.232" fill="#cecece" style="stroke-width:1.15234;paint-order:stroke markers fill"/><circle cx="-5.87" cy="10.844" r="5.487" fill="#fff" opacity=".5" style="stroke-width:1.15234;paint-order:stroke markers fill"/><circle cx="-5.87" cy="10.844" r="4.574" fill="#4d4d4d" style="stroke-width:1.15234;paint-order:stroke markers fill"/><circle cx="-5.87" cy="10.844" r="1.83" fill="#fff" style="stroke-width:1.15234;paint-order:stroke markers fill"/><circle cx="-.992" cy="15.73" r="3.659" fill="#fff" style="stroke-width:1.15234"/><g fill="#ff7920" stroke="#fff" stroke-linejoin="round" stroke-width="7.085" paint-order="stroke markers fill"><path d="M64 59.82a4.18 4.18 0 0 0-2.09 7.8l44.375 25.624a4.18 4.18 0 0 0 5.707-1.525 55.41 55.41 0 0 0 7.438-27.725 4.18 4.18 0 0 0-4.18-4.174z" transform="matrix(.02151 .03729 -.03726 .02153 .194 12.63)"/><path d="M64 59.82a4.18 4.18 0 0 0-2.09 7.8l44.375 25.624a4.18 4.18 0 0 0 5.707-1.525 55.41 55.41 0 0 0 7.438-27.725 4.18 4.18 0 0 0-4.18-4.174z" transform="matrix(.03726 .02153 -.02151 .03729 -1.513 12.446)"/><path d="M64 59.82a4.18 4.18 0 0 0-2.09 7.8l44.375 25.624a4.18 4.18 0 0 0 5.707-1.525 55.41 55.41 0 0 0 7.438-27.725 4.18 4.18 0 0 0-4.18-4.174z" transform="matrix(.04302 0 0 .04305 -3.08 13.149)"/><path d="M64 59.82a4.18 4.18 0 0 0-2.09 7.8l44.375 25.624a4.18 4.18 0 0 0 5.707-1.525 55.41 55.41 0 0 0 7.438-27.725 4.18 4.18 0 0 0-4.18-4.174z" transform="matrix(.03726 -.02153 .02151 .03729 -4.089 14.543)"/><path d="M64 59.82a4.18 4.18 0 0 0-2.09 7.8l44.375 25.624a4.18 4.18 0 0 0 5.707-1.525 55.41 55.41 0 0 0 7.438-27.725 4.18 4.18 0 0 0-4.18-4.174z" transform="matrix(.02151 -.03729 .03726 .02153 -4.265 16.248)"/><path d="M64 59.82a4.18 4.18 0 0 0-2.09 7.8l44.375 25.624a4.18 4.18 0 0 0 5.707-1.525 55.41 55.41 0 0 0 7.438-27.725 4.18 4.18 0 0 0-4.18-4.174z" transform="matrix(0 -.04305 .04302 0 -3.566 17.816)"/><path d="M64 59.82a4.18 4.18 0 0 0-2.09 7.8l44.375 25.624a4.18 4.18 0 0 0 5.707-1.525 55.41 55.41 0 0 0 7.438-27.725 4.18 4.18 0 0 0-4.18-4.174z" transform="matrix(-.02151 .03729 .03726 .02153 -2.18 12.63)"/><path d="M64 59.82a4.18 4.18 0 0 0-2.09 7.8l44.375 25.624a4.18 4.18 0 0 0 5.707-1.525 55.41 55.41 0 0 0 7.438-27.725 4.18 4.18 0 0 0-4.18-4.174z" transform="matrix(-.03726 .02153 .02151 .03729 -.472 12.446)"/><path d="M64 59.82a4.18 4.18 0 0 0-2.09 7.8l44.375 25.624a4.18 4.18 0 0 0 5.707-1.525 55.41 55.41 0 0 0 7.438-27.725 4.18 4.18 0 0 0-4.18-4.174z" transform="matrix(-.04302 0 0 .04305 1.096 13.149)"/><path d="M64 59.82a4.18 4.18 0 0 0-2.09 7.8l44.375 25.624a4.18 4.18 0 0 0 5.707-1.525 55.41 55.41 0 0 0 7.438-27.725 4.18 4.18 0 0 0-4.18-4.174z" transform="matrix(-.03726 -.02153 -.02151 .03729 2.104 14.543)"/><path d="M64 59.82a4.18 4.18 0 0 0-2.09 7.8l44.375 25.624a4.18 4.18 0 0 0 5.707-1.525 55.41 55.41 0 0 0 7.438-27.725 4.18 4.18 0 0 0-4.18-4.174z" transform="matrix(-.02151 -.03729 -.03726 .02153 2.28 16.248)"/><path d="M64 59.82a4.18 4.18 0 0 0-2.09 7.8l44.375 25.624a4.18 4.18 0 0 0 5.707-1.525 55.41 55.41 0 0 0 7.438-27.725 4.18 4.18 0 0 0-4.18-4.174z" transform="matrix(0 -.04305 -.04302 0 1.58 17.816)"/></g></g></svg>