<svg xmlns="http://www.w3.org/2000/svg" width="24" height="24" fill="none"><path fill="url(#a)" fill-rule="evenodd" d="M9.596 1.114c.12 0 .234-.014.344-.046a31.624 31.624 0 0 1 4.307.011c1.301.102 2.561.384 3.78.847 2.026.834 3.412 2.28 4.158 4.34.427 1.24.679 2.514.756 3.824a27.94 27.94 0 0 1-.114 4.923 11.882 11.882 0 0 1-.894 3.32c-.85 1.843-2.229 3.114-4.135 3.813a15.62 15.62 0 0 1-4.766.825 21.422 21.422 0 0 1-5.452-.412c-3.312-.738-5.354-2.757-6.128-6.057a19.04 19.04 0 0 1-.447-4.511 18.486 18.486 0 0 1 .515-4.786c.812-3.086 2.77-4.998 5.877-5.736a13.933 13.933 0 0 1 2.199-.355Z" clip-rule="evenodd"/><path fill="#1AA74B" d="M10.507 19.038c-.434-.085-1.194-.364-1.78-.654-1.82-.9-3.204-2.593-3.747-4.584-.303-1.108-.259-2.85.1-3.948.795-2.437 2.693-4.21 5.206-4.861.991-.257 2.66-.221 3.697.08 2.492.72 4.427 2.69 5.066 5.153.228.88.23 2.645.003 3.522-.962 3.731-4.702 6.047-8.545 5.292Zm4.952-3.734c.06-.095.076-.3.037-.456-.087-.348-1.245-.941-2.397-1.227-1.444-.36-4.852-.196-5.302.254-.206.207-.2.62.013.797.14.115.346.116 1.136.004 2.081-.295 4.13-.07 5.223.575.505.297 1.122.322 1.29.053Zm.707-1.785c.38-.265.291-.881-.17-1.192-.559-.375-2.086-.976-3.014-1.187-1.734-.393-4.808-.163-5.413.406-.31.29-.324.668-.037.956.262.261.296.262 1.366.041.642-.133 1.202-.161 2.31-.119 1.627.063 2.448.257 3.726.879.899.437.913.44 1.232.216Zm1.082-2.379c.2-.14.24-.255.213-.618-.027-.368-.096-.489-.394-.69-.553-.37-2.01-.9-3.154-1.145-2.014-.433-5.912-.255-6.784.309-.49.317-.415 1.135.122 1.339.18.069.573.035 1.272-.109 2.398-.495 5.65-.126 7.504.851.518.274.893.293 1.22.063Z"/><defs><linearGradient id="a" x1="12.014" x2="12.014" y1="22.058" y2="-5.088" gradientUnits="userSpaceOnUse"><stop stop-color="#181818"/><stop offset=".452" stop-color="#333"/><stop offset="1" stop-color="#484848"/></linearGradient></defs></svg>