<svg xmlns="http://www.w3.org/2000/svg" width="24" height="24" viewBox="0 0 6.35 6.35"><defs><radialGradient id="a" cx="0" cy="0" r="1" fx="0" fy="0" gradientTransform="matrix(0 16.5 -16.5 0 9 .75)" gradientUnits="userSpaceOnUse" spreadMethod="pad"><stop offset="0" style="stop-opacity:1;stop-color:#fafafa"/><stop offset="1" style="stop-opacity:1;stop-color:silver"/></radialGradient></defs><path d="M7.195.836c.09 0 .176-.012.258-.035a23.86 23.86 0 0 1 3.231.008 10.26 10.26 0 0 1 2.836.636c1.519.625 2.558 1.711 3.121 3.254.316.93.507 1.887.566 2.867a21.227 21.227 0 0 1-.086 3.696 8.976 8.976 0 0 1-.672 2.488c-.637 1.383-1.672 2.336-3.101 2.859a11.693 11.693 0 0 1-3.575.618 15.998 15.998 0 0 1-4.089-.309c-2.481-.551-4.016-2.066-4.594-4.543a14.244 14.244 0 0 1-.336-3.383c-.027-1.211.101-2.41.387-3.59.609-2.312 2.078-3.746 4.406-4.3A10.27 10.27 0 0 1 7.195.836Z" style="fill:url(#a);fill-rule:evenodd;stroke:none" transform="scale(.35277)"/><g style="stroke-width:4.15378" transform="matrix(.24074 0 0 .24074 1.2 1.264)"><path fill="#e6e6e6" d="M1.323 10.319v3.175a6.879 1.587 0 0 0 6.879 1.587 6.879 1.587 0 0 0 6.879-1.587v-3.175z" style="stroke-width:4.15378"/><ellipse cx="8.202" cy="10.319" fill="#ccc" rx="6.879" ry="1.587" style="stroke-width:4.15378"/><path fill="#e6e6e6" d="M1.323 6.35v3.175a6.879 1.587 0 0 0 6.879 1.587 6.879 1.587 0 0 0 6.879-1.587V6.35Z" style="stroke-width:4.15378"/><ellipse cx="8.202" cy="6.35" fill="#ccc" rx="6.879" ry="1.587" style="stroke-width:4.15378"/><path fill="#e6e6e6" d="M1.323 2.381v3.175a6.88 1.587 0 0 0 6.879 1.588 6.88 1.587 0 0 0 6.88-1.588V2.381Z" style="stroke-width:4.15378"/><ellipse cx="8.202" cy="2.381" fill="#ccc" rx="6.879" ry="1.587" style="stroke-width:4.15378"/><path fill="#fff" d="M1.852 2.988v3.178a6.88 1.587 0 0 0 .53.233V3.226a6.88 1.587 0 0 1-.53-.238Zm0 3.969v3.177a6.88 1.587 0 0 0 .53.234V7.195a6.88 1.587 0 0 1-.53-.238Zm0 3.968v3.178a6.88 1.587 0 0 0 .53.233v-3.172a6.88 1.587 0 0 1-.53-.239Zm.794-7.611v3.175a6.88 1.587 0 0 0 1.323.318V3.63a6.88 1.587 0 0 1-1.323-.316Zm0 3.969v3.175a6.88 1.587 0 0 0 1.323.317V7.6a6.88 1.587 0 0 1-1.323-.316Zm0 3.968v3.176a6.88 1.587 0 0 0 1.323.317v-3.177a6.88 1.587 0 0 1-1.323-.316Z" opacity=".35" style="stroke-width:4.15378"/></g><path fill="#f67d7d" d="M4.576 1.519c-.817 0-1.882 1.167-2.448 2.366-.164.346-.302.72-.354.946l.063-.003c.238-.684.511-.74.641-.761.465-.078.82-.227 1.164-.637-.467 0-.76-.078-.76-.128h.84c.118-.121.237-.261.328-.382-.408 0-.748-.051-.748-.127h.84c.085-.125.156-.26.214-.382-.364 0-.608-.083-.608-.128h.67c.11-.271.159-.531.158-.764Z" style="stroke-width:.999999"/></svg>