<svg xmlns="http://www.w3.org/2000/svg" xmlns:xlink="http://www.w3.org/1999/xlink" xml:space="preserve" id="svg154" width="24" height="24" fill="none" version="1.1"><defs id="defs152"><linearGradient id="linearGradient541"><stop id="stop537" offset="0" style="stop-color:#374651;stop-opacity:1"/><stop id="stop539" offset="1" style="stop-color:#535d6c;stop-opacity:1"/></linearGradient><linearGradient xlink:href="#linearGradient541" id="linearGradient543" x1="50.384" x2="49.489" y1="82.088" y2="-7.273" gradientTransform="matrix(.24444 0 0 .24444 -.222 -.222)" gradientUnits="userSpaceOnUse"/><style id="current-color-scheme" type="text/css">.ColorScheme-Text{color:#31363b}.ColorScheme-Background{color:#eff0f1}.ColorScheme-Highlight{color:#3daee9}.ColorScheme-ViewText{color:#31363b}.ColorScheme-ViewBackground{color:#fcfcfc}.ColorScheme-ViewHover{color:#93cee9}.ColorScheme-ViewFocus{color:#3daee9}.ColorScheme-ButtonText{color:#31363b}.ColorScheme-ButtonBackground{color:#eff0f1}.ColorScheme-ButtonHover{color:#93cee9}.ColorScheme-ButtonFocus{color:#3daee9}</style></defs><path id="path6" d="M12 1C2 1 1 6 1 12c0 8 3 11 11 11s11-3 11-11c0-6-1-11-11-11Z" style="font-variation-settings:normal;display:inline;opacity:1;vector-effect:none;fill:url(#linearGradient543);fill-opacity:1;stroke-width:1.11627;stroke-linecap:butt;stroke-linejoin:miter;stroke-miterlimit:4;stroke-dasharray:none;stroke-dashoffset:0;stroke-opacity:1;-inkscape-stroke:none;stop-color:#000;stop-opacity:1"/><path id="path24895" fill="#fff" stroke-width="6.81" d="M11.47 5.164C7.95 5.376 5.163 8.361 5.163 12c0 3.778 3.092 6.836 6.84 6.836 3.637 0 6.659-2.982 6.832-6.53h-1.632c-.173 2.728-2.417 4.893-5.157 4.893-2.853 0-5.259-2.332-5.259-5.206 0-2.736 2.244-4.974 4.682-5.184zm.812 0v1.644c1.354.087 2.152.521 2.953 1.197l1.193-1.16a6.792 6.792 0 0 0-4.146-1.68Zm4.812 2.24-1.153 1.155a5.27 5.27 0 0 1 1.255 2.929h1.63c-.11-1.637-.745-2.983-1.732-4.085Zm-2.076 1.528-3.442 2.126.004.003a1.08 1.08 0 0 0-.551.94 1.079 1.079 0 0 0 1.073 1.082c.417 0 .774-.241.952-.59l.003.003z" style="image-rendering:optimizeSpeed"/></svg>