<svg xmlns="http://www.w3.org/2000/svg" width="24" height="24"><defs><radialGradient id="a" cx="0" cy="0" r="1" gradientTransform="matrix(0 22 -22 0 12 1)" gradientUnits="userSpaceOnUse"><stop stop-color="#FAFAFA"/><stop offset="1" stop-color="#B0B0B0"/></radialGradient></defs><path fill="url(#a)" fill-rule="evenodd" d="M9.94 1.068c-.11.032-.224.047-.344.046-.742.06-1.476.178-2.2.355-3.106.738-5.064 2.65-5.876 5.736a18.49 18.49 0 0 0-.515 4.786c-.03 1.522.118 3.025.447 4.51.774 3.3 2.816 5.32 6.128 6.058 1.8.37 3.617.507 5.452.412a15.624 15.624 0 0 0 4.766-.825c1.906-.7 3.284-1.97 4.135-3.812a11.88 11.88 0 0 0 .893-3.32c.184-1.638.222-3.28.115-4.924a14.269 14.269 0 0 0-.756-3.824c-.746-2.06-2.133-3.506-4.158-4.34a13.536 13.536 0 0 0-3.78-.847 31.637 31.637 0 0 0-4.307-.011z" clip-rule="evenodd" style="fill:url(#a);stroke-width:1"/><g stroke-linecap="round" stroke-linejoin="bevel"><path fill="#d34148" d="M7.75 6.5h8.5v2h-8.5Z"/><path fill="#884ca1" d="M7 7h10v2H7Z"/><path fill="#15bb91" d="M6.25 7.5h11.5v2.25H6.25Z"/></g><g stroke-linejoin="round" stroke-width="1.63"><path fill="#1ea5f7" d="M5.5 8h13v9.5h-13Z"/><path fill="#0a87e2" d="M5.5 8.449v8.284l7.977-4.142Z"/><path fill="#1392f5" d="m18.5 9.983-13 6.75v.767h13z"/><path fill="#c5eafd" d="m10.466 11.057 3.068 1.534-3.068 1.534Z"/></g></svg>