<svg xmlns="http://www.w3.org/2000/svg" xmlns:xlink="http://www.w3.org/1999/xlink" xml:space="preserve" width="24" height="24" fill="none"><defs><linearGradient id="a"><stop offset="0" style="stop-color:#0f182e;stop-opacity:1"/><stop offset="1" style="stop-color:#256d8e;stop-opacity:1"/></linearGradient><linearGradient xlink:href="#a" id="b" x1="51.278" x2="50.767" y1="95.767" y2=".653" gradientTransform="matrix(.24444 0 0 .24444 -.222 -.222)" gradientUnits="userSpaceOnUse"/></defs><path d="M12 1C2 1 1 6 1 12c0 8 3 11 11 11s11-3 11-11c0-6-1-11-11-11Z" style="font-variation-settings:normal;display:inline;opacity:1;vector-effect:none;fill:url(#b);fill-opacity:1;stroke-width:1.11627;stroke-linecap:butt;stroke-linejoin:miter;stroke-miterlimit:4;stroke-dasharray:none;stroke-dashoffset:0;stroke-opacity:1;-inkscape-stroke:none;stop-color:#000;stop-opacity:1"/><path d="M16.102 4.838a4.413 4.413 0 0 0-4.405 4.41h.004l.002.057-2.836 4.119c-.459-.021-.92.06-1.357.24a2.948 2.948 0 0 0-.543.291l-5.961-2.457C1.004 11.665 1 11.831 1 12c0 1.316.083 2.494.254 3.549l4.344 1.793a3.2 3.2 0 0 0 1.898 2.271 3.217 3.217 0 0 0 4.203-1.732 3.22 3.22 0 0 0 .248-1.324l4.055-2.9.1.001a4.41 4.41 0 0 0 0-8.82zm.003 1.473a2.941 2.941 0 0 1 2.934 2.937 2.941 2.941 0 0 1-2.934 2.94 2.941 2.941 0 0 1-2.933-2.94 2.941 2.941 0 0 1 2.933-2.937zm.004.724a2.206 2.206 0 0 0-2.203 2.207 2.206 2.206 0 0 0 2.203 2.207 2.206 2.206 0 0 0 2.203-2.207 2.206 2.206 0 0 0-2.203-2.207zm-7.355 7.123c.31.003.626.065.93.192a2.446 2.446 0 0 1 1.337 1.345c.253.614.25 1.29-.003 1.9h.003a2.48 2.48 0 0 1-3.244 1.339 2.478 2.478 0 0 1-1.275-1.217l1.434.594a1.826 1.826 0 0 0 2.386-.985 1.83 1.83 0 0 0-.984-2.39l-1.484-.616c.285-.108.59-.164.9-.162z" style="font-variation-settings:normal;display:inline;opacity:1;vector-effect:none;fill:#fff;fill-opacity:1;stroke-width:1.11627;stroke-linecap:butt;stroke-linejoin:miter;stroke-miterlimit:4;stroke-dasharray:none;stroke-dashoffset:0;stroke-opacity:1;-inkscape-stroke:none;stop-color:#000;stop-opacity:1"/></svg>