<svg xmlns="http://www.w3.org/2000/svg" xmlns:xlink="http://www.w3.org/1999/xlink" width="24" height="24"><defs><radialGradient xlink:href="#a" id="c" cx="12" cy="1.039" r="11" fx="12" fy="1.039" gradientTransform="matrix(1 0 0 .99997 0 0)" gradientUnits="userSpaceOnUse"/><radialGradient xlink:href="#b" id="d" cx="12.265" cy=".282" r="7.289" fx="12.265" fy="-4.085" gradientTransform="matrix(3.26776 0 0 3.10864 -27.814 .062)" gradientUnits="userSpaceOnUse"/><linearGradient id="b"><stop offset="0" style="stop-color:#5f4b89;stop-opacity:1"/><stop offset="1" style="stop-color:#513c81;stop-opacity:1"/></linearGradient><linearGradient id="a"><stop offset="0" style="stop-color:#7c6797;stop-opacity:1"/><stop offset="1" style="stop-color:#4b3071;stop-opacity:1"/></linearGradient></defs><path d="M12.094 1a31.669 31.669 0 0 0-2.155.068c-.109.032-.223.047-.343.045-.743.06-1.476.179-2.2.356-3.106.738-5.065 2.65-5.876 5.736a18.472 18.472 0 0 0-.516 4.785c-.03 1.522.119 3.026.447 4.512.774 3.3 2.817 5.319 6.13 6.057 1.798.37 3.616.507 5.452.412a15.614 15.614 0 0 0 4.764-.825c1.906-.699 3.286-1.97 4.137-3.812.458-1.063.755-2.17.892-3.32.183-1.638.222-3.28.115-4.924a14.27 14.27 0 0 0-.755-3.824c-.747-2.06-2.133-3.506-4.159-4.34a13.541 13.541 0 0 0-3.78-.846A31.653 31.653 0 0 0 12.093 1z" style="fill:url(#c);fill-opacity:1;stroke-width:.423085"/><circle cx="16.928" cy="7.359" r="3.474" fill="#3a3670" style="stroke-width:.423085;fill:#615e8b;fill-opacity:1"/><path fill="#e6e6e6" d="M19.59 5.13c.117.347.182.717.182 1.103a3.474 3.474 0 0 1-6.136 2.229 3.472 3.472 0 0 0 3.292 2.37 3.474 3.474 0 0 0 3.474-3.473 3.463 3.463 0 0 0-.811-2.23Z" style="stroke-width:.423085"/><path d="M1.633 6.82c-.039.128-.079.254-.113.385a18.472 18.472 0 0 0-.516 4.785c-.03 1.522.119 3.026.447 4.512a9.03 9.03 0 0 0 .986 2.523l3.745 1.301 7.66.361 1.734-3.232C12.711 8.778 4.026 7.117 1.633 6.82Z" style="fill:url(#d);fill-opacity:1;stroke-width:.423085"/><path d="M21.8 11.572c-2.267-.02-7.341.769-11.66 7.405l7.352 2.056 2.697-.303a7.254 7.254 0 0 0 1.745-2.396c.458-1.063.755-2.17.892-3.32.124-1.112.177-2.226.168-3.34-.016-.004-.452-.095-1.193-.102z" style="fill:#ac776d;fill-opacity:1;stroke-width:.423085"/><path d="M21.8 15.047c-2.267-.02-7.341.769-11.66 7.404l9.546-1.308c.96-.708 1.71-1.644 2.248-2.809.444-1.03.734-2.102.877-3.215a7.278 7.278 0 0 0-1.01-.072z" style="fill:#b8ad99;fill-opacity:1;stroke-width:.423085"/><path d="M19.773 16.71c-5.706.067-10.613 2.321-10.613 2.321l-.055 2.233h10.409c1.042-.721 1.85-1.697 2.42-2.93.208-.484.38-.978.523-1.48a20.23 20.23 0 0 0-2.684-.143z" style="fill:#574a5c;fill-opacity:1;stroke-width:.423085"/><path d="M1.008 12.81c.028 1.243.174 2.474.443 3.692.774 3.3 2.817 5.319 6.13 6.057 1.798.37 3.616.507 5.452.412a15.614 15.614 0 0 0 4.764-.825c1.538-.564 2.733-1.5 3.584-2.808-5.351 1.78-9.666-1.547-9.666-1.547-6.986-4.818-8.88-4.756-10.707-4.98Z" style="fill:#312b33;fill-opacity:1;stroke-width:.423085"/><circle cx="4.183" cy="5.846" r=".716" fill="#e5e5e5" style="stroke-width:.423085"/><circle cx="5.496" cy="7.614" r=".46" fill="#e5e5e5" style="stroke-width:.423085"/><circle cx="10.707" cy="9.93" r=".46" fill="#e5e5e5" style="stroke-width:.423085"/><circle cx="6.706" cy="4.26" r=".375" fill="#e5e5e5" style="stroke-width:.423085"/><circle cx="4.872" cy="3.581" r=".273" fill="#e5e5e5" style="stroke-width:.423085"/><circle cx="6.499" cy="6.91" r=".273" fill="#e5e5e5" style="stroke-width:.423085"/><circle cx="7.657" cy="7.488" r=".273" fill="#e5e5e5" style="stroke-width:.423085"/><circle cx="7.078" cy="11.541" r=".273" fill="#e5e5e5" style="stroke-width:.423085"/></svg>