<svg xmlns="http://www.w3.org/2000/svg" width="24" height="24" viewBox="0 0 6.35 6.35"><defs><radialGradient id="a" cx="0" cy="0" r="1" fx="0" fy="0" gradientTransform="rotate(90 1.455 1.72) scale(5.82072)" gradientUnits="userSpaceOnUse" spreadMethod="pad"><stop offset="0" style="stop-color:#c9dcf1;stop-opacity:1"/><stop offset="1" style="stop-color:#5494de;stop-opacity:1"/></radialGradient></defs><path d="M2.538.295A.335.335 0 0 0 2.63.283c.38-.025.76-.024 1.14.002a3.62 3.62 0 0 1 1 .225c.536.22.903.603 1.101 1.148.112.328.18.665.2 1.011.028.436.018.87-.03 1.304a3.166 3.166 0 0 1-.237.878c-.225.487-.59.824-1.094 1.008a4.125 4.125 0 0 1-1.261.218 5.643 5.643 0 0 1-1.443-.109C1.13 5.774.588 5.24.385 4.366a5.025 5.025 0 0 1-.12-1.194c-.009-.427.036-.85.137-1.266C.617 1.09 1.135.584 1.957.389c.191-.047.386-.079.581-.094Z" style="fill:url(#a);fill-rule:evenodd;stroke:none;stroke-width:.352683;stroke-dasharray:none"/><rect width="2.071" height=".654" x=".733" y="2.866" fill="#477dc1" fill-rule="evenodd" ry=".327" style="stroke-width:.411935;paint-order:stroke fill markers"/><path d="M3.861 1.667a1.962 1.962 0 0 0-.73 1.526 1.962 1.962 0 0 0 .73 1.526h1.993a3.17 3.17 0 0 0 .186-.746c.048-.434.057-.868.03-1.304a3.85 3.85 0 0 0-.197-1.002z" style="fill:#477dc1;fill-opacity:1;fill-rule:evenodd;stroke:none;stroke-width:.352683;stroke-dasharray:none"/><path d="M3.97 1.667a1.962 1.962 0 0 0-.73 1.526 1.962 1.962 0 0 0 .73 1.526h1.227a2.397 2.397 0 0 0 .55-1.526 2.397 2.397 0 0 0-.55-1.526H3.97Z" opacity=".1" style="stroke-width:.411935;paint-order:stroke markers fill"/><circle cx="3.24" cy="3.193" r="2.18" fill="#5da3ee" style="stroke-width:.411935;paint-order:stroke markers fill"/><path fill="#3e74b7" d="M3.24 1.449a1.744 1.744 0 0 0-1.11.4v2.688a1.744 1.744 0 0 0 1.11.4 1.744 1.744 0 0 0 1.744-1.744A1.744 1.744 0 0 0 3.24 1.449Z" style="stroke-width:.411935;paint-order:stroke markers fill"/><circle cx="3.24" cy="3.193" r="1.526" fill="#3e74b7" style="stroke-width:.411935;paint-order:stroke markers fill"/><path fill="#fff" d="M3.737 2.396v.225q-.131-.063-.247-.094-.117-.03-.225-.03-.189 0-.291.072-.102.073-.102.208 0 .113.068.171.068.057.258.093l.138.028q.258.049.38.173.124.124.124.331 0 .247-.167.375-.165.128-.486.128-.12 0-.258-.027-.136-.028-.281-.081V3.73q.14.078.274.118.135.04.265.04.198 0 .305-.077.107-.078.107-.222 0-.125-.078-.196-.076-.07-.252-.106l-.14-.027q-.258-.052-.373-.161-.115-.11-.115-.305 0-.226.158-.355.16-.13.44-.13.12 0 .244.02.124.023.254.066z" aria-label="S" style="stroke-width:.411935"/></svg>