<svg xmlns="http://www.w3.org/2000/svg" width="24" height="24"><defs><radialGradient id="a" cx="0" cy="0" r="1" fx="0" fy="0" gradientTransform="matrix(0 16.5 -16.5 0 9 .75)" gradientUnits="userSpaceOnUse" spreadMethod="pad"><stop offset="0" style="stop-opacity:1;stop-color:#fafafa"/><stop offset="1" style="stop-opacity:1;stop-color:silver"/></radialGradient></defs><path d="M7.195.836c.09 0 .176-.012.258-.035a23.86 23.86 0 0 1 3.231.008 10.26 10.26 0 0 1 2.836.636c1.519.625 2.558 1.711 3.121 3.254.316.93.507 1.887.566 2.867a21.227 21.227 0 0 1-.086 3.696 8.976 8.976 0 0 1-.672 2.488c-.637 1.383-1.672 2.336-3.101 2.859a11.693 11.693 0 0 1-3.575.618 15.998 15.998 0 0 1-4.089-.309c-2.481-.551-4.016-2.066-4.594-4.543a14.244 14.244 0 0 1-.336-3.383c-.027-1.211.101-2.41.387-3.59.609-2.312 2.078-3.746 4.406-4.3A10.27 10.27 0 0 1 7.195.836Z" style="fill:url(#a);fill-rule:evenodd;stroke:none" transform="matrix(1.33333 0 0 1.33333 0 0)"/><g transform="matrix(.38187 0 0 .38187 -.22 .004)"><path fill="#f23d35" d="M24.956 20.26c-3.902 0-7.043 2.348-7.043 8.218 0 7.043 7.043 19.956 14.087 19.956 7.043 0 14.086-12.913 14.086-19.956 0-5.87-3.141-8.217-7.043-8.217z" style="stroke-width:1.1739"/><path fill="#78b540" d="M32 14.391s-2.348 1.174-2.348 4.696c-1.174-2.348-3.569-2.348-5.87-2.348 0 2.348 1.174 3.522 3.522 4.696-2.348 1.173-3.522 2.347-3.522 4.695 2.301 0 4.696 0 5.87-2.348 0 3.522 2.348 4.696 2.348 4.696s2.347-1.174 2.347-4.696c1.174 2.348 3.57 2.348 5.87 2.348 0-2.348-1.174-3.522-3.522-4.696 2.348-1.173 3.522-2.347 3.522-4.695-2.3 0-4.696 0-5.87 2.348 0-3.522-2.347-4.696-2.347-4.696z" style="stroke-width:1.1739;paint-order:normal"/><circle cx="32" cy="43.739" r="1.174" fill="#eeebcd" style="stroke-width:1.1739;paint-order:normal"/><circle cx="27.304" cy="39.043" r="1.174" fill="#eeebcd" style="stroke-width:1.1739;paint-order:normal"/><circle cx="36.695" cy="39.043" r="1.174" fill="#eeebcd" style="stroke-width:1.1739;paint-order:normal"/><circle cx="32" cy="36.695" r="1.174" fill="#eeebcd" style="stroke-width:1.1739;paint-order:normal"/><circle cx="39.043" cy="34.347" r="1.174" fill="#eeebcd" style="stroke-width:1.1739;paint-order:normal"/><circle cx="24.956" cy="34.347" r="1.174" fill="#eeebcd" style="stroke-width:1.1739;paint-order:normal"/><circle cx="22.608" cy="29.652" r="1.174" fill="#eeebcd" style="stroke-width:1.1739;paint-order:normal"/><circle cx="41.391" cy="29.652" r="1.174" fill="#eeebcd" style="stroke-width:1.1739;paint-order:normal"/><circle cx="28.478" cy="30.826" r="1.174" fill="#eeebcd" style="stroke-width:1.1739;paint-order:normal"/><circle cx="35.521" cy="30.826" r="1.174" fill="#eeebcd" style="stroke-width:1.1739;paint-order:normal"/><circle cx="32" cy="21.434" r="2.348" fill="#2c9148" style="stroke-width:1.1739;paint-order:normal"/><circle cx="32" cy="21.434" r="1.174" fill="#5ccd7c" style="stroke-width:1.1739;paint-order:normal"/></g></svg>