<svg xmlns="http://www.w3.org/2000/svg" xml:space="preserve" width="24" height="24" viewBox="0 0 6.35 6.35"><defs><radialGradient id="a" cx="0" cy="0" r="1" fx="0" fy="0" gradientTransform="matrix(0 16.5 -16.5 0 9 .75)" gradientUnits="userSpaceOnUse" spreadMethod="pad"><stop offset="0" style="stop-color:#fff;stop-opacity:1"/><stop offset="0" style="stop-color:#21252d;stop-opacity:1"/></radialGradient></defs><path d="M7.195.836c.09 0 .176-.012.258-.035a23.86 23.86 0 0 1 3.231.008 10.26 10.26 0 0 1 2.836.636c1.519.625 2.558 1.711 3.121 3.254.316.93.507 1.887.566 2.867a21.227 21.227 0 0 1-.086 3.696 8.976 8.976 0 0 1-.672 2.488c-.637 1.383-1.672 2.336-3.101 2.859a11.693 11.693 0 0 1-3.575.618 15.998 15.998 0 0 1-4.089-.309c-2.481-.551-4.016-2.066-4.594-4.543a14.244 14.244 0 0 1-.336-3.383c-.027-1.211.101-2.41.387-3.59.609-2.312 2.078-3.746 4.406-4.3A10.27 10.27 0 0 1 7.195.836Z" style="fill:url(#a);fill-rule:evenodd;stroke:none;stroke-width:.99975;stroke-dasharray:none" transform="scale(.35277)"/><g opacity=".5"><path fill="#869eb6" d="M23.545 19.211h5.96v2.546h-5.96z" display="block" overflow="visible" style="isolation:auto;mix-blend-mode:normal" transform="matrix(.13946 0 0 .13408 -1.288 -1.116)"/><path fill="#8e9f81" d="M29.684 19.5h3.467v2.311h-3.467z" display="block" overflow="visible" style="isolation:auto;mix-blend-mode:normal" transform="matrix(.13946 0 0 .13408 -1.288 -1.116)"/><path fill="#9e9e86" d="M23.545 23.454h5.96V26h-5.96z" display="block" overflow="visible" style="isolation:auto;mix-blend-mode:normal" transform="matrix(.13946 0 0 .13408 -1.288 -1.116)"/><path fill="#86b1d6" fill-opacity=".357" d="M30.334 23.454h3.394V26h-3.394z" display="block" overflow="visible" style="isolation:auto;mix-blend-mode:normal" transform="matrix(.13946 0 0 .13408 -1.288 -1.116)"/><path fill="#88885e" fill-opacity=".495" d="M34.577 23.454h3.395V26h-3.395z" display="block" overflow="visible" style="isolation:auto;mix-blend-mode:normal" transform="matrix(.13946 0 0 .13408 -1.288 -1.116)"/><path fill="#987f95" d="M23.545 27.697h5.96v2.546h-5.96z" display="block" overflow="visible" style="isolation:auto;mix-blend-mode:normal" transform="matrix(.13946 0 0 .13408 -1.288 -1.116)"/><path fill="#9d875f" fill-opacity=".687" d="M30.334 27.697h4.243v2.546h-4.243z" display="block" overflow="visible" style="isolation:auto;mix-blend-mode:normal" transform="matrix(.13946 0 0 .13408 -1.288 -1.116)"/><path fill="#987f95" fill-opacity=".676" d="M23.545 36.183h5.94v2.546h-5.94z" display="block" overflow="visible" style="isolation:auto;mix-blend-mode:normal" transform="matrix(.13946 0 0 .13408 -1.288 -1.116)"/><path fill="#68798d" fill-opacity=".764" d="M30.334 36.183h5.78v2.546h-5.78z" display="block" overflow="visible" style="isolation:auto;mix-blend-mode:normal" transform="matrix(.13946 0 0 .13408 -1.288 -1.116)"/><path fill="#606d78" d="M37.123 36.183h5.94v2.546h-5.94z" display="block" overflow="visible" style="isolation:auto;mix-blend-mode:normal" transform="matrix(.13946 0 0 .13408 -1.288 -1.116)"/><path fill="#8f6094" d="M43.912 36.183h4.243v2.546h-4.243z" display="block" overflow="visible" style="isolation:auto;mix-blend-mode:normal" transform="matrix(.13946 0 0 .13408 -1.288 -1.116)"/><path fill="#b36b75" d="M23.545 40.427h5.96v2.545h-5.96z" display="block" overflow="visible" style="isolation:auto;mix-blend-mode:normal" transform="matrix(.13946 0 0 .13408 -1.288 -1.116)"/><path fill="#b47f70" d="M30.334 40.427h3.394v2.26h-3.394z" display="block" overflow="visible" style="isolation:auto;mix-blend-mode:normal" transform="matrix(.13946 0 0 .13408 -1.288 -1.116)"/><path fill="#53c290" d="M23.545 46.367h6.789v2.546h-6.789z" display="block" overflow="visible" style="isolation:auto;mix-blend-mode:normal" transform="matrix(.13946 0 0 .13408 -1.288 -1.116)"/><path fill="#e675d2" d="M31.183 46.367h4.243v2.546h-4.243z" display="block" overflow="visible" style="isolation:auto;mix-blend-mode:normal" transform="matrix(.13946 0 0 .13408 -1.288 -1.116)"/><path fill="#5e6974" d="M34.577 40.427h3.395v2.545h-3.395z" display="block" overflow="visible" style="isolation:auto;mix-blend-mode:normal" transform="matrix(.13946 0 0 .13408 -1.288 -1.116)"/><path fill="#4d854d" d="M37.773 42.034h5.2v2.31h-5.2z" display="block" overflow="visible" style="isolation:auto;mix-blend-mode:normal" transform="matrix(.13946 0 0 .13408 -1.288 -1.116)"/><path fill="#b36b75" d="M33.728 19.5h5.779v2.311h-5.78z" display="block" overflow="visible" style="isolation:auto;mix-blend-mode:normal" transform="matrix(.13946 0 0 .13408 -1.288 -1.116)"/><path fill="#8f6094" d="M40.085 19.5h5.778v2.311h-5.78z" display="block" overflow="visible" style="isolation:auto;mix-blend-mode:normal" transform="matrix(.13946 0 0 .13408 -1.288 -1.116)"/><path fill="#575f70" d="M18.453 19.211H21v2.546h-2.546zm0 4.243H21V26h-2.546zm0 4.243H21v2.546h-2.546zm0 4.243H21v2.546h-2.546zm0 4.243H21v2.546h-2.546zm0 4.244H21v2.545h-2.546zm0 5.94H21v2.546h-2.546z" display="block" overflow="visible" style="isolation:auto;mix-blend-mode:normal" transform="matrix(.13946 0 0 .13408 -1.288 -1.116)"/><path fill="#9176e2" d="M23.545 14.968h5.94v2.546h-5.94z" display="block" overflow="visible" style="isolation:auto;mix-blend-mode:normal" transform="matrix(.13946 0 0 .13408 -1.288 -1.116)"/><path fill="#57bdff" fill-opacity=".824" d="M30.334 14.968h3.394v2.546h-3.394z" display="block" overflow="visible" style="isolation:auto;mix-blend-mode:normal" transform="matrix(.13946 0 0 .13408 -1.288 -1.116)"/><path fill="#575f70" d="M18.453 14.968H21v2.546h-2.546z" display="block" overflow="visible" style="isolation:auto;mix-blend-mode:normal" transform="matrix(.13946 0 0 .13408 -1.288 -1.116)"/></g><path fill="#fff" d="M40.108 38.7q0-1.98-1.888-3.06-1.85-1.108-6.518-1.899-4.633-.793-7.378-1.9-2.714-1.107-4.038-2.638-1.29-1.53-1.29-3.64 0-3.508 3.706-5.935 3.738-2.427 9.53-2.427 6.09 0 9.86 2.505 3.806 2.507 3.806 6.41h-6.154q0-2.004-2.152-3.455-2.117-1.451-5.36-1.451-3.341 0-5.229 1.16-1.885 1.161-1.885 3.035 0 1.767 1.754 2.664 1.752.896 6.319 1.714 4.6.818 7.446 1.953 2.845 1.133 4.203 2.743 1.39 1.582 1.39 3.878 0 3.824-3.84 6.145-3.837 2.297-9.96 2.297-4.303 0-7.61-1.214-3.31-1.214-5.195-3.376-1.854-2.19-1.854-4.722h6.123q.165 2.453 2.449 3.904 2.315 1.424 6.087 1.424 3.475 0 5.56-1.107 2.118-1.136 2.118-3.007z" font-family="Roboto" font-size="83.863" font-weight="400" letter-spacing="0" style="stroke-width:1.20812" transform="matrix(.13946 0 0 .13408 -1.288 -1.116)" word-spacing="0"/></svg>