<svg xmlns="http://www.w3.org/2000/svg" id="svg2" width="24" height="24" version="1.1"><defs id="defs1"><radialGradient id="paint0_radial_1_33" cx="0" cy="0" r="1" gradientTransform="matrix(0 11 -11 0 12 1)" gradientUnits="userSpaceOnUse"><stop id="stop6" stop-color="#6EBBF7"/><stop id="stop7" offset="1" stop-color="#2196F3"/></radialGradient><style id="current-color-scheme" type="text/css">.ColorScheme-Text{color:#f2f2f2}</style></defs><path id="path1-7" fill="url(#paint0_radial_1_33)" fill-rule="evenodd" d="M9.596 1.114c.12 0 .234-.014.344-.046a31.627 31.627 0 0 1 4.307.011c1.301.102 2.562.384 3.78.848 2.026.833 3.412 2.28 4.158 4.339.427 1.24.679 2.514.756 3.824a27.94 27.94 0 0 1-.114 4.923 11.88 11.88 0 0 1-.894 3.32c-.85 1.843-2.229 3.114-4.135 3.813a15.624 15.624 0 0 1-4.765.825 21.423 21.423 0 0 1-5.453-.413c-3.312-.737-5.354-2.756-6.128-6.056a19.047 19.047 0 0 1-.447-4.511 18.491 18.491 0 0 1 .515-4.786c.812-3.086 2.77-4.998 5.877-5.736a13.953 13.953 0 0 1 2.199-.355Z" clip-rule="evenodd" style="fill:url(#paint0_radial_1_33)"/><g id="g4" stroke-width="1.038" transform="translate(4.537 4.056) scale(.24074)"><rect id="rect3" width="54" height="54" x="4" y="6" fill="#0c96df" stroke-linejoin="round" stroke-width=".519" color="#000" rx="1.35" ry="1.35" style="isolation:auto;mix-blend-mode:normal"/><path id="path3" stroke-linejoin="round" stroke-width=".519" d="M5.35 6C4.602 6 4 6.602 4 7.35v51.3c0 .748.602 1.35 1.35 1.35h6.75V49.2h37.8V60h6.75c.748 0 1.35-.602 1.35-1.35V7.35C58 6.602 57.398 6 56.65 6H55.3v2.7h-2.7V6h-2.7v10.8H12.1V6H9.4v2.7H6.7V6Zm1.35 5.4h2.7v2.7H6.7Zm45.9 0h2.7v2.7h-2.7ZM6.7 16.8h2.7v2.7H6.7Zm45.9 0h2.7v2.7h-2.7ZM6.7 22.2h2.7v2.7H6.7Zm5.4-2.7h37.8v27H12.1V22.2Zm40.5 2.7h2.7v2.7h-2.7ZM6.7 27.6h2.7v2.7H6.7Zm45.9 0h2.7v2.7h-2.7ZM6.7 33h2.7v2.7H6.7Zm45.9 0h2.7v2.7h-2.7ZM6.7 38.4h2.7v2.7H6.7Zm45.9 0h2.7v2.7h-2.7ZM6.7 43.8h2.7v2.7H6.7Zm45.9 0h2.7v2.7h-2.7ZM6.7 49.2h2.7v2.7H6.7Zm45.9 0h2.7v2.7h-2.7ZM6.7 54.6h2.7v2.7H6.7Zm45.9 0h2.7v2.7h-2.7z" opacity=".5"/><path id="path4" fill="#fff" fill-rule="evenodd" d="M36.4 19.5 20.211 35.689h-.005v5.413h5.413v-.005l16.19-16.189-.004-.003.003-.002-5.4-5.4-.003.002zm-2.697 4.606 3.496 3.497-10.244 10.244V35.7h-2.7v-2.146ZM22.906 34.903v2.147h2.7v2.146l-.554.554h-2.146l-1.35-1.35v-2.147zm6.75 4.847-1.35 1.35h13.5v-1.35z" color="#000" style="isolation:auto;mix-blend-mode:normal"/><rect id="rect4" width="16.2" height="1.35" x="22.9" y="42.45" fill="#fff" fill-rule="evenodd" stroke-width="1.078" color="#000" rx="0" ry="1.35" style="isolation:auto;mix-blend-mode:normal"/></g></svg>