<svg xmlns="http://www.w3.org/2000/svg" xmlns:xlink="http://www.w3.org/1999/xlink" xml:space="preserve" width="24" height="24" viewBox="0 0 6.35 6.35"><defs><clipPath id="j" clipPathUnits="userSpaceOnUse"><path d="M5.273 12.059h.219c.098 0 .176.082.176.179v.727a.176.176 0 0 1-.176.176h-.219a.179.179 0 0 1-.179-.176v-.727c0-.097.082-.179.179-.179z"/></clipPath><clipPath id="a" clipPathUnits="userSpaceOnUse"><path d="M-97.54 25.423h11.346v22.691h-11.345z"/></clipPath><clipPath id="m" clipPathUnits="userSpaceOnUse"><path d="M6.09 12.059h.219c.097 0 .175.082.175.179v.727a.175.175 0 0 1-.175.176H6.09a.177.177 0 0 1-.18-.176v-.727c0-.097.078-.179.18-.179z"/></clipPath><clipPath id="c" clipPathUnits="userSpaceOnUse"><path d="M-106.797 25.423h22.691v22.691h-22.69Z"/></clipPath><clipPath id="p" clipPathUnits="userSpaceOnUse"><path d="M6.906 12.059h.219c.098 0 .176.082.176.179v.727a.176.176 0 0 1-.176.176h-.219a.176.176 0 0 1-.179-.176v-.727c0-.097.078-.179.179-.179z"/></clipPath><clipPath id="d" clipPathUnits="userSpaceOnUse"><path d="M-104.709 25.423h22.691v22.691h-22.69Z"/></clipPath><clipPath id="s" clipPathUnits="userSpaceOnUse"><path d="M7.719 12.059h.222c.098 0 .176.082.176.179v.727a.176.176 0 0 1-.176.176h-.222a.176.176 0 0 1-.176-.176v-.727c0-.097.078-.179.176-.179z"/></clipPath><clipPath id="e" clipPathUnits="userSpaceOnUse"><path d="M-102.62 25.423h22.69v22.691h-22.69Z"/></clipPath><clipPath id="v" clipPathUnits="userSpaceOnUse"><path d="M8.492 12.059a.13.13 0 0 1 .129.132v.817a.132.132 0 0 1-.129.133.132.132 0 0 1-.133-.133v-.817c0-.074.059-.132.133-.132z"/></clipPath><clipPath id="f" clipPathUnits="userSpaceOnUse"><path d="M-105.318 25.423h24.693v22.691h-24.693z"/></clipPath><linearGradient id="h"><stop offset="0" style="stop-color:#f4f4f4;stop-opacity:1"/><stop offset="1" style="stop-color:#b5bbc0;stop-opacity:1"/></linearGradient><linearGradient id="b" x1="-91.306" x2="-91.306" y1="36.522" y2="26.407" gradientUnits="userSpaceOnUse" spreadMethod="pad"><stop offset="0" style="stop-opacity:1;stop-color:#fff"/><stop offset="1" style="stop-opacity:0;stop-color:#fff"/></linearGradient><linearGradient id="g" x1="-91.306" x2="-91.306" y1="36.522" y2="26.407" gradientUnits="userSpaceOnUse" spreadMethod="pad"><stop offset="0" style="stop-opacity:1;stop-color:#fff355"/><stop offset="1" style="stop-opacity:1;stop-color:#a49a00"/></linearGradient><linearGradient xlink:href="#g" id="x" x1="-91.306" x2="-91.306" y1="36.522" y2="26.407" gradientUnits="userSpaceOnUse" spreadMethod="pad"/><linearGradient xlink:href="#g" id="l" x1="-91.306" x2="-91.306" y1="36.522" y2="26.407" gradientUnits="userSpaceOnUse" spreadMethod="pad"/><linearGradient xlink:href="#g" id="o" x1="-91.306" x2="-91.306" y1="36.522" y2="26.407" gradientUnits="userSpaceOnUse" spreadMethod="pad"/><linearGradient xlink:href="#g" id="r" x1="-91.306" x2="-91.306" y1="36.522" y2="26.407" gradientUnits="userSpaceOnUse" spreadMethod="pad"/><linearGradient xlink:href="#g" id="u" x1="-91.306" x2="-91.306" y1="36.522" y2="26.407" gradientUnits="userSpaceOnUse" spreadMethod="pad"/><mask id="k" width="1" height="1" x="0" y="0" maskUnits="userSpaceOnUse"><g clip-path="url(#a)"><path d="M-97.54 25.423h11.346v22.691h-11.345z" style="fill:url(#b);stroke:none"/></g></mask><mask id="n" width="1" height="1" x="0" y="0" maskUnits="userSpaceOnUse"><g clip-path="url(#c)"><path d="M-106.797 25.423h22.691v22.691h-22.69Z" style="fill:url(#b);stroke:none"/></g></mask><mask id="q" width="1" height="1" x="0" y="0" maskUnits="userSpaceOnUse"><g clip-path="url(#d)"><path d="M-104.709 25.423h22.691v22.691h-22.69Z" style="fill:url(#b);stroke:none"/></g></mask><mask id="t" width="1" height="1" x="0" y="0" maskUnits="userSpaceOnUse"><g clip-path="url(#e)"><path d="M-102.62 25.423h22.69v22.691h-22.69Z" style="fill:url(#b);stroke:none"/></g></mask><mask id="w" width="1" height="1" x="0" y="0" maskUnits="userSpaceOnUse"><g clip-path="url(#f)"><path d="M-105.318 25.423h24.693v22.691h-24.693z" style="fill:url(#b);stroke:none"/></g></mask><radialGradient xlink:href="#h" id="i" cx="9" cy=".962" r="8.25" fx="9" fy=".962" gradientTransform="matrix(1.16467 0 0 1.16467 -1.482 -.158)" gradientUnits="userSpaceOnUse"/></defs><g style="fill:url(#i);fill-opacity:1"><g style="fill-opacity:1;fill:url(#i)" transform="scale(.35277)"><path d="M7.195.836c.09 0 .176-.012.258-.035a23.86 23.86 0 0 1 3.231.008 10.26 10.26 0 0 1 2.836.636c1.519.625 2.558 1.711 3.121 3.254.316.93.507 1.887.566 2.867a21.227 21.227 0 0 1-.086 3.696 8.976 8.976 0 0 1-.672 2.488c-.637 1.383-1.672 2.336-3.101 2.859a11.693 11.693 0 0 1-3.575.618 15.998 15.998 0 0 1-4.089-.309c-2.481-.551-4.016-2.066-4.594-4.543a14.244 14.244 0 0 1-.336-3.383c-.027-1.215.101-2.41.387-3.59.609-2.312 2.078-3.746 4.406-4.3A10.27 10.27 0 0 1 7.195.836Z" style="fill:url(#i);fill-rule:evenodd;stroke:none;fill-opacity:1"/></g></g><g clip-path="url(#j)" style="fill:none" transform="translate(-.365 3.907) scale(.35277)"><g mask="url(#k)" transform="translate(13.597 9.76) scale(.08814)"><path d="M5.273 12.059h.219c.098 0 .176.082.176.179v.727a.176.176 0 0 1-.176.176h-.219a.179.179 0 0 1-.179-.176v-.727c0-.097.082-.179.179-.179z" style="fill:url(#l);stroke:none"/></g></g><g clip-path="url(#m)" style="fill:none" transform="translate(-.365 3.907) scale(.35277)"><g mask="url(#n)" transform="translate(14.413 9.76) scale(.08814)"><path d="M6.09 12.059h.219c.097 0 .175.082.175.179v.727a.175.175 0 0 1-.175.176H6.09a.177.177 0 0 1-.18-.176v-.727c0-.097.078-.179.18-.179z" style="fill:url(#o);stroke:none"/></g></g><g clip-path="url(#p)" style="fill:none" transform="translate(-.365 3.907) scale(.35277)"><g mask="url(#q)" transform="translate(15.23 9.76) scale(.08814)"><path d="M6.906 12.059h.219c.098 0 .176.082.176.179v.727a.176.176 0 0 1-.176.176h-.219a.176.176 0 0 1-.179-.176v-.727c0-.097.078-.179.179-.179z" style="fill:url(#r);stroke:none"/></g></g><g clip-path="url(#s)" style="fill:none" transform="translate(-.365 3.907) scale(.35277)"><g mask="url(#t)" transform="translate(16.045 9.76) scale(.08814)"><path d="M7.719 12.059h.222c.098 0 .176.082.176.179v.727a.176.176 0 0 1-.176.176h-.222a.176.176 0 0 1-.176-.176v-.727c0-.097.078-.179.176-.179z" style="fill:url(#u);stroke:none"/></g></g><g clip-path="url(#v)" style="fill:none" transform="translate(-.365 3.907) scale(.35277)"><g mask="url(#w)" transform="matrix(.0405 0 0 .08814 12.265 9.76)"><path d="M8.492 12.059a.13.13 0 0 1 .129.132v.817a.132.132 0 0 1-.129.133.132.132 0 0 1-.133-.133v-.817c0-.074.059-.132.133-.132z" style="fill:url(#x);stroke:none"/></g></g><g stroke-width=".215" transform="translate(-1.82 -1.737) scale(.57695)"><path fill="#2e3436" d="m11.389 9.198-.491-.13a.78.78 0 0 0-.953.544l-.336 1.243a.77.77 0 0 0 .552.942l.49.13c.414.11.84-.133.952-.544l.335-1.243a.768.768 0 0 0-.549-.942"/><path fill="#2e3436" d="m11.052 8.098-.328-.094c-.276-.08-.559.097-.633.395l-.225.903c-.074.298.09.605.367.685l.327.095c.276.08.56-.097.634-.395l.224-.904c.074-.298-.09-.605-.366-.685M6.81 7.834l.344-.095a.54.54 0 0 1 .664.395l.235.903a.561.561 0 0 1-.383.685l-.344.095a.541.541 0 0 1-.664-.395l-.235-.903a.56.56 0 0 1 .384-.685"/><path fill="#121919" d="M9.697 5.08c-.76-.066-1.536.495-1.835 1.384a2.414 2.414 0 0 0-.095.378v.005a2.33 2.33 0 0 0-.469.805c-.374 1.109.113 2.274 1.084 2.601.972.328 2.06-.304 2.433-1.413.14-.412.163-.833.085-1.215.015-.04.03-.078.044-.119.342-1.016-.07-2.074-.921-2.362a1.37 1.37 0 0 0-.326-.065"/><path fill="#ececec" d="M9.19 5.613a.644.644 0 0 0-.61.445c-.088.258-.044.522.097.693-.313.106-.603.32-.826.616.019.096.04.195.07.293.1.351.169.91-.12.623a1.377 1.377 0 0 1-.254-.342c-.317.923.048 1.884.817 2.15.77.268 1.653-.264 1.974-1.188.023-.066.039-.133.055-.199-.179.121-.353.257-.603.299-.523.088-.041-.411.345-.75.119-.104.242-.269.242-.269-.055-.314-.143-.686-.342-.9.285.056.504-.068.574-.295.077-.248-.063-.523-.375-.62a.646.646 0 0 0-.505.04c.014-.284-.124-.486-.365-.57a.463.463 0 0 0-.173-.026Zm.354 1.084a.71.71 0 0 0 .033.07l-.055-.022-.018-.008c.013-.013.028-.025.04-.038Z"/><path fill="#2e3436" d="M9.556 6.482c-.016.08-.06.149-.116.178a.113.113 0 0 1-.153-.034.259.259 0 0 1-.028-.212c.027-.118.115-.2.196-.182.083.019.127.13.1.25m.39.118a.262.262 0 0 1-.116.18.112.112 0 0 1-.152-.035c-.038-.051-.048-.132-.028-.212.026-.118.114-.2.197-.182.082.018.126.13.099.249"/><path fill="#ffb30a" d="M8.88 6.772s.408-.085.646.017c.236.102.39.356.39.356s-.408.585-.763.412c-.356-.175-.271-.785-.271-.785"/><path fill="#2e3436" d="m5.918 9.198.485-.13a.766.766 0 0 1 .938.544l.332 1.243a.77.77 0 0 1-.542.942l-.485.13a.765.765 0 0 1-.938-.544l-.332-1.243a.77.77 0 0 1 .542-.942"/><path fill="#ffb30a" d="M7.996 9.969a.926.926 0 1 1-1.853 0 .926.926 0 0 1 1.853 0"/><path fill="#2e3436" d="M8.79 7.72a1.058 1.058 0 0 0-1.06 1.058 1.058 1.058 0 0 0 1.06 1.058 1.058 1.058 0 0 0 1.058-1.058A1.058 1.058 0 0 0 8.79 7.72Zm0 .264a.794.811 0 0 1 .793.812.794.811 0 0 1-.793.81.794.811 0 0 1-.794-.81.794.811 0 0 1 .794-.812Zm0 .265a.53.53 0 0 0-.53.53.53.53 0 0 0 .53.528.53.53 0 0 0 .529-.529.53.53 0 0 0-.53-.529Z" style="paint-order:normal"/><path fill="#ffb30a" d="M10.906 9.969a.925.925 0 1 1-1.85.001.925.925 0 0 1 1.85-.001"/><path fill="#e25136" d="m10.509 8.508-.66.006-.209.363-.255-.255s-.16-.109-.655-.109c-.431 0-.797.071-.797.071l-.303.286-.163-.357h-.542c-.197 0-.252.056-.252.265h.595c.125 0 .242.128.27.166-.354.285-.865.878-.865 1.254 0 .541.104 1.32.104 1.32s.714.17 1.748.17c1.035 0 2.001-.235 2.001-.235s.116-.558.116-.875c0-.742-.398-1.22-.906-1.626.024-.039.09-.174.273-.174h.633s0-.264-.133-.27z"/><rect width="2.91" height="1.587" x="7.202" y="9.836" fill="#693d36" ry=".661" style="paint-order:normal"/></g></svg>