<svg xmlns="http://www.w3.org/2000/svg" width="24" height="24"><defs><radialGradient id="a" cx="0" cy="0" r="1" gradientTransform="matrix(0 11 -11 0 12 1)" gradientUnits="userSpaceOnUse"><stop stop-color="#6EBBF7"/><stop offset="1" stop-color="#2196F3" style="stop-color:#1897ec;stop-opacity:1"/></radialGradient></defs><path fill="url(#a)" fill-rule="evenodd" d="M9.596 1.114c.12 0 .234-.014.344-.046a31.627 31.627 0 0 1 4.307.011c1.301.102 2.562.384 3.78.848 2.026.833 3.412 2.28 4.158 4.339.427 1.24.679 2.514.756 3.824a27.94 27.94 0 0 1-.114 4.923 11.88 11.88 0 0 1-.894 3.32c-.85 1.843-2.229 3.114-4.135 3.813a15.624 15.624 0 0 1-4.765.825 21.423 21.423 0 0 1-5.453-.413c-3.312-.737-5.354-2.756-6.128-6.056a19.047 19.047 0 0 1-.447-4.511 18.491 18.491 0 0 1 .515-4.786c.812-3.086 2.77-4.998 5.877-5.736a13.953 13.953 0 0 1 2.199-.355Z" clip-rule="evenodd" style="fill:url(#a)"/><path fill="#fff" d="M13.384 6 12 8.77H8.769l-.461 1.384h6.923l.461-1.385h-2.307l1.153-2.307c.233-.466-.594-.462-1.153-.462zm-5.076 4.616c-.656 1.88-1.385 3.23-1.385 5.538 0 .923.461 1.846 1.385 1.846h5.076c-.213-1.215-.352-2.002-.46-3.23.437 1.24.631 1.966 1.383 3.23h1.385c.706 0 1.396-.783 1.385-1.846-.005-.454-.046-.938-1.081-1.89-.754-.693-1.227-1.484-1.227-2.264 0-.582.074-.973.23-1.384h-.922c-.345 0-.693.103-.693.46 0 1.11.033 2.292.923 3.232-1.183-1.057-1.384-1.385-1.384-3.692z" style="stroke-width:.375"/></svg>