<svg xmlns="http://www.w3.org/2000/svg" xmlns:xlink="http://www.w3.org/1999/xlink" xml:space="preserve" width="24" height="24" fill="none"><defs><linearGradient id="a"><stop offset="0" style="stop-color:#1ca4d4;stop-opacity:1"/><stop offset="1" style="stop-color:#94d3e5;stop-opacity:1"/></linearGradient><linearGradient xlink:href="#a" id="b" x1="52.978" x2="52.616" y1="96.007" y2="-3.068" gradientTransform="matrix(.24444 0 0 .24444 -.222 -.222)" gradientUnits="userSpaceOnUse"/></defs><path d="M12 1C2 1 1 6 1 12c0 8 3 11 11 11s11-3 11-11c0-6-1-11-11-11Z" style="font-variation-settings:normal;display:inline;opacity:1;vector-effect:none;fill:url(#b);fill-opacity:1;stroke-width:1.11627;stroke-linecap:butt;stroke-linejoin:miter;stroke-miterlimit:4;stroke-dasharray:none;stroke-dashoffset:0;stroke-opacity:1;-inkscape-stroke:none;stop-color:#000;stop-opacity:1"/><g fill="#fff" style="fill:none" transform="matrix(.34593 0 0 .34593 -37.543 25.569)"><path d="M143.214-59.224c-11.046 0-20 8.955-20 20 0 11.046 8.954 20 20 20 11.045 0 20-8.954 20-20a19.982 19.982 0 0 0-1.23-6.827l.041-.032-.104-.148a20 20 0 0 0-18.707-12.993zm0 2a17.999 17.999 0 0 1 15.975 9.723l-12.479 8.917-21.292 1.934a17.888 17.888 0 0 1-.204-2.574c0-9.941 8.06-18 18-18zm17.077 12.379c.604 1.813.916 3.71.923 5.62A18 18 0 0 1 156-26.571l-6.867-10.3zm-13.78 9.089 7.346 11.02a17.993 17.993 0 0 1-10.643 3.512 18 18 0 0 1-17.172-12.668z"/><circle cx="125.214" cy="-35.224" r="4"/><circle cx="155.214" cy="-25.224" r="4"/><circle cx="161.214" cy="-47.224" r="4"/><circle cx="147.214" cy="-37.224" r="4"/></g></svg>