<svg xmlns="http://www.w3.org/2000/svg" xmlns:xlink="http://www.w3.org/1999/xlink" xml:space="preserve" width="24" height="24" fill="none"><defs><linearGradient id="a"><stop offset="0" style="stop-color:#1ca4d4;stop-opacity:1"/><stop offset="1" style="stop-color:#afdde9;stop-opacity:1"/></linearGradient><linearGradient xlink:href="#a" id="b" x1="43.598" x2="44.282" y1="77.536" y2="-15.279" gradientUnits="userSpaceOnUse"/><linearGradient xlink:href="#a" id="e" x1="43.598" x2="44.282" y1="77.536" y2="-15.279" gradientUnits="userSpaceOnUse"/><linearGradient xlink:href="#a" id="d" x1="43.598" x2="44.282" y1="77.536" y2="-15.279" gradientUnits="userSpaceOnUse"/><linearGradient xlink:href="#a" id="c" x1="43.598" x2="44.282" y1="77.536" y2="-15.279" gradientUnits="userSpaceOnUse"/></defs><g style="fill:url(#b);fill-opacity:1;stroke-width:5.54546"><g style="fill:url(#c);fill-opacity:1;stroke-width:5.54546" transform="matrix(.24044 0 0 .24044 1 1)"><g style="fill:url(#d);fill-opacity:1;stroke-width:5.54546"><path d="M35.75.473c.5.004.977-.059 1.43-.192a131.89 131.89 0 0 1 17.914.047 56.345 56.345 0 0 1 15.722 3.524c8.426 3.468 14.192 9.484 17.293 18.05a59.214 59.214 0 0 1 3.145 15.903 116.03 116.03 0 0 1-.477 20.476 49.45 49.45 0 0 1-3.715 13.813c-3.539 7.66-9.269 12.945-17.199 15.855a65.014 65.014 0 0 1-19.82 3.43 89.267 89.267 0 0 1-22.676-1.715C13.594 86.594 5.098 78.199 1.879 64.473A79.31 79.31 0 0 1 .02 45.711a76.872 76.872 0 0 1 2.144-19.906C5.539 12.973 13.684 5.02 26.605 1.949A57.513 57.513 0 0 1 35.75.473Z" style="fill:url(#e);fill-opacity:1;fill-rule:evenodd;stroke:none;stroke-width:5.54546"/></g></g></g><g fill="#fff" style="stroke-width:5.92126" transform="matrix(.3409 0 0 .3409 -36.823 25.372)"><path d="M143.214-59.224c-11.046 0-20 8.955-20 20 0 11.046 8.954 20 20 20 11.045 0 20-8.954 20-20a19.982 19.982 0 0 0-1.23-6.827l.041-.032-.104-.148a20 20 0 0 0-18.707-12.993zm0 2a17.999 17.999 0 0 1 15.975 9.723l-12.479 8.917-21.292 1.934a17.888 17.888 0 0 1-.204-2.574c0-9.941 8.06-18 18-18zm17.077 12.379c.604 1.813.916 3.71.923 5.62A18 18 0 0 1 156-26.571l-6.867-10.3zm-13.78 9.089 7.346 11.02a17.993 17.993 0 0 1-10.643 3.512 18 18 0 0 1-17.172-12.668z" style="stroke-width:5.92126"/><circle cx="125.214" cy="-35.224" r="4" style="stroke-width:5.92126"/><circle cx="155.214" cy="-25.224" r="4" style="stroke-width:5.92126"/><circle cx="161.214" cy="-47.224" r="4" style="stroke-width:5.92126"/><circle cx="147.214" cy="-37.224" r="4" style="stroke-width:5.92126"/></g></svg>