<svg width="256" height="256" viewBox="0 0 256 256" fill="none" xmlns="http://www.w3.org/2000/svg">
<path fill-rule="evenodd" clip-rule="evenodd" d="M100.027 1.32176C101.421 1.33661 102.754 1.15896 104.025 0.788843C120.733 -0.305617 137.439 -0.261225 154.144 0.922073C169.291 2.10225 183.953 5.38862 198.131 10.7811C221.702 20.4851 237.831 37.3166 246.517 61.2754C251.484 75.7002 254.417 90.5333 255.314 105.774C256.556 124.913 256.112 144.01 253.981 163.063C252.387 176.456 248.921 189.335 243.584 201.7C233.686 223.14 217.647 237.928 195.465 246.066C177.491 252.139 159.007 255.337 140.015 255.658C118.652 256.769 97.5026 255.171 76.5669 250.862C38.0322 242.278 14.2614 218.785 5.25472 180.383C1.43259 163.097 -0.300228 145.599 0.0562535 127.891C-0.370314 109.061 1.6291 90.4971 6.05448 72.2003C15.4963 36.2947 38.2895 14.0452 74.4342 5.4519C82.8566 3.39283 91.3874 2.01611 100.027 1.32176Z" fill="#9575CD"/>
<path d="M114.014 187.456C114.684 192.91 116.182 198.13 118.346 202.873C92.3535 197.299 70.7106 176.692 65.4704 150.116C60.0229 121.853 73.1808 93.216 98.3647 78.788C104.896 75.0862 108.657 76.7334 110.334 78.0433C111.938 79.2963 114.373 82.4903 112.322 89.3987C110.229 96.5098 109.677 103.827 110.586 111.229C112.277 124.466 118.978 136.099 128.575 144.477C117.857 155.415 111.997 171.029 114.014 187.456Z" fill="#FAFAFA"/>
<path opacity="0.4" d="M192.265 169.411C181.554 188.455 162.426 201.217 140.676 203.887C139.637 204.015 138.59 204.078 137.543 204.14C131.019 204.678 124.569 204.217 118.341 202.873C116.177 198.13 114.679 192.91 114.01 187.456C111.993 171.029 117.852 155.415 128.57 144.477C139.43 154.018 153.982 159.283 169.19 158.075C173.304 157.767 177.355 156.941 181.292 155.732C188.405 153.541 191.661 155.909 192.915 157.534C194.234 159.152 195.873 162.839 192.265 169.411Z" fill="#FAFAFA"/>
<path d="M161.593 74.8888H146.632V74.4949L161.921 54.35C163.299 52.5785 163.824 51.4631 163.824 50.2816C163.824 48.247 162.249 47 160.084 47H139.02C137.051 47 135.542 48.3128 135.542 50.3477C135.542 52.5125 137.051 53.7592 139.02 53.7592H153.128V54.1529L137.642 74.2325C136.264 76.0042 135.739 76.9886 135.739 78.3667C135.739 80.2697 137.248 81.6477 139.414 81.6477H161.593C163.562 81.6477 165.005 80.4007 165.005 78.2354C165.005 76.2011 163.562 74.8888 161.593 74.8888ZM192.303 99.9554H181.738V99.6928L192.631 85.4535C193.877 83.8131 194.403 82.7632 194.403 81.5819C194.403 79.6789 192.893 78.4977 190.859 78.4977H174.783C172.945 78.4977 171.567 79.7447 171.567 81.6477C171.567 83.7476 172.945 84.9285 174.783 84.9285H184.298V85.1911L173.47 99.4305C172.224 101.005 171.764 101.99 171.764 103.368C171.764 105.139 173.142 106.452 175.176 106.452H192.303C194.206 106.452 195.518 105.205 195.518 103.236C195.518 101.268 194.206 99.9554 192.303 99.9554ZM163.365 122.397H154.375V122.135L163.627 109.864C164.808 108.223 165.333 107.305 165.333 106.189C165.333 104.352 163.89 103.236 161.987 103.236H147.813C146.041 103.236 144.729 104.417 144.729 106.255C144.729 108.223 146.041 109.339 147.813 109.339H155.687V109.601L146.566 121.807C145.385 123.382 144.926 124.3 144.926 125.547C144.926 127.253 146.238 128.566 148.141 128.566H163.365C165.136 128.566 166.383 127.319 166.383 125.416C166.383 123.644 165.136 122.397 163.365 122.397Z" fill="#FAFAFA"/>
</svg>
