<svg width="256" height="256" viewBox="0 0 256 256" fill="none" xmlns="http://www.w3.org/2000/svg">
<path fill-rule="evenodd" clip-rule="evenodd" d="M100.027 1.32176C101.421 1.33661 102.754 1.15896 104.025 0.788843C120.733 -0.305617 137.439 -0.261225 154.144 0.922073C169.291 2.10225 183.953 5.38862 198.131 10.7811C221.702 20.4851 237.831 37.3166 246.517 61.2754C251.484 75.7002 254.417 90.5333 255.314 105.774C256.556 124.913 256.112 144.01 253.981 163.063C252.387 176.456 248.921 189.335 243.584 201.7C233.686 223.14 217.647 237.928 195.465 246.066C177.491 252.139 159.007 255.337 140.015 255.658C118.652 256.769 97.5026 255.171 76.5669 250.862C38.0322 242.278 14.2614 218.785 5.25472 180.383C1.43259 163.097 -0.300228 145.599 0.0562535 127.891C-0.370314 109.061 1.6291 90.4971 6.05448 72.2003C15.4963 36.2947 38.2895 14.0452 74.4342 5.4519C82.8566 3.39283 91.3874 2.01611 100.027 1.32176Z" fill="#4B92D6"/>
<path d="M173.564 156.487C176.454 161.475 181.376 161.88 184.372 156.487L201.493 126.017C204.275 121.164 203.205 115.231 198.283 115.231H187.582C182.339 77.8857 158.262 52 127.765 52C114.389 52 101.013 57.9324 91.7033 67.6396C86.5674 72.628 85.3899 79.6385 89.1351 84.6269C92.7735 89.75 97.6962 88.9412 101.976 84.8967C109.681 77.3467 117.385 73.3016 127.765 73.3016C149.06 73.3016 166.822 91.5027 171.531 115.231H159.546C154.624 115.231 153.447 121.164 156.229 126.017L173.564 156.487ZM56.819 139.769H68.0551C73.2983 177.114 97.3747 203 127.979 203C141.248 203 154.731 197.203 164.04 187.496C169.07 182.373 170.247 175.362 166.609 170.374C162.863 165.25 157.941 166.194 153.768 170.104C146.063 177.654 138.359 181.833 127.979 181.833C106.578 181.833 88.8142 163.632 84.1061 139.769H95.4489C100.478 139.769 101.548 133.837 98.8732 128.983L81.4306 98.6484C78.6487 93.5253 73.6192 93.2555 70.6233 98.6484L53.5021 128.983C50.7198 133.837 51.79 139.769 56.819 139.769Z" fill="#FAFAFA"/>
</svg>
