<svg xmlns="http://www.w3.org/2000/svg" xmlns:xlink="http://www.w3.org/1999/xlink" xml:space="preserve" width="24" height="24" viewBox="0 0 6.35 6.35"><defs><clipPath id="j" clipPathUnits="userSpaceOnUse"><path d="M5.273 12.059h.219c.098 0 .176.082.176.179v.727a.176.176 0 0 1-.176.176h-.219a.179.179 0 0 1-.179-.176v-.727c0-.097.082-.179.179-.179z"/></clipPath><clipPath id="a" clipPathUnits="userSpaceOnUse"><path d="M-97.54 25.423h11.346v22.691h-11.345z"/></clipPath><clipPath id="m" clipPathUnits="userSpaceOnUse"><path d="M6.09 12.059h.219c.097 0 .175.082.175.179v.727a.175.175 0 0 1-.175.176H6.09a.177.177 0 0 1-.18-.176v-.727c0-.097.078-.179.18-.179z"/></clipPath><clipPath id="c" clipPathUnits="userSpaceOnUse"><path d="M-106.797 25.423h22.691v22.691h-22.69Z"/></clipPath><clipPath id="p" clipPathUnits="userSpaceOnUse"><path d="M6.906 12.059h.219c.098 0 .176.082.176.179v.727a.176.176 0 0 1-.176.176h-.219a.176.176 0 0 1-.179-.176v-.727c0-.097.078-.179.179-.179z"/></clipPath><clipPath id="d" clipPathUnits="userSpaceOnUse"><path d="M-104.709 25.423h22.691v22.691h-22.69Z"/></clipPath><clipPath id="s" clipPathUnits="userSpaceOnUse"><path d="M7.719 12.059h.222c.098 0 .176.082.176.179v.727a.176.176 0 0 1-.176.176h-.222a.176.176 0 0 1-.176-.176v-.727c0-.097.078-.179.176-.179z"/></clipPath><clipPath id="e" clipPathUnits="userSpaceOnUse"><path d="M-102.62 25.423h22.69v22.691h-22.69Z"/></clipPath><clipPath id="v" clipPathUnits="userSpaceOnUse"><path d="M8.492 12.059a.13.13 0 0 1 .129.132v.817a.132.132 0 0 1-.129.133.132.132 0 0 1-.133-.133v-.817c0-.074.059-.132.133-.132z"/></clipPath><clipPath id="f" clipPathUnits="userSpaceOnUse"><path d="M-105.318 25.423h24.693v22.691h-24.693z"/></clipPath><linearGradient id="b" x1="-91.306" x2="-91.306" y1="36.522" y2="26.407" gradientUnits="userSpaceOnUse" spreadMethod="pad"><stop offset="0" style="stop-opacity:1;stop-color:#fff"/><stop offset="1" style="stop-opacity:0;stop-color:#fff"/></linearGradient><linearGradient id="g" x1="-91.306" x2="-91.306" y1="36.522" y2="26.407" gradientUnits="userSpaceOnUse" spreadMethod="pad"><stop offset="0" style="stop-opacity:1;stop-color:#fff355"/><stop offset="1" style="stop-opacity:1;stop-color:#a49a00"/></linearGradient><linearGradient xlink:href="#g" id="x" x1="-91.306" x2="-91.306" y1="36.522" y2="26.407" gradientUnits="userSpaceOnUse" spreadMethod="pad"/><linearGradient xlink:href="#g" id="l" x1="-91.306" x2="-91.306" y1="36.522" y2="26.407" gradientUnits="userSpaceOnUse" spreadMethod="pad"/><linearGradient xlink:href="#g" id="o" x1="-91.306" x2="-91.306" y1="36.522" y2="26.407" gradientUnits="userSpaceOnUse" spreadMethod="pad"/><linearGradient xlink:href="#g" id="r" x1="-91.306" x2="-91.306" y1="36.522" y2="26.407" gradientUnits="userSpaceOnUse" spreadMethod="pad"/><linearGradient xlink:href="#g" id="u" x1="-91.306" x2="-91.306" y1="36.522" y2="26.407" gradientUnits="userSpaceOnUse" spreadMethod="pad"/><mask id="k" width="1" height="1" x="0" y="0" maskUnits="userSpaceOnUse"><g clip-path="url(#a)"><path d="M-97.54 25.423h11.346v22.691h-11.345z" style="fill:url(#b);stroke:none"/></g></mask><mask id="n" width="1" height="1" x="0" y="0" maskUnits="userSpaceOnUse"><g clip-path="url(#c)"><path d="M-106.797 25.423h22.691v22.691h-22.69Z" style="fill:url(#b);stroke:none"/></g></mask><mask id="q" width="1" height="1" x="0" y="0" maskUnits="userSpaceOnUse"><g clip-path="url(#d)"><path d="M-104.709 25.423h22.691v22.691h-22.69Z" style="fill:url(#b);stroke:none"/></g></mask><mask id="t" width="1" height="1" x="0" y="0" maskUnits="userSpaceOnUse"><g clip-path="url(#e)"><path d="M-102.62 25.423h22.69v22.691h-22.69Z" style="fill:url(#b);stroke:none"/></g></mask><mask id="w" width="1" height="1" x="0" y="0" maskUnits="userSpaceOnUse"><g clip-path="url(#f)"><path d="M-105.318 25.423h24.693v22.691h-24.693z" style="fill:url(#b);stroke:none"/></g></mask><radialGradient id="h" cx="0" cy="0" r="1" gradientTransform="matrix(0 22 -22 0 2.883 -3.503)" gradientUnits="userSpaceOnUse"><stop offset="0" stop-color="#9BDF6C" style="stop-color:#a4a4a4;stop-opacity:1"/><stop offset="1" stop-color="#204705" style="stop-color:#626262;stop-opacity:1"/></radialGradient><radialGradient id="i" cx="0" cy="0" r="1" gradientTransform="rotate(90 1.455 1.72) scale(5.82072)" gradientUnits="userSpaceOnUse"><stop offset="0" stop-color="#9BDF6C" style="stop-color:#bddc95;stop-opacity:1"/><stop offset="1" stop-color="#204705" style="stop-color:#73b72f;stop-opacity:1"/></radialGradient></defs><path fill="url(#h)" fill-rule="evenodd" d="M2.539.295a.312.312 0 0 0 .09-.012c.38-.025.76-.024 1.14.003.345.026.678.101 1 .224.536.22.903.603 1.1 1.148.114.328.18.665.2 1.012.029.435.019.869-.03 1.302a3.143 3.143 0 0 1-.236.879 1.87 1.87 0 0 1-1.094 1.008c-.409.139-.83.211-1.26.219a5.669 5.669 0 0 1-1.444-.11C1.13 5.773.59 5.24.385 4.366a5.04 5.04 0 0 1-.12-1.194c-.009-.428.037-.85.137-1.266C.617 1.09 1.135.584 1.957.39c.192-.047.385-.079.582-.094z" clip-rule="evenodd" style="fill:url(#i);stroke-width:.24253"/><path d="M2.766 5.421V4.057h-.683l1.092-1.092 1.091 1.092h-.682V5.42Z" style="fill:#fff;fill-opacity:1;fill-rule:nonzero;stroke:none;stroke-width:.352771"/><path d="M2.602 1.492a.332.332 0 1 0 0-.663.332.332 0 0 0 0 .663zM3.77 1.492a.33.33 0 0 0 .33-.332.331.331 0 1 0-.662 0c0 .184.149.332.332.332z" style="fill:#73b72f;fill-opacity:1;fill-rule:nonzero;stroke:none;stroke-width:.352771"/><path d="M10.684 3.383v.883a1.663 1.663 0 0 1-.496 1.164 1.662 1.662 0 0 1-1.168.472 1.661 1.661 0 0 1-1.172-.472 1.655 1.655 0 0 1-.493-1.164v-.883" style="fill:none;stroke:#fff;stroke-width:.6875;stroke-linecap:round;stroke-linejoin:round;stroke-miterlimit:4;stroke-dasharray:none;stroke-opacity:1" transform="scale(.35277)"/><g clip-path="url(#j)" style="fill:none" transform="translate(21.522 2.162) scale(.35277)"><g mask="url(#k)" transform="translate(13.597 9.76) scale(.08814)"><path d="M5.273 12.059h.219c.098 0 .176.082.176.179v.727a.176.176 0 0 1-.176.176h-.219a.179.179 0 0 1-.179-.176v-.727c0-.097.082-.179.179-.179z" style="fill:url(#l);stroke:none"/></g></g><g clip-path="url(#m)" style="fill:none" transform="translate(21.522 2.162) scale(.35277)"><g mask="url(#n)" transform="translate(14.413 9.76) scale(.08814)"><path d="M6.09 12.059h.219c.097 0 .175.082.175.179v.727a.175.175 0 0 1-.175.176H6.09a.177.177 0 0 1-.18-.176v-.727c0-.097.078-.179.18-.179z" style="fill:url(#o);stroke:none"/></g></g><g clip-path="url(#p)" style="fill:none" transform="translate(21.522 2.162) scale(.35277)"><g mask="url(#q)" transform="translate(15.23 9.76) scale(.08814)"><path d="M6.906 12.059h.219c.098 0 .176.082.176.179v.727a.176.176 0 0 1-.176.176h-.219a.176.176 0 0 1-.179-.176v-.727c0-.097.078-.179.179-.179z" style="fill:url(#r);stroke:none"/></g></g><g clip-path="url(#s)" style="fill:none" transform="translate(21.522 2.162) scale(.35277)"><g mask="url(#t)" transform="translate(16.045 9.76) scale(.08814)"><path d="M7.719 12.059h.222c.098 0 .176.082.176.179v.727a.176.176 0 0 1-.176.176h-.222a.176.176 0 0 1-.176-.176v-.727c0-.097.078-.179.176-.179z" style="fill:url(#u);stroke:none"/></g></g><g clip-path="url(#v)" style="fill:none" transform="translate(21.522 2.162) scale(.35277)"><g mask="url(#w)" transform="matrix(.0405 0 0 .08814 12.265 9.76)"><path d="M8.492 12.059a.13.13 0 0 1 .129.132v.817a.132.132 0 0 1-.129.133.132.132 0 0 1-.133-.133v-.817c0-.074.059-.132.133-.132z" style="fill:url(#x);stroke:none"/></g></g></svg>