<svg xmlns="http://www.w3.org/2000/svg" xml:space="preserve" width="24" height="24" viewBox="0 0 6.35 6.35"><defs><clipPath id="b" clipPathUnits="userSpaceOnUse"><path d="M0 0h19v19H0Z"/></clipPath><clipPath id="c" clipPathUnits="userSpaceOnUse"><path d="M0 0h19v19H0Z"/></clipPath><radialGradient id="a" cx="0" cy="0" r="1" fx="0" fy="0" gradientTransform="rotate(90 9.63 9.895) scale(5.82072)" gradientUnits="userSpaceOnUse" spreadMethod="pad"><stop offset="0" style="stop-opacity:1;stop-color:#9cc8fc"/><stop offset="1" style="stop-opacity:1;stop-color:#549bff"/></radialGradient></defs><path d="M18.888.295a.335.335 0 0 0 .091-.012c.38-.025.76-.024 1.14.002a3.62 3.62 0 0 1 1 .225c.536.22.903.603 1.101 1.148.112.328.18.665.2 1.011.028.436.018.87-.03 1.304a3.166 3.166 0 0 1-.237.878c-.225.487-.59.824-1.094 1.008a4.125 4.125 0 0 1-1.262.218 5.644 5.644 0 0 1-1.442-.109c-.875-.194-1.417-.729-1.62-1.602a5.025 5.025 0 0 1-.12-1.194 4.89 4.89 0 0 1 .137-1.266c.215-.816.733-1.322 1.555-1.517.191-.047.386-.079.581-.094z" style="fill:url(#a);fill-rule:evenodd;stroke:none;stroke-width:.352771" transform="translate(-16.35)"/><path d="M9.07.75c-.539 0-1.078.016-1.617.051a.951.951 0 0 1-.258.035 10.27 10.27 0 0 0-1.648.266c-2.328.554-3.797 1.988-4.406 4.3a13.969 13.969 0 0 0-.336 2.043 12.03 12.03 0 0 0 10.945 7.086 12.058 12.058 0 0 0 4.793-1.019 8.974 8.974 0 0 0 .578-2.25c.137-1.231.164-2.461.086-3.696a10.762 10.762 0 0 0-.566-2.867c-.563-1.543-1.602-2.629-3.121-3.254a10.26 10.26 0 0 0-2.836-.636A24.175 24.175 0 0 0 9.07.75Z" clip-path="url(#b)" opacity=".1" style="fill:#00f;fill-opacity:1;fill-rule:nonzero;stroke:none" transform="scale(.35277)"/><path d="M9.07.75c-.539 0-1.078.016-1.617.051a.951.951 0 0 1-.258.035 10.27 10.27 0 0 0-1.648.266c-2.328.554-3.797 1.988-4.406 4.3a13.982 13.982 0 0 0-.387 3.59c-.024 1.141.09 2.27.336 3.383.578 2.477 2.113 3.992 4.594 4.543 1.164.238 2.336.348 3.519.328a13.735 13.735 0 0 0 8.004-6.996c.059-.891.059-1.785 0-2.684a10.762 10.762 0 0 0-.566-2.867c-.563-1.543-1.602-2.629-3.121-3.254a10.26 10.26 0 0 0-2.836-.636A24.175 24.175 0 0 0 9.07.75Z" clip-path="url(#c)" opacity=".1" style="fill:#00f;fill-opacity:1;fill-rule:nonzero;stroke:none" transform="scale(.35277)"/><path d="M19.116 2.965V4.33h-.683l1.092 1.091 1.091-1.091h-.682V2.965Z" style="fill:#fff;fill-opacity:1;fill-rule:nonzero;stroke:none;stroke-width:.352771" transform="translate(-16.35)"/><path d="M18.952 1.492a.332.332 0 1 0 0-.663.332.332 0 0 0 0 .663zM20.12 1.492a.33.33 0 0 0 .33-.332.331.331 0 1 0-.662 0c0 .184.149.332.332.332z" style="fill:#457eff;fill-opacity:1;fill-rule:nonzero;stroke:none;stroke-width:.352771" transform="translate(-16.35)"/><path d="M20.119 1.193v.312a.586.586 0 0 1-1.174 0v-.312" style="fill:none;stroke:#fff;stroke-width:.24253;stroke-linecap:round;stroke-linejoin:round;stroke-miterlimit:4;stroke-dasharray:none;stroke-opacity:1" transform="translate(-16.35)"/></svg>