<svg width="256" height="256" viewBox="0 0 256 256" fill="none" xmlns="http://www.w3.org/2000/svg">
<path fill-rule="evenodd" clip-rule="evenodd" d="M100.027 1.32176C101.421 1.33661 102.754 1.15896 104.025 0.788843C120.733 -0.305617 137.439 -0.261225 154.144 0.922073C169.291 2.10225 183.953 5.38862 198.131 10.7811C221.702 20.4851 237.831 37.3166 246.517 61.2754C251.484 75.7002 254.417 90.5333 255.314 105.774C256.556 124.913 256.112 144.01 253.981 163.063C252.387 176.456 248.921 189.335 243.584 201.7C233.686 223.14 217.647 237.928 195.465 246.066C177.491 252.139 159.007 255.337 140.015 255.658C118.652 256.769 97.5026 255.171 76.5669 250.862C38.0322 242.278 14.2614 218.785 5.25472 180.383C1.43259 163.097 -0.300228 145.599 0.0562535 127.891C-0.370314 109.061 1.6291 90.4971 6.05448 72.2003C15.4963 36.2947 38.2895 14.0452 74.4342 5.4519C82.8566 3.39283 91.3874 2.01611 100.027 1.32176Z" fill="#63A436"/>
<path d="M52 117.437V137.572H127.513V117.419" fill="white"/>
<path d="M54.5326 147.631C58.9761 163.537 68.4952 177.555 81.6407 187.552C94.7862 197.549 110.838 202.976 127.353 203.009C168.784 203.009 203.009 169.212 203.009 127.496C203.009 85.7973 168.766 52 127.353 52C110.84 52.0313 94.7903 57.4565 81.6451 67.4498C68.4999 77.4431 58.9794 91.4574 54.5326 107.36H74.0262C78.238 96.6363 85.5731 87.4247 95.0811 80.9185C104.589 74.4124 115.832 70.9115 127.353 70.8694C159.135 70.8694 184.603 96.2486 184.603 127.496C184.603 158.725 159.117 184.122 127.353 184.122C115.766 184.202 104.429 180.754 94.8498 174.236C85.2701 167.718 77.9013 158.439 73.723 147.631" fill="white"/>
</svg>
