<svg width="256" height="256" viewBox="0 0 256 256" fill="none" xmlns="http://www.w3.org/2000/svg">
<path fill-rule="evenodd" clip-rule="evenodd" d="M100.027 1.32176C101.421 1.33661 102.754 1.15896 104.025 0.788843C120.733 -0.305617 137.439 -0.261225 154.144 0.922073C169.291 2.10225 183.953 5.38862 198.131 10.7811C221.702 20.4851 237.831 37.3166 246.517 61.2754C251.484 75.7003 254.417 90.5333 255.314 105.774C256.556 124.913 256.112 144.01 253.981 163.063C252.387 176.456 248.921 189.335 243.584 201.7C233.686 223.14 217.647 237.928 195.465 246.066C177.491 252.139 159.007 255.337 140.015 255.658C118.652 256.769 97.5026 255.171 76.5669 250.862C38.0322 242.278 14.2614 218.785 5.25472 180.383C1.43259 163.097 -0.300228 145.599 0.0562535 127.891C-0.370314 109.061 1.6291 90.4971 6.05448 72.2003C15.4963 36.2947 38.2895 14.0452 74.4342 5.4519C82.8566 3.39283 91.3874 2.01611 100.027 1.32176Z" fill="#77CB75"/>
<path d="M52 186.222V68.7778C52 59.5117 59.5117 52 68.7778 52H162.495C166.945 52 171.212 53.7676 174.359 56.9141L198.086 80.6414C201.232 83.7879 203 88.0554 203 92.5052V186.222C203 195.489 195.489 203 186.222 203H68.7778C59.5117 203 52 195.489 52 186.222Z" stroke="#FAFAFA" stroke-width="12.6998"/>
<path d="M98.9778 102.333H156.022C158.802 102.333 161.056 100.08 161.056 97.3V57.0333C161.056 54.2535 158.802 52 156.022 52H98.9778C96.198 52 93.9444 54.2535 93.9444 57.0333V97.3C93.9444 100.08 96.198 102.333 98.9778 102.333Z" stroke="#FAFAFA" stroke-width="12.6998"/>
<path d="M77.1667 140.922V203H177.833V140.922C177.833 138.142 175.58 135.889 172.8 135.889H82.2C79.4202 135.889 77.1667 138.142 77.1667 140.922Z" stroke="#FAFAFA" stroke-width="12.6998"/>
</svg>
