<svg xmlns="http://www.w3.org/2000/svg" width="24" height="24" viewBox="0 0 6.35 6.35"><defs><radialGradient id="a" cx="0" cy="0" r="1" gradientTransform="rotate(90 1.455 1.72) scale(2.91036)" gradientUnits="userSpaceOnUse"><stop stop-color="#FAFAFA"/><stop offset="1" stop-color="#D0D0D0"/></radialGradient></defs><path fill="url(#a)" fill-rule="evenodd" d="M2.539.295a.312.312 0 0 0 .09-.012c.38-.025.76-.024 1.14.003.345.026.678.101 1 .224.536.22.903.603 1.1 1.148.114.328.18.665.2 1.012.029.435.019.869-.03 1.302a3.143 3.143 0 0 1-.236.879 1.87 1.87 0 0 1-1.094 1.008c-.409.139-.829.211-1.26.219a5.668 5.668 0 0 1-1.444-.11C1.13 5.773.59 5.24.385 4.366a5.04 5.04 0 0 1-.12-1.194c-.009-.428.037-.85.137-1.266C.617 1.09 1.135.584 1.957.39c.192-.047.385-.079.582-.094Z" clip-rule="evenodd" style="fill:url(#a);stroke-width:.264578"/><g transform="translate(8.131 .823) scale(.27778)"><rect width="14.287" height="14.287" x="-15.61" y="10.848" fill="#f9f9f9" rx="7.144" ry="7.144" style="paint-order:markers stroke fill" transform="matrix(0 -1 -1 0 0 0)"/><rect width="11.642" height="11.642" x="-14.28" y="12.17" fill="#4d8dd8" rx="5.821" ry="5.821" transform="matrix(0 -1 -1 0 0 0)"/><rect width="8.467" height="8.467" x="-12.7" y="13.758" fill="#fff" opacity=".25" rx="4.233" ry="4.233" transform="matrix(0 -1 -1 0 0 0)"/><rect width="5.292" height="5.292" x="-11.11" y="15.345" fill="#fff" opacity=".25" rx="2.646" ry="2.646" transform="matrix(0 -1 -1 0 0 0)"/><path fill="#fff" d="M-18.784 7.09a1.584 1.584 0 0 0-.58 2.169 1.584 1.584 0 0 0 2.168.58 1.58 1.58 0 0 0 .794-1.375l5.454-3.148c.38-.22.51-.703.29-1.084a.792.792 0 0 0-1.084-.29l-5.453 3.146a1.584 1.584 0 0 0-1.589.001z"/></g></svg>