<svg xmlns="http://www.w3.org/2000/svg" width="24" height="24"><defs><radialGradient id="a" cx="0" cy="0" r="1" gradientTransform="matrix(0 22 -22 0 -28 1)" gradientUnits="userSpaceOnUse"><stop stop-color="#FAFAFA"/><stop offset="1" stop-color="#B0B0B0"/></radialGradient><radialGradient id="b" cx="0" cy="0" r="1" gradientTransform="matrix(0 22 -22 0 12 1)" gradientUnits="userSpaceOnUse"><stop offset="0" stop-color="#FAFAFA" style="stop-color:#fff;stop-opacity:1"/><stop offset=".79" stop-color="#B0B0B0" style="stop-color:#8c8c8c;stop-opacity:.34999999"/></radialGradient></defs><path d="M12.094 1a31.673 31.673 0 0 0-2.155.068c-.109.032-.223.047-.343.045-.743.06-1.476.179-2.2.356-1.83.435-3.257 1.28-4.29 2.529L14.75 22.082l6.59-17.5c-.791-1.185-1.894-2.072-3.313-2.656a13.541 13.541 0 0 0-3.78-.846A31.65 31.65 0 0 0 12.093 1Z" style="fill:#33d17a;fill-opacity:1;stroke-width:.597666"/><path d="M3.53 3.53c-.943.946-1.615 2.17-2.01 3.675a18.472 18.472 0 0 0-.516 4.785c-.03 1.522.119 3.026.447 4.512.67 2.858 2.296 4.753 4.87 5.69l13.077-.85a6.813 6.813 0 0 0 1.454-1.293L12 12.002Z" style="fill:#5799e9;fill-opacity:1;stroke-width:.597666"/><path d="M20.473 3.525 17.5 6.502l1.832 3.666 3.66 1.83c.002-.636-.01-1.272-.05-1.908a14.269 14.269 0 0 0-.756-3.824c-.393-1.084-.966-1.996-1.713-2.74Z" style="fill:#837f8a;fill-opacity:1;stroke-width:.597666"/><path fill="#f8db51" d="m12 12 5.5-5.5L23 12l-4.584 8.251Z" style="stroke-width:.916462;paint-order:normal"/><path d="m6.5 17.5-2.963 2.963c1.025 1.024 2.372 1.723 4.043 2.096 1.463.3 2.937.444 4.424.437L17.5 17.5Z" style="fill:#f65960;fill-opacity:1;stroke-width:1"/><path d="M22.992 12.008 12.004 22.996c.342-.002.686-.007 1.03-.025a15.614 15.614 0 0 0 4.763-.825c1.906-.699 3.286-1.97 4.137-3.812.458-1.063.755-2.17.892-3.32.112-1 .162-2.003.166-3.006z" style="fill:#b78860;fill-opacity:1;stroke-width:1"/><path fill="#ff9536" d="M17.5 17.5h-11L12 12z" style="stroke-width:.597666"/><path fill="url(#a)" fill-rule="evenodd" d="M9.94 1.068c-.11.032-.224.047-.344.046-.742.06-1.476.178-2.2.355-3.106.738-5.064 2.65-5.876 5.736a18.49 18.49 0 0 0-.515 4.786c-.03 1.522.118 3.025.447 4.51.774 3.3 2.816 5.32 6.128 6.058 1.8.37 3.617.507 5.452.412a15.624 15.624 0 0 0 4.766-.825c1.906-.7 3.284-1.97 4.135-3.812a11.88 11.88 0 0 0 .893-3.32c.184-1.638.222-3.28.115-4.924a14.269 14.269 0 0 0-.756-3.824c-.746-2.06-2.133-3.506-4.158-4.34a13.536 13.536 0 0 0-3.78-.847 31.637 31.637 0 0 0-4.307-.011z" clip-rule="evenodd" style="opacity:.35;mix-blend-mode:normal;fill:url(#b);stroke-width:1"/></svg>