<svg xmlns="http://www.w3.org/2000/svg" width="24" height="24"><defs><radialGradient id="a" cx="0" cy="0" r="1" gradientTransform="matrix(0 11 -11 0 12 1)" gradientUnits="userSpaceOnUse"><stop stop-color="#777"/><stop offset="1" stop-color="#444"/></radialGradient></defs><path fill="url(#a)" fill-rule="evenodd" d="M9.596 1.114c.12 0 .234-.014.344-.046a31.627 31.627 0 0 1 4.307.011c1.301.102 2.561.384 3.78.847 2.025.834 3.412 2.28 4.158 4.34.427 1.24.679 2.514.756 3.824a27.941 27.941 0 0 1-.115 4.923 11.88 11.88 0 0 1-.893 3.32c-.85 1.843-2.229 3.114-4.135 3.813a15.624 15.624 0 0 1-4.766.825 21.423 21.423 0 0 1-5.452-.413c-3.312-.737-5.354-2.756-6.128-6.056a19.047 19.047 0 0 1-.447-4.511 18.491 18.491 0 0 1 .515-4.786c.812-3.086 2.77-4.998 5.877-5.736a13.953 13.953 0 0 1 2.199-.355z" clip-rule="evenodd" style="fill:url(#a);stroke-width:1"/><circle cx="12" cy="12" r="7" fill="#a663e5" style="stroke-width:.388911;paint-order:normal"/><path fill="#e5baf4" d="M9.3 6.207A6.392 6.392 0 0 0 5.607 12h2.74a3.652 3.652 0 0 1 2.11-3.307ZM15.651 12a3.652 3.652 0 0 1-2.11 3.307l1.159 2.486A6.392 6.392 0 0 0 18.39 12z" style="stroke-width:.388911;paint-order:normal"/><circle cx="12" cy="12" r="2.333" fill="#313131" style="stroke-width:.388911;paint-order:normal"/><circle cx="12" cy="12" r=".778" fill="#f9f9f9" style="stroke-width:.388911;paint-order:normal"/></svg>