<svg xmlns="http://www.w3.org/2000/svg" width="24" height="24" fill="none"><defs><radialGradient id="a" cx="0" cy="0" r="1" gradientTransform="matrix(0 22 -22 0 12 1)" gradientUnits="userSpaceOnUse"><stop offset="0" stop-color="#8FC8FF" style="stop-color:#f6f6f6;stop-opacity:1"/><stop offset="1" stop-color="#0056A8" style="stop-color:#cfcfcf;stop-opacity:1"/></radialGradient><linearGradient id="b" x2="0" y1="28" y2="20" gradientTransform="matrix(3.41162 0 0 3.41162 -49.879 -49.879)" gradientUnits="userSpaceOnUse"><stop offset="0" stop-color="#5c431c" style="stop-color:#010100;stop-opacity:1"/><stop offset="1" stop-color="#6b4e21"/></linearGradient></defs><path d="M50 5C9.09 5 5 25.455 5 50c0 32.727 12.273 45 45 45 32.727 0 45-12.273 45-45 0-24.545-4.09-45-45-45Z" style="font-variation-settings:normal;display:inline;opacity:1;vector-effect:none;fill:#ffe511;fill-opacity:1;stroke-width:4.56656;stroke-linecap:butt;stroke-linejoin:miter;stroke-miterlimit:4;stroke-dasharray:none;stroke-dashoffset:0;stroke-opacity:1;-inkscape-stroke:none;stop-color:#000;stop-opacity:1" transform="matrix(.24444 0 0 .24444 -.222 -.222)"/><path fill="url(#b)" d="M-15.763 18.354V32h13.647V18.354ZM-2.116 32v13.646H11.53V32Zm13.646 0h13.647V18.354H11.53Zm13.647 0v13.646h13.646V32Zm13.646 0H52.47V18.354H38.823Zm13.647 0v13.646h13.646V32Zm13.646 0h13.647V18.354H66.116Z" style="fill:#000;stroke-width:2.27442;fill-opacity:1" transform="matrix(.1675 0 0 .1675 6.64 6.64)"/></svg>