<svg xmlns="http://www.w3.org/2000/svg" xml:space="preserve" width="24" height="24"><defs><radialGradient id="a" cx="0" cy="0" r="1" gradientTransform="matrix(0 22 -22 0 12 1)" gradientUnits="userSpaceOnUse"><stop stop-color="#78BDFF"/><stop offset="1" stop-color="#1A5084"/></radialGradient></defs><path fill="url(#a)" fill-rule="evenodd" d="M9.596 1.114c.12 0 .234-.014.344-.046a31.627 31.627 0 0 1 4.307.011c1.301.102 2.561.384 3.78.848 2.026.833 3.412 2.28 4.158 4.339.427 1.24.679 2.514.756 3.824a27.935 27.935 0 0 1-.115 4.923 11.882 11.882 0 0 1-.893 3.32c-.85 1.843-2.229 3.114-4.135 3.813a15.626 15.626 0 0 1-4.765.825 21.425 21.425 0 0 1-5.453-.413c-3.312-.737-5.354-2.756-6.128-6.056a19.046 19.046 0 0 1-.447-4.511 18.49 18.49 0 0 1 .515-4.786c.812-3.086 2.77-4.998 5.877-5.736a13.953 13.953 0 0 1 2.199-.355Z" clip-rule="evenodd" style="fill:url(#a);stroke-width:.916667"/><rect width="16" height="16" x="4" y="4" fill="#3384ba" rx="8" style="stroke-width:.4"/><path fill="#ebf3fc" d="M12 4.31A7.685 7.685 0 0 0 4.31 12c0 4.25 3.439 7.69 7.69 7.69s7.69-3.44 7.69-7.69S16.25 4.31 12 4.31zm-1.775 5.324v1.183h3.55V9.634l2.112 1.183L17.915 12l-2.028 1.183-2.112 1.183v-1.183h-3.55v1.183l-2.112-1.183L6.085 12l2.028-1.183Z" style="stroke-width:.591516"/></svg>