<svg xmlns="http://www.w3.org/2000/svg" width="24" height="24" fill="none"><path fill="url(#a)" fill-rule="evenodd" d="M9.596 1.114c.12 0 .234-.014.344-.046a31.627 31.627 0 0 1 4.307.011c1.301.102 2.561.384 3.78.848 2.025.833 3.412 2.28 4.158 4.339.427 1.24.679 2.514.756 3.824a27.94 27.94 0 0 1-.114 4.923 11.88 11.88 0 0 1-.894 3.32c-.85 1.843-2.229 3.114-4.135 3.813a15.624 15.624 0 0 1-4.765.825 21.423 21.423 0 0 1-5.453-.413c-3.312-.737-5.354-2.756-6.128-6.056a19.047 19.047 0 0 1-.447-4.511 18.491 18.491 0 0 1 .515-4.786c.812-3.086 2.77-4.998 5.877-5.736a13.953 13.953 0 0 1 2.199-.355Z" clip-rule="evenodd"/><path fill="#fafafa" d="M10.07 10.044H6.487a.251.251 0 0 0-.256.246c0 .136.115.246.256.246h3.583c.142 0 .256-.11.256-.246a.251.251 0 0 0-.256-.246zM4.955 5.585a.265.265 0 0 0-.146.024.252.252 0 0 0-.14.188.236.236 0 0 0 .05.182c.021.026.047.047.076.063l2.75 1.524-2.75 1.524a.253.253 0 0 0-.12.15.236.236 0 0 0 .026.186.262.262 0 0 0 .35.09l3.103-1.72a.246.246 0 0 0 .09-.089.234.234 0 0 0 .033-.12c.002-.007.001-.014.002-.02 0-.008 0-.014-.002-.022a.234.234 0 0 0-.032-.12.246.246 0 0 0-.09-.088L5.051 5.616a.265.265 0 0 0-.097-.03z" style="stroke-width:.385895"/><defs><radialGradient id="a" cx="0" cy="0" r="1" gradientTransform="matrix(0 22 -22 0 12 1)" gradientUnits="userSpaceOnUse"><stop stop-color="#555"/><stop offset="1" stop-color="#222"/></radialGradient></defs><path fill="#fafafa" d="M20.07 10.044h-3.583a.251.251 0 0 0-.256.246c0 .136.115.246.256.246h3.583c.142 0 .256-.11.256-.246a.251.251 0 0 0-.256-.246zM14.955 5.585a.265.265 0 0 0-.146.024.252.252 0 0 0-.14.188.234.234 0 0 0 .05.182c.021.026.047.047.076.063l2.75 1.524-2.75 1.524a.253.253 0 0 0-.12.15.237.237 0 0 0 .026.186.262.262 0 0 0 .35.09l3.103-1.72a.246.246 0 0 0 .09-.089.234.234 0 0 0 .033-.12c.002-.007.001-.014.002-.02 0-.008 0-.014-.002-.022a.234.234 0 0 0-.032-.12.246.246 0 0 0-.09-.088l-3.103-1.721a.265.265 0 0 0-.097-.03z" style="stroke-width:.385895"/></svg>