<svg xmlns="http://www.w3.org/2000/svg" xmlns:xlink="http://www.w3.org/1999/xlink" xml:space="preserve" id="svg154" width="24" height="24" fill="none" version="1.1"><defs id="defs152"><linearGradient id="linearGradient488"><stop id="stop484" offset="0" style="stop-color:#32355f;stop-opacity:1"/><stop id="stop486" offset="1" style="stop-color:#636487;stop-opacity:1"/></linearGradient><linearGradient id="linearGradient29319"><stop id="stop29317" offset="0" style="stop-color:#d2d8db;stop-opacity:1"/></linearGradient><linearGradient id="fffff"><stop id="stop28389" offset="0" style="stop-color:#fff;stop-opacity:1"/></linearGradient><linearGradient xlink:href="#linearGradient488" id="linearGradient490" x1="52.978" x2="50.989" y1="96.007" y2="9.226" gradientTransform="matrix(.24444 0 0 .24444 -.222 -.222)" gradientUnits="userSpaceOnUse"/><linearGradient id="linearGradient8792"><stop id="stop8790" offset="0" style="stop-color:#000;stop-opacity:1"/></linearGradient><style id="current-color-scheme" type="text/css">.ColorScheme-Text{color:#31363b}.ColorScheme-Background{color:#eff0f1}.ColorScheme-Highlight{color:#3daee9}.ColorScheme-ViewText{color:#31363b}.ColorScheme-ViewBackground{color:#fcfcfc}.ColorScheme-ViewHover{color:#93cee9}.ColorScheme-ViewFocus{color:#3daee9}.ColorScheme-ButtonText{color:#31363b}.ColorScheme-ButtonBackground{color:#eff0f1}.ColorScheme-ButtonHover{color:#93cee9}.ColorScheme-ButtonFocus{color:#3daee9}</style></defs><path id="path6" d="M12 1C2 1 1 6 1 12c0 8 3 11 11 11s11-3 11-11c0-6-1-11-11-11Z" style="font-variation-settings:normal;display:inline;opacity:1;vector-effect:none;fill:url(#linearGradient490);fill-opacity:1;stroke-width:1.11627;stroke-linecap:butt;stroke-linejoin:miter;stroke-miterlimit:4;stroke-dasharray:none;stroke-dashoffset:0;stroke-opacity:1;-inkscape-stroke:none;stop-color:#000;stop-opacity:1"/><path id="path21580" fill="#fff" d="M10.338 5.335c-2.315 0-4.174 1.792-4.43 4.043-.944.85-1.52 2.044-1.523 3.331a1.202 1.202 0 0 0 0 .003c0 2.487 2.04 4.528 4.527 4.528a1.202 1.202 0 0 0 .012 0c.018 0 .037-.005.056-.005.845.889 2.007 1.429 3.255 1.43a1.202 1.202 0 0 0 .005 0c1.288-.002 2.484-.579 3.334-1.524 2.25-.256 4.041-2.114 4.04-4.428 0-1.022-.403-1.972-1.03-2.766-.21-2.297-2.098-4.136-4.446-4.136a1.202 1.202 0 0 0-.007 0c-.495.002-.976.115-1.44.275-.695-.432-1.461-.726-2.287-.739a1.202 1.202 0 0 0-.018-.01v.007c-.016 0-.032-.01-.048-.01zm0 1.202a3.325 3.325 0 0 1 2.243.873 3.325 3.325 0 0 1 1.557-.397 3.325 3.325 0 0 1 3.324 3.324 3.325 3.325 0 0 1-.002.046 3.325 3.325 0 0 1 .953 2.33 3.325 3.325 0 0 1-3.325 3.325 3.325 3.325 0 0 1-.123-.009 3.325 3.325 0 0 1-2.728 1.434 3.325 3.325 0 0 1-2.76-1.479 3.325 3.325 0 0 1-.564.054 3.325 3.325 0 0 1-3.326-3.326 3.325 3.325 0 0 1 1.434-2.726 3.325 3.325 0 0 1-.01-.123 3.325 3.325 0 0 1 3.326-3.326Zm-.455 3.627a.4.4 0 0 0-.103.02.4.4 0 0 0-.23.204.4.4 0 0 0 .186.536l.918.446-.918.445a.4.4 0 0 0-.185.536.4.4 0 0 0 .535.185l1.66-.806a.4.4 0 0 0 0-.721l-1.66-.806a.4.4 0 0 0-.203-.04zm2.177 2.755a.4.4 0 0 0-.32.134.4.4 0 0 0 .032.566s.146.125.367.222c.222.097.544.186.96.186.415 0 .737-.09.958-.186.222-.097.368-.222.368-.222a.4.4 0 0 0 .033-.566.4.4 0 0 0-.566-.033s-.026.029-.155.085a1.57 1.57 0 0 1-.638.12c-.3 0-.508-.063-.638-.12a.55.55 0 0 1-.156-.085.4.4 0 0 0-.245-.1Z" color="#000" style="stroke-width:.400787;-inkscape-stroke:none"/></svg>