<svg xmlns="http://www.w3.org/2000/svg" width="24" height="24" viewBox="0 0 6.35 6.35"><defs><radialGradient id="a" cx="0" cy="0" r="1" fx="0" fy="0" gradientTransform="matrix(0 16.5 -16.5 0 9 .75)" gradientUnits="userSpaceOnUse" spreadMethod="pad"><stop offset="0" style="stop-opacity:1;stop-color:#fafafa"/><stop offset="1" style="stop-opacity:1;stop-color:silver"/></radialGradient></defs><path d="M7.195.836c.09 0 .176-.012.258-.035a23.86 23.86 0 0 1 3.231.008 10.26 10.26 0 0 1 2.836.636c1.519.625 2.558 1.711 3.121 3.254.316.93.507 1.887.566 2.867a21.227 21.227 0 0 1-.086 3.696 8.976 8.976 0 0 1-.672 2.488c-.637 1.383-1.672 2.336-3.101 2.859a11.693 11.693 0 0 1-3.575.618 15.998 15.998 0 0 1-4.089-.309c-2.481-.551-4.016-2.066-4.594-4.543a14.244 14.244 0 0 1-.336-3.383c-.027-1.211.101-2.41.387-3.59.609-2.312 2.078-3.746 4.406-4.3A10.27 10.27 0 0 1 7.195.836Z" style="fill:url(#a);fill-rule:evenodd;stroke:none" transform="scale(.35277)"/><path fill="#fff" d="m4.978 2.31.281.282a.199.199 0 0 1 0 .28L3.575 4.556l-.701.14.14-.701L4.698 2.31a.198.198 0 0 1 .28 0z" opacity=".9" style="stroke-width:.250001;paint-order:stroke fill markers"/><path fill="#32a3d7" d="M2.014 1.455a.396.396 0 0 0-.397.397v2.646c0 .22.177.397.397.397h2.381c.22 0 .397-.177.397-.397V3.339L3.575 4.556l-.701.14.14-.701L4.698 2.31a.197.197 0 0 1 .094-.052v-.407a.396.396 0 0 0-.397-.397z" opacity=".9" style="stroke-width:.250001;paint-order:stroke fill markers" transform="translate(-.03)"/><path fill="#fff" d="M2.345 1.72v.264h-.463v.067h.463v.138h.066V2.05h2.116v-.067H2.411V1.72Zm.062.581v.466h-.062v.143h-.463v.067h.463v.397h-.463v.066h.463v.397h-.463v.066h.463V4.3h-.463v.066h.463v.264h.066v-.264h.529l.013-.066h-.542v-.397h.695l.066-.066h-.761V3.44h1.158l.066-.066H2.411v-.397h1.621L4.1 2.91H2.41v-.396h.265v-.067H2.41v-.146Zm-.525.146v.067h.375v-.067zm1.181 0v.067h.27l.028-.042-.017-.025zm.494 0-.017.025.029.042h.926l.032-.032v-.035zm.738 1.39-.066.066h.298v-.066zm-.463.463-.066.066h.761V4.3z" opacity=".1" style="stroke-width:.0661453;paint-order:stroke fill markers" transform="translate(-.03)"/><path fill="#fff" stroke-linecap="round" stroke-linejoin="round" stroke-width=".529" d="M3.38 4.52h2.133v.452h-.767v1.863h-.597V4.972H3.38Zm2.442 0h1.61v.452H6.42v.43h.953v.452H6.42v.53h1.048v.451H5.822ZM9.28 5.654l.804 1.181h-.622l-.541-.79-.537.79H7.76l.803-1.181L7.79 4.52h.623l.507.745.505-.745h.627z" aria-label="TEX" opacity=".35" style="paint-order:stroke fill markers" transform="matrix(.25 0 0 .25 1.19 1.058)"/></svg>