<svg xmlns="http://www.w3.org/2000/svg" xml:space="preserve" width="24" height="24"><defs><radialGradient id="a" cx="0" cy="0" r="1" fx="0" fy="0" gradientTransform="matrix(0 16.5 -16.5 0 9 .75)" gradientUnits="userSpaceOnUse" spreadMethod="pad"><stop offset="0" style="stop-opacity:1;stop-color:#fafafa"/><stop offset="1" style="stop-opacity:1;stop-color:silver"/></radialGradient></defs><path d="M7.195.836c.09 0 .176-.012.258-.035a23.86 23.86 0 0 1 3.231.008 10.26 10.26 0 0 1 2.836.636c1.519.625 2.558 1.711 3.121 3.254.316.93.507 1.887.566 2.867a21.227 21.227 0 0 1-.086 3.696 8.976 8.976 0 0 1-.672 2.488c-.637 1.383-1.672 2.336-3.101 2.859a11.693 11.693 0 0 1-3.575.618 15.998 15.998 0 0 1-4.089-.309c-2.481-.551-4.016-2.066-4.594-4.543a14.244 14.244 0 0 1-.336-3.383c-.027-1.211.101-2.41.387-3.59.609-2.312 2.078-3.746 4.406-4.3A10.27 10.27 0 0 1 7.195.836Z" style="fill:url(#a);fill-rule:evenodd;stroke:none" transform="matrix(1.33333 0 0 1.33333 0 0)"/><path d="M7.742 4.5c0 2.679 1.072 4.286 3.215 5.893l.07.046h-.173a13.976 13.976 0 0 0 .01.008H6.08v.518c0 1.146.922 2.07 2.068 2.07h.518v-1.553h1.55a.517.517 0 1 1 0 1.036H9.7v.517h1.83l-3.252 3.25c-.351.35-.534.843-.535 1.34A1.873 1.873 0 0 0 9.617 19.5c.497 0 .99-.183 1.34-.535l6.428-6.43c.351-.35.534-.841.535-1.338a1.873 1.873 0 0 0-1.875-1.875c-.326 0-.65.08-.934.235l-1.847-1.26z" style="stroke-width:1;stroke:#000;stroke-opacity:1;stroke-dasharray:none;paint-order:stroke markers fill;stroke-linejoin:round;stroke-linecap:round;opacity:.2"/><path fill="#e6e6e6" d="M6.08 10.448v.518c0 1.146.922 2.068 2.068 2.068h.518v-1.551h1.551a.516.516 0 1 1 0 1.034H9.7v.517h5.69a1.29 1.29 0 0 0 1.293-1.293 1.29 1.29 0 0 0-.84-1.212l.064-.08z" style="stroke-width:.258621"/><path d="M10.854 10.44a13.976 13.976 0 0 0 .67.535l3.097 2.045.516.02.965-2.601z" opacity=".1" style="stroke-width:.258621"/><path fill="#f9f9f9" d="M7.742 4.5c0 2.679 1.072 4.286 3.214 5.893l.101.066c.04.035.083.067.128.098l3.263 2.228a1.516 1.516 0 0 0 2.112-.398 1.516 1.516 0 0 0-.247-1.993v-.001l-.009-.007a1.548 1.548 0 0 0-.142-.11l-2.899-1.98Z" style="stroke-width:.258621"/><path fill="#e74b52" d="M16.046 9.321c-.497.001-.99.184-1.34.536l-6.428 6.429c-.352.35-.535.842-.536 1.339A1.873 1.873 0 0 0 9.617 19.5c.497 0 .989-.184 1.34-.536l6.428-6.428c.352-.35.535-.843.536-1.34a1.873 1.873 0 0 0-1.875-1.875z" style="stroke-width:.258621"/><path fill="#f9f9f9" d="m9.885 15.75-.268.268.402.402-.268.267-.402-.401-.268.268.402.401-.402.402.268.268.402-.402.268.268-.402.402.268.268.402-.402.401.402.268-.268-.402-.402.268-.268.402.402.268-.268-.402-.402.402-.401-.268-.268-.402.401-.268-.267.402-.402-.268-.268-.402.402zm.402.937.267.268-.267.268-.268-.268z" style="stroke-width:.258621"/><path fill="#878787" d="M9.35 6.14v.536l3.214 2.21V8.35Z" style="stroke-width:.258621"/></svg>