<svg xmlns="http://www.w3.org/2000/svg" width="24" height="24" viewBox="0 0 6.35 6.35"><defs><radialGradient id="a" cx="0" cy="0" r="1" fx="0" fy="0" gradientTransform="rotate(90 1.455 1.72) scale(5.82072)" gradientUnits="userSpaceOnUse" spreadMethod="pad"><stop offset="0" style="stop-color:#c9dcf1;stop-opacity:1"/><stop offset="1" style="stop-color:#5494de;stop-opacity:1"/></radialGradient></defs><path d="M2.538.295A.335.335 0 0 0 2.63.283c.38-.025.76-.024 1.14.002a3.62 3.62 0 0 1 1 .225c.536.22.903.603 1.101 1.148.112.328.18.665.2 1.011.028.436.018.87-.03 1.304a3.166 3.166 0 0 1-.237.878c-.225.487-.59.824-1.094 1.008a4.125 4.125 0 0 1-1.261.218 5.643 5.643 0 0 1-1.443-.109C1.13 5.774.588 5.24.385 4.366a5.025 5.025 0 0 1-.12-1.194c-.009-.427.036-.85.137-1.266C.617 1.09 1.135.584 1.957.389c.191-.047.386-.079.581-.094Z" style="fill:url(#a);fill-rule:evenodd;stroke:none;stroke-width:.352683;stroke-dasharray:none"/><g transform="translate(.667 -82.31) scale(.29628)"><circle cx="8.466" cy="288.53" r="7.144" fill="#5da3ee" style="paint-order:stroke markers fill"/><path fill="#3e74b7" d="M2.646 288.533a5.82 5.82 0 0 0 1.337 3.704h.706a5.292 5.292 0 0 0 3.778 1.588 5.292 5.292 0 0 0 3.772-1.588h.714a5.82 5.82 0 0 0 1.335-3.704 5.82 5.82 0 0 0-5.821-5.82 5.82 5.82 0 0 0-5.821 5.82z" paint-order="stroke markers fill"/><path fill="#fff" d="M8.4 287.626h1.675l-1.968 2.83.758.08-1.897 1.622.89-.47c.145.018.459.03.607.03a3.177 3.177 0 0 0 3.177-3.178c-.008-1.12-.58-2.271-1.816-2.871l.073-.76zm-3.108.914a3.17 3.17 0 0 0 1.624 2.773l.145-1.687.458.547.818-1.64H6.652l1.434-3.145a3.175 3.175 0 0 0-2.794 3.152"/></g></svg>