<?xml version="1.0" encoding="UTF-8" standalone="no"?>
<svg
   xml:space="preserve"
   width="24"
   height="24"
   fill="none"
   version="1.1"
   id="svg21"
   sodipodi:docname="thunderbird-icon.svg"
   inkscape:export-filename="../../../../../../../../svg/thunderbird-icon.pdf"
   inkscape:export-xdpi="96"
   inkscape:export-ydpi="96"
   xmlns:inkscape="http://www.inkscape.org/namespaces/inkscape"
   xmlns:sodipodi="http://sodipodi.sourceforge.net/DTD/sodipodi-0.dtd"
   xmlns:xlink="http://www.w3.org/1999/xlink"
   xmlns="http://www.w3.org/2000/svg"
   xmlns:svg="http://www.w3.org/2000/svg"><sodipodi:namedview
     id="namedview21"
     pagecolor="#ffffff"
     bordercolor="#000000"
     borderopacity="0.25"
     inkscape:showpageshadow="2"
     inkscape:pageopacity="0.0"
     inkscape:pagecheckerboard="0"
     inkscape:deskcolor="#d1d1d1"><inkscape:page
       x="0"
       y="0"
       width="24"
       height="24"
       id="page11959"
       inkscape:export-filename="../../../../../../../../svg/thunderbird-3.0.svg"
       inkscape:export-xdpi="96"
       inkscape:export-ydpi="96"
       margin="0"
       bleed="0" /></sodipodi:namedview><defs
     id="defs21"><linearGradient
       id="linearGradient11962"
       inkscape:swatch="gradient"><stop
         style="stop-color:#000000;stop-opacity:1;"
         offset="0.14880952"
         id="stop11961" /><stop
         style="stop-color:#000000;stop-opacity:0;"
         offset="1"
         id="stop11962" /></linearGradient><radialGradient
       fx="0"
       fy="0"
       cx="0"
       cy="0"
       r="1"
       gradientUnits="userSpaceOnUse"
       gradientTransform="matrix(0,8.25,-8.25,0,9.022223,0.75)"
       spreadMethod="pad"
       id="radialGradient2"><stop
         style="stop-opacity:1;stop-color:#5e5e66"
         offset="0"
         id="stop1-6" /><stop
         style="stop-opacity:1;stop-color:#1b1b1b"
         offset="1"
         id="stop2-2" /></radialGradient><linearGradient
       x1="146.185"
       y1="155.649"
       x2="639.58502"
       y2="615.86902"
       gradientUnits="userSpaceOnUse"
       gradientTransform="matrix(0.0172693,0,0,0.0172693,2.529019,2.51763)"
       spreadMethod="pad"
       id="linearGradient4"><stop
         style="stop-opacity:1;stop-color:#1b91f3"
         offset="0"
         id="stop3-9" /><stop
         style="stop-opacity:1;stop-color:#0b68cb"
         offset="1"
         id="stop4-1" /></linearGradient><clipPath
       clipPathUnits="userSpaceOnUse"
       id="clipPath5"><path
         d="M 2.527,2.52 H 19 V 15.469 H 2.527 Z"
         transform="scale(1.3333333)"
         id="path5-2" /></clipPath><radialGradient
       fx="0"
       fy="0"
       cx="0"
       cy="0"
       r="1"
       gradientUnits="userSpaceOnUse"
       gradientTransform="matrix(2.036567,4.687744,-4.490689,1.950958,5.037816,7.940191)"
       spreadMethod="pad"
       id="radialGradient10"><stop
         style="stop-opacity:0;stop-color:#0b4186"
         offset="0"
         id="stop8-7" /><stop
         style="stop-opacity:0;stop-color:#0b4186"
         offset="0.53"
         id="stop9-0" /><stop
         style="stop-opacity:0.45000381;stop-color:#0b4186"
         offset="1"
         id="stop10-9" /></radialGradient><clipPath
       clipPathUnits="userSpaceOnUse"
       id="clipPath10"><path
         d="M 0,0 H 19 V 19 H 0 Z"
         id="path10-3" /></clipPath><clipPath
       clipPathUnits="userSpaceOnUse"
       id="clipPath12"><path
         d="M 2.527,7 H 16 v 8 H 2.527 Z"
         transform="scale(1.3333333)"
         id="path12-6" /></clipPath><radialGradient
       fx="0"
       fy="0"
       cx="0"
       cy="0"
       r="1"
       gradientUnits="userSpaceOnUse"
       gradientTransform="matrix(-0.672646,-0.861041,1.42483,-1.113079,9.155336,5.84109)"
       spreadMethod="pad"
       id="radialGradient15"><stop
         style="stop-opacity:0;stop-color:#ef3acc"
         offset="0"
         id="stop14-0" /><stop
         style="stop-opacity:0.64000916;stop-color:#ef3acc"
         offset="1"
         id="stop15-6" /></radialGradient><clipPath
       clipPathUnits="userSpaceOnUse"
       id="clipPath15"><path
         d="M 0,0 H 19 V 19 H 0 Z"
         id="path15" /></clipPath><clipPath
       clipPathUnits="userSpaceOnUse"
       id="clipPath16"><path
         d="M 2.527,2.52 H 19 V 15.469 H 2.527 Z"
         transform="scale(1.3333333)"
         id="path16" /></clipPath><clipPath
       clipPathUnits="userSpaceOnUse"
       id="clipPath18"><path
         d="M 2.527,2.52 H 19 V 15.469 H 2.527 Z"
         transform="scale(1.3333333)"
         id="path18" /></clipPath><linearGradient
       x1="283.47501"
       y1="273.45801"
       x2="461.01501"
       y2="75.818398"
       gradientUnits="userSpaceOnUse"
       gradientTransform="matrix(0.0172693,0,0,0.0172693,2.529019,2.51763)"
       spreadMethod="pad"
       id="linearGradient21"><stop
         style="stop-opacity:1;stop-color:#0f5db0"
         offset="0"
         id="stop20-2" /><stop
         style="stop-opacity:0;stop-color:#0f5db0"
         offset="1"
         id="stop21-6" /></linearGradient><clipPath
       clipPathUnits="userSpaceOnUse"
       id="clipPath21"><path
         d="M 0,0 H 19 V 19 H 0 Z"
         id="path21-1" /></clipPath><clipPath
       clipPathUnits="userSpaceOnUse"
       id="clipPath23"><path
         d="M 2.527,2.52 H 19 V 15.469 H 2.527 Z"
         transform="scale(1.3333333)"
         id="path23" /></clipPath><radialGradient
       fx="0"
       fy="0"
       cx="0"
       cy="0"
       r="1"
       gradientUnits="userSpaceOnUse"
       gradientTransform="matrix(3.4625,-7.182478,8.872472,4.277206,6.720365,12.035605)"
       spreadMethod="pad"
       id="radialGradient30"><stop
         style="stop-opacity:1;stop-color:#094188"
         offset="0"
         id="stop27-8" /><stop
         style="stop-opacity:1;stop-color:#094188"
         offset="0.02"
         id="stop28-7" /><stop
         style="stop-opacity:0;stop-color:#0b4186"
         offset="0.97"
         id="stop29-9" /><stop
         style="stop-opacity:0;stop-color:#0b4186"
         offset="1"
         id="stop30-2" /></radialGradient><clipPath
       clipPathUnits="userSpaceOnUse"
       id="clipPath30"><path
         d="M 0,0 H 19 V 19 H 0 Z"
         id="path30" /></clipPath><clipPath
       clipPathUnits="userSpaceOnUse"
       id="clipPath32"><path
         d="M 2.527,2.52 H 19 V 15.469 H 2.527 Z"
         transform="scale(1.3333333)"
         id="path32" /></clipPath><linearGradient
       x1="594.625"
       y1="416.55899"
       x2="512.07501"
       y2="619.24902"
       gradientUnits="userSpaceOnUse"
       gradientTransform="matrix(0.0172693,0,0,0.0172693,2.529019,2.51763)"
       spreadMethod="pad"
       id="linearGradient35"><stop
         style="stop-opacity:0;stop-color:#e247c4"
         offset="0"
         id="stop34-0" /><stop
         style="stop-opacity:0.64000916;stop-color:#e247c4"
         offset="1"
         id="stop35" /></linearGradient><clipPath
       clipPathUnits="userSpaceOnUse"
       id="clipPath35"><path
         d="M 0,0 H 19 V 19 H 0 Z"
         id="path35" /></clipPath><clipPath
       clipPathUnits="userSpaceOnUse"
       id="clipPath36"><path
         d="M 2.527,2.52 H 19 V 15.469 H 2.527 Z"
         transform="scale(1.3333333)"
         id="path36" /></clipPath><clipPath
       clipPathUnits="userSpaceOnUse"
       id="clipPath38"><path
         d="M 2.527,2.52 H 19 V 15.469 H 2.527 Z"
         transform="scale(1.3333333)"
         id="path38" /></clipPath><linearGradient
       x1="82.7155"
       y1="234.78999"
       x2="155.44501"
       y2="527.51001"
       gradientUnits="userSpaceOnUse"
       gradientTransform="matrix(0.0172693,0,0,0.0172693,2.529019,2.51763)"
       spreadMethod="pad"
       id="linearGradient43"><stop
         style="stop-opacity:1;stop-color:#ef3acc"
         offset="0"
         id="stop41" /><stop
         style="stop-opacity:1;stop-color:#ef3acc"
         offset="0.1"
         id="stop42" /><stop
         style="stop-opacity:0;stop-color:#ef3acc"
         offset="1"
         id="stop43" /></linearGradient><clipPath
       clipPathUnits="userSpaceOnUse"
       id="clipPath43"><path
         d="M 0,0 H 19 V 19 H 0 Z"
         id="path43" /></clipPath><clipPath
       clipPathUnits="userSpaceOnUse"
       id="clipPath44"><path
         d="M 2.527,2.52 H 19 V 15.469 H 2.527 Z"
         transform="scale(1.3333333)"
         id="path44" /></clipPath><clipPath
       clipPathUnits="userSpaceOnUse"
       id="clipPath46"><path
         d="M 2.527,2.52 H 19 V 15.469 H 2.527 Z"
         transform="scale(1.3333333)"
         id="path46" /></clipPath><linearGradient
       x1="374.70499"
       y1="273.95001"
       x2="374.70499"
       y2="569.94897"
       gradientUnits="userSpaceOnUse"
       gradientTransform="matrix(0.0172693,0,0,0.0172693,2.529019,2.51763)"
       spreadMethod="pad"
       id="linearGradient48"><stop
         style="stop-opacity:1;stop-color:#ffffff"
         offset="0"
         id="stop46" /><stop
         style="stop-opacity:1;stop-color:#bee1fe"
         offset="0.91"
         id="stop47" /><stop
         style="stop-opacity:1;stop-color:#96cefd"
         offset="1"
         id="stop48" /></linearGradient><clipPath
       clipPathUnits="userSpaceOnUse"
       id="clipPath49"><path
         d="M 2.527,2.52 H 19 V 15.469 H 2.527 Z"
         transform="scale(1.3333333)"
         id="path49" /></clipPath><clipPath
       clipPathUnits="userSpaceOnUse"
       id="clipPath50"><path
         d="M 0,0 H 19 V 19 H 0 Z"
         id="path50" /></clipPath><clipPath
       clipPathUnits="userSpaceOnUse"
       id="clipPath52"><path
         d="M 2.527,2.52 H 19 V 15.469 H 2.527 Z"
         transform="scale(1.3333333)"
         id="path52" /></clipPath><clipPath
       clipPathUnits="userSpaceOnUse"
       id="clipPath53"><path
         d="M 0,0 H 19 V 19 H 0 Z"
         id="path53" /></clipPath><clipPath
       clipPathUnits="userSpaceOnUse"
       id="clipPath55"><path
         d="M 2.527,2.52 H 19 V 15.469 H 2.527 Z"
         transform="scale(1.3333333)"
         id="path55" /></clipPath><linearGradient
       inkscape:collect="always"
       xlink:href="#linearGradient4"
       id="linearGradient1"
       gradientUnits="userSpaceOnUse"
       gradientTransform="matrix(0.0172693,0,0,0.0172693,2.529019,2.51763)"
       x1="146.185"
       y1="155.649"
       x2="639.58502"
       y2="615.86902"
       spreadMethod="pad" /><linearGradient
       inkscape:collect="always"
       xlink:href="#linearGradient21"
       id="linearGradient2"
       gradientUnits="userSpaceOnUse"
       gradientTransform="matrix(0.0172693,0,0,0.0172693,2.529019,2.51763)"
       x1="283.47501"
       y1="273.45801"
       x2="461.01501"
       y2="75.818398"
       spreadMethod="pad" /><linearGradient
       inkscape:collect="always"
       xlink:href="#linearGradient35"
       id="linearGradient3"
       gradientUnits="userSpaceOnUse"
       gradientTransform="matrix(0.0172693,0,0,0.0172693,2.529019,2.51763)"
       x1="594.625"
       y1="416.55899"
       x2="512.07501"
       y2="619.24902"
       spreadMethod="pad" /><linearGradient
       inkscape:collect="always"
       xlink:href="#linearGradient43"
       id="linearGradient5"
       gradientUnits="userSpaceOnUse"
       gradientTransform="matrix(0.0172693,0,0,0.0172693,2.529019,2.51763)"
       x1="82.7155"
       y1="234.78999"
       x2="155.44501"
       y2="527.51001"
       spreadMethod="pad" /><linearGradient
       inkscape:collect="always"
       xlink:href="#linearGradient48"
       id="linearGradient6"
       gradientUnits="userSpaceOnUse"
       gradientTransform="matrix(0.0172693,0,0,0.0172693,2.529019,2.51763)"
       x1="374.70499"
       y1="273.95001"
       x2="374.70499"
       y2="569.94897"
       spreadMethod="pad" /></defs><g
     id="g1"
     inkscape:groupmode="layer"
     inkscape:label="1"><path
       id="path2-2"
       d="m 7.219,0.836 c 0.09,0 0.176,-0.012 0.258,-0.035 1.074,-0.071 2.152,-0.067 3.23,0.008 0.969,0.078 1.926,0.289 2.836,0.636 1.519,0.625 2.555,1.711 3.121,3.254 0.313,0.93 0.508,1.887 0.566,2.867 0.079,1.231 0.047,2.469 -0.085,3.696 -0.106,0.859 -0.333,1.695 -0.672,2.488 -0.641,1.383 -1.676,2.336 -3.102,2.859 C 12.211,17 11.023,17.207 9.793,17.227 8.426,17.301 7.051,17.195 5.707,16.918 3.227,16.367 1.691,14.852 1.113,12.375 0.867,11.266 0.754,10.129 0.777,8.992 0.746,7.785 0.879,6.578 1.164,5.402 1.773,3.09 3.242,1.656 5.57,1.102 6.109,0.969 6.66,0.879 7.219,0.836 Z"
       transform="scale(1.3333333)"
       style="fill:url(#radialGradient2);fill-rule:evenodd;stroke:none" /><g
       id="g4"
       clip-path="url(#clipPath5)"><path
         d="m 7.965,5.195 c 0.383,-1.332 2.039,-1.98 3.73,-1.98 1.168,0 2.219,0.367 2.938,0.957 -0.43,0.019 -0.856,0.101 -1.258,0.246 0.582,0.219 1.078,0.551 1.449,0.961 -0.281,-0.047 -0.562,-0.07 -0.844,-0.063 0.696,1.004 1.067,2.204 1.063,3.426 0,3.34 -2.703,6.043 -6.043,6.043 -3.285,0 -6.043,-2.75 -6.043,-6.043 C 2.957,8.223 3.023,7.684 3.16,7.184 3.195,7.078 3.242,6.977 3.309,6.938 3.391,6.891 3.465,7.031 3.477,7.074 3.562,7.406 3.684,7.727 3.832,8.035 3.816,7.348 4.113,6.719 4.52,6.176 4.789,5.812 5.039,5.477 5.156,4.508 5.164,4.441 5.227,4.395 5.289,4.414 6.168,4.703 6.637,6.168 6.566,7.395 7.051,7.465 7.047,6.957 7.047,6.957 6.895,6.477 6.996,5.59 7.965,5.195 Z"
         transform="scale(1.3333333)"
         style="fill:url(#linearGradient1);stroke:none"
         id="path4-3" /></g><g
       opacity="0.9"
       id="g11"
       clip-path="url(#clipPath12)"><path
         d="m 14.848,7.203 c 0.144,3.324 -2.586,6.192 -5.918,6.192 -3.121,0 -5.676,-2.415 -5.91,-5.473 -0.04,0.285 -0.063,0.574 -0.063,0.863 0.023,3.277 2.773,6 6.043,6 3.34,0 6.043,-2.703 6.043,-6.043 0,-0.531 -0.066,-1.047 -0.195,-1.539 z"
         transform="scale(1.3333333)"
         style="fill:url(#radialGradient10);stroke:none"
         opacity="1"
         clip-path="url(#clipPath10)"
         id="path11-7" /></g><g
       id="g18"
       clip-path="url(#clipPath18)"><g
         clip-path="url(#clipPath16)"
         id="g17"><path
           d="M 8.852,5.633 C 8.789,5.52 8.488,5.348 8.355,5.32 c 0.497,-1.593 3.032,-2.082 4.583,-1.8 0.644,0.117 1.449,0.468 1.695,0.652 -0.719,-0.59 -1.77,-0.957 -2.938,-0.957 -1.691,0 -3.347,0.648 -3.73,1.98 C 6.996,5.59 6.895,6.48 7.047,6.957 7.199,6.387 7.906,5.688 8.852,5.633 Z"
           transform="scale(1.3333333)"
           style="fill:url(#radialGradient15);stroke:none"
           opacity="1"
           clip-path="url(#clipPath15)"
           id="path17" /></g></g><g
       id="g22"
       clip-path="url(#clipPath23)"><path
         d="M 10.609,4.535 C 9.25,4.801 8.809,4.887 8.352,5.32 8.863,3.969 10.168,3.695 11.719,4.312 11.348,4.387 10.98,4.461 10.609,4.535 Z"
         transform="scale(1.3333333)"
         style="fill:url(#linearGradient2);stroke:none"
         opacity="1"
         clip-path="url(#clipPath21)"
         id="path22" /></g><g
       id="g31"
       clip-path="url(#clipPath32)"><path
         d="M 3.285,6.996 C 2.914,8.516 3.199,10.301 4.883,11.797 4.383,11.25 3.77,9.223 5.121,7.777 5.215,7.68 5.371,7.75 5.375,7.883 5.484,10.891 7.914,12.73 10.711,12.387 9.844,12.336 6.977,11.332 9.109,10.934 10.223,10.727 11.973,10.402 11.973,8.832 11.973,6.293 10.008,5.547 8.812,5.66 8,5.734 7.273,6.25 7.051,6.957 7.137,7.234 6.793,7.43 6.566,7.395 6.637,6.168 6.168,4.703 5.289,4.414 5.227,4.395 5.164,4.441 5.156,4.508 5.039,5.477 4.789,5.812 4.52,6.176 4.113,6.719 3.816,7.348 3.832,8.035 3.684,7.727 3.562,7.406 3.477,7.074 3.465,7.039 3.41,6.934 3.348,6.93 3.312,6.926 3.293,6.961 3.285,6.996 Z"
         transform="scale(1.3333333)"
         style="fill:url(#radialGradient30);stroke:none"
         opacity="1"
         clip-path="url(#clipPath30)"
         id="path31" /></g><g
       id="g38"
       clip-path="url(#clipPath38)"><g
         clip-path="url(#clipPath36)"
         id="g37"><path
           d="m 8.359,11.09 c 1.645,1.332 4.942,0.332 4.942,-2.906 -1.332,2.019 -3.028,3.41 -4.942,2.906 z"
           transform="scale(1.3333333)"
           style="fill:url(#linearGradient3);stroke:none"
           opacity="1"
           clip-path="url(#clipPath35)"
           id="path37" /></g></g><g
       id="g46"
       clip-path="url(#clipPath46)"><g
         clip-path="url(#clipPath44)"
         id="g45"><path
           d="M 5.121,7.777 C 5.137,7.762 5.156,7.746 5.176,7.738 5.199,7.73 5.219,7.73 5.242,7.734 4.031,9.207 5.008,11.801 5.68,12.438 5.715,12.543 5.043,11.992 4.949,11.863 4.441,11.43 3.711,9.289 5.121,7.777 Z"
           transform="scale(1.3333333)"
           style="fill:url(#linearGradient5);stroke:none"
           opacity="1"
           clip-path="url(#clipPath43)"
           id="path45" /></g></g><g
       id="g48"
       clip-path="url(#clipPath49)"><path
         d="m 9,11.211 c 1.641,0 2.973,-1.086 2.973,-2.426 0,-1.34 -1.332,-2.426 -2.973,-2.426 -1.402,0 -2.973,0.914 -2.973,2.461 0,2.395 2.532,3.774 4.688,3.567 C 10.551,12.367 9.543,12.312 8.859,11.539 8.797,11.469 8.691,11.348 8.738,11.27 8.789,11.191 8.922,11.211 9,11.211 Z"
         transform="scale(1.3333333)"
         style="fill:url(#linearGradient6);stroke:none"
         id="path48" /></g><g
       opacity="0.6"
       id="g51"
       clip-path="url(#clipPath52)"
       style="opacity:1;fill:#aaccff;stroke:none"
       transform="translate(0,0.17058843)"><path
         d="M 11.648,7.684 9.301,9.934 C 9.09,10.078 8.867,10.09 8.648,9.957 L 6.348,7.691 C 6.41,7.586 6.484,7.484 6.566,7.391 l 0.243,0.226 c 0.605,0.567 1.093,1.028 1.785,1.613 0.308,0.266 0.406,0.262 0.711,0 0.789,-0.671 1.367,-1.179 2.117,-1.851 0.082,0.094 0.16,0.199 0.226,0.305 z"
         style="fill:#aaccff;fill-opacity:1;fill-rule:nonzero;stroke:none"
         transform="scale(1.3333333)"
         clip-path="url(#clipPath50)"
         id="path51" /></g><g
       id="g54"
       clip-path="url(#clipPath55)"><path
         d="M 9.418,5.148 C 9.734,5.047 9.707,4.73 9.707,4.73 c 0,0 -0.16,-0.187 -0.473,-0.082 -0.296,0.098 -0.343,0.309 -0.343,0.309 0,0 0.164,0.305 0.527,0.191 z"
         style="fill:#ffffff;fill-opacity:1;fill-rule:nonzero;stroke:none"
         transform="scale(1.3333333)"
         clip-path="url(#clipPath53)"
         id="path54" /></g></g></svg>
