<svg xmlns="http://www.w3.org/2000/svg" width="24" height="24"><defs><radialGradient id="a" cx="0" cy="0" r="1" fx="0" fy="0" gradientTransform="matrix(0 22 -22 0 12 1)" gradientUnits="userSpaceOnUse" spreadMethod="pad"><stop offset="0" style="stop-opacity:1;stop-color:#ff9b68"/><stop offset="1" style="stop-color:#ff7f2a;stop-opacity:1"/></radialGradient></defs><path d="M9.593 1.115c.12 0 .235-.016.344-.047a31.814 31.814 0 0 1 4.308.01 13.68 13.68 0 0 1 3.781.849c2.026.833 3.41 2.281 4.162 4.338.42 1.24.676 2.516.754 3.823a28.303 28.303 0 0 1-.114 4.928 11.968 11.968 0 0 1-.896 3.317c-.85 1.844-2.23 3.115-4.135 3.812-1.543.522-3.13.798-4.767.824a21.33 21.33 0 0 1-5.452-.412c-3.308-.734-5.354-2.754-6.125-6.057a18.991 18.991 0 0 1-.448-4.51c-.036-1.62.135-3.214.516-4.787.812-3.083 2.77-4.995 5.875-5.734a13.692 13.692 0 0 1 2.197-.354z" style="fill:url(#a);fill-rule:evenodd;stroke:none;stroke-width:1.33333"/><path d="M12.092 1c-.345-.001-.688.005-1.033.016-.135.754-.603 1.942-1.125 2.851-.868 1.509-1.348 2.188-.674 2.469.674.281 1.815-1.942 2.271-3.174.266-.72.594-1.641.75-2.158-.063 0-.126-.004-.19-.004zm-5.057.566a9.698 9.698 0 0 0-.646.202c.16 1.556.478 2.416.959 2.566.142-.48.03-1.415-.313-2.768zM17.561 3.65c-.18.006-.369.02-.57.043-1.617.187-5.475 1.341-4.86 2.243.614.9 2.467-.453 4.467-.745 2-.292 4.196.62 4.715.385.517-.235-.024-.945-.956-1.3-.816-.312-1.544-.667-2.796-.626zm-14.217.075c-.3.326-.57.684-.81 1.072.537 1.244.702 2.247.478 2.992-.501 1.663-1.656 4.183.482 5.709 2.137 1.527 2.924 1.527 3.764 2.443.84.916 2.2 1.222 2.994.916.794-.305 2.838 0 2.838 0h.004c.06 0 .572-.017-.004-.304-.611-.305-2.659-.766-3.315-.766-.655 0-2.043-1.983-3.875-2.289-.836-.14-1.373-.422-1.709-.92 1.408-.176 2.495-.039 3.26.408 1.229.718 3.12 1.358 4.707 1.037 1.589-.321 2.166-1.772 3.71-3.15 1.542-1.378 3.687-2.431 3.343-3.266-.345-.833-1.351 0-2.05 0h-.079c-.906.001-5.237.022-6.664.68-1.473.68-2.34 2.076-2.967 1.445-.627-.63-.628-1.357-.486-1.74.142-.383-.342-.286-.342 0 0 .265-.345 1.469 0 2.21.02.043-.843.298-1.828.671-.45.17-.817.07-1.102-.3-.012-.27-.02-.54-.02-.811 0-2.443.684-2.943.243-4.46a13.883 13.883 0 0 0-.572-1.577zM22.81 15.123c-1.99 2.439-5.814 5.283-9.776 5.83-4.18.577-8.26-3.129-9.275-2.467-1.015.662 4.041 4.753 9.275 4.182 3.625-.395 6.583-1.865 8.395-3.41.183-.29.351-.598.502-.924.444-1.03.733-2.1.879-3.211z" style="fill:#592c0f;fill-rule:evenodd;stroke:none;stroke-width:1.33333;fill-opacity:1"/><path fill="#fff" d="M16.388 6.149a5.86 5.86 0 0 0-.756.057c-1.52.222-2.951 1.054-3.822 1.047-1.123.565-2.25 1.116-4.532.53-2.15-.553-3.633.312-4.408 1.103a10.633 10.633 0 0 0-.161 1.89c0 .291.005.561.018.812.285.37.653.47 1.103.3.986-.373 1.848-.628 1.828-.672-.345-.74 0-1.945 0-2.21 0-.286.484-.383.342 0-.142.383-.14 1.111.487 1.741.627.63 1.493-.765 2.966-1.445 1.427-.658 5.76-.679 6.666-.68h.077c.7 0 1.707-.833 2.051 0 .345.834-1.8 1.889-3.344 3.266-1.543 1.377-2.121 2.83-3.71 3.15-1.589.322-3.478-.32-4.707-1.038-.765-.447-1.852-.583-3.26-.407.336.498.873.78 1.709.92 1.832.306 3.218 2.288 3.875 2.288.656 0 2.703.46 3.314.766.38.19.282.257.158.284.376.01.913-.073 1.773-.331 2.802-.845 3.782-4.85 4.548-5.882.491-.661 1.39-1.2 2.688-1.62v-1.86a5.901 5.901 0 0 0-.17-1.39 6.691 6.691 0 0 0-.65-.263.387.387 0 0 1-.123.086c-.453.205-2.193-.467-3.96-.442Z" style="stroke-width:.440405"/><path fill="#91ed98" d="M9.274 11.706c-.208.39.007 2.076.652 2.295.646.22 2.043.47 2.679.228.635-.243 2.197-1.744 2.197-2.134 0-.389-.547-2.423-1.896-2.423-1.35 0-3.423 1.645-3.632 2.034z" style="stroke-width:.440405"/><circle cx="12" cy="12" r=".763" opacity=".65" style="stroke-width:.440405"/></svg>