<svg xmlns="http://www.w3.org/2000/svg" xml:space="preserve" width="24" height="24" viewBox="0 0 6.35 6.35"><defs><clipPath id="c" clipPathUnits="userSpaceOnUse"><path d="M0 0h49v49H0Z"/></clipPath><clipPath id="d" clipPathUnits="userSpaceOnUse"><path d="M0 0h49v49H0Z"/></clipPath><clipPath id="e" clipPathUnits="userSpaceOnUse"><path d="M0 0h49v49H0Z"/></clipPath><clipPath id="f" clipPathUnits="userSpaceOnUse"><path d="M0 0h49v49H0Z"/></clipPath><radialGradient id="a" cx="0" cy="0" r="1" fx="0" fy="0" gradientTransform="matrix(0 16.5 -16.5 0 9 .75)" gradientUnits="userSpaceOnUse" spreadMethod="pad"><stop offset="0" style="stop-opacity:1;stop-color:#fff"/><stop offset="1" style="stop-opacity:1;stop-color:#bebebe"/></radialGradient><radialGradient id="b" cx="0" cy="0" r="1" fx="0" fy="0" gradientTransform="matrix(0 8.25 -8.25 0 9 .75)" gradientUnits="userSpaceOnUse" spreadMethod="pad"><stop offset="0" style="stop-opacity:1;stop-color:#ff5151"/><stop offset="1" style="stop-opacity:1;stop-color:#cb4141"/></radialGradient></defs><path d="M7.195.836c.09 0 .176-.012.258-.035a23.86 23.86 0 0 1 3.231.008 10.26 10.26 0 0 1 2.836.636c1.519.625 2.558 1.711 3.121 3.254.316.93.507 1.887.566 2.867a21.227 21.227 0 0 1-.086 3.696 8.976 8.976 0 0 1-.672 2.488c-.637 1.383-1.672 2.336-3.101 2.859a11.693 11.693 0 0 1-3.575.618 15.998 15.998 0 0 1-4.089-.309c-2.481-.551-4.016-2.066-4.594-4.543a14.244 14.244 0 0 1-.336-3.383c-.027-1.211.101-2.41.387-3.59.609-2.312 2.078-3.746 4.406-4.3A10.27 10.27 0 0 1 7.195.836Z" style="fill:url(#a);fill-rule:evenodd;stroke:none" transform="scale(.35277)"/><path d="M7.195.836c.09 0 .176-.012.258-.035a23.86 23.86 0 0 1 3.231.008 10.26 10.26 0 0 1 2.836.636c1.519.625 2.558 1.711 3.121 3.254.316.93.507 1.887.566 2.867a21.227 21.227 0 0 1-.086 3.696 8.976 8.976 0 0 1-.672 2.488c-.637 1.383-1.672 2.336-3.101 2.859a11.693 11.693 0 0 1-3.575.618 15.998 15.998 0 0 1-4.089-.309c-2.481-.551-4.016-2.066-4.594-4.543a14.244 14.244 0 0 1-.336-3.383c-.027-1.211.101-2.41.387-3.59.609-2.312 2.078-3.746 4.406-4.3A10.27 10.27 0 0 1 7.195.836Z" style="fill:url(#b);fill-rule:evenodd;stroke:none" transform="scale(.35277)"/><g clip-path="url(#c)" opacity=".15" transform="scale(.35277)"><path d="M14.984 9A5.984 5.984 0 1 1 3.016 9a5.984 5.984 0 0 1 11.968 0z" style="fill:#000;fill-opacity:1;fill-rule:nonzero;stroke:none"/></g><g clip-path="url(#d)" opacity=".5" transform="scale(.35277)"><path d="M4.105 9.004A4.895 4.895 0 0 0 9 13.898c.164-.203.164-.421 0-.652a4.238 4.238 0 0 1-4.242-4.242z" style="fill:#fff;fill-opacity:1;fill-rule:nonzero;stroke:none"/></g><path d="M9 4.105a4.894 4.894 0 0 0-4.895 4.899h.653A4.24 4.24 0 0 1 9 4.762a4.24 4.24 0 0 1 4.242 4.242A4.24 4.24 0 0 1 9 13.246v.652a4.895 4.895 0 1 0 0-9.789" style="fill:#fff;fill-opacity:1;fill-rule:nonzero;stroke:none" transform="scale(.35277)"/><path d="M4.285 7.699c-.117.422-.18.863-.18 1.305 0 .57.102 1.137.297 1.676l1.989-2.981H4.285" style="fill:#fff;fill-opacity:1;fill-rule:nonzero;stroke:none" transform="scale(.35277)"/><g clip-path="url(#e)" opacity=".9" transform="scale(.35277)"><path d="M9 5.742a.27.27 0 0 1 .27.27v2.722a.27.27 0 0 1-.27.27.27.27 0 0 1-.273-.27V6.012A.27.27 0 0 1 9 5.742Z" style="fill:#fff;fill-opacity:1;fill-rule:nonzero;stroke:none"/></g><g clip-path="url(#f)" opacity=".5" transform="scale(.35277)"><path d="m11.309 11.504.191-.192-2.309-2.308L9 9.199Z" style="fill:#fff;fill-opacity:1;fill-rule:nonzero;stroke:none"/></g><path d="M9.543 9A.542.542 0 0 1 9 9.543.542.542 0 0 1 8.457 9c0-.301.242-.543.543-.543.301 0 .543.242.543.543Z" style="fill:#fff;fill-opacity:1;fill-rule:nonzero;stroke:none" transform="scale(.35277)"/></svg>