<svg xmlns="http://www.w3.org/2000/svg" width="24" height="24" viewBox="0 0 6.35 6.35"><defs><radialGradient id="a" cx="0" cy="0" r="1" gradientTransform="rotate(90 1.455 1.72) scale(2.91036)" gradientUnits="userSpaceOnUse"><stop stop-color="#FAFAFA"/><stop offset="1" stop-color="#D0D0D0"/></radialGradient></defs><path fill="url(#a)" fill-rule="evenodd" d="M2.539.295a.312.312 0 0 0 .09-.012c.38-.025.76-.024 1.14.003.345.026.678.101 1 .224.536.22.903.603 1.1 1.148.114.328.18.665.2 1.012.029.435.019.869-.03 1.302a3.143 3.143 0 0 1-.236.879 1.87 1.87 0 0 1-1.094 1.008c-.409.139-.829.211-1.26.219a5.668 5.668 0 0 1-1.444-.11C1.13 5.773.59 5.24.385 4.366a5.04 5.04 0 0 1-.12-1.194c-.009-.428.037-.85.137-1.266C.617 1.09 1.135.584 1.957.39c.192-.047.385-.079.582-.094Z" clip-rule="evenodd" style="fill:url(#a);stroke-width:.264578"/><g stroke-width=".265"><path fill="#c9371b" d="M1.873 4.481 2.91 1.856h.529l1.127 2.6-.212.072L3.306 2.12h-.264L2.11 4.553Z"/><path fill="#4dcb32" d="m1.825 4.589.17.143 2.633-2.876h-.396Z"/><path fill="#4dcb32" d="m4.457 4.702.164-.149-2.503-2.697H1.72Z"/><path fill="#1d8af3" d="M1.59 1.587v.269h1.453v2.906h.264V1.856H4.76v-.269Z"/></g></svg>