<svg xmlns="http://www.w3.org/2000/svg" width="24" height="24" viewBox="0 0 6.35 6.35"><defs><radialGradient id="a" cx="0" cy="0" r="1" gradientTransform="rotate(90 1.455 1.72) scale(5.82072)" gradientUnits="userSpaceOnUse"><stop stop-color="#FAFAFA"/><stop offset="1" stop-color="#B0B0B0"/></radialGradient></defs><path fill="url(#a)" fill-rule="evenodd" d="M2.63.283a.312.312 0 0 1-.091.012c-.197.015-.39.047-.582.094-.822.195-1.34.7-1.555 1.517-.1.416-.146.838-.136 1.266-.008.403.031.801.118 1.194.205.873.745 1.407 1.621 1.603.477.097.957.134 1.443.108.432-.007.852-.08 1.26-.218a1.87 1.87 0 0 0 1.095-1.008c.121-.281.2-.574.236-.879.049-.433.059-.867.03-1.302a3.775 3.775 0 0 0-.2-1.012A1.886 1.886 0 0 0 4.77.51a3.581 3.581 0 0 0-1-.224A8.37 8.37 0 0 0 2.63.283z" clip-rule="evenodd" style="fill:url(#a);stroke-width:.264578"/><path fill="#fbc837" d="M-10.319 3.969a.792.792 0 0 0-.793.793v10.054c0 .44.354.794.793.794h6.615l2.646-2.646V4.762a.792.792 0 0 0-.794-.793z" style="stroke-width:.26458;paint-order:stroke fill markers" transform="translate(4.958 1.137) scale(.24074)"/><path fill="#fff" d="m-3.704 15.61 2.646-2.646H-2.91a.792.792 0 0 0-.794.794z" opacity=".5" style="paint-order:stroke fill markers" transform="translate(4.958 1.137) scale(.24074)"/><path fill="#fff38f" d="M-12.965 1.323h8.467c.44 0 .794.354.794.794v8.202l-2.646 2.645h-6.615a.792.792 0 0 1-.793-.793V2.117c0-.44.354-.794.793-.794z" style="paint-order:stroke fill markers" transform="translate(4.958 1.137) scale(.24074)"/><path fill="#fff" d="m-6.35 12.964 2.646-2.646h-1.852a.792.792 0 0 0-.794.794z" opacity=".5" style="paint-order:stroke fill markers" transform="translate(4.958 1.137) scale(.24074)"/></svg>