<svg xmlns="http://www.w3.org/2000/svg" xml:space="preserve" width="24" height="24"><defs><radialGradient id="a" cx="0" cy="0" r="1" fx="0" fy="0" gradientTransform="matrix(0 16.5 -16.5 0 9 .75)" gradientUnits="userSpaceOnUse" spreadMethod="pad"><stop offset="0" style="stop-opacity:1;stop-color:#f7f7f7"/><stop offset="1" style="stop-opacity:1;stop-color:#aaa"/></radialGradient></defs><path d="M7.195.836c.09 0 .176-.012.258-.035a23.86 23.86 0 0 1 3.231.008 10.26 10.26 0 0 1 2.836.636c1.519.625 2.558 1.711 3.121 3.254.316.93.507 1.887.566 2.867a21.227 21.227 0 0 1-.086 3.696 8.976 8.976 0 0 1-.672 2.488c-.637 1.383-1.672 2.336-3.101 2.859a11.693 11.693 0 0 1-3.575.618 15.998 15.998 0 0 1-4.089-.309c-2.481-.551-4.016-2.066-4.594-4.543a14.244 14.244 0 0 1-.336-3.383c-.027-1.215.101-2.41.387-3.59.609-2.312 2.078-3.746 4.406-4.3A10.27 10.27 0 0 1 7.195.836Z" style="fill:url(#a);fill-rule:evenodd;stroke:none" transform="matrix(1.33333 0 0 1.33333 0 0)"/><path d="m8.453 3.75-3.836 8.754h1.188l1.043-2.387h4.312l1.012 2.387h1.199L9.648 3.75Zm.598 1.059c.097.296.621 1.656 1.57 4.07l.199.441H7.191Z" style="fill:#000;fill-opacity:1;fill-rule:nonzero;stroke:none" transform="matrix(1.33333 0 0 1.33333 0 0)"/><path d="M3.746 13.375h10.508v.875H3.746Z" style="fill:#2ecc71;fill-opacity:1;fill-rule:nonzero;stroke:none" transform="matrix(1.33333 0 0 1.33333 0 0)"/><path d="M13.812 8.547a6.351 6.351 0 0 0-5.906 8.672c.617.039 1.242.043 1.867.008a11.693 11.693 0 0 0 3.575-.618c1.429-.523 2.464-1.476 3.101-2.859a8.976 8.976 0 0 0 .672-2.488 20.51 20.51 0 0 0 .117-1.711 6.36 6.36 0 0 0-3.426-1.004Z" style="fill:#2cc36c;fill-opacity:1;fill-rule:nonzero;stroke:none" transform="matrix(1.33333 0 0 1.33333 0 0)"/><path d="m16.172 12.043-3.613 3.613-1.551-1.551-1.035 1.036 1.875 1.875a12.175 12.175 0 0 0 1.504-.399c.187-.07.367-.144.539-.226l2.496-2.496c.019-.047.043-.09.066-.137a8.55 8.55 0 0 0 .375-1.059z" style="fill:#fcfcfc;fill-opacity:1;fill-rule:evenodd;stroke:none" transform="matrix(1.33333 0 0 1.33333 0 0)"/></svg>