<svg xmlns="http://www.w3.org/2000/svg" width="24" height="24" viewBox="0 0 6.35 6.35"><defs><linearGradient id="a" x1="12" x2="12" y1="1" y2="12" gradientTransform="scale(.75)" gradientUnits="userSpaceOnUse" spreadMethod="pad"><stop offset="0" style="stop-color:#bf62cb;stop-opacity:.80000001"/><stop offset="1" style="stop-color:#8f56c6;stop-opacity:.90196079"/></linearGradient><clipPath id="b" clipPathUnits="userSpaceOnUse"><path d="M0 0h19v19H0Z"/></clipPath></defs><path d="M1.003 5.479C.7 5.206.493 4.834.384 4.366a4.19 4.19 0 0 1-.063-.342h5.712a3.136 3.136 0 0 1-.23.827c-.115.249-.266.459-.454.628Z" style="fill:#fff;fill-opacity:1;fill-rule:evenodd;stroke:none;stroke-width:.352771"/><path d="M8.988.75c-.511 0-1.023.016-1.535.051a.951.951 0 0 1-.258.035 10.27 10.27 0 0 0-1.648.266c-2.328.554-3.797 1.988-4.406 4.3a13.858 13.858 0 0 0-.387 3.59c-.016.813.035 1.617.156 2.414h16.192c.007-.047.011-.097.019-.144.082-.731.125-1.461.129-2.192v-.285a26.17 26.17 0 0 0-.043-1.219 10.762 10.762 0 0 0-.566-2.867c-.563-1.543-1.602-2.629-3.121-3.254a10.26 10.26 0 0 0-2.836-.636A23.519 23.519 0 0 0 9.027.75Zm6.176 14.781H2.844c.742.668 1.691 1.133 2.84 1.387 1.07.223 2.148.332 3.234.332h.023c.278 0 .555-.008.832-.023a11.693 11.693 0 0 0 3.575-.618 5.537 5.537 0 0 0 1.816-1.078z" style="fill:url(#a);fill-rule:evenodd;stroke:none" transform="scale(.35277)"/><path d="M2.657 1.235a.326.326 0 0 0-.33.322v1.495c0 .248.269.404.484.28l1.294-.747a.326.326 0 0 0 .161-.28.334.334 0 0 0-.042-.162.33.33 0 0 0-.119-.119l-1.294-.747a.318.318 0 0 0-.154-.042Z" style="fill:#fff;fill-opacity:1;fill-rule:evenodd;stroke:none;stroke-width:.352771"/><g clip-path="url(#b)" opacity=".25" transform="scale(.35277)"><path d="M15.188 13.125h-4.813a.342.342 0 0 0-.344.344c0 .187.153.343.344.343h4.813a.344.344 0 0 0 0-.687z" style="fill:#000;fill-opacity:1;fill-rule:nonzero;stroke:none"/></g><path d="M3.418 4.63H.992a.121.121 0 0 0 0 .242h2.426a.121.121 0 0 0 0-.242z" style="fill:#8f56c6;fill-opacity:.90196079;fill-rule:nonzero;stroke:none;stroke-width:.352771"/><path d="M3.539 5.115a.363.363 0 1 0 0-.726.363.363 0 0 0 0 .726z" style="fill:#fff;fill-opacity:1;fill-rule:nonzero;stroke:none;stroke-width:.352771"/></svg>