<svg xmlns="http://www.w3.org/2000/svg" xmlns:xlink="http://www.w3.org/1999/xlink" xml:space="preserve" id="svg154" width="24" height="24" fill="none" version="1.1"><defs id="defs152"><linearGradient id="linearGradient488"><stop id="stop484" offset="0" style="stop-color:#1f9cf5;stop-opacity:1"/><stop id="stop486" offset="1" style="stop-color:#6aaefd;stop-opacity:1"/></linearGradient><linearGradient id="linearGradient29319"><stop id="stop29317" offset="0" style="stop-color:#d2d8db;stop-opacity:1"/></linearGradient><linearGradient id="fffff"><stop id="stop28389" offset="0" style="stop-color:#fff;stop-opacity:1"/></linearGradient><linearGradient xlink:href="#linearGradient488" id="linearGradient490" x1="52.978" x2="50.989" y1="96.007" y2="9.226" gradientTransform="matrix(.24444 0 0 .24444 -.222 -.222)" gradientUnits="userSpaceOnUse"/><linearGradient id="linearGradient8792"><stop id="stop8790" offset="0" style="stop-color:#000;stop-opacity:1"/></linearGradient><style id="current-color-scheme" type="text/css">.ColorScheme-Text{color:#31363b}.ColorScheme-Background{color:#eff0f1}.ColorScheme-Highlight{color:#3daee9}.ColorScheme-ViewText{color:#31363b}.ColorScheme-ViewBackground{color:#fcfcfc}.ColorScheme-ViewHover{color:#93cee9}.ColorScheme-ViewFocus{color:#3daee9}.ColorScheme-ButtonText{color:#31363b}.ColorScheme-ButtonBackground{color:#eff0f1}.ColorScheme-ButtonHover{color:#93cee9}.ColorScheme-ButtonFocus{color:#3daee9}</style></defs><path id="path6" d="M12 1C2 1 1 6 1 12c0 8 3 11 11 11s11-3 11-11c0-6-1-11-11-11Z" style="font-variation-settings:normal;display:inline;opacity:1;vector-effect:none;fill:url(#linearGradient490);fill-opacity:1;stroke-width:1.11627;stroke-linecap:butt;stroke-linejoin:miter;stroke-miterlimit:4;stroke-dasharray:none;stroke-dashoffset:0;stroke-opacity:1;-inkscape-stroke:none;stop-color:#000;stop-opacity:1"/><g id="g23949" transform="translate(-71.355 -11.296) scale(.33402)"><path id="path22272" fill="#fff" d="M243.853 49.493a2.149 2.149 0 0 0-1.577.649 2.159 2.159 0 0 0-.652 1.578c0 .615.217 1.141.652 1.573a2.154 2.154 0 0 0 1.577.658c.618 0 1.139-.22 1.574-.658.435-.432.658-.958.658-1.573 0-.425-.104-.804-.311-1.14a2.332 2.332 0 0 0-.347-.438 2.137 2.137 0 0 0-1.573-.65zm5.701 0a2.149 2.149 0 0 0-1.58.649 2.149 2.149 0 0 0-.65 1.578c0 .615.215 1.141.652 1.573a2.154 2.154 0 0 0 1.577.658 2.14 2.14 0 0 0 1.573-.658 2.139 2.139 0 0 0 .653-1.573 2.166 2.166 0 0 0-.653-1.578 2.145 2.145 0 0 0-1.573-.65zm5.7 0c-.62 0-1.145.214-1.581.649a2.159 2.159 0 0 0-.653 1.578c0 .615.218 1.141.653 1.573a2.154 2.154 0 0 0 1.58.658 2.13 2.13 0 0 0 1.57-.658 2.13 2.13 0 0 0 .655-1.573 2.15 2.15 0 0 0-.31-1.144 2.3 2.3 0 0 0-.344-.434 2.135 2.135 0 0 0-1.57-.65zM238.157 55.5c-.618 0-1.145.215-1.581.652-.435.435-.65.962-.65 1.575 0 .615.215 1.141.65 1.576a2.159 2.159 0 0 0 1.58.655c.615 0 1.139-.22 1.573-.655.437-.435.658-.961.658-1.576 0-.424-.106-.804-.316-1.143a2.292 2.292 0 0 0-.342-.432 2.133 2.133 0 0 0-1.572-.652zm22.79 0c-.617 0-1.14.215-1.576.652a2.139 2.139 0 0 0-.652 1.575c0 .615.215 1.141.652 1.576a2.15 2.15 0 0 0 1.576.655c.613 0 1.138-.22 1.575-.655a2.149 2.149 0 0 0 .653-1.576 2.159 2.159 0 0 0-.653-1.575 2.143 2.143 0 0 0-1.576-.652zm-17.094 6.008c-.616 0-1.143.215-1.577.651a2.149 2.149 0 0 0-.653 1.576c0 .616.218 1.141.653 1.578.133.134.277.251.431.344a2.17 2.17 0 0 0 1.146.309 2.149 2.149 0 0 0 1.573-.653c.435-.437.658-.962.658-1.578a2.142 2.142 0 0 0-.658-1.576 2.13 2.13 0 0 0-1.573-.651zm5.7 0c-.617 0-1.144.215-1.578.651a2.139 2.139 0 0 0-.652 1.576c0 .616.215 1.141.652 1.578.134.134.277.251.431.344.34.206.722.309 1.147.309.615 0 1.136-.22 1.573-.653.435-.437.652-.962.652-1.578a2.16 2.16 0 0 0-.308-1.143 2.307 2.307 0 0 0-.344-.432 2.137 2.137 0 0 0-1.573-.652zm5.7 0c-.619 0-1.144.215-1.58.651a2.149 2.149 0 0 0-.653 1.576c0 .616.217 1.141.652 1.578.137.134.28.251.434.344a2.17 2.17 0 0 0 1.146.309c.615 0 1.137-.22 1.57-.653.438-.437.656-.962.656-1.578a2.144 2.144 0 0 0-.655-1.576 2.127 2.127 0 0 0-1.57-.651zm-5.7 6.007c-.617 0-1.144.218-1.578.652a2.139 2.139 0 0 0-.652 1.575c0 .617.215 1.144.652 1.579a2.154 2.154 0 0 0 1.577.655 2.159 2.159 0 0 0 1.574-.655 2.15 2.15 0 0 0 .652-1.578 2.157 2.157 0 0 0-.652-1.576 2.147 2.147 0 0 0-1.573-.652zm0 6.008c-.617 0-1.144.22-1.578.651a2.148 2.148 0 0 0-.652 1.58c0 .612.215 1.14.652 1.574a2.154 2.154 0 0 0 1.577.655 2.149 2.149 0 0 0 1.574-.655 2.149 2.149 0 0 0 .652-1.575 2.166 2.166 0 0 0-.652-1.579 2.157 2.157 0 0 0-1.573-.651zm0 6.01a2.159 2.159 0 0 0-1.578.65 2.146 2.146 0 0 0-.652 1.577c0 .614.215 1.141.652 1.576a2.154 2.154 0 0 0 1.577.654 2.149 2.149 0 0 0 1.574-.654 2.149 2.149 0 0 0 .652-1.576 2.166 2.166 0 0 0-.652-1.578 2.155 2.155 0 0 0-1.573-.65zm-5.7 6.007a2.159 2.159 0 0 0-1.577.65 2.159 2.159 0 0 0-.653 1.578c0 .613.218 1.14.653 1.575a2.154 2.154 0 0 0 1.577.654c.617 0 1.139-.22 1.573-.654.435-.435.658-.962.658-1.575a2.157 2.157 0 0 0-.658-1.579 2.147 2.147 0 0 0-1.573-.65zm5.7 0a2.159 2.159 0 0 0-1.578.65 2.149 2.149 0 0 0-.652 1.578c0 .613.215 1.14.652 1.575a2.154 2.154 0 0 0 1.577.654 2.149 2.149 0 0 0 1.574-.654 2.149 2.149 0 0 0 .652-1.575 2.166 2.166 0 0 0-.652-1.579 2.155 2.155 0 0 0-1.573-.65z" style="stroke-width:.72708"/><path id="path22274" fill="#fff" d="M243.853 55.5c-.616 0-1.143.215-1.577.651a2.149 2.149 0 0 0-.652 1.576c0 .615.217 1.141.652 1.576.137.138.28.25.434.344.339.208.722.31 1.143.31.618 0 1.139-.22 1.574-.654a2.15 2.15 0 0 0 .658-1.576 2.12 2.12 0 0 0-.314-1.143 2.209 2.209 0 0 0-.344-.432 2.13 2.13 0 0 0-1.573-.652zm5.701 0c-.618 0-1.144.215-1.58.651a2.139 2.139 0 0 0-.65 1.576c0 .615.215 1.141.652 1.576a2.154 2.154 0 0 0 1.577.655 2.149 2.149 0 0 0 1.573-.655 2.149 2.149 0 0 0 .653-1.576c0-.425-.104-.804-.311-1.143a2.292 2.292 0 0 0-.342-.432 2.137 2.137 0 0 0-1.573-.652zm5.7 0c-.62 0-1.145.215-1.581.651a2.149 2.149 0 0 0-.653 1.576c0 .615.218 1.141.653 1.576a2.159 2.159 0 0 0 1.58.655 2.139 2.139 0 0 0 1.57-.655 2.14 2.14 0 0 0 .655-1.576c0-.425-.103-.804-.313-1.146a2.36 2.36 0 0 0-.342-.43 2.127 2.127 0 0 0-1.57-.651zm-22.796 6.006c-.618 0-1.141.216-1.576.652a2.14 2.14 0 0 0-.655 1.576c0 .617.217 1.14.655 1.578a2.15 2.15 0 0 0 1.576.652 2.159 2.159 0 0 0 1.575-.652c.434-.438.654-.961.654-1.578a2.144 2.144 0 0 0-.654-1.576 2.139 2.139 0 0 0-1.575-.652zm5.699 0c-.617 0-1.144.216-1.58.652-.436.435-.65.962-.65 1.576 0 .617.215 1.14.649 1.578a2.162 2.162 0 0 0 1.58.653c.615 0 1.139-.22 1.573-.653a2.15 2.15 0 0 0 .658-1.578 2.146 2.146 0 0 0-.658-1.576 2.133 2.133 0 0 0-1.572-.652zm22.79 0a2.14 2.14 0 0 0-1.576.652 2.139 2.139 0 0 0-.651 1.576c0 .617.215 1.14.651 1.578a2.15 2.15 0 0 0 1.576.652c.614 0 1.138-.22 1.576-.652.435-.438.652-.961.652-1.578a2.15 2.15 0 0 0-.31-1.144 2.292 2.292 0 0 0-.342-.432 2.143 2.143 0 0 0-1.576-.652zm5.7 0c-.619 0-1.141.216-1.579.652-.434.435-.65.962-.65 1.576 0 .617.217 1.14.65 1.578a2.166 2.166 0 0 0 1.578.652c.615 0 1.138-.22 1.574-.652a2.15 2.15 0 0 0 .654-1.578 2.144 2.144 0 0 0-.654-1.576 2.133 2.133 0 0 0-1.573-.652zm-34.19 6.008c-.617 0-1.141.217-1.576.651a2.14 2.14 0 0 0-.655 1.576c0 .617.217 1.144.655 1.58a2.15 2.15 0 0 0 1.576.654c.616 0 1.138-.223 1.576-.655.434-.435.654-.962.654-1.579a2.157 2.157 0 0 0-.654-1.576 2.149 2.149 0 0 0-1.576-.651zm5.699 0c-.617 0-1.144.217-1.58.651-.436.435-.65.962-.65 1.576 0 .617.214 1.144.649 1.58a2.159 2.159 0 0 0 1.58.654c.615 0 1.139-.223 1.573-.655.438-.435.658-.962.658-1.579 0-.422-.106-.801-.315-1.143a2.292 2.292 0 0 0-.343-.432 2.143 2.143 0 0 0-1.572-.652zm5.697 0a2.15 2.15 0 0 0-1.578.651 2.15 2.15 0 0 0-.652 1.576c0 .617.217 1.144.652 1.58.137.135.28.25.434.342.339.209.722.312 1.144.312.617 0 1.139-.223 1.573-.655.435-.435.658-.962.658-1.579a2.142 2.142 0 0 0-.658-1.576 2.139 2.139 0 0 0-1.573-.651zm11.4 0c-.62 0-1.144.217-1.581.651a2.149 2.149 0 0 0-.653 1.576c0 .617.218 1.144.653 1.58a2.159 2.159 0 0 0 1.58.654 2.149 2.149 0 0 0 1.57-.655c.438-.435.655-.962.655-1.579a2.12 2.12 0 0 0-.313-1.143 2.292 2.292 0 0 0-.342-.432 2.137 2.137 0 0 0-1.57-.652zm5.693 0c-.616 0-1.14.217-1.576.651a2.139 2.139 0 0 0-.651 1.576c0 .617.215 1.144.651 1.58a2.15 2.15 0 0 0 1.576.654c.615 0 1.138-.223 1.576-.655.435-.435.653-.962.653-1.579 0-.425-.104-.804-.311-1.143a2.292 2.292 0 0 0-.342-.432 2.153 2.153 0 0 0-1.576-.652zm5.7 0c-.619 0-1.141.217-1.578.651-.434.435-.65.962-.65 1.576 0 .617.216 1.144.65 1.58a2.15 2.15 0 0 0 1.577.655c.614 0 1.138-.223 1.573-.655.438-.435.655-.962.655-1.579a2.12 2.12 0 0 0-.313-1.143 2.292 2.292 0 0 0-.342-.432 2.143 2.143 0 0 0-1.573-.652zm-34.19 6.007c-.616 0-1.141.22-1.576.652a2.15 2.15 0 0 0-.655 1.578c0 .614.218 1.141.655 1.576a2.15 2.15 0 0 0 1.576.655c.617 0 1.138-.22 1.576-.655.434-.435.654-.962.654-1.576 0-.424-.103-.804-.31-1.143a2.407 2.407 0 0 0-.344-.435 2.159 2.159 0 0 0-1.576-.652zm5.7 0c-.618 0-1.145.22-1.581.652-.435.438-.65.962-.65 1.578 0 .614.215 1.141.65 1.576a2.161 2.161 0 0 0 1.58.654c.615 0 1.139-.22 1.573-.654.437-.435.658-.962.658-1.576a2.14 2.14 0 0 0-.314-1.143 2.3 2.3 0 0 0-.344-.435 2.153 2.153 0 0 0-1.572-.652zm5.697 0a2.16 2.16 0 0 0-1.58.652 2.155 2.155 0 0 0-.65 1.578c0 .614.216 1.141.65 1.576a2.154 2.154 0 0 0 1.579.655c.618 0 1.138-.22 1.573-.655a2.15 2.15 0 0 0 .658-1.576 2.157 2.157 0 0 0-.658-1.578 2.149 2.149 0 0 0-1.572-.652zm11.398 0c-.618 0-1.143.22-1.58.652a2.152 2.152 0 0 0-.652 1.578c0 .614.217 1.141.652 1.576a2.3 2.3 0 0 0 .434.346c.339.206.721.309 1.146.309a2.139 2.139 0 0 0 1.57-.655c.438-.435.656-.962.656-1.576 0-.424-.103-.804-.311-1.146a2.482 2.482 0 0 0-.344-.432 2.147 2.147 0 0 0-1.57-.652zm5.695 0c-.617 0-1.14.22-1.576.652a2.145 2.145 0 0 0-.652 1.578c0 .614.216 1.141.652 1.576a2.15 2.15 0 0 0 1.576.655c.614 0 1.138-.22 1.575-.655a2.149 2.149 0 0 0 .653-1.576 2.159 2.159 0 0 0-.653-1.578 2.163 2.163 0 0 0-1.575-.652zm5.7 0c-.619 0-1.142.22-1.579.652-.434.438-.65.962-.65 1.578 0 .614.216 1.141.65 1.576a2.153 2.153 0 0 0 1.578.654c.614 0 1.138-.22 1.573-.654a2.14 2.14 0 0 0 .655-1.576 2.159 2.159 0 0 0-.31-1.146 2.482 2.482 0 0 0-.344-.432 2.153 2.153 0 0 0-1.574-.651zm-28.491 6.01a2.168 2.168 0 0 0-1.58.65 2.15 2.15 0 0 0-.65 1.578c0 .614.214 1.14.649 1.576.137.136.28.253.435.346.339.205.722.309 1.146.309.614 0 1.138-.22 1.573-.655.437-.435.658-.962.658-1.576 0-.425-.107-.804-.314-1.144a2.3 2.3 0 0 0-.344-.435 2.15 2.15 0 0 0-1.573-.648zm5.698 0a2.159 2.159 0 0 0-1.58.65 2.156 2.156 0 0 0-.65 1.578c0 .614.216 1.14.65 1.576a2.154 2.154 0 0 0 1.579.655c.617 0 1.138-.22 1.573-.655a2.15 2.15 0 0 0 .658-1.576 2.157 2.157 0 0 0-.658-1.579 2.147 2.147 0 0 0-1.572-.648zm11.398 0c-.619 0-1.143.217-1.58.65a2.157 2.157 0 0 0-.653 1.578c0 .614.218 1.14.653 1.576.136.136.28.253.434.346a2.17 2.17 0 0 0 1.146.309 2.139 2.139 0 0 0 1.57-.655 2.14 2.14 0 0 0 .655-1.576c0-.425-.103-.804-.31-1.146a2.482 2.482 0 0 0-.344-.432 2.145 2.145 0 0 0-1.57-.65zm5.694 0c-.616 0-1.14.217-1.575.65a2.145 2.145 0 0 0-.652 1.578c0 .614.215 1.14.652 1.576a2.15 2.15 0 0 0 1.576.655c.614 0 1.138-.22 1.575-.655a2.149 2.149 0 0 0 .653-1.576 2.159 2.159 0 0 0-.653-1.579 2.16 2.16 0 0 0-1.576-.648zm-5.694 6.008c-.619 0-1.143.217-1.58.65a2.159 2.159 0 0 0-.653 1.577c0 .614.218 1.141.653 1.576a2.161 2.161 0 0 0 1.58.654 2.139 2.139 0 0 0 1.57-.654 2.14 2.14 0 0 0 .655-1.576c0-.424-.103-.804-.31-1.146a2.482 2.482 0 0 0-.344-.432 2.145 2.145 0 0 0-1.57-.65z" opacity=".35" style="stroke-width:.72708"/></g></svg>