<svg xmlns="http://www.w3.org/2000/svg" width="24" height="24"><defs><radialGradient id="a" cx="0" cy="0" r="1" fx="0" fy="0" gradientTransform="matrix(0 11 -11 0 12 1)" gradientUnits="userSpaceOnUse" spreadMethod="pad"><stop offset="0" style="stop-opacity:1;stop-color:#ff5151"/><stop offset="1" style="stop-color:#e2434b;stop-opacity:1"/></radialGradient></defs><path d="M9.593 1.115c.12 0 .235-.016.344-.047a31.814 31.814 0 0 1 4.308.01 13.68 13.68 0 0 1 3.781.849c2.026.833 3.41 2.281 4.162 4.338.42 1.24.676 2.516.754 3.823a28.303 28.303 0 0 1-.114 4.928 11.968 11.968 0 0 1-.896 3.317c-.85 1.844-2.23 3.115-4.135 3.812-1.543.522-3.13.798-4.767.824a21.33 21.33 0 0 1-5.452-.412c-3.308-.734-5.354-2.754-6.125-6.057a18.991 18.991 0 0 1-.448-4.51 18.502 18.502 0 0 1 .516-4.787c.812-3.083 2.77-4.995 5.875-5.734a13.692 13.692 0 0 1 2.197-.354z" style="fill:url(#a);fill-rule:evenodd;stroke:none;stroke-width:1.33333"/><path d="M12.686 8.848s1.569.254 1.564.898c0 .023 0 .044-.004.066-.092.576-1.664.661-2.754.721-.227.013-.433.025-.601.04-.141.012-.317.02-.518.03h-.002c-1.177.062-3.177.165-3.746 1.159a.38.38 0 0 0-.05.177c-.002.436.928.813 2.048 1.268 1.608.652 3.604 1.464 3.79 2.83.008.074.015.153.015.227-.004 1.844-3.093 3.522-7.38 5.341.741.422 1.582.741 2.53.952 1.802.369 3.618.51 5.451.412a15.597 15.597 0 0 0 4.768-.824c1.905-.698 3.285-1.967 4.135-3.811l.037-.094c-.612-1.365-1.6-2.602-3.184-3.424-2.1-1.093-4.865-1.685-6.93-2.127-1.61-.344-2.794-.597-2.904-.925a.346.346 0 0 1-.013-.094c.004-.514 1.6-.635 2.646-.686 1.106-.055 2.78-.205 2.984-1.002a.47.47 0 0 0 .014-.074v-.037c.004-.742-1.896-1.023-1.896-1.023z" style="fill:#fff;fill-rule:evenodd;stroke:none;stroke-width:1.33333"/></svg>