<svg xmlns="http://www.w3.org/2000/svg" xmlns:xlink="http://www.w3.org/1999/xlink" xml:space="preserve" width="24" height="24" viewBox="0 0 6.35 6.35"><defs><linearGradient id="a"><stop offset="0" style="stop-color:#262532;stop-opacity:1"/><stop offset="1" style="stop-color:#b3b3b3;stop-opacity:1"/></linearGradient><linearGradient xlink:href="#a" id="b" x1="192.406" x2="194.928" y1="268.376" y2="-379.902" gradientUnits="userSpaceOnUse"/><linearGradient xlink:href="#a" id="c" x1="192.406" x2="194.928" y1="268.376" y2="-379.902" gradientUnits="userSpaceOnUse"/></defs><g style="fill:url(#b);fill-opacity:1;stroke-width:23.0144"><path d="M148.375 1.961c2.07.023 4.047-.242 5.93-.789a545.854 545.854 0 0 1 74.343.195c22.469 1.75 44.219 6.625 65.25 14.625 34.965 14.395 58.887 39.36 71.774 74.899a246.354 246.354 0 0 1 13.051 66.007 482.597 482.597 0 0 1-1.981 84.981c-2.363 19.867-7.504 38.969-15.422 57.312-14.683 31.801-38.472 53.739-71.375 65.809-26.664 9.008-54.082 13.754-82.254 14.23-31.691 1.649-63.058-.722-94.117-7.113-57.16-12.73-92.418-47.582-105.781-104.543a328.944 328.944 0 0 1-7.711-77.867 319.253 319.253 0 0 1 8.898-82.609C22.988 53.84 56.797 20.836 110.414 8.086a241.29 241.29 0 0 1 37.961-6.125Z" style="fill:url(#c);fill-opacity:1;fill-rule:evenodd;stroke:none;stroke-width:23.0144" transform="matrix(.01533 0 0 .01533 .265 .265)"/></g><g style="stroke-width:1.21684" transform="matrix(.8218 0 0 .8218 .566 .57)"><circle cx="3.064" cy="3.168" r="2.092" fill="#ffe333" style="stroke-width:7.90749;paint-order:stroke fill markers"/><path fill="#f9f9f9" d="M3.894 3.343a.872.872 0 0 0-.801.534.872.872 0 0 0-.003.007.697.697 0 0 0-.01-.002.697.697 0 0 0-.143-.015.697.697 0 0 0-.698.697.697.697 0 0 0 .698.698.697.697 0 0 0 .017 0 .697.697 0 0 0 .02-.001.697.697 0 0 0 .019-.002h1.814a.523.523 0 0 0 .011.001.523.523 0 0 0 .036.002.523.523 0 0 0 .523-.523.523.523 0 0 0-.523-.523.523.523 0 0 0-.087.007.872.872 0 0 0 0-.008.872.872 0 0 0-.871-.872.872.872 0 0 0-.002 0z" style="stroke-width:7.90749;paint-order:stroke markers fill"/><path d="M3.894 3.343a.872.872 0 0 0-.801.534.872.872 0 0 0-.003.007.697.697 0 0 0-.01-.002.697.697 0 0 0-.143-.015.697.697 0 0 0-.698.698.697.697 0 0 0 .53.673 2.092 2.092 0 0 0 .288.021h.015a2.092 2.092 0 0 0 1.797-1.042.523.523 0 0 0-.015 0 .523.523 0 0 0-.087.007.872.872 0 0 0 0-.001.872.872 0 0 0 0-.001.872.872 0 0 0 0-.001.872.872 0 0 0 0-.001.872.872 0 0 0 0-.001.872.872 0 0 0 0-.001.872.872 0 0 0 0-.001.872.872 0 0 0 0-.001.872.872 0 0 0-.871-.873.872.872 0 0 0-.002 0z" style="fill:#fbf1b4;fill-opacity:1;stroke-width:7.90749;paint-order:stroke fill markers"/></g></svg>