<svg xmlns="http://www.w3.org/2000/svg" width="24" height="24" viewBox="0 0 6.35 6.35"><path d="M3.175.265C.529.265.265 1.587.265 3.175c0 2.117.793 2.91 2.91 2.91s2.91-.793 2.91-2.91c0-1.588-.264-2.91-2.91-2.91z" style="font-variation-settings:normal;display:inline;vector-effect:none;fill:#f2f2f2;fill-opacity:1;stroke-width:.295341;stroke-linecap:butt;stroke-linejoin:miter;stroke-miterlimit:4;stroke-dasharray:none;stroke-dashoffset:0;stroke-opacity:1;-inkscape-stroke:none;stop-color:#000"/><path d="M3.175.523C.764.523.523 1.728.523 3.175c0 1.929.723 2.652 2.652 2.652 1.929 0 2.652-.723 2.652-2.652 0-1.447-.24-2.652-2.652-2.652z" style="font-variation-settings:normal;display:inline;vector-effect:none;fill:#dadada;fill-opacity:1;stroke-width:.269163;stroke-linecap:butt;stroke-linejoin:miter;stroke-miterlimit:4;stroke-dasharray:none;stroke-dashoffset:0;stroke-opacity:1;-inkscape-stroke:none;stop-color:#000"/><path fill="#4d4d4d" d="M4.339 1.72H2.011l-.073 1.164h.218c.03-.201.06-.398.106-.527.108-.295.193-.34.476-.34.138 0 .218.045.218.145v1.996c0 .169 0 .181-.314.181H2.52v.291h1.31V4.34h-.122c-.334 0-.315-.012-.315-.181V2.162c0-.1.08-.145.218-.145.255 0 .347.029.452.27.062.15.097.367.13.597h.219z" style="stroke-width:.343729"/></svg>