<svg xmlns="http://www.w3.org/2000/svg" xmlns:xlink="http://www.w3.org/1999/xlink" xml:space="preserve" id="svg154" width="24" height="24" fill="none" version="1.1"><defs id="defs152"><linearGradient id="linearGradient488"><stop id="stop484" offset="0" style="stop-color:#cecece;stop-opacity:1"/><stop id="stop486" offset="1" style="stop-color:#f5f5f5;stop-opacity:1"/></linearGradient><linearGradient id="linearGradient29319"><stop id="stop29317" offset="0" style="stop-color:#d2d8db;stop-opacity:1"/></linearGradient><linearGradient id="fffff"><stop id="stop28389" offset="0" style="stop-color:#fff;stop-opacity:1"/></linearGradient><linearGradient xlink:href="#linearGradient488" id="linearGradient490" x1="52.978" x2="50.989" y1="96.007" y2="9.226" gradientTransform="matrix(.24444 0 0 .24444 -.222 -.222)" gradientUnits="userSpaceOnUse"/><linearGradient id="linearGradient8792"><stop id="stop8790" offset="0" style="stop-color:#000;stop-opacity:1"/></linearGradient><style id="current-color-scheme" type="text/css">.ColorScheme-Text{color:#31363b}.ColorScheme-Background{color:#eff0f1}.ColorScheme-Highlight{color:#3daee9}.ColorScheme-ViewText{color:#31363b}.ColorScheme-ViewBackground{color:#fcfcfc}.ColorScheme-ViewHover{color:#93cee9}.ColorScheme-ViewFocus{color:#3daee9}.ColorScheme-ButtonText{color:#31363b}.ColorScheme-ButtonBackground{color:#eff0f1}.ColorScheme-ButtonHover{color:#93cee9}.ColorScheme-ButtonFocus{color:#3daee9}</style></defs><path id="path6" d="M12 1C2 1 1 6 1 12c0 8 3 11 11 11s11-3 11-11c0-6-1-11-11-11Z" style="font-variation-settings:normal;display:inline;opacity:1;vector-effect:none;fill:url(#linearGradient490);fill-opacity:1;stroke-width:1.11627;stroke-linecap:butt;stroke-linejoin:miter;stroke-miterlimit:4;stroke-dasharray:none;stroke-dashoffset:0;stroke-opacity:1;-inkscape-stroke:none;stop-color:#000;stop-opacity:1"/><g id="g24146" transform="matrix(.14639 0 0 .14639 -3.103 -9.232)"><path id="path22255" fill="#f70" d="M66.11 117.73v36.47c0 4.421.46 8.447 1.357 12.12.9 3.579 2.276 6.77 4.421 9.363 5.363 6.487 13.252 8.362 20.496 8.37 8.843.01 16.645-.955 24.448-3.901v-62.407h-11.704v54.604c-3.901 1.012-7.803 1.423-11.506 1.459-5.81.055-9.936-1.704-12.407-5.113-2.455-3.413-3.4-9.078-3.4-16.982v-33.978" style="stroke-width:2.60091"/><path id="path22257" fill="#333" d="M132.438 98.223h7.802v93.633h-7.802" style="stroke-width:2.60091"/></g></svg>