<svg xmlns="http://www.w3.org/2000/svg" xml:space="preserve" width="24" height="24"><defs><radialGradient id="a" cx="0" cy="0" r="1" fx="0" fy="0" gradientTransform="matrix(0 16.5 -16.5 0 9 .724)" gradientUnits="userSpaceOnUse" spreadMethod="pad"><stop offset="0" style="stop-opacity:1;stop-color:#90d2d3"/><stop offset="1" style="stop-opacity:1;stop-color:#20a5a7"/></radialGradient><radialGradient id="b" cx="0" cy="0" r="1" fx="0" fy="0" gradientTransform="matrix(0 16.5 -16.5 0 9 .724)" gradientUnits="userSpaceOnUse" spreadMethod="pad"><stop offset="0" style="stop-opacity:1;stop-color:#a3dadb"/><stop offset="1" style="stop-opacity:1;stop-color:#90d3d4"/></radialGradient><clipPath id="c" clipPathUnits="userSpaceOnUse"><path d="M0 0h49v49H0Z"/></clipPath></defs><path d="M7.195.809c.09 0 .176-.012.258-.036a24.191 24.191 0 0 1 3.231.008c.976.078 1.921.289 2.836.637 1.519.625 2.558 1.711 3.121 3.254.316.93.507 1.887.566 2.871a21.18 21.18 0 0 1-.086 3.691 8.973 8.973 0 0 1-.672 2.489c-.637 1.382-1.672 2.336-3.101 2.859a11.666 11.666 0 0 1-3.575.621 16 16 0 0 1-4.089-.312c-2.481-.551-4.016-2.067-4.594-4.539a14.287 14.287 0 0 1-.336-3.387c-.027-1.211.101-2.41.387-3.586.609-2.317 2.078-3.75 4.406-4.305A10.613 10.613 0 0 1 7.195.809Z" style="fill:url(#a);fill-rule:evenodd;stroke:none" transform="matrix(1.33333 0 0 1.33333 0 .035)"/><path d="m.953 11.578-.012.02c.043.254.09.504.149.754.578 2.472 2.113 3.988 4.594 4.539a16 16 0 0 0 4.089.312 11.682 11.682 0 0 0 3.575-.621c1.429-.523 2.464-1.477 3.101-2.859.297-.68.492-1.387.613-2.118-.007-.007-.007-.019-.015-.027z" style="fill:url(#b);stroke:none" transform="matrix(1.33333 0 0 1.33333 0 .035)"/><g clip-path="url(#c)" opacity=".5" transform="matrix(1.33333 0 0 1.33333 0 .035)"><path d="M9.891 14.109h2.652c.352 1.012 1.844.754 1.84-.316a.95.95 0 0 0-.949-.949.948.948 0 0 0-.891.633H9.891c.058.316.058.316 0 .632" style="fill:#000;fill-opacity:1;fill-rule:nonzero;stroke:none"/></g><path d="M4.57 12.844a.948.948 0 0 0-.949.949.945.945 0 0 0 1.84.316h2.648c.356 1.008 1.844.754 1.84-.316a.948.948 0 0 0-1.84-.316H5.461a.952.952 0 0 0-.891-.633" style="fill:#20a5a7;fill-opacity:1;fill-rule:nonzero;stroke:none" transform="matrix(1.33333 0 0 1.33333 0 .035)"/><path d="M8.457 3.031v5.426L6.016 6.016l-.813.812L9 10.629l3.801-3.801-.817-.812-2.441 2.441V3.031Z" style="fill:#fcfcfc;fill-opacity:1;fill-rule:nonzero;stroke:none" transform="matrix(1.33333 0 0 1.33333 0 .035)"/></svg>