<svg xmlns="http://www.w3.org/2000/svg" width="24" height="24" viewBox="0 0 6.35 6.35"><defs><radialGradient id="a" cx="0" cy="0" r="1" gradientTransform="rotate(90 1.455 1.72) scale(5.82072)" gradientUnits="userSpaceOnUse"><stop stop-color="#FAFAFA"/><stop offset="1" stop-color="#B0B0B0"/></radialGradient></defs><path fill="url(#a)" fill-rule="evenodd" d="M2.63.283a.312.312 0 0 1-.091.012c-.197.015-.39.047-.582.094-.822.195-1.34.7-1.555 1.517-.1.416-.146.838-.136 1.266-.008.403.031.801.118 1.194.205.873.745 1.407 1.621 1.603.477.097.957.134 1.443.108.432-.007.852-.08 1.26-.218a1.87 1.87 0 0 0 1.095-1.008c.121-.281.2-.574.236-.879.049-.433.059-.867.03-1.302a3.775 3.775 0 0 0-.2-1.012A1.886 1.886 0 0 0 4.77.51a3.581 3.581 0 0 0-1-.224A8.37 8.37 0 0 0 2.63.283z" clip-rule="evenodd" style="fill:url(#a);stroke-width:.264578"/><path fill="#ccc" d="M-10.847.794a.792.792 0 0 0-.794.793v3.97h1.585V1.583a.789.789 0 0 0-.791-.79zm.79 6.356-2.773 2.775a.522.522 0 0 1-.397.173v3.395h.794c.44 0 .793.354.793.794v.794a.793.793 0 1 0 1.585.003V7.15Z" opacity=".9" style="paint-order:stroke fill markers" transform="translate(6.294 1.128) scale(.24558)"/><path fill="#5fd391" d="M-18.256 3.969c-.88 0-1.587.708-1.587 1.587v7.938c0 .879.708 1.587 1.587 1.587h3.44v-.794c0-.44.354-.793.793-.793h1.588c.44 0 .794.354.794.793v.794h4.497c.88 0 1.588-.708 1.588-1.587V5.556c0-.88-.708-1.587-1.588-1.587h-4.497v1.587h1.987c.605 0 .63.561.397.794l-3.574 3.575a.521.521 0 0 1-.398.173.52.52 0 0 1-.397-.173L-17.2 6.35c-.233-.233-.208-.794.398-.794h1.99V3.97Z" style="stroke-width:.26458;paint-order:stroke fill markers" transform="translate(6.294 1.128) scale(.24558)"/><path fill="#f9f9f9" d="M-14.02.794a.792.792 0 0 0-.793.793v3.97h-1.99c-.605 0-.631.56-.397.793l3.574 3.575a.52.52 0 0 0 .397.173.522.522 0 0 0 .398-.173l3.574-3.575c.234-.233.208-.794-.397-.794h-1.987V1.587c0-.44.354-.793.794-.793H-12.7zm-.002 12.7a.792.792 0 0 0-.794.793v.794c0 .44.354.794.794.794h3.175a.792.792 0 0 1-.794-.794v-.794a.792.792 0 0 0-.794-.793z" opacity=".9" style="paint-order:stroke markers fill" transform="translate(6.294 1.128) scale(.24558)"/></svg>