<svg xmlns="http://www.w3.org/2000/svg" width="24" height="24"><defs><radialGradient id="a" cx="0" cy="0" r="1" fx="0" fy="0" gradientTransform="matrix(0 16.5 -16.5 0 9 .75)" gradientUnits="userSpaceOnUse" spreadMethod="pad"><stop offset="0" style="stop-opacity:1;stop-color:#fafafa"/><stop offset="1" style="stop-opacity:1;stop-color:silver"/></radialGradient></defs><path d="M7.195.836c.09 0 .176-.012.258-.035a23.86 23.86 0 0 1 3.231.008 10.26 10.26 0 0 1 2.836.636c1.519.625 2.558 1.711 3.121 3.254.316.93.507 1.887.566 2.867a21.227 21.227 0 0 1-.086 3.696 8.976 8.976 0 0 1-.672 2.488c-.637 1.383-1.672 2.336-3.101 2.859a11.693 11.693 0 0 1-3.575.618 15.998 15.998 0 0 1-4.089-.309c-2.481-.551-4.016-2.066-4.594-4.543a14.244 14.244 0 0 1-.336-3.383c-.027-1.211.101-2.41.387-3.59.609-2.312 2.078-3.746 4.406-4.3A10.27 10.27 0 0 1 7.195.836Z" style="fill:url(#a);fill-rule:evenodd;stroke:none" transform="matrix(1.33333 0 0 1.33333 0 0)"/><path fill="#599ccd" d="M14.706 12.343V6.888L17.985 5.5v7.067c0 .853-3.279.952-3.279-.225z"/><path fill="#7ec183" d="M11.947 18.5c-1.026 0-1.914-.144-2.66-.43-.748-.286-.958-.824-1.424-1.316-.25-.263 2.08.153 3.632-.185 1.49-.308 2.209-1.327 2.457-1.57.502-.49.752-1.325.752-2.502V7.46c1.352.523 3.06 2.309 3.28 4.248v1.015c0 .853-.12 1.634-.359 2.345a4.78 4.78 0 0 1-1.097 1.83c-.494.51-1.12.903-1.88 1.182-.76.28-1.66.418-2.703.418z"/><path fill="#4675ab" d="M13.823 15.307c-.31.585-1.738 2.34-4.47 2.616l-.394.01a4.8 4.8 0 0 1-1.52-1.055 4.736 4.736 0 0 1-1.075-1.82c-.233-.706-.349-1.484-.349-2.335v-1.98l3.28-1.445v3.2c0 .59.066 1.092.201 1.504.133.414.318.75.553 1.01a1.956 1.956 0 0 0 .848.556 3.4 3.4 0 0 0 1.093.168c.806 0 1.46-.246 1.964-.737l-.13.308z"/></svg>