<svg xmlns="http://www.w3.org/2000/svg" xml:space="preserve" width="24" height="24" fill="none"><path fill="url(#a)" fill-rule="evenodd" d="M9.596 1.114c.12 0 .234-.014.344-.046a31.627 31.627 0 0 1 4.307.011c1.301.102 2.561.384 3.78.848 2.025.833 3.412 2.28 4.158 4.339.427 1.24.679 2.514.756 3.824a27.94 27.94 0 0 1-.114 4.923 11.88 11.88 0 0 1-.894 3.32c-.85 1.843-2.229 3.114-4.135 3.813a15.624 15.624 0 0 1-4.765.825 21.423 21.423 0 0 1-5.453-.413c-3.312-.737-5.354-2.756-6.128-6.056a19.047 19.047 0 0 1-.447-4.511 18.491 18.491 0 0 1 .515-4.786c.812-3.086 2.77-4.998 5.877-5.736a13.953 13.953 0 0 1 2.199-.355Z" clip-rule="evenodd"/><defs><radialGradient id="a" cx="0" cy="0" r="1" gradientTransform="matrix(0 22 -22 0 12 1)" gradientUnits="userSpaceOnUse"><stop stop-color="#555"/><stop offset="1" stop-color="#222"/></radialGradient></defs><rect width="10.435" height="1.304" x="8.816" y="17.201" fill="#40bf62" paint-order="stroke markers fill" ry=".653" style="stroke-width:2.46518"/><path fill="#40bf62" d="M5.565 5.368a.65.65 0 0 0-.646.32.65.65 0 0 0 .239.893l7.006 4.043-7.006 4.045a.65.65 0 0 0-.24.893c.183.313.58.419.893.239l7.906-4.566a.64.64 0 0 0 .313-.554c.005-.02.003-.037.005-.055 0-.02 0-.037-.005-.056a.64.64 0 0 0-.313-.553L5.811 5.45a.656.656 0 0 0-.246-.08Z" paint-order="stroke markers fill" style="stroke-width:2.46518"/></svg>