<svg xmlns="http://www.w3.org/2000/svg" width="24" height="24"><defs><radialGradient id="a" cx="0" cy="0" r="1" gradientTransform="rotate(155.136 9.533 3.827) scale(20.7114)" gradientUnits="userSpaceOnUse"><stop offset="0" stop-color="#777" style="stop-color:#276262;stop-opacity:1"/><stop offset="1" stop-color="#333" style="stop-color:#1a4343;stop-opacity:1"/></radialGradient></defs><path fill="url(#a)" fill-rule="evenodd" d="M1 11.563v.003c0 .141.002.283.005.425-.03 1.521.118 3.025.447 4.51.774 3.3 2.816 5.32 6.128 6.057 1.428.294 2.868.442 4.32.442h.012c.373 0 .746-.01 1.12-.03a15.624 15.624 0 0 0 4.766-.824c1.906-.699 3.284-1.97 4.135-3.812a11.88 11.88 0 0 0 .894-3.32c.183-1.638.22-3.28.114-4.924a14.265 14.265 0 0 0-.756-3.824c-.746-2.06-2.133-3.506-4.158-4.34a13.537 13.537 0 0 0-3.78-.847 31.627 31.627 0 0 0-4.307-.011c-.11.032-.224.047-.344.046-.742.06-1.476.178-2.2.355-3.106.738-5.064 2.65-5.876 5.736A18.48 18.48 0 0 0 1 11.563Z" clip-rule="evenodd" style="fill:url(#a)"/><path fill="#6fe19c" fill-rule="evenodd" d="M22.545 16.536a11.9 11.9 0 0 1-.612 1.798c-.85 1.842-2.229 3.113-4.135 3.812a15.624 15.624 0 0 1-4.765.825 21.423 21.423 0 0 1-5.453-.413c-3.312-.737-5.354-2.756-6.128-6.056-.177-.798-.301-1.6-.374-2.408.6-.858 1.011-1.698 1.38-2.45.83-1.692 1.44-2.938 3.492-2.94l-.001.002c.86-.002 1.537.44 2.123 1.1 0 0 .343.481.53.709.016.019.035.035.05.054.374.505.657 1.06.974 1.617.976 1.72 1.95 3.434 3.625 3.44.855.005 1.584-.338 2.284-.708l.786-.408c.551-.275 1.104-.495 1.71-.495.415 0 .912.193 1.35.346.03.01.057.023.084.038 1.088.613 2.434 1.566 3.08 2.137z" clip-rule="evenodd" style="fill:#24b97a;fill-opacity:1"/><path fill="#fff" d="M12.85 3.576 9.515 8.913h2v4.002l3.336-5.337H12.85z" style="fill-rule:evenodd;stroke-width:.145052"/></svg>