<svg xmlns="http://www.w3.org/2000/svg" width="24" height="24"><defs><radialGradient id="a" cx="0" cy="0" r="1" fx="0" fy="0" gradientTransform="matrix(0 16.5 -16.5 0 9 .75)" gradientUnits="userSpaceOnUse" spreadMethod="pad"><stop offset="0" style="stop-opacity:1;stop-color:#a4a4a4"/><stop offset="1" style="stop-opacity:1;stop-color:#626262"/></radialGradient><linearGradient id="b" x1="-240.47" x2="-240.47" y1="-60.605" y2="-29.026" gradientTransform="matrix(.18118 0 0 .17805 52.192 15.631)" gradientUnits="userSpaceOnUse" spreadMethod="pad"><stop offset="0" style="stop-opacity:1;stop-color:#4285db"/><stop offset="1" style="stop-opacity:1;stop-color:#42b9db"/></linearGradient><clipPath id="c" clipPathUnits="userSpaceOnUse"><path d="M0 0h19v19H0Z"/></clipPath></defs><path d="M7.195.836c.09 0 .176-.012.258-.035a23.86 23.86 0 0 1 3.231.008 10.26 10.26 0 0 1 2.836.636c1.519.625 2.558 1.711 3.121 3.254.316.93.507 1.887.566 2.867a21.227 21.227 0 0 1-.086 3.696 8.976 8.976 0 0 1-.672 2.488c-.637 1.383-1.672 2.336-3.101 2.859a11.693 11.693 0 0 1-3.575.618 15.998 15.998 0 0 1-4.089-.309c-2.481-.551-4.016-2.066-4.594-4.543a14.244 14.244 0 0 1-.336-3.383c-.027-1.215.101-2.41.387-3.59.609-2.312 2.078-3.746 4.406-4.3A10.27 10.27 0 0 1 7.195.836Z" style="fill:url(#a);fill-rule:evenodd;stroke:none" transform="matrix(1.33333 0 0 1.33333 0 0)"/><path d="m12 13.73-2.307 1.734c0 2.015-.287 2.015-1.73 2.885l4.037.287 4.036-.292c-1.443-.865-1.73-.865-1.73-2.88z" style="fill:#b3b3b3;fill-opacity:1;fill-rule:nonzero;stroke:none;stroke-width:1.33333"/><path d="M7.964 18.344h8.073v.579H7.964Z" style="fill:#ccc;fill-opacity:1;fill-rule:nonzero;stroke:none;stroke-width:1.33333"/><path d="M5.672 5.432h12.656c.645 0 1.172.527 1.172 1.177v7.688c0 .651-.527 1.172-1.172 1.172H5.672A1.171 1.171 0 0 1 4.5 14.297V6.61c0-.65.526-1.177 1.172-1.177z" style="fill:#303030;fill-opacity:1;fill-rule:nonzero;stroke:none;stroke-width:1.33333"/><path d="M4.312 4.277h9.376a.74.74 0 0 1 .746.739v5.648a.738.738 0 0 1-.746.734H4.312a.738.738 0 0 1-.746-.734V5.016a.74.74 0 0 1 .746-.739z" style="fill:url(#b);stroke:none" transform="matrix(1.33333 0 0 1.33333 0 0)"/><path d="m10.15 14.297 3.626-3.922 3.016 3.922z" style="fill:#1a1a1a;fill-opacity:1;fill-rule:nonzero;stroke:none;stroke-width:1.33333"/><g clip-path="url(#c)" opacity=".9" transform="matrix(1.33333 0 0 1.33333 0 0)"><path d="M7.41 8.934 3.836 11.23a.765.765 0 0 0 .48.172h6.993z" style="fill:#e6e6e6;fill-opacity:1;fill-rule:nonzero;stroke:none"/></g><path d="m8.942 15.203.938-3.291 5.202 3.29z" style="fill:#fafbfb;fill-opacity:1;fill-rule:nonzero;stroke:none;stroke-width:1.33333"/><path d="m13.776 10.073-1.208 1.282v3.848h5.677c.276 0 .52-.104.703-.282z" style="fill:#b0b2b5;fill-opacity:1;fill-rule:nonzero;stroke:none;stroke-width:1.33333"/><path d="m13.776 10.073 1.51 5.13h2.959c.276 0 .52-.104.703-.282z" style="fill:#fff;fill-opacity:1;fill-rule:nonzero;stroke:none;stroke-width:1.33333"/><circle cx="16.917" cy="8.08" r="1.691" fill="#ffdb8a" style="stroke-width:.30755;paint-order:stroke markers fill"/></svg>