<svg xmlns="http://www.w3.org/2000/svg" width="24" height="24" viewBox="0 0 6.35 6.35"><defs><radialGradient id="a" cx="0" cy="0" r="1" gradientTransform="rotate(90 1.455 1.72) scale(5.82072)" gradientUnits="userSpaceOnUse"><stop offset="0" stop-color="#7286F2" style="stop-color:#a2b3fa;stop-opacity:1"/><stop offset="1" stop-color="#4A5ECA" style="stop-color:#6d89f9;stop-opacity:1"/></radialGradient></defs><path fill="url(#a)" fill-rule="evenodd" d="M2.539.295a.312.312 0 0 0 .09-.012c.38-.025.76-.024 1.14.003.345.026.678.101 1 .224.536.22.903.603 1.1 1.148.114.328.18.665.2 1.012.029.435.019.869-.03 1.302a3.144 3.144 0 0 1-.236.879 1.87 1.87 0 0 1-1.094 1.008c-.409.139-.83.211-1.26.219a5.668 5.668 0 0 1-1.444-.11C1.13 5.773.59 5.24.385 4.366a5.04 5.04 0 0 1-.12-1.194c-.009-.428.037-.85.137-1.266C.617 1.09 1.135.584 1.957.39c.192-.047.385-.079.582-.094Z" clip-rule="evenodd" style="fill:url(#a);stroke-width:.24253"/><path fill="#fff" d="M4.695 2.132a.175.175 0 0 0-.065.015 9.164 9.164 0 0 0-.612.518c-.04.04-.077.068-.077.134l-.001.376v.376c0 .066.037.094.078.134.118.115.574.5.612.518a.18.18 0 0 0 .065.016.2.2 0 0 0 .174-.094s.026-.036.026-.076V2.3c0-.04-.026-.076-.026-.076a.2.2 0 0 0-.174-.094Zm-2.781-.008H3.29a.46.46 0 0 1 .458.462v1.178a.46.46 0 0 1-.458.462H1.914a.46.46 0 0 1-.459-.462V2.586a.46.46 0 0 1 .459-.462z"/><path d="M4.901 3.006A2.263 2.263 0 0 0 2.64 5.27a2.263 2.263 0 0 0 .153.803c.218.014.437.016.656.005.432-.008.852-.08 1.26-.219a1.87 1.87 0 0 0 1.095-1.008c.121-.281.2-.574.236-.879a7.4 7.4 0 0 0 .043-.633 2.263 2.263 0 0 0-1.18-.333Z" style="fill:#4d4d4d;fill-opacity:1;stroke-width:.24253"/><path d="M4.205 4.138a.435.435 0 0 0 0 .87.43.43 0 0 0 .212-.06l.343.321-.342.321a.43.43 0 0 0-.213-.06.435.435 0 0 0-.405.526c.085-.008.17-.02.255-.034a.174.174 0 0 1 .15-.23.174.174 0 0 1 .185.161c.077-.02.153-.041.228-.065a.435.435 0 0 0 .006-.037l.37-.358.153.144c.09-.06.172-.128.248-.202l-.771-.748a.435.435 0 0 0-.42-.55Zm1.567.174-.686.647.229.224.575-.559c.035-.102.063-.206.088-.312zM4.205 4.4a.174.174 0 0 1 0 .348.174.174 0 0 1 0-.348z" style="fill:#fff;stroke-width:.24253"/></svg>