<svg xmlns="http://www.w3.org/2000/svg" width="24" height="24"><defs><radialGradient id="a" cx="0" cy="0" r="1" fx="0" fy="0" gradientTransform="matrix(0 16.5 -16.5 0 9 .75)" gradientUnits="userSpaceOnUse" spreadMethod="pad"><stop offset="0" style="stop-opacity:1;stop-color:#a4a4a4"/><stop offset="1" style="stop-opacity:1;stop-color:#626262"/></radialGradient></defs><g style="fill:none"><path d="M7.195.836c.09 0 .176-.012.258-.035a23.86 23.86 0 0 1 3.231.008 10.26 10.26 0 0 1 2.836.636c1.519.625 2.558 1.711 3.121 3.254.316.93.507 1.887.566 2.867a21.227 21.227 0 0 1-.086 3.696 8.976 8.976 0 0 1-.672 2.488c-.637 1.383-1.672 2.336-3.101 2.859a11.693 11.693 0 0 1-3.575.618 15.998 15.998 0 0 1-4.089-.309c-2.481-.551-4.016-2.066-4.594-4.543a14.244 14.244 0 0 1-.336-3.383c-.027-1.215.101-2.41.387-3.59.609-2.312 2.078-3.746 4.406-4.3A10.27 10.27 0 0 1 7.195.836Z" style="fill:url(#a);fill-rule:evenodd;stroke:none" transform="matrix(1.33333 0 0 1.33333 0 0)"/></g><path fill="#5397e9" d="M16.739 21.434v21.13H47.26v-21.13Zm7.043 1.174h2.348v2.348h-2.348zm4.696 0h2.348v2.348h-2.348zm4.695 0h2.348v2.348h-2.348zm4.696 0h2.348v2.348h-2.348ZM23.782 39.043h2.348v2.348h-2.348zm4.696 0h2.348v2.348h-2.348zm4.695 0h2.348v2.348h-2.348zm4.696 0h2.348v2.348h-2.348z" style="stroke-width:1.1739" transform="translate(-1.63 -1.63) scale(.42593)"/><path fill="#fff" d="M16.739 26.13v11.74h8.217V26.13zm10.565 0v11.74h9.391V26.13zm11.739 0v11.74h8.217V26.13z" style="stroke-width:1.1739" transform="translate(-1.63 -1.63) scale(.42593)"/><path fill="#f9e37d" d="M21.434 17.913v28.173h4.696V43.74h-2.348V20.26h2.348v-2.348zm16.435 0v2.348h2.348v23.478h-2.348v2.347h4.696V17.913Z" style="stroke-width:1.1739" transform="translate(-1.63 -1.63) scale(.42593)"/></svg>