<svg xmlns="http://www.w3.org/2000/svg" xmlns:xlink="http://www.w3.org/1999/xlink" xml:space="preserve" id="svg154" width="24" height="24" fill="none" version="1.1"><defs id="defs152"><linearGradient id="linearGradient488"><stop id="stop484" offset="0" style="stop-color:#535353;stop-opacity:1"/><stop id="stop486" offset="1" style="stop-color:gray;stop-opacity:1"/></linearGradient><linearGradient id="linearGradient29319"><stop id="stop29317" offset="0" style="stop-color:#d2d8db;stop-opacity:1"/></linearGradient><linearGradient id="fffff"><stop id="stop28389" offset="0" style="stop-color:#fff;stop-opacity:1"/></linearGradient><linearGradient xlink:href="#linearGradient488" id="linearGradient490" x1="52.978" x2="50.989" y1="96.007" y2="9.226" gradientTransform="matrix(.24444 0 0 .24444 -.222 -.222)" gradientUnits="userSpaceOnUse"/><linearGradient id="linearGradient8792"><stop id="stop8790" offset="0" style="stop-color:#000;stop-opacity:1"/></linearGradient><style id="current-color-scheme" type="text/css">.ColorScheme-Text{color:#31363b}.ColorScheme-Background{color:#eff0f1}.ColorScheme-Highlight{color:#3daee9}.ColorScheme-ViewText{color:#31363b}.ColorScheme-ViewBackground{color:#fcfcfc}.ColorScheme-ViewHover{color:#93cee9}.ColorScheme-ViewFocus{color:#3daee9}.ColorScheme-ButtonText{color:#31363b}.ColorScheme-ButtonBackground{color:#eff0f1}.ColorScheme-ButtonHover{color:#93cee9}.ColorScheme-ButtonFocus{color:#3daee9}</style></defs><path id="path6" d="M12 1C2 1 1 6 1 12c0 8 3 11 11 11s11-3 11-11c0-6-1-11-11-11Z" style="font-variation-settings:normal;display:inline;opacity:1;vector-effect:none;fill:url(#linearGradient490);fill-opacity:1;stroke-width:1.11627;stroke-linecap:butt;stroke-linejoin:miter;stroke-miterlimit:4;stroke-dasharray:none;stroke-dashoffset:0;stroke-opacity:1;-inkscape-stroke:none;stop-color:#000;stop-opacity:1"/><g id="g16160" transform="matrix(.94525 0 0 .94525 3.997 3.996)"><path id="path16145" fill="#4caf50" fill-rule="evenodd" d="M8.448 1.588a1.251 1.251 0 0 0-.866.366L1.954 7.583a1.25 1.25 0 0 0 0 1.768l5.628 5.629a1.25 1.25 0 0 0 1.769 0l5.628-5.629a1.25 1.25 0 0 0 0-1.768L9.351 1.954a1.25 1.25 0 0 0-.903-.366Z" font-family="sans-serif" font-weight="400" overflow="visible" style="text-indent:0;text-decoration-line:none;text-decoration-style:solid;text-decoration-color:#000;text-transform:none;white-space:normal;isolation:auto;mix-blend-mode:normal"/><path id="path16147" fill="#fff" fill-rule="evenodd" stroke="#000" stroke-opacity=".098" stroke-width=".265" d="M3.464 3.464c-.313 0-.313.312-.313.312v1.251s0 .315.313.313l.312-.002v7.505c0 .346.28.625.626.625h.957c.033-.012 6.946-7.055 7.994-8.13l.117.002c.312.006.312-.313.312-.313v-1.25c0-.313-.312-.313-.312-.313H9.717s-.312 0-.312.312v1.251c0 .313.312.313.312.313s.313 0 .294-.002L6.903 8.467v-3.13l.313.003c.313.002.313-.313.313-.313v-1.25c0-.347-.313-.313-.313-.313Z" paint-order="markers stroke fill"/><path id="path16149" fill="#fff" stroke="#000" stroke-opacity=".098" stroke-width=".265" d="M8.607 13.517h.629l.482-2.41h-.629Zm.878-2.797a.446.446 0 0 0 .444-.345c.043-.206-.09-.344-.306-.344a.443.443 0 0 0-.448.344c-.038.198.09.345.31.345zm.434 2.797h.628l.332-1.657c.206-.18.383-.27.52-.27.228 0 .306.133.233.503l-.284 1.424h.632l.332-1.657c.206-.18.383-.27.52-.27.229 0 .306.133.233.503l-.284 1.424h.633l.301-1.502c.12-.607-.043-.968-.555-.968-.314 0-.586.19-.852.422-.06-.267-.233-.422-.577-.422-.314 0-.573.172-.818.383h-.017l.021-.323h-.516z" aria-label="im" font-family="sans-serif" font-size="4.304" font-style="italic" font-weight="700" letter-spacing="0" paint-order="markers stroke fill" word-spacing="0"/></g></svg>