<svg xmlns="http://www.w3.org/2000/svg" width="24" height="24" viewBox="0 0 6.35 6.35"><defs><radialGradient id="a" cx="0" cy="0" r="1" fx="0" fy="0" gradientTransform="matrix(0 16.5 -16.5 0 9 .75)" gradientUnits="userSpaceOnUse" spreadMethod="pad"><stop offset="0" style="stop-opacity:1;stop-color:#a4a4a4"/><stop offset="1" style="stop-opacity:1;stop-color:#626262"/></radialGradient></defs><g style="fill:none"><path d="M7.195.836c.09 0 .176-.012.258-.035a23.86 23.86 0 0 1 3.231.008 10.26 10.26 0 0 1 2.836.636c1.519.625 2.558 1.711 3.121 3.254.316.93.507 1.887.566 2.867a21.227 21.227 0 0 1-.086 3.696 8.976 8.976 0 0 1-.672 2.488c-.637 1.383-1.672 2.336-3.101 2.859a11.693 11.693 0 0 1-3.575.618 15.998 15.998 0 0 1-4.089-.309c-2.481-.551-4.016-2.066-4.594-4.543a14.244 14.244 0 0 1-.336-3.383c-.027-1.215.101-2.41.387-3.59.609-2.312 2.078-3.746 4.406-4.3A10.27 10.27 0 0 1 7.195.836Z" style="fill:url(#a);fill-rule:evenodd;stroke:none" transform="scale(.35277)"/></g><path d="M4.885 3.02a2.249 2.249 0 0 0-2.249 2.25 2.249 2.249 0 0 0 .15.806c.22.014.443.016.666.004.432-.007.851-.08 1.26-.218a1.87 1.87 0 0 0 1.095-1.009c.12-.28.2-.574.236-.878.022-.202.036-.405.042-.607a2.249 2.249 0 0 0-1.2-.348Z" style="fill:#4fcf71;fill-opacity:1;fill-rule:evenodd;stroke-width:.12494;paint-order:fill markers stroke"/><path d="M4.495 3.676v1.327h-.531l.75.858a1.86 1.86 0 0 0 1.016-.858h-.44V3.676Z" style="fill:#fff;fill-opacity:1;stroke-width:.132683"/><g transform="matrix(.25926 0 0 .25926 3.299 -.025)"><rect width="14.287" height="11.112" x="-7.621" y="6.788" fill="#2e2e2e" rx=".318" ry=".337"/><path fill="#585858" d="M-6.827 7.582h12.7v9.525h-12.7Z"/></g><path d="M4.855 2.995A2.236 2.236 0 0 0 2.618 5.23a2.236 2.236 0 0 0 .17.842c.22.015.439.016.66.004.432-.007.853-.08 1.26-.218.505-.185.87-.52 1.095-1.008.121-.281.2-.574.237-.878.023-.204.036-.408.042-.612a2.236 2.236 0 0 0-1.227-.366Z" style="fill:#64cc5f;fill-opacity:1;fill-rule:evenodd;stroke:none;stroke-width:.352771"/><path d="M3.923 4.11v.187a.187.187 0 0 0 .187.187 1.677 1.677 0 0 1 1.425.799c.084-.103.158-.216.222-.34A2.05 2.05 0 0 0 4.11 4.11Zm0 .747v.187a.187.187 0 0 0 .187.186.93.93 0 0 1 .837.525c.114-.058.22-.126.316-.203a1.304 1.304 0 0 0-1.153-.695Zm.373.746a.373.373 0 0 0-.339.434 4.13 4.13 0 0 0 .723-.169.373.373 0 0 0-.384-.265Z" style="fill:#fff;fill-rule:evenodd;stroke:none;stroke-width:.352771"/></svg>