<?xml version="1.0" encoding="UTF-8" standalone="no"?>
<svg
   width="24"
   height="24"
   fill="none"
   version="1.1"
   id="svg16"
   sodipodi:docname="visual-studio-code-insiders.svg"
   inkscape:export-filename="visual-studio-code-insiders.pdf"
   inkscape:export-xdpi="96"
   inkscape:export-ydpi="96"
   xml:space="preserve"
   inkscape:version="1.3 (0e150ed6c4, 2023-07-21)"
   xmlns:inkscape="http://www.inkscape.org/namespaces/inkscape"
   xmlns:sodipodi="http://sodipodi.sourceforge.net/DTD/sodipodi-0.dtd"
   xmlns:xlink="http://www.w3.org/1999/xlink"
   xmlns="http://www.w3.org/2000/svg"
   xmlns:svg="http://www.w3.org/2000/svg"><sodipodi:namedview
     id="namedview16"
     pagecolor="#ffffff"
     bordercolor="#000000"
     borderopacity="0.25"
     inkscape:showpageshadow="2"
     inkscape:pageopacity="0.0"
     inkscape:pagecheckerboard="0"
     inkscape:deskcolor="#d1d1d1"
     inkscape:zoom="16.985294"
     inkscape:cx="19.104762"
     inkscape:cy="17.279654"
     inkscape:window-width="3440"
     inkscape:window-height="1358"
     inkscape:window-x="2560"
     inkscape:window-y="0"
     inkscape:window-maximized="1"
     inkscape:current-layer="g1"><inkscape:page
       x="0"
       y="0"
       width="24"
       height="24"
       id="page16"
       margin="0"
       bleed="0" /></sodipodi:namedview><defs
     id="defs4"><radialGradient
       id="a"
       cx="0"
       cy="0"
       r="1"
       gradientTransform="matrix(0,22,-22,0,12,1)"
       gradientUnits="userSpaceOnUse"><stop
         offset="0"
         stop-color="#8FC8FF"
         style="stop-color:#f4f4f4;stop-opacity:1"
         id="stop1" /><stop
         offset=".997"
         stop-color="#0056A8"
         style="stop-color:#c2c2c2;stop-opacity:1"
         id="stop2" /></radialGradient><radialGradient
       id="b"
       cx="0"
       cy="0"
       r="1"
       gradientTransform="matrix(0,22,-22,0,12,1)"
       gradientUnits="userSpaceOnUse"><stop
         offset="0"
         stop-color="#8FC8FF"
         style="stop-color:#f6f6f6;stop-opacity:1"
         id="stop3" /><stop
         offset="1"
         stop-color="#0056A8"
         style="stop-color:#cfcfcf;stop-opacity:1"
         id="stop4" /></radialGradient><radialGradient
       xlink:href="#a"
       id="c"
       cx="0.17900001"
       cy="-1.748"
       r="1"
       fx="0.17900001"
       fy="-1.748"
       gradientTransform="matrix(0,90.05947,-90.00681,0,-107.37,-11.19)"
       gradientUnits="userSpaceOnUse" /><radialGradient
       fx="0.17900001"
       fy="-1.748"
       cx="0.17900001"
       cy="-1.748"
       r="1"
       gradientUnits="userSpaceOnUse"
       gradientTransform="matrix(0,16.510603,-16.500949,0,-19.850642,-2.217963)"
       spreadMethod="pad"
       id="radialGradient3"><stop
         style="stop-opacity:1;stop-color:#f4f4f4"
         offset="0"
         id="stop1-3" /><stop
         style="stop-opacity:1;stop-color:#c2c2c2"
         offset="0.997"
         id="stop2-6" /><stop
         style="stop-opacity:1;stop-color:#c2c2c2"
         offset="1"
         id="stop3-7" /></radialGradient><radialGradient
       fx="0.17900001"
       fy="-1.748"
       cx="0.17900001"
       cy="-1.748"
       r="1"
       gradientUnits="userSpaceOnUse"
       gradientTransform="matrix(0,22.014137,-22.001265,0,-60.467519,-2.9572834)"
       spreadMethod="pad"
       id="radialGradient3-3"><stop
         style="stop-opacity:1;stop-color:#f4f4f4"
         offset="0"
         id="stop1-3-5" /><stop
         style="stop-opacity:1;stop-color:#c2c2c2"
         offset="0.997"
         id="stop2-6-6" /><stop
         style="stop-opacity:1;stop-color:#c2c2c2"
         offset="1"
         id="stop3-7-2" /></radialGradient><radialGradient
       fx="0.17900001"
       fy="-1.748"
       cx="0.17900001"
       cy="-1.748"
       r="1"
       gradientUnits="userSpaceOnUse"
       gradientTransform="matrix(0,22.014137,-22.001265,0,-35.467522,3.0427161)"
       spreadMethod="pad"
       id="radialGradient3-2"><stop
         style="stop-opacity:1;stop-color:#f4f4f4"
         offset="0"
         id="stop1-3-7" /><stop
         style="stop-opacity:1;stop-color:#c2c2c2"
         offset="0.997"
         id="stop2-6-0" /><stop
         style="stop-opacity:1;stop-color:#c2c2c2"
         offset="1"
         id="stop3-7-9" /></radialGradient></defs><g
     id="g1"
     inkscape:groupmode="layer"
     inkscape:label="1"
     transform="translate(34)"><g
       id="g17"
       transform="translate(-25,-5.9999995)"><path
         id="path3"
         d="M 2.9999997,7 C -7,7 -8,12 -8,18 -8,26 -5.0000001,28.999999 2.9999997,28.999999 11,28.999999 13.999999,26 13.999999,18 c 0,-6 -1,-11 -10.9999993,-11 z"
         style="fill:url(#radialGradient3-2);stroke:none;stroke-width:1.33333" /><path
         id="path4-5"
         d="m 6.1559996,11.74 c -0.1613333,0.01467 -0.312,0.06667 -0.4426666,0.145333 C 5.9426663,12.14 5.4839996,14.536 6.057333,14.86 l 0.4479999,0.254666 v 5.770667 L 5.8026663,21.364 c -0.5426667,0.365333 0.046667,2.469333 -0.094667,2.74 0.156,0.08933 0.3906667,0.182666 0.5986667,0.156 0.068,-0.0053 0.136,-0.02533 0.1986666,-0.052 l 2.8693333,-1.26 C 9.6879995,22.806666 9.9999995,22.693333 9.9999995,22.38 v -8.76 c 0,-0.313334 -0.312,-0.426667 -0.6253333,-0.562667 L 6.5053329,11.792 C 6.3959996,11.745333 6.2759996,11.724 6.1559996,11.74 Z"
         style="fill:#32ca70;fill-opacity:1;fill-rule:evenodd;stroke:none;stroke-width:1.33333" /><path
         id="path5"
         d="m -3.7973335,19.754666 9.3333331,-7.749333 c 0.4226667,-0.354666 0.9693333,-0.229333 0.9693333,0.5 v 2.609333 l -8.6253331,5.926667 c -0.1506666,0.104 -0.5413333,0.36 -0.8853333,0.068 L -3.8746668,20.364 c -0.2346667,-0.197334 -0.098667,-0.457334 0.077333,-0.609334 z"
         style="fill:#137c42;fill-opacity:1;fill-rule:evenodd;stroke:none;stroke-width:1.33333" /><path
         id="path6"
         d="m -3.7973335,16.245333 9.3333331,7.749333 c 0.4226667,0.349334 0.9693333,0.224 0.9693333,-0.505333 v -2.604 l -8.6253331,-5.932 c -0.1506666,-0.104 -0.5413333,-0.36 -0.8853333,-0.068 L -3.8746668,15.636 c -0.2346667,0.192 -0.098667,0.457333 0.077333,0.609333 z"
         style="fill:#259f58;fill-opacity:1;fill-rule:evenodd;stroke:none;stroke-width:1.33333" /></g></g></svg>
