<?xml version="1.0" encoding="UTF-8" standalone="no"?>
<svg
   width="24"
   height="24"
   fill="none"
   version="1.1"
   id="svg16"
   sodipodi:docname="vscode.svg"
   inkscape:export-filename="vscode.pdf"
   inkscape:export-xdpi="96"
   inkscape:export-ydpi="96"
   xml:space="preserve"
   inkscape:version="1.3 (0e150ed6c4, 2023-07-21)"
   xmlns:inkscape="http://www.inkscape.org/namespaces/inkscape"
   xmlns:sodipodi="http://sodipodi.sourceforge.net/DTD/sodipodi-0.dtd"
   xmlns:xlink="http://www.w3.org/1999/xlink"
   xmlns="http://www.w3.org/2000/svg"
   xmlns:svg="http://www.w3.org/2000/svg"><sodipodi:namedview
     id="namedview16"
     pagecolor="#ffffff"
     bordercolor="#000000"
     borderopacity="0.25"
     inkscape:showpageshadow="2"
     inkscape:pageopacity="0.0"
     inkscape:pagecheckerboard="0"
     inkscape:deskcolor="#d1d1d1"
     inkscape:zoom="12.010417"
     inkscape:cx="-23.313096"
     inkscape:cy="12.281006"
     inkscape:window-width="3440"
     inkscape:window-height="1358"
     inkscape:window-x="2560"
     inkscape:window-y="0"
     inkscape:window-maximized="1"
     inkscape:current-layer="svg16"><inkscape:page
       x="0"
       y="0"
       width="24"
       height="24"
       id="page16"
       margin="0"
       bleed="0" /></sodipodi:namedview><defs
     id="defs4"><radialGradient
       id="a"
       cx="0"
       cy="0"
       r="1"
       gradientTransform="matrix(0,22,-22,0,12,1)"
       gradientUnits="userSpaceOnUse"><stop
         offset="0"
         stop-color="#8FC8FF"
         style="stop-color:#f4f4f4;stop-opacity:1"
         id="stop1" /><stop
         offset=".997"
         stop-color="#0056A8"
         style="stop-color:#c2c2c2;stop-opacity:1"
         id="stop2" /></radialGradient><radialGradient
       id="b"
       cx="0"
       cy="0"
       r="1"
       gradientTransform="matrix(0,22,-22,0,12,1)"
       gradientUnits="userSpaceOnUse"><stop
         offset="0"
         stop-color="#8FC8FF"
         style="stop-color:#f6f6f6;stop-opacity:1"
         id="stop3" /><stop
         offset="1"
         stop-color="#0056A8"
         style="stop-color:#cfcfcf;stop-opacity:1"
         id="stop4" /></radialGradient><radialGradient
       xlink:href="#a"
       id="c"
       cx="0.17900001"
       cy="-1.748"
       r="1"
       fx="0.17900001"
       fy="-1.748"
       gradientTransform="matrix(0,22.014137,-22.001265,0,-26.467523,-2.9572836)"
       gradientUnits="userSpaceOnUse" /><radialGradient
       fx="0.17900001"
       fy="-1.748"
       cx="0.17900001"
       cy="-1.748"
       r="1"
       gradientUnits="userSpaceOnUse"
       gradientTransform="matrix(0,16.510603,-16.500949,0,-19.850642,-2.217963)"
       spreadMethod="pad"
       id="radialGradient3"><stop
         style="stop-opacity:1;stop-color:#f4f4f4"
         offset="0"
         id="stop1-6" /><stop
         style="stop-opacity:1;stop-color:#c2c2c2"
         offset="0.997"
         id="stop2-0" /><stop
         style="stop-opacity:1;stop-color:#c2c2c2"
         offset="1"
         id="stop3-6" /></radialGradient><radialGradient
       fx="0.17900001"
       fy="-1.748"
       cx="0.17900001"
       cy="-1.748"
       r="1"
       gradientUnits="userSpaceOnUse"
       gradientTransform="matrix(0,22.014137,-22.001265,0,-3.467522,15.042716)"
       spreadMethod="pad"
       id="radialGradient3-6"><stop
         style="stop-opacity:1;stop-color:#f4f4f4"
         offset="0"
         id="stop1-6-1" /><stop
         style="stop-opacity:1;stop-color:#c2c2c2"
         offset="0.997"
         id="stop2-0-8" /><stop
         style="stop-opacity:1;stop-color:#c2c2c2"
         offset="1"
         id="stop3-6-7" /></radialGradient></defs><g
     id="g1"
     inkscape:groupmode="layer"
     inkscape:label="1"
     transform="translate(34)" /><g
     id="g17"
     transform="translate(-23,-18)"><path
       id="path3"
       d="M 35,19 C 25,19 24,24 24,30 24,38 27,40.999999 35,40.999999 43,40.999999 45.999999,38 45.999999,30 c 0,-6 -1,-11 -10.999999,-11 z"
       style="fill:url(#radialGradient3-6);stroke:none;stroke-width:1.33333" /><path
       id="path4-2"
       d="m 38.156,23.854667 c -0.161334,0.01467 -0.312,0.06667 -0.442667,0.145333 0.229333,0.250667 -0.229333,2.598666 0.344,2.917333 l 0.448,0.249333 v 5.666667 l -0.702667,0.464 C 37.26,33.656 37.849333,35.724 37.708,35.989333 c 0.156,0.08933 0.390666,0.177333 0.598666,0.156 0.068,-0.0093 0.136,-0.02533 0.198667,-0.052 l 2.869333,-1.238667 C 41.688,34.718666 42,34.604 42,34.297333 v -8.594667 c 0,-0.306666 -0.312,-0.421333 -0.625334,-0.552 L 38.505333,23.906667 C 38.396,23.86 38.276,23.844 38.156,23.86 Z"
       style="fill:#35a0f3;fill-opacity:1;fill-rule:evenodd;stroke:none;stroke-width:1.33333" /><path
       id="path5"
       d="M 28.202667,31.718666 37.536,24.114667 c 0.422666,-0.344 0.969333,-0.218667 0.969333,0.494666 v 2.557333 L 29.88,32.984 c -0.150667,0.104 -0.541333,0.354666 -0.885333,0.068 l -0.869334,-0.734667 c -0.234666,-0.192 -0.09867,-0.448 0.07733,-0.598667 z"
       style="fill:#115fb7;fill-opacity:1;fill-rule:evenodd;stroke:none;stroke-width:1.33333" /><path
       id="path6"
       d="M 28.202667,28.276 37.536,35.88 c 0.422666,0.344 0.969333,0.224 0.969333,-0.489334 V 32.828 L 29.88,27.010666 c -0.150667,-0.104 -0.541333,-0.354666 -0.885333,-0.068 l -0.869334,0.734667 c -0.234666,0.192 -0.09867,0.453333 0.07733,0.598667 z"
       style="fill:#1a81da;fill-opacity:1;fill-rule:evenodd;stroke:none;stroke-width:1.33333" /></g></svg>
