<svg xmlns="http://www.w3.org/2000/svg" xml:space="preserve" width="24" height="24" viewBox="0 0 6.35 6.35"><defs><radialGradient id="a" cx="0" cy="0" r="1" gradientTransform="rotate(90 1.455 1.72) scale(2.91036)" gradientUnits="userSpaceOnUse"><stop offset="0" stop-color="#F08C85" style="stop-color:#ffcac6;stop-opacity:1"/><stop offset="1" stop-color="#E84F43" style="stop-color:#e14444;stop-opacity:1"/></radialGradient></defs><path fill="url(#a)" fill-rule="evenodd" d="M2.539.295a.312.312 0 0 0 .09-.012c.38-.025.76-.024 1.14.003.345.026.678.101 1 .224.536.22.903.603 1.1 1.148.114.328.18.665.2 1.012.029.435.019.869-.03 1.302a3.143 3.143 0 0 1-.236.879 1.87 1.87 0 0 1-1.094 1.008c-.409.139-.829.211-1.26.219a5.668 5.668 0 0 1-1.444-.11C1.13 5.773.59 5.24.385 4.366a5.04 5.04 0 0 1-.12-1.194c-.009-.428.037-.85.137-1.266C.617 1.09 1.135.584 1.957.39c.191-.047.385-.079.582-.094Z" clip-rule="evenodd" style="fill:url(#a);stroke-width:.264578"/><path fill="#fff" fill-rule="evenodd" d="m1.264 2.03 1.597 2.835s.087.152.304.152.303-.152.303-.152 1.11-1.709 1.562-2.62c.046-.091.095-.185.116-.284a.482.484 0 0 0 .004-.21.445.448 0 0 0-.12-.224.475.477 0 0 0-.268-.117.556.559 0 0 0-.308.062.404.406 0 0 0-.16.156.49.493 0 0 0-.05.216.585.588 0 0 0 .033.201c.015.042.034.082.05.123.012.034.03.067.034.104a.37.371 0 0 1-.016.175c-.104.265-.284.52-.521.676a.67.67 0 0 1-.34.085c-.134.007-.288-.004-.397-.064-.108-.059-.159-.162-.227-.253-.311-.415-.82-1.327-.82-1.327s-.222-.393-.62-.155c-.399.239-.156.62-.156.62Z" style="stroke-width:.535686"/></svg>