<svg xmlns="http://www.w3.org/2000/svg" width="24" height="24" fill="none"><path fill="#fff" fill-rule="evenodd" d="M3.794 20.708c-1.146-1.033-1.927-2.435-2.343-4.206-.095-.43-.175-.861-.24-1.294h21.591a11.876 11.876 0 0 1-.869 3.126c-.434.94-1.006 1.732-1.715 2.374H3.794Z" clip-rule="evenodd"/><path fill="url(#a)" fill-rule="evenodd" d="M11.983 1c-.68 0-1.362.023-2.043.067-.11.032-.224.048-.344.046-.743.06-1.476.178-2.2.355-3.106.739-5.065 2.65-5.876 5.737a18.491 18.491 0 0 0-.515 4.786 19.052 19.052 0 0 0 .206 3.217h21.591l.025-.195c.108-.971.166-1.944.173-2.917v-.38a28.05 28.05 0 0 0-.059-1.626 14.265 14.265 0 0 0-.756-3.824c-.746-2.06-2.132-3.506-4.158-4.34a13.537 13.537 0 0 0-3.78-.847 31.657 31.657 0 0 0-2.212-.08h-.052Zm8.235 19.708H3.794c.99.892 2.252 1.509 3.786 1.85 1.425.294 2.861.441 4.31.442h.032c.37 0 .74-.01 1.11-.03a15.622 15.622 0 0 0 4.766-.823 7.306 7.306 0 0 0 2.42-1.439Z" clip-rule="evenodd"/><path fill="#fff" fill-rule="evenodd" d="M10.044 4.665A1.223 1.223 0 0 0 8.79 5.887v5.649c0 .939 1.02 1.526 1.835 1.056l4.89-2.822a1.224 1.224 0 0 0 0-2.118l-4.89-2.824a1.226 1.226 0 0 0-.582-.163Z" clip-rule="evenodd"/><path fill="#000" d="M20.249 17.498h-6.415a.459.459 0 1 0 0 .917h6.415a.459.459 0 1 0 0-.917Z" opacity=".25"/><path fill="#FFB32B" d="M12.916 17.498H3.75a.459.459 0 1 0 0 .917h9.166a.459.459 0 1 0 0-.917Z"/><path fill="#fff" d="M13.375 19.333a1.375 1.375 0 1 0 0-2.75 1.375 1.375 0 0 0 0 2.75Z"/><defs><linearGradient id="a" x1="12" x2="12" y1="1" y2="12" gradientUnits="userSpaceOnUse"><stop stop-color="#FFD996"/><stop offset="1" stop-color="#FFB32B"/></linearGradient></defs></svg>