<svg xmlns="http://www.w3.org/2000/svg" xml:space="preserve" id="svg55904" width="24" height="24" image-rendering="optimizeSpeed" version="1.1"><defs id="defs55908"><radialGradient id="paint0_radial_2_129" cx="0" cy="0" r="1" gradientTransform="matrix(0 5.82083 -5.82083 0 3.175 .265)" gradientUnits="userSpaceOnUse"><stop id="stop8838" stop-color="#FAFAFA"/><stop id="stop8840" offset="1" stop-color="#B0B0B0"/></radialGradient><radialGradient id="paint0_radial_29_149" cx="0" cy="0" r="1" gradientTransform="rotate(90 11.028 15.631) scale(8.4665)" gradientUnits="userSpaceOnUse"><stop id="stop17930" stop-color="#80D2FF"/><stop id="stop17932" offset="1" stop-color="#2991C9" style="stop-color:#002a43;stop-opacity:1"/></radialGradient><radialGradient id="paint0_radial_29_23" cx="0" cy="0" r="1" gradientTransform="matrix(0 22 -22 0 12 1)" gradientUnits="userSpaceOnUse"><stop id="stop6475" stop-color="#8FC8FF"/><stop id="stop6477" offset="1" stop-color="#0056A8"/></radialGradient><radialGradient id="paint0_radial_1_40" cx="0" cy="0" r="1" gradientTransform="matrix(0 6.34987 -6.34987 0 -13.042 2.168)" gradientUnits="userSpaceOnUse"><stop id="stop7711" stop-color="#C2E5FF"/><stop id="stop7713" offset="1" stop-color="#3276AA"/></radialGradient><radialGradient id="radialGradient77554" cx="0" cy="0" r="1" fx="0" fy="0" gradientTransform="matrix(0 16.5 -16.5 0 9 .75)" gradientUnits="userSpaceOnUse" spreadMethod="pad"><stop id="stop77550" offset="0" style="stop-opacity:1;stop-color:#fafafa"/><stop id="stop77552" offset="1" style="stop-opacity:1;stop-color:#b0b0b0"/></radialGradient><radialGradient id="radialGradient77554-8" cx="0" cy="0" r="1" fx="0" fy="0" gradientTransform="matrix(0 22 -22 0 12 1)" gradientUnits="userSpaceOnUse" spreadMethod="pad"><stop id="stop77550-1" offset="0" style="stop-color:#ffd774;stop-opacity:1"/><stop id="stop77552-2" offset="1" style="stop-color:#ffbc01;stop-opacity:1"/></radialGradient><clipPath id="clipPath77564" clipPathUnits="userSpaceOnUse"><path id="path77562" d="M0 0h19v19H0Z"/></clipPath><clipPath id="clipPath77564-9" clipPathUnits="userSpaceOnUse"><path id="path77562-3" d="M0 0h19v19H0Z"/></clipPath><clipPath id="clipPath5161" clipPathUnits="userSpaceOnUse"><path id="path5159" d="M0 0h19v19H0Z"/></clipPath><clipPath id="clipPath5161-7" clipPathUnits="userSpaceOnUse"><path id="path5159-5" d="M0 0h19v19H0Z"/></clipPath><linearGradient id="paint0_linear_3_200" x1="12" x2="12" y1="1" y2="12" gradientUnits="userSpaceOnUse"><stop id="stop14" offset="0" stop-color="#FFD996" style="stop-color:#a4fcc0;stop-opacity:1"/><stop id="stop16" offset="1" stop-color="#FFB32B" style="stop-color:#6cce86;stop-opacity:1"/></linearGradient><linearGradient id="linearGradient5149" x1="12" x2="12" y1="1" y2="12" gradientTransform="scale(.75)" gradientUnits="userSpaceOnUse" spreadMethod="pad"><stop id="stop5145" offset="0" style="stop-opacity:1;stop-color:#a4fcc0"/><stop id="stop5147" offset="1" style="stop-opacity:1;stop-color:#6cce86"/></linearGradient><style id="style4619">.cls-1{fill:#069}.cls-2{fill:#2991c9}.cls-3{fill:#fff}.cls-4{fill:#002a44}.cls-5{fill:#3380cc}.cls-6{fill:#cc5e55}</style></defs><path id="path77556" d="M9.937 1.068c-.11.03-.224.047-.344.047-.739.057-1.473.177-2.197.354-3.104.739-5.063 2.651-5.875 5.734a18.502 18.502 0 0 0-.516 4.786c-.032 1.522.12 3.027.448 4.511.77 3.303 2.817 5.323 6.125 6.057 1.802.37 3.619.511 5.452.412a15.591 15.591 0 0 0 4.767-.824c1.905-.697 3.285-1.968 4.135-3.812.458-1.062.756-2.166.896-3.317.182-1.641.218-3.281.114-4.928a14.563 14.563 0 0 0-.754-3.823c-.751-2.057-2.136-3.505-4.162-4.338a13.68 13.68 0 0 0-3.781-.848c-1.433-.1-2.87-.106-4.308-.011z" style="fill:url(#radialGradient77554-8);fill-rule:evenodd;stroke:none;stroke-width:1.33333"/><path id="path56583" d="M7 6c-.5 0-1 .5-1 1v3.5c0 .5.5 1 1 1s1-.5 1-1V9l1 1v1.5h1.5V11c-.016-.332.15-.498.5-.5h.5V9H10L9 8h1.5c.5 0 1-.5 1-1s-.5-1-1-1m3 0c-.5 0-1 .5-1 1s.5 1 1 1H15l-1 1h-1.5v1.5h.5c.332-.016.498.15.5.5v.5H15V10l1-1v1.5c0 .5.5 1 1 1s1-.5 1-1V7c0-.5-.5-1-1-1m-8 6.5V14c0 .5.5 1 1 1h1.5v-1.5H11c-.332.015-.498-.15-.5-.5v-.5m3 0v.5c.015.332-.15.498-.5.5h-.5V15H14l1 1h-1.5c-.5 0-1 .5-1 1s.5 1 1 1H17c.5 0 1-.5 1-1v-3.5c0-.5-.5-1-1-1s-1 .5-1 1V15l-1-1v-1.5" opacity=".65" style="stroke-width:.393172"/></svg>