<svg xmlns="http://www.w3.org/2000/svg" xml:space="preserve" width="24" height="24"><defs><linearGradient id="a" x1="12" x2="12" y1="1" y2="12" gradientUnits="userSpaceOnUse"><stop offset="0" stop-color="#DC9DFF" style="stop-color:#d492d6;stop-opacity:1"/><stop offset="1" stop-color="#AD5BDB" style="stop-color:#c569c7;stop-opacity:1"/></linearGradient></defs><path fill="url(#a)" fill-rule="evenodd" d="M9.94 1.068c-.11.032-.224.047-.344.046-.742.06-1.476.178-2.2.355-3.106.738-5.064 2.65-5.876 5.736a18.491 18.491 0 0 0-.515 4.786c-.03 1.521.118 3.025.447 4.51.774 3.3 2.816 5.32 6.128 6.057 1.428.294 2.868.442 4.32.442h.012c.373 0 .746-.01 1.12-.03a15.624 15.624 0 0 0 4.766-.824c1.906-.699 3.284-1.97 4.135-3.812a11.88 11.88 0 0 0 .894-3.32A27.93 27.93 0 0 0 23 11.908v-.007c0-.603-.02-1.207-.059-1.812a14.268 14.268 0 0 0-.756-3.824c-.746-2.06-2.133-3.506-4.158-4.34a13.537 13.537 0 0 0-3.78-.847C13.502 1.027 12.757 1 12.013 1h-.007c-.689 0-1.378.023-2.066.068z" clip-rule="evenodd" style="fill:url(#a)"/><g fill="#f9f9f9"><path d="M11.499 9v4.935A2 2 0 0 1 10 12.002v-1.25a.25.25 0 1 0-.5 0v1.25a2.5 2.5 0 0 0 1.999 2.447v.553H10v.5h4v-.5h-1.502v-.55a2.5 2.5 0 0 0 2.002-2.45v-1.25a.25.25 0 1 0-.5 0v1.25a2 2 0 0 1-1.502 1.937V9.002h-1z"/><path d="M12 4.5A7.5 7.5 0 0 0 4.5 12 7.5 7.5 0 1 0 12 4.5Zm-.002.5A7.002 7.002 0 0 1 19 12a7.002 7.002 0 0 1-14.002 0 7 7 0 0 1 7-7z"/><path d="M11.999 6a6.001 6.001 0 1 0 0 12.003 6.001 6.001 0 0 0 0-12.002zm0 .5a5.5 5.5 0 1 1 0 11 5.499 5.499 0 1 1 0-11z"/><path d="M12 8c-.829 0-1.5.5-1.5 1.25v.25h3v-.25C13.5 8.5 12.828 8 12 8zm-1.5 2v.5h3V10zm0 1v.5h3V11zm0 1v.25c0 .75.671 1.25 1.5 1.25.828 0 1.5-.5 1.5-1.25V12z"/></g></svg>