<svg xmlns="http://www.w3.org/2000/svg" xml:space="preserve" width="24" height="24" viewBox="0 0 6.35 6.35"><defs><radialGradient id="a" cx="0" cy="0" r="1" fx="0" fy="0" gradientTransform="matrix(0 16.5 -16.5 0 9 .75)" gradientUnits="userSpaceOnUse" spreadMethod="pad"><stop offset="0" style="stop-color:#fff;stop-opacity:1"/><stop offset="1" style="stop-color:#8ec9f6;stop-opacity:1"/></radialGradient></defs><path d="M7.195.836c.09 0 .176-.012.258-.035a23.86 23.86 0 0 1 3.231.008 10.26 10.26 0 0 1 2.836.636c1.519.625 2.558 1.711 3.121 3.254.316.93.507 1.887.566 2.867a21.227 21.227 0 0 1-.086 3.696 8.976 8.976 0 0 1-.672 2.488c-.637 1.383-1.672 2.336-3.101 2.859a11.693 11.693 0 0 1-3.575.618 15.998 15.998 0 0 1-4.089-.309c-2.481-.551-4.016-2.066-4.594-4.543a14.244 14.244 0 0 1-.336-3.383c-.027-1.211.101-2.41.387-3.59.609-2.312 2.078-3.746 4.406-4.3A10.27 10.27 0 0 1 7.195.836Z" style="fill:url(#a);fill-rule:evenodd;stroke:none;stroke-width:.99975004;stroke-dasharray:none" transform="translate(.022 -.08) scale(.35277)"/><path fill="#3e9def" d="M3.774 1.179a.158.158 0 0 1 .129-.069c.073 0 .142.038.184.093a.3.3 0 0 1 .052.182.93.93 0 0 1-.048.262c-.065.201-.153.395-.219.596-.072.228-.107.482-.01.708l.152-.402c.015-.035.033-.076.074-.09.056-.019.113.036.111.087-.015.075-.045.145-.068.218-.19.537-.402 1.067-.606 1.599l.816-.702c.078-.067.163-.14.187-.242.024-.1-.02-.199-.071-.284-.058-.102-.133-.2-.16-.315-.014-.06-.01-.128.033-.176a.123.123 0 0 1 .134-.038c.046.017.074.059.096.099.074.14.12.292.136.448l.152-.288c.03-.056.057-.117.107-.162a.133.133 0 0 1 .116-.036c.052.011.09.056.104.104.016.05-.001.102-.018.15-.051.132-.131.253-.208.373-.108.16-.222.316-.347.464a.562.562 0 0 1 .234-.102c.082-.01.174.035.2.111.02.052-.01.11-.06.136-.073.038-.16.038-.24.041-.294.008-.58.145-.763.362-.144.174-.218.39-.364.561-.092.105-.222.237-.365.208-.19-.04-.19-.32-.238-.46a.36.36 0 0 0-.135-.178.481.481 0 0 0-.19-.074c-.155-.028-.315-.013-.47-.043A.46.46 0 0 1 2 4.225a.442.442 0 0 1-.122-.175c-.058-.142-.07-.296-.122-.44a1.025 1.025 0 0 0-.417-.514c-.04-.025-.085-.05-.11-.091a.083.083 0 0 1 .008-.104.149.149 0 0 1 .187-.013c.112.075.128.221.233.303v-.404c0-.04-.005-.081.015-.116.02-.034.071-.043.101-.018.041.032.053.085.06.132.02.186.039.372.06.557a.355.355 0 0 0 .116-.354c-.01-.04-.027-.082-.017-.124.007-.035.047-.06.084-.053.042.005.071.039.087.074a.38.38 0 0 1 .02.183c-.015.14-.077.268-.12.4-.042.118-.071.248-.03.369a.445.445 0 0 0 .245.253c.138.064.293.083.444.089-.092-.152-.192-.314-.19-.495.001-.182.124-.336.158-.512a.772.772 0 0 0-.344-.778c-.115-.075-.254-.108-.372-.178-.108-.062-.204-.172-.187-.298a.305.305 0 0 1 .246.03c.144.072.235.21.38.28.05.027.109.04.167.036.03-.07 0-.15-.05-.205-.096-.108-.256-.134-.356-.238-.05-.054-.077-.13-.056-.201.017-.056.078-.094.139-.09.09.006.167.059.229.117.203.193.32.454.367.72.054.313.012.633-.055.942-.013.063-.036.127-.019.192.008.03.03.06.065.063.048.003.088-.028.123-.055a.638.638 0 0 0 .232-.328.953.953 0 0 0 .027-.291c0-.049-.004-.103.027-.145.022-.033.064-.058.106-.049.033.006.057.033.067.062.016.048.014.1.004.15-.031.134-.06.27-.116.4a.794.794 0 0 1-.167.25c-.08.081-.18.146-.245.24-.044.064-.073.144-.054.22a.206.206 0 0 0 .123.137.335.335 0 0 0 .276-.006.406.406 0 0 0 .153-.155c.067-.109.107-.23.14-.352.052-.196.083-.397.095-.599a1.072 1.072 0 0 0-.143-.627.8.8 0 0 0-.249-.252c-.091-.064-.191-.12-.265-.203-.07-.076-.117-.18-.092-.282a.195.195 0 0 1 .16-.015.419.419 0 0 1 .225.191c.068.1.125.219.244.273-.097-.18-.197-.359-.296-.539-.032-.06-.063-.127-.055-.196.006-.053.058-.096.115-.096.05 0 .096.027.126.063.034.042.05.093.065.143l.236.772a.937.937 0 0 0 .112-.583c-.012-.106-.045-.208-.071-.31a.247.247 0 0 1 .028-.203Z"/></svg>