<svg xmlns="http://www.w3.org/2000/svg" xml:space="preserve" width="24" height="24" viewBox="0 0 6.35 6.35"><defs><linearGradient id="a" x1="12" x2="12" y1="1" y2="12" gradientTransform="scale(.26458)" gradientUnits="userSpaceOnUse"><stop offset="0" stop-color="#DC9DFF" style="stop-color:#d362de;stop-opacity:1"/><stop offset="1" stop-color="#AD5BDB" style="stop-color:#b52cc1;stop-opacity:1"/></linearGradient></defs><path fill="url(#a)" fill-rule="evenodd" d="M2.63.283a.312.312 0 0 1-.091.012c-.197.015-.39.047-.582.094-.822.195-1.34.7-1.555 1.517-.1.416-.146.838-.136 1.266-.008.403.031.8.118 1.194.205.873.745 1.407 1.621 1.602.378.078.76.117 1.143.117h.004c.098 0 .197-.002.296-.007.432-.008.852-.08 1.26-.219a1.87 1.87 0 0 0 1.095-1.008c.121-.281.2-.574.236-.879a7.39 7.39 0 0 0 .046-.821v-.002c0-.16-.005-.32-.015-.48a3.775 3.775 0 0 0-.2-1.011A1.886 1.886 0 0 0 4.77.51a3.582 3.582 0 0 0-1-.224 8.375 8.375 0 0 0-.592-.021h-.002c-.182 0-.364.006-.546.018z" clip-rule="evenodd" style="fill:url(#a);stroke-width:.264578"/><path fill="#fff" d="m4.194 1.323-1.337.402.206.686a.773.773 0 0 1 .823.463l.71-.214Zm-1.552.466-1.338.401.402 1.338.71-.213a.773.773 0 0 1 .054-.456l.283.168a.448.448 0 0 0-.023.194l.313-.094-.1-.335a.448.448 0 0 0-.075.058l-.286-.17a.773.773 0 0 1 .266-.205Zm.517.939a.448.448 0 0 0-.001 0l.1.334.313-.094a.448.448 0 0 0-.412-.24Zm1.485.094-.71.213a.773.773 0 0 1-.431.84l.206.686 1.337-.402Zm-1.024.307-.313.094.1.334a.448.448 0 0 0 .213-.427Zm-.528.159-.314.094a.448.448 0 0 0 .414.24Zm-.628.188-.71.214.402 1.337 1.337-.402-.206-.686a.773.773 0 0 1-.823-.463Z" style="stroke-width:.388881"/></svg>