<svg xmlns="http://www.w3.org/2000/svg" xmlns:xlink="http://www.w3.org/1999/xlink" xml:space="preserve" id="svg154" width="24" height="24" fill="none" version="1.1"><defs id="defs152"><linearGradient id="linearGradient488"><stop id="stop484" offset="0" style="stop-color:#5c7980;stop-opacity:1"/><stop id="stop486" offset="1" style="stop-color:#79b2c0;stop-opacity:1"/></linearGradient><linearGradient id="linearGradient29319"><stop id="stop29317" offset="0" style="stop-color:#d2d8db;stop-opacity:1"/></linearGradient><linearGradient id="fffff"><stop id="stop28389" offset="0" style="stop-color:#fff;stop-opacity:1"/></linearGradient><linearGradient xlink:href="#linearGradient488" id="linearGradient490" x1="52.978" x2="50.989" y1="96.007" y2="9.226" gradientTransform="matrix(.24444 0 0 .24444 -.222 -.222)" gradientUnits="userSpaceOnUse"/><linearGradient id="linearGradient8792"><stop id="stop8790" offset="0" style="stop-color:#000;stop-opacity:1"/></linearGradient><style id="current-color-scheme" type="text/css">.ColorScheme-Text{color:#31363b}.ColorScheme-Background{color:#eff0f1}.ColorScheme-Highlight{color:#3daee9}.ColorScheme-ViewText{color:#31363b}.ColorScheme-ViewBackground{color:#fcfcfc}.ColorScheme-ViewHover{color:#93cee9}.ColorScheme-ViewFocus{color:#3daee9}.ColorScheme-ButtonText{color:#31363b}.ColorScheme-ButtonBackground{color:#eff0f1}.ColorScheme-ButtonHover{color:#93cee9}.ColorScheme-ButtonFocus{color:#3daee9}</style></defs><path id="path6" d="M12 1C2 1 1 6 1 12c0 8 3 11 11 11s11-3 11-11c0-6-1-11-11-11Z" style="font-variation-settings:normal;display:inline;opacity:1;vector-effect:none;fill:url(#linearGradient490);fill-opacity:1;stroke-width:1.11627;stroke-linecap:butt;stroke-linejoin:miter;stroke-miterlimit:4;stroke-dasharray:none;stroke-dashoffset:0;stroke-opacity:1;-inkscape-stroke:none;stop-color:#000;stop-opacity:1"/><g id="g32718" style="fill:none" transform="translate(3.584 -274.538) scale(.99312)"><path id="path32700" fill="#03adeb" d="M-112.36 264.53c.737 0 1.505.666 1.503 1.403l-.022 6.612c-.002.736-.717 1.173-1.454 1.173s-1.457-.621-1.458-1.358l-.008-6.366c-.001-.737.702-1.464 1.439-1.464z" style="paint-order:normal" transform="matrix(.92176 -.38775 .4003 .91639 0 0)"/><path id="path32702" fill="#5593ef" d="M14.627 285.98c-.679-.286-1.654.027-1.947.703l-2.627 6.067c-.293.676.18 1.449.86 1.734.678.286 1.603-.099 1.899-.774l2.556-5.83c.295-.675-.062-1.614-.741-1.9z" style="paint-order:normal"/><path id="path32704" fill="#0cccfd" d="M9.479 286.92c.748.973 1.31 2.108 1.726 2.824.417.715.488.866.805 1.451.317.586 1.03 1.065 1.758.334-.065.167-.639 1.58-.928 2.164-.192.39-.318.524-.658.717-.641.362-1.618.138-1.992-.496l-3.23-5.474c1.153-.695 1.324-.837 2.519-1.52z" style="paint-order:normal"/><path id="path32706" fill="#1ee2fd" d="M9.711 285.37c-.802.16-1.789.93-2.238 1.514-.749.972-1.31 2.108-1.726 2.823-.417.716-.488.866-.805 1.452-.318.585-1.048 1.068-1.776.337.065.166.656 1.576.945 2.161.193.39.319.524.659.716.641.362 1.618.139 1.992-.496l3.23-5.473a7.168 7.168 0 0 1 1.05-1.347c.544-.548 1.199-.852.977-1.206-.477-.76-1.475-.652-2.277-.491z" style="paint-order:normal"/><path id="path32708" fill="#41f3fd" d="M5.801 287.44c-.456-.165-.829-.494-.88-1.114-.051-.619.317-1.063.743-1.042.426.021.57.378.472.71-.1.331-.2.457-.262.686-.062.229-.064.47-.073.76z"/><path id="path32710" fill="#66efff" d="M7 286.19c-.386-.658-.283-1.404-.06-1.954.225-.55.764-1.16 1.362-1.32.598-.16 1.142-.074 1.387.535.244.608-.286 1.36-.92 1.536-.634.176-1.218.516-1.77 1.203z"/><circle id="circle32712" cx="11.342" cy="283.14" r=".677" fill="#66efff" style="paint-order:normal"/><path id="path32714" fill="#bdfdfe" d="M40.379 19.467c-1.243-.001-2.518.19-3.654.418-1.427.286-3.009 1.124-4.465 2.152-1.004 1.25-1.745 2.742-1.856 4.46-.296 3.455 2.104 4.213 4.188 2.437.319-.272.498-.501.687-.713.898-.833 6.312-2.926 9.768-4.7.585-.598.873-1.146.516-1.716-1.126-1.797-3.112-2.336-5.184-2.338z" style="paint-order:normal" transform="translate(0 280.07) scale(.26458)"/><path id="path32716" fill="#bdfdfe" d="M44.643 21.932a3.87 3.87 0 0 0-.57.002c-2.72.204-6.19 3.027-7.534 4.61a25.47 25.47 0 0 0-1.248 1.648c.964 1.455 2.68 1.677 4.395.562a27.47 27.47 0 0 1 2.05-2.338c1.862-1.876 4.174-3.042 3.968-4.24a3.59 3.59 0 0 0-1.06-.244z" style="paint-order:normal" transform="translate(0 280.07) scale(.26458)"/></g></svg>