<svg xmlns="http://www.w3.org/2000/svg" xmlns:xlink="http://www.w3.org/1999/xlink" xml:space="preserve" width="24" height="24"><defs><clipPath id="r" clipPathUnits="userSpaceOnUse"><path d="M5.273 12.059h.219c.098 0 .176.082.176.179v.727a.176.176 0 0 1-.176.176h-.219a.179.179 0 0 1-.179-.176v-.727c0-.097.082-.179.179-.179z"/></clipPath><clipPath id="a" clipPathUnits="userSpaceOnUse"><path d="M-97.54 25.423h11.346v22.691h-11.345z"/></clipPath><clipPath id="u" clipPathUnits="userSpaceOnUse"><path d="M6.09 12.059h.219c.097 0 .175.082.175.179v.727a.175.175 0 0 1-.175.176H6.09a.177.177 0 0 1-.18-.176v-.727c0-.097.078-.179.18-.179z"/></clipPath><clipPath id="c" clipPathUnits="userSpaceOnUse"><path d="M-106.797 25.423h22.691v22.691h-22.69Z"/></clipPath><clipPath id="x" clipPathUnits="userSpaceOnUse"><path d="M6.906 12.059h.219c.098 0 .176.082.176.179v.727a.176.176 0 0 1-.176.176h-.219a.176.176 0 0 1-.179-.176v-.727c0-.097.078-.179.179-.179z"/></clipPath><clipPath id="d" clipPathUnits="userSpaceOnUse"><path d="M-104.709 25.423h22.691v22.691h-22.69Z"/></clipPath><clipPath id="A" clipPathUnits="userSpaceOnUse"><path d="M7.719 12.059h.222c.098 0 .176.082.176.179v.727a.176.176 0 0 1-.176.176h-.222a.176.176 0 0 1-.176-.176v-.727c0-.097.078-.179.176-.179z"/></clipPath><clipPath id="e" clipPathUnits="userSpaceOnUse"><path d="M-102.62 25.423h22.69v22.691h-22.69Z"/></clipPath><clipPath id="D" clipPathUnits="userSpaceOnUse"><path d="M8.492 12.059a.13.13 0 0 1 .129.132v.817a.132.132 0 0 1-.129.133.132.132 0 0 1-.133-.133v-.817c0-.074.059-.132.133-.132z"/></clipPath><clipPath id="f" clipPathUnits="userSpaceOnUse"><path d="M-105.318 25.423h24.693v22.691h-24.693z"/></clipPath><clipPath id="K" clipPathUnits="userSpaceOnUse"><path d="M5.273 12.059h.219c.098 0 .176.082.176.179v.727a.176.176 0 0 1-.176.176h-.219a.179.179 0 0 1-.179-.176v-.727c0-.097.082-.179.179-.179z"/></clipPath><clipPath id="h" clipPathUnits="userSpaceOnUse"><path d="M-97.54 25.423h11.346v22.691h-11.345z"/></clipPath><clipPath id="N" clipPathUnits="userSpaceOnUse"><path d="M6.09 12.059h.219c.097 0 .175.082.175.179v.727a.175.175 0 0 1-.175.176H6.09a.177.177 0 0 1-.18-.176v-.727c0-.097.078-.179.18-.179z"/></clipPath><clipPath id="i" clipPathUnits="userSpaceOnUse"><path d="M-106.797 25.423h22.691v22.691h-22.69Z"/></clipPath><clipPath id="Q" clipPathUnits="userSpaceOnUse"><path d="M6.906 12.059h.219c.098 0 .176.082.176.179v.727a.176.176 0 0 1-.176.176h-.219a.176.176 0 0 1-.179-.176v-.727c0-.097.078-.179.179-.179z"/></clipPath><clipPath id="j" clipPathUnits="userSpaceOnUse"><path d="M-104.709 25.423h22.691v22.691h-22.69Z"/></clipPath><clipPath id="T" clipPathUnits="userSpaceOnUse"><path d="M7.719 12.059h.222c.098 0 .176.082.176.179v.727a.176.176 0 0 1-.176.176h-.222a.176.176 0 0 1-.176-.176v-.727c0-.097.078-.179.176-.179z"/></clipPath><clipPath id="k" clipPathUnits="userSpaceOnUse"><path d="M-102.62 25.423h22.69v22.691h-22.69Z"/></clipPath><clipPath id="W" clipPathUnits="userSpaceOnUse"><path d="M8.492 12.059a.13.13 0 0 1 .129.132v.817a.132.132 0 0 1-.129.133.132.132 0 0 1-.133-.133v-.817c0-.074.059-.132.133-.132z"/></clipPath><clipPath id="l" clipPathUnits="userSpaceOnUse"><path d="M-105.318 25.423h24.693v22.691h-24.693z"/></clipPath><clipPath id="Z" clipPathUnits="userSpaceOnUse"><path d="M7.195.836c.09 0 .176-.012.258-.035a23.86 23.86 0 0 1 3.231.008 10.26 10.26 0 0 1 2.836.636c1.519.625 2.558 1.711 3.121 3.254.316.93.507 1.887.566 2.867a21.227 21.227 0 0 1-.086 3.696 8.976 8.976 0 0 1-.672 2.488c-.637 1.383-1.672 2.336-3.101 2.859a11.693 11.693 0 0 1-3.575.618 15.998 15.998 0 0 1-4.089-.309c-2.481-.551-4.016-2.066-4.594-4.543a14.244 14.244 0 0 1-.336-3.383c-.027-1.215.101-2.41.387-3.59.609-2.312 2.078-3.746 4.406-4.3A10.27 10.27 0 0 1 7.195.836Z" clip-rule="evenodd"/></clipPath><clipPath id="m" clipPathUnits="userSpaceOnUse"><path d="M-.045-.545h1.09v1.09h-1.09z"/></clipPath><clipPath id="o" clipPathUnits="userSpaceOnUse"><path d="M-.045-.545h1.09v1.09h-1.09z"/></clipPath><linearGradient id="q"><stop offset="0" style="stop-color:#f8e57d;stop-opacity:1"/><stop offset="1" style="stop-color:#f9a228;stop-opacity:1"/></linearGradient><linearGradient id="b" x1="-91.306" x2="-91.306" y1="36.522" y2="26.407" gradientUnits="userSpaceOnUse" spreadMethod="pad"><stop offset="0" style="stop-opacity:1;stop-color:#fff"/><stop offset="1" style="stop-opacity:0;stop-color:#fff"/></linearGradient><linearGradient id="g" x1="-91.306" x2="-91.306" y1="36.522" y2="26.407" gradientUnits="userSpaceOnUse" spreadMethod="pad"><stop offset="0" style="stop-opacity:1;stop-color:#fff355"/><stop offset="1" style="stop-opacity:1;stop-color:#a49a00"/></linearGradient><linearGradient xlink:href="#g" id="F" x1="-91.306" x2="-91.306" y1="36.522" y2="26.407" gradientUnits="userSpaceOnUse" spreadMethod="pad"/><linearGradient xlink:href="#g" id="t" x1="-91.306" x2="-91.306" y1="36.522" y2="26.407" gradientUnits="userSpaceOnUse" spreadMethod="pad"/><linearGradient xlink:href="#g" id="w" x1="-91.306" x2="-91.306" y1="36.522" y2="26.407" gradientUnits="userSpaceOnUse" spreadMethod="pad"/><linearGradient xlink:href="#g" id="z" x1="-91.306" x2="-91.306" y1="36.522" y2="26.407" gradientUnits="userSpaceOnUse" spreadMethod="pad"/><linearGradient xlink:href="#g" id="C" x1="-91.306" x2="-91.306" y1="36.522" y2="26.407" gradientUnits="userSpaceOnUse" spreadMethod="pad"/><linearGradient xlink:href="#g" id="Y" x1="-91.306" x2="-91.306" y1="36.522" y2="26.407" gradientUnits="userSpaceOnUse" spreadMethod="pad"/><linearGradient xlink:href="#g" id="M" x1="-91.306" x2="-91.306" y1="36.522" y2="26.407" gradientUnits="userSpaceOnUse" spreadMethod="pad"/><linearGradient xlink:href="#g" id="P" x1="-91.306" x2="-91.306" y1="36.522" y2="26.407" gradientUnits="userSpaceOnUse" spreadMethod="pad"/><linearGradient xlink:href="#g" id="S" x1="-91.306" x2="-91.306" y1="36.522" y2="26.407" gradientUnits="userSpaceOnUse" spreadMethod="pad"/><linearGradient xlink:href="#g" id="V" x1="-91.306" x2="-91.306" y1="36.522" y2="26.407" gradientUnits="userSpaceOnUse" spreadMethod="pad"/><mask id="s" width="1" height="1" x="0" y="0" maskUnits="userSpaceOnUse"><g clip-path="url(#a)"><path d="M-97.54 25.423h11.346v22.691h-11.345z" style="fill:url(#b);stroke:none"/></g></mask><mask id="v" width="1" height="1" x="0" y="0" maskUnits="userSpaceOnUse"><g clip-path="url(#c)"><path d="M-106.797 25.423h22.691v22.691h-22.69Z" style="fill:url(#b);stroke:none"/></g></mask><mask id="y" width="1" height="1" x="0" y="0" maskUnits="userSpaceOnUse"><g clip-path="url(#d)"><path d="M-104.709 25.423h22.691v22.691h-22.69Z" style="fill:url(#b);stroke:none"/></g></mask><mask id="B" width="1" height="1" x="0" y="0" maskUnits="userSpaceOnUse"><g clip-path="url(#e)"><path d="M-102.62 25.423h22.69v22.691h-22.69Z" style="fill:url(#b);stroke:none"/></g></mask><mask id="E" width="1" height="1" x="0" y="0" maskUnits="userSpaceOnUse"><g clip-path="url(#f)"><path d="M-105.318 25.423h24.693v22.691h-24.693z" style="fill:url(#b);stroke:none"/></g></mask><mask id="L" width="1" height="1" x="0" y="0" maskUnits="userSpaceOnUse"><g clip-path="url(#h)"><path d="M-97.54 25.423h11.346v22.691h-11.345z" style="fill:url(#b);stroke:none"/></g></mask><mask id="O" width="1" height="1" x="0" y="0" maskUnits="userSpaceOnUse"><g clip-path="url(#i)"><path d="M-106.797 25.423h22.691v22.691h-22.69Z" style="fill:url(#b);stroke:none"/></g></mask><mask id="R" width="1" height="1" x="0" y="0" maskUnits="userSpaceOnUse"><g clip-path="url(#j)"><path d="M-104.709 25.423h22.691v22.691h-22.69Z" style="fill:url(#b);stroke:none"/></g></mask><mask id="U" width="1" height="1" x="0" y="0" maskUnits="userSpaceOnUse"><g clip-path="url(#k)"><path d="M-102.62 25.423h22.69v22.691h-22.69Z" style="fill:url(#b);stroke:none"/></g></mask><mask id="X" width="1" height="1" x="0" y="0" maskUnits="userSpaceOnUse"><g clip-path="url(#l)"><path d="M-105.318 25.423h24.693v22.691h-24.693z" style="fill:url(#b);stroke:none"/></g></mask><mask id="aa" width="1" height="1" x="0" y="0" maskUnits="userSpaceOnUse"><g clip-path="url(#m)"><path d="M-.045-.545h1.09v1.09h-1.09z" style="fill:url(#n);stroke:none"/></g></mask><radialGradient id="n" cx="0" cy="0" r="1" fx="0" fy="0" gradientUnits="userSpaceOnUse" spreadMethod="pad"><stop offset="0" style="stop-opacity:1;stop-color:#fff"/><stop offset="1" style="stop-opacity:.81176471;stop-color:#fff"/></radialGradient><radialGradient id="ab" cx="0" cy="0" r="1" fx="0" fy="0" gradientUnits="userSpaceOnUse" spreadMethod="pad"><stop offset="0" style="stop-opacity:1;stop-color:#f8ed85"/><stop offset="1" style="stop-opacity:1;stop-color:#fab02c"/></radialGradient><radialGradient id="p" cx="0" cy="0" r="1" fx="0" fy="0" gradientUnits="userSpaceOnUse" spreadMethod="pad"><stop offset="0" style="stop-opacity:1;stop-color:#fff"/><stop offset="1" style="stop-opacity:.81176471;stop-color:#fff"/></radialGradient><radialGradient xlink:href="#q" id="G" cx="9.079" cy="6.851" r="8.25" fx="9.079" fy="2.809" gradientTransform="matrix(1.14562 0 0 1.38142 -1.308 -4.544)" gradientUnits="userSpaceOnUse"/><radialGradient xlink:href="#q" id="J" cx="9.079" cy="6.851" r="8.25" fx="9.079" fy="2.809" gradientTransform="matrix(1.14562 0 0 1.38142 -1.308 -4.544)" gradientUnits="userSpaceOnUse"/><radialGradient xlink:href="#q" id="I" cx="9.079" cy="6.851" r="8.25" fx="9.079" fy="2.809" gradientTransform="matrix(1.14562 0 0 1.38142 -1.308 -4.544)" gradientUnits="userSpaceOnUse"/><radialGradient xlink:href="#q" id="H" cx="9.079" cy="6.851" r="8.25" fx="9.079" fy="2.809" gradientTransform="matrix(1.14562 0 0 1.38142 -1.308 -4.544)" gradientUnits="userSpaceOnUse"/></defs><g clip-path="url(#r)" style="fill:none" transform="matrix(1.33333 0 0 1.33333 48.849 -39.782)"><g mask="url(#s)" transform="translate(13.597 9.76) scale(.08814)"><path d="M5.273 12.059h.219c.098 0 .176.082.176.179v.727a.176.176 0 0 1-.176.176h-.219a.179.179 0 0 1-.179-.176v-.727c0-.097.082-.179.179-.179z" style="fill:url(#t);stroke:none"/></g></g><g clip-path="url(#u)" style="fill:none" transform="matrix(1.33333 0 0 1.33333 48.849 -39.782)"><g mask="url(#v)" transform="translate(14.413 9.76) scale(.08814)"><path d="M6.09 12.059h.219c.097 0 .175.082.175.179v.727a.175.175 0 0 1-.175.176H6.09a.177.177 0 0 1-.18-.176v-.727c0-.097.078-.179.18-.179z" style="fill:url(#w);stroke:none"/></g></g><g clip-path="url(#x)" style="fill:none" transform="matrix(1.33333 0 0 1.33333 48.849 -39.782)"><g mask="url(#y)" transform="translate(15.23 9.76) scale(.08814)"><path d="M6.906 12.059h.219c.098 0 .176.082.176.179v.727a.176.176 0 0 1-.176.176h-.219a.176.176 0 0 1-.179-.176v-.727c0-.097.078-.179.179-.179z" style="fill:url(#z);stroke:none"/></g></g><g clip-path="url(#A)" style="fill:none" transform="matrix(1.33333 0 0 1.33333 48.849 -39.782)"><g mask="url(#B)" transform="translate(16.045 9.76) scale(.08814)"><path d="M7.719 12.059h.222c.098 0 .176.082.176.179v.727a.176.176 0 0 1-.176.176h-.222a.176.176 0 0 1-.176-.176v-.727c0-.097.078-.179.176-.179z" style="fill:url(#C);stroke:none"/></g></g><g clip-path="url(#D)" style="fill:none" transform="matrix(1.33333 0 0 1.33333 48.849 -39.782)"><g mask="url(#E)" transform="matrix(.0405 0 0 .08814 12.265 9.76)"><path d="M8.492 12.059a.13.13 0 0 1 .129.132v.817a.132.132 0 0 1-.129.133.132.132 0 0 1-.133-.133v-.817c0-.074.059-.132.133-.132z" style="fill:url(#F);stroke:none"/></g></g><g style="fill:url(#G);fill-opacity:1"><g style="fill:url(#H);fill-opacity:1" transform="matrix(1.33333 0 0 1.33333 0 0)"><g style="fill:url(#I);fill-opacity:1"><path d="M7.195.836c.09 0 .176-.012.258-.035a23.86 23.86 0 0 1 3.231.008 10.26 10.26 0 0 1 2.836.636c1.519.625 2.558 1.711 3.121 3.254.316.93.507 1.887.566 2.867a21.227 21.227 0 0 1-.086 3.696 8.976 8.976 0 0 1-.672 2.488c-.637 1.383-1.672 2.336-3.101 2.859a11.693 11.693 0 0 1-3.575.618 15.998 15.998 0 0 1-4.089-.309c-2.481-.551-4.016-2.066-4.594-4.543a14.244 14.244 0 0 1-.336-3.383c-.027-1.215.101-2.41.387-3.59.609-2.312 2.078-3.746 4.406-4.3A10.27 10.27 0 0 1 7.195.836Z" style="fill:url(#J);fill-opacity:1;fill-rule:evenodd;stroke:none"/></g></g></g><path fill="#fff" d="M17.95 4.5c.308 0 .48.233.517.698l-.259 2.195h.096l.204-.163h.054v.05c-.28.205-.554.768-.817 1.69-.1.79-.268 1.522-.504 2.193-.21.694-.314 1.332-.314 1.918l-.395 1.154c0 .097.15.195.45.292-.055.227-.137.341-.246.341v.065h.096v.05c0 .118-.155.178-.464.178l.055.065v.227h-.096c.064.228.2.342.41.342v.113h-.41v.066c.136 0 .205.097.205.292l-.572.227.054.066v.048c0 .076-.068.114-.204.114v.065c.172 0 .259.038.259.114-.246.097-.568.58-.968 1.446-.409.77-.763 1.154-1.063 1.154h-.11c-.226-.173-.413-.748-.558-1.723-.582-1.484-.872-2.356-.872-2.616 0-.672-.187-1.387-.559-2.145-.1-.336-.168-.759-.205-1.268l-.245-.065c-.618 1.116-.94 1.988-.967 2.617-.173.368-.31.812-.41 1.332.373.12.56.233.56.342v.064c-.291-.043-.496-.124-.614-.243-.127.292-.295 1.105-.504 2.437-.164.618-.368.927-.614.927a3.93 3.93 0 0 1-1.73-1.333c-.073 0-.191-.309-.355-.926-.1 0-.168-.31-.204-.926-.345-.878-.582-1.88-.71-3.007v-1.69h-.053l-.246.065v-.065c0-.076.082-.114.246-.114l-.055-.975v-.764l-.395-2.438v-1.04c.172-.65.472-.975.9-.975 0 0 .037-.002.163.163l-.163-.049C7 5.952 7.39 6.683 7.509 7.279h.464v.114h-.354v.13c.136.498.236.747.3.747h.108l.246-.065.054.066.055-.066.054.066v.048a.954.954 0 0 0-.368.536h-.04v.114h.095c.127 1.81.363 3.18.708 4.111l.205.163h.109c.136 0 .422-.634.859-1.901a9.81 9.81 0 0 0 .613-1.511l-.055-.18c.282-.422.573-.633.872-.633h.096c.19 0 .327.119.41.357.253.358.458.894.612 1.61l.763 1.69c.1.119.15.254.15.405.282.64.537 1.063.763 1.268h.165c.19 0 .444-.79.763-2.372.054 0 .204-.423.45-1.268v-.065l-.86-.114-.204.065h-.259v-.13l.518-.048h1.009c.39-1.398.75-2.481 1.076-3.25.11-1.583.26-2.373.45-2.373l.613-.293m-5.192 1.397h.15v.05c0 .075-.05.113-.15.113l-.055.065v.065l-.15-.065v-.114l.205-.114m-.764.635v.064c0 .087-.218.18-.654.277v-.114l.3-.163.054.049h.041l.26-.113m-1.472.585v.048c-.191.174-.5.33-.928.471v-.113c.073 0 .11-.06.11-.18l.818-.226m2.589.568.054.065v.05l-.095.129h-.054l-.11-.13V7.75l.205-.065m1.881.065h.054v.05l-.095.129h-.055v-.065l.096-.114m-.859.813.205.162c-.037.12-.136.179-.3.179l-.11-.179c0-.054.069-.108.205-.162m1.227.747.04.065v.05l-.04.064h-.11v-.065l.11-.114m-1.936.585v.05l-.259.243h-.15v-.065c0-.098.137-.174.41-.228m-1.786 4.973h.054v.114l-.408.244-.055-.065v-.114l.41-.179m-.15 1.512h.04l.164.179-.055.048h-.054l-.096-.162v-.065" style="stroke-width:.347344"/><g clip-path="url(#K)" style="fill:none" transform="matrix(1.33333 0 0 1.33333 -28.717 -4.302)"><g mask="url(#L)" transform="translate(13.597 9.76) scale(.08814)"><path d="M5.273 12.059h.219c.098 0 .176.082.176.179v.727a.176.176 0 0 1-.176.176h-.219a.179.179 0 0 1-.179-.176v-.727c0-.097.082-.179.179-.179z" style="fill:url(#M);stroke:none"/></g></g><g clip-path="url(#N)" style="fill:none" transform="matrix(1.33333 0 0 1.33333 -28.717 -4.302)"><g mask="url(#O)" transform="translate(14.413 9.76) scale(.08814)"><path d="M6.09 12.059h.219c.097 0 .175.082.175.179v.727a.175.175 0 0 1-.175.176H6.09a.177.177 0 0 1-.18-.176v-.727c0-.097.078-.179.18-.179z" style="fill:url(#P);stroke:none"/></g></g><g clip-path="url(#Q)" style="fill:none" transform="matrix(1.33333 0 0 1.33333 -28.717 -4.302)"><g mask="url(#R)" transform="translate(15.23 9.76) scale(.08814)"><path d="M6.906 12.059h.219c.098 0 .176.082.176.179v.727a.176.176 0 0 1-.176.176h-.219a.176.176 0 0 1-.179-.176v-.727c0-.097.078-.179.179-.179z" style="fill:url(#S);stroke:none"/></g></g><g clip-path="url(#T)" style="fill:none" transform="matrix(1.33333 0 0 1.33333 -28.717 -4.302)"><g mask="url(#U)" transform="translate(16.045 9.76) scale(.08814)"><path d="M7.719 12.059h.222c.098 0 .176.082.176.179v.727a.176.176 0 0 1-.176.176h-.222a.176.176 0 0 1-.176-.176v-.727c0-.097.078-.179.176-.179z" style="fill:url(#V);stroke:none"/></g></g><g clip-path="url(#W)" style="fill:none" transform="matrix(1.33333 0 0 1.33333 -28.717 -4.302)"><g mask="url(#X)" transform="matrix(.0405 0 0 .08814 12.265 9.76)"><path d="M8.492 12.059a.13.13 0 0 1 .129.132v.817a.132.132 0 0 1-.129.133.132.132 0 0 1-.133-.133v-.817c0-.074.059-.132.133-.132z" style="fill:url(#Y);stroke:none"/></g></g><g clip-path="url(#Z)" transform="matrix(1.33333 0 0 1.33333 34 0)"><g mask="url(#aa)" transform="matrix(0 16.5 -16.5 0 9 .75)"><path d="M7.195.836c.09 0 .176-.012.258-.035a23.86 23.86 0 0 1 3.231.008 10.26 10.26 0 0 1 2.836.636c1.519.625 2.558 1.711 3.121 3.254.316.93.507 1.887.566 2.867a21.227 21.227 0 0 1-.086 3.696 8.976 8.976 0 0 1-.672 2.488c-.637 1.383-1.672 2.336-3.101 2.859a11.693 11.693 0 0 1-3.575.618 15.998 15.998 0 0 1-4.089-.309c-2.481-.551-4.016-2.066-4.594-4.543a14.244 14.244 0 0 1-.336-3.383c-.027-1.215.101-2.41.387-3.59.609-2.312 2.078-3.746 4.406-4.3A10.27 10.27 0 0 1 7.195.836Z" style="fill:url(#ab);fill-rule:evenodd;stroke:none"/></g></g></svg>