<svg xmlns="http://www.w3.org/2000/svg" width="24" height="24" viewBox="0 0 6.35 6.35"><path d="M3.175.265C.529.265.265 1.587.265 3.175c0 2.117.793 2.91 2.91 2.91s2.91-.793 2.91-2.91c0-1.588-.264-2.91-2.91-2.91z" style="font-variation-settings:normal;display:inline;vector-effect:none;fill:#881fa2;fill-opacity:1;stroke-width:.295341;stroke-linecap:butt;stroke-linejoin:miter;stroke-miterlimit:4;stroke-dasharray:none;stroke-dashoffset:0;stroke-opacity:1;-inkscape-stroke:none;stop-color:#000"/><path fill="#fff" d="M4.217 2.624c-.053.005-.269.054-.341.07-.078.02-.789.57-.834.704a.964.964 0 0 0-.015.186l-.006.109c0 .078.022.203.032.27.047.01.385.002.447.012l-.008.14c-.06-.005-.49-.004-.735-.004-.124 0-.525.014-.648.01l.024-.132c.067-.006.346.012.407-.053.03-.033.021-.067.021-.253v-.088c0-.042 0-.12-.01-.193-.026-.077-.652-.859-.813-.983-.046-.016-.339-.045-.412-.06l-.003-.12c.036-.018.362.004.677-.008.208-.007.68 0 .74.007l-.016.106c-.062.015-.361.021-.439.042.202.3.522.688.626.84.057-.084.558-.429.573-.548a4.627 4.627 0 0 0-.376-.053l-.025-.136c.07-.011.442 0 .626 0 .16 0 .5 0 .597.008l-.089.128m.338 1.389-.12-.01-.001-.26.152.018.137.006-.038.255-.13-.01m.155-.46-.224-.021c.023-.114.003-.986.001-1.079l-.011-.183c.062.012.052.006.316.033.161.018.182.025.235.027l-.069.217c-.059.173-.23.948-.248 1.006Z"/></svg>