<svg xmlns="http://www.w3.org/2000/svg" xml:space="preserve" width="24" height="24" viewBox="0 0 6.35 6.35"><defs><radialGradient id="a" cx="0" cy="0" r="1" fx="0" fy="0" gradientTransform="matrix(0 16.5 -16.5 0 9 .75)" gradientUnits="userSpaceOnUse" spreadMethod="pad"><stop offset="0" style="stop-color:#fff;stop-opacity:1"/><stop offset="1" style="stop-color:#63c8e3;stop-opacity:1"/></radialGradient></defs><path d="M7.195.836c.09 0 .176-.012.258-.035a23.86 23.86 0 0 1 3.231.008 10.26 10.26 0 0 1 2.836.636c1.519.625 2.558 1.711 3.121 3.254.316.93.507 1.887.566 2.867a21.227 21.227 0 0 1-.086 3.696 8.976 8.976 0 0 1-.672 2.488c-.637 1.383-1.672 2.336-3.101 2.859a11.693 11.693 0 0 1-3.575.618 15.998 15.998 0 0 1-4.089-.309c-2.481-.551-4.016-2.066-4.594-4.543a14.244 14.244 0 0 1-.336-3.383c-.027-1.211.101-2.41.387-3.59.609-2.312 2.078-3.746 4.406-4.3A10.27 10.27 0 0 1 7.195.836Z" style="fill:url(#a);fill-rule:evenodd;stroke:none;stroke-width:.99975004;stroke-dasharray:none" transform="translate(.022 -.08) scale(.35277)"/><g transform="translate(-1.037 -1.14) scale(.50002)"><rect width="7.937" height="7.937" x="4.498" y="4.498" fill="#303030" rx="1.323" ry="1.323" style="paint-order:markers stroke fill"/><path fill="#f9f9f9" d="M9.709 7.773c.299.243.558.383.932.383.299 0 .62-.14.62-.345v-.02c0-.186-.21-.322-.77-.471-.673-.169-1.107-.553-1.107-.986v-.019c0-.617.584-.955 1.257-.955.486 0 .782.162 1.136.376l-.346.471c-.3-.205-.51-.225-.79-.225s-.622.137-.622.305v.058c0 .224.216.329.777.478.673.187 1.074.401 1.074.913v.019c0 .578-.52 1.022-1.23 1.022-.504-.019-.944-.21-1.337-.564M8.777 5.36l-.621 2.175-.621-2.175h-.621l-.622 2.175-.62-2.175H5.05l.932 3.417h.62l.622-2.174.621 2.174h.621l.932-3.417M5.05 10.951h3.106v.621H5.05Z"/></g></svg>