<svg xmlns="http://www.w3.org/2000/svg" width="24" height="24" fill="none"><defs><radialGradient id="a" cx="0" cy="0" r="1" gradientTransform="matrix(0 22 -22 0 12 1)" gradientUnits="userSpaceOnUse"><stop stop-color="#50FE71"/><stop offset="1" stop-color="#01AF22"/></radialGradient><radialGradient id="b" cx="0" cy="0" r="1" gradientTransform="matrix(0 22 -22 0 12 1)" gradientUnits="userSpaceOnUse"><stop stop-color="#50FE71"/><stop offset="1" stop-color="#01AF22"/></radialGradient></defs><path fill="url(#a)" fill-rule="evenodd" d="M1 11.563v.003c0 .141.002.283.005.425-.03 1.521.118 3.025.447 4.51.774 3.3 2.816 5.32 6.128 6.057 1.428.294 2.868.442 4.32.442h.012c.373 0 .746-.01 1.12-.03a15.624 15.624 0 0 0 4.766-.824c1.906-.699 3.284-1.97 4.135-3.812a11.88 11.88 0 0 0 .894-3.32c.183-1.638.22-3.28.114-4.924a14.265 14.265 0 0 0-.756-3.824c-.746-2.06-2.133-3.506-4.158-4.34a13.537 13.537 0 0 0-3.78-.847 31.627 31.627 0 0 0-4.307-.011c-.11.032-.224.047-.344.046-.742.06-1.476.178-2.2.355-3.106.738-5.064 2.65-5.876 5.736A18.48 18.48 0 0 0 1 11.563Z" clip-rule="evenodd" style="fill:url(#b)"/><g fill="#fafafa"><path fill-rule="evenodd" d="M10.057 8.698c-.147-.323-.302-.33-.442-.336-.114-.003-.245-.003-.375-.003a.716.716 0 0 0-.523.243c-.18.194-.686.665-.686 1.622 0 .957.702 1.882.8 2.012.098.129 1.357 2.156 3.35 2.936 1.655.648 1.992.519 2.352.486.36-.035 1.16-.47 1.323-.924.163-.454.163-.844.115-.925-.05-.081-.18-.13-.376-.227s-1.16-.568-1.34-.633c-.18-.065-.31-.097-.441.098-.13.195-.506.633-.62.763-.115.13-.23.145-.426.046-.196-.097-.827-.302-1.576-.965a5.863 5.863 0 0 1-1.09-1.347c-.115-.194-.013-.3.085-.397.088-.087.196-.227.294-.34.098-.114.13-.195.196-.325s.033-.243-.016-.34c-.049-.098-.43-1.059-.604-1.444Z" clip-rule="evenodd"/><path d="M17.568 6.452a7.83 7.83 0 0 0-5.55-2.282c-4.325 0-7.845 3.49-7.847 7.782 0 1.265.307 2.503.895 3.614a.792.792 0 0 1 .069.58l-.684 2.477a.75.75 0 0 0 .912.925l2.616-.68a.791.791 0 0 1 .548.06 7.895 7.895 0 0 0 3.487.812c4.325 0 7.848-3.491 7.85-7.782 0-2.08-.815-4.035-2.296-5.506zm-5.55 11.974c-1.17 0-2.32-.313-3.322-.902a.667.667 0 0 0-.505-.07l-.944.245a.75.75 0 0 1-.911-.925l.236-.855a.654.654 0 0 0-.079-.524 6.413 6.413 0 0 1-.997-3.443c.002-3.566 2.927-6.468 6.525-6.468 1.742.001 3.379.675 4.61 1.897a6.404 6.404 0 0 1 1.909 4.576c-.002 3.567-2.928 6.469-6.522 6.469z"/></g></svg>