<svg xmlns="http://www.w3.org/2000/svg" width="24" height="24"><defs><radialGradient id="a" cx="0" cy="0" r="1" gradientTransform="matrix(0 11 -11 0 12 1)" gradientUnits="userSpaceOnUse"><stop stop-color="#777"/><stop offset="1" stop-color="#444"/></radialGradient></defs><path fill="url(#a)" fill-rule="evenodd" d="M9.596 1.114c.12 0 .234-.014.344-.046a31.627 31.627 0 0 1 4.307.011c1.301.102 2.561.384 3.78.847 2.025.834 3.412 2.28 4.158 4.34.427 1.24.679 2.514.756 3.824a27.941 27.941 0 0 1-.115 4.923 11.88 11.88 0 0 1-.893 3.32c-.85 1.843-2.229 3.114-4.135 3.813a15.624 15.624 0 0 1-4.766.825 21.423 21.423 0 0 1-5.452-.413c-3.312-.737-5.354-2.756-6.128-6.056a19.047 19.047 0 0 1-.447-4.511 18.491 18.491 0 0 1 .515-4.786c.812-3.086 2.77-4.998 5.877-5.736a13.953 13.953 0 0 1 2.199-.355z" clip-rule="evenodd" style="fill:url(#a);stroke-width:1"/><g stroke-width="3.78" transform="matrix(.26666 0 0 .26666 -99.082 -125.542)"><g transform="translate(384.57 483.8)"><path fill="#fff" d="M2.003 18.002v35.997a.995.995 0 0 0 .998 1.002h58.002a.998.998 0 0 0 .998-1.002V17.998H2.004Z" style="paint-order:markers stroke fill"/><path d="M2.003 18.002v35.997a.995.995 0 0 0 .998 1.002h58.002a.998.998 0 0 0 .998-1.002V17.998h-.998v35.044c0 .53-.435.956-.968.956H3.968a.96.96 0 0 1-.967-.956V17.998H1.999Z" opacity=".1" style="paint-order:markers stroke fill"/><path fill="#666" d="M3.001 9a.998.998 0 0 0-1.002 1v7.998H62v-7.997a.998.998 0 0 0-.997-1.002Z" style="paint-order:stroke markers fill"/><rect width="3.001" height="3.001" x="56.002" y="12" opacity=".35" ry="1.5" style="paint-order:stroke markers fill"/><rect width="3.001" height="3.001" x="50" y="12" opacity=".35" ry="1.5" style="paint-order:stroke markers fill"/><rect width="3.001" height="3.001" x="44.002" y="12" opacity=".35" ry="1.5" style="paint-order:stroke markers fill"/><path d="M62.001 42.294a36.303 36.303 0 0 1-12.828 12.707h11.83a.998.998 0 0 0 .998-1.002z" opacity=".05" style="paint-order:markers stroke fill"/></g><path d="M404.57 514.8v17.511c0 .27.221.487.499.487h29c.276 0 .5-.218.499-.487l.002-17.512h-1v17h-28v-17h-1.002z" opacity=".1" style="paint-order:markers stroke fill"/><path fill="#666" d="M405.57 505.8a1.01 1.01 0 0 0-1.002 1.002v7.997h30v-7.997c.001-.553-.554-1.002-.998-1.002z" style="paint-order:stroke markers fill"/><rect width="3.001" height="3.001" x="428.57" y="508.8" opacity=".35" ry="1.5" style="paint-order:stroke markers fill"/><rect width="3.001" height="3.001" x="422.57" y="508.8" opacity=".35" ry="1.5" style="paint-order:stroke markers fill"/><rect width="3.001" height="3.001" x="416.57" y="508.8" opacity=".35" ry="1.5" style="paint-order:stroke markers fill"/></g></svg>