<svg xmlns="http://www.w3.org/2000/svg" xmlns:xlink="http://www.w3.org/1999/xlink" xml:space="preserve" width="24" height="24" viewBox="0 0 6.35 6.35"><defs><linearGradient id="a" x1="23" x2="1" y1="1" y2="12" gradientUnits="userSpaceOnUse"><stop stop-color="#E3C880"/><stop offset="1" stop-color="#6F5C38"/></linearGradient><linearGradient id="b" x1="23" x2="1.429" y1="5.4" y2="23.512" gradientUnits="userSpaceOnUse"><stop stop-color="#FFE795"/><stop offset="1" stop-color="#7A653E"/></linearGradient><linearGradient id="t" x1="23" x2="1.012" y1="9" y2="9.521" gradientTransform="scale(.26458)" gradientUnits="userSpaceOnUse"><stop stop-opacity=".5"/><stop offset="1"/></linearGradient><linearGradient id="k" x1="23" x2="1" y1="1" y2="12" gradientTransform="scale(.26458)" gradientUnits="userSpaceOnUse" spreadMethod="pad"><stop offset="0" style="stop-opacity:1;stop-color:#e3c880"/><stop offset="1" style="stop-opacity:1;stop-color:#6f5c38"/></linearGradient><linearGradient id="l" x1="21" x2="3" y1="4" y2="4" gradientTransform="scale(.75)" gradientUnits="userSpaceOnUse" spreadMethod="pad"><stop offset="0" style="stop-opacity:.43750668;stop-color:#000"/><stop offset=".89" style="stop-opacity:.87501335;stop-color:#000"/><stop offset="1" style="stop-opacity:0;stop-color:#000"/></linearGradient><linearGradient id="c" x1="12" x2="11.5" y1="3" y2="8" gradientTransform="matrix(.75 0 0 -.75 0 18)" gradientUnits="userSpaceOnUse" spreadMethod="pad"><stop offset="0" style="stop-opacity:1;stop-color:#fff"/><stop offset="1" style="stop-opacity:0;stop-color:#fff"/></linearGradient><linearGradient id="o" x1="12" x2="11.5" y1="3" y2="8" gradientTransform="matrix(.75 0 0 -.75 0 18)" gradientUnits="userSpaceOnUse" spreadMethod="pad"><stop offset="0" style="stop-opacity:1;stop-color:#ddd"/><stop offset="1" style="stop-opacity:1;stop-color:#ccc"/></linearGradient><linearGradient id="q" x1="23" x2="1.012" y1="9" y2="9.521" gradientTransform="scale(.75)" gradientUnits="userSpaceOnUse" spreadMethod="pad"><stop offset="0" style="stop-opacity:.43750668;stop-color:#000"/><stop offset="1" style="stop-opacity:.87501335;stop-color:#000"/></linearGradient><linearGradient id="s" x1="23" x2="1.429" y1="5.4" y2="23.512" gradientTransform="scale(.26458)" gradientUnits="userSpaceOnUse" spreadMethod="pad"><stop offset="0" style="stop-opacity:1;stop-color:#ffe795"/><stop offset="1" style="stop-opacity:1;stop-color:#7a653e"/></linearGradient><linearGradient id="e" x1="15" x2="5.5" y1="5.5" y2="19.5" gradientTransform="matrix(.75 0 0 -.75 0 18)" gradientUnits="userSpaceOnUse" spreadMethod="pad"><stop offset="0" style="stop-opacity:.37500572;stop-color:#fff"/><stop offset="1" style="stop-opacity:.37500572;stop-color:#fff"/></linearGradient><linearGradient id="j" x1="15" x2="5.5" y1="5.5" y2="19.5" gradientTransform="matrix(.26458 0 0 .26458 -21.167 0)" gradientUnits="userSpaceOnUse"><stop stop-color="#FFE795"/><stop offset="1" stop-color="#7A653E"/></linearGradient><linearGradient xlink:href="#e" id="h" x1="15" x2="5.5" y1="5.5" y2="19.5" gradientTransform="matrix(.75 0 0 -.75 0 18)" gradientUnits="userSpaceOnUse" spreadMethod="pad"/><linearGradient xlink:href="#j" id="u" x1="15" x2="5.5" y1="5.5" y2="19.5" gradientTransform="scale(.26458)" gradientUnits="userSpaceOnUse"/><clipPath id="d" clipPathUnits="userSpaceOnUse"><path d="M1 1h16v16H1Z"/></clipPath><clipPath id="f" clipPathUnits="userSpaceOnUse"><path d="M0 4h18v14H0Z"/></clipPath><clipPath id="m" clipPathUnits="userSpaceOnUse"><path d="M0 0h19v19H0Z"/></clipPath><clipPath id="g" clipPathUnits="userSpaceOnUse"><path d="M1 1h16v16H1Z"/></clipPath><clipPath id="p" clipPathUnits="userSpaceOnUse"><path d="M1 1h16v16H1Z"/></clipPath><clipPath id="r" clipPathUnits="userSpaceOnUse"><path d="M0 0h19v19H0Z"/></clipPath><clipPath id="i" clipPathUnits="userSpaceOnUse"><path d="M0 4h18v14H0Z"/></clipPath><mask id="n" width="1" height="1" x="0" y="0" maskUnits="userSpaceOnUse"><path d="M0 0h18v18H0Z" clip-path="url(#g)" style="fill:url(#c);fill-opacity:1;fill-rule:nonzero;stroke:none" transform="scale(1.33333)"/></mask></defs><path d="M2.01.265h2.329c.967 0 1.746.778 1.746 1.745v2.33c0 .967-.779 1.745-1.746 1.745h-2.33A1.742 1.742 0 0 1 .265 4.34V2.01c0-.967.779-1.745 1.746-1.745z" opacity=".813" style="fill:url(#k);stroke:none;stroke-width:.352778"/><g opacity=".125"><path d="M5.551 1.688h6.898a3.293 3.293 0 0 1 3.301 3.296v6.903a3.291 3.291 0 0 1-3.301 3.297H5.551a3.291 3.291 0 0 1-3.301-3.297V4.984a3.293 3.293 0 0 1 3.301-3.296Z" clip-path="url(#m)" opacity="1" style="fill:url(#l);stroke:none" transform="matrix(.35278 0 0 .35278 0 0)"/></g><path d="M1.958.86H4.39c.61 0 1.098.489 1.098 1.098v2.434C5.49 5 5 5.49 4.391 5.49H1.958C1.348 5.49.859 5 .859 4.392V1.958C.86 1.35 1.35.86 1.958.86z" style="fill:#ccc;fill-opacity:1;fill-rule:nonzero;stroke:none;stroke-width:.352778"/><g mask="url(#n)" transform="matrix(.26458 0 0 .26458 0 0)"><path d="M5.551 2.438h6.898a3.103 3.103 0 0 1 3.113 3.113v6.898a3.103 3.103 0 0 1-3.113 3.113H5.551a3.103 3.103 0 0 1-3.113-3.113V5.551a3.103 3.103 0 0 1 3.113-3.113z" clip-path="url(#p)" style="fill:none;stroke:url(#o);stroke-width:.374173;stroke-linecap:butt;stroke-linejoin:miter;stroke-miterlimit:4;stroke-dasharray:none;stroke-opacity:1" transform="scale(1.33333)"/></g><g opacity=".125"><path d="M.75 5.629a2.255 2.255 0 0 1 2.254-2.254h3.141c.804 0 1.585.277 2.21.785a3.485 3.485 0 0 0 2.211.785h4.43a2.256 2.256 0 0 1 2.254 2.258v4.418a4.948 4.948 0 0 1-4.949 4.949H5.699A4.952 4.952 0 0 1 .75 11.625z" clip-path="url(#r)" opacity="1" style="fill:url(#q);stroke:none" transform="matrix(.35278 0 0 .35278 0 0)"/></g><path d="M.264 2.226c0-.441.357-.797.795-.797h1.108c.284 0 .56.098.78.277.22.18.496.277.78.277H5.29c.44 0 .795.356.795.797v1.56c0 .963-.782 1.745-1.746 1.745h-2.33A1.747 1.747 0 0 1 .265 4.34z" opacity=".875" style="fill:url(#s);stroke:none;stroke-width:.352778"/><path d="M2.09 3.637v-.774l.868-.13v.904zM3.1 2.71l1.158-.185v1.11H3.1zM4.26 3.795v1.112L3.1 4.727v-.932zm-1.3.912-.87-.129v-.783h.87z" style="fill:#fff;fill-opacity:1;fill-rule:nonzero;stroke:none;stroke-width:.352778"/><path stroke="url(#t)" stroke-linejoin="round" stroke-opacity=".375" stroke-width=".198" d="M5.986 2.779v1.56A1.647 1.647 0 0 1 4.34 5.986H2.011A1.647 1.647 0 0 1 .364 4.34V2.225a.697.697 0 0 1 .696-.697h1.107c.262 0 .515.09.718.255a1.337 1.337 0 0 0 .843.3H5.29a.697.697 0 0 1 .696.696z" style="opacity:.875;fill:none;stroke:url(#u)"/></svg>