<svg xmlns="http://www.w3.org/2000/svg" xmlns:xlink="http://www.w3.org/1999/xlink" xml:space="preserve" width="24" height="24" fill="none"><defs><linearGradient id="a"><stop offset="0" style="stop-color:#7b0619;stop-opacity:1"/><stop offset="1" style="stop-color:#c83737;stop-opacity:1"/></linearGradient><linearGradient xlink:href="#a" id="b" x1="54.858" x2="52.813" y1="86.307" y2="1.676" gradientTransform="matrix(.24444 0 0 .24444 -.222 -.222)" gradientUnits="userSpaceOnUse"/><radialGradient id="c" cx="0" cy="0" r="1" gradientTransform="matrix(0 19.98333 -18.6489 0 12 2.008)" gradientUnits="userSpaceOnUse"><stop stop-color="#6DD4FF"/><stop offset="1" stop-color="#0076D4"/></radialGradient></defs><path d="M12 1C2 1 1 6 1 12c0 8 3 11 11 11s11-3 11-11c0-6-1-11-11-11Z" style="font-variation-settings:normal;display:inline;opacity:1;vector-effect:none;fill:url(#b);fill-opacity:1;stroke-width:1.11627;stroke-linecap:butt;stroke-linejoin:miter;stroke-miterlimit:4;stroke-dasharray:none;stroke-dashoffset:0;stroke-opacity:1;-inkscape-stroke:none;stop-color:#000;stop-opacity:1"/><path fill="url(#c)" d="m18.358 5.188-6.812 1.057v5.3h6.812zm-7.72 1.201-4.996.728.006 4.429h4.99Zm-4.99 6.063v4.477l4.99.733v-5.21zm5.898.002v5.337l6.812 1.021v-6.358z" style="fill:url(#c);stroke-width:.908333"/><path d="M18.464 11.416a8.5 8.5 0 0 0-8.5 8.5 8.5 8.5 0 0 0 .567 3.049c.834.054 1.673.06 2.515.016a15.615 15.615 0 0 0 4.764-.825c1.906-.699 3.286-1.97 4.137-3.812a11.88 11.88 0 0 0 .892-3.32c.086-.765.138-1.53.16-2.295a8.5 8.5 0 0 0-4.535-1.313z" style="fill:#d94848;fill-opacity:1;fill-rule:evenodd;stroke-width:.472223;paint-order:fill markers stroke"/><path d="m22.004 15.353-3.506 3.508-3.508-3.506-1.002 1.002 3.508 3.506-2.984 2.985a15.542 15.542 0 0 0 2.476-.475l1.51-1.51.635.635c.416-.247.8-.531 1.148-.852l-.783-.783 2.97-2.97c.083-.283.155-.57.216-.858z" style="fill:#fff;fill-opacity:1;stroke-width:2.00803"/></svg>