<svg xmlns="http://www.w3.org/2000/svg" xmlns:xlink="http://www.w3.org/1999/xlink" xml:space="preserve" id="svg154" width="24" height="24" fill="none" version="1.1"><defs id="defs152"><linearGradient id="linearGradient488"><stop id="stop484" offset="0" style="stop-color:#298fc4;stop-opacity:1"/><stop id="stop486" offset="1" style="stop-color:#91cce1;stop-opacity:1"/></linearGradient><linearGradient id="linearGradient29319"><stop id="stop29317" offset="0" style="stop-color:#d2d8db;stop-opacity:1"/></linearGradient><linearGradient id="fffff"><stop id="stop28389" offset="0" style="stop-color:#fff;stop-opacity:1"/></linearGradient><linearGradient xlink:href="#linearGradient488" id="linearGradient490" x1="52.978" x2="50.989" y1="96.007" y2="9.226" gradientTransform="matrix(.24444 0 0 .24444 -.222 -.222)" gradientUnits="userSpaceOnUse"/><linearGradient id="linearGradient8792"><stop id="stop8790" offset="0" style="stop-color:#000;stop-opacity:1"/></linearGradient><style id="current-color-scheme" type="text/css">.ColorScheme-Text{color:#31363b}.ColorScheme-Background{color:#eff0f1}.ColorScheme-Highlight{color:#3daee9}.ColorScheme-ViewText{color:#31363b}.ColorScheme-ViewBackground{color:#fcfcfc}.ColorScheme-ViewHover{color:#93cee9}.ColorScheme-ViewFocus{color:#3daee9}.ColorScheme-ButtonText{color:#31363b}.ColorScheme-ButtonBackground{color:#eff0f1}.ColorScheme-ButtonHover{color:#93cee9}.ColorScheme-ButtonFocus{color:#3daee9}</style></defs><path id="path6" d="M12 1C2 1 1 6 1 12c0 8 3 11 11 11s11-3 11-11c0-6-1-11-11-11Z" style="font-variation-settings:normal;display:inline;opacity:1;vector-effect:none;fill:url(#linearGradient490);fill-opacity:1;stroke-width:1.11627;stroke-linecap:butt;stroke-linejoin:miter;stroke-miterlimit:4;stroke-dasharray:none;stroke-dashoffset:0;stroke-opacity:1;-inkscape-stroke:none;stop-color:#000;stop-opacity:1"/><path id="path33061" fill="#19536f" d="M15.92 7.53c-3.782.057-5.898 2.212-7.014 4.312-1.022 1.921-1.176 3.51-1.206 3.818H3.246c.103.277.218.548.346.811h4.425a.408.408 0 0 0 .394-.317.265.265 0 0 0 0-.05s.19-1.924 1.217-3.857c.96-1.802 2.665-3.545 5.707-3.817-1.81 3.624.09 7.813.09 7.813a.415.415 0 0 0 .051.05c.07.104.19.172.316.178h4.616c.128-.263.243-.534.346-.811h-4.658c-.155-.347-1.906-4.35.192-7.509a.418.418 0 0 0 .038-.317.416.416 0 0 0-.089-.178.412.412 0 0 0-.317-.127z" style="stroke-width:.345751"/></svg>