<svg xmlns="http://www.w3.org/2000/svg" xmlns:xlink="http://www.w3.org/1999/xlink" xml:space="preserve" id="svg154" width="24" height="24" fill="none" version="1.1"><defs id="defs152"><linearGradient id="linearGradient488"><stop id="stop484" offset="0" style="stop-color:#5793f7;stop-opacity:1"/><stop id="stop486" offset="1" style="stop-color:#9ec1fb;stop-opacity:1"/></linearGradient><linearGradient id="linearGradient29319"><stop id="stop29317" offset="0" style="stop-color:#d2d8db;stop-opacity:1"/></linearGradient><linearGradient id="fffff"><stop id="stop28389" offset="0" style="stop-color:#fff;stop-opacity:1"/></linearGradient><linearGradient xlink:href="#linearGradient488" id="linearGradient490" x1="52.978" x2="50.989" y1="96.007" y2="9.226" gradientTransform="matrix(.24444 0 0 .24444 -.222 -.222)" gradientUnits="userSpaceOnUse"/><linearGradient id="linearGradient8792"><stop id="stop8790" offset="0" style="stop-color:#000;stop-opacity:1"/></linearGradient><style id="current-color-scheme" type="text/css">.ColorScheme-Text{color:#31363b}.ColorScheme-Background{color:#eff0f1}.ColorScheme-Highlight{color:#3daee9}.ColorScheme-ViewText{color:#31363b}.ColorScheme-ViewBackground{color:#fcfcfc}.ColorScheme-ViewHover{color:#93cee9}.ColorScheme-ViewFocus{color:#3daee9}.ColorScheme-ButtonText{color:#31363b}.ColorScheme-ButtonBackground{color:#eff0f1}.ColorScheme-ButtonHover{color:#93cee9}.ColorScheme-ButtonFocus{color:#3daee9}</style></defs><path id="path6" d="M12 1C2 1 1 6 1 12c0 8 3 11 11 11s11-3 11-11c0-6-1-11-11-11Z" style="font-variation-settings:normal;display:inline;opacity:1;vector-effect:none;fill:url(#linearGradient490);fill-opacity:1;stroke-width:1.11627;stroke-linecap:butt;stroke-linejoin:miter;stroke-miterlimit:4;stroke-dasharray:none;stroke-dashoffset:0;stroke-opacity:1;-inkscape-stroke:none;stop-color:#000;stop-opacity:1"/><g id="g34151" style="fill:none" transform="matrix(.44705 0 0 .44705 -48.1 30.215)"><path id="path33400" fill="#fff" d="m123.81-32.839-4.334-13.054c-.433-1.305-.468-1.297.867-1.632l2.6-.652c1.301-.327 1.3-.327 1.734.98l2.145 6.452 4.357 10.516s-.433 1.306-1.733.783l-3.9-1.566c-1.3-.522-1.3-.522-1.736-1.828z"/><path id="path33402" fill="#cee0fd" d="m143.931-27.475.19-.578 5.484-22.166c.324-1.312-.65-3.06-1.95-3.497l-2.602-.875c-1.3-.438-3.082.421-3.468 1.748l-3.34 11.463 2.54 13.326zM129.013-48.36l-2.19 7.615 3.49 10.516a.468.468 0 0 0 .435.328c.18 0 .385-.138.433-.328l1.988-7.977-2.538-11.422s-1.27.367-1.618 1.27z"/><path id="path33404" fill="#fff" d="m135.516-30.646-5.635-17.713c-.275-.773-.867 0-.867 0s.35-1.327 1.618-1.584l4.018-.816c1.302-.264 1.298-.27 1.733 1.087l6.94 21.625c.172.545.647.615.8 0-.325 1.36-.37 1.48-1.67 1.026l-5.202-1.812c-1.3-.453-1.3-.453-1.735-1.813z"/></g></svg>