<svg xmlns="http://www.w3.org/2000/svg" width="24" height="24" viewBox="0 0 6.35 6.35"><defs><radialGradient id="a" cx="0" cy="0" r="1" gradientTransform="rotate(90 1.455 1.72) scale(2.91036)" gradientUnits="userSpaceOnUse"><stop stop-color="#777"/><stop offset="1" stop-color="#444"/></radialGradient></defs><path fill="url(#a)" fill-rule="evenodd" d="M2.539.295a.312.312 0 0 0 .09-.012c.38-.025.76-.024 1.14.003.345.026.678.101 1 .224.536.22.903.603 1.1 1.148.114.328.18.665.2 1.012.029.435.019.869-.03 1.302a3.143 3.143 0 0 1-.236.879 1.87 1.87 0 0 1-1.094 1.008c-.409.139-.829.211-1.26.219a5.668 5.668 0 0 1-1.444-.11C1.13 5.773.59 5.24.385 4.366a5.04 5.04 0 0 1-.12-1.194c-.009-.428.037-.85.137-1.266C.617 1.09 1.135.584 1.957.39c.191-.047.385-.079.582-.094Z" clip-rule="evenodd" style="fill:url(#a);stroke-width:.264578"/><g transform="translate(.917 -73.766) scale(.26666)"><path fill="#fff" d="M.53 284.83v9.524c0 .147.117.265.264.265H16.14a.264.264 0 0 0 .264-.265v-9.525z" paint-order="markers stroke fill"/><path d="M.53 284.83v9.524c0 .147.117.265.264.265H16.14a.264.264 0 0 0 .264-.265v-9.525h-.264v9.272c0 .14-.115.253-.256.253H1.05a.254.254 0 0 1-.256-.253v-9.272z" opacity=".1" paint-order="markers stroke fill"/><path fill="#666" d="M.794 282.448a.264.264 0 0 0-.265.265v2.116h15.875v-2.116a.264.264 0 0 0-.264-.265z" paint-order="stroke markers fill"/><rect width=".794" height=".794" x="14.817" y="283.242" opacity=".35" paint-order="stroke markers fill" ry=".397"/><rect width=".794" height=".794" x="13.229" y="283.242" opacity=".35" paint-order="stroke markers fill" ry=".397"/><rect width=".794" height=".794" x="11.642" y="283.242" opacity=".35" paint-order="stroke markers fill" ry=".397"/><path d="M16.404 291.257a9.605 9.605 0 0 1-3.394 3.362h3.13a.264.264 0 0 0 .264-.265z" opacity=".05" paint-order="markers stroke fill"/><rect width="8.467" height=".529" x="4.233" y="286.946" opacity=".35" paint-order="stroke markers fill" ry=".265"/><circle cx="10.054" cy="287.21" r="1.058" fill="#308fcf" paint-order="stroke markers fill"/><rect width="8.467" height=".529" x="4.233" y="291.179" opacity=".35" paint-order="stroke markers fill" ry=".265"/><circle cx="6.615" cy="291.444" r="1.587" opacity=".15" paint-order="markers stroke fill"/><circle cx="6.615" cy="291.444" r="1.058" fill="#308fcf" paint-order="markers stroke fill"/></g></svg>