<svg xmlns="http://www.w3.org/2000/svg" width="24" height="24" viewBox="0 0 6.35 6.35"><path d="M3.175.265C.529.265.265 1.587.265 3.175c0 2.117.793 2.91 2.91 2.91s2.91-.793 2.91-2.91c0-1.588-.264-2.91-2.91-2.91z" style="font-variation-settings:normal;display:inline;vector-effect:none;fill:#e0cef9;fill-opacity:1;stroke-width:.295341;stroke-linecap:butt;stroke-linejoin:miter;stroke-miterlimit:4;stroke-dasharray:none;stroke-dashoffset:0;stroke-opacity:1;-inkscape-stroke:none;stop-color:#000"/><path d="M3.175.523C.764.523.523 1.728.523 3.175c0 1.929.723 2.652 2.652 2.652 1.929 0 2.652-.723 2.652-2.652 0-1.447-.24-2.652-2.652-2.652z" style="font-variation-settings:normal;display:inline;vector-effect:none;fill:#e5d5fa;fill-opacity:1;stroke-width:.269163;stroke-linecap:butt;stroke-linejoin:miter;stroke-miterlimit:4;stroke-dasharray:none;stroke-dashoffset:0;stroke-opacity:1;-inkscape-stroke:none;stop-color:#000"/><path fill="#9191ff" d="M2.398 4.216c-.296-.014-.527-.088-.694-.224-.166-.135-.249-.334-.249-.596 0-.131.025-.25.075-.36.051-.108.121-.208.212-.301a1.61 1.61 0 0 1 .317-.25 3.1 3.1 0 0 1 .4-.204h-.684v-.325h1.281v.325a3.224 3.224 0 0 0-.582.227 1.657 1.657 0 0 0-.385.268.895.895 0 0 0-.213.3.822.822 0 0 0-.065.32c0 .316.21.487.628.51.2.013.349.061.443.147a.417.417 0 0 1 .145.33c0 .058-.01.116-.031.173a.415.415 0 0 1-.098.154.498.498 0 0 1-.17.11.646.646 0 0 1-.239.046l-.041-.308c.081-.01.14-.03.174-.06a.141.141 0 0 0 .05-.116.128.128 0 0 0-.075-.123.532.532 0 0 0-.199-.043m2.497.004H3.452v-.323l.507-.807-.507-.81v-.324h1.443v.765h-.321v-.44h-.689l.493.809-.493.807h.689v-.444h.32v.767"/><path fill="#c83737" d="M3.213 4.072h-.07L2.5 2.396v1.53l.233.04v.107h-.617v-.108l.222-.04v-1.69l-.222-.038v-.109h.682l.496 1.305.506-1.305h.697v.109l-.223.038v1.69l.223.04v.108h-.863v-.108l.232-.04V2.396l-.653 1.677"/></svg>