<svg xmlns="http://www.w3.org/2000/svg" width="24" height="24"><defs><radialGradient id="a" cx="0" cy="0" r="1" gradientTransform="matrix(0 22 -22 0 12 1)" gradientUnits="userSpaceOnUse"><stop stop-color="#FAFAFA"/><stop offset="1" stop-color="#B0B0B0"/></radialGradient></defs><path fill="url(#a)" fill-rule="evenodd" d="M9.94 1.068c-.11.032-.224.047-.344.046-.742.06-1.476.178-2.2.355-3.106.738-5.064 2.65-5.876 5.736a18.49 18.49 0 0 0-.515 4.786c-.03 1.522.118 3.025.447 4.51.774 3.3 2.816 5.32 6.128 6.058 1.8.37 3.617.507 5.452.412a15.624 15.624 0 0 0 4.766-.825c1.906-.7 3.284-1.97 4.135-3.812a11.88 11.88 0 0 0 .893-3.32c.184-1.638.222-3.28.115-4.924a14.269 14.269 0 0 0-.756-3.824c-.746-2.06-2.133-3.506-4.158-4.34a13.536 13.536 0 0 0-3.78-.847 31.637 31.637 0 0 0-4.307-.011z" clip-rule="evenodd" style="fill:url(#a);stroke-width:1"/><path fill="#4b92d6" d="M11.903 3.997a8.003 8.003 0 1 1 0 16.006 8.003 8.003 0 0 1 0-16.006z"/><path fill="#fff" d="M11.874 3.985a8.071 8.071 0 0 0-1.782.226c-.15.135-.373.204-.623.197-.09.085-.068.245-.117.362-.041.099-.186.204-.284.196-.073-.006-.156-.108-.156-.177 0-.082.113-.127.051-.219a7.98 7.98 0 0 0-1.775 1.006c.145-.054.306-.144.438-.147a.237.237 0 0 1 .062.007c.089.024.322.28.127.362a2.011 2.011 0 0 1-.332.03c-.068-.012-.108-.106-.176-.118-.116-.02-.262.1-.36.046a7.991 7.991 0 0 0-2.449 3.385c.047-.027.095-.056.136-.078.144-.074.264-.195.431-.206a1.48 1.48 0 0 1 .283.04c.074.014.133.064.197.069.18.014.224-.128.371-.206.152.022.254-.026.392-.01.094.01.161.11.235.116.06.007.116-.057.175-.048.058.01.158.135.167.206.012.088-.064.167-.04.264.093.093.261.112.393.166.086-.07.011-.202 0-.304-.002-.045.006-.084 0-.126-.008-.07-.04-.135-.04-.196 0-.279.225-.41.413-.519.08-.048.144-.132.214-.167.1-.05.173-.06.255-.107.148-.083.276-.151.392-.246.054-.126.006-.295.01-.42.054-.032.1.015.157.01.089-.018.096-.145.147-.195.03-.03.11-.05.147-.079.09-.07.118-.175.196-.205.028-.012.092-.008.136-.02.058-.016.14-.085.235-.117.061-.02.202-.026.226-.049.029-.029 0-.112.01-.156.048-.221.38-.268.579-.343.138-.052.278-.147.43-.118-.03.105-.17.068-.146.196.033.177.27-.051.332-.077.12-.05.324-.081.48-.138.138-.05.384-.127.255-.284-.109-.007-.16.126-.254.167-.065.01-.054-.054-.108-.06-.053-.006-.083.048-.137.039-.054-.01-.13-.094-.137-.156-.021-.163.138-.23.205-.353-.044-.147-.249-.03-.372-.088.012-.088.103-.149.206-.165.084-.015.273-.007.323.037.029.025.002.087.049.128.05.046.111.04.176.03.023-.111-.145-.084-.127-.157.133-.087.347-.015.51-.039.093-.014.19-.08.273-.126.079-.045.181-.123.265-.05.022.08-.073.107-.118.147-.15.133-.304.286-.42.44.071.07.2.036.322.05.047.006.107.02.157.03.058.01.12.007.166.018.083.02.105.108.186.108.134 0 .135-.145.06-.236.023-.092.06-.139.029-.204-.06-.12-.282-.006-.294-.156-.007-.098.082-.094.118-.167-.016-.188.154-.202.136-.371-.008-.07-.068-.072-.117-.137-.026-.034-.037-.102-.069-.128-.102-.087-.31-.07-.323-.235-.001-.056.007-.106.012-.159-.095-.004-.188-.013-.283-.014ZM8.06 5.905c.046.007.101.056.156.06.052.002.096-.028.128-.02.082.022.116.145.04.206-.065.008-.09-.028-.138-.02-.133.024-.184.284-.283.275-.094-.008-.145-.236-.05-.304.007-.06-.043-.069-.04-.128.028-.036.109-.075.187-.068m-.441.03c.027.001.047.008.058.02-.013.104-.095.097-.175.146-.14.084-.22.212-.264.392-.013.052-.15.19-.216.176-.155-.032.043-.318.078-.362.039-.048.092-.091.138-.146.044-.054.074-.127.117-.157a.575.575 0 0 1 .264-.068m1.159.352c.05.001.094.01.113.03-.032.129-.31.094-.411.048.007-.05.082-.063.146-.069.045-.001.102-.01.152-.009m-.634.238a.357.357 0 0 1 .102.016.922.922 0 0 1-.343.167c-.075.023-.203.052-.216-.03-.015-.103.109-.079.177-.088.085-.012.18-.062.28-.065m9.832.146a.615.615 0 0 1-.011.223c-.027.106-.122.202-.118.294.007.047.058.093.07.156.006.034-.016.107 0 .138.05.096.185.015.274.029.086.014.187.138.185.235 0 .067-.064.18-.107.245-.086.13-.201.136-.323.204-.102.058-.146.155-.206.255-.064.109-.105.175-.078.332a.771.771 0 0 1-.402.363c-.054.024-.126.032-.175.068-.04.028-.062.104-.118.166-.069.077-.14.109-.177.167-.028.045-.037.135-.068.196-.042.082-.13.123-.185.206-.026.038-.042.116-.07.166-.062.113-.168.194-.156.293.011.096.12.113.127.196.002.048-.03.077-.029.128.002.075.053.128.059.186.015.145-.05.203-.077.303-.014.047-.008.1-.02.137-.024.073-.126.139-.128.225-.001.061.063.11.068.196.002.059-.03.122-.019.177.02.106.211.23.294.313.11.11.256.197.303.313.04.1.04.229.118.303.057.055.151.09.225.147.068.053.143.1.216.156.119.094.298.28.489.265.099-.007.2-.089.313-.108.115-.02.266-.03.382-.019.09.01.181.063.275.058.097-.006.21-.078.322-.127.176-.077.433-.172.69-.158.05-.36.084-.726.084-1.101a7.985 7.985 0 0 0-1.151-4.135c-.034-.003-.065-.008-.102-.006-.1.006-.263.006-.264-.118-.001-.101.095-.123.211-.131a8.002 8.002 0 0 0-.72-.936M5.739 10.346c-.162.009-.268.017-.361.058-.212.096-.17.383-.383.451-.073.024-.173.024-.253.04-.07.012-.154.05-.227.048a.543.543 0 0 1-.282-.137 1.328 1.328 0 0 1-.13-.256 8.195 8.195 0 0 0-.107.86c.017.003.036.008.05.008.093 0 .192-.096.295-.099.24-.006.344.306.538.402.048.024.112.025.175.039.05.011.09.033.138.05.104.034.23.03.313.067.125.056.216.29.323.352.006.063-.012.149.01.196.05.069.123.054.206.099.1.054.13.192.225.235.033.014.115.013.167.029.13.04.172.19.283.156.072-.022.067-.097.08-.167.047-.052.1-.135.175-.136.121-.006.132.126.177.244.025.067.09.125.107.196.031.121.016.486-.01.558-.03.09-.151.128-.226.227-.035.046-.051.113-.078.146-.048.058-.12.074-.156.128-.02.03-.039.096-.059.136-.06.125-.138.213-.088.363.02.06.117.103.117.175 0 .086-.182.162-.195.255-.011.07.055.194.078.284.016.068.145.111.185.157.07.077.125.186.187.283.124.19.221.422.342.607.064.097.153.184.196.284.022.05.019.111.04.156.07.158.378.324.537.402.074.036.157.049.226.087.104.058.309.213.362.304.046.082.075.28.098.41.03.172.001.305.01.49.007.101.038.202.04.303 0 .036-.02.062-.02.097-.003.123.03.26.02.383a.371.371 0 0 1-.009.07 8.03 8.03 0 0 0 3.13.629c.116 0 .23-.013.345-.018l.008-.051c.036-.1.127-.133.186-.206.045-.056.065-.12.108-.176.046-.06.087-.113.117-.166.029-.18-.07-.304-.03-.46.048-.176.29-.283.46-.363.06-.027.12-.071.168-.088.117-.041.264-.019.372-.058.183-.067.203-.264.293-.431.043-.079.099-.159.108-.215.007-.05-.019-.098-.01-.157.008-.06.061-.11.078-.176.021-.085.03-.209.03-.303 0-.077-.036-.146-.039-.216-.012-.254.092-.282.186-.42.047-.069.064-.147.097-.196.158-.235.431-.349.412-.704-.007-.118-.08-.385-.167-.422-.05-.022-.163-.002-.235-.029-.23-.087-.367-.373-.607-.392-.051-.006-.098.022-.155.02-.095-.006-.239-.066-.344-.078-.067-.008-.156.02-.196 0-.061-.03-.067-.142-.117-.176-.04-.027-.116-.036-.176-.06-.096-.037-.173-.08-.284-.088-.034-.001-.077.017-.118.01-.06-.01-.11-.083-.166-.117-.071-.043-.137-.065-.167-.126.064-.21-.113-.27-.156-.392-.02-.057-.011-.126-.03-.177-.025-.073-.097-.115-.176-.176-.142-.109-.268-.211-.47-.236-.089-.011-.176.027-.284.02-.114-.007-.257-.107-.342-.204-.083-.095-.124-.18-.196-.227-.068-.043-.16-.042-.206-.086-.02-.02-.017-.053-.039-.099-.034-.07-.092-.11-.049-.196-.078-.04-.08.074-.166.06-.076-.108-.14-.16-.313-.128-.079.015-.123.115-.216.117-.075.007-.135-.084-.234-.098-.076-.01-.161.02-.215.01-.084-.016-.11-.086-.186-.136-.056-.037-.164-.1-.195-.099-.1.007-.169.21-.305.138-.065-.084.107-.128.03-.206-.06-.06-.11.027-.157.06-.054.038-.105.075-.165.097-.135.05-.218.024-.323.079-.097.05-.102.134-.156.235-.046.081-.149.2-.217.205-.081.006-.16-.114-.234-.146-.224-.098-.333.086-.519.088-.173.006-.42-.279-.41-.441.001-.1.056-.25.068-.372.01-.098.077-.156.078-.246.002-.119-.158-.21-.235-.225-.182-.033-.437.074-.646-.01-.04-.066.046-.112.069-.177.012-.037.006-.086.019-.126.023-.063.088-.111.117-.177.022-.05.028-.124.05-.186.025-.071.072-.117.078-.167a.22.22 0 0 0-.07-.185m2.618 2.072c.066.007.074.143.007.155-.074.011-.11-.115-.04-.148a.06.06 0 0 1 .033-.007" opacity=".25"/><g fill="#fff" transform="matrix(.29641 0 0 .29641 2.514 1.626)"><rect width="8" height="15" x="28" y="22" ry="0"/><path d="M21 37h22L32.003 47.997Z"/></g></svg>