<svg xmlns="http://www.w3.org/2000/svg" width="24" height="24" version="1"><defs><radialGradient id="a" cx="0" cy="0" r="1" gradientTransform="matrix(0 11 -11 0 12 1)" gradientUnits="userSpaceOnUse"><stop stop-color="#777"/><stop offset="1" stop-color="#444"/></radialGradient></defs><path fill="url(#a)" fill-rule="evenodd" d="M9.596 1.114c.12 0 .234-.014.344-.046a31.627 31.627 0 0 1 4.307.011c1.301.102 2.561.384 3.78.848 2.025.833 3.412 2.28 4.158 4.339.427 1.24.679 2.514.756 3.824a27.94 27.94 0 0 1-.115 4.923 11.88 11.88 0 0 1-.893 3.32c-.85 1.843-2.229 3.114-4.135 3.813a15.624 15.624 0 0 1-4.766.825 21.423 21.423 0 0 1-5.452-.412c-3.312-.738-5.354-2.757-6.128-6.057a19.047 19.047 0 0 1-.447-4.511 18.491 18.491 0 0 1 .515-4.786c.812-3.086 2.77-4.998 5.877-5.736a13.953 13.953 0 0 1 2.199-.355z" clip-rule="evenodd" style="fill:url(#a)"/><g transform="matrix(.30534 0 0 .30534 20.711 -9.917)"><circle cx="-38.503" cy="67.398" r="11.313" fill="#ececec"/><circle cx="-38.503" cy="65.208" r="4.014" fill="#479ae5"/><circle cx="-38.503" cy="65.208" r="1.095" opacity=".75"/><circle cx="-21.473" cy="73.237" r="14.232" fill="#fff"/><circle cx="-19.527" cy="71.047" r="6.204" fill="#479ae5"/><circle cx="-19.527" cy="71.047" r="1.825" opacity=".75"/></g></svg>