<svg xmlns="http://www.w3.org/2000/svg" width="24" height="24" fill="none"><defs><radialGradient id="a" cx="0" cy="0" r="1" gradientTransform="matrix(0 22 -22 0 12 1)" gradientUnits="userSpaceOnUse"><stop offset="0" stop-color="#8FC8FF" style="stop-color:#f6f6f6;stop-opacity:1"/><stop offset="1" stop-color="#0056A8" style="stop-color:#cfcfcf;stop-opacity:1"/></radialGradient></defs><path d="M50 5C9.09 5 5 25.455 5 50c0 32.727 12.273 45 45 45 32.727 0 45-12.273 45-45 0-24.545-4.09-45-45-45Z" style="font-variation-settings:normal;display:inline;opacity:1;vector-effect:none;fill:#00aade;fill-opacity:1;stroke-width:4.56656;stroke-linecap:butt;stroke-linejoin:miter;stroke-miterlimit:4;stroke-dasharray:none;stroke-dashoffset:0;stroke-opacity:1;-inkscape-stroke:none;stop-color:#000;stop-opacity:1" transform="matrix(.24444 0 0 .24444 -.222 -.222)"/><path fill="#fff" fill-rule="evenodd" d="M12.128 282.809c-.595.09-.885 3.773-.62 4.27.456-.297 1.133-1.717 1.346-2.2-.165.45-.372 2.578-.287 2.603.179.24 2.617-3.778 1.908-4.065-.101-.04-.786 1.216-1.356 2.497.007-.548.45-2.204.27-2.708-.362-.106-1.048 1.466-1.329 2.203-.088-.374.385-2.419.068-2.6zm-5.377.388c-.181.004-.322.06-.372.058-1.154.162-.808 1.781-.319 3.298.04.388-.362.226-.625-.181-.887-2.17-1.277-2.1-1.525-2.164-.237-.048-1.06.384-1.041 1.262.003.253.316 1.442.319 1.81-1.04 1.784-1.463 3.552-.16 5.379 1.313 1.741 5.224 1.798 5.923 1.388.267-.186 4.257-2.152 5.177-2.915 1.37-1.135-.036-2.563-.366-2.761-2.84-1.858-5.744-1.472-5.782-1.766-.02-.341-.008-1.288-.058-1.623-.192-1.566-.775-1.794-1.17-1.785zm3.851 5.808c-.1.546-1.196 1.766-1.537 2.12.257-.29 2.26-1.372 2.318-1.3.292.072-2.38 3.54-2.919 2.997-.078-.078.591-1.041 1.687-1.882-.503.216-1.964 1.018-2.497 1.045-.239-.29 1.295-1.264 1.622-1.825-.379.063-2.379 1.003-2.668.781-.148-.584 3.359-1.605 3.994-1.936z" style="stroke-width:1.35223" transform="translate(2.52 -311.102) scale(1.11982)"/></svg>