<svg xmlns="http://www.w3.org/2000/svg" width="24" height="24" fill="none"><defs><radialGradient id="a" cx="0" cy="0" r="1" gradientTransform="matrix(0 22 -22 0 12 1)" gradientUnits="userSpaceOnUse"><stop offset="0" stop-color="#8FC8FF" style="stop-color:#f6f6f6;stop-opacity:1"/><stop offset="1" stop-color="#0056A8" style="stop-color:#cfcfcf;stop-opacity:1"/></radialGradient></defs><path d="M50 5C9.09 5 5 25.455 5 50c0 32.727 12.273 45 45 45 32.727 0 45-12.273 45-45 0-24.545-4.09-45-45-45Z" style="font-variation-settings:normal;display:inline;opacity:1;vector-effect:none;fill:#b375c4;fill-opacity:1;stroke-width:4.56656;stroke-linecap:butt;stroke-linejoin:miter;stroke-miterlimit:4;stroke-dasharray:none;stroke-dashoffset:0;stroke-opacity:1;-inkscape-stroke:none;stop-color:#000;stop-opacity:1" transform="matrix(.24444 0 0 .24444 -.222 -.222)"/><path fill="#fff" fill-opacity=".972" d="M32.061-13.341a11.113 11.113 0 1 0-.008 22.223 11.113 11.113 0 0 0 .008-22.223zm0 30.56c-6.506 0-11.118 5.073-11.118 11.319v38.49c0 6.25 4.612 11.315 11.118 11.315 6.501-.002 11.108-5.064 11.108-11.315v-38.49c0-6.251-4.604-11.319-11.108-11.319z" style="stroke-width:2.77825" transform="matrix(.1985 0 0 .1985 5.648 5.648)"/></svg>