<svg xmlns="http://www.w3.org/2000/svg" width="24" height="24"><defs><radialGradient id="a" cx="0" cy="0" r="1" gradientTransform="matrix(0 11 -11 0 12 1)" gradientUnits="userSpaceOnUse"><stop stop-color="#777"/><stop offset="1" stop-color="#444"/></radialGradient><linearGradient id="b" x1="3.539" x2="20.461" y1="17.421" y2="17.421" gradientTransform="translate(0 -1.968)" gradientUnits="userSpaceOnUse" spreadMethod="pad"><stop offset="0" style="stop-opacity:1;stop-color:#e0e0e0"/><stop offset=".134" style="stop-opacity:1;stop-color:#858585"/><stop offset=".845" style="stop-opacity:1;stop-color:#858585"/><stop offset="1" style="stop-opacity:1;stop-color:#dfdfdf"/></linearGradient></defs><path fill="url(#a)" fill-rule="evenodd" d="M9.596 1.114c.12 0 .234-.014.344-.046a31.627 31.627 0 0 1 4.307.011c1.301.102 2.561.384 3.78.848 2.025.833 3.412 2.28 4.158 4.339.427 1.24.679 2.514.756 3.824a27.94 27.94 0 0 1-.115 4.923 11.88 11.88 0 0 1-.893 3.32c-.85 1.843-2.229 3.114-4.135 3.813a15.624 15.624 0 0 1-4.766.825 21.423 21.423 0 0 1-5.452-.412c-3.312-.738-5.354-2.757-6.128-6.057a19.047 19.047 0 0 1-.447-4.511 18.491 18.491 0 0 1 .515-4.786c.812-3.086 2.77-4.998 5.877-5.736a13.953 13.953 0 0 1 2.199-.355z" clip-rule="evenodd" style="fill:url(#a)"/><path d="M4.104 14.043h15.792a.56.56 0 0 1 .563.562v1.692c0 .314-.251.568-.563.568H4.104a.565.565 0 0 1-.563-.568v-1.692a.56.56 0 0 1 .563-.562z" style="fill:url(#b);stroke:none;stroke-width:1.33333"/><path fill="#fff" d="M5.766 14.62a.848.848 0 0 0-.848.847.848.848 0 0 0 .848.848.848.848 0 0 0 .847-.848.848.848 0 0 0-.847-.848Zm0 .282a.565.565 0 0 1 .565.565.565.565 0 0 1-.565.565.565.565 0 0 1-.565-.565.565.565 0 0 1 .565-.565z" style="stroke-width:.282555;paint-order:fill markers stroke"/><rect width="4.521" height="1.13" x="14.242" y="14.902" fill="#fff" rx=".283" ry=".283" style="stroke-width:.282555;paint-order:fill markers stroke"/><rect width="1.13" height="1.13" x="8.026" y="14.902" fill="#fff" rx=".283" ry=".283" style="stroke-width:.282555;paint-order:fill markers stroke"/><rect width="1.13" height="1.13" x="9.721" y="14.902" fill="#fff" rx=".283" ry=".283" style="stroke-width:.282555;paint-order:fill markers stroke"/><rect width="1.13" height="1.13" x="11.417" y="14.902" fill="#fff" rx=".283" ry=".283" style="stroke-width:.282555;paint-order:fill markers stroke"/></svg>