<svg xmlns="http://www.w3.org/2000/svg" width="24" height="24" fill="none"><defs><radialGradient id="a" cx="0" cy="0" r="1" gradientTransform="matrix(0 22 -22 0 12 1)" gradientUnits="userSpaceOnUse"><stop offset="0" stop-color="#8FC8FF" style="stop-color:#f6f6f6;stop-opacity:1"/><stop offset="1" stop-color="#0056A8" style="stop-color:#cfcfcf;stop-opacity:1"/></radialGradient></defs><path d="M50 5C9.09 5 5 25.455 5 50c0 32.727 12.273 45 45 45 32.727 0 45-12.273 45-45 0-24.545-4.09-45-45-45Z" style="font-variation-settings:normal;display:inline;opacity:1;vector-effect:none;fill:#df4139;fill-opacity:1;stroke-width:4.56656;stroke-linecap:butt;stroke-linejoin:miter;stroke-miterlimit:4;stroke-dasharray:none;stroke-dashoffset:0;stroke-opacity:1;-inkscape-stroke:none;stop-color:#000;stop-opacity:1" transform="matrix(.24444 0 0 .24444 -.222 -.222)"/><path fill="#f9f9f9" d="M8.53 7.082c-.036 0-.08.006-.127.008-.185.013-3.679.636-3.902.699-.236.068-.434.206-.483.334-.084.223.158.945.476 1.43.55.838 1.35 1.369 3.034 2.019.926.355 1.117.446 1.236.58.167.181.03.264-1.19.784-1.909.81-2.768 1.498-3.131 2.513-.112.302-.159 1.098-.085 1.298.098.26.158.257 2.003-.08 1.852-.337 1.937-.356 2.093-.498.125-.117.133-.142.19-.682.028-.308.096-.695.143-.854.11-.372.39-.76.693-.966 1.157-.78 3.33-.389 4.509.805.442.448.722.928.945 1.625.126.405.259.58.459.616.185.038.189.038 2.549-.395 1.31-.238 1.852-.353 1.933-.414.166-.12.166-.423.002-.922-.283-.861-.775-1.483-1.686-2.144-.451-.327-1.02-.635-1.984-1.077-.914-.422-1.103-.533-1.103-.664 0-.105.113-.155.839-.362 1.593-.458 2.21-1.096 2.21-2.283 0-.52-.098-.94-.26-1.073-.212-.184-.437-.19-1.327-.034-2.853.49-2.772.474-2.902.68-.07.11-.066.132.06.627.076.284.133.584.133.665a.983.983 0 0 1-.238.573c-.284.255-.928.429-1.59.429-.797 0-1.398-.265-1.995-.871-.43-.442-.652-.813-.945-1.595-.257-.686-.295-.775-.559-.775"/></svg>