<svg xmlns="http://www.w3.org/2000/svg" width="24" height="24" fill="none"><defs><radialGradient id="a" cx="0" cy="0" r="1" gradientTransform="matrix(0 22 -22 0 12 1)" gradientUnits="userSpaceOnUse"><stop offset="0" stop-color="#8FC8FF" style="stop-color:#f6f6f6;stop-opacity:1"/><stop offset="1" stop-color="#0056A8" style="stop-color:#cfcfcf;stop-opacity:1"/></radialGradient></defs><path d="M50 5C9.09 5 5 25.455 5 50c0 32.727 12.273 45 45 45 32.727 0 45-12.273 45-45 0-24.545-4.09-45-45-45Z" style="font-variation-settings:normal;display:inline;opacity:1;vector-effect:none;fill:#454545;fill-opacity:1;stroke-width:4.56656;stroke-linecap:butt;stroke-linejoin:miter;stroke-miterlimit:4;stroke-dasharray:none;stroke-dashoffset:0;stroke-opacity:1;-inkscape-stroke:none;stop-color:#000;stop-opacity:1" transform="matrix(.24444 0 0 .24444 -.222 -.222)"/><path fill="#fab268" d="M13.951 7.577c-2.455.654-4.343 2.849-6.518 4.368.927-.38 2.092-.976 2.567-1.017l-1.533 1.7 1.184-.517c-.53 1.574-1.157 3.043-2.684 3.617l5.034 3.873 5.27-4.138c-2.059.055-3.888-.186-4.084-2.551-.05-.283.023-2.25 2.85-3.15-.285-.196-1.241-.065-1.916-.067-.03-.266.135-1.421 2.317-1.55-.548-.563-1.238-.607-2.218-.3-.103-.1-.164-.09-.266-.267m-.567.85c.14.06.158.152.183.25-.244.05-.588.167-.683.034-.044-.046.254-.214.502-.279"/><path fill="#7799b9" d="M8.634 4.507a7.99 7.99 0 0 0-4.635 7.252 8 8 0 0 0 16.001 0 7.981 7.981 0 0 0-4.534-7.202l-.083.084a6.931 6.931 0 0 1 3.552 6.049 6.92 6.92 0 0 1-5.934 6.851l-1 1.686-1-1.686a6.92 6.92 0 0 1-5.935-6.851 6.93 6.93 0 0 1 3.617-6.085c-.014-.032-.035-.067-.05-.1"/></svg>