<svg xmlns="http://www.w3.org/2000/svg" width="24" height="24" fill="none"><defs><radialGradient id="a" cx="0" cy="0" r="1" gradientTransform="matrix(0 22 -22 0 12 1)" gradientUnits="userSpaceOnUse"><stop offset="0" stop-color="#8FC8FF" style="stop-color:#f6f6f6;stop-opacity:1"/><stop offset="1" stop-color="#0056A8" style="stop-color:#cfcfcf;stop-opacity:1"/></radialGradient></defs><path d="M50 5C9.09 5 5 25.455 5 50c0 32.727 12.273 45 45 45 32.727 0 45-12.273 45-45 0-24.545-4.09-45-45-45Z" style="font-variation-settings:normal;display:inline;opacity:1;vector-effect:none;fill:#ececec;fill-opacity:1;stroke-width:4.56656;stroke-linecap:butt;stroke-linejoin:miter;stroke-miterlimit:4;stroke-dasharray:none;stroke-dashoffset:0;stroke-opacity:1;-inkscape-stroke:none;stop-color:#000;stop-opacity:1" transform="matrix(.24444 0 0 .24444 -.222 -.222)"/><path fill="#2d2d2d" d="m9.433 5.433 8.058 9.188c1.187 1.428-1.034 1.634-1.52 1.51L7.568 6.51C6.463 5.297 8.694 4.845 9.434 5.433"/><path fill="#2d2d2d" d="m14.457 6.527-3.31 3.764-4.53 6.54c-1.492 3.42 1.131 2.017 1.624 1.016l3.876-6.364 4.69-4.863c.91-1.428-.59-2.745-2.357-.093"/><path fill="#2d2d2d" d="M7.658 17.788c.681.13.923.183 1.345-.077l-.13.75c-.413.13-.827.284-1.24-.078"/><path fill="#3686dd" d="M16.242 9.673 9.42 15.935l-.916 2.484 2.547-.752.007.007.014-.013h.002l6.754-6.272s.112-.371-.571-1.098c-.496-.524-.862-.608-1.014-.618z"/></svg>