<svg xmlns="http://www.w3.org/2000/svg" xml:space="preserve" width="24" height="24" fill="none"><path fill="url(#a)" fill-rule="evenodd" d="M9.596 1.114c.12 0 .234-.014.344-.046a31.627 31.627 0 0 1 4.307.011c1.301.102 2.561.384 3.78.848 2.025.833 3.412 2.28 4.158 4.339.427 1.24.679 2.514.756 3.824a27.94 27.94 0 0 1-.114 4.923 11.88 11.88 0 0 1-.894 3.32c-.85 1.843-2.229 3.114-4.135 3.813a15.624 15.624 0 0 1-4.765.825 21.423 21.423 0 0 1-5.453-.413c-3.312-.737-5.354-2.756-6.128-6.056a19.047 19.047 0 0 1-.447-4.511 18.491 18.491 0 0 1 .515-4.786c.812-3.086 2.77-4.998 5.877-5.736a13.953 13.953 0 0 1 2.199-.355Z" clip-rule="evenodd"/><defs><radialGradient id="a" cx="0" cy="0" r="1" gradientTransform="matrix(0 22 -22 0 12 1)" gradientUnits="userSpaceOnUse"><stop stop-color="#555"/><stop offset="1" stop-color="#222"/></radialGradient></defs><rect width="10.364" height="1.295" x="8.821" y="17.154" fill="#39f" paint-order="stroke markers fill" ry=".649" style="stroke-width:2.44839"/><path fill="#39f" d="M5.592 5.402a.646.646 0 0 0-.642.318.646.646 0 0 0 .238.886l6.96 4.016-6.96 4.013a.646.646 0 0 0-.24.886c.181.311.575.416.886.238l7.852-4.535a.637.637 0 0 0 .311-.55c.007-.02.005-.037.007-.055 0-.02 0-.036-.004-.056a.637.637 0 0 0-.314-.548L5.836 5.48a.651.651 0 0 0-.244-.078Z" paint-order="stroke markers fill" style="stroke-width:2.44839"/></svg>