<svg xmlns="http://www.w3.org/2000/svg" xml:space="preserve" width="24" height="24" viewBox="0 0 6.35 6.35"><defs><radialGradient id="a" cx="0" cy="0" r="1" fx="0" fy="0" gradientTransform="matrix(0 16.5 -16.5 0 9 .75)" gradientUnits="userSpaceOnUse" spreadMethod="pad"><stop offset="0" style="stop-opacity:1;stop-color:#10d996"/><stop offset="1" style="stop-opacity:1;stop-color:#0bae84"/></radialGradient></defs><path d="M7.195.836c.09 0 .176-.012.258-.035a23.86 23.86 0 0 1 3.231.008 10.26 10.26 0 0 1 2.836.636c1.519.625 2.558 1.711 3.121 3.254.316.93.507 1.887.566 2.867a21.227 21.227 0 0 1-.086 3.696 8.976 8.976 0 0 1-.672 2.488c-.637 1.383-1.672 2.336-3.101 2.859a11.693 11.693 0 0 1-3.575.618 15.998 15.998 0 0 1-4.089-.309c-2.481-.551-4.016-2.066-4.594-4.543a14.244 14.244 0 0 1-.336-3.383c-.027-1.215.101-2.41.387-3.59.609-2.312 2.078-3.746 4.406-4.3A10.27 10.27 0 0 1 7.195.836Z" style="fill:url(#a);fill-rule:evenodd;stroke:none" transform="scale(.35277)"/><path d="M8.352 3.375a5.064 5.064 0 0 0-.95.066.519.519 0 0 0-.433.43c-.102.664-.008 1.422-.008 2.098 0 .363.082.836-.016 1.187-.121.449-.472.906-.695 1.317-.512.949-1.031 1.894-1.535 2.847-.395.746-1.141 1.625-.723 2.504.418.887 1.371.754 2.188.754h4.664c.718 0 1.586.129 2.285-.039.652-.16 1.101-.832.984-1.496-.078-.438-.347-.84-.562-1.223-.281-.492-.531-1.004-.809-1.5-.414-.734-.808-1.48-1.203-2.222-.16-.305-.449-.66-.5-1.004-.121-.797-.008-1.699-.008-2.504 0-.309.086-.75-.14-.992-.227-.239-.625-.168-.922-.168-.512 0-1.074-.051-1.617-.055Zm-.2 4.121c.477.004.66.77.125.926-.574.164-.847-.723-.281-.899a.47.47 0 0 1 .156-.027Zm-.011 1.66c.843-.011 1.082 1.309.168 1.516-.957.223-1.313-1.285-.344-1.496a.905.905 0 0 1 .176-.02Zm1.351 1.192c.465.007.649.757.133.922-.586.183-.875-.715-.285-.899a.54.54 0 0 1 .152-.023Zm-2.82.586c.32-.008.68.14.949.242.758.281 1.508.722 2.348.64a3.131 3.131 0 0 0 1-.3c.25-.118.5-.297.785-.18.215.09.308.293.418.484.223.391.816 1.2.144 1.492-.433.188-1.191.043-1.66.043H7.18c-.426 0-1.106.129-1.5-.043-.766-.332.09-1.41.328-1.835.113-.196.219-.438.453-.512a.748.748 0 0 1 .211-.031z" style="fill:#dbf7ee;fill-opacity:1;fill-rule:nonzero;stroke:none" transform="scale(.35277)"/></svg>