<svg xmlns="http://www.w3.org/2000/svg" xml:space="preserve" width="24" height="24" fill="none"><path fill="url(#a)" fill-rule="evenodd" d="M9.596 1.114c.12 0 .234-.014.344-.046a31.627 31.627 0 0 1 4.307.011c1.301.102 2.561.384 3.78.848 2.025.833 3.412 2.28 4.158 4.339.427 1.24.679 2.514.756 3.824a27.94 27.94 0 0 1-.115 4.923 11.88 11.88 0 0 1-.893 3.32c-.85 1.843-2.229 3.114-4.135 3.813a15.624 15.624 0 0 1-4.766.825 21.423 21.423 0 0 1-5.452-.412c-3.312-.738-5.354-2.757-6.128-6.057a19.047 19.047 0 0 1-.447-4.511 18.491 18.491 0 0 1 .515-4.786c.812-3.086 2.77-4.998 5.877-5.736a13.953 13.953 0 0 1 2.199-.355z" clip-rule="evenodd" style="fill:url(#a)"/><g fill="#fafafa"><path d="M18.669 17.143H9.385a.651.651 0 0 0-.665.637c0 .352.298.637.665.637h9.284a.651.651 0 0 0 .664-.637.651.651 0 0 0-.664-.637zM5.413 5.588a.686.686 0 0 0-.377.062.652.652 0 0 0-.364.487.611.611 0 0 0 .132.472c.054.066.12.122.196.164l7.125 3.948L5 14.67a.654.654 0 0 0-.31.387.61.61 0 0 0 .067.484.68.68 0 0 0 .907.234l8.04-4.458a.639.639 0 0 0 .235-.23.606.606 0 0 0 .084-.312c.005-.02.003-.036.005-.053 0-.02 0-.036-.005-.055a.606.606 0 0 0-.085-.31.639.639 0 0 0-.233-.23l-8.04-4.46a.686.686 0 0 0-.252-.08Z"/></g><defs><radialGradient id="c" cx="0" cy="0" r="1" fx="0" fy="0" gradientUnits="userSpaceOnUse" spreadMethod="pad"><stop offset="0" style="stop-opacity:.90196078;stop-color:#fff"/><stop offset="1" style="stop-opacity:.90196078;stop-color:#fff"/></radialGradient><linearGradient id="a" x1="12" x2="12" y1="1" y2="12" gradientUnits="userSpaceOnUse"><stop stop-color="#7DB9FF"/><stop offset="1" stop-color="#197CF1" style="stop-color:#2569bb;stop-opacity:.90196079"/></linearGradient><clipPath id="b" clipPathUnits="userSpaceOnUse"><path d="M-.045-.545h1.09v1.09h-1.09z"/></clipPath></defs></svg>