<svg xmlns="http://www.w3.org/2000/svg" xmlns:xlink="http://www.w3.org/1999/xlink" xml:space="preserve" width="24" height="24"><defs><radialGradient id="b" cx="0" cy="0" r="1" fx="0" fy="0" gradientTransform="matrix(0 22 -22 0 12 1)" gradientUnits="userSpaceOnUse" spreadMethod="pad"><stop offset="0" style="stop-color:#d9d9d9;stop-opacity:1"/><stop offset="1" style="stop-color:#cacbcf;stop-opacity:1"/></radialGradient><linearGradient id="a"><stop offset="0"/><stop offset="1" stop-opacity="0"/></linearGradient></defs><linearGradient id="c" gradientUnits="userSpaceOnUse"><stop offset="0" stop-color="#292c2f"/><stop offset="1" stop-opacity="0"/></linearGradient><linearGradient id="d" x1="388.42" x2="388.42" y1="557.8" y2="505.8" gradientTransform="matrix(.58696 0 0 .53846 -274.36 -220.73)" gradientUnits="userSpaceOnUse"><stop offset="0" stop-color="#7f8c8d"/><stop offset="1" stop-color="#afb0b3"/></linearGradient><use xlink:href="#a" width="100%" height="100%" fill="#fff" fill-rule="evenodd" opacity=".5" transform="matrix(1.6 0 0 1.6 40 19)"/><path d="M9.593 1.115c.12 0 .235-.016.344-.047a31.814 31.814 0 0 1 4.308.01 13.68 13.68 0 0 1 3.781.849c2.026.833 3.41 2.281 4.162 4.338.42 1.24.676 2.516.754 3.823a28.303 28.303 0 0 1-.114 4.928 11.968 11.968 0 0 1-.896 3.317c-.85 1.844-2.23 3.115-4.135 3.812-1.543.522-3.13.798-4.767.824a21.33 21.33 0 0 1-5.452-.412c-3.308-.734-5.354-2.754-6.125-6.057a18.991 18.991 0 0 1-.448-4.51c-.036-1.62.135-3.214.516-4.787.812-3.083 2.77-4.995 5.875-5.734a13.692 13.692 0 0 1 2.197-.354Z" style="fill:url(#b);fill-rule:evenodd;stroke:none;stroke-width:1.33333"/><g fill-rule="evenodd" transform="translate(-1.914 .222) scale(.43563)"><path fill="#fff" d="M48 27.122C48 35.837 40.837 43 32 43s-16-7.163-16-15.878C16 18.164 23.163 11 32 11s16 7.164 16 16.122"/><use xlink:href="#c" width="100%" height="100%" fill="#1a1a1a" transform="translate(27 22)"/><use xlink:href="#d" width="100%" height="100%" fill="#fff" opacity=".1" transform="translate(27.003 22.007)"/></g><path fill="#fff" d="M-7.973 4.578a7.406 7.406 0 1 0 0 14.812 7.406 7.406 0 0 0 0-14.812zm4.538 11.944a6.41 6.41 0 0 1-2.04 1.377 6.38 6.38 0 0 1-2.498.503 6.38 6.38 0 0 1-2.498-.503 6.41 6.41 0 0 1-2.04-1.377 6.39 6.39 0 0 1-1.881-4.538 6.393 6.393 0 0 1 1.88-4.538 6.385 6.385 0 0 1 2.04-1.376 6.374 6.374 0 0 1 2.499-.504c.867 0 1.707.17 2.498.504a6.384 6.384 0 0 1 2.04 1.376 6.393 6.393 0 0 1 1.88 4.538 6.392 6.392 0 0 1-1.88 4.538z" style="stroke-width:.435631" transform="translate(20)"/><g stroke-width=".5"><path fill="#8cd839" d="M12.027 5.014a6.97 6.97 0 0 0-6.023 3.473l6.023 3.01 6.018-3.01a6.97 6.97 0 0 0-6.018-3.473Z"/><path fill="#419bc8" d="M5.61 9.264a6.97 6.97 0 0 0-.553 2.72 6.97 6.97 0 0 0 6.534 6.949v-6.68Z"/><path fill="#57cfc2" d="m18.436 9.265-5.974 2.989v6.685a6.97 6.97 0 0 0 6.535-6.954 6.97 6.97 0 0 0-.56-2.72Z"/></g><path d="M1.201 15.11c.068.465.15.929.252 1.39.77 3.303 2.817 5.322 6.125 6.057 1.248.255 2.503.4 3.766.433v-3.037c-3.701-.199-5.986-1.902-7.117-4.844Z" style="fill:#949496;fill-opacity:1;stroke-width:.465671"/><rect width=".246" height="1.72" x="-14.785" y="20.074" fill-rule="evenodd" opacity=".15" rx=".123" style="stroke-width:.245732" transform="scale(-1 1)"/><rect width=".246" height="1.72" x="-14.293" y="20.074" fill-rule="evenodd" opacity=".15" rx=".123" style="stroke-width:.245732" transform="scale(-1 1)"/><rect width=".246" height="1.72" x="-13.802" y="20.074" fill-rule="evenodd" opacity=".15" rx=".123" style="stroke-width:.245732" transform="scale(-1 1)"/><rect width=".246" height="1.72" x="-13.31" y="20.074" fill-rule="evenodd" opacity=".15" rx=".123" style="stroke-width:.245732" transform="scale(-1 1)"/><rect width=".246" height="1.72" x="-12.819" y="20.074" fill-rule="evenodd" opacity=".15" rx=".123" style="stroke-width:.245732" transform="scale(-1 1)"/><path d="M16.505 20.934c0-.491-.737-.491-.737 0 0 .492.737.492.737 0z" opacity=".15" style="stroke-width:.245732"/></svg>