<svg xmlns="http://www.w3.org/2000/svg" width="24" height="24"><defs><radialGradient id="b" cx="0" cy="0" r="1" fx="0" fy="0" gradientTransform="matrix(0 22 -22 0 12 1)" gradientUnits="userSpaceOnUse" spreadMethod="pad"><stop offset="0" style="stop-color:#c6e3a6;stop-opacity:1"/><stop offset="1" style="stop-color:#c6e3a6;stop-opacity:1"/></radialGradient><radialGradient id="a" cx="0" cy="0" r="1" fx="0" fy="0" gradientTransform="matrix(0 22 -22 0 12 1)" gradientUnits="userSpaceOnUse" spreadMethod="pad"><stop offset="0" style="stop-color:#c6e3a6;stop-opacity:1"/><stop offset="1" style="stop-color:#8cc64c;stop-opacity:1"/></radialGradient><clipPath id="c" clipPathUnits="userSpaceOnUse"><path d="M0 0h49v49H0Z"/></clipPath></defs><path d="M9.593 1.114c.12 0 .235-.016.344-.048a32.255 32.255 0 0 1 4.308.01c1.301.104 2.561.386 3.781.85 2.026.833 3.41 2.281 4.162 4.338.42 1.24.676 2.516.754 3.828.104 1.64.068 3.282-.114 4.922a11.964 11.964 0 0 1-.896 3.318c-.85 1.843-2.23 3.115-4.135 3.812-1.543.527-3.13.798-4.767.828a21.333 21.333 0 0 1-5.452-.416c-3.308-.734-5.354-2.756-6.125-6.052a19.05 19.05 0 0 1-.448-4.516 18.437 18.437 0 0 1 .516-4.78c.812-3.09 2.77-5 5.875-5.74a14.15 14.15 0 0 1 2.197-.354z" style="fill:url(#a);fill-rule:evenodd;stroke:none;stroke-width:1.33333"/><path d="M1.27 15.472c-.005.011-.01.016-.016.027.058.339.12.672.199 1.005.77 3.296 2.817 5.318 6.125 6.052 1.802.375 3.619.51 5.452.416 1.636-.03 3.22-.3 4.767-.828 1.905-.697 3.285-1.969 4.135-3.812.396-.906.656-1.849.817-2.824-.01-.009-.01-.025-.02-.036z" style="fill:url(#b);stroke:none;stroke-width:1.33333"/><g clip-path="url(#c)" opacity=".5" transform="matrix(1.33333 0 0 1.33333 0 .035)"><path d="M9.891 14.109h2.652c.352 1.012 1.844.754 1.84-.316a.95.95 0 0 0-.949-.949.948.948 0 0 0-.891.633H9.891c.058.316.058.316 0 .632" style="fill:#000;fill-opacity:1;fill-rule:nonzero;stroke:none"/></g><path d="M6.093 17.16c-.703 0-1.265.568-1.265 1.266a1.262 1.262 0 0 0 2.453.421h3.53c.475 1.344 2.46 1.005 2.454-.421 0-.698-.563-1.266-1.265-1.266-.531.006-1.011.34-1.188.844H7.28a1.27 1.27 0 0 0-1.188-.844" style="fill:#8cc64c;fill-opacity:1;fill-rule:nonzero;stroke:none;stroke-width:1.33333"/><path d="M11.276 14.207V6.972L8.02 10.227 6.937 9.144 12 4.076l5.068 5.068-1.09 1.083-3.254-3.255v7.235z" style="fill:#fcfcfc;fill-opacity:1;fill-rule:nonzero;stroke:none;stroke-width:1.33333"/></svg>