<svg xmlns="http://www.w3.org/2000/svg" xmlns:xlink="http://www.w3.org/1999/xlink" xml:space="preserve" width="24" height="24"><defs><clipPath id="h" clipPathUnits="userSpaceOnUse"><path d="M5.273 12.059h.219c.098 0 .176.082.176.179v.727a.176.176 0 0 1-.176.176h-.219a.179.179 0 0 1-.179-.176v-.727c0-.097.082-.179.179-.179z"/></clipPath><clipPath id="a" clipPathUnits="userSpaceOnUse"><path d="M-97.54 25.423h11.346v22.691h-11.345z"/></clipPath><clipPath id="k" clipPathUnits="userSpaceOnUse"><path d="M6.09 12.059h.219c.097 0 .175.082.175.179v.727a.175.175 0 0 1-.175.176H6.09a.177.177 0 0 1-.18-.176v-.727c0-.097.078-.179.18-.179z"/></clipPath><clipPath id="c" clipPathUnits="userSpaceOnUse"><path d="M-106.797 25.423h22.691v22.691h-22.69Z"/></clipPath><clipPath id="n" clipPathUnits="userSpaceOnUse"><path d="M6.906 12.059h.219c.098 0 .176.082.176.179v.727a.176.176 0 0 1-.176.176h-.219a.176.176 0 0 1-.179-.176v-.727c0-.097.078-.179.179-.179z"/></clipPath><clipPath id="d" clipPathUnits="userSpaceOnUse"><path d="M-104.709 25.423h22.691v22.691h-22.69Z"/></clipPath><clipPath id="q" clipPathUnits="userSpaceOnUse"><path d="M7.719 12.059h.222c.098 0 .176.082.176.179v.727a.176.176 0 0 1-.176.176h-.222a.176.176 0 0 1-.176-.176v-.727c0-.097.078-.179.176-.179z"/></clipPath><clipPath id="e" clipPathUnits="userSpaceOnUse"><path d="M-102.62 25.423h22.69v22.691h-22.69Z"/></clipPath><clipPath id="t" clipPathUnits="userSpaceOnUse"><path d="M8.492 12.059a.13.13 0 0 1 .129.132v.817a.132.132 0 0 1-.129.133.132.132 0 0 1-.133-.133v-.817c0-.074.059-.132.133-.132z"/></clipPath><clipPath id="f" clipPathUnits="userSpaceOnUse"><path d="M-105.318 25.423h24.693v22.691h-24.693z"/></clipPath><linearGradient id="b" x1="-91.306" x2="-91.306" y1="36.522" y2="26.407" gradientUnits="userSpaceOnUse" spreadMethod="pad"><stop offset="0" style="stop-opacity:1;stop-color:#fff"/><stop offset="1" style="stop-opacity:0;stop-color:#fff"/></linearGradient><linearGradient id="g" x1="-91.306" x2="-91.306" y1="36.522" y2="26.407" gradientUnits="userSpaceOnUse" spreadMethod="pad"><stop offset="0" style="stop-opacity:1;stop-color:#fff355"/><stop offset="1" style="stop-opacity:1;stop-color:#a49a00"/></linearGradient><linearGradient xlink:href="#g" id="v" x1="-91.306" x2="-91.306" y1="36.522" y2="26.407" gradientUnits="userSpaceOnUse" spreadMethod="pad"/><linearGradient xlink:href="#g" id="j" x1="-91.306" x2="-91.306" y1="36.522" y2="26.407" gradientUnits="userSpaceOnUse" spreadMethod="pad"/><linearGradient xlink:href="#g" id="m" x1="-91.306" x2="-91.306" y1="36.522" y2="26.407" gradientUnits="userSpaceOnUse" spreadMethod="pad"/><linearGradient xlink:href="#g" id="p" x1="-91.306" x2="-91.306" y1="36.522" y2="26.407" gradientUnits="userSpaceOnUse" spreadMethod="pad"/><linearGradient xlink:href="#g" id="s" x1="-91.306" x2="-91.306" y1="36.522" y2="26.407" gradientUnits="userSpaceOnUse" spreadMethod="pad"/><mask id="i" width="1" height="1" x="0" y="0" maskUnits="userSpaceOnUse"><g clip-path="url(#a)"><path d="M-97.54 25.423h11.346v22.691h-11.345z" style="fill:url(#b);stroke:none"/></g></mask><mask id="l" width="1" height="1" x="0" y="0" maskUnits="userSpaceOnUse"><g clip-path="url(#c)"><path d="M-106.797 25.423h22.691v22.691h-22.69Z" style="fill:url(#b);stroke:none"/></g></mask><mask id="o" width="1" height="1" x="0" y="0" maskUnits="userSpaceOnUse"><g clip-path="url(#d)"><path d="M-104.709 25.423h22.691v22.691h-22.69Z" style="fill:url(#b);stroke:none"/></g></mask><mask id="r" width="1" height="1" x="0" y="0" maskUnits="userSpaceOnUse"><g clip-path="url(#e)"><path d="M-102.62 25.423h22.69v22.691h-22.69Z" style="fill:url(#b);stroke:none"/></g></mask><mask id="u" width="1" height="1" x="0" y="0" maskUnits="userSpaceOnUse"><g clip-path="url(#f)"><path d="M-105.318 25.423h24.693v22.691h-24.693z" style="fill:url(#b);stroke:none"/></g></mask><radialGradient id="w" cx="0" cy="0" r="1" fx="0" fy="0" gradientTransform="matrix(0 16.5 -16.5 0 9 .75)" gradientUnits="userSpaceOnUse" spreadMethod="pad"><stop offset="0" style="stop-opacity:1;stop-color:#bddc95"/><stop offset="1" style="stop-opacity:1;stop-color:#73b72f"/></radialGradient></defs><g clip-path="url(#h)" style="fill:none" transform="matrix(1.33333 0 0 1.33333 81.344 8.173)"><g mask="url(#i)" transform="translate(13.597 9.76) scale(.08814)"><path d="M5.273 12.059h.219c.098 0 .176.082.176.179v.727a.176.176 0 0 1-.176.176h-.219a.179.179 0 0 1-.179-.176v-.727c0-.097.082-.179.179-.179z" style="fill:url(#j);stroke:none"/></g></g><g clip-path="url(#k)" style="fill:none" transform="matrix(1.33333 0 0 1.33333 81.344 8.173)"><g mask="url(#l)" transform="translate(14.413 9.76) scale(.08814)"><path d="M6.09 12.059h.219c.097 0 .175.082.175.179v.727a.175.175 0 0 1-.175.176H6.09a.177.177 0 0 1-.18-.176v-.727c0-.097.078-.179.18-.179z" style="fill:url(#m);stroke:none"/></g></g><g clip-path="url(#n)" style="fill:none" transform="matrix(1.33333 0 0 1.33333 81.344 8.173)"><g mask="url(#o)" transform="translate(15.23 9.76) scale(.08814)"><path d="M6.906 12.059h.219c.098 0 .176.082.176.179v.727a.176.176 0 0 1-.176.176h-.219a.176.176 0 0 1-.179-.176v-.727c0-.097.078-.179.179-.179z" style="fill:url(#p);stroke:none"/></g></g><g clip-path="url(#q)" style="fill:none" transform="matrix(1.33333 0 0 1.33333 81.344 8.173)"><g mask="url(#r)" transform="translate(16.045 9.76) scale(.08814)"><path d="M7.719 12.059h.222c.098 0 .176.082.176.179v.727a.176.176 0 0 1-.176.176h-.222a.176.176 0 0 1-.176-.176v-.727c0-.097.078-.179.176-.179z" style="fill:url(#s);stroke:none"/></g></g><g clip-path="url(#t)" style="fill:none" transform="matrix(1.33333 0 0 1.33333 81.344 8.173)"><g mask="url(#u)" transform="matrix(.0405 0 0 .08814 12.265 9.76)"><path d="M8.492 12.059a.13.13 0 0 1 .129.132v.817a.132.132 0 0 1-.129.133.132.132 0 0 1-.133-.133v-.817c0-.074.059-.132.133-.132z" style="fill:url(#v);stroke:none"/></g></g><path d="M7.195.836c.09 0 .176-.012.258-.035a23.86 23.86 0 0 1 3.231.008 10.26 10.26 0 0 1 2.836.636c1.519.625 2.558 1.711 3.121 3.254.316.93.507 1.887.566 2.867a21.227 21.227 0 0 1-.086 3.696 8.976 8.976 0 0 1-.672 2.488c-.637 1.383-1.672 2.336-3.101 2.859a11.693 11.693 0 0 1-3.575.618 15.998 15.998 0 0 1-4.089-.309c-2.481-.551-4.016-2.066-4.594-4.543a14.244 14.244 0 0 1-.336-3.383c-.027-1.215.101-2.41.387-3.59.609-2.312 2.078-3.746 4.406-4.3A10.27 10.27 0 0 1 7.195.836Z" style="fill:url(#w);fill-rule:evenodd;stroke:none" transform="matrix(1.33333 0 0 1.33333 0 0)"/><path d="M9.833 5.64a1.254 1.254 0 1 0 0-2.51 1.25 1.25 0 0 0-1.25 1.255 1.25 1.25 0 0 0 1.25 1.255zM14.25 5.64a1.25 1.25 0 0 0 1.25-1.255c0-.692-.558-1.254-1.25-1.254a1.255 1.255 0 1 0 0 2.51z" style="fill:#73b72f;fill-opacity:1;fill-rule:nonzero;stroke:none;stroke-width:1.33333"/><path d="M10.684 3.383v.883a1.663 1.663 0 0 1-.496 1.164 1.662 1.662 0 0 1-1.168.472 1.661 1.661 0 0 1-1.172-.472 1.655 1.655 0 0 1-.493-1.164v-.883" style="fill:none;stroke:#fff;stroke-width:.6875;stroke-linecap:round;stroke-linejoin:round;stroke-miterlimit:4;stroke-dasharray:none;stroke-opacity:1" transform="matrix(1.33333 0 0 1.33333 0 0)"/><path fill="#fff" d="M12 11.409a4.5 4.5 0 1 0 0 9 4.5 4.5 0 0 0 0-9zm0 .75c.13 0 .249.01.375.023.03.003.064-.004.094 0 .04.006.078.018.117.024.108.017.2.045.305.07.192.048.383.112.563.188.098.042.186.09.28.14v.024c.022.01.034.05.07.07.014.008.012.017.025.024.02.012.05.025.046.047-.006.03-.05.023-.07.046.003.044-.036.042-.047.07.007.02.044.025.047.047-.004.024-.056.023-.047.048.04.031.079.007.117 0 .084-.011.159-.005.21-.048-.006-.04.076-.033.071-.07.022.016.049.03.07.047-.008.008-.014.02-.023.023-.015.008-.032.015-.047.024l-.07.047c-.017.012-.053.07-.07.07-.022 0-.055-.028-.07-.024-.023.008-.022.039-.048.048-.05.018-.147-.027-.163.047.02.043.103.022.14.046a.233.233 0 0 1 .07.094.443.443 0 0 1 0 .141c-.023.06-.095.047-.164.047h-.047c-.116-.008-.229-.06-.281.023.004.064.015.109 0 .164-.01.04-.072.083-.07.117 0 .018.042.045.046.07.003.014-.006.034 0 .048.02.037.06-.008.094 0 .033.007.07.056.07.094a.195.195 0 0 1-.023.093c-.033.05-.093.043-.14.07-.04.023-.047.079-.07.118-.025.042-.057.057-.048.117a.274.274 0 0 1-.14.14c-.02.009-.052.01-.07.024-.015.01-.027.046-.048.07-.026.03-.055.048-.07.07-.01.018-.012.047-.023.07-.017.032-.05.039-.07.07-.01.016-.014.052-.024.071-.024.044-.051.08-.047.118.004.036.045.037.047.07.002.018-.024.027-.023.047 0 .028.02.047.023.07.005.055-.036.079-.047.117-.005.018.005.032 0 .047-.009.028-.046.06-.047.094 0 .023.045.037.047.07.002.022-.027.05-.024.07.009.041.087.086.118.118.043.042.098.072.117.117.016.038.018.112.047.14.021.022.066.025.094.047.026.02.042.025.07.047.046.036.115.123.187.117.039-.007.075-.039.118-.047.044-.007.095-.027.14-.022.035.007.081.024.117.022.038-.007.075-.004.118-.022.074-.033.197-.087.305-.072.082.012.082.105.14.141.066.008.112-.012.164 0 .04.01.09.063.094.094.004.032-.043.074-.047.094-.01.043.007.09 0 .117-.006.022-.024.049-.023.07 0 .02.026.068.047.094.024.032.063.06.093.094.055.063.08.127.117.21.01.022-.009.044 0 .071-.016.126-.058.212-.14.352-.039.045-.095.084-.094.14-.003.135.076.221.07.352-.013.175.014.187 0 .281.06.03.017.125 0 .188-.025.074-.055.09-.07.14.04.018.096.01.14 0l-.07.07a3.902 3.902 0 0 1-.562.469 3.705 3.705 0 0 1-1.289.563 3.739 3.739 0 0 1-.797.07c-.142 0-.283-.007-.422-.023-.11-.013-.22-.026-.328-.047-.212-.044-.412-.133-.61-.211-.007-.013-.025-.032-.022-.047.038-.017.111.055.14 0 .014-.027-.019-.09 0-.117.013-.018.09-.018.117-.024.04-.007.095-.012.117-.023.025-.016.052-.071.047-.118-.002-.021-.03-.027-.047-.046-.014-.017.01-.032 0-.047-.018-.027-.062-.032-.07-.07.054-.01.133.045.21.023.038-.01.1-.082.118-.117.005-.01-.006-.034 0-.047.007-.014.021-.04.023-.047.006-.02-.004-.01 0-.024.014-.037.048-.066.07-.093.018-.021.056-.048.071-.07.018-.023.011-.026.023-.047.012-.068-.04-.128-.023-.188.018-.067.122-.11.188-.14.022-.01.05-.017.07-.024l.14-.047c.071-.025.083-.076.118-.14.016-.03.044-.072.047-.094.003-.02-.004-.024 0-.047.004-.022-.006-.045 0-.07a.855.855 0 0 0 .023-.14c0-.03-.022-.044-.023-.071-.006-.098.034-.088.07-.141.018-.026.034-.075.047-.094.06-.09.172-.12.164-.257-.003-.045-.037-.15-.07-.164-.02-.009-.043-.014-.071-.024-.088-.033-.165-.133-.257-.14h-.047c-.037 0-.077-.019-.118-.024-.025-.007-.078.008-.093 0-.024-.011-.029-.058-.048-.07-.015-.011-.047-.015-.07-.024-.037-.013-.05-.044-.093-.047-.014 0-.032.008-.047 0-.024-.007-.049-.01-.07-.022-.028-.018-.06-.024-.07-.048.024-.08-.055-.093-.071-.14-.007-.022.007-.075 0-.094-.01-.028-.04-.047-.07-.07a.28.28 0 0 0-.165-.07c-.034-.008-.075.007-.117 0a.267.267 0 0 1-.14-.071c-.032-.037-.043-.077-.07-.094-.027-.016-.053-.03-.071-.047-.008-.008-.016-.006-.023-.023-.014-.028-.04-.037-.024-.071-.03-.015-.014.03-.047.024-.029-.041-.05-.082-.117-.07-.03.007-.058.07-.094.07-.03 0-.055-.064-.093-.07-.03-.008-.074.027-.094.023-.032-.008-.041-.027-.07-.047-.022-.015-.059-.048-.071-.047-.037 0-.065.075-.117.047-.025-.032.053-.04.023-.07-.022-.022-.028.013-.046.023-.021.014-.047.015-.07.024-.052.02-.101.025-.142.047a.139.139 0 0 0-.07.07c-.017.032-.044.092-.07.094-.031 0-.042-.035-.07-.047-.087-.038-.14.022-.211.024-.066 0-.167-.102-.164-.165.002-.038.019-.093.024-.14.003-.038.045-.083.046-.118 0-.046-.087-.065-.117-.07-.07-.013-.154.031-.235 0-.015-.026.015-.045.024-.07.006-.013-.005-.031 0-.047.009-.024.059-.045.07-.07.008-.02-.007-.046 0-.07.01-.027.045-.051.047-.071.003-.025-.027-.054-.047-.07-.062.007-.105.005-.14.023-.081.037-.06.139-.141.164a.685.685 0 0 1-.094.023c-.013.008-.032-.001-.046 0 .001-.007-.002-.015 0-.023.003-.017.019-.03.023-.047a3.683 3.683 0 0 1 .235-.703H8.6c.03.008.046.045.071.047.068.008.083-.063.14-.093.059.007.088-.008.142 0 .035.007.088.043.116.046.025 0 .025-.026.047-.023.022.007.067.043.07.07.004.033-.032.08-.023.117.035.036.114.049.164.07.033-.028.005-.078 0-.117 0-.017.002-.054 0-.07-.003-.027-.023-.047-.023-.07 0-.107.092-.146.164-.188.03-.018.067-.057.094-.07.038-.019.062-.005.093-.023.057-.033.097-.081.141-.118.02-.049-.002-.116 0-.164.02-.012.048 0 .07 0 .035-.007.051-.05.07-.07.012-.011.034-.012.048-.023.034-.027.04-.059.07-.071a.195.195 0 0 1 .047-.023c.022-.008.058-.01.094-.024.022-.008.084-.014.093-.023.012-.012-.003-.054 0-.071.018-.084.135-.088.211-.117.052-.02.105-.08.164-.07-.011.04-.057.045-.047.094.013.068.094-.014.118-.024.045-.02.127-.047.187-.07.053-.018.143-.033.094-.093-.041-.008-.059.031-.094.046-.025.008-.026-.021-.047-.023-.02 0-.026.027-.047.023-.02-.007-.044-.045-.047-.07-.008-.063.045-.071.07-.117-.017-.057-.092-.025-.14-.048a.085.085 0 0 1 .07-.07c.032-.007.122.007.141.024.011.01-.017.031 0 .047.02.017.045.008.07 0 .009-.043-.054-.02-.047-.047.051-.033.149-.015.211-.023a.51.51 0 0 0 .117-.048c.03-.017.04-.051.07-.023.01.03-.005.054-.023.07-.057.052-.119.106-.164.164.028.027.07.019.117.024.018.008.052-.004.07 0 .023.008.053-.007.071 0 .032.008.04.07.07.07.051 0 .03-.06 0-.094.009-.035.037-.068.024-.094-.023-.046-.113.015-.118-.046-.002-.038.034-.042.047-.07-.006-.073.054-.076.048-.141-.004-.027-.029-.022-.048-.047-.01-.014-.012-.06-.023-.07-.039-.033-.112-.007-.118-.07-.001-.038.006-.078 0-.118-.005-.038-.037-.156-.07-.164-.041-.009-.067.07-.117.094a.282.282 0 0 1-.117.023c-.018-.007-.045-.011-.047-.047-.003-.031.036-.045.047-.07.003-.006-.002-.015 0-.024.055-.015.109-.033.164-.046.032-.008.062-.017.094-.023.022-.005.048.003.07 0a3.757 3.757 0 0 1 .68-.071Zm-1.523.352c-.024.136-.153.191-.306.187-.033.033-.004.095-.022.14-.017.039-.08.074-.118.071-.028 0-.07-.044-.07-.07 0-.033.051-.033.024-.07 0-.008.015-.017.022-.024.016-.01.032-.014.047-.023.136-.084.276-.145.423-.211zm3.14.14c-.014.008-.011.017-.023.024-.029.017-.049.038-.07.047-.03.01-.066.018-.07.047-.004.022.023.025.022.046-.01.028-.017.037-.023.07.038.063.117-.013.164-.023.021-.008.036-.006.047-.023.013-.02.014-.042.023-.071.011-.031.052-.042.048-.07-.003-.027-.071-.05-.118-.047zm-4.101.469c.035.028.085.09.022.118a.387.387 0 0 1-.116.022c-.007 0-.017-.017-.024-.022.04-.038.078-.082.118-.118zm.14.14c.018 0 .026.046.047.047.02 0 .035-.026.047-.023.031.008.053.07.023.094-.025.007-.028-.026-.046-.023-.051.009-.08.12-.118.117-.036-.008-.06-.091-.022-.117 0-.023-.003-.024 0-.048.01-.013.04-.048.07-.046zm-.187.024c.01 0 .02-.007.023 0-.005.04-.016.052-.046.07-.054.033-.1.073-.118.14-.005.021-.068.076-.094.071-.06-.012.034-.123.047-.14.015-.02.03-.025.048-.047.016-.021.03-.059.046-.07a.184.184 0 0 1 .094-.024zm5.085.117c.06-.007.09.059.118.094.023.03.08.073.117.094.021.01.047.036.07.047.049.022.139.092.141.14 0 .024-.027.048-.023.07.036.008.069-.056.07-.093.068.097.128.2.187.304.028.05.067.09.094.141-.033.01-.042.015-.047.047-.007.042.016.11-.047.118-.039.007-.086-.035-.14-.048-.023-.007-.053.008-.07 0-.042-.013-.035-.069-.07-.093a.376.376 0 0 0-.118-.048c-.02 0-.026.008-.047 0-.025-.007-.073.01-.094 0a.24.24 0 0 1-.07-.07c-.008-.027.069-.047.07-.07.002-.018-.02-.043-.024-.07-.002-.017.004-.036 0-.047-.005-.02-.038-.022-.07-.024h-.07c-.033 0-.1-.003-.14 0-.026 0-.047-.002-.07 0-.066.008-.114-.007-.165 0a.471.471 0 0 0-.14.047l-.047.024a.308.308 0 0 1-.047.024c-.02.01-.05.04-.07.046-.03.008-.065-.007-.118 0-.037 0-.092-.025-.094-.07 0-.07.122-.034.188-.047.025-.007.04-.03.07-.047.015-.008.01-.014.024-.023.023-.016.066-.053.07-.071.003-.016-.002-.034 0-.046.003-.016.027-.027.047-.048.032-.031.055-.073.094-.093.026-.014.058-.025.07-.047.003-.024 0-.025 0-.047a.098.098 0 0 1 .047-.023c.04-.01.07.002.117 0 .02 0 .049.01.07 0 .019-.012.029-.038.048-.048a.185.185 0 0 1 .07-.022zm.423.446h-.094c-.033 0-.075-.018-.094 0 .028.045.078.059.14.07a.145.145 0 0 0 .048-.07zm-5.133-.423h.07c.019 0 .04-.007.047 0-.012.05-.126.042-.164.024.002-.018.023-.02.047-.024zm-.165.094c-.032.024-.065.055-.117.07-.028.01-.065.009-.07-.023-.006-.039.045-.02.07-.023.033-.007.08-.022.117-.024zm4.875 0c-.024.008-.036.063 0 .07.018-.01.029-.037.024-.07-.01-.01-.016-.007-.024 0zm-.046.118c0 .042.007.08 0 .117.024.046.082.007.094-.023.014-.078-.012-.104-.048-.094-.012.007-.033-.01-.046 0zm-6.211 1.757c.042.038.067.092.117.118a.352.352 0 0 0 .07.023c.02.008.029-.006.047 0 .04.014.086.032.117.047.048.021.1.093.141.117.003.024-.007.053 0 .07.02.026.039.053.07.07.038.022.059.055.094.071.013.008.028-.007.047 0 .05.015.075.083.117.07.028-.008.02-.043.024-.07.019-.02.04-.047.07-.047.046 0 .053.072.07.118.01.025.04.042.048.07a.707.707 0 0 1 0 .21c-.012.035-.066.033-.094.07-.014.019-.014.058-.024.071-.018.023-.033.026-.047.047a.337.337 0 0 0-.024.047c-.022.048-.065.082-.046.14.007.023.047.043.047.07 0 .034-.065.058-.07.094-.004.027.015.06.023.094.006.026.055.053.07.07.027.03.046.08.07.118.047.073.071.163.118.234.025.037.077.055.094.094.007.02-.008.053 0 .07.027.06.15.135.21.164.029.015.068.009.094.024.04.023.12.083.141.117.017.032.014.114.023.164.012.066-.003.117 0 .188.003.039.024.055.024.094v.07c-.001.046.003.093 0 .14a.449.449 0 0 0 0 .07c.002.023.022.026.023.047.001.023-.026.054-.023.07.005.048.037.074.047.118.007.034.028.123.022.164-.002.022-.02.045-.022.07-.003.02.002.029 0 .047-.003.017.004.033 0 .047l-.07-.047a3.902 3.902 0 0 1-.563-.469l-.07-.07a3.9 3.9 0 0 1-.376-.468c-.01-.015-.013-.032-.023-.047a3.618 3.618 0 0 1-.328-.61c-.007-.015-.017-.03-.024-.047a3.764 3.764 0 0 1-.21-.726 3.757 3.757 0 0 1-.071-.68c0-.178.023-.344.047-.516zm1.453.399c.036-.016.03.041 0 .047-.028.007-.027-.033 0-.047z" style="stroke-width:.375"/></svg>