<svg xmlns="http://www.w3.org/2000/svg" xmlns:xlink="http://www.w3.org/1999/xlink" xml:space="preserve" width="24" height="24"><defs><clipPath id="h" clipPathUnits="userSpaceOnUse"><path d="M5.273 12.059h.219c.098 0 .176.082.176.179v.727a.176.176 0 0 1-.176.176h-.219a.179.179 0 0 1-.179-.176v-.727c0-.097.082-.179.179-.179z"/></clipPath><clipPath id="a" clipPathUnits="userSpaceOnUse"><path d="M-97.54 25.423h11.346v22.691h-11.345z"/></clipPath><clipPath id="k" clipPathUnits="userSpaceOnUse"><path d="M6.09 12.059h.219c.097 0 .175.082.175.179v.727a.175.175 0 0 1-.175.176H6.09a.177.177 0 0 1-.18-.176v-.727c0-.097.078-.179.18-.179z"/></clipPath><clipPath id="c" clipPathUnits="userSpaceOnUse"><path d="M-106.797 25.423h22.691v22.691h-22.69Z"/></clipPath><clipPath id="n" clipPathUnits="userSpaceOnUse"><path d="M6.906 12.059h.219c.098 0 .176.082.176.179v.727a.176.176 0 0 1-.176.176h-.219a.176.176 0 0 1-.179-.176v-.727c0-.097.078-.179.179-.179z"/></clipPath><clipPath id="d" clipPathUnits="userSpaceOnUse"><path d="M-104.709 25.423h22.691v22.691h-22.69Z"/></clipPath><clipPath id="q" clipPathUnits="userSpaceOnUse"><path d="M7.719 12.059h.222c.098 0 .176.082.176.179v.727a.176.176 0 0 1-.176.176h-.222a.176.176 0 0 1-.176-.176v-.727c0-.097.078-.179.176-.179z"/></clipPath><clipPath id="e" clipPathUnits="userSpaceOnUse"><path d="M-102.62 25.423h22.69v22.691h-22.69Z"/></clipPath><clipPath id="t" clipPathUnits="userSpaceOnUse"><path d="M8.492 12.059a.13.13 0 0 1 .129.132v.817a.132.132 0 0 1-.129.133.132.132 0 0 1-.133-.133v-.817c0-.074.059-.132.133-.132z"/></clipPath><clipPath id="f" clipPathUnits="userSpaceOnUse"><path d="M-105.318 25.423h24.693v22.691h-24.693z"/></clipPath><linearGradient id="b" x1="-91.306" x2="-91.306" y1="36.522" y2="26.407" gradientUnits="userSpaceOnUse" spreadMethod="pad"><stop offset="0" style="stop-opacity:1;stop-color:#fff"/><stop offset="1" style="stop-opacity:0;stop-color:#fff"/></linearGradient><linearGradient id="g" x1="-91.306" x2="-91.306" y1="36.522" y2="26.407" gradientUnits="userSpaceOnUse" spreadMethod="pad"><stop offset="0" style="stop-opacity:1;stop-color:#fff355"/><stop offset="1" style="stop-opacity:1;stop-color:#a49a00"/></linearGradient><linearGradient xlink:href="#g" id="v" x1="-91.306" x2="-91.306" y1="36.522" y2="26.407" gradientUnits="userSpaceOnUse" spreadMethod="pad"/><linearGradient xlink:href="#g" id="j" x1="-91.306" x2="-91.306" y1="36.522" y2="26.407" gradientUnits="userSpaceOnUse" spreadMethod="pad"/><linearGradient xlink:href="#g" id="m" x1="-91.306" x2="-91.306" y1="36.522" y2="26.407" gradientUnits="userSpaceOnUse" spreadMethod="pad"/><linearGradient xlink:href="#g" id="p" x1="-91.306" x2="-91.306" y1="36.522" y2="26.407" gradientUnits="userSpaceOnUse" spreadMethod="pad"/><linearGradient xlink:href="#g" id="s" x1="-91.306" x2="-91.306" y1="36.522" y2="26.407" gradientUnits="userSpaceOnUse" spreadMethod="pad"/><mask id="i" width="1" height="1" x="0" y="0" maskUnits="userSpaceOnUse"><g clip-path="url(#a)"><path d="M-97.54 25.423h11.346v22.691h-11.345z" style="fill:url(#b);stroke:none"/></g></mask><mask id="l" width="1" height="1" x="0" y="0" maskUnits="userSpaceOnUse"><g clip-path="url(#c)"><path d="M-106.797 25.423h22.691v22.691h-22.69Z" style="fill:url(#b);stroke:none"/></g></mask><mask id="o" width="1" height="1" x="0" y="0" maskUnits="userSpaceOnUse"><g clip-path="url(#d)"><path d="M-104.709 25.423h22.691v22.691h-22.69Z" style="fill:url(#b);stroke:none"/></g></mask><mask id="r" width="1" height="1" x="0" y="0" maskUnits="userSpaceOnUse"><g clip-path="url(#e)"><path d="M-102.62 25.423h22.69v22.691h-22.69Z" style="fill:url(#b);stroke:none"/></g></mask><mask id="u" width="1" height="1" x="0" y="0" maskUnits="userSpaceOnUse"><g clip-path="url(#f)"><path d="M-105.318 25.423h24.693v22.691h-24.693z" style="fill:url(#b);stroke:none"/></g></mask><radialGradient id="w" cx="0" cy="0" r="1" fx="0" fy="0" gradientTransform="matrix(0 16.5 -16.5 0 9 .75)" gradientUnits="userSpaceOnUse" spreadMethod="pad"><stop offset="0" style="stop-opacity:1;stop-color:#bddc95"/><stop offset="1" style="stop-opacity:1;stop-color:#73b72f"/></radialGradient></defs><g clip-path="url(#h)" style="fill:none" transform="matrix(1.33333 0 0 1.33333 81.344 8.173)"><g mask="url(#i)" transform="translate(13.597 9.76) scale(.08814)"><path d="M5.273 12.059h.219c.098 0 .176.082.176.179v.727a.176.176 0 0 1-.176.176h-.219a.179.179 0 0 1-.179-.176v-.727c0-.097.082-.179.179-.179z" style="fill:url(#j);stroke:none"/></g></g><g clip-path="url(#k)" style="fill:none" transform="matrix(1.33333 0 0 1.33333 81.344 8.173)"><g mask="url(#l)" transform="translate(14.413 9.76) scale(.08814)"><path d="M6.09 12.059h.219c.097 0 .175.082.175.179v.727a.175.175 0 0 1-.175.176H6.09a.177.177 0 0 1-.18-.176v-.727c0-.097.078-.179.18-.179z" style="fill:url(#m);stroke:none"/></g></g><g clip-path="url(#n)" style="fill:none" transform="matrix(1.33333 0 0 1.33333 81.344 8.173)"><g mask="url(#o)" transform="translate(15.23 9.76) scale(.08814)"><path d="M6.906 12.059h.219c.098 0 .176.082.176.179v.727a.176.176 0 0 1-.176.176h-.219a.176.176 0 0 1-.179-.176v-.727c0-.097.078-.179.179-.179z" style="fill:url(#p);stroke:none"/></g></g><g clip-path="url(#q)" style="fill:none" transform="matrix(1.33333 0 0 1.33333 81.344 8.173)"><g mask="url(#r)" transform="translate(16.045 9.76) scale(.08814)"><path d="M7.719 12.059h.222c.098 0 .176.082.176.179v.727a.176.176 0 0 1-.176.176h-.222a.176.176 0 0 1-.176-.176v-.727c0-.097.078-.179.176-.179z" style="fill:url(#s);stroke:none"/></g></g><g clip-path="url(#t)" style="fill:none" transform="matrix(1.33333 0 0 1.33333 81.344 8.173)"><g mask="url(#u)" transform="matrix(.0405 0 0 .08814 12.265 9.76)"><path d="M8.492 12.059a.13.13 0 0 1 .129.132v.817a.132.132 0 0 1-.129.133.132.132 0 0 1-.133-.133v-.817c0-.074.059-.132.133-.132z" style="fill:url(#v);stroke:none"/></g></g><path d="M7.195.836c.09 0 .176-.012.258-.035a23.86 23.86 0 0 1 3.231.008 10.26 10.26 0 0 1 2.836.636c1.519.625 2.558 1.711 3.121 3.254.316.93.507 1.887.566 2.867a21.227 21.227 0 0 1-.086 3.696 8.976 8.976 0 0 1-.672 2.488c-.637 1.383-1.672 2.336-3.101 2.859a11.693 11.693 0 0 1-3.575.618 15.998 15.998 0 0 1-4.089-.309c-2.481-.551-4.016-2.066-4.594-4.543a14.244 14.244 0 0 1-.336-3.383c-.027-1.215.101-2.41.387-3.59.609-2.312 2.078-3.746 4.406-4.3A10.27 10.27 0 0 1 7.195.836Z" style="fill:url(#w);fill-rule:evenodd;stroke:none" transform="matrix(1.33333 0 0 1.33333 0 0)"/><path d="M9.833 5.64a1.254 1.254 0 1 0 0-2.51 1.25 1.25 0 0 0-1.25 1.255 1.25 1.25 0 0 0 1.25 1.255zM14.25 5.64a1.25 1.25 0 0 0 1.25-1.255c0-.692-.558-1.254-1.25-1.254a1.255 1.255 0 1 0 0 2.51z" style="fill:#73b72f;fill-opacity:1;fill-rule:nonzero;stroke:none;stroke-width:1.33333"/><path d="M10.684 3.383v.883a1.663 1.663 0 0 1-.496 1.164 1.662 1.662 0 0 1-1.168.472 1.661 1.661 0 0 1-1.172-.472 1.655 1.655 0 0 1-.493-1.164v-.883" style="fill:none;stroke:#fff;stroke-width:.6875;stroke-linecap:round;stroke-linejoin:round;stroke-miterlimit:4;stroke-dasharray:none;stroke-opacity:1" transform="matrix(1.33333 0 0 1.33333 0 0)"/><path fill="#fff" d="M7.5 16.097v4.304h4.304v-4.304zm.86.86h.861v.862h.861v-.861h.861v1.722h-.86v.86H9.22v-.86h-.86Z" style="stroke-width:.430431"/></svg>