<svg xmlns="http://www.w3.org/2000/svg" xml:space="preserve" width="24" height="24" viewBox="0 0 6.35 6.35"><defs><linearGradient id="a" x1="12" x2="12" y1="1" y2="23" gradientTransform="matrix(.75 0 0 .75 0 0)" gradientUnits="userSpaceOnUse" spreadMethod="pad"><stop offset="0" style="stop-opacity:1;stop-color:#ff5f5f"/><stop offset="1" style="stop-opacity:1;stop-color:#e82e34"/></linearGradient></defs><path d="M7.195.836c.09 0 .176-.012.258-.035a23.86 23.86 0 0 1 3.231.008 10.26 10.26 0 0 1 2.836.636c1.519.625 2.558 1.711 3.121 3.254.316.93.507 1.887.566 2.867a21.227 21.227 0 0 1-.086 3.696 8.976 8.976 0 0 1-.672 2.488c-.637 1.383-1.672 2.336-3.101 2.859a11.693 11.693 0 0 1-3.575.618 15.998 15.998 0 0 1-4.089-.309c-2.481-.551-4.016-2.066-4.594-4.543a14.244 14.244 0 0 1-.336-3.383c-.027-1.215.101-2.41.387-3.59.609-2.312 2.078-3.746 4.406-4.3A10.27 10.27 0 0 1 7.195.836Z" style="fill:url(#a);fill-rule:evenodd;stroke:none" transform="scale(.35277)"/><path d="M14.207 7c-.059-.707-.48-1.594-1.344-1.625-2.414-.164-5.269-.207-7.726 0-.766.082-1.285 1.012-1.344 1.719a19.977 19.977 0 0 0 0 3.804c.059.707.566 1.641 1.344 1.735 2.484.164 5.328.187 7.726 0 .754-.129 1.285-1.028 1.344-1.735a20.974 20.974 0 0 0 0-3.898zm-6.531 3.875V7.078l3.308 1.899z" style="fill:#fff;fill-opacity:1;fill-rule:nonzero;stroke:none" transform="scale(.35277)"/></svg>