<svg xmlns="http://www.w3.org/2000/svg" xmlns:xlink="http://www.w3.org/1999/xlink" xml:space="preserve" id="svg154" width="24" height="24" fill="none" version="1.1"><defs id="defs152"><linearGradient id="linearGradient488"><stop id="stop484" offset="0" style="stop-color:#98a1b0;stop-opacity:1"/><stop id="stop486" offset="1" style="stop-color:#c3c8d0;stop-opacity:1"/></linearGradient><linearGradient id="linearGradient29319"><stop id="stop29317" offset="0" style="stop-color:#d2d8db;stop-opacity:1"/></linearGradient><linearGradient id="fffff"><stop id="stop28389" offset="0" style="stop-color:#fff;stop-opacity:1"/></linearGradient><linearGradient xlink:href="#linearGradient488" id="linearGradient490" x1="52.978" x2="50.989" y1="96.007" y2="9.226" gradientTransform="matrix(.24444 0 0 .24444 -.222 -.222)" gradientUnits="userSpaceOnUse"/><linearGradient id="linearGradient8792"><stop id="stop8790" offset="0" style="stop-color:#000;stop-opacity:1"/></linearGradient><style id="current-color-scheme" type="text/css">.ColorScheme-Text{color:#31363b}.ColorScheme-Background{color:#eff0f1}.ColorScheme-Highlight{color:#3daee9}.ColorScheme-ViewText{color:#31363b}.ColorScheme-ViewBackground{color:#fcfcfc}.ColorScheme-ViewHover{color:#93cee9}.ColorScheme-ViewFocus{color:#3daee9}.ColorScheme-ButtonText{color:#31363b}.ColorScheme-ButtonBackground{color:#eff0f1}.ColorScheme-ButtonHover{color:#93cee9}.ColorScheme-ButtonFocus{color:#3daee9}</style></defs><path id="path6" d="M12 1C2 1 1 6 1 12c0 8 3 11 11 11s11-3 11-11c0-6-1-11-11-11Z" style="font-variation-settings:normal;display:inline;opacity:1;vector-effect:none;fill:url(#linearGradient490);fill-opacity:1;stroke-width:1.11627;stroke-linecap:butt;stroke-linejoin:miter;stroke-miterlimit:4;stroke-dasharray:none;stroke-dashoffset:0;stroke-opacity:1;-inkscape-stroke:none;stop-color:#000;stop-opacity:1"/><g id="g21752" transform="translate(-1.888 -9.133) scale(.14215)"><rect id="rect20247" width="81.057" height="95.154" x="57.168" y="101.092" fill="#3d4144" fill-rule="evenodd" rx="5.286" ry="5.286" style="stroke-width:1.76211;paint-order:fill markers stroke"/><path id="path20249" fill="#24a9f7" d="M71.265 101.092v42.283l7.052-7.052 7.045 7.045v-42.283z" style="stroke-width:1.76211"/><path id="path20251" fill="#282a2c" fill-rule="evenodd" d="M62.455 101.092a5.275 5.275 0 0 0-5.287 5.286v84.58a5.275 5.275 0 0 0 5.287 5.287h5.286v-95.153z" style="stroke-width:1.76211;paint-order:fill markers stroke"/><path id="path20253" fill="#fff" fill-rule="evenodd" d="M110.032 157.479c-4.1.04-8.23 1.043-11.798 3.2-1.423.99-3.133 2.266-4.419 3.552-2.026 2.115-3.759 4.582-4.929 7.345 3.21 7.556 10.268 13.1 18.034 13.917 5.094.617 10.431-.326 14.907-3.013 1.424-.99 3.133-2.266 4.421-3.553 2.027-2.118 3.757-4.59 4.929-7.351-3.213-7.556-10.268-13.093-18.034-13.91a25.23 25.23 0 0 0-3.111-.187zm.006 7.048c3.77-.082 7.111 3.29 7.04 7.042.123 4.146-4.011 7.727-8.094 6.951-4.124-.483-7.02-5.11-5.665-9.03.867-2.885 3.698-4.998 6.719-4.963zm-.006 3.524a3.524 3.524 0 0 0-3.525 3.525 3.524 3.524 0 0 0 3.525 3.524 3.524 3.524 0 0 0 3.524-3.524 3.524 3.524 0 0 0-3.524-3.517z" style="stroke-width:1.76211"/></g></svg>