<svg xmlns="http://www.w3.org/2000/svg" xml:space="preserve" width="24" height="24" viewBox="0 0 6.35 6.35"><defs><radialGradient id="a" cx="0" cy="0" r="1" fx="0" fy="0" gradientTransform="rotate(90 1.455 1.72) scale(5.82072)" gradientUnits="userSpaceOnUse" spreadMethod="pad"><stop offset="0" style="stop-color:#ff5433;stop-opacity:1"/><stop offset="1" style="stop-color:#b53517;stop-opacity:1"/></radialGradient></defs><path d="M2.538.295A.334.334 0 0 0 2.63.283a8.42 8.42 0 0 1 1.14.002 3.62 3.62 0 0 1 1 .225c.536.22.903.603 1.101 1.148.112.328.18.665.2 1.011.028.436.018.87-.03 1.304a3.166 3.166 0 0 1-.237.878c-.225.487-.59.824-1.094 1.008a4.125 4.125 0 0 1-1.261.218 5.642 5.642 0 0 1-1.443-.109C1.13 5.774.588 5.24.385 4.366a5.025 5.025 0 0 1-.12-1.194c-.009-.427.036-.85.137-1.266C.617 1.09 1.135.584 1.957.389c.191-.047.386-.079.581-.094z" style="fill:url(#a);fill-rule:evenodd;stroke:none;stroke-width:.352683;stroke-dasharray:none"/><path d="m2.668.28-.039.003a.334.334 0 0 1-.09.012c-.196.015-.39.047-.582.094a2.533 2.533 0 0 0-.386.124V2.6l.549-.55.548.549Z" style="fill:#fff;fill-opacity:1;fill-rule:evenodd;stroke:none;stroke-width:.352683;stroke-dasharray:none"/><path fill="#f1f2f2" d="M4.518 2.897c-.428 0-.703.007-.88.032a.576.576 0 0 0-.203.06.164.164 0 0 0-.09.14.09.09 0 0 0 .05.084.123.123 0 0 0 .064.013.387.387 0 0 0 .125-.032 3.037 3.037 0 0 1 .259-.041 7.68 7.68 0 0 1 .47-.034l.414-.019-.082.078c-.125.117-.536.432-.941.728-.204.148-.405.293-.572.408a5.292 5.292 0 0 1-.359.233c-.071.035-.142.073-.213.11.012.04.02.085.03.122l.264.008c.053.001.202.018.387.046.184.028.407.065.624.105.46.086.806.136 1.066.15.26.014.437-.005.562-.072a.844.844 0 0 0 .26-.257c.075-.106.14-.216.14-.32a.104.104 0 0 0-.012-.045.076.076 0 0 0-.029-.03.073.073 0 0 0-.04-.013.092.092 0 0 0-.05.013c-.048.035-.077.095-.105.133a.476.476 0 0 1-.258.234c-.117.045-.29.063-.556.063-.235 0-.6-.033-.915-.076a6.152 6.152 0 0 1-.41-.068h-.001a1.81 1.81 0 0 1-.13-.031c.036-.04.11-.102.213-.186a59.232 59.232 0 0 1 2.048-1.536h-1.13Z" color="#000" style="stroke-width:.48419"/><path d="M1.108.781c-.343.266-.578.642-.706 1.127-.1.417-.146.84-.136 1.267-.009.402.032.8.118 1.193.122.521.363.92.724 1.2-.19-1.475-.203-3.062 0-4.787z" style="fill:#392e28;fill-opacity:1;fill-rule:nonzero;stroke:none;stroke-width:.35277"/></svg>