<svg xmlns="http://www.w3.org/2000/svg" xml:space="preserve" width="24" height="24"><defs><linearGradient id="a" x1="12" x2="12" y1="1" y2="12" gradientUnits="userSpaceOnUse"><stop stop-color="#7DB9FF"/><stop offset="1" stop-color="#197CF1"/></linearGradient></defs><path fill="url(#a)" fill-rule="evenodd" d="M9.596 1.114c.12 0 .234-.014.344-.046a31.627 31.627 0 0 1 4.307.011c1.301.102 2.561.384 3.78.848 2.025.833 3.412 2.28 4.158 4.339.427 1.24.679 2.514.756 3.824a27.94 27.94 0 0 1-.115 4.923 11.88 11.88 0 0 1-.893 3.32c-.85 1.843-2.229 3.114-4.135 3.813a15.624 15.624 0 0 1-4.766.825 21.423 21.423 0 0 1-5.452-.412c-3.312-.738-5.354-2.757-6.128-6.057a19.047 19.047 0 0 1-.447-4.511 18.491 18.491 0 0 1 .515-4.786c.812-3.086 2.77-4.998 5.877-5.736a13.953 13.953 0 0 1 2.199-.355z" clip-rule="evenodd" style="fill:url(#a)"/><path fill="#fff" d="M4.99 7.428a.983.983 0 0 0-.99.98v5.551c0 1.447 1.178 2.613 2.641 2.613h8.255a.983.983 0 0 0 .99-.98v-5.55c0-1.448-1.178-2.614-2.64-2.614H6.64Zm14.43.002c-.194-.014-.415.08-.626.29-.741.738-1.61 1.361-2.216 2.243-.25.363-.233.844-.235 1.297v1.48c.002.453-.015.933.235 1.297.607.882 1.475 1.505 2.216 2.242.21.21.432.305.626.29.324-.024.572-.352.572-.961 0-1.192.018-2.4 0-3.608.018-1.21 0-2.416 0-3.608 0-.61-.248-.938-.572-.962z" style="stroke-width:.457157"/></svg>