<svg xmlns="http://www.w3.org/2000/svg" xmlns:xlink="http://www.w3.org/1999/xlink" width="24" height="24">
<defs>
<linearGradient id="b">
<stop offset="0" stop-color="#dbdee0"/>
<stop offset="1" stop-color="#dbdee0" stop-opacity="0"/>
</linearGradient>
<linearGradient id="a">
<stop offset="0" stop-color="#dbdee0"/>
<stop offset="1" stop-color="#dbdee0" stop-opacity="0"/>
</linearGradient>
<linearGradient xlink:href="#a" id="e" x1="5.875" x2="3.875" y1="31.125" y2="4.125" gradientTransform="scale(1 -1)rotate(30 1027.653 876.198)" gradientUnits="userSpaceOnUse"/>
<linearGradient xlink:href="#b" id="d" x1="12" x2="23" y1="6" y2="10" gradientTransform="rotate(150 246.697 272.098)" gradientUnits="userSpaceOnUse"/>
</defs>
<g color="#000" font-family="Sans" font-weight="400">
<path fill="url(#d)" d="M584 386.928c3.816-2.203 5.131-7.112 2.928-10.928s-7.112-5.131-10.928-2.928l1 1.732a5.985 5.985 0 0 1 8.196 2.196 5.985 5.985 0 0 1-2.196 8.196 1 1 0 1 0 1 1.732" overflow="visible" style="text-indent:0;text-align:start;line-height:normal;text-transform:none;block-progression:tb;marker:none;-inkscape-font-specification:Sans" transform="translate(-568 -368)"/>
<path fill="url(#e)" d="M584 386.928c-3.816 2.203-8.725.888-10.928-2.928s-.888-8.725 2.928-10.928l1 1.732a5.985 5.985 0 0 0-2.196 8.196 5.985 5.985 0 0 0 8.196 2.196z" overflow="visible" style="text-indent:0;text-align:start;line-height:normal;text-transform:none;block-progression:tb;marker:none;-inkscape-font-specification:Sans" transform="translate(-568 -368)"/>
</g>
</svg>
