<svg xmlns="http://www.w3.org/2000/svg" xmlns:xlink="http://www.w3.org/1999/xlink" width="24" height="24">
<defs>
<linearGradient id="b">
<stop offset="0" stop-color="#dbdee0"/>
<stop offset="1" stop-color="#dbdee0" stop-opacity="0"/>
</linearGradient>
<linearGradient id="a">
<stop offset="0" stop-color="#dbdee0"/>
<stop offset="1" stop-color="#dbdee0" stop-opacity="0"/>
</linearGradient>
<linearGradient xlink:href="#a" id="e" x1="5.875" x2="3.875" y1="31.125" y2="4.125" gradientTransform="matrix(1 0 0 -1 448.125 416.125)" gradientUnits="userSpaceOnUse"/>
<linearGradient xlink:href="#b" id="d" x1="12" x2="23" y1="6" y2="10" gradientTransform="rotate(179.992 236 208)" gradientUnits="userSpaceOnUse"/>
</defs>
<g color="#000" font-family="Sans" font-weight="400">
<path fill="url(#d)" d="M460 412c4.406 0 8-3.594 8-8s-3.594-8-8-8v2c3.326 0 6 2.674 6 6s-2.674 6-6 6a1 1 0 1 0 0 2" overflow="visible" style="text-indent:0;text-align:start;line-height:normal;text-transform:none;block-progression:tb;marker:none;-inkscape-font-specification:Sans" transform="translate(-448 -392)"/>
<path fill="url(#e)" d="M460 412c-4.406 0-8-3.594-8-8s3.594-8 8-8v2c-3.326 0-6 2.674-6 6s2.674 6 6 6z" overflow="visible" style="text-indent:0;text-align:start;line-height:normal;text-transform:none;block-progression:tb;marker:none;-inkscape-font-specification:Sans" transform="translate(-448 -392)"/>
</g>
</svg>
