<?xml version="1.0" encoding="UTF-8"?>
<!DOCTYPE svg PUBLIC "-//W3C//DTD SVG 1.1//EN" "http://www.w3.org/Graphics/SVG/1.1/DTD/svg11.dtd">
<svg xmlns="http://www.w3.org/2000/svg" version="1.1" width="1024px" height="1024px" style="shape-rendering:geometricPrecision; text-rendering:geometricPrecision; image-rendering:optimizeQuality; fill-rule:evenodd; clip-rule:evenodd" xmlns:xlink="http://www.w3.org/1999/xlink">
<g><path style="opacity:1" fill="#fefefe" d="M 406.5,36.5 C 411.731,36.5557 416.731,35.889 421.5,34.5C 484.17,30.3926 546.837,30.5592 609.5,35C 666.317,39.4291 721.317,51.7625 774.5,72C 862.918,108.418 923.418,171.585 956,261.5C 974.634,315.635 985.634,371.302 989,428.5C 993.658,500.326 991.992,571.993 984,643.5C 978.019,693.76 965.019,742.094 945,788.5C 907.872,868.961 847.706,924.461 764.5,955C 697.076,977.793 627.742,989.793 556.5,991C 476.365,995.169 397.032,989.169 318.5,973C 173.952,940.785 84.785,852.618 51,708.5C 36.6628,643.626 30.1628,577.959 31.5,511.5C 29.8999,440.833 37.3999,371.166 54,302.5C 89.4172,167.75 174.917,84.2498 310.5,52C 342.093,44.2725 374.093,39.1058 406.5,36.5 Z"/></g>
<g><path style="opacity:1" fill="#8e8e8e" d="M 421.5,34.5 C 416.731,35.889 411.731,36.5557 406.5,36.5C 411.269,35.111 416.269,34.4443 421.5,34.5 Z"/></g>
<g><path style="opacity:1" fill="#f06246" d="M 811.5,289.5 C 811.167,289.5 810.833,289.5 810.5,289.5C 796.37,273.537 781.37,258.37 765.5,244C 751.961,234.32 736.795,229.82 720,230.5C 708.137,229.537 697.304,232.371 687.5,239C 686.5,239.667 685.5,239.667 684.5,239C 664.653,219.32 644.986,199.486 625.5,179.5C 549.502,178.333 473.502,178.167 397.5,179C 378.195,199.305 358.529,219.305 338.5,239C 337.5,239.667 336.5,239.667 335.5,239C 327.892,234.131 319.559,231.464 310.5,231C 288.416,227.683 269.083,233.35 252.5,248C 238.965,261.702 225.299,275.202 211.5,288.5C 211.167,288.5 210.833,288.5 210.5,288.5C 208.11,284.217 206.11,279.717 204.5,275C 204.993,272.181 206.16,269.681 208,267.5C 223.167,251 239,235.167 255.5,220C 270.684,207.868 288.018,202.868 307.5,205C 318.338,205.669 328.338,208.836 337.5,214.5C 357.292,194.207 377.292,174.041 397.5,154C 473.5,153.333 549.5,153.333 625.5,154C 645.708,174.041 665.708,194.207 685.5,214.5C 701.343,205.193 718.343,202.359 736.5,206C 749.046,208.229 760.046,213.562 769.5,222C 785.417,237.582 800.917,253.415 816,269.5C 817.112,271.39 817.946,273.39 818.5,275.5C 816.158,280.184 813.825,284.85 811.5,289.5 Z"/></g>
<g><path style="opacity:1" fill="#ed5132" d="M 810.5,289.5 C 806.056,298.649 801.889,307.983 798,317.5C 797.333,319.167 797.333,320.833 798,322.5C 799.674,326.021 800.84,329.687 801.5,333.5C 800.83,336.673 799.664,339.673 798,342.5C 797.333,344.167 797.333,345.833 798,347.5C 803.234,362.382 808.734,377.048 814.5,391.5C 788.87,495.442 762.037,599.109 734,702.5C 723.232,726.264 707.066,745.43 685.5,760C 633.363,796.905 580.363,832.572 526.5,867C 511.762,871.896 498.096,869.896 485.5,861C 434.618,827.448 384.285,793.115 334.5,758C 306.546,737.935 288.713,711.102 281,677.5C 255.629,583.149 231.463,488.482 208.5,393.5C 214.149,377.527 219.816,361.527 225.5,345.5C 223.754,341.263 222.42,336.93 221.5,332.5C 222.823,328.196 224.156,323.863 225.5,319.5C 221.604,308.807 216.937,298.474 211.5,288.5C 225.299,275.202 238.965,261.702 252.5,248C 269.083,233.35 288.416,227.683 310.5,231C 319.559,231.464 327.892,234.131 335.5,239C 336.5,239.667 337.5,239.667 338.5,239C 358.529,219.305 378.195,199.305 397.5,179C 473.502,178.167 549.502,178.333 625.5,179.5C 644.986,199.486 664.653,219.32 684.5,239C 685.5,239.667 686.5,239.667 687.5,239C 697.304,232.371 708.137,229.537 720,230.5C 736.795,229.82 751.961,234.32 765.5,244C 781.37,258.37 796.37,273.537 810.5,289.5 Z"/></g>
<g><path style="opacity:1" fill="#fefefe" d="M 766.5,409.5 C 763.932,413.413 760.932,417.08 757.5,420.5C 726.217,448.281 695.383,476.614 665,505.5C 664.402,513.347 665.902,520.68 669.5,527.5C 672.955,536.363 676.121,545.363 679,554.5C 679.714,561.264 679.214,567.931 677.5,574.5C 674.148,582.194 669.981,589.527 665,596.5C 655.833,605 646.667,613.5 637.5,622C 633.702,625.186 629.368,626.186 624.5,625C 589.082,608.064 557.415,585.897 529.5,558.5C 526.675,554.863 523.842,551.197 521,547.5C 520.612,544.315 521.279,541.315 523,538.5C 543.029,520.634 562.862,502.634 582.5,484.5C 586.531,481.105 588.364,476.771 588,471.5C 581.962,455.2 575.462,439.2 568.5,423.5C 562.585,409.663 565.252,397.83 576.5,388C 593.812,380.515 611.146,373.348 628.5,366.5C 645.85,360.884 662.85,354.384 679.5,347C 661.245,343.573 642.745,341.406 624,340.5C 615.239,340.586 606.739,342.086 598.5,345C 582.61,350.408 566.943,356.408 551.5,363C 548.647,365.54 546.98,368.707 546.5,372.5C 547.602,379.018 548.936,385.351 550.5,391.5C 555.348,414.218 560.515,436.885 566,459.5C 566.987,463.475 566.487,467.141 564.5,470.5C 547.904,477.649 530.571,481.649 512.5,482.5C 494.229,481.512 476.562,477.845 459.5,471.5C 458.828,470.733 457.995,470.066 457,469.5C 456.333,465.5 456.333,461.5 457,457.5C 462.275,434.842 467.442,412.175 472.5,389.5C 473.707,384.132 475.04,378.799 476.5,373.5C 476.232,369.857 474.899,366.69 472.5,364C 453.478,355.881 434.145,348.548 414.5,342C 392.733,340.841 371.066,341.841 349.5,345C 347.754,345.471 346.087,346.138 344.5,347C 361.384,355.239 378.717,362.406 396.5,368.5C 413.751,374.641 430.751,381.474 447.5,389C 456.775,398.174 459.109,409.007 454.5,421.5C 448.458,436.773 442.291,452.107 436,467.5C 434.577,473.835 435.744,479.502 439.5,484.5C 442.296,487.797 445.296,490.964 448.5,494C 467.265,508.1 484.765,523.6 501,540.5C 501.667,543.167 501.667,545.833 501,548.5C 499.053,552.276 496.553,555.61 493.5,558.5C 479.15,572.687 463.483,585.187 446.5,596C 427.36,604.397 409.36,614.563 392.5,626.5C 389.473,625.639 386.806,624.139 384.5,622C 376.023,613.191 367.19,604.691 358,596.5C 353.019,589.527 348.852,582.194 345.5,574.5C 343.55,567.642 343.05,560.642 344,553.5C 347.076,544.771 350.242,536.104 353.5,527.5C 357.124,520.33 358.291,512.663 357,504.5C 330.466,479.631 303.633,455.131 276.5,431C 270.27,424.938 264.27,418.771 258.5,412.5C 255.663,406.491 254.829,400.157 256,393.5C 260.25,378.003 266.916,363.67 276,350.5C 298.008,318.157 321.175,286.657 345.5,256C 351.174,256.19 356.841,256.857 362.5,258C 383.6,264.422 404.933,269.922 426.5,274.5C 441.61,270.805 456.61,266.639 471.5,262C 491.835,255.167 512.502,253.834 533.5,258C 554.019,263.507 574.519,269.007 595,274.5C 617.623,269.553 640.123,264.053 662.5,258C 667.482,256.832 672.482,256.165 677.5,256C 708.023,290.849 735.856,327.682 761,366.5C 766.967,380.303 768.8,394.636 766.5,409.5 Z"/></g>
<g><path style="opacity:1" fill="#cdcaca" d="M 210.5,288.5 C 210.833,288.5 211.167,288.5 211.5,288.5C 216.937,298.474 221.604,308.807 225.5,319.5C 224.156,323.863 222.823,328.196 221.5,332.5C 221.167,332.5 220.833,332.5 220.5,332.5C 215.855,322.543 210.688,312.876 205,303.5C 204.431,298.631 206.097,294.631 210,291.5C 210.483,290.552 210.649,289.552 210.5,288.5 Z"/></g>
<g><path style="opacity:1" fill="#cdcaca" d="M 810.5,289.5 C 810.833,289.5 811.167,289.5 811.5,289.5C 815.61,293.38 817.777,298.046 818,303.5C 811.516,312.8 806.35,322.8 802.5,333.5C 802.167,333.5 801.833,333.5 801.5,333.5C 800.84,329.687 799.674,326.021 798,322.5C 797.333,320.833 797.333,319.167 798,317.5C 801.889,307.983 806.056,298.649 810.5,289.5 Z"/></g>
<g><path style="opacity:1" fill="#f06549" d="M 801.5,333.5 C 801.833,333.5 802.167,333.5 802.5,333.5C 807.925,348.605 813.258,363.772 818.5,379C 817.125,383.092 816.125,387.259 815.5,391.5C 815.167,391.5 814.833,391.5 814.5,391.5C 808.734,377.048 803.234,362.382 798,347.5C 797.333,345.833 797.333,344.167 798,342.5C 799.664,339.673 800.83,336.673 801.5,333.5 Z"/></g>
<g><path style="opacity:1" fill="#f06549" d="M 220.5,332.5 C 220.833,332.5 221.167,332.5 221.5,332.5C 222.42,336.93 223.754,341.263 225.5,345.5C 219.816,361.527 214.149,377.527 208.5,393.5C 208.167,393.5 207.833,393.5 207.5,393.5C 205.948,387.914 205.115,382.247 205,376.5C 210.466,361.909 215.633,347.242 220.5,332.5 Z"/></g>
<g><path style="opacity:1" fill="#bf432a" d="M 472.5,389.5 C 453.033,380.95 433.033,373.45 412.5,367C 407.833,366.333 403.167,366.333 398.5,367C 397.584,367.278 396.918,367.778 396.5,368.5C 378.717,362.406 361.384,355.239 344.5,347C 346.087,346.138 347.754,345.471 349.5,345C 371.066,341.841 392.733,340.841 414.5,342C 434.145,348.548 453.478,355.881 472.5,364C 474.899,366.69 476.232,369.857 476.5,373.5C 475.04,378.799 473.707,384.132 472.5,389.5 Z"/></g>
<g><path style="opacity:1" fill="#be432a" d="M 628.5,366.5 C 620.039,366.119 611.706,366.953 603.5,369C 585.829,374.612 568.496,381.112 551.5,388.5C 550.614,389.325 550.281,390.325 550.5,391.5C 548.936,385.351 547.602,379.018 546.5,372.5C 546.98,368.707 548.647,365.54 551.5,363C 566.943,356.408 582.61,350.408 598.5,345C 606.739,342.086 615.239,340.586 624,340.5C 642.745,341.406 661.245,343.573 679.5,347C 662.85,354.384 645.85,360.884 628.5,366.5 Z"/></g>
<g><path style="opacity:1" fill="#ed5233" d="M 472.5,389.5 C 467.442,412.175 462.275,434.842 457,457.5C 456.333,461.5 456.333,465.5 457,469.5C 457.995,470.066 458.828,470.733 459.5,471.5C 458.071,477.408 457.071,483.408 456.5,489.5C 456.288,492.011 456.955,494.178 458.5,496C 476.78,503.369 495.78,507.536 515.5,508.5C 532.362,506.368 548.696,502.201 564.5,496C 566.028,494.352 566.695,492.352 566.5,490C 565.439,484.859 564.439,479.692 563.5,474.5C 563.623,473.075 563.957,471.742 564.5,470.5C 566.487,467.141 566.987,463.475 566,459.5C 560.515,436.885 555.348,414.218 550.5,391.5C 550.281,390.325 550.614,389.325 551.5,388.5C 568.496,381.112 585.829,374.612 603.5,369C 611.706,366.953 620.039,366.119 628.5,366.5C 611.146,373.348 593.812,380.515 576.5,388C 565.252,397.83 562.585,409.663 568.5,423.5C 567.732,424.263 567.232,425.263 567,426.5C 566.333,431.5 566.333,436.5 567,441.5C 571.879,455.972 577.045,470.305 582.5,484.5C 562.862,502.634 543.029,520.634 523,538.5C 521.279,541.315 520.612,544.315 521,547.5C 523.842,551.197 526.675,554.863 529.5,558.5C 521.95,562.593 519.784,568.593 523,576.5C 533.093,587.097 543.593,597.097 554.5,606.5C 546.417,603.637 538.417,600.47 530.5,597C 522.157,593.412 513.491,592.079 504.5,593C 492.535,596.82 480.868,601.32 469.5,606.5C 479.081,597.426 488.914,587.76 499,577.5C 503.525,569.359 501.691,563.026 493.5,558.5C 496.553,555.61 499.053,552.276 501,548.5C 501.667,545.833 501.667,543.167 501,540.5C 484.765,523.6 467.265,508.1 448.5,494C 445.296,490.964 442.296,487.797 439.5,484.5C 445.484,470.386 450.984,456.053 456,441.5C 456.872,434.706 456.372,428.039 454.5,421.5C 459.109,409.007 456.775,398.174 447.5,389C 430.751,381.474 413.751,374.641 396.5,368.5C 396.918,367.778 397.584,367.278 398.5,367C 403.167,366.333 407.833,366.333 412.5,367C 433.033,373.45 453.033,380.95 472.5,389.5 Z"/></g>
<g><path style="opacity:1" fill="#cdcaca" d="M 814.5,391.5 C 814.833,391.5 815.167,391.5 815.5,391.5C 815.467,396.068 816.467,400.401 818.5,404.5C 791.528,512.877 763.362,620.877 734,728.5C 723.214,750.953 707.714,769.453 687.5,784C 634.319,821.509 580.319,857.842 525.5,893C 512.876,897.186 500.876,895.853 489.5,889C 433.124,852.482 377.791,814.482 323.5,775C 308.123,761.407 296.29,745.24 288,726.5C 258.77,619.25 230.937,511.584 204.5,403.5C 205.907,400.279 206.907,396.945 207.5,393.5C 207.833,393.5 208.167,393.5 208.5,393.5C 231.463,488.482 255.629,583.149 281,677.5C 288.713,711.102 306.546,737.935 334.5,758C 384.285,793.115 434.618,827.448 485.5,861C 498.096,869.896 511.762,871.896 526.5,867C 580.363,832.572 633.363,796.905 685.5,760C 707.066,745.43 723.232,726.264 734,702.5C 762.037,599.109 788.87,495.442 814.5,391.5 Z"/></g>
<g><path style="opacity:1" fill="#be4229" d="M 766.5,409.5 C 767.415,416.815 767.582,424.148 767,431.5C 766.241,434.785 764.908,437.785 763,440.5C 734.167,466.667 705.333,492.833 676.5,519C 673.553,521.436 671.22,524.269 669.5,527.5C 665.902,520.68 664.402,513.347 665,505.5C 695.383,476.614 726.217,448.281 757.5,420.5C 760.932,417.08 763.932,413.413 766.5,409.5 Z"/></g>
<g><path style="opacity:1" fill="#be4229" d="M 258.5,412.5 C 264.27,418.771 270.27,424.938 276.5,431C 303.633,455.131 330.466,479.631 357,504.5C 358.291,512.663 357.124,520.33 353.5,527.5C 348.703,522.202 343.703,517.035 338.5,512C 313.368,489.87 288.534,467.37 264,444.5C 255.034,434.995 253.201,424.329 258.5,412.5 Z"/></g>
<g><path style="opacity:1" fill="#bf442b" d="M 454.5,421.5 C 456.372,428.039 456.872,434.706 456,441.5C 450.984,456.053 445.484,470.386 439.5,484.5C 435.744,479.502 434.577,473.835 436,467.5C 442.291,452.107 448.458,436.773 454.5,421.5 Z"/></g>
<g><path style="opacity:1" fill="#bf452c" d="M 568.5,423.5 C 575.462,439.2 581.962,455.2 588,471.5C 588.364,476.771 586.531,481.105 582.5,484.5C 577.045,470.305 571.879,455.972 567,441.5C 566.333,436.5 566.333,431.5 567,426.5C 567.232,425.263 567.732,424.263 568.5,423.5 Z"/></g>
<g><path style="opacity:1" fill="#be4229" d="M 564.5,470.5 C 563.957,471.742 563.623,473.075 563.5,474.5C 564.439,479.692 565.439,484.859 566.5,490C 566.695,492.352 566.028,494.352 564.5,496C 548.696,502.201 532.362,506.368 515.5,508.5C 495.78,507.536 476.78,503.369 458.5,496C 456.955,494.178 456.288,492.011 456.5,489.5C 457.071,483.408 458.071,477.408 459.5,471.5C 476.562,477.845 494.229,481.512 512.5,482.5C 530.571,481.649 547.904,477.649 564.5,470.5 Z"/></g>
<g><path style="opacity:1" fill="#be4229" d="M 529.5,558.5 C 557.415,585.897 589.082,608.064 624.5,625C 629.368,626.186 633.702,625.186 637.5,622C 646.667,613.5 655.833,605 665,596.5C 669.981,589.527 674.148,582.194 677.5,574.5C 680.978,591.584 677.144,606.917 666,620.5C 657.803,629.031 649.303,637.198 640.5,645C 637.772,647.392 634.772,649.392 631.5,651C 629.833,651.667 628.167,651.667 626.5,651C 622.145,649.154 617.812,647.321 613.5,645.5C 617.611,641.966 617.278,638.799 612.5,636C 593.23,625.866 573.897,616.032 554.5,606.5C 543.593,597.097 533.093,587.097 523,576.5C 519.784,568.593 521.95,562.593 529.5,558.5 Z"/></g>
<g><path style="opacity:1" fill="#be4229" d="M 493.5,558.5 C 501.691,563.026 503.525,569.359 499,577.5C 488.914,587.76 479.081,597.426 469.5,606.5C 448.416,615.959 427.916,626.626 408,638.5C 406.991,640.025 406.491,641.692 406.5,643.5C 402.402,645.749 398.402,648.249 394.5,651C 392.833,651.667 391.167,651.667 389.5,651C 380.631,642.462 371.464,634.296 362,626.5C 353.499,617.31 347.499,606.643 344,594.5C 343.129,587.685 343.629,581.018 345.5,574.5C 348.852,582.194 353.019,589.527 358,596.5C 367.19,604.691 376.023,613.191 384.5,622C 386.806,624.139 389.473,625.639 392.5,626.5C 409.36,614.563 427.36,604.397 446.5,596C 463.483,585.187 479.15,572.687 493.5,558.5 Z"/></g>
<g><path style="opacity:1" fill="#fefefd" d="M 554.5,606.5 C 573.897,616.032 593.23,625.866 612.5,636C 617.278,638.799 617.611,641.966 613.5,645.5C 609.183,648.486 605.183,651.82 601.5,655.5C 581.672,669.144 561.672,682.644 541.5,696C 536.5,700.333 531.5,704.667 526.5,709C 522.037,712.565 517.037,715.065 511.5,716.5C 507.38,716.072 503.713,714.572 500.5,712C 494.208,707.377 488.208,702.377 482.5,697C 462.012,683.337 441.679,669.503 421.5,655.5C 415.874,652.199 410.874,648.199 406.5,643.5C 406.491,641.692 406.991,640.025 408,638.5C 427.916,626.626 448.416,615.959 469.5,606.5C 480.868,601.32 492.535,596.82 504.5,593C 513.491,592.079 522.157,593.412 530.5,597C 538.417,600.47 546.417,603.637 554.5,606.5 Z"/></g>
<g><path style="opacity:1" fill="#be4128" d="M 421.5,655.5 C 441.679,669.503 462.012,683.337 482.5,697C 488.208,702.377 494.208,707.377 500.5,712C 503.713,714.572 507.38,716.072 511.5,716.5C 517.037,715.065 522.037,712.565 526.5,709C 531.5,704.667 536.5,700.333 541.5,696C 561.672,682.644 581.672,669.144 601.5,655.5C 606.557,658.113 611.39,661.113 616,664.5C 615.749,667.831 614.249,670.664 611.5,673C 588.356,690.074 564.689,706.407 540.5,722C 534.46,727.709 528.126,733.043 521.5,738C 513.354,743.075 505.687,742.409 498.5,736C 493.5,731.667 488.5,727.333 483.5,723C 457.506,706.669 432.339,689.169 408,670.5C 406.813,668.956 406.48,667.289 407,665.5C 411.291,661.28 416.124,657.947 421.5,655.5 Z"/></g>
</svg>
