<svg width="300" height="300" viewBox="0 0 300 300" fill="none" xmlns="http://www.w3.org/2000/svg">
<path fill-rule="evenodd" clip-rule="evenodd" d="M117.219 1.54894C118.853 1.56634 120.415 1.35815 121.905 0.924425C141.483 -0.358145 161.061 -0.306123 180.637 1.08055C198.388 2.46358 215.57 6.31479 232.185 12.6341C259.807 24.006 278.708 43.7304 288.887 71.8071C294.708 88.7112 298.145 106.094 299.196 123.954C300.651 146.383 300.131 168.761 297.634 191.09C295.766 206.784 291.704 221.877 285.45 236.367C273.851 261.492 255.055 278.822 229.061 288.358C207.997 295.476 186.336 299.223 164.08 299.6C139.045 300.902 114.261 299.028 89.7269 293.979C44.569 283.92 16.7126 256.389 6.15787 211.387C1.67882 191.129 -0.351829 170.624 0.0659221 149.872C-0.433961 127.805 1.9091 106.051 7.09509 84.6097C18.1597 42.5329 44.8705 16.4592 87.2276 6.38895C97.0975 3.97597 107.095 2.36263 117.219 1.54894Z" fill="#FAFAFA"/>
<path opacity="0.4" d="M236 109.797V214C236 246.062 216.869 256.75 193.25 256.75H107.75C84.1306 256.75 65 246.062 65 214V109.797C65 75.0625 84.1306 67.0469 107.75 67.0469C107.75 73.6731 110.422 79.6581 114.803 84.04C119.185 88.4219 125.171 91.0938 131.797 91.0938H169.203C182.456 91.0938 193.25 80.2994 193.25 67.0469C216.869 67.0469 236 75.0625 236 109.797Z" fill="#2991C9"/>
<path d="M193.25 67.0469C193.25 80.2994 182.456 91.0938 169.203 91.0938H131.797C125.171 91.0938 119.185 88.4219 114.803 84.04C110.422 79.6581 107.75 73.6731 107.75 67.0469C107.75 53.7944 118.544 43 131.797 43H169.203C175.829 43 181.814 45.6719 186.196 50.0538C190.578 54.4356 193.25 60.4206 193.25 67.0469Z" fill="#2991C9"/>
<path d="M150.5 168.578H107.75C103.368 168.578 99.7344 164.944 99.7344 160.562C99.7344 156.181 103.368 152.547 107.75 152.547H150.5C154.882 152.547 158.516 156.181 158.516 160.562C158.516 164.944 154.882 168.578 150.5 168.578Z" fill="#2991C9"/>
<path d="M193.25 211.328H107.75C103.368 211.328 99.7344 207.694 99.7344 203.313C99.7344 198.931 103.368 195.297 107.75 195.297H193.25C197.632 195.297 201.266 198.931 201.266 203.313C201.266 207.694 197.632 211.328 193.25 211.328Z" fill="#2991C9"/>
<path d="M220.371 99.95L227.979 92.4455C231.821 88.5792 231.972 84.4101 228.582 80.9232L226.021 78.3458C222.631 74.9346 218.488 75.3136 214.646 79.0279L207.037 86.6085L220.371 99.95ZM131.556 189.096L213.742 106.469L200.559 93.1276L118.298 175.83L111.141 192.658C110.464 194.478 112.347 196.6 114.155 195.842L131.556 189.096Z" fill="#006699"/>
</svg>
