<svg width="300" height="300" viewBox="0 0 300 300" fill="none" xmlns="http://www.w3.org/2000/svg">
<path fill-rule="evenodd" clip-rule="evenodd" d="M117.219 1.54894C118.853 1.56634 120.415 1.35815 121.905 0.924425C141.483 -0.358145 161.061 -0.306123 180.637 1.08055C198.388 2.46358 215.57 6.31479 232.185 12.6341C259.807 24.006 278.708 43.7304 288.887 71.8071C294.708 88.7112 298.145 106.094 299.196 123.954C300.651 146.383 300.131 168.761 297.634 191.09C295.766 206.784 291.704 221.877 285.45 236.367C273.851 261.492 255.055 278.822 229.061 288.358C207.997 295.476 186.336 299.223 164.08 299.6C139.045 300.902 114.261 299.028 89.7269 293.979C44.569 283.92 16.7126 256.389 6.15787 211.387C1.67882 191.129 -0.351829 170.624 0.0659221 149.872C-0.433961 127.805 1.9091 106.051 7.09509 84.6097C18.1597 42.5329 44.8705 16.4592 87.2276 6.38895C97.0975 3.97597 107.095 2.36263 117.219 1.54894Z" fill="#FAFAFA"/>
<path d="M96.516 258.969H204.484C225.529 258.969 236 248.294 236 227.148V134.837C236 121.722 234.577 116.028 226.444 107.692L170.325 50.6579C162.598 42.7281 156.295 41 144.807 41H96.516C75.5731 41 65 51.7766 65 72.9229V227.148C65 248.396 75.5731 258.969 96.516 258.969ZM97.3293 242.601C86.8577 242.601 81.3679 237.01 81.3679 226.843V73.2278C81.3679 63.163 86.8577 57.3679 97.4308 57.3679H142.57V116.435C142.57 129.245 149.076 135.548 161.683 135.548H219.632V226.843C219.632 237.01 214.244 242.601 203.671 242.601H97.3293ZM163.513 120.197C159.548 120.197 157.921 118.57 157.921 114.504V60.5197L216.48 120.197H163.513ZM187.913 163.506H110.749C107.089 163.506 104.446 166.251 104.446 169.708C104.446 173.266 107.089 176.011 110.749 176.011H187.913C191.471 176.011 194.216 173.266 194.216 169.708C194.216 166.251 191.471 163.506 187.913 163.506ZM187.913 198.987H110.749C107.089 198.987 104.446 201.834 104.446 205.392C104.446 208.849 107.089 211.492 110.749 211.492H187.913C191.471 211.492 194.216 208.849 194.216 205.392C194.216 201.834 191.471 198.987 187.913 198.987Z" fill="#006699"/>
</svg>
