<svg width="300" height="300" viewBox="0 0 300 300" fill="none" xmlns="http://www.w3.org/2000/svg">
<path fill-rule="evenodd" clip-rule="evenodd" d="M117.219 1.54894C118.853 1.56634 120.415 1.35815 121.905 0.924425C141.483 -0.358145 161.061 -0.306123 180.637 1.08055C198.388 2.46358 215.57 6.31479 232.185 12.6341C259.807 24.006 278.708 43.7304 288.887 71.8071C294.708 88.7112 298.145 106.094 299.196 123.954C300.651 146.383 300.131 168.761 297.634 191.09C295.766 206.784 291.704 221.877 285.45 236.367C273.851 261.492 255.055 278.822 229.061 288.358C207.997 295.476 186.336 299.223 164.08 299.6C139.045 300.902 114.261 299.028 89.7269 293.979C44.569 283.92 16.7126 256.389 6.15787 211.387C1.67882 191.129 -0.351829 170.624 0.0659221 149.872C-0.433961 127.805 1.9091 106.051 7.09509 84.6097C18.1597 42.5329 44.8705 16.4592 87.2276 6.38895C97.0975 3.97597 107.095 2.36263 117.219 1.54894Z" fill="#FAFAFA"/>
<path d="M96.516 258.969H204.484C225.529 258.969 236 248.294 236 227.148V134.837C236 121.722 234.577 116.028 226.444 107.692L170.325 50.6579C162.598 42.7281 156.295 41 144.807 41H96.516C75.5731 41 65 51.7766 65 72.9229V227.148C65 248.396 75.5731 258.969 96.516 258.969ZM97.3293 242.601C86.8577 242.601 81.3679 237.01 81.3679 226.843V73.2278C81.3679 63.163 86.8577 57.3679 97.4308 57.3679H142.57V116.435C142.57 129.245 149.076 135.548 161.683 135.548H219.632V226.843C219.632 237.01 214.244 242.601 203.671 242.601H97.3293ZM163.513 120.197C159.548 120.197 157.921 118.57 157.921 114.504V60.5197L216.48 120.197H163.513Z" fill="#6C7AD8"/>
<path d="M102.187 195H147.319C152.768 195 155.506 192.288 155.506 186.917V155.083C155.506 149.712 152.768 147 147.319 147H102.187C96.7637 147 94 149.685 94 155.083V186.917C94 192.315 96.7637 195 102.187 195ZM98.1977 155.291C98.1977 152.58 99.6578 151.198 102.265 151.198H122.915V161.94H98.1977V155.291ZM126.591 161.94V151.198H147.241C149.822 151.198 151.308 152.58 151.308 155.291V161.94H126.591ZM126.591 176.384V165.616H151.308V176.384H126.591ZM122.915 165.616V176.384H98.1977V165.616H122.915ZM147.241 190.802H126.591V180.06H151.308V186.709C151.308 189.42 149.822 190.802 147.241 190.802ZM102.265 190.802C99.6578 190.802 98.1977 189.42 98.1977 186.709V180.06H122.915V190.802H102.265Z" fill="#6C7AD8"/>
<path d="M180 188.667C194.083 188.667 205.5 184.861 205.5 180.167C205.5 175.472 194.083 171.667 180 171.667C165.917 171.667 154.5 175.472 154.5 180.167C154.5 184.861 165.917 188.667 180 188.667Z" stroke="#6C7AD8" stroke-width="3" stroke-linecap="round" stroke-linejoin="round"/>
<path d="M205.5 200C205.5 204.703 194.167 208.5 180 208.5C165.833 208.5 154.5 204.703 154.5 200" stroke="#6C7AD8" stroke-width="3" stroke-linecap="round" stroke-linejoin="round"/>
<path d="M154.5 180.167V219.833C154.5 224.537 165.833 228.333 180 228.333C194.167 228.333 205.5 224.537 205.5 219.833V180.167" stroke="#6C7AD8" stroke-width="3" stroke-linecap="round" stroke-linejoin="round"/>
</svg>
