<svg width="300" height="300" viewBox="0 0 300 300" fill="none" xmlns="http://www.w3.org/2000/svg">
<path fill-rule="evenodd" clip-rule="evenodd" d="M117.219 1.54894C118.853 1.56634 120.415 1.35815 121.905 0.924425C141.483 -0.358145 161.061 -0.306123 180.637 1.08055C198.388 2.46358 215.57 6.31479 232.185 12.6341C259.807 24.006 278.708 43.7304 288.887 71.8071C294.708 88.7112 298.145 106.094 299.196 123.954C300.651 146.383 300.131 168.761 297.634 191.09C295.766 206.784 291.704 221.877 285.45 236.367C273.851 261.492 255.055 278.822 229.061 288.358C207.997 295.476 186.336 299.223 164.08 299.6C139.045 300.902 114.261 299.028 89.7269 293.979C44.569 283.92 16.7126 256.389 6.15787 211.387C1.67882 191.129 -0.351829 170.624 0.0659221 149.872C-0.433961 127.805 1.9091 106.051 7.09509 84.6097C18.1597 42.5329 44.8705 16.4592 87.2276 6.38895C97.0975 3.97597 107.095 2.36263 117.219 1.54894Z" fill="#FAFAFA"/>
<path d="M96.516 258.969H204.484C225.529 258.969 236 248.294 236 227.148V134.837C236 121.722 234.577 116.028 226.444 107.692L170.325 50.6579C162.598 42.7281 156.295 41 144.807 41H96.516C75.5731 41 65 51.7766 65 72.9229V227.148C65 248.396 75.5731 258.969 96.516 258.969ZM97.3293 242.601C86.8577 242.601 81.3679 237.01 81.3679 226.843V73.2278C81.3679 63.163 86.8577 57.3679 97.4308 57.3679H142.57V116.435C142.57 129.245 149.076 135.548 161.683 135.548H219.632V226.843C219.632 237.01 214.244 242.601 203.671 242.601H97.3293ZM163.513 120.197C159.548 120.197 157.921 118.57 157.921 114.504V60.5197L216.48 120.197H163.513Z" fill="#33CC33"/>
<path d="M115.498 225.251H185.502C193.954 225.251 198.2 221.046 198.2 212.715V163.337C198.2 155.006 193.954 150.8 185.502 150.8H115.498C107.087 150.8 102.8 154.965 102.8 163.337V212.715C102.8 221.086 107.087 225.251 115.498 225.251ZM109.311 163.66C109.311 159.454 111.576 157.311 115.62 157.311H147.649V173.973H109.311V163.66ZM153.351 173.973V157.311H185.38C189.384 157.311 191.688 159.454 191.688 163.66V173.973H153.351ZM153.351 196.377V179.675H191.688V196.377H153.351ZM147.649 179.675V196.377H109.311V179.675H147.649ZM185.38 218.74H153.351V202.079H191.688V212.391C191.688 216.597 189.384 218.74 185.38 218.74ZM115.62 218.74C111.576 218.74 109.311 216.597 109.311 212.391V202.079H147.649V218.74H115.62Z" fill="#33CC33"/>
<rect x="160.4" y="187.7" width="37.8" height="37.8" rx="6.3" fill="#D9D9D9"/>
<path d="M191.938 187.25C196.251 187.25 198.2 189.298 198.2 193.55V218.854C198.2 223.106 196.251 225.248 191.938 225.248H165.35C161.057 225.248 160.4 223.122 160.4 218.85V193.648C160.4 189.376 162.588 187.25 166.881 187.25H191.938ZM172.354 200.965H170.593C169.62 200.965 168.831 201.754 168.831 202.726V215.055C168.831 216.028 169.62 216.817 170.593 216.817H172.354C173.327 216.817 174.115 216.028 174.115 215.055V202.726C174.115 201.754 173.327 200.965 172.354 200.965ZM180.28 195.681H178.518C177.546 195.681 176.757 196.47 176.757 197.443V215.055C176.757 216.028 177.546 216.817 178.518 216.817H180.28C181.252 216.817 182.041 216.028 182.041 215.055V197.443C182.041 196.47 181.252 195.681 180.28 195.681ZM188.205 206.249H186.444C185.471 206.249 184.683 207.037 184.683 208.01V215.055C184.683 216.028 185.471 216.817 186.444 216.817H188.205C189.178 216.817 189.967 216.028 189.967 215.055V208.01C189.967 207.037 189.178 206.249 188.205 206.249Z" fill="#33CC33"/>
</svg>
