<svg width="300" height="300" viewBox="0 0 300 300" fill="none" xmlns="http://www.w3.org/2000/svg">
<path fill-rule="evenodd" clip-rule="evenodd" d="M117.219 1.54894C118.853 1.56634 120.415 1.35815 121.905 0.924425C141.483 -0.358145 161.061 -0.306123 180.637 1.08055C198.388 2.46358 215.57 6.31479 232.185 12.6341C259.807 24.006 278.708 43.7304 288.887 71.8071C294.708 88.7112 298.145 106.094 299.196 123.954C300.651 146.383 300.131 168.761 297.634 191.09C295.766 206.784 291.704 221.877 285.45 236.367C273.851 261.492 255.055 278.822 229.061 288.358C207.997 295.476 186.336 299.223 164.08 299.6C139.045 300.902 114.261 299.028 89.7269 293.979C44.569 283.92 16.7126 256.389 6.15787 211.387C1.67882 191.129 -0.351829 170.624 0.0659221 149.872C-0.433961 127.805 1.9091 106.051 7.09509 84.6097C18.1597 42.5329 44.8705 16.4592 87.2276 6.38895C97.0975 3.97597 107.095 2.36263 117.219 1.54894Z" fill="#FAFAFA"/>
<path d="M96.516 258.969H204.484C225.529 258.969 236 248.294 236 227.148V134.837C236 121.722 234.577 116.028 226.444 107.692L170.325 50.6579C162.598 42.7281 156.295 41 144.807 41H96.516C75.5731 41 65 51.7766 65 72.9229V227.148C65 248.396 75.5731 258.969 96.516 258.969ZM97.3293 242.601C86.8577 242.601 81.3679 237.01 81.3679 226.843V73.2278C81.3679 63.163 86.8577 57.3679 97.4308 57.3679H142.57V116.435C142.57 129.245 149.076 135.548 161.683 135.548H219.632V226.843C219.632 237.01 214.244 242.601 203.671 242.601H97.3293ZM163.513 120.197C159.548 120.197 157.921 118.57 157.921 114.504V60.5197L216.48 120.197H163.513Z" fill="#CC5E55"/>
<path d="M128.625 208.792H125.5C123.842 208.792 122.253 208.063 121.081 206.766C119.908 205.469 119.25 203.709 119.25 201.875V167.292C119.25 165.457 119.908 163.698 121.081 162.401C122.253 161.104 123.842 160.375 125.5 160.375H175.5C177.158 160.375 178.747 161.104 179.919 162.401C181.092 163.698 181.75 165.457 181.75 167.292V201.875C181.75 203.709 181.092 205.469 179.919 206.766C178.747 208.063 177.158 208.792 175.5 208.792H172.375" stroke="#CC5E55" stroke-width="4" stroke-linecap="round" stroke-linejoin="round"/>
<path d="M150.5 201.875L166.125 222.625H134.875L150.5 201.875Z" stroke="#CC5E55" stroke-width="3" stroke-linecap="round" stroke-linejoin="round"/>
<path d="M157.562 177.292H135.688" stroke="#CC5E55" stroke-width="2" stroke-linecap="round" stroke-linejoin="round"/>
<path d="M163.812 170.375H135.688" stroke="#CC5E55" stroke-width="2" stroke-linecap="round" stroke-linejoin="round"/>
<path d="M163.812 184.208H135.688" stroke="#CC5E55" stroke-width="2" stroke-linecap="round" stroke-linejoin="round"/>
<path d="M157.562 191.125H135.688" stroke="#CC5E55" stroke-width="2" stroke-linecap="round" stroke-linejoin="round"/>
<g clip-path="url(#clip0_3_228)">
<path d="M168 204.667C171.682 204.667 174.667 201.682 174.667 198C174.667 194.318 171.682 191.333 168 191.333C164.318 191.333 161.333 194.318 161.333 198C161.333 201.682 164.318 204.667 168 204.667Z" stroke="#CC5E55" stroke-width="2" stroke-linecap="round" stroke-linejoin="round"/>
<path d="M169.54 195.333L173.367 201.96" stroke="#CC5E55" stroke-width="2" stroke-linecap="round" stroke-linejoin="round"/>
<path d="M166.46 195.333H174.113" stroke="#CC5E55" stroke-width="2" stroke-linecap="round" stroke-linejoin="round"/>
<path d="M164.92 198L168.747 191.373" stroke="#CC5E55" stroke-width="2" stroke-linecap="round" stroke-linejoin="round"/>
<path d="M166.46 200.667L162.633 194.04" stroke="#CC5E55" stroke-width="2" stroke-linecap="round" stroke-linejoin="round"/>
<path d="M169.54 200.667H161.887" stroke="#CC5E55" stroke-width="2" stroke-linecap="round" stroke-linejoin="round"/>
<path d="M171.08 198L167.253 204.627" stroke="#CC5E55" stroke-width="2" stroke-linecap="round" stroke-linejoin="round"/>
</g>
<circle cx="128.5" cy="170.5" r="2.5" fill="#CC5E55"/>
<circle cx="128.5" cy="177.5" r="2.5" fill="#CC5E55"/>
<circle cx="128.5" cy="184.5" r="2.5" fill="#CC5E55"/>
<circle cx="128.5" cy="191.5" r="2.5" fill="#CC5E55"/>
<defs>
<clipPath id="clip0_3_228">
<rect width="16" height="16" fill="white" transform="translate(160 190)"/>
</clipPath>
</defs>
</svg>
