<svg width="256" height="256" viewBox="0 0 256 256" fill="none" xmlns="http://www.w3.org/2000/svg">
<path fill-rule="evenodd" clip-rule="evenodd" d="M100.245 2.31144C101.629 2.32616 102.951 2.1499 104.213 1.78268C120.789 0.69677 137.365 0.740816 153.94 1.91487C168.968 3.08583 183.516 6.34652 197.583 11.6969C220.97 21.325 236.973 38.0251 245.591 61.7967C250.52 76.1088 253.429 90.826 254.319 105.948C255.551 124.937 255.111 143.884 252.997 162.789C251.415 176.077 247.976 188.856 242.681 201.124C232.861 222.397 216.946 237.07 194.938 245.143C177.104 251.169 158.765 254.342 139.921 254.661C118.725 255.763 97.7409 254.177 76.9688 249.902C38.7351 241.385 15.15 218.076 6.21366 179.974C2.4214 162.823 0.702118 145.462 1.05581 127.891C0.632579 109.209 2.61637 90.7901 7.00718 72.6362C16.3752 37.0112 38.9903 14.9355 74.8527 6.40931C83.2092 4.36632 91.6734 3.00036 100.245 2.31144Z" fill="url(#paint0_linear_1_94087)"/>
<path fill-rule="evenodd" clip-rule="evenodd" d="M103.961 0.788843C102.689 1.15896 101.356 1.33661 99.9607 1.32176C91.3177 2.01611 82.7833 3.39283 74.3574 5.4519C38.1974 14.0452 15.3945 36.2947 5.94872 72.2003C3.38585 82.792 1.63628 93.4732 0.700026 104.244L76.5632 143.569C82.6698 138.944 90.2812 136.2 98.5333 136.2L124.545 99.8C124.545 73.9533 145.506 53 171.365 53C197.222 53 218.184 73.9533 218.184 99.8C218.184 125.647 197.222 146.6 171.365 146.6L134.949 172.6C134.949 192.703 118.645 209 98.5333 209C78.4215 209 62.1184 192.703 62.1184 172.6C62.1184 172.145 62.1263 171.691 62.1434 171.239L0 139.025C0.412116 152.943 2.12832 166.729 5.14862 180.383C14.1591 218.785 37.94 242.278 76.491 250.862C97.4355 255.171 118.594 256.769 139.966 255.658C158.966 255.337 177.457 252.139 195.439 246.066C217.631 237.928 233.677 223.14 243.579 201.7C248.918 189.335 252.385 176.456 253.98 163.063C256.112 144.01 256.556 124.913 255.314 105.774C254.416 90.5333 251.482 75.7002 246.513 61.2754C237.823 37.3166 221.688 20.4851 198.106 10.7811C183.923 5.38862 169.254 2.10225 154.101 0.922073C137.389 -0.261225 120.675 -0.305617 103.961 0.788843ZM197.375 99.8C197.375 85.4408 185.73 73.8002 171.365 73.8002C156.999 73.8002 145.353 85.4408 145.353 99.8C145.353 114.159 156.999 125.8 171.365 125.8C185.73 125.8 197.375 114.159 197.375 99.8ZM116.159 181.541C120.072 173.865 117.019 164.471 109.339 160.559L87.3084 149.139C90.707 147.512 94.5137 146.6 98.5333 146.6C112.899 146.6 124.545 158.241 124.545 172.6C124.545 186.96 112.899 198.6 98.5333 198.6C85.5966 198.6 74.8652 189.159 72.859 176.794L95.1689 188.359C102.849 192.27 112.247 189.218 116.159 181.541ZM134.949 99.8C134.949 79.6967 151.253 63.3998 171.365 63.3998C191.476 63.3998 207.78 79.6967 207.78 99.8C207.78 119.903 191.476 136.2 171.365 136.2C151.253 136.2 134.949 119.903 134.949 99.8Z" fill="#002A44"/>
<defs>
<linearGradient id="paint0_linear_1_94087" x1="1" y1="128" x2="255" y2="128" gradientUnits="userSpaceOnUse">
<stop stop-color="#A0A0A0"/>
<stop offset="1" stop-color="#FAFAFA"/>
</linearGradient>
</defs>
</svg>
