<svg width="22" height="22" viewBox="0 0 22 22" fill="none" xmlns="http://www.w3.org/2000/svg">
<path fill-rule="evenodd" clip-rule="evenodd" d="M4.6 9.14286C4.6 8.62213 5.02213 8.2 5.54286 8.2H16.4571C16.9779 8.2 17.4 8.62213 17.4 9.14286L17.4 14.4571C17.4 14.9779 16.9779 15.4 16.4571 15.4H15.9429C15.4221 15.4 15 14.9779 15 14.4571V13.8C15 13.3582 14.6418 13 14.2 13H7.8C7.35817 13 7 13.3582 7 13.8V14.4571C7 14.9779 6.57787 15.4 6.05714 15.4H5.54286C5.02213 15.4 4.6 14.9779 4.6 14.4571L4.6 9.14286ZM7.8 17H4.6C3.71634 17 3 16.2837 3 15.4V6.6C3 6.54477 3.0028 6.4902 3.00826 6.43641C3.04509 6.07378 3.20301 5.74696 3.44095 5.497C3.45888 5.47816 3.47727 5.45976 3.4961 5.44181C3.78321 5.16807 4.17198 5 4.6 5H17.4C18.2837 5 19 5.71634 19 6.6V15.4C19 16.2837 18.2837 17 17.4 17H14.2H7.8Z" fill="url(#paint0_linear_126_390)"/>
<defs>
<linearGradient id="paint0_linear_126_390" x1="3" y1="17" x2="20.1046" y2="6.86396" gradientUnits="userSpaceOnUse">
<stop stop-color="#BBBBBB"/>
<stop offset="1" stop-color="#EEEEEE"/>
</linearGradient>
</defs>
</svg>
