<svg width="22" height="22" viewBox="0 0 22 22" fill="none" xmlns="http://www.w3.org/2000/svg">
<defs>
<style id="current-color-scheme" type="text/css">.ColorScheme-Text { color:#ffffff; }</style>
</defs>
<g opacity="0.90">
<path class="ColorScheme-Text" fill-rule="evenodd" clip-rule="evenodd" d="M4.6 5H13.4C14.2837 5 15 5.76751 15 6.71429V15.2857C15 16.2325 14.2837 17 13.4 17H4.6C3.71634 17 3 16.2325 3 15.2857V6.71429C3 5.76751 3.71634 5 4.6 5ZM5.54207 8.60486C6.1338 8.60486 6.6135 8.15715 6.6135 7.60486C6.6135 7.05258 6.1338 6.60486 5.54207 6.60486C4.95034 6.60486 4.47064 7.05258 4.47064 7.60486C4.47064 8.15715 4.95034 8.60486 5.54207 8.60486Z" fill="currentColor"/>
<path class="ColorScheme-Text" fill-rule="evenodd" clip-rule="evenodd" d="M15.8 12.7125C15.8 12.9798 15.9334 13.2294 16.1557 13.3778L17.6251 14.3591C18.2125 14.7514 19 14.3304 19 13.624V8.36139C19 7.65503 18.2125 7.23398 17.6251 7.62628L16.1557 8.60761C15.9334 8.75603 15.8 9.00563 15.8 9.27288V12.7125Z" fill="currentColor"/>
</g>
</svg>
