<svg width="22" height="22" viewBox="0 0 22 22" fill="none" xmlns="http://www.w3.org/2000/svg">
<path d="M7.43828 17C7.21736 17 7.03828 16.8209 7.03828 16.6V16.1846C7.03828 16.0667 7.09026 15.9548 7.18035 15.8788L7.40749 15.6872C7.69252 15.4467 7.52248 14.9815 7.14956 14.9815H5.25837C4.62424 14.9815 4.08931 14.8005 3.65359 14.4387C3.21786 14.0768 3 13.6326 3 13.106V6.8755C3 6.34887 3.21786 5.90464 3.65359 5.54278C4.08931 5.18093 4.62424 5 5.25837 5H9.68134C9.90225 5 10.0813 5.17909 10.0813 5.4V6.4755C10.0813 6.69641 9.90225 6.8755 9.68134 6.8755H5.65837C5.43746 6.8755 5.25837 7.05458 5.25837 7.2755V12.706C5.25837 12.9269 5.43746 13.106 5.65837 13.106H16.3416C16.5625 13.106 16.7416 12.9269 16.7416 12.706V11.6464C16.7416 11.4254 16.9207 11.2464 17.1416 11.2464H18.6C18.8209 11.2464 19 11.4254 19 11.6464V13.106C19 13.6326 18.7821 14.0768 18.3464 14.4387C17.9107 14.8005 17.3758 14.9815 16.7416 14.9815H14.8504C14.4775 14.9815 14.3075 15.4467 14.5925 15.6872L14.8197 15.8788C14.9097 15.9548 14.9617 16.0667 14.9617 16.1846V16.6C14.9617 16.8209 14.7826 17 14.5617 17H7.43828ZM13.7245 12.4169C13.5763 12.5399 13.3615 12.5399 13.2133 12.4169L9.55236 9.3766C9.35976 9.21665 9.35976 8.9211 9.55236 8.76115L10.5148 7.9619C10.6629 7.83886 10.8777 7.83886 11.0259 7.9619L11.6842 8.50857C11.9448 8.72503 12.3397 8.53966 12.3397 8.20085V5.4C12.3397 5.17909 12.5188 5 12.7397 5H14.1981C14.419 5 14.5981 5.17909 14.5981 5.4V8.20085C14.5981 8.53966 14.993 8.72503 15.2536 8.50857L15.9119 7.9619C16.0601 7.83886 16.2749 7.83886 16.423 7.9619L17.3854 8.76115C17.578 8.9211 17.578 9.21665 17.3854 9.3766L13.7245 12.4169Z" fill="url(#paint0_linear_126_343)"/>
<defs>
<linearGradient id="paint0_linear_126_343" x1="3" y1="17" x2="20.1046" y2="6.86396" gradientUnits="userSpaceOnUse">
<stop stop-color="#BBBBBB"/>
<stop offset="1" stop-color="#EEEEEE"/>
</linearGradient>
</defs>
</svg>
