<svg width="22" height="22" viewBox="0 0 22 22" fill="none" xmlns="http://www.w3.org/2000/svg">
<defs>
<style id="current-color-scheme" type="text/css">.ColorScheme-Text { color:#ffffff; }</style>
</defs>
<g opacity="0.90">
<path class="ColorScheme-Text" d="M16.8453 10.6311L17.4547 10.9834C17.9601 11.2755 18.5943 11.0803 18.8713 10.5475C19.1484 10.0147 18.9633 9.34589 18.458 9.05378L11.836 5.22579C11.3152 4.92474 10.6848 4.92474 10.164 5.22579L3.54204 9.05378C3.03671 9.34589 2.85164 10.0147 3.12867 10.5475C3.4057 11.0803 4.03993 11.2755 4.54526 10.9834L5.15473 10.6311V15.0452C5.15473 15.5816 5.37313 16.0415 5.80992 16.4249C6.2467 16.8083 6.77976 17 7.4091 17H8.79071C9.1749 17 9.48635 16.6716 9.48635 16.2665V13.0699C9.48635 12.6648 9.7978 12.3364 10.182 12.3364H11.818C12.2022 12.3364 12.5137 12.6648 12.5137 13.0699V16.2665C12.5137 16.6716 12.8251 17 13.2093 17H14.5909C15.2202 17 15.7533 16.8083 16.1901 16.4249C16.6269 16.0415 16.8453 15.5816 16.8453 15.0452V10.6311Z" fill="currentColor"/>
</g>
</svg>
