<svg width="22" height="22" viewBox="0 0 22 22" fill="none" xmlns="http://www.w3.org/2000/svg">
<rect width="22" height="22" fill="url(#paint0_linear_29_33)" fill-opacity="0.01"/>
<path d="M14.6409 19C13.9881 19 13.4311 18.7195 12.9699 18.1585C12.5088 17.5975 12.2782 16.9293 12.2782 16.1539C12.2782 16.0511 12.2857 15.9481 12.3008 15.8448V15.8448C12.327 15.6649 12.2461 15.4869 12.0974 15.3821L9.2553 13.3795C9.04928 13.2343 8.77101 13.2707 8.57164 13.4249C8.45098 13.5182 8.32386 13.5978 8.19029 13.6636C7.93118 13.7913 7.65472 13.8552 7.3609 13.8552C6.71345 13.8552 6.15811 13.5744 5.69486 13.0128C5.23162 12.4511 5 11.7761 5 10.9877C5 10.1992 5.23162 9.52832 5.69486 8.97492C6.15811 8.42151 6.71345 8.14481 7.3609 8.14481C7.65472 8.14481 7.93118 8.20563 8.19029 8.32725C8.32344 8.38975 8.45017 8.46671 8.5705 8.55812C8.7712 8.71059 9.04929 8.74741 9.25531 8.60222L12.0998 6.59762C12.2467 6.4941 12.3248 6.31811 12.3008 6.14001V6.14001C12.2857 6.02864 12.2782 5.93066 12.2782 5.84607C12.2782 5.05853 12.5082 4.38731 12.9682 3.83238C13.4281 3.27746 13.9845 3 14.6373 3C15.2901 3 15.8471 3.27778 16.3083 3.83333C16.7694 4.38887 17 5.06086 17 5.8493C17 6.63772 16.7684 7.30863 16.3051 7.86203C15.8419 8.41543 15.2865 8.69213 14.6391 8.69213C14.3453 8.69213 14.0688 8.6374 13.8097 8.52794C13.6764 8.47164 13.5496 8.39925 13.4292 8.31077C13.2272 8.16234 12.9514 8.12387 12.7455 8.2668L9.90432 10.2387C9.75475 10.3425 9.673 10.5199 9.69925 10.7V10.7C9.71429 10.8033 9.7218 10.9002 9.7218 10.9909C9.7218 11.0816 9.71429 11.1815 9.69925 11.2908V11.2908C9.67526 11.4652 9.75228 11.6376 9.89688 11.7379L12.7552 13.7217C12.9569 13.8617 13.2269 13.8286 13.4258 13.6847C13.5472 13.5968 13.6752 13.5229 13.8097 13.4629C14.0688 13.3474 14.3453 13.2896 14.6391 13.2896C15.2865 13.2896 15.8419 13.5704 16.3051 14.1321C16.7684 14.6937 17 15.3687 17 16.1571C17 16.9334 16.77 17.6013 16.31 18.1608C15.8501 18.7203 15.2937 19 14.6409 19Z" fill="url(#paint1_linear_29_33)"/>
<defs>
<linearGradient id="paint0_linear_29_33" x1="11" y1="18.3333" x2="11" y2="-0.458334" gradientUnits="userSpaceOnUse">
<stop stop-color="#BBBBBB"/>
<stop offset="1" stop-color="#EEEEEE"/>
</linearGradient>
<linearGradient id="paint1_linear_29_33" x1="11" y1="16.3333" x2="11" y2="2.66667" gradientUnits="userSpaceOnUse">
<stop stop-color="#BBBBBB"/>
<stop offset="1" stop-color="#EEEEEE"/>
</linearGradient>
</defs>
</svg>
