<svg width="22" height="22" viewBox="0 0 22 22" fill="none" xmlns="http://www.w3.org/2000/svg">
<path fill-rule="evenodd" clip-rule="evenodd" d="M11.2905 3.7511L15.9081 3.01207C16.481 2.92038 17 3.36291 17 3.94308V6.33512C17 6.79793 16.6641 7.19232 16.2072 7.26596L12.2661 7.90118C11.8088 7.97313 11.7275 8.04509 11.7275 8.44491V15.7615C11.7275 18.1124 9.45114 19 7.94707 19C6.22964 19 5 18.1204 5 16.873C5 15.6496 5.9654 14.81 8.03856 14.4741L9.65441 14.2022C10.0711 14.1383 10.2845 13.8984 10.2845 13.5306L10.2235 4.6387C10.2235 4.1589 10.5995 3.87105 11.2905 3.7511ZM17 13.2214C17 13.2214 17 13.2214 17 13.2214V13.2214C17 13.2214 17 13.2214 17 13.2214V17.6114C17 17.6114 17 17.6114 17 17.6114V17.6114C17 17.6114 17 17.6114 17 17.6114V13.2214Z" fill="url(#paint0_linear_126_364)"/>
<defs>
<linearGradient id="paint0_linear_126_364" x1="5" y1="19" x2="20.6" y2="13.8" gradientUnits="userSpaceOnUse">
<stop stop-color="#BBBBBB"/>
<stop offset="1" stop-color="#EEEEEE"/>
</linearGradient>
</defs>
</svg>
