<svg xmlns="http://www.w3.org/2000/svg" width="16" height="16">
<path fill="#fcfcfc" d="M1.973 0s-.299 1.476-.031 2.791A7.95 7.95 0 0 0 0 8c0 4.412 3.588 8 8 8s8-3.588 8-8c0-2.014-.752-3.85-1.984-5.258.126-.657.117-1.328.072-1.853V.873A10 10 0 0 0 13.973 0s-.158.187-.375.41c-.13.135-.3.29-.49.453-.014.011-.02.02-.034.032a6 6 0 0 1-.63.457A7.96 7.96 0 0 0 8 0a7.96 7.96 0 0 0-4.477 1.371 6 6 0 0 1-.626-.453 7 7 0 0 1-.575-.531c-.19-.2-.35-.387-.35-.387zM8 1a7 7 0 0 1 3.36.855 3.1 3.1 0 0 1-.887.145c0 .991 1.505 2.5 2.5 2.5a1.9 1.9 0 0 0 .648-.666A6.96 6.96 0 0 1 15 8c0 3.872-3.128 7-7 7s-7-3.128-7-7a6.96 6.96 0 0 1 1.35-4.125c.16.25.36.467.623.625.995 0 2.5-1.509 2.5-2.5a3.1 3.1 0 0 1-.852-.133A7 7 0 0 1 8 1M4.98 5.037c-.729 0-1.254.339-1.543.674a2 2 0 0 0-.388.693c-.177.644.788.91.965.266 0 0 .037-.142.18-.307.142-.165.34-.326.786-.326.892 0 1.082.676 1.082.676.234.626 1.174.274.938-.352 0 0-.56-1.324-2.02-1.324m6 0c-.729 0-1.254.339-1.543.674a2 2 0 0 0-.388.693c-.177.644.788.91.965.266 0 0 .037-.142.18-.307.142-.165.34-.326.786-.326.892 0 1.082.676 1.082.676.234.626 1.174.274.938-.352 0 0-.56-1.324-2.02-1.324M3.096 8s-.042.633-.065.895c0 2.826 2.236 5.142 5 5.142s5-2.316 5-5.142c0-.175-.062-.895-.062-.895zm.963 1.037h7.945a4.3 4.3 0 0 1-.19 1.076 6.94 6.94 0 0 1-3.681.992c-2.211-.018-3.885-.996-3.885-.996-.085-.17-.176-.696-.19-1.072zm.728 2.36c1.331.508 3.715 1.084 6.26.07l-.04.04c.04-.014.086-.024.126-.04C10.406 12.419 9.323 13 8 13c-1.324 0-2.489-.61-3.213-1.604z" color="#fcfcfc" overflow="visible" style="marker:none"/>
</svg>
