<svg xmlns="http://www.w3.org/2000/svg" width="16" height="16">
<style id="current-color-scheme" type="text/css">
.ColorScheme-Text{color:#fcfcfc}
</style>
<path d="M5 5c.55 0 1 .45 1 1s-.45 1-1 1-1-.45-1-1 .45-1 1-1m6 0c.55 0 1 .45 1 1s-.45 1-1 1-1-.45-1-1 .45-1 1-1M6.06 9.5c.76-.1 1.61.19 2.38.96.58.59.98.65 1.37.6.39-.06.82-.3 1.22-.63.62-.79 1.64.45.75.91-.47.39-1.06.8-1.81.91-.76.1-1.63-.17-2.41-.94-.59-.59-.96-.68-1.34-.63s-.83.31-1.25.66c-.62.79-1.64-.45-.75-.91.49-.4 1.09-.83 1.84-.93" class="ColorScheme-Text" style="fill:currentColor"/>
<path d="M8 0a8 8 0 0 0-8 8 8 8 0 0 0 8 8 8 8 0 0 0 8-8 8 8 0 0 0-8-8m0 1a7 7 0 0 1 7 7 7 7 0 0 1-7 7 7 7 0 0 1-7-7 7 7 0 0 1 7-7" class="ColorScheme-Text" style="fill:currentColor"/>
</svg>
