<svg xmlns="http://www.w3.org/2000/svg" width="16" height="16">
<style id="current-color-scheme" type="text/css">
.ColorScheme-Text{color:#fcfcfc}
</style>
<path d="M5 5c.55 0 1 .45 1 1s-.45 1-1 1-1-.45-1-1 .45-1 1-1m6 0c.55 0 1 .45 1 1s-.45 1-1 1-1-.45-1-1 .45-1 1-1M4 9l4 1 4-1c.02.14.02.27 0 .4-.06.39-.27.67-.66.75L10 10.5l1.31.31c.54.14.66.5.69.84.01.12 0 .24 0 .35l-4-1-4 1c-.07-.64.05-.98.53-1.13L6 10.5l-1.5-.35c-.47-.13-.58-.67-.5-1.15" class="ColorScheme-Text" style="fill:currentColor"/>
<path d="M8 0a8 8 0 0 0-8 8 8 8 0 0 0 8 8 8 8 0 0 0 8-8 8 8 0 0 0-8-8m0 1a7 7 0 0 1 7 7 7 7 0 0 1-7 7 7 7 0 0 1-7-7 7 7 0 0 1 7-7" class="ColorScheme-Text" style="fill:currentColor"/>
</svg>
