<svg xmlns="http://www.w3.org/2000/svg" width="16" height="16">
<style id="current-color-scheme" type="text/css">
.ColorScheme-Text{color:#fcfcfc}
</style>
<path d="M5.53 4C4.8 4 4.06 4.44 4 5.31c-.12 1.73 1.5-.34 3 0C7 4.44 6.27 4 5.53 4m4.94 0C9.73 4 9 4.44 9 5.31c1.5-.34 3.13 1.73 3 0-.06-.87-.8-1.31-1.53-1.31M8 7c-1.38 0-2.5 1.34-2.5 3 0 1.65 1.12 3 2.5 3s2.5-1.35 2.5-3c0-1.66-1.12-3-2.5-3" class="ColorScheme-Text" style="fill:currentColor"/>
<path d="M8 0a8 8 0 0 0-8 8 8 8 0 0 0 8 8 8 8 0 0 0 8-8 8 8 0 0 0-8-8m0 1a7 7 0 0 1 7 7 7 7 0 0 1-7 7 7 7 0 0 1-7-7 7 7 0 0 1 7-7" class="ColorScheme-Text" style="fill:currentColor"/>
</svg>
