<svg xmlns="http://www.w3.org/2000/svg" width="16" height="16">
<path fill="#fcfcfc" d="M8 0C3.588 0 0 3.588 0 8s3.588 8 8 8 8-3.588 8-8-3.588-8-8-8m0 1c.66 0 1.296.098 1.9.268l.188.748c.816-.204 1.381.116 1.822.523s.674.87.674.87l.48-.237A6.97 6.97 0 0 1 15 8c0 3.872-3.128 7-7 7s-7-3.128-7-7a6.97 6.97 0 0 1 1.935-4.828l.481.236s.231-.462.672-.869c.44-.407 1.007-.727 1.822-.523l.188-.748A7 7 0 0 1 8 1M4.98 4.031c-.729 0-1.254.339-1.543.674a2 2 0 0 0-.388.693c-.177.644.788.91.965.266 0 0 .037-.142.18-.307.142-.165.34-.326.786-.326.892 0 1.082.676 1.082.676.235.625 1.172.274.938-.352 0 0-.56-1.324-2.02-1.324m6 0c-.729 0-1.254.339-1.543.674a2 2 0 0 0-.388.693c-.177.644.788.91.965.266 0 0 .037-.142.18-.307.142-.165.34-.326.786-.326.892 0 1.082.676 1.082.676.235.626 1.172.274.938-.352 0 0-.56-1.324-2.02-1.324M3.062 8c-.01.144-.03.312-.03.459 0 3.077 2.238 5.572 5 5.572s5-2.495 5-5.572c0-.147-.022-.315-.031-.459zM4 9h8s.026.51-.2 1l-7.569.031C4.061 9.843 4 9 4 9" color="#fcfcfc" overflow="visible" style="marker:none"/>
</svg>
