<svg xmlns="http://www.w3.org/2000/svg" width="16" height="16">
<path fill="#fcfcfc" d="M8 0C6.174 0 4.522.167 3.291.451c-.615.142-1.123.31-1.52.526a1.9 1.9 0 0 0-.513.388A.98.98 0 0 0 1 2c0 .25.115.474.258.635.142.16.315.28.514.388.396.217.904.384 1.519.526C4.521 3.833 6.174 4 8 4s3.478-.167 4.709-.451c.615-.142 1.123-.31 1.52-.526.198-.108.37-.227.513-.388A.98.98 0 0 0 15 2a.98.98 0 0 0-.258-.635 1.9 1.9 0 0 0-.514-.388c-.396-.217-.904-.384-1.519-.526C11.479.167 9.826 0 8 0m0 1c1.764 0 3.362.167 4.484.426.561.13 1.004.287 1.266.43a1 1 0 0 1 .203.144 1 1 0 0 1-.203.145c-.262.142-.705.3-1.266.43C11.362 2.833 9.764 3 8 3s-3.362-.167-4.484-.426c-.561-.13-1.004-.287-1.266-.43A1 1 0 0 1 2.047 2a1 1 0 0 1 .203-.145c.262-.142.705-.3 1.266-.43C4.638 1.167 6.236 1 8 1M1.305 3.637A7.94 7.94 0 0 0 0 8c0 4.412 3.588 8 8 8s8-3.588 8-8a7.93 7.93 0 0 0-1.305-4.36 7 7 0 0 1-.912.43A6.992 6.992 0 0 1 8 15c-3.872 0-7-3.128-7-7 0-1.462.454-2.81 1.219-3.93a7 7 0 0 1-.914-.433m4.673 1.861c-.406.031-.729.919-.728 2.002 0 2.67 1.5 2.67 1.5 0 0-1.128-.349-2.034-.771-2.002zm4 0c-.406.031-.729.919-.728 2.002 0 2.67 1.5 2.67 1.5 0 0-1.128-.349-2.034-.771-2.002zM5.174 10.83l-.707.707A5 5 0 0 0 8 13.004a5 5 0 0 0 3.533-1.467l-.707-.707A4 4 0 0 1 8 12.004a4 4 0 0 1-2.826-1.174" color="#fcfcfc" overflow="visible" style="marker:none"/>
</svg>
