<svg xmlns="http://www.w3.org/2000/svg" width="16" height="16">
<path fill="#fcfcfc" d="M8 0C6.47 0 5.045.438 3.828 1.186l-.045.006c-.785.177-1.353.56-1.353.56l.214.32A7.97 7.97 0 0 0 0 8c0 4.412 3.588 8 8 8s8-3.588 8-8a7.97 7.97 0 0 0-2.686-5.963l.192-.285s-.544-.36-1.297-.543A7.94 7.94 0 0 0 8 0m0 1c.773 0 1.514.129 2.209.36-.28.124-.554.297-.81.544l.695.721c.577-.558 1.193-.584 1.758-.47a7 7 0 0 1 1.088.882 3.3 3.3 0 0 0-.94-.144c-.736 0-1.479.241-2.05.75-.573.508-.95 1.291-.95 2.25 0 .958.377 1.74.95 2.248.571.508 1.314.752 2.05.752s1.479-.244 2.05-.752c.392-.348.68-.83.83-1.403.075.41.12.83.12 1.262 0 3.872-3.128 7-7 7s-7-3.128-7-7c0-.432.045-.852.12-1.262.15.572.438 1.055.83 1.403.571.508 1.314.752 2.05.752s1.479-.244 2.05-.752c.573-.509.95-1.29.95-2.248s-.377-1.742-.95-2.25c-.571-.509-1.314-.75-2.05-.75-.317 0-.634.052-.94.144a7 7 0 0 1 1.11-.896c.541-.094 1.123-.046 1.672.484l.695-.72a2.8 2.8 0 0 0-.78-.532A7 7 0 0 1 8 1M4 3.893c.514 0 1.021.173 1.387.498.365.325.613.793.613 1.502 0 .708-.248 1.177-.613 1.502-.366.325-.873.498-1.387.498s-1.021-.173-1.387-.498C2.248 7.07 2 6.601 2 5.893c0-.709.248-1.177.613-1.502.366-.325.873-.498 1.387-.498m8 0c.514 0 1.021.173 1.387.498.365.325.613.793.613 1.502 0 .708-.248 1.177-.613 1.502-.366.325-.873.498-1.387.498s-1.021-.173-1.387-.498C10.248 7.07 10 6.601 10 5.893c0-.709.248-1.177.613-1.502.366-.325.873-.498 1.387-.498M4.025 5.018a.875.875 0 0 0-.9.875.875.875 0 0 0 1.75 0 .875.875 0 0 0-.85-.875m8 0a.875.875 0 0 0-.9.875.875.875 0 0 0 1.75 0 .875.875 0 0 0-.85-.875M8 9a2 2 0 1 0 0 4 2 2 0 0 0 0-4" color="#fcfcfc" overflow="visible" style="marker:none"/>
</svg>
