<svg width="256" height="256" viewBox="0 0 256 256" fill="none" xmlns="http://www.w3.org/2000/svg">
<rect width="256" height="256" rx="65" fill="#006699"/>
<rect x="28" y="28" width="200" height="200" rx="45" fill="#F9F9F9"/>
<path d="M0 81C0 61.67 15.67 46 35 46H83.4744C96.0907 46 108.308 50.4232 118 58.5V58.5C127.692 66.5768 139.909 71 152.526 71H221C240.33 71 256 86.67 256 106V191C256 226.899 226.899 256 191 256H65C29.1015 256 0 226.899 0 191V81Z" fill="#2991C9"/>
<path d="M128.523 160.072C146.787 160.072 162.501 143.762 162.501 122.526C162.501 101.545 146.702 86 128.523 86C110.345 86 94.5454 101.885 94.5454 122.696C94.5454 143.763 110.345 160.072 128.523 160.072ZM75.1781 238.731H181.869C195.205 238.731 199.962 234.908 199.962 227.433C199.962 205.517 172.525 175.277 128.523 175.277C84.4371 175.277 57 205.517 57 227.433C57 234.908 61.7565 238.731 75.1781 238.731Z" fill="#FAFAFA"/>
</svg>
