<svg width="256" height="256" viewBox="0 0 256 256" fill="none" xmlns="http://www.w3.org/2000/svg">
<rect width="256" height="256" rx="65" fill="#006699"/>
<rect x="28" y="28" width="200" height="200" rx="45" fill="#F9F9F9"/>
<path d="M0 81C0 61.67 15.67 46 35 46H83.4744C96.0907 46 108.308 50.4232 118 58.5V58.5C127.692 66.5768 139.909 71 152.526 71H221C240.33 71 256 86.67 256 106V191C256 226.899 226.899 256 191 256H65C29.1015 256 0 226.899 0 191V81Z" fill="#2991C9"/>
<path d="M140.5 99.5H90.5C87.1848 99.5 84.0054 100.817 81.6612 103.161C79.317 105.505 78 108.685 78 112V212C78 215.315 79.317 218.495 81.6612 220.839C84.0054 223.183 87.1848 224.5 90.5 224.5H165.5C168.815 224.5 171.995 223.183 174.339 220.839C176.683 218.495 178 215.315 178 212V137L140.5 99.5Z" stroke="#F9F9F9" stroke-width="10.68" stroke-linecap="round" stroke-linejoin="round"/>
<path d="M140.5 99.5V137H178" stroke="#F9F9F9" stroke-width="10.68" stroke-linecap="round" stroke-linejoin="round"/>
<path d="M153 168.25H103" stroke="#F9F9F9" stroke-width="10.68" stroke-linecap="round" stroke-linejoin="round"/>
<path d="M153 193.25H103" stroke="#F9F9F9" stroke-width="10.68" stroke-linecap="round" stroke-linejoin="round"/>
<path d="M115.5 143.25H109.25H103" stroke="#F9F9F9" stroke-width="10.68" stroke-linecap="round" stroke-linejoin="round"/>
</svg>
