<svg width="256" height="256" viewBox="0 0 256 256" fill="none" xmlns="http://www.w3.org/2000/svg">
<rect width="256" height="256" rx="65" fill="#006699"/>
<rect x="28" y="28" width="200" height="200" rx="45" fill="#F9F9F9"/>
<path d="M0 81C0 61.67 15.67 46 35 46H83.4744C96.0907 46 108.308 50.4232 118 58.5V58.5C127.692 66.5768 139.909 71 152.526 71H221C240.33 71 256 86.67 256 106V191C256 226.899 226.899 256 191 256H65C29.1015 256 0 226.899 0 191V81Z" fill="#2991C9"/>
<path d="M177.922 197.656C177.922 218.771 161.835 226.743 151.205 226.743C139.068 226.743 130.378 218.843 130.378 207.639C130.378 196.651 137.201 189.11 151.852 186.094L163.271 183.652C166.216 183.077 167.724 180.923 167.724 177.619L167.458 128.437L114.35 139.316C111.118 139.962 110.544 140.608 110.544 144.199V209.913C110.544 231.028 94.4565 239 83.8272 239C71.6899 239 63 231.1 63 219.896C63 208.908 69.8226 201.367 84.4737 198.351L95.893 195.909C98.8375 195.334 100.346 193.18 100.346 189.876L99.9145 110.014C99.9145 105.705 102.572 103.119 107.456 102.042L170.776 89.1625C174.654 88.3008 177.958 90.9578 177.958 94.9796V122.055C177.958 122.27 177.946 122.48 177.922 122.687V197.656Z" fill="#F9F9F9"/>
</svg>
