<svg width="256" height="256" viewBox="0 0 256 256" fill="none" xmlns="http://www.w3.org/2000/svg">
<rect width="256" height="256" rx="65" fill="#006699"/>
<rect x="28" y="28" width="200" height="200" rx="45" fill="#F9F9F9"/>
<path d="M0 81C0 61.67 15.67 46 35 46H83.4744C96.0907 46 108.308 50.4232 118 58.5V58.5C127.692 66.5768 139.909 71 152.526 71H221C240.33 71 256 86.67 256 106V191C256 226.899 226.899 256 191 256H65C29.1015 256 0 226.899 0 191V81Z" fill="#2991C9"/>
<path d="M85.2238 186.56H171.243C183.953 186.56 190.701 179.922 190.701 166.912V121.648C190.701 108.639 183.953 102 171.243 102H85.2238C73.1036 102 65.7006 108.639 65.7006 121.648V166.912C65.7006 179.922 72.4486 186.56 85.2238 186.56ZM85.0927 176.502C79.2618 176.502 76.2482 173.35 76.2482 167.449V121.112C76.2482 115.21 79.2618 112.126 85.0927 112.126H171.374C177.14 112.126 180.153 115.21 180.153 121.112V167.449C180.153 173.35 177.14 176.502 171.374 176.502H85.0927ZM151 228.204C157.813 228.204 163.644 223.711 165.806 217.474H185.721C188.408 217.474 190.701 215.127 190.701 212.11C190.701 209.025 188.408 206.678 185.721 206.678H165.806C163.644 200.442 157.813 196.016 151 196.016C144.186 196.016 138.356 200.442 136.128 206.678H71.0071C68.059 206.678 65.7006 209.025 65.7006 212.11C65.7006 215.127 68.059 217.474 71.0071 217.474H136.128C138.29 223.711 144.186 228.204 151 228.204ZM151 219.955C146.676 219.955 143.334 216.468 143.334 212.11C143.334 207.617 146.676 204.197 151 204.197C155.324 204.197 158.665 207.617 158.665 212.11C158.665 216.468 155.324 219.955 151 219.955Z" fill="#F9F9F9"/>
<path d="M127.913 151.43C133.671 151.43 138.626 146.166 138.626 139.312C138.626 132.54 133.644 127.523 127.913 127.523C122.181 127.523 117.199 132.65 117.199 139.367C117.199 146.166 122.154 151.43 127.913 151.43ZM97.0839 152.06C102.066 152.06 106.405 147.454 106.405 141.505C106.405 135.611 102.039 131.252 97.0839 131.252C92.1022 131.252 87.7095 135.72 87.7362 141.56C87.7362 147.454 92.0753 152.06 97.0839 152.06ZM158.741 152.06C163.75 152.06 168.089 147.454 168.089 141.56C168.089 135.72 163.723 131.252 158.741 131.252C153.786 131.252 149.42 135.611 149.42 141.505C149.42 147.454 153.76 152.06 158.741 152.06ZM82.1383 176.817H102.494C99.7088 172.677 103.11 164.342 108.869 159.791C105.896 157.763 102.066 156.255 97.0572 156.255C84.9775 156.255 77.4243 165.384 77.4243 172.978C77.4243 175.446 78.7635 176.817 82.1383 176.817ZM173.687 176.817C177.089 176.817 178.401 175.446 178.401 172.978C178.401 165.384 170.848 156.255 158.768 156.255C153.76 156.255 149.93 157.763 146.956 159.791C152.715 164.342 156.117 172.677 153.331 176.817H173.687ZM111.065 176.817H144.733C148.938 176.817 150.439 175.583 150.439 173.17C150.439 166.097 141.787 156.337 127.886 156.337C114.012 156.337 105.36 166.097 105.36 173.17C105.36 175.583 106.86 176.817 111.065 176.817Z" fill="#F9F9F9"/>
</svg>
