<svg width="256" height="256" viewBox="0 0 256 256" fill="none" xmlns="http://www.w3.org/2000/svg">
<rect width="256" height="256" rx="65" fill="#006699"/>
<rect x="28" y="28" width="200" height="200" rx="45" fill="#F9F9F9"/>
<path d="M0 81C0 61.67 15.67 46 35 46H83.4744C96.0907 46 108.308 50.4232 118 58.5V58.5C127.692 66.5768 139.909 71 152.526 71H221C240.33 71 256 86.67 256 106V191C256 226.899 226.899 256 191 256H65C29.1015 256 0 226.899 0 191V81Z" fill="#2991C9"/>
<path d="M128.032 179.436C129.303 179.436 130.384 178.991 131.72 177.719L153.148 156.99C154.102 156.037 154.674 155.019 154.674 153.62C154.674 151.077 152.703 149.169 150.032 149.169C148.824 149.169 147.489 149.678 146.599 150.695L136.934 160.996L132.673 165.447L133.055 155.973V92.9588C133.055 90.2879 130.766 88 128.032 88C125.298 88 122.945 90.2879 122.945 92.9588V155.973L123.326 165.511L119.066 160.996L109.401 150.695C108.511 149.678 107.112 149.169 105.904 149.169C103.233 149.169 101.325 151.077 101.325 153.62C101.325 155.019 101.898 156.037 102.852 156.99L124.344 177.719C125.615 178.991 126.696 179.436 128.032 179.436ZM72.9661 235.01H183.034C196.323 235.01 203 228.397 203 215.299V180.199C203 174.477 202.173 171.742 199.376 168.118L178.01 140.839C170.316 130.984 167.264 129.012 156.009 129.012H144.755V137.914H156.709C161.351 137.914 164.403 138.741 168.027 143.383L189.965 171.869C192.444 175.112 191.617 176.384 188.121 176.384H148.888C145.391 176.384 143.674 179.055 143.674 181.916V182.107C143.674 189.928 137.57 198.194 127.968 198.194C118.43 198.194 112.326 189.928 112.326 182.107V181.916C112.326 179.055 110.609 176.384 107.112 176.384H67.9427C64.3184 176.384 63.7459 174.858 66.0352 171.869L87.8453 143.574C91.5966 138.805 94.649 137.914 99.2907 137.914H111.308V129.012H99.9901C88.7355 129.012 85.7468 130.984 77.8623 141.03L56.6243 168.118C53.8267 171.742 53 174.477 53 180.199V215.299C53 228.461 59.7402 235.01 72.9661 235.01Z" fill="#F9F9F9"/>
</svg>
