<svg width="256" height="256" viewBox="0 0 256 256" fill="none" xmlns="http://www.w3.org/2000/svg">
<rect width="256" height="256" rx="65" fill="#006699"/>
<rect x="28" y="28" width="200" height="200" rx="45" fill="#F9F9F9"/>
<path d="M0 81C0 61.67 15.67 46 35 46H83.4744C96.0907 46 108.308 50.4232 118 58.5V58.5C127.692 66.5768 139.909 71 152.526 71H221C240.33 71 256 86.67 256 106V191C256 226.899 226.899 256 191 256H65C29.1015 256 0 226.899 0 191V81Z" fill="#2991C9"/>
<path d="M160.467 148.076C162.797 148.693 164.58 148.693 166.362 147.596C168.144 146.499 169.104 145.06 169.721 142.729L175.479 119.903C176.233 117.024 174.656 114.282 171.777 113.596C168.967 112.842 166.019 114.419 165.402 117.367L162.523 129.637L143.947 96.5281C140.451 90.2219 134.144 87 127.701 87C121.326 87 114.951 90.2903 111.387 96.5281L92.4672 130.322C90.7537 133.407 91.7133 136.354 94.3183 137.931C97.0602 139.439 100.282 138.479 101.858 135.738L120.777 101.806C122.354 99.0644 125.028 97.8992 127.701 97.8992C130.374 97.8992 132.979 99.0644 134.487 101.806L153.338 135.463L140.656 131.693C137.777 130.802 134.967 132.447 134.213 135.326C133.39 138.068 134.898 140.879 137.846 141.701L160.467 148.076ZM74.919 219.092H111.661C114.882 219.092 117.282 216.829 117.282 213.745C117.282 210.66 114.882 208.33 111.661 208.33H74.9878C70.2579 208.33 67.1048 204.422 67.1048 200.172C67.1048 198.938 67.3104 197.43 68.0644 196.128L85.6126 164.733L88.4917 177.003C89.1085 179.951 92.056 181.527 94.8667 180.773C97.7455 180.088 99.3906 177.346 98.5682 174.467L92.81 151.641C92.1932 149.378 91.2336 147.802 89.4513 146.774C87.669 145.677 85.9554 145.608 83.6247 146.294L61.0039 152.669C57.9879 153.491 56.4797 156.302 57.3024 159.044C58.0564 161.923 60.8667 163.636 63.7458 162.677L76.4273 158.906L58.6047 190.85C56.8912 193.866 56 197.088 56 200.172C56 210.797 63.2661 219.092 74.919 219.092ZM146.689 235.406C148.814 237.599 152.035 237.462 154.092 235.406C156.148 233.418 156.148 230.128 153.955 228.003L144.564 219.092H180.414C192.067 219.092 199.334 210.797 199.334 200.172C199.334 197.088 198.511 193.934 196.797 190.85L178.7 158.427C177.055 155.479 173.902 154.794 171.229 156.37C168.555 157.947 167.664 161.169 169.172 163.911L187.269 196.128C187.954 197.43 188.297 198.938 188.297 200.172C188.297 204.422 185.006 208.33 180.277 208.33H144.564L153.955 199.487C156.148 197.362 156.148 194.072 154.092 192.084C152.035 189.959 148.814 189.89 146.689 192.084L129.894 208.398C128.181 210.043 127.358 211.688 127.358 213.745C127.358 215.801 128.181 217.378 129.894 219.023L146.689 235.406Z" fill="#F9F9F9"/>
</svg>
