<svg width="16" height="16">
<style id="current-color-scheme" type="text/css">
.ColorScheme-Text{color:#fcfcfc}
</style>
<path d="M7 0C5.892 0 5 .892 5 2v1H2.846A1.84 1.84 0 0 0 1 4.846V8h2c.554 0 1 .446 1 1s-.446 1-1 1H1v3.154C1 14.177 1.823 15 2.846 15H6v-2c0-.554.446-1 1-1s1 .446 1 1v2h3.154A1.84 1.84 0 0 0 13 13.154V11h1c1.108 0 2-.892 2-2s-.892-2-2-2h-1V4.846A1.84 1.84 0 0 0 11.154 3H9V2c0-1.108-.892-2-2-2m0 1c.554 0 1 .446 1 1v2h3c.554 0 1 .446 1 1v3h2c.554 0 1 .446 1 1s-.446 1-1 1h-2v3c0 .554-.446 1-1 1H9v-1c0-1.108-.892-2-2-2s-2 .892-2 2v1H3c-.554 0-1-.446-1-1v-2h1c1.108 0 2-.892 2-2s-.892-2-2-2H2V5c0-.554.446-1 1-1h3V2c0-.554.446-1 1-1" class="ColorScheme-Text" style="fill:currentColor"/>
</svg>
