<svg xmlns="http://www.w3.org/2000/svg" width="16" height="16">
<style id="current-color-scheme" type="text/css">
.ColorScheme-Text{color:#fcfcfc}
</style>
<path d="M9.414.929a1.996 1.996 0 0 0-2.828 0L.929 6.586a1.996 1.996 0 0 0 0 2.828l5.657 5.657a1.996 1.996 0 0 0 2.828 0l5.657-5.657a1.996 1.996 0 0 0 0-2.828zm-.707.707 5.657 5.657a1 1 0 0 1 0 1.414l-5.657 5.657a1 1 0 0 1-1.414 0L1.636 8.707a1 1 0 0 1 0-1.414l5.657-5.657a1 1 0 0 1 1.414 0" class="ColorScheme-Text" style="fill:currentColor"/>
<path d="m8.295.365-.553.32a5 5 0 0 0-.271-.27c-.324.088-.63.26-.885.515l-.012.01A4 4 0 0 1 8 4a4 4 0 0 1-4 4A4 4 0 0 1 .941 6.574l-.011.012c-.255.254-.425.56-.514.883a5 5 0 0 0 .271.271l-.322.557c.035.228.107.452.22.66l1.28.738.557-.96A5 5 0 0 0 3 8.886V10h2V8.887a5 5 0 0 0 .578-.153l.557.961 1.73-1-.552-.955a5 5 0 0 0 .427-.428l.955.553 1-1.73-.96-.557A5 5 0 0 0 8.886 5H10V3H8.898a5 5 0 0 0-.158-.584l.955-.55-.738-1.28a2 2 0 0 0-.662-.22M5.863 1.652l-.713.713A2 2 0 0 1 6 4a2 2 0 0 1-2 2 2 2 0 0 1-1.629-.855l-.71.71A3 3 0 0 0 4 7a3 3 0 0 0 3-3 3 3 0 0 0-1.137-2.348M11.5 8v1.047a3 3 0 0 0-.541.148l-.525-.91-.868.5.524.906a3 3 0 0 0-.399.399l-.906-.524-.5.868.91.525a3 3 0 0 0-.148.541H8v1h1.047a3 3 0 0 0 .148.541l-.91.525.5.868.906-.524a3 3 0 0 0 .399.399l-.117.203.879-.88A2 2 0 0 1 10 12a2 2 0 0 1 1-1.732A2 2 0 0 1 12 10a2 2 0 0 1 1.637.848l.877-.877-.203.117a3 3 0 0 0-.399-.398l.522-.905-.868-.5-.521.905a3 3 0 0 0-.545-.147V8zm.5 3a1 1 0 0 0-.707.293 1 1 0 0 0 0 1.414l1.414-1.414A1 1 0 0 0 12 11" class="ColorScheme-Text" style="fill:currentColor"/>
</svg>
