<svg xmlns="http://www.w3.org/2000/svg" width="16" height="16">
<style id="current-color-scheme" type="text/css">
.ColorScheme-Text{color:#fcfcfc}
</style>
<path d="M1.5 0C.676 0 0 .676 0 1.5S.676 3 1.5 3c.645 0 1.2-.418 1.41-.996L4.691 2l.364.719a.503.503 0 0 0 .672.222.5.5 0 0 0 .25-.289.52.52 0 0 0-.028-.382L5.31 1l-2.395.004A1.51 1.51 0 0 0 1.5 0M9 0v1H8v1H7v1h1v1H7v1h1v1H7v1h1v1h1v1h1V8h1v1h1V8h1v1h1V8h1V7h1V6h-1V5h1V4h-1V3h1V2h-1V1h-1V0h-1v1h-1V0h-1v1h-1V0zM1.5 1c.281 0 .5.219.5.5s-.219.5-.5.5-.5-.219-.5-.5.219-.5.5-.5m8 1h4c.277 0 .5.223.5.5v4c0 .277-.223.5-.5.5h-4a.5.5 0 0 1-.5-.5v-4c0-.277.223-.5.5-.5M0 4v1h3.223l1.039 1.664h-.004A1.47 1.47 0 0 0 4 7.5C4 8.324 4.676 9 5.5 9S7 8.324 7 7.5a1.506 1.506 0 0 0-1.93-1.437L3.777 4zm0 3v1h1.73l2 3h.958l.718 1.48a1.5 1.5 0 0 0-.32.52H4.27l-2-3H0v1h1.73l2 3h1.356c.211.578.766 1 1.414 1 .824 0 1.5-.676 1.5-1.5S7.324 12 6.5 12q-.105.002-.21.016L5.796 11H7.71l.797 1.379A1.5 1.5 0 0 0 8 13.5c0 .824.676 1.5 1.5 1.5s1.5-.676 1.5-1.5-.676-1.5-1.5-1.5c-.02 0-.035 0-.054.004L8.867 11h1.844l.801 1.375c-.313.277-.512.68-.512 1.125 0 .824.676 1.5 1.5 1.5s1.5-.676 1.5-1.5-.676-1.5-1.5-1.5c-.015 0-.035 0-.05.004L11.866 11h1.22c.21.578.765 1 1.413 1 .825 0 1.5-.676 1.5-1.5S15.325 9 14.5 9c-.648 0-1.203.422-1.414 1H4.27l-2-3zm5.5 0c.281 0 .5.219.5.5s-.219.5-.5.5-.5-.219-.5-.5.219-.5.5-.5m9 3c.281 0 .5.219.5.5s-.219.5-.5.5-.5-.219-.5-.5.219-.5.5-.5m-8 3c.281 0 .5.219.5.5s-.219.5-.5.5-.5-.219-.5-.5.219-.5.5-.5m3 0c.281 0 .5.219.5.5s-.219.5-.5.5-.5-.219-.5-.5.219-.5.5-.5m3 0c.281 0 .5.219.5.5s-.219.5-.5.5-.5-.219-.5-.5.219-.5.5-.5" class="ColorScheme-Text" style="fill:currentColor"/>
</svg>
