<svg xmlns="http://www.w3.org/2000/svg" width="16" height="16">
<path fill="#fcfcfc" d="M2.5 3C1.67 3 1 3.669 1 4.5v8c0 .831.67 1.5 1.5 1.5h11c.831 0 1.5-.669 1.5-1.5v-8c0-.831-.669-1.5-1.5-1.5zm0 1h11c.277 0 .5.223.5.5V6H9v2h5v4.5c0 .277-.223.5-.5.5h-11a.5.5 0 0 1-.5-.5v-8c0-.277.223-.5.5-.5m8 7a.5.5 0 0 0-.5.5.5.5 0 0 0 .5.5.5.5 0 0 0 .5-.5.5.5 0 0 0-.5-.5m2 0a.5.5 0 0 0-.5.5.5.5 0 0 0 .5.5.5.5 0 0 0 .5-.5.5.5 0 0 0-.5-.5" style="isolation:auto;mix-blend-mode:normal"/>
<path fill="#fcfcfc" fill-rule="evenodd" d="M5.5 6A1.5 1.5 0 0 0 4 7.5 1.5 1.5 0 0 0 5.5 9 1.5 1.5 0 0 0 7 7.5 1.5 1.5 0 0 0 5.5 6m0 1a.5.5 0 0 1 .5.5.5.5 0 0 1-.5.5.5.5 0 0 1-.5-.5.5.5 0 0 1 .5-.5M4 10c-.554 0-1 .446-1 1v2h1v-2h3v2h1v-2c0-.554-.446-1-1-1z" style="paint-order:stroke fill markers"/>
</svg>
