<svg xmlns="http://www.w3.org/2000/svg" width="16" height="16">
<style id="current-color-scheme" type="text/css">
.ColorScheme-Text{color:#fcfcfc}
</style>
<path d="M2.5 3C1.67 3 1 3.669 1 4.5v8c0 .831.67 1.5 1.5 1.5h11c.831 0 1.5-.669 1.5-1.5v-8c0-.831-.669-1.5-1.5-1.5zm0 1h11c.277 0 .5.223.5.5V6H2V4.5c0-.277.223-.5.5-.5M2 8h12v4.5c0 .277-.223.5-.5.5h-11a.5.5 0 0 1-.5-.5zm8.5 3a.5.5 0 0 0-.5.5.5.5 0 0 0 .5.5.5.5 0 0 0 .5-.5.5.5 0 0 0-.5-.5m2 0a.5.5 0 0 0-.5.5.5.5 0 0 0 .5.5.5.5 0 0 0 .5-.5.5.5 0 0 0-.5-.5" class="ColorScheme-Text" style="fill:currentColor"/>
</svg>
