<svg xmlns="http://www.w3.org/2000/svg" width="16" height="16">
<style id="current-color-scheme" type="text/css">
.ColorScheme-Text{color:#fcfcfc}
</style>
<path d="M7.564 2.649a.416.416 0 1 1 .832 0 .416.416 0 0 1-.832 0M2.598 6.416a.416.416 0 1 1 .833 0 .416.416 0 0 1-.833 0m9.93.02a.416.416 0 0 1 .833 0 .416.416 0 0 1-.832 0m-8.726.57a.38.38 0 0 0 .193-.5l-.185-.418h.726v3.273H3.072a5.125 5.124 0 0 1-.166-1.956zm3.038.081v-.964H8.57c.09 0 .63.103.63.507 0 .336-.416.457-.757.457zm-2.362 5.194a.416.416 0 1 1 .832 0 .416.416 0 0 1-.832 0m6.167.02a.416.416 0 0 1 .833 0 .416.416 0 0 1-.833 0m.13-.944a.38.38 0 0 0-.452.291l-.208.975a5.125 5.124 0 0 1-4.274-.02l-.208-.975a.38.38 0 0 0-.451-.292l-.861.185a5.125 5.124 0 0 1-.445-.525h4.188c.047 0 .079-.009.079-.052v-1.48c0-.044-.032-.052-.08-.052H6.84v-.94h1.324c.121 0 .647.036.815.707l.247 1.094c.08.24.4.723.741.723h2.162a5.125 5.124 0 0 1-.475.55zM13.1 7.446a5.125 5.124 0 0 1 .01.89h-.525c-.052 0-.074.034-.074.086v.241c0 .569-.32.691-.601.723-.267.031-.565-.112-.6-.275-.158-.888-.42-1.077-.832-1.405.515-.327 1.05-.81 1.05-1.455 0-.698-.477-1.137-.803-1.352a2.3 2.3 0 0 0-1.1-.362H4.183A5.125 5.124 0 0 1 7.05 2.919l.64.673a.38.38 0 0 0 .537.012l.718-.686a5.125 5.124 0 0 1 3.508 2.498l-.49 1.109a.38.38 0 0 0 .192.501zm1.224.017-.016-.171.505-.472c.103-.096.065-.288-.067-.337l-.646-.242-.05-.166.402-.56c.082-.114.007-.296-.131-.318l-.682-.111-.082-.153.287-.629c.058-.128-.05-.292-.192-.286l-.691.024-.11-.133.16-.674c.031-.137-.107-.275-.244-.243l-.674.158-.133-.109.024-.691c.005-.14-.159-.25-.286-.192l-.629.287-.153-.082-.111-.682c-.022-.138-.205-.213-.318-.131l-.56.402-.167-.05-.241-.646c-.05-.131-.242-.17-.338-.067l-.472.505-.171-.016-.365-.589c-.073-.119-.27-.119-.344 0l-.364.589-.172.016-.472-.506c-.097-.103-.29-.065-.338.067l-.242.646-.166.05-.56-.402c-.114-.082-.296-.007-.318.131l-.111.682-.154.082-.628-.286c-.128-.059-.292.05-.286.19l.024.692-.133.11-.674-.16c-.137-.031-.276.107-.244.244l.159.674-.11.133-.69-.024c-.14-.005-.25.158-.192.286l.287.629-.083.153-.682.11c-.138.023-.213.205-.13.319l.402.56-.051.166-.646.242c-.132.049-.17.242-.067.337l.506.472-.017.172-.589.364c-.119.073-.119.27 0 .344l.589.364.017.171-.508.474c-.102.096-.064.289.067.338l.647.241.05.166-.402.56c-.082.114-.007.296.131.319l.682.11.082.153-.287.629c-.058.127.052.291.191.286l.692-.024.11.133-.16.674c-.032.136.107.276.244.243l.674-.159.133.11-.024.691c-.005.14.158.25.286.191l.629-.286.153.082.111.681c.022.139.204.214.318.132l.56-.403.167.05.241.647c.05.131.242.17.338.067l.472-.506.171.018.364.588c.074.118.27.119.345 0l.364-.588.171-.018.472.506c.096.103.289.064.338-.067l.242-.646.166-.051.56.403c.114.082.296.007.318-.132l.111-.681.154-.082.628.286c.128.058.291-.05.286-.19l-.024-.692.133-.11.674.16c.137.031.275-.108.243-.244l-.158-.674.109-.133.691.024c.14.006.25-.159.192-.286l-.287-.629.082-.153.682-.11c.138-.022.214-.204.13-.319l-.402-.56.051-.166.646-.241c.132-.05.17-.242.067-.338l-.506-.472.017-.171.589-.364c.119-.074.12-.27 0-.345z" class="ColorScheme-Text" style="fill:currentColor"/>
</svg>
